<?xml version="1.0" standalone="no"?>
<!DOCTYPE svg PUBLIC "-//W3C//DTD SVG 1.1//EN" "http://www.w3.org/Graphics/SVG/1.1/DTD/svg11.dtd" >
<svg xmlns="http://www.w3.org/2000/svg" xmlns:xlink="http://www.w3.org/1999/xlink" version="1.1">
<metadata>
Created by FontForge 20201107 at Tue Feb  9 14:00:12 2010
 By Jimmy Wärting
Copyright (c) 2010 Linotype GmbH, www.linotype.com. All rights reserved. This font software may not be reproduced, modified, disclosed or transferred without the express written approval of Linotype GmbH. Univers is a trademark of Linotype Corp. registered in the U.S. Patent and Trademark Office and may be registered in certain other jurisdictions in the name of Linotype Corp. or its licensee Linotype GmbH. This typeface is original artwork of Adrian Frutiger and Linotype Design Studio. The design may be protected in certain jurisdictions.
</metadata>
<defs>
<font id="UniversNextPro-Heavy" horiz-adv-x="654" >
  <font-face 
    font-family="Univers Next Pro"
    font-weight="700"
    font-stretch="normal"
    units-per-em="1000"
    panose-1="2 11 9 3 3 2 2 2 2 3"
    ascent="750"
    descent="-250"
    x-height="505"
    cap-height="723"
    bbox="-128 -228 1190 968"
    underline-thickness="50"
    underline-position="-100"
    unicode-range="U+000D-FB04"
  />
<missing-glyph horiz-adv-x="512" 
d="M222 117v67h56v-67h-56zM223 234v17q0 27 3 46.5t10 35t18 29t28 29.5q16 16 26 28t15 22t7 19t2 20q0 36 -22.5 57.5t-53.5 21.5t-53.5 -22t-28.5 -73l-50 8q7 72 44 104.5t91 32.5q27 0 49.5 -9t39 -25t26 -39.5t9.5 -51.5q0 -17 -2.5 -32.5t-9.5 -30.5t-19.5 -30
t-31.5 -33q-16 -14 -25.5 -25t-15 -22t-7 -23.5t-1.5 -29.5v-24h-48zM462 50v617h-412v-617h412zM512 718v-718h-512v718h512z" />
    <glyph glyph-name="IJ" unicode="IJ" horiz-adv-x="952" 
d="M76 0v723h188v-723h-188zM884 242q0 -71 -19 -119.5t-59 -80.5q-69 -57 -197 -57q-56 0 -104 12.5t-84 38.5t-56.5 66.5t-20.5 96.5v11.5t1 14.5h186v-24.5t1 -19.5q6 -72 78 -72q26 0 42 9.5t26 25.5q11 17 14.5 40.5t3.5 55.5v483h188v-481v0z" />
    <glyph glyph-name="ij" unicode="ij" horiz-adv-x="606" 
d="M64 596v127h175v-127h-175zM64 0v505h175v-505h-175zM367 596v127h175v-127h-175zM542 -35q0 -55 -11.5 -84.5t-37.5 -46.5q-21 -14 -50.5 -20t-80.5 -6q-29 0 -46 0.5t-29 1.5v111q8 -2 13.5 -2h10.5q35 1 45.5 23.5t10.5 56.5v506h175v-540z" />
    <glyph glyph-name="napostrophe" unicode="&#x22;n" horiz-adv-x="718" 
d="M481 0v272q0 24 -1.5 48t-10 43.5t-26 31.5t-48.5 12q-30 0 -48.5 -14t-28.5 -35.5t-13 -47t-3 -49.5v-261h-175v342v30t-0.5 45.5t-1 48.5t-1.5 39h171q2 -26 3 -50t1 -28q37 45 75.5 65t95.5 20q99 0 142.5 -46.5t43.5 -145.5v-320h-175zM57 457h-106l39 266h142z" />
    <glyph glyph-name="f_f" unicode="ff" horiz-adv-x="802" 
d="M402 617q-13 1 -25 1h-23q-26 0 -40.5 -5.5t-22 -16t-9.5 -25.5t-2 -34v-32h114v-109h-114v-396h-175v396h-95v109h95v66q0 76 49.5 116t140.5 40q26 0 52.5 -1.5t54.5 -3.5v-105v0zM802 617q-13 1 -25 1h-23q-26 0 -40.5 -5.5t-22 -16t-9.5 -25.5t-2 -34v-32h114v-109
h-114v-396h-175v396h-95v109h95v66q0 76 49.5 116t140.5 40q26 0 52.5 -1.5t54.5 -3.5v-105v0z" />
    <glyph glyph-name="fi" unicode="fi" horiz-adv-x="698" 
d="M402 617q-13 1 -25 1h-23q-26 0 -40.5 -5.5t-22 -16t-9.5 -25.5t-2 -34v-32h114v-109h-114v-396h-175v396h-95v109h95v66q0 76 49.5 116t140.5 40q26 0 52.5 -1.5t54.5 -3.5v-105v0zM460 596v127h175v-127h-175zM460 0v505h175v-505h-175z" />
    <glyph glyph-name="fl" unicode="fl" horiz-adv-x="699" 
d="M402 617q-13 1 -25 1h-23q-26 0 -40.5 -5.5t-22 -16t-9.5 -25.5t-2 -34v-32h114v-109h-114v-396h-175v396h-95v109h95v66q0 76 49.5 116t140.5 40q26 0 52.5 -1.5t54.5 -3.5v-105v0zM461 0v723h175v-723h-175z" />
    <glyph glyph-name="f_f_i" unicode="ffi" horiz-adv-x="1099" 
d="M402 617q-13 1 -25 1h-23q-26 0 -40.5 -5.5t-22 -16t-9.5 -25.5t-2 -34v-32h114v-109h-114v-396h-175v396h-95v109h95v66q0 76 49.5 116t140.5 40q26 0 52.5 -1.5t54.5 -3.5v-105v0zM802 617q-13 1 -25 1h-23q-26 0 -40.5 -5.5t-22 -16t-9.5 -25.5t-2 -34v-32h114v-109
h-114v-396h-175v396h-95v109h95v66q0 76 49.5 116t140.5 40q26 0 52.5 -1.5t54.5 -3.5v-105v0zM861 596v127h175v-127h-175zM861 0v505h175v-505h-175z" />
    <glyph glyph-name="f_f_l" unicode="ffl" horiz-adv-x="1100" 
d="M402 617q-13 1 -25 1h-23q-26 0 -40.5 -5.5t-22 -16t-9.5 -25.5t-2 -34v-32h114v-109h-114v-396h-175v396h-95v109h95v66q0 76 49.5 116t140.5 40q26 0 52.5 -1.5t54.5 -3.5v-105v0zM802 617q-13 1 -25 1h-23q-26 0 -40.5 -5.5t-22 -16t-9.5 -25.5t-2 -34v-32h114v-109
h-114v-396h-175v396h-95v109h95v66q0 76 49.5 116t140.5 40q26 0 52.5 -1.5t54.5 -3.5v-105v0zM862 0v723h175v-723h-175z" />
    <glyph glyph-name=".notdef" horiz-adv-x="512" 
d="M222 117v67h56v-67h-56zM223 234v17q0 27 3 46.5t10 35t18 29t28 29.5q16 16 26 28t15 22t7 19t2 20q0 36 -22.5 57.5t-53.5 21.5t-53.5 -22t-28.5 -73l-50 8q7 72 44 104.5t91 32.5q27 0 49.5 -9t39 -25t26 -39.5t9.5 -51.5q0 -17 -2.5 -32.5t-9.5 -30.5t-19.5 -30
t-31.5 -33q-16 -14 -25.5 -25t-15 -22t-7 -23.5t-1.5 -29.5v-24h-48zM462 50v617h-412v-617h412zM512 718v-718h-512v718h512z" />
    <glyph glyph-name="nonmarkingreturn" unicode="&#xd;" horiz-adv-x="0" 
 />
    <glyph glyph-name="space" unicode=" " horiz-adv-x="327" 
 />
    <glyph glyph-name="exclam" unicode="!" horiz-adv-x="416" 
d="M274 206h-133l-31 517h196zM124 0v136h167v-136h-167z" />
    <glyph glyph-name="quotedbl" unicode="&#x22;" horiz-adv-x="481" 
d="M377 467h-86l-25 256h136zM191 467h-87l-25 256h136z" />
    <glyph glyph-name="numbersign" unicode="#" 
d="M511 424l-25 -133h88v-108h-107l-33 -183h-120l32 183h-100l-32 -183h-121l33 183h-88v108h107l23 133h-87v108h107l34 191h121l-34 -191h100l33 191h121l-34 -191h88v-108h-106zM290 424l-25 -133h100l24 133h-99z" />
    <glyph glyph-name="dollar" unicode="$" 
d="M298 290l-37 12q-45 14 -86 31t-67 43q-23 22 -38 51t-15 70q0 51 19 89.5t52 64t77.5 39.5t94.5 17v104h72v-104q47 -3 88 -15.5t71 -36.5t48 -61.5t18 -89.5h-153q-2 38 -18 61t-54 32v-175q58 -19 103 -37t75.5 -41t46.5 -54.5t16 -76.5q0 -54 -19 -94t-51.5 -66
t-76.5 -39.5t-94 -16.5v-113h-72v111q-55 2 -101.5 15.5t-80.5 40.5t-53.5 68t-20.5 100h153q1 -49 24.5 -77t78.5 -34v182zM370 268v-156q44 5 65.5 26.5t21.5 56.5q0 26 -18 42t-50 26zM213 522q0 -22 15.5 -41t63.5 -34l6 -2v154q-37 -1 -61 -22.5t-24 -54.5z" />
    <glyph glyph-name="percent" unicode="%" horiz-adv-x="992" 
d="M972 201q0 -44 -10 -82.5t-32 -66.5t-56.5 -44t-83.5 -16t-83.5 16t-57 44t-33 66t-10.5 82q0 46 11 84.5t33.5 66t57.5 42.5t83 15t82.5 -15.5t56 -43t32 -65.5t10.5 -83zM370 -25h-116l365 776h115zM386 533q0 -44 -10 -82.5t-32 -66.5t-57 -44t-84 -16q-48 0 -83 16
t-57 44t-32.5 66t-10.5 82q0 46 11 84.5t33.5 66t57.5 42.5t83 15t82.5 -15.5t56 -43t32 -65.5t10.5 -83zM848 202q0 22 -1.5 44.5t-7.5 41t-17.5 30t-30.5 11.5q-20 0 -32 -12t-18 -30.5t-8 -42t-2 -46.5q0 -25 2 -48t8.5 -40t18 -27.5t30.5 -10.5q20 0 31.5 10.5
t17.5 28.5t7.5 41.5t1.5 49.5zM261 534q0 22 -1.5 44.5t-7.5 41t-17.5 30t-30.5 11.5q-20 0 -32 -12t-18 -31t-8 -42.5t-2 -46.5q0 -25 2 -47.5t8.5 -40t18 -27.5t30.5 -10t30.5 11t17.5 29t8 41.5t2 48.5z" />
    <glyph glyph-name="ampersand" unicode="&#x26;" horiz-adv-x="843" 
d="M682 332v-332h-309q-69 0 -127 11t-100.5 35.5t-66 64t-23.5 97.5q0 75 43.5 121.5t127.5 63.5q-65 16 -101 55t-36 106q0 49 21 84t56 57.5t80 33.5t94 11q33 0 66 -3t67 -8v-112q-21 4 -40 6.5t-39 2.5q-26 0 -49 -4.5t-40.5 -15t-27.5 -28t-10 -43.5q0 -29 12 -47.5
t32.5 -29t47 -15t55.5 -4.5h99v134h168v-133h129v-108h-129zM514 330h-105q-35 0 -65.5 -5t-53.5 -18t-36 -34t-13 -52q0 -61 48.5 -84t139.5 -23h85v216z" />
    <glyph glyph-name="quotesingle" unicode="'" horiz-adv-x="294" 
d="M191 467h-87l-25 256h136z" />
    <glyph glyph-name="parenleft" unicode="(" horiz-adv-x="332" 
d="M175 -154q-21 52 -42.5 105.5t-39.5 108t-29 110.5t-11 114q0 55 11.5 112t29.5 113.5t39.5 110t42.5 103.5h121q-17 -54 -33.5 -108.5t-29 -109.5t-20.5 -110.5t-8 -112.5q0 -107 26.5 -218t64.5 -218h-122z" />
    <glyph glyph-name="parenright" unicode=")" horiz-adv-x="332" 
d="M279 289q0 -55 -10.5 -110.5t-28 -111t-39 -111t-43.5 -110.5h-123q17 54 33.5 109t29 110t20.5 109.5t8 107.5q0 114 -27.5 223t-63.5 218h122q21 -50 43 -103.5t39.5 -108.5t28.5 -111t11 -111z" />
    <glyph glyph-name="asterisk" unicode="*" horiz-adv-x="467" 
d="M287 507l99 -115l-106 -57l-47 141l-47 -143l-103 59l99 115l-146 -29v118l147 -30l-100 113l101 59l50 -142l47 142l102 -61l-98 -111l146 30v-118z" />
    <glyph glyph-name="plus" unicode="+" horiz-adv-x="663" 
d="M394 202v-202h-124v202h-203v121h203v202h124v-202h202v-121h-202z" />
    <glyph glyph-name="comma" unicode="," horiz-adv-x="327" 
d="M152 -119h-124l64 261h174z" />
    <glyph glyph-name="hyphen" unicode="-" horiz-adv-x="339" 
d="M32 210v110h275v-110h-275z" />
    <glyph glyph-name="period" unicode="." horiz-adv-x="327" 
d="M79 0v144h169v-144h-169z" />
    <glyph glyph-name="slash" unicode="/" horiz-adv-x="309" 
d="M96 -15h-125l243 755h124z" />
    <glyph glyph-name="zero" unicode="0" 
d="M617 364q0 -75 -13 -139.5t-45 -116.5q-35 -57 -92 -90t-142 -33q-80 0 -135 31.5t-89 84t-49 121.5t-15 145q0 75 15.5 143t50.5 119t90 81t135 30q81 0 136 -30t89 -81t49 -119.5t15 -145.5zM439 365q0 39 -3 85.5t-14 86t-33 66.5t-61 27q-41 0 -64 -26.5t-34 -67
t-13.5 -88.5t-2.5 -91q0 -23 1 -50.5t4.5 -55.5t10.5 -54t18 -47q13 -24 31.5 -38t45.5 -14q39 0 62 25.5t34.5 64.5t14.5 86t3 91z" />
    <glyph glyph-name="one" unicode="1" 
d="M281 0v555q-35 -29 -77 -51.5t-88 -38.5v142q30 10 55 21.5t47.5 25.5t43 31t43.5 38h153v-723h-177z" />
    <glyph glyph-name="two" unicode="2" 
d="M37 0v125q34 24 75 54.5t82.5 65t80 71.5t68.5 74.5t48 74t18 69.5q0 43 -24 68t-64 25q-45 0 -68.5 -28.5t-25.5 -77.5h-178q0 60 22.5 102t60.5 68.5t88.5 38t106.5 11.5q59 0 109 -14.5t86 -44.5q31 -26 49.5 -63t18.5 -85q0 -38 -13.5 -75t-36.5 -72t-54.5 -68.5
t-67.5 -64.5q-42 -38 -84.5 -71t-86.5 -65h347v-118h-557z" />
    <glyph glyph-name="three" unicode="3" 
d="M612 200q0 -59 -25 -100t-66.5 -66.5t-95.5 -37t-112 -11.5q-59 0 -110 12t-89 38.5t-60.5 68t-25.5 101.5h177q0 -18 6.5 -37t20.5 -34t35 -25t50 -10q57 0 86 33.5t29 78.5q0 30 -12 50.5t-31.5 32.5t-44 17.5t-48.5 5.5q-16 0 -32.5 -0.5t-27.5 -1.5v112
q14 -1 30 -1.5t31 -0.5q24 0 46 6t39.5 18.5t28 33t10.5 50.5q0 47 -30.5 71.5t-71.5 24.5q-17 0 -34.5 -4.5t-31.5 -16t-23 -30t-9 -45.5h-180v4q0 56 26 95t67 63.5t91.5 35.5t100.5 11q51 0 99.5 -11t87 -34.5t61.5 -61t23 -90.5q0 -71 -41.5 -113.5t-112.5 -53.5
q76 -11 122.5 -54.5t46.5 -123.5z" />
    <glyph glyph-name="four" unicode="4" 
d="M536 153v-153h-168v153h-338v142l290 428h216v-459h105v-111h-105zM156 263h215v332z" />
    <glyph glyph-name="five" unicode="5" 
d="M611 247q0 -63 -18.5 -111t-53.5 -81q-72 -71 -209 -71q-54 0 -103.5 9.5t-87.5 33.5t-62 64t-25 102h175q2 -48 29.5 -71.5t69.5 -23.5q28 0 48.5 11.5t33.5 31t19.5 46t6.5 56.5q0 28 -6 52.5t-19 42.5t-32 28.5t-46 10.5q-35 0 -61 -19.5t-33 -57.5h-175l15 423h496
v-116h-339l-9 -201q59 84 163 84q52 0 93 -18.5t70 -51t44.5 -77t15.5 -96.5z" />
    <glyph glyph-name="six" unicode="6" 
d="M620 248q0 -59 -20.5 -107.5t-57.5 -83t-87.5 -53t-110.5 -18.5q-83 0 -140 29t-92 79.5t-50.5 118.5t-15.5 147q0 78 16.5 147.5t53 121t94 82t140.5 30.5q52 0 97 -12t78.5 -36.5t52.5 -62t19 -88.5h-168q0 48 -23 70t-64 22q-40 0 -65 -24t-39 -65q-13 -38 -18 -81
t-6 -86q32 56 76 79.5t106 23.5q49 0 90 -16.5t71 -46.5t46.5 -73t16.5 -97zM450 235q0 60 -26 98.5t-81 38.5q-30 0 -51.5 -10.5t-35 -29.5t-19.5 -44t-6 -53q0 -59 28.5 -97.5t82.5 -38.5t81 38.5t27 97.5z" />
    <glyph glyph-name="seven" unicode="7" 
d="M320 0h-202l293 603h-361v120h536v-128z" />
    <glyph glyph-name="eight" unicode="8" 
d="M616 199q0 -55 -22 -95t-59 -66q-40 -28 -91 -40.5t-110 -12.5q-62 0 -117.5 12t-98.5 41q-36 25 -58 64t-22 92q0 40 13 70.5t36 53t54.5 37.5t69.5 23q-18 3 -44 13t-50 29.5t-40.5 49.5t-16.5 75q0 47 18.5 82t49.5 58q39 29 92 42t111 13q53 0 102 -10.5t87 -34.5
q35 -23 56.5 -59t21.5 -86q0 -71 -41 -113.5t-107 -59.5q18 -3 46.5 -12.5t55 -29.5t45.5 -53.5t19 -82.5zM433 531q0 51 -29 79t-74 28t-75.5 -27t-30.5 -78q0 -54 30 -77.5t75 -23.5q43 0 73.5 24.5t30.5 74.5zM445 213q0 59 -35 87.5t-84 28.5q-48 0 -82 -29t-34 -88
t34 -89t83 -30t83.5 30t34.5 90z" />
    <glyph glyph-name="nine" unicode="9" 
d="M608 378q0 -85 -14.5 -157t-49.5 -124.5t-93.5 -82.5t-145.5 -30q-58 0 -106.5 13t-84 38.5t-55 62t-19.5 84.5h172q1 -12 4 -27t13 -27.5t28.5 -21t50.5 -8.5q45 0 70.5 24.5t39.5 64.5q8 21 12 46t6 51q2 18 2 33t1 38q-30 -50 -70.5 -70t-104.5 -20q-49 0 -91 16
t-73 46t-48.5 72t-17.5 94q0 58 21 104t58 78t88.5 49t111.5 17q83 0 139.5 -27.5t91 -76t49.5 -115t15 -144.5zM426 503q0 57 -29 91t-81 34q-55 0 -83 -34t-28 -91t28 -93.5t80 -36.5q53 0 83 35t30 95z" />
    <glyph glyph-name="colon" unicode=":" horiz-adv-x="327" 
d="M79 360v142h169v-142h-169zM79 0v142h169v-142h-169z" />
    <glyph glyph-name="semicolon" unicode=";" horiz-adv-x="327" 
d="M81 360v142h168v-142h-168zM153 -119h-124l64 261h174z" />
    <glyph glyph-name="less" unicode="&#x3c;" horiz-adv-x="663" 
d="M67 207v125l529 206v-129l-384 -140l384 -139v-130z" />
    <glyph glyph-name="equal" unicode="=" horiz-adv-x="663" 
d="M67 315v120h529v-120h-529zM67 90v119h529v-119h-529z" />
    <glyph glyph-name="greater" unicode="&#x3e;" horiz-adv-x="663" 
d="M67 0v130l384 139l-384 140v129l529 -206v-125z" />
    <glyph glyph-name="question" unicode="?" horiz-adv-x="543" 
d="M497 546q0 -29 -8.5 -53t-25.5 -46.5t-42.5 -45.5t-59.5 -50q-21 -17 -33.5 -28.5t-20 -23.5t-10 -25.5t-2.5 -32.5v-41h-146v51q0 19 2 34.5t8 29.5t16 27.5t25 29.5q36 37 57.5 61t33.5 41.5t16 30.5t4 27q0 27 -11.5 46t-30.5 30.5t-44 16.5t-51 5t-52 -4.5t-58 -12.5
v110q45 8 82 12t75 4q56 0 106.5 -9.5t88 -32t59.5 -59.5t22 -92zM138 0v136h167v-136h-167z" />
    <glyph glyph-name="at" unicode="@" horiz-adv-x="1018" 
d="M979 374q0 -66 -19 -118.5t-52 -89t-78 -55.5t-97 -19q-36 0 -63.5 10.5t-44.5 31.5q-15 18 -20 47q-23 -37 -62.5 -63t-99.5 -26q-85 0 -126.5 45t-41.5 121q0 49 13 95.5t39 82t66.5 57t96.5 21.5q44 0 74.5 -17t46.5 -46l9 53h143l-42 -238q-2 -10 -3 -20t-1 -16
q0 -20 8.5 -31t28.5 -11t40 13t36 37t26 58t10 77q0 59 -20.5 108.5t-62 85.5t-103 56.5t-143.5 20.5q-86 0 -156.5 -30t-121 -82t-78.5 -120.5t-28 -145.5q0 -68 23 -123.5t65.5 -95t102.5 -61t134 -21.5q72 0 133.5 16.5t104.5 39.5l51 -83q-57 -35 -133 -55t-157 -20
q-99 0 -180 28.5t-138 81t-88.5 127.5t-31.5 167q0 96 36.5 181.5t102.5 149.5t158.5 101t205.5 37q101 0 182 -25.5t137.5 -72.5t87 -114t30.5 -150zM592 353q0 37 -15 57.5t-50 20.5q-41 0 -65.5 -34t-35.5 -89q-2 -12 -3.5 -26t-1.5 -25q0 -32 13.5 -53.5t50.5 -21.5
q22 0 38.5 9.5t29 26t21 38t13.5 45.5q2 12 3.5 26.5t1.5 25.5z" />
    <glyph glyph-name="A" unicode="A" horiz-adv-x="767" 
d="M575 0l-56 162h-291l-56 -162h-181l278 723h224l283 -723h-201zM373 601l-109 -324h216z" />
    <glyph glyph-name="B" unicode="B" horiz-adv-x="721" 
d="M682 202q0 -69 -36.5 -112.5t-90.5 -64.5q-35 -14 -77.5 -19.5t-86.5 -5.5h-315v723h290q45 0 83 -2t71 -12q60 -17 98.5 -58t38.5 -108q0 -70 -41 -109.5t-111 -56.5q80 -14 128.5 -55.5t48.5 -119.5zM475 518q0 25 -10 42t-26.5 27t-37.5 14.5t-44 4.5h-102v-180h94
q25 0 47.5 4t40 14t28 28t10.5 46zM495 215q0 29 -9.5 48t-26.5 30.5t-39.5 16t-49.5 4.5h-115v-196h108q26 0 50 4t42 15t29 29.5t11 48.5z" />
    <glyph glyph-name="C" unicode="C" horiz-adv-x="733" 
d="M702 221q-6 -63 -32.5 -107.5t-68 -73t-96 -41.5t-115.5 -13q-89 0 -155 26t-109.5 74t-65 116t-21.5 153t22.5 155t67 120.5t111 78t155.5 27.5q81 0 149 -24.5t110 -79.5q20 -26 30.5 -58t12.5 -74h-192q-5 56 -34 83.5t-77 27.5q-46 0 -76.5 -23t-49 -59.5t-26.5 -83
t-8 -94.5q0 -46 8 -89.5t26.5 -77t48.5 -54t74 -20.5q49 0 81 27.5t38 83.5h192v0z" />
    <glyph glyph-name="D" unicode="D" horiz-adv-x="791" 
d="M752 363q0 -128 -47 -205.5t-130 -115.5q-51 -23 -111 -32.5t-134 -9.5h-254v723h270q92 0 162.5 -16.5t124.5 -57.5q57 -43 88 -113.5t31 -172.5zM558 363q0 78 -20.5 128.5t-62.5 77.5q-26 17 -60.5 25t-79.5 8h-72v-481h69q118 0 172 56t54 186z" />
    <glyph glyph-name="E" unicode="E" horiz-adv-x="636" 
d="M76 0v723h514v-124h-331v-171h314v-122h-314v-183h342v-123h-525z" />
    <glyph glyph-name="F" unicode="F" horiz-adv-x="602" 
d="M260 599v-179h299v-122h-297v-298h-186v723h502v-124h-318z" />
    <glyph glyph-name="G" unicode="G" horiz-adv-x="781" 
d="M720 33q-73 -23 -145.5 -35t-151.5 -12q-183 0 -284 99q-48 48 -74 117.5t-26 157.5q0 86 25.5 155.5t74 119t118.5 76t159 26.5q64 0 117.5 -13t93.5 -41.5t63.5 -72.5t28.5 -105h-183q-8 57 -40.5 82t-85.5 25q-49 0 -82.5 -20.5t-54 -55t-29.5 -80t-9 -95.5
q0 -55 13.5 -104.5t39.5 -84.5q23 -31 58.5 -48t86.5 -17q29 0 57 3.5t56 11.5v158h-140v113h314v-360v0z" />
    <glyph glyph-name="H" unicode="H" horiz-adv-x="802" 
d="M538 0v304h-274v-304h-188v723h188v-292h274v292h188v-723h-188z" />
    <glyph glyph-name="I" unicode="I" horiz-adv-x="340" 
d="M76 0v723h188v-723h-188z" />
    <glyph glyph-name="J" unicode="J" horiz-adv-x="612" 
d="M544 242q0 -71 -19 -119.5t-59 -80.5q-69 -57 -197 -57q-56 0 -104 12.5t-84 38.5t-56.5 66.5t-20.5 96.5v11.5t1 14.5h186v-24.5t1 -19.5q6 -72 78 -72q26 0 42 9.5t26 25.5q11 17 14.5 40.5t3.5 55.5v483h188v-481v0z" />
    <glyph glyph-name="K" unicode="K" horiz-adv-x="755" 
d="M535 0l-270 396l244 327h220l-267 -320l304 -403h-231zM76 0v723h188v-723h-188z" />
    <glyph glyph-name="L" unicode="L" horiz-adv-x="606" 
d="M76 0v723h188v-599h329v-124h-517z" />
    <glyph glyph-name="M" unicode="M" horiz-adv-x="1036" 
d="M790 0v600l-196 -600h-164l-196 600v-600h-158v723h278l170 -541l158 541h278v-723h-170z" />
    <glyph glyph-name="N" unicode="N" horiz-adv-x="822" 
d="M486 0l-250 568v-568h-160v723h260l250 -567v567h160v-723h-260z" />
    <glyph glyph-name="O" unicode="O" horiz-adv-x="789" 
d="M750 362q0 -81 -20 -146.5t-62 -115.5q-46 -55 -115 -85t-162 -30q-88 0 -154 27t-110 76.5t-66 119t-22 153.5t22.5 153.5t67.5 119.5t112 78t156 28t155 -27.5t110 -77.5t66 -119.5t22 -153.5zM558 364q0 51 -10.5 102.5t-35.5 87.5q-20 29 -48 45.5t-70 16.5
q-48 0 -79 -23t-51 -62q-17 -35 -25 -80t-8 -88q0 -49 7.5 -95t25.5 -81t49.5 -56.5t79.5 -21.5t80 21.5t50.5 56.5t26.5 81t8 96z" />
    <glyph glyph-name="P" unicode="P" horiz-adv-x="691" 
d="M668 496q0 -69 -33 -121.5t-96 -78.5q-29 -11 -71 -16.5t-87 -5.5h-119v-274h-186v723h297q60 0 110.5 -7t92.5 -35q47 -32 69.5 -79.5t22.5 -105.5zM482 501q0 31 -11 50.5t-30 31t-44.5 15.5t-53.5 4h-81v-207h73q29 0 55.5 4.5t47 16.5t32.5 32.5t12 52.5z" />
    <glyph glyph-name="Q" unicode="Q" horiz-adv-x="789" 
d="M603 0q-14 0 -31 -0.5t-34.5 -1.5t-33.5 -2t-27 -2q-29 -2 -54.5 -3.5t-45.5 -1.5q-72 0 -130 22t-100 60q-54 50 -81 124t-27 165q0 83 22.5 152.5t67 120t111 78.5t154.5 28q85 0 151 -25.5t111.5 -71.5t69.5 -111t24 -144q0 -88 -30.5 -158.5t-101.5 -121.5
q13 2 33.5 3.5t43 3t43.5 2.5t35 1h21v-117h-191zM559 364q0 56 -13 111t-43 91q-20 23 -46 36t-63 13q-47 0 -78 -21t-50 -56t-27 -80t-8 -93q0 -50 7.5 -96t26 -81t50 -56.5t79.5 -21.5q42 0 71 17.5t49 46.5q24 37 34.5 88t10.5 102z" />
    <glyph glyph-name="R" unicode="R" horiz-adv-x="733" 
d="M506 0q-7 22 -12.5 51t-10.5 77q-5 47 -10 79.5t-16.5 52.5t-32.5 28.5t-59 8.5h-102v-297h-187v723h311q55 0 97.5 -4t82.5 -21q51 -23 80.5 -62t29.5 -96q0 -45 -17.5 -79.5t-48.5 -57.5q-20 -15 -44 -24.5t-56 -16.5q44 -1 71 -12.5t43 -35.5t24.5 -62t14.5 -91
q5 -45 11.5 -84t23.5 -77h-193zM497 510q0 31 -12.5 49t-33.5 28t-47.5 13t-54.5 3h-86v-190h79q28 0 56 3t50 13t35.5 29t13.5 52z" />
    <glyph glyph-name="S" unicode="S" horiz-adv-x="708" 
d="M670 219q0 -66 -30 -111t-77 -72t-104.5 -38.5t-112.5 -11.5q-66 0 -122.5 12.5t-97.5 41t-64 73t-24 109.5h187q3 -119 125 -119q23 0 45.5 6t40 18t28.5 30t11 43q0 19 -8 32.5t-22 23t-33 17t-41 13.5l-117 34q-54 16 -92.5 35t-62.5 43t-35 53t-11 64q0 59 25.5 101
t68.5 69t99.5 39.5t117.5 12.5q62 0 114.5 -11.5t90.5 -37t60 -66.5t22 -100h-187q-7 103 -111 103q-21 0 -40.5 -5t-34.5 -15.5t-24 -26.5t-9 -37q0 -26 28.5 -46.5t97.5 -41.5l91 -28q43 -14 81 -29.5t66.5 -38.5t44.5 -56t16 -82z" />
    <glyph glyph-name="T" unicode="T" horiz-adv-x="640" 
d="M414 597v-597h-188v597h-223v126h634v-126h-223z" />
    <glyph glyph-name="U" unicode="U" horiz-adv-x="796" 
d="M723 299q0 -75 -16.5 -129t-51.5 -93q-83 -93 -262 -93q-43 0 -84 6t-77 20t-66 37t-51 58q-27 45 -34.5 92t-7.5 102v424h188v-438q0 -39 6 -72t22 -56t42.5 -36t68.5 -13t68.5 13.5t42.5 37.5t22 57t6 72v435h184v-424v0z" />
    <glyph glyph-name="V" unicode="V" horiz-adv-x="717" 
d="M465 0h-218l-255 723h200l172 -555l179 555h182z" />
    <glyph glyph-name="W" unicode="W" horiz-adv-x="1119" 
d="M929 0h-220l-145 565l-151 -565h-222l-189 723h191l123 -552l144 552h220l142 -552l118 552h177z" />
    <glyph glyph-name="X" unicode="X" horiz-adv-x="754" 
d="M545 0l-173 273l-168 -273h-212l267 378l-250 345h221l152 -246l150 246h206l-246 -345l270 -378h-217z" />
    <glyph glyph-name="Y" unicode="Y" horiz-adv-x="709" 
d="M439 270v-270h-188v272l-268 451h209l161 -321l166 321h191z" />
    <glyph glyph-name="Z" unicode="Z" horiz-adv-x="643" 
d="M20 0v130l375 468h-352v125h567v-131l-380 -469h393v-123h-603z" />
    <glyph glyph-name="bracketleft" unicode="[" horiz-adv-x="332" 
d="M64 -155v878h258v-86h-121v-704h121v-88h-258z" />
    <glyph glyph-name="backslash" unicode="\" horiz-adv-x="309" 
d="M213 -15l-242 755h124l243 -755h-125z" />
    <glyph glyph-name="bracketright" unicode="]" horiz-adv-x="332" 
d="M10 -155v88h121v704h-121v86h258v-878h-258z" />
    <glyph glyph-name="asciicircum" unicode="^" horiz-adv-x="664" 
d="M466 293l-135 281l-133 -281h-142l219 430h114l218 -430h-141z" />
    <glyph glyph-name="underscore" unicode="_" horiz-adv-x="501" 
d="M0 -125v50h501v-50h-501z" />
    <glyph glyph-name="grave" unicode="`" horiz-adv-x="330" 
d="M146 583l-175 150h189l106 -150h-120z" />
    <glyph glyph-name="a" unicode="a" horiz-adv-x="609" 
d="M393 0q-5 18 -7.5 35.5t-4.5 39.5q-30 -48 -70.5 -66.5t-100.5 -18.5q-39 0 -72.5 9.5t-57.5 28.5t-37.5 48.5t-13.5 68.5q0 55 27 88.5t70.5 51.5t98 24t109.5 6h47v32q0 17 -3.5 32.5t-12.5 27.5t-23 19.5t-35 7.5q-40 0 -57.5 -20t-17.5 -54h-171q1 48 24.5 79
t59 48.5t78 24t82.5 6.5q68 0 117 -11t80 -43q23 -23 35 -57t12 -87v-159q0 -44 1 -81.5t7 -79.5h-164zM381 241q-9 1 -24 1h-22q-23 0 -47.5 -4t-45 -14t-34 -27t-13.5 -43q0 -32 22.5 -51.5t54.5 -19.5q33 0 54.5 13t33.5 34t16.5 48t4.5 56v7z" />
    <glyph glyph-name="b" unicode="b" horiz-adv-x="660" 
d="M627 257q0 -56 -14 -105t-42.5 -85t-72 -57t-103.5 -21q-53 0 -89 18.5t-70 58.5l-2 -66h-173q1 13 1.5 31t1 37t0.5 36.5v30.5v588h175v-290q33 43 72.5 63.5t93.5 20.5q58 0 100 -19.5t69 -54.5t40 -82.5t13 -103.5zM449 255q0 31 -4.5 60t-16.5 51.5t-32 36.5t-51 14
q-32 0 -53.5 -13.5t-34 -36.5t-18 -53t-5.5 -63q0 -30 5 -59t17 -52t32 -37.5t50 -14.5q33 0 54.5 14t34 37t17.5 53.5t5 62.5z" />
    <glyph glyph-name="c" unicode="c" horiz-adv-x="595" 
d="M573 191q-3 -59 -23.5 -98.5t-55 -62.5t-81 -32.5t-101.5 -9.5q-70 0 -120 16.5t-85 49.5q-35 34 -54.5 83.5t-19.5 111.5q0 63 20 114t58 86q36 34 87.5 52t120.5 18q109 0 176 -45.5t76 -150.5h-171q-2 48 -21.5 75t-62.5 27q-32 0 -52.5 -15t-32 -39t-15.5 -54.5
t-4 -61.5t4 -61.5t15 -55t30.5 -39.5t51.5 -15q48 0 66.5 28.5t20.5 78.5h173v0z" />
    <glyph glyph-name="d" unicode="d" horiz-adv-x="662" 
d="M426 0q0 2 -0.5 11t-1.5 20.5t-1.5 21.5t-0.5 14q-34 -41 -69.5 -59.5t-92.5 -18.5q-58 0 -101 20t-71 55t-41.5 82.5t-13.5 103.5q0 52 13 100.5t40 85.5t69 59t101 22q54 0 93.5 -18t73.5 -61v285h175v-583q0 -38 0.5 -72t2.5 -68h-175zM427 251q0 33 -5.5 63t-19 53
t-35 36.5t-53.5 13.5q-31 0 -51 -14t-31.5 -36.5t-16 -52.5t-4.5 -61q0 -32 4.5 -61.5t17 -52.5t33.5 -37t54 -14q30 0 50.5 14.5t33 37.5t18 52t5.5 59z" />
    <glyph glyph-name="e" unicode="e" horiz-adv-x="613" 
d="M203 224q0 -30 6 -56t19 -45.5t33.5 -30.5t50.5 -11q86 0 97 86h166q-5 -36 -20.5 -64t-39.5 -50q-38 -35 -90 -49.5t-115 -14.5q-76 0 -129.5 19.5t-88.5 59.5q-29 32 -44 77.5t-15 99.5q0 127 70.5 200t209.5 73q86 0 149.5 -33t94.5 -105q15 -35 19 -71.5t4 -84.5
h-377zM412 310q0 57 -24.5 88t-73.5 31q-50 0 -79 -32.5t-29 -86.5h206z" />
    <glyph glyph-name="f" unicode="f" horiz-adv-x="403" 
d="M402 617q-13 1 -25 1h-23q-26 0 -40.5 -5.5t-22 -16t-9.5 -25.5t-2 -34v-32h114v-109h-114v-396h-175v396h-95v109h95v66q0 76 49.5 116t140.5 40q26 0 52.5 -1.5t54.5 -3.5v-105v0z" />
    <glyph glyph-name="g" unicode="g" horiz-adv-x="661" 
d="M600 505q0 -16 -0.5 -37.5t-1 -42.5t-1 -38.5t-0.5 -26.5v-278q0 -141 -69 -211.5t-217 -70.5q-53 0 -97.5 9.5t-78 30t-53.5 52.5t-24 77h160q0 -41 28 -57t66 -16q33 0 54.5 9.5t34.5 27t18.5 42t6.5 53.5q0 6 0.5 15.5t0.5 20v20.5v17q-31 -45 -73 -66t-99 -21
q-56 0 -97.5 19t-69 53t-41.5 79.5t-14 99.5t14 99.5t42.5 78.5t71.5 51.5t100 18.5t97.5 -19t72.5 -65v76h169zM427 267q0 29 -5.5 56.5t-18.5 49t-33 34.5t-50 13t-50.5 -13.5t-33 -35t-18 -50t-5.5 -58.5q0 -29 5 -56t17.5 -48t32.5 -34t50 -13q31 0 52 13t33.5 35t18 50
t5.5 57z" />
    <glyph glyph-name="h" unicode="h" horiz-adv-x="655" 
d="M418 0v273q0 27 -2 51t-10.5 42.5t-25.5 29.5t-47 11q-29 0 -47.5 -13t-29 -33.5t-14 -45.5t-3.5 -48v-267h-175v723h175v-293q32 43 72.5 63t96.5 20q101 0 143 -50.5t42 -142.5v-320h-175z" />
    <glyph glyph-name="i" unicode="i" horiz-adv-x="303" 
d="M64 596v127h175v-127h-175zM64 0v505h175v-505h-175z" />
    <glyph glyph-name="j" unicode="j" horiz-adv-x="303" 
d="M64 596v127h175v-127h-175zM239 -35q0 -55 -11.5 -84.5t-37.5 -46.5q-21 -14 -50.5 -20t-80.5 -6q-29 0 -46 0.5t-29 1.5v111q8 -2 13.5 -2h10.5q35 1 45.5 23.5t10.5 56.5v506h175v-540z" />
    <glyph glyph-name="k" unicode="k" horiz-adv-x="644" 
d="M64 0v723h175v-723h-175zM422 505h202l-192 -214l214 -291h-210l-193 282z" />
    <glyph glyph-name="l" unicode="l" horiz-adv-x="303" 
d="M64 0v723h175v-723h-175z" />
    <glyph glyph-name="m" unicode="m" horiz-adv-x="1002" 
d="M765 0v285q0 25 -3 47.5t-12 39t-26 26t-45 9.5q-29 0 -46.5 -9.5t-27 -26.5t-13 -40t-3.5 -50v-281h-175v284q0 23 -2 42.5t-9 35.5q-8 20 -25.5 32.5t-47.5 12.5q-29 0 -48.5 -12.5t-30.5 -33.5q-8 -16 -10.5 -34.5t-2.5 -43.5v-283h-175v342v50v39t-0.5 35t-1.5 39
h169l5 -80q31 47 73.5 67t99.5 20t98 -21t64 -73q33 51 77.5 72.5t104.5 21.5q66 0 106.5 -23t60.5 -67q21 -45 21 -113v-309h-175z" />
    <glyph glyph-name="n" unicode="n" horiz-adv-x="655" 
d="M418 0v272q0 24 -1.5 48t-10 43.5t-26 31.5t-48.5 12q-30 0 -48.5 -14t-28.5 -35.5t-13 -47t-3 -49.5v-261h-175v342v30t-0.5 45.5t-1 48.5t-1.5 39h171q2 -26 3 -50t1 -28q37 45 75.5 65t95.5 20q99 0 142.5 -46.5t43.5 -145.5v-320h-175z" />
    <glyph glyph-name="o" unicode="o" horiz-adv-x="648" 
d="M615 254q0 -64 -20.5 -113.5t-58.5 -83.5t-92 -51.5t-122 -17.5t-121.5 17.5t-90.5 51.5t-57 83.5t-20 113.5q0 59 19 106t54 81q80 77 221 77q67 0 120 -18t90.5 -51.5t57.5 -82.5t20 -112zM435 254q0 32 -5.5 62.5t-18.5 54t-34.5 38t-54.5 14.5t-54 -14.5t-33.5 -38
t-17.5 -54t-5 -62.5q0 -30 5 -61t18 -56q13 -26 34 -40t54 -14q32 0 53.5 15t34.5 39t18.5 54.5t5.5 62.5z" />
    <glyph glyph-name="p" unicode="p" horiz-adv-x="662" 
d="M629 260q0 -56 -14 -105.5t-42.5 -86t-72 -58t-101.5 -21.5q-53 0 -89.5 17.5t-70.5 58.5v-255h-175v570v28.5t-0.5 34t-1 34t-1.5 28.5h172l2 -74q32 45 73 65t96 20q57 0 99.5 -19.5t70 -54t41.5 -81.5t14 -101zM450 255q0 30 -5 59.5t-17.5 52.5t-33 37t-50.5 14
q-32 0 -52.5 -14.5t-33.5 -37.5t-18 -53t-5 -61q0 -30 4.5 -60t16 -54t31.5 -38.5t51 -14.5q32 0 53.5 14.5t34.5 38.5t18.5 54.5t5.5 62.5z" />
    <glyph glyph-name="q" unicode="q" horiz-adv-x="661" 
d="M600 505q-1 -14 -1.5 -31l-1 -34t-0.5 -32.5v-27.5v-570h-175v257q-35 -42 -71 -60t-90 -18q-59 0 -101.5 19.5t-71 55t-42 84.5t-13.5 109q0 52 13.5 99.5t41 82.5t69 56t97.5 21q57 0 98 -20t73 -65l2 74h173zM426 253q0 31 -5.5 60.5t-18 53t-34 38t-52.5 14.5
t-51 -14t-32 -37t-16.5 -52.5t-4.5 -59.5q0 -32 5 -62.5t17.5 -54.5t33.5 -38.5t53 -14.5q31 0 51 14.5t32 38t17 53.5t5 61z" />
    <glyph glyph-name="r" unicode="r" horiz-adv-x="428" 
d="M420 362q-14 2 -26 3.5t-23 1.5q-73 0 -106 -44q-14 -20 -20 -46.5t-6 -62.5v-214h-175v370q0 38 -0.5 69t-2.5 66h168q0 -3 1 -17t2 -30.5t1.5 -31t0.5 -18.5q26 52 64 75.5t94 23.5h13.5t14.5 -2v-143v0z" />
    <glyph glyph-name="s" unicode="s" horiz-adv-x="567" 
d="M535 153q0 -46 -22 -77.5t-57.5 -51t-81 -28t-92.5 -8.5t-92 7.5t-80 27t-56.5 53t-21.5 85.5h170q2 -44 21.5 -65.5t61.5 -21.5q16 0 31 4t27 12t19 20t7 28q0 23 -21.5 37.5t-68.5 25.5l-81 19q-30 7 -57.5 17.5t-48.5 26.5t-33.5 39.5t-12.5 56.5q0 47 22.5 77.5
t57 48t75.5 24.5t78 7q41 0 83 -7t76.5 -25.5t57 -50t24.5 -80.5h-164q-1 38 -21.5 58t-54.5 20q-27 0 -51 -13t-24 -42q0 -21 14 -33t42 -19l109 -26q86 -20 125.5 -53t39.5 -93z" />
    <glyph glyph-name="t" unicode="t" horiz-adv-x="406" 
d="M269 395v-209q0 -44 13.5 -62t58.5 -18q11 0 23.5 1t25.5 3v-109q-30 -4 -58 -6.5t-55 -2.5q-46 0 -79.5 6.5t-55 23.5t-31.5 46t-10 75v252h-95v110h95v90l168 66v-156h122v-110h-122z" />
    <glyph glyph-name="u" unicode="u" horiz-adv-x="655" 
d="M421 0q0 3 -1 14.5t-1.5 25t-1 24.5t-0.5 13q-35 -45 -72.5 -65t-95.5 -20q-103 0 -150 59q-19 24 -28 56.5t-9 77.5v320h175v-274q0 -27 2 -51.5t10 -42.5t25 -29t47 -11q31 0 50 13t30 35q9 19 12 41.5t3 51.5v267h175v-325q0 -42 0.5 -88.5t2.5 -91.5h-173z" />
    <glyph glyph-name="v" unicode="v" horiz-adv-x="599" 
d="M397 0h-194l-207 505h188l121 -364l126 364h172z" />
    <glyph glyph-name="w" unicode="w" horiz-adv-x="951" 
d="M774 0h-182l-110 361l-116 -361h-185l-178 505h186l95 -354l111 354h187l105 -354l97 354h164z" />
    <glyph glyph-name="x" unicode="x" horiz-adv-x="598" 
d="M393 0l-103 182l-103 -182h-188l181 262l-167 243h202l85 -163l89 163h188l-163 -243l185 -262h-206z" />
    <glyph glyph-name="y" unicode="y" horiz-adv-x="603" 
d="M314 -190h-173l88 194l-233 501h194l124 -352l119 352h174z" />
    <glyph glyph-name="z" unicode="z" horiz-adv-x="513" 
d="M27 0v109l256 287h-243v109h439v-112l-247 -286h254v-107h-459z" />
    <glyph glyph-name="braceleft" unicode="{" horiz-adv-x="376" 
d="M366 -156q-56 3 -95.5 13t-66.5 26t-43 36.5t-24 43.5q-11 30 -13 61.5t-3 68.5q-1 28 -4 53t-15 45.5t-34.5 34t-62.5 18.5v82q40 4 62.5 18t34.5 34t15 45.5t4 53.5q1 34 3 66.5t12 61.5q8 24 23.5 45t42.5 37t67 26t97 13v-79q-41 -2 -63.5 -16.5t-33.5 -37t-13.5 -51
t-2.5 -58.5q-1 -35 -4.5 -68.5t-17 -60.5t-41.5 -45.5t-77 -24.5q49 -6 77 -24.5t41.5 -45.5t17 -60.5t4.5 -68.5q0 -30 2.5 -58.5t13.5 -51t33.5 -37t63.5 -16.5v-79v0z" />
    <glyph glyph-name="bar" unicode="|" horiz-adv-x="269" 
d="M68 -213v997h133v-997h-133z" />
    <glyph glyph-name="braceright" unicode="}" horiz-adv-x="376" 
d="M10 726q56 -3 95.5 -13t66.5 -26t43 -36.5t24 -43.5q11 -30 13 -61.5t3 -68.5q1 -28 4 -53.5t15 -45.5t34.5 -34t62.5 -18v-82q-40 -5 -62.5 -18.5t-34.5 -34t-15 -45.5t-4 -53q-1 -34 -3 -66.5t-12 -61.5q-8 -24 -23.5 -45t-42.5 -37t-67 -26t-97 -13v79q41 2 63.5 16.5
t33.5 37t13.5 51t2.5 58.5q1 35 4.5 68.5t17 60.5t41 45.5t77.5 24.5q-50 6 -77.5 24.5t-41 45.5t-17 60.5t-4.5 68.5q0 30 -2.5 58.5t-13.5 51t-33.5 37t-63.5 16.5v79v0z" />
    <glyph glyph-name="asciitilde" unicode="~" horiz-adv-x="664" 
d="M607 355q-3 -32 -12 -65t-27 -59.5t-45 -43.5t-64 -17q-31 0 -67 10.5t-71 23.5q-33 12 -64.5 21.5t-56.5 9.5q-29 0 -43.5 -18.5t-18.5 -44.5h-81q2 31 11.5 63.5t27.5 59t45 43.5t64 17q32 0 67 -10.5t70 -23.5q32 -11 63.5 -20t59.5 -9q29 0 42.5 18t18.5 45h81v0z
" />
    <glyph glyph-name="Euro" unicode="&#x20ac;" 
d="M592 571q-17 19 -48.5 34t-85.5 15q-66 0 -105.5 -34t-44.5 -94h257l-26 -91h-234q-1 -8 -1 -14v-14v-20t1 -18h212l-26 -91h-182q4 -40 14.5 -67t28 -43t42.5 -22.5t58 -6.5q46 0 80 13t60 37v-140q-23 -13 -59.5 -21.5t-87.5 -8.5q-77 0 -131.5 15.5t-91.5 47.5t-58 81
t-29 115h-95l26 91h63q-1 10 -1 17v17v17.5t1 14.5h-90l26 91h69q12 58 35 104t61 78t93 49t132 17q71 0 114 -16.5t60 -28.5z" />
    <glyph glyph-name="quotesinglbase" unicode="&#x201a;" horiz-adv-x="328" 
d="M174 -119h-122l59 256h165z" />
    <glyph glyph-name="florin" unicode="&#x192;" 
d="M545 623q-16 4 -33 4q-34 0 -49.5 -25t-25.5 -73l-14 -69h100l-20 -105h-99l-49 -257q-7 -35 -12.5 -60t-10.5 -43.5t-9.5 -32.5t-10.5 -26q-23 -49 -67 -79t-116 -30q-46 0 -91 12l21 110q16 -3 29 -3q19 0 31.5 6t21 16.5t13 26t8.5 34.5l63 326h-95l20 104h94l16 88
q7 42 20.5 78.5t36.5 63.5t57.5 42.5t84.5 15.5q26 0 53 -2.5t53 -7.5z" />
    <glyph glyph-name="quotedblbase" unicode="&#x201e;" horiz-adv-x="565" 
d="M407 -119h-112l58 256h155zM169 -119h-112l60 256h154z" />
    <glyph glyph-name="ellipsis" unicode="&#x2026;" horiz-adv-x="1000" 
d="M750 0v144h167v-144h-167zM416 0v144h168v-144h-168zM83 0v144h168v-144h-168z" />
    <glyph glyph-name="dagger" unicode="&#x2020;" horiz-adv-x="609" 
d="M375 451v-451h-139v451h-169v110h169v162h139v-162h167v-110h-167z" />
    <glyph glyph-name="daggerdbl" unicode="&#x2021;" horiz-adv-x="609" 
d="M375 158v-158h-139v158h-169v109h169v190h-169v110h169v156h139v-156h167v-110h-167v-190h167v-109h-167z" />
    <glyph glyph-name="circumflex" unicode="&#x2c6;" horiz-adv-x="330" 
d="M242 583l-76 84l-78 -84h-119l118 149h157l117 -149h-119z" />
    <glyph glyph-name="perthousand" unicode="&#x2030;" horiz-adv-x="1166" 
d="M1146 173q0 -39 -10 -73t-30 -58.5t-51 -39t-74 -14.5q-42 0 -73 13.5t-51.5 37t-30.5 56.5t-10 72q0 41 10 75.5t30.5 59.5t52 39t75.5 14q42 0 72.5 -13.5t50.5 -37.5t29.5 -57.5t9.5 -73.5zM775 173q0 -39 -10 -73t-30.5 -58.5t-51.5 -39t-74 -14.5q-42 0 -73 13.5
t-51.5 37.5t-30.5 57t-10 72q0 41 10 75.5t30.5 59.5t52 39t75.5 14q42 0 72.5 -13.5t51 -38t30 -58t9.5 -73.5zM271 -25h-115l364 776h115zM350 557q0 -39 -10 -73t-30 -58.5t-51 -39t-74 -14.5q-42 0 -73 13.5t-51.5 37t-30.5 56.5t-10 72q0 41 10 76t30.5 60t52 39
t75.5 14q42 0 72.5 -13.5t50.5 -38t29.5 -58t9.5 -73.5zM1031 180q0 20 -2 38.5t-7 32t-14.5 21.5t-25.5 8t-26 -9t-15.5 -23.5t-7.5 -33.5t-2 -40q0 -23 2 -43t7 -35t15 -23.5t26 -8.5t26 9.5t15.5 25.5t7 37t1.5 44zM659 180q0 20 -2 38.5t-7 32t-14.5 21.5t-25.5 8
t-26 -8.5t-15.5 -23t-7.5 -33.5t-2 -40q0 -23 1.5 -43.5t7 -35.5t15 -23.5t26.5 -8.5q16 0 26 9.5t15.5 25.5t7 37t1.5 44zM235 564q0 20 -2 38.5t-7 32t-14.5 21.5t-25.5 8t-26 -9t-15.5 -24t-7.5 -34t-2 -40q0 -46 9 -77.5t41 -31.5q16 0 26 9.5t15.5 25.5t7 37t1.5 44z
" />
    <glyph glyph-name="Scaron" unicode="&#x160;" horiz-adv-x="708" 
d="M670 219q0 -66 -30 -111t-77 -72t-104.5 -38.5t-112.5 -11.5q-66 0 -122.5 12.5t-97.5 41t-64 73t-24 109.5h187q3 -119 125 -119q23 0 45.5 6t40 18t28.5 30t11 43q0 19 -8 32.5t-22 23t-33 17t-41 13.5l-117 34q-54 16 -92.5 35t-62.5 43t-35 53t-11 64q0 59 25.5 101
t68.5 69t99.5 39.5t117.5 12.5q62 0 114.5 -11.5t90.5 -37t60 -66.5t22 -100h-187q-7 103 -111 103q-21 0 -40.5 -5t-34.5 -15.5t-24 -26.5t-9 -37q0 -26 28.5 -46.5t97.5 -41.5l91 -28q43 -14 81 -29.5t66.5 -38.5t44.5 -56t16 -82zM430 776h-157l-117 148h118l80 -85
l77 85h117z" />
    <glyph glyph-name="guilsinglleft" unicode="&#x2039;" horiz-adv-x="331" 
d="M156 57l-120 197l119 193h140l-113 -195l113 -195h-139z" />
    <glyph glyph-name="OE" unicode="&#x152;" horiz-adv-x="995" 
d="M566 0q-37 0 -73.5 -3.5t-72.5 -3.5q-163 0 -258 74q-59 47 -90.5 121t-31.5 175q0 96 27.5 165t81.5 116q49 43 117 65t150 22q40 0 79 -4t85 -4h369v-125h-290v-170h273v-123h-273v-181h301v-124h-394zM489 605q-19 5 -35.5 6.5t-33.5 1.5q-54 0 -89.5 -20.5
t-58.5 -57.5q-22 -35 -32.5 -80t-10.5 -96q0 -61 15 -111t47 -84q23 -26 54.5 -39.5t74.5 -13.5q17 0 33.5 1.5t35.5 6.5v486z" />
    <glyph glyph-name="Zcaron" unicode="&#x17d;" horiz-adv-x="643" 
d="M20 0v130l375 468h-352v125h567v-131l-380 -469h393v-123h-603zM401 776h-157l-117 148h118l80 -85l77 85h117z" />
    <glyph glyph-name="quoteleft" unicode="&#x2018;" horiz-adv-x="324" 
d="M211 467h-154l98 256h112z" />
    <glyph glyph-name="quoteright" unicode="&#x2019;" horiz-adv-x="326" 
d="M170 467h-113l59 256h153z" />
    <glyph glyph-name="quotedblleft" unicode="&#x201c;" horiz-adv-x="566" 
d="M448 467h-155l104 256h112zM211 467h-154l102 256h112z" />
    <glyph glyph-name="quotedblright" unicode="&#x201d;" horiz-adv-x="566" 
d="M406 467h-112l60 256h155zM169 467h-112l60 256h155z" />
    <glyph glyph-name="bullet" unicode="&#x2022;" horiz-adv-x="504" 
d="M433 361q0 -37 -14 -70t-39 -57.5t-58 -38.5t-70 -14q-38 0 -70.5 14t-57.5 38.5t-39 57.5t-14 70t14 70t39 57.5t57.5 38.5t70.5 14q37 0 70 -14t58 -38.5t39 -57.5t14 -70z" />
    <glyph glyph-name="endash" unicode="&#x2013;" horiz-adv-x="500" 
d="M0 206v109h500v-109h-500z" />
    <glyph glyph-name="emdash" unicode="&#x2014;" horiz-adv-x="1001" 
d="M130 206v107h741v-107h-741z" />
    <glyph glyph-name="tilde" unicode="&#x2dc;" horiz-adv-x="330" 
d="M370 726q-3 -27 -13 -51.5t-26.5 -43t-38.5 -29.5t-49 -11q-22 0 -44 5.5t-50 14.5q-23 8 -39 11.5t-31 3.5q-36 0 -44 -35h-75q5 58 41 96.5t92 38.5q19 0 37 -4.5t47 -14.5t46.5 -14.5t31.5 -4.5q17 0 25.5 10.5t10.5 27.5h79v0z" />
    <glyph glyph-name="trademark" unicode="&#x2122;" horiz-adv-x="940" 
d="M750 358v289l-90 -289h-78l-88 289v-289h-80v365h139l71 -246l71 246h138v-365h-83zM262 656v-298h-93v298h-115v67h323v-67h-115z" />
    <glyph glyph-name="scaron" unicode="&#x161;" horiz-adv-x="567" 
d="M535 153q0 -46 -22 -77.5t-57.5 -51t-81 -28t-92.5 -8.5t-92 7.5t-80 27t-56.5 53t-21.5 85.5h170q2 -44 21.5 -65.5t61.5 -21.5q16 0 31 4t27 12t19 20t7 28q0 23 -21.5 37.5t-68.5 25.5l-81 19q-30 7 -57.5 17.5t-48.5 26.5t-33.5 39.5t-12.5 56.5q0 47 22.5 77.5
t57 48t75.5 24.5t78 7q41 0 83 -7t76.5 -25.5t57 -50t24.5 -80.5h-164q-1 38 -21.5 58t-54.5 20q-27 0 -51 -13t-24 -42q0 -21 14 -33t42 -19l109 -26q86 -20 125.5 -53t39.5 -93zM357 583h-157l-117 148h118l80 -85l77 85h117z" />
    <glyph glyph-name="guilsinglright" unicode="&#x203a;" horiz-adv-x="331" 
d="M176 57h-140l113 196l-113 194h139l120 -196z" />
    <glyph glyph-name="oe" unicode="&#x153;" horiz-adv-x="1012" 
d="M603 224v-4q0 -29 6 -54.5t19 -44.5t33.5 -30t49.5 -11q42 0 68.5 22.5t28.5 63.5h166q-4 -45 -25 -78t-54.5 -55t-79 -33t-99.5 -11q-66 0 -113.5 19.5t-83.5 64.5q-37 -45 -90.5 -65t-110.5 -20q-65 0 -118 18t-90 52.5t-57 83.5t-20 112q0 70 25 120t66.5 82t94 47
t107.5 15q43 0 76 -8t57 -19.5t41 -25t29 -25.5q33 35 83 56.5t107 21.5q72 0 121.5 -21.5t80.5 -60.5t44.5 -93t13.5 -119h-376zM435 254q0 32 -5.5 62.5t-18 54t-34 38t-54.5 14.5t-54 -14.5t-33.5 -38.5t-17.5 -54.5t-5 -61.5q0 -32 5 -63t17.5 -55t33.5 -39t54 -15
q32 0 53.5 15t34.5 39.5t18.5 55t5.5 62.5zM811 309q0 52 -23.5 85.5t-74.5 33.5t-79.5 -32.5t-28.5 -86.5h206z" />
    <glyph glyph-name="zcaron" unicode="&#x17e;" horiz-adv-x="513" 
d="M27 0v109l256 287h-243v109h439v-112l-247 -286h254v-107h-459zM333 583h-157l-117 148h118l80 -85l77 85h117z" />
    <glyph glyph-name="Ydieresis" unicode="&#x178;" horiz-adv-x="709" 
d="M439 270v-270h-188v272l-268 451h209l161 -321l166 321h191zM399 780v129h149v-129h-149zM157 780v129h147v-129h-147z" />
    <glyph glyph-name="uni00A0" unicode="&#xa0;" horiz-adv-x="327" 
 />
    <glyph glyph-name="exclamdown" unicode="&#xa1;" horiz-adv-x="416" 
d="M124 372v136h167v-136h-167zM110 -215l31 517h133l32 -517h-196z" />
    <glyph glyph-name="cent" unicode="&#xa2;" 
d="M598 191q-3 -59 -23.5 -98.5t-55 -62.5t-81 -32.5t-101.5 -9.5q-11 0 -21.5 0.5t-20.5 1.5l-33 -120l-66 13l32 118q-56 16 -96 53q-35 34 -54.5 83.5t-19.5 111.5q0 63 20 114t58 86q36 34 87.5 52t120.5 18h22l32 116l66 -13l-30 -112q70 -16 112 -61t50 -126h-171
q-2 48 -21 75l-84 -313q5 -1 9 -1h9q48 0 66.5 28.5t20.5 78.5h173zM341 425q-32 0 -52.5 -15t-32 -39t-15.5 -54.5t-4 -61.5q0 -35 5 -69t19 -59z" />
    <glyph glyph-name="sterling" unicode="&#xa3;" 
d="M466 534q-2 46 -21 73t-66 27q-38 0 -58.5 -18t-28.5 -47q-8 -26 -9 -59t-1 -65h142v-104h-142v-234h327v-107h-564v107h67v234h-86v104h86q0 55 8.5 96.5t26.5 76.5q30 57 87.5 89.5t147.5 32.5q81 0 139.5 -21.5t87.5 -71.5q13 -22 19 -49t8 -64h-170z" />
    <glyph glyph-name="currency" unicode="&#xa4;" 
d="M601 540l-71 -71q15 -26 23.5 -56.5t8.5 -63.5q0 -34 -8.5 -64t-23.5 -56l71 -71l-83 -84l-73 72q-26 -14 -56.5 -22t-62.5 -8q-33 0 -63.5 8t-56.5 22l-74 -72l-82 84l70 70q-15 26 -23.5 56.5t-8.5 64.5q0 68 32 120l-70 71l82 83l74 -72q26 14 56.5 22t63.5 8
q32 0 62 -8t56 -22l74 72zM433 349q0 23 -8.5 43.5t-22.5 35.5t-34 24t-42 9q-23 0 -42.5 -9t-34.5 -24t-23.5 -35.5t-8.5 -43.5q0 -24 8.5 -44.5t23.5 -35.5t34.5 -24t42.5 -9q22 0 42 9t34 24t22.5 35.5t8.5 44.5z" />
    <glyph glyph-name="yen" unicode="&#xa5;" 
d="M455 362h125v-91h-165v-66h165v-91h-165v-114h-185v114h-164v91h164v66h-164v91h127l-193 361h198l135 -304l141 304h180z" />
    <glyph glyph-name="brokenbar" unicode="&#xa6;" horiz-adv-x="269" 
d="M68 410v250h133v-250h-133zM68 -89v250h133v-250h-133z" />
    <glyph glyph-name="section" unicode="&#xa7;" horiz-adv-x="637" 
d="M552 382q0 -49 -27 -80t-71 -51q40 -20 64.5 -46t24.5 -73q0 -37 -16.5 -64t-44.5 -45q-34 -22 -80 -30.5t-96 -8.5q-55 0 -103 5t-94 18v100q70 -26 147 -26q16 0 35 1.5t35.5 7t27 16t10.5 28.5q0 25 -29 38t-86 31q-33 10 -63 22.5t-53.5 30t-37 41t-13.5 56.5
q0 53 30.5 84.5t79.5 54.5q-41 18 -64 45t-23 70q0 39 18.5 65t49.5 41t71 21.5t82 6.5q45 0 85 -5t82 -13v-100q-33 10 -70.5 16.5t-66.5 6.5q-13 0 -26.5 -2.5t-24.5 -7.5t-18 -14.5t-7 -22.5q0 -25 31.5 -39.5t88.5 -32.5q28 -9 55.5 -21t49 -29t34.5 -40.5t13 -54.5z
M396 364q0 32 -27.5 51.5t-69.5 37.5q-21 -16 -39 -34t-18 -43q0 -19 9.5 -32.5t24.5 -24t33.5 -18t36.5 -13.5q19 14 34.5 33t15.5 43z" />
    <glyph glyph-name="dieresis" unicode="&#xa8;" horiz-adv-x="331" 
d="M212 597v129h149v-129h-149zM-30 597v129h147v-129h-147z" />
    <glyph glyph-name="copyright" unicode="&#xa9;" horiz-adv-x="839" 
d="M799 362q0 -81 -28.5 -149.5t-79.5 -118.5t-120.5 -78t-151.5 -28t-151 28t-119.5 78t-79 118.5t-28.5 149.5t28.5 149.5t79 118.5t119.5 78t151 28t151.5 -28t120.5 -78t79.5 -118.5t28.5 -149.5zM722 362q0 69 -22 125.5t-62 96t-96 61.5t-123 22t-122.5 -22t-95 -61.5
t-61.5 -96t-22 -125.5t22 -125.5t62 -96.5t95.5 -62t121.5 -22q67 0 123 22t96 62t62 96.5t22 125.5zM613 289q-3 -35 -19.5 -61t-42 -43t-58 -25t-67.5 -8q-103 0 -155 53.5t-52 153.5t54 156.5t156 56.5q33 0 65 -8t57.5 -25t41 -42.5t17.5 -61.5h-126q-3 30 -16 44
t-39 14t-41.5 -10t-24.5 -28t-12 -43t-3 -55q0 -29 3 -52t11.5 -40t24 -26t39.5 -9q53 0 60 59h127z" />
    <glyph glyph-name="ordfeminine" unicode="&#xaa;" horiz-adv-x="412" 
d="M260 431q-5 20 -6 40q-21 -26 -46.5 -36t-63.5 -10q-51 0 -84 23t-33 71q0 31 15 51.5t41 32.5t59.5 17t71.5 5h20.5t19.5 -1q0 15 -1 24.5t-5 17.5q-10 19 -41 19q-21 0 -35 -10.5t-13 -31.5h-116q1 17 11 36t24 30q23 18 57 24.5t71 6.5q57 0 88.5 -11t48.5 -31
q15 -17 21 -38.5t6 -47.5q0 -11 -0.5 -26t-0.5 -30t-0.5 -28.5t-0.5 -22.5q0 -21 2 -38t5 -36h-115zM253 570q-12 0 -24 -0.5t-24 -1.5q-26 -2 -45 -11.5t-19 -31.5q0 -19 13.5 -29.5t32.5 -10.5t32 7t20.5 19t10.5 27.5t3 31.5z" />
    <glyph glyph-name="guillemotleft" unicode="&#xab;" horiz-adv-x="582" 
d="M407 57l-120 197l120 193h138l-112 -195l113 -195h-139zM156 57l-120 197l119 193h140l-113 -195l113 -195h-139z" />
    <glyph glyph-name="logicalnot" unicode="&#xac;" horiz-adv-x="663" 
d="M471 99v216h-404v120h529v-336h-125z" />
    <glyph glyph-name="uni00AD" unicode="&#xad;" horiz-adv-x="339" 
d="M32 210v110h275v-110h-275z" />
    <glyph glyph-name="registered" unicode="&#xae;" horiz-adv-x="469" 
d="M433 542q0 -41 -15.5 -77t-42.5 -63t-63 -42.5t-77 -15.5t-77 15.5t-63 42.5t-43 63t-16 77t16 77t43 63t63 42.5t77 15.5t77 -15.5t63 -42.5t42.5 -63t15.5 -77zM392 542q0 32 -12.5 60.5t-34 49.5t-50 33.5t-60.5 12.5t-60.5 -12.5t-50 -33.5t-34 -49.5t-12.5 -60.5
t12.5 -60.5t34 -50t50 -34t60.5 -12.5t60.5 12.5t50 34t34 50t12.5 60.5zM268 438q-3 10 -3 24t-2 27t-8 22.5t-21 9.5h-28v-83h-53v209h94q15 0 28 -2t23.5 -8t16.5 -16.5t6 -27.5q0 -21 -11.5 -33t-31.5 -17q19 -5 27 -16.5t11 -26.5t4 -31.5t6 -30.5h-58zM268 584
q0 18 -11.5 22.5t-26.5 4.5h-26v-55h31q15 0 24 5.5t9 22.5z" />
    <glyph glyph-name="macron" unicode="&#xaf;" horiz-adv-x="330" 
d="M-10 622v76h350v-76h-350z" />
    <glyph glyph-name="degree" unicode="&#xb0;" horiz-adv-x="405" 
d="M373 569q0 -36 -13 -66.5t-36.5 -53t-54.5 -35t-67 -12.5t-67 12.5t-54 35t-36.5 53t-13.5 66.5t13.5 66.5t36.5 53t54 35t67 12.5t67 -12.5t54.5 -35t36.5 -53t13 -66.5zM276 569q0 34 -20.5 56.5t-53.5 22.5q-32 0 -53 -22.5t-21 -56.5q0 -35 21 -57t53 -22
q33 0 53.5 22t20.5 57z" />
    <glyph glyph-name="plusminus" unicode="&#xb1;" horiz-adv-x="663" 
d="M394 310v-153h-124v153h-203v120h203v160h124v-160h202v-120h-202zM67 0v120h529v-120h-529z" />
    <glyph glyph-name="twosuperior" unicode="&#xb2;" horiz-adv-x="424" 
d="M31 466v82l20 13q33 21 69.5 47.5t68 55.5t52 58t20.5 53q0 21 -13 32.5t-36 11.5q-24 0 -38 -15.5t-14 -38.5v-4h-123v4q1 36 15 61.5t38 41.5t56.5 23.5t69.5 7.5t68.5 -7.5t54 -22.5t35 -38.5t12.5 -55.5q0 -29 -13 -56t-35.5 -52.5t-52.5 -50.5t-64 -49l-25 -18h193
v-83h-358z" />
    <glyph glyph-name="threesuperior" unicode="&#xb3;" horiz-adv-x="424" 
d="M397 585q0 -36 -16 -60.5t-42.5 -39.5t-61 -21.5t-71.5 -6.5q-41 0 -74.5 7.5t-58 24t-38 41t-13.5 59.5v4h125v-4q0 -26 17 -39.5t44 -13.5t46.5 13t19.5 42t-22.5 41.5t-59.5 12.5h-19.5t-20.5 -2v78q10 -1 16.5 -1h12.5q39 0 62 11.5t23 42.5q0 23 -15 35t-39 12
q-21 0 -38.5 -11.5t-17.5 -38.5v-4h-125v4q0 33 15 57t40 40t58.5 23.5t69.5 7.5q33 0 64 -6t55 -20t39 -36.5t15 -55.5q0 -35 -17.5 -57t-54.5 -38q36 -11 59 -35.5t23 -65.5z" />
    <glyph glyph-name="acute" unicode="&#xb4;" horiz-adv-x="330" 
d="M186 583h-122l109 150h187z" />
    <glyph glyph-name="mu" unicode="&#xb5;" horiz-adv-x="655" 
d="M424 0l-3 68q-17 -36 -40 -55.5t-61 -19.5q-56 0 -82 53v-236h-175v694h175v-278q0 -24 2 -47.5t10.5 -41.5t25.5 -29t47 -11q29 0 47.5 11t29 30t14.5 43t4 51v272h174v-324q0 -48 0.5 -90t2.5 -90h-171z" />
    <glyph glyph-name="paragraph" unicode="&#xb6;" horiz-adv-x="640" 
d="M446 0v626h-97v-626h-117v302q-90 7 -143 58t-53 147q0 55 19 95.5t53.5 67.5t82.5 40t105 13h268v-723h-118z" />
    <glyph glyph-name="periodcentered" unicode="&#xb7;" horiz-adv-x="327" 
d="M80 224v143h168v-143h-168z" />
    <glyph glyph-name="cedilla" unicode="&#xb8;" horiz-adv-x="330" 
d="M282 -132q0 -24 -12 -40t-31 -26t-43 -14t-47 -4q-29 0 -56.5 5.5t-57.5 16.5l13 47q23 -11 45 -18t45 -7q21 0 37 8t16 30q0 20 -14 28.5t-34 8.5q-8 0 -16.5 -2t-17.5 -5l-21 15l50 95h50l-33 -67q8 2 18 2.5t14 0.5q40 0 67.5 -18t27.5 -56z" />
    <glyph glyph-name="onesuperior" unicode="&#xb9;" horiz-adv-x="424" 
d="M174 466v307q-24 -15 -47 -25.5t-54 -20.5v96q20 6 35.5 12.5t29 14t26 17.5t27.5 23h107v-424h-124z" />
    <glyph glyph-name="ordmasculine" unicode="&#xba;" horiz-adv-x="441" 
d="M411 583q0 -78 -51 -118.5t-140 -40.5q-87 0 -138.5 39.5t-51.5 117.5q0 39 14 68.5t39.5 49.5t60.5 30.5t77 10.5q86 0 138 -40t52 -117zM286 583q0 18 -3 35t-10.5 30t-20.5 21t-32 8t-32 -8t-20.5 -21t-10.5 -30t-3 -35q0 -17 3 -34t10.5 -30.5t20 -22.5t32.5 -9
q19 0 32 8t20.5 21.5t10.5 31t3 35.5z" />
    <glyph glyph-name="guillemotright" unicode="&#xbb;" horiz-adv-x="582" 
d="M427 57h-140l113 196l-113 194h139l120 -196zM175 57h-139l112 196l-112 194h139l119 -196z" />
    <glyph glyph-name="onequarter" unicode="&#xbc;" horiz-adv-x="1006" 
d="M165 299v307q-24 -15 -47 -25.5t-54 -20.5v96q20 6 35.5 12.5t29 14t26 17.5t27.5 23h107v-424h-124zM917 87v-87h-117v87h-209v90l179 247h147v-260h65v-77h-65zM802 325l-113 -161h113v161zM362 -25h-118l375 776h117z" />
    <glyph glyph-name="onehalf" unicode="&#xbd;" horiz-adv-x="1012" 
d="M362 -25h-118l375 776h117zM165 299v307q-24 -15 -47 -25.5t-54 -20.5v96q20 6 35.5 12.5t29 14t26 17.5t27.5 23h107v-424h-124zM611 0v82l20 13q33 21 69.5 47.5t68 55.5t52 58t20.5 53q0 21 -13 32.5t-36 11.5q-24 0 -37.5 -15t-14.5 -41v-2h-123v4q1 36 15 61.5
t38 41.5t56.5 23.5t69.5 7.5t68.5 -7.5t54 -22.5t35 -38.5t12.5 -55.5q0 -29 -13 -56t-35.5 -52.5t-52.5 -50.5t-64 -49l-25 -18h193v-83h-358z" />
    <glyph glyph-name="threequarters" unicode="&#xbe;" horiz-adv-x="1030" 
d="M944 87v-87h-117v87h-209v90l179 247h147v-260h65v-77h-65zM829 325l-113 -161h113v161zM399 418q0 -36 -16 -60.5t-42.5 -39.5t-61 -21.5t-71.5 -6.5q-38 0 -70.5 6.5t-57.5 22t-39.5 41t-16.5 62.5v4h125v-2q1 -29 18.5 -42t42.5 -13q27 0 46.5 13t19.5 42t-22.5 41.5
t-59.5 12.5q-10 0 -20 -0.5t-20 -1.5v78q7 -1 15 -1h14q39 0 62 11.5t23 42.5q0 23 -15 35t-39 12q-21 0 -38.5 -11.5t-17.5 -40.5v-2h-125v3q0 33 15 57.5t40 40.5t58.5 23.5t69.5 7.5q33 0 64 -6t55 -20t39 -36.5t15 -55.5q0 -35 -17.5 -57t-54.5 -38q36 -11 59 -35.5
t23 -65.5zM409 -25h-118l375 776h117z" />
    <glyph glyph-name="questiondown" unicode="&#xbf;" horiz-adv-x="543" 
d="M229 377v135h168v-135h-168zM470 -212q-45 -8 -82 -12t-75 -4q-55 0 -105 9.5t-88 31.5t-60.5 59t-22.5 93q0 33 11.5 60t30.5 50.5t43.5 44.5t51.5 42q19 16 32 27t20 22t10 25t3 35v40h147v-58q0 -32 -6 -48.5t-20 -36.5q-18 -24 -42 -46.5t-45 -45.5t-36 -47t-15 -50
q0 -27 12 -46t31.5 -30.5t44.5 -16.5t51 -5t51.5 4.5t57.5 13.5v-111z" />
    <glyph glyph-name="Agrave" unicode="&#xc0;" horiz-adv-x="767" 
d="M575 0l-56 162h-291l-56 -162h-181l278 723h224l283 -723h-201zM373 601l-109 -324h216zM363 776l-175 150h189l106 -150h-120z" />
    <glyph glyph-name="Aacute" unicode="&#xc1;" horiz-adv-x="767" 
d="M575 0l-56 162h-291l-56 -162h-181l278 723h224l283 -723h-201zM373 601l-109 -324h216zM403 776h-122l109 150h187z" />
    <glyph glyph-name="Acircumflex" unicode="&#xc2;" horiz-adv-x="767" 
d="M575 0l-56 162h-291l-56 -162h-181l278 723h224l283 -723h-201zM373 601l-109 -324h216zM451 776l-76 84l-78 -84h-119l118 149h157l117 -149h-119z" />
    <glyph glyph-name="Atilde" unicode="&#xc3;" horiz-adv-x="767" 
d="M575 0l-56 162h-291l-56 -162h-181l278 723h224l283 -723h-201zM373 601l-109 -324h216zM579 919q-3 -27 -13 -51.5t-26.5 -43t-38.5 -29.5t-49 -11q-22 0 -44 5.5t-50 14.5q-23 8 -39 11.5t-31 3.5q-36 0 -44 -35h-75q5 58 41 96.5t92 38.5q19 0 37 -4.5t47 -14.5
t46.5 -14.5t31.5 -4.5q17 0 25.5 10.5t10.5 27.5h79v0z" />
    <glyph glyph-name="Adieresis" unicode="&#xc4;" horiz-adv-x="767" 
d="M575 0l-56 162h-291l-56 -162h-181l278 723h224l283 -723h-201zM373 601l-109 -324h216zM421 780v129h149v-129h-149zM179 780v129h147v-129h-147z" />
    <glyph glyph-name="Aring" unicode="&#xc5;" horiz-adv-x="767" 
d="M575 0l-56 162h-291l-56 -162h-181l278 723h224l283 -723h-201zM373 601l-109 -324h216zM264 859q0 23 8.5 43t23.5 34.5t35 23t43 8.5t43 -8.5t35 -23t23.5 -34.5t8.5 -43t-8.5 -42.5t-23.5 -34t-35 -23t-43 -8.5t-43 8.5t-35 23t-23.5 34t-8.5 42.5zM325 859
q0 -22 14 -37t35 -15t35 15t14 37q0 23 -14 38t-35 15t-35 -15t-14 -38z" />
    <glyph glyph-name="AE" unicode="&#xc6;" horiz-adv-x="983" 
d="M515 0l-21 160h-253l-71 -160h-182l342 723h610v-124h-330l21 -171h289v-123h-275l23 -181h280v-124h-433zM440 615l-2 -1l-151 -340h195z" />
    <glyph glyph-name="Ccedilla" unicode="&#xc7;" horiz-adv-x="733" 
d="M702 221q-6 -62 -32 -106.5t-66.5 -72.5t-94 -41.5t-113.5 -14.5l-23 -47q8 2 18 2.5t14 0.5q40 0 67.5 -18t27.5 -56q0 -24 -12 -40t-31 -26t-43 -14t-47 -4q-29 0 -56.5 5.5t-57.5 16.5l13 47q23 -11 45 -18t45 -7q21 0 37 8t16 30q0 20 -14 28.5t-34 8.5
q-8 0 -16.5 -2t-17.5 -5l-21 15l40 77q-78 6 -135.5 34.5t-96 75.5t-57 112t-18.5 145q0 85 22.5 155t67 120.5t111 78t155.5 27.5q81 0 149 -24.5t110 -79.5q20 -26 30.5 -58t12.5 -74h-192q-5 56 -34 83.5t-77 27.5q-46 0 -76.5 -23t-49 -59.5t-26.5 -83t-8 -94.5
q0 -46 8 -89.5t26.5 -77t48.5 -54t74 -20.5q49 0 81 27.5t38 83.5h192v0z" />
    <glyph glyph-name="Egrave" unicode="&#xc8;" horiz-adv-x="636" 
d="M76 0v723h514v-124h-331v-171h314v-122h-314v-183h342v-123h-525zM314 776l-175 150h189l106 -150h-120z" />
    <glyph glyph-name="Eacute" unicode="&#xc9;" horiz-adv-x="636" 
d="M76 0v723h514v-124h-331v-171h314v-122h-314v-183h342v-123h-525zM354 776h-122l109 150h187z" />
    <glyph glyph-name="Ecircumflex" unicode="&#xca;" horiz-adv-x="636" 
d="M76 0v723h514v-124h-331v-171h314v-122h-314v-183h342v-123h-525zM402 776l-76 84l-78 -84h-119l118 149h157l117 -149h-119z" />
    <glyph glyph-name="Edieresis" unicode="&#xcb;" horiz-adv-x="636" 
d="M76 0v723h514v-124h-331v-171h314v-122h-314v-183h342v-123h-525zM372 780v129h149v-129h-149zM130 780v129h147v-129h-147z" />
    <glyph glyph-name="Igrave" unicode="&#xcc;" horiz-adv-x="340" 
d="M76 0v723h188v-723h-188zM159 776l-175 150h189l106 -150h-120z" />
    <glyph glyph-name="Iacute" unicode="&#xcd;" horiz-adv-x="340" 
d="M76 0v723h188v-723h-188zM199 776h-122l109 150h187z" />
    <glyph glyph-name="Icircumflex" unicode="&#xce;" horiz-adv-x="340" 
d="M76 0v723h188v-723h-188zM247 776l-76 84l-78 -84h-119l118 149h157l117 -149h-119z" />
    <glyph glyph-name="Idieresis" unicode="&#xcf;" horiz-adv-x="340" 
d="M76 0v723h188v-723h-188zM217 780v129h149v-129h-149zM-25 780v129h147v-129h-147z" />
    <glyph glyph-name="Eth" unicode="&#xd0;" horiz-adv-x="791" 
d="M752 363q0 -128 -47 -205.5t-130 -115.5q-51 -23 -111 -32.5t-134 -9.5h-254v341h-63v100h63v282h270q92 0 162.5 -16.5t124.5 -57.5q57 -43 88 -113.5t31 -172.5zM558 363q0 78 -20.5 128.5t-62.5 77.5q-26 17 -60.5 25t-79.5 8h-72v-161h147v-100h-147v-220h69
q118 0 172 56t54 186z" />
    <glyph glyph-name="Ntilde" unicode="&#xd1;" horiz-adv-x="822" 
d="M486 0l-250 568v-568h-160v723h260l250 -567v567h160v-723h-260zM608 919q-3 -27 -13 -51.5t-26.5 -43t-38.5 -29.5t-49 -11q-22 0 -44 5.5t-50 14.5q-23 8 -39 11.5t-31 3.5q-36 0 -44 -35h-75q5 58 41 96.5t92 38.5q19 0 37 -4.5t47 -14.5t46.5 -14.5t31.5 -4.5
q17 0 25.5 10.5t10.5 27.5h79v0z" />
    <glyph glyph-name="Ograve" unicode="&#xd2;" horiz-adv-x="789" 
d="M750 362q0 -81 -20 -146.5t-62 -115.5q-46 -55 -115 -85t-162 -30q-88 0 -154 27t-110 76.5t-66 119t-22 153.5t22.5 153.5t67.5 119.5t112 78t156 28t155 -27.5t110 -77.5t66 -119.5t22 -153.5zM558 364q0 51 -10.5 102.5t-35.5 87.5q-20 29 -48 45.5t-70 16.5
q-48 0 -79 -23t-51 -62q-17 -35 -25 -80t-8 -88q0 -49 7.5 -95t25.5 -81t49.5 -56.5t79.5 -21.5t80 21.5t50.5 56.5t26.5 81t8 96zM382 776l-175 150h189l106 -150h-120z" />
    <glyph glyph-name="Oacute" unicode="&#xd3;" horiz-adv-x="789" 
d="M750 362q0 -81 -20 -146.5t-62 -115.5q-46 -55 -115 -85t-162 -30q-88 0 -154 27t-110 76.5t-66 119t-22 153.5t22.5 153.5t67.5 119.5t112 78t156 28t155 -27.5t110 -77.5t66 -119.5t22 -153.5zM558 364q0 51 -10.5 102.5t-35.5 87.5q-20 29 -48 45.5t-70 16.5
q-48 0 -79 -23t-51 -62q-17 -35 -25 -80t-8 -88q0 -49 7.5 -95t25.5 -81t49.5 -56.5t79.5 -21.5t80 21.5t50.5 56.5t26.5 81t8 96zM422 776h-122l109 150h187z" />
    <glyph glyph-name="Ocircumflex" unicode="&#xd4;" horiz-adv-x="789" 
d="M750 362q0 -81 -20 -146.5t-62 -115.5q-46 -55 -115 -85t-162 -30q-88 0 -154 27t-110 76.5t-66 119t-22 153.5t22.5 153.5t67.5 119.5t112 78t156 28t155 -27.5t110 -77.5t66 -119.5t22 -153.5zM558 364q0 51 -10.5 102.5t-35.5 87.5q-20 29 -48 45.5t-70 16.5
q-48 0 -79 -23t-51 -62q-17 -35 -25 -80t-8 -88q0 -49 7.5 -95t25.5 -81t49.5 -56.5t79.5 -21.5t80 21.5t50.5 56.5t26.5 81t8 96zM470 776l-76 84l-78 -84h-119l118 149h157l117 -149h-119z" />
    <glyph glyph-name="Otilde" unicode="&#xd5;" horiz-adv-x="789" 
d="M750 362q0 -81 -20 -146.5t-62 -115.5q-46 -55 -115 -85t-162 -30q-88 0 -154 27t-110 76.5t-66 119t-22 153.5t22.5 153.5t67.5 119.5t112 78t156 28t155 -27.5t110 -77.5t66 -119.5t22 -153.5zM558 364q0 51 -10.5 102.5t-35.5 87.5q-20 29 -48 45.5t-70 16.5
q-48 0 -79 -23t-51 -62q-17 -35 -25 -80t-8 -88q0 -49 7.5 -95t25.5 -81t49.5 -56.5t79.5 -21.5t80 21.5t50.5 56.5t26.5 81t8 96zM598 919q-3 -27 -13 -51.5t-26.5 -43t-38.5 -29.5t-49 -11q-22 0 -44 5.5t-50 14.5q-23 8 -39 11.5t-31 3.5q-36 0 -44 -35h-75q5 58 41 96.5
t92 38.5q19 0 37 -4.5t47 -14.5t46.5 -14.5t31.5 -4.5q17 0 25.5 10.5t10.5 27.5h79v0z" />
    <glyph glyph-name="Odieresis" unicode="&#xd6;" horiz-adv-x="789" 
d="M750 362q0 -81 -20 -146.5t-62 -115.5q-46 -55 -115 -85t-162 -30q-88 0 -154 27t-110 76.5t-66 119t-22 153.5t22.5 153.5t67.5 119.5t112 78t156 28t155 -27.5t110 -77.5t66 -119.5t22 -153.5zM558 364q0 51 -10.5 102.5t-35.5 87.5q-20 29 -48 45.5t-70 16.5
q-48 0 -79 -23t-51 -62q-17 -35 -25 -80t-8 -88q0 -49 7.5 -95t25.5 -81t49.5 -56.5t79.5 -21.5t80 21.5t50.5 56.5t26.5 81t8 96zM440 780v129h149v-129h-149zM198 780v129h147v-129h-147z" />
    <glyph glyph-name="multiply" unicode="&#xd7;" horiz-adv-x="664" 
d="M504 7l-172 171l-170 -171l-86 84l171 171l-171 171l86 85l170 -171l171 170l85 -84l-170 -171l170 -171z" />
    <glyph glyph-name="Oslash" unicode="&#xd8;" horiz-adv-x="789" 
d="M688 602q32 -48 47 -108.5t15 -131.5q0 -81 -20 -146.5t-62 -115.5q-46 -55 -115 -85t-162 -30q-72 0 -128 18t-99 51l-92 -97l-64 61l96 100q-32 48 -48.5 109.5t-16.5 133.5q0 84 22.5 153.5t67.5 119.5t112 78t156 28q74 0 132 -19t101 -54l88 92l62 -61zM512 554
q-20 29 -48 45.5t-70 16.5q-48 0 -79 -23t-51 -62q-17 -35 -25 -80t-8 -88q0 -55 9 -103l276 288zM558 364q0 48 -9 93l-275 -288q19 -28 48 -44t71 -16q48 0 80 21.5t50.5 56.5t26.5 81t8 96z" />
    <glyph glyph-name="Ugrave" unicode="&#xd9;" horiz-adv-x="796" 
d="M723 299q0 -75 -16.5 -129t-51.5 -93q-83 -93 -262 -93q-43 0 -84 6t-77 20t-66 37t-51 58q-27 45 -34.5 92t-7.5 102v424h188v-438q0 -39 6 -72t22 -56t42.5 -36t68.5 -13t68.5 13.5t42.5 37.5t22 57t6 72v435h184v-424v0zM389 776l-175 150h189l106 -150h-120z" />
    <glyph glyph-name="Uacute" unicode="&#xda;" horiz-adv-x="796" 
d="M723 299q0 -75 -16.5 -129t-51.5 -93q-83 -93 -262 -93q-43 0 -84 6t-77 20t-66 37t-51 58q-27 45 -34.5 92t-7.5 102v424h188v-438q0 -39 6 -72t22 -56t42.5 -36t68.5 -13t68.5 13.5t42.5 37.5t22 57t6 72v435h184v-424v0zM429 776h-122l109 150h187z" />
    <glyph glyph-name="Ucircumflex" unicode="&#xdb;" horiz-adv-x="796" 
d="M723 299q0 -75 -16.5 -129t-51.5 -93q-83 -93 -262 -93q-43 0 -84 6t-77 20t-66 37t-51 58q-27 45 -34.5 92t-7.5 102v424h188v-438q0 -39 6 -72t22 -56t42.5 -36t68.5 -13t68.5 13.5t42.5 37.5t22 57t6 72v435h184v-424v0zM477 776l-76 84l-78 -84h-119l118 149h157
l117 -149h-119z" />
    <glyph glyph-name="Udieresis" unicode="&#xdc;" horiz-adv-x="796" 
d="M723 299q0 -75 -16.5 -129t-51.5 -93q-83 -93 -262 -93q-43 0 -84 6t-77 20t-66 37t-51 58q-27 45 -34.5 92t-7.5 102v424h188v-438q0 -39 6 -72t22 -56t42.5 -36t68.5 -13t68.5 13.5t42.5 37.5t22 57t6 72v435h184v-424v0zM447 780v129h149v-129h-149zM205 780v129h147
v-129h-147z" />
    <glyph glyph-name="Yacute" unicode="&#xdd;" horiz-adv-x="709" 
d="M439 270v-270h-188v272l-268 451h209l161 -321l166 321h191zM381 776h-122l109 150h187z" />
    <glyph glyph-name="Thorn" unicode="&#xde;" horiz-adv-x="691" 
d="M373 611q60 0 110.5 -7t92.5 -35q47 -32 69.5 -79.5t22.5 -105.5q0 -69 -33 -121.5t-96 -78.5q-29 -11 -71 -16.5t-87 -5.5h-119v-162h-186v723h186v-112h111zM482 389q0 31 -11 50.5t-30 31t-44.5 15.5t-53.5 4h-81v-207h73q29 0 55.5 4.5t47 16.5t32.5 32.5t12 52.5z
" />
    <glyph glyph-name="germandbls" unicode="&#xdf;" horiz-adv-x="745" 
d="M721 165q0 -45 -18.5 -78t-49 -55.5t-71 -33.5t-84.5 -11q-42 0 -79.5 8.5t-66 27.5t-46 50.5t-17.5 76.5h147v-13.5t2 -11.5q5 -21 20.5 -33.5t39.5 -12.5q32 0 49.5 21t17.5 52q0 28 -18 50.5t-63 45.5l-50 26q-24 12 -42.5 24t-32 26t-20.5 30.5t-7 38.5q0 30 13 49.5
t42 42.5q32 26 46.5 42.5t14.5 43.5q0 22 -9 36t-22.5 22.5t-31 12t-33.5 3.5q-45 0 -69.5 -19t-35.5 -50q-6 -17 -8 -37.5t-2 -47.5v-491h-173v459q0 60 11 111t52 92q43 42 102.5 59t126.5 17q49 0 96 -8t83 -26.5t58 -50t22 -78.5q0 -38 -18.5 -60t-49.5 -44
q-27 -20 -37.5 -33.5t-10.5 -30.5q0 -14 8 -25t21 -21t28 -18.5t30 -15.5l25 -13q52 -27 81 -61t29 -88z" />
    <glyph glyph-name="agrave" unicode="&#xe0;" horiz-adv-x="609" 
d="M393 0q-5 18 -7.5 35.5t-4.5 39.5q-30 -48 -70.5 -66.5t-100.5 -18.5q-39 0 -72.5 9.5t-57.5 28.5t-37.5 48.5t-13.5 68.5q0 55 27 88.5t70.5 51.5t98 24t109.5 6h47v32q0 17 -3.5 32.5t-12.5 27.5t-23 19.5t-35 7.5q-40 0 -57.5 -20t-17.5 -54h-171q1 48 24.5 79
t59 48.5t78 24t82.5 6.5q68 0 117 -11t80 -43q23 -23 35 -57t12 -87v-159q0 -44 1 -81.5t7 -79.5h-164zM381 241q-9 1 -24 1h-22q-23 0 -47.5 -4t-45 -14t-34 -27t-13.5 -43q0 -32 22.5 -51.5t54.5 -19.5q33 0 54.5 13t33.5 34t16.5 48t4.5 56v7zM293 583l-175 150h189
l106 -150h-120z" />
    <glyph glyph-name="aacute" unicode="&#xe1;" horiz-adv-x="609" 
d="M393 0q-5 18 -7.5 35.5t-4.5 39.5q-30 -48 -70.5 -66.5t-100.5 -18.5q-39 0 -72.5 9.5t-57.5 28.5t-37.5 48.5t-13.5 68.5q0 55 27 88.5t70.5 51.5t98 24t109.5 6h47v32q0 17 -3.5 32.5t-12.5 27.5t-23 19.5t-35 7.5q-40 0 -57.5 -20t-17.5 -54h-171q1 48 24.5 79
t59 48.5t78 24t82.5 6.5q68 0 117 -11t80 -43q23 -23 35 -57t12 -87v-159q0 -44 1 -81.5t7 -79.5h-164zM381 241q-9 1 -24 1h-22q-23 0 -47.5 -4t-45 -14t-34 -27t-13.5 -43q0 -32 22.5 -51.5t54.5 -19.5q33 0 54.5 13t33.5 34t16.5 48t4.5 56v7zM342 583h-122l109 150h187z
" />
    <glyph glyph-name="acircumflex" unicode="&#xe2;" horiz-adv-x="609" 
d="M393 0q-5 18 -7.5 35.5t-4.5 39.5q-30 -48 -70.5 -66.5t-100.5 -18.5q-39 0 -72.5 9.5t-57.5 28.5t-37.5 48.5t-13.5 68.5q0 55 27 88.5t70.5 51.5t98 24t109.5 6h47v32q0 17 -3.5 32.5t-12.5 27.5t-23 19.5t-35 7.5q-40 0 -57.5 -20t-17.5 -54h-171q1 48 24.5 79
t59 48.5t78 24t82.5 6.5q68 0 117 -11t80 -43q23 -23 35 -57t12 -87v-159q0 -44 1 -81.5t7 -79.5h-164zM381 241q-9 1 -24 1h-22q-23 0 -47.5 -4t-45 -14t-34 -27t-13.5 -43q0 -32 22.5 -51.5t54.5 -19.5q33 0 54.5 13t33.5 34t16.5 48t4.5 56v7zM391 583l-76 84l-78 -84
h-119l118 149h157l117 -149h-119z" />
    <glyph glyph-name="atilde" unicode="&#xe3;" horiz-adv-x="609" 
d="M393 0q-5 18 -7.5 35.5t-4.5 39.5q-30 -48 -70.5 -66.5t-100.5 -18.5q-39 0 -72.5 9.5t-57.5 28.5t-37.5 48.5t-13.5 68.5q0 55 27 88.5t70.5 51.5t98 24t109.5 6h47v32q0 17 -3.5 32.5t-12.5 27.5t-23 19.5t-35 7.5q-40 0 -57.5 -20t-17.5 -54h-171q1 48 24.5 79
t59 48.5t78 24t82.5 6.5q68 0 117 -11t80 -43q23 -23 35 -57t12 -87v-159q0 -44 1 -81.5t7 -79.5h-164zM381 241q-9 1 -24 1h-22q-23 0 -47.5 -4t-45 -14t-34 -27t-13.5 -43q0 -32 22.5 -51.5t54.5 -19.5q33 0 54.5 13t33.5 34t16.5 48t4.5 56v7zM519 726q-3 -27 -13 -51.5
t-26.5 -43t-38.5 -29.5t-49 -11q-22 0 -44 5.5t-50 14.5q-23 8 -39 11.5t-31 3.5q-36 0 -44 -35h-75q5 58 41 96.5t92 38.5q19 0 37 -4.5t47 -14.5t46.5 -14.5t31.5 -4.5q17 0 25.5 10.5t10.5 27.5h79v0z" />
    <glyph glyph-name="adieresis" unicode="&#xe4;" horiz-adv-x="609" 
d="M393 0q-5 18 -7.5 35.5t-4.5 39.5q-30 -48 -70.5 -66.5t-100.5 -18.5q-39 0 -72.5 9.5t-57.5 28.5t-37.5 48.5t-13.5 68.5q0 55 27 88.5t70.5 51.5t98 24t109.5 6h47v32q0 17 -3.5 32.5t-12.5 27.5t-23 19.5t-35 7.5q-40 0 -57.5 -20t-17.5 -54h-171q1 48 24.5 79
t59 48.5t78 24t82.5 6.5q68 0 117 -11t80 -43q23 -23 35 -57t12 -87v-159q0 -44 1 -81.5t7 -79.5h-164zM381 241q-9 1 -24 1h-22q-23 0 -47.5 -4t-45 -14t-34 -27t-13.5 -43q0 -32 22.5 -51.5t54.5 -19.5q33 0 54.5 13t33.5 34t16.5 48t4.5 56v7zM361 597v129h149v-129h-149
zM119 597v129h147v-129h-147z" />
    <glyph glyph-name="aring" unicode="&#xe5;" horiz-adv-x="609" 
d="M393 0q-5 18 -7.5 35.5t-4.5 39.5q-30 -48 -70.5 -66.5t-100.5 -18.5q-39 0 -72.5 9.5t-57.5 28.5t-37.5 48.5t-13.5 68.5q0 55 27 88.5t70.5 51.5t98 24t109.5 6h47v32q0 17 -3.5 32.5t-12.5 27.5t-23 19.5t-35 7.5q-40 0 -57.5 -20t-17.5 -54h-171q1 48 24.5 79
t59 48.5t78 24t82.5 6.5q68 0 117 -11t80 -43q23 -23 35 -57t12 -87v-159q0 -44 1 -81.5t7 -79.5h-164zM381 241q-9 1 -24 1h-22q-23 0 -47.5 -4t-45 -14t-34 -27t-13.5 -43q0 -32 22.5 -51.5t54.5 -19.5q33 0 54.5 13t33.5 34t16.5 48t4.5 56v7zM203 676q0 23 8.5 43
t23.5 34.5t35 23t43 8.5t43 -8.5t35 -23t23.5 -34.5t8.5 -43t-8.5 -42.5t-23.5 -34t-35 -23t-43 -8.5t-43 8.5t-35 23t-23.5 34t-8.5 42.5zM264 676q0 -22 14 -37t35 -15t35 15t14 37q0 23 -14 38t-35 15t-35 -15t-14 -38z" />
    <glyph glyph-name="ae" unicode="&#xe6;" horiz-adv-x="945" 
d="M543 228q0 -29 4.5 -56.5t16.5 -48.5t32 -33.5t51 -12.5q45 0 69 23.5t27 66.5h163q-8 -85 -72.5 -131.5t-173.5 -46.5q-74 0 -125 22.5t-84 83.5q-38 -59 -92 -82t-126 -23q-40 0 -76.5 9t-65 28t-45.5 48t-17 69q0 63 38.5 98.5t101.5 51.5q45 11 90 13.5t90 2.5h35
q0 29 -2 49.5t-11 37.5q-8 17 -25.5 26.5t-44.5 9.5q-35 0 -57 -18t-22 -51h-163q5 74 64.5 114.5t178.5 40.5q64 0 107 -22t71 -60q26 35 73 58.5t106 23.5q58 0 104 -17.5t79 -53t51 -90.5t19 -130h-369zM384 231h-47q-29 0 -55 -3.5t-45.5 -13t-30.5 -25.5t-11 -41
q0 -35 23 -53.5t56 -18.5q29 0 50 10.5t34.5 28.5t19.5 42t6 52v22zM746 308q-1 26 -5.5 49t-16 40t-29.5 27t-46 10q-27 0 -46 -10t-31.5 -27t-19 -40t-7.5 -49h201z" />
    <glyph glyph-name="ccedilla" unicode="&#xe7;" horiz-adv-x="595" 
d="M573 191q-3 -58 -22.5 -96.5t-52 -61.5t-77 -33.5t-96.5 -11.5l-24 -49q8 2 18 2.5t14 0.5q40 0 67.5 -18t27.5 -56q0 -24 -12 -40t-31 -26t-43 -14t-47 -4q-29 0 -56.5 5.5t-57.5 16.5l13 47q23 -11 45 -18t45 -7q21 0 37 8t16 30q0 20 -14 28.5t-34 8.5q-8 0 -16.5 -2
t-17.5 -5l-21 15l41 79q-56 4 -97 19.5t-71 44.5q-35 34 -54.5 83.5t-19.5 111.5q0 63 20 114t58 86q36 34 87.5 52t120.5 18q109 0 176 -45.5t76 -150.5h-171q-2 48 -21.5 75t-62.5 27q-32 0 -52.5 -15t-32 -39t-15.5 -54.5t-4 -61.5t4 -61.5t15 -55t30.5 -39.5t51.5 -15
q48 0 66.5 28.5t20.5 78.5h173v0z" />
    <glyph glyph-name="egrave" unicode="&#xe8;" horiz-adv-x="613" 
d="M203 224q0 -30 6 -56t19 -45.5t33.5 -30.5t50.5 -11q86 0 97 86h166q-5 -36 -20.5 -64t-39.5 -50q-38 -35 -90 -49.5t-115 -14.5q-76 0 -129.5 19.5t-88.5 59.5q-29 32 -44 77.5t-15 99.5q0 127 70.5 200t209.5 73q86 0 149.5 -33t94.5 -105q15 -35 19 -71.5t4 -84.5
h-377zM412 310q0 57 -24.5 88t-73.5 31q-50 0 -79 -32.5t-29 -86.5h206zM298 583l-175 150h189l106 -150h-120z" />
    <glyph glyph-name="eacute" unicode="&#xe9;" horiz-adv-x="613" 
d="M203 224q0 -30 6 -56t19 -45.5t33.5 -30.5t50.5 -11q86 0 97 86h166q-5 -36 -20.5 -64t-39.5 -50q-38 -35 -90 -49.5t-115 -14.5q-76 0 -129.5 19.5t-88.5 59.5q-29 32 -44 77.5t-15 99.5q0 127 70.5 200t209.5 73q86 0 149.5 -33t94.5 -105q15 -35 19 -71.5t4 -84.5
h-377zM412 310q0 57 -24.5 88t-73.5 31q-50 0 -79 -32.5t-29 -86.5h206zM337 583h-122l109 150h187z" />
    <glyph glyph-name="ecircumflex" unicode="&#xea;" horiz-adv-x="613" 
d="M203 224q0 -30 6 -56t19 -45.5t33.5 -30.5t50.5 -11q86 0 97 86h166q-5 -36 -20.5 -64t-39.5 -50q-38 -35 -90 -49.5t-115 -14.5q-76 0 -129.5 19.5t-88.5 59.5q-29 32 -44 77.5t-15 99.5q0 127 70.5 200t209.5 73q86 0 149.5 -33t94.5 -105q15 -35 19 -71.5t4 -84.5
h-377zM412 310q0 57 -24.5 88t-73.5 31q-50 0 -79 -32.5t-29 -86.5h206zM386 583l-76 84l-78 -84h-119l118 149h157l117 -149h-119z" />
    <glyph glyph-name="edieresis" unicode="&#xeb;" horiz-adv-x="613" 
d="M203 224q0 -30 6 -56t19 -45.5t33.5 -30.5t50.5 -11q86 0 97 86h166q-5 -36 -20.5 -64t-39.5 -50q-38 -35 -90 -49.5t-115 -14.5q-76 0 -129.5 19.5t-88.5 59.5q-29 32 -44 77.5t-15 99.5q0 127 70.5 200t209.5 73q86 0 149.5 -33t94.5 -105q15 -35 19 -71.5t4 -84.5
h-377zM412 310q0 57 -24.5 88t-73.5 31q-50 0 -79 -32.5t-29 -86.5h206zM356 597v129h149v-129h-149zM114 597v129h147v-129h-147z" />
    <glyph glyph-name="igrave" unicode="&#xec;" horiz-adv-x="303" 
d="M64 0v504h175v-504h-175zM142 583l-175 150h189l106 -150h-120z" />
    <glyph glyph-name="iacute" unicode="&#xed;" horiz-adv-x="303" 
d="M64 0v504h175v-504h-175zM181 583h-122l109 150h187z" />
    <glyph glyph-name="icircumflex" unicode="&#xee;" horiz-adv-x="303" 
d="M64 0v504h175v-504h-175zM230 583l-76 84l-78 -84h-119l118 149h157l117 -149h-119z" />
    <glyph glyph-name="idieresis" unicode="&#xef;" horiz-adv-x="303" 
d="M64 0v504h175v-504h-175zM200 597v129h149v-129h-149zM-42 597v129h147v-129h-147z" />
    <glyph glyph-name="eth" unicode="&#xf0;" horiz-adv-x="629" 
d="M596 304q0 -68 -16 -126t-50 -100t-88 -65.5t-129 -23.5q-61 0 -112 16.5t-88.5 49t-58.5 81t-21 111.5q0 54 18 98.5t49.5 76.5t75.5 49.5t97 17.5q40 0 75.5 -15.5t64.5 -48.5q-23 63 -61 100.5t-95 66.5l-90 -57l-49 40l68 45q-23 8 -43 14.5t-43 11.5l70 107
q39 -9 74.5 -20.5t73.5 -26.5l79 51l49 -40l-64 -41q106 -59 160 -153t54 -219zM428 253q0 28 -5.5 55t-18.5 48t-35 33.5t-54 12.5q-33 0 -55.5 -14t-36 -36t-19 -50.5t-5.5 -56.5q0 -29 5 -58t18 -52t35 -38t56 -15q35 0 57.5 15.5t35 40.5t17.5 55t5 60z" />
    <glyph glyph-name="ntilde" unicode="&#xf1;" horiz-adv-x="655" 
d="M418 0v272q0 24 -1.5 48t-10 43.5t-26 31.5t-48.5 12q-30 0 -48.5 -14t-28.5 -35.5t-13 -47t-3 -49.5v-261h-175v342v30t-0.5 45.5t-1 48.5t-1.5 39h171q2 -26 3 -50t1 -28q37 45 75.5 65t95.5 20q99 0 142.5 -46.5t43.5 -145.5v-320h-175zM535 726q-3 -27 -13 -51.5
t-26.5 -43t-38.5 -29.5t-49 -11q-22 0 -44 5.5t-50 14.5q-23 8 -39 11.5t-31 3.5q-36 0 -44 -35h-75q5 58 41 96.5t92 38.5q19 0 37 -4.5t47 -14.5t46.5 -14.5t31.5 -4.5q17 0 25.5 10.5t10.5 27.5h79v0z" />
    <glyph glyph-name="ograve" unicode="&#xf2;" horiz-adv-x="648" 
d="M615 254q0 -64 -20.5 -113.5t-58.5 -83.5t-92 -51.5t-122 -17.5t-121.5 17.5t-90.5 51.5t-57 83.5t-20 113.5q0 59 19 106t54 81q80 77 221 77q67 0 120 -18t90.5 -51.5t57.5 -82.5t20 -112zM435 254q0 32 -5.5 62.5t-18.5 54t-34.5 38t-54.5 14.5t-54 -14.5t-33.5 -38
t-17.5 -54t-5 -62.5q0 -30 5 -61t18 -56q13 -26 34 -40t54 -14q32 0 53.5 15t34.5 39t18.5 54.5t5.5 62.5zM312 583l-175 150h189l106 -150h-120z" />
    <glyph glyph-name="oacute" unicode="&#xf3;" horiz-adv-x="648" 
d="M615 254q0 -64 -20.5 -113.5t-58.5 -83.5t-92 -51.5t-122 -17.5t-121.5 17.5t-90.5 51.5t-57 83.5t-20 113.5q0 59 19 106t54 81q80 77 221 77q67 0 120 -18t90.5 -51.5t57.5 -82.5t20 -112zM435 254q0 32 -5.5 62.5t-18.5 54t-34.5 38t-54.5 14.5t-54 -14.5t-33.5 -38
t-17.5 -54t-5 -62.5q0 -30 5 -61t18 -56q13 -26 34 -40t54 -14q32 0 53.5 15t34.5 39t18.5 54.5t5.5 62.5zM351 583h-122l109 150h187z" />
    <glyph glyph-name="ocircumflex" unicode="&#xf4;" horiz-adv-x="648" 
d="M615 254q0 -64 -20.5 -113.5t-58.5 -83.5t-92 -51.5t-122 -17.5t-121.5 17.5t-90.5 51.5t-57 83.5t-20 113.5q0 59 19 106t54 81q80 77 221 77q67 0 120 -18t90.5 -51.5t57.5 -82.5t20 -112zM435 254q0 32 -5.5 62.5t-18.5 54t-34.5 38t-54.5 14.5t-54 -14.5t-33.5 -38
t-17.5 -54t-5 -62.5q0 -30 5 -61t18 -56q13 -26 34 -40t54 -14q32 0 53.5 15t34.5 39t18.5 54.5t5.5 62.5zM400 583l-76 84l-78 -84h-119l118 149h157l117 -149h-119z" />
    <glyph glyph-name="otilde" unicode="&#xf5;" horiz-adv-x="648" 
d="M615 254q0 -64 -20.5 -113.5t-58.5 -83.5t-92 -51.5t-122 -17.5t-121.5 17.5t-90.5 51.5t-57 83.5t-20 113.5q0 59 19 106t54 81q80 77 221 77q67 0 120 -18t90.5 -51.5t57.5 -82.5t20 -112zM435 254q0 32 -5.5 62.5t-18.5 54t-34.5 38t-54.5 14.5t-54 -14.5t-33.5 -38
t-17.5 -54t-5 -62.5q0 -30 5 -61t18 -56q13 -26 34 -40t54 -14q32 0 53.5 15t34.5 39t18.5 54.5t5.5 62.5zM528 726q-3 -27 -13 -51.5t-26.5 -43t-38.5 -29.5t-49 -11q-22 0 -44 5.5t-50 14.5q-23 8 -39 11.5t-31 3.5q-36 0 -44 -35h-75q5 58 41 96.5t92 38.5q19 0 37 -4.5
t47 -14.5t46.5 -14.5t31.5 -4.5q17 0 25.5 10.5t10.5 27.5h79v0z" />
    <glyph glyph-name="odieresis" unicode="&#xf6;" horiz-adv-x="648" 
d="M615 254q0 -64 -20.5 -113.5t-58.5 -83.5t-92 -51.5t-122 -17.5t-121.5 17.5t-90.5 51.5t-57 83.5t-20 113.5q0 59 19 106t54 81q80 77 221 77q67 0 120 -18t90.5 -51.5t57.5 -82.5t20 -112zM435 254q0 32 -5.5 62.5t-18.5 54t-34.5 38t-54.5 14.5t-54 -14.5t-33.5 -38
t-17.5 -54t-5 -62.5q0 -30 5 -61t18 -56q13 -26 34 -40t54 -14q32 0 53.5 15t34.5 39t18.5 54.5t5.5 62.5zM370 597v129h149v-129h-149zM128 597v129h147v-129h-147z" />
    <glyph glyph-name="divide" unicode="&#xf7;" horiz-adv-x="663" 
d="M262 380v140h140v-140h-140zM67 202v121h529v-121h-529zM262 5v139h140v-139h-140z" />
    <glyph glyph-name="oslash" unicode="&#xf8;" horiz-adv-x="648" 
d="M615 254q0 -64 -20.5 -113.5t-58.5 -83.5t-92 -51.5t-122 -17.5q-85 0 -146 27l-68 -82l-56 46l62 75q-39 34 -60 84t-21 116q0 59 19 106t54 81q80 77 221 77q83 0 148 -28l66 80l56 -47l-61 -73q38 -34 58.5 -83.5t20.5 -112.5zM395 393q-27 30 -73 30q-33 0 -54 -14.5
t-33.5 -38t-17.5 -54t-5 -62.5q0 -18 1.5 -36.5t6.5 -35.5zM435 254q0 34 -6 66l-175 -211q26 -26 69 -26q32 0 53.5 15t34.5 39t18.5 54.5t5.5 62.5z" />
    <glyph glyph-name="ugrave" unicode="&#xf9;" horiz-adv-x="655" 
d="M421 0q0 3 -1 14.5t-1.5 25t-1 24.5t-0.5 13q-35 -45 -72.5 -65t-95.5 -20q-103 0 -150 59q-19 24 -28 56.5t-9 77.5v320h175v-274q0 -27 2 -51.5t10 -42.5t25 -29t47 -11q31 0 50 13t30 35q9 19 12 41.5t3 51.5v267h175v-325q0 -42 0.5 -88.5t2.5 -91.5h-173zM317 583
l-175 150h189l106 -150h-120z" />
    <glyph glyph-name="uacute" unicode="&#xfa;" horiz-adv-x="655" 
d="M421 0q0 3 -1 14.5t-1.5 25t-1 24.5t-0.5 13q-35 -45 -72.5 -65t-95.5 -20q-103 0 -150 59q-19 24 -28 56.5t-9 77.5v320h175v-274q0 -27 2 -51.5t10 -42.5t25 -29t47 -11q31 0 50 13t30 35q9 19 12 41.5t3 51.5v267h175v-325q0 -42 0.5 -88.5t2.5 -91.5h-173zM356 583
h-122l109 150h187z" />
    <glyph glyph-name="ucircumflex" unicode="&#xfb;" horiz-adv-x="655" 
d="M421 0q0 3 -1 14.5t-1.5 25t-1 24.5t-0.5 13q-35 -45 -72.5 -65t-95.5 -20q-103 0 -150 59q-19 24 -28 56.5t-9 77.5v320h175v-274q0 -27 2 -51.5t10 -42.5t25 -29t47 -11q31 0 50 13t30 35q9 19 12 41.5t3 51.5v267h175v-325q0 -42 0.5 -88.5t2.5 -91.5h-173zM405 583
l-76 84l-78 -84h-119l118 149h157l117 -149h-119z" />
    <glyph glyph-name="udieresis" unicode="&#xfc;" horiz-adv-x="655" 
d="M421 0q0 3 -1 14.5t-1.5 25t-1 24.5t-0.5 13q-35 -45 -72.5 -65t-95.5 -20q-103 0 -150 59q-19 24 -28 56.5t-9 77.5v320h175v-274q0 -27 2 -51.5t10 -42.5t25 -29t47 -11q31 0 50 13t30 35q9 19 12 41.5t3 51.5v267h175v-325q0 -42 0.5 -88.5t2.5 -91.5h-173zM375 597
v129h149v-129h-149zM133 597v129h147v-129h-147z" />
    <glyph glyph-name="yacute" unicode="&#xfd;" horiz-adv-x="603" 
d="M314 -190h-173l88 194l-233 501h194l124 -352l119 352h174zM343 583h-122l109 150h187z" />
    <glyph glyph-name="thorn" unicode="&#xfe;" horiz-adv-x="662" 
d="M629 260q0 -56 -14 -105.5t-42 -86t-71.5 -58t-101.5 -21.5q-28 0 -50 4.5t-41 14t-36 24.5t-34 36v-258h-175v913h175v-292q33 45 71.5 65.5t94.5 20.5q57 0 99 -20t69.5 -54.5t41.5 -81.5t14 -101zM450 257q0 31 -5 60t-17 52t-32 37t-51 14q-32 0 -53 -14t-33.5 -37.5
t-17.5 -53.5t-5 -61t4.5 -60.5t16 -53t31.5 -38t51 -14.5q33 0 54.5 14t34 37.5t17.5 54t5 63.5z" />
    <glyph glyph-name="ydieresis" unicode="&#xff;" horiz-adv-x="603" 
d="M314 -190h-173l88 194l-233 501h194l124 -352l119 352h174zM362 597v129h149v-129h-149zM120 597v129h147v-129h-147z" />
    <glyph glyph-name=".null" horiz-adv-x="567" 
 />
    <glyph glyph-name="grave.cap" horiz-adv-x="330" 
d="M146 776l-175 150h189l106 -150h-120z" />
    <glyph glyph-name="acute.cap" horiz-adv-x="330" 
d="M186 776h-122l109 150h187z" />
    <glyph glyph-name="circumflex.cap" horiz-adv-x="330" 
d="M242 776l-76 84l-78 -84h-119l118 149h157l117 -149h-119z" />
    <glyph glyph-name="caron.cap" horiz-adv-x="330" 
d="M243 776h-157l-117 148h118l80 -85l77 85h117z" />
    <glyph glyph-name="caron.alt" horiz-adv-x="301" 
d="M180 457h-106l39 266h142z" />
    <glyph glyph-name="tilde.cap" horiz-adv-x="330" 
d="M370 919q-3 -27 -13 -51.5t-26.5 -43t-38.5 -29.5t-49 -11q-22 0 -44 5.5t-50 14.5q-23 8 -39 11.5t-31 3.5q-36 0 -44 -35h-75q5 58 41 96.5t92 38.5q19 0 37 -4.5t47 -14.5t46.5 -14.5t31.5 -4.5q17 0 25.5 10.5t10.5 27.5h79v0z" />
    <glyph glyph-name="dieresis.cap" horiz-adv-x="331" 
d="M212 780v129h149v-129h-149zM-30 780v129h147v-129h-147z" />
    <glyph glyph-name="macron.cap" horiz-adv-x="330" 
d="M-10 805v76h350v-76h-350z" />
    <glyph glyph-name="breve.cap" horiz-adv-x="331" 
d="M347 917q-10 -76 -57.5 -110t-123.5 -34q-38 0 -70.5 8.5t-56.5 26t-38.5 44.5t-15.5 65h74q3 -19 13.5 -31t25.5 -19.5t32.5 -10.5t35.5 -3q39 0 67 13t42 51h72v0z" />
    <glyph glyph-name="ring.cap" horiz-adv-x="330" 
d="M55 859q0 23 8.5 43t23.5 34.5t35 23t43 8.5t43 -8.5t35 -23t23.5 -34.5t8.5 -43t-8.5 -42.5t-23.5 -34t-35 -23t-43 -8.5t-43 8.5t-35 23t-23.5 34t-8.5 42.5zM116 859q0 -22 14 -37t35 -15t35 15t14 37q0 23 -14 38t-35 15t-35 -15t-14 -38z" />
    <glyph glyph-name="hungarumlaut.cap" horiz-adv-x="330" 
d="M329 777h-120l111 149h182zM71 777h-118l108 149h182z" />
    <glyph glyph-name="dotaccent.cap" horiz-adv-x="331" 
d="M92 790v129h147v-129h-147z" />
    <glyph glyph-name="commaaccent" horiz-adv-x="301" 
d="M145 -215h-115l47 166h144z" />
    <glyph glyph-name="commaaccent.alt" horiz-adv-x="659" 
d="M316 733h115l-45 -150h-144z" />
    <glyph glyph-name="exclam.sc" horiz-adv-x="306" 
d="M217 172h-128l-29 374h185zM74 0v125h158v-125h-158z" />
    <glyph glyph-name="dollar.sc" horiz-adv-x="558" 
d="M252 -83v73q-109 4 -162.5 45.5t-55.5 128.5h156q1 -35 14 -56.5t48 -28.5v137l-28 7q-38 9 -71 20.5t-57 29t-37.5 43t-13.5 63.5q0 68 52 110.5t155 48.5v73h61v-73q100 -6 146 -46.5t50 -115.5h-154q-1 29 -10 47t-32 25v-132l28 -6q37 -9 70.5 -20t58 -28t39 -42.5
t14.5 -63.5q0 -76 -56 -117.5t-154 -48.5v-73h-61zM366 143q0 22 -12 35.5t-41 22.5v-122q53 12 53 64zM199 391q0 -43 53 -60v119q-53 -10 -53 -59z" />
    <glyph glyph-name="percent.sc" horiz-adv-x="835" 
d="M320 -18h-107l299 584h106zM330 399q0 -69 -38.5 -114.5t-115.5 -45.5q-40 0 -69 12t-48 33.5t-28 50.5t-9 64q0 34 9 63.5t28 50.5t48 33t69 12q79 0 116.5 -45t37.5 -114zM222 399q0 51 -12 71.5t-34 20.5t-34 -20.5t-12 -71.5t12 -72t34 -21t34 21t12 72zM813 153
q0 -69 -38.5 -114t-115.5 -45q-40 0 -69 12t-48 33t-28.5 50t-9.5 64q0 34 9.5 63.5t28.5 50.5t48 33t69 12q79 0 116.5 -45t37.5 -114zM705 153q0 51 -12 71.5t-34 20.5q-23 0 -34.5 -20.5t-11.5 -71.5t11.5 -72t34.5 -21q22 0 34 21t12 72z" />
    <glyph glyph-name="ampersand.sc" horiz-adv-x="715" 
d="M580 245v-245h-277q-49 0 -94.5 7.5t-81 25.5t-57 48.5t-21.5 77.5q0 56 36.5 89.5t93.5 47.5q-47 14 -74.5 43t-27.5 77q0 37 18 64t48 44.5t69 25.5t81 8q28 0 56.5 -2t57.5 -6v-94q-20 4 -37.5 5.5t-31.5 1.5q-17 0 -33.5 -2.5t-30 -9.5t-22 -19t-8.5 -31
q0 -20 9 -32.5t24 -19.5t34 -10t39 -3h72v98h158v-98h105v-91h-105zM422 244h-80q-52 0 -86.5 -15.5t-34.5 -59.5q0 -24 11.5 -39t30.5 -22.5t43.5 -10t50.5 -2.5h65v149z" />
    <glyph glyph-name="zero.sc" horiz-adv-x="563" 
d="M530 274q0 -57 -13 -109t-42 -91t-77 -62.5t-117 -23.5q-67 0 -114 23.5t-77 62.5t-43.5 91t-13.5 109t13.5 108.5t43.5 90.5t77 62t115 23q69 0 116.5 -23t76.5 -62t42 -90.5t13 -108.5zM364 274q0 102 -19 147t-61 45q-45 0 -64.5 -44t-19.5 -148t19.5 -149t64.5 -45
q42 0 61 45.5t19 148.5z" />
    <glyph glyph-name="one.sc" horiz-adv-x="563" 
d="M231 0v403q-27 -18 -62 -33.5t-73 -27.5v116q26 8 47 16.5t39.5 19t36 23.5t36.5 29h142v-546h-166z" />
    <glyph glyph-name="two.sc" horiz-adv-x="563" 
d="M39 0v99l112 78q55 39 92 69.5t60 56.5t33 49.5t10 47.5q0 64 -63 64q-32 0 -48.5 -21t-18.5 -57h-166q0 47 18.5 79.5t50.5 53t75 30t93 9.5q47 0 88 -9t72 -28.5t48.5 -49.5t17.5 -72q0 -36 -13 -68.5t-39 -63.5t-65 -62.5t-91 -65.5l-62 -42h274v-97h-478z" />
    <glyph glyph-name="three.sc" horiz-adv-x="563" 
d="M530 151q0 -45 -21.5 -76.5t-56.5 -51t-81.5 -28t-95.5 -8.5q-53 0 -96.5 9.5t-75.5 29.5t-50.5 52.5t-21.5 79.5h169q1 -40 23 -58.5t55 -18.5q38 0 61 20t23 58q0 22 -9 36.5t-24 23.5t-35 12.5t-41 3.5q-11 0 -25.5 -0.5t-24.5 -1.5v93q8 -1 19.5 -1.5t19.5 -0.5
q23 0 43 3.5t35 12.5t24 23.5t9 35.5q0 32 -19 49.5t-54 17.5q-25 0 -47 -16t-22 -55h-168q0 41 16.5 69t44.5 47q35 24 83 35.5t99 11.5q44 0 85.5 -8.5t74 -26.5t52.5 -46.5t20 -68.5q0 -48 -29 -79.5t-80 -43.5q56 -13 88.5 -45.5t32.5 -88.5z" />
    <glyph glyph-name="four.sc" horiz-adv-x="563" 
d="M462 114v-114h-158v114h-275v111l236 321h197v-341h85v-91h-85zM308 429l-160 -224h160v224z" />
    <glyph glyph-name="five.sc" horiz-adv-x="563" 
d="M527 189q0 -50 -17.5 -88t-49.5 -63.5t-77 -38t-99 -12.5q-49 0 -92 8.5t-74.5 27.5t-49.5 50.5t-18 78.5h165q1 -35 19.5 -52.5t50.5 -17.5q37 0 57 26t20 77q0 39 -17 66.5t-55 27.5q-26 0 -44.5 -14.5t-23.5 -42.5h-164l13 324h425v-96h-277l-5 -121q47 44 122 44
q45 0 80.5 -14t60 -38.5t37.5 -58t13 -73.5z" />
    <glyph glyph-name="six.sc" horiz-adv-x="563" 
d="M530 187q0 -45 -18 -81.5t-49.5 -63t-75 -40.5t-94.5 -14q-67 0 -115 21.5t-79 59t-46 89.5t-15 112q0 59 14.5 111.5t45.5 91.5t80.5 62t119.5 23q45 0 83.5 -9.5t67 -29t45.5 -49t17 -68.5h-159q0 34 -16 50.5t-44 16.5q-26 0 -43 -13.5t-28 -36t-16.5 -51t-6.5 -58.5
q26 29 59.5 41.5t79.5 12.5q42 0 77 -12.5t61 -35.5t40.5 -55.5t14.5 -73.5zM370 179q0 41 -19 68t-59 27q-22 0 -38 -7.5t-26 -20.5t-14.5 -31t-4.5 -38q0 -42 21.5 -68.5t60.5 -26.5q40 0 59.5 27.5t19.5 69.5z" />
    <glyph glyph-name="seven.sc" horiz-adv-x="563" 
d="M288 0h-187l240 447h-292v99h459v-101z" />
    <glyph glyph-name="eight.sc" horiz-adv-x="563" 
d="M528 152q0 -46 -20 -77t-53 -50.5t-77 -28t-92 -8.5t-93 8t-80.5 26.5t-57 49t-21.5 75.5q0 56 35 89t92 48q-19 5 -38.5 15t-35 25t-25.5 36t-10 49q0 41 20 69.5t52 46t73.5 25.5t85.5 8q43 0 84.5 -7.5t73.5 -24.5t52 -45t20 -69q0 -49 -29 -80.5t-77 -47.5
q20 -5 41.5 -14.5t39 -25.5t29 -38.5t11.5 -53.5zM358 398q0 35 -21.5 54.5t-53.5 19.5t-54.5 -18.5t-22.5 -53.5q0 -37 21.5 -54t54.5 -17q32 0 54 17t22 52zM368 161q0 42 -25.5 62t-61.5 20q-35 0 -60.5 -19.5t-25.5 -61.5q0 -41 24.5 -62.5t61.5 -21.5q36 0 61.5 20.5
t25.5 62.5z" />
    <glyph glyph-name="nine.sc" horiz-adv-x="563" 
d="M525 284q0 -64 -13 -118.5t-43 -94t-80 -61.5t-124 -22q-50 0 -91 10t-71 30t-47 48.5t-17 66.5h159q2 -61 70 -61q29 0 47.5 13.5t29 36t14.5 51.5t5 60q-24 -27 -55 -37.5t-79 -10.5q-42 0 -78 12.5t-62.5 35t-41.5 55t-15 72.5q0 44 18 79t50 59t75.5 37t95.5 13
q69 0 117 -19t78 -55t43.5 -86.5t14.5 -113.5zM355 376q0 41 -21 65t-59 24q-41 0 -61.5 -24t-20.5 -65q0 -40 21 -65t59 -25t60 24t22 66z" />
    <glyph glyph-name="question.sc" horiz-adv-x="473" 
d="M432 417q0 -43 -27 -77.5t-88 -77.5q-15 -11 -24.5 -18.5t-15 -15t-8 -17t-2.5 -24.5v-15h-141v30q0 16 3 28t10 22.5t18.5 21.5t29.5 26q32 26 52 49.5t20 49.5q0 19 -8.5 32t-22.5 21t-32.5 11.5t-38.5 3.5q-44 0 -101 -15v93q42 7 75 10t65 3q47 0 90 -6.5t75.5 -22.5
t51.5 -43t19 -69zM117 0v125h158v-125h-158z" />
    <glyph glyph-name="a.sc" horiz-adv-x="658" 
d="M433 118h-224l-43 -118h-169l231 546h201l232 -546h-186zM243 214h158l-78 215z" />
    <glyph glyph-name="b.sc" horiz-adv-x="624" 
d="M585 155q0 -44 -19 -73.5t-50.5 -47.5t-72.5 -26t-86 -8h-288v546h284q40 0 78 -7t68 -23t48 -43t18 -66q0 -48 -29.5 -78t-80.5 -44q61 -12 95.5 -43t34.5 -87zM412 166q0 39 -23 53t-68 14h-85v-136h80q48 0 72 14.5t24 54.5zM396 390q0 35 -21.5 48t-63.5 13h-75v-126
h69q45 0 68 13.5t23 51.5z" />
    <glyph glyph-name="c.sc" horiz-adv-x="632" 
d="M600 172q-4 -48 -26 -83t-58 -57.5t-84.5 -33t-103.5 -10.5q-76 0 -131 20t-90.5 57t-52.5 89t-17 116t18.5 117.5t55.5 91t93 58.5t131 21q50 0 96.5 -10t82.5 -32t57.5 -57t23.5 -85h-176q-5 42 -27.5 61.5t-57.5 19.5q-60 0 -89 -48.5t-29 -133.5q0 -88 27 -134.5
t85 -46.5q36 0 63 19t32 61h177v0z" />
    <glyph glyph-name="d.sc" horiz-adv-x="681" 
d="M642 273q0 -75 -26 -127.5t-71 -85.5q-43 -32 -101 -46t-128 -14h-247v546h245q66 0 122.5 -12t100.5 -40q48 -32 76.5 -85.5t28.5 -135.5zM464 274q0 89 -35 128q-36 40 -122 40h-64v-338h63q43 0 73 9.5t49 31.5q18 20 26.5 50.5t9.5 78.5z" />
    <glyph glyph-name="e.sc" horiz-adv-x="558" 
d="M69 0v546h441v-104h-268v-113h253v-103h-253v-121h277v-105h-450z" />
    <glyph glyph-name="f.sc" horiz-adv-x="527" 
d="M243 441v-120h242v-102h-241v-219h-175v546h431v-105h-257z" />
    <glyph glyph-name="g.sc" horiz-adv-x="671" 
d="M614 26q-63 -20 -129.5 -29t-132.5 -9q-156 0 -235.5 73.5t-79.5 210.5q0 66 21.5 119t62 90t99.5 57t134 20q55 0 100.5 -10t79 -31.5t54 -55.5t25.5 -81h-170q-8 39 -31.5 57t-62.5 18q-37 0 -62.5 -14t-41.5 -39t-23 -58t-7 -72t6 -72.5t22.5 -57.5t45.5 -38t74 -14
q21 0 44 2.5t43 7.5v108h-107v93h271v-275v0z" />
    <glyph glyph-name="h.sc" horiz-adv-x="690" 
d="M446 0v227h-202v-227h-175v546h175v-212h202v212h175v-546h-175z" />
    <glyph glyph-name="i.sc" horiz-adv-x="313" 
d="M69 0v546h175v-546h-175z" />
    <glyph glyph-name="j.sc" horiz-adv-x="537" 
d="M474 180q0 -98 -60.5 -145.5t-175.5 -47.5q-48 0 -90 9.5t-72.5 29.5t-48 51t-17.5 74q0 8 0.5 14t1.5 11h173q-1 -9 -1 -15v-13q0 -27 14 -41.5t40 -14.5q37 0 49 23.5t12 58.5v372h175v-366v0z" />
    <glyph glyph-name="k.sc" horiz-adv-x="655" 
d="M244 0h-175v546h175v-546zM425 546h202l-203 -243l232 -303h-208l-201 298z" />
    <glyph glyph-name="l.sc" horiz-adv-x="530" 
d="M69 0v546h175v-442h268v-104h-443z" />
    <glyph glyph-name="m.sc" horiz-adv-x="869" 
d="M648 0v417l-145 -417h-143l-145 418v-418h-146v546h242l127 -389l128 389h234v-546h-152z" />
    <glyph glyph-name="n.sc" horiz-adv-x="703" 
d="M411 0l-194 395v-395h-148v546h223l193 -396v396h149v-546h-223z" />
    <glyph glyph-name="o.sc" horiz-adv-x="677" 
d="M640 273q0 -64 -20 -116.5t-58.5 -90t-95.5 -58t-130 -20.5q-74 0 -130 21t-93.5 59t-56.5 90.5t-19 115.5q0 61 19.5 113.5t57.5 90t95 59t132 21.5t131.5 -21.5t93.5 -59.5t55.5 -90t18.5 -114zM462 275q0 34 -6 66.5t-20 58t-38 40.5t-60 15q-35 0 -58.5 -15.5
t-37.5 -41t-20 -57.5t-6 -66q0 -35 5.5 -68t19 -58.5t37 -41t60.5 -15.5t61 15.5t38 41t19.5 58.5t5.5 68z" />
    <glyph glyph-name="p.sc" horiz-adv-x="601" 
d="M575 366q0 -50 -21 -86.5t-61 -58.5q-28 -15 -65 -23.5t-85 -8.5h-100v-189h-174v546h264q51 0 91 -7.5t72 -25.5q37 -21 58 -57t21 -90zM402 369q0 41 -24 59t-73 18h-62v-157h53q28 0 52 5.5t38 22.5q9 11 12.5 23t3.5 29z" />
    <glyph glyph-name="q.sc" horiz-adv-x="683" 
d="M545 0q-31 0 -63 -1t-64 -3q-26 -2 -50 -3.5t-44 -1.5q-69 0 -122 21t-89.5 58.5t-55.5 88.5t-19 112q0 62 19 114.5t57 91t94 60t130 21.5q72 0 128 -20t95 -55t59 -84t20 -107q0 -61 -22 -111.5t-73 -88.5q26 2 49.5 3.5t45.5 1.5h36v-97h-131zM463 276q0 34 -6 66.5
t-20 57.5t-38 40t-60 15t-59.5 -15.5t-38 -40.5t-20 -57t-5.5 -66t5.5 -66.5t19 -58t37.5 -41t61 -15.5t61 15.5t38 40.5t19.5 57.5t5.5 67.5z" />
    <glyph glyph-name="r.sc" horiz-adv-x="636" 
d="M424 0q-9 25 -14 51t-7 55q-3 32 -7 52.5t-14 32.5t-26 16.5t-43 4.5h-71v-212h-173v546h301q48 0 86.5 -8t66.5 -25q29 -18 44.5 -46t15.5 -66q0 -52 -34 -87.5t-85 -46.5q30 -5 49.5 -15t31.5 -25.5t18 -37t10 -51.5q5 -38 10.5 -71t20.5 -67h-180zM416 380
q0 36 -22 52q-23 15 -71 15h-81v-140h81q48 0 70.5 18t22.5 55z" />
    <glyph glyph-name="s.sc" horiz-adv-x="614" 
d="M576 167q0 -47 -20 -81t-56 -55.5t-87 -32t-113 -10.5q-58 0 -106.5 10.5t-83.5 33t-54.5 57.5t-19.5 83h176q0 -42 24.5 -64.5t70.5 -22.5q44 0 68 16t24 47q0 11 -5 20t-17 16.5t-33.5 14.5t-54.5 14l-56 12q-83 18 -132.5 56t-49.5 108q0 42 18.5 74t52 53t80.5 31.5
t105 10.5q57 0 103.5 -10t80 -31t51.5 -53t18 -75h-173q0 76 -81 76q-39 0 -60 -16t-21 -43q0 -24 24.5 -37t83.5 -26l55 -12q102 -23 145 -62t43 -102z" />
    <glyph glyph-name="t.sc" horiz-adv-x="559" 
d="M367 441v-441h-175v441h-182v105h539v-105h-182z" />
    <glyph glyph-name="u.sc" horiz-adv-x="676" 
d="M614 224q0 -125 -73.5 -180.5t-207.5 -55.5q-131 0 -201 54t-70 182v322h176v-329q0 -28 4.5 -51t16 -39.5t31 -25.5t50.5 -9t51 9.5t31.5 26.5t16 40t4.5 51v327h171v-322v0z" />
    <glyph glyph-name="v.sc" horiz-adv-x="618" 
d="M405 0h-196l-211 546h185l132 -403l137 403h169z" />
    <glyph glyph-name="w.sc" horiz-adv-x="951" 
d="M784 0h-194l-111 403l-117 -403h-196l-156 546h174l92 -392l111 392h193l108 -392l89 392h164z" />
    <glyph glyph-name="x.sc" horiz-adv-x="655" 
d="M452 0l-131 193l-130 -193h-192l220 284l-208 262h203l116 -174l113 174h190l-200 -260l222 -286h-203z" />
    <glyph glyph-name="y.sc" horiz-adv-x="593" 
d="M383 204v-204h-175v206l-223 340h193l125 -227l127 227h178z" />
    <glyph glyph-name="z.sc" horiz-adv-x="560" 
d="M23 0v108l296 335h-277v103h484v-104l-306 -341h317v-101h-514z" />
    <glyph glyph-name="agrave.sc" horiz-adv-x="658" 
d="M433 118h-224l-43 -118h-169l231 546h201l232 -546h-186zM243 214h158l-78 215zM288 623l-175 150h189l106 -150h-120z" />
    <glyph glyph-name="aacute.sc" horiz-adv-x="658" 
d="M433 118h-224l-43 -118h-169l231 546h201l232 -546h-186zM243 214h158l-78 215zM366 623h-122l109 150h187z" />
    <glyph glyph-name="acircumflex.sc" horiz-adv-x="658" 
d="M433 118h-224l-43 -118h-169l231 546h201l232 -546h-186zM243 214h158l-78 215zM404 623l-76 84l-78 -84h-119l118 149h157l117 -149h-119z" />
    <glyph glyph-name="atilde.sc" horiz-adv-x="658" 
d="M433 118h-224l-43 -118h-169l231 546h201l232 -546h-186zM243 214h158l-78 215zM532 766q-3 -27 -13 -51.5t-26.5 -43t-38.5 -29.5t-49 -11q-22 0 -44 5.5t-50 14.5q-23 8 -39 11.5t-31 3.5q-36 0 -44 -35h-75q5 58 41 96.5t92 38.5q19 0 37 -4.5t47 -14.5t46.5 -14.5
t31.5 -4.5q17 0 25.5 10.5t10.5 27.5h79v0z" />
    <glyph glyph-name="adieresis.sc" horiz-adv-x="658" 
d="M433 118h-224l-43 -118h-169l231 546h201l232 -546h-186zM243 214h158l-78 215zM374 637v129h149v-129h-149zM132 637v129h147v-129h-147z" />
    <glyph glyph-name="amacron.sc" horiz-adv-x="658" 
d="M433 118h-224l-43 -118h-169l231 546h201l232 -546h-186zM243 214h158l-78 215zM154 662v76h350v-76h-350z" />
    <glyph glyph-name="abreve.sc" horiz-adv-x="658" 
d="M433 118h-224l-43 -118h-169l231 546h201l232 -546h-186zM243 214h158l-78 215zM510 764q-10 -76 -57.5 -110t-123.5 -34q-38 0 -70.5 8.5t-56.5 26t-38.5 44.5t-15.5 65h74q3 -19 13.5 -31t25.5 -19.5t32.5 -10.5t35.5 -3q39 0 67 13t42 51h72v0z" />
    <glyph glyph-name="aring.sc" horiz-adv-x="658" 
d="M433 118h-224l-43 -118h-169l231 546h201l232 -546h-186zM243 214h158l-78 215zM217 716q0 23 8.5 43t23.5 34.5t35 23t43 8.5t43 -8.5t35 -23t23.5 -34.5t8.5 -43t-8.5 -42.5t-23.5 -34t-35 -23t-43 -8.5t-43 8.5t-35 23t-23.5 34t-8.5 42.5zM278 716q0 -22 14 -37
t35 -15t35 15t14 37q0 23 -14 38t-35 15t-35 -15t-14 -38z" />
    <glyph glyph-name="aogonek.sc" horiz-adv-x="658" 
d="M243 214h158l-78 215zM661 0q-40 -23 -64.5 -45t-24.5 -52q0 -24 16 -37.5t40 -13.5q11 0 19.5 2.5t18.5 7.5l3 -47q-12 -7 -35 -15t-55 -8q-39 0 -69.5 19.5t-30.5 60.5q0 22 8.5 41.5t23 35t32.5 28.5t37 23h-105l-42 118h-224l-43 -118h-169l231 546h201z" />
    <glyph glyph-name="ae.sc" horiz-adv-x="837" 
d="M552 226l17 -121h231v-105h-375l-16 117h-193l-56 -117h-170l284 546h518v-104h-269l15 -113h238v-103h-224zM261 212h135l-29 222z" />
    <glyph glyph-name="cacute.sc" horiz-adv-x="632" 
d="M600 172q-4 -48 -26 -83t-58 -57.5t-84.5 -33t-103.5 -10.5q-76 0 -131 20t-90.5 57t-52.5 89t-17 116t18.5 117.5t55.5 91t93 58.5t131 21q50 0 96.5 -10t82.5 -32t57.5 -57t23.5 -85h-176q-5 42 -27.5 61.5t-57.5 19.5q-60 0 -89 -48.5t-29 -133.5q0 -88 27 -134.5
t85 -46.5q36 0 63 19t32 61h177v0zM347 623h-122l109 150h187z" />
    <glyph glyph-name="ccircumflex.sc" horiz-adv-x="632" 
d="M600 172q-4 -48 -26 -83t-58 -57.5t-84.5 -33t-103.5 -10.5q-76 0 -131 20t-90.5 57t-52.5 89t-17 116t18.5 117.5t55.5 91t93 58.5t131 21q50 0 96.5 -10t82.5 -32t57.5 -57t23.5 -85h-176q-5 42 -27.5 61.5t-57.5 19.5q-60 0 -89 -48.5t-29 -133.5q0 -88 27 -134.5
t85 -46.5q36 0 63 19t32 61h177v0zM404 623l-76 84l-78 -84h-119l118 149h157l117 -149h-119z" />
    <glyph glyph-name="ccaron.sc" horiz-adv-x="632" 
d="M600 172q-4 -48 -26 -83t-58 -57.5t-84.5 -33t-103.5 -10.5q-76 0 -131 20t-90.5 57t-52.5 89t-17 116t18.5 117.5t55.5 91t93 58.5t131 21q50 0 96.5 -10t82.5 -32t57.5 -57t23.5 -85h-176q-5 42 -27.5 61.5t-57.5 19.5q-60 0 -89 -48.5t-29 -133.5q0 -88 27 -134.5
t85 -46.5q36 0 63 19t32 61h177v0zM405 623h-157l-117 148h118l80 -85l77 85h117z" />
    <glyph glyph-name="cdotaccent.sc" horiz-adv-x="632" 
d="M600 172q-4 -48 -26 -83t-58 -57.5t-84.5 -33t-103.5 -10.5q-76 0 -131 20t-90.5 57t-52.5 89t-17 116t18.5 117.5t55.5 91t93 58.5t131 21q50 0 96.5 -10t82.5 -32t57.5 -57t23.5 -85h-176q-5 42 -27.5 61.5t-57.5 19.5q-60 0 -89 -48.5t-29 -133.5q0 -88 27 -134.5
t85 -46.5q36 0 63 19t32 61h177v0zM250 637v129h147v-129h-147z" />
    <glyph glyph-name="ccedilla.sc" horiz-adv-x="632" 
d="M448 -132q0 -24 -12 -40t-31 -26t-43 -14t-47 -4q-29 0 -56.5 5.5t-57.5 16.5l13 47q23 -11 45 -18t45 -7q21 0 37 8t16 30q0 20 -14 28.5t-34 8.5q-8 0 -16.5 -2t-17.5 -5l-21 15l41 78q-67 4 -116 26t-80.5 58.5t-46.5 86.5t-15 110q0 64 18.5 117.5t55.5 91t93 58.5
t131 21q50 0 96.5 -10t82.5 -32t57.5 -57t23.5 -85h-176q-5 42 -27.5 61.5t-57.5 19.5q-60 0 -89 -48.5t-29 -133.5q0 -88 27 -134.5t85 -46.5q36 0 63 19t32 61h177q-4 -47 -24.5 -80.5t-54.5 -56t-79 -34t-97 -12.5l-24 -50q8 2 18 2.5t14 0.5q40 0 67.5 -18t27.5 -56z
" />
    <glyph glyph-name="dcaron.sc" horiz-adv-x="681" 
d="M642 273q0 -75 -26 -127.5t-71 -85.5q-43 -32 -101 -46t-128 -14h-247v546h245q66 0 122.5 -12t100.5 -40q48 -32 76.5 -85.5t28.5 -135.5zM464 274q0 89 -35 128q-36 40 -122 40h-64v-338h63q43 0 73 9.5t49 31.5q18 20 26.5 50.5t9.5 78.5zM413 623h-157l-117 148h118
l80 -85l77 85h117z" />
    <glyph glyph-name="dcroat.sc" horiz-adv-x="681" 
d="M642 273q0 -75 -26 -127.5t-71 -85.5q-43 -32 -101 -46t-128 -14h-247v241h-52v85h52v220h245q66 0 122.5 -12t100.5 -40q48 -32 76.5 -85.5t28.5 -135.5zM465 274q0 89 -36 129q-19 21 -48 31t-73 10h-66v-118h119v-85h-119v-138h64q85 0 123 42q17 20 26 50.5t10 78.5z
" />
    <glyph glyph-name="eth.sc" horiz-adv-x="681" 
d="M642 273q0 -75 -26 -127.5t-71 -85.5q-43 -32 -101 -46t-128 -14h-247v241h-52v85h52v220h245q66 0 122.5 -12t100.5 -40q48 -32 76.5 -85.5t28.5 -135.5zM465 274q0 89 -36 129q-19 21 -48 31t-73 10h-66v-118h119v-85h-119v-138h64q85 0 123 42q17 20 26 50.5t10 78.5z
" />
    <glyph glyph-name="egrave.sc" horiz-adv-x="556" 
d="M69 0v546h441v-104h-268v-113h253v-103h-253v-121h277v-105h-450zM277 623l-175 150h189l106 -150h-120z" />
    <glyph glyph-name="eacute.sc" horiz-adv-x="556" 
d="M69 0v546h441v-104h-268v-113h253v-103h-253v-121h277v-105h-450zM297 623h-122l109 150h187z" />
    <glyph glyph-name="ecircumflex.sc" horiz-adv-x="556" 
d="M69 0v546h441v-104h-268v-113h253v-103h-253v-121h277v-105h-450zM370 623l-76 84l-78 -84h-119l118 149h157l117 -149h-119z" />
    <glyph glyph-name="ecaron.sc" horiz-adv-x="556" 
d="M69 0v546h441v-104h-268v-113h253v-103h-253v-121h277v-105h-450zM371 623h-157l-117 148h118l80 -85l77 85h117z" />
    <glyph glyph-name="edieresis.sc" horiz-adv-x="556" 
d="M69 0v546h441v-104h-268v-113h253v-103h-253v-121h277v-105h-450zM340 637v129h149v-129h-149zM98 637v129h147v-129h-147z" />
    <glyph glyph-name="emacron.sc" horiz-adv-x="556" 
d="M69 0v546h441v-104h-268v-113h253v-103h-253v-121h277v-105h-450zM118 662v76h350v-76h-350z" />
    <glyph glyph-name="ebreve.sc" horiz-adv-x="556" 
d="M69 0v546h441v-104h-268v-113h253v-103h-253v-121h277v-105h-450zM475 764q-10 -76 -57.5 -110t-123.5 -34q-38 0 -70.5 8.5t-56.5 26t-38.5 44.5t-15.5 65h74q3 -19 13.5 -31t25.5 -19.5t32.5 -10.5t35.5 -3q39 0 67 13t42 51h72v0z" />
    <glyph glyph-name="edotaccent.sc" horiz-adv-x="556" 
d="M69 0v546h441v-104h-268v-113h253v-103h-253v-121h277v-105h-450zM220 637v129h147v-129h-147z" />
    <glyph glyph-name="eogonek.sc" horiz-adv-x="556" 
d="M527 -185q-12 -7 -35 -15t-55 -8q-39 0 -69.5 19.5t-30.5 60.5q0 22 9 41.5t23 35t32.5 28.5t37.5 23h-370v546h441v-104h-268v-113h253v-103h-253v-121h277v-105q-40 -23 -64.5 -45t-24.5 -52q0 -24 16 -37.5t40 -13.5q11 0 19.5 2.5t18.5 7.5l3 -47v0z" />
    <glyph glyph-name="gcircumflex.sc" horiz-adv-x="671" 
d="M614 26q-63 -20 -129.5 -29t-132.5 -9q-156 0 -235.5 73.5t-79.5 210.5q0 66 21.5 119t62 90t99.5 57t134 20q55 0 100.5 -10t79 -31.5t54 -55.5t25.5 -81h-170q-8 39 -31.5 57t-62.5 18q-37 0 -62.5 -14t-41.5 -39t-23 -58t-7 -72t6 -72.5t22.5 -57.5t45.5 -38t74 -14
q21 0 44 2.5t43 7.5v108h-107v93h271v-275v0zM425 623l-76 84l-78 -84h-119l118 149h157l117 -149h-119z" />
    <glyph glyph-name="gbreve.sc" horiz-adv-x="671" 
d="M614 26q-63 -20 -129.5 -29t-132.5 -9q-156 0 -235.5 73.5t-79.5 210.5q0 66 21.5 119t62 90t99.5 57t134 20q55 0 100.5 -10t79 -31.5t54 -55.5t25.5 -81h-170q-8 39 -31.5 57t-62.5 18q-37 0 -62.5 -14t-41.5 -39t-23 -58t-7 -72t6 -72.5t22.5 -57.5t45.5 -38t74 -14
q21 0 44 2.5t43 7.5v108h-107v93h271v-275v0zM532 764q-10 -76 -57.5 -110t-123.5 -34q-38 0 -70.5 8.5t-56.5 26t-38.5 44.5t-15.5 65h74q3 -19 13.5 -31t25.5 -19.5t32.5 -10.5t35.5 -3q39 0 67 13t42 51h72v0z" />
    <glyph glyph-name="gdotaccent.sc" horiz-adv-x="671" 
d="M614 26q-63 -20 -129.5 -29t-132.5 -9q-156 0 -235.5 73.5t-79.5 210.5q0 66 21.5 119t62 90t99.5 57t134 20q55 0 100.5 -10t79 -31.5t54 -55.5t25.5 -81h-170q-8 39 -31.5 57t-62.5 18q-37 0 -62.5 -14t-41.5 -39t-23 -58t-7 -72t6 -72.5t22.5 -57.5t45.5 -38t74 -14
q21 0 44 2.5t43 7.5v108h-107v93h271v-275v0zM277 637v129h147v-129h-147z" />
    <glyph glyph-name="gcommaaccent.sc" horiz-adv-x="671" 
d="M614 26q-63 -20 -129.5 -29t-132.5 -9q-156 0 -235.5 73.5t-79.5 210.5q0 66 21.5 119t62 90t99.5 57t134 20q55 0 100.5 -10t79 -31.5t54 -55.5t25.5 -81h-170q-8 39 -31.5 57t-62.5 18q-37 0 -62.5 -14t-41.5 -39t-23 -58t-7 -72t6 -72.5t22.5 -57.5t45.5 -38t74 -14
q21 0 44 2.5t43 7.5v108h-107v93h271v-275v0zM337 -215h-115l47 166h144z" />
    <glyph glyph-name="hcircumflex.sc" horiz-adv-x="690" 
d="M446 0v227h-202v-227h-175v546h175v-212h202v212h175v-546h-175zM422 623l-76 84l-78 -84h-119l118 149h157l117 -149h-119z" />
    <glyph glyph-name="hbar.sc" horiz-adv-x="686" 
d="M446 0v228h-202v-228h-175v546h175v-69h202v69h175v-546h-175zM446 333v45h-202v-45h202z" />
    <glyph glyph-name="igrave.sc" horiz-adv-x="313" 
d="M69 0v546h175v-546h-175zM126 623l-175 150h189l106 -150h-120z" />
    <glyph glyph-name="iacute.sc" horiz-adv-x="313" 
d="M69 0v546h175v-546h-175zM199 623h-122l109 150h187z" />
    <glyph glyph-name="ibreve.sc" horiz-adv-x="313" 
d="M69 0v546h175v-546h-175zM339 764q-10 -76 -57.5 -110t-123.5 -34q-38 0 -70.5 8.5t-56.5 26t-38.5 44.5t-15.5 65h74q3 -19 13.5 -31t25.5 -19.5t32.5 -10.5t35.5 -3q39 0 67 13t42 51h72v0z" />
    <glyph glyph-name="icircumflex.sc" horiz-adv-x="313" 
d="M69 0v546h175v-546h-175zM235 623l-76 84l-78 -84h-119l118 149h157l117 -149h-119z" />
    <glyph glyph-name="itilde.sc" horiz-adv-x="313" 
d="M69 0v546h175v-546h-175zM362 766q-3 -27 -13 -51.5t-26.5 -43t-38.5 -29.5t-49 -11q-22 0 -44 5.5t-50 14.5q-23 8 -39 11.5t-31 3.5q-36 0 -44 -35h-75q5 58 41 96.5t92 38.5q19 0 37 -4.5t47 -14.5t46.5 -14.5t31.5 -4.5q17 0 25.5 10.5t10.5 27.5h79v0z" />
    <glyph glyph-name="idieresis.sc" horiz-adv-x="313" 
d="M69 0v546h175v-546h-175zM204 637v129h149v-129h-149zM-38 637v129h147v-129h-147z" />
    <glyph glyph-name="imacron.sc" horiz-adv-x="313" 
d="M69 0v546h175v-546h-175zM-18 662v76h350v-76h-350z" />
    <glyph glyph-name="idotaccent.sc" horiz-adv-x="313" 
d="M69 0v546h175v-546h-175zM84 637v129h147v-129h-147z" />
    <glyph glyph-name="iogonek.sc" horiz-adv-x="313" 
d="M251 -185q-12 -7 -35 -15t-55 -8q-39 0 -69.5 19.5t-30.5 60.5q0 22 9 41.5t23 35t32.5 28.5t37.5 23h-94v546h175v-546q-41 -23 -65.5 -45t-24.5 -52q0 -24 16 -37.5t40 -13.5q11 0 19.5 2.5t18.5 7.5l3 -47v0z" />
    <glyph glyph-name="jcircumflex.sc" horiz-adv-x="537" 
d="M474 180q0 -98 -60.5 -145.5t-175.5 -47.5q-48 0 -90 9.5t-72.5 29.5t-48 51t-17.5 74q0 8 0.5 14t1.5 11h173q-1 -9 -1 -15v-13q0 -27 14 -41.5t40 -14.5q37 0 49 23.5t12 58.5v372h175v-366v0zM462 623l-76 84l-78 -84h-119l118 149h157l117 -149h-119z" />
    <glyph glyph-name="kcommaaccent.sc" horiz-adv-x="655" 
d="M244 0h-175v546h175v-546zM425 546h202l-203 -243l232 -303h-208l-201 298zM344 -215h-115l47 166h144z" />
    <glyph glyph-name="lacute.sc" horiz-adv-x="530" 
d="M69 0v546h175v-442h268v-104h-443zM203 623h-122l109 150h187z" />
    <glyph glyph-name="lcaron.sc" horiz-adv-x="530" 
d="M69 0v546h175v-442h268v-104h-443zM398 281h-106l39 266h142z" />
    <glyph glyph-name="lcommaaccent.sc" horiz-adv-x="530" 
d="M69 0v546h175v-442h268v-104h-443zM296 -215h-115l47 166h144z" />
    <glyph glyph-name="lslash.sc" horiz-adv-x="530" 
d="M69 0v195l-58 -31v88l58 30v264h175v-179l140 74v-87l-140 -75v-175h268v-104h-443z" />
    <glyph glyph-name="ldot.sc" horiz-adv-x="530" 
d="M69 0v546h175v-442h268v-104h-443zM348 243v129h147v-129h-147z" />
    <glyph glyph-name="nacute.sc" horiz-adv-x="703" 
d="M411 0l-194 395v-395h-148v546h223l193 -396v396h149v-546h-223zM366 623h-122l109 150h187z" />
    <glyph glyph-name="ncaron.sc" horiz-adv-x="703" 
d="M411 0l-194 395v-395h-148v546h223l193 -396v396h149v-546h-223zM428 623h-157l-117 148h118l80 -85l77 85h117z" />
    <glyph glyph-name="ntilde.sc" horiz-adv-x="703" 
d="M411 0l-194 395v-395h-148v546h223l193 -396v396h149v-546h-223zM554 766q-3 -27 -13 -51.5t-26.5 -43t-38.5 -29.5t-49 -11q-22 0 -44 5.5t-50 14.5q-23 8 -39 11.5t-31 3.5q-36 0 -44 -35h-75q5 58 41 96.5t92 38.5q19 0 37 -4.5t47 -14.5t46.5 -14.5t31.5 -4.5
q17 0 25.5 10.5t10.5 27.5h79v0z" />
    <glyph glyph-name="ncommaaccent.sc" horiz-adv-x="703" 
d="M411 0l-194 395v-395h-148v546h223l193 -396v396h149v-546h-223zM368 -215h-115l47 166h144z" />
    <glyph glyph-name="ograve.sc" horiz-adv-x="677" 
d="M640 273q0 -64 -20 -116.5t-58.5 -90t-95.5 -58t-130 -20.5q-74 0 -130 21t-93.5 59t-56.5 90.5t-19 115.5q0 61 19.5 113.5t57.5 90t95 59t132 21.5t131.5 -21.5t93.5 -59.5t55.5 -90t18.5 -114zM462 275q0 34 -6 66.5t-20 58t-38 40.5t-60 15q-35 0 -58.5 -15.5
t-37.5 -41t-20 -57.5t-6 -66q0 -35 5.5 -68t19 -58.5t37 -41t60.5 -15.5t61 15.5t38 41t19.5 58.5t5.5 68zM320 623l-175 150h189l106 -150h-120z" />
    <glyph glyph-name="oacute.sc" horiz-adv-x="677" 
d="M640 273q0 -64 -20 -116.5t-58.5 -90t-95.5 -58t-130 -20.5q-74 0 -130 21t-93.5 59t-56.5 90.5t-19 115.5q0 61 19.5 113.5t57.5 90t95 59t132 21.5t131.5 -21.5t93.5 -59.5t55.5 -90t18.5 -114zM462 275q0 34 -6 66.5t-20 58t-38 40.5t-60 15q-35 0 -58.5 -15.5
t-37.5 -41t-20 -57.5t-6 -66q0 -35 5.5 -68t19 -58.5t37 -41t60.5 -15.5t61 15.5t38 41t19.5 58.5t5.5 68zM360 623h-122l109 150h187z" />
    <glyph glyph-name="ocircumflex.sc" horiz-adv-x="677" 
d="M640 273q0 -64 -20 -116.5t-58.5 -90t-95.5 -58t-130 -20.5q-74 0 -130 21t-93.5 59t-56.5 90.5t-19 115.5q0 61 19.5 113.5t57.5 90t95 59t132 21.5t131.5 -21.5t93.5 -59.5t55.5 -90t18.5 -114zM462 275q0 34 -6 66.5t-20 58t-38 40.5t-60 15q-35 0 -58.5 -15.5
t-37.5 -41t-20 -57.5t-6 -66q0 -35 5.5 -68t19 -58.5t37 -41t60.5 -15.5t61 15.5t38 41t19.5 58.5t5.5 68zM416 623l-76 84l-78 -84h-119l118 149h157l117 -149h-119z" />
    <glyph glyph-name="otilde.sc" horiz-adv-x="677" 
d="M640 273q0 -64 -20 -116.5t-58.5 -90t-95.5 -58t-130 -20.5q-74 0 -130 21t-93.5 59t-56.5 90.5t-19 115.5q0 61 19.5 113.5t57.5 90t95 59t132 21.5t131.5 -21.5t93.5 -59.5t55.5 -90t18.5 -114zM462 275q0 34 -6 66.5t-20 58t-38 40.5t-60 15q-35 0 -58.5 -15.5
t-37.5 -41t-20 -57.5t-6 -66q0 -35 5.5 -68t19 -58.5t37 -41t60.5 -15.5t61 15.5t38 41t19.5 58.5t5.5 68zM543 766q-3 -27 -13 -51.5t-26.5 -43t-38.5 -29.5t-49 -11q-22 0 -44 5.5t-50 14.5q-23 8 -39 11.5t-31 3.5q-36 0 -44 -35h-75q5 58 41 96.5t92 38.5q19 0 37 -4.5
t47 -14.5t46.5 -14.5t31.5 -4.5q17 0 25.5 10.5t10.5 27.5h79v0z" />
    <glyph glyph-name="odieresis.sc" horiz-adv-x="677" 
d="M640 273q0 -64 -20 -116.5t-58.5 -90t-95.5 -58t-130 -20.5q-74 0 -130 21t-93.5 59t-56.5 90.5t-19 115.5q0 61 19.5 113.5t57.5 90t95 59t132 21.5t131.5 -21.5t93.5 -59.5t55.5 -90t18.5 -114zM462 275q0 34 -6 66.5t-20 58t-38 40.5t-60 15q-35 0 -58.5 -15.5
t-37.5 -41t-20 -57.5t-6 -66q0 -35 5.5 -68t19 -58.5t37 -41t60.5 -15.5t61 15.5t38 41t19.5 58.5t5.5 68zM386 637v129h149v-129h-149zM144 637v129h147v-129h-147z" />
    <glyph glyph-name="omacron.sc" horiz-adv-x="677" 
d="M640 273q0 -64 -20 -116.5t-58.5 -90t-95.5 -58t-130 -20.5q-74 0 -130 21t-93.5 59t-56.5 90.5t-19 115.5q0 61 19.5 113.5t57.5 90t95 59t132 21.5t131.5 -21.5t93.5 -59.5t55.5 -90t18.5 -114zM462 275q0 34 -6 66.5t-20 58t-38 40.5t-60 15q-35 0 -58.5 -15.5
t-37.5 -41t-20 -57.5t-6 -66q0 -35 5.5 -68t19 -58.5t37 -41t60.5 -15.5t61 15.5t38 41t19.5 58.5t5.5 68zM168 662v76h350v-76h-350z" />
    <glyph glyph-name="obreve.sc" horiz-adv-x="677" 
d="M640 273q0 -64 -20 -116.5t-58.5 -90t-95.5 -58t-130 -20.5q-74 0 -130 21t-93.5 59t-56.5 90.5t-19 115.5q0 61 19.5 113.5t57.5 90t95 59t132 21.5t131.5 -21.5t93.5 -59.5t55.5 -90t18.5 -114zM462 275q0 34 -6 66.5t-20 58t-38 40.5t-60 15q-35 0 -58.5 -15.5
t-37.5 -41t-20 -57.5t-6 -66q0 -35 5.5 -68t19 -58.5t37 -41t60.5 -15.5t61 15.5t38 41t19.5 58.5t5.5 68zM521 764q-10 -76 -57.5 -110t-123.5 -34q-38 0 -70.5 8.5t-56.5 26t-38.5 44.5t-15.5 65h74q3 -19 13.5 -31t25.5 -19.5t32.5 -10.5t35.5 -3q39 0 67 13t42 51h72v0z
" />
    <glyph glyph-name="ohungarumlaut.sc" horiz-adv-x="677" 
d="M640 273q0 -64 -20 -116.5t-58.5 -90t-95.5 -58t-130 -20.5q-74 0 -130 21t-93.5 59t-56.5 90.5t-19 115.5q0 61 19.5 113.5t57.5 90t95 59t132 21.5t131.5 -21.5t93.5 -59.5t55.5 -90t18.5 -114zM462 275q0 34 -6 66.5t-20 58t-38 40.5t-60 15q-35 0 -58.5 -15.5
t-37.5 -41t-20 -57.5t-6 -66q0 -35 5.5 -68t19 -58.5t37 -41t60.5 -15.5t61 15.5t38 41t19.5 58.5t5.5 68zM516 624h-120l111 149h182zM258 624h-118l108 149h182z" />
    <glyph glyph-name="oslash.sc" horiz-adv-x="677" 
d="M37 -2l71 74q-35 37 -52.5 88t-17.5 114t19 115t57.5 89.5t95.5 58.5t132 21q58 0 104.5 -13t82.5 -36l71 74l51 -48l-70 -73q60 -74 60 -189q0 -65 -20 -118t-59 -90t-96 -57t-130 -20q-104 0 -173 40l-76 -79zM213 275q0 -23 2 -44t7 -41l212 220q-15 22 -38.5 35
t-56.5 13q-36 0 -60 -15.5t-39 -41.5t-21 -59t-6 -67zM467 275q0 33 -6 63l-207 -215q14 -16 35 -25t50 -9q37 0 61.5 15.5t39.5 41.5t21 59.5t6 69.5z" />
    <glyph glyph-name="oe.sc" horiz-adv-x="850" 
d="M491 0q-14 0 -29 -0.5t-30 -1.5q-18 -2 -36.5 -3t-38.5 -1q-152 0 -235.5 68.5t-83.5 211.5q0 70 22.5 122t64 86.5t99.5 51.5t130 17q15 0 36 -0.5t44 -2.5q13 -1 30.5 -1.5t32.5 -0.5h307v-102h-237v-115h221v-102h-221v-124h245v-103h-321zM405 449q-23 4 -47 4
q-39 0 -66 -14t-44 -38t-24.5 -57.5t-7.5 -72.5q0 -38 7.5 -70.5t24 -56.5t43.5 -37.5t67 -13.5q11 0 23 1t24 3v352z" />
    <glyph glyph-name="racute.sc" horiz-adv-x="636" 
d="M424 0q-9 25 -14 51t-7 55q-3 32 -7 52.5t-14 32.5t-26 16.5t-43 4.5h-71v-212h-173v546h301q48 0 86.5 -8t66.5 -25q29 -18 44.5 -46t15.5 -66q0 -52 -34 -87.5t-85 -46.5q30 -5 49.5 -15t31.5 -25.5t18 -37t10 -51.5q5 -38 10.5 -71t20.5 -67h-180zM416 380
q0 36 -22 52q-23 15 -71 15h-81v-140h81q48 0 70.5 18t22.5 55zM340 623h-122l109 150h187z" />
    <glyph glyph-name="rcaron.sc" horiz-adv-x="636" 
d="M424 0q-9 25 -14 51t-7 55q-3 32 -7 52.5t-14 32.5t-26 16.5t-43 4.5h-71v-212h-173v546h301q48 0 86.5 -8t66.5 -25q29 -18 44.5 -46t15.5 -66q0 -52 -34 -87.5t-85 -46.5q30 -5 49.5 -15t31.5 -25.5t18 -37t10 -51.5q5 -38 10.5 -71t20.5 -67h-180zM416 380
q0 36 -22 52q-23 15 -71 15h-81v-140h81q48 0 70.5 18t22.5 55zM392 623h-157l-117 148h118l80 -85l77 85h117z" />
    <glyph glyph-name="rcommaaccent.sc" horiz-adv-x="636" 
d="M424 0q-9 25 -14 51t-7 55q-3 32 -7 52.5t-14 32.5t-26 16.5t-43 4.5h-71v-212h-173v546h301q48 0 86.5 -8t66.5 -25q29 -18 44.5 -46t15.5 -66q0 -52 -34 -87.5t-85 -46.5q30 -5 49.5 -15t31.5 -25.5t18 -37t10 -51.5q5 -38 10.5 -71t20.5 -67h-180zM416 380
q0 36 -22 52q-23 15 -71 15h-81v-140h81q48 0 70.5 18t22.5 55zM335 -215h-115l47 166h144z" />
    <glyph glyph-name="sacute.sc" horiz-adv-x="614" 
d="M576 167q0 -47 -20 -81t-56 -55.5t-87 -32t-113 -10.5q-58 0 -106.5 10.5t-83.5 33t-54.5 57.5t-19.5 83h176q0 -42 24.5 -64.5t70.5 -22.5q44 0 68 16t24 47q0 11 -5 20t-17 16.5t-33.5 14.5t-54.5 14l-56 12q-83 18 -132.5 56t-49.5 108q0 42 18.5 74t52 53t80.5 31.5
t105 10.5q57 0 103.5 -10t80 -31t51.5 -53t18 -75h-173q0 76 -81 76q-39 0 -60 -16t-21 -43q0 -24 24.5 -37t83.5 -26l55 -12q102 -23 145 -62t43 -102zM331 623h-122l109 150h187z" />
    <glyph glyph-name="scircumflex.sc" horiz-adv-x="614" 
d="M576 167q0 -47 -20 -81t-56 -55.5t-87 -32t-113 -10.5q-58 0 -106.5 10.5t-83.5 33t-54.5 57.5t-19.5 83h176q0 -42 24.5 -64.5t70.5 -22.5q44 0 68 16t24 47q0 11 -5 20t-17 16.5t-33.5 14.5t-54.5 14l-56 12q-83 18 -132.5 56t-49.5 108q0 42 18.5 74t52 53t80.5 31.5
t105 10.5q57 0 103.5 -10t80 -31t51.5 -53t18 -75h-173q0 76 -81 76q-39 0 -60 -16t-21 -43q0 -24 24.5 -37t83.5 -26l55 -12q102 -23 145 -62t43 -102zM385 623l-76 84l-78 -84h-119l118 149h157l117 -149h-119z" />
    <glyph glyph-name="scaron.sc" horiz-adv-x="614" 
d="M576 167q0 -47 -20 -81t-56 -55.5t-87 -32t-113 -10.5q-58 0 -106.5 10.5t-83.5 33t-54.5 57.5t-19.5 83h176q0 -42 24.5 -64.5t70.5 -22.5q44 0 68 16t24 47q0 11 -5 20t-17 16.5t-33.5 14.5t-54.5 14l-56 12q-83 18 -132.5 56t-49.5 108q0 42 18.5 74t52 53t80.5 31.5
t105 10.5q57 0 103.5 -10t80 -31t51.5 -53t18 -75h-173q0 76 -81 76q-39 0 -60 -16t-21 -43q0 -24 24.5 -37t83.5 -26l55 -12q102 -23 145 -62t43 -102zM386 623h-157l-117 148h118l80 -85l77 85h117z" />
    <glyph glyph-name="scedilla.sc" horiz-adv-x="614" 
d="M430 -132q0 -24 -12 -40t-31 -26t-43 -14t-47 -4q-29 0 -56.5 5.5t-57.5 16.5l13 47q23 -11 45 -18t45 -7q21 0 37 8t16 30q0 20 -14 28.5t-34 8.5q-8 0 -16.5 -2t-17.5 -5l-21 15l41 78q-53 2 -97.5 13.5t-76.5 34t-49.5 56t-17.5 79.5h176q0 -42 24.5 -64.5t70.5 -22.5
q44 0 68 16t24 47q0 11 -5 20t-17 16.5t-33.5 14.5t-54.5 14l-56 12q-83 18 -132.5 56t-49.5 108q0 42 18.5 74t52 53t80.5 31.5t105 10.5q57 0 103.5 -10t80 -31t51.5 -53t18 -75h-173q0 76 -81 76q-39 0 -60 -16t-21 -43q0 -24 24.5 -37t83.5 -26l55 -12q102 -23 145 -62
t43 -102q0 -44 -17.5 -76.5t-50 -54.5t-78.5 -33.5t-103 -13.5l-24 -50q8 2 18 2.5t14 0.5q40 0 67.5 -18t27.5 -56z" />
    <glyph glyph-name="scommaaccent.sc" horiz-adv-x="614" 
d="M576 167q0 -47 -20 -81t-56 -55.5t-87 -32t-113 -10.5q-58 0 -106.5 10.5t-83.5 33t-54.5 57.5t-19.5 83h176q0 -42 24.5 -64.5t70.5 -22.5q44 0 68 16t24 47q0 11 -5 20t-17 16.5t-33.5 14.5t-54.5 14l-56 12q-83 18 -132.5 56t-49.5 108q0 42 18.5 74t52 53t80.5 31.5
t105 10.5q57 0 103.5 -10t80 -31t51.5 -53t18 -75h-173q0 76 -81 76q-39 0 -60 -16t-21 -43q0 -24 24.5 -37t83.5 -26l55 -12q102 -23 145 -62t43 -102zM309 -215h-115l47 166h144z" />
    <glyph glyph-name="tcaron.sc" horiz-adv-x="559" 
d="M367 441v-441h-175v441h-182v105h539v-105h-182zM357 623h-157l-117 148h118l80 -85l77 85h117z" />
    <glyph glyph-name="tcommaaccent.sc" horiz-adv-x="559" 
d="M367 441v-441h-175v441h-182v105h539v-105h-182zM279 -215h-115l47 166h144z" />
    <glyph glyph-name="tbar.sc" horiz-adv-x="559" 
d="M192 221h-137v99h137v121h-182v105h539v-105h-182v-121h137v-99h-137v-221h-175v221z" />
    <glyph glyph-name="thorn.sc" horiz-adv-x="601" 
d="M575 274q0 -50 -21 -86.5t-61 -58.5q-28 -15 -65 -23.5t-85 -8.5h-100v-97h-174v546h174v-92h90q51 0 91 -7.5t72 -25.5q37 -21 58 -57t21 -90zM402 277q0 41 -24 59t-73 18h-62v-157h53q28 0 52 5.5t38 22.5q9 11 12.5 23t3.5 29z" />
    <glyph glyph-name="ugrave.sc" horiz-adv-x="676" 
d="M614 224q0 -125 -73.5 -180.5t-207.5 -55.5q-131 0 -201 54t-70 182v322h176v-329q0 -28 4.5 -51t16 -39.5t31 -25.5t50.5 -9t51 9.5t31.5 26.5t16 40t4.5 51v327h171v-322v0zM315 623l-175 150h189l106 -150h-120z" />
    <glyph glyph-name="uacute.sc" horiz-adv-x="676" 
d="M614 224q0 -125 -73.5 -180.5t-207.5 -55.5q-131 0 -201 54t-70 182v322h176v-329q0 -28 4.5 -51t16 -39.5t31 -25.5t50.5 -9t51 9.5t31.5 26.5t16 40t4.5 51v327h171v-322v0zM368 623h-122l109 150h187z" />
    <glyph glyph-name="ucircumflex.sc" horiz-adv-x="676" 
d="M614 224q0 -125 -73.5 -180.5t-207.5 -55.5q-131 0 -201 54t-70 182v322h176v-329q0 -28 4.5 -51t16 -39.5t31 -25.5t50.5 -9t51 9.5t31.5 26.5t16 40t4.5 51v327h171v-322v0zM416 623l-76 84l-78 -84h-119l118 149h157l117 -149h-119z" />
    <glyph glyph-name="utilde.sc" horiz-adv-x="676" 
d="M614 224q0 -125 -73.5 -180.5t-207.5 -55.5q-131 0 -201 54t-70 182v322h176v-329q0 -28 4.5 -51t16 -39.5t31 -25.5t50.5 -9t51 9.5t31.5 26.5t16 40t4.5 51v327h171v-322v0zM543 766q-3 -27 -13 -51.5t-26.5 -43t-38.5 -29.5t-49 -11q-22 0 -44 5.5t-50 14.5
q-23 8 -39 11.5t-31 3.5q-36 0 -44 -35h-75q5 58 41 96.5t92 38.5q19 0 37 -4.5t47 -14.5t46.5 -14.5t31.5 -4.5q17 0 25.5 10.5t10.5 27.5h79v0z" />
    <glyph glyph-name="udieresis.sc" horiz-adv-x="676" 
d="M614 224q0 -125 -73.5 -180.5t-207.5 -55.5q-131 0 -201 54t-70 182v322h176v-329q0 -28 4.5 -51t16 -39.5t31 -25.5t50.5 -9t51 9.5t31.5 26.5t16 40t4.5 51v327h171v-322v0zM386 637v129h149v-129h-149zM144 637v129h147v-129h-147z" />
    <glyph glyph-name="umacron.sc" horiz-adv-x="676" 
d="M614 224q0 -125 -73.5 -180.5t-207.5 -55.5q-131 0 -201 54t-70 182v322h176v-329q0 -28 4.5 -51t16 -39.5t31 -25.5t50.5 -9t51 9.5t31.5 26.5t16 40t4.5 51v327h171v-322v0zM163 662v76h350v-76h-350z" />
    <glyph glyph-name="ubreve.sc" horiz-adv-x="676" 
d="M614 224q0 -125 -73.5 -180.5t-207.5 -55.5q-131 0 -201 54t-70 182v322h176v-329q0 -28 4.5 -51t16 -39.5t31 -25.5t50.5 -9t51 9.5t31.5 26.5t16 40t4.5 51v327h171v-322v0zM520 764q-10 -76 -57.5 -110t-123.5 -34q-38 0 -70.5 8.5t-56.5 26t-38.5 44.5t-15.5 65h74
q3 -19 13.5 -31t25.5 -19.5t32.5 -10.5t35.5 -3q39 0 67 13t42 51h72v0z" />
    <glyph glyph-name="uring.sc" horiz-adv-x="676" 
d="M614 224q0 -125 -73.5 -180.5t-207.5 -55.5q-131 0 -201 54t-70 182v322h176v-329q0 -28 4.5 -51t16 -39.5t31 -25.5t50.5 -9t51 9.5t31.5 26.5t16 40t4.5 51v327h171v-322v0zM229 716q0 23 8.5 43t23.5 34.5t35 23t43 8.5t43 -8.5t35 -23t23.5 -34.5t8.5 -43t-8.5 -42.5
t-23.5 -34t-35 -23t-43 -8.5t-43 8.5t-35 23t-23.5 34t-8.5 42.5zM290 716q0 -22 14 -37t35 -15t35 15t14 37q0 23 -14 38t-35 15t-35 -15t-14 -38z" />
    <glyph glyph-name="uhungarumlaut.sc" horiz-adv-x="676" 
d="M614 224q0 -125 -73.5 -180.5t-207.5 -55.5q-131 0 -201 54t-70 182v322h176v-329q0 -28 4.5 -51t16 -39.5t31 -25.5t50.5 -9t51 9.5t31.5 26.5t16 40t4.5 51v327h171v-322v0zM508 624h-120l111 149h182zM250 624h-118l108 149h182z" />
    <glyph glyph-name="uogonek.sc" horiz-adv-x="676" 
d="M427 -185q-12 -7 -35 -15t-55 -8q-39 0 -69.5 19.5t-30.5 60.5q0 39 24.5 67.5t56.5 48.5q-62 1 -109.5 15t-80 42.5t-49.5 72.5t-17 106v322h176v-329q0 -28 4.5 -51t16 -39.5t31 -25.5t50.5 -9t51 9.5t31.5 26.5t16 40t4.5 51v327h171v-322q0 -107 -53.5 -162.5
t-154.5 -68.5q-35 -21 -55.5 -41.5t-20.5 -48.5q0 -24 16 -37.5t40 -13.5q11 0 19.5 2.5t18.5 7.5l3 -47v0z" />
    <glyph glyph-name="wacute.sc" horiz-adv-x="951" 
d="M784 0h-194l-111 403l-117 -403h-196l-156 546h174l92 -392l111 392h193l108 -392l89 392h164zM522 623h-122l109 150h187z" />
    <glyph glyph-name="wcircumflex.sc" horiz-adv-x="951" 
d="M784 0h-194l-111 403l-117 -403h-196l-156 546h174l92 -392l111 392h193l108 -392l89 392h164zM557 623l-76 84l-78 -84h-119l118 149h157l117 -149h-119z" />
    <glyph glyph-name="wdieresis.sc" horiz-adv-x="951" 
d="M784 0h-194l-111 403l-117 -403h-196l-156 546h174l92 -392l111 392h193l108 -392l89 392h164zM527 637v129h149v-129h-149zM285 637v129h147v-129h-147z" />
    <glyph glyph-name="wgrave.sc" horiz-adv-x="951" 
d="M784 0h-194l-111 403l-117 -403h-196l-156 546h174l92 -392l111 392h193l108 -392l89 392h164zM448 623l-175 150h189l106 -150h-120z" />
    <glyph glyph-name="yacute.sc" horiz-adv-x="593" 
d="M383 204v-204h-175v206l-223 340h193l125 -227l127 227h178zM330 623h-122l109 150h187z" />
    <glyph glyph-name="ycircumflex.sc" horiz-adv-x="593" 
d="M383 204v-204h-175v206l-223 340h193l125 -227l127 227h178zM378 623l-76 84l-78 -84h-119l118 149h157l117 -149h-119z" />
    <glyph glyph-name="ydieresis.sc" horiz-adv-x="593" 
d="M383 204v-204h-175v206l-223 340h193l125 -227l127 227h178zM347 637v129h149v-129h-149zM105 637v129h147v-129h-147z" />
    <glyph glyph-name="ygrave.sc" horiz-adv-x="593" 
d="M383 204v-204h-175v206l-223 340h193l125 -227l127 227h178zM274 623l-175 150h189l106 -150h-120z" />
    <glyph glyph-name="zacute.sc" horiz-adv-x="560" 
d="M23 0v108l296 335h-277v103h484v-104l-306 -341h317v-101h-514zM312 623h-122l109 150h187z" />
    <glyph glyph-name="zcaron.sc" horiz-adv-x="560" 
d="M23 0v108l296 335h-277v103h484v-104l-306 -341h317v-101h-514zM375 623h-157l-117 148h118l80 -85l77 85h117z" />
    <glyph glyph-name="zdotaccent.sc" horiz-adv-x="560" 
d="M23 0v108l296 335h-277v103h484v-104l-306 -341h317v-101h-514zM224 637v129h147v-129h-147z" />
    <glyph glyph-name="ij.sc" horiz-adv-x="850" 
d="M69 0v546h175v-546h-175zM787 180q0 -98 -60.5 -145.5t-175.5 -47.5q-48 0 -90 9.5t-72.5 29.5t-48 51t-17.5 74q0 8 0.5 14t1.5 11h173q-1 -9 -1 -15v-13q0 -27 14 -41.5t40 -14.5q37 0 49 23.5t12 58.5v372h175v-366v0z" />
    <glyph glyph-name="germandbls.sc" horiz-adv-x="1228" 
d="M1190 167q0 -47 -20 -81t-56 -55.5t-87 -32t-113 -10.5q-58 0 -106.5 10.5t-83.5 33t-54.5 57.5t-19.5 83h176q0 -42 24.5 -64.5t70.5 -22.5q44 0 68 16t24 47q0 11 -5 20t-17 16.5t-33.5 14.5t-54.5 14l-56 12q-83 18 -132.5 56t-49.5 108q0 42 18.5 74t52 53t80.5 31.5
t105 10.5q57 0 103.5 -10t80 -31t51.5 -53t18 -75h-173q0 76 -81 76q-39 0 -60 -16t-21 -43q0 -24 24.5 -37t83.5 -26l55 -12q102 -23 145 -62t43 -102zM576 167q0 -47 -20 -81t-56 -55.5t-87 -32t-113 -10.5q-58 0 -106.5 10.5t-83.5 33t-54.5 57.5t-19.5 83h176
q0 -42 24.5 -64.5t70.5 -22.5q44 0 68 16t24 47q0 11 -5 20t-17 16.5t-33.5 14.5t-54.5 14l-56 12q-83 18 -132.5 56t-49.5 108q0 42 18.5 74t52 53t80.5 31.5t105 10.5q57 0 103.5 -10t80 -31t51.5 -53t18 -75h-173q0 76 -81 76q-39 0 -60 -16t-21 -43q0 -24 24.5 -37
t83.5 -26l55 -12q102 -23 145 -62t43 -102z" />
    <glyph glyph-name="eng.sc" horiz-adv-x="690" 
d="M621 -3q0 -54 -11.5 -90.5t-35 -58.5t-58.5 -31t-83 -9q-15 0 -36.5 0.5t-38.5 1.5v111q18 -3 35 -3q35 0 53.5 15t18.5 47v21l-248 395v-396h-148v546h210l193 -324v324h149v-549v0z" />
    <glyph glyph-name="grave.sc" horiz-adv-x="330" 
d="M146 623l-175 150h189l106 -150h-120z" />
    <glyph glyph-name="acute.sc" horiz-adv-x="330" 
d="M186 623h-122l109 150h187z" />
    <glyph glyph-name="circumflex.sc" horiz-adv-x="330" 
d="M242 623l-76 84l-78 -84h-119l118 149h157l117 -149h-119z" />
    <glyph glyph-name="caron.sc" horiz-adv-x="330" 
d="M243 623h-157l-117 148h118l80 -85l77 85h117z" />
    <glyph glyph-name="tilde.sc" horiz-adv-x="330" 
d="M370 766q-3 -27 -13 -51.5t-26.5 -43t-38.5 -29.5t-49 -11q-22 0 -44 5.5t-50 14.5q-23 8 -39 11.5t-31 3.5q-36 0 -44 -35h-75q5 58 41 96.5t92 38.5q19 0 37 -4.5t47 -14.5t46.5 -14.5t31.5 -4.5q17 0 25.5 10.5t10.5 27.5h79v0z" />
    <glyph glyph-name="dieresis.sc" horiz-adv-x="331" 
d="M212 637v129h149v-129h-149zM-30 637v129h147v-129h-147z" />
    <glyph glyph-name="macron.sc" horiz-adv-x="330" 
d="M-10 662v76h350v-76h-350z" />
    <glyph glyph-name="breve.sc" horiz-adv-x="331" 
d="M347 764q-10 -76 -57.5 -110t-123.5 -34q-38 0 -70.5 8.5t-56.5 26t-38.5 44.5t-15.5 65h74q3 -19 13.5 -31t25.5 -19.5t32.5 -10.5t35.5 -3q39 0 67 13t42 51h72v0z" />
    <glyph glyph-name="ring.sc" horiz-adv-x="330" 
d="M55 716q0 23 8.5 43t23.5 34.5t35 23t43 8.5t43 -8.5t35 -23t23.5 -34.5t8.5 -43t-8.5 -42.5t-23.5 -34t-35 -23t-43 -8.5t-43 8.5t-35 23t-23.5 34t-8.5 42.5zM116 716q0 -22 14 -37t35 -15t35 15t14 37q0 23 -14 38t-35 15t-35 -15t-14 -38z" />
    <glyph glyph-name="hungarumlaut.sc" horiz-adv-x="330" 
d="M329 624h-120l111 149h182zM71 624h-118l108 149h182z" />
    <glyph glyph-name="dotaccent.sc" horiz-adv-x="331" 
d="M92 637v129h147v-129h-147z" />
    <glyph glyph-name="exclamdown.sc" horiz-adv-x="306" 
d="M88.9941 373.978h127.992l28.999 -373.978h-184.989zM231.986 545.967v-124.992h-157.991v124.992h157.991z" />
    <glyph glyph-name="questiondown.sc" horiz-adv-x="473" 
d="M40.9971 128.992q0 42.9971 26.999 77.4951q26.998 34.498 87.9941 77.4951q14.999 11 24.499 18.499q9.49902 7.5 14.999 14.999q5.49902 7.5 7.99902 16.999t2.5 24.499v14.999h140.991v-29.999q0 -15.998 -3 -27.998q-2.99902 -11.999 -9.99902 -22.498
q-6.99902 -10.5 -18.499 -21.499q-11.499 -10.999 -29.498 -25.998q-31.998 -25.999 -51.9971 -49.4971q-19.998 -23.499 -19.998 -49.4971q0 -18.999 8.49902 -31.998q8.5 -12.999 22.499 -20.999q13.999 -7.99902 32.498 -11.499t38.4971 -3.5q43.998 0 100.994 14.999
v-92.9941q-41.9971 -7 -74.9951 -9.99902q-32.998 -3 -64.9961 -3q-46.9971 0 -89.9951 6.49902q-42.9971 6.5 -75.4951 22.499t-51.4971 42.9971q-18.999 26.999 -18.999 68.9961zM355.979 545.967v-124.992h-157.99v124.992h157.99z" />
    <glyph glyph-name="Euro.sc" horiz-adv-x="563" 
d="M273 184q3 -23 10 -41.5t20 -31.5t33.5 -20t49.5 -7q35 0 64 12.5t58 35.5v-118q-22 -12 -54.5 -19.5t-75.5 -7.5q-64 0 -111 12t-79 36t-50.5 61t-25.5 88h-77l22 72h51v44h-74l22 72h59q20 94 88.5 140t180.5 46q56 0 94.5 -13t57.5 -24l-33 -104q-18 17 -46 31t-69 14
q-45 0 -75 -18.5t-39 -71.5h210l-21 -72h-192v-44h178l-23 -72h-153z" />
    <glyph glyph-name="cent.sc" horiz-adv-x="563" 
d="M379 465q66 -15 98 -53t39 -94h-162q0 28 -7 43l-63 -210h8q33 0 46.5 21t15.5 58h164q-2 -44 -20 -75t-48.5 -50t-71 -27.5t-85.5 -8.5h-19t-18 1l-24 -80l-53 13l23 76q-69 17 -109.5 64t-40.5 125q0 50 17.5 88t49.5 64t77 39.5t99 13.5q8 0 15 -0.5t14 -0.5l24 80
l53 -13zM220 273q0 -30 3.5 -53t12.5 -39l64 212h-7q-23 0 -37 -10.5t-22 -27.5t-11 -38.5t-3 -43.5z" />
    <glyph glyph-name="sterling.sc" horiz-adv-x="563" 
d="M381 396q-1 34 -14 54t-46 20q-41 0 -54.5 -30t-13.5 -82v-21h115v-88h-115v-158h264v-91h-478v91h55v158h-70v88h70v18q0 96 58 150t173 54q50 0 89.5 -8.5t67.5 -28t43 -50.5t16 -76h-160z" />
    <glyph glyph-name="florin.sc" horiz-adv-x="563" 
d="M203 258h-81l19 88h80l10 46q8 39 19.5 69.5t31 52t48.5 33t73 11.5q47 0 98 -9l-19 -95q-20 6 -33 6q-43 0 -55 -58l-12 -56h85l-19 -88h-84l-44 -212q-9 -45 -23 -78.5t-36 -56t-53 -33.5t-74 -11q-21 0 -42 2.5t-44 8.5l19 91q20 -4 32 -4q26 0 38 15.5t17 41.5z" />
    <glyph glyph-name="yen.sc" horiz-adv-x="563" 
d="M397 278h98v-72h-133v-44h133v-72h-133v-90h-168v90h-132v72h132v44h-132v72h100l-161 268h183l104 -220l108 220h167z" />
    <glyph glyph-name="perthousand.sc" horiz-adv-x="1002" 
d="M248 -18h-107l299 584h106zM300 416q0 -62 -34 -101.5t-105 -39.5t-105 39.5t-34 101.5q0 31 8.5 57t25.5 45t43 29.5t62 10.5t62 -10.5t43 -29.5t25.5 -45t8.5 -57zM201 416q0 80 -40 80t-40 -80q0 -79 40 -79t40 79zM667 133q0 -62 -34 -101.5t-105 -39.5t-105 39.5
t-34 101.5q0 31 8.5 57t25.5 45t43 29.5t62 10.5t62 -10.5t43 -29.5t25.5 -45t8.5 -57zM568 133q0 80 -40 80t-40 -80q0 -79 40 -79t40 79zM983 133q0 -62 -34 -101.5t-105 -39.5t-105 39.5t-34 101.5q0 31 8.5 57t25.5 45t43 29.5t62 10.5t62 -10.5t43 -29.5t25.5 -45
t8.5 -57zM884 133q0 80 -40 80t-40 -80q0 -79 40 -79t40 79z" />
    <glyph glyph-name="parenleft.sc" horiz-adv-x="315" 
d="M62 271q0 85 29.5 166t72.5 166h119q-18 -49 -32.5 -91t-24 -81.5t-14.5 -78.5t-5 -81t5 -81t14.5 -78.5t24 -81.5t32.5 -91h-119q-43 85 -72.5 166t-29.5 166z" />
    <glyph glyph-name="parenright.sc" horiz-adv-x="315" 
d="M253 271q0 -85 -29.5 -166t-72.5 -166h-119q18 49 32.5 91t24.5 81.5t15 78.5t5 81t-5 81t-15 78.5t-24.5 81.5t-32.5 91h119q43 -85 72.5 -166t29.5 -166z" />
    <glyph glyph-name="bracketleft.sc" horiz-adv-x="330" 
d="M68 -61v664h229v-74h-97v-515h97v-75h-229z" />
    <glyph glyph-name="bracketright.sc" horiz-adv-x="330" 
d="M33 -61v75h97v515h-97v74h229v-664h-229z" />
    <glyph glyph-name="braceleft.sc" horiz-adv-x="344" 
d="M323 -61q-62 2 -103.5 13.5t-67 31.5t-36.5 50t-11 70v30q0 25 -3.5 42.5t-13.5 30t-29 19.5t-49 11v69q30 4 48.5 11t29 19.5t14 30.5t3.5 44v29q0 39 11 68.5t36.5 50t67 31.5t103.5 13v-69q-50 -1 -68 -24t-18 -76v-22q0 -29 -4.5 -52t-15.5 -41t-31 -30t-51 -19
q31 -6 50.5 -17.5t31 -28.5t16 -40.5t4.5 -54.5v-22q0 -28 4.5 -46.5t15 -30t26.5 -16.5t40 -6v-69v0z" />
    <glyph glyph-name="braceright.sc" horiz-adv-x="344" 
d="M21 8q24 1 40 6t26.5 16.5t15 30t4.5 46.5v22q0 31 4.5 54.5t16 40.5t31 28.5t50.5 17.5q-31 7 -51 19t-31 30t-15.5 41t-4.5 52v22q0 53 -18 76t-68 24v69q61 -2 103 -13t67.5 -31.5t36.5 -50t11 -68.5v-29q0 -26 3.5 -44t14 -30.5t29 -19.5t48.5 -11v-69
q-30 -4 -49 -11t-29 -19.5t-13.5 -30t-3.5 -42.5v-30q0 -40 -11 -70t-36.5 -50t-67.5 -31.5t-103 -13.5v69z" />
    <glyph glyph-name="zero.onum" 
d="M625 275q0 -63 -20 -115.5t-58 -91t-93.5 -60t-126.5 -21.5t-126 21t-93.5 58.5t-58.5 90.5t-20 118q0 64 20.5 117.5t59 91.5t93.5 59t125 21t125.5 -21t93.5 -59t58.5 -91.5t20.5 -117.5zM445 275q0 37 -6 70t-20 57.5t-36.5 38.5t-55.5 14t-55.5 -14t-36.5 -38.5
t-20 -57.5t-6 -70q0 -38 6 -70.5t20 -57t36.5 -38.5t55.5 -14t55.5 14t36.5 38.5t20 57t6 70.5z" />
    <glyph glyph-name="one.onum" 
d="M289 0v394q-36 -29 -88.5 -50t-103.5 -33v133q52 17 109 41.5t107 66.5h153v-552h-177z" />
    <glyph glyph-name="two.onum" 
d="M53 0v118l148 80q67 36 109.5 63.5t66.5 49.5t32.5 39.5t8.5 34.5q0 33 -19.5 54t-58.5 21q-46 0 -69 -24t-25 -66h-176q1 51 21.5 88t56.5 60.5t86 35t110 11.5q52 0 98 -11t80.5 -32.5t54 -54t19.5 -75.5q0 -66 -54 -123t-172 -116l-71 -35h302v-118h-548z" />
    <glyph glyph-name="three.onum" 
d="M606 48q0 -47 -21 -85.5t-58.5 -65.5t-90 -42t-115.5 -15q-59 0 -108 11t-85 35.5t-57.5 64.5t-24.5 97h179q2 -51 28.5 -74.5t72.5 -23.5q48 0 74 28t26 78q0 51 -30.5 76.5t-99.5 25.5q-11 0 -23 -0.5t-24 -1.5v109q7 -1 19 -1.5t20 -0.5q60 0 93.5 25t33.5 78
q0 38 -18 63.5t-65 25.5q-41 0 -67 -22t-26 -71h-178q0 54 23 92.5t61 63t87 36t102 11.5t100 -10t82 -33t55 -59.5t20 -88.5q0 -54 -32.5 -97t-101.5 -60q68 -12 108.5 -53.5t40.5 -115.5z" />
    <glyph glyph-name="four.onum" 
d="M531 0v-147h-168v147h-323v143l274 409h217v-441h105v-111h-105zM366 420l-201 -310h201v310z" />
    <glyph glyph-name="five.onum" 
d="M609 95q0 -64 -20.5 -111.5t-57.5 -79.5t-87 -48t-108 -16q-54 0 -103 9.5t-86.5 32.5t-59.5 61t-22 96h175q2 -47 27.5 -68t67.5 -21q54 0 76.5 38.5t22.5 101.5q0 60 -21 94t-72 34q-35 0 -59.5 -19.5t-31.5 -57.5h-175l15 411h488v-115h-331l-9 -191q30 43 68.5 63.5
t90.5 20.5q51 0 90.5 -17.5t66.5 -48.5t41 -74.5t14 -94.5z" />
    <glyph glyph-name="six.onum" 
d="M614 242q0 -59 -20 -106t-56.5 -80.5t-86.5 -51.5t-110 -18q-83 0 -139 27.5t-90.5 76t-49.5 115t-15 144.5q0 77 16 145t51.5 119t92.5 80.5t140 29.5q118 0 181 -52.5t63 -141.5h-168q-1 48 -22 67.5t-62 19.5q-35 0 -58 -18t-37.5 -51t-21 -79t-6.5 -101q30 53 72 78
t105 25q48 0 89 -15.5t70 -45t45.5 -71.5t16.5 -96zM443 230q0 59 -24.5 95t-78.5 36q-30 0 -50.5 -10t-33 -27.5t-18.5 -41.5t-6 -52q0 -58 26.5 -94t80.5 -36t79 36t25 94z" />
    <glyph glyph-name="seven.onum" 
d="M325 -147h-196l286 579h-358v120h528v-128z" />
    <glyph glyph-name="eight.onum" 
d="M613 196q0 -56 -23.5 -96t-62.5 -65t-89.5 -36.5t-103.5 -11.5q-51 0 -103 9t-94 32t-68.5 62t-26.5 100q0 39 13 69t36.5 52t55 36.5t69.5 22.5q-18 3 -44 12.5t-50 28.5t-40.5 48t-16.5 73q0 56 24.5 93t63 58.5t86 30.5t93.5 9t93 -9t84.5 -30t61 -57t23.5 -90
q0 -66 -40 -108.5t-106 -59.5q18 -3 46.5 -12.5t54.5 -29t45 -51.5t19 -80zM430 520q0 48 -27 74.5t-72 26.5t-73.5 -25.5t-28.5 -74.5q0 -48 28 -72.5t73 -24.5q43 0 71.5 25.5t28.5 70.5zM442 210q0 57 -33 84t-81 27t-80 -27.5t-32 -84.5t31.5 -86t80.5 -29q48 0 81 29.5
t33 86.5z" />
    <glyph glyph-name="nine.onum" 
d="M605 213q0 -182 -70.5 -277.5t-227.5 -95.5q-118 0 -185 46.5t-67 140.5h172q2 -35 21.5 -55.5t64.5 -20.5q36 0 60 14t38 43t20.5 74.5t6.5 107.5q-15 -25 -31.5 -42t-36 -27.5t-44.5 -15.5t-57 -5q-49 0 -89.5 15.5t-69.5 44.5t-45 70.5t-16 93.5q0 55 19 99.5t54.5 76
t85 48.5t110.5 17q82 0 137 -25.5t88.5 -72t47.5 -111.5t14 -143zM423 333q0 57 -25 88t-76 31t-76.5 -33.5t-25.5 -85.5q0 -55 23.5 -90t74.5 -35q53 0 79 34.5t26 90.5z" />
    <glyph glyph-name="zero.scprop" horiz-adv-x="563" 
d="M530 274q0 -57 -13 -109t-42 -91t-77 -62.5t-117 -23.5q-67 0 -114 23.5t-77 62.5t-43.5 91t-13.5 109t13.5 108.5t43.5 90.5t77 62t115 23q69 0 116.5 -23t76.5 -62t42 -90.5t13 -108.5zM364 274q0 102 -19 147t-61 45q-45 0 -64.5 -44t-19.5 -148t19.5 -149t64.5 -45
q42 0 61 45.5t19 148.5z" />
    <glyph glyph-name="one.scprop" horiz-adv-x="482" 
d="M201 0v403q-27 -18 -62 -33.5t-73 -27.5v116q26 8 47 16.5t39.5 19t36 23.5t36.5 29h142v-546h-166z" />
    <glyph glyph-name="two.scprop" horiz-adv-x="563" 
d="M39 0v99l112 78q55 39 92 69.5t60 56.5t33 49.5t10 47.5q0 64 -63 64q-32 0 -48.5 -21t-18.5 -57h-166q0 47 18.5 79.5t50.5 53t75 30t93 9.5q47 0 88 -9t72 -28.5t48.5 -49.5t17.5 -72q0 -36 -13 -68.5t-39 -63.5t-65 -62.5t-91 -65.5l-62 -42h274v-97h-478z" />
    <glyph glyph-name="three.scprop" horiz-adv-x="563" 
d="M530 151q0 -45 -21.5 -76.5t-56.5 -51t-81.5 -28t-95.5 -8.5q-53 0 -96.5 9.5t-75.5 29.5t-50.5 52.5t-21.5 79.5h169q1 -40 23 -58.5t55 -18.5q38 0 61 20t23 58q0 22 -9 36.5t-24 23.5t-35 12.5t-41 3.5q-11 0 -25.5 -0.5t-24.5 -1.5v93q8 -1 19.5 -1.5t19.5 -0.5
q23 0 43 3.5t35 12.5t24 23.5t9 35.5q0 32 -19 49.5t-54 17.5q-25 0 -47 -16t-22 -55h-168q0 41 16.5 69t44.5 47q35 24 83 35.5t99 11.5q44 0 85.5 -8.5t74 -26.5t52.5 -46.5t20 -68.5q0 -48 -29 -79.5t-80 -43.5q56 -13 88.5 -45.5t32.5 -88.5z" />
    <glyph glyph-name="four.scprop" horiz-adv-x="563" 
d="M462 114v-114h-158v114h-275v111l236 321h197v-341h85v-91h-85zM308 429l-160 -224h160v224z" />
    <glyph glyph-name="five.scprop" horiz-adv-x="563" 
d="M527 189q0 -50 -17.5 -88t-49.5 -63.5t-77 -38t-99 -12.5q-49 0 -92 8.5t-74.5 27.5t-49.5 50.5t-18 78.5h165q1 -35 19.5 -52.5t50.5 -17.5q37 0 57 26t20 77q0 39 -17 66.5t-55 27.5q-26 0 -44.5 -14.5t-23.5 -42.5h-164l13 324h425v-96h-277l-5 -121q47 44 122 44
q45 0 80.5 -14t60 -38.5t37.5 -58t13 -73.5z" />
    <glyph glyph-name="six.scprop" horiz-adv-x="563" 
d="M530 187q0 -45 -18 -81.5t-49.5 -63t-75 -40.5t-94.5 -14q-67 0 -115 21.5t-79 59t-46 89.5t-15 112q0 59 14.5 111.5t45.5 91.5t80.5 62t119.5 23q45 0 83.5 -9.5t67 -29t45.5 -49t17 -68.5h-159q0 34 -16 50.5t-44 16.5q-26 0 -43 -13.5t-28 -36t-16.5 -51t-6.5 -58.5
q26 29 59.5 41.5t79.5 12.5q42 0 77 -12.5t61 -35.5t40.5 -55.5t14.5 -73.5zM370 179q0 41 -19 68t-59 27q-22 0 -38 -7.5t-26 -20.5t-14.5 -31t-4.5 -38q0 -42 21.5 -68.5t60.5 -26.5q40 0 59.5 27.5t19.5 69.5z" />
    <glyph glyph-name="seven.scprop" horiz-adv-x="507" 
d="M261 0h-187l240 447h-292v99h459v-101z" />
    <glyph glyph-name="eight.scprop" horiz-adv-x="563" 
d="M528 152q0 -46 -20 -77t-53 -50.5t-77 -28t-92 -8.5t-93 8t-80.5 26.5t-57 49t-21.5 75.5q0 56 35 89t92 48q-19 5 -38.5 15t-35 25t-25.5 36t-10 49q0 41 20 69.5t52 46t73.5 25.5t85.5 8q43 0 84.5 -7.5t73.5 -24.5t52 -45t20 -69q0 -49 -29 -80.5t-77 -47.5
q20 -5 41.5 -14.5t39 -25.5t29 -38.5t11.5 -53.5zM358 398q0 35 -21.5 54.5t-53.5 19.5t-54.5 -18.5t-22.5 -53.5q0 -37 21.5 -54t54.5 -17q32 0 54 17t22 52zM368 161q0 42 -25.5 62t-61.5 20q-35 0 -60.5 -19.5t-25.5 -61.5q0 -41 24.5 -62.5t61.5 -21.5q36 0 61.5 20.5
t25.5 62.5z" />
    <glyph glyph-name="nine.scprop" horiz-adv-x="563" 
d="M525 284q0 -64 -13 -118.5t-43 -94t-80 -61.5t-124 -22q-50 0 -91 10t-71 30t-47 48.5t-17 66.5h159q2 -61 70 -61q29 0 47.5 13.5t29 36t14.5 51.5t5 60q-24 -27 -55 -37.5t-79 -10.5q-42 0 -78 12.5t-62.5 35t-41.5 55t-15 72.5q0 44 18 79t50 59t75.5 37t95.5 13
q69 0 117 -19t78 -55t43.5 -86.5t14.5 -113.5zM355 376q0 41 -21 65t-59 24q-41 0 -61.5 -24t-20.5 -65q0 -40 21 -65t59 -25t60 24t22 66z" />
    <glyph glyph-name="zero.prop" 
d="M617 364q0 -75 -13 -139.5t-45 -116.5q-35 -57 -92 -90t-142 -33q-80 0 -135 31.5t-89 84t-49 121.5t-15 145q0 75 15.5 143t50.5 119t90 81t135 30q81 0 136 -30t89 -81t49 -119.5t15 -145.5zM439 365q0 39 -3 85.5t-14 86t-33 66.5t-61 27q-41 0 -64 -26.5t-34 -67
t-13.5 -88.5t-2.5 -91q0 -23 1 -50.5t4.5 -55.5t10.5 -54t18 -47q13 -24 31.5 -38t45.5 -14q39 0 62 25.5t34.5 64.5t14.5 86t3 91z" />
    <glyph glyph-name="one.prop" horiz-adv-x="516" 
d="M216 0v555q-35 -29 -77 -51.5t-88 -38.5v142q30 10 55 21.5t47.5 25.5t43 31t43.5 38h153v-723h-177z" />
    <glyph glyph-name="two.prop" 
d="M37 0v125q34 24 75 54.5t82.5 65t80 71.5t68.5 74.5t48 74t18 69.5q0 43 -24 68t-64 25q-45 0 -68.5 -28.5t-25.5 -77.5h-178q0 60 22.5 102t60.5 68.5t88.5 38t106.5 11.5q59 0 109 -14.5t86 -44.5q31 -26 49.5 -63t18.5 -85q0 -38 -13.5 -75t-36.5 -72t-54.5 -68.5
t-67.5 -64.5q-42 -38 -84.5 -71t-86.5 -65h347v-118h-557z" />
    <glyph glyph-name="three.prop" 
d="M612 200q0 -59 -25 -100t-66.5 -66.5t-95.5 -37t-112 -11.5q-59 0 -110 12t-89 38.5t-60.5 68t-25.5 101.5h177q0 -18 6.5 -37t20.5 -34t35 -25t50 -10q57 0 86 33.5t29 78.5q0 30 -12 50.5t-31.5 32.5t-44 17.5t-48.5 5.5q-16 0 -32.5 -0.5t-27.5 -1.5v112
q14 -1 30 -1.5t31 -0.5q24 0 46 6t39.5 18.5t28 33t10.5 50.5q0 47 -30.5 71.5t-71.5 24.5q-17 0 -34.5 -4.5t-31.5 -16t-23 -30t-9 -45.5h-180v4q0 56 26 95t67 63.5t91.5 35.5t100.5 11q51 0 99.5 -11t87 -34.5t61.5 -61t23 -90.5q0 -71 -41.5 -113.5t-112.5 -53.5
q76 -11 122.5 -54.5t46.5 -123.5z" />
    <glyph glyph-name="four.prop" 
d="M536 153v-153h-168v153h-338v142l290 428h216v-459h105v-111h-105zM156 263h215v332z" />
    <glyph glyph-name="five.prop" 
d="M611 247q0 -63 -18.5 -111t-53.5 -81q-72 -71 -209 -71q-54 0 -103.5 9.5t-87.5 33.5t-62 64t-25 102h175q2 -48 29.5 -71.5t69.5 -23.5q28 0 48.5 11.5t33.5 31t19.5 46t6.5 56.5q0 28 -6 52.5t-19 42.5t-32 28.5t-46 10.5q-35 0 -61 -19.5t-33 -57.5h-175l15 423h496
v-116h-339l-9 -201q59 84 163 84q52 0 93 -18.5t70 -51t44.5 -77t15.5 -96.5z" />
    <glyph glyph-name="six.prop" 
d="M620 248q0 -59 -20.5 -107.5t-57.5 -83t-87.5 -53t-110.5 -18.5q-83 0 -140 29t-92 79.5t-50.5 118.5t-15.5 147q0 78 16.5 147.5t53 121t94 82t140.5 30.5q52 0 97 -12t78.5 -36.5t52.5 -62t19 -88.5h-168q0 48 -23 70t-64 22q-40 0 -65 -24t-39 -65q-13 -38 -18 -81
t-6 -86q32 56 76 79.5t106 23.5q49 0 90 -16.5t71 -46.5t46.5 -73t16.5 -97zM450 235q0 60 -26 98.5t-81 38.5q-30 0 -51.5 -10.5t-35 -29.5t-19.5 -44t-6 -53q0 -59 28.5 -97.5t82.5 -38.5t81 38.5t27 97.5z" />
    <glyph glyph-name="seven.prop" horiz-adv-x="594" 
d="M293 0h-202l293 603h-361v120h536v-128z" />
    <glyph glyph-name="eight.prop" 
d="M616 199q0 -55 -22 -95t-59 -66q-40 -28 -91 -40.5t-110 -12.5q-62 0 -117.5 12t-98.5 41q-36 25 -58 64t-22 92q0 40 13 70.5t36 53t54.5 37.5t69.5 23q-18 3 -44 13t-50 29.5t-40.5 49.5t-16.5 75q0 47 18.5 82t49.5 58q39 29 92 42t111 13q53 0 102 -10.5t87 -34.5
q35 -23 56.5 -59t21.5 -86q0 -71 -41 -113.5t-107 -59.5q18 -3 46.5 -12.5t55 -29.5t45.5 -53.5t19 -82.5zM433 531q0 51 -29 79t-74 28t-75.5 -27t-30.5 -78q0 -54 30 -77.5t75 -23.5q43 0 73.5 24.5t30.5 74.5zM445 213q0 59 -35 87.5t-84 28.5q-48 0 -82 -29t-34 -88
t34 -89t83 -30t83.5 30t34.5 90z" />
    <glyph glyph-name="nine.prop" 
d="M608 378q0 -85 -14.5 -157t-49.5 -124.5t-93.5 -82.5t-145.5 -30q-58 0 -106.5 13t-84 38.5t-55 62t-19.5 84.5h172q1 -12 4 -27t13 -27.5t28.5 -21t50.5 -8.5q45 0 70.5 24.5t39.5 64.5q8 21 12 46t6 51q2 18 2 33t1 38q-30 -50 -70.5 -70t-104.5 -20q-49 0 -91 16
t-73 46t-48.5 72t-17.5 94q0 58 21 104t58 78t88.5 49t111.5 17q83 0 139.5 -27.5t91 -76t49.5 -115t15 -144.5zM426 503q0 57 -29 91t-81 34q-55 0 -83 -34t-28 -91t28 -93.5t80 -36.5q53 0 83 35t30 95z" />
    <glyph glyph-name="Euro.prop" 
d="M592 571q-17 19 -48.5 34t-85.5 15q-66 0 -105.5 -34t-44.5 -94h257l-26 -91h-234q-1 -8 -1 -14v-14v-20t1 -18h212l-26 -91h-182q4 -40 14.5 -67t28 -43t42.5 -22.5t58 -6.5q46 0 80 13t60 37v-140q-23 -13 -59.5 -21.5t-87.5 -8.5q-77 0 -131.5 15.5t-91.5 47.5t-58 81
t-29 115h-95l26 91h63q-1 10 -1 17v17v17.5t1 14.5h-90l26 91h69q12 58 35 104t61 78t93 49t132 17q71 0 114 -16.5t60 -28.5z" />
    <glyph glyph-name="cent.prop" horiz-adv-x="646" 
d="M595 191q-3 -59 -23.5 -98.5t-55 -62.5t-81 -32.5t-101.5 -9.5q-11 0 -21.5 0.5t-20.5 1.5l-33 -120l-66 13l32 118q-56 16 -96 53q-35 34 -54.5 83.5t-19.5 111.5q0 63 20 114t58 86q36 34 87.5 52t120.5 18h22l32 116l66 -13l-30 -112q70 -16 112 -61t50 -126h-171
q-2 48 -21 75l-84 -313q5 -1 9 -1h9q48 0 66.5 28.5t20.5 78.5h173zM338 425q-32 0 -52.5 -15t-32 -39t-15.5 -54.5t-4 -61.5q0 -35 5 -69t19 -59z" />
    <glyph glyph-name="dollar.prop" horiz-adv-x="653" 
d="M298 290l-37 12q-45 14 -86 31t-67 43q-23 22 -38 51t-15 70q0 51 19 89.5t52 64t77.5 39.5t94.5 17v104h72v-104q47 -3 88 -15.5t71 -36.5t48 -61.5t18 -89.5h-153q-2 38 -18 61t-54 32v-175q58 -19 103 -37t75.5 -41t46.5 -54.5t16 -76.5q0 -54 -19 -94t-51.5 -66
t-76.5 -39.5t-94 -16.5v-113h-72v111q-55 2 -101.5 15.5t-80.5 40.5t-53.5 68t-20.5 100h153q1 -49 24.5 -77t78.5 -34v182zM370 268v-156q44 5 65.5 26.5t21.5 56.5q0 26 -18 42t-50 26zM213 522q0 -22 15.5 -41t63.5 -34l6 -2v154q-37 -1 -61 -22.5t-24 -54.5z" />
    <glyph glyph-name="sterling.prop" 
d="M466 534q-2 46 -21 73t-66 27q-38 0 -58.5 -18t-28.5 -47q-8 -26 -9 -59t-1 -65h142v-104h-142v-234h327v-107h-564v107h67v234h-86v104h86q0 55 8.5 96.5t26.5 76.5q30 57 87.5 89.5t147.5 32.5q81 0 139.5 -21.5t87.5 -71.5q13 -22 19 -49t8 -64h-170z" />
    <glyph glyph-name="florin.prop" horiz-adv-x="604" 
d="M526 623q-16 4 -33 4q-34 0 -49.5 -25t-25.5 -73l-14 -69h100l-20 -105h-99l-49 -257q-7 -35 -12.5 -60t-10.5 -43.5t-9.5 -32.5t-10.5 -26q-23 -49 -67 -79t-116 -30q-46 0 -91 12l21 110q16 -3 29 -3q19 0 31.5 6t21 16.5t13 26t8.5 34.5l63 326h-95l20 104h94l16 88
q7 42 20.5 78.5t36.5 63.5t57.5 42.5t84.5 15.5q26 0 53 -2.5t53 -7.5z" />
    <glyph glyph-name="yen.prop" 
d="M455 362h125v-91h-165v-66h165v-91h-165v-114h-185v114h-164v91h164v66h-164v91h127l-193 361h198l135 -304l141 304h180z" />
    <glyph glyph-name="zero.onumprop" horiz-adv-x="670" 
d="M633 275q0 -63 -20 -115.5t-58 -91t-93.5 -60t-126.5 -21.5t-126 21t-93.5 58.5t-58.5 90.5t-20 118q0 64 20.5 117.5t59 91.5t93.5 59t125 21t125.5 -21t93.5 -59t58.5 -91.5t20.5 -117.5zM453 275q0 37 -6 70t-20 57.5t-36.5 38.5t-55.5 14t-55.5 -14t-36.5 -38.5
t-20 -57.5t-6 -70q0 -38 6 -70.5t20 -57t36.5 -38.5t55.5 -14t55.5 14t36.5 38.5t20 57t6 70.5z" />
    <glyph glyph-name="one.onumprop" horiz-adv-x="534" 
d="M242 0v394q-36 -29 -88.5 -50t-103.5 -33v133q52 17 109 41.5t107 66.5h153v-552h-177z" />
    <glyph glyph-name="two.onumprop" 
d="M53 0v118l148 80q67 36 109.5 63.5t66.5 49.5t32.5 39.5t8.5 34.5q0 33 -19.5 54t-58.5 21q-46 0 -69 -24t-25 -66h-176q1 51 21.5 88t56.5 60.5t86 35t110 11.5q52 0 98 -11t80.5 -32.5t54 -54t19.5 -75.5q0 -66 -54 -123t-172 -116l-71 -35h302v-118h-548z" />
    <glyph glyph-name="three.onumprop" 
d="M606 48q0 -47 -21 -85.5t-58.5 -65.5t-90 -42t-115.5 -15q-59 0 -108 11t-85 35.5t-57.5 64.5t-24.5 97h179q2 -51 28.5 -74.5t72.5 -23.5q48 0 74 28t26 78q0 51 -30.5 76.5t-99.5 25.5q-11 0 -23 -0.5t-24 -1.5v109q7 -1 19 -1.5t20 -0.5q60 0 93.5 25t33.5 78
q0 38 -18 63.5t-65 25.5q-41 0 -67 -22t-26 -71h-178q0 54 23 92.5t61 63t87 36t102 11.5t100 -10t82 -33t55 -59.5t20 -88.5q0 -54 -32.5 -97t-101.5 -60q68 -12 108.5 -53.5t40.5 -115.5z" />
    <glyph glyph-name="four.onumprop" 
d="M531 0v-147h-168v147h-323v143l274 409h217v-441h105v-111h-105zM366 420l-201 -310h201v310z" />
    <glyph glyph-name="five.onumprop" 
d="M609 95q0 -64 -20.5 -111.5t-57.5 -79.5t-87 -48t-108 -16q-54 0 -103 9.5t-86.5 32.5t-59.5 61t-22 96h175q2 -47 27.5 -68t67.5 -21q54 0 76.5 38.5t22.5 101.5q0 60 -21 94t-72 34q-35 0 -59.5 -19.5t-31.5 -57.5h-175l15 411h488v-115h-331l-9 -191q30 43 68.5 63.5
t90.5 20.5q51 0 90.5 -17.5t66.5 -48.5t41 -74.5t14 -94.5z" />
    <glyph glyph-name="six.onumprop" 
d="M614 242q0 -59 -20 -106t-56.5 -80.5t-86.5 -51.5t-110 -18q-83 0 -139 27.5t-90.5 76t-49.5 115t-15 144.5q0 77 16 145t51.5 119t92.5 80.5t140 29.5q118 0 181 -52.5t63 -141.5h-168q-1 48 -22 67.5t-62 19.5q-35 0 -58 -18t-37.5 -51t-21 -79t-6.5 -101q30 53 72 78
t105 25q48 0 89 -15.5t70 -45t45.5 -71.5t16.5 -96zM443 230q0 59 -24.5 95t-78.5 36q-30 0 -50.5 -10t-33 -27.5t-18.5 -41.5t-6 -52q0 -58 26.5 -94t80.5 -36t79 36t25 94z" />
    <glyph glyph-name="seven.onumprop" horiz-adv-x="613" 
d="M312 -147h-196l286 579h-358v120h528v-128z" />
    <glyph glyph-name="eight.onumprop" 
d="M613 196q0 -56 -23.5 -96t-62.5 -65t-89.5 -36.5t-103.5 -11.5q-51 0 -103 9t-94 32t-68.5 62t-26.5 100q0 39 13 69t36.5 52t55 36.5t69.5 22.5q-18 3 -44 12.5t-50 28.5t-40.5 48t-16.5 73q0 56 24.5 93t63 58.5t86 30.5t93.5 9t93 -9t84.5 -30t61 -57t23.5 -90
q0 -66 -40 -108.5t-106 -59.5q18 -3 46.5 -12.5t54.5 -29t45 -51.5t19 -80zM430 520q0 48 -27 74.5t-72 26.5t-73.5 -25.5t-28.5 -74.5q0 -48 28 -72.5t73 -24.5q43 0 71.5 25.5t28.5 70.5zM442 210q0 57 -33 84t-81 27t-80 -27.5t-32 -84.5t31.5 -86t80.5 -29q48 0 81 29.5
t33 86.5z" />
    <glyph glyph-name="nine.onumprop" 
d="M605 213q0 -182 -70.5 -277.5t-227.5 -95.5q-118 0 -185 46.5t-67 140.5h172q2 -35 21.5 -55.5t64.5 -20.5q36 0 60 14t38 43t20.5 74.5t6.5 107.5q-15 -25 -31.5 -42t-36 -27.5t-44.5 -15.5t-57 -5q-49 0 -89.5 15.5t-69.5 44.5t-45 70.5t-16 93.5q0 55 19 99.5t54.5 76
t85 48.5t110.5 17q82 0 137 -25.5t88.5 -72t47.5 -111.5t14 -143zM423 333q0 57 -25 88t-76 31t-76.5 -33.5t-25.5 -85.5q0 -55 23.5 -90t74.5 -35q53 0 79 34.5t26 90.5z" />
    <glyph glyph-name="zero.numerator" horiz-adv-x="424" 
d="M399 514q0 -45 -10.5 -85.5t-33 -71t-58.5 -48.5t-87 -18t-86.5 18.5t-57 49t-31.5 71t-10 85.5q0 44 10 83.5t32.5 69.5t58 47.5t86.5 17.5q52 0 87.5 -17.5t57.5 -47.5t32 -69.5t10 -84.5zM275 510q0 24 -1.5 49.5t-7.5 46.5t-18.5 35t-34.5 14q-23 0 -35.5 -14
t-19.5 -35t-8.5 -47t-1.5 -50q0 -23 2 -47.5t8 -44.5t18.5 -33.5t33.5 -13.5q22 0 35 13.5t20 34t8.5 45t1.5 47.5z" />
    <glyph glyph-name="one.numerator" horiz-adv-x="424" 
d="M174 300v307q-24 -15 -47 -25.5t-54 -20.5v96q20 6 35.5 12.5t29 14t26 17.5t27.5 23h107v-424h-124z" />
    <glyph glyph-name="two.numerator" horiz-adv-x="424" 
d="M31 300v82l20 13q33 21 69.5 47.5t68 55.5t52 58t20.5 53q0 21 -13 32.5t-36 11.5q-24 0 -38 -15.5t-14 -38.5v-4h-123v4q1 36 15 61.5t38 41.5t56.5 23.5t69.5 7.5t68.5 -7.5t54 -22.5t35 -38.5t12.5 -55.5q0 -29 -13 -56t-35.5 -52.5t-52.5 -50.5t-64 -49l-25 -18h193
v-83h-358z" />
    <glyph glyph-name="three.numerator" horiz-adv-x="424" 
d="M397 419q0 -36 -16 -60.5t-42.5 -39.5t-61 -21.5t-71.5 -6.5q-41 0 -74.5 7.5t-58 24t-38 41t-13.5 59.5v4h125v-4q0 -26 17 -39.5t44 -13.5t46.5 13t19.5 42t-22.5 41.5t-59.5 12.5h-19.5t-20.5 -2v78q10 -1 16.5 -1h12.5q39 0 62 11.5t23 42.5q0 23 -15 35t-39 12
q-21 0 -38.5 -11.5t-17.5 -38.5v-4h-125v4q0 33 15 57t40 40t58.5 23.5t69.5 7.5q33 0 64 -6t55 -20t39 -36.5t15 -55.5q0 -35 -17.5 -57t-54.5 -38q36 -11 59 -35.5t23 -65.5z" />
    <glyph glyph-name="four.numerator" horiz-adv-x="424" 
d="M346 387v-87h-117v87h-209v90l179 247h147v-260h65v-77h-65zM231 625l-113 -161h113v161z" />
    <glyph glyph-name="five.numerator" horiz-adv-x="424" 
d="M400 447q0 -79 -50 -117.5t-133 -38.5q-36 0 -68 6t-56 21t-38.5 39t-14.5 60h122q2 -24 17 -35.5t39 -11.5q32 0 45.5 21.5t13.5 53.5q0 29 -13.5 48.5t-42.5 19.5q-20 0 -34 -9.5t-21 -29.5h-121l10 250h323v-80h-214l-4 -92q32 40 97 40q34 0 60.5 -11t45 -30.5
t28 -46t9.5 -57.5z" />
    <glyph glyph-name="six.numerator" horiz-adv-x="424" 
d="M399 447q0 -35 -13 -64t-36.5 -49.5t-56 -31.5t-71.5 -11q-66 0 -106 24t-61 66q-13 27 -19 60t-6 69q0 46 10.5 86.5t34 71t60.5 48t90 17.5q68 0 111 -29.5t48 -87.5h-116q-6 41 -48 41q-21 0 -34 -10.5t-21.5 -27t-12 -38t-4.5 -43.5q37 46 106 46q31 0 57.5 -9.5
t46 -27.5t30.5 -43.5t11 -56.5zM282 440q0 30 -15.5 49.5t-45.5 19.5q-33 0 -48.5 -20.5t-15.5 -49.5q0 -30 16.5 -49.5t46.5 -19.5t46 19.5t16 50.5z" />
    <glyph glyph-name="seven.numerator" horiz-adv-x="424" 
d="M218 300h-140l182 341h-219v83h345v-82z" />
    <glyph glyph-name="eight.numerator" horiz-adv-x="424" 
d="M399 420q0 -33 -14.5 -57.5t-39 -40.5t-58 -23.5t-71.5 -7.5q-39 0 -73.5 7t-60.5 22.5t-41 39.5t-15 58q0 39 22 64t59 39q-29 11 -48.5 33.5t-19.5 59.5q0 30 14 52.5t38 37.5t56 22t69 7q36 0 68 -7t55 -21t36.5 -36t13.5 -52q0 -35 -18 -59t-49 -37q32 -11 54.5 -35
t22.5 -66zM273 608q0 26 -17 39.5t-41 13.5t-42 -14t-18 -39q0 -26 17.5 -38.5t41.5 -12.5q23 0 41 13t18 38zM280 427q0 30 -19.5 44.5t-47.5 14.5q-29 0 -47.5 -15t-18.5 -44t18.5 -45t47.5 -16t48 15.5t19 45.5z" />
    <glyph glyph-name="nine.numerator" horiz-adv-x="424" 
d="M397 521q0 -50 -9.5 -92t-32 -73t-60 -48t-92.5 -17q-75 0 -121 31t-50 89h119q2 -20 14.5 -30.5t39.5 -10.5q23 0 37.5 10.5t22 28t10.5 39.5t4 45q-33 -42 -102 -42q-66 0 -107.5 36.5t-41.5 98.5q0 34 13.5 61.5t37 46.5t56.5 29t72 10q70 0 111.5 -26.5t60.5 -74.5
q10 -24 14 -52t4 -59zM273 591q0 29 -17 46t-46 17q-31 0 -47.5 -17.5t-16.5 -45.5q0 -29 16 -47.5t45 -18.5q30 0 48 18t18 48z" />
    <glyph glyph-name="zero.denominator" horiz-adv-x="424" 
d="M399 211q0 -45 -10.5 -85.5t-33 -71t-58.5 -48.5t-87 -18t-86.5 18.5t-57 49t-31.5 71t-10 85.5q0 44 10 83.5t32.5 69.5t58 47.5t86.5 17.5q52 0 87.5 -17.5t57.5 -47.5t32 -69.5t10 -84.5zM275 207q0 24 -1.5 49.5t-7.5 46.5t-18.5 35t-34.5 14q-23 0 -35.5 -14
t-19.5 -35t-8.5 -47t-1.5 -50q0 -23 2 -47.5t8 -44.5t18.5 -33.5t33.5 -13.5q22 0 35 13.5t20 34t8.5 45t1.5 47.5z" />
    <glyph glyph-name="one.denominator" horiz-adv-x="424" 
d="M174 -3v307q-24 -15 -47 -25.5t-54 -20.5v96q20 6 35.5 12.5t29 14t26 17.5t27.5 23h107v-424h-124z" />
    <glyph glyph-name="two.denominator" horiz-adv-x="424" 
d="M31 -3v82l20 13q33 21 69.5 47.5t68 55.5t52 58t20.5 53q0 21 -13 32.5t-36 11.5q-24 0 -38 -15.5t-14 -38.5v-4h-123v4q1 36 15 61.5t38 41.5t56.5 23.5t69.5 7.5t68.5 -7.5t54 -22.5t35 -38.5t12.5 -55.5q0 -29 -13 -56t-35.5 -52.5t-52.5 -50.5t-64 -49l-25 -18h193
v-83h-358z" />
    <glyph glyph-name="three.denominator" horiz-adv-x="424" 
d="M397 116q0 -36 -16 -60.5t-42.5 -39.5t-61 -21.5t-71.5 -6.5q-41 0 -74.5 7.5t-58 24t-38 41t-13.5 59.5v4h125v-4q0 -26 17 -39.5t44 -13.5t46.5 13t19.5 42t-22.5 41.5t-59.5 12.5h-19.5t-20.5 -2v78q10 -1 16.5 -1h12.5q39 0 62 11.5t23 42.5q0 23 -15 35t-39 12
q-21 0 -38.5 -11.5t-17.5 -38.5v-4h-125v4q0 33 15 57t40 40t58.5 23.5t69.5 7.5q33 0 64 -6t55 -20t39 -36.5t15 -55.5q0 -35 -17.5 -57t-54.5 -38q36 -11 59 -35.5t23 -65.5z" />
    <glyph glyph-name="four.denominator" horiz-adv-x="424" 
d="M346 84v-87h-117v87h-209v90l179 247h147v-260h65v-77h-65zM231 322l-113 -161h113v161z" />
    <glyph glyph-name="five.denominator" horiz-adv-x="424" 
d="M400 144q0 -79 -50 -117.5t-133 -38.5q-36 0 -68 6t-56 21t-38.5 39t-14.5 60h122q2 -24 17 -35.5t39 -11.5q32 0 45.5 21.5t13.5 53.5q0 29 -13.5 48.5t-42.5 19.5q-20 0 -34 -9.5t-21 -29.5h-121l10 250h323v-80h-214l-4 -92q32 40 97 40q34 0 60.5 -11t45 -30.5
t28 -46t9.5 -57.5z" />
    <glyph glyph-name="six.denominator" horiz-adv-x="424" 
d="M399 144q0 -35 -13 -64t-36.5 -49.5t-56 -31.5t-71.5 -11q-66 0 -106 24t-61 66q-13 27 -19 60t-6 69q0 46 10.5 86.5t34 71t60.5 48t90 17.5q68 0 111 -29.5t48 -87.5h-116q-6 41 -48 41q-21 0 -34 -10.5t-21.5 -27t-12 -38t-4.5 -43.5q37 46 106 46q31 0 57.5 -9.5
t46 -27.5t30.5 -43.5t11 -56.5zM282 137q0 30 -15.5 49.5t-45.5 19.5q-33 0 -48.5 -20.5t-15.5 -49.5q0 -30 16.5 -49.5t46.5 -19.5t46 19.5t16 50.5z" />
    <glyph glyph-name="seven.denominator" horiz-adv-x="424" 
d="M218 -3h-140l182 341h-219v83h345v-82z" />
    <glyph glyph-name="eight.denominator" horiz-adv-x="424" 
d="M399 117q0 -33 -14.5 -57.5t-39 -40.5t-58 -23.5t-71.5 -7.5q-39 0 -73.5 7t-60.5 22.5t-41 39.5t-15 58q0 39 22 64t59 39q-29 11 -48.5 33.5t-19.5 59.5q0 30 14 52.5t38 37.5t56 22t69 7q36 0 68 -7t55 -21t36.5 -36t13.5 -52q0 -35 -18 -59t-49 -37q32 -11 54.5 -35
t22.5 -66zM273 305q0 26 -17 39.5t-41 13.5t-42 -14t-18 -39q0 -26 17.5 -38.5t41.5 -12.5q23 0 41 13t18 38zM280 124q0 30 -19.5 44.5t-47.5 14.5q-29 0 -47.5 -15t-18.5 -44t18.5 -45t47.5 -16t48 15.5t19 45.5z" />
    <glyph glyph-name="nine.denominator" horiz-adv-x="424" 
d="M397 218q0 -50 -9.5 -92t-32 -73t-60 -48t-92.5 -17q-75 0 -121 31t-50 89h119q2 -20 14.5 -30.5t39.5 -10.5q23 0 37.5 10.5t22 28t10.5 39.5t4 45q-33 -42 -102 -42q-66 0 -107.5 36.5t-41.5 98.5q0 34 13.5 61.5t37 46.5t56.5 29t72 10q70 0 111.5 -26.5t60.5 -74.5
q10 -24 14 -52t4 -59zM273 288q0 29 -17 46t-46 17q-31 0 -47.5 -17.5t-16.5 -45.5q0 -29 16 -47.5t45 -18.5q30 0 48 18t18 48z" />
    <glyph glyph-name="onehalf.alt01" 
d="M286 457v188q-14 -9 -31.5 -16t-37.5 -13v64q28 8 46 17.5t38 25.5h78v-266h-93zM194 0v53l31 19q67 41 98 68t31 53q0 13 -8 20.5t-22 7.5q-16 0 -24 -10.5t-9 -26.5h-92q0 48 36 68t91 20q54 0 87.5 -20t33.5 -58q0 -36 -27 -66t-77 -59l-27 -16h132v-53h-254zM83 337
v60h488v-60h-488z" />
    <glyph glyph-name="onethird.alt01" 
d="M83 337v60h488v-60h-488zM286 457v188q-14 -9 -31.5 -16t-37.5 -13v64q28 8 46 17.5t38 25.5h78v-266h-93zM457 75q0 -38 -34.5 -59.5t-101.5 -21.5q-56 0 -91.5 19.5t-38.5 66.5h94q0 -36 40 -36t40 34q0 33 -45 33h-31v51h32q23 0 31 9.5t8 22.5q0 29 -33 29
q-36 0 -36 -33h-94q0 42 36 62t94 20q53 0 88 -17.5t35 -56.5q0 -22 -12.5 -36.5t-33.5 -22.5q26 -8 39.5 -23t13.5 -41z" />
    <glyph glyph-name="onequarter.alt01" 
d="M286 457v188q-14 -9 -31.5 -16t-37.5 -13v64q28 8 46 17.5t38 25.5h78v-266h-93zM413 53v-53h-87v53h-145v59l124 154h108v-161h43v-52h-43zM329 205l-76 -101h76v101zM83 337v60h488v-60h-488z" />
    <glyph glyph-name="oneeighth.alt01" 
d="M286 457v188q-14 -9 -31.5 -16t-37.5 -13v64q28 8 46 17.5t38 25.5h78v-266h-93zM83 337v60h488v-60h-488zM459 75q0 -23 -11.5 -38.5t-30 -25t-42 -13.5t-48.5 -4t-48.5 4t-42 13t-30 24t-11.5 38q0 26 17 42t43 24q-20 6 -35.5 20t-15.5 38q0 21 10.5 35.5t28 23
t40 12.5t45.5 4q22 0 44 -3.5t39.5 -12t28 -22.5t10.5 -35q0 -22 -13 -37t-36 -23q20 -6 39 -21t19 -43zM365 193q0 15 -11 23.5t-26 8.5t-26.5 -8t-11.5 -24t11.5 -24t25.5 -8q15 0 26.5 8t11.5 24zM370 80q0 19 -13 28t-31 9q-17 0 -29 -9.5t-12 -27.5q0 -19 12 -28t29 -9
q18 0 31 9t13 28z" />
    <glyph glyph-name="twothirds.alt01" 
d="M194 458v53l31 19q67 41 98 68t31 53q0 13 -8 20.5t-22 7.5q-16 0 -24 -10.5t-9 -26.5h-92q0 48 36 68t91 20q54 0 87.5 -20t33.5 -58q0 -36 -27 -66t-77 -59l-27 -16h132v-53h-254zM83 337v60h488v-60h-488zM457 75q0 -38 -34.5 -59.5t-101.5 -21.5q-56 0 -91.5 19.5
t-38.5 66.5h94q0 -36 40 -36t40 34q0 33 -45 33h-31v51h32q23 0 31 9.5t8 22.5q0 29 -33 29q-36 0 -36 -33h-94q0 42 36 62t94 20q53 0 88 -17.5t35 -56.5q0 -22 -12.5 -36.5t-33.5 -22.5q26 -8 39.5 -23t13.5 -41z" />
    <glyph glyph-name="threequarters.alt01" 
d="M413 53v-53h-87v53h-145v59l124 154h108v-161h43v-52h-43zM457 532q0 -38 -34.5 -59.5t-101.5 -21.5q-56 0 -91.5 19.5t-38.5 66.5h94q0 -36 40 -36t40 34q0 33 -45 33h-31v51h32q23 0 31 9.5t8 22.5q0 29 -33 29q-36 0 -36 -33h-94q0 42 36 62t94 20q53 0 88 -17.5
t35 -56.5q0 -22 -12.5 -36.5t-33.5 -22.5q26 -8 39.5 -23t13.5 -41zM83 337v60h488v-60h-488zM329 205l-76 -101h76v101z" />
    <glyph glyph-name="threeeighths.alt01" 
d="M459 75q0 -23 -11.5 -38.5t-30 -25t-42 -13.5t-48.5 -4t-48.5 4t-42 13t-30 24t-11.5 38q0 26 17 42t43 24q-20 6 -35.5 20t-15.5 38q0 21 10.5 35.5t28 23t40 12.5t45.5 4q22 0 44 -3.5t39.5 -12t28 -22.5t10.5 -35q0 -22 -13 -37t-36 -23q20 -6 39 -21t19 -43zM83 337
v60h488v-60h-488zM370 80q0 19 -13 28t-31 9q-17 0 -29 -9.5t-12 -27.5q0 -19 12 -28t29 -9q18 0 31 9t13 28zM365 193q0 15 -11 23.5t-26 8.5t-26.5 -8t-11.5 -24t11.5 -24t25.5 -8q15 0 26.5 8t11.5 24zM457 532q0 -38 -34.5 -59.5t-101.5 -21.5q-56 0 -91.5 19.5
t-38.5 66.5h94q0 -36 40 -36t40 34q0 33 -45 33h-31v51h32q23 0 31 9.5t8 22.5q0 29 -33 29q-36 0 -36 -33h-94q0 42 36 62t94 20q53 0 88 -17.5t35 -56.5q0 -22 -12.5 -36.5t-33.5 -22.5q26 -8 39.5 -23t13.5 -41z" />
    <glyph glyph-name="fiveeighths.alt01" 
d="M456 550q0 -48 -31 -73.5t-94 -25.5q-26 0 -49 4.5t-40 14.5t-27 25.5t-10 38.5h91q1 -16 10.5 -23.5t25.5 -7.5q19 0 28 12t9 33q0 19 -8.5 30t-27.5 11q-13 0 -22.5 -7t-11.5 -18h-91l7 159h228v-53h-147l-4 -55q11 11 27 17.5t39 6.5q48 0 73 -24.5t25 -64.5zM459 75
q0 -23 -11.5 -38.5t-30 -25t-42 -13.5t-48.5 -4t-48.5 4t-42 13t-30 24t-11.5 38q0 26 17 42t43 24q-20 6 -35.5 20t-15.5 38q0 21 10.5 35.5t28 23t40 12.5t45.5 4q22 0 44 -3.5t39.5 -12t28 -22.5t10.5 -35q0 -22 -13 -37t-36 -23q20 -6 39 -21t19 -43zM365 193
q0 15 -11 23.5t-26 8.5t-26.5 -8t-11.5 -24t11.5 -24t25.5 -8q15 0 26.5 8t11.5 24zM370 80q0 19 -13 28t-31 9q-17 0 -29 -9.5t-12 -27.5q0 -19 12 -28t29 -9q18 0 31 9t13 28zM83 337v60h488v-60h-488z" />
    <glyph glyph-name="seveneighths.alt01" 
d="M239 457l126 212h-148v54h242v-54l-114 -212h-106zM459 75q0 -23 -11.5 -38.5t-30 -25t-42 -13.5t-48.5 -4t-48.5 4t-42 13t-30 24t-11.5 38q0 26 17 42t43 24q-20 6 -35.5 20t-15.5 38q0 21 10.5 35.5t28 23t40 12.5t45.5 4q22 0 44 -3.5t39.5 -12t28 -22.5t10.5 -35
q0 -22 -13 -37t-36 -23q20 -6 39 -21t19 -43zM365 193q0 15 -11 23.5t-26 8.5t-26.5 -8t-11.5 -24t11.5 -24t25.5 -8q15 0 26.5 8t11.5 24zM370 80q0 19 -13 28t-31 9q-17 0 -29 -9.5t-12 -27.5q0 -19 12 -28t29 -9q18 0 31 9t13 28zM83 337v60h488v-60h-488z" />
    <glyph glyph-name="Amacron" unicode="&#x100;" horiz-adv-x="767" 
d="M575 0l-56 162h-291l-56 -162h-181l278 723h224l283 -723h-201zM373 601l-109 -324h216zM199 805v76h350v-76h-350z" />
    <glyph glyph-name="amacron" unicode="&#x101;" horiz-adv-x="609" 
d="M393 0q-5 18 -7.5 35.5t-4.5 39.5q-30 -48 -70.5 -66.5t-100.5 -18.5q-39 0 -72.5 9.5t-57.5 28.5t-37.5 48.5t-13.5 68.5q0 55 27 88.5t70.5 51.5t98 24t109.5 6h47v32q0 17 -3.5 32.5t-12.5 27.5t-23 19.5t-35 7.5q-40 0 -57.5 -20t-17.5 -54h-171q1 48 24.5 79
t59 48.5t78 24t82.5 6.5q68 0 117 -11t80 -43q23 -23 35 -57t12 -87v-159q0 -44 1 -81.5t7 -79.5h-164zM381 241q-9 1 -24 1h-22q-23 0 -47.5 -4t-45 -14t-34 -27t-13.5 -43q0 -32 22.5 -51.5t54.5 -19.5q33 0 54.5 13t33.5 34t16.5 48t4.5 56v7zM139 622v76h350v-76h-350z
" />
    <glyph glyph-name="Abreve" unicode="&#x102;" horiz-adv-x="767" 
d="M575 0l-56 162h-291l-56 -162h-181l278 723h224l283 -723h-201zM373 601l-109 -324h216zM557 917q-10 -76 -57.5 -110t-123.5 -34q-38 0 -70.5 8.5t-56.5 26t-38.5 44.5t-15.5 65h74q3 -19 13.5 -31t25.5 -19.5t32.5 -10.5t35.5 -3q39 0 67 13t42 51h72v0z" />
    <glyph glyph-name="abreve" unicode="&#x103;" horiz-adv-x="609" 
d="M393 0q-5 18 -7.5 35.5t-4.5 39.5q-30 -48 -70.5 -66.5t-100.5 -18.5q-39 0 -72.5 9.5t-57.5 28.5t-37.5 48.5t-13.5 68.5q0 55 27 88.5t70.5 51.5t98 24t109.5 6h47v32q0 17 -3.5 32.5t-12.5 27.5t-23 19.5t-35 7.5q-40 0 -57.5 -20t-17.5 -54h-171q1 48 24.5 79
t59 48.5t78 24t82.5 6.5q68 0 117 -11t80 -43q23 -23 35 -57t12 -87v-159q0 -44 1 -81.5t7 -79.5h-164zM381 241q-9 1 -24 1h-22q-23 0 -47.5 -4t-45 -14t-34 -27t-13.5 -43q0 -32 22.5 -51.5t54.5 -19.5q33 0 54.5 13t33.5 34t16.5 48t4.5 56v7zM496 724
q-10 -76 -57.5 -110t-123.5 -34q-38 0 -70.5 8.5t-56.5 26t-38.5 44.5t-15.5 65h74q3 -19 13.5 -31t25.5 -19.5t32.5 -10.5t35.5 -3q39 0 67 13t42 51h72v0z" />
    <glyph glyph-name="Aogonek" unicode="&#x104;" horiz-adv-x="767" 
d="M784 -185q-12 -7 -35 -15t-55 -8q-39 0 -69.5 19.5t-30.5 60.5q0 22 9 41.5t23 35t32.5 28.5t37.5 23h-121l-56 162h-291l-56 -162h-181l278 723h224l283 -723q-40 -23 -64.5 -45t-24.5 -52q0 -24 16 -37.5t40 -13.5q11 0 19.5 2.5t18.5 7.5zM373 601l-109 -324h216z" />
    <glyph glyph-name="aogonek" unicode="&#x105;" horiz-adv-x="617" 
d="M565 -185q-12 -7 -35 -15t-55 -8q-39 0 -69.5 19.5t-30.5 60.5q0 22 9 41.5t23 35t32.5 28.5t37.5 23h-84q-5 18 -7.5 35.5t-4.5 39.5q-30 -48 -70.5 -66.5t-100.5 -18.5q-39 0 -72.5 9.5t-57.5 28.5t-37.5 48.5t-13.5 68.5q0 55 27 88.5t70.5 51.5t98 24t109.5 6h47v32
q0 17 -3.5 32.5t-12.5 27.5t-23 19.5t-35 7.5q-40 0 -57.5 -20t-17.5 -54h-171q1 48 24.5 79t59 48.5t78 24t82.5 6.5q68 0 117 -11t80 -43q23 -23 35 -57t12 -87v-159q0 -44 1 -81.5t7 -79.5q-40 -23 -64.5 -45t-24.5 -52q0 -24 16 -37.5t40 -13.5q11 0 19.5 2.5t18.5 7.5z
M381 241q-7 0 -23 0.5t-23 0.5q-23 0 -47.5 -4t-45 -14t-34 -27t-13.5 -43q0 -32 22.5 -51.5t54.5 -19.5q33 0 54.5 13t33.5 34t16.5 48t4.5 56v7z" />
    <glyph glyph-name="Cacute" unicode="&#x106;" horiz-adv-x="733" 
d="M702 221q-6 -63 -32.5 -107.5t-68 -73t-96 -41.5t-115.5 -13q-89 0 -155 26t-109.5 74t-65 116t-21.5 153t22.5 155t67 120.5t111 78t155.5 27.5q81 0 149 -24.5t110 -79.5q20 -26 30.5 -58t12.5 -74h-192q-5 56 -34 83.5t-77 27.5q-46 0 -76.5 -23t-49 -59.5t-26.5 -83
t-8 -94.5q0 -46 8 -89.5t26.5 -77t48.5 -54t74 -20.5q49 0 81 27.5t38 83.5h192v0zM419 776h-122l109 150h187z" />
    <glyph glyph-name="cacute" unicode="&#x107;" horiz-adv-x="595" 
d="M573 191q-3 -59 -23.5 -98.5t-55 -62.5t-81 -32.5t-101.5 -9.5q-70 0 -120 16.5t-85 49.5q-35 34 -54.5 83.5t-19.5 111.5q0 63 20 114t58 86q36 34 87.5 52t120.5 18q109 0 176 -45.5t76 -150.5h-171q-2 48 -21.5 75t-62.5 27q-32 0 -52.5 -15t-32 -39t-15.5 -54.5
t-4 -61.5t4 -61.5t15 -55t30.5 -39.5t51.5 -15q48 0 66.5 28.5t20.5 78.5h173v0zM341 583h-122l109 150h187z" />
    <glyph glyph-name="Ccircumflex" unicode="&#x108;" horiz-adv-x="733" 
d="M702 221q-6 -63 -32.5 -107.5t-68 -73t-96 -41.5t-115.5 -13q-89 0 -155 26t-109.5 74t-65 116t-21.5 153t22.5 155t67 120.5t111 78t155.5 27.5q81 0 149 -24.5t110 -79.5q20 -26 30.5 -58t12.5 -74h-192q-5 56 -34 83.5t-77 27.5q-46 0 -76.5 -23t-49 -59.5t-26.5 -83
t-8 -94.5q0 -46 8 -89.5t26.5 -77t48.5 -54t74 -20.5q49 0 81 27.5t38 83.5h192v0zM467 776l-76 84l-78 -84h-119l118 149h157l117 -149h-119z" />
    <glyph glyph-name="ccircumflex" unicode="&#x109;" horiz-adv-x="595" 
d="M573 191q-3 -59 -23.5 -98.5t-55 -62.5t-81 -32.5t-101.5 -9.5q-70 0 -120 16.5t-85 49.5q-35 34 -54.5 83.5t-19.5 111.5q0 63 20 114t58 86q36 34 87.5 52t120.5 18q109 0 176 -45.5t76 -150.5h-171q-2 48 -21.5 75t-62.5 27q-32 0 -52.5 -15t-32 -39t-15.5 -54.5
t-4 -61.5t4 -61.5t15 -55t30.5 -39.5t51.5 -15q48 0 66.5 28.5t20.5 78.5h173v0zM390 583l-76 84l-78 -84h-119l118 149h157l117 -149h-119z" />
    <glyph glyph-name="Cdotaccent" unicode="&#x10a;" horiz-adv-x="733" 
d="M702 221q-6 -63 -32.5 -107.5t-68 -73t-96 -41.5t-115.5 -13q-89 0 -155 26t-109.5 74t-65 116t-21.5 153t22.5 155t67 120.5t111 78t155.5 27.5q81 0 149 -24.5t110 -79.5q20 -26 30.5 -58t12.5 -74h-192q-5 56 -34 83.5t-77 27.5q-46 0 -76.5 -23t-49 -59.5t-26.5 -83
t-8 -94.5q0 -46 8 -89.5t26.5 -77t48.5 -54t74 -20.5q49 0 81 27.5t38 83.5h192v0zM317 790v129h147v-129h-147z" />
    <glyph glyph-name="cdotaccent" unicode="&#x10b;" horiz-adv-x="595" 
d="M573 191q-3 -59 -23.5 -98.5t-55 -62.5t-81 -32.5t-101.5 -9.5q-70 0 -120 16.5t-85 49.5q-35 34 -54.5 83.5t-19.5 111.5q0 63 20 114t58 86q36 34 87.5 52t120.5 18q109 0 176 -45.5t76 -150.5h-171q-2 48 -21.5 75t-62.5 27q-32 0 -52.5 -15t-32 -39t-15.5 -54.5
t-4 -61.5t4 -61.5t15 -55t30.5 -39.5t51.5 -15q48 0 66.5 28.5t20.5 78.5h173v0zM239 597v129h147v-129h-147z" />
    <glyph glyph-name="Ccaron" unicode="&#x10c;" horiz-adv-x="733" 
d="M702 221q-6 -63 -32.5 -107.5t-68 -73t-96 -41.5t-115.5 -13q-89 0 -155 26t-109.5 74t-65 116t-21.5 153t22.5 155t67 120.5t111 78t155.5 27.5q81 0 149 -24.5t110 -79.5q20 -26 30.5 -58t12.5 -74h-192q-5 56 -34 83.5t-77 27.5q-46 0 -76.5 -23t-49 -59.5t-26.5 -83
t-8 -94.5q0 -46 8 -89.5t26.5 -77t48.5 -54t74 -20.5q49 0 81 27.5t38 83.5h192v0zM468 776h-157l-117 148h118l80 -85l77 85h117z" />
    <glyph glyph-name="ccaron" unicode="&#x10d;" horiz-adv-x="595" 
d="M573 191q-3 -59 -23.5 -98.5t-55 -62.5t-81 -32.5t-101.5 -9.5q-70 0 -120 16.5t-85 49.5q-35 34 -54.5 83.5t-19.5 111.5q0 63 20 114t58 86q36 34 87.5 52t120.5 18q109 0 176 -45.5t76 -150.5h-171q-2 48 -21.5 75t-62.5 27q-32 0 -52.5 -15t-32 -39t-15.5 -54.5
t-4 -61.5t4 -61.5t15 -55t30.5 -39.5t51.5 -15q48 0 66.5 28.5t20.5 78.5h173v0zM390 583h-157l-117 148h118l80 -85l77 85h117z" />
    <glyph glyph-name="Dcaron" unicode="&#x10e;" horiz-adv-x="791" 
d="M752 363q0 -128 -47 -205.5t-130 -115.5q-51 -23 -111 -32.5t-134 -9.5h-254v723h270q92 0 162.5 -16.5t124.5 -57.5q57 -43 88 -113.5t31 -172.5zM558 363q0 78 -20.5 128.5t-62.5 77.5q-26 17 -60.5 25t-79.5 8h-72v-481h69q118 0 172 56t54 186zM476 776h-157
l-117 148h118l80 -85l77 85h117z" />
    <glyph glyph-name="dcaron" unicode="&#x10f;" horiz-adv-x="662" 
d="M426 0q0 2 -0.5 11t-1.5 20.5t-1.5 21.5t-0.5 14q-34 -41 -69.5 -59.5t-92.5 -18.5q-58 0 -101 20t-71 55t-41.5 82.5t-13.5 103.5q0 52 13 100.5t40 85.5t69 59t101 22q54 0 93.5 -18t73.5 -61v285h175v-583q0 -38 0.5 -72t2.5 -68h-175zM427 251q0 33 -5.5 63t-19 53
t-35 36.5t-53.5 13.5q-31 0 -51 -14t-31.5 -36.5t-16 -52.5t-4.5 -61q0 -32 4.5 -61.5t17 -52.5t33.5 -37t54 -14q30 0 50.5 14.5t33 37.5t18 52t5.5 59zM755 457h-106l39 266h142z" />
    <glyph glyph-name="Dcroat" unicode="&#x110;" horiz-adv-x="791" 
d="M752 363q0 -128 -47 -205.5t-130 -115.5q-51 -23 -111 -32.5t-134 -9.5h-254v341h-63v100h63v282h270q92 0 162.5 -16.5t124.5 -57.5q57 -43 88 -113.5t31 -172.5zM558 363q0 78 -20.5 128.5t-62.5 77.5q-26 17 -60.5 25t-79.5 8h-72v-161h147v-100h-147v-220h69
q118 0 172 56t54 186z" />
    <glyph glyph-name="dcroat" unicode="&#x111;" horiz-adv-x="662" 
d="M426 0q0 2 -0.5 11t-1.5 20.5t-1.5 21.5t-0.5 14q-34 -41 -69.5 -59.5t-92.5 -18.5q-58 0 -101 20t-71 55t-41.5 82.5t-13.5 103.5q0 52 13 100.5t40 85.5t69 59t101 22q54 0 93.5 -18t73.5 -61v144h-167v85h167v56h175v-56h63v-85h-63v-442q0 -38 0.5 -72t2.5 -68h-175z
M427 251q0 33 -5.5 63t-19 53t-35 36.5t-53.5 13.5q-31 0 -51 -14t-31.5 -36.5t-16 -52.5t-4.5 -61q0 -32 4.5 -61.5t17 -52.5t33.5 -37t54 -14q30 0 50.5 14.5t33 37.5t18 52t5.5 59z" />
    <glyph glyph-name="Emacron" unicode="&#x112;" horiz-adv-x="636" 
d="M76 0v723h514v-124h-331v-171h314v-122h-314v-183h342v-123h-525zM150 805v76h350v-76h-350z" />
    <glyph glyph-name="emacron" unicode="&#x113;" horiz-adv-x="613" 
d="M203 224q0 -30 6 -56t19 -45.5t33.5 -30.5t50.5 -11q86 0 97 86h166q-5 -36 -20.5 -64t-39.5 -50q-38 -35 -90 -49.5t-115 -14.5q-76 0 -129.5 19.5t-88.5 59.5q-29 32 -44 77.5t-15 99.5q0 127 70.5 200t209.5 73q86 0 149.5 -33t94.5 -105q15 -35 19 -71.5t4 -84.5
h-377zM412 310q0 57 -24.5 88t-73.5 31q-50 0 -79 -32.5t-29 -86.5h206zM134 622v76h350v-76h-350z" />
    <glyph glyph-name="Ebreve" unicode="&#x114;" horiz-adv-x="636" 
d="M76 0v723h514v-124h-331v-171h314v-122h-314v-183h342v-123h-525zM508 917q-10 -76 -57.5 -110t-123.5 -34q-38 0 -70.5 8.5t-56.5 26t-38.5 44.5t-15.5 65h74q3 -19 13.5 -31t25.5 -19.5t32.5 -10.5t35.5 -3q39 0 67 13t42 51h72v0z" />
    <glyph glyph-name="ebreve" unicode="&#x115;" horiz-adv-x="613" 
d="M203 224q0 -30 6 -56t19 -45.5t33.5 -30.5t50.5 -11q86 0 97 86h166q-5 -36 -20.5 -64t-39.5 -50q-38 -35 -90 -49.5t-115 -14.5q-76 0 -129.5 19.5t-88.5 59.5q-29 32 -44 77.5t-15 99.5q0 127 70.5 200t209.5 73q86 0 149.5 -33t94.5 -105q15 -35 19 -71.5t4 -84.5
h-377zM412 310q0 57 -24.5 88t-73.5 31q-50 0 -79 -32.5t-29 -86.5h206zM491 724q-10 -76 -57.5 -110t-123.5 -34q-38 0 -70.5 8.5t-56.5 26t-38.5 44.5t-15.5 65h74q3 -19 13.5 -31t25.5 -19.5t32.5 -10.5t35.5 -3q39 0 67 13t42 51h72v0z" />
    <glyph glyph-name="Edotaccent" unicode="&#x116;" horiz-adv-x="636" 
d="M76 0v723h514v-124h-331v-171h314v-122h-314v-183h342v-123h-525zM252 790v129h147v-129h-147z" />
    <glyph glyph-name="edotaccent" unicode="&#x117;" horiz-adv-x="613" 
d="M203 224q0 -30 6 -56t19 -45.5t33.5 -30.5t50.5 -11q86 0 97 86h166q-5 -36 -20.5 -64t-39.5 -50q-38 -35 -90 -49.5t-115 -14.5q-76 0 -129.5 19.5t-88.5 59.5q-29 32 -44 77.5t-15 99.5q0 127 70.5 200t209.5 73q86 0 149.5 -33t94.5 -105q15 -35 19 -71.5t4 -84.5
h-377zM412 310q0 57 -24.5 88t-73.5 31q-50 0 -79 -32.5t-29 -86.5h206zM235 597v129h147v-129h-147z" />
    <glyph glyph-name="Eogonek" unicode="&#x118;" horiz-adv-x="636" 
d="M601 -185q-12 -7 -35 -15t-55 -8q-39 0 -69.5 19.5t-30.5 60.5q0 22 9 41.5t23 35t32.5 28.5t37.5 23h-437v723h514v-124h-331v-171h314v-122h-314v-183h342v-123q-45 -20 -71 -43.5t-26 -53.5q0 -24 16 -37.5t40 -13.5q11 0 19.5 2.5t18.5 7.5l3 -47v0z" />
    <glyph glyph-name="eogonek" unicode="&#x119;" horiz-adv-x="613" 
d="M393 -185q-12 -7 -35 -15t-55 -8q-39 0 -69.5 19.5t-30.5 60.5q0 40 25 69t58 49q-131 6 -194 78q-29 32 -44 77.5t-15 99.5q0 127 70.5 200t209.5 73q86 0 149.5 -33t94.5 -105q15 -35 19 -71.5t4 -84.5h-377q0 -30 6 -56t19 -45.5t33.5 -30.5t50.5 -11q86 0 97 86h166
q-5 -36 -20.5 -64t-39.5 -50q-28 -26 -64 -40.5t-79 -19.5q-35 -21 -55.5 -41.5t-20.5 -48.5q0 -24 16 -37.5t40 -13.5q11 0 19.5 2.5t18.5 7.5zM412 310q0 57 -24.5 88t-73.5 31q-50 0 -79 -32.5t-29 -86.5h206z" />
    <glyph glyph-name="Ecaron" unicode="&#x11a;" horiz-adv-x="636" 
d="M76 0v723h514v-124h-331v-171h314v-122h-314v-183h342v-123h-525zM403 776h-157l-117 148h118l80 -85l77 85h117z" />
    <glyph glyph-name="ecaron" unicode="&#x11b;" horiz-adv-x="613" 
d="M203 224q0 -30 6 -56t19 -45.5t33.5 -30.5t50.5 -11q86 0 97 86h166q-5 -36 -20.5 -64t-39.5 -50q-38 -35 -90 -49.5t-115 -14.5q-76 0 -129.5 19.5t-88.5 59.5q-29 32 -44 77.5t-15 99.5q0 127 70.5 200t209.5 73q86 0 149.5 -33t94.5 -105q15 -35 19 -71.5t4 -84.5
h-377zM412 310q0 57 -24.5 88t-73.5 31q-50 0 -79 -32.5t-29 -86.5h206zM386 583h-157l-117 148h118l80 -85l77 85h117z" />
    <glyph glyph-name="Gcircumflex" unicode="&#x11c;" horiz-adv-x="781" 
d="M720 33q-73 -23 -145.5 -35t-151.5 -12q-183 0 -284 99q-48 48 -74 117.5t-26 157.5q0 86 25.5 155.5t74 119t118.5 76t159 26.5q64 0 117.5 -13t93.5 -41.5t63.5 -72.5t28.5 -105h-183q-8 57 -40.5 82t-85.5 25q-49 0 -82.5 -20.5t-54 -55t-29.5 -80t-9 -95.5
q0 -55 13.5 -104.5t39.5 -84.5q23 -31 58.5 -48t86.5 -17q29 0 57 3.5t56 11.5v158h-140v113h314v-360v0zM489 776l-76 84l-78 -84h-119l118 149h157l117 -149h-119z" />
    <glyph glyph-name="gcircumflex" unicode="&#x11d;" horiz-adv-x="661" 
d="M600 505q0 -16 -0.5 -37.5t-1 -42.5t-1 -38.5t-0.5 -26.5v-278q0 -141 -69 -211.5t-217 -70.5q-53 0 -97.5 9.5t-78 30t-53.5 52.5t-24 77h160q0 -41 28 -57t66 -16q33 0 54.5 9.5t34.5 27t18.5 42t6.5 53.5q0 6 0.5 15.5t0.5 20v20.5v17q-31 -45 -73 -66t-99 -21
q-56 0 -97.5 19t-69 53t-41.5 79.5t-14 99.5t14 99.5t42.5 78.5t71.5 51.5t100 18.5t97.5 -19t72.5 -65v76h169zM427 267q0 29 -5.5 56.5t-18.5 49t-33 34.5t-50 13t-50.5 -13.5t-33 -35t-18 -50t-5.5 -58.5q0 -29 5 -56t17.5 -48t32.5 -34t50 -13q31 0 52 13t33.5 35t18 50
t5.5 57zM405 583l-76 84l-78 -84h-119l118 149h157l117 -149h-119z" />
    <glyph glyph-name="Gbreve" unicode="&#x11e;" horiz-adv-x="781" 
d="M720 33q-73 -23 -145.5 -35t-151.5 -12q-183 0 -284 99q-48 48 -74 117.5t-26 157.5q0 86 25.5 155.5t74 119t118.5 76t159 26.5q64 0 117.5 -13t93.5 -41.5t63.5 -72.5t28.5 -105h-183q-8 57 -40.5 82t-85.5 25q-49 0 -82.5 -20.5t-54 -55t-29.5 -80t-9 -95.5
q0 -55 13.5 -104.5t39.5 -84.5q23 -31 58.5 -48t86.5 -17q29 0 57 3.5t56 11.5v158h-140v113h314v-360v0zM595 917q-10 -76 -57.5 -110t-123.5 -34q-38 0 -70.5 8.5t-56.5 26t-38.5 44.5t-15.5 65h74q3 -19 13.5 -31t25.5 -19.5t32.5 -10.5t35.5 -3q39 0 67 13t42 51h72v0z
" />
    <glyph glyph-name="gbreve" unicode="&#x11f;" horiz-adv-x="661" 
d="M600 505q0 -16 -0.5 -37.5t-1 -42.5t-1 -38.5t-0.5 -26.5v-278q0 -141 -69 -211.5t-217 -70.5q-53 0 -97.5 9.5t-78 30t-53.5 52.5t-24 77h160q0 -41 28 -57t66 -16q33 0 54.5 9.5t34.5 27t18.5 42t6.5 53.5q0 6 0.5 15.5t0.5 20v20.5v17q-31 -45 -73 -66t-99 -21
q-56 0 -97.5 19t-69 53t-41.5 79.5t-14 99.5t14 99.5t42.5 78.5t71.5 51.5t100 18.5t97.5 -19t72.5 -65v76h169zM427 267q0 29 -5.5 56.5t-18.5 49t-33 34.5t-50 13t-50.5 -13.5t-33 -35t-18 -50t-5.5 -58.5q0 -29 5 -56t17.5 -48t32.5 -34t50 -13q31 0 52 13t33.5 35t18 50
t5.5 57zM510 724q-10 -76 -57.5 -110t-123.5 -34q-38 0 -70.5 8.5t-56.5 26t-38.5 44.5t-15.5 65h74q3 -19 13.5 -31t25.5 -19.5t32.5 -10.5t35.5 -3q39 0 67 13t42 51h72v0z" />
    <glyph glyph-name="Gdotaccent" unicode="&#x120;" horiz-adv-x="781" 
d="M720 33q-73 -23 -145.5 -35t-151.5 -12q-183 0 -284 99q-48 48 -74 117.5t-26 157.5q0 86 25.5 155.5t74 119t118.5 76t159 26.5q64 0 117.5 -13t93.5 -41.5t63.5 -72.5t28.5 -105h-183q-8 57 -40.5 82t-85.5 25q-49 0 -82.5 -20.5t-54 -55t-29.5 -80t-9 -95.5
q0 -55 13.5 -104.5t39.5 -84.5q23 -31 58.5 -48t86.5 -17q29 0 57 3.5t56 11.5v158h-140v113h314v-360v0zM339 790v129h147v-129h-147z" />
    <glyph glyph-name="gdotaccent" unicode="&#x121;" horiz-adv-x="661" 
d="M600 505q0 -16 -0.5 -37.5t-1 -42.5t-1 -38.5t-0.5 -26.5v-278q0 -141 -69 -211.5t-217 -70.5q-53 0 -97.5 9.5t-78 30t-53.5 52.5t-24 77h160q0 -41 28 -57t66 -16q33 0 54.5 9.5t34.5 27t18.5 42t6.5 53.5q0 6 0.5 15.5t0.5 20v20.5v17q-31 -45 -73 -66t-99 -21
q-56 0 -97.5 19t-69 53t-41.5 79.5t-14 99.5t14 99.5t42.5 78.5t71.5 51.5t100 18.5t97.5 -19t72.5 -65v76h169zM427 267q0 29 -5.5 56.5t-18.5 49t-33 34.5t-50 13t-50.5 -13.5t-33 -35t-18 -50t-5.5 -58.5q0 -29 5 -56t17.5 -48t32.5 -34t50 -13q31 0 52 13t33.5 35t18 50
t5.5 57zM254 597v129h147v-129h-147z" />
    <glyph glyph-name="Gcommaaccent" unicode="&#x122;" horiz-adv-x="781" 
d="M720 33q-73 -23 -145.5 -35t-151.5 -12q-183 0 -284 99q-48 48 -74 117.5t-26 157.5q0 86 25.5 155.5t74 119t118.5 76t159 26.5q64 0 117.5 -13t93.5 -41.5t63.5 -72.5t28.5 -105h-183q-8 57 -40.5 82t-85.5 25q-49 0 -82.5 -20.5t-54 -55t-29.5 -80t-9 -95.5
q0 -55 13.5 -104.5t39.5 -84.5q23 -31 58.5 -48t86.5 -17q29 0 57 3.5t56 11.5v158h-140v113h314v-360v0zM417 -215h-115l47 166h144z" />
    <glyph glyph-name="gcommaaccent" unicode="&#x123;" horiz-adv-x="661" 
d="M600 505q0 -16 -0.5 -37.5t-1 -42.5t-1 -38.5t-0.5 -26.5v-278q0 -141 -69 -211.5t-217 -70.5q-53 0 -97.5 9.5t-78 30t-53.5 52.5t-24 77h160q0 -41 28 -57t66 -16q33 0 54.5 9.5t34.5 27t18.5 42t6.5 53.5q0 6 0.5 15.5t0.5 20v20.5v17q-31 -45 -73 -66t-99 -21
q-56 0 -97.5 19t-69 53t-41.5 79.5t-14 99.5t14 99.5t42.5 78.5t71.5 51.5t100 18.5t97.5 -19t72.5 -65v76h169zM427 267q0 29 -5.5 56.5t-18.5 49t-33 34.5t-50 13t-50.5 -13.5t-33 -35t-18 -50t-5.5 -58.5q0 -29 5 -56t17.5 -48t32.5 -34t50 -13q31 0 52 13t33.5 35t18 50
t5.5 57zM316 733h115l-45 -150h-144z" />
    <glyph glyph-name="Hcircumflex" unicode="&#x124;" horiz-adv-x="802" 
d="M538 0v304h-274v-304h-188v723h188v-292h274v292h188v-723h-188zM479 776l-76 84l-78 -84h-119l118 149h157l117 -149h-119z" />
    <glyph glyph-name="hcircumflex" unicode="&#x125;" horiz-adv-x="655" 
d="M418 0v273q0 27 -2 51t-10.5 42.5t-25.5 29.5t-47 11q-29 0 -47.5 -13t-29 -33.5t-14 -45.5t-3.5 -48v-267h-175v723h175v-293q32 43 72.5 63t96.5 20q101 0 143 -50.5t42 -142.5v-320h-175zM228 776l-76 84l-78 -84h-119l118 149h157l117 -149h-119z" />
    <glyph glyph-name="Hbar" unicode="&#x126;" horiz-adv-x="802" 
d="M264 607h274v116h188v-723h-188v304h-274v-304h-188v723h188v-116zM264 516v-85h274v85h-274z" />
    <glyph glyph-name="hbar" unicode="&#x127;" horiz-adv-x="655" 
d="M418 0v273q0 27 -2 51t-10.5 42.5t-25.5 29.5t-47 11q-29 0 -47.5 -13t-29 -33.5t-14 -45.5t-3.5 -48v-267h-175v582h-63v85h63v56h175v-56h167v-85h-167v-152q32 43 72.5 63t96.5 20q101 0 143 -50.5t42 -142.5v-320h-175z" />
    <glyph glyph-name="Itilde" unicode="&#x128;" horiz-adv-x="340" 
d="M76 0v723h188v-723h-188zM375 919q-3 -27 -13 -51.5t-26.5 -43t-38.5 -29.5t-49 -11q-22 0 -44 5.5t-50 14.5q-23 8 -39 11.5t-31 3.5q-36 0 -44 -35h-75q5 58 41 96.5t92 38.5q19 0 37 -4.5t47 -14.5t46.5 -14.5t31.5 -4.5q17 0 25.5 10.5t10.5 27.5h79v0z" />
    <glyph glyph-name="itilde" unicode="&#x129;" horiz-adv-x="303" 
d="M64 0v504h175v-504h-175zM358 726q-3 -27 -13 -51.5t-26.5 -43t-38.5 -29.5t-49 -11q-22 0 -44 5.5t-50 14.5q-23 8 -39 11.5t-31 3.5q-36 0 -44 -35h-75q5 58 41 96.5t92 38.5q19 0 37 -4.5t47 -14.5t46.5 -14.5t31.5 -4.5q17 0 25.5 10.5t10.5 27.5h79v0z" />
    <glyph glyph-name="Imacron" unicode="&#x12a;" horiz-adv-x="340" 
d="M76 0v723h188v-723h-188zM-5 805v76h350v-76h-350z" />
    <glyph glyph-name="imacron" unicode="&#x12b;" horiz-adv-x="303" 
d="M64 0v504h175v-504h-175zM-22 622v76h350v-76h-350z" />
    <glyph glyph-name="Ibreve" unicode="&#x12c;" horiz-adv-x="340" 
d="M76 0v723h188v-723h-188zM351 917q-10 -76 -57.5 -110t-123.5 -34q-38 0 -70.5 8.5t-56.5 26t-38.5 44.5t-15.5 65h74q3 -19 13.5 -31t25.5 -19.5t32.5 -10.5t35.5 -3q39 0 67 13t42 51h72v0z" />
    <glyph glyph-name="ibreve" unicode="&#x12d;" horiz-adv-x="303" 
d="M64 0v504h175v-504h-175zM334 724q-10 -76 -57.5 -110t-123.5 -34q-38 0 -70.5 8.5t-56.5 26t-38.5 44.5t-15.5 65h74q3 -19 13.5 -31t25.5 -19.5t32.5 -10.5t35.5 -3q39 0 67 13t42 51h72v0z" />
    <glyph glyph-name="Iogonek" unicode="&#x12e;" horiz-adv-x="340" 
d="M266 -185q-12 -7 -35 -15t-55 -8q-39 0 -69.5 19.5t-30.5 60.5q0 22 9 41.5t23 35t32.5 28.5t37.5 23h-102v723h188v-723q-43 -20 -69 -43.5t-26 -53.5q0 -24 16 -37.5t40 -13.5q11 0 19.5 2.5t18.5 7.5l3 -47v0z" />
    <glyph glyph-name="iogonek" unicode="&#x12f;" horiz-adv-x="303" 
d="M247 -185q-12 -7 -35 -15t-55 -8q-39 0 -69.5 19.5t-30.5 60.5q0 22 9 41.5t23 35t32.5 28.5t37.5 23h-95v505h175v-505q-40 -23 -64.5 -45t-24.5 -52q0 -24 16 -37.5t40 -13.5q11 0 19.5 2.5t18.5 7.5zM64 596v127h175v-127h-175z" />
    <glyph glyph-name="Idotaccent" unicode="&#x130;" horiz-adv-x="340" 
d="M76 0v723h188v-723h-188zM97 790v129h147v-129h-147z" />
    <glyph glyph-name="dotlessi" unicode="&#x131;" horiz-adv-x="303" 
d="M64 0v504h175v-504h-175z" />
    <glyph glyph-name="Jcircumflex" unicode="&#x134;" horiz-adv-x="612" 
d="M544 242q0 -71 -19 -119.5t-59 -80.5q-69 -57 -197 -57q-56 0 -104 12.5t-84 38.5t-56.5 66.5t-20.5 96.5v11.5t1 14.5h186v-24.5t1 -19.5q6 -72 78 -72q26 0 42 9.5t26 25.5q11 17 14.5 40.5t3.5 55.5v483h188v-481v0zM525 776l-76 84l-78 -84h-119l118 149h157
l117 -149h-119z" />
    <glyph glyph-name="jcircumflex" unicode="&#x135;" horiz-adv-x="303" 
d="M239 -35q0 -55 -11.5 -84.5t-37.5 -46.5q-21 -14 -50.5 -20t-80.5 -6q-29 0 -46 0.5t-29 1.5v111q8 -2 13.5 -2h10.5q35 1 45.5 23.5t10.5 56.5v506h175v-540v0zM228 583l-76 84l-78 -84h-119l118 149h157l117 -149h-119z" />
    <glyph glyph-name="Kcommaaccent" unicode="&#x136;" horiz-adv-x="755" 
d="M535 0l-270 396l244 327h220l-267 -320l304 -403h-231zM76 0v723h188v-723h-188zM387 -215h-115l47 166h144z" />
    <glyph glyph-name="kcommaaccent" unicode="&#x137;" horiz-adv-x="644" 
d="M64 0v723h175v-723h-175zM422 505h202l-192 -214l214 -291h-210l-193 282zM348 -215h-115l47 166h144z" />
    <glyph glyph-name="kgreenlandic" unicode="&#x138;" horiz-adv-x="644" 
d="M64 0v505h175v-505h-175zM419 505h202l-192 -214l214 -291h-210l-193 282z" />
    <glyph glyph-name="Lacute" unicode="&#x139;" horiz-adv-x="606" 
d="M76 0v723h188v-599h329v-124h-517zM199 776h-122l109 150h187z" />
    <glyph glyph-name="lacute" unicode="&#x13a;" horiz-adv-x="303" 
d="M64 0v723h175v-723h-175zM183 766h-122l109 150h187z" />
    <glyph glyph-name="Lcommaaccent" unicode="&#x13b;" horiz-adv-x="606" 
d="M76 0v723h188v-599h329v-124h-517zM341 -215h-115l47 166h144z" />
    <glyph glyph-name="lcommaaccent" unicode="&#x13c;" horiz-adv-x="303" 
d="M64 0v723h175v-723h-175zM153 -215h-115l47 166h144z" />
    <glyph glyph-name="Lcaron" unicode="&#x13d;" horiz-adv-x="606" 
d="M76 0v723h188v-599h329v-124h-517zM445 457h-106l39 266h142z" />
    <glyph glyph-name="lcaron" unicode="&#x13e;" horiz-adv-x="303" 
d="M64 0v723h175v-723h-175zM393 457h-106l39 266h142z" />
    <glyph glyph-name="Ldot" unicode="&#x13f;" horiz-adv-x="606" 
d="M76 0v723h188v-599h329v-124h-517zM398 346v129h147v-129h-147z" />
    <glyph glyph-name="ldot" unicode="&#x140;" horiz-adv-x="446" 
d="M64 0v723h175v-723h-175zM301 304v129h147v-129h-147z" />
    <glyph glyph-name="Lslash" unicode="&#x141;" horiz-adv-x="606" 
d="M77 0v276l-73 -45v101l73 44v347h188v-244l173 104v-101l-173 -104v-254h328v-124h-516z" />
    <glyph glyph-name="lslash" unicode="&#x142;" horiz-adv-x="344" 
d="M259 397v-397h-174v282l-81 -57v101l81 56v341h174v-225l81 55v-101z" />
    <glyph glyph-name="Nacute" unicode="&#x143;" horiz-adv-x="822" 
d="M486 0l-250 568v-568h-160v723h260l250 -567v567h160v-723h-260zM432 776h-122l109 150h187z" />
    <glyph glyph-name="nacute" unicode="&#x144;" horiz-adv-x="655" 
d="M418 0v272q0 24 -1.5 48t-10 43.5t-26 31.5t-48.5 12q-30 0 -48.5 -14t-28.5 -35.5t-13 -47t-3 -49.5v-261h-175v342v30t-0.5 45.5t-1 48.5t-1.5 39h171q2 -26 3 -50t1 -28q37 45 75.5 65t95.5 20q99 0 142.5 -46.5t43.5 -145.5v-320h-175zM358 583h-122l109 150h187z
" />
    <glyph glyph-name="Ncommaaccent" unicode="&#x145;" horiz-adv-x="822" 
d="M486 0l-250 568v-568h-160v723h260l250 -567v567h160v-723h-260zM405 -215h-115l47 166h144z" />
    <glyph glyph-name="ncommaaccent" unicode="&#x146;" horiz-adv-x="655" 
d="M418 0v272q0 24 -1.5 48t-10 43.5t-26 31.5t-48.5 12q-30 0 -48.5 -14t-28.5 -35.5t-13 -47t-3 -49.5v-261h-175v342v30t-0.5 45.5t-1 48.5t-1.5 39h171q2 -26 3 -50t1 -28q37 45 75.5 65t95.5 20q99 0 142.5 -46.5t43.5 -145.5v-320h-175zM331 -215h-115l47 166h144z
" />
    <glyph glyph-name="Ncaron" unicode="&#x147;" horiz-adv-x="822" 
d="M486 0l-250 568v-568h-160v723h260l250 -567v567h160v-723h-260zM481 776h-157l-117 148h118l80 -85l77 85h117z" />
    <glyph glyph-name="ncaron" unicode="&#x148;" horiz-adv-x="655" 
d="M418 0v272q0 24 -1.5 48t-10 43.5t-26 31.5t-48.5 12q-30 0 -48.5 -14t-28.5 -35.5t-13 -47t-3 -49.5v-261h-175v342v30t-0.5 45.5t-1 48.5t-1.5 39h171q2 -26 3 -50t1 -28q37 45 75.5 65t95.5 20q99 0 142.5 -46.5t43.5 -145.5v-320h-175zM407 583h-157l-117 148h118
l80 -85l77 85h117z" />
    <glyph glyph-name="Eng" unicode="&#x14a;" horiz-adv-x="806" 
d="M730 27q0 -62 -13 -104t-39.5 -67.5t-66.5 -36.5t-94 -11q-18 0 -36 0.5t-34 2.5v124q16 -3 42 -3q41 0 58 16t19 48v5l-330 569v-570h-160v723h245l249 -449v449h160v-696v0z" />
    <glyph glyph-name="eng" unicode="&#x14b;" horiz-adv-x="655" 
d="M592 -7q0 -51 -10.5 -86.5t-33.5 -57t-59 -31.5t-88 -10q-19 0 -38 0.5t-34 1.5v111q7 -1 14 -1.5t16 -0.5q32 0 45 21.5t13 56.5v275q0 24 -1.5 48t-10 43.5t-26 31.5t-48.5 12q-30 0 -48.5 -14t-28.5 -35.5t-13 -47t-3 -49.5v-261h-175v391q0 30 -1.5 56t-1.5 58h171
q0 -3 1 -14.5t1.5 -25t1 -25t0.5 -13.5q37 45 75.5 65t95.5 20q99 0 142.5 -46.5t43.5 -145.5v-327v0z" />
    <glyph glyph-name="Omacron" unicode="&#x14c;" horiz-adv-x="789" 
d="M750 362q0 -81 -20 -146.5t-62 -115.5q-46 -55 -115 -85t-162 -30q-88 0 -154 27t-110 76.5t-66 119t-22 153.5t22.5 153.5t67.5 119.5t112 78t156 28t155 -27.5t110 -77.5t66 -119.5t22 -153.5zM558 364q0 51 -10.5 102.5t-35.5 87.5q-20 29 -48 45.5t-70 16.5
q-48 0 -79 -23t-51 -62q-17 -35 -25 -80t-8 -88q0 -49 7.5 -95t25.5 -81t49.5 -56.5t79.5 -21.5t80 21.5t50.5 56.5t26.5 81t8 96zM218 805v76h350v-76h-350z" />
    <glyph glyph-name="omacron" unicode="&#x14d;" horiz-adv-x="648" 
d="M615 254q0 -64 -20.5 -113.5t-58.5 -83.5t-92 -51.5t-122 -17.5t-121.5 17.5t-90.5 51.5t-57 83.5t-20 113.5q0 59 19 106t54 81q80 77 221 77q67 0 120 -18t90.5 -51.5t57.5 -82.5t20 -112zM435 254q0 32 -5.5 62.5t-18.5 54t-34.5 38t-54.5 14.5t-54 -14.5t-33.5 -38
t-17.5 -54t-5 -62.5q0 -30 5 -61t18 -56q13 -26 34 -40t54 -14q32 0 53.5 15t34.5 39t18.5 54.5t5.5 62.5zM148 622v76h350v-76h-350z" />
    <glyph glyph-name="Obreve" unicode="&#x14e;" horiz-adv-x="789" 
d="M750 362q0 -81 -20 -146.5t-62 -115.5q-46 -55 -115 -85t-162 -30q-88 0 -154 27t-110 76.5t-66 119t-22 153.5t22.5 153.5t67.5 119.5t112 78t156 28t155 -27.5t110 -77.5t66 -119.5t22 -153.5zM558 364q0 51 -10.5 102.5t-35.5 87.5q-20 29 -48 45.5t-70 16.5
q-48 0 -79 -23t-51 -62q-17 -35 -25 -80t-8 -88q0 -49 7.5 -95t25.5 -81t49.5 -56.5t79.5 -21.5t80 21.5t50.5 56.5t26.5 81t8 96zM576 917q-10 -76 -57.5 -110t-123.5 -34q-38 0 -70.5 8.5t-56.5 26t-38.5 44.5t-15.5 65h74q3 -19 13.5 -31t25.5 -19.5t32.5 -10.5t35.5 -3
q39 0 67 13t42 51h72v0z" />
    <glyph glyph-name="obreve" unicode="&#x14f;" horiz-adv-x="648" 
d="M615 254q0 -64 -20.5 -113.5t-58.5 -83.5t-92 -51.5t-122 -17.5t-121.5 17.5t-90.5 51.5t-57 83.5t-20 113.5q0 59 19 106t54 81q80 77 221 77q67 0 120 -18t90.5 -51.5t57.5 -82.5t20 -112zM435 254q0 32 -5.5 62.5t-18.5 54t-34.5 38t-54.5 14.5t-54 -14.5t-33.5 -38
t-17.5 -54t-5 -62.5q0 -30 5 -61t18 -56q13 -26 34 -40t54 -14q32 0 53.5 15t34.5 39t18.5 54.5t5.5 62.5zM505 724q-10 -76 -57.5 -110t-123.5 -34q-38 0 -70.5 8.5t-56.5 26t-38.5 44.5t-15.5 65h74q3 -19 13.5 -31t25.5 -19.5t32.5 -10.5t35.5 -3q39 0 67 13t42 51h72v0z
" />
    <glyph glyph-name="Ohungarumlaut" unicode="&#x150;" horiz-adv-x="789" 
d="M750 362q0 -81 -20 -146.5t-62 -115.5q-46 -55 -115 -85t-162 -30q-88 0 -154 27t-110 76.5t-66 119t-22 153.5t22.5 153.5t67.5 119.5t112 78t156 28t155 -27.5t110 -77.5t66 -119.5t22 -153.5zM558 364q0 51 -10.5 102.5t-35.5 87.5q-20 29 -48 45.5t-70 16.5
q-48 0 -79 -23t-51 -62q-17 -35 -25 -80t-8 -88q0 -49 7.5 -95t25.5 -81t49.5 -56.5t79.5 -21.5t80 21.5t50.5 56.5t26.5 81t8 96zM557 777h-120l111 149h182zM299 777h-118l108 149h182z" />
    <glyph glyph-name="ohungarumlaut" unicode="&#x151;" horiz-adv-x="648" 
d="M615 254q0 -64 -20.5 -113.5t-58.5 -83.5t-92 -51.5t-122 -17.5t-121.5 17.5t-90.5 51.5t-57 83.5t-20 113.5q0 59 19 106t54 81q80 77 221 77q67 0 120 -18t90.5 -51.5t57.5 -82.5t20 -112zM435 254q0 32 -5.5 62.5t-18.5 54t-34.5 38t-54.5 14.5t-54 -14.5t-33.5 -38
t-17.5 -54t-5 -62.5q0 -30 5 -61t18 -56q13 -26 34 -40t54 -14q32 0 53.5 15t34.5 39t18.5 54.5t5.5 62.5zM487 584h-120l111 149h182zM229 584h-118l108 149h182z" />
    <glyph glyph-name="Racute" unicode="&#x154;" horiz-adv-x="733" 
d="M506 0q-7 22 -12.5 51t-10.5 77q-5 47 -10 79.5t-16.5 52.5t-32.5 28.5t-59 8.5h-102v-297h-187v723h311q55 0 97.5 -4t82.5 -21q51 -23 80.5 -62t29.5 -96q0 -45 -17.5 -79.5t-48.5 -57.5q-20 -15 -44 -24.5t-56 -16.5q44 -1 71 -12.5t43 -35.5t24.5 -62t14.5 -91
q5 -45 11.5 -84t23.5 -77h-193zM497 510q0 31 -12.5 49t-33.5 28t-47.5 13t-54.5 3h-86v-190h79q28 0 56 3t50 13t35.5 29t13.5 52zM398 776h-122l109 150h187z" />
    <glyph glyph-name="racute" unicode="&#x155;" horiz-adv-x="428" 
d="M420 362q-14 2 -26 3.5t-23 1.5q-73 0 -106 -44q-14 -20 -20 -46.5t-6 -62.5v-214h-175v370q0 38 -0.5 69t-2.5 66h168q0 -3 1 -17t2 -30.5t1.5 -31t0.5 -18.5q26 52 64 75.5t94 23.5h13.5t14.5 -2v-143v0zM265 583h-122l109 150h187z" />
    <glyph glyph-name="Rcommaaccent" unicode="&#x156;" horiz-adv-x="733" 
d="M506 0q-7 22 -12.5 51t-10.5 77q-5 47 -10 79.5t-16.5 52.5t-32.5 28.5t-59 8.5h-102v-297h-187v723h311q55 0 97.5 -4t82.5 -21q51 -23 80.5 -62t29.5 -96q0 -45 -17.5 -79.5t-48.5 -57.5q-20 -15 -44 -24.5t-56 -16.5q44 -1 71 -12.5t43 -35.5t24.5 -62t14.5 -91
q5 -45 11.5 -84t23.5 -77h-193zM497 510q0 31 -12.5 49t-33.5 28t-47.5 13t-54.5 3h-86v-190h79q28 0 56 3t50 13t35.5 29t13.5 52zM373 -215h-115l47 166h144z" />
    <glyph glyph-name="rcommaaccent" unicode="&#x157;" horiz-adv-x="428" 
d="M420 362q-14 2 -26 3.5t-23 1.5q-73 0 -106 -44q-14 -20 -20 -46.5t-6 -62.5v-214h-175v370q0 38 -0.5 69t-2.5 66h168q0 -3 1 -17t2 -30.5t1.5 -31t0.5 -18.5q26 52 64 75.5t94 23.5h13.5t14.5 -2v-143v0zM155 -215h-115l47 166h144z" />
    <glyph glyph-name="Rcaron" unicode="&#x158;" horiz-adv-x="733" 
d="M506 0q-7 22 -12.5 51t-10.5 77q-5 47 -10 79.5t-16.5 52.5t-32.5 28.5t-59 8.5h-102v-297h-187v723h311q55 0 97.5 -4t82.5 -21q51 -23 80.5 -62t29.5 -96q0 -45 -17.5 -79.5t-48.5 -57.5q-20 -15 -44 -24.5t-56 -16.5q44 -1 71 -12.5t43 -35.5t24.5 -62t14.5 -91
q5 -45 11.5 -84t23.5 -77h-193zM497 510q0 31 -12.5 49t-33.5 28t-47.5 13t-54.5 3h-86v-190h79q28 0 56 3t50 13t35.5 29t13.5 52zM447 776h-157l-117 148h118l80 -85l77 85h117z" />
    <glyph glyph-name="rcaron" unicode="&#x159;" horiz-adv-x="428" 
d="M420 362q-14 2 -26 3.5t-23 1.5q-73 0 -106 -44q-14 -20 -20 -46.5t-6 -62.5v-214h-175v370q0 38 -0.5 69t-2.5 66h168q0 -3 1 -17t2 -30.5t1.5 -31t0.5 -18.5q26 52 64 75.5t94 23.5h13.5t14.5 -2v-143v0zM314 583h-157l-117 148h118l80 -85l77 85h117z" />
    <glyph glyph-name="Sacute" unicode="&#x15a;" horiz-adv-x="708" 
d="M670 219q0 -66 -30 -111t-77 -72t-104.5 -38.5t-112.5 -11.5q-66 0 -122.5 12.5t-97.5 41t-64 73t-24 109.5h187q3 -119 125 -119q23 0 45.5 6t40 18t28.5 30t11 43q0 19 -8 32.5t-22 23t-33 17t-41 13.5l-117 34q-54 16 -92.5 35t-62.5 43t-35 53t-11 64q0 59 25.5 101
t68.5 69t99.5 39.5t117.5 12.5q62 0 114.5 -11.5t90.5 -37t60 -66.5t22 -100h-187q-7 103 -111 103q-21 0 -40.5 -5t-34.5 -15.5t-24 -26.5t-9 -37q0 -26 28.5 -46.5t97.5 -41.5l91 -28q43 -14 81 -29.5t66.5 -38.5t44.5 -56t16 -82zM381 776h-122l109 150h187z" />
    <glyph glyph-name="sacute" unicode="&#x15b;" horiz-adv-x="567" 
d="M535 153q0 -46 -22 -77.5t-57.5 -51t-81 -28t-92.5 -8.5t-92 7.5t-80 27t-56.5 53t-21.5 85.5h170q2 -44 21.5 -65.5t61.5 -21.5q16 0 31 4t27 12t19 20t7 28q0 23 -21.5 37.5t-68.5 25.5l-81 19q-30 7 -57.5 17.5t-48.5 26.5t-33.5 39.5t-12.5 56.5q0 47 22.5 77.5
t57 48t75.5 24.5t78 7q41 0 83 -7t76.5 -25.5t57 -50t24.5 -80.5h-164q-1 38 -21.5 58t-54.5 20q-27 0 -51 -13t-24 -42q0 -21 14 -33t42 -19l109 -26q86 -20 125.5 -53t39.5 -93zM308 583h-122l109 150h187z" />
    <glyph glyph-name="Scircumflex" unicode="&#x15c;" horiz-adv-x="708" 
d="M670 219q0 -66 -30 -111t-77 -72t-104.5 -38.5t-112.5 -11.5q-66 0 -122.5 12.5t-97.5 41t-64 73t-24 109.5h187q3 -119 125 -119q23 0 45.5 6t40 18t28.5 30t11 43q0 19 -8 32.5t-22 23t-33 17t-41 13.5l-117 34q-54 16 -92.5 35t-62.5 43t-35 53t-11 64q0 59 25.5 101
t68.5 69t99.5 39.5t117.5 12.5q62 0 114.5 -11.5t90.5 -37t60 -66.5t22 -100h-187q-7 103 -111 103q-21 0 -40.5 -5t-34.5 -15.5t-24 -26.5t-9 -37q0 -26 28.5 -46.5t97.5 -41.5l91 -28q43 -14 81 -29.5t66.5 -38.5t44.5 -56t16 -82zM429 776l-76 84l-78 -84h-119l118 149
h157l117 -149h-119z" />
    <glyph glyph-name="scircumflex" unicode="&#x15d;" horiz-adv-x="567" 
d="M535 153q0 -46 -22 -77.5t-57.5 -51t-81 -28t-92.5 -8.5t-92 7.5t-80 27t-56.5 53t-21.5 85.5h170q2 -44 21.5 -65.5t61.5 -21.5q16 0 31 4t27 12t19 20t7 28q0 23 -21.5 37.5t-68.5 25.5l-81 19q-30 7 -57.5 17.5t-48.5 26.5t-33.5 39.5t-12.5 56.5q0 47 22.5 77.5
t57 48t75.5 24.5t78 7q41 0 83 -7t76.5 -25.5t57 -50t24.5 -80.5h-164q-1 38 -21.5 58t-54.5 20q-27 0 -51 -13t-24 -42q0 -21 14 -33t42 -19l109 -26q86 -20 125.5 -53t39.5 -93zM357 583l-76 84l-78 -84h-119l118 149h157l117 -149h-119z" />
    <glyph glyph-name="Scedilla" unicode="&#x15e;" horiz-adv-x="708" 
d="M474 -132q0 -24 -12 -40t-31 -26t-43 -14t-47 -4q-29 0 -56.5 5.5t-57.5 16.5l13 47q23 -11 45 -18t45 -7q21 0 37 8t16 30q0 20 -14 28.5t-34 8.5q-8 0 -16.5 -2t-17.5 -5l-21 15l39 76q-61 2 -112.5 16t-88.5 42.5t-58 72t-22 104.5h187q3 -119 125 -119q23 0 45.5 6
t40 18t28.5 30t11 43q0 19 -8 32.5t-22 23t-33 17t-41 13.5l-117 34q-54 16 -92.5 35t-62.5 43t-35 53t-11 64q0 59 25.5 101t68.5 69t99.5 39.5t117.5 12.5q62 0 114.5 -11.5t90.5 -37t60 -66.5t22 -100h-187q-7 103 -111 103q-21 0 -40.5 -5t-34.5 -15.5t-24 -26.5t-9 -37
q0 -26 28.5 -46.5t97.5 -41.5l91 -28q43 -14 81 -29.5t66.5 -38.5t44.5 -56t16 -82q0 -63 -27 -106.5t-70 -70.5t-96.5 -40t-106.5 -15l-23 -48q8 2 18 2.5t14 0.5q40 0 67.5 -18t27.5 -56z" />
    <glyph glyph-name="scedilla" unicode="&#x15f;" horiz-adv-x="567" 
d="M535 153q0 -44 -20 -74.5t-52.5 -50t-74.5 -29t-87 -10.5l-23 -50q8 2 18 2.5t14 0.5q40 0 67.5 -18t27.5 -56q0 -24 -12 -40t-31 -26t-43 -14t-47 -4q-29 0 -56.5 5.5t-57.5 16.5l13 47q23 -11 45 -18t45 -7q21 0 37 8t16 30q0 20 -14 28.5t-34 8.5q-8 0 -16.5 -2
t-17.5 -5l-21 15l41 78q-43 2 -82.5 11t-70 29t-49 52t-18.5 80h170q2 -44 21.5 -65.5t61.5 -21.5q16 0 31 4t27 12t19 20t7 28q0 23 -21.5 37.5t-68.5 25.5l-81 19q-30 7 -57.5 17.5t-48.5 26.5t-33.5 39.5t-12.5 56.5q0 47 22.5 77.5t57 48t75.5 24.5t78 7q41 0 83 -7
t76.5 -25.5t57 -50t24.5 -80.5h-164q-1 38 -21.5 58t-54.5 20q-27 0 -51 -13t-24 -42q0 -21 14 -33t42 -19l109 -26q86 -20 125.5 -53t39.5 -93z" />
    <glyph glyph-name="uni0162" unicode="&#x162;" horiz-adv-x="640" 
d="M414 597v-597h-188v597h-223v126h634v-126h-223zM323 -215h-115l47 166h144z" />
    <glyph glyph-name="uni0163" unicode="&#x163;" horiz-adv-x="406" 
d="M269 395v-209q0 -44 13.5 -62t58.5 -18q11 0 23.5 1t25.5 3v-109q-30 -4 -58 -6.5t-55 -2.5q-46 0 -79.5 6.5t-55 23.5t-31.5 46t-10 75v252h-95v110h95v90l168 66v-156h122v-110h-122zM209 -215h-115l47 166h144z" />
    <glyph glyph-name="Tcaron" unicode="&#x164;" horiz-adv-x="640" 
d="M414 597v-597h-188v597h-223v126h634v-126h-223zM397 776h-157l-117 148h118l80 -85l77 85h117z" />
    <glyph glyph-name="tcaron" unicode="&#x165;" horiz-adv-x="406" 
d="M269 395v-209q0 -44 13.5 -62t58.5 -18q11 0 23.5 1t25.5 3v-109q-30 -4 -58 -6.5t-55 -2.5q-46 0 -79.5 6.5t-55 23.5t-31.5 46t-10 75v252h-95v110h95v90l168 66v-156h122v-110h-122zM524 457h-106l39 266h142z" />
    <glyph glyph-name="Tbar" unicode="&#x166;" horiz-adv-x="640" 
d="M96 349v91h130v157h-223v126h634v-126h-223v-157h131v-91h-131v-349h-188v349h-130z" />
    <glyph glyph-name="tbar" unicode="&#x167;" horiz-adv-x="406" 
d="M269 395v-77h92v-85h-92v-35q0 -20 2 -42t12 -33q8 -9 21.5 -13t36.5 -4q11 0 22 1.5t27 2.5v-109q-30 -4 -58 -6.5t-55 -2.5q-46 0 -79.5 6.5t-55 23.5t-31.5 46t-10 75v90h-65v85h65v77h-95v110h95v90l168 66v-156h122v-110h-122z" />
    <glyph glyph-name="Utilde" unicode="&#x168;" horiz-adv-x="796" 
d="M723 299q0 -75 -16.5 -129t-51.5 -93q-83 -93 -262 -93q-43 0 -84 6t-77 20t-66 37t-51 58q-27 45 -34.5 92t-7.5 102v424h188v-438q0 -39 6 -72t22 -56t42.5 -36t68.5 -13t68.5 13.5t42.5 37.5t22 57t6 72v435h184v-424v0zM605 919q-3 -27 -13 -51.5t-26.5 -43
t-38.5 -29.5t-49 -11q-22 0 -44 5.5t-50 14.5q-23 8 -39 11.5t-31 3.5q-36 0 -44 -35h-75q5 58 41 96.5t92 38.5q19 0 37 -4.5t47 -14.5t46.5 -14.5t31.5 -4.5q17 0 25.5 10.5t10.5 27.5h79v0z" />
    <glyph glyph-name="utilde" unicode="&#x169;" horiz-adv-x="655" 
d="M421 0q0 3 -1 14.5t-1.5 25t-1 24.5t-0.5 13q-35 -45 -72.5 -65t-95.5 -20q-103 0 -150 59q-19 24 -28 56.5t-9 77.5v320h175v-274q0 -27 2 -51.5t10 -42.5t25 -29t47 -11q31 0 50 13t30 35q9 19 12 41.5t3 51.5v267h175v-325q0 -42 0.5 -88.5t2.5 -91.5h-173zM533 726
q-3 -27 -13 -51.5t-26.5 -43t-38.5 -29.5t-49 -11q-22 0 -44 5.5t-50 14.5q-23 8 -39 11.5t-31 3.5q-36 0 -44 -35h-75q5 58 41 96.5t92 38.5q19 0 37 -4.5t47 -14.5t46.5 -14.5t31.5 -4.5q17 0 25.5 10.5t10.5 27.5h79v0z" />
    <glyph glyph-name="Umacron" unicode="&#x16a;" horiz-adv-x="796" 
d="M723 299q0 -75 -16.5 -129t-51.5 -93q-83 -93 -262 -93q-43 0 -84 6t-77 20t-66 37t-51 58q-27 45 -34.5 92t-7.5 102v424h188v-438q0 -39 6 -72t22 -56t42.5 -36t68.5 -13t68.5 13.5t42.5 37.5t22 57t6 72v435h184v-424v0zM225 805v76h350v-76h-350z" />
    <glyph glyph-name="umacron" unicode="&#x16b;" horiz-adv-x="655" 
d="M421 0q0 3 -1 14.5t-1.5 25t-1 24.5t-0.5 13q-35 -45 -72.5 -65t-95.5 -20q-103 0 -150 59q-19 24 -28 56.5t-9 77.5v320h175v-274q0 -27 2 -51.5t10 -42.5t25 -29t47 -11q31 0 50 13t30 35q9 19 12 41.5t3 51.5v267h175v-325q0 -42 0.5 -88.5t2.5 -91.5h-173zM153 622
v76h350v-76h-350z" />
    <glyph glyph-name="Ubreve" unicode="&#x16c;" horiz-adv-x="796" 
d="M723 299q0 -75 -16.5 -129t-51.5 -93q-83 -93 -262 -93q-43 0 -84 6t-77 20t-66 37t-51 58q-27 45 -34.5 92t-7.5 102v424h188v-438q0 -39 6 -72t22 -56t42.5 -36t68.5 -13t68.5 13.5t42.5 37.5t22 57t6 72v435h184v-424v0zM583 917q-10 -76 -57.5 -110t-123.5 -34
q-38 0 -70.5 8.5t-56.5 26t-38.5 44.5t-15.5 65h74q3 -19 13.5 -31t25.5 -19.5t32.5 -10.5t35.5 -3q39 0 67 13t42 51h72v0z" />
    <glyph glyph-name="ubreve" unicode="&#x16d;" horiz-adv-x="655" 
d="M421 0q0 3 -1 14.5t-1.5 25t-1 24.5t-0.5 13q-35 -45 -72.5 -65t-95.5 -20q-103 0 -150 59q-19 24 -28 56.5t-9 77.5v320h175v-274q0 -27 2 -51.5t10 -42.5t25 -29t47 -11q31 0 50 13t30 35q9 19 12 41.5t3 51.5v267h175v-325q0 -42 0.5 -88.5t2.5 -91.5h-173zM510 724
q-10 -76 -57.5 -110t-123.5 -34q-38 0 -70.5 8.5t-56.5 26t-38.5 44.5t-15.5 65h74q3 -19 13.5 -31t25.5 -19.5t32.5 -10.5t35.5 -3q39 0 67 13t42 51h72v0z" />
    <glyph glyph-name="Uring" unicode="&#x16e;" horiz-adv-x="796" 
d="M723 299q0 -75 -16.5 -129t-51.5 -93q-83 -93 -262 -93q-43 0 -84 6t-77 20t-66 37t-51 58q-27 45 -34.5 92t-7.5 102v424h188v-438q0 -39 6 -72t22 -56t42.5 -36t68.5 -13t68.5 13.5t42.5 37.5t22 57t6 72v435h184v-424v0zM290 859q0 23 8.5 43t23.5 34.5t35 23t43 8.5
t43 -8.5t35 -23t23.5 -34.5t8.5 -43t-8.5 -42.5t-23.5 -34t-35 -23t-43 -8.5t-43 8.5t-35 23t-23.5 34t-8.5 42.5zM351 859q0 -22 14 -37t35 -15t35 15t14 37q0 23 -14 38t-35 15t-35 -15t-14 -38z" />
    <glyph glyph-name="uring" unicode="&#x16f;" horiz-adv-x="655" 
d="M421 0q0 3 -1 14.5t-1.5 25t-1 24.5t-0.5 13q-35 -45 -72.5 -65t-95.5 -20q-103 0 -150 59q-19 24 -28 56.5t-9 77.5v320h175v-274q0 -27 2 -51.5t10 -42.5t25 -29t47 -11q31 0 50 13t30 35q9 19 12 41.5t3 51.5v267h175v-325q0 -42 0.5 -88.5t2.5 -91.5h-173zM217 676
q0 23 8.5 43t23.5 34.5t35 23t43 8.5t43 -8.5t35 -23t23.5 -34.5t8.5 -43t-8.5 -42.5t-23.5 -34t-35 -23t-43 -8.5t-43 8.5t-35 23t-23.5 34t-8.5 42.5zM278 676q0 -22 14 -37t35 -15t35 15t14 37q0 23 -14 38t-35 15t-35 -15t-14 -38z" />
    <glyph glyph-name="Uhungarumlaut" unicode="&#x170;" horiz-adv-x="796" 
d="M723 299q0 -75 -16.5 -129t-51.5 -93q-83 -93 -262 -93q-43 0 -84 6t-77 20t-66 37t-51 58q-27 45 -34.5 92t-7.5 102v424h188v-438q0 -39 6 -72t22 -56t42.5 -36t68.5 -13t68.5 13.5t42.5 37.5t22 57t6 72v435h184v-424v0zM564 777h-120l111 149h182zM306 777h-118
l108 149h182z" />
    <glyph glyph-name="uhungarumlaut" unicode="&#x171;" horiz-adv-x="655" 
d="M421 0q0 3 -1 14.5t-1.5 25t-1 24.5t-0.5 13q-35 -45 -72.5 -65t-95.5 -20q-103 0 -150 59q-19 24 -28 56.5t-9 77.5v320h175v-274q0 -27 2 -51.5t10 -42.5t25 -29t47 -11q31 0 50 13t30 35q9 19 12 41.5t3 51.5v267h175v-325q0 -42 0.5 -88.5t2.5 -91.5h-173zM492 584
h-120l111 149h182zM234 584h-118l108 149h182z" />
    <glyph glyph-name="Uogonek" unicode="&#x172;" horiz-adv-x="796" 
d="M493 -185q-12 -7 -35 -15t-55 -8q-39 0 -69.5 19.5t-30.5 60.5q0 37 22 64.5t52 47.5q-41 1 -79.5 7.5t-72.5 20.5t-62 37t-48 56q-27 45 -34.5 92t-7.5 102v424h188v-438q0 -39 6 -72t22 -56t42.5 -36t68.5 -13t68.5 13.5t42.5 37.5t22 57t6 72v435h184v-424
q0 -75 -16.5 -129t-51.5 -93q-63 -72 -190 -89q-32 -20 -50.5 -39.5t-18.5 -45.5q0 -24 16 -37.5t40 -13.5q11 0 19.5 2.5t18.5 7.5l3 -47v0z" />
    <glyph glyph-name="uogonek" unicode="&#x173;" horiz-adv-x="655" 
d="M601 -185q-12 -7 -35 -15t-55 -8q-39 0 -69.5 19.5t-30.5 60.5q0 22 9 41.5t23 35t32.5 28.5t37.5 23h-92q0 3 -1 14.5t-1.5 25t-1 24.5t-0.5 13q-35 -45 -72.5 -65t-95.5 -20q-103 0 -150 59q-19 24 -28 56.5t-9 77.5v320h175v-274q0 -27 2 -51.5t10 -42.5t25 -29
t47 -11q31 0 50 13t30 35q9 19 12 41.5t3 51.5v267h175v-325q0 -47 0.5 -90.5t2.5 -89.5q-41 -23 -65.5 -45t-24.5 -52q0 -24 16 -37.5t40 -13.5q11 0 19.5 2.5t18.5 7.5l3 -47v0z" />
    <glyph glyph-name="Wcircumflex" unicode="&#x174;" horiz-adv-x="1119" 
d="M929 0h-220l-145 565l-151 -565h-222l-189 723h191l123 -552l144 552h220l142 -552l118 552h177zM640 776l-76 84l-78 -84h-119l118 149h157l117 -149h-119z" />
    <glyph glyph-name="wcircumflex" unicode="&#x175;" horiz-adv-x="951" 
d="M774 0h-182l-110 361l-116 -361h-185l-178 505h186l95 -354l111 354h187l105 -354l97 354h164zM561 583l-76 84l-78 -84h-119l118 149h157l117 -149h-119z" />
    <glyph glyph-name="Ycircumflex" unicode="&#x176;" horiz-adv-x="709" 
d="M439 270v-270h-188v272l-268 451h209l161 -321l166 321h191zM429 776l-76 84l-78 -84h-119l118 149h157l117 -149h-119z" />
    <glyph glyph-name="ycircumflex" unicode="&#x177;" horiz-adv-x="603" 
d="M314 -190h-173l88 194l-233 501h194l124 -352l119 352h174zM392 583l-76 84l-78 -84h-119l118 149h157l117 -149h-119z" />
    <glyph glyph-name="Zacute" unicode="&#x179;" horiz-adv-x="643" 
d="M20 0v130l375 468h-352v125h567v-131l-380 -469h393v-123h-603zM352 776h-122l109 150h187z" />
    <glyph glyph-name="zacute" unicode="&#x17a;" horiz-adv-x="513" 
d="M27 0v109l256 287h-243v109h439v-112l-247 -286h254v-107h-459zM284 583h-122l109 150h187z" />
    <glyph glyph-name="Zdotaccent" unicode="&#x17b;" horiz-adv-x="643" 
d="M20 0v130l375 468h-352v125h567v-131l-380 -469h393v-123h-603zM250 790v129h147v-129h-147z" />
    <glyph glyph-name="zdotaccent" unicode="&#x17c;" horiz-adv-x="513" 
d="M27 0v109l256 287h-243v109h439v-112l-247 -286h254v-107h-459zM182 597v129h147v-129h-147z" />
    <glyph glyph-name="Scommaaccent" unicode="&#x218;" horiz-adv-x="708" 
d="M670 219q0 -66 -30 -111t-77 -72t-104.5 -38.5t-112.5 -11.5q-66 0 -122.5 12.5t-97.5 41t-64 73t-24 109.5h187q3 -119 125 -119q23 0 45.5 6t40 18t28.5 30t11 43q0 19 -8 32.5t-22 23t-33 17t-41 13.5l-117 34q-54 16 -92.5 35t-62.5 43t-35 53t-11 64q0 59 25.5 101
t68.5 69t99.5 39.5t117.5 12.5q62 0 114.5 -11.5t90.5 -37t60 -66.5t22 -100h-187q-7 103 -111 103q-21 0 -40.5 -5t-34.5 -15.5t-24 -26.5t-9 -37q0 -26 28.5 -46.5t97.5 -41.5l91 -28q43 -14 81 -29.5t66.5 -38.5t44.5 -56t16 -82zM354 -215h-115l47 166h144z" />
    <glyph glyph-name="scommaaccent" unicode="&#x219;" horiz-adv-x="567" 
d="M535 153q0 -46 -22 -77.5t-57.5 -51t-81 -28t-92.5 -8.5t-92 7.5t-80 27t-56.5 53t-21.5 85.5h170q2 -44 21.5 -65.5t61.5 -21.5q16 0 31 4t27 12t19 20t7 28q0 23 -21.5 37.5t-68.5 25.5l-81 19q-30 7 -57.5 17.5t-48.5 26.5t-33.5 39.5t-12.5 56.5q0 47 22.5 77.5
t57 48t75.5 24.5t78 7q41 0 83 -7t76.5 -25.5t57 -50t24.5 -80.5h-164q-1 38 -21.5 58t-54.5 20q-27 0 -51 -13t-24 -42q0 -21 14 -33t42 -19l109 -26q86 -20 125.5 -53t39.5 -93zM285 -215h-115l47 166h144z" />
    <glyph glyph-name="uni021A" unicode="&#x21a;" horiz-adv-x="640" 
d="M414 597v-597h-188v597h-223v126h634v-126h-223zM323 -215h-115l47 166h144z" />
    <glyph glyph-name="uni021B" unicode="&#x21b;" horiz-adv-x="406" 
d="M269 395v-209q0 -44 13.5 -62t58.5 -18q11 0 23.5 1t25.5 3v-109q-30 -4 -58 -6.5t-55 -2.5q-46 0 -79.5 6.5t-55 23.5t-31.5 46t-10 75v252h-95v110h95v90l168 66v-156h122v-110h-122zM209 -215h-115l47 166h144z" />
    <glyph glyph-name="dotlessj" unicode="&#x237;" horiz-adv-x="303" 
d="M239 -35q0 -55 -11.5 -84.5t-37.5 -46.5q-21 -14 -50.5 -20t-80.5 -6q-29 0 -46 0.5t-29 1.5v111q8 -2 13.5 -2h10.5q35 1 45.5 23.5t10.5 56.5v506h175v-540v0z" />
    <glyph glyph-name="caron" unicode="&#x2c7;" horiz-adv-x="330" 
d="M243 583h-157l-117 148h118l80 -85l77 85h117z" />
    <glyph glyph-name="uni02C9" unicode="&#x2c9;" horiz-adv-x="330" 
d="M-10 805v76h350v-76h-350z" />
    <glyph glyph-name="breve" unicode="&#x2d8;" horiz-adv-x="331" 
d="M347 724q-10 -76 -57.5 -110t-123.5 -34q-38 0 -70.5 8.5t-56.5 26t-38.5 44.5t-15.5 65h74q3 -19 13.5 -31t25.5 -19.5t32.5 -10.5t35.5 -3q39 0 67 13t42 51h72v0z" />
    <glyph glyph-name="dotaccent" unicode="&#x2d9;" horiz-adv-x="331" 
d="M92 597v129h147v-129h-147z" />
    <glyph glyph-name="ring" unicode="&#x2da;" horiz-adv-x="330" 
d="M55 676q0 23 8.5 43t23.5 34.5t35 23t43 8.5t43 -8.5t35 -23t23.5 -34.5t8.5 -43t-8.5 -42.5t-23.5 -34t-35 -23t-43 -8.5t-43 8.5t-35 23t-23.5 34t-8.5 42.5zM116 676q0 -22 14 -37t35 -15t35 15t14 37q0 23 -14 38t-35 15t-35 -15t-14 -38z" />
    <glyph glyph-name="ogonek" unicode="&#x2db;" horiz-adv-x="330" 
d="M240 -185q-12 -7 -35 -15t-55 -8q-39 0 -69.5 19.5t-30.5 60.5q0 22 9 41.5t23 35t32.5 28.5t37.5 23h80q-40 -23 -64.5 -45t-24.5 -52q0 -24 16 -37.5t40 -13.5q11 0 19.5 2.5t18.5 7.5l3 -47v0z" />
    <glyph glyph-name="hungarumlaut" unicode="&#x2dd;" horiz-adv-x="330" 
d="M329 584h-120l111 149h182zM71 584h-118l108 149h182z" />
    <glyph glyph-name="uni0394" unicode="&#x394;" horiz-adv-x="755" 
d="M-2 0l282 723h186l291 -723h-759zM375 580l-166 -457h332z" />
    <glyph glyph-name="uni03A9" unicode="&#x3a9;" horiz-adv-x="793" 
d="M746 399q0 -42 -11 -83.5t-31 -78t-47.5 -65.5t-61.5 -47h146v-125h-292v125q50 34 78.5 97.5t28.5 149.5q0 48 -8 92t-26.5 78t-49 54t-75.5 20t-76 -20t-49.5 -54t-26.5 -78t-8 -92q0 -86 28.5 -149.5t78.5 -97.5v-125h-292v125h146q-33 18 -61 47t-48 65.5t-31 78
t-11 83.5q0 69 22 130.5t66 108.5t109.5 74.5t152.5 27.5q86 0 151.5 -27.5t109.5 -74.5t66 -108.5t22 -130.5z" />
    <glyph glyph-name="uni03BC" unicode="&#x3bc;" horiz-adv-x="655" 
d="M424 0l-3 68q-17 -36 -40 -55.5t-61 -19.5q-56 0 -82 53v-236h-175v694h175v-278q0 -24 2 -47.5t10.5 -41.5t25.5 -29t47 -11q29 0 47.5 11t29 30t14.5 43t4 51v272h174v-324q0 -48 0.5 -90t2.5 -90h-171z" />
    <glyph glyph-name="pi" unicode="&#x3c0;" horiz-adv-x="753" 
d="M705 15q-25 -11 -55.5 -17.5t-65.5 -6.5q-74 0 -104 41t-30 108v237h-150v-377h-173v377h-77v127h655v-127h-86v-217q0 -27 10.5 -39t31.5 -12q13 0 23 2.5t21 7.5v-104z" />
    <glyph glyph-name="Wgrave" unicode="&#x1e80;" horiz-adv-x="1119" 
d="M929 0h-220l-145 565l-151 -565h-222l-189 723h191l123 -552l144 552h220l142 -552l118 552h177zM558 776l-175 150h189l106 -150h-120z" />
    <glyph glyph-name="wgrave" unicode="&#x1e81;" horiz-adv-x="951" 
d="M774 0h-182l-110 361l-116 -361h-185l-178 505h186l95 -354l111 354h187l105 -354l97 354h164zM474 583l-175 150h189l106 -150h-120z" />
    <glyph glyph-name="Wacute" unicode="&#x1e82;" horiz-adv-x="1119" 
d="M929 0h-220l-145 565l-151 -565h-222l-189 723h191l123 -552l144 552h220l142 -552l118 552h177zM599 776h-122l109 150h187z" />
    <glyph glyph-name="wacute" unicode="&#x1e83;" horiz-adv-x="951" 
d="M774 0h-182l-110 361l-116 -361h-185l-178 505h186l95 -354l111 354h187l105 -354l97 354h164zM515 583h-122l109 150h187z" />
    <glyph glyph-name="Wdieresis" unicode="&#x1e84;" horiz-adv-x="1119" 
d="M929 0h-220l-145 565l-151 -565h-222l-189 723h191l123 -552l144 552h220l142 -552l118 552h177zM611 780v129h149v-129h-149zM369 780v129h147v-129h-147z" />
    <glyph glyph-name="wdieresis" unicode="&#x1e85;" horiz-adv-x="951" 
d="M774 0h-182l-110 361l-116 -361h-185l-178 505h186l95 -354l111 354h187l105 -354l97 354h164zM529 597v129h149v-129h-149zM287 597v129h147v-129h-147z" />
    <glyph glyph-name="Ygrave" unicode="&#x1ef2;" horiz-adv-x="709" 
d="M439 270v-270h-188v272l-268 451h209l161 -321l166 321h191zM346 776l-175 150h189l106 -150h-120z" />
    <glyph glyph-name="ygrave" unicode="&#x1ef3;" horiz-adv-x="603" 
d="M314 -190h-173l88 194l-233 501h194l124 -352l119 352h174zM298 583l-175 150h189l106 -150h-120z" />
    <glyph glyph-name="fraction" unicode="&#x2044;" horiz-adv-x="234" 
d="M-12 -25h-116l375 776h115z" />
    <glyph glyph-name="zero.superior" unicode="&#x2070;" horiz-adv-x="424" 
d="M399 680q0 -45 -10.5 -85.5t-33 -71t-58.5 -48.5t-87 -18t-86.5 18.5t-57 49t-31.5 71t-10 85.5q0 44 10 83.5t32.5 69.5t58 47.5t86.5 17.5q52 0 87.5 -17.5t57.5 -47.5t32 -69.5t10 -84.5zM275 676q0 24 -1.5 49.5t-7.5 46.5t-18.5 35t-34.5 14q-23 0 -35.5 -14
t-19.5 -35t-8.5 -47t-1.5 -50q0 -23 2 -47.5t8 -44.5t18.5 -33.5t33.5 -13.5q22 0 35 13.5t20 34t8.5 45t1.5 47.5z" />
    <glyph glyph-name="four.superior" unicode="&#x2074;" horiz-adv-x="424" 
d="M346 553v-87h-117v87h-209v90l179 247h147v-260h65v-77h-65zM231 791l-113 -161h113v161z" />
    <glyph glyph-name="five.superior" unicode="&#x2075;" horiz-adv-x="424" 
d="M400 613q0 -79 -50 -117.5t-133 -38.5q-36 0 -68 6t-56 21t-38.5 39t-14.5 60h122q2 -24 17 -35.5t39 -11.5q32 0 45.5 21.5t13.5 53.5q0 29 -13.5 48.5t-42.5 19.5q-20 0 -34 -9.5t-21 -29.5h-121l10 250h323v-80h-214l-4 -92q32 40 97 40q34 0 60.5 -11t45 -30.5
t28 -46t9.5 -57.5z" />
    <glyph glyph-name="six.superior" unicode="&#x2076;" horiz-adv-x="424" 
d="M399 613q0 -35 -13 -64t-36.5 -49.5t-56 -31.5t-71.5 -11q-66 0 -106 24t-61 66q-13 27 -19 60t-6 69q0 46 10.5 86.5t34 71t60.5 48t90 17.5q68 0 111 -29.5t48 -87.5h-116q-6 41 -48 41q-21 0 -34 -10.5t-21.5 -27t-12 -38t-4.5 -43.5q37 46 106 46q31 0 57.5 -9.5
t46 -27.5t30.5 -43.5t11 -56.5zM282 606q0 30 -15.5 49.5t-45.5 19.5q-33 0 -48.5 -20.5t-15.5 -49.5q0 -30 16.5 -49.5t46.5 -19.5t46 19.5t16 50.5z" />
    <glyph glyph-name="seven.superior" unicode="&#x2077;" horiz-adv-x="424" 
d="M218 466h-140l182 341h-219v83h345v-82z" />
    <glyph glyph-name="eight.superior" unicode="&#x2078;" horiz-adv-x="424" 
d="M399 586q0 -33 -14.5 -57.5t-39 -40.5t-58 -23.5t-71.5 -7.5q-39 0 -73.5 7t-60.5 22.5t-41 39.5t-15 58q0 39 22 64t59 39q-29 11 -48.5 33.5t-19.5 59.5q0 30 14 52.5t38 37.5t56 22t69 7q36 0 68 -7t55 -21t36.5 -36t13.5 -52q0 -35 -18 -59t-49 -37q32 -11 54.5 -35
t22.5 -66zM273 774q0 26 -17 39.5t-41 13.5t-42 -14t-18 -39q0 -26 17.5 -38.5t41.5 -12.5q23 0 41 13t18 38zM280 593q0 30 -19.5 44.5t-47.5 14.5q-29 0 -47.5 -15t-18.5 -44t18.5 -45t47.5 -16t48 15.5t19 45.5z" />
    <glyph glyph-name="nine.superior" unicode="&#x2079;" horiz-adv-x="424" 
d="M397 687q0 -50 -9.5 -92t-32 -73t-60 -48t-92.5 -17q-75 0 -121 31t-50 89h119q2 -20 14.5 -30.5t39.5 -10.5q23 0 37.5 10.5t22 28t10.5 39.5t4 45q-33 -42 -102 -42q-66 0 -107.5 36.5t-41.5 98.5q0 34 13.5 61.5t37 46.5t56.5 29t72 10q70 0 111.5 -26.5t60.5 -74.5
q10 -24 14 -52t4 -59zM273 757q0 29 -17 46t-46 17q-31 0 -47.5 -17.5t-16.5 -45.5q0 -29 16 -47.5t45 -18.5q30 0 48 18t18 48z" />
    <glyph glyph-name="zero.inferior" unicode="&#x2080;" horiz-adv-x="424" 
d="M399 47q0 -45 -10.5 -85.5t-33 -71t-58.5 -48.5t-87 -18t-86.5 18.5t-57 49t-31.5 71t-10 85.5q0 44 10 83.5t32.5 69.5t58 47.5t86.5 17.5q52 0 87.5 -17.5t57.5 -47.5t32 -69.5t10 -84.5zM275 43q0 24 -1.5 49.5t-7.5 46.5t-18.5 35t-34.5 14q-23 0 -35.5 -14
t-19.5 -35t-8.5 -47t-1.5 -50q0 -23 2 -47.5t8 -44.5t18.5 -33.5t33.5 -13.5q22 0 35 13.5t20 34t8.5 45t1.5 47.5z" />
    <glyph glyph-name="one.inferior" unicode="&#x2081;" horiz-adv-x="424" 
d="M174 -167v307q-24 -15 -47 -25.5t-54 -20.5v96q20 6 35.5 12.5t29 14t26 17.5t27.5 23h107v-424h-124z" />
    <glyph glyph-name="two.inferior" unicode="&#x2082;" horiz-adv-x="424" 
d="M31 -167v82l20 13q33 21 69.5 47.5t68 55.5t52 58t20.5 53q0 21 -13 32.5t-36 11.5q-24 0 -38 -15.5t-14 -38.5v-4h-123v4q1 36 15 61.5t38 41.5t56.5 23.5t69.5 7.5t68.5 -7.5t54 -22.5t35 -38.5t12.5 -55.5q0 -29 -13 -56t-35.5 -52.5t-52.5 -50.5t-64 -49l-25 -18h193
v-83h-358z" />
    <glyph glyph-name="three.inferior" unicode="&#x2083;" horiz-adv-x="424" 
d="M397 -48q0 -36 -16 -60.5t-42.5 -39.5t-61 -21.5t-71.5 -6.5q-41 0 -74.5 7.5t-58 24t-38 41t-13.5 59.5v4h125v-4q0 -26 17 -39.5t44 -13.5t46.5 13t19.5 42t-22.5 41.5t-59.5 12.5h-19.5t-20.5 -2v78q10 -1 16.5 -1h12.5q39 0 62 11.5t23 42.5q0 23 -15 35t-39 12
q-21 0 -38.5 -11.5t-17.5 -38.5v-4h-125v4q0 33 15 57t40 40t58.5 23.5t69.5 7.5q33 0 64 -6t55 -20t39 -36.5t15 -55.5q0 -35 -17.5 -57t-54.5 -38q36 -11 59 -35.5t23 -65.5z" />
    <glyph glyph-name="four.inferior" unicode="&#x2084;" horiz-adv-x="424" 
d="M346 -80v-87h-117v87h-209v90l179 247h147v-260h65v-77h-65zM231 158l-113 -161h113v161z" />
    <glyph glyph-name="five.inferior" unicode="&#x2085;" horiz-adv-x="424" 
d="M400 -20q0 -79 -50 -117.5t-133 -38.5q-36 0 -68 6t-56 21t-38.5 39t-14.5 60h122q2 -24 17 -35.5t39 -11.5q32 0 45.5 21.5t13.5 53.5q0 29 -13.5 48.5t-42.5 19.5q-20 0 -34 -9.5t-21 -29.5h-121l10 250h323v-80h-214l-4 -92q32 40 97 40q34 0 60.5 -11t45 -30.5
t28 -46t9.5 -57.5z" />
    <glyph glyph-name="six.inferior" unicode="&#x2086;" horiz-adv-x="424" 
d="M399 -20q0 -35 -13 -64t-36.5 -49.5t-56 -31.5t-71.5 -11q-66 0 -106 24t-61 66q-13 27 -19 60t-6 69q0 46 10.5 86.5t34 71t60.5 48t90 17.5q68 0 111 -29.5t48 -87.5h-116q-6 41 -48 41q-21 0 -34 -10.5t-21.5 -27t-12 -38t-4.5 -43.5q37 46 106 46q31 0 57.5 -9.5
t46 -27.5t30.5 -43.5t11 -56.5zM282 -27q0 30 -15.5 49.5t-45.5 19.5q-33 0 -48.5 -20.5t-15.5 -49.5q0 -30 16.5 -49.5t46.5 -19.5t46 19.5t16 50.5z" />
    <glyph glyph-name="seven.inferior" unicode="&#x2087;" horiz-adv-x="424" 
d="M218 -167h-140l182 341h-219v83h345v-82z" />
    <glyph glyph-name="eight.inferior" unicode="&#x2088;" horiz-adv-x="424" 
d="M399 -47q0 -33 -14.5 -57.5t-39 -40.5t-58 -23.5t-71.5 -7.5q-39 0 -73.5 7t-60.5 22.5t-41 39.5t-15 58q0 39 22 64t59 39q-29 11 -48.5 33.5t-19.5 59.5q0 30 14 52.5t38 37.5t56 22t69 7q36 0 68 -7t55 -21t36.5 -36t13.5 -52q0 -35 -18 -59t-49 -37q32 -11 54.5 -35
t22.5 -66zM273 141q0 26 -17 39.5t-41 13.5t-42 -14t-18 -39q0 -26 17.5 -38.5t41.5 -12.5q23 0 41 13t18 38zM280 -40q0 30 -19.5 44.5t-47.5 14.5q-29 0 -47.5 -15t-18.5 -44t18.5 -45t47.5 -16t48 15.5t19 45.5z" />
    <glyph glyph-name="nine.inferior" unicode="&#x2089;" horiz-adv-x="424" 
d="M397 54q0 -50 -9.5 -92t-32 -73t-60 -48t-92.5 -17q-75 0 -121 31t-50 89h119q2 -20 14.5 -30.5t39.5 -10.5q23 0 37.5 10.5t22 28t10.5 39.5t4 45q-33 -42 -102 -42q-66 0 -107.5 36.5t-41.5 98.5q0 34 13.5 61.5t37 46.5t56.5 29t72 10q70 0 111.5 -26.5t60.5 -74.5
q10 -24 14 -52t4 -59zM273 124q0 29 -17 46t-46 17q-31 0 -47.5 -17.5t-16.5 -45.5q0 -29 16 -47.5t45 -18.5q30 0 48 18t18 48z" />
    <glyph glyph-name="afii61289" unicode="&#x2113;" horiz-adv-x="541" 
d="M485 565q0 -81 -55.5 -160.5t-173.5 -165.5v-54q0 -39 19 -59.5t53 -20.5t60.5 19t49.5 46l74 -71q-40 -53 -91.5 -82t-117.5 -29q-82 0 -126 39t-55 116l-42 -30l-58 88l97 69v233q0 60 14 104t39.5 72.5t60.5 42.5t78 14q80 0 127 -45.5t47 -125.5zM256 372
q60 53 85.5 101.5t25.5 95.5q0 34 -14.5 51.5t-36.5 17.5q-25 0 -42.5 -21.5t-17.5 -77.5v-167z" />
    <glyph glyph-name="Omega" unicode="&#x2126;" horiz-adv-x="793" 
d="M746 399q0 -42 -11 -83.5t-31 -78t-47.5 -65.5t-61.5 -47h146v-125h-292v125q50 34 78.5 97.5t28.5 149.5q0 48 -8 92t-26.5 78t-49 54t-75.5 20t-76 -20t-49.5 -54t-26.5 -78t-8 -92q0 -86 28.5 -149.5t78.5 -97.5v-125h-292v125h146q-33 18 -61 47t-48 65.5t-31 78
t-11 83.5q0 69 22 130.5t66 108.5t109.5 74.5t152.5 27.5q86 0 151.5 -27.5t109.5 -74.5t66 -108.5t22 -130.5z" />
    <glyph glyph-name="estimated" unicode="&#x212e;" horiz-adv-x="602" 
d="M157 259v-181q59 -59 145 -59q63 0 109 28.5t84 91.5l35 -21q-23 -36 -46.5 -61.5t-51 -42t-59.5 -24t-71 -7.5q-59 0 -106.5 21.5t-81.5 59t-52 87.5t-18 108t18 108.5t52 87.5t81.5 58.5t106.5 21.5q58 0 105.5 -20.5t81.5 -57t53 -87t19 -111.5h-404zM448 295v145
q-63 60 -147 60t-144 -60v-145h291z" />
    </font>
</defs>
</svg>
