<?xml version="1.0" standalone="no"?>
<!DOCTYPE svg PUBLIC "-//W3C//DTD SVG 1.1//EN" "http://www.w3.org/Graphics/SVG/1.1/DTD/svg11.dtd" >
<svg xmlns="http://www.w3.org/2000/svg" xmlns:xlink="http://www.w3.org/1999/xlink" version="1.1">
<metadata>
Created by FontForge 20201107 at Mon Dec 13 14:25:05 2010
 By Jimmy Wärting
Copyright (c) 2010 Linotype GmbH, www.linotype.com. All rights reserved. This font software may not be reproduced, modified, disclosed or transferred without the express written approval of Linotype GmbH. Univers is a trademark of Linotype Corp. registered in the U.S. Patent and Trademark Office and may be registered in certain other jurisdictions in the name of Linotype Corp. or its licensee Linotype GmbH. This typeface is original artwork of Adrian Frutiger and Linotype Design Studio. The design may be protected in certain jurisdictions.
</metadata>
<defs>
<font id="UniversNextPro-XBlackExtIt" horiz-adv-x="546" >
  <font-face 
    font-family="Univers Next Pro XBlack Ext It"
    font-weight="900"
    font-style="italic"
    font-stretch="expanded"
    units-per-em="1000"
    panose-1="2 11 11 5 3 2 2 9 2 3"
    ascent="750"
    descent="-250"
    x-height="502"
    cap-height="722"
    bbox="-335 -245 1549 955"
    underline-thickness="50"
    underline-position="-100"
    unicode-range="U+0020-FB04"
  />
<missing-glyph horiz-adv-x="512" 
d="M222 117v67h56v-67h-56zM223 234v17q0 27 3 46.5t10 35t18 29t28 29.5q16 16 26 28t15 22t7 19t2 20q0 36 -22.5 57.5t-53.5 21.5t-53.5 -22t-28.5 -73l-50 8q7 72 44 104.5t91 32.5q27 0 49.5 -9t39 -25t26 -39.5t9.5 -51.5q0 -17 -2.5 -32.5t-9.5 -30.5t-19.5 -30
t-31.5 -33q-16 -14 -25.5 -25t-15 -22t-7 -23.5t-1.5 -29.5v-24h-48zM462 50v617h-412v-617h412zM512 718v-718h-512v718h512z" />
    <glyph glyph-name="napostrophe" unicode="&#x22;n" horiz-adv-x="876" 
d="M989 378q0 -8 -1.5 -20t-3.5 -25.5t-5.5 -27t-6.5 -25.5l-79 -280h-294l77 269q4 13 6.5 26t2.5 27q0 29 -16 41.5t-44 12.5q-27 0 -48 -11t-37 -29t-27 -40.5t-18 -45.5l-72 -250h-294l114 394q7 24 12.5 48t13.5 60h289l-23 -90q48 49 111 79t149 30q36 0 71 -7.5
t62 -24t44 -44t17 -67.5zM169 419h-204l122 303h261z" />
    <glyph glyph-name="IJ" unicode="IJ" horiz-adv-x="1280" 
d="M274 0h-304l207 722h303zM1201 314q-27 -93 -65 -157t-93 -103t-130 -56t-174 -17q-55 0 -112 8.5t-104 30.5t-77 59.5t-30 95.5q0 15 0.5 26t2 21.5t3.5 22.5t5 28h290q-6 -18 -10.5 -37.5t-4.5 -38.5q0 -30 15.5 -42t43.5 -12q24 0 42 7t33 22.5t27.5 42t23.5 65.5
l127 442h304z" />
    <glyph glyph-name="ij" unicode="ij" horiz-adv-x="818" 
d="M417 576h-294l42 146h294zM252 0h-294l144 502h294zM826 576h-294l42 146h294zM666 16q-19 -66 -48.5 -107t-70.5 -63.5t-93.5 -30t-117.5 -7.5q-73 0 -143 9l38 133q22 -3 44 -3q26 0 43 5.5t28 17t18 29t14 40.5l133 463h294z" />
    <glyph glyph-name="fi" unicode="fi" horiz-adv-x="916" 
d="M592 591q-14 3 -26.5 4.5t-26.5 1.5q-56 0 -80.5 -22t-38.5 -73h141l-40 -140h-141l-104 -362h-294l104 362h-86l40 140h86l6 20q20 67 51.5 109t74.5 66t98 32.5t122 8.5q38 0 76 -4.5t76 -11.5zM924 576h-294l42 146h294zM759 0h-294l144 502h294z" />
    <glyph glyph-name="fl" unicode="fl" horiz-adv-x="917" 
d="M592 591q-14 3 -26.5 4.5t-26.5 1.5q-56 0 -80.5 -22t-38.5 -73h141l-40 -140h-141l-104 -362h-294l104 362h-86l40 140h86l6 20q20 67 51.5 109t74.5 66t98 32.5t122 8.5q38 0 76 -4.5t76 -11.5zM760 0h-294l207 722h293z" />
    <glyph glyph-name="f_f" unicode="ff" horiz-adv-x="1014" 
d="M1099 591q-14 3 -26.5 4.5t-26.5 1.5q-56 0 -80.5 -22t-38.5 -73h141l-40 -140h-141l-104 -362h-294l104 362h-213l-104 -362h-294l104 362h-86l40 140h86l6 20q20 67 51.5 109t74.5 66t98 32.5t122 8.5q38 0 76 -4.5t76 -11.5l-38 -131q-14 3 -26.5 4.5t-26.5 1.5
q-56 0 -80.5 -22t-38.5 -73h213l6 20q20 67 51.5 109t74.5 66t98 32.5t122 8.5q38 0 76 -4.5t76 -11.5z" />
    <glyph glyph-name="f_f_i" unicode="ffi" horiz-adv-x="1423" 
d="M1099 591q-14 3 -26.5 4.5t-26.5 1.5q-56 0 -80.5 -22t-38.5 -73h141l-40 -140h-141l-104 -362h-294l104 362h-213l-104 -362h-294l104 362h-86l40 140h86l6 20q20 67 51.5 109t74.5 66t98 32.5t122 8.5q38 0 76 -4.5t76 -11.5l-38 -131q-14 3 -26.5 4.5t-26.5 1.5
q-56 0 -80.5 -22t-38.5 -73h213l6 20q20 67 51.5 109t74.5 66t98 32.5t122 8.5q38 0 76 -4.5t76 -11.5zM1266 0h-294l144 502h294zM1431 576h-294l42 146h294z" />
    <glyph glyph-name="f_f_l" unicode="ffl" horiz-adv-x="1423" 
d="M1099 591q-14 3 -26.5 4.5t-26.5 1.5q-56 0 -80.5 -22t-38.5 -73h141l-40 -140h-141l-104 -362h-294l104 362h-213l-104 -362h-294l104 362h-86l40 140h86l6 20q20 67 51.5 109t74.5 66t98 32.5t122 8.5q38 0 76 -4.5t76 -11.5l-38 -131q-14 3 -26.5 4.5t-26.5 1.5
q-56 0 -80.5 -22t-38.5 -73h213l6 20q20 67 51.5 109t74.5 66t98 32.5t122 8.5q38 0 76 -4.5t76 -11.5zM1266 0h-294l207 722h293z" />
    <glyph glyph-name=".notdef" horiz-adv-x="512" 
d="M222 117v67h56v-67h-56zM223 234v17q0 27 3 46.5t10 35t18 29t28 29.5q16 16 26 28t15 22t7 19t2 20q0 36 -22.5 57.5t-53.5 21.5t-53.5 -22t-28.5 -73l-50 8q7 72 44 104.5t91 32.5q27 0 49.5 -9t39 -25t26 -39.5t9.5 -51.5q0 -17 -2.5 -32.5t-9.5 -30.5t-19.5 -30
t-31.5 -33q-16 -14 -25.5 -25t-15 -22t-7 -23.5t-1.5 -29.5v-24h-48zM462 50v617h-412v-617h412zM512 718v-718h-512v718h512z" />
    <glyph glyph-name="space" unicode=" " horiz-adv-x="415" 
 />
    <glyph glyph-name="exclam" unicode="!" horiz-adv-x="492" 
d="M321 214h-234l100 508h326zM275 0h-264l42 146h264z" />
    <glyph glyph-name="quotedbl" unicode="&#x22;" horiz-adv-x="742" 
d="M492 449v273h198v-273h-198zM180 449v273h198v-273h-198z" />
    <glyph glyph-name="numbersign" unicode="#" horiz-adv-x="830" 
d="M760 571h73l-25 -148h-95l-38 -120h74l-27 -148h-94l-49 -155h-213l49 155h-135l-49 -155h-213l49 155h-69l26 148h90l38 120h-70l26 148h91l48 151h213l-48 -151h135l48 151h213zM327 303h135l38 120h-135z" />
    <glyph glyph-name="dollar" unicode="$" horiz-adv-x="830" 
d="M854 559q0 -29 -6 -57h-264q3 10 5 19.5t2 19.5q0 27 -19 38.5t-43 14.5l-43 -148q66 -14 123 -29.5t99 -37t66.5 -52t24.5 -73.5q0 -14 -2.5 -27t-6.5 -27q-19 -68 -64 -110t-105 -66t-129.5 -33t-137.5 -10l-31 -107h-86l31 107q-29 0 -63 1.5t-68.5 6.5t-66.5 15.5
t-57 28t-40 44t-15 63.5q0 20 3.5 39t8.5 38h276q-6 -23 -6 -46q0 -35 19 -47.5t45 -14.5l47 164q-75 18 -130.5 35t-92.5 38t-55.5 47.5t-18.5 64.5q0 15 2.5 30t6.5 29q18 64 63.5 103t104 60.5t124 29.5t124.5 11l25 88h86l-25 -88q53 -2 104.5 -8.5t92.5 -24t66.5 -48
t25.5 -81.5zM442 593q-17 -2 -33.5 -6.5t-29.5 -13.5t-21 -23t-8 -35q0 -16 15.5 -26.5t41.5 -20.5zM501 193q0 20 -19 35t-51 24l-41 -142q19 1 39 6t36 14.5t26 24.5t10 38z" />
    <glyph glyph-name="percent" unicode="%" horiz-adv-x="1137" 
d="M1062 250q0 -35 -11 -71q-14 -50 -40.5 -87t-63.5 -61.5t-81.5 -37t-94.5 -12.5q-33 0 -65 6.5t-57 21.5t-40.5 40.5t-15.5 64.5q0 17 2.5 33t7.5 32q14 49 41 86.5t63.5 62t81.5 37t95 12.5q33 0 64.5 -5t57 -19.5t41 -39t15.5 -63.5zM268 -38h-147l746 798h147z
M544 614q0 -35 -11 -71q-14 -50 -41 -87t-63.5 -61.5t-81.5 -37t-95 -12.5q-33 0 -65 6.5t-56.5 21.5t-40 40.5t-15.5 64.5q0 17 2.5 33t7.5 32q14 49 40.5 86.5t63.5 62t81.5 37t94.5 12.5q33 0 65 -5t57.5 -19.5t41 -39t15.5 -63.5zM899 244q0 43 -41 43
q-26 0 -45.5 -19.5t-32 -46.5t-19 -56.5t-6.5 -50.5q0 -43 41 -43q25 0 44.5 19.5t32.5 47t19.5 57t6.5 49.5zM380 609q0 42 -40 42q-26 0 -45.5 -19t-32.5 -46t-19.5 -56.5t-6.5 -50.5q0 -44 42 -44q25 0 44 19.5t32 47.5t19.5 57.5t6.5 49.5z" />
    <glyph glyph-name="ampersand" unicode="&#x26;" horiz-adv-x="921" 
d="M907 316h-89l-91 -316h-449q-51 0 -105 7t-99 26t-73.5 52t-28.5 84q0 52 20.5 89.5t54.5 63.5t77.5 42t89.5 25q-22 6 -41.5 17t-34.5 26.5t-24 36t-9 46.5q0 66 33 109.5t84 69t113 36t121 10.5q49 0 93 -2.5t87 -7.5l-38 -135q-22 2 -44 3.5t-44 1.5q-26 0 -51.5 -6
t-45.5 -19t-33 -34t-13 -51q0 -18 9 -29.5t25 -17.5t37.5 -8t45.5 -2h134l37 130h233l-32 -114h89zM457 306q-42 0 -72 -5t-51 -15.5t-34.5 -27t-21.5 -40.5q-4 -12 -4 -28q0 -34 35 -47.5t90 -13.5h132l51 177h-125z" />
    <glyph glyph-name="quotesingle" unicode="'" horiz-adv-x="430" 
d="M180 449v273h198v-273h-198z" />
    <glyph glyph-name="parenleft" unicode="(" horiz-adv-x="437" 
d="M550 722q-56 -75 -106 -150t-87 -154.5t-58.5 -166t-21.5 -182.5q0 -28 2 -60t5 -65t7.5 -65t9.5 -60h-265q-9 29 -16.5 63t-13.5 69t-9 69.5t-3 65.5q0 93 23 179t63 165t93 152t112 140h265v0z" />
    <glyph glyph-name="parenright" unicode=")" horiz-adv-x="437" 
d="M411 478q0 -93 -23 -182t-62 -173t-91.5 -160.5t-111.5 -143.5h-265q56 74 105.5 153t86 163t57.5 173.5t21 185.5q0 57 -6 114t-17 114h265q18 -60 29.5 -120.5t11.5 -123.5z" />
    <glyph glyph-name="asterisk" unicode="*" horiz-adv-x="519" 
d="M347 490l-2 -3l115 -103l-134 -77l-32 150l-3 1l-44 -150l-124 74l118 113l-1 3l-157 -46l-3 144l152 -37l2 3l-115 103l134 77l32 -150l3 -1l44 150l124 -74l-118 -113l1 -3l157 46l3 -144z" />
    <glyph glyph-name="plus" unicode="+" horiz-adv-x="728" 
d="M443 192v-192h-167v192h-224v155h224v192h167v-192h223v-155h-223z" />
    <glyph glyph-name="comma" unicode="," horiz-adv-x="415" 
d="M98 -125h-232l166 273h294z" />
    <glyph glyph-name="hyphen" unicode="-" horiz-adv-x="519" 
d="M432 179h-449l51 176h449z" />
    <glyph glyph-name="period" unicode="." horiz-adv-x="415" 
d="M248 0h-276l47 164h276z" />
    <glyph glyph-name="slash" unicode="/" horiz-adv-x="444" 
d="M51 -19h-163l506 760h163z" />
    <glyph glyph-name="zero" unicode="0" horiz-adv-x="830" 
d="M826 511q0 -54 -12.5 -113.5t-35 -116t-53 -106.5t-66.5 -84q-61 -59 -143 -84.5t-199 -25.5q-57 0 -113.5 9.5t-100.5 35t-71.5 69t-27.5 112.5q0 50 12 108t33.5 114.5t51.5 106.5t65 85q121 120 348 120q58 0 114 -10.5t100 -36.5t71 -70.5t27 -112.5zM545 537
q0 31 -11.5 51.5t-46.5 20.5q-36 0 -64 -28t-48 -67.5t-33.5 -81t-21.5 -68.5q-12 -42 -23 -88t-11 -91q0 -32 11.5 -52t46.5 -20q37 0 65 29t48 69.5t33.5 83t21.5 69.5q12 41 22.5 85.5t10.5 87.5z" />
    <glyph glyph-name="one" unicode="1" horiz-adv-x="694" 
d="M452 0h-288l141 494q-56 -29 -113.5 -54.5t-117.5 -42.5l62 212q67 23 131 50.5t126 62.5h266z" />
    <glyph glyph-name="two" unicode="2" horiz-adv-x="830" 
d="M838 566q0 -51 -21.5 -93t-56.5 -77q-39 -38 -93.5 -73.5t-115 -67.5t-121.5 -59t-113 -46h411l-43 -150h-752l44 154q122 55 227.5 108.5t183.5 104.5t122.5 98t44.5 90q0 15 -6.5 25t-16.5 16t-23 8.5t-26 2.5q-54 0 -85.5 -33t-45.5 -82h-270q25 75 69 123.5t101 76
t124 38.5t138 11q51 0 108 -6.5t105 -25.5t79.5 -53.5t31.5 -89.5z" />
    <glyph glyph-name="three" unicode="3" horiz-adv-x="830" 
d="M836 582q0 -51 -18.5 -86.5t-50 -59.5t-73 -38t-87.5 -21q25 -3 51.5 -11t48.5 -23t36.5 -38t14.5 -56q0 -21 -6.5 -44t-17 -44.5t-24.5 -41t-29 -33.5q-35 -33 -80 -53.5t-94 -32t-99.5 -15.5t-96.5 -4q-30 0 -65.5 1t-72 6.5t-70.5 15.5t-60.5 28.5t-42.5 46t-16 66.5
q0 32 6 64h282q-3 -11 -5 -23t-2 -24q0 -35 21.5 -47t53.5 -12q30 0 54.5 11.5t42.5 31t28 45.5t10 55q0 22 -10 35.5t-26 20.5t-36 9.5t-41 2.5q-19 0 -34.5 -0.5t-33.5 -1.5l35 122q18 0 38.5 -0.5t36.5 -0.5q59 1 92 23.5t47 73.5l4 18t2 19q0 31 -20 41.5t-47 10.5
q-48 0 -77 -30t-41 -73h-270q22 70 67 114t103 69t124.5 33.5t131.5 8.5q25 0 58 -2t68 -8t69 -17t61 -28.5t43.5 -43t16.5 -60.5z" />
    <glyph glyph-name="four" unicode="4" horiz-adv-x="830" 
d="M684 276h118l-40 -140h-118l-39 -136h-276l39 136h-403l46 160l467 426h334zM184 276h228l82 287z" />
    <glyph glyph-name="five" unicode="5" horiz-adv-x="830" 
d="M818 574h-417l-66 -182q48 41 104 58.5t119 17.5q39 0 78.5 -8t70.5 -27t50.5 -51t19.5 -79q0 -20 -3.5 -39.5t-8.5 -38.5q-24 -81 -67.5 -129.5t-103.5 -74t-133.5 -33t-157.5 -7.5q-52 0 -107 6t-100.5 24t-75 50.5t-29.5 84.5q0 15 1 26.5t3 26.5h282q-5 -18 -5 -35
q0 -35 21 -48t52 -13q33 0 59 16.5t43.5 42.5t27 57.5t9.5 60.5q0 35 -19.5 48.5t-51.5 13.5q-31 0 -60.5 -17.5t-44.5 -44.5h-276l157 442h671z" />
    <glyph glyph-name="six" unicode="6" horiz-adv-x="830" 
d="M843 576q0 -8 -0.5 -19t-2.5 -20h-276q4 13 4 29q0 29 -18.5 41t-44.5 12q-42 0 -73 -24.5t-52.5 -61t-36 -77.5t-23.5 -74q52 45 110.5 64.5t133.5 19.5q42 0 82.5 -9.5t72.5 -29.5t52 -52.5t20 -78.5q0 -38 -11 -74.5t-31 -68.5t-47 -59t-60 -46q-66 -39 -146 -53
t-161 -14q-58 0 -114.5 10t-101 36t-72 71t-27.5 116q0 43 6.5 82t18.5 80q29 99 72 168.5t104 113t140.5 63.5t181.5 20q52 0 105.5 -6t96.5 -24t70.5 -50.5t27.5 -84.5zM508 269q0 37 -22 54t-57 17q-33 0 -59.5 -15t-45.5 -39t-29.5 -54.5t-10.5 -60.5q0 -37 21 -53.5
t56 -16.5q32 0 59 15t46.5 39t30.5 54t11 60z" />
    <glyph glyph-name="seven" unicode="7" horiz-adv-x="792" 
d="M795 554l-452 -554h-341l489 554h-421l48 168h725z" />
    <glyph glyph-name="eight" unicode="8" horiz-adv-x="830" 
d="M843 575q0 -51 -22 -87t-57.5 -60t-79.5 -36.5t-88 -16.5q28 -5 60 -14.5t59.5 -26.5t45.5 -42t18 -60q0 -54 -22.5 -93.5t-59.5 -67.5t-84.5 -45.5t-97.5 -27.5t-99 -13.5t-89 -3.5q-27 0 -63.5 1.5t-75.5 7.5t-77 17t-68 29.5t-48.5 46t-18.5 65.5q0 58 26.5 99
t68.5 68t93 41t100 19q-26 2 -53.5 11t-50.5 25t-37.5 40t-14.5 56q0 49 20.5 85t54 62t77 43t89.5 26.5t91.5 13.5t83.5 4q48 0 103.5 -6.5t103.5 -24.5t80 -50.5t32 -84.5zM573 552q0 33 -22.5 48t-52.5 15q-25 0 -48 -10t-40.5 -27.5t-28 -40.5t-10.5 -48q0 -34 23 -45.5
t52 -11.5q25 0 48.5 9t40.5 25t27.5 38t10.5 48zM500 243q0 38 -27 54t-61 16q-28 0 -54.5 -10.5t-46.5 -28.5t-32.5 -43t-12.5 -54q0 -39 26 -54t61 -15q28 0 54.5 10t47 28t33 42.5t12.5 54.5z" />
    <glyph glyph-name="nine" unicode="9" horiz-adv-x="830" 
d="M824 506q0 -41 -7.5 -81t-18.5 -78q-29 -99 -69.5 -169t-99 -113.5t-139.5 -63.5t-190 -20q-49 0 -102 6t-97 24t-72.5 50t-28.5 85q0 22 3 39h276q-2 -8 -3.5 -14.5t-1.5 -14.5q0 -29 19 -41t45 -12q42 0 73 24.5t52.5 61t36 77.5t23.5 74q-58 -48 -119.5 -66.5
t-127.5 -18.5q-39 0 -79 10t-72.5 31t-52.5 54t-20 78q0 64 20.5 112t55.5 82.5t81 57.5t97.5 36.5t105 19t102.5 5.5q59 0 115 -10.5t99.5 -37t69.5 -72t26 -115.5zM559 551q0 37 -21 53.5t-56 16.5q-32 0 -59 -15t-46.5 -39t-30.5 -54t-11 -60q0 -37 22 -54t57 -17
q33 0 59.5 15t45.5 39t29.5 54.5t10.5 60.5z" />
    <glyph glyph-name="colon" unicode=":" horiz-adv-x="415" 
d="M345 338h-276l47 164h276zM248 0h-276l47 164h276z" />
    <glyph glyph-name="semicolon" unicode=";" horiz-adv-x="415" 
d="M352 338h-276l47 164h276zM98 -125h-232l166 273h294z" />
    <glyph glyph-name="less" unicode="&#x3c;" horiz-adv-x="728" 
d="M52 192v155l614 208v-175l-389 -111l389 -110v-177z" />
    <glyph glyph-name="equal" unicode="=" horiz-adv-x="728" 
d="M52 315v155h614v-155h-614zM52 69v155h614v-155h-614z" />
    <glyph glyph-name="greater" unicode="&#x3e;" horiz-adv-x="728" 
d="M52 -18v177l389 110l-389 111v175l614 -208v-155z" />
    <glyph glyph-name="question" unicode="?" horiz-adv-x="692" 
d="M706 595q0 -42 -16 -76t-42 -61t-58 -49.5t-65 -41.5q-41 -24 -67 -40.5t-43.5 -33t-30 -37t-25.5 -53.5h-240l11 39q8 28 18.5 49t25.5 38t35.5 32t48.5 33q25 16 48.5 32t41.5 33t29 35.5t11 41.5q0 30 -27 41.5t-67 11.5q-48 0 -94.5 -6t-93.5 -17l42 146
q69 14 137 21.5t138 7.5q43 0 92.5 -5t92 -20.5t70.5 -44.5t28 -76zM313 0h-264l42 146h264z" />
    <glyph glyph-name="at" unicode="@" horiz-adv-x="1168" 
d="M856 274q-4 -11 -4 -21q0 -23 27 -23q20 0 39.5 14t34.5 37t24 52.5t9 60.5q0 99 -86.5 159t-258.5 60q-54 0 -110.5 -10.5t-109.5 -31.5t-99.5 -53t-81 -74t-54.5 -94.5t-20 -115.5q0 -54 21.5 -98t63.5 -75.5t104 -49t143 -17.5q45 0 83.5 4t74.5 11.5t71 18.5t73 26
l39 -122q-88 -38 -173 -54t-182 -16q-111 0 -199 26t-149 73.5t-93.5 114.5t-32.5 149q0 121 52.5 216t141.5 161t205.5 101t245.5 35q111 0 200 -24t152 -68.5t96.5 -107t33.5 -139.5q0 -65 -23 -122.5t-66 -100.5t-104.5 -68t-137.5 -25q-27 0 -52.5 4t-46.5 13.5
t-37 25.5t-24 41q-42 -41 -92.5 -61t-104.5 -20q-96 0 -144 44.5t-48 119.5q0 58 22.5 107.5t62 84.5t93.5 55t116 20q57 0 92 -17.5t52 -46.5l18 49h223zM647 303q5 14 8.5 29.5t3.5 32.5q0 23 -12 34.5t-39 11.5q-39 0 -65.5 -29.5t-43.5 -78.5q-5 -15 -9 -30t-4 -29
q0 -20 11 -33.5t40 -13.5q42 0 68.5 31t41.5 75z" />
    <glyph glyph-name="A" unicode="A" horiz-adv-x="1059" 
d="M677 0l-20 120h-372l-90 -120h-320l575 722h379l161 -722h-313zM593 539l-194 -261h234z" />
    <glyph glyph-name="B" unicode="B" horiz-adv-x="939" 
d="M935 572q0 -52 -18 -87t-48.5 -58.5t-71.5 -37t-87 -22.5q27 -3 55 -12.5t51 -26.5t38 -41t15 -57q0 -71 -35 -115.5t-88 -70t-116 -35t-119 -9.5h-541l207 722h506q39 0 83 -4.5t81.5 -20.5t62.5 -45.5t25 -79.5zM627 541q0 18 -10.5 28.5t-25.5 15.5t-32.5 6t-30.5 1
h-88l-46 -159h88q27 0 53 5t46.5 17t33 33t12.5 53zM570 249q0 21 -13.5 33t-33 17t-40.5 6t-36 1h-89l-51 -177h89q29 0 60 5t56.5 18.5t41.5 37t16 59.5z" />
    <glyph glyph-name="C" unicode="C" horiz-adv-x="984" 
d="M992 526q0 -38 -9 -72h-308q4 19 4 42q0 26 -8 42.5t-22 26t-33 13t-42 3.5q-57 0 -102.5 -30.5t-77 -77.5t-48 -105.5t-16.5 -113.5q0 -58 31.5 -85.5t88.5 -27.5q70 0 110 34t64 98h310q-27 -87 -80 -143.5t-123.5 -89.5t-153.5 -46t-170 -13q-68 0 -138 11.5
t-126.5 41t-92.5 81t-36 132.5q0 46 10.5 93.5t30 91.5t46.5 84t59 73q42 43 94 72t110.5 47t123.5 25.5t133 7.5q35 0 76.5 -3t82.5 -11.5t79.5 -23.5t68 -38.5t47 -58t17.5 -80.5z" />
    <glyph glyph-name="D" unicode="D" horiz-adv-x="1029" 
d="M1015 462q0 -100 -30.5 -177t-81.5 -131q-42 -43 -96 -72.5t-118 -47.5t-137 -26t-152 -8h-430l207 722h387q87 0 168.5 -10t144.5 -38.5t100.5 -79t37.5 -132.5zM694 437q0 36 -13 60t-36 38.5t-53.5 20.5t-64.5 6h-92l-115 -402h89q69 0 120.5 18t87.5 52
q38 36 57.5 91t19.5 116z" />
    <glyph glyph-name="E" unicode="E" horiz-adv-x="805" 
d="M826 572h-392l-39 -135h367l-42 -148h-367l-40 -139h396l-43 -150h-696l207 722h692z" />
    <glyph glyph-name="F" unicode="F" horiz-adv-x="760" 
d="M813 572h-375l-44 -152h350l-42 -148h-350l-78 -272h-304l207 722h679z" />
    <glyph glyph-name="G" unicode="G" horiz-adv-x="1043" 
d="M1038 549q0 -12 -0.5 -24t-2.5 -23h-309v9q0 26 -11.5 41.5t-29.5 23.5t-40 10.5t-42 2.5q-54 0 -95.5 -17.5t-73.5 -48.5q-23 -22 -42.5 -53t-34 -66t-23 -71.5t-8.5 -68.5q0 -37 12 -62t33.5 -40.5t50.5 -22t63 -6.5q38 0 75.5 5.5t72.5 18.5l35 113h-179l43 148h480
l-110 -383q-50 -12 -97 -21.5t-100 -16.5t-115 -11t-141 -4q-86 0 -165 14.5t-139 47.5t-95.5 86.5t-35.5 131.5q0 96 37.5 175.5t93.5 137.5q86 89 207 127.5t274 38.5q36 0 81 -2t90.5 -8.5t89 -19.5t77 -34t54 -52.5t20.5 -75.5z" />
    <glyph glyph-name="H" unicode="H" horiz-adv-x="1056" 
d="M879 0h-304l81 283h-301l-81 -283h-304l207 722h304l-77 -267h301l77 267h304z" />
    <glyph glyph-name="I" unicode="I" horiz-adv-x="450" 
d="M274 0h-304l207 722h303z" />
    <glyph glyph-name="J" unicode="J" horiz-adv-x="830" 
d="M751 314q-27 -93 -65 -157t-93 -103t-130 -56t-174 -17q-55 0 -112 8.5t-104 30.5t-77 59.5t-30 95.5q0 15 0.5 26t2 21.5t3.5 22.5t5 28h290q-6 -18 -10.5 -37.5t-4.5 -38.5q0 -30 15.5 -42t43.5 -12q24 0 42 7t33 22.5t27.5 42t23.5 65.5l127 442h304z" />
    <glyph glyph-name="K" unicode="K" horiz-adv-x="1004" 
d="M689 359l200 -359h-331l-178 376l347 346h377zM271 0h-301l207 722h301z" />
    <glyph glyph-name="L" unicode="L" horiz-adv-x="719" 
d="M611 0h-641l207 722h304l-160 -560h337z" />
    <glyph glyph-name="M" unicode="M" horiz-adv-x="1370" 
d="M1193 0h-282l164 570l-357 -570h-298l-30 570l-163 -570h-257l207 722h441l10 -491l298 491h473z" />
    <glyph glyph-name="N" unicode="N" horiz-adv-x="1102" 
d="M925 0h-428l-121 522l-149 -522h-257l207 722h428l121 -521l149 521h257z" />
    <glyph glyph-name="O" unicode="O" horiz-adv-x="1032" 
d="M1018 469q0 -91 -37.5 -177t-100.5 -151q-44 -45 -96 -75.5t-110.5 -49t-123 -27t-132.5 -8.5q-43 0 -90 4.5t-92 16t-85 31t-70.5 49t-48.5 70t-18 95.5q0 45 10 91t28.5 89.5t44.5 83.5t57 72q43 45 94.5 75t110 48.5t123 26.5t133.5 8q66 0 137 -12t130 -42.5
t97.5 -83t38.5 -134.5zM706 459q0 61 -32.5 91.5t-92.5 30.5t-107 -30t-79.5 -76.5t-49.5 -103t-17 -109.5q0 -62 32.5 -91.5t92.5 -29.5q59 0 106 29.5t79.5 76t50 102.5t17.5 110z" />
    <glyph glyph-name="P" unicode="P" horiz-adv-x="907" 
d="M933 534q0 -59 -25.5 -114.5t-67.5 -95.5q-51 -49 -121.5 -68.5t-148.5 -19.5h-228l-68 -236h-304l207 722h448q66 0 122.5 -8.5t98 -29.5t64.5 -57.5t23 -92.5zM626 513q0 20 -9.5 32t-24.5 18.5t-32.5 8.5t-33.5 2h-87l-55 -190h87q28 0 52 4.5t43 15.5t33 30t22 48
q5 17 5 31z" />
    <glyph glyph-name="Q" unicode="Q" horiz-adv-x="1089" 
d="M993 0h-237q-50 0 -93 -2.5t-83.5 -5l-81 -5t-85.5 -2.5q-42 0 -88 4t-90.5 15t-84.5 30t-70 48t-48 69.5t-18 95.5q0 45 10 91t28.5 89.5t44.5 83.5t57 72q43 45 94.5 75t110 48.5t123 26.5t133.5 8q66 0 137 -12t130 -42.5t97.5 -83t38.5 -134.5q0 -56 -15 -108.5
t-43.5 -98.5t-68.5 -84t-91 -63q30 10 64 19t67 16.5t62 12t49 4.5zM706 459q0 61 -32.5 91.5t-92.5 30.5t-107 -29.5t-79.5 -75t-49.5 -101.5t-17 -109q0 -62 32.5 -91.5t92.5 -29.5q59 0 106 29t79.5 74.5t50 101t17.5 109.5z" />
    <glyph glyph-name="R" unicode="R" horiz-adv-x="960" 
d="M957 554q0 -48 -17.5 -85t-47.5 -62.5t-70 -41t-85 -21.5q53 -11 79.5 -40.5t26.5 -84.5q0 -11 -1 -27t-5 -43q-2 -14 -3.5 -33t-3 -39.5t-2 -40.5t-0.5 -36h-290q0 21 1.5 47.5t4.5 50.5q4 30 6.5 52t2.5 46q0 25 -10 38.5t-25.5 20t-35.5 7.5t-40 1h-96l-75 -263h-301
l207 722h525q50 0 96 -7t81.5 -25.5t56.5 -51.5t21 -84zM649 520q0 20 -9.5 32t-24.5 18t-32.5 8t-32.5 2h-113l-51 -179h113q28 0 55 6.5t48 20.5t34 37t13 55z" />
    <glyph glyph-name="S" unicode="S" horiz-adv-x="934" 
d="M930 565q0 -14 -1 -28t-4 -28h-298q2 8 3 15.5t1 15.5q0 21 -8 34.5t-21.5 20.5t-30.5 9.5t-35 2.5q-16 0 -38 -3t-41.5 -10.5t-33.5 -21.5t-14 -35q0 -15 8.5 -26t22.5 -19t31 -14t34 -11l178 -51q33 -9 66.5 -22t60 -32t43.5 -46t17 -66q0 -61 -24.5 -105t-65 -74
t-93 -48t-108 -27t-110 -12t-98.5 -3q-30 0 -70 1t-82.5 6.5t-84.5 16.5t-74.5 31t-53 49.5t-20.5 72.5q0 17 1.5 34.5t6.5 34.5h308q-5 -22 -5 -39q0 -22 8 -36t21.5 -22.5t31 -11.5t36.5 -3t44.5 2.5t48 10.5t38 24t15.5 42q0 29 -21.5 44.5t-80.5 33.5l-184 55
q-34 10 -64.5 23t-54 31.5t-37.5 43t-14 57.5q0 53 22.5 93t60 69t86 47.5t101 29.5t105.5 15.5t98 4.5q31 0 70.5 -1.5t81 -7t81 -16.5t71 -30.5t50.5 -49t19 -71.5z" />
    <glyph glyph-name="T" unicode="T" horiz-adv-x="776" 
d="M841 559h-240l-160 -559h-304l160 559h-244l47 163h784z" />
    <glyph glyph-name="U" unicode="U" horiz-adv-x="993" 
d="M910 300q-27 -95 -75 -156.5t-113 -97.5t-144.5 -50.5t-169.5 -14.5q-37 0 -79 2.5t-83.5 10.5t-80 22.5t-68.5 38t-47.5 57t-17.5 80.5q0 29 4 54.5t12 53.5l121 422h294l-114 -396q-7 -23 -11.5 -46t-4.5 -48q0 -50 30.5 -69.5t76.5 -19.5q43 0 74 14.5t52.5 39
t35.5 58t25 71.5l114 396h290z" />
    <glyph glyph-name="V" unicode="V" horiz-adv-x="966" 
d="M566 0h-376l-110 722h304l47 -514l333 514h326z" />
    <glyph glyph-name="W" unicode="W" horiz-adv-x="1426" 
d="M1123 0h-382l23 508l-282 -508h-382l-3 722h307l-44 -508l273 508h366l-18 -508l247 508h308z" />
    <glyph glyph-name="X" unicode="X" horiz-adv-x="1022" 
d="M718 342l231 -342h-339l-135 227l-214 -227h-381l464 384l-223 338h328l134 -233l214 233h367z" />
    <glyph glyph-name="Y" unicode="Y" horiz-adv-x="934" 
d="M573 216l-62 -216h-304l65 228l-200 494h299l93 -322l275 322h331z" />
    <glyph glyph-name="Z" unicode="Z" horiz-adv-x="846" 
d="M858 554l-506 -390h410l-48 -164h-788l49 168l516 390h-381l46 164h750z" />
    <glyph glyph-name="bracketleft" unicode="[" horiz-adv-x="437" 
d="M553 594h-161l-179 -647h161l-36 -128h-419l258 903h419z" />
    <glyph glyph-name="backslash" unicode="\" horiz-adv-x="444" 
d="M177 -19l-72 760h163l72 -760h-163z" />
    <glyph glyph-name="bracketright" unicode="]" horiz-adv-x="437" 
d="M227 -181h-419l36 128h161l186 647h-161l36 128h419z" />
    <glyph glyph-name="asciicircum" unicode="^" horiz-adv-x="600" 
d="M401 357l-101 213l-101 -213h-157l173 365h170l173 -365h-157z" />
    <glyph glyph-name="underscore" unicode="_" horiz-adv-x="500" 
d="M0 -125v50h500v-50h-500z" />
    <glyph glyph-name="grave" unicode="`" horiz-adv-x="370" 
d="M160 576l-130 146h289l44 -146h-203z" />
    <glyph glyph-name="a" unicode="a" horiz-adv-x="840" 
d="M782 371q0 -11 -2.5 -26.5t-6 -30.5t-7 -29l-5.5 -22l-58 -196q-9 -33 -12 -67h-262l16 72q-57 -53 -124 -72t-143 -19q-37 0 -75.5 4.5t-70.5 18t-52.5 38t-20.5 63.5q0 42 20.5 73.5t54 54t78 36.5t93 22t97 11t91.5 3h96q5 14 9.5 30.5t4.5 30.5q0 15 -6 24.5t-16 15
t-22 7.5t-25 2q-37 0 -65.5 -13t-44.5 -48h-267q18 55 63.5 88.5t102.5 50.5t117.5 22.5t110.5 5.5q62 0 121.5 -5.5t106 -22t75 -45.5t28.5 -77zM426 213q-26 0 -58 -1.5t-59.5 -9.5t-46 -25t-18.5 -48q0 -12 6.5 -19.5t16 -11.5t20.5 -5t20 -1q63 0 102 33.5t54 87.5h-37z
" />
    <glyph glyph-name="b" unicode="b" horiz-adv-x="873" 
d="M831 332q0 -80 -25.5 -145t-74 -111t-118.5 -70.5t-159 -24.5q-27 0 -55.5 4.5t-55 14.5t-48.5 27t-36 43l-24 -70h-284q8 21 16.5 42.5t14.5 43.5l182 636h294l-82 -285q55 46 113 65t130 19q43 0 81.5 -10.5t67.5 -33t46 -58.5t17 -87zM524 317q0 72 -71 72
q-35 0 -62 -21.5t-46 -53t-29 -67t-10 -64.5q0 -34 16 -55t51 -21q31 0 54 12t39.5 31.5t27 44.5t18.5 52q5 18 8.5 34.5t3.5 35.5z" />
    <glyph glyph-name="c" unicode="c" horiz-adv-x="808" 
d="M782 347q0 -13 -0.5 -21t-2.5 -19h-284q4 15 4 35q0 31 -16.5 43t-45.5 12q-38 0 -66 -23.5t-47.5 -58t-29 -73.5t-9.5 -70q0 -67 64 -67q46 0 73.5 25t40.5 67h288q-21 -66 -66 -108t-104 -66t-126.5 -33t-134.5 -9q-61 0 -121.5 8.5t-108.5 31t-77.5 61.5t-29.5 101
q0 63 28 122t73 101q37 34 81 56.5t92 35.5t99 18t102 5t108 -7.5t105 -27t79.5 -53t31.5 -86.5z" />
    <glyph glyph-name="d" unicode="d" horiz-adv-x="873" 
d="M739 79q-5 -20 -9.5 -39.5t-7.5 -39.5h-284l16 70q-49 -42 -106 -65.5t-133 -23.5q-50 0 -92.5 12.5t-73.5 36.5t-48.5 60.5t-17.5 84.5q0 77 29.5 140.5t80 109.5t118.5 71t145 25q29 0 58 -3.5t54.5 -12.5t46 -24.5t33.5 -39.5l81 281h294zM512 327q0 68 -68 68
q-37 0 -65 -21t-47 -52.5t-29 -68.5t-10 -68q0 -71 70 -71q36 0 64 21.5t47 54t28.5 69.5t9.5 68z" />
    <glyph glyph-name="e" unicode="e" horiz-adv-x="817" 
d="M777 329q0 -30 -5 -58.5t-14 -57.5h-484q-5 -14 -7.5 -29t-2.5 -30q0 -36 19.5 -51.5t54.5 -15.5t63 13.5t43 46.5h288q-15 -36 -42 -62.5t-61 -45t-74 -30t-80 -18t-79 -8.5t-72 -2q-61 0 -122 9t-109.5 32t-79 63.5t-30.5 103.5q0 57 25.5 111.5t65.5 95.5
q66 67 161 96t209 29q49 0 107 -6t108.5 -26t84 -58t33.5 -102zM502 351q0 35 -20 49.5t-52 14.5q-50 0 -82 -30t-46 -76h192q3 11 5.5 21t2.5 21z" />
    <glyph glyph-name="f" unicode="f" horiz-adv-x="507" 
d="M592 591q-14 3 -26.5 4.5t-26.5 1.5q-56 0 -80.5 -22t-38.5 -73h141l-40 -140h-141l-104 -362h-294l104 362h-86l40 140h86l6 20q20 67 51.5 109t74.5 66t98 32.5t122 8.5q38 0 76 -4.5t76 -11.5z" />
    <glyph glyph-name="g" unicode="g" horiz-adv-x="851" 
d="M844 502q-11 -34 -19.5 -58.5t-16.5 -53.5l-100 -347q-22 -77 -65 -126t-101 -77.5t-127 -39.5t-143 -11q-53 0 -112.5 3t-109.5 17t-83 42t-33 78q0 8 0.5 16.5t2.5 21.5h282q-1 -5 -1.5 -9.5t-0.5 -9.5q0 -17 6 -26t16 -14t23 -6t26 -1q41 0 65.5 17.5t39 44.5t23 60
t17.5 65q-53 -44 -107 -59t-112 -15q-41 0 -82 8.5t-74 29t-54 53t-21 80.5q0 32 7.5 64.5t21.5 63t32.5 58t41.5 50.5q51 51 118 75.5t145 24.5q65 0 115.5 -20.5t79.5 -67.5l24 69h276zM495 322q0 71 -73 71q-33 0 -59.5 -18.5t-45 -47t-28.5 -61.5t-10 -61q0 -69 69 -69
q36 0 63 17t46 44t28.5 60t9.5 65z" />
    <glyph glyph-name="h" unicode="h" horiz-adv-x="876" 
d="M818 378q0 -8 -1.5 -20t-3.5 -25.5t-5.5 -27t-6.5 -25.5l-79 -280h-294l77 269q4 13 6.5 26t2.5 27q0 29 -16 41.5t-44 12.5q-27 0 -48 -11t-37 -29t-27 -40.5t-18 -45.5l-72 -250h-294l207 722h294l-87 -303q48 49 110 75.5t142 26.5q36 0 71 -7.5t62 -24t44 -44
t17 -67.5z" />
    <glyph glyph-name="i" unicode="i" horiz-adv-x="409" 
d="M417 576h-294l42 146h294zM252 0h-294l144 502h294z" />
    <glyph glyph-name="j" unicode="j" horiz-adv-x="409" 
d="M417 576h-294l42 146h294zM257 16q-19 -66 -48.5 -107t-70.5 -63.5t-93.5 -30t-117.5 -7.5q-73 0 -143 9l38 133q22 -3 44 -3q26 0 43 5.5t28 17t18 29t14 40.5l133 463h294z" />
    <glyph glyph-name="k" unicode="k" horiz-adv-x="877" 
d="M609 258l153 -258h-309l-123 266l256 236h339zM252 0h-294l207 722h294z" />
    <glyph glyph-name="l" unicode="l" horiz-adv-x="409" 
d="M252 0h-294l207 722h293z" />
    <glyph glyph-name="m" unicode="m" horiz-adv-x="1319" 
d="M1261 372q0 -23 -3.5 -44.5t-9.5 -42.5l-82 -285h-294l82 285q6 19 6 39q0 52 -54 52q-26 0 -46 -10t-35 -27t-25.5 -38.5t-16.5 -43.5l-74 -257h-294l82 285q6 19 6 37q0 54 -55 54q-25 0 -45 -10.5t-35 -27.5t-25.5 -38.5t-16.5 -42.5l-74 -257h-294l114 394
q6 20 12.5 49.5t11.5 58.5h289l-23 -90q25 26 51 46t55 34t63.5 21.5t77.5 7.5q29 0 60.5 -4.5t59.5 -17.5t49 -35t28 -56q49 54 108.5 83.5t144.5 29.5q37 0 73.5 -7t65 -24t46 -46t17.5 -72z" />
    <glyph glyph-name="n" unicode="n" horiz-adv-x="876" 
d="M818 378q0 -8 -1.5 -20t-3.5 -25.5t-5.5 -27t-6.5 -25.5l-79 -280h-294l77 269q4 13 6.5 26t2.5 27q0 29 -16 41.5t-44 12.5q-27 0 -48 -11t-37 -29t-27 -40.5t-18 -45.5l-72 -250h-294l114 394q7 24 12.5 48t13.5 60h289l-23 -90q48 49 111 79t149 30q36 0 71 -7.5
t62 -24t44 -44t17 -67.5z" />
    <glyph glyph-name="o" unicode="o" horiz-adv-x="851" 
d="M809 322q0 -60 -24.5 -118t-66.5 -101q-36 -38 -81 -61.5t-95 -37t-104 -18.5t-108 -5q-32 0 -69.5 2.5t-76 10t-74.5 21t-64 35.5t-45 53t-17 74q0 62 26 121t69 103q36 37 81 60t94.5 36.5t102.5 18.5t107 5q48 0 107.5 -7t112.5 -28t89 -60.5t36 -103.5zM505 328
q0 34 -15.5 51.5t-50.5 17.5q-38 0 -66 -23.5t-47 -58t-28.5 -73.5t-9.5 -70q0 -67 67 -67q37 0 65 23.5t47 57.5t28.5 73t9.5 69z" />
    <glyph glyph-name="p" unicode="p" horiz-adv-x="873" 
d="M831 331q0 -78 -26 -142.5t-73.5 -110.5t-115 -71.5t-150.5 -25.5q-27 0 -55 2.5t-54 10.5t-49 23t-41 40l-71 -249h-294l144 504q14 48 26 95t23 95h285l-21 -86q55 57 118.5 81t144.5 24q46 0 84.5 -11.5t66 -35t43 -59.5t15.5 -84zM522 317q0 71 -69 71
q-36 0 -63.5 -21t-46 -52t-28.5 -67t-10 -66q0 -31 17 -53.5t52 -22.5q37 0 65 21t46.5 52.5t27.5 68.5t9 69z" />
    <glyph glyph-name="q" unicode="q" horiz-adv-x="873" 
d="M866 502q-17 -48 -32 -95t-29 -95l-144 -504h-294l72 251q-54 -41 -105.5 -59.5t-119.5 -18.5q-43 0 -84.5 10.5t-74 33t-52.5 58.5t-20 87q0 81 28 142.5t82 112.5q50 48 120 72t148 24q30 0 59.5 -4t55.5 -15t48.5 -30.5t37.5 -49.5l25 80h279zM512 324q0 71 -70 71
q-36 0 -64 -21.5t-46.5 -53t-28.5 -68.5t-10 -67q0 -71 70 -71q36 0 64 21.5t46.5 53t28.5 68.5t10 67z" />
    <glyph glyph-name="r" unicode="r" horiz-adv-x="584" 
d="M567 328h-55q-84 0 -135 -34t-74 -115l-51 -179h-294l90 315q14 46 27 92.5t21 94.5h288l-30 -123q25 40 52.5 67.5t60 44t71 23.5t84.5 7z" />
    <glyph glyph-name="s" unicode="s" horiz-adv-x="811" 
d="M767 382q0 -9 -0.5 -14.5t-1.5 -10.5h-272q2 8 2 14q0 13 -7 22t-18 13.5t-26 6.5t-31 2q-40 0 -68.5 -14t-28.5 -39q0 -20 32.5 -30t80.5 -17l85 -12q103 -15 161 -42.5t58 -79.5q0 -45 -23.5 -77.5t-61.5 -55t-85 -35.5t-94 -20.5t-90 -9.5t-71 -2q-55 0 -116.5 2.5
t-113 15.5t-85 39t-33.5 74q0 7 0.5 15.5t1.5 17.5h274v-7q0 -32 22 -41.5t65 -9.5q19 0 39.5 3t37 9.5t27 17t10.5 25.5q0 17 -27 27t-71 18l-92 16q-109 19 -165 46.5t-56 75.5q0 42 27.5 78t80 62t128.5 40.5t172 14.5q52 0 110.5 -4t108 -18t82 -41.5t32.5 -74.5z" />
    <glyph glyph-name="t" unicode="t" horiz-adv-x="540" 
d="M524 362h-148l-34 -111q-17 -54 -17 -83q0 -23 16 -32.5t58 -9.5q20 0 34 2t28 5l-38 -133q-51 -11 -104 -15t-104 -4q-31 0 -65 5t-62.5 18.5t-47 38t-18.5 62.5q0 26 5 53.5t13 55.5l42 148h-82l40 140h84l25 88l318 91l-51 -179h148z" />
    <glyph glyph-name="u" unicode="u" horiz-adv-x="876" 
d="M754 127q-9 -31 -17.5 -63t-12.5 -64h-285l18 88q-52 -54 -120 -80.5t-143 -26.5q-36 0 -70.5 7t-62 23.5t-44.5 44t-17 67.5q0 20 3.5 39.5t8.5 39.5l86 300h294l-77 -269q-4 -13 -6.5 -26t-2.5 -27q0 -57 57 -57q28 0 50 11t38 29t27 41.5t18 47.5l72 250h294z" />
    <glyph glyph-name="v" unicode="v" horiz-adv-x="802" 
d="M481 0h-382l-91 502h290l30 -346l222 346h310z" />
    <glyph glyph-name="w" unicode="w" horiz-adv-x="1272" 
d="M983 0h-338l-16 346l-218 -346h-340l-51 502h278l-7 -346l209 346h339l15 -346l186 346h282z" />
    <glyph glyph-name="x" unicode="x" horiz-adv-x="895" 
d="M595 240l180 -240h-315l-90 141l-150 -141h-336l371 278l-167 224h299l88 -136l135 136h331z" />
    <glyph glyph-name="y" unicode="y" horiz-adv-x="778" 
d="M268 -192h-296l180 207l-153 487h282l55 -301l194 301h306z" />
    <glyph glyph-name="z" unicode="z" horiz-adv-x="736" 
d="M705 391l-363 -259h302l-38 -132h-682l32 112l370 258h-269l38 132h641z" />
    <glyph glyph-name="braceleft" unicode="{" horiz-adv-x="443" 
d="M489 594h-25q-21 0 -35.5 -8.5t-24.5 -23t-17 -34t-13 -41.5l-13 -48q-8 -28 -18.5 -54.5t-27.5 -47.5t-43 -35.5t-64 -17.5l-1 -2q33 -3 56.5 -23.5t23.5 -55.5q0 -17 -3.5 -34.5t-9.5 -36.5l-20 -62q-8 -23 -12.5 -43.5t-4.5 -39.5q0 -26 13.5 -33t31.5 -7h22l-36 -128
h-210q-42 0 -71 21.5t-29 66.5q0 23 6 47t15 54l24 76q6 20 10 40.5t4 37.5q0 27 -16 39t-41 12l40 140q42 0 66.5 25t35.5 63l45 152q17 57 62.5 93t105.5 36h210z" />
    <glyph glyph-name="bar" unicode="|" horiz-adv-x="272" 
d="M60 -213v997h152v-997h-152z" />
    <glyph glyph-name="braceright" unicode="}" horiz-adv-x="443" 
d="M403 213q-42 0 -67 -25t-36 -63l-48 -177q-8 -29 -24 -52.5t-38 -40.5t-49 -26.5t-57 -9.5h-210l36 128h25q22 0 37 10t25.5 27.5t18.5 41.5t15 51l10 39q9 37 22 66.5t31 50.5t42.5 33.5t57.5 15.5l1 2q-33 3 -56.5 23.5t-23.5 55.5q0 22 5 42.5t13 42.5l14 43
q5 14 8 31.5t3 31.5q0 26 -13.5 33t-32.5 7h-21l36 128h210q42 0 71 -21.5t29 -66.5q0 -18 -4 -38t-10 -40l-23 -72q-5 -17 -10 -38.5t-5 -40.5q0 -28 16 -40t42 -12z" />
    <glyph glyph-name="asciitilde" unicode="~" horiz-adv-x="728" 
d="M664 372q-1 -41 -11 -78t-29.5 -65.5t-49 -45.5t-69.5 -17q-41 0 -86 10.5t-89 23.5q-35 11 -66.5 17.5t-57.5 6.5t-38 -15t-15 -39h-99q1 41 11 78t29.5 65.5t49 45.5t69.5 17q41 0 86 -10.5t89 -23.5q35 -11 66.5 -17.5t57.5 -6.5t38 15t15 39h99z" />
    <glyph glyph-name="uni00A0" unicode="&#xa0;" horiz-adv-x="415" 
 />
    <glyph glyph-name="Agrave" unicode="&#xc0;" horiz-adv-x="1059" 
d="M677 0l-20 120h-372l-90 -120h-320l575 722h379l161 -722h-313zM593 539l-194 -261h234zM558 773l-130 146h289l44 -146h-203z" />
    <glyph glyph-name="Aacute" unicode="&#xc1;" horiz-adv-x="1059" 
d="M677 0l-20 120h-372l-90 -120h-320l575 722h379l161 -722h-313zM593 539l-194 -261h234zM746 773h-217l122 146h302z" />
    <glyph glyph-name="Acircumflex" unicode="&#xc2;" horiz-adv-x="1059" 
d="M677 0l-20 120h-372l-90 -120h-320l575 722h379l161 -722h-313zM593 539l-194 -261h234zM730 773l-52 64l-93 -64h-208l178 146h262l97 -146h-184z" />
    <glyph glyph-name="Atilde" unicode="&#xc3;" horiz-adv-x="1059" 
d="M677 0l-20 120h-372l-90 -120h-320l575 722h379l161 -722h-313zM593 539l-194 -261h234zM934 931q-9 -32 -26 -60.5t-40.5 -50t-53 -34.5t-64.5 -13q-24 0 -49 7t-49 16t-45.5 16t-39.5 7q-16 0 -30 -10t-21 -24h-105q26 71 70 108.5t122 37.5q22 0 43.5 -6t42.5 -12.5
t42 -12.5t43 -6q20 0 35.5 8.5t22.5 28.5h102z" />
    <glyph glyph-name="Adieresis" unicode="&#xc4;" horiz-adv-x="1059" 
d="M677 0l-20 120h-372l-90 -120h-320l575 722h379l161 -722h-313zM593 539l-194 -261h234zM931 779h-240l40 140h240zM607 779h-240l40 140h240z" />
    <glyph glyph-name="Amacron" unicode="&#x100;" horiz-adv-x="1059" 
d="M677 0l-20 120h-372l-90 -120h-320l575 722h379l161 -722h-313zM593 539l-194 -261h234zM895 784h-490l34 116h490z" />
    <glyph glyph-name="Abreve" unicode="&#x102;" horiz-adv-x="1059" 
d="M677 0l-20 120h-372l-90 -120h-320l575 722h379l161 -722h-313zM593 539l-194 -261h234zM922 919q-14 -41 -42.5 -69.5t-65 -47t-78 -27t-80.5 -8.5q-42 0 -79 7t-64.5 21.5t-43.5 38t-16 56.5q0 15 3 29h131q0 -19 7 -31t19 -19t27 -9.5t31 -2.5q38 0 69.5 14t50.5 48
h131z" />
    <glyph glyph-name="Aring" unicode="&#xc5;" horiz-adv-x="1059" 
d="M677 0l-20 120h-372l-90 -120h-320l575 722h379l161 -722h-313zM593 539l-194 -261h234zM670 955q42 0 77 -5.5t59.5 -18t38.5 -32t14 -47.5q0 -25 -15 -43t-40.5 -29.5t-60 -17t-73.5 -5.5q-85 0 -137 23.5t-52 79.5q0 25 15 43t41 29.5t60.5 17t72.5 5.5zM719 856
q0 19 -13 33t-35 14q-20 0 -35 -13.5t-15 -33.5t14 -33.5t35 -13.5q20 0 34.5 13t14.5 34z" />
    <glyph glyph-name="Aogonek" unicode="&#x104;" horiz-adv-x="1059" 
d="M990 0q-66 -32 -106.5 -63.5t-40.5 -64.5q0 -19 14.5 -25t30.5 -6q30 0 60 11l-4 -70q-33 -9 -67.5 -13t-69.5 -4q-18 0 -39.5 2.5t-40.5 10t-32 21.5t-13 38q0 50 46 88t129 75h-191l-20 120h-372l-90 -120h-309l575 722h379zM582 539l-194 -261h234z" />
    <glyph glyph-name="AE" unicode="&#xc6;" horiz-adv-x="1316" 
d="M1337 572h-439l-7 -135h382l-42 -148h-344l-8 -139h341l-43 -150h-585l9 126h-317l-95 -126h-323l630 722h884zM395 275h217l21 301z" />
    <glyph glyph-name="Cacute" unicode="&#x106;" horiz-adv-x="984" 
d="M992 526q0 -38 -9 -72h-308q4 19 4 42q0 26 -8 42.5t-22 26t-33 13t-42 3.5q-57 0 -102.5 -30.5t-77 -77.5t-48 -105.5t-16.5 -113.5q0 -58 31.5 -85.5t88.5 -27.5q70 0 110 34t64 98h310q-27 -87 -80 -143.5t-123.5 -89.5t-153.5 -46t-170 -13q-68 0 -138 11.5
t-126.5 41t-92.5 81t-36 132.5q0 46 10.5 93.5t30 91.5t46.5 84t59 73q42 43 94 72t110.5 47t123.5 25.5t133 7.5q35 0 76.5 -3t82.5 -11.5t79.5 -23.5t68 -38.5t47 -58t17.5 -80.5zM709 773h-217l122 146h302z" />
    <glyph glyph-name="Ccircumflex" unicode="&#x108;" horiz-adv-x="984" 
d="M992 526q0 -38 -9 -72h-308q4 19 4 42q0 26 -8 42.5t-22 26t-33 13t-42 3.5q-57 0 -102.5 -30.5t-77 -77.5t-48 -105.5t-16.5 -113.5q0 -58 31.5 -85.5t88.5 -27.5q70 0 110 34t64 98h310q-27 -87 -80 -143.5t-123.5 -89.5t-153.5 -46t-170 -13q-68 0 -138 11.5
t-126.5 41t-92.5 81t-36 132.5q0 46 10.5 93.5t30 91.5t46.5 84t59 73q42 43 94 72t110.5 47t123.5 25.5t133 7.5q35 0 76.5 -3t82.5 -11.5t79.5 -23.5t68 -38.5t47 -58t17.5 -80.5zM693 773l-52 64l-93 -64h-208l178 146h262l97 -146h-184z" />
    <glyph glyph-name="Ccaron" unicode="&#x10c;" horiz-adv-x="984" 
d="M992 526q0 -38 -9 -72h-308q4 19 4 42q0 26 -8 42.5t-22 26t-33 13t-42 3.5q-57 0 -102.5 -30.5t-77 -77.5t-48 -105.5t-16.5 -113.5q0 -58 31.5 -85.5t88.5 -27.5q70 0 110 34t64 98h310q-27 -87 -80 -143.5t-123.5 -89.5t-153.5 -46t-170 -13q-68 0 -138 11.5
t-126.5 41t-92.5 81t-36 132.5q0 46 10.5 93.5t30 91.5t46.5 84t59 73q42 43 94 72t110.5 47t123.5 25.5t133 7.5q35 0 76.5 -3t82.5 -11.5t79.5 -23.5t68 -38.5t47 -58t17.5 -80.5zM566 919l52 -64l93 64h208l-178 -146h-262l-97 146h184z" />
    <glyph glyph-name="Cdotaccent" unicode="&#x10a;" horiz-adv-x="984" 
d="M992 526q0 -38 -9 -72h-308q4 19 4 42q0 26 -8 42.5t-22 26t-33 13t-42 3.5q-57 0 -102.5 -30.5t-77 -77.5t-48 -105.5t-16.5 -113.5q0 -58 31.5 -85.5t88.5 -27.5q70 0 110 34t64 98h310q-27 -87 -80 -143.5t-123.5 -89.5t-153.5 -46t-170 -13q-68 0 -138 11.5
t-126.5 41t-92.5 81t-36 132.5q0 46 10.5 93.5t30 91.5t46.5 84t59 73q42 43 94 72t110.5 47t123.5 25.5t133 7.5q35 0 76.5 -3t82.5 -11.5t79.5 -23.5t68 -38.5t47 -58t17.5 -80.5zM730 779h-240l40 140h240z" />
    <glyph glyph-name="Ccedilla" unicode="&#xc7;" horiz-adv-x="984" 
d="M992 526q0 -38 -9 -72h-308q4 19 4 42q0 26 -8 42.5t-22 26t-33 13t-42 3.5q-57 0 -102.5 -30.5t-77 -77.5t-48 -105.5t-16.5 -113.5q0 -58 31.5 -85.5t88.5 -27.5q70 0 110 34t64 98h310q-26 -82 -74.5 -136.5t-113.5 -88t-142 -48.5t-158 -18l-57 -51q14 5 32 7.5
t37 2.5q31 0 55 -16.5t24 -48.5q0 -30 -15 -51.5t-41 -34.5t-61.5 -19t-76.5 -6q-37 0 -79 6t-77 18l38 56q21 -10 42.5 -16t44.5 -6q32 0 50 8.5t18 25.5q0 13 -9.5 19.5t-24.5 6.5q-13 0 -24 -2t-25 -7l-20 31l88 77q-64 3 -126.5 17t-112.5 44t-81 79.5t-31 124.5
q0 46 10.5 93.5t30 91.5t46.5 84t59 73q42 43 94 72t110.5 47t123.5 25.5t133 7.5q35 0 76.5 -3t82.5 -11.5t79.5 -23.5t68 -38.5t47 -58t17.5 -80.5z" />
    <glyph glyph-name="Dcaron" unicode="&#x10e;" horiz-adv-x="1029" 
d="M1015 462q0 -100 -30.5 -177t-81.5 -131q-42 -43 -96 -72.5t-118 -47.5t-137 -26t-152 -8h-430l207 722h387q87 0 168.5 -10t144.5 -38.5t100.5 -79t37.5 -132.5zM694 437q0 36 -13 60t-36 38.5t-53.5 20.5t-64.5 6h-92l-115 -402h89q69 0 120.5 18t87.5 52
q38 36 57.5 91t19.5 116zM569 919l52 -64l93 64h208l-178 -146h-262l-97 146h184z" />
    <glyph glyph-name="Dcroat" unicode="&#x110;" horiz-adv-x="1029" 
d="M1015 450q0 -92 -23.5 -161t-66 -119t-101.5 -83t-129 -52t-148.5 -27t-160.5 -8h-417l80 278h-72l42 152h73l84 292h387q87 0 168.5 -9.5t144.5 -38.5t101 -82.5t38 -141.5zM695 427q0 40 -13.5 66.5t-37 41.5t-55 21t-66.5 6h-89l-38 -132h98l-40 -152h-101l-34 -118
h89q60 0 112.5 18t91.5 52.5t61 84t22 112.5z" />
    <glyph glyph-name="Eth" unicode="&#xd0;" horiz-adv-x="1029" 
d="M1015 450q0 -92 -23.5 -161t-66 -119t-101.5 -83t-129 -52t-148.5 -27t-160.5 -8h-417l80 278h-72l42 152h73l84 292h387q87 0 168.5 -9.5t144.5 -38.5t101 -82.5t38 -141.5zM695 427q0 40 -13.5 66.5t-37 41.5t-55 21t-66.5 6h-89l-38 -132h98l-40 -152h-101l-34 -118
h89q60 0 112.5 18t91.5 52.5t61 84t22 112.5z" />
    <glyph glyph-name="Egrave" unicode="&#xc8;" horiz-adv-x="805" 
d="M826 572h-392l-39 -135h367l-42 -148h-367l-40 -139h396l-43 -150h-696l207 722h692zM446 773l-130 146h289l44 -146h-203z" />
    <glyph glyph-name="Eacute" unicode="&#xc9;" horiz-adv-x="805" 
d="M826 572h-392l-39 -135h367l-42 -148h-367l-40 -139h396l-43 -150h-696l207 722h692zM634 773h-217l122 146h302z" />
    <glyph glyph-name="Ecircumflex" unicode="&#xca;" horiz-adv-x="805" 
d="M826 572h-392l-39 -135h367l-42 -148h-367l-40 -139h396l-43 -150h-696l207 722h692zM618 773l-52 64l-93 -64h-208l178 146h262l97 -146h-184z" />
    <glyph glyph-name="Ecaron" unicode="&#x11a;" horiz-adv-x="805" 
d="M826 572h-392l-39 -135h367l-42 -148h-367l-40 -139h396l-43 -150h-696l207 722h692zM491 919l52 -64l93 64h208l-178 -146h-262l-97 146h184z" />
    <glyph glyph-name="Edieresis" unicode="&#xcb;" horiz-adv-x="805" 
d="M826 572h-392l-39 -135h367l-42 -148h-367l-40 -139h396l-43 -150h-696l207 722h692zM819 779h-240l40 140h240zM495 779h-240l40 140h240z" />
    <glyph glyph-name="Emacron" unicode="&#x112;" horiz-adv-x="805" 
d="M826 572h-392l-39 -135h367l-42 -148h-367l-40 -139h396l-43 -150h-696l207 722h692zM783 784h-490l34 116h490z" />
    <glyph glyph-name="Ebreve" unicode="&#x114;" horiz-adv-x="805" 
d="M826 572h-392l-39 -135h367l-42 -148h-367l-40 -139h396l-43 -150h-696l207 722h692zM810 919q-14 -41 -42.5 -69.5t-65 -47t-78 -27t-80.5 -8.5q-42 0 -79 7t-64.5 21.5t-43.5 38t-16 56.5q0 15 3 29h131q0 -19 7 -31t19 -19t27 -9.5t31 -2.5q38 0 69.5 14t50.5 48h131z
" />
    <glyph glyph-name="Edotaccent" unicode="&#x116;" horiz-adv-x="805" 
d="M826 572h-392l-39 -135h367l-42 -148h-367l-40 -139h396l-43 -150h-696l207 722h692zM651 779h-240l40 140h240z" />
    <glyph glyph-name="Eogonek" unicode="&#x118;" horiz-adv-x="805" 
d="M826 572h-392l-39 -135h367l-42 -148h-367l-40 -139h396l-43 -150q-66 -32 -106.5 -63.5t-40.5 -64.5q0 -19 14.5 -25t30.5 -6q30 0 60 11l-4 -70q-33 -9 -67.5 -13t-69.5 -4q-18 0 -39.5 2.5t-40.5 10t-32 21.5t-13 38q0 50 46 88t129 75h-563l207 722h692z" />
    <glyph glyph-name="Gcircumflex" unicode="&#x11c;" horiz-adv-x="1043" 
d="M1038 549q0 -12 -0.5 -24t-2.5 -23h-309v9q0 26 -11.5 41.5t-29.5 23.5t-40 10.5t-42 2.5q-54 0 -95.5 -17.5t-73.5 -48.5q-23 -22 -42.5 -53t-34 -66t-23 -71.5t-8.5 -68.5q0 -37 12 -62t33.5 -40.5t50.5 -22t63 -6.5q38 0 75.5 5.5t72.5 18.5l35 113h-179l43 148h480
l-110 -383q-50 -12 -97 -21.5t-100 -16.5t-115 -11t-141 -4q-86 0 -165 14.5t-139 47.5t-95.5 86.5t-35.5 131.5q0 96 37.5 175.5t93.5 137.5q86 89 207 127.5t274 38.5q36 0 81 -2t90.5 -8.5t89 -19.5t77 -34t54 -52.5t20.5 -75.5zM713 773l-52 64l-93 -64h-208l178 146
h262l97 -146h-184z" />
    <glyph glyph-name="Gbreve" unicode="&#x11e;" horiz-adv-x="1043" 
d="M1038 549q0 -12 -0.5 -24t-2.5 -23h-309v9q0 26 -11.5 41.5t-29.5 23.5t-40 10.5t-42 2.5q-54 0 -95.5 -17.5t-73.5 -48.5q-23 -22 -42.5 -53t-34 -66t-23 -71.5t-8.5 -68.5q0 -37 12 -62t33.5 -40.5t50.5 -22t63 -6.5q38 0 75.5 5.5t72.5 18.5l35 113h-179l43 148h480
l-110 -383q-50 -12 -97 -21.5t-100 -16.5t-115 -11t-141 -4q-86 0 -165 14.5t-139 47.5t-95.5 86.5t-35.5 131.5q0 96 37.5 175.5t93.5 137.5q86 89 207 127.5t274 38.5q36 0 81 -2t90.5 -8.5t89 -19.5t77 -34t54 -52.5t20.5 -75.5zM905 919q-14 -41 -42.5 -69.5t-65 -47
t-78 -27t-80.5 -8.5q-42 0 -79 7t-64.5 21.5t-43.5 38t-16 56.5q0 15 3 29h131q0 -19 7 -31t19 -19t27 -9.5t31 -2.5q38 0 69.5 14t50.5 48h131z" />
    <glyph glyph-name="Gdotaccent" unicode="&#x120;" horiz-adv-x="1043" 
d="M1038 549q0 -12 -0.5 -24t-2.5 -23h-309v9q0 26 -11.5 41.5t-29.5 23.5t-40 10.5t-42 2.5q-54 0 -95.5 -17.5t-73.5 -48.5q-23 -22 -42.5 -53t-34 -66t-23 -71.5t-8.5 -68.5q0 -37 12 -62t33.5 -40.5t50.5 -22t63 -6.5q38 0 75.5 5.5t72.5 18.5l35 113h-179l43 148h480
l-110 -383q-50 -12 -97 -21.5t-100 -16.5t-115 -11t-141 -4q-86 0 -165 14.5t-139 47.5t-95.5 86.5t-35.5 131.5q0 96 37.5 175.5t93.5 137.5q86 89 207 127.5t274 38.5q36 0 81 -2t90.5 -8.5t89 -19.5t77 -34t54 -52.5t20.5 -75.5zM750 779h-240l40 140h240z" />
    <glyph glyph-name="Gcommaaccent" unicode="&#x122;" horiz-adv-x="1043" 
d="M1038 549q0 -12 -0.5 -24t-2.5 -23h-309v9q0 26 -11.5 41.5t-29.5 23.5t-40 10.5t-42 2.5q-54 0 -95.5 -17.5t-73.5 -48.5q-23 -22 -42.5 -53t-34 -66t-23 -71.5t-8.5 -68.5q0 -37 12 -62t33.5 -40.5t50.5 -22t63 -6.5q38 0 75.5 5.5t72.5 18.5l35 113h-179l43 148h480
l-110 -383q-50 -12 -97 -21.5t-100 -16.5t-115 -11t-141 -4q-86 0 -165 14.5t-139 47.5t-95.5 86.5t-35.5 131.5q0 96 37.5 175.5t93.5 137.5q86 89 207 127.5t274 38.5q36 0 81 -2t90.5 -8.5t89 -19.5t77 -34t54 -52.5t20.5 -75.5zM414 -245h-231l117 194h284z" />
    <glyph glyph-name="Hcircumflex" unicode="&#x124;" horiz-adv-x="1056" 
d="M879 0h-304l81 283h-301l-81 -283h-304l207 722h304l-77 -267h301l77 267h304zM731 773l-52 64l-93 -64h-208l178 146h262l97 -146h-184z" />
    <glyph glyph-name="Hbar" unicode="&#x126;" horiz-adv-x="1056" 
d="M457 638h301l24 84h304l-207 -722h-304l81 283h-301l-81 -283h-304l207 722h304zM418 502l-14 -47h301l14 47h-301z" />
    <glyph glyph-name="Igrave" unicode="&#xcc;" horiz-adv-x="450" 
d="M274 0h-304l207 722h303zM252 773l-130 146h289l44 -146h-203z" />
    <glyph glyph-name="Iacute" unicode="&#xcd;" horiz-adv-x="450" 
d="M274 0h-304l207 722h303zM440 773h-217l122 146h302z" />
    <glyph glyph-name="Ibreve" unicode="&#x12c;" horiz-adv-x="450" 
d="M274 0h-304l207 722h303zM615 919q-14 -41 -42.5 -69.5t-65 -47t-78 -27t-80.5 -8.5q-42 0 -79 7t-64.5 21.5t-43.5 38t-16 56.5q0 15 3 29h131q0 -19 7 -31t19 -19t27 -9.5t31 -2.5q38 0 69.5 14t50.5 48h131z" />
    <glyph glyph-name="Icircumflex" unicode="&#xce;" horiz-adv-x="450" 
d="M274 0h-304l207 722h303zM424 773l-52 64l-93 -64h-208l178 146h262l97 -146h-184z" />
    <glyph glyph-name="Itilde" unicode="&#x128;" horiz-adv-x="450" 
d="M274 0h-304l207 722h303zM628 931q-9 -32 -26 -60.5t-40.5 -50t-53 -34.5t-64.5 -13q-24 0 -49 7t-49 16t-45.5 16t-39.5 7q-16 0 -30 -10t-21 -24h-105q26 71 70 108.5t122 37.5q22 0 43.5 -6t42.5 -12.5t42 -12.5t43 -6q20 0 35.5 8.5t22.5 28.5h102z" />
    <glyph glyph-name="Idieresis" unicode="&#xcf;" horiz-adv-x="450" 
d="M274 0h-304l207 722h303zM625 779h-240l40 140h240zM301 779h-240l40 140h240z" />
    <glyph glyph-name="Imacron" unicode="&#x12a;" horiz-adv-x="450" 
d="M274 0h-304l207 722h303zM589 784h-490l34 116h490z" />
    <glyph glyph-name="Idotaccent" unicode="&#x130;" horiz-adv-x="450" 
d="M274 0h-304l207 722h303zM461 779h-240l40 140h240z" />
    <glyph glyph-name="Iogonek" unicode="&#x12e;" horiz-adv-x="450" 
d="M274 0q-66 -32 -106.5 -63.5t-40.5 -64.5q0 -19 14.5 -25t30.5 -6q30 0 60 11l-4 -70q-33 -9 -67.5 -13t-69.5 -4q-18 0 -39.5 2.5t-40.5 10t-32 21.5t-13 38q0 50 46 88t129 75h-171l207 722h303z" />
    <glyph glyph-name="Jcircumflex" unicode="&#x134;" horiz-adv-x="830" 
d="M751 314q-27 -93 -65 -157t-93 -103t-130 -56t-174 -17q-55 0 -112 8.5t-104 30.5t-77 59.5t-30 95.5q0 15 0.5 26t2 21.5t3.5 22.5t5 28h290q-6 -18 -10.5 -37.5t-4.5 -38.5q0 -30 15.5 -42t43.5 -12q24 0 42 7t33 22.5t27.5 42t23.5 65.5l127 442h304zM799 773l-52 64
l-93 -64h-208l178 146h262l97 -146h-184z" />
    <glyph glyph-name="Kcommaaccent" unicode="&#x136;" horiz-adv-x="1004" 
d="M689 359l200 -359h-331l-178 376l347 346h377zM271 0h-301l207 722h301zM397 -245h-231l117 194h284z" />
    <glyph glyph-name="Lacute" unicode="&#x139;" horiz-adv-x="719" 
d="M611 0h-641l207 722h304l-160 -560h337zM443 773h-217l122 146h302z" />
    <glyph glyph-name="Lcaron" unicode="&#x13d;" horiz-adv-x="719" 
d="M611 0h-641l207 722h304l-160 -560h337zM650 419h-204l122 303h261z" />
    <glyph glyph-name="Lcommaaccent" unicode="&#x13b;" horiz-adv-x="719" 
d="M611 0h-641l207 722h304l-160 -560h337zM288 -245h-231l117 194h284z" />
    <glyph glyph-name="Lslash" unicode="&#x141;" horiz-adv-x="716" 
d="M611 0h-641l56 197l-80 -39l46 158l80 39l105 367h304l-56 -195l143 70l-45 -158l-143 -70l-58 -203h337z" />
    <glyph glyph-name="Ldot" unicode="&#x13f;" horiz-adv-x="719" 
d="M611 0h-641l207 722h304l-160 -560h337zM721 384h-240l40 140h240z" />
    <glyph glyph-name="Nacute" unicode="&#x143;" horiz-adv-x="1102" 
d="M925 0h-428l-121 522l-149 -522h-257l207 722h428l121 -521l149 521h257zM761 773h-217l122 146h302z" />
    <glyph glyph-name="Ncaron" unicode="&#x147;" horiz-adv-x="1102" 
d="M925 0h-428l-121 522l-149 -522h-257l207 722h428l121 -521l149 521h257zM618 919l52 -64l93 64h208l-178 -146h-262l-97 146h184z" />
    <glyph glyph-name="Ntilde" unicode="&#xd1;" horiz-adv-x="1102" 
d="M925 0h-428l-121 522l-149 -522h-257l207 722h428l121 -521l149 521h257zM949 931q-9 -32 -26 -60.5t-40.5 -50t-53 -34.5t-64.5 -13q-24 0 -49 7t-49 16t-45.5 16t-39.5 7q-16 0 -30 -10t-21 -24h-105q26 71 70 108.5t122 37.5q22 0 43.5 -6t42.5 -12.5t42 -12.5t43 -6
q20 0 35.5 8.5t22.5 28.5h102z" />
    <glyph glyph-name="Ncommaaccent" unicode="&#x145;" horiz-adv-x="1102" 
d="M925 0h-428l-121 522l-149 -522h-257l207 722h428l121 -521l149 521h257zM439 -245h-231l117 194h284z" />
    <glyph glyph-name="Ograve" unicode="&#xd2;" horiz-adv-x="1032" 
d="M1018 469q0 -91 -37.5 -177t-100.5 -151q-44 -45 -96 -75.5t-110.5 -49t-123 -27t-132.5 -8.5q-43 0 -90 4.5t-92 16t-85 31t-70.5 49t-48.5 70t-18 95.5q0 45 10 91t28.5 89.5t44.5 83.5t57 72q43 45 94.5 75t110 48.5t123 26.5t133.5 8q66 0 137 -12t130 -42.5
t97.5 -83t38.5 -134.5zM706 459q0 61 -32.5 91.5t-92.5 30.5t-107 -30t-79.5 -76.5t-49.5 -103t-17 -109.5q0 -62 32.5 -91.5t92.5 -29.5q59 0 106 29.5t79.5 76t50 102.5t17.5 110zM541 773l-130 146h289l44 -146h-203z" />
    <glyph glyph-name="Oacute" unicode="&#xd3;" horiz-adv-x="1032" 
d="M1018 469q0 -91 -37.5 -177t-100.5 -151q-44 -45 -96 -75.5t-110.5 -49t-123 -27t-132.5 -8.5q-43 0 -90 4.5t-92 16t-85 31t-70.5 49t-48.5 70t-18 95.5q0 45 10 91t28.5 89.5t44.5 83.5t57 72q43 45 94.5 75t110 48.5t123 26.5t133.5 8q66 0 137 -12t130 -42.5
t97.5 -83t38.5 -134.5zM706 459q0 61 -32.5 91.5t-92.5 30.5t-107 -30t-79.5 -76.5t-49.5 -103t-17 -109.5q0 -62 32.5 -91.5t92.5 -29.5q59 0 106 29.5t79.5 76t50 102.5t17.5 110zM729 773h-217l122 146h302z" />
    <glyph glyph-name="Ocircumflex" unicode="&#xd4;" horiz-adv-x="1032" 
d="M1018 469q0 -91 -37.5 -177t-100.5 -151q-44 -45 -96 -75.5t-110.5 -49t-123 -27t-132.5 -8.5q-43 0 -90 4.5t-92 16t-85 31t-70.5 49t-48.5 70t-18 95.5q0 45 10 91t28.5 89.5t44.5 83.5t57 72q43 45 94.5 75t110 48.5t123 26.5t133.5 8q66 0 137 -12t130 -42.5
t97.5 -83t38.5 -134.5zM706 459q0 61 -32.5 91.5t-92.5 30.5t-107 -30t-79.5 -76.5t-49.5 -103t-17 -109.5q0 -62 32.5 -91.5t92.5 -29.5q59 0 106 29.5t79.5 76t50 102.5t17.5 110zM713 773l-52 64l-93 -64h-208l178 146h262l97 -146h-184z" />
    <glyph glyph-name="Otilde" unicode="&#xd5;" horiz-adv-x="1032" 
d="M1018 469q0 -91 -37.5 -177t-100.5 -151q-44 -45 -96 -75.5t-110.5 -49t-123 -27t-132.5 -8.5q-43 0 -90 4.5t-92 16t-85 31t-70.5 49t-48.5 70t-18 95.5q0 45 10 91t28.5 89.5t44.5 83.5t57 72q43 45 94.5 75t110 48.5t123 26.5t133.5 8q66 0 137 -12t130 -42.5
t97.5 -83t38.5 -134.5zM706 459q0 61 -32.5 91.5t-92.5 30.5t-107 -30t-79.5 -76.5t-49.5 -103t-17 -109.5q0 -62 32.5 -91.5t92.5 -29.5q59 0 106 29.5t79.5 76t50 102.5t17.5 110zM917 931q-9 -32 -26 -60.5t-40.5 -50t-53 -34.5t-64.5 -13q-24 0 -49 7t-49 16t-45.5 16
t-39.5 7q-16 0 -30 -10t-21 -24h-105q26 71 70 108.5t122 37.5q22 0 43.5 -6t42.5 -12.5t42 -12.5t43 -6q20 0 35.5 8.5t22.5 28.5h102z" />
    <glyph glyph-name="Odieresis" unicode="&#xd6;" horiz-adv-x="1032" 
d="M1018 469q0 -91 -37.5 -177t-100.5 -151q-44 -45 -96 -75.5t-110.5 -49t-123 -27t-132.5 -8.5q-43 0 -90 4.5t-92 16t-85 31t-70.5 49t-48.5 70t-18 95.5q0 45 10 91t28.5 89.5t44.5 83.5t57 72q43 45 94.5 75t110 48.5t123 26.5t133.5 8q66 0 137 -12t130 -42.5
t97.5 -83t38.5 -134.5zM706 459q0 61 -32.5 91.5t-92.5 30.5t-107 -30t-79.5 -76.5t-49.5 -103t-17 -109.5q0 -62 32.5 -91.5t92.5 -29.5q59 0 106 29.5t79.5 76t50 102.5t17.5 110zM914 779h-240l40 140h240zM590 779h-240l40 140h240z" />
    <glyph glyph-name="Omacron" unicode="&#x14c;" horiz-adv-x="1032" 
d="M1018 469q0 -91 -37.5 -177t-100.5 -151q-44 -45 -96 -75.5t-110.5 -49t-123 -27t-132.5 -8.5q-43 0 -90 4.5t-92 16t-85 31t-70.5 49t-48.5 70t-18 95.5q0 45 10 91t28.5 89.5t44.5 83.5t57 72q43 45 94.5 75t110 48.5t123 26.5t133.5 8q66 0 137 -12t130 -42.5
t97.5 -83t38.5 -134.5zM706 459q0 61 -32.5 91.5t-92.5 30.5t-107 -30t-79.5 -76.5t-49.5 -103t-17 -109.5q0 -62 32.5 -91.5t92.5 -29.5q59 0 106 29.5t79.5 76t50 102.5t17.5 110zM878 784h-490l34 116h490z" />
    <glyph glyph-name="Obreve" unicode="&#x14e;" horiz-adv-x="1032" 
d="M1018 469q0 -91 -37.5 -177t-100.5 -151q-44 -45 -96 -75.5t-110.5 -49t-123 -27t-132.5 -8.5q-43 0 -90 4.5t-92 16t-85 31t-70.5 49t-48.5 70t-18 95.5q0 45 10 91t28.5 89.5t44.5 83.5t57 72q43 45 94.5 75t110 48.5t123 26.5t133.5 8q66 0 137 -12t130 -42.5
t97.5 -83t38.5 -134.5zM706 459q0 61 -32.5 91.5t-92.5 30.5t-107 -30t-79.5 -76.5t-49.5 -103t-17 -109.5q0 -62 32.5 -91.5t92.5 -29.5q59 0 106 29.5t79.5 76t50 102.5t17.5 110zM905 919q-14 -41 -42.5 -69.5t-65 -47t-78 -27t-80.5 -8.5q-42 0 -79 7t-64.5 21.5
t-43.5 38t-16 56.5q0 15 3 29h131q0 -19 7 -31t19 -19t27 -9.5t31 -2.5q38 0 69.5 14t50.5 48h131z" />
    <glyph glyph-name="Ohungarumlaut" unicode="&#x150;" horiz-adv-x="1032" 
d="M1018 469q0 -91 -37.5 -177t-100.5 -151q-44 -45 -96 -75.5t-110.5 -49t-123 -27t-132.5 -8.5q-43 0 -90 4.5t-92 16t-85 31t-70.5 49t-48.5 70t-18 95.5q0 45 10 91t28.5 89.5t44.5 83.5t57 72q43 45 94.5 75t110 48.5t123 26.5t133.5 8q66 0 137 -12t130 -42.5
t97.5 -83t38.5 -134.5zM706 459q0 61 -32.5 91.5t-92.5 30.5t-107 -30t-79.5 -76.5t-49.5 -103t-17 -109.5q0 -62 32.5 -91.5t92.5 -29.5q59 0 106 29.5t79.5 76t50 102.5t17.5 110zM887 773h-212l124 146h298zM563 773h-212l124 146h298z" />
    <glyph glyph-name="Oslash" unicode="&#xd8;" horiz-adv-x="1032" 
d="M931 666q46 -34 67 -81t21 -104q0 -31 -5.5 -61t-13.5 -59q-30 -103 -88.5 -175.5t-137 -118t-172.5 -66t-194 -20.5q-61 0 -125.5 8t-120.5 33l-128 -108l-40 51l108 91q-45 34 -66 81t-21 103q0 31 5.5 61.5t13.5 59.5q27 94 83.5 171.5t141.5 128.5q85 50 177 65
t189 15q61 0 125 -7.5t121 -32.5l128 107l40 -51zM676 538q-18 23 -44 31t-54 8q-48 0 -86 -18t-66.5 -48t-49 -69t-32.5 -81q-6 -22 -10.5 -44t-4.5 -45q0 -6 0.5 -12t1.5 -12zM704 448q0 7 -0.5 13.5t-1.5 13.5l-346 -291q18 -22 44.5 -30.5t54.5 -8.5q57 0 103 28
t78.5 72t50 97.5t17.5 105.5z" />
    <glyph glyph-name="OE" unicode="&#x152;" horiz-adv-x="1354" 
d="M1375 572h-392l-39 -135h366l-42 -148h-366l-40 -139h395l-43 -150h-656q-43 0 -85.5 -2t-85.5 -2q-74 0 -141 15.5t-119 49t-82.5 87.5t-30.5 132q0 112 46.5 196t126 139.5t185.5 83t224 27.5q42 0 84.5 -2t84.5 -2h653zM701 575q-23 2 -41.5 2.5t-38.5 0.5
q-109 0 -185 -57t-106 -162q-6 -20 -9.5 -40.5t-3.5 -41.5q0 -40 15 -66t40 -41t57.5 -20.5t66.5 -5.5q21 0 37.5 1t45.5 3z" />
    <glyph glyph-name="Racute" unicode="&#x154;" horiz-adv-x="960" 
d="M957 554q0 -48 -17.5 -85t-47.5 -62.5t-70 -41t-85 -21.5q53 -11 79.5 -40.5t26.5 -84.5q0 -11 -1 -27t-5 -43q-2 -14 -3.5 -33t-3 -39.5t-2 -40.5t-0.5 -36h-290q0 21 1.5 47.5t4.5 50.5q4 30 6.5 52t2.5 46q0 25 -10 38.5t-25.5 20t-35.5 7.5t-40 1h-96l-75 -263h-301
l207 722h525q50 0 96 -7t81.5 -25.5t56.5 -51.5t21 -84zM649 520q0 20 -9.5 32t-24.5 18t-32.5 8t-32.5 2h-113l-51 -179h113q28 0 55 6.5t48 20.5t34 37t13 55zM690 773h-217l122 146h302z" />
    <glyph glyph-name="Rcaron" unicode="&#x158;" horiz-adv-x="960" 
d="M957 554q0 -48 -17.5 -85t-47.5 -62.5t-70 -41t-85 -21.5q53 -11 79.5 -40.5t26.5 -84.5q0 -11 -1 -27t-5 -43q-2 -14 -3.5 -33t-3 -39.5t-2 -40.5t-0.5 -36h-290q0 21 1.5 47.5t4.5 50.5q4 30 6.5 52t2.5 46q0 25 -10 38.5t-25.5 20t-35.5 7.5t-40 1h-96l-75 -263h-301
l207 722h525q50 0 96 -7t81.5 -25.5t56.5 -51.5t21 -84zM649 520q0 20 -9.5 32t-24.5 18t-32.5 8t-32.5 2h-113l-51 -179h113q28 0 55 6.5t48 20.5t34 37t13 55zM527 919l52 -64l93 64h208l-178 -146h-262l-97 146h184z" />
    <glyph glyph-name="Rcommaaccent" unicode="&#x156;" horiz-adv-x="960" 
d="M957 554q0 -48 -17.5 -85t-47.5 -62.5t-70 -41t-85 -21.5q53 -11 79.5 -40.5t26.5 -84.5q0 -11 -1 -27t-5 -43q-2 -14 -3.5 -33t-3 -39.5t-2 -40.5t-0.5 -36h-290q0 21 1.5 47.5t4.5 50.5q4 30 6.5 52t2.5 46q0 25 -10 38.5t-25.5 20t-35.5 7.5t-40 1h-96l-75 -263h-301
l207 722h525q50 0 96 -7t81.5 -25.5t56.5 -51.5t21 -84zM649 520q0 20 -9.5 32t-24.5 18t-32.5 8t-32.5 2h-113l-51 -179h113q28 0 55 6.5t48 20.5t34 37t13 55zM390 -245h-231l117 194h284z" />
    <glyph glyph-name="Sacute" unicode="&#x15a;" horiz-adv-x="934" 
d="M930 565q0 -14 -1 -28t-4 -28h-298q2 8 3 15.5t1 15.5q0 21 -8 34.5t-21.5 20.5t-30.5 9.5t-35 2.5q-16 0 -38 -3t-41.5 -10.5t-33.5 -21.5t-14 -35q0 -15 8.5 -26t22.5 -19t31 -14t34 -11l178 -51q33 -9 66.5 -22t60 -32t43.5 -46t17 -66q0 -61 -24.5 -105t-65 -74
t-93 -48t-108 -27t-110 -12t-98.5 -3q-30 0 -70 1t-82.5 6.5t-84.5 16.5t-74.5 31t-53 49.5t-20.5 72.5q0 17 1.5 34.5t6.5 34.5h308q-5 -22 -5 -39q0 -22 8 -36t21.5 -22.5t31 -11.5t36.5 -3t44.5 2.5t48 10.5t38 24t15.5 42q0 29 -21.5 44.5t-80.5 33.5l-184 55
q-34 10 -64.5 23t-54 31.5t-37.5 43t-14 57.5q0 53 22.5 93t60 69t86 47.5t101 29.5t105.5 15.5t98 4.5q31 0 70.5 -1.5t81 -7t81 -16.5t71 -30.5t50.5 -49t19 -71.5zM677 773h-217l122 146h302z" />
    <glyph glyph-name="Scircumflex" unicode="&#x15c;" horiz-adv-x="934" 
d="M930 565q0 -14 -1 -28t-4 -28h-298q2 8 3 15.5t1 15.5q0 21 -8 34.5t-21.5 20.5t-30.5 9.5t-35 2.5q-16 0 -38 -3t-41.5 -10.5t-33.5 -21.5t-14 -35q0 -15 8.5 -26t22.5 -19t31 -14t34 -11l178 -51q33 -9 66.5 -22t60 -32t43.5 -46t17 -66q0 -61 -24.5 -105t-65 -74
t-93 -48t-108 -27t-110 -12t-98.5 -3q-30 0 -70 1t-82.5 6.5t-84.5 16.5t-74.5 31t-53 49.5t-20.5 72.5q0 17 1.5 34.5t6.5 34.5h308q-5 -22 -5 -39q0 -22 8 -36t21.5 -22.5t31 -11.5t36.5 -3t44.5 2.5t48 10.5t38 24t15.5 42q0 29 -21.5 44.5t-80.5 33.5l-184 55
q-34 10 -64.5 23t-54 31.5t-37.5 43t-14 57.5q0 53 22.5 93t60 69t86 47.5t101 29.5t105.5 15.5t98 4.5q31 0 70.5 -1.5t81 -7t81 -16.5t71 -30.5t50.5 -49t19 -71.5zM661 773l-52 64l-93 -64h-208l178 146h262l97 -146h-184z" />
    <glyph glyph-name="Scaron" unicode="&#x160;" horiz-adv-x="934" 
d="M930 565q0 -14 -1 -28t-4 -28h-298q2 8 3 15.5t1 15.5q0 21 -8 34.5t-21.5 20.5t-30.5 9.5t-35 2.5q-16 0 -38 -3t-41.5 -10.5t-33.5 -21.5t-14 -35q0 -15 8.5 -26t22.5 -19t31 -14t34 -11l178 -51q33 -9 66.5 -22t60 -32t43.5 -46t17 -66q0 -61 -24.5 -105t-65 -74
t-93 -48t-108 -27t-110 -12t-98.5 -3q-30 0 -70 1t-82.5 6.5t-84.5 16.5t-74.5 31t-53 49.5t-20.5 72.5q0 17 1.5 34.5t6.5 34.5h308q-5 -22 -5 -39q0 -22 8 -36t21.5 -22.5t31 -11.5t36.5 -3t44.5 2.5t48 10.5t38 24t15.5 42q0 29 -21.5 44.5t-80.5 33.5l-184 55
q-34 10 -64.5 23t-54 31.5t-37.5 43t-14 57.5q0 53 22.5 93t60 69t86 47.5t101 29.5t105.5 15.5t98 4.5q31 0 70.5 -1.5t81 -7t81 -16.5t71 -30.5t50.5 -49t19 -71.5zM534 919l52 -64l93 64h208l-178 -146h-262l-97 146h184z" />
    <glyph glyph-name="Scedilla" unicode="&#x15e;" horiz-adv-x="934" 
d="M501 -124q0 -30 -15 -51.5t-41 -34.5t-61.5 -19t-76.5 -6q-37 0 -79 6t-77 18l38 56q21 -10 42.5 -16t44.5 -6q32 0 50 8.5t18 25.5q0 13 -9.5 19.5t-24.5 6.5q-13 0 -24 -2t-25 -7l-20 31l87 77q-49 1 -108.5 7t-111.5 24.5t-87 53t-35 91.5q0 17 1.5 34.5t6.5 34.5h308
q-5 -22 -5 -39q0 -22 8 -36t21.5 -22.5t31 -11.5t36.5 -3t44.5 2.5t48 10.5t38 24t15.5 42q0 29 -21.5 44.5t-80.5 33.5l-184 55q-34 10 -64.5 23t-54 31.5t-37.5 43t-14 57.5q0 53 22.5 93t60 69t86 47.5t101 29.5t105.5 15.5t98 4.5q31 0 70.5 -1.5t81 -7t81 -16.5
t71 -30.5t50.5 -49t19 -71.5q0 -14 -1 -28t-4 -28h-298q2 8 3 15.5t1 15.5q0 21 -8 34.5t-21.5 20.5t-30.5 9.5t-35 2.5q-16 0 -38 -3t-41.5 -10.5t-33.5 -21.5t-14 -35q0 -15 8.5 -26t22.5 -19t31 -14t34 -11l178 -51q33 -9 66.5 -22t60 -32t43.5 -46t17 -66
q0 -57 -21.5 -99t-57.5 -71.5t-83 -48t-98 -29t-103 -15t-97 -5.5l-57 -51q14 5 32 7.5t37 2.5q31 0 55 -16.5t24 -48.5z" />
    <glyph glyph-name="Scommaaccent" unicode="&#x218;" horiz-adv-x="934" 
d="M930 565q0 -14 -1 -28t-4 -28h-298q2 8 3 15.5t1 15.5q0 21 -8 34.5t-21.5 20.5t-30.5 9.5t-35 2.5q-16 0 -38 -3t-41.5 -10.5t-33.5 -21.5t-14 -35q0 -15 8.5 -26t22.5 -19t31 -14t34 -11l178 -51q33 -9 66.5 -22t60 -32t43.5 -46t17 -66q0 -61 -24.5 -105t-65 -74
t-93 -48t-108 -27t-110 -12t-98.5 -3q-30 0 -70 1t-82.5 6.5t-84.5 16.5t-74.5 31t-53 49.5t-20.5 72.5q0 17 1.5 34.5t6.5 34.5h308q-5 -22 -5 -39q0 -22 8 -36t21.5 -22.5t31 -11.5t36.5 -3t44.5 2.5t48 10.5t38 24t15.5 42q0 29 -21.5 44.5t-80.5 33.5l-184 55
q-34 10 -64.5 23t-54 31.5t-37.5 43t-14 57.5q0 53 22.5 93t60 69t86 47.5t101 29.5t105.5 15.5t98 4.5q31 0 70.5 -1.5t81 -7t81 -16.5t71 -30.5t50.5 -49t19 -71.5zM353 -245h-231l117 194h284z" />
    <glyph glyph-name="Tcaron" unicode="&#x164;" horiz-adv-x="776" 
d="M841 559h-240l-160 -559h-304l160 559h-244l47 163h784zM466 919l52 -64l93 64h208l-178 -146h-262l-97 146h184z" />
    <glyph glyph-name="uni0162" unicode="&#x162;" horiz-adv-x="776" 
d="M841 559h-240l-160 -559h-304l160 559h-244l47 163h784zM260 -245h-231l117 194h284z" />
    <glyph glyph-name="uni021A" unicode="&#x21a;" horiz-adv-x="776" 
d="M841 559h-240l-160 -559h-304l160 559h-244l47 163h784zM260 -245h-231l117 194h284z" />
    <glyph glyph-name="Tbar" unicode="&#x166;" horiz-adv-x="776" 
d="M101 272l40 145h115l41 142h-244l47 163h784l-43 -163h-240l-41 -142h125l-40 -145h-126l-78 -272h-304l78 272h-114z" />
    <glyph glyph-name="Thorn" unicode="&#xde;" horiz-adv-x="907" 
d="M904 434q0 -59 -25.5 -115t-67.5 -96q-51 -49 -121.5 -68.5t-148.5 -19.5h-228l-39 -135h-304l207 722h305l-29 -101h178q55 0 104.5 -10t87 -32t59.5 -57.5t22 -87.5zM597 412q0 20 -9.5 32t-24.5 18.5t-32.5 8.5t-33.5 2h-87l-55 -190h87q28 0 52 4.5t43 15.5t33 30
t22 48q5 17 5 31z" />
    <glyph glyph-name="Ugrave" unicode="&#xd9;" horiz-adv-x="993" 
d="M910 300q-27 -95 -75 -156.5t-113 -97.5t-144.5 -50.5t-169.5 -14.5q-37 0 -79 2.5t-83.5 10.5t-80 22.5t-68.5 38t-47.5 57t-17.5 80.5q0 29 4 54.5t12 53.5l121 422h294l-114 -396q-7 -23 -11.5 -46t-4.5 -48q0 -50 30.5 -69.5t76.5 -19.5q43 0 74 14.5t52.5 39
t35.5 58t25 71.5l114 396h290zM524 773l-130 146h289l44 -146h-203z" />
    <glyph glyph-name="Uacute" unicode="&#xda;" horiz-adv-x="993" 
d="M910 300q-27 -95 -75 -156.5t-113 -97.5t-144.5 -50.5t-169.5 -14.5q-37 0 -79 2.5t-83.5 10.5t-80 22.5t-68.5 38t-47.5 57t-17.5 80.5q0 29 4 54.5t12 53.5l121 422h294l-114 -396q-7 -23 -11.5 -46t-4.5 -48q0 -50 30.5 -69.5t76.5 -19.5q43 0 74 14.5t52.5 39
t35.5 58t25 71.5l114 396h290zM712 773h-217l122 146h302z" />
    <glyph glyph-name="Ucircumflex" unicode="&#xdb;" horiz-adv-x="993" 
d="M910 300q-27 -95 -75 -156.5t-113 -97.5t-144.5 -50.5t-169.5 -14.5q-37 0 -79 2.5t-83.5 10.5t-80 22.5t-68.5 38t-47.5 57t-17.5 80.5q0 29 4 54.5t12 53.5l121 422h294l-114 -396q-7 -23 -11.5 -46t-4.5 -48q0 -50 30.5 -69.5t76.5 -19.5q43 0 74 14.5t52.5 39
t35.5 58t25 71.5l114 396h290zM696 773l-52 64l-93 -64h-208l178 146h262l97 -146h-184z" />
    <glyph glyph-name="Utilde" unicode="&#x168;" horiz-adv-x="993" 
d="M910 300q-27 -95 -75 -156.5t-113 -97.5t-144.5 -50.5t-169.5 -14.5q-37 0 -79 2.5t-83.5 10.5t-80 22.5t-68.5 38t-47.5 57t-17.5 80.5q0 29 4 54.5t12 53.5l121 422h294l-114 -396q-7 -23 -11.5 -46t-4.5 -48q0 -50 30.5 -69.5t76.5 -19.5q43 0 74 14.5t52.5 39
t35.5 58t25 71.5l114 396h290zM900 931q-9 -32 -26 -60.5t-40.5 -50t-53 -34.5t-64.5 -13q-24 0 -49 7t-49 16t-45.5 16t-39.5 7q-16 0 -30 -10t-21 -24h-105q26 71 70 108.5t122 37.5q22 0 43.5 -6t42.5 -12.5t42 -12.5t43 -6q20 0 35.5 8.5t22.5 28.5h102z" />
    <glyph glyph-name="Udieresis" unicode="&#xdc;" horiz-adv-x="993" 
d="M910 300q-27 -95 -75 -156.5t-113 -97.5t-144.5 -50.5t-169.5 -14.5q-37 0 -79 2.5t-83.5 10.5t-80 22.5t-68.5 38t-47.5 57t-17.5 80.5q0 29 4 54.5t12 53.5l121 422h294l-114 -396q-7 -23 -11.5 -46t-4.5 -48q0 -50 30.5 -69.5t76.5 -19.5q43 0 74 14.5t52.5 39
t35.5 58t25 71.5l114 396h290zM897 779h-240l40 140h240zM573 779h-240l40 140h240z" />
    <glyph glyph-name="Umacron" unicode="&#x16a;" horiz-adv-x="993" 
d="M910 300q-27 -95 -75 -156.5t-113 -97.5t-144.5 -50.5t-169.5 -14.5q-37 0 -79 2.5t-83.5 10.5t-80 22.5t-68.5 38t-47.5 57t-17.5 80.5q0 29 4 54.5t12 53.5l121 422h294l-114 -396q-7 -23 -11.5 -46t-4.5 -48q0 -50 30.5 -69.5t76.5 -19.5q43 0 74 14.5t52.5 39
t35.5 58t25 71.5l114 396h290zM861 784h-490l34 116h490z" />
    <glyph glyph-name="Ubreve" unicode="&#x16c;" horiz-adv-x="993" 
d="M910 300q-27 -95 -75 -156.5t-113 -97.5t-144.5 -50.5t-169.5 -14.5q-37 0 -79 2.5t-83.5 10.5t-80 22.5t-68.5 38t-47.5 57t-17.5 80.5q0 29 4 54.5t12 53.5l121 422h294l-114 -396q-7 -23 -11.5 -46t-4.5 -48q0 -50 30.5 -69.5t76.5 -19.5q43 0 74 14.5t52.5 39
t35.5 58t25 71.5l114 396h290zM868 919q-14 -41 -42.5 -69.5t-65 -47t-78 -27t-80.5 -8.5q-42 0 -79 7t-64.5 21.5t-43.5 38t-16 56.5q0 15 3 29h131q0 -19 7 -31t19 -19t27 -9.5t31 -2.5q38 0 69.5 14t50.5 48h131z" />
    <glyph glyph-name="Uring" unicode="&#x16e;" horiz-adv-x="993" 
d="M910 300q-27 -95 -75 -156.5t-113 -97.5t-144.5 -50.5t-169.5 -14.5q-37 0 -79 2.5t-83.5 10.5t-80 22.5t-68.5 38t-47.5 57t-17.5 80.5q0 29 4 54.5t12 53.5l121 422h294l-114 -396q-7 -23 -11.5 -46t-4.5 -48q0 -50 30.5 -69.5t76.5 -19.5q43 0 74 14.5t52.5 39
t35.5 58t25 71.5l114 396h290zM616 955q42 0 77 -5.5t59.5 -18t38.5 -32t14 -47.5q0 -25 -15 -43t-40.5 -29.5t-60 -17t-73.5 -5.5q-85 0 -137 23.5t-52 79.5q0 25 15 43t41 29.5t60.5 17t72.5 5.5zM665 856q0 19 -13 33t-35 14q-20 0 -35 -13.5t-15 -33.5t14 -33.5
t35 -13.5q20 0 34.5 13t14.5 34z" />
    <glyph glyph-name="Uhungarumlaut" unicode="&#x170;" horiz-adv-x="993" 
d="M910 300q-27 -95 -75 -156.5t-113 -97.5t-144.5 -50.5t-169.5 -14.5q-37 0 -79 2.5t-83.5 10.5t-80 22.5t-68.5 38t-47.5 57t-17.5 80.5q0 29 4 54.5t12 53.5l121 422h294l-114 -396q-7 -23 -11.5 -46t-4.5 -48q0 -50 30.5 -69.5t76.5 -19.5q43 0 74 14.5t52.5 39
t35.5 58t25 71.5l114 396h290zM860 773h-212l124 146h298zM536 773h-212l124 146h298z" />
    <glyph glyph-name="Uogonek" unicode="&#x172;" horiz-adv-x="993" 
d="M910 300q-23 -78 -60 -133.5t-86 -92.5t-109 -57.5t-128 -28.5q-56 -29 -89 -57.5t-33 -58.5q0 -19 14.5 -25t30.5 -6q30 0 60 11l-4 -70q-33 -9 -67.5 -13t-69.5 -4q-18 0 -39.5 2.5t-40.5 10t-32 21.5t-13 38q0 44 35 78.5t100 66.5q-55 1 -116 9.5t-112.5 31.5
t-85 63.5t-33.5 105.5q0 29 4 54.5t12 53.5l121 422h294l-114 -396q-7 -23 -11.5 -46t-4.5 -48q0 -50 30.5 -69.5t76.5 -19.5q43 0 74 14.5t52.5 39t35.5 58t25 71.5l114 396h290z" />
    <glyph glyph-name="Wacute" unicode="&#x1e82;" horiz-adv-x="1426" 
d="M1123 0h-382l23 508l-282 -508h-382l-3 722h307l-44 -508l273 508h366l-18 -508l247 508h308zM941 773h-217l122 146h302z" />
    <glyph glyph-name="Wcircumflex" unicode="&#x174;" horiz-adv-x="1426" 
d="M1123 0h-382l23 508l-282 -508h-382l-3 722h307l-44 -508l273 508h366l-18 -508l247 508h308zM917 773l-52 64l-93 -64h-208l178 146h262l97 -146h-184z" />
    <glyph glyph-name="Wdieresis" unicode="&#x1e84;" horiz-adv-x="1426" 
d="M1123 0h-382l23 508l-282 -508h-382l-3 722h307l-44 -508l273 508h366l-18 -508l247 508h308zM1117 779h-240l40 140h240zM793 779h-240l40 140h240z" />
    <glyph glyph-name="Wgrave" unicode="&#x1e80;" horiz-adv-x="1426" 
d="M1123 0h-382l23 508l-282 -508h-382l-3 722h307l-44 -508l273 508h366l-18 -508l247 508h308zM754 773l-130 146h289l44 -146h-203z" />
    <glyph glyph-name="Yacute" unicode="&#xdd;" horiz-adv-x="934" 
d="M573 216l-62 -216h-304l65 228l-200 494h299l93 -322l275 322h331zM674 773h-217l122 146h302z" />
    <glyph glyph-name="Ycircumflex" unicode="&#x176;" horiz-adv-x="934" 
d="M573 216l-62 -216h-304l65 228l-200 494h299l93 -322l275 322h331zM658 773l-52 64l-93 -64h-208l178 146h262l97 -146h-184z" />
    <glyph glyph-name="Ydieresis" unicode="&#x178;" horiz-adv-x="934" 
d="M573 216l-62 -216h-304l65 228l-200 494h299l93 -322l275 322h331zM859 779h-240l40 140h240zM535 779h-240l40 140h240z" />
    <glyph glyph-name="Ygrave" unicode="&#x1ef2;" horiz-adv-x="934" 
d="M573 216l-62 -216h-304l65 228l-200 494h299l93 -322l275 322h331zM488 773l-130 146h289l44 -146h-203z" />
    <glyph glyph-name="Zacute" unicode="&#x179;" horiz-adv-x="846" 
d="M858 554l-506 -390h410l-48 -164h-788l49 168l516 390h-381l46 164h750zM639 773h-217l122 146h302z" />
    <glyph glyph-name="Zcaron" unicode="&#x17d;" horiz-adv-x="846" 
d="M858 554l-506 -390h410l-48 -164h-788l49 168l516 390h-381l46 164h750zM496 919l52 -64l93 64h208l-178 -146h-262l-97 146h184z" />
    <glyph glyph-name="Zdotaccent" unicode="&#x17b;" horiz-adv-x="846" 
d="M858 554l-506 -390h410l-48 -164h-788l49 168l516 390h-381l46 164h750zM660 779h-240l40 140h240z" />
    <glyph glyph-name="agrave" unicode="&#xe0;" horiz-adv-x="840" 
d="M782 371q0 -11 -2.5 -26.5t-6 -30.5t-7 -29l-5.5 -22l-58 -196q-9 -33 -12 -67h-262l16 72q-57 -53 -124 -72t-143 -19q-37 0 -75.5 4.5t-70.5 18t-52.5 38t-20.5 63.5q0 42 20.5 73.5t54 54t78 36.5t93 22t97 11t91.5 3h96q5 14 9.5 30.5t4.5 30.5q0 15 -6 24.5t-16 15
t-22 7.5t-25 2q-37 0 -65.5 -13t-44.5 -48h-267q18 55 63.5 88.5t102.5 50.5t117.5 22.5t110.5 5.5q62 0 121.5 -5.5t106 -22t75 -45.5t28.5 -77zM426 213q-26 0 -58 -1.5t-59.5 -9.5t-46 -25t-18.5 -48q0 -12 6.5 -19.5t16 -11.5t20.5 -5t20 -1q63 0 102 33.5t54 87.5h-37z
M370 576l-130 146h289l44 -146h-203z" />
    <glyph glyph-name="aacute" unicode="&#xe1;" horiz-adv-x="840" 
d="M782 371q0 -11 -2.5 -26.5t-6 -30.5t-7 -29l-5.5 -22l-58 -196q-9 -33 -12 -67h-262l16 72q-57 -53 -124 -72t-143 -19q-37 0 -75.5 4.5t-70.5 18t-52.5 38t-20.5 63.5q0 42 20.5 73.5t54 54t78 36.5t93 22t97 11t91.5 3h96q5 14 9.5 30.5t4.5 30.5q0 15 -6 24.5t-16 15
t-22 7.5t-25 2q-37 0 -65.5 -13t-44.5 -48h-267q18 55 63.5 88.5t102.5 50.5t117.5 22.5t110.5 5.5q62 0 121.5 -5.5t106 -22t75 -45.5t28.5 -77zM426 213q-26 0 -58 -1.5t-59.5 -9.5t-46 -25t-18.5 -48q0 -12 6.5 -19.5t16 -11.5t20.5 -5t20 -1q63 0 102 33.5t54 87.5h-37z
M557 576h-217l122 146h302z" />
    <glyph glyph-name="acircumflex" unicode="&#xe2;" horiz-adv-x="840" 
d="M782 371q0 -11 -2.5 -26.5t-6 -30.5t-7 -29l-5.5 -22l-58 -196q-9 -33 -12 -67h-262l16 72q-57 -53 -124 -72t-143 -19q-37 0 -75.5 4.5t-70.5 18t-52.5 38t-20.5 63.5q0 42 20.5 73.5t54 54t78 36.5t93 22t97 11t91.5 3h96q5 14 9.5 30.5t4.5 30.5q0 15 -6 24.5t-16 15
t-22 7.5t-25 2q-37 0 -65.5 -13t-44.5 -48h-267q18 55 63.5 88.5t102.5 50.5t117.5 22.5t110.5 5.5q62 0 121.5 -5.5t106 -22t75 -45.5t28.5 -77zM426 213q-26 0 -58 -1.5t-59.5 -9.5t-46 -25t-18.5 -48q0 -12 6.5 -19.5t16 -11.5t20.5 -5t20 -1q63 0 102 33.5t54 87.5h-37z
M540 576l-52 64l-93 -64h-208l178 146h262l97 -146h-184z" />
    <glyph glyph-name="atilde" unicode="&#xe3;" horiz-adv-x="840" 
d="M782 371q0 -11 -2.5 -26.5t-6 -30.5t-7 -29l-5.5 -22l-58 -196q-9 -33 -12 -67h-262l16 72q-57 -53 -124 -72t-143 -19q-37 0 -75.5 4.5t-70.5 18t-52.5 38t-20.5 63.5q0 42 20.5 73.5t54 54t78 36.5t93 22t97 11t91.5 3h96q5 14 9.5 30.5t4.5 30.5q0 15 -6 24.5t-16 15
t-22 7.5t-25 2q-37 0 -65.5 -13t-44.5 -48h-267q18 55 63.5 88.5t102.5 50.5t117.5 22.5t110.5 5.5q62 0 121.5 -5.5t106 -22t75 -45.5t28.5 -77zM426 213q-26 0 -58 -1.5t-59.5 -9.5t-46 -25t-18.5 -48q0 -12 6.5 -19.5t16 -11.5t20.5 -5t20 -1q63 0 102 33.5t54 87.5h-37z
M744 734q-9 -32 -26 -60.5t-40.5 -50t-53 -34.5t-64.5 -13q-24 0 -49 7t-49 16t-45.5 16t-39.5 7q-16 0 -30 -10t-21 -24h-105q26 71 70 108.5t122 37.5q22 0 43.5 -6t42.5 -12.5t42 -12.5t43 -6q20 0 35.5 8.5t22.5 28.5h102z" />
    <glyph glyph-name="adieresis" unicode="&#xe4;" horiz-adv-x="840" 
d="M782 371q0 -11 -2.5 -26.5t-6 -30.5t-7 -29l-5.5 -22l-58 -196q-9 -33 -12 -67h-262l16 72q-57 -53 -124 -72t-143 -19q-37 0 -75.5 4.5t-70.5 18t-52.5 38t-20.5 63.5q0 42 20.5 73.5t54 54t78 36.5t93 22t97 11t91.5 3h96q5 14 9.5 30.5t4.5 30.5q0 15 -6 24.5t-16 15
t-22 7.5t-25 2q-37 0 -65.5 -13t-44.5 -48h-267q18 55 63.5 88.5t102.5 50.5t117.5 22.5t110.5 5.5q62 0 121.5 -5.5t106 -22t75 -45.5t28.5 -77zM426 213q-26 0 -58 -1.5t-59.5 -9.5t-46 -25t-18.5 -48q0 -12 6.5 -19.5t16 -11.5t20.5 -5t20 -1q63 0 102 33.5t54 87.5h-37z
M742 582h-240l40 140h240zM418 582h-240l40 140h240z" />
    <glyph glyph-name="amacron" unicode="&#x101;" horiz-adv-x="840" 
d="M782 371q0 -11 -2.5 -26.5t-6 -30.5t-7 -29l-5.5 -22l-58 -196q-9 -33 -12 -67h-262l16 72q-57 -53 -124 -72t-143 -19q-37 0 -75.5 4.5t-70.5 18t-52.5 38t-20.5 63.5q0 42 20.5 73.5t54 54t78 36.5t93 22t97 11t91.5 3h96q5 14 9.5 30.5t4.5 30.5q0 15 -6 24.5t-16 15
t-22 7.5t-25 2q-37 0 -65.5 -13t-44.5 -48h-267q18 55 63.5 88.5t102.5 50.5t117.5 22.5t110.5 5.5q62 0 121.5 -5.5t106 -22t75 -45.5t28.5 -77zM426 213q-26 0 -58 -1.5t-59.5 -9.5t-46 -25t-18.5 -48q0 -12 6.5 -19.5t16 -11.5t20.5 -5t20 -1q63 0 102 33.5t54 87.5h-37z
M706 587h-490l34 116h490z" />
    <glyph glyph-name="abreve" unicode="&#x103;" horiz-adv-x="840" 
d="M782 371q0 -11 -2.5 -26.5t-6 -30.5t-7 -29l-5.5 -22l-58 -196q-9 -33 -12 -67h-262l16 72q-57 -53 -124 -72t-143 -19q-37 0 -75.5 4.5t-70.5 18t-52.5 38t-20.5 63.5q0 42 20.5 73.5t54 54t78 36.5t93 22t97 11t91.5 3h96q5 14 9.5 30.5t4.5 30.5q0 15 -6 24.5t-16 15
t-22 7.5t-25 2q-37 0 -65.5 -13t-44.5 -48h-267q18 55 63.5 88.5t102.5 50.5t117.5 22.5t110.5 5.5q62 0 121.5 -5.5t106 -22t75 -45.5t28.5 -77zM426 213q-26 0 -58 -1.5t-59.5 -9.5t-46 -25t-18.5 -48q0 -12 6.5 -19.5t16 -11.5t20.5 -5t20 -1q63 0 102 33.5t54 87.5h-37z
M732 722q-14 -41 -42.5 -69.5t-65 -47t-78 -27t-80.5 -8.5q-42 0 -79 7t-64.5 21.5t-43.5 38t-16 56.5q0 15 3 29h131q0 -19 7 -31t19 -19t27 -9.5t31 -2.5q38 0 69.5 14t50.5 48h131z" />
    <glyph glyph-name="aring" unicode="&#xe5;" horiz-adv-x="840" 
d="M782 371q0 -11 -2.5 -26.5t-6 -30.5t-7 -29l-5.5 -22l-58 -196q-9 -33 -12 -67h-262l16 72q-57 -53 -124 -72t-143 -19q-37 0 -75.5 4.5t-70.5 18t-52.5 38t-20.5 63.5q0 42 20.5 73.5t54 54t78 36.5t93 22t97 11t91.5 3h96q5 14 9.5 30.5t4.5 30.5q0 15 -6 24.5t-16 15
t-22 7.5t-25 2q-37 0 -65.5 -13t-44.5 -48h-267q18 55 63.5 88.5t102.5 50.5t117.5 22.5t110.5 5.5q62 0 121.5 -5.5t106 -22t75 -45.5t28.5 -77zM426 213q-26 0 -58 -1.5t-59.5 -9.5t-46 -25t-18.5 -48q0 -12 6.5 -19.5t16 -11.5t20.5 -5t20 -1q63 0 102 33.5t54 87.5h-37z
M481 755q42 0 77 -5.5t59.5 -18t38.5 -32t14 -47.5q0 -25 -15 -43t-40.5 -29.5t-60 -17t-73.5 -5.5q-85 0 -137 23.5t-52 79.5q0 25 15 43t41 29.5t60.5 17t72.5 5.5zM530 656q0 19 -13 33t-35 14q-20 0 -35 -13.5t-15 -33.5t14 -33.5t35 -13.5q20 0 34.5 13t14.5 34z" />
    <glyph glyph-name="aogonek" unicode="&#x105;" horiz-adv-x="840" 
d="M782 371q0 -11 -2.5 -26.5t-6 -30.5t-7 -29l-5.5 -22l-58 -196q-9 -33 -12 -67q-66 -32 -106.5 -63.5t-40.5 -64.5q0 -19 14.5 -25t30.5 -6q30 0 60 11l-4 -70q-33 -9 -67.5 -13t-69.5 -4q-18 0 -39.5 2.5t-40.5 10t-32 21.5t-13 38q0 50 46 88t129 75h-129l16 72
q-57 -53 -124 -72t-143 -19q-37 0 -75.5 4.5t-70.5 18t-52.5 38t-20.5 63.5q0 42 20.5 73.5t54 54t78 36.5t93 22t97 11t91.5 3h96q5 14 9.5 29.5t4.5 31.5q0 15 -6 24.5t-16 15t-22 7.5t-25 2q-37 0 -65.5 -13t-44.5 -48h-267q18 55 63.5 88.5t102.5 50.5t117.5 22.5
t110.5 5.5q26 0 60.5 -1t71 -5t72.5 -13.5t64 -26t45.5 -42t17.5 -62.5zM426 213q-26 0 -58 -1.5t-59.5 -9.5t-46 -25t-18.5 -48q0 -12 6.5 -19.5t16 -11.5t20.5 -5t20 -1q63 0 102 33.5t54 87.5h-37z" />
    <glyph glyph-name="ae" unicode="&#xe6;" horiz-adv-x="1272" 
d="M1232 330q0 -31 -7 -61t-16 -59h-470q-5 -14 -8 -27.5t-3 -29.5q0 -35 23 -50.5t55 -15.5q40 0 66.5 13t42.5 49h272q-18 -51 -61.5 -84t-98 -51.5t-112 -25.5t-102.5 -7q-34 0 -77 2.5t-84 13.5t-76 34t-53 64q-28 -32 -60 -54t-70.5 -35.5t-84 -19t-99.5 -5.5
q-33 0 -76 4t-81.5 17.5t-65.5 39t-27 67.5q0 43 19 74t51.5 53t75 35.5t90 21.5t96.5 10.5t94 2.5h89q5 14 8.5 28.5t3.5 28.5q0 30 -18.5 42.5t-45.5 12.5q-32 0 -60.5 -13.5t-42.5 -45.5h-262q16 49 58.5 80.5t95.5 49.5t108.5 25t99.5 7q36 0 71.5 -2t67.5 -11
t60.5 -26.5t49.5 -48.5q65 47 130 67.5t146 20.5q55 0 107 -8t92 -29t64.5 -58t24.5 -96zM965 348q0 33 -19 50t-51 17q-24 0 -44.5 -9t-37 -24t-28.5 -34.5t-18 -41.5h191q3 11 5 21t2 21zM390 212q-68 0 -111 -20.5t-43 -63.5q0 -13 7 -21t16.5 -12.5t21 -6t20.5 -1.5
q60 0 94 34t52 91h-57z" />
    <glyph glyph-name="cacute" unicode="&#x107;" horiz-adv-x="808" 
d="M782 347q0 -13 -0.5 -21t-2.5 -19h-284q4 15 4 35q0 31 -16.5 43t-45.5 12q-38 0 -66 -23.5t-47.5 -58t-29 -73.5t-9.5 -70q0 -67 64 -67q46 0 73.5 25t40.5 67h288q-21 -66 -66 -108t-104 -66t-126.5 -33t-134.5 -9q-61 0 -121.5 8.5t-108.5 31t-77.5 61.5t-29.5 101
q0 63 28 122t73 101q37 34 81 56.5t92 35.5t99 18t102 5t108 -7.5t105 -27t79.5 -53t31.5 -86.5zM569 576h-217l122 146h302z" />
    <glyph glyph-name="ccircumflex" unicode="&#x109;" horiz-adv-x="808" 
d="M782 347q0 -13 -0.5 -21t-2.5 -19h-284q4 15 4 35q0 31 -16.5 43t-45.5 12q-38 0 -66 -23.5t-47.5 -58t-29 -73.5t-9.5 -70q0 -67 64 -67q46 0 73.5 25t40.5 67h288q-21 -66 -66 -108t-104 -66t-126.5 -33t-134.5 -9q-61 0 -121.5 8.5t-108.5 31t-77.5 61.5t-29.5 101
q0 63 28 122t73 101q37 34 81 56.5t92 35.5t99 18t102 5t108 -7.5t105 -27t79.5 -53t31.5 -86.5zM552 576l-52 64l-93 -64h-208l178 146h262l97 -146h-184z" />
    <glyph glyph-name="ccaron" unicode="&#x10d;" horiz-adv-x="808" 
d="M782 347q0 -13 -0.5 -21t-2.5 -19h-284q4 15 4 35q0 31 -16.5 43t-45.5 12q-38 0 -66 -23.5t-47.5 -58t-29 -73.5t-9.5 -70q0 -67 64 -67q46 0 73.5 25t40.5 67h288q-21 -66 -66 -108t-104 -66t-126.5 -33t-134.5 -9q-61 0 -121.5 8.5t-108.5 31t-77.5 61.5t-29.5 101
q0 63 28 122t73 101q37 34 81 56.5t92 35.5t99 18t102 5t108 -7.5t105 -27t79.5 -53t31.5 -86.5zM426 722l52 -64l93 64h208l-178 -146h-262l-97 146h184z" />
    <glyph glyph-name="cdotaccent" unicode="&#x10b;" horiz-adv-x="808" 
d="M782 347q0 -13 -0.5 -21t-2.5 -19h-284q4 15 4 35q0 31 -16.5 43t-45.5 12q-38 0 -66 -23.5t-47.5 -58t-29 -73.5t-9.5 -70q0 -67 64 -67q46 0 73.5 25t40.5 67h288q-21 -66 -66 -108t-104 -66t-126.5 -33t-134.5 -9q-61 0 -121.5 8.5t-108.5 31t-77.5 61.5t-29.5 101
q0 63 28 122t73 101q37 34 81 56.5t92 35.5t99 18t102 5t108 -7.5t105 -27t79.5 -53t31.5 -86.5zM592 582h-240l40 140h240z" />
    <glyph glyph-name="ccedilla" unicode="&#xe7;" horiz-adv-x="808" 
d="M782 347q0 -13 -0.5 -21t-2.5 -19h-284q4 15 4 35q0 31 -16.5 43t-45.5 12q-38 0 -66 -23.5t-47.5 -58t-29 -73.5t-9.5 -70q0 -67 64 -67q46 0 73.5 25t40.5 67h288q-21 -63 -63.5 -104.5t-98.5 -66t-120.5 -34.5t-129.5 -11l-56 -50q14 5 32 7.5t37 2.5q31 0 55 -16.5
t24 -48.5q0 -30 -15 -51.5t-41 -34.5t-61.5 -19t-76.5 -6q-37 0 -79 6t-77 18l38 56q21 -10 42.5 -16t44.5 -6q32 0 50 8.5t18 25.5q0 13 -9.5 19.5t-24.5 6.5q-13 0 -24 -2t-25 -7l-20 31l89 78q-54 3 -104 14.5t-88.5 34.5t-61.5 60t-23 91q0 63 28 122t73 101
q37 34 81 56.5t92 35.5t99 18t102 5t108 -7.5t105 -27t79.5 -53t31.5 -86.5z" />
    <glyph glyph-name="dcaron" unicode="&#x10f;" horiz-adv-x="873" 
d="M739 79q-5 -20 -9.5 -39.5t-7.5 -39.5h-284l16 70q-49 -42 -106 -65.5t-133 -23.5q-50 0 -92.5 12.5t-73.5 36.5t-48.5 60.5t-17.5 84.5q0 77 29.5 140.5t80 109.5t118.5 71t145 25q29 0 58 -3.5t54.5 -12.5t46 -24.5t33.5 -39.5l81 281h294zM512 327q0 68 -68 68
q-37 0 -65 -21t-47 -52.5t-29 -68.5t-10 -68q0 -71 70 -71q36 0 64 21.5t47 54t28.5 69.5t9.5 68zM1083 419h-204l122 303h261z" />
    <glyph glyph-name="dcroat" unicode="&#x111;" horiz-adv-x="873" 
d="M912 683h64l-35 -133h-67l-135 -471q-5 -20 -9.5 -39.5t-7.5 -39.5h-284l16 70q-49 -42 -106 -65.5t-133 -23.5q-50 0 -92.5 12.5t-73.5 36.5t-48.5 60.5t-17.5 84.5q0 77 29.5 140.5t80 109.5t118.5 71t145 25q29 0 58 -3.5t54.5 -12.5t46 -24.5t33.5 -39.5l31 109h-222
l35 133h226l11 39h294zM512 327q0 68 -68 68q-37 0 -65 -21t-47 -52.5t-29 -68.5t-10 -68q0 -71 70 -71q36 0 64 21.5t47 54t28.5 69.5t9.5 68z" />
    <glyph glyph-name="eth" unicode="&#xf0;" horiz-adv-x="851" 
d="M818 376q0 -50 -14 -100q-26 -90 -70.5 -147.5t-105 -90t-135 -45t-159.5 -12.5q-31 0 -69 3t-77 11t-75.5 22t-65 36t-46 53t-17.5 73q0 20 4 40t9 40q19 67 59 113.5t93 75.5t116 41.5t128 12.5q34 0 73.5 -6.5t68.5 -25.5q-21 38 -50 66.5t-64 43.5l-178 -64l-58 62
l124 44q-35 14 -68 19.5t-44 6.5l195 104q42 -4 83.5 -14t80.5 -26l167 60l59 -62l-131 -47q75 -49 121 -122t46 -165zM505 318q0 33 -15.5 52.5t-50.5 19.5q-36 0 -63 -21.5t-46 -53t-28.5 -68t-9.5 -66.5q0 -33 15.5 -52.5t50.5 -19.5q36 0 63 21.5t46 53t28.5 68
t9.5 66.5z" />
    <glyph glyph-name="egrave" unicode="&#xe8;" horiz-adv-x="817" 
d="M777 329q0 -30 -5 -58.5t-14 -57.5h-484q-5 -14 -7.5 -29t-2.5 -30q0 -36 19.5 -51.5t54.5 -15.5t63 13.5t43 46.5h288q-15 -36 -42 -62.5t-61 -45t-74 -30t-80 -18t-79 -8.5t-72 -2q-61 0 -122 9t-109.5 32t-79 63.5t-30.5 103.5q0 57 25.5 111.5t65.5 95.5
q66 67 161 96t209 29q49 0 107 -6t108.5 -26t84 -58t33.5 -102zM502 351q0 35 -20 49.5t-52 14.5q-50 0 -82 -30t-46 -76h192q3 11 5.5 21t2.5 21zM372 576l-130 146h289l44 -146h-203z" />
    <glyph glyph-name="eacute" unicode="&#xe9;" horiz-adv-x="817" 
d="M777 329q0 -30 -5 -58.5t-14 -57.5h-484q-5 -14 -7.5 -29t-2.5 -30q0 -36 19.5 -51.5t54.5 -15.5t63 13.5t43 46.5h288q-15 -36 -42 -62.5t-61 -45t-74 -30t-80 -18t-79 -8.5t-72 -2q-61 0 -122 9t-109.5 32t-79 63.5t-30.5 103.5q0 57 25.5 111.5t65.5 95.5
q66 67 161 96t209 29q49 0 107 -6t108.5 -26t84 -58t33.5 -102zM502 351q0 35 -20 49.5t-52 14.5q-50 0 -82 -30t-46 -76h192q3 11 5.5 21t2.5 21zM559 576h-217l122 146h302z" />
    <glyph glyph-name="ecircumflex" unicode="&#xea;" horiz-adv-x="817" 
d="M777 329q0 -30 -5 -58.5t-14 -57.5h-484q-5 -14 -7.5 -29t-2.5 -30q0 -36 19.5 -51.5t54.5 -15.5t63 13.5t43 46.5h288q-15 -36 -42 -62.5t-61 -45t-74 -30t-80 -18t-79 -8.5t-72 -2q-61 0 -122 9t-109.5 32t-79 63.5t-30.5 103.5q0 57 25.5 111.5t65.5 95.5
q66 67 161 96t209 29q49 0 107 -6t108.5 -26t84 -58t33.5 -102zM502 351q0 35 -20 49.5t-52 14.5q-50 0 -82 -30t-46 -76h192q3 11 5.5 21t2.5 21zM542 576l-52 64l-93 -64h-208l178 146h262l97 -146h-184z" />
    <glyph glyph-name="ecaron" unicode="&#x11b;" horiz-adv-x="817" 
d="M777 329q0 -30 -5 -58.5t-14 -57.5h-484q-5 -14 -7.5 -29t-2.5 -30q0 -36 19.5 -51.5t54.5 -15.5t63 13.5t43 46.5h288q-15 -36 -42 -62.5t-61 -45t-74 -30t-80 -18t-79 -8.5t-72 -2q-61 0 -122 9t-109.5 32t-79 63.5t-30.5 103.5q0 57 25.5 111.5t65.5 95.5
q66 67 161 96t209 29q49 0 107 -6t108.5 -26t84 -58t33.5 -102zM502 351q0 35 -20 49.5t-52 14.5q-50 0 -82 -30t-46 -76h192q3 11 5.5 21t2.5 21zM416 722l52 -64l93 64h208l-178 -146h-262l-97 146h184z" />
    <glyph glyph-name="edieresis" unicode="&#xeb;" horiz-adv-x="817" 
d="M777 329q0 -30 -5 -58.5t-14 -57.5h-484q-5 -14 -7.5 -29t-2.5 -30q0 -36 19.5 -51.5t54.5 -15.5t63 13.5t43 46.5h288q-15 -36 -42 -62.5t-61 -45t-74 -30t-80 -18t-79 -8.5t-72 -2q-61 0 -122 9t-109.5 32t-79 63.5t-30.5 103.5q0 57 25.5 111.5t65.5 95.5
q66 67 161 96t209 29q49 0 107 -6t108.5 -26t84 -58t33.5 -102zM502 351q0 35 -20 49.5t-52 14.5q-50 0 -82 -30t-46 -76h192q3 11 5.5 21t2.5 21zM744 582h-240l40 140h240zM420 582h-240l40 140h240z" />
    <glyph glyph-name="emacron" unicode="&#x113;" horiz-adv-x="817" 
d="M777 329q0 -30 -5 -58.5t-14 -57.5h-484q-5 -14 -7.5 -29t-2.5 -30q0 -36 19.5 -51.5t54.5 -15.5t63 13.5t43 46.5h288q-15 -36 -42 -62.5t-61 -45t-74 -30t-80 -18t-79 -8.5t-72 -2q-61 0 -122 9t-109.5 32t-79 63.5t-30.5 103.5q0 57 25.5 111.5t65.5 95.5
q66 67 161 96t209 29q49 0 107 -6t108.5 -26t84 -58t33.5 -102zM502 351q0 35 -20 49.5t-52 14.5q-50 0 -82 -30t-46 -76h192q3 11 5.5 21t2.5 21zM708 587h-490l34 116h490z" />
    <glyph glyph-name="ebreve" unicode="&#x115;" horiz-adv-x="817" 
d="M777 329q0 -30 -5 -58.5t-14 -57.5h-484q-5 -14 -7.5 -29t-2.5 -30q0 -36 19.5 -51.5t54.5 -15.5t63 13.5t43 46.5h288q-15 -36 -42 -62.5t-61 -45t-74 -30t-80 -18t-79 -8.5t-72 -2q-61 0 -122 9t-109.5 32t-79 63.5t-30.5 103.5q0 57 25.5 111.5t65.5 95.5
q66 67 161 96t209 29q49 0 107 -6t108.5 -26t84 -58t33.5 -102zM502 351q0 35 -20 49.5t-52 14.5q-50 0 -82 -30t-46 -76h192q3 11 5.5 21t2.5 21zM734 722q-14 -41 -42.5 -69.5t-65 -47t-78 -27t-80.5 -8.5q-42 0 -79 7t-64.5 21.5t-43.5 38t-16 56.5q0 15 3 29h131
q0 -19 7 -31t19 -19t27 -9.5t31 -2.5q38 0 69.5 14t50.5 48h131z" />
    <glyph glyph-name="edotaccent" unicode="&#x117;" horiz-adv-x="817" 
d="M777 329q0 -30 -5 -58.5t-14 -57.5h-484q-5 -14 -7.5 -29t-2.5 -30q0 -36 19.5 -51.5t54.5 -15.5t63 13.5t43 46.5h288q-15 -36 -42 -62.5t-61 -45t-74 -30t-80 -18t-79 -8.5t-72 -2q-61 0 -122 9t-109.5 32t-79 63.5t-30.5 103.5q0 57 25.5 111.5t65.5 95.5
q66 67 161 96t209 29q49 0 107 -6t108.5 -26t84 -58t33.5 -102zM502 351q0 35 -20 49.5t-52 14.5q-50 0 -82 -30t-46 -76h192q3 11 5.5 21t2.5 21zM582 582h-240l40 140h240z" />
    <glyph glyph-name="eogonek" unicode="&#x119;" horiz-adv-x="817" 
d="M777 329q0 -30 -5 -58.5t-14 -57.5h-484q-5 -14 -7.5 -29t-2.5 -30q0 -36 19.5 -51.5t54.5 -15.5t63 13.5t43 46.5h288q-17 -42 -49.5 -70.5t-73.5 -47t-87.5 -29t-91.5 -14.5q-55 -29 -87 -57t-32 -57q0 -19 14.5 -25t30.5 -6q30 0 60 11l-4 -70q-33 -9 -67.5 -13
t-69.5 -4q-18 0 -39.5 2.5t-40.5 10t-32 21.5t-13 38q0 44 35.5 78.5t99.5 66.5q-56 2 -110.5 13t-97 34.5t-68.5 62.5t-26 97q0 57 25.5 111.5t65.5 95.5q66 67 161 96t209 29q49 0 107 -6t108.5 -26t84 -58t33.5 -102zM502 351q0 35 -20 49.5t-52 14.5q-50 0 -82 -30
t-46 -76h192q3 11 5.5 21t2.5 21z" />
    <glyph glyph-name="gcircumflex" unicode="&#x11d;" horiz-adv-x="851" 
d="M844 502q-11 -34 -19.5 -58.5t-16.5 -53.5l-100 -347q-22 -77 -65 -126t-101 -77.5t-127 -39.5t-143 -11q-53 0 -112.5 3t-109.5 17t-83 42t-33 78q0 8 0.5 16.5t2.5 21.5h282q-1 -5 -1.5 -9.5t-0.5 -9.5q0 -17 6 -26t16 -14t23 -6t26 -1q41 0 65.5 17.5t39 44.5t23 60
t17.5 65q-53 -44 -107 -59t-112 -15q-41 0 -82 8.5t-74 29t-54 53t-21 80.5q0 32 7.5 64.5t21.5 63t32.5 58t41.5 50.5q51 51 118 75.5t145 24.5q65 0 115.5 -20.5t79.5 -67.5l24 69h276zM495 322q0 71 -73 71q-33 0 -59.5 -18.5t-45 -47t-28.5 -61.5t-10 -61q0 -69 69 -69
q36 0 63 17t46 44t28.5 60t9.5 65zM560 576l-52 64l-93 -64h-208l178 146h262l97 -146h-184z" />
    <glyph glyph-name="gbreve" unicode="&#x11f;" horiz-adv-x="851" 
d="M844 502q-11 -34 -19.5 -58.5t-16.5 -53.5l-100 -347q-22 -77 -65 -126t-101 -77.5t-127 -39.5t-143 -11q-53 0 -112.5 3t-109.5 17t-83 42t-33 78q0 8 0.5 16.5t2.5 21.5h282q-1 -5 -1.5 -9.5t-0.5 -9.5q0 -17 6 -26t16 -14t23 -6t26 -1q41 0 65.5 17.5t39 44.5t23 60
t17.5 65q-53 -44 -107 -59t-112 -15q-41 0 -82 8.5t-74 29t-54 53t-21 80.5q0 32 7.5 64.5t21.5 63t32.5 58t41.5 50.5q51 51 118 75.5t145 24.5q65 0 115.5 -20.5t79.5 -67.5l24 69h276zM495 322q0 71 -73 71q-33 0 -59.5 -18.5t-45 -47t-28.5 -61.5t-10 -61q0 -69 69 -69
q36 0 63 17t46 44t28.5 60t9.5 65zM752 722q-14 -41 -42.5 -69.5t-65 -47t-78 -27t-80.5 -8.5q-42 0 -79 7t-64.5 21.5t-43.5 38t-16 56.5q0 15 3 29h131q0 -19 7 -31t19 -19t27 -9.5t31 -2.5q38 0 69.5 14t50.5 48h131z" />
    <glyph glyph-name="gdotaccent" unicode="&#x121;" horiz-adv-x="851" 
d="M844 502q-11 -34 -19.5 -58.5t-16.5 -53.5l-100 -347q-22 -77 -65 -126t-101 -77.5t-127 -39.5t-143 -11q-53 0 -112.5 3t-109.5 17t-83 42t-33 78q0 8 0.5 16.5t2.5 21.5h282q-1 -5 -1.5 -9.5t-0.5 -9.5q0 -17 6 -26t16 -14t23 -6t26 -1q41 0 65.5 17.5t39 44.5t23 60
t17.5 65q-53 -44 -107 -59t-112 -15q-41 0 -82 8.5t-74 29t-54 53t-21 80.5q0 32 7.5 64.5t21.5 63t32.5 58t41.5 50.5q51 51 118 75.5t145 24.5q65 0 115.5 -20.5t79.5 -67.5l24 69h276zM495 322q0 71 -73 71q-33 0 -59.5 -18.5t-45 -47t-28.5 -61.5t-10 -61q0 -69 69 -69
q36 0 63 17t46 44t28.5 60t9.5 65zM600 582h-240l40 140h240z" />
    <glyph glyph-name="gcommaaccent" unicode="&#x123;" horiz-adv-x="851" 
d="M844 502q-11 -34 -19.5 -58.5t-16.5 -53.5l-100 -347q-22 -77 -65 -126t-101 -77.5t-127 -39.5t-143 -11q-53 0 -112.5 3t-109.5 17t-83 42t-33 78q0 8 0.5 16.5t2.5 21.5h282q-1 -5 -1.5 -9.5t-0.5 -9.5q0 -17 6 -26t16 -14t23 -6t26 -1q41 0 65.5 17.5t39 44.5t23 60
t17.5 65q-53 -44 -107 -59t-112 -15q-41 0 -82 8.5t-74 29t-54 53t-21 80.5q0 32 7.5 64.5t21.5 63t32.5 58t41.5 50.5q51 51 118 75.5t145 24.5q65 0 115.5 -20.5t79.5 -67.5l24 69h276zM495 322q0 71 -73 71q-33 0 -59.5 -18.5t-45 -47t-28.5 -61.5t-10 -61q0 -69 69 -69
q36 0 63 17t46 44t28.5 60t9.5 65zM466 722h232l-118 -146h-274z" />
    <glyph glyph-name="hcircumflex" unicode="&#x125;" horiz-adv-x="876" 
d="M818 378q0 -8 -1.5 -20t-3.5 -25.5t-5.5 -27t-6.5 -25.5l-79 -280h-294l77 269q4 13 6.5 26t2.5 27q0 29 -16 41.5t-44 12.5q-27 0 -48 -11t-37 -29t-27 -40.5t-18 -45.5l-72 -250h-294l207 722h294l-87 -303q48 49 110 75.5t142 26.5q36 0 71 -7.5t62 -24t44 -44
t17 -67.5zM408 773l-52 64l-93 -64h-208l178 146h262l97 -146h-184z" />
    <glyph glyph-name="hbar" unicode="&#x127;" horiz-adv-x="876" 
d="M818 378q0 -8 -1.5 -20t-3.5 -25.5t-5.5 -27t-6.5 -25.5l-79 -280h-294l77 269q4 13 6.5 26t2.5 27q0 29 -16 41.5t-44 12.5q-27 0 -48 -11t-37 -29t-27 -40.5t-18 -45.5l-72 -250h-294l157 550h-58l35 133h62l11 39h294l-11 -39h228l-35 -133h-232l-37 -131
q48 49 110 75.5t142 26.5q36 0 71 -7.5t62 -24t44 -44t17 -67.5z" />
    <glyph glyph-name="dotlessi" unicode="&#x131;" horiz-adv-x="409" 
d="M252 0h-294l144 502h294z" />
    <glyph glyph-name="igrave" unicode="&#xec;" horiz-adv-x="409" 
d="M252 0h-294l144 502h294zM176 576l-130 146h289l44 -146h-203z" />
    <glyph glyph-name="iacute" unicode="&#xed;" horiz-adv-x="409" 
d="M252 0h-294l144 502h294zM363 576h-217l122 146h302z" />
    <glyph glyph-name="ibreve" unicode="&#x12d;" horiz-adv-x="409" 
d="M252 0h-294l144 502h294zM537 722q-14 -41 -42.5 -69.5t-65 -47t-78 -27t-80.5 -8.5q-42 0 -79 7t-64.5 21.5t-43.5 38t-16 56.5q0 15 3 29h131q0 -19 7 -31t19 -19t27 -9.5t31 -2.5q38 0 69.5 14t50.5 48h131z" />
    <glyph glyph-name="icircumflex" unicode="&#xee;" horiz-adv-x="409" 
d="M252 0h-294l144 502h294zM346 576l-52 64l-93 -64h-208l178 146h262l97 -146h-184z" />
    <glyph glyph-name="itilde" unicode="&#x129;" horiz-adv-x="409" 
d="M252 0h-294l144 502h294zM550 734q-9 -32 -26 -60.5t-40.5 -50t-53 -34.5t-64.5 -13q-24 0 -49 7t-49 16t-45.5 16t-39.5 7q-16 0 -30 -10t-21 -24h-105q26 71 70 108.5t122 37.5q22 0 43.5 -6t42.5 -12.5t42 -12.5t43 -6q20 0 35.5 8.5t22.5 28.5h102z" />
    <glyph glyph-name="idieresis" unicode="&#xef;" horiz-adv-x="409" 
d="M252 0h-294l144 502h294zM548 582h-240l40 140h240zM224 582h-240l40 140h240z" />
    <glyph glyph-name="imacron" unicode="&#x12b;" horiz-adv-x="409" 
d="M252 0h-294l144 502h294zM512 587h-490l34 116h490z" />
    <glyph glyph-name="iogonek" unicode="&#x12f;" horiz-adv-x="409" 
d="M252 0q-66 -32 -106.5 -63.5t-40.5 -64.5q0 -19 14.5 -25t30.5 -6q30 0 60 11l-4 -70q-33 -9 -67.5 -13t-69.5 -4q-18 0 -39.5 2.5t-40.5 10t-32 21.5t-13 38q0 50 46 88t129 75h-161l144 502h294zM417 576h-294l42 146h294z" />
    <glyph glyph-name="dotlessj" unicode="&#x237;" horiz-adv-x="409" 
d="M257 16q-19 -66 -48.5 -107t-70.5 -63.5t-93.5 -30t-117.5 -7.5q-73 0 -143 9l38 133q22 -3 44 -3q26 0 43 5.5t28 17t18 29t14 40.5l133 463h294z" />
    <glyph glyph-name="jcircumflex" unicode="&#x135;" horiz-adv-x="409" 
d="M257 16q-19 -66 -48.5 -107t-70.5 -63.5t-93.5 -30t-117.5 -7.5q-73 0 -143 9l38 133q22 -3 44 -3q26 0 43 5.5t28 17t18 29t14 40.5l133 463h294zM344 576l-52 64l-93 -64h-208l178 146h262l97 -146h-184z" />
    <glyph glyph-name="kcommaaccent" unicode="&#x137;" horiz-adv-x="877" 
d="M609 258l153 -258h-309l-123 266l256 236h339zM252 0h-294l207 722h294zM353 -245h-231l117 194h284z" />
    <glyph glyph-name="kgreenlandic" unicode="&#x138;" horiz-adv-x="877" 
d="M609 258l153 -258h-309l-123 266l256 236h339zM252 0h-294l144 502h294z" />
    <glyph glyph-name="lacute" unicode="&#x13a;" horiz-adv-x="409" 
d="M252 0h-294l207 722h293zM419 773h-217l122 146h302z" />
    <glyph glyph-name="lcaron" unicode="&#x13e;" horiz-adv-x="409" 
d="M252 0h-294l207 722h293zM619 419h-204l122 303h261z" />
    <glyph glyph-name="lcommaaccent" unicode="&#x13c;" horiz-adv-x="409" 
d="M252 0h-294l207 722h293zM75 -245h-231l117 194h284z" />
    <glyph glyph-name="lslash" unicode="&#x142;" horiz-adv-x="406" 
d="M441 430l-84 -46l-110 -384h-294l59 206l-84 -46l50 176l85 46l97 340h294l-46 -162l84 46z" />
    <glyph glyph-name="ldot" unicode="&#x140;" horiz-adv-x="409" 
d="M252 0h-294l207 722h293zM638 310h-240l40 140h240z" />
    <glyph glyph-name="nacute" unicode="&#x144;" horiz-adv-x="876" 
d="M818 378q0 -8 -1.5 -20t-3.5 -25.5t-5.5 -27t-6.5 -25.5l-79 -280h-294l77 269q4 13 6.5 26t2.5 27q0 29 -16 41.5t-44 12.5q-27 0 -48 -11t-37 -29t-27 -40.5t-18 -45.5l-72 -250h-294l114 394q7 24 12.5 48t13.5 60h289l-23 -90q48 49 111 79t149 30q36 0 71 -7.5
t62 -24t44 -44t17 -67.5zM598 576h-217l122 146h302z" />
    <glyph glyph-name="ncaron" unicode="&#x148;" horiz-adv-x="876" 
d="M818 378q0 -8 -1.5 -20t-3.5 -25.5t-5.5 -27t-6.5 -25.5l-79 -280h-294l77 269q4 13 6.5 26t2.5 27q0 29 -16 41.5t-44 12.5q-27 0 -48 -11t-37 -29t-27 -40.5t-18 -45.5l-72 -250h-294l114 394q7 24 12.5 48t13.5 60h289l-23 -90q48 49 111 79t149 30q36 0 71 -7.5
t62 -24t44 -44t17 -67.5zM455 722l52 -64l93 64h208l-178 -146h-262l-97 146h184z" />
    <glyph glyph-name="ntilde" unicode="&#xf1;" horiz-adv-x="876" 
d="M818 378q0 -8 -1.5 -20t-3.5 -25.5t-5.5 -27t-6.5 -25.5l-79 -280h-294l77 269q4 13 6.5 26t2.5 27q0 29 -16 41.5t-44 12.5q-27 0 -48 -11t-37 -29t-27 -40.5t-18 -45.5l-72 -250h-294l114 394q7 24 12.5 48t13.5 60h289l-23 -90q48 49 111 79t149 30q36 0 71 -7.5
t62 -24t44 -44t17 -67.5zM785 734q-9 -32 -26 -60.5t-40.5 -50t-53 -34.5t-64.5 -13q-24 0 -49 7t-49 16t-45.5 16t-39.5 7q-16 0 -30 -10t-21 -24h-105q26 71 70 108.5t122 37.5q22 0 43.5 -6t42.5 -12.5t42 -12.5t43 -6q20 0 35.5 8.5t22.5 28.5h102z" />
    <glyph glyph-name="ncommaaccent" unicode="&#x146;" horiz-adv-x="876" 
d="M818 378q0 -8 -1.5 -20t-3.5 -25.5t-5.5 -27t-6.5 -25.5l-79 -280h-294l77 269q4 13 6.5 26t2.5 27q0 29 -16 41.5t-44 12.5q-27 0 -48 -11t-37 -29t-27 -40.5t-18 -45.5l-72 -250h-294l114 394q7 24 12.5 48t13.5 60h289l-23 -90q48 49 111 79t149 30q36 0 71 -7.5
t62 -24t44 -44t17 -67.5zM329 -245h-231l117 194h284z" />
    <glyph glyph-name="ograve" unicode="&#xf2;" horiz-adv-x="851" 
d="M809 322q0 -60 -24.5 -118t-66.5 -101q-36 -38 -81 -61.5t-95 -37t-104 -18.5t-108 -5q-32 0 -69.5 2.5t-76 10t-74.5 21t-64 35.5t-45 53t-17 74q0 62 26 121t69 103q36 37 81 60t94.5 36.5t102.5 18.5t107 5q48 0 107.5 -7t112.5 -28t89 -60.5t36 -103.5zM505 328
q0 34 -15.5 51.5t-50.5 17.5q-38 0 -66 -23.5t-47 -58t-28.5 -73.5t-9.5 -70q0 -67 67 -67q37 0 65 23.5t47 57.5t28.5 73t9.5 69zM387 576l-130 146h289l44 -146h-203z" />
    <glyph glyph-name="oacute" unicode="&#xf3;" horiz-adv-x="851" 
d="M809 322q0 -60 -24.5 -118t-66.5 -101q-36 -38 -81 -61.5t-95 -37t-104 -18.5t-108 -5q-32 0 -69.5 2.5t-76 10t-74.5 21t-64 35.5t-45 53t-17 74q0 62 26 121t69 103q36 37 81 60t94.5 36.5t102.5 18.5t107 5q48 0 107.5 -7t112.5 -28t89 -60.5t36 -103.5zM505 328
q0 34 -15.5 51.5t-50.5 17.5q-38 0 -66 -23.5t-47 -58t-28.5 -73.5t-9.5 -70q0 -67 67 -67q37 0 65 23.5t47 57.5t28.5 73t9.5 69zM574 576h-217l122 146h302z" />
    <glyph glyph-name="ocircumflex" unicode="&#xf4;" horiz-adv-x="851" 
d="M809 322q0 -60 -24.5 -118t-66.5 -101q-36 -38 -81 -61.5t-95 -37t-104 -18.5t-108 -5q-32 0 -69.5 2.5t-76 10t-74.5 21t-64 35.5t-45 53t-17 74q0 62 26 121t69 103q36 37 81 60t94.5 36.5t102.5 18.5t107 5q48 0 107.5 -7t112.5 -28t89 -60.5t36 -103.5zM505 328
q0 34 -15.5 51.5t-50.5 17.5q-38 0 -66 -23.5t-47 -58t-28.5 -73.5t-9.5 -70q0 -67 67 -67q37 0 65 23.5t47 57.5t28.5 73t9.5 69zM557 576l-52 64l-93 -64h-208l178 146h262l97 -146h-184z" />
    <glyph glyph-name="otilde" unicode="&#xf5;" horiz-adv-x="851" 
d="M809 322q0 -60 -24.5 -118t-66.5 -101q-36 -38 -81 -61.5t-95 -37t-104 -18.5t-108 -5q-32 0 -69.5 2.5t-76 10t-74.5 21t-64 35.5t-45 53t-17 74q0 62 26 121t69 103q36 37 81 60t94.5 36.5t102.5 18.5t107 5q48 0 107.5 -7t112.5 -28t89 -60.5t36 -103.5zM505 328
q0 34 -15.5 51.5t-50.5 17.5q-38 0 -66 -23.5t-47 -58t-28.5 -73.5t-9.5 -70q0 -67 67 -67q37 0 65 23.5t47 57.5t28.5 73t9.5 69zM761 734q-9 -32 -26 -60.5t-40.5 -50t-53 -34.5t-64.5 -13q-24 0 -49 7t-49 16t-45.5 16t-39.5 7q-16 0 -30 -10t-21 -24h-105
q26 71 70 108.5t122 37.5q22 0 43.5 -6t42.5 -12.5t42 -12.5t43 -6q20 0 35.5 8.5t22.5 28.5h102z" />
    <glyph glyph-name="odieresis" unicode="&#xf6;" horiz-adv-x="851" 
d="M809 322q0 -60 -24.5 -118t-66.5 -101q-36 -38 -81 -61.5t-95 -37t-104 -18.5t-108 -5q-32 0 -69.5 2.5t-76 10t-74.5 21t-64 35.5t-45 53t-17 74q0 62 26 121t69 103q36 37 81 60t94.5 36.5t102.5 18.5t107 5q48 0 107.5 -7t112.5 -28t89 -60.5t36 -103.5zM505 328
q0 34 -15.5 51.5t-50.5 17.5q-38 0 -66 -23.5t-47 -58t-28.5 -73.5t-9.5 -70q0 -67 67 -67q37 0 65 23.5t47 57.5t28.5 73t9.5 69zM759 582h-240l40 140h240zM435 582h-240l40 140h240z" />
    <glyph glyph-name="omacron" unicode="&#x14d;" horiz-adv-x="851" 
d="M809 322q0 -60 -24.5 -118t-66.5 -101q-36 -38 -81 -61.5t-95 -37t-104 -18.5t-108 -5q-32 0 -69.5 2.5t-76 10t-74.5 21t-64 35.5t-45 53t-17 74q0 62 26 121t69 103q36 37 81 60t94.5 36.5t102.5 18.5t107 5q48 0 107.5 -7t112.5 -28t89 -60.5t36 -103.5zM505 328
q0 34 -15.5 51.5t-50.5 17.5q-38 0 -66 -23.5t-47 -58t-28.5 -73.5t-9.5 -70q0 -67 67 -67q37 0 65 23.5t47 57.5t28.5 73t9.5 69zM723 587h-490l34 116h490z" />
    <glyph glyph-name="obreve" unicode="&#x14f;" horiz-adv-x="851" 
d="M809 322q0 -60 -24.5 -118t-66.5 -101q-36 -38 -81 -61.5t-95 -37t-104 -18.5t-108 -5q-32 0 -69.5 2.5t-76 10t-74.5 21t-64 35.5t-45 53t-17 74q0 62 26 121t69 103q36 37 81 60t94.5 36.5t102.5 18.5t107 5q48 0 107.5 -7t112.5 -28t89 -60.5t36 -103.5zM505 328
q0 34 -15.5 51.5t-50.5 17.5q-38 0 -66 -23.5t-47 -58t-28.5 -73.5t-9.5 -70q0 -67 67 -67q37 0 65 23.5t47 57.5t28.5 73t9.5 69zM749 722q-14 -41 -42.5 -69.5t-65 -47t-78 -27t-80.5 -8.5q-42 0 -79 7t-64.5 21.5t-43.5 38t-16 56.5q0 15 3 29h131q0 -19 7 -31t19 -19
t27 -9.5t31 -2.5q38 0 69.5 14t50.5 48h131z" />
    <glyph glyph-name="ohungarumlaut" unicode="&#x151;" horiz-adv-x="851" 
d="M809 322q0 -60 -24.5 -118t-66.5 -101q-36 -38 -81 -61.5t-95 -37t-104 -18.5t-108 -5q-32 0 -69.5 2.5t-76 10t-74.5 21t-64 35.5t-45 53t-17 74q0 62 26 121t69 103q36 37 81 60t94.5 36.5t102.5 18.5t107 5q48 0 107.5 -7t112.5 -28t89 -60.5t36 -103.5zM505 328
q0 34 -15.5 51.5t-50.5 17.5q-38 0 -66 -23.5t-47 -58t-28.5 -73.5t-9.5 -70q0 -67 67 -67q37 0 65 23.5t47 57.5t28.5 73t9.5 69zM732 576h-212l124 146h298zM408 576h-212l124 146h298z" />
    <glyph glyph-name="oslash" unicode="&#xf8;" horiz-adv-x="851" 
d="M726 465q37 -23 60 -57.5t23 -85.5q0 -60 -24.5 -118t-66.5 -101q-36 -38 -81 -61.5t-95 -37t-104 -18.5t-108 -5q-43 0 -95.5 5t-102.5 21l-122 -94l-35 49l93 72q-38 22 -61 56.5t-23 86.5q0 62 26 121t69 103q36 37 81 60t94.5 36.5t102.5 18.5t107 5q43 0 96.5 -5.5
t103.5 -22.5l114 88l35 -49zM439 401q-34 0 -61 -18.5t-46 -47.5t-30.5 -64.5t-15.5 -69.5l216 167q-16 33 -63 33zM355 101q32 0 58 18t45.5 46t31.5 62.5t17 68.5l-215 -166q17 -29 63 -29z" />
    <glyph glyph-name="oe" unicode="&#x153;" horiz-adv-x="1284" 
d="M1244 329q0 -30 -5.5 -58.5t-13.5 -57.5h-471q-5 -16 -8 -29.5t-3 -30.5q0 -36 23 -51t55 -15q39 0 63.5 12t41.5 48h274q-18 -49 -61.5 -81t-97.5 -51t-110 -26.5t-100 -7.5q-41 0 -78 2.5t-71.5 11.5t-66 25.5t-60.5 44.5q-37 -24 -70 -40.5t-65 -26t-65.5 -13.5
t-71.5 -4q-47 0 -99.5 8t-97 29.5t-74 59.5t-29.5 98q0 21 3.5 42t9.5 41q22 75 65 125t100 80.5t125 43.5t139 13q28 0 64.5 -3.5t72.5 -12.5t66.5 -25.5t46.5 -42.5q60 48 128.5 66t143.5 18q47 0 99 -7.5t96 -28.5t73 -58.5t29 -97.5zM978 351q0 33 -19 48.5t-51 15.5
q-47 0 -80.5 -31.5t-45.5 -74.5h189q3 11 5 21t2 21zM499 323q0 34 -16.5 54t-51.5 20q-37 0 -65 -22.5t-47.5 -55.5t-29.5 -70.5t-10 -68.5q0 -34 16 -54.5t52 -20.5q39 0 67.5 22.5t47 56t28 71.5t9.5 68z" />
    <glyph glyph-name="racute" unicode="&#x155;" horiz-adv-x="584" 
d="M567 328h-55q-84 0 -135 -34t-74 -115l-51 -179h-294l90 315q14 46 27 92.5t21 94.5h288l-30 -123q25 40 52.5 67.5t60 44t71 23.5t84.5 7zM498 576h-217l122 146h302z" />
    <glyph glyph-name="rcaron" unicode="&#x159;" horiz-adv-x="584" 
d="M567 328h-55q-84 0 -135 -34t-74 -115l-51 -179h-294l90 315q14 46 27 92.5t21 94.5h288l-30 -123q25 40 52.5 67.5t60 44t71 23.5t84.5 7zM339 722l52 -64l93 64h208l-178 -146h-262l-97 146h184z" />
    <glyph glyph-name="rcommaaccent" unicode="&#x157;" horiz-adv-x="584" 
d="M567 328h-55q-84 0 -135 -34t-74 -115l-51 -179h-294l90 315q14 46 27 92.5t21 94.5h288l-30 -123q25 40 52.5 67.5t60 44t71 23.5t84.5 7zM78 -245h-231l117 194h284z" />
    <glyph glyph-name="sacute" unicode="&#x15b;" horiz-adv-x="811" 
d="M767 382q0 -9 -0.5 -14.5t-1.5 -10.5h-272q2 8 2 14q0 13 -7 22t-18 13.5t-26 6.5t-31 2q-40 0 -68.5 -14t-28.5 -39q0 -20 32.5 -30t80.5 -17l85 -12q103 -15 161 -42.5t58 -79.5q0 -45 -23.5 -77.5t-61.5 -55t-85 -35.5t-94 -20.5t-90 -9.5t-71 -2q-55 0 -116.5 2.5
t-113 15.5t-85 39t-33.5 74q0 7 0.5 15.5t1.5 17.5h274v-7q0 -32 22 -41.5t65 -9.5q19 0 39.5 3t37 9.5t27 17t10.5 25.5q0 17 -27 27t-71 18l-92 16q-109 19 -165 46.5t-56 75.5q0 42 27.5 78t80 62t128.5 40.5t172 14.5q52 0 110.5 -4t108 -18t82 -41.5t32.5 -74.5z
M545 576h-217l122 146h302z" />
    <glyph glyph-name="scircumflex" unicode="&#x15d;" horiz-adv-x="811" 
d="M767 382q0 -9 -0.5 -14.5t-1.5 -10.5h-272q2 8 2 14q0 13 -7 22t-18 13.5t-26 6.5t-31 2q-40 0 -68.5 -14t-28.5 -39q0 -20 32.5 -30t80.5 -17l85 -12q103 -15 161 -42.5t58 -79.5q0 -45 -23.5 -77.5t-61.5 -55t-85 -35.5t-94 -20.5t-90 -9.5t-71 -2q-55 0 -116.5 2.5
t-113 15.5t-85 39t-33.5 74q0 7 0.5 15.5t1.5 17.5h274v-7q0 -32 22 -41.5t65 -9.5q19 0 39.5 3t37 9.5t27 17t10.5 25.5q0 17 -27 27t-71 18l-92 16q-109 19 -165 46.5t-56 75.5q0 42 27.5 78t80 62t128.5 40.5t172 14.5q52 0 110.5 -4t108 -18t82 -41.5t32.5 -74.5z
M528 576l-52 64l-93 -64h-208l178 146h262l97 -146h-184z" />
    <glyph glyph-name="scaron" unicode="&#x161;" horiz-adv-x="811" 
d="M767 382q0 -9 -0.5 -14.5t-1.5 -10.5h-272q2 8 2 14q0 13 -7 22t-18 13.5t-26 6.5t-31 2q-40 0 -68.5 -14t-28.5 -39q0 -20 32.5 -30t80.5 -17l85 -12q103 -15 161 -42.5t58 -79.5q0 -45 -23.5 -77.5t-61.5 -55t-85 -35.5t-94 -20.5t-90 -9.5t-71 -2q-55 0 -116.5 2.5
t-113 15.5t-85 39t-33.5 74q0 7 0.5 15.5t1.5 17.5h274v-7q0 -32 22 -41.5t65 -9.5q19 0 39.5 3t37 9.5t27 17t10.5 25.5q0 17 -27 27t-71 18l-92 16q-109 19 -165 46.5t-56 75.5q0 42 27.5 78t80 62t128.5 40.5t172 14.5q52 0 110.5 -4t108 -18t82 -41.5t32.5 -74.5z
M402 722l52 -64l93 64h208l-178 -146h-262l-97 146h184z" />
    <glyph glyph-name="scedilla" unicode="&#x15f;" horiz-adv-x="811" 
d="M417 -124q0 -30 -15 -51.5t-41 -34.5t-61.5 -19t-76.5 -6q-37 0 -79 6t-77 18l38 56q21 -10 42.5 -16t44.5 -6q32 0 50 8.5t18 25.5q0 13 -9.5 19.5t-24.5 6.5q-13 0 -24 -2t-25 -7l-20 31l87 77q-51 1 -101.5 6t-91 19t-66 39t-25.5 66q0 7 0.5 15.5t1.5 17.5h274v-7
q0 -32 22 -41.5t65 -9.5q19 0 39.5 3t37 9.5t27 17t10.5 25.5q0 17 -27 27t-71 18l-92 16q-109 19 -165 46.5t-56 75.5q0 42 27.5 78t80 62t128.5 40.5t172 14.5q52 0 110.5 -4t108 -18t82 -41.5t32.5 -74.5q0 -9 -0.5 -14.5t-1.5 -10.5h-272q2 8 2 14q0 13 -7 22t-18 13.5
t-26 6.5t-31 2q-40 0 -68.5 -14t-28.5 -39q0 -20 32.5 -30t80.5 -17l85 -12q103 -15 161 -42.5t58 -79.5q0 -43 -21.5 -74.5t-56.5 -53.5t-79 -36t-89.5 -22t-88 -11t-73.5 -3l-56 -50q14 5 32 7.5t37 2.5q31 0 55 -16.5t24 -48.5z" />
    <glyph glyph-name="scommaaccent" unicode="&#x219;" horiz-adv-x="811" 
d="M767 382q0 -9 -0.5 -14.5t-1.5 -10.5h-272q2 8 2 14q0 13 -7 22t-18 13.5t-26 6.5t-31 2q-40 0 -68.5 -14t-28.5 -39q0 -20 32.5 -30t80.5 -17l85 -12q103 -15 161 -42.5t58 -79.5q0 -45 -23.5 -77.5t-61.5 -55t-85 -35.5t-94 -20.5t-90 -9.5t-71 -2q-55 0 -116.5 2.5
t-113 15.5t-85 39t-33.5 74q0 7 0.5 15.5t1.5 17.5h274v-7q0 -32 22 -41.5t65 -9.5q19 0 39.5 3t37 9.5t27 17t10.5 25.5q0 17 -27 27t-71 18l-92 16q-109 19 -165 46.5t-56 75.5q0 42 27.5 78t80 62t128.5 40.5t172 14.5q52 0 110.5 -4t108 -18t82 -41.5t32.5 -74.5z
M280 -245h-231l117 194h284z" />
    <glyph glyph-name="germandbls" unicode="&#xdf;" horiz-adv-x="1097" 
d="M1035 182q0 -11 -2 -21t-5 -20q-11 -39 -36.5 -66t-59 -44.5t-73.5 -27.5t-81 -15t-80.5 -6t-72.5 -1q-21 0 -49.5 0.5t-59 3.5t-60 10t-53 20.5t-38 34.5t-14.5 52q0 23 6 46h246q-3 -11 -3 -22q0 -26 19 -32.5t40 -6.5q13 0 27 3.5t25.5 11t18.5 19t7 26.5
q0 17 -19.5 30t-49 25.5t-64 25t-64 29t-49 37.5t-19.5 50q0 15 5 33q11 39 34 62t52 36.5t59.5 21.5t55.5 17t41 23.5t16 40.5q0 19 -13 29t-31 15t-37 6t-31 1q-59 0 -99.5 -12t-69 -37.5t-47 -64t-33.5 -91.5l-122 -424h-294l128 447q19 67 51.5 115t74 80.5t92 52
t105 30t113 13.5t116.5 3q22 0 60.5 -1.5t82 -6.5t88.5 -15t81.5 -26.5t59.5 -40.5t23 -58q0 -15 -5 -32q-10 -34 -33 -55.5t-52 -35t-60 -22.5t-57 -19.5t-42.5 -25t-16.5 -38.5q0 -16 20 -27.5t49.5 -22t64.5 -21.5t64.5 -26t49.5 -35.5t20 -50.5z" />
    <glyph glyph-name="tcaron" unicode="&#x165;" horiz-adv-x="540" 
d="M524 362h-148l-34 -111q-17 -54 -17 -83q0 -23 16 -32.5t58 -9.5q20 0 34 2t28 5l-38 -133q-51 -11 -104 -15t-104 -4q-31 0 -65 5t-62.5 18.5t-47 38t-18.5 62.5q0 26 5 53.5t13 55.5l42 148h-82l40 140h84l25 88l318 91l-51 -179h148zM773 419h-204l122 303h261z" />
    <glyph glyph-name="uni0163" unicode="&#x163;" horiz-adv-x="540" 
d="M524 362h-148l-34 -111q-17 -54 -17 -83q0 -23 16 -32.5t58 -9.5q20 0 34 2t28 5l-38 -133q-51 -11 -104 -15t-104 -4q-31 0 -65 5t-62.5 18.5t-47 38t-18.5 62.5q0 26 5 53.5t13 55.5l42 148h-82l40 140h84l25 88l318 91l-51 -179h148zM111 -245h-231l117 194h284z" />
    <glyph glyph-name="uni021B" unicode="&#x21b;" horiz-adv-x="540" 
d="M524 362h-148l-34 -111q-17 -54 -17 -83q0 -23 16 -32.5t58 -9.5q20 0 34 2t28 5l-38 -133q-51 -11 -104 -15t-104 -4q-31 0 -65 5t-62.5 18.5t-47 38t-18.5 62.5q0 26 5 53.5t13 55.5l42 148h-82l40 140h84l25 88l318 91l-51 -179h148zM111 -245h-231l117 194h284z" />
    <glyph glyph-name="tbar" unicode="&#x167;" horiz-adv-x="540" 
d="M524 362h-148l-11 -36h148l-40 -140h-147q-1 -5 -1 -9.5v-8.5q0 -17 8 -25.5t20 -12t26 -4t26 -0.5q14 0 28 2t28 5l-38 -133q-51 -11 -104 -15t-104 -4q-31 0 -65 5t-62.5 18.5t-47 38t-18.5 62.5q0 19 2.5 39.5t7.5 41.5h-83l40 140h83l10 36h-82l40 140h84l25 88
l318 91l-51 -179h148z" />
    <glyph glyph-name="thorn" unicode="&#xfe;" horiz-adv-x="873" 
d="M831 332q0 -78 -28.5 -143t-78 -111t-116.5 -71.5t-144 -25.5q-27 0 -55 2.5t-53.5 10.5t-48 23t-40.5 40l-71 -249h-294l263 914h293l-84 -291q46 44 105.5 67t142.5 23q45 0 83 -11.5t66 -34.5t44 -59t16 -84zM522 320q0 71 -69 71q-36 0 -63.5 -21t-46 -52t-28.5 -67
t-10 -66q0 -31 17 -53.5t52 -22.5q37 0 65 21t46.5 52.5t27.5 68.5t9 69z" />
    <glyph glyph-name="ugrave" unicode="&#xf9;" horiz-adv-x="876" 
d="M754 127q-9 -31 -17.5 -63t-12.5 -64h-285l18 88q-52 -54 -120 -80.5t-143 -26.5q-36 0 -70.5 7t-62 23.5t-44.5 44t-17 67.5q0 20 3.5 39.5t8.5 39.5l86 300h294l-77 -269q-4 -13 -6.5 -26t-2.5 -27q0 -57 57 -57q28 0 50 11t38 29t27 41.5t18 47.5l72 250h294zM406 576
l-130 146h289l44 -146h-203z" />
    <glyph glyph-name="uacute" unicode="&#xfa;" horiz-adv-x="876" 
d="M754 127q-9 -31 -17.5 -63t-12.5 -64h-285l18 88q-52 -54 -120 -80.5t-143 -26.5q-36 0 -70.5 7t-62 23.5t-44.5 44t-17 67.5q0 20 3.5 39.5t8.5 39.5l86 300h294l-77 -269q-4 -13 -6.5 -26t-2.5 -27q0 -57 57 -57q28 0 50 11t38 29t27 41.5t18 47.5l72 250h294zM593 576
h-217l122 146h302z" />
    <glyph glyph-name="ucircumflex" unicode="&#xfb;" horiz-adv-x="876" 
d="M754 127q-9 -31 -17.5 -63t-12.5 -64h-285l18 88q-52 -54 -120 -80.5t-143 -26.5q-36 0 -70.5 7t-62 23.5t-44.5 44t-17 67.5q0 20 3.5 39.5t8.5 39.5l86 300h294l-77 -269q-4 -13 -6.5 -26t-2.5 -27q0 -57 57 -57q28 0 50 11t38 29t27 41.5t18 47.5l72 250h294zM576 576
l-52 64l-93 -64h-208l178 146h262l97 -146h-184z" />
    <glyph glyph-name="utilde" unicode="&#x169;" horiz-adv-x="876" 
d="M754 127q-9 -31 -17.5 -63t-12.5 -64h-285l18 88q-52 -54 -120 -80.5t-143 -26.5q-36 0 -70.5 7t-62 23.5t-44.5 44t-17 67.5q0 20 3.5 39.5t8.5 39.5l86 300h294l-77 -269q-4 -13 -6.5 -26t-2.5 -27q0 -57 57 -57q28 0 50 11t38 29t27 41.5t18 47.5l72 250h294zM780 734
q-9 -32 -26 -60.5t-40.5 -50t-53 -34.5t-64.5 -13q-24 0 -49 7t-49 16t-45.5 16t-39.5 7q-16 0 -30 -10t-21 -24h-105q26 71 70 108.5t122 37.5q22 0 43.5 -6t42.5 -12.5t42 -12.5t43 -6q20 0 35.5 8.5t22.5 28.5h102z" />
    <glyph glyph-name="udieresis" unicode="&#xfc;" horiz-adv-x="876" 
d="M754 127q-9 -31 -17.5 -63t-12.5 -64h-285l18 88q-52 -54 -120 -80.5t-143 -26.5q-36 0 -70.5 7t-62 23.5t-44.5 44t-17 67.5q0 20 3.5 39.5t8.5 39.5l86 300h294l-77 -269q-4 -13 -6.5 -26t-2.5 -27q0 -57 57 -57q28 0 50 11t38 29t27 41.5t18 47.5l72 250h294zM778 582
h-240l40 140h240zM454 582h-240l40 140h240z" />
    <glyph glyph-name="umacron" unicode="&#x16b;" horiz-adv-x="876" 
d="M754 127q-9 -31 -17.5 -63t-12.5 -64h-285l18 88q-52 -54 -120 -80.5t-143 -26.5q-36 0 -70.5 7t-62 23.5t-44.5 44t-17 67.5q0 20 3.5 39.5t8.5 39.5l86 300h294l-77 -269q-4 -13 -6.5 -26t-2.5 -27q0 -57 57 -57q28 0 50 11t38 29t27 41.5t18 47.5l72 250h294zM742 587
h-490l34 116h490z" />
    <glyph glyph-name="ubreve" unicode="&#x16d;" horiz-adv-x="876" 
d="M754 127q-9 -31 -17.5 -63t-12.5 -64h-285l18 88q-52 -54 -120 -80.5t-143 -26.5q-36 0 -70.5 7t-62 23.5t-44.5 44t-17 67.5q0 20 3.5 39.5t8.5 39.5l86 300h294l-77 -269q-4 -13 -6.5 -26t-2.5 -27q0 -57 57 -57q28 0 50 11t38 29t27 41.5t18 47.5l72 250h294zM768 722
q-14 -41 -42.5 -69.5t-65 -47t-78 -27t-80.5 -8.5q-42 0 -79 7t-64.5 21.5t-43.5 38t-16 56.5q0 15 3 29h131q0 -19 7 -31t19 -19t27 -9.5t31 -2.5q38 0 69.5 14t50.5 48h131z" />
    <glyph glyph-name="uring" unicode="&#x16f;" horiz-adv-x="876" 
d="M754 127q-9 -31 -17.5 -63t-12.5 -64h-285l18 88q-52 -54 -120 -80.5t-143 -26.5q-36 0 -70.5 7t-62 23.5t-44.5 44t-17 67.5q0 20 3.5 39.5t8.5 39.5l86 300h294l-77 -269q-4 -13 -6.5 -26t-2.5 -27q0 -57 57 -57q28 0 50 11t38 29t27 41.5t18 47.5l72 250h294zM497 755
q42 0 77 -5.5t59.5 -18t38.5 -32t14 -47.5q0 -25 -15 -43t-40.5 -29.5t-60 -17t-73.5 -5.5q-85 0 -137 23.5t-52 79.5q0 25 15 43t41 29.5t60.5 17t72.5 5.5zM546 656q0 19 -13 33t-35 14q-20 0 -35 -13.5t-15 -33.5t14 -33.5t35 -13.5q20 0 34.5 13t14.5 34z" />
    <glyph glyph-name="uhungarumlaut" unicode="&#x171;" horiz-adv-x="876" 
d="M754 127q-9 -31 -17.5 -63t-12.5 -64h-285l18 88q-52 -54 -120 -80.5t-143 -26.5q-36 0 -70.5 7t-62 23.5t-44.5 44t-17 67.5q0 20 3.5 39.5t8.5 39.5l86 300h294l-77 -269q-4 -13 -6.5 -26t-2.5 -27q0 -57 57 -57q28 0 50 11t38 29t27 41.5t18 47.5l72 250h294zM731 576
h-212l124 146h298zM407 576h-212l124 146h298z" />
    <glyph glyph-name="uogonek" unicode="&#x173;" horiz-adv-x="876" 
d="M754 127q-9 -31 -17.5 -63t-12.5 -64q-66 -32 -106.5 -63.5t-40.5 -64.5q0 -19 14.5 -25t30.5 -6q30 0 60 11l-4 -70q-33 -9 -67.5 -13t-69.5 -4q-18 0 -39.5 2.5t-40.5 10t-32 21.5t-13 38q0 50 46 88t129 75h-152l18 88q-52 -54 -120 -80.5t-143 -26.5q-36 0 -70.5 7
t-62 23.5t-44.5 44t-17 67.5q0 20 3.5 39.5t8.5 39.5l86 300h294l-77 -269q-4 -13 -6.5 -26t-2.5 -27q0 -57 57 -57q28 0 50 11t38 29t27 41.5t18 47.5l72 250h294z" />
    <glyph glyph-name="wacute" unicode="&#x1e83;" horiz-adv-x="1272" 
d="M983 0h-338l-16 346l-218 -346h-340l-51 502h278l-7 -346l209 346h339l15 -346l186 346h282zM803 576h-217l122 146h302z" />
    <glyph glyph-name="wcircumflex" unicode="&#x175;" horiz-adv-x="1272" 
d="M983 0h-338l-16 346l-218 -346h-340l-51 502h278l-7 -346l209 346h339l15 -346l186 346h282zM763 576l-52 64l-93 -64h-208l178 146h262l97 -146h-184z" />
    <glyph glyph-name="wdieresis" unicode="&#x1e85;" horiz-adv-x="1272" 
d="M983 0h-338l-16 346l-218 -346h-340l-51 502h278l-7 -346l209 346h339l15 -346l186 346h282zM963 582h-240l40 140h240zM639 582h-240l40 140h240z" />
    <glyph glyph-name="wgrave" unicode="&#x1e81;" horiz-adv-x="1272" 
d="M983 0h-338l-16 346l-218 -346h-340l-51 502h278l-7 -346l209 346h339l15 -346l186 346h282zM616 576l-130 146h289l44 -146h-203z" />
    <glyph glyph-name="yacute" unicode="&#xfd;" horiz-adv-x="778" 
d="M268 -192h-296l180 207l-153 487h282l55 -301l194 301h306zM532 576h-217l122 146h302z" />
    <glyph glyph-name="ycircumflex" unicode="&#x177;" horiz-adv-x="778" 
d="M268 -192h-296l180 207l-153 487h282l55 -301l194 301h306zM515 576l-52 64l-93 -64h-208l178 146h262l97 -146h-184z" />
    <glyph glyph-name="ydieresis" unicode="&#xff;" horiz-adv-x="778" 
d="M268 -192h-296l180 207l-153 487h282l55 -301l194 301h306zM717 582h-240l40 140h240zM393 582h-240l40 140h240z" />
    <glyph glyph-name="ygrave" unicode="&#x1ef3;" horiz-adv-x="778" 
d="M268 -192h-296l180 207l-153 487h282l55 -301l194 301h306zM349 576l-130 146h289l44 -146h-203z" />
    <glyph glyph-name="zacute" unicode="&#x17a;" horiz-adv-x="736" 
d="M705 391l-363 -259h302l-38 -132h-682l32 112l370 258h-269l38 132h641zM524 576h-217l122 146h302z" />
    <glyph glyph-name="zcaron" unicode="&#x17e;" horiz-adv-x="736" 
d="M705 391l-363 -259h302l-38 -132h-682l32 112l370 258h-269l38 132h641zM371 722l52 -64l93 64h208l-178 -146h-262l-97 146h184z" />
    <glyph glyph-name="zdotaccent" unicode="&#x17c;" horiz-adv-x="736" 
d="M705 391l-363 -259h302l-38 -132h-682l32 112l370 258h-269l38 132h641zM537 582h-240l40 140h240z" />
    <glyph glyph-name="f_i" unicode="&#xf001;" horiz-adv-x="916" 
d="M592 591q-14 3 -26.5 4.5t-26.5 1.5q-56 0 -80.5 -22t-38.5 -73h141l-40 -140h-141l-104 -362h-294l104 362h-86l40 140h86l6 20q20 67 51.5 109t74.5 66t98 32.5t122 8.5q38 0 76 -4.5t76 -11.5zM924 576h-294l42 146h294zM759 0h-294l144 502h294z" />
    <glyph glyph-name="f_l" unicode="&#xf002;" horiz-adv-x="917" 
d="M592 591q-14 3 -26.5 4.5t-26.5 1.5q-56 0 -80.5 -22t-38.5 -73h141l-40 -140h-141l-104 -362h-294l104 362h-86l40 140h86l6 20q20 67 51.5 109t74.5 66t98 32.5t122 8.5q38 0 76 -4.5t76 -11.5zM760 0h-294l207 722h293z" />
    <glyph glyph-name="grave.cap" unicode="&#xe300;" horiz-adv-x="370" 
d="M159 773l-130 146h289l44 -146h-203z" />
    <glyph glyph-name="acute" unicode="&#xb4;" horiz-adv-x="370" 
d="M345 576h-217l122 146h302z" />
    <glyph glyph-name="acute.cap" unicode="&#xe301;" horiz-adv-x="370" 
d="M345 773h-217l122 146h302z" />
    <glyph glyph-name="circumflex" unicode="&#x2c6;" horiz-adv-x="370" 
d="M331 576l-52 64l-93 -64h-208l178 146h262l97 -146h-184z" />
    <glyph glyph-name="circumflex.cap" unicode="&#xe302;" horiz-adv-x="370" 
d="M331 773l-52 64l-93 -64h-208l178 146h262l97 -146h-184z" />
    <glyph glyph-name="caron" unicode="&#x2c7;" horiz-adv-x="370" 
d="M204 722l52 -64l93 64h208l-178 -146h-262l-97 146h184z" />
    <glyph glyph-name="caron.cap" unicode="&#xe303;" horiz-adv-x="370" 
d="M204 919l52 -64l93 64h208l-178 -146h-262l-97 146h184z" />
    <glyph glyph-name="caron.alt" unicode="&#xe30b;" horiz-adv-x="409" 
d="M308 419h-204l122 303h261z" />
    <glyph glyph-name="tilde" unicode="&#x2dc;" horiz-adv-x="370" 
d="M533 734q-9 -32 -26 -60.5t-40.5 -50t-53 -34.5t-64.5 -13q-24 0 -49 7t-49 16t-45.5 16t-39.5 7q-16 0 -30 -10t-21 -24h-105q26 71 70 108.5t122 37.5q22 0 43.5 -6t42.5 -12.5t42 -12.5t43 -6q20 0 35.5 8.5t22.5 28.5h102v0z" />
    <glyph glyph-name="tilde.cap" unicode="&#xe304;" horiz-adv-x="370" 
d="M533 931q-9 -32 -26 -60.5t-40.5 -50t-53 -34.5t-64.5 -13q-24 0 -49 7t-49 16t-45.5 16t-39.5 7q-16 0 -30 -10t-21 -24h-105q26 71 70 108.5t122 37.5q22 0 43.5 -6t42.5 -12.5t42 -12.5t43 -6q20 0 35.5 8.5t22.5 28.5h102v0z" />
    <glyph glyph-name="dieresis" unicode="&#xa8;" horiz-adv-x="370" 
d="M531 582h-240l40 140h240zM207 582h-240l40 140h240z" />
    <glyph glyph-name="dieresis.cap" unicode="&#xe305;" horiz-adv-x="370" 
d="M531 779h-240l40 140h240zM207 779h-240l40 140h240z" />
    <glyph glyph-name="macron" unicode="&#xaf;" horiz-adv-x="370" 
d="M495 587h-490l34 116h490z" />
    <glyph glyph-name="macron.cap" unicode="&#xe306;" horiz-adv-x="370" 
d="M495 784h-490l34 116h490z" />
    <glyph glyph-name="uni02C9" unicode="&#x2c9;" horiz-adv-x="370" 
d="M495 784h-490l34 116h490z" />
    <glyph glyph-name="breve" unicode="&#x2d8;" horiz-adv-x="370" 
d="M522 722q-14 -41 -42.5 -69.5t-65 -47t-78 -27t-80.5 -8.5q-42 0 -79 7t-64.5 21.5t-43.5 38t-16 56.5q0 15 3 29h131q0 -19 7 -31t19 -19t27 -9.5t31 -2.5q38 0 69.5 14t50.5 48h131v0z" />
    <glyph glyph-name="breve.cap" unicode="&#xe307;" horiz-adv-x="370" 
d="M522 919q-14 -41 -42.5 -69.5t-65 -47t-78 -27t-80.5 -8.5q-42 0 -79 7t-64.5 21.5t-43.5 38t-16 56.5q0 15 3 29h131q0 -19 7 -31t19 -19t27 -9.5t31 -2.5q38 0 69.5 14t50.5 48h131v0z" />
    <glyph glyph-name="ring" unicode="&#x2da;" horiz-adv-x="370" 
d="M270 755q42 0 77 -5.5t59.5 -18t38.5 -32t14 -47.5q0 -25 -15 -43t-40.5 -29.5t-60 -17t-73.5 -5.5q-85 0 -137 23.5t-52 79.5q0 25 15 43t41 29.5t60.5 17t72.5 5.5zM319 656q0 19 -13 33t-35 14q-20 0 -35 -13.5t-15 -33.5t14 -33.5t35 -13.5q20 0 34.5 13t14.5 34z
" />
    <glyph glyph-name="ring.cap" unicode="&#xe308;" horiz-adv-x="370" 
d="M270 955q42 0 77 -5.5t59.5 -18t38.5 -32t14 -47.5q0 -25 -15 -43t-40.5 -29.5t-60 -17t-73.5 -5.5q-85 0 -137 23.5t-52 79.5q0 25 15 43t41 29.5t60.5 17t72.5 5.5zM319 856q0 19 -13 33t-35 14q-20 0 -35 -13.5t-15 -33.5t14 -33.5t35 -13.5q20 0 34.5 13t14.5 34z
" />
    <glyph glyph-name="hungarumlaut" unicode="&#x2dd;" horiz-adv-x="370" 
d="M503 576h-212l124 146h298zM179 576h-212l124 146h298z" />
    <glyph glyph-name="hungarumlaut.cap" unicode="&#xe309;" horiz-adv-x="370" 
d="M503 773h-212l124 146h298zM179 773h-212l124 146h298z" />
    <glyph glyph-name="dotaccent" unicode="&#x2d9;" horiz-adv-x="370" 
d="M369 582h-240l40 140h240z" />
    <glyph glyph-name="dotaccent.cap" unicode="&#xe30a;" horiz-adv-x="370" 
d="M369 779h-240l40 140h240z" />
    <glyph glyph-name="cedilla" unicode="&#xb8;" horiz-adv-x="370" 
d="M203 -124q0 -30 -15 -51.5t-41 -34.5t-61.5 -19t-76.5 -6q-37 0 -79 6t-77 18l38 56q21 -10 42.5 -16t44.5 -6q32 0 50 8.5t18 25.5q0 13 -9.5 19.5t-24.5 6.5q-13 0 -24 -2t-25 -7l-20 31l110 96h81l-79 -70q14 5 32 7.5t37 2.5q31 0 55 -16.5t24 -48.5z" />
    <glyph glyph-name="ogonek" unicode="&#x2db;" horiz-adv-x="370" 
d="M272 0q-66 -32 -106.5 -63.5t-40.5 -64.5q0 -19 14.5 -25t30.5 -6q30 0 60 11l-4 -70q-33 -9 -67.5 -13t-69.5 -4q-18 0 -39.5 2.5t-40.5 10t-32 21.5t-13 38q0 50 46 88t129 75h133v0z" />
    <glyph glyph-name="commaaccent" unicode="&#xe30c;" horiz-adv-x="409" 
d="M68 -245h-231l117 194h284z" />
    <glyph glyph-name="commaaccent.alt" unicode="&#xe30d;" horiz-adv-x="851" 
d="M481 722h232l-118 -146h-274z" />
    <glyph glyph-name="ellipsis" unicode="&#x2026;" horiz-adv-x="1000" 
d="M868 0h-276l47 164h276zM535 0h-276l47 164h276zM202 0h-276l47 164h276z" />
    <glyph glyph-name="uni00AD" unicode="&#xad;" horiz-adv-x="519" 
d="M432 179h-449l51 176h449z" />
    <glyph glyph-name="exclamdown" unicode="&#xa1;" horiz-adv-x="492" 
d="M385 384h-264l42 146h264zM251 -192h-326l192 508h234z" />
    <glyph glyph-name="questiondown" unicode="&#xbf;" horiz-adv-x="692" 
d="M-68 -65q0 42 16 76t42 61t58 49t65 42q40 24 66.5 40.5t44 33t30 37t25.5 53.5h240l-11 -39q-8 -29 -18.5 -49.5t-25.5 -37.5t-35.5 -32t-48.5 -33q-26 -16 -49.5 -32t-41.5 -33t-28.5 -36t-10.5 -41q0 -30 27 -41.5t67 -11.5q48 0 94.5 6t93.5 17l-42 -146
q-69 -14 -137 -21.5t-138 -7.5q-43 0 -92.5 5t-92 20.5t-70.5 44.5t-28 76zM325 530h264l-42 -146h-264z" />
    <glyph glyph-name="quoteleft" unicode="&#x2018;" horiz-adv-x="420" 
d="M327 449h-294l228 273h232z" />
    <glyph glyph-name="quoteright" unicode="&#x2019;" horiz-adv-x="420" 
d="M298 449h-232l166 273h294z" />
    <glyph glyph-name="quotedblleft" unicode="&#x201c;" horiz-adv-x="726" 
d="M634 449h-268l221 273h212zM301 449h-268l221 273h212z" />
    <glyph glyph-name="quotedblright" unicode="&#x201d;" horiz-adv-x="726" 
d="M611 449h-212l165 273h268zM278 449h-212l165 273h268z" />
    <glyph glyph-name="quotesinglbase" unicode="&#x201a;" horiz-adv-x="436" 
d="M106 -125h-232l166 273h294z" />
    <glyph glyph-name="quotedblbase" unicode="&#x201e;" horiz-adv-x="726" 
d="M419 -125h-212l165 273h268zM86 -125h-212l165 273h268z" />
    <glyph glyph-name="guilsinglleft" unicode="&#x2039;" horiz-adv-x="568" 
d="M279 264l144 -222h-284l-156 225l279 225h303z" />
    <glyph glyph-name="guilsinglright" unicode="&#x203a;" horiz-adv-x="568" 
d="M230 270l-144 222h284l156 -225l-279 -225h-303z" />
    <glyph glyph-name="guillemotleft" unicode="&#xab;" horiz-adv-x="980" 
d="M279 264l144 -222h-284l-156 225l279 225h303zM697 264l144 -222h-284l-156 225l279 225h303z" />
    <glyph glyph-name="guillemotright" unicode="&#xbb;" horiz-adv-x="980" 
d="M643 270l-144 222h284l156 -225l-279 -225h-303zM225 270l-144 222h284l156 -225l-279 -225h-303z" />
    <glyph glyph-name="endash" unicode="&#x2013;" horiz-adv-x="500" 
d="M452 191h-500l43 152h500z" />
    <glyph glyph-name="emdash" unicode="&#x2014;" horiz-adv-x="1000" 
d="M817 191h-730l43 152h730z" />
    <glyph glyph-name="bullet" unicode="&#x2022;" horiz-adv-x="500" 
d="M431 361q0 -38 -14 -70.5t-39 -57.5t-58 -39t-70 -14q-38 0 -70.5 14t-57.5 39t-39 57.5t-14 70.5q0 37 14 70t39 58t57.5 39t70.5 14q37 0 70 -14t58 -39t39 -58t14 -70z" />
    <glyph glyph-name="periodcentered" unicode="&#xb7;" horiz-adv-x="415" 
d="M288 178h-256l47 164h256z" />
    <glyph glyph-name="uni2219" unicode="&#x2219;" horiz-adv-x="415" 
d="M288 178h-256l47 164h256z" />
    <glyph glyph-name="dagger" unicode="&#x2020;" horiz-adv-x="706" 
d="M665 377h-175l-108 -377h-258l108 377h-175l51 176h175l48 169h258l-48 -169h175z" />
    <glyph glyph-name="daggerdbl" unicode="&#x2021;" horiz-adv-x="706" 
d="M678 445h-174l-49 -168h174l-47 -164h-174l-32 -113h-246l32 113h-174l47 164h174l49 168h-174l47 164h174l32 113h246l-32 -113h174z" />
    <glyph glyph-name="section" unicode="&#xa7;" horiz-adv-x="840" 
d="M777 601q-45 17 -97 25.5t-100 8.5q-12 0 -38.5 -1.5t-53 -7.5t-46.5 -18t-20 -33q0 -9 9.5 -16t25 -12.5t37 -10t45.5 -8.5q37 -7 77 -15.5t73 -22.5t54 -35t21 -53q0 -38 -16 -64t-42 -43.5t-59 -28t-67 -17.5q18 -3 35 -11.5t30.5 -21t21.5 -29.5t8 -38
q0 -23 -7.5 -44.5t-20.5 -40.5q-38 -56 -121 -82t-204 -26q-81 0 -159.5 8.5t-156.5 29.5l37 128q26 -10 56 -19t61.5 -16t62.5 -11t58 -4q15 0 38 1.5t45.5 7.5t38.5 18.5t16 33.5q0 11 -11 20t-29.5 16t-43 13.5t-51.5 13.5q-36 9 -72.5 19.5t-66 25.5t-48 35.5
t-18.5 50.5q0 34 13.5 59t36 42t52 26.5t60.5 13.5q-35 13 -56 39t-21 53q0 26 12.5 52t34.5 47q50 47 138.5 64.5t222.5 17.5q119 0 238 -26zM508 371q0 18 -30.5 31t-73.5 22q-12 -4 -24.5 -11t-23 -17t-17 -22t-6.5 -26q0 -18 28.5 -29.5t74.5 -20.5q10 4 22.5 11.5
t23.5 16.5t18.5 20.5t7.5 24.5z" />
    <glyph glyph-name="paragraph" unicode="&#xb6;" horiz-adv-x="810" 
d="M633 0h-188l172 600h-138l-172 -600h-188l96 335q-30 0 -59 8.5t-51.5 26t-36.5 44t-14 62.5q0 79 35.5 127.5t90.5 74.5t121 35t127 9h412z" />
    <glyph glyph-name="brokenbar" unicode="&#xa6;" horiz-adv-x="272" 
d="M60 410v250h152v-250h-152zM60 -89v250h152v-250h-152z" />
    <glyph glyph-name="copyright" unicode="&#xa9;" horiz-adv-x="878" 
d="M690 312q-3 -53 -26.5 -84.5t-58.5 -48t-78 -22t-84 -5.5q-75 0 -124.5 14t-78.5 41t-40.5 65.5t-11.5 88.5q0 46 12 85t41.5 67t79.5 43.5t126 15.5q46 0 89 -7t76.5 -25t54 -49t21.5 -78h-175q-5 35 -19 51t-47 16q-38 0 -54.5 -29.5t-16.5 -89.5q0 -26 2.5 -47t10 -37
t21.5 -24.5t37 -8.5q30 0 46 16t20 52h177zM837 361q0 -80 -28 -149t-80 -120.5t-125.5 -81t-164.5 -29.5t-164.5 29.5t-125.5 81t-80 120.5t-28 149q0 79 28 148.5t80 121t125.5 81t164.5 29.5t164.5 -29.5t125.5 -81t80 -121t28 -148.5zM737 361q0 63 -19.5 116.5
t-57 92.5t-93.5 61t-128 22t-128 -22t-93.5 -61t-57 -92.5t-19.5 -116.5t19.5 -116.5t57 -92.5t93.5 -61t128 -22t128 22t93.5 61t57 92.5t19.5 116.5z" />
    <glyph glyph-name="registered" unicode="&#xae;" horiz-adv-x="490" 
d="M471 551q0 -39 -15 -74t-40.5 -60.5t-60.5 -40.5t-74 -15t-74 15t-60.5 40.5t-40.5 60.5t-15 74t15 74t40.5 60.5t60.5 40.5t74 15t74 -15t60.5 -40.5t40.5 -60.5t15 -74zM407 551q0 61 -36 96.5t-90 35.5t-90 -35.5t-36 -96.5t36 -96t90 -35t90 35t36 96zM310 454
l-44 81h-15v-81h-48v197h73q40 0 63 -11t23 -48q0 -29 -14 -40.5t-33 -13.5l48 -84h-53zM314 595q0 11 -8.5 14.5t-19.5 3.5h-35v-42h36q27 0 27 24z" />
    <glyph glyph-name="trademark" unicode="&#x2122;" horiz-adv-x="1030" 
d="M881 310v266h-2l-86 -266h-94l-86 266h-2v-266h-122v412h174l82 -239h2l82 239h174v-412h-122zM335 626v-316h-128v316h-108v96h344v-96h-108z" />
    <glyph glyph-name="currency" unicode="&#xa4;" horiz-adv-x="830" 
d="M151 209q-17 32 -26 67.5t-9 75.5q0 39 9 75t26 67l-90 91l116 116l91 -90q32 17 69 26.5t78 9.5q40 0 77 -9.5t69 -26.5l92 90l116 -116l-91 -91q17 -31 26.5 -67t9.5 -75q0 -40 -9.5 -75.5t-26.5 -67.5l91 -90l-116 -116l-92 90q-32 -17 -69 -26.5t-77 -9.5
q-41 0 -78 9.5t-69 26.5l-91 -90l-116 116zM529 352q0 54 -30.5 88.5t-83.5 34.5t-83.5 -34.5t-30.5 -88.5t30.5 -88.5t83.5 -34.5t83.5 34.5t30.5 88.5z" />
    <glyph glyph-name="Euro" unicode="&#x20ac;" horiz-adv-x="830" 
d="M416 188q0 -38 33 -54.5t88 -16.5q45 0 80.5 14t70.5 37v-149q-13 -5 -35 -11.5t-49 -12.5t-56.5 -10t-56.5 -4q-86 0 -152.5 11.5t-112 37.5t-69 68t-23.5 104v20h-130l68 116h80q2 8 3.5 15.5t3.5 15.5q3 15 7 26h-102l68 116h84l2 2q36 65 78 109t96 70.5t124.5 37.5
t164.5 11q72 0 123 -16.5t75 -32.5l-75 -126q-16 14 -52.5 26.5t-93.5 12.5q-60 0 -96.5 -23.5t-57.5 -68.5l-1 -2h268l-68 -116h-244l-8 -27l-9 -30h226l-68 -116h-182q-1 -10 -1.5 -18.5t-0.5 -15.5z" />
    <glyph glyph-name="cent" unicode="&#xa2;" horiz-adv-x="830" 
d="M449 397h-9q-38 1 -66 -22.5t-47.5 -58t-29 -74t-9.5 -70.5q0 -14 2 -24zM599 512q39 -7 75.5 -19.5t64.5 -32t44.5 -47.5t16.5 -66q0 -13 -0.5 -21t-2.5 -19h-284q2 8 3 17t1 18q0 18 -6 30l-167 -266q7 -1 12.5 -1h10.5q46 0 73.5 25t40.5 67h288q-21 -66 -66 -108
t-104 -66t-126.5 -33t-134.5 -9q-35 0 -71 3l-70 -108h-81l76 119q-38 8 -73 23t-61 37.5t-41.5 54t-15.5 73.5q0 63 28 122.5t73 101.5q37 35 80 57t90.5 35t98.5 17.5t105 4.5q12 0 27.5 -0.5t23.5 -1.5l62 97h76z" />
    <glyph glyph-name="sterling" unicode="&#xa3;" horiz-adv-x="830" 
d="M890 576q0 -28 -8 -60h-252q1 5 1 8.5v8.5q0 37 -19 52.5t-54 15.5t-58.5 -10.5t-40 -28.5t-27 -42.5t-18.5 -52.5l-6 -22h226l-46 -158h-226l-37 -129h429l-45 -158h-761l45 158h68l37 129h-82l46 158h82l6 21q10 33 21 65t31 61q31 47 75 76.5t94 45.5t104 21.5
t106 5.5q28 0 62 -1.5t68.5 -7.5t66.5 -17t57 -29t40 -45t15 -65z" />
    <glyph glyph-name="florin" unicode="&#x192;" horiz-adv-x="830" 
d="M795 587q-15 3 -30 5.5t-31 2.5q-25 0 -44 -7t-33 -19t-24 -28t-17 -35l-20 -49h141l-64 -128h-134l-128 -300q-27 -64 -58 -109.5t-71 -74.5t-92.5 -42.5t-123.5 -13.5q-45 0 -91.5 5.5t-90.5 18.5l60 126q20 -4 45 -4q34 0 57.5 11t40.5 30t29 44t24 53l111 256h-128
l61 128h124l26 60q24 55 47 96.5t56 70t81.5 43t122.5 14.5q55 0 109.5 -4.5t108.5 -14.5z" />
    <glyph glyph-name="yen" unicode="&#xa5;" horiz-adv-x="830" 
d="M643 393h112l-33 -116h-186l-20 -21l-10 -36h199l-33 -116h-199l-30 -104h-252l30 104h-199l33 116h199l10 36l-7 21h-185l33 116h111l-114 329h289l40 -298l217 298h294z" />
    <glyph glyph-name="ordfeminine" unicode="&#xaa;" horiz-adv-x="592" 
d="M636 649q0 -17 -5 -37q-13 -47 -23 -93t-17 -94h-197l8 44q-39 -35 -88 -44.5t-100 -9.5q-17 0 -43 2.5t-50.5 10.5t-42.5 23t-18 40q0 41 24 66t64 38.5t90.5 17.5t103.5 4h89q2 4 3 10t1 11q0 20 -14 26.5t-31 6.5q-22 0 -41.5 -4.5t-29.5 -26.5h-193q11 33 36.5 53
t61.5 30.5t81.5 14t95.5 3.5q54 0 97 -4.5t74 -15t47.5 -28t16.5 -44.5zM396 555q-18 0 -39.5 -1t-40 -5.5t-31.5 -13t-13 -24.5q0 -14 15 -20t27 -6q37 0 64 16.5t35 53.5h-17z" />
    <glyph glyph-name="ordmasculine" unicode="&#xba;" horiz-adv-x="574" 
d="M630 619q0 -13 -2.5 -25t-5.5 -24q-15 -54 -49 -85t-78.5 -46.5t-94.5 -19.5t-98 -4q-29 0 -69.5 3.5t-77 15.5t-62 36t-25.5 66q0 12 2.5 24t5.5 24q15 54 48.5 85.5t78 47t94.5 20t98 4.5q30 0 70 -3.5t77 -15.5t62.5 -36.5t25.5 -66.5zM399 607q0 15 -7 26.5t-24 11.5
q-16 0 -28.5 -10t-21.5 -25t-13.5 -32t-4.5 -30q0 -14 6.5 -25.5t23.5 -11.5q16 0 29 10t22 24.5t13.5 31t4.5 30.5z" />
    <glyph glyph-name="onesuperior" unicode="&#xb9;" 
d="M401 293h-210l78 272q-36 -20 -72 -34t-76 -23l42 146q43 14 84.5 30.5t81.5 37.5h195z" />
    <glyph glyph-name="twosuperior" unicode="&#xb2;" 
d="M601 631q0 -41 -27.5 -74.5t-72.5 -62t-103.5 -51.5t-120.5 -42l-1 -2h255l-30 -106h-501l30 106l190 81q49 21 81 38t51 31.5t26 27.5t7 26q0 17 -11.5 24t-26.5 7q-29 0 -48 -17.5t-27 -44.5h-192q18 55 49 86.5t71 47.5t87.5 20t98.5 4q45 0 84 -5t68 -16.5t46 -30.5
t17 -47z" />
    <glyph glyph-name="threesuperior" unicode="&#xb3;" 
d="M597 641q0 -31 -13 -53t-33.5 -37t-46.5 -23.5t-52 -12.5l-1 -2q16 -2 33.5 -5.5t32.5 -11.5t25 -21t10 -33q0 -42 -25.5 -71.5t-68 -48.5t-98 -28t-116.5 -9q-101 0 -155.5 21.5t-54.5 83.5q0 19 5 41h204q-1 -5 -1.5 -10t-0.5 -10q0 -19 11 -27.5t29 -8.5q26 0 46 16.5
t20 42.5q0 18 -16.5 25.5t-48.5 7.5h-46l26 90h45q32 0 56 13.5t24 40.5q0 16 -10.5 22.5t-24.5 6.5q-26 0 -41 -14t-21 -36h-198q12 44 37.5 71.5t62.5 42.5t85.5 20.5t108.5 5.5q104 0 157.5 -20.5t53.5 -68.5z" />
    <glyph glyph-name="fraction" unicode="&#x2044;" horiz-adv-x="222" 
d="M-188 -38h-147l746 798h147z" />
    <glyph glyph-name="uni2215" unicode="&#x2215;" horiz-adv-x="222" 
d="M-188 -38h-147l746 798h147z" />
    <glyph glyph-name="onehalf" unicode="&#xbd;" horiz-adv-x="1261" 
d="M401 293h-210l78 272q-36 -20 -72 -34t-76 -23l42 146q43 14 84.5 30.5t81.5 37.5h195zM279 -38h-147l746 798h147zM1192 338q0 -41 -27.5 -74.5t-72.5 -62t-103.5 -51.5t-120.5 -42l-1 -2h255l-30 -106h-501l30 106l190 81q49 21 81 38t51 31.5t26 27.5t7 26
q0 17 -11.5 24t-26.5 7q-29 0 -48 -17.5t-27 -44.5h-192q18 55 49 86.5t71 47.5t87.5 20t98.5 4q45 0 84 -5t68 -16.5t46 -30.5t17 -47z" />
    <glyph glyph-name="onethird" unicode="&#x2153;" horiz-adv-x="1261" 
d="M1189 348q0 -31 -13 -53t-33.5 -37t-46.5 -23.5t-52 -12.5l-1 -2q16 -2 33.5 -5.5t32.5 -11.5t25 -21t10 -33q0 -42 -25.5 -71.5t-68 -48.5t-98 -28t-116.5 -9q-101 0 -155.5 21.5t-54.5 83.5q0 19 5 41h204q-1 -5 -1.5 -10t-0.5 -10q0 -19 11 -27.5t29 -8.5
q26 0 46 16.5t20 42.5q0 18 -16.5 25.5t-48.5 7.5h-46l26 90h45q32 0 56 13.5t24 40.5q0 16 -10.5 22.5t-24.5 6.5q-26 0 -41 -14t-21 -36h-198q12 44 37.5 71.5t62.5 42.5t85.5 20.5t108.5 5.5q104 0 157.5 -20.5t53.5 -68.5zM279 -38h-147l746 798h147zM401 293h-210
l78 272q-36 -20 -72 -34t-76 -23l42 146q43 14 84.5 30.5t81.5 37.5h195z" />
    <glyph glyph-name="onequarter" unicode="&#xbc;" horiz-adv-x="1261" 
d="M401 293h-210l78 272q-36 -20 -72 -34t-76 -23l42 146q43 14 84.5 30.5t81.5 37.5h195zM279 -38h-147l746 798h147zM1076 170h72l-28 -96h-72l-21 -74h-204l21 74h-252l34 118l286 237h238zM751 170h121l39 137z" />
    <glyph glyph-name="oneeighth" unicode="&#x215b;" horiz-adv-x="1261" 
d="M401 293h-210l78 272q-36 -20 -72 -34t-76 -23l42 146q43 14 84.5 30.5t81.5 37.5h195zM279 -38h-147l746 798h147zM1147 150q0 -35 -20.5 -64t-59.5 -50t-96.5 -32.5t-130.5 -11.5q-51 0 -93.5 5t-73.5 16.5t-48 30.5t-17 47t11.5 50t30.5 38.5t44 27t52 15.5
q-62 17 -62 64q0 33 20.5 60.5t58 48t90 31.5t115.5 11q41 0 79 -5.5t67.5 -17.5t47.5 -31t18 -46q0 -46 -31.5 -75.5t-85.5 -40.5q84 -18 84 -71zM918 263q27 0 47.5 14t20.5 38q0 31 -44 31q-11 0 -23 -3.5t-22 -10.5t-16.5 -17t-6.5 -23q0 -29 44 -29zM867 84
q32 0 55.5 16.5t23.5 42.5q0 17 -14.5 26t-37.5 9q-15 0 -29.5 -4.5t-25.5 -12.5t-18 -19t-7 -24q0 -34 53 -34z" />
    <glyph glyph-name="twothirds" unicode="&#x2154;" horiz-adv-x="1360" 
d="M615 631q0 -41 -27.5 -74.5t-72.5 -62t-103.5 -51.5t-120.5 -42l-1 -2h255l-30 -106h-501l30 106l190 81q49 21 81 38t51 31.5t26 27.5t7 26q0 17 -11.5 24t-26.5 7q-29 0 -48 -17.5t-27 -44.5h-192q18 55 49 86.5t71 47.5t87.5 20t98.5 4q45 0 84 -5t68 -16.5t46 -30.5
t17 -47zM1319 348q0 -31 -13 -53t-33.5 -37t-46.5 -23.5t-52 -12.5l-1 -2q16 -2 33.5 -5.5t32.5 -11.5t25 -21t10 -33q0 -42 -25.5 -71.5t-68 -48.5t-98 -28t-116.5 -9q-101 0 -155.5 21.5t-54.5 83.5q0 19 5 41h204q-1 -5 -1.5 -10t-0.5 -10q0 -19 11 -27.5t29 -8.5
q26 0 46 16.5t20 42.5q0 18 -16.5 25.5t-48.5 7.5h-46l26 90h45q32 0 56 13.5t24 40.5q0 16 -10.5 22.5t-24.5 6.5q-26 0 -41 -14t-21 -36h-198q12 44 37.5 71.5t62.5 42.5t85.5 20.5t108.5 5.5q104 0 157.5 -20.5t53.5 -68.5zM409 -38h-147l746 798h147z" />
    <glyph glyph-name="threequarters" unicode="&#xbe;" horiz-adv-x="1261" 
d="M1136 170h72l-28 -96h-72l-21 -74h-204l21 74h-252l34 118l286 237h238zM595 641q0 -31 -13 -53t-33.5 -37t-46.5 -23.5t-52 -12.5l-1 -2q16 -2 33.5 -5.5t32.5 -11.5t25 -21t10 -33q0 -42 -25.5 -71.5t-68 -48.5t-98 -28t-116.5 -9q-101 0 -155.5 21.5t-54.5 83.5
q0 19 5 41h204q-1 -5 -1.5 -10t-0.5 -10q0 -19 11 -27.5t29 -8.5q26 0 46 16.5t20 42.5q0 18 -16.5 25.5t-48.5 7.5h-46l26 90h45q32 0 56 13.5t24 40.5q0 16 -10.5 22.5t-24.5 6.5q-26 0 -41 -14t-21 -36h-198q12 44 37.5 71.5t62.5 42.5t85.5 20.5t108.5 5.5
q104 0 157.5 -20.5t53.5 -68.5zM359 -38h-147l746 798h147zM811 170h121l39 137z" />
    <glyph glyph-name="threeeighths" unicode="&#x215c;" horiz-adv-x="1261" 
d="M1199 150q0 -35 -20.5 -64t-59.5 -50t-96.5 -32.5t-130.5 -11.5q-51 0 -93.5 5t-73.5 16.5t-48 30.5t-17 47t11.5 50t30.5 38.5t44 27t52 15.5q-62 17 -62 64q0 33 20.5 60.5t58 48t90 31.5t115.5 11q41 0 79 -5.5t67.5 -17.5t47.5 -31t18 -46q0 -46 -31.5 -75.5
t-85.5 -40.5q84 -18 84 -71zM582 641q0 -31 -13 -53t-33.5 -37t-46.5 -23.5t-52 -12.5l-1 -2q16 -2 33.5 -5.5t32.5 -11.5t25 -21t10 -33q0 -42 -25.5 -71.5t-68 -48.5t-98 -28t-116.5 -9q-101 0 -155.5 21.5t-54.5 83.5q0 19 5 41h204q-1 -5 -1.5 -10t-0.5 -10
q0 -19 11 -27.5t29 -8.5q26 0 46 16.5t20 42.5q0 18 -16.5 25.5t-48.5 7.5h-46l26 90h45q32 0 56 13.5t24 40.5q0 16 -10.5 22.5t-24.5 6.5q-26 0 -41 -14t-21 -36h-198q12 44 37.5 71.5t62.5 42.5t85.5 20.5t108.5 5.5q104 0 157.5 -20.5t53.5 -68.5zM331 -38h-147l746 798
h147zM919 84q32 0 55.5 16.5t23.5 42.5q0 17 -14.5 26t-37.5 9q-15 0 -29.5 -4.5t-25.5 -12.5t-18 -19t-7 -24q0 -34 53 -34zM970 263q27 0 47.5 14t20.5 38q0 31 -44 31q-11 0 -23 -3.5t-22 -10.5t-16.5 -17t-6.5 -23q0 -29 44 -29z" />
    <glyph glyph-name="fiveeighths" unicode="&#x215d;" horiz-adv-x="1261" 
d="M331 -38h-147l746 798h147zM1199 150q0 -35 -20.5 -64t-59.5 -50t-96.5 -32.5t-130.5 -11.5q-51 0 -93.5 5t-73.5 16.5t-48 30.5t-17 47t11.5 50t30.5 38.5t44 27t52 15.5q-62 17 -62 64q0 33 20.5 60.5t58 48t90 31.5t115.5 11q41 0 79 -5.5t67.5 -17.5t47.5 -31t18 -46
q0 -46 -31.5 -75.5t-85.5 -40.5q84 -18 84 -71zM970 263q27 0 47.5 14t20.5 38q0 31 -44 31q-11 0 -23 -3.5t-22 -10.5t-16.5 -17t-6.5 -23q0 -29 44 -29zM919 84q32 0 55.5 16.5t23.5 42.5q0 17 -14.5 26t-37.5 9q-15 0 -29.5 -4.5t-25.5 -12.5t-18 -19t-7 -24
q0 -34 53 -34zM544 481q0 -48 -22 -84.5t-63 -61t-98.5 -37.5t-129.5 -13q-57 0 -100 7t-70.5 23t-38 41.5t-2.5 62.5h204q-8 -44 38 -44q32 0 53 23t21 54q0 35 -42 35q-13 0 -27 -5.5t-27 -17.5h-201l95 258h455l-30 -106h-274l-27 -71q20 13 55 23t76 10q155 0 155 -97z
" />
    <glyph glyph-name="seveneighths" unicode="&#x215e;" horiz-adv-x="1261" 
d="M279 -38h-147l746 798h147zM1147 150q0 -35 -20.5 -64t-59.5 -50t-96.5 -32.5t-130.5 -11.5q-51 0 -93.5 5t-73.5 16.5t-48 30.5t-17 47t11.5 50t30.5 38.5t44 27t52 15.5q-62 17 -62 64q0 33 20.5 60.5t58 48t90 31.5t115.5 11q41 0 79 -5.5t67.5 -17.5t47.5 -31t18 -46
q0 -46 -31.5 -75.5t-85.5 -40.5q84 -18 84 -71zM918 263q27 0 47.5 14t20.5 38q0 31 -44 31q-11 0 -23 -3.5t-22 -10.5t-16.5 -17t-6.5 -23q0 -29 44 -29zM867 84q32 0 55.5 16.5t23.5 42.5q0 17 -14.5 26t-37.5 9q-15 0 -29.5 -4.5t-25.5 -12.5t-18 -19t-7 -24
q0 -34 53 -34zM314 293h-245l306 312h-267l33 117h491l-31 -109z" />
    <glyph glyph-name="perthousand" unicode="&#x2030;" horiz-adv-x="1624" 
d="M1549 250q0 -35 -11 -71q-14 -50 -40.5 -87t-63.5 -61.5t-81.5 -37t-94.5 -12.5q-33 0 -65 6.5t-57 21.5t-40.5 40.5t-15.5 64.5q0 17 2.5 33t7.5 32q14 49 41 86.5t63.5 62t81.5 37t95 12.5q33 0 64.5 -5t57 -19.5t41 -39t15.5 -63.5zM1036 250q0 -35 -11 -71
q-14 -50 -40.5 -87t-63.5 -61.5t-81.5 -37t-94.5 -12.5q-33 0 -65 6.5t-57 21.5t-40.5 40.5t-15.5 64.5q0 17 2.5 33t7.5 32q14 49 41 86.5t63.5 62t81.5 37t95 12.5q33 0 64.5 -5t57 -19.5t41 -39t15.5 -63.5zM257 -38h-147l746 798h147zM544 614q0 -35 -11 -71
q-14 -50 -41 -87t-63.5 -61.5t-81.5 -37t-95 -12.5q-33 0 -65 6.5t-56.5 21.5t-40 40.5t-15.5 64.5q0 17 2.5 33t7.5 32q14 49 40.5 86.5t63.5 62t81.5 37t94.5 12.5q33 0 65 -5t57.5 -19.5t41 -39t15.5 -63.5zM1386 244q0 43 -41 43q-26 0 -45.5 -19.5t-32 -46.5t-19 -56.5
t-6.5 -50.5q0 -43 41 -43q25 0 44.5 19.5t32.5 47t19.5 57t6.5 49.5zM873 244q0 43 -41 43q-26 0 -45.5 -19.5t-32 -46.5t-19 -56.5t-6.5 -50.5q0 -43 41 -43q25 0 44.5 19.5t32.5 47t19.5 57t6.5 49.5zM380 609q0 42 -40 42q-26 0 -45.5 -19t-32.5 -46t-19.5 -56.5
t-6.5 -50.5q0 -44 42 -44q25 0 44 19.5t32 47.5t19.5 57.5t6.5 49.5z" />
    <glyph glyph-name="minus" unicode="&#x2212;" horiz-adv-x="728" 
d="M52 192v155h614v-155h-614z" />
    <glyph glyph-name="plusminus" unicode="&#xb1;" horiz-adv-x="728" 
d="M52 0v155h614v-155h-614zM443 324v-139h-167v139h-224v155h224v145h167v-145h223v-155h-223z" />
    <glyph glyph-name="multiply" unicode="&#xd7;" horiz-adv-x="728" 
d="M526 0l-167 166l-169 -168l-107 107l169 169l-167 167l107 107l167 -167l168 169l108 -108l-169 -169l167 -166z" />
    <glyph glyph-name="divide" unicode="&#xf7;" horiz-adv-x="728" 
d="M52 192v155h614v-155h-614zM274 387v152h171v-152h-171zM274 0v152h171v-152h-171z" />
    <glyph glyph-name="notequal" unicode="&#x2260;" horiz-adv-x="728" 
d="M312 69l-97 -150l-120 75l49 75h-92v155h192l59 91h-251v155h352l104 159l119 -76l-54 -83h93v-155h-194l-59 -91h253v-155h-354z" />
    <glyph glyph-name="approxequal" unicode="&#x2248;" horiz-adv-x="728" 
d="M664 492q-1 -41 -11 -78t-29.5 -65.5t-49 -45.5t-69.5 -17q-41 0 -86 10.5t-89 23.5q-35 11 -66.5 17.5t-57.5 6.5t-38 -15t-15 -39h-99q1 41 11 78t29.5 65.5t49 45.5t69.5 17q41 0 86 -10.5t89 -23.5q35 -11 66.5 -17.5t57.5 -6.5t38 15t15 39h99zM664 249
q-1 -41 -11 -78t-29.5 -65.5t-49 -45.5t-69.5 -17q-41 0 -86 10.5t-89 23.5q-35 11 -66.5 17.5t-57.5 6.5t-38 -15t-15 -39h-99q1 41 11 78t29.5 65.5t49 45.5t69.5 17q41 0 86 -10.5t89 -23.5q35 -11 66.5 -17.5t57.5 -6.5t38 15t15 39h99z" />
    <glyph glyph-name="lessequal" unicode="&#x2264;" horiz-adv-x="728" 
d="M52 0v155h614v-155h-614zM52 334v155l614 158v-175l-369 -61l369 -60v-177z" />
    <glyph glyph-name="greaterequal" unicode="&#x2265;" horiz-adv-x="728" 
d="M52 0v155h614v-155h-614zM52 174v177l369 60l-369 61v175l614 -158v-155z" />
    <glyph glyph-name="logicalnot" unicode="&#xac;" horiz-adv-x="728" 
d="M499 104v211h-447v155h614v-366h-167z" />
    <glyph glyph-name="Delta" unicode="&#x2206;" horiz-adv-x="1000" 
d="M-107 0l574 722h263l182 -722h-1019zM561 504l-245 -334h308z" />
    <glyph glyph-name="uni0394" unicode="&#x394;" horiz-adv-x="1000" 
d="M-107 0l574 722h263l182 -722h-1019zM561 504l-245 -334h308z" />
    <glyph glyph-name="Omega" unicode="&#x2126;" horiz-adv-x="1012" 
d="M451 0l47 162q42 15 76 50t58 78.5t37.5 90t13.5 85.5q0 55 -29 85t-84 30q-72 0 -129 -51t-83 -144q-9 -31 -13 -57t-4 -48q0 -46 16 -74.5t45 -44.5l-47 -162h-427l47 162h161q-26 13 -44.5 32.5t-30 42t-17 46t-5.5 45.5q0 92 42 168t117 130.5t179 84.5t228 30
q94 0 167 -18.5t123 -53t76.5 -84.5t26.5 -112q0 -17 -4 -41.5t-12 -48.5q-24 -78 -74.5 -130.5t-124.5 -90.5h143l-47 -162h-428z" />
    <glyph glyph-name="uni03A9" unicode="&#x3a9;" horiz-adv-x="1012" 
d="M451 0l47 162q42 15 76 50t58 78.5t37.5 90t13.5 85.5q0 55 -29 85t-84 30q-72 0 -129 -51t-83 -144q-9 -31 -13 -57t-4 -48q0 -46 16 -74.5t45 -44.5l-47 -162h-427l47 162h161q-26 13 -44.5 32.5t-30 42t-17 46t-5.5 45.5q0 92 42 168t117 130.5t179 84.5t228 30
q94 0 167 -18.5t123 -53t76.5 -84.5t26.5 -112q0 -17 -4 -41.5t-12 -48.5q-24 -78 -74.5 -130.5t-124.5 -90.5h143l-47 -162h-428z" />
    <glyph glyph-name="mu" unicode="&#xb5;" horiz-adv-x="878" 
d="M756 127q-9 -31 -17.5 -63t-12.5 -64h-285l18 87q-30 -53 -58.5 -76.5t-65.5 -23.5q-32 0 -48.5 14t-24.5 42l-66 -235h-294l198 694h294l-77 -269q-4 -13 -6.5 -26t-2.5 -27q0 -57 57 -57q28 0 50 11t38 29t27 41.5t18 47.5l72 250h294z" />
    <glyph glyph-name="uni03BC" unicode="&#x3bc;" horiz-adv-x="880" 
d="M714 11q-34 -11 -77.5 -19.5t-78.5 -8.5q-72 0 -108.5 32.5t-36.5 86.5q0 16 2 32.5t7 35.5l44 155h-108l-93 -325h-265l93 325h-70l51 177h780l-51 -177h-80l-33 -116q-2 -7 -3 -13t-1 -11q0 -26 31 -26q11 0 21 2.5t21 6.5l-45 -157v0z" />
    <glyph glyph-name="pi" unicode="&#x3c0;" horiz-adv-x="880" 
d="M714 11q-34 -11 -77.5 -19.5t-78.5 -8.5q-72 0 -108.5 32.5t-36.5 86.5q0 16 2 32.5t7 35.5l44 155h-108l-93 -325h-265l93 325h-70l51 177h780l-51 -177h-80l-33 -116q-2 -7 -3 -13t-1 -11q0 -26 31 -26q11 0 21 2.5t21 6.5l-45 -157v0z" />
    <glyph glyph-name="degree" unicode="&#xb0;" horiz-adv-x="478" 
d="M499 535q0 -45 -16.5 -82t-45 -64t-67 -42t-83.5 -15t-84 15t-67.5 42t-44.5 64t-16 82t16 82t44.5 64t67.5 42t84 15t83.5 -15t67 -42t45 -64t16.5 -82zM362 535q0 35 -21 58t-54 23t-54 -23t-21 -58t21 -58t54 -23t54 23t21 58z" />
    <glyph glyph-name="afii61289" unicode="&#x2113;" horiz-adv-x="676" 
d="M659 586q0 -98 -90.5 -188.5t-271.5 -170.5q-3 -15 -3 -26q0 -27 13 -39.5t42 -12.5q32 0 67.5 18.5t71.5 50.5l74 -102q-65 -59 -134 -92.5t-152 -33.5q-82 0 -128 41t-52 108l-65 -28l-45 125l137 59l52 183q20 70 50.5 119t69.5 80.5t86.5 46t101.5 14.5
q44 0 77 -12.5t55 -33.5t33 -48.5t11 -57.5zM346 398q71 41 110 85t39 86q0 17 -9.5 28t-26.5 11q-23 0 -43 -18.5t-34 -67.5z" />
    <glyph glyph-name="estimated" unicode="&#x212e;" horiz-adv-x="600" 
d="M135 259v-181q59 -59 145 -59q63 0 109 28.5t84 91.5l35 -21q-23 -36 -46.5 -61.5t-51 -42t-59.5 -24t-71 -7.5q-59 0 -106.5 21.5t-81.5 59t-52 87.5t-18 108t18 108.5t52 87.5t81.5 58.5t106.5 21.5q58 0 105.5 -20.5t81.5 -57t53 -87t19 -111.5h-404zM426 295v145
q-63 60 -147 60t-144 -60v-145h291z" />
    <glyph glyph-name="eng" unicode="&#x14b;" horiz-adv-x="876" 
d="M818 378q0 -8 -1.5 -20t-3.5 -25.5t-5.5 -27t-6.5 -25.5l-79 -280q-16 -57 -43.5 -94t-67 -58.5t-93 -30.5t-122.5 -9q-73 0 -143 9l38 133q22 -3 44 -3q45 0 67 21t36 71l67 230q4 13 6.5 26t2.5 27q0 29 -16 41.5t-44 12.5q-27 0 -48 -11t-37 -29t-27 -40.5t-18 -45.5
l-72 -250h-294l114 394q8 27 14.5 55.5t11.5 52.5h289l-23 -90q48 49 111 79t149 30q36 0 71 -7.5t62 -24t44 -44t17 -67.5z" />
    <glyph glyph-name="Eng" unicode="&#x14a;" horiz-adv-x="1077" 
d="M912 43q-33 -115 -116.5 -175t-221.5 -60q-36 0 -77 2t-76 7l38 151q11 -2 27 -2.5t27 -0.5q71 0 89 35l-228 514l-147 -514h-257l207 722h380l173 -416l120 416h257z" />
    <glyph glyph-name="infinity" unicode="&#x221e;" horiz-adv-x="913" 
d="M235 472q25 0 48.5 -5.5t47.5 -17.5t50 -32t56 -49q55 54 103.5 79t107.5 25q45 0 84 -14t68 -40.5t46 -64t17 -83.5q0 -45 -17.5 -82.5t-47.5 -64.5t-71 -42t-88 -15q-51 0 -98.5 23.5t-104.5 79.5q-29 -28 -55.5 -47.5t-51.5 -32t-50 -18t-52 -5.5q-45 0 -84 13.5
t-68 39.5t-46 64t-17 87q0 45 17 82.5t47 64t71 41t88 14.5zM641 343q-11 0 -21.5 -3.5t-23.5 -12t-28.5 -23t-36.5 -35.5q39 -42 63.5 -58t47.5 -16q28 0 47 21t19 53t-18 53t-49 21zM235 195q21 0 44 15.5t63 57.5q-22 22 -38 37t-28 23t-22 11.5t-19 3.5
q-27 0 -47.5 -19.5t-20.5 -54.5q0 -37 20 -55.5t48 -18.5z" />
    <glyph glyph-name="partialdiff" unicode="&#x2202;" horiz-adv-x="720" 
d="M480 424q0 76 -37 106t-109 30q-42 0 -84.5 -8.5t-87.5 -30.5l-54 149q27 13 61.5 25.5t72 22t76.5 15t75 5.5q76 0 133 -20.5t94.5 -58t56 -89.5t18.5 -114q0 -104 -32 -191t-90 -150t-140 -98t-181 -35q-64 0 -111 16.5t-78 45t-46 67.5t-15 84q0 62 22 111.5t62 84
t95 53t120 18.5q61 0 102.5 -22.5t72.5 -58.5q2 12 3 22.5t1 20.5zM325 299q-49 0 -79 -23.5t-30 -62.5q0 -29 19.5 -44t51.5 -15q16 0 34.5 5t37.5 16t37 29.5t34 45.5q-21 23 -47.5 36t-57.5 13z" />
    <glyph glyph-name="integral" unicode="&#x222b;" horiz-adv-x="667" 
d="M453 91q0 -73 -19.5 -127.5t-54.5 -90.5t-84 -53.5t-107 -17.5q-10 0 -24.5 0.5t-29 2t-26.5 2.5t-16 3l16 156q8 -2 15 -3.5t18 -1.5q37 0 55 29t18 106v399q0 73 19.5 127.5t54.5 90.5t83.5 53.5t107.5 17.5q10 0 24.5 -0.5t29 -2t26 -3t16.5 -2.5l-16 -156
q-8 2 -15 3.5t-18 1.5q-37 0 -55 -29t-18 -106v-399z" />
    <glyph glyph-name="radical" unicode="&#x221a;" horiz-adv-x="867" 
d="M548 -211h-252l-153 301l-78 -38l-65 140l263 124l141 -299l229 759h234z" />
    <glyph glyph-name="summation" unicode="&#x2211;" horiz-adv-x="776" 
d="M30 -211v155l272 346l-260 330v156h702v-166h-390l245 -319l-266 -337h423v-165h-726z" />
    <glyph glyph-name="product" unicode="&#x220f;" horiz-adv-x="939" 
d="M592 -211v821h-245v-821h-277v987h799v-987h-277z" />
    <glyph glyph-name="lozenge" unicode="&#x25ca;" horiz-adv-x="725" 
d="M465 -30h-209l-240 391l243 392h208l242 -392zM362 572l-114 -211l114 -212l114 212z" />
    <glyph glyph-name="uniF8FF" unicode="&#xf8ff;" horiz-adv-x="512" 
d="M222 117v67h56v-67h-56zM223 234v17q0 27 3 46.5t10 35t18 29t28 29.5q16 16 26 28t15 22t7 19t2 20q0 36 -22.5 57.5t-53.5 21.5t-53.5 -22t-28.5 -73l-50 8q7 72 44 104.5t91 32.5q27 0 49.5 -9t39 -25t26 -39.5t9.5 -51.5q0 -17 -2.5 -32.5t-9.5 -30.5t-19.5 -30
t-31.5 -33q-16 -14 -25.5 -25t-15 -22t-7 -23.5t-1.5 -29.5v-24h-48zM462 50v617h-412v-617h412zM512 718v-718h-512v718h512z" />
    <glyph glyph-name="zero.prop" unicode="&#xe11e;" horiz-adv-x="830" 
d="M826 511q0 -54 -12.5 -113.5t-35 -116t-53 -106.5t-66.5 -84q-61 -59 -143 -84.5t-199 -25.5q-57 0 -113.5 9.5t-100.5 35t-71.5 69t-27.5 112.5q0 50 12 108t33.5 114.5t51.5 106.5t65 85q121 120 348 120q58 0 114 -10.5t100 -36.5t71 -70.5t27 -112.5zM545 537
q0 31 -11.5 51.5t-46.5 20.5q-36 0 -64 -28t-48 -67.5t-33.5 -81t-21.5 -68.5q-12 -42 -23 -88t-11 -91q0 -32 11.5 -52t46.5 -20q37 0 65 29t48 69.5t33.5 83t21.5 69.5q12 41 22.5 85.5t10.5 87.5z" />
    <glyph glyph-name="one.prop" unicode="&#xe11f;" horiz-adv-x="647" 
d="M452 0h-288l141 494q-56 -29 -113.5 -54.5t-117.5 -42.5l62 212q67 23 131 50.5t126 62.5h266z" />
    <glyph glyph-name="two.prop" unicode="&#xe120;" horiz-adv-x="830" 
d="M838 566q0 -51 -21.5 -93t-56.5 -77q-39 -38 -93.5 -73.5t-115 -67.5t-121.5 -59t-113 -46h411l-43 -150h-752l44 154q122 55 227.5 108.5t183.5 104.5t122.5 98t44.5 90q0 15 -6.5 25t-16.5 16t-23 8.5t-26 2.5q-54 0 -85.5 -33t-45.5 -82h-270q25 75 69 123.5t101 76
t124 38.5t138 11q51 0 108 -6.5t105 -25.5t79.5 -53.5t31.5 -89.5z" />
    <glyph glyph-name="three.prop" unicode="&#xe121;" horiz-adv-x="830" 
d="M836 582q0 -51 -18.5 -86.5t-50 -59.5t-73 -38t-87.5 -21q25 -3 51.5 -11t48.5 -23t36.5 -38t14.5 -56q0 -21 -6.5 -44t-17 -44.5t-24.5 -41t-29 -33.5q-35 -33 -80 -53.5t-94 -32t-99.5 -15.5t-96.5 -4q-30 0 -65.5 1t-72 6.5t-70.5 15.5t-60.5 28.5t-42.5 46t-16 66.5
q0 32 6 64h282q-3 -11 -5 -23t-2 -24q0 -35 21.5 -47t53.5 -12q30 0 54.5 11.5t42.5 31t28 45.5t10 55q0 22 -10 35.5t-26 20.5t-36 9.5t-41 2.5q-19 0 -34.5 -0.5t-33.5 -1.5l35 122q18 0 38.5 -0.5t36.5 -0.5q59 1 92 23.5t47 73.5l4 18t2 19q0 31 -20 41.5t-47 10.5
q-48 0 -77 -30t-41 -73h-270q22 70 67 114t103 69t124.5 33.5t131.5 8.5q25 0 58 -2t68 -8t69 -17t61 -28.5t43.5 -43t16.5 -60.5z" />
    <glyph glyph-name="four.prop" unicode="&#xe122;" horiz-adv-x="830" 
d="M684 276h118l-40 -140h-118l-39 -136h-276l39 136h-403l46 160l467 426h334zM184 276h228l82 287z" />
    <glyph glyph-name="five.prop" unicode="&#xe123;" horiz-adv-x="830" 
d="M818 574h-417l-66 -182q48 41 104 58.5t119 17.5q39 0 78.5 -8t70.5 -27t50.5 -51t19.5 -79q0 -20 -3.5 -39.5t-8.5 -38.5q-24 -81 -67.5 -129.5t-103.5 -74t-133.5 -33t-157.5 -7.5q-52 0 -107 6t-100.5 24t-75 50.5t-29.5 84.5q0 15 1 26.5t3 26.5h282q-5 -18 -5 -35
q0 -35 21 -48t52 -13q33 0 59 16.5t43.5 42.5t27 57.5t9.5 60.5q0 35 -19.5 48.5t-51.5 13.5q-31 0 -60.5 -17.5t-44.5 -44.5h-276l157 442h671z" />
    <glyph glyph-name="six.prop" unicode="&#xe124;" horiz-adv-x="830" 
d="M843 576q0 -8 -0.5 -19t-2.5 -20h-276q4 13 4 29q0 29 -18.5 41t-44.5 12q-42 0 -73 -24.5t-52.5 -61t-36 -77.5t-23.5 -74q52 45 110.5 64.5t133.5 19.5q42 0 82.5 -9.5t72.5 -29.5t52 -52.5t20 -78.5q0 -38 -11 -74.5t-31 -68.5t-47 -59t-60 -46q-66 -39 -146 -53
t-161 -14q-58 0 -114.5 10t-101 36t-72 71t-27.5 116q0 43 6.5 82t18.5 80q29 99 72 168.5t104 113t140.5 63.5t181.5 20q52 0 105.5 -6t96.5 -24t70.5 -50.5t27.5 -84.5zM508 269q0 37 -22 54t-57 17q-33 0 -59.5 -15t-45.5 -39t-29.5 -54.5t-10.5 -60.5q0 -37 21 -53.5
t56 -16.5q32 0 59 15t46.5 39t30.5 54t11 60z" />
    <glyph glyph-name="seven.prop" unicode="&#xe125;" horiz-adv-x="742" 
d="M795 554l-452 -554h-341l489 554h-421l48 168h725z" />
    <glyph glyph-name="eight.prop" unicode="&#xe126;" horiz-adv-x="830" 
d="M843 575q0 -51 -22 -87t-57.5 -60t-79.5 -36.5t-88 -16.5q28 -5 60 -14.5t59.5 -26.5t45.5 -42t18 -60q0 -54 -22.5 -93.5t-59.5 -67.5t-84.5 -45.5t-97.5 -27.5t-99 -13.5t-89 -3.5q-27 0 -63.5 1.5t-75.5 7.5t-77 17t-68 29.5t-48.5 46t-18.5 65.5q0 58 26.5 99
t68.5 68t93 41t100 19q-26 2 -53.5 11t-50.5 25t-37.5 40t-14.5 56q0 49 20.5 85t54 62t77 43t89.5 26.5t91.5 13.5t83.5 4q48 0 103.5 -6.5t103.5 -24.5t80 -50.5t32 -84.5zM573 552q0 33 -22.5 48t-52.5 15q-25 0 -48 -10t-40.5 -27.5t-28 -40.5t-10.5 -48q0 -34 23 -45.5
t52 -11.5q25 0 48.5 9t40.5 25t27.5 38t10.5 48zM500 243q0 38 -27 54t-61 16q-28 0 -54.5 -10.5t-46.5 -28.5t-32.5 -43t-12.5 -54q0 -39 26 -54t61 -15q28 0 54.5 10t47 28t33 42.5t12.5 54.5z" />
    <glyph glyph-name="nine.prop" unicode="&#xe127;" horiz-adv-x="830" 
d="M824 506q0 -41 -7.5 -81t-18.5 -78q-29 -99 -69.5 -169t-99 -113.5t-139.5 -63.5t-190 -20q-49 0 -102 6t-97 24t-72.5 50t-28.5 85q0 22 3 39h276q-2 -8 -3.5 -14.5t-1.5 -14.5q0 -29 19 -41t45 -12q42 0 73 24.5t52.5 61t36 77.5t23.5 74q-58 -48 -119.5 -66.5
t-127.5 -18.5q-39 0 -79 10t-72.5 31t-52.5 54t-20 78q0 64 20.5 112t55.5 82.5t81 57.5t97.5 36.5t105 19t102.5 5.5q59 0 115 -10.5t99.5 -37t69.5 -72t26 -115.5zM559 551q0 37 -21 53.5t-56 16.5q-32 0 -59 -15t-46.5 -39t-30.5 -54t-11 -60q0 -37 22 -54t57 -17
q33 0 59.5 15t45.5 39t29.5 54.5t10.5 60.5z" />
    <glyph glyph-name="Euro.prop" unicode="&#xe089;" horiz-adv-x="830" 
d="M416 188q0 -38 33 -54.5t88 -16.5q45 0 80.5 14t70.5 37v-149q-13 -5 -35 -11.5t-49 -12.5t-56.5 -10t-56.5 -4q-86 0 -152.5 11.5t-112 37.5t-69 68t-23.5 104v20h-130l68 116h80q2 8 3.5 15.5t3.5 15.5q3 15 7 26h-102l68 116h84l2 2q36 65 78 109t96 70.5t124.5 37.5
t164.5 11q72 0 123 -16.5t75 -32.5l-75 -126q-16 14 -52.5 26.5t-93.5 12.5q-60 0 -96.5 -23.5t-57.5 -68.5l-1 -2h268l-68 -116h-244l-8 -27l-9 -30h226l-68 -116h-182q-1 -10 -1.5 -18.5t-0.5 -15.5z" />
    <glyph glyph-name="cent.prop" unicode="&#xe32b;" horiz-adv-x="830" 
d="M449 397h-9q-38 1 -66 -22.5t-47.5 -58t-29 -74t-9.5 -70.5q0 -14 2 -24zM599 512q39 -7 75.5 -19.5t64.5 -32t44.5 -47.5t16.5 -66q0 -13 -0.5 -21t-2.5 -19h-284q2 8 3 17t1 18q0 18 -6 30l-167 -266q7 -1 12.5 -1h10.5q46 0 73.5 25t40.5 67h288q-21 -66 -66 -108
t-104 -66t-126.5 -33t-134.5 -9q-35 0 -71 3l-70 -108h-81l76 119q-38 8 -73 23t-61 37.5t-41.5 54t-15.5 73.5q0 63 28 122.5t73 101.5q37 35 80 57t90.5 35t98.5 17.5t105 4.5q12 0 27.5 -0.5t23.5 -1.5l62 97h76z" />
    <glyph glyph-name="dollar.prop" unicode="&#xe32c;" horiz-adv-x="830" 
d="M854 559q0 -29 -6 -57h-264q3 10 5 19.5t2 19.5q0 27 -19 38.5t-43 14.5l-43 -148q66 -14 123 -29.5t99 -37t66.5 -52t24.5 -73.5q0 -14 -2.5 -27t-6.5 -27q-19 -68 -64 -110t-105 -66t-129.5 -33t-137.5 -10l-31 -107h-86l31 107q-29 0 -63 1.5t-68.5 6.5t-66.5 15.5
t-57 28t-40 44t-15 63.5q0 20 3.5 39t8.5 38h276q-6 -23 -6 -46q0 -35 19 -47.5t45 -14.5l47 164q-75 18 -130.5 35t-92.5 38t-55.5 47.5t-18.5 64.5q0 15 2.5 30t6.5 29q18 64 63.5 103t104 60.5t124 29.5t124.5 11l25 88h86l-25 -88q53 -2 104.5 -8.5t92.5 -24t66.5 -48
t25.5 -81.5zM442 593q-17 -2 -33.5 -6.5t-29.5 -13.5t-21 -23t-8 -35q0 -16 15.5 -26.5t41.5 -20.5zM501 193q0 20 -19 35t-51 24l-41 -142q19 1 39 6t36 14.5t26 24.5t10 38z" />
    <glyph glyph-name="sterling.prop" unicode="&#xe32e;" horiz-adv-x="830" 
d="M890 576q0 -28 -8 -60h-252q1 5 1 8.5v8.5q0 37 -19 52.5t-54 15.5t-58.5 -10.5t-40 -28.5t-27 -42.5t-18.5 -52.5l-6 -22h226l-46 -158h-226l-37 -129h429l-45 -158h-761l45 158h68l37 129h-82l46 158h82l6 21q10 33 21 65t31 61q31 47 75 76.5t94 45.5t104 21.5
t106 5.5q28 0 62 -1.5t68.5 -7.5t66.5 -17t57 -29t40 -45t15 -65z" />
    <glyph glyph-name="florin.prop" unicode="&#xe32d;" horiz-adv-x="715" 
d="M725 587q-15 3 -30 5.5t-31 2.5q-25 0 -44 -7t-33 -19t-24 -28t-17 -35l-20 -49h141l-64 -128h-134l-128 -300q-27 -64 -58 -109.5t-71 -74.5t-92.5 -42.5t-123.5 -13.5q-45 0 -91.5 5.5t-90.5 18.5l60 126q20 -4 45 -4q34 0 57.5 11t40.5 30t29 44t24 53l111 256h-128
l61 128h124l26 60q24 55 47 96.5t56 70t81.5 43t122.5 14.5q55 0 109.5 -4.5t108.5 -14.5z" />
    <glyph glyph-name="yen.prop" unicode="&#xe32f;" horiz-adv-x="830" 
d="M643 393h112l-33 -116h-186l-20 -21l-10 -36h199l-33 -116h-199l-30 -104h-252l30 104h-199l33 116h199l10 36l-7 21h-185l33 116h111l-114 329h289l40 -298l217 298h294z" />
    <glyph glyph-name="zero.inferior" unicode="&#x2080;" 
d="M236 47q8 29 12.5 50.5t4.5 36.5q0 38 -32 38q-30 0 -50.5 -34t-37.5 -91q-9 -32 -13 -53.5t-4 -36.5q0 -23 8.5 -30.5t23.5 -7.5q27 0 47.5 30t40.5 98zM121 -177q-56 0 -96 10.5t-65 30t-36.5 46.5t-11.5 60q0 19 5.5 48t18.5 61q19 48 45 83.5t62.5 59t86.5 35
t118 11.5q56 0 96 -10.5t65 -30t36.5 -46.5t11.5 -60q0 -19 -5.5 -48t-18.5 -61q-19 -48 -45 -83.5t-62.5 -59t-87 -35t-117.5 -11.5z" />
    <glyph glyph-name="one.inferior" unicode="&#x2081;" 
d="M274 -169h-210l78 272q-36 -20 -72 -34t-76 -23l42 146q43 14 84.5 30.5t81.5 37.5h195z" />
    <glyph glyph-name="two.inferior" unicode="&#x2082;" 
d="M475 169q0 -41 -27.5 -74.5t-72.5 -62t-103.5 -51.5t-120.5 -42l-1 -2h255l-30 -106h-501l30 106l190 81q49 21 81 38t51 31.5t26 27.5t7 26q0 17 -11.5 24t-26.5 7q-29 0 -48 -17.5t-27 -44.5h-192q18 55 49 86.5t71 47.5t87.5 20t98.5 4q45 0 84 -5t68 -16.5t46 -30.5
t17 -47z" />
    <glyph glyph-name="three.inferior" unicode="&#x2083;" 
d="M478 179q0 -31 -13 -53t-33.5 -37t-46.5 -23.5t-52 -12.5l-1 -2q16 -2 33.5 -5.5t32.5 -11.5t25 -21t10 -33q0 -42 -25.5 -71.5t-68 -48.5t-98 -28t-116.5 -9q-101 0 -155.5 21.5t-54.5 83.5q0 19 5 41h204q-1 -5 -1.5 -10t-0.5 -10q0 -19 11 -27.5t29 -8.5q26 0 46 16.5
t20 42.5q0 18 -16.5 25.5t-48.5 7.5h-46l26 90h45q32 0 56 13.5t24 40.5q0 16 -10.5 22.5t-24.5 6.5q-26 0 -41 -14t-21 -36h-198q12 44 37.5 71.5t62.5 42.5t85.5 20.5t108.5 5.5q104 0 157.5 -20.5t53.5 -68.5z" />
    <glyph glyph-name="four.inferior" unicode="&#x2084;" 
d="M373 1h72l-28 -96h-72l-21 -74h-204l21 74h-252l34 118l286 237h238zM48 1h121l39 137z" />
    <glyph glyph-name="five.inferior" unicode="&#x2085;" 
d="M439 19q0 -48 -22 -84.5t-63 -61t-98.5 -37.5t-129.5 -13q-57 0 -100 7t-70.5 23t-38 41.5t-2.5 62.5h204q-8 -44 38 -44q32 0 53 23t21 54q0 35 -42 35q-13 0 -27 -5.5t-27 -17.5h-201l95 258h455l-30 -106h-274l-27 -71q20 13 55 23t76 10q155 0 155 -97z" />
    <glyph glyph-name="six.inferior" unicode="&#x2086;" 
d="M437 16q0 -47 -23 -82.5t-64 -60.5t-97.5 -37.5t-123.5 -12.5q-101 0 -157 30t-56 107q0 36 14 87q34 117 118.5 169t221.5 52q94 0 144 -25.5t50 -80.5q0 -5 -0.5 -10.5t-1.5 -11.5h-200q2 17 -5.5 27.5t-27.5 10.5q-32 0 -54 -25t-39 -73q29 17 63.5 26.5t84.5 9.5
q32 0 60 -6t48.5 -18t32.5 -31t12 -45zM157 -87q35 0 54.5 23t19.5 52q0 19 -12.5 26.5t-30.5 7.5q-32 0 -54 -21.5t-22 -52.5q0 -18 12 -26.5t33 -8.5z" />
    <glyph glyph-name="seven.inferior" unicode="&#x2087;" 
d="M177 -169h-245l306 312h-267l33 117h491l-31 -109z" />
    <glyph glyph-name="eight.inferior" unicode="&#x2088;" 
d="M429 -19q0 -35 -20.5 -64t-59.5 -50t-96.5 -32.5t-130.5 -11.5q-51 0 -93.5 5t-73.5 16.5t-48 30.5t-17 47t11.5 50t30.5 38.5t44 27t52 15.5q-62 17 -62 64q0 33 20.5 60.5t58 48t90 31.5t115.5 11q41 0 79 -5.5t67.5 -17.5t47.5 -31t18 -46q0 -46 -31.5 -75.5
t-85.5 -40.5q84 -18 84 -71zM200 94q27 0 47.5 14t20.5 38q0 31 -44 31q-11 0 -23 -3.5t-22 -10.5t-16.5 -17t-6.5 -23q0 -29 44 -29zM149 -85q32 0 55.5 16.5t23.5 42.5q0 17 -14.5 26t-37.5 9q-15 0 -29.5 -4.5t-25.5 -12.5t-18 -19t-7 -24q0 -34 53 -34z" />
    <glyph glyph-name="nine.inferior" unicode="&#x2089;" 
d="M452 44q-34 -117 -119 -169t-221 -52q-88 0 -140.5 24.5t-52.5 81.5q0 5 0.5 11t1.5 12h200q-5 -38 32 -38q32 0 54 24.5t39 72.5q-29 -17 -63.5 -26t-83.5 -9q-68 0 -111 24t-43 77q0 44 22.5 79.5t63 60t97 38t124.5 13.5q49 0 89 -7t67.5 -23.5t42.5 -43.5t15 -66
q0 -34 -14 -84zM194 69q30 0 53 21t23 55t-44 34q-33 0 -54.5 -22t-21.5 -53q0 -20 13 -27.5t31 -7.5z" />
    <glyph glyph-name="zero.superior" unicode="&#x2070;" 
d="M414 680q8 29 12.5 50.5t4.5 36.5q0 38 -32 38q-30 0 -50.5 -34t-37.5 -91q-9 -32 -13 -53.5t-4 -36.5q0 -23 8.5 -30.5t23.5 -7.5q27 0 47.5 30t40.5 98zM299 456q-56 0 -96 10.5t-65 30t-36.5 46.5t-11.5 60q0 19 5.5 48t18.5 61q19 48 45 83.5t62.5 59t86.5 35
t118 11.5q56 0 96 -10.5t65 -30t36.5 -46.5t11.5 -60q0 -19 -5.5 -48t-18.5 -61q-19 -48 -45 -83.5t-62.5 -59t-87 -35t-117.5 -11.5z" />
    <glyph glyph-name="four.superior" unicode="&#x2074;" 
d="M543 634h72l-28 -96h-72l-21 -74h-204l21 74h-252l34 118l286 237h238zM218 634h121l39 137z" />
    <glyph glyph-name="five.superior" unicode="&#x2075;" 
d="M599 652q0 -48 -22 -84.5t-63 -61t-98.5 -37.5t-129.5 -13q-57 0 -100 7t-70.5 23t-38 41.5t-2.5 62.5h204q-8 -44 38 -44q32 0 53 23t21 54q0 35 -42 35q-13 0 -27 -5.5t-27 -17.5h-201l95 258h455l-30 -106h-274l-27 -71q20 13 55 23t76 10q155 0 155 -97z" />
    <glyph glyph-name="six.superior" unicode="&#x2076;" 
d="M605 649q0 -47 -23 -82.5t-64 -60.5t-97.5 -37.5t-123.5 -12.5q-101 0 -157 30t-56 107q0 36 14 87q34 117 118.5 169t221.5 52q94 0 144 -25.5t50 -80.5q0 -5 -0.5 -10.5t-1.5 -11.5h-200q2 17 -5.5 27.5t-27.5 10.5q-32 0 -54 -25t-39 -73q29 17 63.5 26.5t84.5 9.5
q32 0 60 -6t48.5 -18t32.5 -31t12 -45zM325 546q35 0 54.5 23t19.5 52q0 19 -12.5 26.5t-30.5 7.5q-32 0 -54 -21.5t-22 -52.5q0 -18 12 -26.5t33 -8.5z" />
    <glyph glyph-name="seven.superior" unicode="&#x2077;" 
d="M337 464h-245l306 312h-267l33 117h491l-31 -109z" />
    <glyph glyph-name="eight.superior" unicode="&#x2078;" 
d="M604 614q0 -35 -20.5 -64t-59.5 -50t-96.5 -32.5t-130.5 -11.5q-51 0 -93.5 5t-73.5 16.5t-48 30.5t-17 47t11.5 50t30.5 38.5t44 27t52 15.5q-62 17 -62 64q0 33 20.5 60.5t58 48t90 31.5t115.5 11q41 0 79 -5.5t67.5 -17.5t47.5 -31t18 -46q0 -46 -31.5 -75.5
t-85.5 -40.5q84 -18 84 -71zM375 727q27 0 47.5 14t20.5 38q0 31 -44 31q-11 0 -23 -3.5t-22 -10.5t-16.5 -17t-6.5 -23q0 -29 44 -29zM324 548q32 0 55.5 16.5t23.5 42.5q0 17 -14.5 26t-37.5 9q-15 0 -29.5 -4.5t-25.5 -12.5t-18 -19t-7 -24q0 -34 53 -34z" />
    <glyph glyph-name="nine.superior" unicode="&#x2079;" 
d="M612 677q-34 -117 -119 -169t-221 -52q-88 0 -140.5 24.5t-52.5 81.5q0 5 0.5 11t1.5 12h200q-5 -38 32 -38q32 0 54 24.5t39 72.5q-29 -17 -63.5 -26t-83.5 -9q-68 0 -111 24t-43 77q0 44 22.5 79.5t63 60t97 38t124.5 13.5q49 0 89 -7t67.5 -23.5t42.5 -43.5t15 -66
q0 -34 -14 -84zM354 702q30 0 53 21t23 55t-44 34q-33 0 -54.5 -22t-21.5 -53q0 -20 13 -27.5t31 -7.5z" />
    <glyph glyph-name="zero.numerator" 
d="M367 509q8 29 12.5 50.5t4.5 36.5q0 38 -32 38q-30 0 -50.5 -34t-37.5 -91q-9 -32 -13 -53.5t-4 -36.5q0 -23 8.5 -30.5t23.5 -7.5q27 0 47.5 30t40.5 98zM252 285q-56 0 -96 10.5t-65 30t-36.5 46.5t-11.5 60q0 19 5.5 48t18.5 61q19 48 45 83.5t62.5 59t86.5 35
t118 11.5q56 0 96 -10.5t65 -30t36.5 -46.5t11.5 -60q0 -19 -5.5 -48t-18.5 -61q-19 -48 -45 -83.5t-62.5 -59t-87 -35t-117.5 -11.5z" />
    <glyph glyph-name="one.numerator" 
d="M374 293h-210l78 272q-36 -20 -72 -34t-76 -23l42 146q43 14 84.5 30.5t81.5 37.5h195z" />
    <glyph glyph-name="two.numerator" 
d="M604 631q0 -41 -27.5 -74.5t-72.5 -62t-103.5 -51.5t-120.5 -42l-1 -2h255l-30 -106h-501l30 106l190 81q49 21 81 38t51 31.5t26 27.5t7 26q0 17 -11.5 24t-26.5 7q-29 0 -48 -17.5t-27 -44.5h-192q18 55 49 86.5t71 47.5t87.5 20t98.5 4q45 0 84 -5t68 -16.5t46 -30.5
t17 -47z" />
    <glyph glyph-name="three.numerator" 
d="M593 641q0 -31 -13 -53t-33.5 -37t-46.5 -23.5t-52 -12.5l-1 -2q16 -2 33.5 -5.5t32.5 -11.5t25 -21t10 -33q0 -42 -25.5 -71.5t-68 -48.5t-98 -28t-116.5 -9q-101 0 -155.5 21.5t-54.5 83.5q0 19 5 41h204q-1 -5 -1.5 -10t-0.5 -10q0 -19 11 -27.5t29 -8.5q26 0 46 16.5
t20 42.5q0 18 -16.5 25.5t-48.5 7.5h-46l26 90h45q32 0 56 13.5t24 40.5q0 16 -10.5 22.5t-24.5 6.5q-26 0 -41 -14t-21 -36h-198q12 44 37.5 71.5t62.5 42.5t85.5 20.5t108.5 5.5q104 0 157.5 -20.5t53.5 -68.5z" />
    <glyph glyph-name="four.numerator" 
d="M498 463h72l-28 -96h-72l-21 -74h-204l21 74h-252l34 118l286 237h238zM173 463h121l39 137z" />
    <glyph glyph-name="five.numerator" 
d="M559 481q0 -48 -22 -84.5t-63 -61t-98.5 -37.5t-129.5 -13q-57 0 -100 7t-70.5 23t-38 41.5t-2.5 62.5h204q-8 -44 38 -44q32 0 53 23t21 54q0 35 -42 35q-13 0 -27 -5.5t-27 -17.5h-201l95 258h455l-30 -106h-274l-27 -71q20 13 55 23t76 10q155 0 155 -97z" />
    <glyph glyph-name="six.numerator" 
d="M557 478q0 -47 -23 -82.5t-64 -60.5t-97.5 -37.5t-123.5 -12.5q-101 0 -157 30t-56 107q0 36 14 87q34 117 118.5 169t221.5 52q94 0 144 -25.5t50 -80.5q0 -5 -0.5 -10.5t-1.5 -11.5h-200q2 17 -5.5 27.5t-27.5 10.5q-32 0 -54 -25t-39 -73q29 17 63.5 26.5t84.5 9.5
q32 0 60 -6t48.5 -18t32.5 -31t12 -45zM277 375q35 0 54.5 23t19.5 52q0 19 -12.5 26.5t-30.5 7.5q-32 0 -54 -21.5t-22 -52.5q0 -18 12 -26.5t33 -8.5z" />
    <glyph glyph-name="seven.numerator" 
d="M302 293h-245l306 312h-267l33 117h491l-31 -109z" />
    <glyph glyph-name="eight.numerator" 
d="M558 443q0 -35 -20.5 -64t-59.5 -50t-96.5 -32.5t-130.5 -11.5q-51 0 -93.5 5t-73.5 16.5t-48 30.5t-17 47t11.5 50t30.5 38.5t44 27t52 15.5q-62 17 -62 64q0 33 20.5 60.5t58 48t90 31.5t115.5 11q41 0 79 -5.5t67.5 -17.5t47.5 -31t18 -46q0 -46 -31.5 -75.5
t-85.5 -40.5q84 -18 84 -71zM329 556q27 0 47.5 14t20.5 38q0 31 -44 31q-11 0 -23 -3.5t-22 -10.5t-16.5 -17t-6.5 -23q0 -29 44 -29zM278 377q32 0 55.5 16.5t23.5 42.5q0 17 -14.5 26t-37.5 9q-15 0 -29.5 -4.5t-25.5 -12.5t-18 -19t-7 -24q0 -34 53 -34z" />
    <glyph glyph-name="nine.numerator" 
d="M567 506q-34 -117 -119 -169t-221 -52q-88 0 -140.5 24.5t-52.5 81.5q0 5 0.5 11t1.5 12h200q-5 -38 32 -38q32 0 54 24.5t39 72.5q-29 -17 -63.5 -26t-83.5 -9q-68 0 -111 24t-43 77q0 44 22.5 79.5t63 60t97 38t124.5 13.5q49 0 89 -7t67.5 -23.5t42.5 -43.5t15 -66
q0 -34 -14 -84zM309 531q30 0 53 21t23 55t-44 34q-33 0 -54.5 -22t-21.5 -53q0 -20 13 -27.5t31 -7.5z" />
    <glyph glyph-name="zero.denominator" unicode="&#xe14f;" 
d="M282 216q8 29 12.5 50.5t4.5 36.5q0 38 -32 38q-30 0 -50.5 -34t-37.5 -91q-9 -32 -13 -53.5t-4 -36.5q0 -23 8.5 -30.5t23.5 -7.5q27 0 47.5 30t40.5 98zM167 -8q-56 0 -96 10.5t-65 30t-36.5 46.5t-11.5 60q0 19 5.5 48t18.5 61q19 48 45 83.5t62.5 59t86.5 35
t118 11.5q56 0 96 -10.5t65 -30t36.5 -46.5t11.5 -60q0 -19 -5.5 -48t-18.5 -61q-19 -48 -45 -83.5t-62.5 -59t-87 -35t-117.5 -11.5z" />
    <glyph glyph-name="one.denominator" unicode="&#xe146;" 
d="M314 0h-210l78 272q-36 -20 -72 -34t-76 -23l42 146q43 14 84.5 30.5t81.5 37.5h195z" />
    <glyph glyph-name="two.denominator" unicode="&#xe147;" 
d="M522 338q0 -41 -27.5 -74.5t-72.5 -62t-103.5 -51.5t-120.5 -42l-1 -2h255l-30 -106h-501l30 106l190 81q49 21 81 38t51 31.5t26 27.5t7 26q0 17 -11.5 24t-26.5 7q-29 0 -48 -17.5t-27 -44.5h-192q18 55 49 86.5t71 47.5t87.5 20t98.5 4q45 0 84 -5t68 -16.5t46 -30.5
t17 -47z" />
    <glyph glyph-name="three.denominator" unicode="&#xe148;" 
d="M514 348q0 -31 -13 -53t-33.5 -37t-46.5 -23.5t-52 -12.5l-1 -2q16 -2 33.5 -5.5t32.5 -11.5t25 -21t10 -33q0 -42 -25.5 -71.5t-68 -48.5t-98 -28t-116.5 -9q-101 0 -155.5 21.5t-54.5 83.5q0 19 5 41h204q-1 -5 -1.5 -10t-0.5 -10q0 -19 11 -27.5t29 -8.5q26 0 46 16.5
t20 42.5q0 18 -16.5 25.5t-48.5 7.5h-46l26 90h45q32 0 56 13.5t24 40.5q0 16 -10.5 22.5t-24.5 6.5q-26 0 -41 -14t-21 -36h-198q12 44 37.5 71.5t62.5 42.5t85.5 20.5t108.5 5.5q104 0 157.5 -20.5t53.5 -68.5z" />
    <glyph glyph-name="four.denominator" unicode="&#xe149;" 
d="M410 170h72l-28 -96h-72l-21 -74h-204l21 74h-252l34 118l286 237h238zM85 170h121l39 137z" />
    <glyph glyph-name="five.denominator" unicode="&#xe14a;" 
d="M467 188q0 -48 -22 -84.5t-63 -61t-98.5 -37.5t-129.5 -13q-57 0 -100 7t-70.5 23t-38 41.5t-2.5 62.5h204q-8 -44 38 -44q32 0 53 23t21 54q0 35 -42 35q-13 0 -27 -5.5t-27 -17.5h-201l95 258h455l-30 -106h-274l-27 -71q20 13 55 23t76 10q155 0 155 -97z" />
    <glyph glyph-name="six.denominator" unicode="&#xe14b;" 
d="M475 185q0 -47 -23 -82.5t-64 -60.5t-97.5 -37.5t-123.5 -12.5q-101 0 -157 30t-56 107q0 36 14 87q34 117 118.5 169t221.5 52q94 0 144 -25.5t50 -80.5q0 -5 -0.5 -10.5t-1.5 -11.5h-200q2 17 -5.5 27.5t-27.5 10.5q-32 0 -54 -25t-39 -73q29 17 63.5 26.5t84.5 9.5
q32 0 60 -6t48.5 -18t32.5 -31t12 -45zM195 82q35 0 54.5 23t19.5 52q0 19 -12.5 26.5t-30.5 7.5q-32 0 -54 -21.5t-22 -52.5q0 -18 12 -26.5t33 -8.5z" />
    <glyph glyph-name="seven.denominator" unicode="&#xe14c;" 
d="M215 0h-245l306 312h-267l33 117h491l-31 -109z" />
    <glyph glyph-name="eight.denominator" unicode="&#xe14d;" 
d="M469 150q0 -35 -20.5 -64t-59.5 -50t-96.5 -32.5t-130.5 -11.5q-51 0 -93.5 5t-73.5 16.5t-48 30.5t-17 47t11.5 50t30.5 38.5t44 27t52 15.5q-62 17 -62 64q0 33 20.5 60.5t58 48t90 31.5t115.5 11q41 0 79 -5.5t67.5 -17.5t47.5 -31t18 -46q0 -46 -31.5 -75.5
t-85.5 -40.5q84 -18 84 -71zM240 263q27 0 47.5 14t20.5 38q0 31 -44 31q-11 0 -23 -3.5t-22 -10.5t-16.5 -17t-6.5 -23q0 -29 44 -29zM189 84q32 0 55.5 16.5t23.5 42.5q0 17 -14.5 26t-37.5 9q-15 0 -29.5 -4.5t-25.5 -12.5t-18 -19t-7 -24q0 -34 53 -34z" />
    <glyph glyph-name="nine.denominator" unicode="&#xe14e;" 
d="M488 213q-34 -117 -119 -169t-221 -52q-88 0 -140.5 24.5t-52.5 81.5q0 5 0.5 11t1.5 12h200q-5 -38 32 -38q32 0 54 24.5t39 72.5q-29 -17 -63.5 -26t-83.5 -9q-68 0 -111 24t-43 77q0 44 22.5 79.5t63 60t97 38t124.5 13.5q49 0 89 -7t67.5 -23.5t42.5 -43.5t15 -66
q0 -34 -14 -84zM230 238q30 0 53 21t23 55t-44 34q-33 0 -54.5 -22t-21.5 -53q0 -20 13 -27.5t31 -7.5z" />
    </font>
</defs>
</svg>
