<?xml version="1.0" standalone="no"?>
<!DOCTYPE svg PUBLIC "-//W3C//DTD SVG 1.1//EN" "http://www.w3.org/Graphics/SVG/1.1/DTD/svg11.dtd" >
<svg xmlns="http://www.w3.org/2000/svg" xmlns:xlink="http://www.w3.org/1999/xlink" version="1.1">
<metadata>
Created by FontForge 20201107 at Tue Feb  9 14:01:50 2010
 By Jimmy Wärting
Copyright (c) 2010 Linotype GmbH, www.linotype.com. All rights reserved. This font software may not be reproduced, modified, disclosed or transferred without the express written approval of Linotype GmbH. Univers is a trademark of Linotype Corp. registered in the U.S. Patent and Trademark Office and may be registered in certain other jurisdictions in the name of Linotype Corp. or its licensee Linotype GmbH. This typeface is original artwork of Adrian Frutiger and Linotype Design Studio. The design may be protected in certain jurisdictions.
</metadata>
<defs>
<font id="UniversNextPro-MediumExt" horiz-adv-x="746" >
  <font-face 
    font-family="Univers Next Pro Medium Ext"
    font-weight="500"
    font-stretch="expanded"
    units-per-em="1000"
    panose-1="2 11 6 5 3 2 2 2 2 3"
    ascent="750"
    descent="-250"
    x-height="502"
    cap-height="722"
    bbox="-215 -213 1294 949"
    underline-thickness="50"
    underline-position="-100"
    unicode-range="U+000D-FB04"
  />
<missing-glyph horiz-adv-x="512" 
d="M222 117v67h56v-67h-56zM223 234v17q0 27 3 46.5t10 35t18 29t28 29.5q16 16 26 28t15 22t7 19t2 20q0 36 -22.5 57.5t-53.5 21.5t-53.5 -22t-28.5 -73l-50 8q7 72 44 104.5t91 32.5q27 0 49.5 -9t39 -25t26 -39.5t9.5 -51.5q0 -17 -2.5 -32.5t-9.5 -30.5t-19.5 -30
t-31.5 -33q-16 -14 -25.5 -25t-15 -22t-7 -23.5t-1.5 -29.5v-24h-48zM462 50v617h-412v-617h412zM512 718v-718h-512v718h512z" />
    <glyph glyph-name="IJ" unicode="IJ" horiz-adv-x="1055" 
d="M98 0v722h140v-722h-140zM963 267q0 -78 -22 -132.5t-62.5 -88.5t-98.5 -49.5t-131 -15.5q-64 0 -117.5 14t-92 43t-60 73t-21.5 104v5h143q2 -72 43 -104t111 -32q39 0 70 10t52.5 32.5t33.5 58.5t12 87v450h140v-455v0z" />
    <glyph glyph-name="ij" unicode="ij" horiz-adv-x="596" 
d="M81 608v114h136v-114h-136zM84 0v502h130v-502h-130zM379 608v114h136v-114h-136zM512 -20q0 -47 -10.5 -80.5t-33 -54.5t-58 -31t-85.5 -10q-26 0 -46.5 1t-29.5 3v87q8 -1 20.5 -1.5t20.5 -0.5q28 0 45.5 4t28 17t14.5 37t4 62v489h130v-522z" />
    <glyph glyph-name="napostrophe" unicode="&#x22;n" horiz-adv-x="757" 
d="M543 0v274q0 81 -39.5 120.5t-108.5 39.5q-37 0 -70 -11.5t-57.5 -36t-39 -62.5t-14.5 -92v-232h-130v392q0 27 -1 54t-3 56h124l5 -90q9 11 25 29.5t41.5 36t62.5 30.5t89 13q117 0 181.5 -59t64.5 -177v-285h-130zM12 477h-98l43 245h132z" />
    <glyph glyph-name="f_f" unicode="ff" horiz-adv-x="886" 
d="M445 638q-12 2 -28 4t-33 2q-58 0 -84 -23.5t-26 -83.5v-35h158v-86h-158v-416h-130v416h-126v86h126v25q0 51 11 89t36 62.5t65 37t99 12.5q20 0 45 -1.5t45 -4.5v-84v0zM888 638q-12 2 -28 4t-33 2q-58 0 -84 -23.5t-26 -83.5v-35h158v-86h-158v-416h-130v416h-126v86
h126v25q0 51 11 89t36 62.5t65 37t99 12.5q20 0 45 -1.5t45 -4.5v-84v0z" />
    <glyph glyph-name="fi" unicode="fi" horiz-adv-x="736" 
d="M445 638q-12 2 -28 4t-33 2q-58 0 -84 -23.5t-26 -83.5v-35h158v-86h-158v-416h-130v416h-126v86h126v25q0 51 11 89t36 62.5t65 37t99 12.5q20 0 45 -1.5t45 -4.5v-84v0zM519 608v114h136v-114h-136zM522 0v502h130v-502h-130z" />
    <glyph glyph-name="fl" unicode="fl" horiz-adv-x="736" 
d="M445 638q-12 2 -28 4t-33 2q-58 0 -84 -23.5t-26 -83.5v-35h158v-86h-158v-416h-130v416h-126v86h126v25q0 51 11 89t36 62.5t65 37t99 12.5q20 0 45 -1.5t45 -4.5v-84v0zM522 0v722h130v-722h-130z" />
    <glyph glyph-name="f_f_i" unicode="ffi" horiz-adv-x="1179" 
d="M445 638q-12 2 -28 4t-33 2q-58 0 -84 -23.5t-26 -83.5v-35h158v-86h-158v-416h-130v416h-126v86h126v25q0 51 11 89t36 62.5t65 37t99 12.5q20 0 45 -1.5t45 -4.5v-84v0zM888 638q-12 2 -28 4t-33 2q-58 0 -84 -23.5t-26 -83.5v-35h158v-86h-158v-416h-130v416h-126v86
h126v25q0 51 11 89t36 62.5t65 37t99 12.5q20 0 45 -1.5t45 -4.5v-84v0zM962 608v114h136v-114h-136zM965 0v502h130v-502h-130z" />
    <glyph glyph-name="f_f_l" unicode="ffl" horiz-adv-x="1179" 
d="M445 638q-12 2 -28 4t-33 2q-58 0 -84 -23.5t-26 -83.5v-35h158v-86h-158v-416h-130v416h-126v86h126v25q0 51 11 89t36 62.5t65 37t99 12.5q20 0 45 -1.5t45 -4.5v-84v0zM888 638q-12 2 -28 4t-33 2q-58 0 -84 -23.5t-26 -83.5v-35h158v-86h-158v-416h-130v416h-126v86
h126v25q0 51 11 89t36 62.5t65 37t99 12.5q20 0 45 -1.5t45 -4.5v-84v0zM965 0v722h130v-722h-130z" />
    <glyph glyph-name=".notdef" horiz-adv-x="512" 
d="M222 117v67h56v-67h-56zM223 234v17q0 27 3 46.5t10 35t18 29t28 29.5q16 16 26 28t15 22t7 19t2 20q0 36 -22.5 57.5t-53.5 21.5t-53.5 -22t-28.5 -73l-50 8q7 72 44 104.5t91 32.5q27 0 49.5 -9t39 -25t26 -39.5t9.5 -51.5q0 -17 -2.5 -32.5t-9.5 -30.5t-19.5 -30
t-31.5 -33q-16 -14 -25.5 -25t-15 -22t-7 -23.5t-1.5 -29.5v-24h-48zM462 50v617h-412v-617h412zM512 718v-718h-512v718h512z" />
    <glyph glyph-name="nonmarkingreturn" unicode="&#xd;" horiz-adv-x="0" 
 />
    <glyph glyph-name="space" unicode=" " horiz-adv-x="373" 
 />
    <glyph glyph-name="exclam" unicode="!" horiz-adv-x="519" 
d="M313 189h-108l-22 533h152zM191 0v125h136v-125h-136z" />
    <glyph glyph-name="quotedbl" unicode="&#x22;" horiz-adv-x="550" 
d="M321 487v235h100v-235h-100zM129 487v235h100v-235h-100z" />
    <glyph glyph-name="numbersign" unicode="#" 
d="M527 422l-17 -122h83v-89h-96l-29 -211h-96l30 211h-96l-30 -211h-95l29 211h-86v89h99l17 122h-87v89h100l29 211h95l-29 -211h96l30 211h95l-29 -211h82v-89h-95zM335 422l-17 -122h97l16 122h-96z" />
    <glyph glyph-name="dollar" unicode="$" 
d="M716 214q0 -57 -23 -99t-64 -70.5t-97 -44t-122 -19.5v-103h-63v103q-83 2 -141.5 19.5t-97 49t-58 75t-22.5 97.5h144q2 -66 48 -100t127 -39v226l-53 8q-47 7 -91 19t-78.5 34.5t-55.5 57t-21 87.5q0 55 22 96.5t61.5 69.5t94.5 43t121 17v90h63v-90q63 -3 114.5 -16.5
t88.5 -40t58.5 -66t24.5 -93.5h-142q-3 28 -15 48.5t-31 33.5t-44.5 20t-53.5 10v-214l112 -20q92 -17 143 -62.5t51 -126.5zM347 639h-5q-33 0 -61 -8t-49 -23t-32.5 -35t-11.5 -44q0 -30 17 -46.5t41.5 -25.5t52 -13t48.5 -9v204zM576 200q0 25 -12.5 42t-35 28t-53 18
t-65.5 12v-217q86 6 126 40t40 77z" />
    <glyph glyph-name="percent" unicode="%" horiz-adv-x="1021" 
d="M979 170q0 -91 -48.5 -140t-139.5 -49t-140 49t-49 140q0 89 49 138.5t140 49.5t139.5 -49.5t48.5 -138.5zM271 -59h-86l565 840h86zM419 552q0 -91 -48.5 -139.5t-139.5 -48.5t-140 48.5t-49 139.5q0 89 49 139t140 50t139.5 -50t48.5 -139zM885 169q0 60 -25 92t-69 32
q-43 0 -68.5 -31.5t-25.5 -91.5t25.5 -92t68.5 -32q44 0 69 31.5t25 91.5zM325 552q0 60 -25 92t-69 32q-43 0 -68.5 -32t-25.5 -92t25.5 -91.5t68.5 -31.5q44 0 69 31.5t25 91.5z" />
    <glyph glyph-name="ampersand" unicode="&#x26;" horiz-adv-x="851" 
d="M721 333v-333h-377q-50 0 -102.5 8t-96 30.5t-71.5 63t-28 105.5q0 38 13 68.5t35.5 53t52.5 37t63 22.5q-26 7 -49.5 18.5t-41.5 30.5t-29 46.5t-11 65.5q0 50 22.5 86t59 59t82 34t91.5 11q34 0 72 -2.5t73 -8.5v-97q-60 12 -112 12q-29 0 -56.5 -5t-49.5 -17
t-35 -32.5t-13 -52.5q0 -35 17 -56t43 -32t57 -14t60 -3h204v144h127v-144h130v-98h-130zM594 332h-208q-33 0 -69 -2t-65 -13t-48 -34t-19 -65q0 -44 21.5 -68.5t54.5 -36t71.5 -13.5t72.5 -2h189v234z" />
    <glyph glyph-name="quotesingle" unicode="'" horiz-adv-x="358" 
d="M129 487v235h100v-235h-100z" />
    <glyph glyph-name="parenleft" unicode="(" horiz-adv-x="389" 
d="M232 -137q-78 118 -118.5 231.5t-40.5 207.5q0 100 42 212t117 227h104q-35 -56 -61.5 -114t-44 -115t-26.5 -110.5t-9 -99.5q0 -47 9 -100.5t26.5 -110t44 -114.5t61.5 -114h-104z" />
    <glyph glyph-name="parenright" unicode=")" horiz-adv-x="389" 
d="M316 302q0 -100 -42 -212t-117 -227h-104q35 56 61.5 114t44 115t26.5 110.5t9 99.5q0 47 -9 100.5t-26.5 110t-44 114.5t-61.5 114h104q78 -118 118.5 -231.5t40.5 -207.5z" />
    <glyph glyph-name="asterisk" unicode="*" horiz-adv-x="455" 
d="M267 535l90 -117l-72 -44l-58 136l-58 -136l-72 44l90 117l-145 -19v84l145 -19l-91 117l78 43l53 -134l53 134l78 -43l-91 -117l146 19v-84z" />
    <glyph glyph-name="plus" unicode="+" horiz-adv-x="690" 
d="M398 209v-209h-106v209h-233v99h233v208h106v-208h233v-99h-233z" />
    <glyph glyph-name="comma" unicode="," horiz-adv-x="373" 
d="M166 -110h-106l71 235h147z" />
    <glyph glyph-name="hyphen" unicode="-" horiz-adv-x="444" 
d="M58 216v102h328v-102h-328z" />
    <glyph glyph-name="period" unicode="." horiz-adv-x="373" 
d="M119 0v125h136v-125h-136z" />
    <glyph glyph-name="slash" unicode="/" horiz-adv-x="444" 
d="M124 -19h-114l310 760h114z" />
    <glyph glyph-name="zero" unicode="0" 
d="M695 369q0 -99 -23 -172t-65 -121t-101.5 -71.5t-132.5 -23.5q-68 0 -126.5 20.5t-102 66.5t-68.5 120t-25 181q0 90 23.5 159.5t66 117t101.5 71.5t131 24q157 0 239.5 -95.5t82.5 -276.5zM557 369q0 63 -10 114t-31.5 87t-56.5 55.5t-86 19.5q-49 0 -83.5 -20
t-57 -56.5t-33 -87.5t-10.5 -112q0 -150 44 -221t140 -71q94 0 139 71t45 221z" />
    <glyph glyph-name="one" unicode="1" 
d="M365 0v589q-47 -38 -95 -63t-108 -45v119q60 19 116.5 51.5t103.5 70.5h119v-722h-136z" />
    <glyph glyph-name="two" unicode="2" 
d="M66 0v111q103 60 187.5 114.5t145 105t94 98t33.5 92.5q0 31 -12 54t-32 37.5t-47.5 21.5t-57.5 7q-71 0 -113 -34.5t-44 -91.5h-138q1 55 24 97.5t62.5 71t92.5 43t115 14.5q142 0 215 -60t73 -160q0 -44 -23.5 -88t-61.5 -85.5t-84.5 -80t-93.5 -70.5t-88.5 -57
t-68.5 -40h433v-100h-611z" />
    <glyph glyph-name="three" unicode="3" 
d="M671 195q0 -53 -23.5 -93t-65.5 -67t-101.5 -41t-131.5 -14q-141 0 -218 51.5t-79 158.5h139q0 -29 13 -50.5t35 -35t51 -20t62 -6.5q37 0 69.5 6.5t57.5 21t39.5 36.5t14.5 52q0 67 -52 97.5t-145 30.5h-46v98h45q52 0 87 10t56 26.5t30 37.5t9 42q0 26 -11.5 46
t-31.5 33.5t-47.5 20.5t-60.5 7q-74 0 -112.5 -27t-42.5 -70h-137q1 46 23.5 82.5t61.5 61t92 37.5t116 13q75 0 129 -15.5t89 -42t51.5 -62t16.5 -76.5q0 -30 -9.5 -57.5t-29 -50.5t-48.5 -40t-67 -24q33 -6 64 -17t55 -31.5t38.5 -51.5t14.5 -77z" />
    <glyph glyph-name="four" unicode="4" 
d="M584 168v-168h-128v168h-409v129l377 425h160v-457h144v-97h-144zM456 621l-308 -356h308v356z" />
    <glyph glyph-name="five" unicode="5" 
d="M682 240q0 -65 -25 -114t-67.5 -81t-98.5 -48t-118 -16q-54 0 -107.5 10t-95.5 33.5t-68.5 63.5t-26.5 100h139q1 -28 13.5 -48.5t33.5 -34t49 -20t60 -6.5q84 0 129 42.5t45 117.5q0 37 -13 64t-35.5 44.5t-53 26t-64.5 8.5q-57 0 -99 -21.5t-59 -67.5h-131l24 429h528
v-100h-406l-17 -218q38 38 86.5 56t111.5 18q47 0 94.5 -12.5t85.5 -41t62 -73.5t24 -111z" />
    <glyph glyph-name="six" unicode="6" 
d="M690 235q0 -59 -23.5 -106t-64 -80t-96 -50.5t-118.5 -17.5q-94 0 -156.5 28t-99.5 76.5t-52 115.5t-15 145q0 90 19.5 162.5t60 124.5t103 80t148.5 28q72 0 123.5 -15t85 -41.5t50 -62.5t19.5 -79h-136q-8 50 -42 75t-99 25q-94 0 -143.5 -70.5t-52.5 -195.5
q15 19 35 36t46 30t58.5 21t72.5 8q56 0 106 -14.5t88 -44t60.5 -74t22.5 -104.5zM553 230q0 35 -13 62t-36.5 45.5t-54.5 28t-67 9.5q-35 0 -66 -10t-54 -29t-36 -45.5t-13 -60.5q0 -32 12.5 -60t35 -48t53.5 -31.5t69 -11.5q37 0 68.5 11.5t54 32t35 48t12.5 59.5z" />
    <glyph glyph-name="seven" unicode="7" 
d="M335 0h-159l352 619h-453v103h591v-109z" />
    <glyph glyph-name="eight" unicode="8" 
d="M691 194q0 -54 -27 -94.5t-72 -66.5t-102 -39t-117 -13q-65 0 -123 11.5t-101.5 37t-68.5 66t-25 97.5q0 37 14 68.5t38.5 55.5t57.5 39t70 20q-37 6 -66.5 21t-50.5 36.5t-32 47.5t-11 53q0 51 24 89.5t65 64.5t95 39.5t114 13.5q63 0 117 -12.5t93.5 -38.5t62 -65
t22.5 -91q0 -32 -12.5 -58.5t-34.5 -47t-51.5 -34t-63.5 -18.5q39 -6 72.5 -19.5t58.5 -36t39.5 -54t14.5 -72.5zM534 531q0 28 -12.5 49.5t-34 35.5t-51 21t-63.5 7q-32 0 -62 -7t-52.5 -21.5t-36 -35.5t-13.5 -49q0 -26 12.5 -46.5t34.5 -35t52 -22t65 -7.5q33 0 62.5 8
t51.5 22t34.5 34.5t12.5 46.5zM555 199q0 60 -47.5 92.5t-133.5 32.5q-40 0 -73.5 -8.5t-58 -24.5t-38 -39.5t-13.5 -53.5q0 -61 48.5 -90.5t133.5 -29.5q40 0 73.5 8.5t57.5 24t37.5 38t13.5 50.5z" />
    <glyph glyph-name="nine" unicode="9" 
d="M680 387q0 -96 -19 -171.5t-58.5 -127.5t-101.5 -79.5t-148 -27.5q-136 0 -205 52t-78 149h137q5 -54 44 -78.5t107 -24.5q57 0 92.5 25t56 65t29 89.5t10.5 99.5q-35 -53 -95 -74.5t-130 -21.5q-52 0 -100 13.5t-84.5 42t-58.5 72t-22 104.5q0 55 23.5 100.5t64 78
t95.5 50.5t118 18q323 0 323 -354zM531 497q0 30 -10 57t-30.5 46.5t-52.5 31t-76 11.5q-42 0 -74 -12.5t-53 -33t-31.5 -47t-10.5 -53.5q0 -64 43 -101t126 -37q41 0 72.5 11.5t53 31t32.5 44t11 51.5z" />
    <glyph glyph-name="colon" unicode=":" horiz-adv-x="373" 
d="M119 377v125h136v-125h-136zM119 0v125h136v-125h-136z" />
    <glyph glyph-name="semicolon" unicode=";" horiz-adv-x="373" 
d="M125 377v125h135v-125h-135zM166 -110h-106l71 235h147z" />
    <glyph glyph-name="less" unicode="&#x3c;" horiz-adv-x="690" 
d="M59 208v100l572 208v-109l-435 -149l435 -148v-111z" />
    <glyph glyph-name="equal" unicode="=" horiz-adv-x="690" 
d="M59 318v100h572v-100h-572zM59 100v98h572v-98h-572z" />
    <glyph glyph-name="greater" unicode="&#x3e;" horiz-adv-x="690" 
d="M59 -1v111l435 148l-435 149v109l572 -208v-100z" />
    <glyph glyph-name="question" unicode="?" horiz-adv-x="643" 
d="M583 550q0 -32 -11 -58t-29 -48.5t-40.5 -42t-46.5 -37.5l-83 -62q-13 -10 -21.5 -22t-8.5 -29v-67h-115q1 7 1 19v24q0 14 -1 29q0 40 19.5 65t48.5 48l100 81q23 19 36 43.5t13 52.5q0 31 -16.5 51t-41 31t-53 15t-53.5 4q-42 0 -87 -7.5t-85 -20.5v101q49 8 98 14.5
t99 6.5q47 0 96.5 -8t89.5 -29.5t65.5 -58.5t25.5 -95zM218 0v125h136v-125h-136z" />
    <glyph glyph-name="at" unicode="@" horiz-adv-x="1138" 
d="M1086 362q0 -66 -20.5 -117t-54.5 -85t-78.5 -51.5t-91.5 -17.5q-54 0 -89.5 23t-44.5 76q-30 -46 -81 -72.5t-123 -26.5q-49 0 -86.5 13.5t-63 37.5t-38.5 57.5t-13 73.5q0 47 16.5 91t48 77.5t78 54t105.5 20.5q60 0 106.5 -22.5t63.5 -67.5l14 76h123l-45 -247
q-3 -15 -3 -30q0 -54 52 -54q26 0 50 13t42 37.5t29 60t11 80.5q0 62 -25.5 116.5t-75 94.5t-122 63t-165.5 23q-99 0 -183 -30.5t-144.5 -83t-94.5 -123.5t-34 -153q0 -74 27.5 -133.5t78 -101.5t122 -64.5t160.5 -22.5q83 0 151 15t128 42l35 -73q-64 -32 -144 -49
t-170 -17q-110 0 -199.5 27.5t-152.5 80t-97.5 127t-34.5 169.5q0 97 39 182t111 148t174 99.5t228 36.5q107 0 195.5 -27.5t152 -77t98.5 -118t35 -150.5zM698 300q4 19 4 40q0 46 -28.5 75t-84.5 29q-48 0 -84.5 -23.5t-55.5 -64.5q-18 -38 -18 -87q0 -48 29 -76.5
t83 -28.5q61 0 103 36.5t52 99.5z" />
    <glyph glyph-name="A" unicode="A" horiz-adv-x="922" 
d="M759 0l-84 173h-436l-85 -173h-150l375 722h166l373 -722h-159zM458 618l-169 -346h337z" />
    <glyph glyph-name="B" unicode="B" horiz-adv-x="825" 
d="M767 202q0 -40 -15 -76.5t-49 -64.5t-87.5 -44.5t-131.5 -16.5h-386v722h365q75 0 127.5 -12.5t85.5 -35.5t48 -56.5t15 -76.5q0 -61 -34 -103.5t-114 -60.5q81 -11 128.5 -56.5t47.5 -118.5zM597 522q0 24 -7.5 42.5t-26 31.5t-49 19.5t-75.5 6.5h-203v-201h226
q66 0 100.5 24t34.5 77zM621 210q0 59 -42 86t-119 27h-224v-223h228q87 0 122 29.5t35 80.5z" />
    <glyph glyph-name="C" unicode="C" horiz-adv-x="850" 
d="M806 216q-6 -65 -36.5 -110t-79.5 -72.5t-112 -40t-134 -12.5q-95 0 -167.5 27t-121.5 76.5t-74 120t-25 156.5q0 76 24.5 145t75 121t128 83t183.5 31q66 0 125 -15t104 -43.5t72.5 -70.5t29.5 -96h-150q-6 33 -22.5 56.5t-41.5 38t-56 21t-67 6.5q-60 0 -107.5 -18
t-81.5 -53t-52 -86.5t-18 -118.5q0 -141 68.5 -209.5t187.5 -68.5q36 0 69.5 8t60 24.5t44.5 41t23 58.5h151v0z" />
    <glyph glyph-name="D" unicode="D" horiz-adv-x="899" 
d="M843 363q0 -183 -109 -273t-310 -90h-326v722h322q217 0 320 -88t103 -271zM697 362q0 68 -17.5 116.5t-54 80t-94 46.5t-136.5 15h-157v-518h162q81 0 137.5 18t92 52t51.5 82t16 108z" />
    <glyph glyph-name="E" unicode="E" horiz-adv-x="734" 
d="M98 0v722h567v-104h-427v-197h401v-104h-401v-213h438v-104h-578z" />
    <glyph glyph-name="F" unicode="F" horiz-adv-x="675" 
d="M238 618v-207h377v-105h-377v-306h-140v722h537v-104h-397z" />
    <glyph glyph-name="G" unicode="G" horiz-adv-x="918" 
d="M846 37q-89 -29 -173 -42.5t-177 -13.5q-108 0 -190.5 27t-138 76.5t-83.5 120t-28 158.5q0 81 27 150t80.5 120t132.5 79.5t183 28.5q73 0 137 -12t112 -38t78 -68t36 -102h-147q-7 33 -25.5 55.5t-46 36.5t-62.5 20t-75 6q-70 0 -123 -21t-89 -57.5t-54 -87t-18 -110.5
q0 -62 18 -113.5t55 -88.5t93.5 -57.5t132.5 -20.5q52 0 109 10t102 27v164h-217v100h351v-347v0z" />
    <glyph glyph-name="H" unicode="H" horiz-adv-x="903" 
d="M665 0v319h-427v-319h-140v722h140v-298h427v298h140v-722h-140z" />
    <glyph glyph-name="I" unicode="I" horiz-adv-x="336" 
d="M98 0v722h140v-722h-140z" />
    <glyph glyph-name="J" unicode="J" horiz-adv-x="719" 
d="M627 267q0 -78 -22 -132.5t-62.5 -88.5t-98.5 -49.5t-131 -15.5q-64 0 -117.5 14t-92 43t-60 73t-21.5 104v5h143q2 -72 43 -104t111 -32q39 0 70 10t52.5 32.5t33.5 58.5t12 87v450h140v-455v0z" />
    <glyph glyph-name="K" unicode="K" horiz-adv-x="811" 
d="M620 0l-377 395l355 327h179l-368 -326l401 -396h-190zM98 0v722h140v-722h-140z" />
    <glyph glyph-name="L" unicode="L" horiz-adv-x="681" 
d="M98 0v722h140v-617h413v-105h-553z" />
    <glyph glyph-name="M" unicode="M" horiz-adv-x="1200" 
d="M966 0v631l-295 -631h-153l-295 631v-631h-125v722h222l281 -606l280 606h221v-722h-136z" />
    <glyph glyph-name="N" unicode="N" horiz-adv-x="921" 
d="M631 0l-407 598v-598h-126v722h192l407 -598v598h126v-722h-192z" />
    <glyph glyph-name="O" unicode="O" horiz-adv-x="940" 
d="M884 361q0 -72 -22.5 -140.5t-72 -121.5t-128.5 -85.5t-191 -32.5q-117 0 -196.5 32t-127.5 85t-69 121.5t-21 141.5q0 72 23 140.5t72.5 121.5t128.5 85.5t190 32.5q113 0 192 -31.5t128.5 -84t71.5 -121.5t22 -143zM738 361q0 64 -17.5 115.5t-51.5 87.5t-84 55
t-115 19q-63 0 -113 -20t-84.5 -56.5t-52.5 -87.5t-18 -113t17 -113t51 -87.5t84 -56.5t116 -20t116 20.5t83.5 57.5t51 88t17.5 111z" />
    <glyph glyph-name="P" unicode="P" horiz-adv-x="771" 
d="M729 514q0 -50 -16 -90.5t-49 -69t-85 -43.5t-124 -15h-217v-296h-140v722h340q151 0 221 -55.5t70 -152.5zM583 514q0 50 -37.5 78.5t-123.5 28.5h-184v-224h189q156 0 156 117z" />
    <glyph glyph-name="Q" unicode="Q" horiz-adv-x="948" 
d="M787 0q-54 0 -97 -3t-82 -7q-36 -4 -70.5 -6.5t-67.5 -2.5q-114 0 -192.5 31t-128 83.5t-71.5 121.5t-22 144q0 70 22.5 138t72 122t128 87t191.5 33q114 0 192.5 -32t128 -84.5t71.5 -119t22 -134.5q0 -87 -38 -163t-107 -123q10 1 28.5 4t41 6t45.5 5.5t43 2.5h47v-103
h-157zM738 361q0 63 -17 114t-50.5 87t-84 56t-116.5 20q-63 0 -113 -20t-84.5 -57t-52.5 -88t-18 -112q0 -63 18 -114.5t52 -87.5t84 -55.5t114 -19.5t114 20.5t84 57t52 87.5t18 112z" />
    <glyph glyph-name="R" unicode="R" horiz-adv-x="832" 
d="M630 0q-7 29 -13.5 65t-12.5 59l-22 89q-8 31 -18.5 49.5t-28 28t-44.5 12.5t-67 3h-186v-306h-140v722h381q71 0 122 -13.5t83.5 -39t48 -61.5t15.5 -80q0 -48 -22.5 -80.5t-51.5 -52t-58 -28t-41 -10.5q33 -3 58.5 -9.5t44 -22.5t31.5 -42.5t20 -68.5l26 -124
q5 -29 12 -54t12 -36h-149zM604 515q0 57 -37 81.5t-121 24.5h-208v-214h208q84 0 121 24.5t37 83.5z" />
    <glyph glyph-name="S" unicode="S" horiz-adv-x="800" 
d="M744 214q0 -61 -26.5 -105t-73 -72.5t-111 -42t-140.5 -13.5q-89 0 -151.5 17t-103 48t-61 75.5t-23.5 100.5h144q1 -36 16 -62t41 -43t62 -25.5t79 -8.5q106 0 156.5 32t50.5 83q0 43 -34 62.5t-102 32.5l-174 32q-43 8 -82.5 21t-69.5 34.5t-48 55t-18 81.5
q0 56 24.5 98t67.5 70t102.5 42t128.5 14q64 0 122.5 -11.5t102.5 -37t71 -67t30 -100.5h-143q-3 34 -19 56.5t-41 35t-57 17.5t-68 5q-82 0 -131.5 -28.5t-49.5 -81.5q0 -42 34.5 -61t99.5 -30l172 -31q44 -8 84.5 -20t71 -33t49 -55t18.5 -85z" />
    <glyph glyph-name="T" unicode="T" horiz-adv-x="749" 
d="M444 617v-617h-140v617h-296v105h733v-105h-297z" />
    <glyph glyph-name="U" unicode="U" horiz-adv-x="893" 
d="M801 304q0 -83 -25.5 -144t-72 -100.5t-111.5 -59t-145 -19.5q-83 0 -149 18t-112 56t-70 97.5t-24 142.5v427h140v-426q0 -105 54 -158.5t161 -53.5q109 0 161.5 57.5t52.5 162.5v418h140v-418v0z" />
    <glyph glyph-name="V" unicode="V" horiz-adv-x="814" 
d="M492 0h-170l-322 722h155l258 -622l258 622h143z" />
    <glyph glyph-name="W" unicode="W" horiz-adv-x="1257" 
d="M1009 0h-182l-199 619l-198 -619h-182l-236 722h149l184 -624l198 624h178l204 -624l179 624h141z" />
    <glyph glyph-name="X" unicode="X" horiz-adv-x="856" 
d="M660 0l-235 298l-244 -298h-173l334 375l-305 347h183l217 -273l223 273h167l-309 -347l330 -375h-188z" />
    <glyph glyph-name="Y" unicode="Y" horiz-adv-x="810" 
d="M475 286v-286h-140v286l-337 436h176l239 -329l237 329h162z" />
    <glyph glyph-name="Z" unicode="Z" horiz-adv-x="755" 
d="M36 0v130l518 490h-492v102h644v-130l-511 -490h524v-102h-683z" />
    <glyph glyph-name="bracketleft" unicode="[" horiz-adv-x="389" 
d="M105 -137v878h233v-78h-123v-722h123v-78h-233z" />
    <glyph glyph-name="backslash" unicode="\" horiz-adv-x="444" 
d="M320 -19l-310 760h114l310 -760h-114z" />
    <glyph glyph-name="bracketright" unicode="]" horiz-adv-x="389" 
d="M51 -137v78h123v722h-123v78h233v-878h-233z" />
    <glyph glyph-name="asciicircum" unicode="^" horiz-adv-x="690" 
d="M505 333l-160 293l-160 -293h-119l223 389h111l223 -389h-118z" />
    <glyph glyph-name="underscore" unicode="_" horiz-adv-x="500" 
d="M0 -125v50h500v-50h-500z" />
    <glyph glyph-name="grave" unicode="`" horiz-adv-x="321" 
d="M149 582l-157 140h152l113 -140h-108z" />
    <glyph glyph-name="a" unicode="a" horiz-adv-x="694" 
d="M490 0q-1 6 -1.5 16t-1 21t-1 20.5t-1.5 15.5q-20 -28 -43.5 -45.5t-51 -28t-58.5 -14.5t-67 -4q-50 0 -90 11.5t-68 32.5t-43.5 51.5t-15.5 68.5q0 43 18.5 72t48.5 48t68.5 29t78.5 14.5t78 5t68 0.5h72v17q0 62 -35 86t-95 24q-63 0 -95.5 -21t-35.5 -55h-136
q4 46 29 76t62.5 48t83.5 25t92 7q57 0 105 -10t82.5 -33t53.5 -59.5t19 -88.5v-229q0 -9 0.5 -23.5t1 -29.5t1 -28t1.5 -20h-124zM480 236h-61q-30 0 -70.5 -2t-77 -11t-61.5 -27.5t-25 -51.5q0 -36 28.5 -58.5t89.5 -22.5q92 0 134.5 42t42.5 116v15z" />
    <glyph glyph-name="b" unicode="b" horiz-adv-x="761" 
d="M713 253q0 -62 -22.5 -112.5t-61 -86t-90 -54.5t-108.5 -19q-87 0 -139.5 27t-81.5 67q0 -6 -0.5 -16.5t-1.5 -22t-2 -21.5t-1 -15h-125q0 10 1 25t1.5 30t1 29t0.5 22v616h130v-298q18 21 39.5 38.5t47.5 30.5t58.5 20.5t72.5 7.5q57 0 108.5 -17.5t89.5 -51.5t60.5 -84
t22.5 -115zM576 252q0 87 -47 136t-134 49q-82 0 -131.5 -49.5t-49.5 -137.5t47.5 -136t133.5 -48q84 0 132.5 50.5t48.5 135.5z" />
    <glyph glyph-name="c" unicode="c" horiz-adv-x="668" 
d="M635 171q-5 -48 -28 -83.5t-60 -59t-86.5 -35.5t-107.5 -12q-66 0 -122 17t-96.5 51t-63.5 84.5t-23 116.5q0 67 23.5 117.5t64.5 84.5t98 51.5t124 17.5q48 0 94.5 -9.5t84.5 -31t63.5 -57t31.5 -87.5h-137q-8 52 -43.5 77.5t-92.5 25.5q-37 0 -68.5 -12.5t-55 -36.5
t-36.5 -59t-13 -80q0 -39 10.5 -73.5t31.5 -60t52.5 -40t74.5 -14.5q62 0 101 28.5t42 79.5h137v0z" />
    <glyph glyph-name="d" unicode="d" horiz-adv-x="762" 
d="M557 0l-5 75q-37 -42 -92 -68t-128 -26q-60 0 -112 18t-90.5 52.5t-60 85t-21.5 116.5q0 61 23 111t62 84.5t90.5 53.5t108.5 19q42 0 73.5 -6t57 -17.5t45.5 -28.5t40 -38v291h130v-616q0 -25 1 -52t3 -54h-125zM548 250q0 97 -50.5 142.5t-131.5 45.5q-38 0 -71 -13
t-57 -37t-38 -58t-14 -77q0 -87 48.5 -137.5t132.5 -50.5q40 0 73.5 13t57.5 37t37 58t13 77z" />
    <glyph glyph-name="e" unicode="e" horiz-adv-x="691" 
d="M180 219q6 -72 47 -115t120 -43q64 0 99.5 23t49.5 68h137q-8 -49 -35 -82t-66 -52.5t-86 -28t-96 -8.5q-69 0 -125 16.5t-95 49.5t-60.5 82t-21.5 113q0 70 22.5 122.5t62.5 87t96 52t123 17.5q146 0 219.5 -71t73.5 -200v-31h-465zM507 299q-1 39 -14.5 66t-35 44
t-49.5 24.5t-58 7.5q-72 0 -114 -36.5t-52 -105.5h323z" />
    <glyph glyph-name="f" unicode="f" horiz-adv-x="443" 
d="M445 638q-12 2 -28 4t-33 2q-58 0 -84 -23.5t-26 -83.5v-35h158v-86h-158v-416h-130v416h-126v86h126v25q0 51 11 89t36 62.5t65 37t99 12.5q20 0 45 -1.5t45 -4.5v-84v0z" />
    <glyph glyph-name="g" unicode="g" horiz-adv-x="760" 
d="M680 502q-2 -20 -3 -42t-1 -49v-339q0 -80 -21 -133.5t-61.5 -86t-100.5 -46.5t-138 -14q-82 0 -136 12.5t-87 35.5t-47 55t-17 71h138q5 -43 40 -67t104 -24q57 0 95 12.5t60.5 36.5t31.5 59.5t9 81.5v37q-18 -24 -42 -41.5t-52.5 -28.5t-59 -16.5t-61.5 -5.5
q-62 0 -114 18t-89.5 51t-58.5 80t-21 106q0 60 23.5 107.5t63 80.5t91.5 50.5t108 17.5q44 0 77 -6.5t58.5 -18.5t45 -29t36.5 -37q0 6 0.5 15.5t1 20.5t1 20.5t1.5 15.5h125zM546 266q0 75 -44.5 123.5t-136.5 48.5q-43 0 -76.5 -13t-56 -36t-34.5 -54.5t-12 -68.5
q0 -38 11.5 -69.5t34 -54.5t56 -36t76.5 -13q90 0 136 48t46 125z" />
    <glyph glyph-name="h" unicode="h" horiz-adv-x="757" 
d="M543 0v272q0 82 -39 122t-108 40q-36 0 -68.5 -11t-58 -35.5t-40.5 -63t-15 -92.5v-232h-130v722h130v-307q37 54 92 80t122 26q117 0 181 -60.5t64 -175.5v-285h-130z" />
    <glyph glyph-name="i" unicode="i" horiz-adv-x="298" 
d="M81 608v114h136v-114h-136zM84 0v502h130v-502h-130z" />
    <glyph glyph-name="j" unicode="j" horiz-adv-x="298" 
d="M81 608v114h136v-114h-136zM214 -20q0 -47 -10.5 -80.5t-33 -54.5t-58 -31t-85.5 -10q-26 0 -46.5 1t-29.5 3v87q8 -1 20.5 -1.5t20.5 -0.5q28 0 45.5 4t28 17t14.5 37t4 62v489h130v-522z" />
    <glyph glyph-name="k" unicode="k" horiz-adv-x="683" 
d="M503 0l-284 293l255 209h171l-267 -209l301 -293h-176zM84 0v722h130v-722h-130z" />
    <glyph glyph-name="l" unicode="l" horiz-adv-x="298" 
d="M84 0v722h130v-722h-130z" />
    <glyph glyph-name="m" unicode="m" horiz-adv-x="1127" 
d="M913 0v255q0 85 -28.5 132t-101.5 47q-21 0 -48 -9t-50.5 -30t-39.5 -56.5t-16 -88.5v-250h-130v259q0 88 -29.5 131.5t-96.5 43.5q-32 0 -60.5 -11.5t-50.5 -35.5t-35 -60t-13 -85v-242h-130v392q0 27 -1 54t-3 56h124l4 -90q38 52 89 80.5t120 28.5t118 -31.5t71 -91.5
q12 19 32.5 41t48 40t61 30t72.5 12q46 0 87 -11.5t71 -38.5t47.5 -71.5t17.5 -109.5v-290h-130z" />
    <glyph glyph-name="n" unicode="n" horiz-adv-x="757" 
d="M543 0v274q0 81 -39.5 120.5t-108.5 39.5q-37 0 -70 -11.5t-57.5 -36t-39 -62.5t-14.5 -92v-232h-130v392q0 27 -1 54t-3 56h124l5 -90q9 11 25 29.5t41.5 36t62.5 30.5t89 13q117 0 181.5 -59t64.5 -177v-285h-130z" />
    <glyph glyph-name="o" unicode="o" horiz-adv-x="758" 
d="M710 251q0 -58 -19 -107.5t-59.5 -85.5t-103 -56.5t-149.5 -20.5q-88 0 -150.5 20t-102.5 56t-59 85.5t-19 108.5q0 55 20 104.5t61 86t103.5 58t146.5 21.5q88 0 150.5 -20.5t102.5 -56.5t59 -85.5t19 -107.5zM572 251q0 88 -49.5 138t-143.5 50q-91 0 -142 -50
t-51 -138q0 -87 50.5 -137.5t142.5 -50.5q46 0 81.5 14t60.5 39t38 59.5t13 75.5z" />
    <glyph glyph-name="p" unicode="p" horiz-adv-x="761" 
d="M713 251q0 -60 -22 -109.5t-60.5 -85.5t-89.5 -55.5t-109 -19.5q-72 0 -124.5 21t-93.5 64v-258h-130v591q0 27 -1 51.5t-3 51.5h124l5 -84q18 21 38.5 39.5t47 32.5t60 22.5t78.5 8.5q58 0 109 -17.5t89 -52t60 -85t22 -115.5zM575 251q0 88 -47 137t-134 49
q-38 0 -71 -13t-57 -37t-38 -58t-14 -77q0 -88 47 -137t133 -49q40 0 73 13t57 37t37.5 58t13.5 77z" />
    <glyph glyph-name="q" unicode="q" horiz-adv-x="761" 
d="M681 502q-2 -25 -3 -49t-1 -51v-594h-129v263q-41 -43 -94.5 -66.5t-123.5 -23.5q-62 0 -113.5 19t-89 54t-58.5 84.5t-21 111.5t24 112t63 85.5t90 54.5t105 19q47 0 81.5 -7.5t60.5 -20.5t45.5 -30.5t35.5 -36.5l3 76h125zM548 252q0 47 -13.5 81.5t-37.5 57.5
t-57 34.5t-72 11.5q-41 0 -74.5 -13.5t-57.5 -38t-37 -59t-13 -76.5q0 -43 13 -77t37 -58t57 -37t73 -13q45 0 79 14.5t56.5 39.5t34.5 59t12 74z" />
    <glyph glyph-name="r" unicode="r" horiz-adv-x="457" 
d="M441 403q-11 3 -25.5 4t-28.5 1q-85 0 -129 -46.5t-44 -133.5v-228h-130v392q0 27 -1 54t-3 56h124l4 -101q13 23 31 44t41.5 36.5t53 25t64.5 9.5q11 0 24 -1t19 -1v-111v0z" />
    <glyph glyph-name="s" unicode="s" horiz-adv-x="638" 
d="M592 146q0 -46 -22 -77.5t-60.5 -51t-91 -28t-113.5 -8.5q-67 0 -115.5 11.5t-80.5 33.5t-48.5 53t-18.5 69h135q3 -25 14.5 -41.5t29.5 -26.5t42 -14.5t52 -4.5q65 0 103 17.5t38 55.5q0 29 -26 41t-77 23l-147 30q-31 6 -57 16.5t-45 26.5t-29.5 38t-10.5 51
q0 45 22.5 76t58.5 50t82 27t93 8q53 0 99 -8.5t80.5 -27t54 -48t20.5 -71.5h-132q-5 42 -39 58.5t-85 16.5q-52 0 -87.5 -16t-35.5 -49q0 -29 25.5 -42t76.5 -23l151 -29q78 -15 111 -47t33 -89z" />
    <glyph glyph-name="t" unicode="t" horiz-adv-x="447" 
d="M419 0q-20 -3 -47.5 -5.5t-57.5 -2.5q-44 0 -77.5 7.5t-56 25.5t-33.5 48t-11 75v269h-126v85h126v95l129 51v-146h152v-85h-152v-247q0 -44 15 -67.5t66 -23.5q29 0 73 6v-85v0z" />
    <glyph glyph-name="u" unicode="u" horiz-adv-x="759" 
d="M553 0q0 2 -0.5 15.5t-1.5 30.5q-1 19 -2 43q-42 -56 -95 -82t-124 -26q-126 0 -185.5 60.5t-59.5 175.5v285h130v-272q0 -78 35 -120.5t113 -42.5q34 0 67 11.5t58 36.5t40.5 63t15.5 92v232h130v-392q0 -27 1 -54t3 -56h-125z" />
    <glyph glyph-name="v" unicode="v" horiz-adv-x="678" 
d="M420 0h-163l-251 502h150l188 -417l191 417h137z" />
    <glyph glyph-name="w" unicode="w" horiz-adv-x="1134" 
d="M902 0h-158l-175 416l-177 -416h-158l-222 502h147l160 -415l176 415h160l174 -415l163 415h130z" />
    <glyph glyph-name="x" unicode="x" horiz-adv-x="679" 
d="M499 0l-166 200l-170 -200h-157l241 263l-221 239h169l152 -176l151 176h156l-226 -239l246 -263h-175z" />
    <glyph glyph-name="y" unicode="y" horiz-adv-x="674" 
d="M316 -192h-143l106 191l-274 503h150l196 -393l185 393h138z" />
    <glyph glyph-name="z" unicode="z" horiz-adv-x="604" 
d="M42 0v98l354 317h-334v87h488v-98l-348 -317h360v-87h-520z" />
    <glyph glyph-name="braceleft" unicode="{" horiz-adv-x="352" 
d="M228 -137q-20 0 -41.5 7.5t-39 23.5t-29 39.5t-11.5 55.5v184q0 23 -9 39t-22 26.5t-28 16t-28 5.5v84q13 0 28 5t28 15.5t22 27t9 39.5v184q0 32 11.5 55.5t29 39.5t39 23.5t41.5 7.5h89v-78h-47q-32 0 -42.5 -20t-10.5 -49v-181q0 -30 -11 -50.5t-26.5 -33.5t-32 -19
t-27.5 -7v-2q11 -2 27.5 -7.5t32 -18.5t26.5 -33.5t11 -50.5v-181q0 -29 10.5 -49t42.5 -20h47v-78h-89z" />
    <glyph glyph-name="bar" unicode="|" horiz-adv-x="238" 
d="M67 -213v998h104v-998h-104z" />
    <glyph glyph-name="braceright" unicode="}" horiz-adv-x="352" 
d="M332 260q-13 0 -28 -5.5t-28 -16t-22 -26.5t-9 -39v-184q0 -32 -11.5 -55.5t-29 -39.5t-39 -23.5t-41.5 -7.5h-89v78h47q32 0 42.5 20t10.5 49v181q0 30 11 50.5t26.5 33.5t32 18.5t27.5 7.5v2q-11 1 -27.5 7t-32 19t-26.5 33.5t-11 50.5v181q0 29 -10.5 49t-42.5 20h-47
v78h89q20 0 41.5 -7.5t39 -23.5t29 -39.5t11.5 -55.5v-184q0 -23 9 -39.5t22 -27t28 -15.5t28 -5v-84v0z" />
    <glyph glyph-name="asciitilde" unicode="~" horiz-adv-x="690" 
d="M631 340q-3 -33 -12.5 -63t-26.5 -52.5t-43 -36t-62 -13.5q-32 0 -72 10.5t-82 24.5q-39 13 -75.5 23t-63.5 10q-33 0 -48 -19t-20 -49h-67q3 33 12.5 62.5t26.5 52t43 36t62 13.5q31 0 68.5 -9t76.5 -22q42 -14 80.5 -25t67.5 -11q33 0 48 18.5t20 49.5h67v0z" />
    <glyph glyph-name="Euro" unicode="&#x20ac;" 
d="M497 -18q-71 0 -128 14t-99.5 45.5t-70 83.5t-39.5 128h-101l20 77h75q-1 10 -1.5 20t-0.5 21q0 8 0.5 17.5t0.5 17.5h-92l20 78h81q25 122 108 189t233 67q71 0 122.5 -16.5t76.5 -35.5l-28 -94q-21 15 -60.5 31t-110.5 16q-93 0 -142 -38.5t-63 -118.5h340l-20 -78
h-328q-1 -10 -1 -18v-17v-20.5t1 -20.5h300l-20 -77h-273q8 -94 62.5 -133t143.5 -39q56 0 99 13t74 37v-113q-29 -16 -72.5 -26t-106.5 -10z" />
    <glyph glyph-name="quotesinglbase" unicode="&#x201a;" horiz-adv-x="370" 
d="M182 -108h-104l72 235h142z" />
    <glyph glyph-name="florin" unicode="&#x192;" 
d="M637 643q-13 4 -32.5 7t-36.5 3q-55 0 -82 -25t-36 -81l-6 -38h176l-13 -86h-176l-56 -381q-10 -66 -25.5 -110.5t-43 -72t-69.5 -39.5t-105 -12q-18 0 -42.5 2.5t-45.5 5.5l12 83q21 -3 35 -3q37 0 62.5 6t43 23.5t28.5 49t19 84.5l53 364h-164l14 86h161l8 53
q8 55 25.5 89.5t44.5 54.5t63.5 27.5t82.5 7.5q30 0 62 -3t56 -8z" />
    <glyph glyph-name="quotedblbase" unicode="&#x201e;" horiz-adv-x="602" 
d="M414 -110h-103l71 235h142zM182 -110h-104l72 235h141z" />
    <glyph glyph-name="ellipsis" unicode="&#x2026;" horiz-adv-x="1000" 
d="M765 0v125h136v-125h-136zM432 0v125h136v-125h-136zM99 0v125h136v-125h-136z" />
    <glyph glyph-name="dagger" unicode="&#x2020;" horiz-adv-x="618" 
d="M374 443v-443h-130v443h-197v102h197v177h130v-177h197v-102h-197z" />
    <glyph glyph-name="daggerdbl" unicode="&#x2021;" horiz-adv-x="618" 
d="M373 153v-153h-128v153h-198v100h198v216h-198v100h198v153h128v-153h198v-100h-198v-216h198v-100h-198z" />
    <glyph glyph-name="circumflex" unicode="&#x2c6;" horiz-adv-x="321" 
d="M251 582l-92 89l-93 -89h-102l122 140h145l122 -140h-102z" />
    <glyph glyph-name="perthousand" unicode="&#x2030;" horiz-adv-x="1309" 
d="M1267 167q0 -88 -48.5 -137t-136.5 -49t-136.5 49t-48.5 137t47 137.5t138 49.5t138 -49.5t47 -137.5zM845 167q0 -88 -48.5 -137t-136.5 -49t-136.5 49t-48.5 137t47 137.5t138 49.5t138 -49.5t47 -137.5zM200 -59h-86l565 840h86zM412 555q0 -88 -48.5 -137.5
t-136.5 -49.5t-136.5 49.5t-48.5 137.5t47 137t138 49t138 -49t47 -137zM1177 167q0 66 -26.5 94.5t-68.5 28.5q-41 0 -68 -29t-27 -94t26.5 -94t68.5 -29t68.5 29t26.5 94zM755 167q0 66 -26.5 94.5t-68.5 28.5q-41 0 -68 -29t-27 -94t26.5 -94t68.5 -29t68.5 29t26.5 94z
M322 555q0 66 -26.5 94.5t-68.5 28.5q-41 0 -68 -29t-27 -94t26.5 -94t68.5 -29t68.5 29t26.5 94z" />
    <glyph glyph-name="Scaron" unicode="&#x160;" horiz-adv-x="800" 
d="M744 214q0 -61 -26.5 -105t-73 -72.5t-111 -42t-140.5 -13.5q-89 0 -151.5 17t-103 48t-61 75.5t-23.5 100.5h144q1 -36 16 -62t41 -43t62 -25.5t79 -8.5q106 0 156.5 32t50.5 83q0 43 -34 62.5t-102 32.5l-174 32q-43 8 -82.5 21t-69.5 34.5t-48 55t-18 81.5
q0 56 24.5 98t67.5 70t102.5 42t128.5 14q64 0 122.5 -11.5t102.5 -37t71 -67t30 -100.5h-143q-3 34 -19 56.5t-41 35t-57 17.5t-68 5q-82 0 -131.5 -28.5t-49.5 -81.5q0 -42 34.5 -61t99.5 -30l172 -31q44 -8 84.5 -20t71 -33t49 -55t18.5 -85zM303 911l92 -89l93 89h102
l-122 -140h-145l-122 140h102z" />
    <glyph glyph-name="guilsinglleft" unicode="&#x2039;" horiz-adv-x="345" 
d="M178 73l-126 194l130 194h111l-118 -194l118 -194h-115z" />
    <glyph glyph-name="OE" unicode="&#x152;" horiz-adv-x="1289" 
d="M775 0q-59 0 -122 -3q-62 -3 -118 -3q-53 0 -104.5 4t-99.5 15q-59 13 -109 38.5t-87 67.5t-58 101.5t-21 142.5q0 108 43 179t113 112t157.5 57.5t176.5 16.5q27 0 56 -1l58 -2l58 -2t56 -1h445v-104h-428v-197h403v-104h-403v-213h440v-104h-456zM653 618
q-26 2 -57.5 4.5t-63.5 2.5q-168 0 -251.5 -67t-83.5 -195q0 -71 22 -121t63.5 -82.5t102 -47.5t137.5 -15q38 0 69 2t62 5v514z" />
    <glyph glyph-name="Zcaron" unicode="&#x17d;" horiz-adv-x="755" 
d="M36 0v130l518 490h-492v102h644v-130l-511 -490h524v-102h-683zM292 911l92 -89l93 89h102l-122 -140h-145l-122 140h102z" />
    <glyph glyph-name="quoteleft" unicode="&#x2018;" horiz-adv-x="370" 
d="M220 487h-142l110 235h104z" />
    <glyph glyph-name="quoteright" unicode="&#x2019;" horiz-adv-x="370" 
d="M182 487h-104l72 235h142z" />
    <glyph glyph-name="quotedblleft" unicode="&#x201c;" horiz-adv-x="602" 
d="M452 487h-141l109 235h104zM220 487h-142l110 235h103z" />
    <glyph glyph-name="quotedblright" unicode="&#x201d;" horiz-adv-x="602" 
d="M414 487h-103l71 235h142zM182 487h-104l72 235h141z" />
    <glyph glyph-name="bullet" unicode="&#x2022;" horiz-adv-x="500" 
d="M431 361q0 -38 -14 -70.5t-39 -57.5t-58 -39t-70 -14q-38 0 -70.5 14t-57.5 39t-39 57.5t-14 70.5q0 37 14 70t39 58t57.5 39t70.5 14q37 0 70 -14t58 -39t39 -58t14 -70z" />
    <glyph glyph-name="endash" unicode="&#x2013;" horiz-adv-x="500" 
d="M0 220v94h500v-94h-500z" />
    <glyph glyph-name="emdash" unicode="&#x2014;" horiz-adv-x="1000" 
d="M130 220v94h740v-94h-740z" />
    <glyph glyph-name="tilde" unicode="&#x2dc;" horiz-adv-x="321" 
d="M356 722q-2 -58 -26.5 -89t-78.5 -31q-23 0 -46.5 5.5t-46 12.5t-44 12.5t-40.5 5.5q-18 0 -28.5 -11t-14.5 -29h-65q1 25 6 47.5t16.5 39.5t30.5 27t47 10q22 0 45.5 -6.5t46.5 -14t44 -13.5t39 -6q39 0 49 40h66v0z" />
    <glyph glyph-name="trademark" unicode="&#x2122;" horiz-adv-x="993" 
d="M834 310v284h-2l-102 -284h-77l-102 284h-2v-284h-96v412h140l98 -267l1 2l98 265h140v-412h-96zM246 646v-336h-103v336h-117v76h336v-76h-116z" />
    <glyph glyph-name="scaron" unicode="&#x161;" horiz-adv-x="638" 
d="M592 146q0 -46 -22 -77.5t-60.5 -51t-91 -28t-113.5 -8.5q-67 0 -115.5 11.5t-80.5 33.5t-48.5 53t-18.5 69h135q3 -25 14.5 -41.5t29.5 -26.5t42 -14.5t52 -4.5q65 0 103 17.5t38 55.5q0 29 -26 41t-77 23l-147 30q-31 6 -57 16.5t-45 26.5t-29.5 38t-10.5 51
q0 45 22.5 76t58.5 50t82 27t93 8q53 0 99 -8.5t80.5 -27t54 -48t20.5 -71.5h-132q-5 42 -39 58.5t-85 16.5q-52 0 -87.5 -16t-35.5 -49q0 -29 25.5 -42t76.5 -23l151 -29q78 -15 111 -47t33 -89zM225 721l92 -89l93 89h102l-122 -140h-145l-122 140h102z" />
    <glyph glyph-name="guilsinglright" unicode="&#x203a;" horiz-adv-x="345" 
d="M163 73h-111l118 194l-118 194h115l126 -194z" />
    <glyph glyph-name="oe" unicode="&#x153;" horiz-adv-x="1180" 
d="M673 219q8 -73 50 -115.5t115 -42.5q60 0 100 24.5t47 66.5h137q-7 -50 -34.5 -83t-66.5 -52.5t-84 -27.5t-86 -8q-89 0 -148.5 27t-91.5 76q-39 -53 -101.5 -78t-139.5 -25q-152 0 -237 69t-85 201q0 62 24 112t66.5 85t102.5 54t132 19q49 0 88 -9.5t68.5 -24.5t50 -33
t34.5 -36q18 19 40.5 38t51 33t63.5 23t78 9q66 0 119 -17.5t90.5 -51t57.5 -83.5t20 -115v-35h-461zM995 299q-3 69 -45 105.5t-110 36.5t-111.5 -38t-53.5 -104h320zM556 251q0 40 -11.5 74.5t-35 59.5t-58 39.5t-80.5 14.5q-45 0 -79.5 -14t-58 -39.5t-35.5 -60
t-12 -74.5q0 -41 11.5 -75t35 -59.5t58 -39.5t80.5 -14q45 0 80 14.5t58 40t35 60t12 73.5z" />
    <glyph glyph-name="zcaron" unicode="&#x17e;" horiz-adv-x="604" 
d="M42 0v98l354 317h-334v87h488v-98l-348 -317h360v-87h-520zM216 721l92 -89l93 89h102l-122 -140h-145l-122 140h102z" />
    <glyph glyph-name="Ydieresis" unicode="&#x178;" horiz-adv-x="810" 
d="M475 286v-286h-140v286l-337 436h176l239 -329l237 329h162zM463 796v114h118v-114h-118zM236 796v114h118v-114h-118z" />
    <glyph glyph-name="uni00A0" unicode="&#xa0;" horiz-adv-x="373" 
 />
    <glyph glyph-name="exclamdown" unicode="&#xa1;" horiz-adv-x="519" 
d="M191 408v125h136v-125h-136zM183 -189l22 534h108l22 -534h-152z" />
    <glyph glyph-name="cent" unicode="&#xa2;" 
d="M668 171q-5 -48 -28.5 -83.5t-62 -59t-89 -35.5t-108.5 -12q-18 0 -34.5 1.5t-32.5 3.5l-36 -106h-59l41 119q-81 26 -130 89t-49 162q0 67 23.5 118t64.5 85t98 51t124 17q11 0 23 -0.5t23 -1.5l32 91h59l-35 -100q33 -8 62 -22t52 -35t37.5 -50t19.5 -67h-136
q-9 64 -64 89l-122 -356q21 -6 46 -6q62 0 101 28.5t42 79.5h138zM409 438q-5 1 -9 1h-9q-37 0 -68.5 -12.5t-55 -36.5t-36.5 -59t-13 -80q0 -50 18 -91.5t54 -67.5z" />
    <glyph glyph-name="sterling" unicode="&#xa3;" 
d="M565 538q-3 56 -38 82.5t-88 26.5q-26 0 -51 -8.5t-44.5 -27t-31 -47.5t-11.5 -71v-67h197v-94h-197v-230h383v-102h-615v102h96v230h-101v94h101v71q0 63 20 109t56.5 76t87 44.5t111.5 14.5q52 0 99.5 -10.5t83.5 -34t57.5 -62.5t22.5 -96h-138z" />
    <glyph glyph-name="currency" unicode="&#xa4;" 
d="M67 121l90 90q-21 31 -32.5 67t-11.5 78t11.5 78.5t32.5 67.5l-90 90l69 68l90 -90q32 21 69 32.5t79 11.5t79 -11.5t68 -32.5l91 90l68 -68l-90 -90q21 -31 32.5 -67.5t11.5 -78.5t-11.5 -78.5t-32.5 -67.5l90 -89l-68 -68l-90 89q-32 -21 -69 -32.5t-79 -11.5
t-79.5 11.5t-69.5 32.5l-89 -89zM525 356q0 34 -11 63t-31.5 50.5t-48 33.5t-60.5 12t-61 -12t-48.5 -33.5t-31.5 -50.5t-11 -63t11 -63t31.5 -50.5t48.5 -33.5t61 -12t60.5 12t48 33.5t31.5 50.5t11 63z" />
    <glyph glyph-name="yen" unicode="&#xa5;" 
d="M489 384h133v-78h-178l-10 -18v-58h188v-77h-188v-153h-123v153h-188v77h188v57l-9 19h-179v78h132l-214 338h149l187 -326l187 326h139z" />
    <glyph glyph-name="brokenbar" unicode="&#xa6;" horiz-adv-x="238" 
d="M67 410v251h104v-251h-104zM67 -89v251h104v-251h-104z" />
    <glyph glyph-name="section" unicode="&#xa7;" horiz-adv-x="643" 
d="M570 368q0 -43 -34 -74.5t-97 -52.5v-2q57 -16 90.5 -52t33.5 -79q0 -42 -20.5 -71t-54 -46.5t-76 -25.5t-86.5 -8q-25 0 -55 3.5t-61 9.5t-61 13.5t-56 15.5v106q22 -11 49.5 -21.5t57 -18.5t58 -13t54.5 -5q53 0 82 15t29 44q0 20 -11 32t-33 20l-107 36
q-49 16 -86.5 31t-62.5 32t-38 37t-13 47q0 40 30 72t108 64l-1 1q-58 23 -84.5 51t-26.5 70q0 37 17.5 63.5t47.5 44t69.5 26t84.5 8.5q53 0 106.5 -11t107.5 -26v-103q-24 11 -51 20.5t-54.5 16t-53 10t-46.5 3.5q-47 0 -67.5 -16t-20.5 -40q0 -23 23.5 -38.5t55.5 -26.5
l94 -31q27 -9 55.5 -20t51.5 -26.5t37.5 -36t14.5 -48.5zM436 354q0 22 -17 36t-54 27l-68 23q-41 -14 -66 -36.5t-25 -44.5q0 -19 18.5 -35.5t47.5 -24.5l76 -23q41 16 64.5 36.5t23.5 41.5z" />
    <glyph glyph-name="dieresis" unicode="&#xa8;" horiz-adv-x="321" 
d="M215 608v114h118v-114h-118zM-12 608v114h118v-114h-118z" />
    <glyph glyph-name="copyright" unicode="&#xa9;" horiz-adv-x="836" 
d="M804 361q0 -80 -28 -149t-79 -120t-122 -80t-157 -29t-157 29t-122 80t-79 120t-28 149t28 149t79 120t122 80t157 29t157 -29t122 -80t79 -120t28 -149zM738 361q0 69 -22.5 127.5t-64.5 101t-101 67t-132 24.5q-72 0 -131 -24.5t-101 -67t-65 -101t-23 -127.5
q0 -68 22.5 -126.5t64.5 -101.5t101 -67.5t132 -24.5t132 24.5t101 67.5t64.5 101.5t22.5 126.5zM639 292q-3 -35 -21 -61t-47 -43.5t-66 -26.5t-78 -9q-228 0 -228 208q0 104 58.5 158t176.5 54q94 0 145 -36t54 -99h-105q-6 31 -28.5 46.5t-66.5 15.5q-66 0 -96 -35.5
t-30 -101.5q0 -71 28.5 -104.5t94.5 -33.5q89 0 103 68h106z" />
    <glyph glyph-name="ordfeminine" unicode="&#xaa;" horiz-adv-x="450" 
d="M317 425v45h-2q-23 -34 -58 -44.5t-80 -10.5q-64 0 -104.5 26.5t-40.5 72.5q0 59 52.5 82t144.5 23h85v4q0 34 -24 47.5t-63 13.5q-30 0 -50.5 -11t-22.5 -28h-100q3 30 22 49t45.5 29.5t56 14t53.5 3.5q81 0 129 -26t48 -89v-140q0 -14 1 -30.5t3 -30.5h-95zM314 562
h-56q-64 0 -94.5 -9.5t-30.5 -34.5q0 -15 17 -29.5t54 -14.5q57 0 83.5 23t26.5 58v7z" />
    <glyph glyph-name="guillemotleft" unicode="&#xab;" horiz-adv-x="568" 
d="M401 73l-126 194l130 194h111l-118 -194l118 -194h-115zM178 73l-126 194l130 194h111l-118 -194l118 -194h-115z" />
    <glyph glyph-name="logicalnot" unicode="&#xac;" horiz-adv-x="690" 
d="M525 120v198h-466v100h572v-298h-106z" />
    <glyph glyph-name="uni00AD" unicode="&#xad;" horiz-adv-x="444" 
d="M58 216v102h328v-102h-328z" />
    <glyph glyph-name="registered" unicode="&#xae;" horiz-adv-x="472" 
d="M430 547q0 -40 -15.5 -75t-42 -61.5t-62 -41.5t-75.5 -15t-75 15t-61.5 41.5t-41.5 61.5t-15 75t15 75t41.5 61.5t61.5 42t75 15.5t75.5 -15.5t62 -42t42 -61.5t15.5 -75zM389 547q0 31 -12 59t-33 49t-49 33.5t-60 12.5t-59.5 -12.5t-48.5 -33.5t-33 -49t-12 -59
q0 -32 12 -59.5t33 -48t48.5 -32.5t59.5 -12t60 12t49 32.5t33 48t12 59.5zM270 447q-5 13 -4.5 26.5t-1.5 27.5t-7.5 22t-19.5 8h-33v-84h-45v204h83q13 0 26 -2t23.5 -7.5t16.5 -16t6 -27.5q0 -18 -9 -29.5t-24 -17.5q11 -5 17 -13t8.5 -18t3 -21t1.5 -21q1 -8 3 -14.5
t7 -16.5h-51zM268 592q0 17 -11 21.5t-27 4.5h-26v-54h26q17 0 27.5 5.5t10.5 22.5z" />
    <glyph glyph-name="macron" unicode="&#xaf;" horiz-adv-x="321" 
d="M-26 617v79h373v-79h-373z" />
    <glyph glyph-name="degree" unicode="&#xb0;" horiz-adv-x="462" 
d="M411 560q0 -38 -13.5 -70.5t-37.5 -56t-57 -36.5t-72 -13q-38 0 -71 13t-57 36.5t-38 56t-14 70.5t14 70t38 55.5t57 36.5t71 13q39 0 72 -13t57 -36.5t37.5 -55.5t13.5 -70zM327 560q0 44 -27 72.5t-69 28.5t-69 -28.5t-27 -72.5t27 -72.5t69 -28.5t69 28.5t27 72.5z
" />
    <glyph glyph-name="plusminus" unicode="&#xb1;" horiz-adv-x="690" 
d="M398 299v-164h-106v164h-233v99h233v167h106v-167h233v-99h-233zM59 0v99h572v-99h-572z" />
    <glyph glyph-name="twosuperior" unicode="&#xb2;" horiz-adv-x="484" 
d="M47 466v72l91 52q45 25 81.5 47t63 43t40.5 41.5t14 40.5q0 29 -23.5 48t-65.5 19q-45 0 -69 -20.5t-26 -53.5h-99q2 73 54 108t136 35q94 0 143.5 -35.5t49.5 -95.5q0 -28 -15.5 -54.5t-41.5 -51t-59 -45.5t-67 -39l-72 -39h262v-72h-397z" />
    <glyph glyph-name="threesuperior" unicode="&#xb3;" horiz-adv-x="484" 
d="M447 582q0 -33 -16 -56.5t-44 -38.5t-66 -22t-82 -7q-46 0 -82.5 7.5t-62 24t-39.5 43t-14 64.5h99q0 -20 9.5 -33.5t24 -21.5t32.5 -11.5t37 -3.5q51 0 78 17.5t27 44.5q0 33 -32 47t-87 14h-34v70h35q58 0 82 17t24 39q0 23 -23.5 38t-66.5 15q-38 0 -65.5 -14
t-29.5 -45h-97q1 36 16.5 60.5t41 39.5t58 21.5t68.5 6.5q51 0 88.5 -8.5t61.5 -24t36 -36.5t12 -46q0 -39 -28.5 -63.5t-75.5 -31.5v-2q53 -8 84 -33.5t31 -70.5z" />
    <glyph glyph-name="acute" unicode="&#xb4;" horiz-adv-x="321" 
d="M172 582h-108l113 140h152z" />
    <glyph glyph-name="mu" unicode="&#xb5;" horiz-adv-x="747" 
d="M543 0q0 2 -1 18t-2 33q-1 20 -2 45q-34 -62 -81 -88t-104 -26q-45 0 -83 14.5t-58 42.5v-232h-129v695h129v-276q0 -76 37 -117t112 -41q33 0 64 12t55.5 36.5t39 62t14.5 87.5v236h130v-392q0 -23 1 -54t3 -56h-125z" />
    <glyph glyph-name="paragraph" unicode="&#xb6;" horiz-adv-x="689" 
d="M478 0v638h-130v-638h-113v333q-51 0 -92 14t-69 38.5t-43 56.5t-15 68q0 45 15.5 83.5t46 67t75 45t103.5 16.5h335v-722h-113z" />
    <glyph glyph-name="periodcentered" unicode="&#xb7;" horiz-adv-x="373" 
d="M119 240v125h136v-125h-136z" />
    <glyph glyph-name="cedilla" unicode="&#xb8;" horiz-adv-x="321" 
d="M286 -128q0 -22 -12 -37.5t-31.5 -25t-44.5 -13.5t-51 -4q-25 0 -59.5 5.5t-62.5 15.5l18 45q19 -7 41.5 -11.5t44.5 -4.5t40 7.5t18 24.5q0 31 -49 31q-9 0 -19.5 -2t-24.5 -6l-21 25l69 87h60l-60 -69l2 -2q10 4 21.5 5.5t20.5 1.5q43 0 71.5 -20.5t28.5 -52.5z" />
    <glyph glyph-name="onesuperior" unicode="&#xb9;" horiz-adv-x="484" 
d="M224 466v337q-31 -23 -60.5 -36.5t-70.5 -26.5v80q40 12 76.5 30.5t66.5 38.5h84v-423h-96z" />
    <glyph glyph-name="ordmasculine" unicode="&#xba;" horiz-adv-x="498" 
d="M470 579q0 -36 -12.5 -66t-39.5 -52t-69 -34t-100 -12q-59 0 -100.5 12t-68.5 34t-39.5 52t-12.5 65t12.5 65t39.5 51.5t68.5 34t100.5 12.5q58 0 100 -12.5t69 -34t39.5 -51.5t12.5 -64zM368 573q0 54 -34 81.5t-85 27.5t-85 -27.5t-34 -81.5q0 -45 34 -72t85 -27
q50 0 84.5 27t34.5 72z" />
    <glyph glyph-name="guillemotright" unicode="&#xbb;" horiz-adv-x="567" 
d="M385 73h-111l118 194l-118 194h115l126 -194zM162 73h-110l117 194l-117 194h114l126 -194z" />
    <glyph glyph-name="onequarter" unicode="&#xbc;" horiz-adv-x="1110" 
d="M932 87v-87h-97v87h-268v88l243 242h122v-256h92v-74h-92zM269 -59h-86l565 840h86zM245 313v328q-29 -23 -59 -37t-72 -26v85q41 12 78.5 31t64.5 36h88v-417h-100zM835 343l-186 -182h186v182z" />
    <glyph glyph-name="onehalf" unicode="&#xbd;" horiz-adv-x="1110" 
d="M625 0v76q67 33 121 63t92 56.5t59 50.5t21 46q0 27 -26 44.5t-63 17.5q-45 0 -69.5 -20.5t-25.5 -53.5h-104q2 76 55 112t140 36q98 0 146.5 -37t48.5 -93q0 -30 -19.5 -60t-53.5 -58t-80 -54t-99 -48v-2h260v-76h-403zM259 -59h-86l565 840h86zM245 313v328
q-29 -23 -59 -37t-72 -26v85q41 12 78.5 31t64.5 36h88v-417h-100z" />
    <glyph glyph-name="threequarters" unicode="&#xbe;" horiz-adv-x="1110" 
d="M980 87v-87h-97v87h-268v88l243 242h122v-256h92v-74h-92zM349 -59h-86l564 840h87zM480 425q0 -32 -15.5 -55t-43.5 -38t-67.5 -22.5t-88.5 -7.5q-96 0 -146.5 32.5t-51.5 107.5h102q0 -20 9.5 -32.5t23.5 -20t31.5 -10.5t33.5 -3q47 0 79 14t32 40q0 32 -33 46.5
t-94 14.5h-30v74h30q33 0 55.5 5t36 12.5t19 17t5.5 19.5q0 19 -27 33.5t-66 14.5q-18 0 -34.5 -3.5t-29.5 -10t-21.5 -17.5t-8.5 -26h-100q1 34 16 59t40.5 41t58.5 23.5t70 7.5q106 0 154.5 -33.5t48.5 -83.5q0 -37 -26.5 -62t-75.5 -30v-2q55 -9 84.5 -35.5t29.5 -69.5z
M883 343l-186 -182h186v182z" />
    <glyph glyph-name="questiondown" unicode="&#xbf;" horiz-adv-x="643" 
d="M289 408v125h136v-125h-136zM535 -187q-48 -8 -99 -14.5t-99 -6.5q-46 0 -95 8t-89.5 29.5t-66.5 58.5t-26 95q0 53 32 95.5t95 90.5l84 63q14 11 21.5 22.5t7.5 27.5v67h115v-96q0 -25 -18.5 -44.5t-49.5 -44.5l-100 -81q-26 -20 -37.5 -45.5t-11.5 -50.5
q0 -27 13.5 -46t36.5 -31t52.5 -17.5t62.5 -5.5q43 0 88.5 7.5t83.5 20.5v-102z" />
    <glyph glyph-name="Agrave" unicode="&#xc0;" horiz-adv-x="922" 
d="M759 0l-84 173h-436l-85 -173h-150l375 722h166l373 -722h-159zM458 618l-169 -346h337zM445 770l-157 140h152l113 -140h-108z" />
    <glyph glyph-name="Aacute" unicode="&#xc1;" horiz-adv-x="922" 
d="M759 0l-84 173h-436l-85 -173h-150l375 722h166l373 -722h-159zM458 618l-169 -346h337zM468 770h-108l113 140h152z" />
    <glyph glyph-name="Acircumflex" unicode="&#xc2;" horiz-adv-x="922" 
d="M759 0l-84 173h-436l-85 -173h-150l375 722h166l373 -722h-159zM458 618l-169 -346h337zM547 771l-92 89l-93 -89h-102l122 140h145l122 -140h-102z" />
    <glyph glyph-name="Atilde" unicode="&#xc3;" horiz-adv-x="922" 
d="M759 0l-84 173h-436l-85 -173h-150l375 722h166l373 -722h-159zM458 618l-169 -346h337zM652 910q-2 -58 -26.5 -89t-78.5 -31q-23 0 -46.5 5.5t-46 12.5t-44 12.5t-40.5 5.5q-18 0 -28.5 -11t-14.5 -29h-65q1 25 6 47.5t16.5 39.5t30.5 27t47 10q22 0 45.5 -6.5
t46.5 -14t44 -13.5t39 -6q39 0 49 40h66v0z" />
    <glyph glyph-name="Adieresis" unicode="&#xc4;" horiz-adv-x="922" 
d="M759 0l-84 173h-436l-85 -173h-150l375 722h166l373 -722h-159zM458 618l-169 -346h337zM511 796v114h118v-114h-118zM284 796v114h118v-114h-118z" />
    <glyph glyph-name="Aring" unicode="&#xc5;" horiz-adv-x="922" 
d="M759 0l-84 173h-436l-85 -173h-150l375 722h166l373 -722h-159zM458 618l-169 -346h337zM571 846q0 -25 -9 -44t-25 -32t-36.5 -20t-44.5 -7t-45 7t-36.5 20t-25 32t-9.5 44q0 24 9.5 43t25 32.5t36.5 20.5t45 7t44.5 -7t36.5 -20.5t25 -32.5t9 -43zM512 846
q0 23 -16 39.5t-40 16.5t-40 -16.5t-16 -39.5t16 -39t40 -16t40 16t16 39z" />
    <glyph glyph-name="AE" unicode="&#xc6;" horiz-adv-x="1278" 
d="M716 0l-35 179h-409l-129 -179h-161l536 722h691v-105h-481l38 -196h418v-104h-391l41 -213h386v-104h-504zM591 628l-254 -349h321z" />
    <glyph glyph-name="Ccedilla" unicode="&#xc7;" horiz-adv-x="850" 
d="M572 -128q0 -22 -12 -37.5t-31.5 -25t-44.5 -13.5t-51 -4q-25 0 -59.5 5.5t-62.5 15.5l18 45q19 -7 41.5 -11.5t44.5 -4.5t40 7.5t18 24.5q0 31 -49 31q-9 0 -19.5 -2t-24.5 -6l-21 25l47 60q-86 6 -151.5 35t-109.5 78t-66.5 116.5t-22.5 149.5q0 76 24.5 145t75 121
t128 83t183.5 31q66 0 125 -15t104 -43.5t72.5 -70.5t29.5 -96h-150q-6 33 -22.5 56.5t-41.5 38t-56 21t-67 6.5q-60 0 -107.5 -18t-81.5 -53t-52 -86.5t-18 -118.5q0 -141 68.5 -209.5t187.5 -68.5q36 0 69.5 8t60 24.5t44.5 41t23 58.5h151q-6 -63 -34.5 -106.5
t-74.5 -71.5t-106 -41.5t-127 -15.5l-36 -41l2 -2q10 4 21.5 5.5t20.5 1.5q43 0 71.5 -20.5t28.5 -52.5z" />
    <glyph glyph-name="Egrave" unicode="&#xc8;" horiz-adv-x="734" 
d="M98 0v722h567v-104h-427v-197h401v-104h-401v-213h438v-104h-578zM377 770l-157 140h152l113 -140h-108z" />
    <glyph glyph-name="Eacute" unicode="&#xc9;" horiz-adv-x="734" 
d="M98 0v722h567v-104h-427v-197h401v-104h-401v-213h438v-104h-578zM400 770h-108l113 140h152z" />
    <glyph glyph-name="Ecircumflex" unicode="&#xca;" horiz-adv-x="734" 
d="M98 0v722h567v-104h-427v-197h401v-104h-401v-213h438v-104h-578zM479 771l-92 89l-93 -89h-102l122 140h145l122 -140h-102z" />
    <glyph glyph-name="Edieresis" unicode="&#xcb;" horiz-adv-x="734" 
d="M98 0v722h567v-104h-427v-197h401v-104h-401v-213h438v-104h-578zM443 796v114h118v-114h-118zM216 796v114h118v-114h-118z" />
    <glyph glyph-name="Igrave" unicode="&#xcc;" horiz-adv-x="336" 
d="M98 0v722h140v-722h-140zM159 770l-157 140h152l113 -140h-108z" />
    <glyph glyph-name="Iacute" unicode="&#xcd;" horiz-adv-x="336" 
d="M98 0v722h140v-722h-140zM182 770h-108l113 140h152z" />
    <glyph glyph-name="Icircumflex" unicode="&#xce;" horiz-adv-x="336" 
d="M98 0v722h140v-722h-140zM261 771l-92 89l-93 -89h-102l122 140h145l122 -140h-102z" />
    <glyph glyph-name="Idieresis" unicode="&#xcf;" horiz-adv-x="336" 
d="M98 0v722h140v-722h-140zM225 796v114h118v-114h-118zM-2 796v114h118v-114h-118z" />
    <glyph glyph-name="Eth" unicode="&#xd0;" horiz-adv-x="899" 
d="M843 363q0 -183 -109 -273t-310 -90h-326v329h-85v92h85v301h322q217 0 320 -88t103 -271zM697 362q0 68 -17.5 116.5t-54 80t-94 46.5t-136.5 15h-157v-199h209v-92h-209v-227h162q81 0 137.5 18t92 52t51.5 82t16 108z" />
    <glyph glyph-name="Ntilde" unicode="&#xd1;" horiz-adv-x="921" 
d="M631 0l-407 598v-598h-126v722h192l407 -598v598h126v-722h-192zM652 910q-2 -58 -26.5 -89t-78.5 -31q-23 0 -46.5 5.5t-46 12.5t-44 12.5t-40.5 5.5q-18 0 -28.5 -11t-14.5 -29h-65q1 25 6 47.5t16.5 39.5t30.5 27t47 10q22 0 45.5 -6.5t46.5 -14t44 -13.5t39 -6
q39 0 49 40h66v0z" />
    <glyph glyph-name="Ograve" unicode="&#xd2;" horiz-adv-x="940" 
d="M884 361q0 -72 -22.5 -140.5t-72 -121.5t-128.5 -85.5t-191 -32.5q-117 0 -196.5 32t-127.5 85t-69 121.5t-21 141.5q0 72 23 140.5t72.5 121.5t128.5 85.5t190 32.5q113 0 192 -31.5t128.5 -84t71.5 -121.5t22 -143zM738 361q0 64 -17.5 115.5t-51.5 87.5t-84 55
t-115 19q-63 0 -113 -20t-84.5 -56.5t-52.5 -87.5t-18 -113t17 -113t51 -87.5t84 -56.5t116 -20t116 20.5t83.5 57.5t51 88t17.5 111zM459 770l-157 140h152l113 -140h-108z" />
    <glyph glyph-name="Oacute" unicode="&#xd3;" horiz-adv-x="940" 
d="M884 361q0 -72 -22.5 -140.5t-72 -121.5t-128.5 -85.5t-191 -32.5q-117 0 -196.5 32t-127.5 85t-69 121.5t-21 141.5q0 72 23 140.5t72.5 121.5t128.5 85.5t190 32.5q113 0 192 -31.5t128.5 -84t71.5 -121.5t22 -143zM738 361q0 64 -17.5 115.5t-51.5 87.5t-84 55
t-115 19q-63 0 -113 -20t-84.5 -56.5t-52.5 -87.5t-18 -113t17 -113t51 -87.5t84 -56.5t116 -20t116 20.5t83.5 57.5t51 88t17.5 111zM482 770h-108l113 140h152z" />
    <glyph glyph-name="Ocircumflex" unicode="&#xd4;" horiz-adv-x="940" 
d="M884 361q0 -72 -22.5 -140.5t-72 -121.5t-128.5 -85.5t-191 -32.5q-117 0 -196.5 32t-127.5 85t-69 121.5t-21 141.5q0 72 23 140.5t72.5 121.5t128.5 85.5t190 32.5q113 0 192 -31.5t128.5 -84t71.5 -121.5t22 -143zM738 361q0 64 -17.5 115.5t-51.5 87.5t-84 55
t-115 19q-63 0 -113 -20t-84.5 -56.5t-52.5 -87.5t-18 -113t17 -113t51 -87.5t84 -56.5t116 -20t116 20.5t83.5 57.5t51 88t17.5 111zM561 771l-92 89l-93 -89h-102l122 140h145l122 -140h-102z" />
    <glyph glyph-name="Otilde" unicode="&#xd5;" horiz-adv-x="940" 
d="M884 361q0 -72 -22.5 -140.5t-72 -121.5t-128.5 -85.5t-191 -32.5q-117 0 -196.5 32t-127.5 85t-69 121.5t-21 141.5q0 72 23 140.5t72.5 121.5t128.5 85.5t190 32.5q113 0 192 -31.5t128.5 -84t71.5 -121.5t22 -143zM738 361q0 64 -17.5 115.5t-51.5 87.5t-84 55
t-115 19q-63 0 -113 -20t-84.5 -56.5t-52.5 -87.5t-18 -113t17 -113t51 -87.5t84 -56.5t116 -20t116 20.5t83.5 57.5t51 88t17.5 111zM666 910q-2 -58 -26.5 -89t-78.5 -31q-23 0 -46.5 5.5t-46 12.5t-44 12.5t-40.5 5.5q-18 0 -28.5 -11t-14.5 -29h-65q1 25 6 47.5
t16.5 39.5t30.5 27t47 10q22 0 45.5 -6.5t46.5 -14t44 -13.5t39 -6q39 0 49 40h66v0z" />
    <glyph glyph-name="Odieresis" unicode="&#xd6;" horiz-adv-x="940" 
d="M884 361q0 -72 -22.5 -140.5t-72 -121.5t-128.5 -85.5t-191 -32.5q-117 0 -196.5 32t-127.5 85t-69 121.5t-21 141.5q0 72 23 140.5t72.5 121.5t128.5 85.5t190 32.5q113 0 192 -31.5t128.5 -84t71.5 -121.5t22 -143zM738 361q0 64 -17.5 115.5t-51.5 87.5t-84 55
t-115 19q-63 0 -113 -20t-84.5 -56.5t-52.5 -87.5t-18 -113t17 -113t51 -87.5t84 -56.5t116 -20t116 20.5t83.5 57.5t51 88t17.5 111zM525 796v114h118v-114h-118zM298 796v114h118v-114h-118z" />
    <glyph glyph-name="multiply" unicode="&#xd7;" horiz-adv-x="690" 
d="M526 8l-180 181l-182 -181l-71 70l181 182l-181 181l71 71l182 -181l180 181l72 -71l-182 -181l182 -182z" />
    <glyph glyph-name="Oslash" unicode="&#xd8;" horiz-adv-x="940" 
d="M888 361q0 -72 -22.5 -140.5t-72 -121.5t-128.5 -85.5t-191 -32.5q-81 0 -142.5 15.5t-108.5 42.5l-84 -95l-41 39l79 89q-64 54 -90.5 130t-26.5 159q0 72 23 140.5t72.5 121.5t128.5 85.5t190 32.5q78 0 139.5 -15t108.5 -43l85 95l42 -38l-81 -90q63 -54 91.5 -129.5
t28.5 -159.5zM742 361q0 120 -60 192l-376 -421q32 -23 74 -35.5t94 -12.5q66 0 116 20.5t83.5 57.5t51 88t17.5 111zM641 591q-32 23 -74 35t-93 12q-63 0 -113 -20t-84.5 -56.5t-52.5 -87.5t-18 -113q0 -117 59 -190z" />
    <glyph glyph-name="Ugrave" unicode="&#xd9;" horiz-adv-x="893" 
d="M801 304q0 -83 -25.5 -144t-72 -100.5t-111.5 -59t-145 -19.5q-83 0 -149 18t-112 56t-70 97.5t-24 142.5v427h140v-426q0 -105 54 -158.5t161 -53.5q109 0 161.5 57.5t52.5 162.5v418h140v-418v0zM439 770l-157 140h152l113 -140h-108z" />
    <glyph glyph-name="Uacute" unicode="&#xda;" horiz-adv-x="893" 
d="M801 304q0 -83 -25.5 -144t-72 -100.5t-111.5 -59t-145 -19.5q-83 0 -149 18t-112 56t-70 97.5t-24 142.5v427h140v-426q0 -105 54 -158.5t161 -53.5q109 0 161.5 57.5t52.5 162.5v418h140v-418v0zM462 770h-108l113 140h152z" />
    <glyph glyph-name="Ucircumflex" unicode="&#xdb;" horiz-adv-x="893" 
d="M801 304q0 -83 -25.5 -144t-72 -100.5t-111.5 -59t-145 -19.5q-83 0 -149 18t-112 56t-70 97.5t-24 142.5v427h140v-426q0 -105 54 -158.5t161 -53.5q109 0 161.5 57.5t52.5 162.5v418h140v-418v0zM541 771l-92 89l-93 -89h-102l122 140h145l122 -140h-102z" />
    <glyph glyph-name="Udieresis" unicode="&#xdc;" horiz-adv-x="893" 
d="M801 304q0 -83 -25.5 -144t-72 -100.5t-111.5 -59t-145 -19.5q-83 0 -149 18t-112 56t-70 97.5t-24 142.5v427h140v-426q0 -105 54 -158.5t161 -53.5q109 0 161.5 57.5t52.5 162.5v418h140v-418v0zM505 796v114h118v-114h-118zM278 796v114h118v-114h-118z" />
    <glyph glyph-name="Yacute" unicode="&#xdd;" horiz-adv-x="810" 
d="M475 286v-286h-140v286l-337 436h176l239 -329l237 329h162zM420 770h-108l113 140h152z" />
    <glyph glyph-name="Thorn" unicode="&#xde;" horiz-adv-x="771" 
d="M729 375q0 -48 -16.5 -87.5t-50 -67t-85.5 -43t-123 -15.5h-216v-162h-140v722h140v-134h207q137 0 210.5 -53t73.5 -160zM583 376q0 58 -38.5 84t-116.5 26h-190v-222h186q80 0 119.5 27t39.5 85z" />
    <glyph glyph-name="germandbls" unicode="&#xdf;" horiz-adv-x="833" 
d="M793 150q0 -50 -21.5 -82.5t-56.5 -52t-79.5 -27t-90.5 -7.5q-115 0 -169 42t-57 124h134q3 -47 29.5 -66.5t71.5 -19.5q49 0 77 22t28 57q0 29 -21 46t-52.5 30t-68.5 24.5t-68.5 28t-52.5 41.5t-21 65q0 29 14.5 51t36 40t47 32.5t47 28.5t36 29t14.5 33
q0 37 -41.5 53.5t-107.5 16.5q-62 0 -102.5 -18t-63.5 -50.5t-32 -77t-9 -97.5v-416h-130v399q0 172 81.5 257t254.5 85q79 0 132 -13.5t84.5 -35t45 -49t13.5 -54.5q0 -33 -14.5 -56t-36 -41t-46.5 -31t-46.5 -25t-36 -24.5t-14.5 -28.5q0 -20 24 -33.5t63 -27.5l100 -37
q59 -22 82 -59t23 -76z" />
    <glyph glyph-name="agrave" unicode="&#xe0;" horiz-adv-x="694" 
d="M490 0q-1 6 -1.5 16t-1 21t-1 20.5t-1.5 15.5q-20 -28 -43.5 -45.5t-51 -28t-58.5 -14.5t-67 -4q-50 0 -90 11.5t-68 32.5t-43.5 51.5t-15.5 68.5q0 43 18.5 72t48.5 48t68.5 29t78.5 14.5t78 5t68 0.5h72v17q0 62 -35 86t-95 24q-63 0 -95.5 -21t-35.5 -55h-136
q4 46 29 76t62.5 48t83.5 25t92 7q57 0 105 -10t82.5 -33t53.5 -59.5t19 -88.5v-229q0 -9 0.5 -23.5t1 -29.5t1 -28t1.5 -20h-124zM480 236h-61q-30 0 -70.5 -2t-77 -11t-61.5 -27.5t-25 -51.5q0 -36 28.5 -58.5t89.5 -22.5q92 0 134.5 42t42.5 116v15zM337 582l-157 140
h152l113 -140h-108z" />
    <glyph glyph-name="aacute" unicode="&#xe1;" horiz-adv-x="694" 
d="M490 0q-1 6 -1.5 16t-1 21t-1 20.5t-1.5 15.5q-20 -28 -43.5 -45.5t-51 -28t-58.5 -14.5t-67 -4q-50 0 -90 11.5t-68 32.5t-43.5 51.5t-15.5 68.5q0 43 18.5 72t48.5 48t68.5 29t78.5 14.5t78 5t68 0.5h72v17q0 62 -35 86t-95 24q-63 0 -95.5 -21t-35.5 -55h-136
q4 46 29 76t62.5 48t83.5 25t92 7q57 0 105 -10t82.5 -33t53.5 -59.5t19 -88.5v-229q0 -9 0.5 -23.5t1 -29.5t1 -28t1.5 -20h-124zM480 236h-61q-30 0 -70.5 -2t-77 -11t-61.5 -27.5t-25 -51.5q0 -36 28.5 -58.5t89.5 -22.5q92 0 134.5 42t42.5 116v15zM360 582h-108
l113 140h152z" />
    <glyph glyph-name="acircumflex" unicode="&#xe2;" horiz-adv-x="694" 
d="M490 0q-1 6 -1.5 16t-1 21t-1 20.5t-1.5 15.5q-20 -28 -43.5 -45.5t-51 -28t-58.5 -14.5t-67 -4q-50 0 -90 11.5t-68 32.5t-43.5 51.5t-15.5 68.5q0 43 18.5 72t48.5 48t68.5 29t78.5 14.5t78 5t68 0.5h72v17q0 62 -35 86t-95 24q-63 0 -95.5 -21t-35.5 -55h-136
q4 46 29 76t62.5 48t83.5 25t92 7q57 0 105 -10t82.5 -33t53.5 -59.5t19 -88.5v-229q0 -9 0.5 -23.5t1 -29.5t1 -28t1.5 -20h-124zM480 236h-61q-30 0 -70.5 -2t-77 -11t-61.5 -27.5t-25 -51.5q0 -36 28.5 -58.5t89.5 -22.5q92 0 134.5 42t42.5 116v15zM439 582l-92 89
l-93 -89h-102l122 140h145l122 -140h-102z" />
    <glyph glyph-name="atilde" unicode="&#xe3;" horiz-adv-x="694" 
d="M490 0q-1 6 -1.5 16t-1 21t-1 20.5t-1.5 15.5q-20 -28 -43.5 -45.5t-51 -28t-58.5 -14.5t-67 -4q-50 0 -90 11.5t-68 32.5t-43.5 51.5t-15.5 68.5q0 43 18.5 72t48.5 48t68.5 29t78.5 14.5t78 5t68 0.5h72v17q0 62 -35 86t-95 24q-63 0 -95.5 -21t-35.5 -55h-136
q4 46 29 76t62.5 48t83.5 25t92 7q57 0 105 -10t82.5 -33t53.5 -59.5t19 -88.5v-229q0 -9 0.5 -23.5t1 -29.5t1 -28t1.5 -20h-124zM480 236h-61q-30 0 -70.5 -2t-77 -11t-61.5 -27.5t-25 -51.5q0 -36 28.5 -58.5t89.5 -22.5q92 0 134.5 42t42.5 116v15zM544 722
q-2 -58 -26.5 -89t-78.5 -31q-23 0 -46.5 5.5t-46 12.5t-44 12.5t-40.5 5.5q-18 0 -28.5 -11t-14.5 -29h-65q1 25 6 47.5t16.5 39.5t30.5 27t47 10q22 0 45.5 -6.5t46.5 -14t44 -13.5t39 -6q39 0 49 40h66v0z" />
    <glyph glyph-name="adieresis" unicode="&#xe4;" horiz-adv-x="694" 
d="M490 0q-1 6 -1.5 16t-1 21t-1 20.5t-1.5 15.5q-20 -28 -43.5 -45.5t-51 -28t-58.5 -14.5t-67 -4q-50 0 -90 11.5t-68 32.5t-43.5 51.5t-15.5 68.5q0 43 18.5 72t48.5 48t68.5 29t78.5 14.5t78 5t68 0.5h72v17q0 62 -35 86t-95 24q-63 0 -95.5 -21t-35.5 -55h-136
q4 46 29 76t62.5 48t83.5 25t92 7q57 0 105 -10t82.5 -33t53.5 -59.5t19 -88.5v-229q0 -9 0.5 -23.5t1 -29.5t1 -28t1.5 -20h-124zM480 236h-61q-30 0 -70.5 -2t-77 -11t-61.5 -27.5t-25 -51.5q0 -36 28.5 -58.5t89.5 -22.5q92 0 134.5 42t42.5 116v15zM403 608v114h118
v-114h-118zM176 608v114h118v-114h-118z" />
    <glyph glyph-name="aring" unicode="&#xe5;" horiz-adv-x="694" 
d="M490 0q-1 6 -1.5 16t-1 21t-1 20.5t-1.5 15.5q-20 -28 -43.5 -45.5t-51 -28t-58.5 -14.5t-67 -4q-50 0 -90 11.5t-68 32.5t-43.5 51.5t-15.5 68.5q0 43 18.5 72t48.5 48t68.5 29t78.5 14.5t78 5t68 0.5h72v17q0 62 -35 86t-95 24q-63 0 -95.5 -21t-35.5 -55h-136
q4 46 29 76t62.5 48t83.5 25t92 7q57 0 105 -10t82.5 -33t53.5 -59.5t19 -88.5v-229q0 -9 0.5 -23.5t1 -29.5t1 -28t1.5 -20h-124zM480 236h-61q-30 0 -70.5 -2t-77 -11t-61.5 -27.5t-25 -51.5q0 -36 28.5 -58.5t89.5 -22.5q92 0 134.5 42t42.5 116v15zM464 661
q0 -25 -9 -44t-25 -32t-36.5 -20t-44.5 -7t-45 7t-36.5 20t-25 32t-9.5 44q0 24 9.5 43t25 32.5t36.5 20.5t45 7t44.5 -7t36.5 -20.5t25 -32.5t9 -43zM405 661q0 23 -16 39.5t-40 16.5t-40 -16.5t-16 -39.5t16 -39t40 -16t40 16t16 39z" />
    <glyph glyph-name="ae" unicode="&#xe6;" horiz-adv-x="1115" 
d="M617 221q4 -71 46.5 -115.5t117.5 -44.5q54 0 93 25.5t46 65.5h138q-6 -44 -31 -76t-62 -53t-83 -31.5t-95 -10.5q-97 0 -156 30.5t-88 82.5q-22 -33 -50 -55t-61.5 -34.5t-71.5 -18t-78 -5.5q-66 0 -112 12t-75 33.5t-42 50.5t-13 63q0 51 26.5 82t70.5 48t100 23t116 6
h141v21q0 63 -39 92t-109 29q-66 0 -98 -22t-39 -62h-136q5 45 29.5 76.5t60.5 51t80.5 28t89.5 8.5q88 0 144 -21t90 -76q35 48 92 72.5t126 24.5q70 0 123 -19t89 -54t54 -84t18 -109v-34h-452zM931 299q0 36 -12.5 62.5t-33 44.5t-48.5 26.5t-59 8.5q-33 0 -61.5 -10
t-50.5 -28t-34.5 -44.5t-13.5 -59.5h313zM350 221q-88 0 -132 -22t-44 -60t35.5 -57.5t90.5 -19.5q86 0 138.5 39t55.5 120h-144z" />
    <glyph glyph-name="ccedilla" unicode="&#xe7;" horiz-adv-x="668" 
d="M482 -128q0 -22 -12 -37.5t-31.5 -25t-44.5 -13.5t-51 -4q-25 0 -59.5 5.5t-62.5 15.5l18 45q19 -7 41.5 -11.5t44.5 -4.5t40 7.5t18 24.5q0 31 -49 31q-9 0 -19.5 -2t-24.5 -6l-21 25l48 61q-59 4 -108.5 23.5t-85 53t-55.5 81t-20 109.5q0 67 23.5 117.5t64.5 84.5
t98 51.5t124 17.5q48 0 94.5 -9.5t84.5 -31t63.5 -57t31.5 -87.5h-137q-8 52 -43.5 77.5t-92.5 25.5q-37 0 -68.5 -12.5t-55 -36.5t-36.5 -59t-13 -80q0 -39 10.5 -73.5t31.5 -60t52.5 -40t74.5 -14.5q62 0 101 28.5t42 79.5h137q-5 -45 -26 -79.5t-55.5 -58.5t-80 -36.5
t-99.5 -14.5l-36 -42l2 -2q10 4 21.5 5.5t20.5 1.5q43 0 71.5 -20.5t28.5 -52.5z" />
    <glyph glyph-name="egrave" unicode="&#xe8;" horiz-adv-x="691" 
d="M180 219q6 -72 47 -115t120 -43q64 0 99.5 23t49.5 68h137q-8 -49 -35 -82t-66 -52.5t-86 -28t-96 -8.5q-69 0 -125 16.5t-95 49.5t-60.5 82t-21.5 113q0 70 22.5 122.5t62.5 87t96 52t123 17.5q146 0 219.5 -71t73.5 -200v-31h-465zM507 299q-1 39 -14.5 66t-35 44
t-49.5 24.5t-58 7.5q-72 0 -114 -36.5t-52 -105.5h323zM339 582l-157 140h152l113 -140h-108z" />
    <glyph glyph-name="eacute" unicode="&#xe9;" horiz-adv-x="691" 
d="M180 219q6 -72 47 -115t120 -43q64 0 99.5 23t49.5 68h137q-8 -49 -35 -82t-66 -52.5t-86 -28t-96 -8.5q-69 0 -125 16.5t-95 49.5t-60.5 82t-21.5 113q0 70 22.5 122.5t62.5 87t96 52t123 17.5q146 0 219.5 -71t73.5 -200v-31h-465zM507 299q-1 39 -14.5 66t-35 44
t-49.5 24.5t-58 7.5q-72 0 -114 -36.5t-52 -105.5h323zM362 582h-108l113 140h152z" />
    <glyph glyph-name="ecircumflex" unicode="&#xea;" horiz-adv-x="691" 
d="M180 219q6 -72 47 -115t120 -43q64 0 99.5 23t49.5 68h137q-8 -49 -35 -82t-66 -52.5t-86 -28t-96 -8.5q-69 0 -125 16.5t-95 49.5t-60.5 82t-21.5 113q0 70 22.5 122.5t62.5 87t96 52t123 17.5q146 0 219.5 -71t73.5 -200v-31h-465zM507 299q-1 39 -14.5 66t-35 44
t-49.5 24.5t-58 7.5q-72 0 -114 -36.5t-52 -105.5h323zM441 582l-92 89l-93 -89h-102l122 140h145l122 -140h-102z" />
    <glyph glyph-name="edieresis" unicode="&#xeb;" horiz-adv-x="691" 
d="M180 219q6 -72 47 -115t120 -43q64 0 99.5 23t49.5 68h137q-8 -49 -35 -82t-66 -52.5t-86 -28t-96 -8.5q-69 0 -125 16.5t-95 49.5t-60.5 82t-21.5 113q0 70 22.5 122.5t62.5 87t96 52t123 17.5q146 0 219.5 -71t73.5 -200v-31h-465zM507 299q-1 39 -14.5 66t-35 44
t-49.5 24.5t-58 7.5q-72 0 -114 -36.5t-52 -105.5h323zM405 608v114h118v-114h-118zM178 608v114h118v-114h-118z" />
    <glyph glyph-name="igrave" unicode="&#xec;" horiz-adv-x="298" 
d="M84 0v502h130v-502h-130zM139 582l-157 140h152l113 -140h-108z" />
    <glyph glyph-name="iacute" unicode="&#xed;" horiz-adv-x="298" 
d="M84 0v502h130v-502h-130zM162 582h-108l113 140h152z" />
    <glyph glyph-name="icircumflex" unicode="&#xee;" horiz-adv-x="298" 
d="M84 0v502h130v-502h-130zM241 582l-92 89l-93 -89h-102l122 140h145l122 -140h-102z" />
    <glyph glyph-name="idieresis" unicode="&#xef;" horiz-adv-x="298" 
d="M84 0v502h130v-502h-130zM205 608v114h118v-114h-118zM-22 608v114h118v-114h-118z" />
    <glyph glyph-name="eth" unicode="&#xf0;" horiz-adv-x="758" 
d="M710 257q0 -70 -23.5 -122t-67 -86t-105 -51t-137.5 -17q-79 0 -140.5 19t-103.5 53.5t-63.5 83.5t-21.5 110q0 56 21 103t58.5 80.5t90 52.5t115.5 19q57 0 103 -13t88 -45l2 2q-17 23 -41 46.5t-50.5 44.5t-54 37.5t-49.5 27.5l-115 -63l-47 41l94 52q-24 11 -51 19.5
t-53 13.5l92 74q35 -10 69 -21t63 -25l118 65l47 -41l-106 -57q61 -35 111 -77.5t84.5 -93.5t53.5 -109t19 -123zM572 239q0 46 -15.5 80t-42.5 56.5t-63 33.5t-77 11q-40 0 -74.5 -12.5t-59.5 -36t-39.5 -57t-14.5 -75.5q0 -39 14.5 -71.5t40 -56t61 -36t77.5 -12.5
q43 0 78.5 12.5t61 36t39.5 56t14 71.5z" />
    <glyph glyph-name="ntilde" unicode="&#xf1;" horiz-adv-x="757" 
d="M543 0v274q0 81 -39.5 120.5t-108.5 39.5q-37 0 -70 -11.5t-57.5 -36t-39 -62.5t-14.5 -92v-232h-130v392q0 27 -1 54t-3 56h124l5 -90q9 11 25 29.5t41.5 36t62.5 30.5t89 13q117 0 181.5 -59t64.5 -177v-285h-130zM575 722q-2 -58 -26.5 -89t-78.5 -31q-23 0 -46.5 5.5
t-46 12.5t-44 12.5t-40.5 5.5q-18 0 -28.5 -11t-14.5 -29h-65q1 25 6 47.5t16.5 39.5t30.5 27t47 10q22 0 45.5 -6.5t46.5 -14t44 -13.5t39 -6q39 0 49 40h66v0z" />
    <glyph glyph-name="ograve" unicode="&#xf2;" horiz-adv-x="758" 
d="M710 251q0 -58 -19 -107.5t-59.5 -85.5t-103 -56.5t-149.5 -20.5q-88 0 -150.5 20t-102.5 56t-59 85.5t-19 108.5q0 55 20 104.5t61 86t103.5 58t146.5 21.5q88 0 150.5 -20.5t102.5 -56.5t59 -85.5t19 -107.5zM572 251q0 88 -49.5 138t-143.5 50q-91 0 -142 -50
t-51 -138q0 -87 50.5 -137.5t142.5 -50.5q46 0 81.5 14t60.5 39t38 59.5t13 75.5zM366 582l-157 140h152l113 -140h-108z" />
    <glyph glyph-name="oacute" unicode="&#xf3;" horiz-adv-x="758" 
d="M710 251q0 -58 -19 -107.5t-59.5 -85.5t-103 -56.5t-149.5 -20.5q-88 0 -150.5 20t-102.5 56t-59 85.5t-19 108.5q0 55 20 104.5t61 86t103.5 58t146.5 21.5q88 0 150.5 -20.5t102.5 -56.5t59 -85.5t19 -107.5zM572 251q0 88 -49.5 138t-143.5 50q-91 0 -142 -50
t-51 -138q0 -87 50.5 -137.5t142.5 -50.5q46 0 81.5 14t60.5 39t38 59.5t13 75.5zM389 582h-108l113 140h152z" />
    <glyph glyph-name="ocircumflex" unicode="&#xf4;" horiz-adv-x="758" 
d="M710 251q0 -58 -19 -107.5t-59.5 -85.5t-103 -56.5t-149.5 -20.5q-88 0 -150.5 20t-102.5 56t-59 85.5t-19 108.5q0 55 20 104.5t61 86t103.5 58t146.5 21.5q88 0 150.5 -20.5t102.5 -56.5t59 -85.5t19 -107.5zM572 251q0 88 -49.5 138t-143.5 50q-91 0 -142 -50
t-51 -138q0 -87 50.5 -137.5t142.5 -50.5q46 0 81.5 14t60.5 39t38 59.5t13 75.5zM468 582l-92 89l-93 -89h-102l122 140h145l122 -140h-102z" />
    <glyph glyph-name="otilde" unicode="&#xf5;" horiz-adv-x="758" 
d="M710 251q0 -58 -19 -107.5t-59.5 -85.5t-103 -56.5t-149.5 -20.5q-88 0 -150.5 20t-102.5 56t-59 85.5t-19 108.5q0 55 20 104.5t61 86t103.5 58t146.5 21.5q88 0 150.5 -20.5t102.5 -56.5t59 -85.5t19 -107.5zM572 251q0 88 -49.5 138t-143.5 50q-91 0 -142 -50
t-51 -138q0 -87 50.5 -137.5t142.5 -50.5q46 0 81.5 14t60.5 39t38 59.5t13 75.5zM573 722q-2 -58 -26.5 -89t-78.5 -31q-23 0 -46.5 5.5t-46 12.5t-44 12.5t-40.5 5.5q-18 0 -28.5 -11t-14.5 -29h-65q1 25 6 47.5t16.5 39.5t30.5 27t47 10q22 0 45.5 -6.5t46.5 -14
t44 -13.5t39 -6q39 0 49 40h66v0z" />
    <glyph glyph-name="odieresis" unicode="&#xf6;" horiz-adv-x="758" 
d="M710 251q0 -58 -19 -107.5t-59.5 -85.5t-103 -56.5t-149.5 -20.5q-88 0 -150.5 20t-102.5 56t-59 85.5t-19 108.5q0 55 20 104.5t61 86t103.5 58t146.5 21.5q88 0 150.5 -20.5t102.5 -56.5t59 -85.5t19 -107.5zM572 251q0 88 -49.5 138t-143.5 50q-91 0 -142 -50
t-51 -138q0 -87 50.5 -137.5t142.5 -50.5q46 0 81.5 14t60.5 39t38 59.5t13 75.5zM432 608v114h118v-114h-118zM205 608v114h118v-114h-118z" />
    <glyph glyph-name="divide" unicode="&#xf7;" horiz-adv-x="690" 
d="M59 209v99h572v-99h-572zM290 386v114h109v-114h-109zM290 15v114h109v-114h-109z" />
    <glyph glyph-name="oslash" unicode="&#xf8;" horiz-adv-x="758" 
d="M710 251q0 -58 -19 -107.5t-59.5 -85.5t-103 -56.5t-149.5 -20.5q-55 0 -99.5 8.5t-79.5 24.5l-79 -86l-36 34l69 76q-56 38 -81 92.5t-25 120.5q0 55 18.5 104.5t58.5 86t103 58t151 21.5q107 0 181 -33l77 85l36 -34l-68 -76q54 -36 79.5 -91t25.5 -121zM572 251
q0 78 -44 127l-259 -286q23 -14 50.5 -21.5t59.5 -7.5q45 0 81 14t61 39t38 59.5t13 75.5zM490 410q-23 14 -50.5 21.5t-60.5 7.5q-45 0 -81 -14t-61 -39t-38 -59.5t-13 -75.5q0 -38 11 -71t34 -57z" />
    <glyph glyph-name="ugrave" unicode="&#xf9;" horiz-adv-x="759" 
d="M553 0q0 2 -0.5 15.5t-1.5 30.5q-1 19 -2 43q-42 -56 -95 -82t-124 -26q-126 0 -185.5 60.5t-59.5 175.5v285h130v-272q0 -78 35 -120.5t113 -42.5q34 0 67 11.5t58 36.5t40.5 63t15.5 92v232h130v-392q0 -27 1 -54t3 -56h-125zM366 582l-157 140h152l113 -140h-108z" />
    <glyph glyph-name="uacute" unicode="&#xfa;" horiz-adv-x="759" 
d="M553 0q0 2 -0.5 15.5t-1.5 30.5q-1 19 -2 43q-42 -56 -95 -82t-124 -26q-126 0 -185.5 60.5t-59.5 175.5v285h130v-272q0 -78 35 -120.5t113 -42.5q34 0 67 11.5t58 36.5t40.5 63t15.5 92v232h130v-392q0 -27 1 -54t3 -56h-125zM389 582h-108l113 140h152z" />
    <glyph glyph-name="ucircumflex" unicode="&#xfb;" horiz-adv-x="759" 
d="M553 0q0 2 -0.5 15.5t-1.5 30.5q-1 19 -2 43q-42 -56 -95 -82t-124 -26q-126 0 -185.5 60.5t-59.5 175.5v285h130v-272q0 -78 35 -120.5t113 -42.5q34 0 67 11.5t58 36.5t40.5 63t15.5 92v232h130v-392q0 -27 1 -54t3 -56h-125zM468 582l-92 89l-93 -89h-102l122 140h145
l122 -140h-102z" />
    <glyph glyph-name="udieresis" unicode="&#xfc;" horiz-adv-x="759" 
d="M553 0q0 2 -0.5 15.5t-1.5 30.5q-1 19 -2 43q-42 -56 -95 -82t-124 -26q-126 0 -185.5 60.5t-59.5 175.5v285h130v-272q0 -78 35 -120.5t113 -42.5q34 0 67 11.5t58 36.5t40.5 63t15.5 92v232h130v-392q0 -27 1 -54t3 -56h-125zM432 608v114h118v-114h-118zM205 608v114
h118v-114h-118z" />
    <glyph glyph-name="yacute" unicode="&#xfd;" horiz-adv-x="674" 
d="M316 -192h-143l106 191l-274 503h150l196 -393l185 393h138zM360 582h-108l113 140h152z" />
    <glyph glyph-name="thorn" unicode="&#xfe;" horiz-adv-x="761" 
d="M713 250q0 -62 -22 -111.5t-60 -84.5t-89.5 -54t-109.5 -19q-137 0 -218 85v-258h-130v914h130v-293q24 24 48 41.5t50.5 29t56 16.5t64.5 5q57 0 108 -19t89.5 -54.5t60.5 -85.5t22 -112zM575 250q0 42 -12.5 76t-36 59t-56.5 38.5t-75 13.5q-40 0 -73 -13t-57 -37
t-37.5 -58t-13.5 -77q0 -44 13.5 -78.5t37.5 -58.5t57 -37t73 -13t73 13t57 37t37 58t13 77z" />
    <glyph glyph-name="ydieresis" unicode="&#xff;" horiz-adv-x="674" 
d="M316 -192h-143l106 191l-274 503h150l196 -393l185 393h138zM403 608v114h118v-114h-118zM176 608v114h118v-114h-118z" />
    <glyph glyph-name=".null" horiz-adv-x="567" 
 />
    <glyph glyph-name="grave.cap" horiz-adv-x="321" 
d="M149 770l-157 140h152l113 -140h-108z" />
    <glyph glyph-name="acute.cap" horiz-adv-x="321" 
d="M172 770h-108l113 140h152z" />
    <glyph glyph-name="circumflex.cap" horiz-adv-x="321" 
d="M251 771l-92 89l-93 -89h-102l122 140h145l122 -140h-102z" />
    <glyph glyph-name="caron.cap" horiz-adv-x="321" 
d="M66 911l92 -89l93 89h102l-122 -140h-145l-122 140h102z" />
    <glyph glyph-name="caron.alt" horiz-adv-x="298" 
d="M171 477h-98l43 245h132z" />
    <glyph glyph-name="tilde.cap" horiz-adv-x="321" 
d="M356 910q-2 -58 -26.5 -89t-78.5 -31q-23 0 -46.5 5.5t-46 12.5t-44 12.5t-40.5 5.5q-18 0 -28.5 -11t-14.5 -29h-65q1 25 6 47.5t16.5 39.5t30.5 27t47 10q22 0 45.5 -6.5t46.5 -14t44 -13.5t39 -6q39 0 49 40h66v0z" />
    <glyph glyph-name="dieresis.cap" horiz-adv-x="321" 
d="M215 796v114h118v-114h-118zM-12 796v114h118v-114h-118z" />
    <glyph glyph-name="macron.cap" horiz-adv-x="321" 
d="M-26 813v79h373v-79h-373z" />
    <glyph glyph-name="breve.cap" horiz-adv-x="321" 
d="M345 910q-12 -65 -55.5 -104t-128.5 -39t-129 39t-56 104h64q17 -37 49 -53t72 -16q39 0 71 16t49 53h64v0z" />
    <glyph glyph-name="ring.cap" horiz-adv-x="321" 
d="M276 846q0 -25 -9 -44t-25 -32t-36.5 -20t-44.5 -7t-45 7t-36.5 20t-25 32t-9.5 44q0 24 9.5 43t25 32.5t36.5 20.5t45 7t44.5 -7t36.5 -20.5t25 -32.5t9 -43zM217 846q0 23 -16 39.5t-40 16.5t-40 -16.5t-16 -39.5t16 -39t40 -16t40 16t16 39z" />
    <glyph glyph-name="hungarumlaut.cap" horiz-adv-x="321" 
d="M290 770h-108l114 140h152zM54 770h-108l113 140h152z" />
    <glyph glyph-name="dotaccent.cap" horiz-adv-x="321" 
d="M101 796v114h119v-114h-119z" />
    <glyph glyph-name="commaaccent" horiz-adv-x="298" 
d="M128 -212h-98l54 164h127z" />
    <glyph glyph-name="commaaccent.alt" horiz-adv-x="760" 
d="M377 722h95l-48 -140h-122z" />
    <glyph glyph-name="exclam.sc" horiz-adv-x="402" 
d="M251 163h-100l-19 379h139zM138 0v105h126v-105h-126z" />
    <glyph glyph-name="dollar.sc" horiz-adv-x="628" 
d="M344 554q122 -5 178 -45.5t61 -115.5h-126q-5 38 -32.5 57.5t-80.5 24.5v-155l74 -13q85 -15 133 -48t48 -102q0 -42 -19 -73t-53 -51.5t-81 -31t-102 -12.5v-74h-50v73q-75 2 -124.5 15.5t-80 36.5t-44 55.5t-15.5 73.5h129q3 -51 35 -75t100 -27v164l-70 12
q-41 7 -74 18t-57 28t-37 41.5t-13 57.5q0 40 17.5 70t50.5 51t79.5 32t103.5 13v64h50v-64zM344 222v-154q67 4 96.5 24t29.5 54q0 32 -27 48t-79 25zM172 402q0 -25 18.5 -40t67.5 -25l36 -7v145q-60 -2 -91 -21.5t-31 -51.5z" />
    <glyph glyph-name="percent.sc" horiz-adv-x="868" 
d="M830 130q0 -68 -41.5 -105.5t-121.5 -37.5q-79 0 -120.5 38t-41.5 105q0 66 41.5 105t120.5 39q80 0 121.5 -38.5t41.5 -105.5zM250 -39h-82l452 621h81zM741 130q0 39 -18 65t-56 26t-55.5 -26.5t-17.5 -64.5t18 -64t55 -26q38 0 56 26t18 64zM363 412q0 -68 -41 -106
t-121 -38q-79 0 -121 38t-42 106q0 66 42 104.5t121 38.5q80 0 121 -38.5t41 -104.5zM274 411q0 39 -17.5 65t-55.5 26t-55.5 -26t-17.5 -65q0 -38 18 -63.5t55 -25.5q38 0 55.5 25.5t17.5 63.5z" />
    <glyph glyph-name="ampersand.sc" horiz-adv-x="732" 
d="M620 251v-251h-315q-44 0 -90.5 5t-85 21.5t-63.5 47t-25 80.5q0 30 11 53t30 40.5t43.5 29.5t51.5 18q-45 11 -77 40t-32 81q0 39 19 66t50.5 44.5t72 25.5t82.5 8q32 0 66 -2t69 -7v-77q-30 5 -55 7.5t-51 2.5q-24 0 -47 -3t-41.5 -11.5t-29.5 -23.5t-11 -39
q0 -26 15 -41.5t37.5 -23.5t49 -10t49.5 -2h160v107h117v-107h108v-79h-108zM503 251h-169q-27 0 -56 -2t-53.5 -10t-40 -25t-15.5 -48q0 -30 14.5 -47.5t38.5 -26.5t54.5 -11.5t62.5 -2.5h164v173z" />
    <glyph glyph-name="zero.sc" horiz-adv-x="628" 
d="M585 278q0 -142 -69 -218.5t-202 -76.5q-126 0 -198.5 73t-72.5 222q0 65 19 117.5t54 89t85.5 56t112.5 19.5q68 0 119 -19.5t84.5 -56.5t50.5 -89t17 -117zM459 278q0 94 -33 149.5t-112 55.5q-38 0 -65 -15t-44 -42.5t-25.5 -65t-8.5 -82.5q0 -106 32.5 -161.5
t110.5 -55.5t111.5 56t33.5 161z" />
    <glyph glyph-name="one.sc" horiz-adv-x="628" 
d="M300 0v434q-33 -22 -75.5 -40.5t-91.5 -33.5v92q51 14 96.5 37.5t89.5 52.5h105v-542h-124z" />
    <glyph glyph-name="two.sc" horiz-adv-x="628" 
d="M54 0v85l166 97q58 34 98.5 61t65.5 51.5t36 48t11 49.5q0 45 -32.5 67.5t-81.5 22.5q-56 0 -88 -25.5t-35 -68.5h-125q1 42 20 74t52 54t78 33t97 11q118 0 180 -45t62 -122q0 -36 -15.5 -67.5t-44 -61t-68.5 -58t-89 -56.5l-119 -70h345v-80h-513z" />
    <glyph glyph-name="three.sc" horiz-adv-x="628" 
d="M569 148q0 -41 -20 -72t-55.5 -52t-84 -31.5t-105.5 -10.5q-117 0 -185.5 39t-70.5 127h128q0 -24 10.5 -40.5t28 -27.5t41 -16t49.5 -5q60 0 98 22.5t38 66.5q0 48 -39 70.5t-107 22.5h-50v78h50q36 0 61.5 7t41 19t23 27t7.5 31q0 38 -32 59t-83 21q-53 0 -85 -19
t-35 -57h-126q1 38 20.5 67t53 48t78 28.5t95.5 9.5q63 0 108.5 -12t74.5 -32.5t43 -48t14 -57.5q0 -45 -31 -80t-89 -49q28 -5 53 -15t43 -26t28.5 -38.5t10.5 -53.5z" />
    <glyph glyph-name="four.sc" horiz-adv-x="628" 
d="M494 124v-124h-119v124h-338v94l317 324h140v-342h114v-76h-114zM376 451l-241 -251h241v251z" />
    <glyph glyph-name="five.sc" horiz-adv-x="628" 
d="M572 177q0 -49 -21 -85.5t-57 -60.5t-82.5 -36t-97.5 -12q-47 0 -92 7.5t-81 26t-58 49t-22 75.5h127q3 -43 37.5 -62.5t84.5 -19.5q66 0 100.5 32t34.5 84q0 54 -36.5 81t-92.5 27q-45 0 -77 -17t-46 -50h-120l21 326h442v-79h-328l-13 -152q28 23 65.5 35t88.5 12
q42 0 82.5 -10.5t71.5 -32t50 -56t19 -82.5z" />
    <glyph glyph-name="six.sc" horiz-adv-x="628" 
d="M582 174q0 -44 -20 -79.5t-54.5 -60.5t-81 -38.5t-98.5 -13.5q-80 0 -132.5 22t-83.5 59.5t-43.5 88.5t-12.5 109q0 69 16.5 124.5t50 94t85.5 59.5t124 21q62 0 105.5 -11.5t71.5 -32t42 -48.5t16 -60h-125q-11 76 -109 76q-40 0 -68 -15t-46 -41t-27.5 -61t-10.5 -75
q25 29 67 46t101 17q47 0 89 -11.5t74 -34t51 -56.5t19 -79zM455 171q0 53 -37.5 80.5t-95.5 27.5q-27 0 -51 -8t-42 -22t-28 -34.5t-10 -44.5q0 -47 34.5 -79t96.5 -32q30 0 54.5 8.5t42 23.5t27 35.5t9.5 44.5z" />
    <glyph glyph-name="seven.sc" horiz-adv-x="628" 
d="M285 0h-144l290 460h-369v82h497v-84z" />
    <glyph glyph-name="eight.sc" horiz-adv-x="628" 
d="M582 147q0 -44 -23.5 -75t-62 -50.5t-86 -29t-95.5 -9.5q-51 0 -99.5 8.5t-86 28t-60 50.5t-22.5 76q0 26 11 48.5t29.5 40.5t43.5 30t53 18q-54 12 -86.5 46t-32.5 74q0 41 22 70.5t57 49t80 28.5t91 9q48 0 93 -8.5t79.5 -27.5t55.5 -49t21 -72q0 -47 -35 -78t-86 -42
q28 -6 53.5 -17t44.5 -27.5t30 -39.5t11 -52zM440 400q0 21 -10 37t-27 26.5t-40 15.5t-48 5t-48 -5.5t-40.5 -16t-28 -26t-10.5 -36.5q0 -20 10 -35t27.5 -25t40.5 -15.5t49 -5.5q25 0 47.5 5.5t40 16t27.5 25.5t10 34zM458 152q0 42 -38.5 66.5t-103.5 24.5
q-31 0 -57 -6.5t-45.5 -18.5t-30.5 -29t-11 -38q0 -47 40 -69.5t103 -22.5q30 0 56 6t45.5 18t30.5 29.5t11 39.5z" />
    <glyph glyph-name="nine.sc" horiz-adv-x="628" 
d="M574 287q0 -68 -15 -124.5t-48 -96.5t-85 -62t-125 -22q-60 0 -104 11t-73 31t-44 48.5t-18 63.5h125q9 -77 116 -77q41 0 68.5 15.5t44 42.5t24 63t9.5 77q-28 -33 -73.5 -48.5t-100.5 -15.5q-45 0 -86 10.5t-72 33t-49.5 56t-18.5 80.5q0 43 20 77.5t54.5 59t81 37.5
t98.5 13q73 0 124.5 -19t84 -54t47.5 -86t15 -114zM438 375q0 46 -32 77.5t-99 31.5q-32 0 -56.5 -9t-41.5 -24t-25.5 -35t-8.5 -41q0 -50 35 -78t97 -28t96.5 31.5t34.5 74.5z" />
    <glyph glyph-name="question.sc" horiz-adv-x="556" 
d="M499 423q0 -22 -7 -41t-22.5 -37.5t-40.5 -38t-60 -41.5q-20 -13 -32.5 -22.5t-19 -18.5t-8.5 -18.5t-2 -22.5v-20h-112v23q0 19 3 34.5t12 29t25 27.5t42 31q31 20 50 35.5t29 28t13 23.5t3 22q0 19 -10 32t-28 20.5t-42 11t-52 3.5q-32 0 -69.5 -5t-72.5 -16v81
q40 8 80.5 12t79.5 4q50 0 94 -8t76.5 -24.5t51.5 -42.5t19 -62zM188 0v109h125v-109h-125z" />
    <glyph glyph-name="a.sc" horiz-adv-x="775" 
d="M558 130h-348l-71 -130h-135l311 542h148l308 -542h-143zM252 208h264l-131 244z" />
    <glyph glyph-name="b.sc" horiz-adv-x="701" 
d="M651 154q0 -32 -13 -60t-41.5 -49t-73.5 -33t-110 -12h-326v542h309q121 0 176 -35.5t55 -101.5q0 -46 -29.5 -76.5t-85.5 -45.5q65 -11 102 -42t37 -87zM496 391q0 37 -28 55t-97 18h-156v-147h168q54 0 83.5 16.5t29.5 57.5zM519 161q0 43 -34.5 62t-94.5 19h-175v-163
h180q124 0 124 82z" />
    <glyph glyph-name="c.sc" horiz-adv-x="729" 
d="M685 163q-5 -50 -30.5 -85t-66.5 -56.5t-94.5 -31t-113.5 -9.5q-158 0 -244 74.5t-86 215.5q0 63 22 116.5t65.5 92t107 60t146.5 21.5q52 0 102.5 -10t90 -31t65 -54t28.5 -79h-137q-10 49 -50.5 70t-100.5 21q-100 0 -153 -56t-53 -150q0 -100 50.5 -153.5t151.5 -53.5
q30 0 57 5.5t48.5 17.5t36.5 30.5t20 44.5h138z" />
    <glyph glyph-name="d.sc" horiz-adv-x="769" 
d="M718 275q0 -70 -23.5 -122t-68.5 -86t-109.5 -50.5t-146.5 -16.5h-283v542h284q169 0 258 -63.5t89 -203.5zM584 274q0 100 -58 143t-179 43h-130v-378h125q125 0 183.5 47t58.5 145z" />
    <glyph glyph-name="e.sc" horiz-adv-x="627" 
d="M87 0v542h481v-83h-351v-139h331v-83h-331v-153h358v-84h-488z" />
    <glyph glyph-name="f.sc" horiz-adv-x="583" 
d="M217 459v-146h310v-83h-310v-230h-130v542h457v-83h-327z" />
    <glyph glyph-name="g.sc" horiz-adv-x="774" 
d="M704 23q-74 -20 -142.5 -31t-143.5 -11q-87 0 -155 19.5t-115.5 57t-72 92t-24.5 123.5q0 66 24.5 119t70.5 90.5t111.5 58t147.5 20.5q57 0 108.5 -8.5t92 -28.5t66.5 -52.5t32 -79.5h-134q-10 48 -53.5 67t-108.5 19q-56 0 -97.5 -15t-69.5 -42.5t-42 -65t-14 -82.5
q0 -48 14.5 -86.5t43.5 -66t74 -42.5t105 -15q41 0 81.5 6.5t78.5 17.5v125h-177v79h299v-268v0z" />
    <glyph glyph-name="h.sc" horiz-adv-x="775" 
d="M558 0v237h-341v-237h-130v542h130v-222h341v222h130v-542h-130z" />
    <glyph glyph-name="i.sc" horiz-adv-x="304" 
d="M87 0v542h130v-542h-130z" />
    <glyph glyph-name="j.sc" horiz-adv-x="603" 
d="M523 196q0 -114 -68 -164.5t-192 -50.5q-56 0 -101 10.5t-77 32.5t-49.5 57t-17.5 84h131q5 -100 117 -100q60 0 93.5 30.5t33.5 102.5v344h130v-346v0z" />
    <glyph glyph-name="k.sc" horiz-adv-x="702" 
d="M217 0h-130v542h130v-542zM509 542h164l-313 -244l335 -298h-169l-307 297z" />
    <glyph glyph-name="l.sc" horiz-adv-x="580" 
d="M87 0v542h130v-458h342v-84h-472z" />
    <glyph glyph-name="m.sc" horiz-adv-x="1015" 
d="M804 0v447l-235 -447h-133l-233 447v-447h-116v542h191l230 -442l228 442h192v-542h-124z" />
    <glyph glyph-name="n.sc" horiz-adv-x="790" 
d="M535 0l-331 430v-430h-117v542h170l330 -430v430h116v-542h-168z" />
    <glyph glyph-name="o.sc" horiz-adv-x="790" 
d="M741 271q0 -57 -20 -109.5t-62 -92.5t-107.5 -64t-156.5 -24q-95 0 -160.5 23.5t-106.5 63t-59.5 92t-18.5 111.5q0 58 20 110.5t62 92.5t107 63.5t156 23.5q92 0 157.5 -23t107.5 -62.5t61.5 -92t19.5 -112.5zM607 271q0 93 -53 150t-159 57q-52 0 -91.5 -15.5
t-66.5 -43t-40.5 -65.5t-13.5 -83t13 -83t39.5 -65.5t66 -42.5t93.5 -15q53 0 93 15.5t66.5 43t39.5 65.5t13 82z" />
    <glyph glyph-name="p.sc" horiz-adv-x="653" 
d="M622 382q0 -80 -55.5 -125t-178.5 -45h-171v-212h-130v542h302q117 0 175 -41t58 -119zM488 381q0 42 -29.5 61.5t-92.5 19.5h-149v-169h153q118 0 118 88z" />
    <glyph glyph-name="q.sc" horiz-adv-x="795" 
d="M638 0q-45 0 -77.5 -2t-58.5 -5q-32 -4 -56.5 -6.5t-49.5 -2.5q-93 0 -159 23t-107.5 62.5t-60.5 91.5t-19 110t20 110.5t62 92.5t107 63.5t156 23.5q92 0 157.5 -23.5t107.5 -62.5t61.5 -89.5t19.5 -104.5q0 -66 -28.5 -120.5t-84.5 -88.5q12 1 28 3t32.5 3.5t32.5 2.5
t29 1h32v-82h-144zM607 271q0 46 -13 84t-39.5 65.5t-66 42.5t-92.5 15q-52 0 -91.5 -15t-66.5 -42.5t-41 -65.5t-14 -84q0 -91 53 -146.5t160 -55.5q53 0 92.5 15t66 42t39.5 64t13 81z" />
    <glyph glyph-name="r.sc" horiz-adv-x="716" 
d="M528 0q-5 13 -10.5 32.5t-10.5 47.5l-10 61q-5 27 -13 44t-22.5 26.5t-37.5 13t-56 3.5h-151v-228h-130v542h325q112 0 169.5 -35.5t57.5 -107.5q0 -29 -12 -51t-30 -37.5t-40 -25.5t-42 -15q51 -8 75.5 -30t33.5 -70l17 -95q5 -23 11 -42.5t14 -32.5h-138zM507 387
q0 41 -29.5 58t-92.5 17h-168v-154h169q66 0 93.5 20t27.5 59z" />
    <glyph glyph-name="s.sc" horiz-adv-x="671" 
d="M623 158q0 -49 -24 -83t-64.5 -55t-93.5 -30t-110 -9q-74 0 -126.5 13t-86.5 37t-51 58t-19 76h131q2 -28 15 -47.5t34 -31.5t48 -17.5t58 -5.5q79 0 119 22t40 60q0 32 -26 47.5t-84 25.5l-136 24q-37 6 -70.5 16.5t-59 28t-40.5 42.5t-15 61q0 44 22 76t59.5 53
t87 31.5t104.5 10.5q57 0 106.5 -9.5t85.5 -29.5t57.5 -51t23.5 -74h-130q-3 24 -15.5 40t-31.5 25.5t-44 13.5t-53 4q-63 0 -102.5 -20t-39.5 -58q0 -31 31 -46t77 -23l136 -23q40 -7 74 -17t59 -27.5t39.5 -43.5t14.5 -64z" />
    <glyph glyph-name="t.sc" horiz-adv-x="632" 
d="M381 458v-458h-130v458h-241v84h612v-84h-241z" />
    <glyph glyph-name="u.sc" horiz-adv-x="766" 
d="M686 226q0 -63 -21.5 -109t-61 -76.5t-95.5 -45t-125 -14.5q-72 0 -128 13.5t-95 42t-59.5 73.5t-20.5 107v325h130v-323q0 -79 44 -116.5t129 -37.5q89 0 131 42.5t42 120.5v314h130v-316v0z" />
    <glyph glyph-name="v.sc" horiz-adv-x="696" 
d="M425 0h-149l-272 542h141l211 -451l206 451h130z" />
    <glyph glyph-name="w.sc" horiz-adv-x="1061" 
d="M852 0h-160l-158 444l-159 -444h-159l-202 542h137l150 -444l159 444h155l161 -444l143 444h128z" />
    <glyph glyph-name="x.sc" horiz-adv-x="732" 
d="M554 0l-192 215l-197 -215h-155l277 281l-255 261h163l181 -197l177 197h153l-256 -260l273 -282h-169z" />
    <glyph glyph-name="y.sc" horiz-adv-x="675" 
d="M402 213v-213h-130v213l-276 329h158l190 -242l189 242h146z" />
    <glyph glyph-name="z.sc" horiz-adv-x="641" 
d="M34 0v98l416 363h-392v81h540v-97l-412 -363h420v-82h-572z" />
    <glyph glyph-name="agrave.sc" horiz-adv-x="775" 
d="M558 130h-348l-71 -130h-135l311 542h148l308 -542h-143zM252 208h264l-131 244zM363 622l-157 140h152l113 -140h-108z" />
    <glyph glyph-name="aacute.sc" horiz-adv-x="775" 
d="M558 130h-348l-71 -130h-135l311 542h148l308 -542h-143zM252 208h264l-131 244zM421 622h-108l113 140h152z" />
    <glyph glyph-name="acircumflex.sc" horiz-adv-x="775" 
d="M558 130h-348l-71 -130h-135l311 542h148l308 -542h-143zM252 208h264l-131 244zM481 622l-92 89l-93 -89h-102l122 140h145l122 -140h-102z" />
    <glyph glyph-name="atilde.sc" horiz-adv-x="775" 
d="M558 130h-348l-71 -130h-135l311 542h148l308 -542h-143zM252 208h264l-131 244zM587 762q-2 -58 -26.5 -89t-78.5 -31q-23 0 -46.5 5.5t-46 12.5t-44 12.5t-40.5 5.5q-18 0 -28.5 -11t-14.5 -29h-65q1 25 6 47.5t16.5 39.5t30.5 27t47 10q22 0 45.5 -6.5t46.5 -14
t44 -13.5t39 -6q39 0 49 40h66v0z" />
    <glyph glyph-name="adieresis.sc" horiz-adv-x="775" 
d="M558 130h-348l-71 -130h-135l311 542h148l308 -542h-143zM252 208h264l-131 244zM446 648v114h118v-114h-118zM219 648v114h118v-114h-118z" />
    <glyph glyph-name="amacron.sc" horiz-adv-x="775" 
d="M558 130h-348l-71 -130h-135l311 542h148l308 -542h-143zM252 208h264l-131 244zM205 657v79h373v-79h-373z" />
    <glyph glyph-name="abreve.sc" horiz-adv-x="775" 
d="M558 130h-348l-71 -130h-135l311 542h148l308 -542h-143zM252 208h264l-131 244zM576 762q-12 -65 -55.5 -104t-128.5 -39t-129 39t-56 104h64q17 -37 49 -53t72 -16q39 0 71 16t49 53h64v0z" />
    <glyph glyph-name="aring.sc" horiz-adv-x="775" 
d="M558 130h-348l-71 -130h-135l311 542h148l308 -542h-143zM252 208h264l-131 244zM507 701q0 -25 -9 -44t-25 -32t-36.5 -20t-44.5 -7t-45 7t-36.5 20t-25 32t-9.5 44q0 24 9.5 43t25 32.5t36.5 20.5t45 7t44.5 -7t36.5 -20.5t25 -32.5t9 -43zM448 701q0 23 -16 39.5
t-40 16.5t-40 -16.5t-16 -39.5t16 -39t40 -16t40 16t16 39z" />
    <glyph glyph-name="aogonek.sc" horiz-adv-x="775" 
d="M558 130h-348l-71 -130h-135l311 542h148l308 -542q-31 -20 -52 -36t-34 -30.5t-18.5 -27t-5.5 -24.5q0 -19 18.5 -29.5t48.5 -10.5q14 0 30.5 2.5t31.5 7.5l17 -45q-21 -6 -53 -10.5t-64 -4.5q-64 0 -96 19t-32 52q0 19 11.5 39.5t30.5 38.5t44 33.5t52 25.5h-72z
M252 208h264l-131 244z" />
    <glyph glyph-name="ae.sc" horiz-adv-x="1052" 
d="M584 0l-31 131h-326l-101 -131h-143l432 542h577v-83h-394l34 -139h340v-83h-320l38 -153h311v-84h-417zM287 209h248l-58 247z" />
    <glyph glyph-name="cacute.sc" horiz-adv-x="729" 
d="M685 163q-5 -50 -30.5 -85t-66.5 -56.5t-94.5 -31t-113.5 -9.5q-158 0 -244 74.5t-86 215.5q0 63 22 116.5t65.5 92t107 60t146.5 21.5q52 0 102.5 -10t90 -31t65 -54t28.5 -79h-137q-10 49 -50.5 70t-100.5 21q-100 0 -153 -56t-53 -150q0 -100 50.5 -153.5t151.5 -53.5
q30 0 57 5.5t48.5 17.5t36.5 30.5t20 44.5h138zM382 622h-108l113 140h152z" />
    <glyph glyph-name="ccircumflex.sc" horiz-adv-x="729" 
d="M685 163q-5 -50 -30.5 -85t-66.5 -56.5t-94.5 -31t-113.5 -9.5q-158 0 -244 74.5t-86 215.5q0 63 22 116.5t65.5 92t107 60t146.5 21.5q52 0 102.5 -10t90 -31t65 -54t28.5 -79h-137q-10 49 -50.5 70t-100.5 21q-100 0 -153 -56t-53 -150q0 -100 50.5 -153.5t151.5 -53.5
q30 0 57 5.5t48.5 17.5t36.5 30.5t20 44.5h138zM475 622l-92 89l-93 -89h-102l122 140h145l122 -140h-102z" />
    <glyph glyph-name="ccaron.sc" horiz-adv-x="729" 
d="M685 163q-5 -50 -30.5 -85t-66.5 -56.5t-94.5 -31t-113.5 -9.5q-158 0 -244 74.5t-86 215.5q0 63 22 116.5t65.5 92t107 60t146.5 21.5q52 0 102.5 -10t90 -31t65 -54t28.5 -79h-137q-10 49 -50.5 70t-100.5 21q-100 0 -153 -56t-53 -150q0 -100 50.5 -153.5t151.5 -53.5
q30 0 57 5.5t48.5 17.5t36.5 30.5t20 44.5h138zM290 761l92 -89l93 89h102l-122 -140h-145l-122 140h102z" />
    <glyph glyph-name="cdotaccent.sc" horiz-adv-x="729" 
d="M685 163q-5 -50 -30.5 -85t-66.5 -56.5t-94.5 -31t-113.5 -9.5q-158 0 -244 74.5t-86 215.5q0 63 22 116.5t65.5 92t107 60t146.5 21.5q52 0 102.5 -10t90 -31t65 -54t28.5 -79h-137q-10 49 -50.5 70t-100.5 21q-100 0 -153 -56t-53 -150q0 -100 50.5 -153.5t151.5 -53.5
q30 0 57 5.5t48.5 17.5t36.5 30.5t20 44.5h138zM322 648v114h119v-114h-119z" />
    <glyph glyph-name="ccedilla.sc" horiz-adv-x="729" 
d="M504 -128q0 -22 -12 -37.5t-31.5 -25t-44.5 -13.5t-51 -4q-25 0 -59.5 5.5t-62.5 15.5l18 45q19 -7 41.5 -11.5t44.5 -4.5t40 7.5t18 24.5q0 31 -49 31q-9 0 -19.5 -2t-24.5 -6l-21 25l48 61q-140 10 -214.5 83t-74.5 205q0 63 22 116.5t65.5 92t107 60t146.5 21.5
q52 0 102.5 -10t90 -31t65 -54t28.5 -79h-137q-10 49 -50.5 70t-100.5 21q-100 0 -153 -56t-53 -150q0 -100 50.5 -153.5t151.5 -53.5q30 0 57 5.5t48.5 17.5t36.5 30.5t20 44.5h138q-5 -49 -29 -83t-62.5 -55.5t-89.5 -32t-108 -11.5l-36 -41l2 -2q10 4 21.5 5.5t20.5 1.5
q43 0 71.5 -20.5t28.5 -52.5z" />
    <glyph glyph-name="dcaron.sc" horiz-adv-x="769" 
d="M718 275q0 -70 -23.5 -122t-68.5 -86t-109.5 -50.5t-146.5 -16.5h-283v542h284q169 0 258 -63.5t89 -203.5zM584 274q0 100 -58 143t-179 43h-130v-378h125q125 0 183.5 47t58.5 145zM293 761l92 -89l93 89h102l-122 -140h-145l-122 140h102z" />
    <glyph glyph-name="dcroat.sc" horiz-adv-x="769" 
d="M19 311h68v231h284q169 0 258 -63.5t89 -203.5q0 -70 -23.5 -122t-68.5 -86t-109.5 -50.5t-146.5 -16.5h-283v239h-68v72zM584 274q0 100 -58 144t-179 44h-130v-151h178v-72h-178v-158h125q125 0 183.5 47.5t58.5 145.5z" />
    <glyph glyph-name="eth.sc" horiz-adv-x="769" 
d="M19 311h68v231h284q169 0 258 -63.5t89 -203.5q0 -70 -23.5 -122t-68.5 -86t-109.5 -50.5t-146.5 -16.5h-283v239h-68v72zM584 274q0 100 -58 144t-179 44h-130v-151h178v-72h-178v-158h125q125 0 183.5 47.5t58.5 145.5z" />
    <glyph glyph-name="egrave.sc" horiz-adv-x="627" 
d="M87 0v542h481v-83h-351v-139h331v-83h-331v-153h358v-84h-488zM316 622l-157 140h152l113 -140h-108z" />
    <glyph glyph-name="eacute.sc" horiz-adv-x="627" 
d="M87 0v542h481v-83h-351v-139h331v-83h-331v-153h358v-84h-488zM348 622h-108l113 140h152z" />
    <glyph glyph-name="ecircumflex.sc" horiz-adv-x="627" 
d="M87 0v542h481v-83h-351v-139h331v-83h-331v-153h358v-84h-488zM424 622l-92 89l-93 -89h-102l122 140h145l122 -140h-102z" />
    <glyph glyph-name="ecaron.sc" horiz-adv-x="627" 
d="M87 0v542h481v-83h-351v-139h331v-83h-331v-153h358v-84h-488zM243 761l92 -89l93 89h102l-122 -140h-145l-122 140h102z" />
    <glyph glyph-name="edieresis.sc" horiz-adv-x="627" 
d="M87 0v542h481v-83h-351v-139h331v-83h-331v-153h358v-84h-488zM386 648v114h118v-114h-118zM159 648v114h118v-114h-118z" />
    <glyph glyph-name="emacron.sc" horiz-adv-x="627" 
d="M87 0v542h481v-83h-351v-139h331v-83h-331v-153h358v-84h-488zM145 657v79h373v-79h-373z" />
    <glyph glyph-name="ebreve.sc" horiz-adv-x="627" 
d="M87 0v542h481v-83h-351v-139h331v-83h-331v-153h358v-84h-488zM518 762q-12 -65 -55.5 -104t-128.5 -39t-129 39t-56 104h64q17 -37 49 -53t72 -16q39 0 71 16t49 53h64v0z" />
    <glyph glyph-name="edotaccent.sc" horiz-adv-x="627" 
d="M87 0v542h481v-83h-351v-139h331v-83h-331v-153h358v-84h-488zM274 648v114h119v-114h-119z" />
    <glyph glyph-name="eogonek.sc" horiz-adv-x="627" 
d="M611 -193q-21 -6 -53 -10.5t-64 -4.5q-64 0 -96 19t-32 52q0 19 11.5 39.5t30.5 38.5t44 33.5t52 25.5h-417v542h481v-83h-351v-139h331v-83h-331v-153h358v-84q-31 -20 -52 -36t-34 -30.5t-18.5 -27t-5.5 -24.5q0 -19 18.5 -29.5t48.5 -10.5q14 0 30.5 2.5t31.5 7.5
l17 -45v0z" />
    <glyph glyph-name="gcircumflex.sc" horiz-adv-x="774" 
d="M704 23q-74 -20 -142.5 -31t-143.5 -11q-87 0 -155 19.5t-115.5 57t-72 92t-24.5 123.5q0 66 24.5 119t70.5 90.5t111.5 58t147.5 20.5q57 0 108.5 -8.5t92 -28.5t66.5 -52.5t32 -79.5h-134q-10 48 -53.5 67t-108.5 19q-56 0 -97.5 -15t-69.5 -42.5t-42 -65t-14 -82.5
q0 -48 14.5 -86.5t43.5 -66t74 -42.5t105 -15q41 0 81.5 6.5t78.5 17.5v125h-177v79h299v-268v0zM493 622l-92 89l-93 -89h-102l122 140h145l122 -140h-102z" />
    <glyph glyph-name="gbreve.sc" horiz-adv-x="774" 
d="M704 23q-74 -20 -142.5 -31t-143.5 -11q-87 0 -155 19.5t-115.5 57t-72 92t-24.5 123.5q0 66 24.5 119t70.5 90.5t111.5 58t147.5 20.5q57 0 108.5 -8.5t92 -28.5t66.5 -52.5t32 -79.5h-134q-10 48 -53.5 67t-108.5 19q-56 0 -97.5 -15t-69.5 -42.5t-42 -65t-14 -82.5
q0 -48 14.5 -86.5t43.5 -66t74 -42.5t105 -15q41 0 81.5 6.5t78.5 17.5v125h-177v79h299v-268v0zM587 762q-12 -65 -55.5 -104t-128.5 -39t-129 39t-56 104h64q17 -37 49 -53t72 -16q39 0 71 16t49 53h64v0z" />
    <glyph glyph-name="gdotaccent.sc" horiz-adv-x="774" 
d="M704 23q-74 -20 -142.5 -31t-143.5 -11q-87 0 -155 19.5t-115.5 57t-72 92t-24.5 123.5q0 66 24.5 119t70.5 90.5t111.5 58t147.5 20.5q57 0 108.5 -8.5t92 -28.5t66.5 -52.5t32 -79.5h-134q-10 48 -53.5 67t-108.5 19q-56 0 -97.5 -15t-69.5 -42.5t-42 -65t-14 -82.5
q0 -48 14.5 -86.5t43.5 -66t74 -42.5t105 -15q41 0 81.5 6.5t78.5 17.5v125h-177v79h299v-268v0zM345 648v114h119v-114h-119z" />
    <glyph glyph-name="gcommaaccent.sc" horiz-adv-x="774" 
d="M704 23q-74 -20 -142.5 -31t-143.5 -11q-87 0 -155 19.5t-115.5 57t-72 92t-24.5 123.5q0 66 24.5 119t70.5 90.5t111.5 58t147.5 20.5q57 0 108.5 -8.5t92 -28.5t66.5 -52.5t32 -79.5h-134q-10 48 -53.5 67t-108.5 19q-56 0 -97.5 -15t-69.5 -42.5t-42 -65t-14 -82.5
q0 -48 14.5 -86.5t43.5 -66t74 -42.5t105 -15q41 0 81.5 6.5t78.5 17.5v125h-177v79h299v-268v0zM386 -212h-98l54 164h127z" />
    <glyph glyph-name="hcircumflex.sc" horiz-adv-x="775" 
d="M558 0v237h-341v-237h-130v542h130v-222h341v222h130v-542h-130zM479 622l-92 89l-93 -89h-102l122 140h145l122 -140h-102z" />
    <glyph glyph-name="hbar.sc" horiz-adv-x="775" 
d="M558 0v237h-341v-237h-130v542h130v-99h341v99h129v-542h-129zM558 320v44h-341v-44h341z" />
    <glyph glyph-name="igrave.sc" horiz-adv-x="304" 
d="M94 0v542h130v-542h-130zM136 622l-157 140h152l113 -140h-108z" />
    <glyph glyph-name="iacute.sc" horiz-adv-x="304" 
d="M96 0v542h130v-542h-130zM184 622h-108l113 140h152z" />
    <glyph glyph-name="ibreve.sc" horiz-adv-x="304" 
d="M88 0v542h130v-542h-130zM340 762q-12 -65 -55.5 -104t-128.5 -39t-129 39t-56 104h64q17 -37 49 -53t72 -16q39 0 71 16t49 53h64v0z" />
    <glyph glyph-name="icircumflex.sc" horiz-adv-x="304" 
d="M88 0v542h130v-542h-130zM246 622l-92 89l-93 -89h-102l122 140h145l122 -140h-102z" />
    <glyph glyph-name="itilde.sc" horiz-adv-x="304" 
d="M88 0v542h130v-542h-130zM351 762q-2 -58 -26.5 -89t-78.5 -31q-23 0 -46.5 5.5t-46 12.5t-44 12.5t-40.5 5.5q-18 0 -28.5 -11t-14.5 -29h-65q1 25 6 47.5t16.5 39.5t30.5 27t47 10q22 0 45.5 -6.5t46.5 -14t44 -13.5t39 -6q39 0 49 40h66v0z" />
    <glyph glyph-name="idieresis.sc" horiz-adv-x="304" 
d="M73 0v542h130v-542h-130zM195 648v114h118v-114h-118zM-32 648v114h118v-114h-118z" />
    <glyph glyph-name="imacron.sc" horiz-adv-x="304" 
d="M88 0v542h130v-542h-130zM-31 657v79h373v-79h-373z" />
    <glyph glyph-name="idotaccent.sc" horiz-adv-x="304" 
d="M87 0v542h130v-542h-130zM96 648v114h119v-114h-119z" />
    <glyph glyph-name="iogonek.sc" horiz-adv-x="304" 
d="M233 -193q-21 -6 -53 -10.5t-64 -4.5q-64 0 -96 19t-32 52q0 19 11.5 39.5t30.5 38.5t44 33.5t52 25.5h-59v542h130v-542q-31 -20 -52 -36t-34 -30.5t-18.5 -27t-5.5 -24.5q0 -19 18.5 -29.5t48.5 -10.5q14 0 30.5 2.5t31.5 7.5l17 -45v0z" />
    <glyph glyph-name="jcircumflex.sc" horiz-adv-x="603" 
d="M523 196q0 -114 -68 -164.5t-192 -50.5q-56 0 -101 10.5t-77 32.5t-49.5 57t-17.5 84h131q5 -100 117 -100q60 0 93.5 30.5t33.5 102.5v344h130v-346v0zM548 622l-92 89l-93 -89h-102l122 140h145l122 -140h-102z" />
    <glyph glyph-name="kcommaaccent.sc" horiz-adv-x="702" 
d="M217 0h-130v542h130v-542zM509 542h164l-313 -244l335 -298h-169l-307 297zM355 -212h-98l54 164h127z" />
    <glyph glyph-name="lacute.sc" horiz-adv-x="580" 
d="M87 0v542h130v-458h342v-84h-472zM197 622h-108l113 140h152z" />
    <glyph glyph-name="lcaron.sc" horiz-adv-x="580" 
d="M87 0v542h130v-458h342v-84h-472zM408 299h-98l43 245h132z" />
    <glyph glyph-name="lcommaaccent.sc" horiz-adv-x="580" 
d="M87 0v542h130v-458h342v-84h-472zM316 -212h-98l54 164h127z" />
    <glyph glyph-name="lslash.sc" horiz-adv-x="580" 
d="M216 241v-157h343v-84h-472v178l-70 -35v84l70 35v280h129v-217l180 91v-84z" />
    <glyph glyph-name="ldot.sc" horiz-adv-x="580" 
d="M87 0v542h130v-458h342v-84h-472zM363 215v114h119v-114h-119z" />
    <glyph glyph-name="nacute.sc" horiz-adv-x="790" 
d="M535 0l-331 430v-430h-117v542h170l330 -430v430h116v-542h-168zM400 622h-108l113 140h152z" />
    <glyph glyph-name="ncaron.sc" horiz-adv-x="790" 
d="M535 0l-331 430v-430h-117v542h170l330 -430v430h116v-542h-168zM303 761l92 -89l93 89h102l-122 -140h-145l-122 140h102z" />
    <glyph glyph-name="ntilde.sc" horiz-adv-x="790" 
d="M535 0l-331 430v-430h-117v542h170l330 -430v430h116v-542h-168zM593 762q-2 -58 -26.5 -89t-78.5 -31q-23 0 -46.5 5.5t-46 12.5t-44 12.5t-40.5 5.5q-18 0 -28.5 -11t-14.5 -29h-65q1 25 6 47.5t16.5 39.5t30.5 27t47 10q22 0 45.5 -6.5t46.5 -14t44 -13.5t39 -6
q39 0 49 40h66v0z" />
    <glyph glyph-name="ncommaaccent.sc" horiz-adv-x="790" 
d="M535 0l-331 430v-430h-117v542h170l330 -430v430h116v-542h-168zM400 -212h-98l54 164h127z" />
    <glyph glyph-name="ograve.sc" horiz-adv-x="790" 
d="M741 271q0 -57 -20 -109.5t-62 -92.5t-107.5 -64t-156.5 -24q-95 0 -160.5 23.5t-106.5 63t-59.5 92t-18.5 111.5q0 58 20 110.5t62 92.5t107 63.5t156 23.5q92 0 157.5 -23t107.5 -62.5t61.5 -92t19.5 -112.5zM607 271q0 93 -53 150t-159 57q-52 0 -91.5 -15.5
t-66.5 -43t-40.5 -65.5t-13.5 -83t13 -83t39.5 -65.5t66 -42.5t93.5 -15q53 0 93 15.5t66.5 43t39.5 65.5t13 82zM379 622l-157 140h152l113 -140h-108z" />
    <glyph glyph-name="oacute.sc" horiz-adv-x="790" 
d="M741 271q0 -57 -20 -109.5t-62 -92.5t-107.5 -64t-156.5 -24q-95 0 -160.5 23.5t-106.5 63t-59.5 92t-18.5 111.5q0 58 20 110.5t62 92.5t107 63.5t156 23.5q92 0 157.5 -23t107.5 -62.5t61.5 -92t19.5 -112.5zM607 271q0 93 -53 150t-159 57q-52 0 -91.5 -15.5
t-66.5 -43t-40.5 -65.5t-13.5 -83t13 -83t39.5 -65.5t66 -42.5t93.5 -15q53 0 93 15.5t66.5 43t39.5 65.5t13 82zM415 622h-108l113 140h152z" />
    <glyph glyph-name="ocircumflex.sc" horiz-adv-x="790" 
d="M741 271q0 -57 -20 -109.5t-62 -92.5t-107.5 -64t-156.5 -24q-95 0 -160.5 23.5t-106.5 63t-59.5 92t-18.5 111.5q0 58 20 110.5t62 92.5t107 63.5t156 23.5q92 0 157.5 -23t107.5 -62.5t61.5 -92t19.5 -112.5zM607 271q0 93 -53 150t-159 57q-52 0 -91.5 -15.5
t-66.5 -43t-40.5 -65.5t-13.5 -83t13 -83t39.5 -65.5t66 -42.5t93.5 -15q53 0 93 15.5t66.5 43t39.5 65.5t13 82zM488 622l-92 89l-93 -89h-102l122 140h145l122 -140h-102z" />
    <glyph glyph-name="otilde.sc" horiz-adv-x="790" 
d="M741 271q0 -57 -20 -109.5t-62 -92.5t-107.5 -64t-156.5 -24q-95 0 -160.5 23.5t-106.5 63t-59.5 92t-18.5 111.5q0 58 20 110.5t62 92.5t107 63.5t156 23.5q92 0 157.5 -23t107.5 -62.5t61.5 -92t19.5 -112.5zM607 271q0 93 -53 150t-159 57q-52 0 -91.5 -15.5
t-66.5 -43t-40.5 -65.5t-13.5 -83t13 -83t39.5 -65.5t66 -42.5t93.5 -15q53 0 93 15.5t66.5 43t39.5 65.5t13 82zM593 762q-2 -58 -26.5 -89t-78.5 -31q-23 0 -46.5 5.5t-46 12.5t-44 12.5t-40.5 5.5q-18 0 -28.5 -11t-14.5 -29h-65q1 25 6 47.5t16.5 39.5t30.5 27t47 10
q22 0 45.5 -6.5t46.5 -14t44 -13.5t39 -6q39 0 49 40h66v0z" />
    <glyph glyph-name="odieresis.sc" horiz-adv-x="790" 
d="M741 271q0 -57 -20 -109.5t-62 -92.5t-107.5 -64t-156.5 -24q-95 0 -160.5 23.5t-106.5 63t-59.5 92t-18.5 111.5q0 58 20 110.5t62 92.5t107 63.5t156 23.5q92 0 157.5 -23t107.5 -62.5t61.5 -92t19.5 -112.5zM607 271q0 93 -53 150t-159 57q-52 0 -91.5 -15.5
t-66.5 -43t-40.5 -65.5t-13.5 -83t13 -83t39.5 -65.5t66 -42.5t93.5 -15q53 0 93 15.5t66.5 43t39.5 65.5t13 82zM452 648v114h118v-114h-118zM225 648v114h118v-114h-118z" />
    <glyph glyph-name="omacron.sc" horiz-adv-x="790" 
d="M741 271q0 -57 -20 -109.5t-62 -92.5t-107.5 -64t-156.5 -24q-95 0 -160.5 23.5t-106.5 63t-59.5 92t-18.5 111.5q0 58 20 110.5t62 92.5t107 63.5t156 23.5q92 0 157.5 -23t107.5 -62.5t61.5 -92t19.5 -112.5zM607 271q0 93 -53 150t-159 57q-52 0 -91.5 -15.5
t-66.5 -43t-40.5 -65.5t-13.5 -83t13 -83t39.5 -65.5t66 -42.5t93.5 -15q53 0 93 15.5t66.5 43t39.5 65.5t13 82zM211 657v79h373v-79h-373z" />
    <glyph glyph-name="obreve.sc" horiz-adv-x="790" 
d="M741 271q0 -57 -20 -109.5t-62 -92.5t-107.5 -64t-156.5 -24q-95 0 -160.5 23.5t-106.5 63t-59.5 92t-18.5 111.5q0 58 20 110.5t62 92.5t107 63.5t156 23.5q92 0 157.5 -23t107.5 -62.5t61.5 -92t19.5 -112.5zM607 271q0 93 -53 150t-159 57q-52 0 -91.5 -15.5
t-66.5 -43t-40.5 -65.5t-13.5 -83t13 -83t39.5 -65.5t66 -42.5t93.5 -15q53 0 93 15.5t66.5 43t39.5 65.5t13 82zM582 762q-12 -65 -55.5 -104t-128.5 -39t-129 39t-56 104h64q17 -37 49 -53t72 -16q39 0 71 16t49 53h64v0z" />
    <glyph glyph-name="ohungarumlaut.sc" horiz-adv-x="790" 
d="M741 271q0 -57 -20 -109.5t-62 -92.5t-107.5 -64t-156.5 -24q-95 0 -160.5 23.5t-106.5 63t-59.5 92t-18.5 111.5q0 58 20 110.5t62 92.5t107 63.5t156 23.5q92 0 157.5 -23t107.5 -62.5t61.5 -92t19.5 -112.5zM607 271q0 93 -53 150t-159 57q-52 0 -91.5 -15.5
t-66.5 -43t-40.5 -65.5t-13.5 -83t13 -83t39.5 -65.5t66 -42.5t93.5 -15q53 0 93 15.5t66.5 43t39.5 65.5t13 82zM544 622h-108l114 140h152zM308 622h-108l113 140h152z" />
    <glyph glyph-name="oslash.sc" horiz-adv-x="790" 
d="M78 -19l69 71q-51 40 -74 96.5t-23 122.5q0 58 20 110.5t62 92t107 63t156 23.5q63 0 114 -11.5t90 -31.5l74 77l38 -38l-66 -68q50 -40 73 -96t23 -121q0 -57 -20 -109.5t-62 -92.5t-107.5 -63.5t-156.5 -23.5q-64 0 -114 10.5t-89 30.5l-76 -79zM183 271q0 -85 43 -138
l301 310q-52 35 -132 35q-52 0 -91.5 -15.5t-66.5 -43t-40.5 -65.5t-13.5 -83zM607 271q0 83 -41 136l-301 -309q25 -16 57 -24.5t73 -8.5q53 0 93 15.5t66.5 43t39.5 65.5t13 82z" />
    <glyph glyph-name="oe.sc" horiz-adv-x="1061" 
d="M620 0h-43.5t-47.5 -2q-22 -2 -46.5 -2.5t-47.5 -0.5q-78 0 -149 12t-124 42.5t-84.5 84.5t-31.5 138q0 75 31 127.5t83.5 85t121.5 47t145 14.5q23 0 46 -0.5t46 -1.5q20 -1 40 -1.5t41 -0.5h400v-83h-340v-139h321v-83h-321v-153h349v-84h-389zM533 462
q-24 2 -48.5 3.5t-45.5 1.5q-127 0 -194 -49t-67 -146q0 -54 19.5 -91.5t54.5 -61.5t83 -34.5t106 -10.5q22 0 44 1.5t48 4.5v382z" />
    <glyph glyph-name="racute.sc" horiz-adv-x="716" 
d="M528 0q-5 13 -10.5 32.5t-10.5 47.5l-10 61q-5 27 -13 44t-22.5 26.5t-37.5 13t-56 3.5h-151v-228h-130v542h325q112 0 169.5 -35.5t57.5 -107.5q0 -29 -12 -51t-30 -37.5t-40 -25.5t-42 -15q51 -8 75.5 -30t33.5 -70l17 -95q5 -23 11 -42.5t14 -32.5h-138zM507 387
q0 41 -29.5 58t-92.5 17h-168v-154h169q66 0 93.5 20t27.5 59zM368 622h-108l113 140h152z" />
    <glyph glyph-name="rcaron.sc" horiz-adv-x="716" 
d="M528 0q-5 13 -10.5 32.5t-10.5 47.5l-10 61q-5 27 -13 44t-22.5 26.5t-37.5 13t-56 3.5h-151v-228h-130v542h325q112 0 169.5 -35.5t57.5 -107.5q0 -29 -12 -51t-30 -37.5t-40 -25.5t-42 -15q51 -8 75.5 -30t33.5 -70l17 -95q5 -23 11 -42.5t14 -32.5h-138zM507 387
q0 41 -29.5 58t-92.5 17h-168v-154h169q66 0 93.5 20t27.5 59zM262 761l92 -89l93 89h102l-122 -140h-145l-122 140h102z" />
    <glyph glyph-name="rcommaaccent.sc" horiz-adv-x="716" 
d="M528 0q-5 13 -10.5 32.5t-10.5 47.5l-10 61q-5 27 -13 44t-22.5 26.5t-37.5 13t-56 3.5h-151v-228h-130v542h325q112 0 169.5 -35.5t57.5 -107.5q0 -29 -12 -51t-30 -37.5t-40 -25.5t-42 -15q51 -8 75.5 -30t33.5 -70l17 -95q5 -23 11 -42.5t14 -32.5h-138zM507 387
q0 41 -29.5 58t-92.5 17h-168v-154h169q66 0 93.5 20t27.5 59zM365 -212h-98l54 164h127z" />
    <glyph glyph-name="sacute.sc" horiz-adv-x="671" 
d="M623 158q0 -49 -24 -83t-64.5 -55t-93.5 -30t-110 -9q-74 0 -126.5 13t-86.5 37t-51 58t-19 76h131q2 -28 15 -47.5t34 -31.5t48 -17.5t58 -5.5q79 0 119 22t40 60q0 32 -26 47.5t-84 25.5l-136 24q-37 6 -70.5 16.5t-59 28t-40.5 42.5t-15 61q0 44 22 76t59.5 53
t87 31.5t104.5 10.5q57 0 106.5 -9.5t85.5 -29.5t57.5 -51t23.5 -74h-130q-3 24 -15.5 40t-31.5 25.5t-44 13.5t-53 4q-63 0 -102.5 -20t-39.5 -58q0 -31 31 -46t77 -23l136 -23q40 -7 74 -17t59 -27.5t39.5 -43.5t14.5 -64zM344 622h-108l113 140h152z" />
    <glyph glyph-name="scircumflex.sc" horiz-adv-x="671" 
d="M623 158q0 -49 -24 -83t-64.5 -55t-93.5 -30t-110 -9q-74 0 -126.5 13t-86.5 37t-51 58t-19 76h131q2 -28 15 -47.5t34 -31.5t48 -17.5t58 -5.5q79 0 119 22t40 60q0 32 -26 47.5t-84 25.5l-136 24q-37 6 -70.5 16.5t-59 28t-40.5 42.5t-15 61q0 44 22 76t59.5 53
t87 31.5t104.5 10.5q57 0 106.5 -9.5t85.5 -29.5t57.5 -51t23.5 -74h-130q-3 24 -15.5 40t-31.5 25.5t-44 13.5t-53 4q-63 0 -102.5 -20t-39.5 -58q0 -31 31 -46t77 -23l136 -23q40 -7 74 -17t59 -27.5t39.5 -43.5t14.5 -64zM430 622l-92 89l-93 -89h-102l122 140h145
l122 -140h-102z" />
    <glyph glyph-name="scaron.sc" horiz-adv-x="671" 
d="M623 158q0 -49 -24 -83t-64.5 -55t-93.5 -30t-110 -9q-74 0 -126.5 13t-86.5 37t-51 58t-19 76h131q2 -28 15 -47.5t34 -31.5t48 -17.5t58 -5.5q79 0 119 22t40 60q0 32 -26 47.5t-84 25.5l-136 24q-37 6 -70.5 16.5t-59 28t-40.5 42.5t-15 61q0 44 22 76t59.5 53
t87 31.5t104.5 10.5q57 0 106.5 -9.5t85.5 -29.5t57.5 -51t23.5 -74h-130q-3 24 -15.5 40t-31.5 25.5t-44 13.5t-53 4q-63 0 -102.5 -20t-39.5 -58q0 -31 31 -46t77 -23l136 -23q40 -7 74 -17t59 -27.5t39.5 -43.5t14.5 -64zM245 761l92 -89l93 89h102l-122 -140h-145
l-122 140h102z" />
    <glyph glyph-name="scedilla.sc" horiz-adv-x="671" 
d="M468 -128q0 -22 -12 -37.5t-31.5 -25t-44.5 -13.5t-51 -4q-25 0 -59.5 5.5t-62.5 15.5l18 45q19 -7 41.5 -11.5t44.5 -4.5t40 7.5t18 24.5q0 31 -49 31q-9 0 -19.5 -2t-24.5 -6l-21 25l47 60q-66 3 -113 17t-78 37.5t-46 56t-17 72.5h131q2 -28 15 -47.5t34 -31.5
t48 -17.5t58 -5.5q79 0 119 22t40 60q0 32 -26 47.5t-84 25.5l-136 24q-37 6 -70.5 16.5t-59 28t-40.5 42.5t-15 61q0 44 22 76t59.5 53t87 31.5t104.5 10.5q57 0 106.5 -9.5t85.5 -29.5t57.5 -51t23.5 -74h-130q-3 24 -15.5 40t-31.5 25.5t-44 13.5t-53 4q-63 0 -102.5 -20
t-39.5 -58q0 -31 31 -46t77 -23l136 -23q40 -7 74 -17t59 -27.5t39.5 -43.5t14.5 -64q0 -46 -21.5 -78.5t-57.5 -53.5t-83.5 -31.5t-100.5 -12.5l-36 -42l2 -2q10 4 21.5 5.5t20.5 1.5q43 0 71.5 -20.5t28.5 -52.5z" />
    <glyph glyph-name="scommaaccent.sc" horiz-adv-x="671" 
d="M623 158q0 -49 -24 -83t-64.5 -55t-93.5 -30t-110 -9q-74 0 -126.5 13t-86.5 37t-51 58t-19 76h131q2 -28 15 -47.5t34 -31.5t48 -17.5t58 -5.5q79 0 119 22t40 60q0 32 -26 47.5t-84 25.5l-136 24q-37 6 -70.5 16.5t-59 28t-40.5 42.5t-15 61q0 44 22 76t59.5 53
t87 31.5t104.5 10.5q57 0 106.5 -9.5t85.5 -29.5t57.5 -51t23.5 -74h-130q-3 24 -15.5 40t-31.5 25.5t-44 13.5t-53 4q-63 0 -102.5 -20t-39.5 -58q0 -31 31 -46t77 -23l136 -23q40 -7 74 -17t59 -27.5t39.5 -43.5t14.5 -64zM338 -212h-98l54 164h127z" />
    <glyph glyph-name="tcaron.sc" horiz-adv-x="632" 
d="M381 458v-458h-130v458h-241v84h612v-84h-241zM223 761l92 -89l93 89h102l-122 -140h-145l-122 140h102z" />
    <glyph glyph-name="tcommaaccent.sc" horiz-adv-x="632" 
d="M381 458v-458h-130v458h-241v84h612v-84h-241zM303 -212h-98l54 164h127z" />
    <glyph glyph-name="tbar.sc" horiz-adv-x="632" 
d="M83 312h168v146h-241v84h612v-84h-242v-146h169v-83h-169v-229h-129v229h-168v83z" />
    <glyph glyph-name="thorn.sc" horiz-adv-x="653" 
d="M217 446h172q117 0 175 -41t58 -119q0 -80 -55.5 -125.5t-178.5 -45.5h-171v-115h-130v542h130v-96zM488 285q0 42 -29.5 61.5t-92.5 19.5h-149v-170h153q118 0 118 89z" />
    <glyph glyph-name="ugrave.sc" horiz-adv-x="766" 
d="M686 226q0 -63 -21.5 -109t-61 -76.5t-95.5 -45t-125 -14.5q-72 0 -128 13.5t-95 42t-59.5 73.5t-20.5 107v325h130v-323q0 -79 44 -116.5t129 -37.5q89 0 131 42.5t42 120.5v314h130v-316v0zM368 622l-157 140h152l113 -140h-108z" />
    <glyph glyph-name="uacute.sc" horiz-adv-x="766" 
d="M686 226q0 -63 -21.5 -109t-61 -76.5t-95.5 -45t-125 -14.5q-72 0 -128 13.5t-95 42t-59.5 73.5t-20.5 107v325h130v-323q0 -79 44 -116.5t129 -37.5q89 0 131 42.5t42 120.5v314h130v-316v0zM402 622h-108l113 140h152z" />
    <glyph glyph-name="ucircumflex.sc" horiz-adv-x="766" 
d="M686 226q0 -63 -21.5 -109t-61 -76.5t-95.5 -45t-125 -14.5q-72 0 -128 13.5t-95 42t-59.5 73.5t-20.5 107v325h130v-323q0 -79 44 -116.5t129 -37.5q89 0 131 42.5t42 120.5v314h130v-316v0zM475 622l-92 89l-93 -89h-102l122 140h145l122 -140h-102z" />
    <glyph glyph-name="utilde.sc" horiz-adv-x="766" 
d="M686 226q0 -63 -21.5 -109t-61 -76.5t-95.5 -45t-125 -14.5q-72 0 -128 13.5t-95 42t-59.5 73.5t-20.5 107v325h130v-323q0 -79 44 -116.5t129 -37.5q89 0 131 42.5t42 120.5v314h130v-316v0zM580 762q-2 -58 -26.5 -89t-78.5 -31q-23 0 -46.5 5.5t-46 12.5t-44 12.5
t-40.5 5.5q-18 0 -28.5 -11t-14.5 -29h-65q1 25 6 47.5t16.5 39.5t30.5 27t47 10q22 0 45.5 -6.5t46.5 -14t44 -13.5t39 -6q39 0 49 40h66v0z" />
    <glyph glyph-name="udieresis.sc" horiz-adv-x="766" 
d="M686 226q0 -63 -21.5 -109t-61 -76.5t-95.5 -45t-125 -14.5q-72 0 -128 13.5t-95 42t-59.5 73.5t-20.5 107v325h130v-323q0 -79 44 -116.5t129 -37.5q89 0 131 42.5t42 120.5v314h130v-316v0zM439 648v114h118v-114h-118zM212 648v114h118v-114h-118z" />
    <glyph glyph-name="umacron.sc" horiz-adv-x="766" 
d="M686 226q0 -63 -21.5 -109t-61 -76.5t-95.5 -45t-125 -14.5q-72 0 -128 13.5t-95 42t-59.5 73.5t-20.5 107v325h130v-323q0 -79 44 -116.5t129 -37.5q89 0 131 42.5t42 120.5v314h130v-316v0zM198 657v79h373v-79h-373z" />
    <glyph glyph-name="ubreve.sc" horiz-adv-x="766" 
d="M686 226q0 -63 -21.5 -109t-61 -76.5t-95.5 -45t-125 -14.5q-72 0 -128 13.5t-95 42t-59.5 73.5t-20.5 107v325h130v-323q0 -79 44 -116.5t129 -37.5q89 0 131 42.5t42 120.5v314h130v-316v0zM569 762q-12 -65 -55.5 -104t-128.5 -39t-129 39t-56 104h64q17 -37 49 -53
t72 -16q39 0 71 16t49 53h64v0z" />
    <glyph glyph-name="uring.sc" horiz-adv-x="766" 
d="M686 226q0 -63 -21.5 -109t-61 -76.5t-95.5 -45t-125 -14.5q-72 0 -128 13.5t-95 42t-59.5 73.5t-20.5 107v325h130v-323q0 -79 44 -116.5t129 -37.5q89 0 131 42.5t42 120.5v314h130v-316v0zM500 701q0 -25 -9 -44t-25 -32t-36.5 -20t-44.5 -7t-45 7t-36.5 20t-25 32
t-9.5 44q0 24 9.5 43t25 32.5t36.5 20.5t45 7t44.5 -7t36.5 -20.5t25 -32.5t9 -43zM441 701q0 23 -16 39.5t-40 16.5t-40 -16.5t-16 -39.5t16 -39t40 -16t40 16t16 39z" />
    <glyph glyph-name="uhungarumlaut.sc" horiz-adv-x="766" 
d="M686 226q0 -63 -21.5 -109t-61 -76.5t-95.5 -45t-125 -14.5q-72 0 -128 13.5t-95 42t-59.5 73.5t-20.5 107v325h130v-323q0 -79 44 -116.5t129 -37.5q89 0 131 42.5t42 120.5v314h130v-316v0zM535 622h-108l114 140h152zM299 622h-108l113 140h152z" />
    <glyph glyph-name="uogonek.sc" horiz-adv-x="766" 
d="M488 -193q-21 -6 -53 -10.5t-64 -4.5q-64 0 -96 19t-32 52q0 32 28.5 64t69.5 55q-62 4 -110.5 19.5t-82 44t-51 71t-17.5 100.5v325h130v-323q0 -79 44 -116.5t129 -37.5q89 0 131 42.5t42 120.5v314h130v-316q0 -116 -70 -175.5t-190 -67.5q-47 -32 -65.5 -55.5
t-18.5 -45.5q0 -19 18.5 -29.5t48.5 -10.5q14 0 30.5 2.5t31.5 7.5l17 -45v0z" />
    <glyph glyph-name="wacute.sc" horiz-adv-x="1057" 
d="M851 0h-160l-158 444l-159 -444h-159l-202 542h137l150 -444l159 444h155l161 -444l143 444h128zM569 622h-108l113 140h152z" />
    <glyph glyph-name="wcircumflex.sc" horiz-adv-x="1057" 
d="M851 0h-160l-158 444l-159 -444h-159l-202 542h137l150 -444l159 444h155l161 -444l143 444h128zM625 622l-92 89l-93 -89h-102l122 140h145l122 -140h-102z" />
    <glyph glyph-name="wdieresis.sc" horiz-adv-x="1057" 
d="M851 0h-160l-158 444l-159 -444h-159l-202 542h137l150 -444l159 444h155l161 -444l143 444h128zM591 648v114h118v-114h-118zM364 648v114h118v-114h-118z" />
    <glyph glyph-name="wgrave.sc" horiz-adv-x="1057" 
d="M851 0h-160l-158 444l-159 -444h-159l-202 542h137l150 -444l159 444h155l161 -444l143 444h128zM508 622l-157 140h152l113 -140h-108z" />
    <glyph glyph-name="yacute.sc" horiz-adv-x="671" 
d="M401 213v-213h-130v213l-276 329h158l190 -242l189 242h146zM350 622h-108l113 140h152z" />
    <glyph glyph-name="ycircumflex.sc" horiz-adv-x="671" 
d="M401 213v-213h-130v213l-276 329h158l190 -242l189 242h146zM431 622l-92 89l-93 -89h-102l122 140h145l122 -140h-102z" />
    <glyph glyph-name="ydieresis.sc" horiz-adv-x="671" 
d="M401 213v-213h-130v213l-276 329h158l190 -242l189 242h146zM397 648v114h118v-114h-118zM170 648v114h118v-114h-118z" />
    <glyph glyph-name="ygrave.sc" horiz-adv-x="671" 
d="M401 213v-213h-130v213l-276 329h158l190 -242l189 242h146zM336 622l-157 140h152l113 -140h-108z" />
    <glyph glyph-name="zacute.sc" horiz-adv-x="641" 
d="M34 0v98l416 363h-392v81h540v-97l-412 -363h420v-82h-572zM337 622h-108l113 140h152z" />
    <glyph glyph-name="zcaron.sc" horiz-adv-x="641" 
d="M34 0v98l416 363h-392v81h540v-97l-412 -363h420v-82h-572zM244 761l92 -89l93 89h102l-122 -140h-145l-122 140h102z" />
    <glyph glyph-name="zdotaccent.sc" horiz-adv-x="641" 
d="M34 0v98l416 363h-392v81h540v-97l-412 -363h420v-82h-572zM278 648v114h119v-114h-119z" />
    <glyph glyph-name="ij.sc" horiz-adv-x="907" 
d="M87 0v542h130v-542h-130zM827 196q0 -114 -68 -164.5t-192 -50.5q-56 0 -101 10.5t-77 32.5t-49.5 57t-17.5 84h131q5 -100 117 -100q60 0 93.5 30.5t33.5 102.5v344h130v-346v0z" />
    <glyph glyph-name="germandbls.sc" horiz-adv-x="1342" 
d="M1294 158q0 -49 -24 -83t-64.5 -55t-93.5 -30t-110 -9q-74 0 -126.5 13t-86.5 37t-51 58t-19 76h131q2 -28 15 -47.5t34 -31.5t48 -17.5t58 -5.5q79 0 119 22t40 60q0 32 -26 47.5t-84 25.5l-136 24q-37 6 -70.5 16.5t-59 28t-40.5 42.5t-15 61q0 44 22 76t59.5 53
t87 31.5t104.5 10.5q57 0 106.5 -9.5t85.5 -29.5t57.5 -51t23.5 -74h-130q-3 24 -15.5 40t-31.5 25.5t-44 13.5t-53 4q-63 0 -102.5 -20t-39.5 -58q0 -31 31 -46t77 -23l136 -23q40 -7 74 -17t59 -27.5t39.5 -43.5t14.5 -64zM623 158q0 -49 -24 -83t-64.5 -55t-93.5 -30
t-110 -9q-74 0 -126.5 13t-86.5 37t-51 58t-19 76h131q2 -28 15 -47.5t34 -31.5t48 -17.5t58 -5.5q79 0 119 22t40 60q0 32 -26 47.5t-84 25.5l-136 24q-37 6 -70.5 16.5t-59 28t-40.5 42.5t-15 61q0 44 22 76t59.5 53t87 31.5t104.5 10.5q57 0 106.5 -9.5t85.5 -29.5
t57.5 -51t23.5 -74h-130q-3 24 -15.5 40t-31.5 25.5t-44 13.5t-53 4q-63 0 -102.5 -20t-39.5 -58q0 -31 31 -46t77 -23l136 -23q40 -7 74 -17t59 -27.5t39.5 -43.5t14.5 -64z" />
    <glyph glyph-name="eng.sc" horiz-adv-x="788" 
d="M204 429v-429h-117v542h167l331 -376v375h116v-562q0 -95 -47.5 -135.5t-139.5 -40.5q-26 0 -46.5 1t-29.5 3v87q8 -1 20.5 -1.5t20.5 -0.5q28 0 48.5 4t33 15t18.5 30t6 49v9z" />
    <glyph glyph-name="grave.sc" horiz-adv-x="321" 
d="M149 622l-157 140h152l113 -140h-108z" />
    <glyph glyph-name="acute.sc" horiz-adv-x="321" 
d="M172 622h-108l113 140h152z" />
    <glyph glyph-name="circumflex.sc" horiz-adv-x="321" 
d="M251 622l-92 89l-93 -89h-102l122 140h145l122 -140h-102z" />
    <glyph glyph-name="caron.sc" horiz-adv-x="321" 
d="M66 761l92 -89l93 89h102l-122 -140h-145l-122 140h102z" />
    <glyph glyph-name="tilde.sc" horiz-adv-x="321" 
d="M356 762q-2 -58 -26.5 -89t-78.5 -31q-23 0 -46.5 5.5t-46 12.5t-44 12.5t-40.5 5.5q-18 0 -28.5 -11t-14.5 -29h-65q1 25 6 47.5t16.5 39.5t30.5 27t47 10q22 0 45.5 -6.5t46.5 -14t44 -13.5t39 -6q39 0 49 40h66v0z" />
    <glyph glyph-name="dieresis.sc" horiz-adv-x="321" 
d="M215 648v114h118v-114h-118zM-12 648v114h118v-114h-118z" />
    <glyph glyph-name="macron.sc" horiz-adv-x="321" 
d="M-26 657v79h373v-79h-373z" />
    <glyph glyph-name="breve.sc" horiz-adv-x="321" 
d="M345 762q-12 -65 -55.5 -104t-128.5 -39t-129 39t-56 104h64q17 -37 49 -53t72 -16q39 0 71 16t49 53h64v0z" />
    <glyph glyph-name="ring.sc" horiz-adv-x="321" 
d="M276 701q0 -25 -9 -44t-25 -32t-36.5 -20t-44.5 -7t-45 7t-36.5 20t-25 32t-9.5 44q0 24 9.5 43t25 32.5t36.5 20.5t45 7t44.5 -7t36.5 -20.5t25 -32.5t9 -43zM217 701q0 23 -16 39.5t-40 16.5t-40 -16.5t-16 -39.5t16 -39t40 -16t40 16t16 39z" />
    <glyph glyph-name="hungarumlaut.sc" horiz-adv-x="321" 
d="M290 622h-108l114 140h152zM54 622h-108l113 140h152z" />
    <glyph glyph-name="dotaccent.sc" horiz-adv-x="321" 
d="M101 648v114h119v-114h-119z" />
    <glyph glyph-name="exclamdown.sc" horiz-adv-x="402" 
d="M150.991 378.977h99.9932l18.999 -378.977h-138.991zM263.984 541.967v-104.993h-125.993v104.993h125.993z" />
    <glyph glyph-name="questiondown.sc" horiz-adv-x="556" 
d="M62.9961 119.992q0 21.999 7 40.998q6.99902 18.999 22.498 37.498q15.499 18.498 40.498 37.9971q24.998 19.499 59.9961 41.498q19.999 12.999 32.498 22.498q12.499 9.5 18.999 18.499q6.49902 9 8.49902 18.499t2 22.499v19.998h111.993v-22.998
q0 -18.999 -3 -34.498t-11.999 -28.998q-8.99902 -13.5 -24.998 -27.499t-41.998 -30.998q-30.998 -19.998 -49.9971 -35.4971q-18.999 -15.5 -28.998 -27.999t-12.999 -23.498q-3 -11 -3 -21.999q0 -18.999 10 -31.998q9.99902 -12.999 27.998 -20.499
q17.999 -7.49902 41.9971 -10.999q23.999 -3.5 51.9971 -3.5q31.998 0 69.4961 5q37.4971 5 72.4951 15.999v-80.9951q-39.9971 -7.99902 -80.4951 -11.999q-40.4971 -4 -79.4951 -4q-49.9971 0 -93.9941 8q-43.9971 7.99902 -76.4951 24.498t-51.4971 42.4971
q-18.999 25.999 -18.999 61.9961zM373.978 542.967v-108.993h-124.993v108.993h124.993z" />
    <glyph glyph-name="Euro.sc" horiz-adv-x="628" 
d="M255 188q13 -63 51.5 -95t114.5 -32q45 0 82 11.5t68 33.5v-94q-26 -13 -66.5 -21.5t-88.5 -8.5q-72 0 -123 14t-85 40.5t-53 65t-26 86.5h-85l19 64h60v22v14.5t1 14.5h-77l18 64h68q23 94 95.5 143.5t191.5 49.5q65 0 109.5 -13.5t64.5 -27.5l-26 -78q-20 13 -55 27
t-93 14q-70 0 -108.5 -30.5t-53.5 -84.5h282l-18 -64h-273q-1 -7 -1 -13v-13v-25h252l-18 -64h-227z" />
    <glyph glyph-name="cent.sc" horiz-adv-x="628" 
d="M418 465q60 -14 99 -48t49 -86h-125q-9 47 -50 65l-101 -258q16 -3 35 -3q51 0 82 20.5t36 60.5h126q-6 -39 -27 -67t-53.5 -46t-74.5 -26.5t-90 -8.5q-32 0 -60 3l-29 -73h-49l32 82q-33 9 -61.5 24t-49.5 38t-33 54.5t-12 72.5q0 51 20 89.5t55.5 64.5t84.5 39t106 13
q11 0 21.5 -0.5t21.5 -1.5l28 72h50zM189 269q0 -82 57 -116l99 254q-4 0 -8 0.5t-8 0.5q-64 0 -102 -36t-38 -103z" />
    <glyph glyph-name="sterling.sc" horiz-adv-x="628" 
d="M466 412q-2 36 -28 56t-66 20q-46 0 -77 -25.5t-31 -90.5v-49h164v-76h-164v-167h317v-80h-519v80h77v167h-82v76h82v49q0 98 60.5 143t174.5 45q44 0 83.5 -8t69.5 -25.5t47.5 -46t17.5 -68.5h-126z" />
    <glyph glyph-name="florin.sc" horiz-adv-x="628" 
d="M394 382h133l-12 -69h-134l-53 -297q-8 -40 -19 -68.5t-32 -47t-53.5 -27.5t-81.5 -9q-19 0 -42 1.5t-43 3.5l12 67q8 -1 17 -1h14q27 0 45.5 5t31 16.5t20 31.5t13.5 50l48 275h-125l12 69h125l8 47q6 38 20 63t36 40t51.5 21.5t67.5 6.5q28 0 55 -2.5t47 -6.5l-12 -68
q-14 3 -31.5 5t-30.5 2q-39 0 -56.5 -19t-23.5 -51z" />
    <glyph glyph-name="yen.sc" horiz-adv-x="628" 
d="M421 292h107v-61h-148l-8 -11v-44h156v-61h-156v-115h-115v115h-155v61h155v44l-7 11h-148v61h107l-177 250h138l149 -233l149 233h130z" />
    <glyph glyph-name="perthousand.sc" horiz-adv-x="1145" 
d="M208 -39h-84l453 621h82zM356 414q0 -66 -40.5 -103t-118.5 -37t-118.5 37t-40.5 103t40.5 103.5t118.5 37.5t118.5 -37.5t40.5 -103.5zM270 414q0 90 -73 90q-35 0 -54 -22.5t-19 -67.5t19.5 -67t53.5 -22q35 0 54 22t19 67zM746 128q0 -66 -40 -103.5t-118 -37.5
t-118.5 37.5t-40.5 103.5t40.5 103t118.5 37t118 -37t40 -103zM661 128q0 90 -73 90q-35 0 -54.5 -22.5t-19.5 -67.5t19.5 -67.5t54.5 -22.5t54 22.5t19 67.5zM1107 128q0 -66 -40 -103.5t-118 -37.5t-118.5 37.5t-40.5 103.5t40.5 103t118.5 37t118 -37t40 -103zM1022 128
q0 45 -19 67.5t-54 22.5t-54.5 -22.5t-19.5 -67.5t19.5 -67.5t54.5 -22.5t54 22.5t19 67.5z" />
    <glyph glyph-name="parenleft.sc" horiz-adv-x="339" 
d="M62 270q0 42 10.5 84.5t28 84.5t41.5 83t51 80h97q-49 -78 -82.5 -162t-33.5 -170q0 -41 9 -84t25 -85t37.5 -83t45.5 -78h-98q-27 39 -51 79.5t-41.5 82.5t-28 84t-10.5 84z" />
    <glyph glyph-name="parenright.sc" horiz-adv-x="339" 
d="M277 270q0 -42 -10.5 -84t-28 -84t-41.5 -82.5t-51 -79.5h-98q24 37 45.5 78t37.5 83t25 85t9 84q0 86 -33.5 170t-83.5 162h98q27 -39 51 -80t41.5 -83t28 -84.5t10.5 -84.5z" />
    <glyph glyph-name="bracketleft.sc" horiz-adv-x="332" 
d="M82 -60v662h202v-65h-99v-532h99v-65h-202z" />
    <glyph glyph-name="bracketright.sc" horiz-adv-x="332" 
d="M48 -60v65h99v532h-99v65h202v-662h-202z" />
    <glyph glyph-name="braceleft.sc" horiz-adv-x="317" 
d="M126 271q40 -11 58 -32t18 -63v-111q0 -25 10.5 -41t36.5 -18q7 0 19 -0.5t20 -0.5v-65h-40.5t-40.5 1q-46 3 -77 28.5t-31 75.5v117q0 36 -18.5 54.5t-60.5 20.5v68q42 2 60.5 20t18.5 55v115q0 51 30 76.5t75 28.5q20 2 42 2h42v-65h-21t-19 -1q-46 -4 -46 -60v-113
q0 -38 -17.5 -60.5t-58.5 -31.5z" />
    <glyph glyph-name="braceright.sc" horiz-adv-x="317" 
d="M193 271q-41 10 -58.5 32.5t-17.5 59.5v113q0 56 -46 60q-9 1 -19 1h-21v65h42t42 -2q45 -3 75 -28.5t30 -76.5v-115q0 -36 18.5 -54.5t60.5 -20.5v-67q-42 -2 -60.5 -20.5t-18.5 -54.5v-118q0 -50 -31 -75.5t-77 -28.5q-20 -1 -40.5 -1h-40.5v65q8 0 20 0.5t19 0.5
q26 2 36.5 18t10.5 41v112q0 41 18 62t58 32z" />
    <glyph glyph-name="zero.onum" 
d="M705 274q0 -64 -23 -117.5t-66 -92.5t-104.5 -60.5t-138.5 -21.5t-138.5 21.5t-104.5 60.5t-66 92.5t-23 117.5t23 117.5t65.5 92.5t104 60.5t139.5 21.5q77 0 138.5 -21.5t104.5 -60.5t66 -92.5t23 -117.5zM565 274q0 42 -12.5 78.5t-36.5 63.5t-60 42t-83 15t-83 -15
t-60 -42t-36.5 -63.5t-12.5 -78.5t12.5 -78t36.5 -63t60 -42t83 -15t83 15t60 42t36.5 63t12.5 78z" />
    <glyph glyph-name="one.onum" 
d="M365 0v428q-48 -33 -108 -57t-120 -42v107q29 7 61 18.5t64.5 26t64 31.5t58.5 37h114v-549h-134z" />
    <glyph glyph-name="two.onum" 
d="M79 0v92l214 105q69 34 113.5 61t70 49t35.5 42t10 41q0 39 -34 63.5t-105 24.5q-138 0 -153 -106h-137q4 46 27 82t60.5 61t89 38t112.5 13q137 0 207.5 -46.5t70.5 -126.5q0 -35 -13.5 -65t-43 -58.5t-75.5 -56.5t-110 -59l-123 -59h374v-95h-590z" />
    <glyph glyph-name="three.onum" 
d="M670 50q0 -50 -23 -89t-64 -66t-96.5 -41.5t-121.5 -14.5q-67 0 -122 12t-94 37.5t-60.5 65.5t-21.5 95h139q0 -32 12 -53.5t33 -35.5t50 -20t63 -6q76 0 121 29.5t45 89.5q0 57 -44 85t-125 28h-58v97h57q83 0 119 31t36 78q0 50 -36.5 76t-105.5 26q-66 0 -104 -24.5
t-44 -76.5h-135q0 46 21.5 82t59.5 61t90 37.5t114 12.5q76 0 128.5 -15t85.5 -40.5t47.5 -59.5t14.5 -72q0 -58 -39 -102.5t-117 -60.5q81 -14 128 -54.5t47 -111.5z" />
    <glyph glyph-name="four.onum" 
d="M581 0v-144h-127v144h-406v125l377 424h156v-453h142v-96h-142zM454 445l-306 -349h306v349z" />
    <glyph glyph-name="five.onum" 
d="M676 85q0 -61 -24 -107.5t-65 -77.5t-96 -46.5t-117 -15.5q-58 0 -111 10t-93.5 33t-65 60t-25.5 91h139q6 -49 45.5 -73t108.5 -24q84 0 125 41t41 107q0 69 -40.5 104.5t-115.5 35.5q-59 0 -99.5 -23t-57.5 -64h-131l25 413h513v-98h-391l-16 -210q29 32 76.5 55
t117.5 23q55 0 102 -14t81.5 -43t54 -73t19.5 -104z" />
    <glyph glyph-name="six.onum" 
d="M686 228q0 -58 -23 -103.5t-63.5 -77t-95.5 -48t-118 -16.5q-90 0 -150.5 27t-97 74.5t-52 112.5t-15.5 141q0 90 20.5 161t60.5 120.5t100 76t140 26.5q73 0 124 -14.5t84 -40.5t49 -61t18 -76h-135q-8 46 -41 71t-97 25q-51 0 -86.5 -20.5t-58 -56.5t-32.5 -84
t-11 -102q29 45 83 71.5t128 26.5q56 0 105 -14t85.5 -43t57.5 -72.5t21 -103.5zM548 223q0 71 -45.5 107t-118.5 36q-33 0 -63.5 -9.5t-54 -28t-37 -45.5t-13.5 -61q0 -32 12 -58.5t33.5 -45.5t52 -29.5t68.5 -10.5q77 0 121.5 40t44.5 105z" />
    <glyph glyph-name="seven.onum" 
d="M334 -144h-157l354 589h-452v104h587v-112z" />
    <glyph glyph-name="eight.onum" 
d="M684 189q0 -51 -24 -89.5t-66 -64.5t-99 -39t-122 -13q-69 0 -126 12.5t-98.5 38t-64 64.5t-22.5 91q0 38 14.5 69t39 53.5t56.5 37t67 19.5q-71 11 -113 55t-42 103q0 48 21.5 84.5t60 61.5t91.5 37.5t116 12.5q64 0 117 -11.5t91.5 -35.5t59.5 -61t21 -88
q0 -34 -12.5 -60.5t-33.5 -46.5t-50 -32.5t-62 -18.5q34 -5 66.5 -18t57.5 -35t40.5 -53t15.5 -73zM528 518q0 28 -12.5 49t-33.5 34t-49.5 19.5t-59.5 6.5t-59 -6.5t-49.5 -19.5t-34 -34t-12.5 -49q0 -27 12.5 -47t34 -33t49.5 -19.5t59 -6.5t59 6.5t49.5 19.5t34 33
t12.5 47zM549 199q0 29 -13 51.5t-36.5 38t-55.5 23.5t-71 8q-38 0 -70 -8t-55.5 -23.5t-37 -38t-13.5 -52.5q0 -32 14.5 -55t38.5 -37.5t56 -21t67 -6.5q34 0 66 7t56.5 22t39 38t14.5 54z" />
    <glyph glyph-name="nine.onum" 
d="M676 220q0 -84 -18 -154.5t-56.5 -121t-98.5 -78.5t-144 -28q-72 0 -123.5 13.5t-84.5 38.5t-50 60.5t-21 78.5h136q8 -48 42.5 -72.5t101.5 -24.5q54 0 89 21.5t55.5 57.5t29 84t9.5 102q-34 -53 -89.5 -75t-126.5 -22q-53 0 -100.5 13t-83.5 40t-57 70t-21 103
q0 55 24 99.5t64.5 76t94.5 48t113 16.5q85 0 145 -24t98 -68.5t55 -108.5t17 -145zM529 330q0 62 -41 101.5t-122 39.5q-38 0 -68.5 -11t-51.5 -30t-32.5 -44.5t-11.5 -55.5q0 -69 45.5 -102.5t118.5 -33.5q34 0 64 9.5t52 27t34.5 42.5t12.5 57z" />
    <glyph glyph-name="zero.scprop" horiz-adv-x="628" 
d="M585 278q0 -142 -69 -218.5t-202 -76.5q-126 0 -198.5 73t-72.5 222q0 65 19 117.5t54 89t85.5 56t112.5 19.5q68 0 119 -19.5t84.5 -56.5t50.5 -89t17 -117zM459 278q0 94 -33 149.5t-112 55.5q-38 0 -65 -15t-44 -42.5t-25.5 -65t-8.5 -82.5q0 -106 32.5 -161.5
t110.5 -55.5t111.5 56t33.5 161z" />
    <glyph glyph-name="one.scprop" horiz-adv-x="448" 
d="M211 0v434q-33 -22 -75.5 -40.5t-91.5 -33.5v92q51 14 96.5 37.5t89.5 52.5h105v-542h-124z" />
    <glyph glyph-name="two.scprop" horiz-adv-x="628" 
d="M54 0v85l166 97q58 34 98.5 61t65.5 51.5t36 48t11 49.5q0 45 -32.5 67.5t-81.5 22.5q-56 0 -88 -25.5t-35 -68.5h-125q1 42 20 74t52 54t78 33t97 11q118 0 180 -45t62 -122q0 -36 -15.5 -67.5t-44 -61t-68.5 -58t-89 -56.5l-119 -70h345v-80h-513z" />
    <glyph glyph-name="three.scprop" horiz-adv-x="628" 
d="M569 148q0 -41 -20 -72t-55.5 -52t-84 -31.5t-105.5 -10.5q-117 0 -185.5 39t-70.5 127h128q0 -24 10.5 -40.5t28 -27.5t41 -16t49.5 -5q60 0 98 22.5t38 66.5q0 48 -39 70.5t-107 22.5h-50v78h50q36 0 61.5 7t41 19t23 27t7.5 31q0 38 -32 59t-83 21q-53 0 -85 -19
t-35 -57h-126q1 38 20.5 67t53 48t78 28.5t95.5 9.5q63 0 108.5 -12t74.5 -32.5t43 -48t14 -57.5q0 -45 -31 -80t-89 -49q28 -5 53 -15t43 -26t28.5 -38.5t10.5 -53.5z" />
    <glyph glyph-name="four.scprop" horiz-adv-x="628" 
d="M494 124v-124h-119v124h-338v94l317 324h140v-342h114v-76h-114zM376 451l-241 -251h241v251z" />
    <glyph glyph-name="five.scprop" horiz-adv-x="628" 
d="M572 177q0 -49 -21 -85.5t-57 -60.5t-82.5 -36t-97.5 -12q-47 0 -92 7.5t-81 26t-58 49t-22 75.5h127q3 -43 37.5 -62.5t84.5 -19.5q66 0 100.5 32t34.5 84q0 54 -36.5 81t-92.5 27q-45 0 -77 -17t-46 -50h-120l21 326h442v-79h-328l-13 -152q28 23 65.5 35t88.5 12
q42 0 82.5 -10.5t71.5 -32t50 -56t19 -82.5z" />
    <glyph glyph-name="six.scprop" horiz-adv-x="628" 
d="M582 174q0 -44 -20 -79.5t-54.5 -60.5t-81 -38.5t-98.5 -13.5q-80 0 -132.5 22t-83.5 59.5t-43.5 88.5t-12.5 109q0 69 16.5 124.5t50 94t85.5 59.5t124 21q62 0 105.5 -11.5t71.5 -32t42 -48.5t16 -60h-125q-11 76 -109 76q-40 0 -68 -15t-46 -41t-27.5 -61t-10.5 -75
q25 29 67 46t101 17q47 0 89 -11.5t74 -34t51 -56.5t19 -79zM455 171q0 53 -37.5 80.5t-95.5 27.5q-27 0 -51 -8t-42 -22t-28 -34.5t-10 -44.5q0 -47 34.5 -79t96.5 -32q30 0 54.5 8.5t42 23.5t27 35.5t9.5 44.5z" />
    <glyph glyph-name="seven.scprop" horiz-adv-x="568" 
d="M256 0h-144l290 460h-369v82h497v-84z" />
    <glyph glyph-name="eight.scprop" horiz-adv-x="628" 
d="M582 147q0 -44 -23.5 -75t-62 -50.5t-86 -29t-95.5 -9.5q-51 0 -99.5 8.5t-86 28t-60 50.5t-22.5 76q0 26 11 48.5t29.5 40.5t43.5 30t53 18q-54 12 -86.5 46t-32.5 74q0 41 22 70.5t57 49t80 28.5t91 9q48 0 93 -8.5t79.5 -27.5t55.5 -49t21 -72q0 -47 -35 -78t-86 -42
q28 -6 53.5 -17t44.5 -27.5t30 -39.5t11 -52zM440 400q0 21 -10 37t-27 26.5t-40 15.5t-48 5t-48 -5.5t-40.5 -16t-28 -26t-10.5 -36.5q0 -20 10 -35t27.5 -25t40.5 -15.5t49 -5.5q25 0 47.5 5.5t40 16t27.5 25.5t10 34zM458 152q0 42 -38.5 66.5t-103.5 24.5
q-31 0 -57 -6.5t-45.5 -18.5t-30.5 -29t-11 -38q0 -47 40 -69.5t103 -22.5q30 0 56 6t45.5 18t30.5 29.5t11 39.5z" />
    <glyph glyph-name="nine.scprop" horiz-adv-x="628" 
d="M574 287q0 -68 -15 -124.5t-48 -96.5t-85 -62t-125 -22q-60 0 -104 11t-73 31t-44 48.5t-18 63.5h125q9 -77 116 -77q41 0 68.5 15.5t44 42.5t24 63t9.5 77q-28 -33 -73.5 -48.5t-100.5 -15.5q-45 0 -86 10.5t-72 33t-49.5 56t-18.5 80.5q0 43 20 77.5t54.5 59t81 37.5
t98.5 13q73 0 124.5 -19t84 -54t47.5 -86t15 -114zM438 375q0 46 -32 77.5t-99 31.5q-32 0 -56.5 -9t-41.5 -24t-25.5 -35t-8.5 -41q0 -50 35 -78t97 -28t96.5 31.5t34.5 74.5z" />
    <glyph glyph-name="zero.prop" 
d="M695 369q0 -99 -23 -172t-65 -121t-101.5 -71.5t-132.5 -23.5q-68 0 -126.5 20.5t-102 66.5t-68.5 120t-25 181q0 90 23.5 159.5t66 117t101.5 71.5t131 24q157 0 239.5 -95.5t82.5 -276.5zM557 369q0 63 -10 114t-31.5 87t-56.5 55.5t-86 19.5q-49 0 -83.5 -20
t-57 -56.5t-33 -87.5t-10.5 -112q0 -150 44 -221t140 -71q94 0 139 71t45 221z" />
    <glyph glyph-name="one.prop" horiz-adv-x="576" 
d="M286 0v589q-47 -38 -95 -63t-108 -45v119q60 19 116.5 51.5t103.5 70.5h119v-722h-136z" />
    <glyph glyph-name="two.prop" 
d="M66 0v111q103 60 187.5 114.5t145 105t94 98t33.5 92.5q0 31 -12 54t-32 37.5t-47.5 21.5t-57.5 7q-71 0 -113 -34.5t-44 -91.5h-138q1 55 24 97.5t62.5 71t92.5 43t115 14.5q142 0 215 -60t73 -160q0 -44 -23.5 -88t-61.5 -85.5t-84.5 -80t-93.5 -70.5t-88.5 -57
t-68.5 -40h433v-100h-611z" />
    <glyph glyph-name="three.prop" 
d="M671 195q0 -53 -23.5 -93t-65.5 -67t-101.5 -41t-131.5 -14q-141 0 -218 51.5t-79 158.5h139q0 -29 13 -50.5t35 -35t51 -20t62 -6.5q37 0 69.5 6.5t57.5 21t39.5 36.5t14.5 52q0 67 -52 97.5t-145 30.5h-46v98h45q52 0 87 10t56 26.5t30 37.5t9 42q0 26 -11.5 46
t-31.5 33.5t-47.5 20.5t-60.5 7q-74 0 -112.5 -27t-42.5 -70h-137q1 46 23.5 82.5t61.5 61t92 37.5t116 13q75 0 129 -15.5t89 -42t51.5 -62t16.5 -76.5q0 -30 -9.5 -57.5t-29 -50.5t-48.5 -40t-67 -24q33 -6 64 -17t55 -31.5t38.5 -51.5t14.5 -77z" />
    <glyph glyph-name="four.prop" 
d="M584 168v-168h-128v168h-409v129l377 425h160v-457h144v-97h-144zM456 621l-308 -356h308v356z" />
    <glyph glyph-name="five.prop" 
d="M682 240q0 -65 -25 -114t-67.5 -81t-98.5 -48t-118 -16q-54 0 -107.5 10t-95.5 33.5t-68.5 63.5t-26.5 100h139q1 -28 13.5 -48.5t33.5 -34t49 -20t60 -6.5q84 0 129 42.5t45 117.5q0 37 -13 64t-35.5 44.5t-53 26t-64.5 8.5q-57 0 -99 -21.5t-59 -67.5h-131l24 429h528
v-100h-406l-17 -218q38 38 86.5 56t111.5 18q47 0 94.5 -12.5t85.5 -41t62 -73.5t24 -111z" />
    <glyph glyph-name="six.prop" 
d="M690 235q0 -59 -23.5 -106t-64 -80t-96 -50.5t-118.5 -17.5q-94 0 -156.5 28t-99.5 76.5t-52 115.5t-15 145q0 90 19.5 162.5t60 124.5t103 80t148.5 28q72 0 123.5 -15t85 -41.5t50 -62.5t19.5 -79h-136q-8 50 -42 75t-99 25q-94 0 -143.5 -70.5t-52.5 -195.5
q15 19 35 36t46 30t58.5 21t72.5 8q56 0 106 -14.5t88 -44t60.5 -74t22.5 -104.5zM553 230q0 35 -13 62t-36.5 45.5t-54.5 28t-67 9.5q-35 0 -66 -10t-54 -29t-36 -45.5t-13 -60.5q0 -32 12.5 -60t35 -48t53.5 -31.5t69 -11.5q37 0 68.5 11.5t54 32t35 48t12.5 59.5z" />
    <glyph glyph-name="seven.prop" horiz-adv-x="666" 
d="M296 0h-159l352 619h-453v103h591v-109z" />
    <glyph glyph-name="eight.prop" 
d="M691 194q0 -54 -27 -94.5t-72 -66.5t-102 -39t-117 -13q-65 0 -123 11.5t-101.5 37t-68.5 66t-25 97.5q0 37 14 68.5t38.5 55.5t57.5 39t70 20q-37 6 -66.5 21t-50.5 36.5t-32 47.5t-11 53q0 51 24 89.5t65 64.5t95 39.5t114 13.5q63 0 117 -12.5t93.5 -38.5t62 -65
t22.5 -91q0 -32 -12.5 -58.5t-34.5 -47t-51.5 -34t-63.5 -18.5q39 -6 72.5 -19.5t58.5 -36t39.5 -54t14.5 -72.5zM534 531q0 28 -12.5 49.5t-34 35.5t-51 21t-63.5 7q-32 0 -62 -7t-52.5 -21.5t-36 -35.5t-13.5 -49q0 -26 12.5 -46.5t34.5 -35t52 -22t65 -7.5q33 0 62.5 8
t51.5 22t34.5 34.5t12.5 46.5zM555 199q0 60 -47.5 92.5t-133.5 32.5q-40 0 -73.5 -8.5t-58 -24.5t-38 -39.5t-13.5 -53.5q0 -61 48.5 -90.5t133.5 -29.5q40 0 73.5 8.5t57.5 24t37.5 38t13.5 50.5z" />
    <glyph glyph-name="nine.prop" 
d="M680 387q0 -96 -19 -171.5t-58.5 -127.5t-101.5 -79.5t-148 -27.5q-136 0 -205 52t-78 149h137q5 -54 44 -78.5t107 -24.5q57 0 92.5 25t56 65t29 89.5t10.5 99.5q-35 -53 -95 -74.5t-130 -21.5q-52 0 -100 13.5t-84.5 42t-58.5 72t-22 104.5q0 55 23.5 100.5t64 78
t95.5 50.5t118 18q323 0 323 -354zM531 497q0 30 -10 57t-30.5 46.5t-52.5 31t-76 11.5q-42 0 -74 -12.5t-53 -33t-31.5 -47t-10.5 -53.5q0 -64 43 -101t126 -37q41 0 72.5 11.5t53 31t32.5 44t11 51.5z" />
    <glyph glyph-name="Euro.prop" 
d="M497 -18q-71 0 -128 14t-99.5 45.5t-70 83.5t-39.5 128h-101l20 77h75q-1 10 -1.5 20t-0.5 21q0 8 0.5 17.5t0.5 17.5h-92l20 78h81q25 122 108 189t233 67q71 0 122.5 -16.5t76.5 -35.5l-28 -94q-21 15 -60.5 31t-110.5 16q-93 0 -142 -38.5t-63 -118.5h340l-20 -78
h-328q-1 -10 -1 -18v-17v-20.5t1 -20.5h300l-20 -77h-273q8 -94 62.5 -133t143.5 -39q56 0 99 13t74 37v-113q-29 -16 -72.5 -26t-106.5 -10z" />
    <glyph glyph-name="cent.prop" horiz-adv-x="686" 
d="M639 171q-5 -48 -28.5 -83.5t-62 -59t-89 -35.5t-108.5 -12q-18 0 -34.5 1.5t-32.5 3.5l-36 -106h-59l41 119q-81 26 -130 89t-49 162q0 67 23.5 118t64.5 85t98 51t124 17q11 0 23 -0.5t23 -1.5l32 91h59l-35 -100q33 -8 62 -22t52 -35t37.5 -50t19.5 -67h-136
q-9 64 -64 89l-122 -356q21 -6 46 -6q62 0 101 28.5t42 79.5h138zM380 438q-5 1 -9 1h-9q-37 0 -68.5 -12.5t-55 -36.5t-36.5 -59t-13 -80q0 -50 18 -91.5t54 -67.5z" />
    <glyph glyph-name="dollar.prop" 
d="M716 214q0 -57 -23 -99t-64 -70.5t-97 -44t-122 -19.5v-103h-63v103q-83 2 -141.5 19.5t-97 49t-58 75t-22.5 97.5h144q2 -66 48 -100t127 -39v226l-53 8q-47 7 -91 19t-78.5 34.5t-55.5 57t-21 87.5q0 55 22 96.5t61.5 69.5t94.5 43t121 17v90h63v-90q63 -3 114.5 -16.5
t88.5 -40t58.5 -66t24.5 -93.5h-142q-3 28 -15 48.5t-31 33.5t-44.5 20t-53.5 10v-214l112 -20q92 -17 143 -62.5t51 -126.5zM347 639h-5q-33 0 -61 -8t-49 -23t-32.5 -35t-11.5 -44q0 -30 17 -46.5t41.5 -25.5t52 -13t48.5 -9v204zM576 200q0 25 -12.5 42t-35 28t-53 18
t-65.5 12v-217q86 6 126 40t40 77z" />
    <glyph glyph-name="sterling.prop" 
d="M565 538q-3 56 -38 82.5t-88 26.5q-26 0 -51 -8.5t-44.5 -27t-31 -47.5t-11.5 -71v-67h197v-94h-197v-230h383v-102h-615v102h96v230h-101v94h101v71q0 63 20 109t56.5 76t87 44.5t111.5 14.5q52 0 99.5 -10.5t83.5 -34t57.5 -62.5t22.5 -96h-138z" />
    <glyph glyph-name="florin.prop" horiz-adv-x="686" 
d="M608 643q-13 4 -32.5 7t-36.5 3q-55 0 -82 -25t-36 -81l-6 -38h176l-13 -86h-176l-56 -381q-10 -66 -25.5 -110.5t-43 -72t-69.5 -39.5t-105 -12q-18 0 -42.5 2.5t-45.5 5.5l12 83q21 -3 35 -3q37 0 62.5 6t43 23.5t28.5 49t19 84.5l53 364h-164l14 86h161l8 53
q8 55 25.5 89.5t44.5 54.5t63.5 27.5t82.5 7.5q30 0 62 -3t56 -8z" />
    <glyph glyph-name="yen.prop" 
d="M489 384h133v-78h-178l-10 -18v-58h188v-77h-188v-153h-123v153h-188v77h188v57l-9 19h-179v78h132l-214 338h149l187 -326l187 326h139z" />
    <glyph glyph-name="zero.onumprop" horiz-adv-x="760" 
d="M711 274q0 -64 -23 -117.5t-66 -92.5t-104.5 -60.5t-138.5 -21.5t-138.5 21.5t-104.5 60.5t-66 92.5t-23 117.5t23 117.5t65.5 92.5t104 60.5t139.5 21.5q77 0 138.5 -21.5t104.5 -60.5t66 -92.5t23 -117.5zM571 274q0 42 -12.5 78.5t-36.5 63.5t-60 42t-83 15t-83 -15
t-60 -42t-36.5 -63.5t-12.5 -78.5t12.5 -78t36.5 -63t60 -42t83 -15t83 15t60 42t36.5 63t12.5 78z" />
    <glyph glyph-name="one.onumprop" horiz-adv-x="536" 
d="M277 0v428q-48 -33 -108 -57t-120 -42v107q29 7 61 18.5t64.5 26t64 31.5t58.5 37h114v-549h-134z" />
    <glyph glyph-name="two.onumprop" 
d="M79 0v92l214 105q69 34 113.5 61t70 49t35.5 42t10 41q0 39 -34 63.5t-105 24.5q-138 0 -153 -106h-137q4 46 27 82t60.5 61t89 38t112.5 13q137 0 207.5 -46.5t70.5 -126.5q0 -35 -13.5 -65t-43 -58.5t-75.5 -56.5t-110 -59l-123 -59h374v-95h-590z" />
    <glyph glyph-name="three.onumprop" 
d="M670 50q0 -50 -23 -89t-64 -66t-96.5 -41.5t-121.5 -14.5q-67 0 -122 12t-94 37.5t-60.5 65.5t-21.5 95h139q0 -32 12 -53.5t33 -35.5t50 -20t63 -6q76 0 121 29.5t45 89.5q0 57 -44 85t-125 28h-58v97h57q83 0 119 31t36 78q0 50 -36.5 76t-105.5 26q-66 0 -104 -24.5
t-44 -76.5h-135q0 46 21.5 82t59.5 61t90 37.5t114 12.5q76 0 128.5 -15t85.5 -40.5t47.5 -59.5t14.5 -72q0 -58 -39 -102.5t-117 -60.5q81 -14 128 -54.5t47 -111.5z" />
    <glyph glyph-name="four.onumprop" 
d="M581 0v-144h-127v144h-406v125l377 424h156v-453h142v-96h-142zM454 445l-306 -349h306v349z" />
    <glyph glyph-name="five.onumprop" 
d="M676 85q0 -61 -24 -107.5t-65 -77.5t-96 -46.5t-117 -15.5q-58 0 -111 10t-93.5 33t-65 60t-25.5 91h139q6 -49 45.5 -73t108.5 -24q84 0 125 41t41 107q0 69 -40.5 104.5t-115.5 35.5q-59 0 -99.5 -23t-57.5 -64h-131l25 413h513v-98h-391l-16 -210q29 32 76.5 55
t117.5 23q55 0 102 -14t81.5 -43t54 -73t19.5 -104z" />
    <glyph glyph-name="six.onumprop" 
d="M686 228q0 -58 -23 -103.5t-63.5 -77t-95.5 -48t-118 -16.5q-90 0 -150.5 27t-97 74.5t-52 112.5t-15.5 141q0 90 20.5 161t60.5 120.5t100 76t140 26.5q73 0 124 -14.5t84 -40.5t49 -61t18 -76h-135q-8 46 -41 71t-97 25q-51 0 -86.5 -20.5t-58 -56.5t-32.5 -84
t-11 -102q29 45 83 71.5t128 26.5q56 0 105 -14t85.5 -43t57.5 -72.5t21 -103.5zM548 223q0 71 -45.5 107t-118.5 36q-33 0 -63.5 -9.5t-54 -28t-37 -45.5t-13.5 -61q0 -32 12 -58.5t33.5 -45.5t52 -29.5t68.5 -10.5q77 0 121.5 40t44.5 105z" />
    <glyph glyph-name="seven.onumprop" horiz-adv-x="685" 
d="M305 -144h-157l354 589h-452v104h587v-112z" />
    <glyph glyph-name="eight.onumprop" 
d="M684 189q0 -51 -24 -89.5t-66 -64.5t-99 -39t-122 -13q-69 0 -126 12.5t-98.5 38t-64 64.5t-22.5 91q0 38 14.5 69t39 53.5t56.5 37t67 19.5q-71 11 -113 55t-42 103q0 48 21.5 84.5t60 61.5t91.5 37.5t116 12.5q64 0 117 -11.5t91.5 -35.5t59.5 -61t21 -88
q0 -34 -12.5 -60.5t-33.5 -46.5t-50 -32.5t-62 -18.5q34 -5 66.5 -18t57.5 -35t40.5 -53t15.5 -73zM528 518q0 28 -12.5 49t-33.5 34t-49.5 19.5t-59.5 6.5t-59 -6.5t-49.5 -19.5t-34 -34t-12.5 -49q0 -27 12.5 -47t34 -33t49.5 -19.5t59 -6.5t59 6.5t49.5 19.5t34 33
t12.5 47zM549 199q0 29 -13 51.5t-36.5 38t-55.5 23.5t-71 8q-38 0 -70 -8t-55.5 -23.5t-37 -38t-13.5 -52.5q0 -32 14.5 -55t38.5 -37.5t56 -21t67 -6.5q34 0 66 7t56.5 22t39 38t14.5 54z" />
    <glyph glyph-name="nine.onumprop" 
d="M676 220q0 -84 -18 -154.5t-56.5 -121t-98.5 -78.5t-144 -28q-72 0 -123.5 13.5t-84.5 38.5t-50 60.5t-21 78.5h136q8 -48 42.5 -72.5t101.5 -24.5q54 0 89 21.5t55.5 57.5t29 84t9.5 102q-34 -53 -89.5 -75t-126.5 -22q-53 0 -100.5 13t-83.5 40t-57 70t-21 103
q0 55 24 99.5t64.5 76t94.5 48t113 16.5q85 0 145 -24t98 -68.5t55 -108.5t17 -145zM529 330q0 62 -41 101.5t-122 39.5q-38 0 -68.5 -11t-51.5 -30t-32.5 -44.5t-11.5 -55.5q0 -69 45.5 -102.5t118.5 -33.5q34 0 64 9.5t52 27t34.5 42.5t12.5 57z" />
    <glyph glyph-name="zero.numerator" horiz-adv-x="484" 
d="M451 516q0 -50 -12.5 -90.5t-38.5 -70t-65.5 -45.5t-92.5 -16q-54 0 -93.5 16t-65 45t-38 70t-12.5 91q0 99 53 158.5t156 59.5q54 0 93 -15.5t65 -44t38.5 -69t12.5 -89.5zM352 516q0 69 -25 110t-85 41t-85 -42.5t-25 -108.5q0 -72 25 -113.5t85 -41.5q59 0 84.5 42
t25.5 113z" />
    <glyph glyph-name="one.numerator" horiz-adv-x="484" 
d="M224 302v337q-31 -23 -60.5 -36.5t-70.5 -26.5v80q40 12 76.5 30.5t66.5 38.5h84v-423h-96z" />
    <glyph glyph-name="two.numerator" horiz-adv-x="484" 
d="M47 302v72l91 52q45 25 81.5 47t63 43t40.5 41.5t14 40.5q0 29 -23.5 48t-65.5 19q-45 0 -69 -20.5t-26 -53.5h-99q2 73 54 108t136 35q94 0 143.5 -35.5t49.5 -95.5q0 -28 -15.5 -54.5t-41.5 -51t-59 -45.5t-67 -39l-72 -39h262v-72h-397z" />
    <glyph glyph-name="three.numerator" horiz-adv-x="484" 
d="M447 418q0 -33 -16 -56.5t-44 -38.5t-66 -22t-82 -7q-46 0 -82.5 7.5t-62 24t-39.5 43t-14 64.5h99q0 -20 9.5 -33.5t24 -21.5t32.5 -11.5t37 -3.5q51 0 78 17.5t27 44.5q0 33 -32 47t-87 14h-34v70h35q58 0 82 17t24 39q0 23 -23.5 38t-66.5 15q-38 0 -65.5 -14
t-29.5 -45h-97q1 36 16.5 60.5t41 39.5t58 21.5t68.5 6.5q51 0 88.5 -8.5t61.5 -24t36 -36.5t12 -46q0 -39 -28.5 -63.5t-75.5 -31.5v-2q53 -8 84 -33.5t31 -70.5z" />
    <glyph glyph-name="four.numerator" horiz-adv-x="484" 
d="M381 391v-89h-94v89h-267v82l244 252h117v-265h86v-69h-86zM287 654l-188 -194h188v194z" />
    <glyph glyph-name="five.numerator" horiz-adv-x="484" 
d="M447 444q0 -38 -16.5 -66t-44 -47t-64 -28t-76.5 -9q-41 0 -76.5 7.5t-62.5 22.5t-42.5 38.5t-15.5 56.5h98q3 -29 30.5 -43t66.5 -14q51 0 77.5 21.5t26.5 58.5q0 40 -28.5 58t-72.5 18q-75 0 -97 -43h-92l18 250h344v-70h-258l-11 -113q23 20 52 32t72 12
q35 0 66.5 -8.5t55 -26t37 -44t13.5 -63.5z" />
    <glyph glyph-name="six.numerator" horiz-adv-x="484" 
d="M445 440q0 -35 -16 -62.5t-43 -46t-62.5 -28t-74.5 -9.5q-62 0 -102.5 16.5t-64.5 45t-34 67t-10 82.5q0 109 51.5 169t161.5 60q49 0 83 -9.5t55.5 -25.5t32 -38.5t12.5 -47.5h-96q-4 26 -25 40t-61 14q-31 0 -52.5 -10.5t-35.5 -28.5t-20.5 -43t-7.5 -55q20 23 53 37.5
t78 14.5q36 0 68.5 -8.5t56.5 -26.5t38.5 -44.5t14.5 -62.5zM348 437q0 38 -29.5 58t-73.5 20q-43 0 -73 -21t-30 -57q0 -33 27.5 -54.5t75.5 -21.5q47 0 75 21t28 55z" />
    <glyph glyph-name="seven.numerator" horiz-adv-x="484" 
d="M222 302h-115l227 352h-283v71h386v-71z" />
    <glyph glyph-name="eight.numerator" horiz-adv-x="484" 
d="M451 421q0 -35 -18.5 -59t-48.5 -39t-67.5 -22t-74.5 -7q-40 0 -77.5 6.5t-67 21.5t-47 39t-17.5 60q0 38 27.5 64t72.5 37q-42 12 -64.5 36t-22.5 53q0 32 17 55t45 38t63 22.5t71 7.5q37 0 72.5 -7t62.5 -21.5t43.5 -38t16.5 -56.5q0 -32 -23 -55t-63 -34
q45 -10 72.5 -34.5t27.5 -66.5zM341 609q0 29 -29 43.5t-70 14.5q-39 0 -69 -15t-30 -43q0 -27 29 -41t70 -14q39 0 69 14t30 41zM354 424q0 30 -30 46.5t-81 16.5q-48 0 -80.5 -16.5t-32.5 -46.5q0 -32 31.5 -47.5t80.5 -15.5q48 0 80 16t32 47z" />
    <glyph glyph-name="nine.numerator" horiz-adv-x="484" 
d="M445 525q0 -52 -11.5 -94.5t-36.5 -73t-65 -47t-98 -16.5q-94 0 -137.5 32.5t-47.5 89.5h96q5 -28 26 -41.5t63 -13.5q61 0 86.5 36.5t27.5 102.5q-21 -26 -56.5 -38t-77.5 -12q-35 0 -67 8t-56 24.5t-38.5 43t-14.5 62.5q0 34 16 61t43 46t63 29t75 10q111 0 160.5 -54
t49.5 -155zM341 590q0 33 -26.5 55t-76.5 22q-47 0 -74.5 -22.5t-27.5 -54.5q0 -37 28.5 -56t73.5 -19t74 20t29 55z" />
    <glyph glyph-name="zero.denominator" horiz-adv-x="484" 
d="M451 211q0 -50 -12.5 -90.5t-38.5 -70t-65.5 -45.5t-92.5 -16q-54 0 -93.5 16t-65 45t-38 70t-12.5 91q0 99 53 158.5t156 59.5q54 0 93 -15.5t65 -44t38.5 -69t12.5 -89.5zM352 211q0 69 -25 110t-85 41t-85 -42.5t-25 -108.5q0 -72 25 -113.5t85 -41.5q59 0 84.5 42
t25.5 113z" />
    <glyph glyph-name="one.denominator" horiz-adv-x="484" 
d="M224 -3v337q-31 -23 -60.5 -36.5t-70.5 -26.5v80q40 12 76.5 30.5t66.5 38.5h84v-423h-96z" />
    <glyph glyph-name="two.denominator" horiz-adv-x="484" 
d="M47 -3v72l91 52q45 25 81.5 47t63 43t40.5 41.5t14 40.5q0 29 -23.5 48t-65.5 19q-45 0 -69 -20.5t-26 -53.5h-99q2 73 54 108t136 35q94 0 143.5 -35.5t49.5 -95.5q0 -28 -15.5 -54.5t-41.5 -51t-59 -45.5t-67 -39l-72 -39h262v-72h-397z" />
    <glyph glyph-name="three.denominator" horiz-adv-x="484" 
d="M447 113q0 -33 -16 -56.5t-44 -38.5t-66 -22t-82 -7q-46 0 -82.5 7.5t-62 24t-39.5 43t-14 64.5h99q0 -20 9.5 -33.5t24 -21.5t32.5 -11.5t37 -3.5q51 0 78 17.5t27 44.5q0 33 -32 47t-87 14h-34v70h35q58 0 82 17t24 39q0 23 -23.5 38t-66.5 15q-38 0 -65.5 -14
t-29.5 -45h-97q1 36 16.5 60.5t41 39.5t58 21.5t68.5 6.5q51 0 88.5 -8.5t61.5 -24t36 -36.5t12 -46q0 -39 -28.5 -63.5t-75.5 -31.5v-2q53 -8 84 -33.5t31 -70.5z" />
    <glyph glyph-name="four.denominator" horiz-adv-x="484" 
d="M381 86v-89h-94v89h-267v82l244 252h117v-265h86v-69h-86zM287 349l-188 -194h188v194z" />
    <glyph glyph-name="five.denominator" horiz-adv-x="484" 
d="M447 139q0 -38 -16.5 -66t-44 -47t-64 -28t-76.5 -9q-41 0 -76.5 7.5t-62.5 22.5t-42.5 38.5t-15.5 56.5h98q3 -29 30.5 -43t66.5 -14q51 0 77.5 21.5t26.5 58.5q0 40 -28.5 58t-72.5 18q-75 0 -97 -43h-92l18 250h344v-70h-258l-11 -113q23 20 52 32t72 12
q35 0 66.5 -8.5t55 -26t37 -44t13.5 -63.5z" />
    <glyph glyph-name="six.denominator" horiz-adv-x="484" 
d="M445 135q0 -35 -16 -62.5t-43 -46t-62.5 -28t-74.5 -9.5q-62 0 -102.5 16.5t-64.5 45t-34 67t-10 82.5q0 109 51.5 169t161.5 60q49 0 83 -9.5t55.5 -25.5t32 -38.5t12.5 -47.5h-96q-4 26 -25 40t-61 14q-31 0 -52.5 -10.5t-35.5 -28.5t-20.5 -43t-7.5 -55q20 23 53 37.5
t78 14.5q36 0 68.5 -8.5t56.5 -26.5t38.5 -44.5t14.5 -62.5zM348 132q0 38 -29.5 58t-73.5 20q-43 0 -73 -21t-30 -57q0 -33 27.5 -54.5t75.5 -21.5q47 0 75 21t28 55z" />
    <glyph glyph-name="seven.denominator" horiz-adv-x="484" 
d="M222 -3h-115l227 352h-283v71h386v-71z" />
    <glyph glyph-name="eight.denominator" horiz-adv-x="484" 
d="M451 116q0 -35 -18.5 -59t-48.5 -39t-67.5 -22t-74.5 -7q-40 0 -77.5 6.5t-67 21.5t-47 39t-17.5 60q0 38 27.5 64t72.5 37q-42 12 -64.5 36t-22.5 53q0 32 17 55t45 38t63 22.5t71 7.5q37 0 72.5 -7t62.5 -21.5t43.5 -38t16.5 -56.5q0 -32 -23 -55t-63 -34
q45 -10 72.5 -34.5t27.5 -66.5zM341 304q0 29 -29 43.5t-70 14.5q-39 0 -69 -15t-30 -43q0 -27 29 -41t70 -14q39 0 69 14t30 41zM354 119q0 30 -30 46.5t-81 16.5q-48 0 -80.5 -16.5t-32.5 -46.5q0 -32 31.5 -47.5t80.5 -15.5q48 0 80 16t32 47z" />
    <glyph glyph-name="nine.denominator" horiz-adv-x="484" 
d="M445 220q0 -52 -11.5 -94.5t-36.5 -73t-65 -47t-98 -16.5q-94 0 -137.5 32.5t-47.5 89.5h96q5 -28 26 -41.5t63 -13.5q61 0 86.5 36.5t27.5 102.5q-21 -26 -56.5 -38t-77.5 -12q-35 0 -67 8t-56 24.5t-38.5 43t-14.5 62.5q0 34 16 61t43 46t63 29t75 10q111 0 160.5 -54
t49.5 -155zM341 285q0 33 -26.5 55t-76.5 22q-47 0 -74.5 -22.5t-27.5 -54.5q0 -37 28.5 -56t73.5 -19t74 20t29 55z" />
    <glyph glyph-name="onehalf.alt01" 
d="M333 456v198q-21 -11 -42 -18.5t-47 -13.5v58q25 5 51.5 16.5t52.5 25.5h64v-266h-79zM124 338v51h497v-51h-497zM225 0v51l100 49q54 27 77 46.5t23 41.5q0 17 -15.5 26t-38.5 9q-27 0 -41 -12t-16 -31h-80q2 45 40.5 69t96.5 24q65 0 100 -23t35 -62q0 -36 -31.5 -62.5
t-89.5 -56.5l-39 -20h162v-49h-283z" />
    <glyph glyph-name="onethird.alt01" 
d="M333 456v198q-21 -11 -42 -18.5t-47 -13.5v58q25 5 51.5 16.5t52.5 25.5h64v-266h-79zM124 338v51h497v-51h-497zM515 76q0 -21 -11.5 -36.5t-31 -26t-46 -15.5t-55.5 -5q-65 0 -103.5 19.5t-40.5 68.5h81q1 -22 19 -31t44 -9q32 0 47.5 10.5t15.5 26.5q0 19 -15 26.5
t-49 7.5h-34v49h34q34 0 45.5 9.5t11.5 23.5t-13.5 22t-39.5 8q-52 0 -58 -34h-78q2 42 41.5 62.5t95.5 20.5q71 0 102 -21.5t31 -52.5q0 -23 -14 -37t-40 -23q26 -7 43.5 -20.5t17.5 -42.5z" />
    <glyph glyph-name="onequarter.alt01" 
d="M333 456v198q-21 -11 -42 -18.5t-47 -13.5v58q25 5 51.5 16.5t52.5 25.5h64v-266h-79zM124 338v51h497v-51h-497zM460 57v-57h-75v57h-179v55l169 154h85v-161h60v-48h-60zM386 209l-118 -104h118v104z" />
    <glyph glyph-name="oneeighth.alt01" 
d="M333 456v198q-21 -11 -42 -18.5t-47 -13.5v58q25 5 51.5 16.5t52.5 25.5h64v-266h-79zM124 338v51h497v-51h-497zM520 75q0 -23 -13.5 -38.5t-35 -25.5t-48 -14t-51.5 -4q-27 0 -53.5 4t-48 13.5t-34.5 25.5t-13 39t18 39t44 24q-24 8 -38 23t-14 32q0 22 11.5 37
t31 24.5t44.5 14t52 4.5t52 -4.5t44.5 -14t31 -24.5t11.5 -37q0 -20 -15 -33.5t-37 -21.5q25 -7 43 -22t18 -41zM432 192q0 17 -17.5 25t-42.5 8t-42.5 -8t-17.5 -25q0 -16 17 -23.5t43 -7.5q25 0 42.5 7.5t17.5 23.5zM441 77q0 17 -19 26.5t-50 9.5t-50 -9.5t-19 -26.5
t19.5 -26.5t49.5 -9.5q29 0 49 9.5t20 26.5z" />
    <glyph glyph-name="twothirds.alt01" 
d="M225 456v51l100 49q54 27 77 46.5t23 41.5q0 17 -15.5 26t-38.5 9q-27 0 -41 -12t-16 -31h-80q2 45 40.5 69t96.5 24q65 0 100 -23t35 -62q0 -36 -31.5 -62.5t-89.5 -56.5l-39 -20h162v-49h-283zM124 338v51h497v-51h-497zM515 76q0 -21 -11.5 -36.5t-31 -26t-46 -15.5
t-55.5 -5q-65 0 -103.5 19.5t-40.5 68.5h81q1 -22 19 -31t44 -9q32 0 47.5 10.5t15.5 26.5q0 19 -15 26.5t-49 7.5h-34v49h34q34 0 45.5 9.5t11.5 23.5t-13.5 22t-39.5 8q-52 0 -58 -34h-78q2 42 41.5 62.5t95.5 20.5q71 0 102 -21.5t31 -52.5q0 -23 -14 -37t-40 -23
q26 -7 43.5 -20.5t17.5 -42.5z" />
    <glyph glyph-name="threequarters.alt01" 
d="M515 532q0 -21 -11.5 -36.5t-31 -26t-46 -15.5t-55.5 -5q-65 0 -103.5 19.5t-40.5 68.5h81q1 -22 19 -31t44 -9q32 0 47.5 10.5t15.5 26.5q0 19 -15 26.5t-49 7.5h-34v49h34q34 0 45.5 9.5t11.5 23.5t-13.5 22t-39.5 8q-52 0 -58 -34h-78q2 42 41.5 62.5t95.5 20.5
q71 0 102 -21.5t31 -52.5q0 -23 -14 -37t-40 -23q26 -7 43.5 -20.5t17.5 -42.5zM124 338v51h497v-51h-497zM460 57v-57h-75v57h-179v55l169 154h85v-161h60v-48h-60zM386 209l-118 -104h118v104z" />
    <glyph glyph-name="threeeighths.alt01" 
d="M515 532q0 -21 -11.5 -36.5t-31 -26t-46 -15.5t-55.5 -5q-65 0 -103.5 19.5t-40.5 68.5h81q1 -22 19 -31t44 -9q32 0 47.5 10.5t15.5 26.5q0 19 -15 26.5t-49 7.5h-34v49h34q34 0 45.5 9.5t11.5 23.5t-13.5 22t-39.5 8q-52 0 -58 -34h-78q2 42 41.5 62.5t95.5 20.5
q71 0 102 -21.5t31 -52.5q0 -23 -14 -37t-40 -23q26 -7 43.5 -20.5t17.5 -42.5zM124 338v51h497v-51h-497zM520 75q0 -23 -13.5 -38.5t-35 -25.5t-48 -14t-51.5 -4q-27 0 -53.5 4t-48 13.5t-34.5 25.5t-13 39t18 39t44 24q-24 8 -38 23t-14 32q0 22 11.5 37t31 24.5t44.5 14
t52 4.5t52 -4.5t44.5 -14t31 -24.5t11.5 -37q0 -20 -15 -33.5t-37 -21.5q25 -7 43 -22t18 -41zM432 192q0 17 -17.5 25t-42.5 8t-42.5 -8t-17.5 -25q0 -16 17 -23.5t43 -7.5q25 0 42.5 7.5t17.5 23.5zM441 77q0 17 -19 26.5t-50 9.5t-50 -9.5t-19 -26.5t19.5 -26.5
t49.5 -9.5q29 0 49 9.5t20 26.5z" />
    <glyph glyph-name="fiveeighths.alt01" 
d="M513 545q0 -24 -12 -42t-32 -30t-46 -18t-53 -6t-51.5 4t-44 14t-31.5 25t-13 38h81q3 -15 18 -24t39 -9q34 0 49 13.5t15 33.5q0 22 -16.5 32t-44.5 10q-44 0 -59 -26h-76l14 162h243v-49h-173l-6 -64q13 11 31 18t47 7q51 0 86 -20.5t35 -68.5zM124 338v51h497v-51
h-497zM520 75q0 -23 -13.5 -38.5t-35 -25.5t-48 -14t-51.5 -4q-27 0 -53.5 4t-48 13.5t-34.5 25.5t-13 39t18 39t44 24q-24 8 -38 23t-14 32q0 22 11.5 37t31 24.5t44.5 14t52 4.5t52 -4.5t44.5 -14t31 -24.5t11.5 -37q0 -20 -15 -33.5t-37 -21.5q25 -7 43 -22t18 -41z
M432 192q0 17 -17.5 25t-42.5 8t-42.5 -8t-17.5 -25q0 -16 17 -23.5t43 -7.5q25 0 42.5 7.5t17.5 23.5zM441 77q0 17 -19 26.5t-50 9.5t-50 -9.5t-19 -26.5t19.5 -26.5t49.5 -9.5q29 0 49 9.5t20 26.5z" />
    <glyph glyph-name="seveneighths.alt01" 
d="M276 456l157 215h-191v51h275v-50l-148 -216h-93zM124 338v51h497v-51h-497zM520 75q0 -23 -13.5 -38.5t-35 -25.5t-48 -14t-51.5 -4q-27 0 -53.5 4t-48 13.5t-34.5 25.5t-13 39t18 39t44 24q-24 8 -38 23t-14 32q0 22 11.5 37t31 24.5t44.5 14t52 4.5t52 -4.5t44.5 -14
t31 -24.5t11.5 -37q0 -20 -15 -33.5t-37 -21.5q25 -7 43 -22t18 -41zM432 192q0 17 -17.5 25t-42.5 8t-42.5 -8t-17.5 -25q0 -16 17 -23.5t43 -7.5q25 0 42.5 7.5t17.5 23.5zM441 77q0 17 -19 26.5t-50 9.5t-50 -9.5t-19 -26.5t19.5 -26.5t49.5 -9.5q29 0 49 9.5t20 26.5z
" />
    <glyph glyph-name="Amacron" unicode="&#x100;" horiz-adv-x="922" 
d="M759 0l-84 173h-436l-85 -173h-150l375 722h166l373 -722h-159zM458 618l-169 -346h337zM270 813v79h373v-79h-373z" />
    <glyph glyph-name="amacron" unicode="&#x101;" horiz-adv-x="694" 
d="M490 0q-1 6 -1.5 16t-1 21t-1 20.5t-1.5 15.5q-20 -28 -43.5 -45.5t-51 -28t-58.5 -14.5t-67 -4q-50 0 -90 11.5t-68 32.5t-43.5 51.5t-15.5 68.5q0 43 18.5 72t48.5 48t68.5 29t78.5 14.5t78 5t68 0.5h72v17q0 62 -35 86t-95 24q-63 0 -95.5 -21t-35.5 -55h-136
q4 46 29 76t62.5 48t83.5 25t92 7q57 0 105 -10t82.5 -33t53.5 -59.5t19 -88.5v-229q0 -9 0.5 -23.5t1 -29.5t1 -28t1.5 -20h-124zM480 236h-61q-30 0 -70.5 -2t-77 -11t-61.5 -27.5t-25 -51.5q0 -36 28.5 -58.5t89.5 -22.5q92 0 134.5 42t42.5 116v15zM162 617v79h373v-79
h-373z" />
    <glyph glyph-name="Abreve" unicode="&#x102;" horiz-adv-x="922" 
d="M759 0l-84 173h-436l-85 -173h-150l375 722h166l373 -722h-159zM458 618l-169 -346h337zM641 910q-12 -65 -55.5 -104t-128.5 -39t-129 39t-56 104h64q17 -37 49 -53t72 -16q39 0 71 16t49 53h64v0z" />
    <glyph glyph-name="abreve" unicode="&#x103;" horiz-adv-x="694" 
d="M490 0q-1 6 -1.5 16t-1 21t-1 20.5t-1.5 15.5q-20 -28 -43.5 -45.5t-51 -28t-58.5 -14.5t-67 -4q-50 0 -90 11.5t-68 32.5t-43.5 51.5t-15.5 68.5q0 43 18.5 72t48.5 48t68.5 29t78.5 14.5t78 5t68 0.5h72v17q0 62 -35 86t-95 24q-63 0 -95.5 -21t-35.5 -55h-136
q4 46 29 76t62.5 48t83.5 25t92 7q57 0 105 -10t82.5 -33t53.5 -59.5t19 -88.5v-229q0 -9 0.5 -23.5t1 -29.5t1 -28t1.5 -20h-124zM480 236h-61q-30 0 -70.5 -2t-77 -11t-61.5 -27.5t-25 -51.5q0 -36 28.5 -58.5t89.5 -22.5q92 0 134.5 42t42.5 116v15zM533 722
q-12 -65 -55.5 -104t-128.5 -39t-129 39t-56 104h64q17 -37 49 -53t72 -16q39 0 71 16t49 53h64v0z" />
    <glyph glyph-name="Aogonek" unicode="&#x104;" horiz-adv-x="922" 
d="M954 -193q-21 -6 -53 -10.5t-64 -4.5q-64 0 -96 19t-32 52q0 19 11.5 39.5t30.5 38.5t44 33.5t52 25.5h-88l-84 173h-436l-85 -173h-150l375 722h166l373 -722q-31 -20 -52 -36t-34 -30.5t-18.5 -27t-5.5 -24.5q0 -19 18.5 -29.5t48.5 -10.5q14 0 30.5 2.5t31.5 7.5z
M458 618l-169 -346h337z" />
    <glyph glyph-name="aogonek" unicode="&#x105;" horiz-adv-x="694" 
d="M650 -193q-21 -6 -53 -10.5t-64 -4.5q-64 0 -96 19t-32 52q0 19 11.5 39.5t30.5 38.5t44 33.5t52 25.5h-53q-1 6 -1.5 16t-1 21t-1 20.5t-1.5 15.5q-20 -28 -43.5 -45.5t-51 -28t-58.5 -14.5t-67 -4q-50 0 -90 11.5t-68 32.5t-43.5 51.5t-15.5 68.5q0 43 18.5 72t48.5 48
t68.5 29t78.5 14.5t78 5t68 0.5h72v17q0 62 -35 86t-95 24q-63 0 -95.5 -21t-35.5 -55h-136q4 46 29 76t62.5 48t83.5 25t92 7q57 0 105 -10t82.5 -33t53.5 -59.5t19 -88.5v-229q0 -9 0.5 -23.5t1 -29.5t1 -28t1.5 -20q-31 -20 -52 -36t-34 -30.5t-18.5 -27t-5.5 -24.5
q0 -19 18.5 -29.5t48.5 -10.5q14 0 30.5 2.5t31.5 7.5zM480 236h-61q-30 0 -70.5 -2t-77 -11t-61.5 -27.5t-25 -51.5q0 -36 28.5 -58.5t89.5 -22.5q92 0 134.5 42t42.5 116v15z" />
    <glyph glyph-name="Cacute" unicode="&#x106;" horiz-adv-x="850" 
d="M806 216q-6 -65 -36.5 -110t-79.5 -72.5t-112 -40t-134 -12.5q-95 0 -167.5 27t-121.5 76.5t-74 120t-25 156.5q0 76 24.5 145t75 121t128 83t183.5 31q66 0 125 -15t104 -43.5t72.5 -70.5t29.5 -96h-150q-6 33 -22.5 56.5t-41.5 38t-56 21t-67 6.5q-60 0 -107.5 -18
t-81.5 -53t-52 -86.5t-18 -118.5q0 -141 68.5 -209.5t187.5 -68.5q36 0 69.5 8t60 24.5t44.5 41t23 58.5h151v0zM473 770h-108l113 140h152z" />
    <glyph glyph-name="cacute" unicode="&#x107;" horiz-adv-x="668" 
d="M635 171q-5 -48 -28 -83.5t-60 -59t-86.5 -35.5t-107.5 -12q-66 0 -122 17t-96.5 51t-63.5 84.5t-23 116.5q0 67 23.5 117.5t64.5 84.5t98 51.5t124 17.5q48 0 94.5 -9.5t84.5 -31t63.5 -57t31.5 -87.5h-137q-8 52 -43.5 77.5t-92.5 25.5q-37 0 -68.5 -12.5t-55 -36.5
t-36.5 -59t-13 -80q0 -39 10.5 -73.5t31.5 -60t52.5 -40t74.5 -14.5q62 0 101 28.5t42 79.5h137v0zM362 582h-108l113 140h152z" />
    <glyph glyph-name="Ccircumflex" unicode="&#x108;" horiz-adv-x="850" 
d="M806 216q-6 -65 -36.5 -110t-79.5 -72.5t-112 -40t-134 -12.5q-95 0 -167.5 27t-121.5 76.5t-74 120t-25 156.5q0 76 24.5 145t75 121t128 83t183.5 31q66 0 125 -15t104 -43.5t72.5 -70.5t29.5 -96h-150q-6 33 -22.5 56.5t-41.5 38t-56 21t-67 6.5q-60 0 -107.5 -18
t-81.5 -53t-52 -86.5t-18 -118.5q0 -141 68.5 -209.5t187.5 -68.5q36 0 69.5 8t60 24.5t44.5 41t23 58.5h151v0zM552 771l-92 89l-93 -89h-102l122 140h145l122 -140h-102z" />
    <glyph glyph-name="ccircumflex" unicode="&#x109;" horiz-adv-x="668" 
d="M635 171q-5 -48 -28 -83.5t-60 -59t-86.5 -35.5t-107.5 -12q-66 0 -122 17t-96.5 51t-63.5 84.5t-23 116.5q0 67 23.5 117.5t64.5 84.5t98 51.5t124 17.5q48 0 94.5 -9.5t84.5 -31t63.5 -57t31.5 -87.5h-137q-8 52 -43.5 77.5t-92.5 25.5q-37 0 -68.5 -12.5t-55 -36.5
t-36.5 -59t-13 -80q0 -39 10.5 -73.5t31.5 -60t52.5 -40t74.5 -14.5q62 0 101 28.5t42 79.5h137v0zM441 582l-92 89l-93 -89h-102l122 140h145l122 -140h-102z" />
    <glyph glyph-name="Cdotaccent" unicode="&#x10a;" horiz-adv-x="850" 
d="M806 216q-6 -65 -36.5 -110t-79.5 -72.5t-112 -40t-134 -12.5q-95 0 -167.5 27t-121.5 76.5t-74 120t-25 156.5q0 76 24.5 145t75 121t128 83t183.5 31q66 0 125 -15t104 -43.5t72.5 -70.5t29.5 -96h-150q-6 33 -22.5 56.5t-41.5 38t-56 21t-67 6.5q-60 0 -107.5 -18
t-81.5 -53t-52 -86.5t-18 -118.5q0 -141 68.5 -209.5t187.5 -68.5q36 0 69.5 8t60 24.5t44.5 41t23 58.5h151v0zM402 796v114h119v-114h-119z" />
    <glyph glyph-name="cdotaccent" unicode="&#x10b;" horiz-adv-x="668" 
d="M635 171q-5 -48 -28 -83.5t-60 -59t-86.5 -35.5t-107.5 -12q-66 0 -122 17t-96.5 51t-63.5 84.5t-23 116.5q0 67 23.5 117.5t64.5 84.5t98 51.5t124 17.5q48 0 94.5 -9.5t84.5 -31t63.5 -57t31.5 -87.5h-137q-8 52 -43.5 77.5t-92.5 25.5q-37 0 -68.5 -12.5t-55 -36.5
t-36.5 -59t-13 -80q0 -39 10.5 -73.5t31.5 -60t52.5 -40t74.5 -14.5q62 0 101 28.5t42 79.5h137v0zM291 608v114h119v-114h-119z" />
    <glyph glyph-name="Ccaron" unicode="&#x10c;" horiz-adv-x="850" 
d="M806 216q-6 -65 -36.5 -110t-79.5 -72.5t-112 -40t-134 -12.5q-95 0 -167.5 27t-121.5 76.5t-74 120t-25 156.5q0 76 24.5 145t75 121t128 83t183.5 31q66 0 125 -15t104 -43.5t72.5 -70.5t29.5 -96h-150q-6 33 -22.5 56.5t-41.5 38t-56 21t-67 6.5q-60 0 -107.5 -18
t-81.5 -53t-52 -86.5t-18 -118.5q0 -141 68.5 -209.5t187.5 -68.5q36 0 69.5 8t60 24.5t44.5 41t23 58.5h151v0zM367 911l92 -89l93 89h102l-122 -140h-145l-122 140h102z" />
    <glyph glyph-name="ccaron" unicode="&#x10d;" horiz-adv-x="668" 
d="M635 171q-5 -48 -28 -83.5t-60 -59t-86.5 -35.5t-107.5 -12q-66 0 -122 17t-96.5 51t-63.5 84.5t-23 116.5q0 67 23.5 117.5t64.5 84.5t98 51.5t124 17.5q48 0 94.5 -9.5t84.5 -31t63.5 -57t31.5 -87.5h-137q-8 52 -43.5 77.5t-92.5 25.5q-37 0 -68.5 -12.5t-55 -36.5
t-36.5 -59t-13 -80q0 -39 10.5 -73.5t31.5 -60t52.5 -40t74.5 -14.5q62 0 101 28.5t42 79.5h137v0zM256 721l92 -89l93 89h102l-122 -140h-145l-122 140h102z" />
    <glyph glyph-name="Dcaron" unicode="&#x10e;" horiz-adv-x="899" 
d="M843 363q0 -183 -109 -273t-310 -90h-326v722h322q217 0 320 -88t103 -271zM697 362q0 68 -17.5 116.5t-54 80t-94 46.5t-136.5 15h-157v-518h162q81 0 137.5 18t92 52t51.5 82t16 108zM362 911l92 -89l93 89h102l-122 -140h-145l-122 140h102z" />
    <glyph glyph-name="dcaron" unicode="&#x10f;" horiz-adv-x="762" 
d="M557 0l-5 75q-37 -42 -92 -68t-128 -26q-60 0 -112 18t-90.5 52.5t-60 85t-21.5 116.5q0 61 23 111t62 84.5t90.5 53.5t108.5 19q42 0 73.5 -6t57 -17.5t45.5 -28.5t40 -38v291h130v-616q0 -25 1 -52t3 -54h-125zM548 250q0 97 -50.5 142.5t-131.5 45.5q-38 0 -71 -13
t-57 -37t-38 -58t-14 -77q0 -87 48.5 -137.5t132.5 -50.5q40 0 73.5 13t57.5 37t37 58t13 77zM826 477h-98l43 245h132z" />
    <glyph glyph-name="Dcroat" unicode="&#x110;" horiz-adv-x="899" 
d="M843 363q0 -183 -109 -273t-310 -90h-326v329h-85v92h85v301h322q217 0 320 -88t103 -271zM697 362q0 68 -17.5 116.5t-54 80t-94 46.5t-136.5 15h-157v-199h209v-92h-209v-227h162q81 0 137.5 18t92 52t51.5 82t16 108z" />
    <glyph glyph-name="dcroat" unicode="&#x111;" horiz-adv-x="762" 
d="M557 0l-5 75q-37 -42 -92 -68t-128 -26q-60 0 -112 18t-90.5 52.5t-60 85t-21.5 116.5q0 61 23 111t62 84.5t90.5 53.5t108.5 19q42 0 73.5 -6t57 -17.5t45.5 -28.5t40 -38v134h-291v85h291v72h130v-72h84v-85h-84v-459q0 -25 1 -52t3 -54h-125zM548 250
q0 97 -50.5 142.5t-131.5 45.5q-38 0 -71 -13t-57 -37t-38 -58t-14 -77q0 -87 48.5 -137.5t132.5 -50.5q40 0 73.5 13t57.5 37t37 58t13 77z" />
    <glyph glyph-name="Emacron" unicode="&#x112;" horiz-adv-x="734" 
d="M98 0v722h567v-104h-427v-197h401v-104h-401v-213h438v-104h-578zM202 813v79h373v-79h-373z" />
    <glyph glyph-name="emacron" unicode="&#x113;" horiz-adv-x="691" 
d="M180 219q6 -72 47 -115t120 -43q64 0 99.5 23t49.5 68h137q-8 -49 -35 -82t-66 -52.5t-86 -28t-96 -8.5q-69 0 -125 16.5t-95 49.5t-60.5 82t-21.5 113q0 70 22.5 122.5t62.5 87t96 52t123 17.5q146 0 219.5 -71t73.5 -200v-31h-465zM507 299q-1 39 -14.5 66t-35 44
t-49.5 24.5t-58 7.5q-72 0 -114 -36.5t-52 -105.5h323zM164 617v79h373v-79h-373z" />
    <glyph glyph-name="Ebreve" unicode="&#x114;" horiz-adv-x="734" 
d="M98 0v722h567v-104h-427v-197h401v-104h-401v-213h438v-104h-578zM573 910q-12 -65 -55.5 -104t-128.5 -39t-129 39t-56 104h64q17 -37 49 -53t72 -16q39 0 71 16t49 53h64v0z" />
    <glyph glyph-name="ebreve" unicode="&#x115;" horiz-adv-x="691" 
d="M180 219q6 -72 47 -115t120 -43q64 0 99.5 23t49.5 68h137q-8 -49 -35 -82t-66 -52.5t-86 -28t-96 -8.5q-69 0 -125 16.5t-95 49.5t-60.5 82t-21.5 113q0 70 22.5 122.5t62.5 87t96 52t123 17.5q146 0 219.5 -71t73.5 -200v-31h-465zM507 299q-1 39 -14.5 66t-35 44
t-49.5 24.5t-58 7.5q-72 0 -114 -36.5t-52 -105.5h323zM535 722q-12 -65 -55.5 -104t-128.5 -39t-129 39t-56 104h64q17 -37 49 -53t72 -16q39 0 71 16t49 53h64v0z" />
    <glyph glyph-name="Edotaccent" unicode="&#x116;" horiz-adv-x="734" 
d="M98 0v722h567v-104h-427v-197h401v-104h-401v-213h438v-104h-578zM329 796v114h119v-114h-119z" />
    <glyph glyph-name="edotaccent" unicode="&#x117;" horiz-adv-x="691" 
d="M180 219q6 -72 47 -115t120 -43q64 0 99.5 23t49.5 68h137q-8 -49 -35 -82t-66 -52.5t-86 -28t-96 -8.5q-69 0 -125 16.5t-95 49.5t-60.5 82t-21.5 113q0 70 22.5 122.5t62.5 87t96 52t123 17.5q146 0 219.5 -71t73.5 -200v-31h-465zM507 299q-1 39 -14.5 66t-35 44
t-49.5 24.5t-58 7.5q-72 0 -114 -36.5t-52 -105.5h323zM291 608v114h119v-114h-119z" />
    <glyph glyph-name="Eogonek" unicode="&#x118;" horiz-adv-x="734" 
d="M712 -193q-21 -6 -53 -10.5t-64 -4.5q-64 0 -96 19t-32 52q0 19 11.5 39.5t30.5 38.5t44 33.5t52 25.5h-507v722h567v-104h-427v-197h401v-104h-401v-213h438v-104q-31 -20 -52 -36t-34 -30.5t-18.5 -27t-5.5 -24.5q0 -19 18.5 -29.5t48.5 -10.5q14 0 30.5 2.5t31.5 7.5
l17 -45v0z" />
    <glyph glyph-name="eogonek" unicode="&#x119;" horiz-adv-x="691" 
d="M472 -193q-21 -6 -53 -10.5t-64 -4.5q-64 0 -96 19t-32 52q0 32 27.5 64t69.5 55q-63 3 -114 21t-87 51t-55.5 80t-19.5 108q0 70 22.5 122.5t62.5 87t96 52t123 17.5q146 0 219.5 -71t73.5 -200v-31h-465q6 -72 47 -115t120 -43q64 0 99.5 23t49.5 68h137
q-7 -41 -27.5 -70.5t-50 -49.5t-66.5 -31.5t-77 -15.5q-48 -33 -67 -56.5t-19 -46.5q0 -19 18.5 -29.5t48.5 -10.5q14 0 30.5 2.5t31.5 7.5zM507 299q-1 39 -14.5 66t-35 44t-49.5 24.5t-58 7.5q-72 0 -114 -36.5t-52 -105.5h323z" />
    <glyph glyph-name="Ecaron" unicode="&#x11a;" horiz-adv-x="734" 
d="M98 0v722h567v-104h-427v-197h401v-104h-401v-213h438v-104h-578zM294 911l92 -89l93 89h102l-122 -140h-145l-122 140h102z" />
    <glyph glyph-name="ecaron" unicode="&#x11b;" horiz-adv-x="691" 
d="M180 219q6 -72 47 -115t120 -43q64 0 99.5 23t49.5 68h137q-8 -49 -35 -82t-66 -52.5t-86 -28t-96 -8.5q-69 0 -125 16.5t-95 49.5t-60.5 82t-21.5 113q0 70 22.5 122.5t62.5 87t96 52t123 17.5q146 0 219.5 -71t73.5 -200v-31h-465zM507 299q-1 39 -14.5 66t-35 44
t-49.5 24.5t-58 7.5q-72 0 -114 -36.5t-52 -105.5h323zM256 721l92 -89l93 89h102l-122 -140h-145l-122 140h102z" />
    <glyph glyph-name="Gcircumflex" unicode="&#x11c;" horiz-adv-x="918" 
d="M846 37q-89 -29 -173 -42.5t-177 -13.5q-108 0 -190.5 27t-138 76.5t-83.5 120t-28 158.5q0 81 27 150t80.5 120t132.5 79.5t183 28.5q73 0 137 -12t112 -38t78 -68t36 -102h-147q-7 33 -25.5 55.5t-46 36.5t-62.5 20t-75 6q-70 0 -123 -21t-89 -57.5t-54 -87t-18 -110.5
q0 -62 18 -113.5t55 -88.5t93.5 -57.5t132.5 -20.5q52 0 109 10t102 27v164h-217v100h351v-347v0zM572 771l-92 89l-93 -89h-102l122 140h145l122 -140h-102z" />
    <glyph glyph-name="gcircumflex" unicode="&#x11d;" horiz-adv-x="760" 
d="M680 502q-2 -20 -3 -42t-1 -49v-339q0 -80 -21 -133.5t-61.5 -86t-100.5 -46.5t-138 -14q-82 0 -136 12.5t-87 35.5t-47 55t-17 71h138q5 -43 40 -67t104 -24q57 0 95 12.5t60.5 36.5t31.5 59.5t9 81.5v37q-18 -24 -42 -41.5t-52.5 -28.5t-59 -16.5t-61.5 -5.5
q-62 0 -114 18t-89.5 51t-58.5 80t-21 106q0 60 23.5 107.5t63 80.5t91.5 50.5t108 17.5q44 0 77 -6.5t58.5 -18.5t45 -29t36.5 -37q0 6 0.5 15.5t1 20.5t1 20.5t1.5 15.5h125zM546 266q0 75 -44.5 123.5t-136.5 48.5q-43 0 -76.5 -13t-56 -36t-34.5 -54.5t-12 -68.5
q0 -38 11.5 -69.5t34 -54.5t56 -36t76.5 -13q90 0 136 48t46 125zM474 582l-92 89l-93 -89h-102l122 140h145l122 -140h-102z" />
    <glyph glyph-name="Gbreve" unicode="&#x11e;" horiz-adv-x="918" 
d="M846 37q-89 -29 -173 -42.5t-177 -13.5q-108 0 -190.5 27t-138 76.5t-83.5 120t-28 158.5q0 81 27 150t80.5 120t132.5 79.5t183 28.5q73 0 137 -12t112 -38t78 -68t36 -102h-147q-7 33 -25.5 55.5t-46 36.5t-62.5 20t-75 6q-70 0 -123 -21t-89 -57.5t-54 -87t-18 -110.5
q0 -62 18 -113.5t55 -88.5t93.5 -57.5t132.5 -20.5q52 0 109 10t102 27v164h-217v100h351v-347v0zM666 910q-12 -65 -55.5 -104t-128.5 -39t-129 39t-56 104h64q17 -37 49 -53t72 -16q39 0 71 16t49 53h64v0z" />
    <glyph glyph-name="gbreve" unicode="&#x11f;" horiz-adv-x="760" 
d="M680 502q-2 -20 -3 -42t-1 -49v-339q0 -80 -21 -133.5t-61.5 -86t-100.5 -46.5t-138 -14q-82 0 -136 12.5t-87 35.5t-47 55t-17 71h138q5 -43 40 -67t104 -24q57 0 95 12.5t60.5 36.5t31.5 59.5t9 81.5v37q-18 -24 -42 -41.5t-52.5 -28.5t-59 -16.5t-61.5 -5.5
q-62 0 -114 18t-89.5 51t-58.5 80t-21 106q0 60 23.5 107.5t63 80.5t91.5 50.5t108 17.5q44 0 77 -6.5t58.5 -18.5t45 -29t36.5 -37q0 6 0.5 15.5t1 20.5t1 20.5t1.5 15.5h125zM546 266q0 75 -44.5 123.5t-136.5 48.5q-43 0 -76.5 -13t-56 -36t-34.5 -54.5t-12 -68.5
q0 -38 11.5 -69.5t34 -54.5t56 -36t76.5 -13q90 0 136 48t46 125zM568 722q-12 -65 -55.5 -104t-128.5 -39t-129 39t-56 104h64q17 -37 49 -53t72 -16q39 0 71 16t49 53h64v0z" />
    <glyph glyph-name="Gdotaccent" unicode="&#x120;" horiz-adv-x="918" 
d="M846 37q-89 -29 -173 -42.5t-177 -13.5q-108 0 -190.5 27t-138 76.5t-83.5 120t-28 158.5q0 81 27 150t80.5 120t132.5 79.5t183 28.5q73 0 137 -12t112 -38t78 -68t36 -102h-147q-7 33 -25.5 55.5t-46 36.5t-62.5 20t-75 6q-70 0 -123 -21t-89 -57.5t-54 -87t-18 -110.5
q0 -62 18 -113.5t55 -88.5t93.5 -57.5t132.5 -20.5q52 0 109 10t102 27v164h-217v100h351v-347v0zM422 796v114h119v-114h-119z" />
    <glyph glyph-name="gdotaccent" unicode="&#x121;" horiz-adv-x="760" 
d="M680 502q-2 -20 -3 -42t-1 -49v-339q0 -80 -21 -133.5t-61.5 -86t-100.5 -46.5t-138 -14q-82 0 -136 12.5t-87 35.5t-47 55t-17 71h138q5 -43 40 -67t104 -24q57 0 95 12.5t60.5 36.5t31.5 59.5t9 81.5v37q-18 -24 -42 -41.5t-52.5 -28.5t-59 -16.5t-61.5 -5.5
q-62 0 -114 18t-89.5 51t-58.5 80t-21 106q0 60 23.5 107.5t63 80.5t91.5 50.5t108 17.5q44 0 77 -6.5t58.5 -18.5t45 -29t36.5 -37q0 6 0.5 15.5t1 20.5t1 20.5t1.5 15.5h125zM546 266q0 75 -44.5 123.5t-136.5 48.5q-43 0 -76.5 -13t-56 -36t-34.5 -54.5t-12 -68.5
q0 -38 11.5 -69.5t34 -54.5t56 -36t76.5 -13q90 0 136 48t46 125zM324 608v114h119v-114h-119z" />
    <glyph glyph-name="Gcommaaccent" unicode="&#x122;" horiz-adv-x="918" 
d="M846 37q-89 -29 -173 -42.5t-177 -13.5q-108 0 -190.5 27t-138 76.5t-83.5 120t-28 158.5q0 81 27 150t80.5 120t132.5 79.5t183 28.5q73 0 137 -12t112 -38t78 -68t36 -102h-147q-7 33 -25.5 55.5t-46 36.5t-62.5 20t-75 6q-70 0 -123 -21t-89 -57.5t-54 -87t-18 -110.5
q0 -62 18 -113.5t55 -88.5t93.5 -57.5t132.5 -20.5q52 0 109 10t102 27v164h-217v100h351v-347v0zM476 -212h-98l54 164h127z" />
    <glyph glyph-name="gcommaaccent" unicode="&#x123;" horiz-adv-x="760" 
d="M680 502q-2 -20 -3 -42t-1 -49v-339q0 -80 -21 -133.5t-61.5 -86t-100.5 -46.5t-138 -14q-82 0 -136 12.5t-87 35.5t-47 55t-17 71h138q5 -43 40 -67t104 -24q57 0 95 12.5t60.5 36.5t31.5 59.5t9 81.5v37q-18 -24 -42 -41.5t-52.5 -28.5t-59 -16.5t-61.5 -5.5
q-62 0 -114 18t-89.5 51t-58.5 80t-21 106q0 60 23.5 107.5t63 80.5t91.5 50.5t108 17.5q44 0 77 -6.5t58.5 -18.5t45 -29t36.5 -37q0 6 0.5 15.5t1 20.5t1 20.5t1.5 15.5h125zM546 266q0 75 -44.5 123.5t-136.5 48.5q-43 0 -76.5 -13t-56 -36t-34.5 -54.5t-12 -68.5
q0 -38 11.5 -69.5t34 -54.5t56 -36t76.5 -13q90 0 136 48t46 125zM391 722h95l-48 -140h-122z" />
    <glyph glyph-name="Hcircumflex" unicode="&#x124;" horiz-adv-x="903" 
d="M665 0v319h-427v-319h-140v722h140v-298h427v298h140v-722h-140zM541 771l-92 89l-93 -89h-102l122 140h145l122 -140h-102z" />
    <glyph glyph-name="hcircumflex" unicode="&#x125;" horiz-adv-x="757" 
d="M543 0v272q0 82 -39 122t-108 40q-36 0 -68.5 -11t-58 -35.5t-40.5 -63t-15 -92.5v-232h-130v722h130v-307q37 54 92 80t122 26q117 0 181 -60.5t64 -175.5v-285h-130zM241 771l-92 89l-93 -89h-102l122 140h145l122 -140h-102z" />
    <glyph glyph-name="Hbar" unicode="&#x126;" horiz-adv-x="903" 
d="M238 597h427v125h140v-722h-140v319h-427v-319h-140v722h140v-125zM238 492v-68h427v68h-427z" />
    <glyph glyph-name="hbar" unicode="&#x127;" horiz-adv-x="757" 
d="M543 0v272q0 82 -39 122t-108 40q-36 0 -68.5 -11t-58 -35.5t-40.5 -63t-15 -92.5v-232h-130v565h-84v85h84v72h130v-72h291v-85h-291v-150q37 54 92 80t122 26q117 0 181 -60.5t64 -175.5v-285h-130z" />
    <glyph glyph-name="Itilde" unicode="&#x128;" horiz-adv-x="336" 
d="M98 0v722h140v-722h-140zM366 910q-2 -58 -26.5 -89t-78.5 -31q-23 0 -46.5 5.5t-46 12.5t-44 12.5t-40.5 5.5q-18 0 -28.5 -11t-14.5 -29h-65q1 25 6 47.5t16.5 39.5t30.5 27t47 10q22 0 45.5 -6.5t46.5 -14t44 -13.5t39 -6q39 0 49 40h66v0z" />
    <glyph glyph-name="itilde" unicode="&#x129;" horiz-adv-x="298" 
d="M84 0v502h130v-502h-130zM346 722q-2 -58 -26.5 -89t-78.5 -31q-23 0 -46.5 5.5t-46 12.5t-44 12.5t-40.5 5.5q-18 0 -28.5 -11t-14.5 -29h-65q1 25 6 47.5t16.5 39.5t30.5 27t47 10q22 0 45.5 -6.5t46.5 -14t44 -13.5t39 -6q39 0 49 40h66v0z" />
    <glyph glyph-name="Imacron" unicode="&#x12a;" horiz-adv-x="336" 
d="M98 0v722h140v-722h-140zM-16 813v79h373v-79h-373z" />
    <glyph glyph-name="imacron" unicode="&#x12b;" horiz-adv-x="298" 
d="M84 0v502h130v-502h-130zM-36 617v79h373v-79h-373z" />
    <glyph glyph-name="Ibreve" unicode="&#x12c;" horiz-adv-x="336" 
d="M98 0v722h140v-722h-140zM352 910q-12 -65 -55.5 -104t-128.5 -39t-129 39t-56 104h64q17 -37 49 -53t72 -16q39 0 71 16t49 53h64v0z" />
    <glyph glyph-name="ibreve" unicode="&#x12d;" horiz-adv-x="298" 
d="M84 0v502h130v-502h-130zM335 722q-12 -65 -55.5 -104t-128.5 -39t-129 39t-56 104h64q17 -37 49 -53t72 -16q39 0 71 16t49 53h64v0z" />
    <glyph glyph-name="Iogonek" unicode="&#x12e;" horiz-adv-x="336" 
d="M274 -193q-21 -6 -53 -10.5t-64 -4.5q-64 0 -96 19t-32 52q0 19 11.5 39.5t30.5 38.5t44 33.5t52 25.5h-69v722h140v-722q-31 -20 -52 -36t-34 -30.5t-18.5 -27t-5.5 -24.5q0 -19 18.5 -29.5t48.5 -10.5q14 0 30.5 2.5t31.5 7.5l17 -45v0z" />
    <glyph glyph-name="iogonek" unicode="&#x12f;" horiz-adv-x="298" 
d="M250 -193q-21 -6 -53 -10.5t-64 -4.5q-64 0 -96 19t-32 52q0 19 11.5 39.5t30.5 38.5t44 33.5t52 25.5h-59v502h130v-502q-31 -20 -52 -36t-34 -30.5t-18.5 -27t-5.5 -24.5q0 -19 18.5 -29.5t48.5 -10.5q14 0 30.5 2.5t31.5 7.5zM81 608v114h136v-114h-136z" />
    <glyph glyph-name="Idotaccent" unicode="&#x130;" horiz-adv-x="336" 
d="M98 0v722h140v-722h-140zM111 796v114h119v-114h-119z" />
    <glyph glyph-name="dotlessi" unicode="&#x131;" horiz-adv-x="298" 
d="M84 0v502h130v-502h-130z" />
    <glyph glyph-name="Jcircumflex" unicode="&#x134;" horiz-adv-x="719" 
d="M627 267q0 -78 -22 -132.5t-62.5 -88.5t-98.5 -49.5t-131 -15.5q-64 0 -117.5 14t-92 43t-60 73t-21.5 104v5h143q2 -72 43 -104t111 -32q39 0 70 10t52.5 32.5t33.5 58.5t12 87v450h140v-455v0zM647 771l-92 89l-93 -89h-102l122 140h145l122 -140h-102z" />
    <glyph glyph-name="jcircumflex" unicode="&#x135;" horiz-adv-x="298" 
d="M214 -20q0 -47 -10.5 -80.5t-33 -54.5t-58 -31t-85.5 -10q-26 0 -46.5 1t-29.5 3v87q8 -1 20.5 -1.5t20.5 -0.5q28 0 45.5 4t28 17t14.5 37t4 62v489h130v-522v0zM240 582l-92 89l-93 -89h-102l122 140h145l122 -140h-102z" />
    <glyph glyph-name="Kcommaaccent" unicode="&#x136;" horiz-adv-x="811" 
d="M620 0l-377 395l355 327h179l-368 -326l401 -396h-190zM98 0v722h140v-722h-140zM405 -212h-98l54 164h127z" />
    <glyph glyph-name="kcommaaccent" unicode="&#x137;" horiz-adv-x="683" 
d="M503 0l-284 293l255 209h171l-267 -209l301 -293h-176zM84 0v722h130v-722h-130zM338 -212h-98l54 164h127z" />
    <glyph glyph-name="kgreenlandic" unicode="&#x138;" horiz-adv-x="683" 
d="M503 0l-284 293l255 209h171l-267 -209l301 -293h-176zM84 0v502h130v-502h-130z" />
    <glyph glyph-name="Lacute" unicode="&#x139;" horiz-adv-x="681" 
d="M98 0v722h140v-617h413v-105h-553zM207 770h-108l113 140h152z" />
    <glyph glyph-name="lacute" unicode="&#x13a;" horiz-adv-x="298" 
d="M84 0v722h130v-722h-130zM161 770h-108l113 140h152z" />
    <glyph glyph-name="Lcommaaccent" unicode="&#x13b;" horiz-adv-x="681" 
d="M98 0v722h140v-617h413v-105h-553zM373 -212h-98l54 164h127z" />
    <glyph glyph-name="lcommaaccent" unicode="&#x13c;" horiz-adv-x="298" 
d="M84 0v722h130v-722h-130zM135 -212h-98l54 164h127z" />
    <glyph glyph-name="Lcaron" unicode="&#x13d;" horiz-adv-x="681" 
d="M98 0v722h140v-617h413v-105h-553zM404 477h-98l43 245h132z" />
    <glyph glyph-name="lcaron" unicode="&#x13e;" horiz-adv-x="298" 
d="M84 0v722h130v-722h-130zM361 477h-98l43 245h132z" />
    <glyph glyph-name="Ldot" unicode="&#x13f;" horiz-adv-x="681" 
d="M98 0v722h140v-617h413v-105h-553zM384 338v114h119v-114h-119z" />
    <glyph glyph-name="ldot" unicode="&#x140;" horiz-adv-x="298" 
d="M84 0v722h130v-722h-130zM279 316v114h119v-114h-119z" />
    <glyph glyph-name="Lslash" unicode="&#x141;" horiz-adv-x="671" 
d="M99 0v243l-86 -47v104l86 47v375h140v-295l224 123v-104l-224 -123v-219h413v-104h-553z" />
    <glyph glyph-name="lslash" unicode="&#x142;" horiz-adv-x="298" 
d="M215 373v-373h-130v293l-69 -41v96l69 41v333h130v-252l68 39v-95z" />
    <glyph glyph-name="Nacute" unicode="&#x143;" horiz-adv-x="921" 
d="M631 0l-407 598v-598h-126v722h192l407 -598v598h126v-722h-192zM468 770h-108l113 140h152z" />
    <glyph glyph-name="nacute" unicode="&#x144;" horiz-adv-x="757" 
d="M543 0v274q0 81 -39.5 120.5t-108.5 39.5q-37 0 -70 -11.5t-57.5 -36t-39 -62.5t-14.5 -92v-232h-130v392q0 27 -1 54t-3 56h124l5 -90q9 11 25 29.5t41.5 36t62.5 30.5t89 13q117 0 181.5 -59t64.5 -177v-285h-130zM391 582h-108l113 140h152z" />
    <glyph glyph-name="Ncommaaccent" unicode="&#x145;" horiz-adv-x="921" 
d="M631 0l-407 598v-598h-126v722h192l407 -598v598h126v-722h-192zM441 -212h-98l54 164h127z" />
    <glyph glyph-name="ncommaaccent" unicode="&#x146;" horiz-adv-x="757" 
d="M543 0v274q0 81 -39.5 120.5t-108.5 39.5q-37 0 -70 -11.5t-57.5 -36t-39 -62.5t-14.5 -92v-232h-130v392q0 27 -1 54t-3 56h124l5 -90q9 11 25 29.5t41.5 36t62.5 30.5t89 13q117 0 181.5 -59t64.5 -177v-285h-130zM376 -212h-98l54 164h127z" />
    <glyph glyph-name="Ncaron" unicode="&#x147;" horiz-adv-x="921" 
d="M631 0l-407 598v-598h-126v722h192l407 -598v598h126v-722h-192zM362 911l92 -89l93 89h102l-122 -140h-145l-122 140h102z" />
    <glyph glyph-name="ncaron" unicode="&#x148;" horiz-adv-x="757" 
d="M543 0v274q0 81 -39.5 120.5t-108.5 39.5q-37 0 -70 -11.5t-57.5 -36t-39 -62.5t-14.5 -92v-232h-130v392q0 27 -1 54t-3 56h124l5 -90q9 11 25 29.5t41.5 36t62.5 30.5t89 13q117 0 181.5 -59t64.5 -177v-285h-130zM285 721l92 -89l93 89h102l-122 -140h-145l-122 140
h102z" />
    <glyph glyph-name="Eng" unicode="&#x14a;" horiz-adv-x="914" 
d="M816 3q0 -104 -48.5 -151.5t-154.5 -47.5q-23 0 -50 1t-37 3v97q11 -2 27.5 -2.5t22.5 -0.5q54 0 84 16t30 57v19l-466 604v-598h-126v722h185l407 -527v527h126v-719v0z" />
    <glyph glyph-name="eng" unicode="&#x14b;" horiz-adv-x="757" 
d="M673 -20q0 -47 -10.5 -80.5t-33 -54.5t-58 -31t-85.5 -10q-26 0 -46.5 1t-29.5 3v87q8 -1 20.5 -1.5t20.5 -0.5q27 0 44.5 5t28 17t15 32.5t4.5 52.5v274q0 81 -39.5 120.5t-108.5 39.5q-37 0 -70 -11.5t-57.5 -36t-39 -62.5t-14.5 -92v-232h-130v392q0 27 -1 54t-3 56
h124l5 -90q9 11 25 29.5t41.5 36t62.5 30.5t89 13q117 0 181.5 -59t64.5 -177v-305v0z" />
    <glyph glyph-name="Omacron" unicode="&#x14c;" horiz-adv-x="940" 
d="M884 361q0 -72 -22.5 -140.5t-72 -121.5t-128.5 -85.5t-191 -32.5q-117 0 -196.5 32t-127.5 85t-69 121.5t-21 141.5q0 72 23 140.5t72.5 121.5t128.5 85.5t190 32.5q113 0 192 -31.5t128.5 -84t71.5 -121.5t22 -143zM738 361q0 64 -17.5 115.5t-51.5 87.5t-84 55
t-115 19q-63 0 -113 -20t-84.5 -56.5t-52.5 -87.5t-18 -113t17 -113t51 -87.5t84 -56.5t116 -20t116 20.5t83.5 57.5t51 88t17.5 111zM284 813v79h373v-79h-373z" />
    <glyph glyph-name="omacron" unicode="&#x14d;" horiz-adv-x="758" 
d="M710 251q0 -58 -19 -107.5t-59.5 -85.5t-103 -56.5t-149.5 -20.5q-88 0 -150.5 20t-102.5 56t-59 85.5t-19 108.5q0 55 20 104.5t61 86t103.5 58t146.5 21.5q88 0 150.5 -20.5t102.5 -56.5t59 -85.5t19 -107.5zM572 251q0 88 -49.5 138t-143.5 50q-91 0 -142 -50
t-51 -138q0 -87 50.5 -137.5t142.5 -50.5q46 0 81.5 14t60.5 39t38 59.5t13 75.5zM191 617v79h373v-79h-373z" />
    <glyph glyph-name="Obreve" unicode="&#x14e;" horiz-adv-x="940" 
d="M884 361q0 -72 -22.5 -140.5t-72 -121.5t-128.5 -85.5t-191 -32.5q-117 0 -196.5 32t-127.5 85t-69 121.5t-21 141.5q0 72 23 140.5t72.5 121.5t128.5 85.5t190 32.5q113 0 192 -31.5t128.5 -84t71.5 -121.5t22 -143zM738 361q0 64 -17.5 115.5t-51.5 87.5t-84 55
t-115 19q-63 0 -113 -20t-84.5 -56.5t-52.5 -87.5t-18 -113t17 -113t51 -87.5t84 -56.5t116 -20t116 20.5t83.5 57.5t51 88t17.5 111zM655 910q-12 -65 -55.5 -104t-128.5 -39t-129 39t-56 104h64q17 -37 49 -53t72 -16q39 0 71 16t49 53h64v0z" />
    <glyph glyph-name="obreve" unicode="&#x14f;" horiz-adv-x="758" 
d="M710 251q0 -58 -19 -107.5t-59.5 -85.5t-103 -56.5t-149.5 -20.5q-88 0 -150.5 20t-102.5 56t-59 85.5t-19 108.5q0 55 20 104.5t61 86t103.5 58t146.5 21.5q88 0 150.5 -20.5t102.5 -56.5t59 -85.5t19 -107.5zM572 251q0 88 -49.5 138t-143.5 50q-91 0 -142 -50
t-51 -138q0 -87 50.5 -137.5t142.5 -50.5q46 0 81.5 14t60.5 39t38 59.5t13 75.5zM562 722q-12 -65 -55.5 -104t-128.5 -39t-129 39t-56 104h64q17 -37 49 -53t72 -16q39 0 71 16t49 53h64v0z" />
    <glyph glyph-name="Ohungarumlaut" unicode="&#x150;" horiz-adv-x="940" 
d="M884 361q0 -72 -22.5 -140.5t-72 -121.5t-128.5 -85.5t-191 -32.5q-117 0 -196.5 32t-127.5 85t-69 121.5t-21 141.5q0 72 23 140.5t72.5 121.5t128.5 85.5t190 32.5q113 0 192 -31.5t128.5 -84t71.5 -121.5t22 -143zM738 361q0 64 -17.5 115.5t-51.5 87.5t-84 55
t-115 19q-63 0 -113 -20t-84.5 -56.5t-52.5 -87.5t-18 -113t17 -113t51 -87.5t84 -56.5t116 -20t116 20.5t83.5 57.5t51 88t17.5 111zM600 770h-108l114 140h152zM364 770h-108l113 140h152z" />
    <glyph glyph-name="ohungarumlaut" unicode="&#x151;" horiz-adv-x="758" 
d="M710 251q0 -58 -19 -107.5t-59.5 -85.5t-103 -56.5t-149.5 -20.5q-88 0 -150.5 20t-102.5 56t-59 85.5t-19 108.5q0 55 20 104.5t61 86t103.5 58t146.5 21.5q88 0 150.5 -20.5t102.5 -56.5t59 -85.5t19 -107.5zM572 251q0 88 -49.5 138t-143.5 50q-91 0 -142 -50
t-51 -138q0 -87 50.5 -137.5t142.5 -50.5q46 0 81.5 14t60.5 39t38 59.5t13 75.5zM508 582h-108l114 140h152zM272 582h-108l113 140h152z" />
    <glyph glyph-name="Racute" unicode="&#x154;" horiz-adv-x="832" 
d="M630 0q-7 29 -13.5 65t-12.5 59l-22 89q-8 31 -18.5 49.5t-28 28t-44.5 12.5t-67 3h-186v-306h-140v722h381q71 0 122 -13.5t83.5 -39t48 -61.5t15.5 -80q0 -48 -22.5 -80.5t-51.5 -52t-58 -28t-41 -10.5q33 -3 58.5 -9.5t44 -22.5t31.5 -42.5t20 -68.5l26 -124
q5 -29 12 -54t12 -36h-149zM604 515q0 57 -37 81.5t-121 24.5h-208v-214h208q84 0 121 24.5t37 83.5zM435 770h-108l113 140h152z" />
    <glyph glyph-name="racute" unicode="&#x155;" horiz-adv-x="457" 
d="M441 403q-11 3 -25.5 4t-28.5 1q-85 0 -129 -46.5t-44 -133.5v-228h-130v392q0 27 -1 54t-3 56h124l4 -101q13 23 31 44t41.5 36.5t53 25t64.5 9.5q11 0 24 -1t19 -1v-111v0zM253 582h-108l113 140h152z" />
    <glyph glyph-name="Rcommaaccent" unicode="&#x156;" horiz-adv-x="832" 
d="M630 0q-7 29 -13.5 65t-12.5 59l-22 89q-8 31 -18.5 49.5t-28 28t-44.5 12.5t-67 3h-186v-306h-140v722h381q71 0 122 -13.5t83.5 -39t48 -61.5t15.5 -80q0 -48 -22.5 -80.5t-51.5 -52t-58 -28t-41 -10.5q33 -3 58.5 -9.5t44 -22.5t31.5 -42.5t20 -68.5l26 -124
q5 -29 12 -54t12 -36h-149zM604 515q0 57 -37 81.5t-121 24.5h-208v-214h208q84 0 121 24.5t37 83.5zM420 -212h-98l54 164h127z" />
    <glyph glyph-name="rcommaaccent" unicode="&#x157;" horiz-adv-x="457" 
d="M441 403q-11 3 -25.5 4t-28.5 1q-85 0 -129 -46.5t-44 -133.5v-228h-130v392q0 27 -1 54t-3 56h124l4 -101q13 23 31 44t41.5 36.5t53 25t64.5 9.5q11 0 24 -1t19 -1v-111v0zM136 -212h-98l54 164h127z" />
    <glyph glyph-name="Rcaron" unicode="&#x158;" horiz-adv-x="832" 
d="M630 0q-7 29 -13.5 65t-12.5 59l-22 89q-8 31 -18.5 49.5t-28 28t-44.5 12.5t-67 3h-186v-306h-140v722h381q71 0 122 -13.5t83.5 -39t48 -61.5t15.5 -80q0 -48 -22.5 -80.5t-51.5 -52t-58 -28t-41 -10.5q33 -3 58.5 -9.5t44 -22.5t31.5 -42.5t20 -68.5l26 -124
q5 -29 12 -54t12 -36h-149zM604 515q0 57 -37 81.5t-121 24.5h-208v-214h208q84 0 121 24.5t37 83.5zM329 911l92 -89l93 89h102l-122 -140h-145l-122 140h102z" />
    <glyph glyph-name="rcaron" unicode="&#x159;" horiz-adv-x="457" 
d="M441 403q-11 3 -25.5 4t-28.5 1q-85 0 -129 -46.5t-44 -133.5v-228h-130v392q0 27 -1 54t-3 56h124l4 -101q13 23 31 44t41.5 36.5t53 25t64.5 9.5q11 0 24 -1t19 -1v-111v0zM147 721l92 -89l93 89h102l-122 -140h-145l-122 140h102z" />
    <glyph glyph-name="Sacute" unicode="&#x15a;" horiz-adv-x="800" 
d="M744 214q0 -61 -26.5 -105t-73 -72.5t-111 -42t-140.5 -13.5q-89 0 -151.5 17t-103 48t-61 75.5t-23.5 100.5h144q1 -36 16 -62t41 -43t62 -25.5t79 -8.5q106 0 156.5 32t50.5 83q0 43 -34 62.5t-102 32.5l-174 32q-43 8 -82.5 21t-69.5 34.5t-48 55t-18 81.5
q0 56 24.5 98t67.5 70t102.5 42t128.5 14q64 0 122.5 -11.5t102.5 -37t71 -67t30 -100.5h-143q-3 34 -19 56.5t-41 35t-57 17.5t-68 5q-82 0 -131.5 -28.5t-49.5 -81.5q0 -42 34.5 -61t99.5 -30l172 -31q44 -8 84.5 -20t71 -33t49 -55t18.5 -85zM409 770h-108l113 140h152z
" />
    <glyph glyph-name="sacute" unicode="&#x15b;" horiz-adv-x="638" 
d="M592 146q0 -46 -22 -77.5t-60.5 -51t-91 -28t-113.5 -8.5q-67 0 -115.5 11.5t-80.5 33.5t-48.5 53t-18.5 69h135q3 -25 14.5 -41.5t29.5 -26.5t42 -14.5t52 -4.5q65 0 103 17.5t38 55.5q0 29 -26 41t-77 23l-147 30q-31 6 -57 16.5t-45 26.5t-29.5 38t-10.5 51
q0 45 22.5 76t58.5 50t82 27t93 8q53 0 99 -8.5t80.5 -27t54 -48t20.5 -71.5h-132q-5 42 -39 58.5t-85 16.5q-52 0 -87.5 -16t-35.5 -49q0 -29 25.5 -42t76.5 -23l151 -29q78 -15 111 -47t33 -89zM331 582h-108l113 140h152z" />
    <glyph glyph-name="Scircumflex" unicode="&#x15c;" horiz-adv-x="800" 
d="M744 214q0 -61 -26.5 -105t-73 -72.5t-111 -42t-140.5 -13.5q-89 0 -151.5 17t-103 48t-61 75.5t-23.5 100.5h144q1 -36 16 -62t41 -43t62 -25.5t79 -8.5q106 0 156.5 32t50.5 83q0 43 -34 62.5t-102 32.5l-174 32q-43 8 -82.5 21t-69.5 34.5t-48 55t-18 81.5
q0 56 24.5 98t67.5 70t102.5 42t128.5 14q64 0 122.5 -11.5t102.5 -37t71 -67t30 -100.5h-143q-3 34 -19 56.5t-41 35t-57 17.5t-68 5q-82 0 -131.5 -28.5t-49.5 -81.5q0 -42 34.5 -61t99.5 -30l172 -31q44 -8 84.5 -20t71 -33t49 -55t18.5 -85zM488 771l-92 89l-93 -89
h-102l122 140h145l122 -140h-102z" />
    <glyph glyph-name="scircumflex" unicode="&#x15d;" horiz-adv-x="638" 
d="M592 146q0 -46 -22 -77.5t-60.5 -51t-91 -28t-113.5 -8.5q-67 0 -115.5 11.5t-80.5 33.5t-48.5 53t-18.5 69h135q3 -25 14.5 -41.5t29.5 -26.5t42 -14.5t52 -4.5q65 0 103 17.5t38 55.5q0 29 -26 41t-77 23l-147 30q-31 6 -57 16.5t-45 26.5t-29.5 38t-10.5 51
q0 45 22.5 76t58.5 50t82 27t93 8q53 0 99 -8.5t80.5 -27t54 -48t20.5 -71.5h-132q-5 42 -39 58.5t-85 16.5q-52 0 -87.5 -16t-35.5 -49q0 -29 25.5 -42t76.5 -23l151 -29q78 -15 111 -47t33 -89zM410 582l-92 89l-93 -89h-102l122 140h145l122 -140h-102z" />
    <glyph glyph-name="Scedilla" unicode="&#x15e;" horiz-adv-x="800" 
d="M532 -128q0 -22 -12 -37.5t-31.5 -25t-44.5 -13.5t-51 -4q-25 0 -59.5 5.5t-62.5 15.5l18 45q19 -7 41.5 -11.5t44.5 -4.5t40 7.5t18 24.5q0 31 -49 31q-9 0 -19.5 -2t-24.5 -6l-21 25l47 60q-81 3 -139 20.5t-95.5 48.5t-56 74.5t-21.5 96.5h144q1 -36 16 -62t41 -43
t62 -25.5t79 -8.5q106 0 156.5 32t50.5 83q0 43 -34 62.5t-102 32.5l-174 32q-43 8 -82.5 21t-69.5 34.5t-48 55t-18 81.5q0 56 24.5 98t67.5 70t102.5 42t128.5 14q64 0 122.5 -11.5t102.5 -37t71 -67t30 -100.5h-143q-3 34 -19 56.5t-41 35t-57 17.5t-68 5
q-82 0 -131.5 -28.5t-49.5 -81.5q0 -42 34.5 -61t99.5 -30l172 -31q44 -8 84.5 -20t71 -33t49 -55t18.5 -85q0 -58 -23.5 -100.5t-66 -71t-101.5 -43t-129 -17.5l-36 -42l2 -2q10 4 21.5 5.5t20.5 1.5q43 0 71.5 -20.5t28.5 -52.5z" />
    <glyph glyph-name="scedilla" unicode="&#x15f;" horiz-adv-x="638" 
d="M454 -128q0 -22 -12 -37.5t-31.5 -25t-44.5 -13.5t-51 -4q-25 0 -59.5 5.5t-62.5 15.5l18 45q19 -7 41.5 -11.5t44.5 -4.5t40 7.5t18 24.5q0 31 -49 31q-9 0 -19.5 -2t-24.5 -6l-21 25l47 59q-125 3 -183 47.5t-63 119.5h135q3 -25 14.5 -41.5t29.5 -26.5t42 -14.5
t52 -4.5q65 0 103 17.5t38 55.5q0 29 -26 41t-77 23l-147 30q-31 6 -57 16.5t-45 26.5t-29.5 38t-10.5 51q0 45 22.5 76t58.5 50t82 27t93 8q53 0 99 -8.5t80.5 -27t54 -48t20.5 -71.5h-132q-5 42 -39 58.5t-85 16.5q-52 0 -87.5 -16t-35.5 -49q0 -29 25.5 -42t76.5 -23
l151 -29q78 -15 111 -47t33 -89q0 -42 -18.5 -72t-51.5 -49.5t-78 -29.5t-98 -13l-36 -42l2 -2q10 4 21.5 5.5t20.5 1.5q43 0 71.5 -20.5t28.5 -52.5z" />
    <glyph glyph-name="uni0162" unicode="&#x162;" horiz-adv-x="749" 
d="M444 617v-617h-140v617h-296v105h733v-105h-297zM363 -212h-98l54 164h127z" />
    <glyph glyph-name="uni0163" unicode="&#x163;" horiz-adv-x="447" 
d="M419 0q-20 -3 -47.5 -5.5t-57.5 -2.5q-44 0 -77.5 7.5t-56 25.5t-33.5 48t-11 75v269h-126v85h126v95l129 51v-146h152v-85h-152v-247q0 -44 15 -67.5t66 -23.5q29 0 73 6v-85v0zM211 -212h-98l54 164h127z" />
    <glyph glyph-name="Tcaron" unicode="&#x164;" horiz-adv-x="749" 
d="M444 617v-617h-140v617h-296v105h733v-105h-297zM282 911l92 -89l93 89h102l-122 -140h-145l-122 140h102z" />
    <glyph glyph-name="tcaron" unicode="&#x165;" horiz-adv-x="447" 
d="M419 0q-20 -3 -47.5 -5.5t-57.5 -2.5q-44 0 -77.5 7.5t-56 25.5t-33.5 48t-11 75v269h-126v85h126v95l129 51v-146h152v-85h-152v-247q0 -44 15 -67.5t66 -23.5q29 0 73 6v-85v0zM543 477h-98l43 245h132z" />
    <glyph glyph-name="Tbar" unicode="&#x166;" horiz-adv-x="749" 
d="M98 411h206v206h-296v105h733v-105h-297v-206h206v-105h-206v-306h-140v306h-206v105z" />
    <glyph glyph-name="tbar" unicode="&#x167;" horiz-adv-x="447" 
d="M419 0q-20 -3 -47.5 -5.5t-57.5 -2.5q-44 0 -77.5 7.5t-56 25.5t-33.5 48t-11 75v122h-126v85h126v62h-126v85h126v95l129 51v-146h152v-85h-152v-62h152v-85h-152v-100q0 -44 15 -67.5t66 -23.5q29 0 73 6v-85v0z" />
    <glyph glyph-name="Utilde" unicode="&#x168;" horiz-adv-x="893" 
d="M801 304q0 -83 -25.5 -144t-72 -100.5t-111.5 -59t-145 -19.5q-83 0 -149 18t-112 56t-70 97.5t-24 142.5v427h140v-426q0 -105 54 -158.5t161 -53.5q109 0 161.5 57.5t52.5 162.5v418h140v-418v0zM646 910q-2 -58 -26.5 -89t-78.5 -31q-23 0 -46.5 5.5t-46 12.5
t-44 12.5t-40.5 5.5q-18 0 -28.5 -11t-14.5 -29h-65q1 25 6 47.5t16.5 39.5t30.5 27t47 10q22 0 45.5 -6.5t46.5 -14t44 -13.5t39 -6q39 0 49 40h66v0z" />
    <glyph glyph-name="utilde" unicode="&#x169;" horiz-adv-x="759" 
d="M553 0q0 2 -0.5 15.5t-1.5 30.5q-1 19 -2 43q-42 -56 -95 -82t-124 -26q-126 0 -185.5 60.5t-59.5 175.5v285h130v-272q0 -78 35 -120.5t113 -42.5q34 0 67 11.5t58 36.5t40.5 63t15.5 92v232h130v-392q0 -27 1 -54t3 -56h-125zM573 722q-2 -58 -26.5 -89t-78.5 -31
q-23 0 -46.5 5.5t-46 12.5t-44 12.5t-40.5 5.5q-18 0 -28.5 -11t-14.5 -29h-65q1 25 6 47.5t16.5 39.5t30.5 27t47 10q22 0 45.5 -6.5t46.5 -14t44 -13.5t39 -6q39 0 49 40h66v0z" />
    <glyph glyph-name="Umacron" unicode="&#x16a;" horiz-adv-x="893" 
d="M801 304q0 -83 -25.5 -144t-72 -100.5t-111.5 -59t-145 -19.5q-83 0 -149 18t-112 56t-70 97.5t-24 142.5v427h140v-426q0 -105 54 -158.5t161 -53.5q109 0 161.5 57.5t52.5 162.5v418h140v-418v0zM264 813v79h373v-79h-373z" />
    <glyph glyph-name="umacron" unicode="&#x16b;" horiz-adv-x="759" 
d="M553 0q0 2 -0.5 15.5t-1.5 30.5q-1 19 -2 43q-42 -56 -95 -82t-124 -26q-126 0 -185.5 60.5t-59.5 175.5v285h130v-272q0 -78 35 -120.5t113 -42.5q34 0 67 11.5t58 36.5t40.5 63t15.5 92v232h130v-392q0 -27 1 -54t3 -56h-125zM191 617v79h373v-79h-373z" />
    <glyph glyph-name="Ubreve" unicode="&#x16c;" horiz-adv-x="893" 
d="M801 304q0 -83 -25.5 -144t-72 -100.5t-111.5 -59t-145 -19.5q-83 0 -149 18t-112 56t-70 97.5t-24 142.5v427h140v-426q0 -105 54 -158.5t161 -53.5q109 0 161.5 57.5t52.5 162.5v418h140v-418v0zM635 910q-12 -65 -55.5 -104t-128.5 -39t-129 39t-56 104h64
q17 -37 49 -53t72 -16q39 0 71 16t49 53h64v0z" />
    <glyph glyph-name="ubreve" unicode="&#x16d;" horiz-adv-x="759" 
d="M553 0q0 2 -0.5 15.5t-1.5 30.5q-1 19 -2 43q-42 -56 -95 -82t-124 -26q-126 0 -185.5 60.5t-59.5 175.5v285h130v-272q0 -78 35 -120.5t113 -42.5q34 0 67 11.5t58 36.5t40.5 63t15.5 92v232h130v-392q0 -27 1 -54t3 -56h-125zM562 722q-12 -65 -55.5 -104t-128.5 -39
t-129 39t-56 104h64q17 -37 49 -53t72 -16q39 0 71 16t49 53h64v0z" />
    <glyph glyph-name="Uring" unicode="&#x16e;" horiz-adv-x="893" 
d="M801 304q0 -83 -25.5 -144t-72 -100.5t-111.5 -59t-145 -19.5q-83 0 -149 18t-112 56t-70 97.5t-24 142.5v427h140v-426q0 -105 54 -158.5t161 -53.5q109 0 161.5 57.5t52.5 162.5v418h140v-418v0zM565 846q0 -25 -9 -44t-25 -32t-36.5 -20t-44.5 -7t-45 7t-36.5 20
t-25 32t-9.5 44q0 24 9.5 43t25 32.5t36.5 20.5t45 7t44.5 -7t36.5 -20.5t25 -32.5t9 -43zM506 846q0 23 -16 39.5t-40 16.5t-40 -16.5t-16 -39.5t16 -39t40 -16t40 16t16 39z" />
    <glyph glyph-name="uring" unicode="&#x16f;" horiz-adv-x="759" 
d="M553 0q0 2 -0.5 15.5t-1.5 30.5q-1 19 -2 43q-42 -56 -95 -82t-124 -26q-126 0 -185.5 60.5t-59.5 175.5v285h130v-272q0 -78 35 -120.5t113 -42.5q34 0 67 11.5t58 36.5t40.5 63t15.5 92v232h130v-392q0 -27 1 -54t3 -56h-125zM493 661q0 -25 -9 -44t-25 -32t-36.5 -20
t-44.5 -7t-45 7t-36.5 20t-25 32t-9.5 44q0 24 9.5 43t25 32.5t36.5 20.5t45 7t44.5 -7t36.5 -20.5t25 -32.5t9 -43zM434 661q0 23 -16 39.5t-40 16.5t-40 -16.5t-16 -39.5t16 -39t40 -16t40 16t16 39z" />
    <glyph glyph-name="Uhungarumlaut" unicode="&#x170;" horiz-adv-x="893" 
d="M801 304q0 -83 -25.5 -144t-72 -100.5t-111.5 -59t-145 -19.5q-83 0 -149 18t-112 56t-70 97.5t-24 142.5v427h140v-426q0 -105 54 -158.5t161 -53.5q109 0 161.5 57.5t52.5 162.5v418h140v-418v0zM580 770h-108l114 140h152zM344 770h-108l113 140h152z" />
    <glyph glyph-name="uhungarumlaut" unicode="&#x171;" horiz-adv-x="759" 
d="M553 0q0 2 -0.5 15.5t-1.5 30.5q-1 19 -2 43q-42 -56 -95 -82t-124 -26q-126 0 -185.5 60.5t-59.5 175.5v285h130v-272q0 -78 35 -120.5t113 -42.5q34 0 67 11.5t58 36.5t40.5 63t15.5 92v232h130v-392q0 -27 1 -54t3 -56h-125zM508 582h-108l114 140h152zM272 582h-108
l113 140h152z" />
    <glyph glyph-name="Uogonek" unicode="&#x172;" horiz-adv-x="893" 
d="M569 -193q-21 -6 -53 -10.5t-64 -4.5q-64 0 -96 19t-32 52q0 32 27.5 64t69.5 55q-78 3 -139 22t-103 57.5t-64.5 96t-22.5 137.5v427h140v-426q0 -105 54 -158.5t161 -53.5q109 0 161.5 57.5t52.5 162.5v418h140v-418q0 -75 -20.5 -131.5t-58.5 -96.5t-92 -62.5
t-121 -29.5q-48 -32 -67 -55.5t-19 -46.5q0 -19 18.5 -29.5t48.5 -10.5q14 0 30.5 2.5t31.5 7.5l17 -45v0z" />
    <glyph glyph-name="uogonek" unicode="&#x173;" horiz-adv-x="759" 
d="M714 -193q-21 -6 -53 -10.5t-64 -4.5q-64 0 -96 19t-32 52q0 19 11.5 39.5t30.5 38.5t44 33.5t52 25.5h-54q0 2 -0.5 15.5t-1.5 30.5q-1 19 -2 43q-42 -56 -95 -82t-124 -26q-126 0 -185.5 60.5t-59.5 175.5v285h130v-272q0 -78 35 -120.5t113 -42.5q34 0 67 11.5
t58 36.5t40.5 63t15.5 92v232h130v-392q0 -27 1 -54t3 -56q-31 -20 -52 -36t-34 -30.5t-18.5 -27t-5.5 -24.5q0 -19 18.5 -29.5t48.5 -10.5q14 0 30.5 2.5t31.5 7.5l17 -45v0z" />
    <glyph glyph-name="Wcircumflex" unicode="&#x174;" horiz-adv-x="1257" 
d="M1009 0h-182l-199 619l-198 -619h-182l-236 722h149l184 -624l198 624h178l204 -624l179 624h141zM718 771l-92 89l-93 -89h-102l122 140h145l122 -140h-102z" />
    <glyph glyph-name="wcircumflex" unicode="&#x175;" horiz-adv-x="1134" 
d="M902 0h-158l-175 416l-177 -416h-158l-222 502h147l160 -415l176 415h160l174 -415l163 415h130zM662 582l-92 89l-93 -89h-102l122 140h145l122 -140h-102z" />
    <glyph glyph-name="Ycircumflex" unicode="&#x176;" horiz-adv-x="810" 
d="M475 286v-286h-140v286l-337 436h176l239 -329l237 329h162zM499 771l-92 89l-93 -89h-102l122 140h145l122 -140h-102z" />
    <glyph glyph-name="ycircumflex" unicode="&#x177;" horiz-adv-x="674" 
d="M316 -192h-143l106 191l-274 503h150l196 -393l185 393h138zM439 582l-92 89l-93 -89h-102l122 140h145l122 -140h-102z" />
    <glyph glyph-name="Zacute" unicode="&#x179;" horiz-adv-x="755" 
d="M36 0v130l518 490h-492v102h644v-130l-511 -490h524v-102h-683zM398 770h-108l113 140h152z" />
    <glyph glyph-name="zacute" unicode="&#x17a;" horiz-adv-x="604" 
d="M42 0v98l354 317h-334v87h488v-98l-348 -317h360v-87h-520zM322 582h-108l113 140h152z" />
    <glyph glyph-name="Zdotaccent" unicode="&#x17b;" horiz-adv-x="755" 
d="M36 0v130l518 490h-492v102h644v-130l-511 -490h524v-102h-683zM327 796v114h119v-114h-119z" />
    <glyph glyph-name="zdotaccent" unicode="&#x17c;" horiz-adv-x="604" 
d="M42 0v98l354 317h-334v87h488v-98l-348 -317h360v-87h-520zM251 608v114h119v-114h-119z" />
    <glyph glyph-name="Scommaaccent" unicode="&#x218;" horiz-adv-x="800" 
d="M744 214q0 -61 -26.5 -105t-73 -72.5t-111 -42t-140.5 -13.5q-89 0 -151.5 17t-103 48t-61 75.5t-23.5 100.5h144q1 -36 16 -62t41 -43t62 -25.5t79 -8.5q106 0 156.5 32t50.5 83q0 43 -34 62.5t-102 32.5l-174 32q-43 8 -82.5 21t-69.5 34.5t-48 55t-18 81.5
q0 56 24.5 98t67.5 70t102.5 42t128.5 14q64 0 122.5 -11.5t102.5 -37t71 -67t30 -100.5h-143q-3 34 -19 56.5t-41 35t-57 17.5t-68 5q-82 0 -131.5 -28.5t-49.5 -81.5q0 -42 34.5 -61t99.5 -30l172 -31q44 -8 84.5 -20t71 -33t49 -55t18.5 -85zM384 -212h-98l54 164h127z
" />
    <glyph glyph-name="scommaaccent" unicode="&#x219;" horiz-adv-x="638" 
d="M592 146q0 -46 -22 -77.5t-60.5 -51t-91 -28t-113.5 -8.5q-67 0 -115.5 11.5t-80.5 33.5t-48.5 53t-18.5 69h135q3 -25 14.5 -41.5t29.5 -26.5t42 -14.5t52 -4.5q65 0 103 17.5t38 55.5q0 29 -26 41t-77 23l-147 30q-31 6 -57 16.5t-45 26.5t-29.5 38t-10.5 51
q0 45 22.5 76t58.5 50t82 27t93 8q53 0 99 -8.5t80.5 -27t54 -48t20.5 -71.5h-132q-5 42 -39 58.5t-85 16.5q-52 0 -87.5 -16t-35.5 -49q0 -29 25.5 -42t76.5 -23l151 -29q78 -15 111 -47t33 -89zM304 -212h-98l54 164h127z" />
    <glyph glyph-name="uni021A" unicode="&#x21a;" horiz-adv-x="749" 
d="M444 617v-617h-140v617h-296v105h733v-105h-297zM363 -212h-98l54 164h127z" />
    <glyph glyph-name="uni021B" unicode="&#x21b;" horiz-adv-x="447" 
d="M419 0q-20 -3 -47.5 -5.5t-57.5 -2.5q-44 0 -77.5 7.5t-56 25.5t-33.5 48t-11 75v269h-126v85h126v95l129 51v-146h152v-85h-152v-247q0 -44 15 -67.5t66 -23.5q29 0 73 6v-85v0zM211 -212h-98l54 164h127z" />
    <glyph glyph-name="dotlessj" unicode="&#x237;" horiz-adv-x="298" 
d="M214 -20q0 -47 -10.5 -80.5t-33 -54.5t-58 -31t-85.5 -10q-26 0 -46.5 1t-29.5 3v87q8 -1 20.5 -1.5t20.5 -0.5q28 0 45.5 4t28 17t14.5 37t4 62v489h130v-522v0z" />
    <glyph glyph-name="caron" unicode="&#x2c7;" horiz-adv-x="321" 
d="M66 721l92 -89l93 89h102l-122 -140h-145l-122 140h102z" />
    <glyph glyph-name="uni02C9" unicode="&#x2c9;" horiz-adv-x="321" 
d="M-26 813v79h373v-79h-373z" />
    <glyph glyph-name="breve" unicode="&#x2d8;" horiz-adv-x="321" 
d="M345 722q-12 -65 -55.5 -104t-128.5 -39t-129 39t-56 104h64q17 -37 49 -53t72 -16q39 0 71 16t49 53h64v0z" />
    <glyph glyph-name="dotaccent" unicode="&#x2d9;" horiz-adv-x="321" 
d="M101 608v114h119v-114h-119z" />
    <glyph glyph-name="ring" unicode="&#x2da;" horiz-adv-x="321" 
d="M276 661q0 -25 -9 -44t-25 -32t-36.5 -20t-44.5 -7t-45 7t-36.5 20t-25 32t-9.5 44q0 24 9.5 43t25 32.5t36.5 20.5t45 7t44.5 -7t36.5 -20.5t25 -32.5t9 -43zM217 661q0 23 -16 39.5t-40 16.5t-40 -16.5t-16 -39.5t16 -39t40 -16t40 16t16 39z" />
    <glyph glyph-name="ogonek" unicode="&#x2db;" horiz-adv-x="321" 
d="M259 -193q-21 -6 -53 -10.5t-64 -4.5q-64 0 -96 19t-32 52q0 19 11.5 39.5t30.5 38.5t44 33.5t52 25.5h71q-31 -20 -52 -36t-34 -30.5t-18.5 -27t-5.5 -24.5q0 -19 18.5 -29.5t48.5 -10.5q14 0 30.5 2.5t31.5 7.5l17 -45v0z" />
    <glyph glyph-name="hungarumlaut" unicode="&#x2dd;" horiz-adv-x="321" 
d="M290 582h-108l114 140h152zM54 582h-108l113 140h152z" />
    <glyph glyph-name="uni0394" unicode="&#x394;" horiz-adv-x="864" 
d="M3 0l352 722h139l367 -722h-858zM426 592l-238 -492h483z" />
    <glyph glyph-name="uni03A9" unicode="&#x3a9;" horiz-adv-x="915" 
d="M533 0v92q40 17 74 43.5t59 62t38.5 79.5t13.5 95q0 63 -18.5 113t-52.5 85.5t-82 54t-108 18.5q-59 0 -107 -18.5t-82 -53.5t-52.5 -85.5t-18.5 -113.5q0 -51 13.5 -95t38 -79.5t58.5 -62t75 -43.5v-92h-328v92h178q-38 16 -70.5 45t-56 67.5t-37 83.5t-13.5 95
q0 82 28.5 148t81 112.5t126.5 71.5t166 25t166.5 -25t127 -71.5t81 -112.5t28.5 -148q0 -50 -13.5 -95t-37.5 -83.5t-56.5 -67.5t-69.5 -45h177v-92h-327z" />
    <glyph glyph-name="uni03BC" unicode="&#x3bc;" horiz-adv-x="747" 
d="M543 0q0 2 -1 18t-2 33q-1 20 -2 45q-34 -62 -81 -88t-104 -26q-45 0 -83 14.5t-58 42.5v-232h-129v695h129v-276q0 -76 37 -117t112 -41q33 0 64 12t55.5 36.5t39 62t14.5 87.5v236h130v-392q0 -23 1 -54t3 -56h-125z" />
    <glyph glyph-name="pi" unicode="&#x3c0;" horiz-adv-x="814" 
d="M762 11q-20 -9 -44 -14.5t-53 -5.5q-65 0 -98 40.5t-33 115.5v259h-267v-406h-129v406h-88v96h709v-96h-96v-261q0 -31 14.5 -45.5t37.5 -14.5q14 0 25 4t22 10v-88z" />
    <glyph glyph-name="Wgrave" unicode="&#x1e80;" horiz-adv-x="1257" 
d="M1009 0h-182l-199 619l-198 -619h-182l-236 722h149l184 -624l198 624h178l204 -624l179 624h141zM621 770l-157 140h152l113 -140h-108z" />
    <glyph glyph-name="wgrave" unicode="&#x1e81;" horiz-adv-x="1134" 
d="M902 0h-158l-175 416l-177 -416h-158l-222 502h147l160 -415l176 415h160l174 -415l163 415h130zM556 582l-157 140h152l113 -140h-108z" />
    <glyph glyph-name="Wacute" unicode="&#x1e82;" horiz-adv-x="1257" 
d="M1009 0h-182l-199 619l-198 -619h-182l-236 722h149l184 -624l198 624h178l204 -624l179 624h141zM643 770h-108l113 140h152z" />
    <glyph glyph-name="wacute" unicode="&#x1e83;" horiz-adv-x="1134" 
d="M902 0h-158l-175 416l-177 -416h-158l-222 502h147l160 -415l176 415h160l174 -415l163 415h130zM580 582h-108l113 140h152z" />
    <glyph glyph-name="Wdieresis" unicode="&#x1e84;" horiz-adv-x="1257" 
d="M1009 0h-182l-199 619l-198 -619h-182l-236 722h149l184 -624l198 624h178l204 -624l179 624h141zM683 796v114h118v-114h-118zM456 796v114h118v-114h-118z" />
    <glyph glyph-name="wdieresis" unicode="&#x1e85;" horiz-adv-x="1134" 
d="M902 0h-158l-175 416l-177 -416h-158l-222 502h147l160 -415l176 415h160l174 -415l163 415h130zM624 608v114h118v-114h-118zM397 608v114h118v-114h-118z" />
    <glyph glyph-name="Ygrave" unicode="&#x1ef2;" horiz-adv-x="810" 
d="M475 286v-286h-140v286l-337 436h176l239 -329l237 329h162zM405 770l-157 140h152l113 -140h-108z" />
    <glyph glyph-name="ygrave" unicode="&#x1ef3;" horiz-adv-x="674" 
d="M316 -192h-143l106 191l-274 503h150l196 -393l185 393h138zM337 582l-157 140h152l113 -140h-108z" />
    <glyph glyph-name="fraction" unicode="&#x2044;" horiz-adv-x="222" 
d="M-128 -59h-87l565 840h87z" />
    <glyph glyph-name="zero.superior" unicode="&#x2070;" horiz-adv-x="484" 
d="M451 680q0 -50 -12.5 -90.5t-38.5 -70t-65.5 -45.5t-92.5 -16q-54 0 -93.5 16t-65 45t-38 70t-12.5 91q0 99 53 158.5t156 59.5q54 0 93 -15.5t65 -44t38.5 -69t12.5 -89.5zM352 680q0 69 -25 110t-85 41t-85 -42.5t-25 -108.5q0 -72 25 -113.5t85 -41.5q59 0 84.5 42
t25.5 113z" />
    <glyph glyph-name="four.superior" unicode="&#x2074;" horiz-adv-x="484" 
d="M381 555v-89h-94v89h-267v82l244 252h117v-265h86v-69h-86zM287 818l-188 -194h188v194z" />
    <glyph glyph-name="five.superior" unicode="&#x2075;" horiz-adv-x="484" 
d="M447 608q0 -38 -16.5 -66t-44 -47t-64 -28t-76.5 -9q-41 0 -76.5 7.5t-62.5 22.5t-42.5 38.5t-15.5 56.5h98q3 -29 30.5 -43t66.5 -14q51 0 77.5 21.5t26.5 58.5q0 40 -28.5 58t-72.5 18q-75 0 -97 -43h-92l18 250h344v-70h-258l-11 -113q23 20 52 32t72 12
q35 0 66.5 -8.5t55 -26t37 -44t13.5 -63.5z" />
    <glyph glyph-name="six.superior" unicode="&#x2076;" horiz-adv-x="484" 
d="M445 604q0 -35 -16 -62.5t-43 -46t-62.5 -28t-74.5 -9.5q-62 0 -102.5 16.5t-64.5 45t-34 67t-10 82.5q0 109 51.5 169t161.5 60q49 0 83 -9.5t55.5 -25.5t32 -38.5t12.5 -47.5h-96q-4 26 -25 40t-61 14q-31 0 -52.5 -10.5t-35.5 -28.5t-20.5 -43t-7.5 -55q20 23 53 37.5
t78 14.5q36 0 68.5 -8.5t56.5 -26.5t38.5 -44.5t14.5 -62.5zM348 601q0 38 -29.5 58t-73.5 20q-43 0 -73 -21t-30 -57q0 -33 27.5 -54.5t75.5 -21.5q47 0 75 21t28 55z" />
    <glyph glyph-name="seven.superior" unicode="&#x2077;" horiz-adv-x="484" 
d="M222 466h-115l227 352h-283v71h386v-71z" />
    <glyph glyph-name="eight.superior" unicode="&#x2078;" horiz-adv-x="484" 
d="M451 585q0 -35 -18.5 -59t-48.5 -39t-67.5 -22t-74.5 -7q-40 0 -77.5 6.5t-67 21.5t-47 39t-17.5 60q0 38 27.5 64t72.5 37q-42 12 -64.5 36t-22.5 53q0 32 17 55t45 38t63 22.5t71 7.5q37 0 72.5 -7t62.5 -21.5t43.5 -38t16.5 -56.5q0 -32 -23 -55t-63 -34
q45 -10 72.5 -34.5t27.5 -66.5zM341 773q0 29 -29 43.5t-70 14.5q-39 0 -69 -15t-30 -43q0 -27 29 -41t70 -14q39 0 69 14t30 41zM354 588q0 30 -30 46.5t-81 16.5q-48 0 -80.5 -16.5t-32.5 -46.5q0 -32 31.5 -47.5t80.5 -15.5q48 0 80 16t32 47z" />
    <glyph glyph-name="nine.superior" unicode="&#x2079;" horiz-adv-x="484" 
d="M445 689q0 -52 -11.5 -94.5t-36.5 -73t-65 -47t-98 -16.5q-94 0 -137.5 32.5t-47.5 89.5h96q5 -28 26 -41.5t63 -13.5q61 0 86.5 36.5t27.5 102.5q-21 -26 -56.5 -38t-77.5 -12q-35 0 -67 8t-56 24.5t-38.5 43t-14.5 62.5q0 34 16 61t43 46t63 29t75 10q111 0 160.5 -54
t49.5 -155zM341 754q0 33 -26.5 55t-76.5 22q-47 0 -74.5 -22.5t-27.5 -54.5q0 -37 28.5 -56t73.5 -19t74 20t29 55z" />
    <glyph glyph-name="zero.inferior" unicode="&#x2080;" horiz-adv-x="484" 
d="M451 47q0 -50 -12.5 -90.5t-38.5 -70t-65.5 -45.5t-92.5 -16q-54 0 -93.5 16t-65 45t-38 70t-12.5 91q0 99 53 158.5t156 59.5q54 0 93 -15.5t65 -44t38.5 -69t12.5 -89.5zM352 47q0 69 -25 110t-85 41t-85 -42.5t-25 -108.5q0 -72 25 -113.5t85 -41.5q59 0 84.5 42
t25.5 113z" />
    <glyph glyph-name="one.inferior" unicode="&#x2081;" horiz-adv-x="484" 
d="M224 -167v337q-31 -23 -60.5 -36.5t-70.5 -26.5v80q40 12 76.5 30.5t66.5 38.5h84v-423h-96z" />
    <glyph glyph-name="two.inferior" unicode="&#x2082;" horiz-adv-x="484" 
d="M47 -167v72l91 52q45 25 81.5 47t63 43t40.5 41.5t14 40.5q0 29 -23.5 48t-65.5 19q-45 0 -69 -20.5t-26 -53.5h-99q2 73 54 108t136 35q94 0 143.5 -35.5t49.5 -95.5q0 -28 -15.5 -54.5t-41.5 -51t-59 -45.5t-67 -39l-72 -39h262v-72h-397z" />
    <glyph glyph-name="three.inferior" unicode="&#x2083;" horiz-adv-x="484" 
d="M447 -51q0 -33 -16 -56.5t-44 -38.5t-66 -22t-82 -7q-46 0 -82.5 7.5t-62 24t-39.5 43t-14 64.5h99q0 -20 9.5 -33.5t24 -21.5t32.5 -11.5t37 -3.5q51 0 78 17.5t27 44.5q0 33 -32 47t-87 14h-34v70h35q58 0 82 17t24 39q0 23 -23.5 38t-66.5 15q-38 0 -65.5 -14
t-29.5 -45h-97q1 36 16.5 60.5t41 39.5t58 21.5t68.5 6.5q51 0 88.5 -8.5t61.5 -24t36 -36.5t12 -46q0 -39 -28.5 -63.5t-75.5 -31.5v-2q53 -8 84 -33.5t31 -70.5z" />
    <glyph glyph-name="four.inferior" unicode="&#x2084;" horiz-adv-x="484" 
d="M381 -78v-89h-94v89h-267v82l244 252h117v-265h86v-69h-86zM287 185l-188 -194h188v194z" />
    <glyph glyph-name="five.inferior" unicode="&#x2085;" horiz-adv-x="484" 
d="M447 -25q0 -38 -16.5 -66t-44 -47t-64 -28t-76.5 -9q-41 0 -76.5 7.5t-62.5 22.5t-42.5 38.5t-15.5 56.5h98q3 -29 30.5 -43t66.5 -14q51 0 77.5 21.5t26.5 58.5q0 40 -28.5 58t-72.5 18q-75 0 -97 -43h-92l18 250h344v-70h-258l-11 -113q23 20 52 32t72 12
q35 0 66.5 -8.5t55 -26t37 -44t13.5 -63.5z" />
    <glyph glyph-name="six.inferior" unicode="&#x2086;" horiz-adv-x="484" 
d="M445 -29q0 -35 -16 -62.5t-43 -46t-62.5 -28t-74.5 -9.5q-62 0 -102.5 16.5t-64.5 45t-34 67t-10 82.5q0 109 51.5 169t161.5 60q49 0 83 -9.5t55.5 -25.5t32 -38.5t12.5 -47.5h-96q-4 26 -25 40t-61 14q-31 0 -52.5 -10.5t-35.5 -28.5t-20.5 -43t-7.5 -55q20 23 53 37.5
t78 14.5q36 0 68.5 -8.5t56.5 -26.5t38.5 -44.5t14.5 -62.5zM348 -32q0 38 -29.5 58t-73.5 20q-43 0 -73 -21t-30 -57q0 -33 27.5 -54.5t75.5 -21.5q47 0 75 21t28 55z" />
    <glyph glyph-name="seven.inferior" unicode="&#x2087;" horiz-adv-x="484" 
d="M222 -167h-115l227 352h-283v71h386v-71z" />
    <glyph glyph-name="eight.inferior" unicode="&#x2088;" horiz-adv-x="484" 
d="M451 -48q0 -35 -18.5 -59t-48.5 -39t-67.5 -22t-74.5 -7q-40 0 -77.5 6.5t-67 21.5t-47 39t-17.5 60q0 38 27.5 64t72.5 37q-42 12 -64.5 36t-22.5 53q0 32 17 55t45 38t63 22.5t71 7.5q37 0 72.5 -7t62.5 -21.5t43.5 -38t16.5 -56.5q0 -32 -23 -55t-63 -34
q45 -10 72.5 -34.5t27.5 -66.5zM341 140q0 29 -29 43.5t-70 14.5q-39 0 -69 -15t-30 -43q0 -27 29 -41t70 -14q39 0 69 14t30 41zM354 -45q0 30 -30 46.5t-81 16.5q-48 0 -80.5 -16.5t-32.5 -46.5q0 -32 31.5 -47.5t80.5 -15.5q48 0 80 16t32 47z" />
    <glyph glyph-name="nine.inferior" unicode="&#x2089;" horiz-adv-x="484" 
d="M445 56q0 -52 -11.5 -94.5t-36.5 -73t-65 -47t-98 -16.5q-94 0 -137.5 32.5t-47.5 89.5h96q5 -28 26 -41.5t63 -13.5q61 0 86.5 36.5t27.5 102.5q-21 -26 -56.5 -38t-77.5 -12q-35 0 -67 8t-56 24.5t-38.5 43t-14.5 62.5q0 34 16 61t43 46t63 29t75 10q111 0 160.5 -54
t49.5 -155zM341 121q0 33 -26.5 55t-76.5 22q-47 0 -74.5 -22.5t-27.5 -54.5q0 -37 28.5 -56t73.5 -19t74 20t29 55z" />
    <glyph glyph-name="afii61289" unicode="&#x2113;" horiz-adv-x="596" 
d="M527 568q-1 -76 -56.5 -158t-181.5 -166l-5 -4v-64q0 -46 22 -68.5t61 -22.5q32 0 61 18t53 47l64 -62q-38 -45 -85.5 -71.5t-110.5 -26.5q-85 0 -127 46.5t-51 129.5l-62 -41l-46 75l106 70v232q0 61 13.5 105t38.5 72.5t59.5 42t76.5 13.5q40 0 72 -12.5t53.5 -34.5
t33 -53t11.5 -67zM284 348q79 61 110.5 118.5t31.5 103.5q0 42 -19 63.5t-48 21.5q-15 0 -28.5 -5.5t-24 -18.5t-16.5 -34.5t-6 -52.5v-196z" />
    <glyph glyph-name="Omega" unicode="&#x2126;" horiz-adv-x="915" 
d="M533 0v92q40 17 74 43.5t59 62t38.5 79.5t13.5 95q0 63 -18.5 113t-52.5 85.5t-82 54t-108 18.5q-59 0 -107 -18.5t-82 -53.5t-52.5 -85.5t-18.5 -113.5q0 -51 13.5 -95t38 -79.5t58.5 -62t75 -43.5v-92h-328v92h178q-38 16 -70.5 45t-56 67.5t-37 83.5t-13.5 95
q0 82 28.5 148t81 112.5t126.5 71.5t166 25t166.5 -25t127 -71.5t81 -112.5t28.5 -148q0 -50 -13.5 -95t-37.5 -83.5t-56.5 -67.5t-69.5 -45h177v-92h-327z" />
    <glyph glyph-name="estimated" unicode="&#x212e;" horiz-adv-x="600" 
d="M157 259v-181q59 -59 145 -59q63 0 109 28.5t84 91.5l35 -21q-23 -36 -46.5 -61.5t-51 -42t-59.5 -24t-71 -7.5q-59 0 -106.5 21.5t-81.5 59t-52 87.5t-18 108t18 108.5t52 87.5t81.5 58.5t106.5 21.5q58 0 105.5 -20.5t81.5 -57t53 -87t19 -111.5h-404zM448 295v145
q-63 60 -147 60t-144 -60v-145h291z" />
    <glyph glyph-name="onethird" unicode="&#x2153;" horiz-adv-x="1110" 
d="M259 -59h-86l565 840h86zM245 313v328q-29 -23 -59 -37t-72 -26v85q41 12 78.5 31t64.5 36h88v-417h-100zM1012 112q0 -32 -15.5 -55t-43.5 -38t-67.5 -22.5t-88.5 -7.5q-96 0 -146.5 32.5t-51.5 107.5h102q0 -20 9.5 -32.5t23.5 -20t31.5 -10.5t33.5 -3q47 0 79 14
t32 40q0 32 -33 46.5t-94 14.5h-30v74h30q33 0 55.5 5t36 12.5t19 17t5.5 19.5q0 19 -27 33.5t-66 14.5q-18 0 -34.5 -3.5t-29.5 -10t-21.5 -17.5t-8.5 -26h-100q1 34 16 59t40.5 41t58.5 23.5t70 7.5q106 0 154.5 -33.5t48.5 -83.5q0 -37 -26.5 -62t-75.5 -30v-2
q55 -9 84.5 -35.5t29.5 -69.5z" />
    <glyph glyph-name="twothirds" unicode="&#x2154;" horiz-adv-x="1110" 
d="M339 -59h-86l565 840h86zM1092 112q0 -32 -15.5 -55t-43.5 -38t-67.5 -22.5t-88.5 -7.5q-96 0 -146.5 32.5t-51.5 107.5h102q0 -20 9.5 -32.5t23.5 -20t31.5 -10.5t33.5 -3q47 0 79 14t32 40q0 32 -33 46.5t-94 14.5h-30v74h30q33 0 55.5 5t36 12.5t19 17t5.5 19.5
q0 19 -27 33.5t-66 14.5q-18 0 -34.5 -3.5t-29.5 -10t-21.5 -17.5t-8.5 -26h-100q1 34 16 59t40.5 41t58.5 23.5t70 7.5q106 0 154.5 -33.5t48.5 -83.5q0 -37 -26.5 -62t-75.5 -30v-2q55 -9 84.5 -35.5t29.5 -69.5zM27 312v76q67 33 121 63t92 56.5t59 50.5t21 46
q0 27 -26 44.5t-63 17.5q-45 0 -69.5 -20.5t-25.5 -53.5h-104q2 76 55 112t140 36q98 0 146.5 -37t48.5 -93q0 -30 -19.5 -60t-53.5 -58t-80 -54t-99 -48v-2h260v-76h-403z" />
    <glyph glyph-name="oneeighth" unicode="&#x215b;" horiz-adv-x="1110" 
d="M259 -59h-86l565 840h86zM245 313v328q-29 -23 -59 -37t-72 -26v85q41 12 78.5 31t64.5 36h88v-417h-100zM1019 117q0 -33 -18 -57t-47.5 -39.5t-67.5 -23.5t-78 -8q-44 0 -82.5 7t-67 22.5t-45.5 39.5t-17 58q0 35 26.5 62.5t71.5 38.5q-42 11 -63.5 35.5t-21.5 51.5
q0 30 16 53t43.5 39t63.5 24t76 8q42 0 78 -7.5t62.5 -23t41.5 -39t15 -54.5q0 -30 -23 -53.5t-62 -33.5q45 -10 72 -35.5t27 -64.5zM908 302q0 26 -29 39.5t-71 13.5q-20 0 -38 -3.5t-32 -10.5t-22.5 -16.5t-8.5 -22.5q0 -24 29 -38t72 -14q20 0 38.5 4t32 10.5t21.5 16
t8 21.5zM919 119q0 28 -29 44t-82 16q-49 0 -80.5 -15.5t-31.5 -44.5t29.5 -42.5t82.5 -13.5q49 0 80 15t31 41z" />
    </font>
</defs>
</svg>
