<?xml version="1.0" standalone="no"?>
<!DOCTYPE svg PUBLIC "-//W3C//DTD SVG 1.1//EN" "http://www.w3.org/Graphics/SVG/1.1/DTD/svg11.dtd" >
<svg xmlns="http://www.w3.org/2000/svg" xmlns:xlink="http://www.w3.org/1999/xlink" version="1.1">
<metadata>
Created by FontForge 20201107 at Tue Feb  9 14:02:35 2010
 By Jimmy Wärting
Copyright (c) 2010 Linotype GmbH, www.linotype.com. All rights reserved. This font software may not be reproduced, modified, disclosed or transferred without the express written approval of Linotype GmbH. Univers is a trademark of Linotype Corp. registered in the U.S. Patent and Trademark Office and may be registered in certain other jurisdictions in the name of Linotype Corp. or its licensee Linotype GmbH. This typeface is original artwork of Adrian Frutiger and Linotype Design Studio. The design may be protected in certain jurisdictions.
</metadata>
<defs>
<font id="UniversNextPro-UltLtCm" horiz-adv-x="188" >
  <font-face 
    font-family="Univers Next Pro UltLt Comp"
    font-weight="250"
    font-stretch="extra-condensed"
    units-per-em="1000"
    panose-1="2 11 2 8 3 2 2 2 2 3"
    ascent="730"
    descent="-270"
    x-height="504"
    cap-height="723"
    bbox="-90 -214 871 914"
    underline-thickness="50"
    underline-position="-100"
    unicode-range="U+000D-FB04"
  />
<missing-glyph horiz-adv-x="512" 
d="M222 117v67h56v-67h-56zM223 234v17q0 27 3 46.5t10 35t18 29t28 29.5q16 16 26 28t15 22t7 19t2 20q0 36 -22.5 57.5t-53.5 21.5t-53.5 -22t-28.5 -73l-50 8q7 72 44 104.5t91 32.5q27 0 49.5 -9t39 -25t26 -39.5t9.5 -51.5q0 -17 -2.5 -32.5t-9.5 -30.5t-19.5 -30
t-31.5 -33q-16 -14 -25.5 -25t-15 -22t-7 -23.5t-1.5 -29.5v-24h-48zM462 50v617h-412v-617h412zM512 718v-718h-512v718h512z" />
    <glyph glyph-name="IJ" unicode="IJ" horiz-adv-x="380" 
d="M54 0v723h20v-723h-20zM328 124q0 -23 -3 -47t-12.5 -44t-27.5 -32.5t-48 -12.5t-48 12.5t-27.5 32.5t-12.5 44t-3 47v9h20v-9q0 -22 2 -43t9 -37.5t21 -26.5t39 -10t39 10t21 26.5t9 37.5t2 43v599h20v-599z" />
    <glyph glyph-name="ij" unicode="ij" horiz-adv-x="228" 
d="M45 655v53h24v-53h-24zM47 0v504h20v-504h-20zM159 655v53h24v-53h-24zM181 -128q0 -17 -1 -32t-5.5 -25.5t-14.5 -16.5t-27 -6q-6 0 -12.5 1t-12.5 3v19q7 -2 14 -3t11 -1q20 0 24 16.5t4 47.5v629h20v-632z" />
    <glyph glyph-name="napostrophe" unicode="&#x22;n" horiz-adv-x="252" 
d="M186 0v408q0 16 -1.5 31.5t-7 27.5t-15.5 19t-28 7q-29 0 -48 -28.5t-19 -79.5v-385h-20v397v24.5t-0.5 23.5t-1 26t-0.5 33h20l1 -48q7 21 23 38.5t48 17.5q22 0 35.5 -8.5t21 -22t10 -31t2.5 -36.5v-414h-20zM11 556h-12l17 167h24z" />
    <glyph glyph-name="f_f" unicode="ff" horiz-adv-x="312" 
d="M166 710q-8 2 -15 3t-11 1q-19 0 -30 -7t-16.5 -19t-7 -28t-1.5 -35v-121h64v-19h-64v-485h-20v485h-55v19h55v121q0 61 17 84t55 23q17 0 29 -3v-19zM320 710q-8 2 -15 3t-11 1q-19 0 -30 -7t-16.5 -19t-7 -28t-1.5 -35v-121h64v-19h-64v-485h-20v485h-55v19h55v121
q0 61 17 84t55 23q17 0 29 -3v-19z" />
    <glyph glyph-name="fi" unicode="fi" horiz-adv-x="246" 
d="M177 655v53h24v-53h-24zM151 711q-8 2 -11.5 2.5t-7.5 0.5q-29 0 -38 -25.5t-9 -63.5v-121h64v-19h-64v-485h-20v485h-55v19h55v121q0 61 17 84t48 23q8 0 9 -0.5t12 -2.5v-18zM179 0v504h20v-504h-20z" />
    <glyph glyph-name="fl" unicode="fl" horiz-adv-x="246" 
d="M179 0v723h20v-723h-20zM151 711q-8 2 -11.5 2.5t-7.5 0.5q-29 0 -38 -25.5t-9 -63.5v-121h64v-19h-64v-485h-20v485h-55v19h55v121q0 61 17 84t48 23q8 0 9 -0.5t12 -2.5v-18z" />
    <glyph glyph-name="f_f_i" unicode="ffi" horiz-adv-x="400" 
d="M166 710q-8 2 -15 3t-11 1q-19 0 -30 -7t-16.5 -19t-7 -28t-1.5 -35v-121h64v-19h-64v-485h-20v485h-55v19h55v121q0 61 17 84t55 23q8 0 13 -0.5t16 -2.5v-19zM331 655v53h24v-53h-24zM305 711q-8 2 -11.5 2.5t-7.5 0.5q-29 0 -38 -25.5t-9 -63.5v-121h64v-19h-64v-485
h-20v485h-55v19h55v121q0 61 17 84t48 23q8 0 9 -0.5t12 -2.5v-18zM333 0v504h20v-504h-20z" />
    <glyph glyph-name="f_f_l" unicode="ffl" horiz-adv-x="400" 
d="M166 710q-8 2 -15 3t-11 1q-19 0 -30 -7t-16.5 -19t-7 -28t-1.5 -35v-121h64v-19h-64v-485h-20v485h-55v19h55v121q0 61 17 84t55 23q8 0 13 -0.5t16 -2.5v-19zM333 0v723h20v-723h-20zM305 711q-8 2 -11.5 2.5t-7.5 0.5q-29 0 -38 -25.5t-9 -63.5v-121h64v-19h-64v-485
h-20v485h-55v19h55v121q0 61 17 84t48 23q8 0 9 -0.5t12 -2.5v-18z" />
    <glyph glyph-name=".notdef" horiz-adv-x="512" 
d="M222 117v67h56v-67h-56zM223 234v17q0 27 3 46.5t10 35t18 29t28 29.5q16 16 26 28t15 22t7 19t2 20q0 36 -22.5 57.5t-53.5 21.5t-53.5 -22t-28.5 -73l-50 8q7 72 44 104.5t91 32.5q27 0 49.5 -9t39 -25t26 -39.5t9.5 -51.5q0 -17 -2.5 -32.5t-9.5 -30.5t-19.5 -30
t-31.5 -33q-16 -14 -25.5 -25t-15 -22t-7 -23.5t-1.5 -29.5v-24h-48zM462 50v617h-412v-617h412zM512 718v-718h-512v718h512z" />
    <glyph glyph-name="nonmarkingreturn" unicode="&#xd;" horiz-adv-x="0" 
 />
    <glyph glyph-name="space" unicode=" " horiz-adv-x="150" 
 />
    <glyph glyph-name="exclam" unicode="!" horiz-adv-x="148" 
d="M64 160v563h20v-563h-20zM64 0v62h20v-62h-20z" />
    <glyph glyph-name="quotedbl" unicode="&#x22;" horiz-adv-x="248" 
d="M166 438v273h18v-273h-18zM64 438v273h20v-273h-20z" />
    <glyph glyph-name="numbersign" unicode="#" horiz-adv-x="294" 
d="M230 465l-38 -207h62v-18h-65l-46 -240h-20l46 240h-91l-45 -240h-20l45 240h-58v18h61l39 207h-60v18h63l45 240h20l-45 -240h90l46 240h20l-46 -240h62v-18h-65zM120 465l-39 -207h91l38 207h-90z" />
    <glyph glyph-name="dollar" unicode="$" horiz-adv-x="294" 
d="M138 -12q-33 2 -51 16t-27 37t-11 53t-2 65v16h20v-16q0 -30 1 -57t8 -47.5t21 -33.5t41 -16v379l-54 122q-17 38 -24 62.5t-7 45.5q0 57 22.5 87.5t62.5 33.5v61h18v-61q28 -1 45 -16t26 -38.5t11.5 -53t2.5 -59.5v-10h-20v9q0 27 -2 53t-8.5 47t-19.5 34.5t-35 15.5
v-326l45 -99q19 -42 32.5 -86.5t13.5 -86.5q0 -26 -4 -49t-14 -40.5t-28 -28.5t-45 -13v-67h-18v67zM156 344v-339q22 1 35.5 10.5t21.5 25t11 35.5t3 43q0 42 -14 85t-31 81zM73 614q0 -19 6 -41.5t23 -60.5l36 -80v285q-31 -3 -48 -29t-17 -74z" />
    <glyph glyph-name="percent" unicode="%" horiz-adv-x="443" 
d="M169 513q0 -61 -2.5 -104.5t-10 -71t-22.5 -40.5t-40 -13q-26 0 -40.5 13t-22 41t-9.5 71.5t-2 103.5q0 49 2 89.5t9.5 69t22 44t40.5 15.5t41 -15.5t22.5 -44t9.5 -69t2 -89.5zM95 -12h-20l274 747h20zM423 221q0 -61 -2.5 -104.5t-10 -71t-22.5 -40.5t-40 -13
q-26 0 -40.5 13t-22 41t-9.5 71.5t-2 103.5q0 49 2 89.5t9.5 69t22 44t40.5 15.5t41 -15.5t22.5 -44t9.5 -69t2 -89.5zM150 513q0 94 -10.5 147.5t-45.5 53.5q-18 0 -29 -14.5t-16.5 -41t-7.5 -63.5t-2 -82q0 -59 2 -99t8 -65.5t17 -36.5t28 -11q18 0 29 11.5t17 36.5
t8 65.5t2 98.5zM404 221q0 94 -10.5 147.5t-45.5 53.5q-18 0 -29 -14.5t-16.5 -41t-7.5 -63.5t-2 -82q0 -59 2 -99t8 -65.5t17 -36.5t28 -11q18 0 29 11.5t17 36.5t8 65.5t2 98.5z" />
    <glyph glyph-name="ampersand" unicode="&#x26;" horiz-adv-x="350" 
d="M265 374v-374h-91q-41 0 -66 14.5t-39.5 40t-19.5 59t-5 72.5q0 97 23 142t67 56q-18 5 -33 15.5t-25.5 28.5t-16 46t-5.5 69q0 34 5 68.5t19.5 62t39.5 44.5t64 17q20 0 33 -2.5t25 -6.5v-19q-26 9 -56 9q-33 0 -54 -14.5t-33.5 -38.5t-17.5 -55.5t-5 -64.5q0 -29 4 -56
t15 -48t31 -33.5t52 -12.5h69v161h20v-161h69v-19h-69zM245 374h-69q-40 0 -62.5 -18t-33.5 -46t-13.5 -61t-2.5 -63q0 -28 3 -57.5t14 -54t33 -40t60 -15.5h71v355z" />
    <glyph glyph-name="quotesingle" unicode="'" horiz-adv-x="148" 
d="M64 438v273h20v-273h-20z" />
    <glyph glyph-name="parenleft" unicode="(" horiz-adv-x="197" 
d="M132 -144q-17 55 -30 105t-22 99t-13.5 99.5t-4.5 107.5q0 119 21 230t53 226h18q-26 -112 -48.5 -226.5t-22.5 -229.5q0 -109 18.5 -208.5t52.5 -202.5h-22z" />
    <glyph glyph-name="parenright" unicode=")" horiz-adv-x="197" 
d="M135 267q0 -57 -5 -107.5t-14 -99.5t-22 -99t-29 -105h-22q34 103 52.5 202.5t18.5 208.5q0 115 -22.5 229.5t-48.5 226.5h18q16 -57 29.5 -113.5t23.5 -112.5t15.5 -113t5.5 -117z" />
    <glyph glyph-name="asterisk" unicode="*" horiz-adv-x="404" 
d="M215 596l72 -113l-16 -13l-68 118l-63 -117l-18 11l68 114l-127 -4v20l127 -2l-72 114l18 11l67 -120l67 119l18 -9l-73 -115l126 2v-20z" />
    <glyph glyph-name="plus" unicode="+" horiz-adv-x="408" 
d="M214 249h146v-18h-146v-148h-20v148h-146v18h146v148h20v-148z" />
    <glyph glyph-name="comma" unicode="," horiz-adv-x="147" 
d="M42 -106h-14l38 162h24z" />
    <glyph glyph-name="hyphen" unicode="-" horiz-adv-x="235" 
d="M33 263v20h169v-20h-169z" />
    <glyph glyph-name="period" unicode="." horiz-adv-x="147" 
d="M64 0v56h20v-56h-20z" />
    <glyph glyph-name="slash" unicode="/" horiz-adv-x="331" 
d="M50 -12h-22l253 747h22z" />
    <glyph glyph-name="zero" unicode="0" horiz-adv-x="294" 
d="M37 362q0 102 3.5 173t15.5 115.5t33.5 64.5t57.5 20t57.5 -20t33.5 -64.5t15.5 -115.5t3.5 -173t-3.5 -173t-15 -115.5t-33.5 -65t-58 -20.5q-37 0 -59 20.5t-33 65t-14.5 115.5t-3.5 173zM147 716q-29 0 -46.5 -18.5t-27 -60.5t-13 -109.5t-3.5 -165.5t3 -166t13 -110
t27.5 -60.5t46.5 -18.5t46.5 18.5t27.5 60.5t13 110t3 166t-3.5 165.5t-13 109.5t-27.5 60.5t-46 18.5z" />
    <glyph glyph-name="one" unicode="1" horiz-adv-x="294" 
d="M137 0v699q-19 -20 -35.5 -33.5t-30.5 -22.5v21q31 22 62 59h24v-723h-20z" />
    <glyph glyph-name="two" unicode="2" horiz-adv-x="294" 
d="M48 0v19l129 326q9 21 16.5 43t13 50t9 63.5t3.5 85.5q0 22 -2.5 44.5t-10 41.5t-21.5 31t-36 12q-27 0 -42.5 -14t-23.5 -35.5t-10.5 -47t-2.5 -49.5v-14h-20v14q0 29 3.5 58.5t14 53t30 38.5t51.5 15q28 0 46 -13.5t27.5 -35t13 -48t3.5 -51.5q0 -50 -3 -86t-9 -64.5
t-14 -51.5t-17 -47l-126 -319h193v-19h-215z" />
    <glyph glyph-name="three" unicode="3" horiz-adv-x="294" 
d="M238 194q0 -58 -5.5 -97.5t-17 -63.5t-30 -34.5t-43.5 -10.5q-31 0 -49 12.5t-27.5 35.5t-12.5 54.5t-3 70.5v12h20v-13q0 -32 2 -60t9.5 -48.5t22 -32.5t38.5 -12t39 12.5t23 36.5t11 59t3 79q0 40 -3.5 71.5t-15.5 52.5t-34.5 32t-59.5 11h-23v19h22q36 0 58 11.5
t33.5 33.5t15.5 55t4 77q0 73 -13.5 116t-55.5 43q-21 0 -34 -11t-21 -30t-11 -46t-3 -58v-15h-20v15q0 82 20.5 123t68.5 41q29 0 46.5 -13.5t27 -37.5t12.5 -56.5t3 -70.5q0 -43 -3.5 -74.5t-11.5 -53.5t-22.5 -36t-36.5 -23q23 -8 38 -20t23.5 -31.5t12 -49.5t3.5 -75z
" />
    <glyph glyph-name="four" unicode="4" horiz-adv-x="294" 
d="M215 171v-171h-20v171h-169v19l164 533h25v-533h61v-19h-61zM195 673l-148 -483h148v483z" />
    <glyph glyph-name="five" unicode="5" horiz-adv-x="294" 
d="M258 232q0 -53 -3 -98t-14 -77.5t-32 -50.5t-57 -18q-35 0 -54.5 15.5t-30 40t-13 54.5t-2.5 60v11h20v-10q0 -26 2 -52.5t10.5 -49t24.5 -36.5t43 -14t44 13.5t26.5 41.5t12.5 70.5t3 99.5q0 43 -3 79t-12 62.5t-24.5 41.5t-39.5 15q-21 0 -35 -9t-24 -23t-15 -31.5
t-8 -35.5h-20l3 392h180v-19h-160l-3 -315q26 60 82 60q52 0 75.5 -50.5t23.5 -166.5z" />
    <glyph glyph-name="six" unicode="6" horiz-adv-x="294" 
d="M253 223q0 -52 -4 -95.5t-15.5 -74.5t-31.5 -48t-52 -17q-33 0 -54 16.5t-32.5 53t-16 95.5t-4.5 145v31q0 129 6.5 208.5t19.5 123.5t33.5 59t49.5 15q31 0 49 -12t27 -33t11.5 -50t2.5 -62v-12h-20v12q0 30 -2 55t-9 43t-21 28.5t-38 10.5q-25 0 -41.5 -16t-26.5 -56.5
t-15 -109t-6 -172.5q6 38 29.5 63t60.5 25q57 0 78.5 -53.5t21.5 -172.5zM233 223q0 108 -18 157.5t-64 49.5q-48 0 -67.5 -55t-19.5 -152q0 -113 18 -164.5t68 -51.5t66.5 56t16.5 160z" />
    <glyph glyph-name="seven" unicode="7" horiz-adv-x="294" 
d="M83 0h-21l171 704h-178v19h195v-24z" />
    <glyph glyph-name="eight" unicode="8" horiz-adv-x="294" 
d="M254 177q0 -36 -2 -70t-12.5 -60.5t-32 -42.5t-60.5 -16t-60.5 16t-32 42.5t-12.5 60.5t-2 70q0 46 3.5 79.5t12 57t23.5 37t38 20.5q-45 11 -57 58t-12 126q0 31 2 63t11.5 58t29.5 42.5t56 16.5t56 -16.5t29.5 -42.5t11.5 -58t2 -63q0 -39 -2.5 -70.5t-9.5 -55t-21 -38
t-36 -20.5q23 -7 38 -20.5t23.5 -37t12 -57t3.5 -79.5zM226 555q0 28 -2 57t-9.5 52t-23.5 37.5t-44 14.5t-44 -14.5t-23.5 -37.5t-9.5 -52t-2 -57q0 -36 3 -67.5t11.5 -55.5t24 -37.5t40.5 -13.5q26 0 41.5 14t24 38t11 55.5t2.5 66.5zM234 177q0 36 -3 68.5t-12.5 58
t-26.5 40.5t-45 15t-45 -15t-26.5 -40.5t-12.5 -58t-3 -68.5q0 -40 3 -71.5t12.5 -53.5t26.5 -33.5t45 -11.5t45 12t26.5 34t12.5 53.5t3 70.5z" />
    <glyph glyph-name="nine" unicode="9" horiz-adv-x="294" 
d="M251 410q0 -119 -2.5 -199.5t-13 -130t-32 -71t-58.5 -21.5q-32 0 -51 16.5t-28.5 41t-12 54t-2.5 55.5v12h22v-12q0 -28 2.5 -54.5t10 -46.5t22 -32.5t38.5 -12.5q28 0 44 19.5t25 63t12 114t5 172.5q-6 -38 -29 -63t-60 -25q-36 0 -56.5 19t-31 49t-13 67.5t-2.5 74.5
q0 52 3.5 95t15 74t31.5 48.5t53 17.5t54 -14.5t33 -49t16.5 -90.5t4.5 -140v-31zM229 499q0 115 -18.5 166t-67.5 51q-50 0 -66.5 -56.5t-16.5 -159.5q0 -33 2 -67t10 -61.5t25 -45t46 -17.5q30 0 47 19.5t25.5 48.5t11 62t2.5 60z" />
    <glyph glyph-name="colon" unicode=":" horiz-adv-x="147" 
d="M64 449v55h20v-55h-20zM64 0v56h20v-56h-20z" />
    <glyph glyph-name="semicolon" unicode=";" horiz-adv-x="147" 
d="M63 449v55h20v-55h-20zM42 -106h-14l38 162h24z" />
    <glyph glyph-name="less" unicode="&#x3c;" horiz-adv-x="408" 
d="M48 231v18l312 134v-19l-290 -124l290 -123v-19z" />
    <glyph glyph-name="equal" unicode="=" horiz-adv-x="408" 
d="M48 303v18h312v-18h-312zM48 159v18h312v-18h-312z" />
    <glyph glyph-name="greater" unicode="&#x3e;" horiz-adv-x="408" 
d="M48 98v19l290 123l-290 124v19l312 -134v-18z" />
    <glyph glyph-name="question" unicode="?" horiz-adv-x="216" 
d="M192 565q0 -41 -2 -68t-11 -57l-34 -113q-6 -21 -10 -33.5t-5.5 -22.5t-2 -19.5t-0.5 -22.5v-73h-20v73q0 14 0.5 23.5t2.5 19.5t5.5 23.5t10.5 35.5l34 113q8 27 10.5 59.5t2.5 61.5q0 33 -2 60.5t-9 48t-21.5 31.5t-38.5 11t-38.5 -13.5t-22 -34.5t-9.5 -47t-2 -51v-17
h-20v17q0 29 3 58.5t12.5 53t27.5 38.5t49 15q32 0 50 -15t27 -39t11 -54.5t2 -61.5zM107 0v42h20v-42h-20z" />
    <glyph glyph-name="at" unicode="@" horiz-adv-x="632" 
d="M385 299q8 42 12 75t4 57q0 31 -12.5 47t-34.5 16q-32 0 -56 -44t-43 -151q-8 -46 -12 -76.5t-4 -52.5q0 -58 39 -58q17 0 31.5 8t27.5 28.5t24.5 57t23.5 93.5zM443 -77q-41 -27 -80 -39t-88 -12q-109 0 -166 86.5t-57 247.5q0 113 23 210t64 168.5t99 112t129 40.5
q60 0 101 -24t66.5 -66t36.5 -100.5t11 -127.5q0 -63 -11.5 -121.5t-32 -103.5t-48.5 -72t-61 -27t-46 23t-10 71q-28 -95 -97 -95q-28 0 -42.5 19t-14.5 54q0 25 4 56.5t12 75.5q11 61 23 102t26.5 65.5t32.5 35t41 10.5q28 0 41 -17t14 -37l8 46h20l-48 -274
q-6 -32 -6 -55q0 -62 42 -62q28 0 52.5 25.5t42.5 68t28 97.5t10 115q0 65 -10 120t-33.5 95t-60.5 62.5t-91 22.5q-69 0 -123.5 -41t-93 -111.5t-58.5 -164t-20 -197.5q0 -152 51.5 -233.5t151.5 -81.5q45 0 82 11t75 37z" />
    <glyph glyph-name="A" unicode="A" horiz-adv-x="291" 
d="M259 0l-32 195h-161l-34 -195h-20l128 723h20l119 -723h-20zM149 675l-80 -461h155z" />
    <glyph glyph-name="B" unicode="B" horiz-adv-x="296" 
d="M254 213q0 -46 -1.5 -85t-11.5 -67.5t-30.5 -44.5t-58.5 -16h-98v723h101q35 0 54.5 -14.5t28.5 -38.5t10.5 -54.5t1.5 -62.5q0 -20 -0.5 -47.5t-6 -54t-19.5 -46.5t-41 -23q26 -5 40.5 -19t21 -35.5t8 -50.5t1.5 -64zM230 553q0 28 -1.5 55.5t-9 48.5t-23.5 34t-44 13
h-78v-313h63q34 0 53 10.5t28 31t10.5 51t1.5 69.5zM234 213q0 36 -1.5 65t-10.5 50t-29 32.5t-56 11.5h-63v-353h77q31 0 48 15.5t24.5 42.5t9 62t1.5 74z" />
    <glyph glyph-name="C" unicode="C" horiz-adv-x="263" 
d="M219 559q0 22 -2 49.5t-9 51.5t-22 40t-41 16q-31 0 -48 -24t-24.5 -68.5t-9 -107t-1.5 -140.5q0 -87 1.5 -156t9 -116t24.5 -72t48 -25q25 0 39.5 14t21.5 37.5t8.5 55t1.5 66.5h20q0 -30 -1 -64t-9.5 -62.5t-27 -47t-53.5 -18.5q-39 0 -59.5 24t-30.5 72.5t-11.5 121
t-1.5 170.5q0 93 2 160.5t12 112t31 65.5t58 21q35 0 54 -17t28 -43t10.5 -57t1.5 -59h-20z" />
    <glyph glyph-name="D" unicode="D" horiz-adv-x="301" 
d="M259 301q0 -73 -3 -129t-14.5 -94.5t-33.5 -58t-61 -19.5h-93v723h93q39 0 61 -20t33.5 -58t14.5 -94t3 -129v-121zM239 421q0 75 -3 129t-13 88t-28.5 50t-49.5 16h-71v-685h71q31 0 49.5 16t28.5 50t13 88t3 129v119z" />
    <glyph glyph-name="E" unicode="E" horiz-adv-x="251" 
d="M54 0v723h163v-19h-143v-313h130v-19h-130v-353h159v-19h-179z" />
    <glyph glyph-name="F" unicode="F" horiz-adv-x="233" 
d="M74 704v-313h133v-19h-133v-372h-20v723h165v-19h-145z" />
    <glyph glyph-name="G" unicode="G" horiz-adv-x="273" 
d="M219 559q0 28 -1.5 56t-9 50.5t-22.5 36.5t-41 14q-32 0 -48.5 -24t-24.5 -68.5t-9 -107.5t-1 -140q0 -94 1.5 -163.5t9.5 -115t26.5 -68t52.5 -22.5q16 0 25 1t14.5 3t10.5 4.5t14 6.5v278h-84v19h104v-309q-20 -11 -36 -16.5t-48 -5.5q-38 0 -59.5 18t-33 62.5
t-14.5 119t-3 188.5q0 88 1.5 155t11.5 112.5t30.5 68.5t59.5 23q34 0 53 -15.5t28 -40.5t11 -56.5t2 -63.5h-20z" />
    <glyph glyph-name="H" unicode="H" horiz-adv-x="301" 
d="M227 0v372h-153v-372h-20v723h20v-332h153v332h20v-723h-20z" />
    <glyph glyph-name="I" unicode="I" horiz-adv-x="128" 
d="M54 0v723h20v-723h-20z" />
    <glyph glyph-name="J" unicode="J" horiz-adv-x="252" 
d="M200 124q0 -23 -3 -47t-12.5 -44t-27.5 -32.5t-48 -12.5t-48 12.5t-27.5 32.5t-12.5 44t-3 47v9h20v-9q0 -22 2 -43t9 -37.5t21 -26.5t39 -10t39 10t21 26.5t9 37.5t2 43v599h20v-599z" />
    <glyph glyph-name="K" unicode="K" horiz-adv-x="274" 
d="M249 0l-169 393l142 330h21l-143 -330l170 -393h-21zM54 0v723h20v-723h-20z" />
    <glyph glyph-name="L" unicode="L" horiz-adv-x="223" 
d="M54 0v723h20v-704h136v-19h-156z" />
    <glyph glyph-name="M" unicode="M" horiz-adv-x="457" 
d="M383 0v696l-142 -696h-25l-142 696v-696h-20v723h36l139 -687l138 687h36v-723h-20z" />
    <glyph glyph-name="N" unicode="N" horiz-adv-x="311" 
d="M221 0l-147 703v-703h-20v723h36l147 -703v703h20v-723h-36z" />
    <glyph glyph-name="O" unicode="O" horiz-adv-x="308" 
d="M266 371q0 -100 -2 -172.5t-12.5 -119t-33 -69t-64.5 -22.5t-64.5 22.5t-33 69t-12.5 119t-2 172.5q0 88 2 155.5t12.5 114t33 70.5t64.5 24t64.5 -23.5t33 -70t12.5 -114.5t2 -156zM246 371q0 81 -2 145t-11 108.5t-27.5 68t-51.5 23.5q-34 0 -52.5 -23t-27.5 -67.5
t-10.5 -108.5t-1.5 -146q0 -96 1.5 -165t10.5 -113.5t27.5 -65t52.5 -20.5t52.5 21t27.5 65.5t10.5 113.5t1.5 164z" />
    <glyph glyph-name="P" unicode="P" horiz-adv-x="271" 
d="M245 513q0 -43 -2 -76t-12 -56t-31 -35t-59 -12h-67v-334h-20v723h94q36 0 56 -16.5t29 -45t10.5 -67t1.5 -81.5zM225 513q0 42 -1.5 77t-9.5 60.5t-24.5 39.5t-47.5 14h-68v-351h67q31 0 48 10.5t25 31t9.5 50.5t1.5 68z" />
    <glyph glyph-name="Q" unicode="Q" horiz-adv-x="308" 
d="M225 0q-13 0 -33 -3.5t-38 -3.5q-42 0 -64.5 21.5t-33 67.5t-12.5 117.5t-2 171.5q0 88 2 155.5t12.5 114t33 70.5t64.5 24t64.5 -23.5t33 -70t12.5 -114.5t2 -156t-1.5 -153t-8.5 -111q-5 -32 -15 -57t-28 -36l78 5v-19h-66zM246 371q0 81 -2 145t-11 108.5t-27.5 68
t-51.5 23.5q-34 0 -52.5 -23t-27.5 -67.5t-10.5 -108.5t-1.5 -146q0 -96 1.5 -164.5t10.5 -111.5t27.5 -63t52.5 -20t52.5 20.5t27.5 64t10.5 111.5t1.5 163z" />
    <glyph glyph-name="R" unicode="R" horiz-adv-x="295" 
d="M242 0q-5 12 -8 31.5t-4.5 40t-2.5 39.5t-1 31v115q0 31 -3 52.5t-13 34.5t-27.5 19t-46.5 6h-62v-369h-20v723h93q36 0 56 -16.5t29 -42t10.5 -57t1.5 -62.5q0 -22 -1.5 -48.5t-8 -50.5t-20 -41.5t-37.5 -22.5q24 -5 38 -15.5t20.5 -25.5t8.5 -35.5t2 -45.5v-118
q0 -13 1 -32t3 -39.5t5 -39.5t8 -31h-21zM224 545q0 29 -1 57.5t-9 51t-25 36.5t-49 14h-66v-316h62q32 0 50 15.5t26.5 39t10 51t1.5 51.5z" />
    <glyph glyph-name="S" unicode="S" horiz-adv-x="268" 
d="M234 119q0 -27 -4 -50.5t-15 -41.5t-29.5 -28.5t-48.5 -10.5q-38 0 -58.5 13t-30.5 36t-12 54.5t-2 67.5v16h20v-16q0 -32 1.5 -59.5t9.5 -48t25 -32.5t47 -12q24 0 39 9t23.5 24.5t11.5 36t3 42.5q0 42 -14 85t-31 81l-98 221q-9 20 -15 34.5t-9.5 26.5t-5 23t-1.5 24
q0 62 25 91.5t68 29.5q34 0 53 -14.5t28.5 -38t11.5 -53.5t2 -61v-10h-20v9q0 29 -1.5 56t-9 47.5t-22.5 33t-42 12.5q-35 0 -54 -25.5t-19 -76.5q0 -21 6 -42.5t23 -59.5l99 -219q19 -42 32.5 -87t13.5 -87z" />
    <glyph glyph-name="T" unicode="T" horiz-adv-x="208" 
d="M114 704v-704h-20v704h-82v19h184v-19h-82z" />
    <glyph glyph-name="U" unicode="U" horiz-adv-x="286" 
d="M234 124q0 -23 -3 -47t-12.5 -44t-27.5 -32.5t-48 -12.5t-48 12.5t-27.5 32.5t-12.5 44t-3 47v599h20v-599q0 -22 2 -43t9 -37.5t21 -26.5t39 -10t39 10t21 26.5t9 37.5t2 43v599h20v-599z" />
    <glyph glyph-name="V" unicode="V" horiz-adv-x="274" 
d="M149 0h-24l-113 723h21l104 -676l104 676h21z" />
    <glyph glyph-name="W" unicode="W" horiz-adv-x="470" 
d="M343 0h-24l-84 671l-95 -671h-24l-104 723h20l96 -674l95 674h24l86 -674l105 674h20z" />
    <glyph glyph-name="X" unicode="X" horiz-adv-x="265" 
d="M230 0l-94 339l-101 -339h-21l108 362l-101 361h21l95 -342l91 342h21l-100 -364l102 -359h-21z" />
    <glyph glyph-name="Y" unicode="Y" horiz-adv-x="260" 
d="M140 326v-326h-20v326l-114 397h21l103 -364l103 364h21z" />
    <glyph glyph-name="Z" unicode="Z" horiz-adv-x="230" 
d="M14 0v19l181 685h-167v19h188v-19l-181 -685h181v-19h-202z" />
    <glyph glyph-name="bracketleft" unicode="[" horiz-adv-x="292" 
d="M98 -144v867h103v-19h-83v-829h83v-19h-103z" />
    <glyph glyph-name="backslash" unicode="\" horiz-adv-x="331" 
d="M281 -12l-253 747h22l253 -747h-22z" />
    <glyph glyph-name="bracketright" unicode="]" horiz-adv-x="292" 
d="M91 -144v20h83v827h-83v20h103v-867h-103z" />
    <glyph glyph-name="asciicircum" unicode="^" horiz-adv-x="408" 
d="M324 303l-120 376l-120 -376h-20l130 408h20l130 -408h-20z" />
    <glyph glyph-name="underscore" unicode="_" horiz-adv-x="500" 
d="M0 -125v50h500v-50h-500z" />
    <glyph glyph-name="grave" unicode="`" horiz-adv-x="100" 
d="M72 592l-91 137h24l84 -137h-17z" />
    <glyph glyph-name="a" unicode="a" horiz-adv-x="254" 
d="M193 0q-1 6 -1 13q-1 6 -1 15t-1 21q-2 -9 -8 -19t-15.5 -18.5t-22 -14t-27.5 -5.5q-40 0 -64.5 30t-24.5 102q0 33 3.5 62t14.5 50.5t33 33.5t60 12q14 0 24.5 -2t24.5 -5v120q0 19 -2 37.5t-8.5 32t-20 22t-35.5 8.5q-23 0 -36 -8.5t-19.5 -22.5t-8.5 -31.5t-2 -36.5
v-9h-20v9q0 24 3 45.5t12.5 37.5t26.5 25.5t44 9.5q30 0 47.5 -10t26 -26.5t10.5 -38t2 -44.5v-299q0 -42 1.5 -61.5t3.5 -34.5h-20zM188 256q-14 4 -24.5 5.5t-24.5 1.5q-25 0 -42.5 -6.5t-28 -22.5t-15.5 -43t-5 -67q0 -61 18.5 -87t50.5 -26q36 0 53.5 32t17.5 86v127z
" />
    <glyph glyph-name="b" unicode="b" horiz-adv-x="265" 
d="M229 248q0 -60 -2 -107.5t-10.5 -80.5t-27 -50.5t-51.5 -17.5q-28 0 -47 17t-24 46l-2 -55h-20l1.5 25.5t0.5 17v21v38.5v621h20v-276q5 26 21.5 46.5t49.5 20.5q32 0 50 -16.5t27 -49.5t11.5 -83t2.5 -117zM209 248q0 52 -1 97.5t-8 78.5t-21 52t-41 19t-41 -19
t-21 -52.5t-8 -78.5t-1 -97q0 -51 1 -94.5t8 -75t21 -49.5t41 -18t41 18t21 49.5t8 75t1 94.5z" />
    <glyph glyph-name="c" unicode="c" horiz-adv-x="224" 
d="M200 122q0 -23 -2 -46.5t-10 -42.5t-23.5 -31t-42.5 -12q-31 0 -48 17t-25.5 50t-10.5 81t-2 110q0 70 2.5 120.5t11.5 82.5t26 47.5t46 15.5q26 0 41.5 -11.5t23.5 -30t10.5 -41.5t2.5 -47v-8h-20v8q0 24 -2 44.5t-8.5 35.5t-18 23t-29.5 8q-22 0 -35 -13.5t-20 -43
t-9 -76.5t-2 -114q0 -57 1.5 -101.5t8 -75t20 -46.5t36.5 -16q37 0 47.5 32t10.5 83v8h20v-10z" />
    <glyph glyph-name="d" unicode="d" horiz-adv-x="265" 
d="M200 0l-2 55q-5 -29 -24 -46t-47 -17q-33 0 -51.5 17.5t-27 50.5t-10.5 80.5t-2 107.5q0 67 2.5 117t11.5 83t27 49.5t50 16.5q33 0 49.5 -20.5t21.5 -46.5v276h20v-621v-38.5v-21t0.5 -17l1.5 -25.5h-20zM198 248q0 52 -1 97t-8 78.5t-21 52.5t-41 19t-41 -19t-21 -52
t-8 -78.5t-1 -97.5q0 -51 1 -94.5t8 -75t21 -49.5t41 -18t41 18t21 49.5t8 75t1 94.5z" />
    <glyph glyph-name="e" unicode="e" horiz-adv-x="252" 
d="M56 249q0 -51 1 -95t8 -76t21 -50.5t41 -18.5q22 0 35 12t20 30t9.5 39.5t3.5 39.5h20q-1 -20 -3.5 -44t-11.5 -45.5t-26 -36t-47 -14.5q-34 0 -52.5 19.5t-27 55t-10 85.5t-1.5 111q0 54 1.5 100.5t10 80t27 53t52.5 19.5t52.5 -19t27 -54t10 -84t1.5 -108h-162z
M198 268q0 41 -1 81.5t-8 73t-21 52.5t-41 20t-41 -20t-21 -52t-8 -72.5t-1 -82.5h142z" />
    <glyph glyph-name="f" unicode="f" horiz-adv-x="158" 
d="M166 710q-8 2 -15 3t-11 1q-19 0 -30 -7t-16.5 -19t-7 -28t-1.5 -35v-121h64v-19h-64v-485h-20v485h-55v19h55v121q0 61 17 84t55 23q17 0 29 -3v-19z" />
    <glyph glyph-name="g" unicode="g" horiz-adv-x="264" 
d="M220 504q-1 -14 -1 -33v-36q0 -20 -1 -42v-429q0 -35 -2 -66.5t-11 -55t-26.5 -37t-48.5 -13.5q-29 0 -46 10.5t-26 27.5t-12 38.5t-3 43.5v9h20v-14q0 -51 17 -74t50 -23q23 0 36.5 9.5t20.5 29t9 48.5t2 67v91q-5 -29 -24 -46t-47 -17q-33 0 -51.5 17.5t-27 50.5
t-10.5 80.5t-2 107.5q0 67 2.5 116.5t11.5 82.5t27 49t50 16q33 0 50 -20t22 -46l1 58h20zM198 248q0 52 -1 97t-8 78t-21 51.5t-41 18.5t-41 -18.5t-21 -51.5t-8 -78t-1 -97q0 -51 1 -94.5t8 -75t21 -49.5t41 -18t41 18t21 49.5t8 75t1 94.5z" />
    <glyph glyph-name="h" unicode="h" horiz-adv-x="252" 
d="M186 0v408q0 16 -1.5 31.5t-7 27.5t-15.5 19t-28 7q-29 0 -48 -28.5t-19 -79.5v-385h-20v723h20v-266q6 20 22.5 37.5t47.5 17.5q22 0 35.5 -8.5t21 -22t10 -31t2.5 -36.5v-414h-20z" />
    <glyph glyph-name="i" unicode="i" horiz-adv-x="114" 
d="M45 655v53h24v-53h-24zM47 0v504h20v-504h-20z" />
    <glyph glyph-name="j" unicode="j" horiz-adv-x="114" 
d="M45 655v53h24v-53h-24zM67 -128q0 -17 -1 -32t-5.5 -25.5t-14.5 -16.5t-27 -6q-6 0 -12.5 1t-12.5 3v19q7 -2 14 -3t11 -1q20 0 24 16.5t4 47.5v629h20v-632z" />
    <glyph glyph-name="k" unicode="k" horiz-adv-x="229" 
d="M47 0v723h20v-723h-20zM206 0l-137 295l115 209h21l-115 -209l137 -295h-21z" />
    <glyph glyph-name="l" unicode="l" horiz-adv-x="114" 
d="M47 0v723h20v-723h-20z" />
    <glyph glyph-name="m" unicode="m" horiz-adv-x="391" 
d="M325 0v410q0 13 -1.5 28t-6.5 27t-15.5 20t-28.5 8q-32 0 -49.5 -32t-17.5 -76v-385h-20v408q0 18 -1.5 33.5t-7 27t-16 18t-27.5 6.5q-29 0 -48 -28.5t-19 -79.5v-385h-20v392v24t-0.5 21.5t-1 27t-0.5 39.5h20l1 -50q5 23 23.5 40.5t47.5 17.5q30 0 46 -16t20 -45
q10 33 29.5 47t43.5 14q23 0 37 -9t21 -23.5t9 -32.5t2 -37v-410h-20z" />
    <glyph glyph-name="n" unicode="n" horiz-adv-x="252" 
d="M186 0v408q0 16 -1.5 31.5t-7 27.5t-15.5 19t-28 7q-29 0 -48 -28.5t-19 -79.5v-385h-20v397v24.5t-0.5 23.5t-1 26t-0.5 33h20l1 -48q7 21 23 38.5t48 17.5q22 0 35.5 -8.5t21 -22t10 -31t2.5 -36.5v-414h-20z" />
    <glyph glyph-name="o" unicode="o" horiz-adv-x="254" 
d="M218 248q0 -56 -1.5 -103t-10 -81.5t-27 -54t-52.5 -19.5t-52.5 19.5t-27 54t-10 82t-1.5 102.5q0 64 2 113.5t10.5 83.5t27 51.5t51.5 17.5t51.5 -17.5t27 -51.5t10.5 -83.5t2 -113.5zM198 248q0 52 -1 97.5t-8 78.5t-21 52t-41 19t-41 -19t-21 -52.5t-8 -78.5t-1 -97
q0 -51 1 -95t8 -76t21 -50t41 -18t41 18t21 50t8 76t1 95z" />
    <glyph glyph-name="p" unicode="p" horiz-adv-x="265" 
d="M229 248q0 -60 -2 -107.5t-10.5 -80.5t-27 -50.5t-51.5 -17.5q-28 0 -47 17t-24 46v-251h-20v611q0 23 -0.5 47.5t-1.5 41.5h20l2 -57q5 26 21.5 45.5t49.5 19.5q32 0 50 -16t27 -49t11.5 -82.5t2.5 -116.5zM209 248q0 52 -1 97t-8 78t-21 51.5t-41 18.5t-41 -18.5
t-21 -51.5t-8 -78t-1 -97q0 -51 1 -94.5t8 -75t21 -49.5t41 -18t41 18t21 49.5t8 75t1 94.5z" />
    <glyph glyph-name="q" unicode="q" horiz-adv-x="265" 
d="M220 504q-1 -22 -1.5 -44t-0.5 -45v-611h-20v251q-5 -29 -24 -46t-47 -17q-33 0 -51.5 17.5t-27 50.5t-10.5 80.5t-2 107.5q0 67 2.5 116.5t11.5 82.5t27 49t50 16q33 0 49.5 -19.5t21.5 -45.5l2 57h20zM198 248q0 52 -1 97t-8 78t-21 51.5t-41 18.5t-41 -18.5t-21 -51.5
t-8 -78t-1 -97q0 -51 1 -94.5t8 -75t21 -49.5t41 -18t41 18t21 49.5t8 75t1 94.5z" />
    <glyph glyph-name="r" unicode="r" horiz-adv-x="154" 
d="M153 491q-4 1 -8.5 1.5t-11.5 0.5q-18 0 -30.5 -10t-20.5 -25.5t-11.5 -34t-3.5 -35.5v-388h-20v396v33q0 15 -0.5 34.5t-1.5 40.5h20l1 -49q7 23 24.5 40t40.5 17q10 0 22 -3v-18z" />
    <glyph glyph-name="s" unicode="s" horiz-adv-x="228" 
d="M199 95q0 -45 -19.5 -76t-65.5 -31q-28 0 -44.5 10.5t-25.5 27t-12 38t-3 43.5v18h20v-18q0 -19 2 -37t8.5 -32t19.5 -22.5t35 -8.5q35 0 50 23t15 65q0 36 -9 58.5t-28 50.5l-58 81q-23 32 -36.5 59.5t-13.5 67.5q0 19 4.5 37t14 32.5t25 23.5t38.5 9q28 0 44 -11
t24.5 -29t10.5 -39.5t2 -42.5v-11h-20v13q0 15 -1 32.5t-7 33t-18.5 25.5t-34.5 10q-31 0 -46.5 -24t-15.5 -59q0 -29 10 -53.5t36 -60.5l58 -81q23 -32 32 -59t9 -63z" />
    <glyph glyph-name="t" unicode="t" horiz-adv-x="143" 
d="M131 -5q-13 -4 -27 -4q-31 0 -38.5 21.5t-7.5 61.5v411h-42v19h42v65l20 8v-73h46v-19h-46v-411q0 -37 5 -50.5t24 -13.5q13 0 24 4v-19z" />
    <glyph glyph-name="u" unicode="u" horiz-adv-x="252" 
d="M187 0l-1 48q-7 -21 -22 -38.5t-47 -17.5q-22 0 -36 8.5t-21.5 22t-10.5 31t-3 36.5v414h20v-408q0 -17 2 -32t7.5 -27t16 -19t28.5 -7q29 0 47 28.5t18 79.5v385h20v-397q0 -26 0.5 -48t1.5 -59h-20z" />
    <glyph glyph-name="v" unicode="v" horiz-adv-x="226" 
d="M123 0h-24l-83 504h21l75 -469l77 469h21z" />
    <glyph glyph-name="w" unicode="w" horiz-adv-x="383" 
d="M283 0h-24l-68 450l-70 -450h-24l-79 504h21l71 -461l70 461h23l70 -462l71 462h21z" />
    <glyph glyph-name="x" unicode="x" horiz-adv-x="237" 
d="M206 0l-86 240l-89 -240h-21l96 260l-84 244h21l77 -222l75 222h21l-83 -244l94 -260h-21z" />
    <glyph glyph-name="y" unicode="y" horiz-adv-x="230" 
d="M90 -200h-21l35 200l-86 504h21l76 -466l76 466h21z" />
    <glyph glyph-name="z" unicode="z" horiz-adv-x="201" 
d="M14 0v19l153 466h-140v19h158v-19l-150 -466h152v-19h-173z" />
    <glyph glyph-name="braceleft" unicode="{" horiz-adv-x="322" 
d="M302 -144q-49 6 -78.5 22.5t-45 48t-20.5 80t-5 119.5v26q0 25 -3.5 45.5t-12.5 36t-25.5 26t-43.5 15.5q-11 2 -21.5 2h-20.5h-11v20h11h20.5t21.5 2q53 9 69 41.5t16 82.5v33q0 61 3.5 108t18.5 80t44.5 53t82.5 26v-19q-42 -5 -67 -19.5t-39 -41.5t-18.5 -68
t-4.5 -101v-34q0 -33 -3.5 -59.5t-14 -46t-30 -31.5t-52.5 -16q35 -3 55 -15.5t30 -32t12.5 -44t2.5 -52.5v-41q0 -53 3.5 -93t16.5 -68t39 -44.5t70 -21.5v-19z" />
    <glyph glyph-name="bar" unicode="|" horiz-adv-x="222" 
d="M99 -214v1001h24v-1001h-24z" />
    <glyph glyph-name="braceright" unicode="}" horiz-adv-x="322" 
d="M20 -125q44 5 70 21.5t39 44.5t16.5 68t3.5 93v41q0 28 2.5 52.5t12.5 44t30 32t55 15.5q-33 4 -52.5 16t-30 31.5t-14 46t-3.5 59.5v34q0 60 -4.5 101t-18.5 68t-39 41.5t-67 19.5v19q52 -6 82 -26t45 -53t18.5 -80t3.5 -108v-33q0 -50 16 -82.5t69 -41.5q11 -2 21.5 -2
h20.5h11v-20h-11h-20.5t-21.5 -2q-27 -5 -43.5 -15.5t-25.5 -26t-12.5 -36t-3.5 -45.5v-26q0 -71 -5 -119.5t-20.5 -80t-45 -48t-78.5 -22.5v19z" />
    <glyph glyph-name="asciitilde" unicode="~" horiz-adv-x="408" 
d="M286 278q-23 0 -44 9.5t-41 21.5t-39.5 21.5t-39.5 9.5q-23 0 -37.5 -14.5t-17.5 -46.5h-19q3 39 23.5 58.5t50.5 19.5q23 0 44 -9.5t41 -21.5t39.5 -21.5t39.5 -9.5q23 0 37.5 14.5t17.5 46.5h19q-3 -39 -23.5 -58.5t-50.5 -19.5z" />
    <glyph glyph-name="Euro" unicode="&#x20ac;" horiz-adv-x="294" 
d="M108 317q0 -155 18 -232.5t71 -77.5q22 0 37.5 9t26.5 24v-27q-10 -10 -25.5 -17.5t-38.5 -7.5q-32 0 -53 18t-33.5 58t-17.5 102t-5 151h-59l4 18h55v85h-58l4 18h54q1 155 24.5 226t84.5 71q23 0 41.5 -10t26.5 -22l-4 -28q-23 41 -64 41q-51 0 -70 -70.5t-19 -207.5
h127l-4 -18h-123v-85h112l-4 -18h-108z" />
    <glyph glyph-name="quotesinglbase" unicode="&#x201a;" horiz-adv-x="147" 
d="M55 -106h-12l37 162h24z" />
    <glyph glyph-name="florin" unicode="&#x192;" horiz-adv-x="294" 
d="M157 475h95l-3 -18h-94l-51 -482q-4 -36 -10.5 -66.5t-18.5 -52.5t-30.5 -34.5t-46.5 -12.5h-9l3 19h6q22 0 36.5 10.5t24.5 29.5t15.5 46t8.5 59l51 484h-83l3 18h82l8 76q4 40 9 74t15.5 58.5t28.5 38t48 13.5q16 0 35 -7l-4 -18l-16 4t-16 2q-39 0 -54 -36.5
t-23 -109.5z" />
    <glyph glyph-name="quotedblbase" unicode="&#x201e;" horiz-adv-x="249" 
d="M157 -106h-12l37 162h24zM55 -106h-12l37 162h24z" />
    <glyph glyph-name="ellipsis" unicode="&#x2026;" horiz-adv-x="1000" 
d="M824 0v52h20q-1 -11 -0.5 -27.5t0.5 -24.5h-20zM490 0v52h20v-52h-20zM157 0v52h20v-52h-20z" />
    <glyph glyph-name="dagger" unicode="&#x2020;" horiz-adv-x="406" 
d="M213 519v-519h-20v519h-125v20h125v184h20v-184h125v-20h-125z" />
    <glyph glyph-name="daggerdbl" unicode="&#x2021;" horiz-adv-x="406" 
d="M213 175v-175h-20v175h-125v20h125v337h-125v20h125v171h20v-171h125v-20h-125v-337h125v-20h-125z" />
    <glyph glyph-name="circumflex" unicode="&#x2c6;" horiz-adv-x="100" 
d="M118 592l-68 117l-68 -117h-17l74 137h22l74 -137h-17z" />
    <glyph glyph-name="perthousand" unicode="&#x2030;" horiz-adv-x="645" 
d="M625 221q0 -61 -2.5 -104.5t-10 -71t-22.5 -40.5t-40 -13q-26 0 -40.5 13t-22 41t-9.5 71.5t-2 103.5q0 49 2 89.5t9.5 69t22 44t40.5 15.5t41 -15.5t22.5 -44t9.5 -69t2 -89.5zM169 513q0 -61 -2.5 -104.5t-10 -71t-22.5 -40.5t-40 -13q-26 0 -40.5 13t-22 41t-9.5 71.5
t-2 103.5q0 49 2 89.5t9.5 69t22 44t40.5 15.5t41 -15.5t22.5 -44t9.5 -69t2 -89.5zM95 -12h-20l274 747h20zM423 221q0 -61 -2.5 -104.5t-10 -71t-22.5 -40.5t-40 -13q-26 0 -40.5 13t-22 41t-9.5 71.5t-2 103.5q0 49 2 89.5t9.5 69t22 44t40.5 15.5t41 -15.5t22.5 -44
t9.5 -69t2 -89.5zM606 221q0 94 -10.5 147.5t-45.5 53.5q-18 0 -29 -14.5t-16.5 -41t-7.5 -63.5t-2 -82q0 -59 2 -99t8 -65.5t17 -36.5t28 -11q18 0 29 11.5t17 36.5t8 65.5t2 98.5zM150 513q0 94 -10.5 147.5t-45.5 53.5q-18 0 -29 -14.5t-16.5 -41t-7.5 -63.5t-2 -82
q0 -59 2 -99t8 -65.5t17 -36.5t28 -11q18 0 29 11.5t17 36.5t8 65.5t2 98.5zM404 221q0 94 -10.5 147.5t-45.5 53.5q-18 0 -29 -14.5t-16.5 -41t-7.5 -63.5t-2 -82q0 -59 2 -99t8 -65.5t17 -36.5t28 -11q18 0 29 11.5t17 36.5t8 65.5t2 98.5z" />
    <glyph glyph-name="Scaron" unicode="&#x160;" horiz-adv-x="268" 
d="M234 119q0 -27 -4 -50.5t-15 -41.5t-29.5 -28.5t-48.5 -10.5q-38 0 -58.5 13t-30.5 36t-12 54.5t-2 67.5v16h20v-16q0 -32 1.5 -59.5t9.5 -48t25 -32.5t47 -12q24 0 39 9t23.5 24.5t11.5 36t3 42.5q0 42 -14 85t-31 81l-98 221q-9 20 -15 34.5t-9.5 26.5t-5 23t-1.5 24
q0 62 25 91.5t68 29.5q34 0 53 -14.5t28.5 -38t11.5 -53.5t2 -61v-10h-20v9q0 29 -1.5 56t-9 47.5t-22.5 33t-42 12.5q-35 0 -54 -25.5t-19 -76.5q0 -21 6 -42.5t23 -59.5l99 -219q19 -42 32.5 -87t13.5 -87zM144 777h-22l-74 137h17l68 -117l68 117h17z" />
    <glyph glyph-name="guilsinglleft" unicode="&#x2039;" horiz-adv-x="184" 
d="M121 59l-81 196l81 192h23l-77 -192l77 -196h-23z" />
    <glyph glyph-name="OE" unicode="&#x152;" horiz-adv-x="443" 
d="M266 0q-19 0 -32.5 -1t-39.5 -1q-42 0 -71 16t-47 57.5t-26 114t-8 185.5q0 103 8 171t26 108.5t47 57.5t71 17q27 0 41 -1t31 -1h143v-19h-143v-313h130v-19h-130v-1v-352h159v-19h-159zM246 704q-10 1 -23 1.5t-29 0.5q-34 0 -59 -15t-41 -53t-24 -103t-8 -164
q0 -110 8 -179t24.5 -108t41 -53t58.5 -14h18.5t11.5 0.5t9.5 1t12.5 0.5v685z" />
    <glyph glyph-name="Zcaron" unicode="&#x17d;" horiz-adv-x="230" 
d="M14 0v19l181 685h-167v19h188v-19l-181 -685h181v-19h-202zM129 777h-22l-74 137h17l68 -117l68 117h17z" />
    <glyph glyph-name="quoteleft" unicode="&#x2018;" horiz-adv-x="147" 
d="M67 561h-24l49 162h12z" />
    <glyph glyph-name="quoteright" unicode="&#x2019;" horiz-adv-x="147" 
d="M55 562h-12l37 162l24 -1z" />
    <glyph glyph-name="quotedblleft" unicode="&#x201c;" horiz-adv-x="249" 
d="M169 561h-24l49 162h12zM67 561h-24l49 162h12z" />
    <glyph glyph-name="quotedblright" unicode="&#x201d;" horiz-adv-x="249" 
d="M157 561h-12l37 162h24zM55 561h-12l37 162h24z" />
    <glyph glyph-name="bullet" unicode="&#x2022;" horiz-adv-x="500" 
d="M427 353q0 -36 -14 -68t-38 -56t-56.5 -38t-68.5 -14t-68.5 14t-56.5 38t-38 56t-14 68t14 68.5t38 57t56.5 38.5t68.5 14q37 0 69 -14t56 -38t38 -56.5t14 -69.5z" />
    <glyph glyph-name="endash" unicode="&#x2013;" horiz-adv-x="500" 
d="M0 263v20h500v-20h-500z" />
    <glyph glyph-name="emdash" unicode="&#x2014;" horiz-adv-x="1001" 
d="M130 263v20h741v-20h-741z" />
    <glyph glyph-name="tilde" unicode="&#x2dc;" horiz-adv-x="100" 
d="M143 678q-2 -30 -16 -42t-34 -12q-13 0 -24.5 5.5t-22 12t-20 12t-18.5 5.5q-14 0 -21.5 -7.5t-9.5 -27.5h-20q2 29 16 41.5t35 12.5q13 0 24.5 -5.5t22 -12t20 -12t18.5 -5.5q27 0 30 35h20z" />
    <glyph glyph-name="trademark" unicode="&#x2122;" horiz-adv-x="551" 
d="M462 367v332l-83 -332h-20l-83 332v-332h-19v356h32l80 -323l80 323h32v-356h-19zM138 705v-338h-20v338h-68v18h156v-18h-68z" />
    <glyph glyph-name="scaron" unicode="&#x161;" horiz-adv-x="228" 
d="M199 95q0 -45 -19.5 -76t-65.5 -31q-28 0 -44.5 10.5t-25.5 27t-12 38t-3 43.5v18h20v-18q0 -19 2 -37t8.5 -32t19.5 -22.5t35 -8.5q35 0 50 23t15 65q0 36 -9 58.5t-28 50.5l-58 81q-23 32 -36.5 59.5t-13.5 67.5q0 19 4.5 37t14 32.5t25 23.5t38.5 9q28 0 44 -11
t24.5 -29t10.5 -39.5t2 -42.5v-11h-20v13q0 15 -1 32.5t-7 33t-18.5 25.5t-34.5 10q-31 0 -46.5 -24t-15.5 -59q0 -29 10 -53.5t36 -60.5l58 -81q23 -32 32 -59t9 -63zM126 592h-22l-74 137h17l68 -117l68 117h17z" />
    <glyph glyph-name="guilsinglright" unicode="&#x203a;" horiz-adv-x="184" 
d="M63 59h-23l77 196l-77 192h23l81 -192z" />
    <glyph glyph-name="oe" unicode="&#x153;" horiz-adv-x="414" 
d="M218 249v-16q0 -48 1.5 -89t8.5 -71t21 -47t40 -17q22 0 35 12t20 30t9.5 39.5t3.5 39.5h20q-1 -20 -3.5 -44t-11.5 -45.5t-26 -36t-47 -14.5q-72 0 -81 91q-4 -44 -24.5 -67.5t-56.5 -23.5q-34 0 -52.5 19.5t-27 54t-10 82t-1.5 102.5q0 64 2 113.5t10.5 83.5t27 51.5
t51.5 17.5q72 0 82 -92q9 92 80 92q34 0 52.5 -19t27 -54t10 -84t1.5 -108h-162zM360 268q0 41 -1 81.5t-8 73t-21 52.5t-41 20t-41 -20t-21 -52t-8 -72.5t-1 -82.5h142zM198 248q0 52 -1 97.5t-8 78.5t-21 52t-41 19t-41 -19t-21 -52.5t-8 -78.5t-1 -97q0 -51 1 -95t8 -76
t21 -50t41 -18t41 18t21 50t8 76t1 95z" />
    <glyph glyph-name="zcaron" unicode="&#x17e;" horiz-adv-x="201" 
d="M14 0v19l153 466h-140v19h158v-19l-150 -466h152v-19h-173zM112 592h-22l-74 137h17l68 -117l68 117h17z" />
    <glyph glyph-name="Ydieresis" unicode="&#x178;" horiz-adv-x="260" 
d="M140 326v-326h-20v326l-114 397h21l103 -364l103 364h21zM158 826v59h24v-59h-24zM76 826v59h24v-59h-24z" />
    <glyph glyph-name="uni00A0" unicode="&#xa0;" horiz-adv-x="150" 
 />
    <glyph glyph-name="exclamdown" unicode="&#xa1;" horiz-adv-x="148" 
d="M64 465v62h20v-62h-20zM64 -196v563h20v-563h-20z" />
    <glyph glyph-name="cent" unicode="&#xa2;" horiz-adv-x="294" 
d="M148 496q-20 -2 -32 -17t-18.5 -45t-8.5 -76t-2 -110q0 -75 4.5 -121t12.5 -71.5t19 -35.5t25 -11v487zM166 10q28 5 36.5 36t8.5 78v8h20v-10q0 -59 -15.5 -95t-49.5 -36v-67h-18v66q-52 0 -68 76q-13 61 -13 182q0 69 3 117.5t11 80.5q9 36 26.5 52t40.5 16v61h18v-62
q20 0 32.5 -12t20 -30.5t10 -41.5t2.5 -45v-8h-20v8q0 45 -8 75.5t-37 35.5v-485z" />
    <glyph glyph-name="sterling" unicode="&#xa3;" horiz-adv-x="294" 
d="M241 560v23q0 24 -2 48t-8.5 42.5t-20 30.5t-36.5 12q-25 0 -39 -14t-20.5 -34.5t-8 -43.5t-1.5 -42v-170h95v-19h-95v-374h131v-19h-190v19h39v374h-39v19h39v170q0 24 2.5 51t11.5 49.5t27 37.5t48 15q32 0 49.5 -15t26 -38t10 -49.5t1.5 -49.5v-23h-20z" />
    <glyph glyph-name="currency" unicode="&#xa4;" horiz-adv-x="294" 
d="M270 454l-35 -35q27 -32 27 -75q0 -44 -27 -76l35 -34l-13 -14l-36 35q-15 -12 -33.5 -19t-40.5 -7t-41 7t-34 19l-35 -35l-13 14l35 34q-27 32 -27 76q0 43 27 75l-35 35l13 14l35 -36q32 27 75 27q42 0 74 -27l36 36zM242 344q0 42 -27 69.5t-68 27.5t-68 -27.5
t-27 -69.5t27 -69.5t68 -27.5t68 27.5t27 69.5z" />
    <glyph glyph-name="yen" unicode="&#xa5;" horiz-adv-x="294" 
d="M159 339h56v-18h-60v-85h60v-18h-60v-218h-20v218h-60v18h60v85h-60v18h57l-94 384h21l87 -363l89 363h21z" />
    <glyph glyph-name="brokenbar" unicode="&#xa6;" horiz-adv-x="222" 
d="M99 412v250h24v-250h-24zM99 -89v250h24v-250h-24z" />
    <glyph glyph-name="section" unicode="&#xa7;" horiz-adv-x="314" 
d="M155 263q36 30 60 58t24 67q0 16 -3.5 29t-13.5 25t-28 25t-46 29q-45 24 -69 55.5t-24 76.5q0 52 30.5 79.5t75.5 27.5q25 0 41 -4.5t28 -10.5v-20q-14 8 -30.5 12t-38.5 4q-36 0 -61 -22t-25 -67q0 -39 21.5 -65.5t66.5 -52.5q48 -28 72 -53.5t24 -67.5q0 -22 -7.5 -41
t-20 -35.5t-29 -31t-33.5 -26.5zM160 263q53 -33 80.5 -67t27.5 -86q0 -61 -34.5 -92.5t-87.5 -31.5q-47 0 -89 21v20q41 -22 89 -22q44 0 73 25.5t29 80.5q0 25 -7.5 44.5t-21 35.5t-31 29.5t-38.5 26.5q-20 13 -38.5 26t-33 28.5t-23.5 33t-9 39.5q0 45 28.5 75.5
t70.5 55.5l14 -11q-29 -17 -47.5 -32t-28.5 -29.5t-13.5 -29t-3.5 -30.5q0 -17 8.5 -32.5t22 -29.5t30 -26t33.5 -22z" />
    <glyph glyph-name="dieresis" unicode="&#xa8;" horiz-adv-x="100" 
d="M79 651v59h24v-59h-24zM-3 651v59h24v-59h-24z" />
    <glyph glyph-name="copyright" unicode="&#xa9;" horiz-adv-x="742" 
d="M428 480q0 19 -1.5 35t-6.5 28t-14 18.5t-25 6.5q-32 0 -43 -45t-11 -153q0 -59 1 -99.5t6 -66.5t15.5 -37.5t29.5 -11.5q30 0 38.5 27.5t8.5 70.5h19q0 -25 -2.5 -46t-9.5 -36.5t-20 -24.5t-34 -9q-23 0 -37.5 11.5t-22 39t-10 72t-2.5 110.5q0 60 3.5 101.5t12 67
t22.5 36.5t36 11q21 0 33.5 -8t20 -22t10 -33.5t2.5 -42.5h-19zM36 362q0 79 23 147t66 118.5t105.5 79t140.5 28.5t140.5 -28.5t105.5 -79t66 -118.5t23 -147q0 -80 -23 -148t-66 -118.5t-105.5 -79t-140.5 -28.5t-140.5 28.5t-105.5 79t-66 118.5t-23 148zM56 362
q0 -75 21.5 -140t62 -113t99 -75.5t132.5 -27.5t132.5 27.5t99 75.5t62 113t21.5 140t-21.5 139.5t-62 112.5t-99 75.5t-132.5 27.5t-132.5 -27.5t-99 -75.5t-62 -112.5t-21.5 -139.5z" />
    <glyph glyph-name="ordfeminine" unicode="&#xaa;" horiz-adv-x="191" 
d="M148 410q-1 3 -1 7q0 3 -0.5 7.5t-0.5 9.5q-6 -10 -19.5 -19.5t-33.5 -9.5q-31 0 -50 19t-19 63q0 20 2.5 37.5t11 30.5t25.5 20.5t46 7.5q17 0 35 -3v69q0 12 -1.5 22.5t-6 18.5t-14 12.5t-25.5 4.5q-32 0 -40 -17t-8 -40v-8h-19v8q0 15 2.5 28t10 23t20.5 16t34 6
q23 0 36.5 -6.5t20 -17t8 -23.5t1.5 -27v-179q0 -25 1 -37t3 -23h-19zM144 564q-17 4 -35 4q-37 0 -51.5 -17t-14.5 -64q0 -36 13.5 -51t36.5 -15q26 0 38.5 18.5t12.5 50.5v74z" />
    <glyph glyph-name="guillemotleft" unicode="&#xab;" horiz-adv-x="309" 
d="M246 59l-79 196l79 192h23l-75 -192l75 -196h-23zM121 59l-81 196l81 192h23l-77 -192l77 -196h-23z" />
    <glyph glyph-name="logicalnot" unicode="&#xac;" horiz-adv-x="408" 
d="M342 211v92h-294v18h312v-110h-18z" />
    <glyph glyph-name="uni00AD" unicode="&#xad;" horiz-adv-x="235" 
d="M33 263v20h169v-20h-169z" />
    <glyph glyph-name="registered" unicode="&#xae;" horiz-adv-x="389" 
d="M378 558q0 -38 -14.5 -71.5t-39.5 -58.5t-58.5 -39.5t-70.5 -14.5q-39 0 -72.5 14.5t-58 39.5t-39 58.5t-14.5 71.5t14.5 71.5t40 58t58.5 39t71 14.5t71.5 -14.5t58 -39.5t39 -58.5t14.5 -70.5zM363 558q0 34 -13.5 64.5t-36 53.5t-53.5 36.5t-65 13.5q-35 0 -65.5 -13
t-53 -35.5t-36 -53.5t-13.5 -66t13 -65.5t35.5 -53.5t53 -36t66.5 -13q34 0 65 13t53.5 36t36 53.5t13.5 65.5zM262 457q-2 4 -3 11.5t-1 22.5q0 24 -12.5 39.5t-39.5 15.5h-62v-89h-16v204h78q33 0 51.5 -13.5t18.5 -42.5q0 -37 -36 -51q33 -16 33 -62q0 -25 6 -35h-17z
M260 604q0 22 -12.5 31.5t-41.5 9.5h-62v-83h66q21 0 35.5 11t14.5 31z" />
    <glyph glyph-name="macron" unicode="&#xaf;" horiz-adv-x="100" 
d="M-16 637v20h132v-20h-132z" />
    <glyph glyph-name="degree" unicode="&#xb0;" horiz-adv-x="318" 
d="M54 626q0 22 8.5 42t22.5 34t33.5 22.5t42.5 8.5q22 0 42 -8.5t34 -22.5t22.5 -34t8.5 -42q0 -23 -8.5 -42.5t-22.5 -33.5t-34 -22.5t-42 -8.5q-23 0 -42.5 8.5t-33.5 22.5t-22.5 33.5t-8.5 42.5zM74 626q0 -38 24.5 -63.5t62.5 -25.5t62.5 25.5t24.5 63.5t-24.5 63.5
t-62.5 25.5t-62.5 -25.5t-24.5 -63.5z" />
    <glyph glyph-name="plusminus" unicode="&#xb1;" horiz-adv-x="408" 
d="M214 249h146v-18h-146v-148h-20v148h-146v18h146v148h20v-148zM48 0v18h312v-18h-312z" />
    <glyph glyph-name="twosuperior" unicode="&#xb2;" 
d="M25 462v15l83 188q15 34 21.5 64t6.5 74q0 34 -9 56t-35 22q-16 0 -25.5 -8.5t-14 -21t-5.5 -26.5t-1 -26v-12h-19v12q0 16 2 33.5t9 32.5t20 24.5t34 9.5t33 -9.5t19 -23.5t9 -31t2 -32q0 -48 -9 -83.5t-20 -61.5l-80 -179h125v-17h-146z" />
    <glyph glyph-name="threesuperior" unicode="&#xb3;" 
d="M158 582q0 -68 -15 -96t-50 -28q-39 0 -51 25t-12 68v21h19v-17q0 -35 8.5 -57.5t35.5 -22.5q29 0 37.5 28t8.5 79q0 24 -2 41.5t-9.5 29t-21.5 17t-37 5.5h-18v18h17q23 0 36.5 6.5t21 19t9.5 31t2 42.5q0 40 -8 65t-34 25t-34 -23t-8 -55v-16h-19v12q0 48 13.5 73.5
t47.5 25.5q21 0 33.5 -10t18.5 -25.5t7.5 -34.5t1.5 -37q0 -25 -1.5 -42.5t-6 -30t-13 -21t-21.5 -14.5q13 -5 22 -12.5t13.5 -19t6.5 -28.5t2 -42z" />
    <glyph glyph-name="acute" unicode="&#xb4;" horiz-adv-x="100" 
d="M28 592h-17l84 137h24z" />
    <glyph glyph-name="mu" unicode="&#xb5;" horiz-adv-x="253" 
d="M47 504h20v-421q0 -29 11 -50.5t43 -21.5q29 0 47 28.5t18 79.5v385h20v-397v-48t2 -59h-20l-1 48q-7 -21 -22 -38.5t-47 -17.5q-17 0 -30 8t-21 23v-219h-20v700z" />
    <glyph glyph-name="paragraph" unicode="&#xb6;" horiz-adv-x="415" 
d="M341 0v704h-113v-704h-20v362q-49 3 -83.5 18.5t-57 38.5t-33 51t-10.5 57q0 96 54 146t154 50h129v-723h-20z" />
    <glyph glyph-name="periodcentered" unicode="&#xb7;" horiz-adv-x="205" 
d="M93 321v56h20v-56h-20z" />
    <glyph glyph-name="cedilla" unicode="&#xb8;" horiz-adv-x="100" 
d="M128 -121q0 -42 -25.5 -60.5t-59.5 -18.5q-18 0 -32 5t-27 13l9 18q14 -8 26.5 -12.5t26.5 -4.5q22 0 41.5 13t19.5 45q0 25 -12 36.5t-33 11.5q-14 0 -25 -5.5t-19 -10.5l-6 11l43 80h22l-34 -61q8 2 13 3t14 1q27 0 42.5 -16.5t15.5 -47.5z" />
    <glyph glyph-name="onesuperior" unicode="&#xb9;" 
d="M88 462v409q-11 -11 -21 -18t-22 -14v20q21 14 42 36h20v-433h-19z" />
    <glyph glyph-name="ordmasculine" unicode="&#xba;" 
d="M94 723q25 0 39 -12t21 -33.5t8.5 -50.5t1.5 -63t-1.5 -63t-8.5 -50.5t-21 -33.5t-39 -12t-39 12t-21 33.5t-8.5 50.5t-1.5 63t1.5 63t8.5 50.5t21 33.5t39 12zM94 420q18 0 28 10.5t15.5 30t6.5 45.5t1 58q0 31 -1 57.5t-6 46t-15.5 30t-28.5 10.5t-28 -10.5t-15.5 -30
t-6.5 -46t-1 -57.5q0 -32 1 -58t6 -45.5t15.5 -30t28.5 -10.5z" />
    <glyph glyph-name="guillemotright" unicode="&#xbb;" horiz-adv-x="309" 
d="M188 59h-23l77 196l-77 192h23l81 -192zM63 59h-23l75 196l-75 192h23l79 -192z" />
    <glyph glyph-name="onequarter" unicode="&#xbc;" horiz-adv-x="453" 
d="M76 -12h-20l275 747h20zM73 290v409q-11 -11 -21 -18t-22 -14v20q21 14 42 36h20v-433h-19zM384 99v-99h-19v99h-110v15l107 319h22v-316h39v-18h-39zM365 384l-89 -267h89v267z" />
    <glyph glyph-name="onehalf" unicode="&#xbd;" horiz-adv-x="442" 
d="M76 -12h-20l275 747h20zM73 290v409q-11 -11 -21 -18t-22 -14v20q21 14 42 36h20v-433h-19zM276 0v15l83 188q15 34 21.5 64t6.5 74q0 34 -9 56t-35 22q-16 0 -25.5 -8.5t-14 -21t-5.5 -26.5t-1 -26v-12h-19v12q0 16 2 33.5t9 32.5t20 24.5t34 9.5t33 -9.5t19 -23.5
t9 -31t2 -32q0 -48 -9 -83.5t-20 -61.5l-80 -179h125v-17h-146z" />
    <glyph glyph-name="threequarters" unicode="&#xbe;" horiz-adv-x="477" 
d="M122 -12h-20l275 747h20zM408 99v-99h-19v99h-110v15l107 319h22v-316h39v-18h-39zM389 384l-89 -267h89v267zM158 410q0 -68 -15 -96t-50 -28q-39 0 -51 25t-12 68v21h19v-17q0 -35 8.5 -57.5t35.5 -22.5q29 0 37.5 28t8.5 79q0 24 -2 41.5t-9.5 29t-21.5 17t-37 5.5
h-18v18h17q23 0 36.5 6.5t21 19t9.5 31t2 42.5q0 40 -8 65t-34 25t-34 -23t-8 -55v-16h-19v12q0 48 13.5 73.5t47.5 25.5q21 0 33.5 -10t18.5 -25.5t7.5 -34.5t1.5 -37q0 -25 -1.5 -42.5t-6 -30t-13 -21t-21.5 -14.5q13 -5 22 -12.5t13.5 -19t6.5 -28.5t2 -42z" />
    <glyph glyph-name="questiondown" unicode="&#xbf;" horiz-adv-x="216" 
d="M33 -38q0 41 2 68t11 57l34 113q6 21 10 33.5t5.5 22.5t2 19t0.5 23v73h20v-73q0 -14 -0.5 -23.5t-2.5 -19.5t-5.5 -23.5t-10.5 -35.5l-34 -113q-8 -27 -10.5 -59.5t-2.5 -61.5q0 -33 2 -60.5t9 -48t21.5 -31.5t38.5 -11t38.5 13t22 34t9.5 47t2 52v17h20v-17
q0 -29 -3 -58.5t-12.5 -53t-27.5 -38.5t-49 -15q-32 0 -50 14.5t-27 38.5t-11 54.5t-2 62.5zM118 527v-42h-20v42h20z" />
    <glyph glyph-name="Agrave" unicode="&#xc0;" horiz-adv-x="291" 
d="M259 0l-32 195h-161l-34 -195h-20l128 723h20l119 -723h-20zM149 675l-80 -461h155zM172 777l-91 137h24l84 -137h-17z" />
    <glyph glyph-name="Aacute" unicode="&#xc1;" horiz-adv-x="291" 
d="M259 0l-32 195h-161l-34 -195h-20l128 723h20l119 -723h-20zM149 675l-80 -461h155zM128 777h-17l84 137h24z" />
    <glyph glyph-name="Acircumflex" unicode="&#xc2;" horiz-adv-x="291" 
d="M259 0l-32 195h-161l-34 -195h-20l128 723h20l119 -723h-20zM149 675l-80 -461h155zM218 777l-68 117l-68 -117h-17l74 137h22l74 -137h-17z" />
    <glyph glyph-name="Atilde" unicode="&#xc3;" horiz-adv-x="291" 
d="M259 0l-32 195h-161l-34 -195h-20l128 723h20l119 -723h-20zM149 675l-80 -461h155zM243 863q-2 -30 -16 -42t-34 -12q-13 0 -24.5 5.5t-22 12t-20 12t-18.5 5.5q-14 0 -21.5 -7.5t-9.5 -27.5h-20q2 29 16 41.5t35 12.5q13 0 24.5 -5.5t22 -12t20 -12t18.5 -5.5
q27 0 30 35h20z" />
    <glyph glyph-name="Adieresis" unicode="&#xc4;" horiz-adv-x="291" 
d="M259 0l-32 195h-161l-34 -195h-20l128 723h20l119 -723h-20zM149 675l-80 -461h155zM179 826v59h24v-59h-24zM97 826v59h24v-59h-24z" />
    <glyph glyph-name="Aring" unicode="&#xc5;" horiz-adv-x="291" 
d="M259 0l-32 195h-161l-34 -195h-20l128 723h20l119 -723h-20zM149 675l-80 -461h155zM78 821q0 31 20.5 51.5t51.5 20.5t51.5 -20.5t20.5 -51.5t-20.5 -51.5t-51.5 -20.5t-51.5 20.5t-20.5 51.5zM97 821q0 -23 15 -39t38 -16t38 16t15 39t-15 39t-38 16t-38 -16t-15 -39z
" />
    <glyph glyph-name="AE" unicode="&#xc6;" horiz-adv-x="392" 
d="M261 0l-19 185h-166l-42 -185h-21l167 723h175v-19h-147l33 -313h102v-19h-100l36 -353h98v-19h-116zM191 684l-111 -480h162z" />
    <glyph glyph-name="Ccedilla" unicode="&#xc7;" horiz-adv-x="263" 
d="M219 559q0 22 -2 49.5t-9 51.5t-22 40t-41 16q-31 0 -48 -24t-24.5 -68.5t-9 -107t-1.5 -140.5q0 -87 1.5 -156t9 -116t24.5 -72t48 -25q25 0 39.5 14t21.5 37.5t8.5 55t1.5 66.5h20q0 -30 -1 -63t-9 -61.5t-25.5 -47.5t-51.5 -20l-27 -49q8 2 13 3t14 1q27 0 42.5 -16.5
t15.5 -47.5q0 -42 -25.5 -60.5t-59.5 -18.5q-18 0 -32 5t-27 13l9 18q14 -8 26.5 -12.5t26.5 -4.5q22 0 41.5 13t19.5 45q0 25 -12 36.5t-33 11.5q-14 0 -25 -5.5t-19 -10.5l-6 11l37 70q-32 5 -49.5 31.5t-25.5 74.5t-9.5 118t-1.5 162q0 93 2 160.5t12 112t31 65.5t58 21
q35 0 54 -17t28 -43t10.5 -57t1.5 -59h-20z" />
    <glyph glyph-name="Egrave" unicode="&#xc8;" horiz-adv-x="251" 
d="M54 0v723h163v-19h-143v-313h130v-19h-130v-353h159v-19h-179zM158 777l-91 137h24l84 -137h-17z" />
    <glyph glyph-name="Eacute" unicode="&#xc9;" horiz-adv-x="251" 
d="M54 0v723h163v-19h-143v-313h130v-19h-130v-353h159v-19h-179zM114 777h-17l84 137h24z" />
    <glyph glyph-name="Ecircumflex" unicode="&#xca;" horiz-adv-x="251" 
d="M54 0v723h163v-19h-143v-313h130v-19h-130v-353h159v-19h-179zM204 777l-68 117l-68 -117h-17l74 137h22l74 -137h-17z" />
    <glyph glyph-name="Edieresis" unicode="&#xcb;" horiz-adv-x="251" 
d="M54 0v723h163v-19h-143v-313h130v-19h-130v-353h159v-19h-179zM165 826v59h24v-59h-24zM83 826v59h24v-59h-24z" />
    <glyph glyph-name="Igrave" unicode="&#xcc;" horiz-adv-x="128" 
d="M54 0v723h20v-723h-20zM86 777l-91 137h24l84 -137h-17z" />
    <glyph glyph-name="Iacute" unicode="&#xcd;" horiz-adv-x="128" 
d="M54 0v723h20v-723h-20zM42 777h-17l84 137h24z" />
    <glyph glyph-name="Icircumflex" unicode="&#xce;" horiz-adv-x="128" 
d="M54 0v723h20v-723h-20zM132 777l-68 117l-68 -117h-17l74 137h22l74 -137h-17z" />
    <glyph glyph-name="Idieresis" unicode="&#xcf;" horiz-adv-x="128" 
d="M54 0v723h20v-723h-20zM93 826v59h24v-59h-24zM11 826v59h24v-59h-24z" />
    <glyph glyph-name="Eth" unicode="&#xd0;" horiz-adv-x="301" 
d="M16 393v18h38v312h93q39 0 61 -20t33.5 -58t14.5 -94t3 -129v-121q0 -73 -3 -129t-14.5 -94.5t-33.5 -58t-61 -19.5h-93v393h-38zM74 393v-374h71q31 0 49.5 16t28.5 50t13 88t3 129v119q0 75 -3 129t-13 88t-28.5 50t-49.5 16h-71v-293h94v-18h-94z" />
    <glyph glyph-name="Ntilde" unicode="&#xd1;" horiz-adv-x="311" 
d="M221 0l-147 703v-703h-20v723h36l147 -703v703h20v-723h-36zM250 863q-2 -30 -16 -42t-34 -12q-13 0 -24.5 5.5t-22 12t-20 12t-18.5 5.5q-14 0 -21.5 -7.5t-9.5 -27.5h-20q2 29 16 41.5t35 12.5q13 0 24.5 -5.5t22 -12t20 -12t18.5 -5.5q27 0 30 35h20z" />
    <glyph glyph-name="Ograve" unicode="&#xd2;" horiz-adv-x="308" 
d="M266 371q0 -100 -2 -172.5t-12.5 -119t-33 -69t-64.5 -22.5t-64.5 22.5t-33 69t-12.5 119t-2 172.5q0 88 2 155.5t12.5 114t33 70.5t64.5 24t64.5 -23.5t33 -70t12.5 -114.5t2 -156zM246 371q0 81 -2 145t-11 108.5t-27.5 68t-51.5 23.5q-34 0 -52.5 -23t-27.5 -67.5
t-10.5 -108.5t-1.5 -146q0 -96 1.5 -165t10.5 -113.5t27.5 -65t52.5 -20.5t52.5 21t27.5 65.5t10.5 113.5t1.5 164zM177 777l-91 137h24l84 -137h-17z" />
    <glyph glyph-name="Oacute" unicode="&#xd3;" horiz-adv-x="308" 
d="M266 371q0 -100 -2 -172.5t-12.5 -119t-33 -69t-64.5 -22.5t-64.5 22.5t-33 69t-12.5 119t-2 172.5q0 88 2 155.5t12.5 114t33 70.5t64.5 24t64.5 -23.5t33 -70t12.5 -114.5t2 -156zM246 371q0 81 -2 145t-11 108.5t-27.5 68t-51.5 23.5q-34 0 -52.5 -23t-27.5 -67.5
t-10.5 -108.5t-1.5 -146q0 -96 1.5 -165t10.5 -113.5t27.5 -65t52.5 -20.5t52.5 21t27.5 65.5t10.5 113.5t1.5 164zM133 777h-17l84 137h24z" />
    <glyph glyph-name="Ocircumflex" unicode="&#xd4;" horiz-adv-x="308" 
d="M266 371q0 -100 -2 -172.5t-12.5 -119t-33 -69t-64.5 -22.5t-64.5 22.5t-33 69t-12.5 119t-2 172.5q0 88 2 155.5t12.5 114t33 70.5t64.5 24t64.5 -23.5t33 -70t12.5 -114.5t2 -156zM246 371q0 81 -2 145t-11 108.5t-27.5 68t-51.5 23.5q-34 0 -52.5 -23t-27.5 -67.5
t-10.5 -108.5t-1.5 -146q0 -96 1.5 -165t10.5 -113.5t27.5 -65t52.5 -20.5t52.5 21t27.5 65.5t10.5 113.5t1.5 164zM223 777l-68 117l-68 -117h-17l74 137h22l74 -137h-17z" />
    <glyph glyph-name="Otilde" unicode="&#xd5;" horiz-adv-x="308" 
d="M266 371q0 -100 -2 -172.5t-12.5 -119t-33 -69t-64.5 -22.5t-64.5 22.5t-33 69t-12.5 119t-2 172.5q0 88 2 155.5t12.5 114t33 70.5t64.5 24t64.5 -23.5t33 -70t12.5 -114.5t2 -156zM246 371q0 81 -2 145t-11 108.5t-27.5 68t-51.5 23.5q-34 0 -52.5 -23t-27.5 -67.5
t-10.5 -108.5t-1.5 -146q0 -96 1.5 -165t10.5 -113.5t27.5 -65t52.5 -20.5t52.5 21t27.5 65.5t10.5 113.5t1.5 164zM248 863q-2 -30 -16 -42t-34 -12q-13 0 -24.5 5.5t-22 12t-20 12t-18.5 5.5q-14 0 -21.5 -7.5t-9.5 -27.5h-20q2 29 16 41.5t35 12.5q13 0 24.5 -5.5t22 -12
t20 -12t18.5 -5.5q27 0 30 35h20z" />
    <glyph glyph-name="Odieresis" unicode="&#xd6;" horiz-adv-x="308" 
d="M266 371q0 -100 -2 -172.5t-12.5 -119t-33 -69t-64.5 -22.5t-64.5 22.5t-33 69t-12.5 119t-2 172.5q0 88 2 155.5t12.5 114t33 70.5t64.5 24t64.5 -23.5t33 -70t12.5 -114.5t2 -156zM246 371q0 81 -2 145t-11 108.5t-27.5 68t-51.5 23.5q-34 0 -52.5 -23t-27.5 -67.5
t-10.5 -108.5t-1.5 -146q0 -96 1.5 -165t10.5 -113.5t27.5 -65t52.5 -20.5t52.5 21t27.5 65.5t10.5 113.5t1.5 164zM184 826v59h24v-59h-24zM102 826v59h24v-59h-24z" />
    <glyph glyph-name="multiply" unicode="&#xd7;" horiz-adv-x="408" 
d="M204 219l-121 -121l-14 13l121 121l-121 122l14 14l121 -122l122 122l13 -14l-122 -122l122 -121l-13 -13z" />
    <glyph glyph-name="Oslash" unicode="&#xd8;" horiz-adv-x="308" 
d="M258 608q6 -45 7 -104t1 -133q0 -100 -2 -172.5t-12.5 -119t-33 -69t-64.5 -22.5t-64.5 22.5t-33.5 70.5l-39 -103l-16 7l49 130q-6 46 -7 109.5t-1 146.5q0 88 2 155.5t12.5 114t33 70.5t64.5 24t64 -22.5t33 -67.5l38 100l18 -7zM237 607q-8 54 -27 81.5t-56 27.5
q-34 0 -52.5 -23t-27.5 -67.5t-10.5 -108.5t-1.5 -146q0 -66 0.5 -119t3.5 -95zM246 371q0 57 -1 106t-4 89l-171 -449q8 -57 27 -83.5t57 -26.5q34 0 52.5 21t27.5 65.5t10.5 113.5t1.5 164z" />
    <glyph glyph-name="Ugrave" unicode="&#xd9;" horiz-adv-x="286" 
d="M234 124q0 -23 -3 -47t-12.5 -44t-27.5 -32.5t-48 -12.5t-48 12.5t-27.5 32.5t-12.5 44t-3 47v599h20v-599q0 -22 2 -43t9 -37.5t21 -26.5t39 -10t39 10t21 26.5t9 37.5t2 43v599h20v-599zM163 777l-91 137h24l84 -137h-17z" />
    <glyph glyph-name="Uacute" unicode="&#xda;" horiz-adv-x="286" 
d="M234 124q0 -23 -3 -47t-12.5 -44t-27.5 -32.5t-48 -12.5t-48 12.5t-27.5 32.5t-12.5 44t-3 47v599h20v-599q0 -22 2 -43t9 -37.5t21 -26.5t39 -10t39 10t21 26.5t9 37.5t2 43v599h20v-599zM119 777h-17l84 137h24z" />
    <glyph glyph-name="Ucircumflex" unicode="&#xdb;" horiz-adv-x="286" 
d="M234 124q0 -23 -3 -47t-12.5 -44t-27.5 -32.5t-48 -12.5t-48 12.5t-27.5 32.5t-12.5 44t-3 47v599h20v-599q0 -22 2 -43t9 -37.5t21 -26.5t39 -10t39 10t21 26.5t9 37.5t2 43v599h20v-599zM209 777l-68 117l-68 -117h-17l74 137h22l74 -137h-17z" />
    <glyph glyph-name="Udieresis" unicode="&#xdc;" horiz-adv-x="286" 
d="M234 124q0 -23 -3 -47t-12.5 -44t-27.5 -32.5t-48 -12.5t-48 12.5t-27.5 32.5t-12.5 44t-3 47v599h20v-599q0 -22 2 -43t9 -37.5t21 -26.5t39 -10t39 10t21 26.5t9 37.5t2 43v599h20v-599zM170 826v59h24v-59h-24zM88 826v59h24v-59h-24z" />
    <glyph glyph-name="Yacute" unicode="&#xdd;" horiz-adv-x="260" 
d="M140 326v-326h-20v326l-114 397h21l103 -364l103 364h21zM107 777h-17l84 137h24z" />
    <glyph glyph-name="Thorn" unicode="&#xde;" horiz-adv-x="271" 
d="M245 348q0 -43 -2 -76t-12 -56t-31 -35t-59 -12h-67v-169h-20v723h20v-165h74q36 0 56 -16.5t29 -45t10.5 -67t1.5 -81.5zM225 348q0 42 -1.5 77t-9.5 60.5t-24.5 39.5t-47.5 14h-68v-351h67q31 0 48 10.5t25 31t9.5 50.5t1.5 68z" />
    <glyph glyph-name="germandbls" unicode="&#xdf;" horiz-adv-x="293" 
d="M279 102q0 -48 -21 -78.5t-65 -30.5q-27 0 -43 9t-25 25t-11.5 38t-2.5 48v12h20v-12q0 -56 14.5 -78.5t48.5 -22.5t49.5 26.5t15.5 63.5q0 23 -11 56.5t-41 87.5q-20 36 -33.5 59.5t-22 40.5t-12.5 28.5t-4 23.5q0 22 11 40.5t37 53.5q22 29 33.5 58t11.5 68
q0 47 -22.5 71t-61.5 24q-40 0 -60 -25.5t-20 -69.5v-618h-20v618q0 59 28 86.5t72 27.5q50 0 77 -31t27 -83q0 -45 -13 -75.5t-37 -62.5q-14 -18 -22.5 -30t-13 -21t-6 -16t-1.5 -15q0 -20 19 -54t48 -84q10 -17 20 -37.5t18 -41.5t13.5 -41.5t5.5 -37.5z" />
    <glyph glyph-name="agrave" unicode="&#xe0;" horiz-adv-x="254" 
d="M193 0q-1 6 -1 13q-1 6 -1 15t-1 21q-2 -9 -8 -19t-15.5 -18.5t-22 -14t-27.5 -5.5q-40 0 -64.5 30t-24.5 102q0 33 3.5 62t14.5 50.5t33 33.5t60 12q14 0 24.5 -2t24.5 -5v120q0 19 -2 37.5t-8.5 32t-20 22t-35.5 8.5q-23 0 -36 -8.5t-19.5 -22.5t-8.5 -31.5t-2 -36.5
v-9h-20v9q0 24 3 45.5t12.5 37.5t26.5 25.5t44 9.5q30 0 47.5 -10t26 -26.5t10.5 -38t2 -44.5v-299q0 -42 1.5 -61.5t3.5 -34.5h-20zM188 256q-14 4 -24.5 5.5t-24.5 1.5q-25 0 -42.5 -6.5t-28 -22.5t-15.5 -43t-5 -67q0 -61 18.5 -87t50.5 -26q36 0 53.5 32t17.5 86v127z
M144 592l-91 137h24l84 -137h-17z" />
    <glyph glyph-name="aacute" unicode="&#xe1;" horiz-adv-x="254" 
d="M193 0q-1 6 -1 13q-1 6 -1 15t-1 21q-2 -9 -8 -19t-15.5 -18.5t-22 -14t-27.5 -5.5q-40 0 -64.5 30t-24.5 102q0 33 3.5 62t14.5 50.5t33 33.5t60 12q14 0 24.5 -2t24.5 -5v120q0 19 -2 37.5t-8.5 32t-20 22t-35.5 8.5q-23 0 -36 -8.5t-19.5 -22.5t-8.5 -31.5t-2 -36.5
v-9h-20v9q0 24 3 45.5t12.5 37.5t26.5 25.5t44 9.5q30 0 47.5 -10t26 -26.5t10.5 -38t2 -44.5v-299q0 -42 1.5 -61.5t3.5 -34.5h-20zM188 256q-14 4 -24.5 5.5t-24.5 1.5q-25 0 -42.5 -6.5t-28 -22.5t-15.5 -43t-5 -67q0 -61 18.5 -87t50.5 -26q36 0 53.5 32t17.5 86v127z
M100 592h-17l84 137h24z" />
    <glyph glyph-name="acircumflex" unicode="&#xe2;" horiz-adv-x="254" 
d="M193 0q-1 6 -1 13q-1 6 -1 15t-1 21q-2 -9 -8 -19t-15.5 -18.5t-22 -14t-27.5 -5.5q-40 0 -64.5 30t-24.5 102q0 33 3.5 62t14.5 50.5t33 33.5t60 12q14 0 24.5 -2t24.5 -5v120q0 19 -2 37.5t-8.5 32t-20 22t-35.5 8.5q-23 0 -36 -8.5t-19.5 -22.5t-8.5 -31.5t-2 -36.5
v-9h-20v9q0 24 3 45.5t12.5 37.5t26.5 25.5t44 9.5q30 0 47.5 -10t26 -26.5t10.5 -38t2 -44.5v-299q0 -42 1.5 -61.5t3.5 -34.5h-20zM188 256q-14 4 -24.5 5.5t-24.5 1.5q-25 0 -42.5 -6.5t-28 -22.5t-15.5 -43t-5 -67q0 -61 18.5 -87t50.5 -26q36 0 53.5 32t17.5 86v127z
M190 592l-68 117l-68 -117h-17l74 137h22l74 -137h-17z" />
    <glyph glyph-name="atilde" unicode="&#xe3;" horiz-adv-x="254" 
d="M193 0q-1 6 -1 13q-1 6 -1 15t-1 21q-2 -9 -8 -19t-15.5 -18.5t-22 -14t-27.5 -5.5q-40 0 -64.5 30t-24.5 102q0 33 3.5 62t14.5 50.5t33 33.5t60 12q14 0 24.5 -2t24.5 -5v120q0 19 -2 37.5t-8.5 32t-20 22t-35.5 8.5q-23 0 -36 -8.5t-19.5 -22.5t-8.5 -31.5t-2 -36.5
v-9h-20v9q0 24 3 45.5t12.5 37.5t26.5 25.5t44 9.5q30 0 47.5 -10t26 -26.5t10.5 -38t2 -44.5v-299q0 -42 1.5 -61.5t3.5 -34.5h-20zM188 256q-14 4 -24.5 5.5t-24.5 1.5q-25 0 -42.5 -6.5t-28 -22.5t-15.5 -43t-5 -67q0 -61 18.5 -87t50.5 -26q36 0 53.5 32t17.5 86v127z
M215 678q-2 -30 -16 -42t-34 -12q-13 0 -24.5 5.5t-22 12t-20 12t-18.5 5.5q-14 0 -21.5 -7.5t-9.5 -27.5h-20q2 29 16 41.5t35 12.5q13 0 24.5 -5.5t22 -12t20 -12t18.5 -5.5q27 0 30 35h20z" />
    <glyph glyph-name="adieresis" unicode="&#xe4;" horiz-adv-x="254" 
d="M193 0q-1 6 -1 13q-1 6 -1 15t-1 21q-2 -9 -8 -19t-15.5 -18.5t-22 -14t-27.5 -5.5q-40 0 -64.5 30t-24.5 102q0 33 3.5 62t14.5 50.5t33 33.5t60 12q14 0 24.5 -2t24.5 -5v120q0 19 -2 37.5t-8.5 32t-20 22t-35.5 8.5q-23 0 -36 -8.5t-19.5 -22.5t-8.5 -31.5t-2 -36.5
v-9h-20v9q0 24 3 45.5t12.5 37.5t26.5 25.5t44 9.5q30 0 47.5 -10t26 -26.5t10.5 -38t2 -44.5v-299q0 -42 1.5 -61.5t3.5 -34.5h-20zM188 256q-14 4 -24.5 5.5t-24.5 1.5q-25 0 -42.5 -6.5t-28 -22.5t-15.5 -43t-5 -67q0 -61 18.5 -87t50.5 -26q36 0 53.5 32t17.5 86v127z
M151 651v59h24v-59h-24zM69 651v59h24v-59h-24z" />
    <glyph glyph-name="aring" unicode="&#xe5;" horiz-adv-x="254" 
d="M193 0q-1 6 -1 13q-1 6 -1 15t-1 21q-2 -9 -8 -19t-15.5 -18.5t-22 -14t-27.5 -5.5q-40 0 -64.5 30t-24.5 102q0 33 3.5 62t14.5 50.5t33 33.5t60 12q14 0 24.5 -2t24.5 -5v120q0 19 -2 37.5t-8.5 32t-20 22t-35.5 8.5q-23 0 -36 -8.5t-19.5 -22.5t-8.5 -31.5t-2 -36.5
v-9h-20v9q0 24 3 45.5t12.5 37.5t26.5 25.5t44 9.5q30 0 47.5 -10t26 -26.5t10.5 -38t2 -44.5v-299q0 -42 1.5 -61.5t3.5 -34.5h-20zM188 256q-14 4 -24.5 5.5t-24.5 1.5q-25 0 -42.5 -6.5t-28 -22.5t-15.5 -43t-5 -67q0 -61 18.5 -87t50.5 -26q36 0 53.5 32t17.5 86v127z
M50 666q0 31 20.5 51.5t51.5 20.5t51.5 -20.5t20.5 -51.5t-20.5 -51.5t-51.5 -20.5t-51.5 20.5t-20.5 51.5zM69 666q0 -23 15 -39t38 -16t38 16t15 39t-15 39t-38 16t-38 -16t-15 -39z" />
    <glyph glyph-name="ae" unicode="&#xe6;" horiz-adv-x="404" 
d="M208 256v-55q0 -42 2.5 -77.5t10 -61t21.5 -39.5t37 -14q22 0 35 12t20 30t9.5 39.5t3.5 39.5h20q-1 -20 -3.5 -44t-11.5 -45.5t-26 -36t-47 -14.5q-34 0 -55.5 25.5t-23.5 58.5q-5 -32 -24 -57t-59 -25t-64.5 30t-24.5 102q0 36 4 64t16.5 47.5t37.5 29.5t67 10h35v120
q0 19 -2 37.5t-8.5 32t-20 22t-35.5 8.5q-21 0 -34 -8.5t-20 -22.5t-9.5 -31.5t-2.5 -36.5v-9h-20v9q0 24 3.5 45.5t13.5 37.5t26.5 25.5t42.5 9.5q40 0 58 -20t23 -58q5 38 25 58t51 20q30 0 48 -15.5t27.5 -44t12.5 -68.5t3 -89v-41h-162zM350 297q0 37 -2 73t-9 63.5
t-21.5 44.5t-38.5 17t-38.5 -17t-21.5 -45t-9 -64t-2 -74v-20h142v22zM188 256h-35q-29 0 -48.5 -5.5t-32.5 -20t-18.5 -40t-5.5 -66.5q0 -61 18.5 -87t50.5 -26q36 0 53.5 32t17.5 86v127z" />
    <glyph glyph-name="ccedilla" unicode="&#xe7;" horiz-adv-x="224" 
d="M200 122q0 -22 -2 -44.5t-9 -40.5t-20 -30.5t-35 -15.5l-29 -52q8 2 13 3t14 1q27 0 42.5 -16.5t15.5 -47.5q0 -42 -25.5 -60.5t-59.5 -18.5q-18 0 -32 5t-27 13l9 18q14 -8 26.5 -12.5t26.5 -4.5q22 0 41.5 13t19.5 45q0 25 -12 36.5t-33 11.5q-14 0 -25 -5.5t-19 -10.5
l-6 11l38 71q-27 3 -42.5 21t-23 51t-9 79.5t-1.5 105.5q0 70 2.5 120.5t11.5 82.5t26 47.5t46 15.5q26 0 41.5 -11.5t23.5 -30t10.5 -41.5t2.5 -47v-8h-20v8q0 24 -2 44.5t-8.5 35.5t-18 23t-29.5 8q-22 0 -35 -13.5t-20 -43t-9 -76.5t-2 -114q0 -57 1.5 -101.5t8 -75
t20 -46.5t36.5 -16q37 0 47.5 32t10.5 83v8h20v-10z" />
    <glyph glyph-name="egrave" unicode="&#xe8;" horiz-adv-x="252" 
d="M56 249q0 -51 1 -95t8 -76t21 -50.5t41 -18.5q22 0 35 12t20 30t9.5 39.5t3.5 39.5h20q-1 -20 -3.5 -44t-11.5 -45.5t-26 -36t-47 -14.5q-34 0 -52.5 19.5t-27 55t-10 85.5t-1.5 111q0 54 1.5 100.5t10 80t27 53t52.5 19.5t52.5 -19t27 -54t10 -84t1.5 -108h-162z
M198 268q0 41 -1 81.5t-8 73t-21 52.5t-41 20t-41 -20t-21 -52t-8 -72.5t-1 -82.5h142zM148 592l-91 137h24l84 -137h-17z" />
    <glyph glyph-name="eacute" unicode="&#xe9;" horiz-adv-x="252" 
d="M56 249q0 -51 1 -95t8 -76t21 -50.5t41 -18.5q22 0 35 12t20 30t9.5 39.5t3.5 39.5h20q-1 -20 -3.5 -44t-11.5 -45.5t-26 -36t-47 -14.5q-34 0 -52.5 19.5t-27 55t-10 85.5t-1.5 111q0 54 1.5 100.5t10 80t27 53t52.5 19.5t52.5 -19t27 -54t10 -84t1.5 -108h-162z
M198 268q0 41 -1 81.5t-8 73t-21 52.5t-41 20t-41 -20t-21 -52t-8 -72.5t-1 -82.5h142zM104 592h-17l84 137h24z" />
    <glyph glyph-name="ecircumflex" unicode="&#xea;" horiz-adv-x="252" 
d="M56 249q0 -51 1 -95t8 -76t21 -50.5t41 -18.5q22 0 35 12t20 30t9.5 39.5t3.5 39.5h20q-1 -20 -3.5 -44t-11.5 -45.5t-26 -36t-47 -14.5q-34 0 -52.5 19.5t-27 55t-10 85.5t-1.5 111q0 54 1.5 100.5t10 80t27 53t52.5 19.5t52.5 -19t27 -54t10 -84t1.5 -108h-162z
M198 268q0 41 -1 81.5t-8 73t-21 52.5t-41 20t-41 -20t-21 -52t-8 -72.5t-1 -82.5h142zM194 592l-68 117l-68 -117h-17l74 137h22l74 -137h-17z" />
    <glyph glyph-name="edieresis" unicode="&#xeb;" horiz-adv-x="252" 
d="M56 249q0 -51 1 -95t8 -76t21 -50.5t41 -18.5q22 0 35 12t20 30t9.5 39.5t3.5 39.5h20q-1 -20 -3.5 -44t-11.5 -45.5t-26 -36t-47 -14.5q-34 0 -52.5 19.5t-27 55t-10 85.5t-1.5 111q0 54 1.5 100.5t10 80t27 53t52.5 19.5t52.5 -19t27 -54t10 -84t1.5 -108h-162z
M198 268q0 41 -1 81.5t-8 73t-21 52.5t-41 20t-41 -20t-21 -52t-8 -72.5t-1 -82.5h142zM155 651v59h24v-59h-24zM73 651v59h24v-59h-24z" />
    <glyph glyph-name="igrave" unicode="&#xec;" horiz-adv-x="114" 
d="M47 0v504h20v-504h-20zM79 592l-91 137h24l84 -137h-17z" />
    <glyph glyph-name="iacute" unicode="&#xed;" horiz-adv-x="114" 
d="M47 0v504h20v-504h-20zM35 592h-17l84 137h24z" />
    <glyph glyph-name="icircumflex" unicode="&#xee;" horiz-adv-x="114" 
d="M47 0v504h20v-504h-20zM125 592l-68 117l-68 -117h-17l74 137h22l74 -137h-17z" />
    <glyph glyph-name="idieresis" unicode="&#xef;" horiz-adv-x="114" 
d="M47 0v504h20v-504h-20zM86 651v59h24v-59h-24zM4 651v59h24v-59h-24z" />
    <glyph glyph-name="eth" unicode="&#xf0;" horiz-adv-x="254" 
d="M218 228q0 -56 -1.5 -100t-10 -75t-27 -47t-52.5 -16t-52.5 16.5t-27 47.5t-10 75t-1.5 99q0 64 2 110.5t10.5 76.5t27 44.5t51.5 14.5q26 0 45.5 -15t26.5 -39q0 89 -20 144.5t-47 90.5l-70 -37l-11 16l69 36q-18 20 -36.5 32.5t-34.5 22.5l18 10q22 -13 39.5 -27
t31.5 -29l67 35l11 -15l-66 -34q23 -29 36.5 -61.5t20.5 -70t9 -79t2 -87.5v-139zM198 228q0 52 -1 94.5t-8 71.5t-21 45t-41 16t-41 -16t-21 -45.5t-8 -71.5t-1 -94q0 -51 1 -92t8 -69t21 -43t41 -15t41 15t21 43t8 69t1 92z" />
    <glyph glyph-name="ntilde" unicode="&#xf1;" horiz-adv-x="252" 
d="M186 0v408q0 16 -1.5 31.5t-7 27.5t-15.5 19t-28 7q-29 0 -48 -28.5t-19 -79.5v-385h-20v397v24.5t-0.5 23.5t-1 26t-0.5 33h20l1 -48q7 21 23 38.5t48 17.5q22 0 35.5 -8.5t21 -22t10 -31t2.5 -36.5v-414h-20zM220 678q-2 -30 -16 -42t-34 -12q-13 0 -24.5 5.5t-22 12
t-20 12t-18.5 5.5q-14 0 -21.5 -7.5t-9.5 -27.5h-20q2 29 16 41.5t35 12.5q13 0 24.5 -5.5t22 -12t20 -12t18.5 -5.5q27 0 30 35h20z" />
    <glyph glyph-name="ograve" unicode="&#xf2;" horiz-adv-x="254" 
d="M218 248q0 -56 -1.5 -103t-10 -81.5t-27 -54t-52.5 -19.5t-52.5 19.5t-27 54t-10 82t-1.5 102.5q0 64 2 113.5t10.5 83.5t27 51.5t51.5 17.5t51.5 -17.5t27 -51.5t10.5 -83.5t2 -113.5zM198 248q0 52 -1 97.5t-8 78.5t-21 52t-41 19t-41 -19t-21 -52.5t-8 -78.5t-1 -97
q0 -51 1 -95t8 -76t21 -50t41 -18t41 18t21 50t8 76t1 95zM148 592l-91 137h24l84 -137h-17z" />
    <glyph glyph-name="oacute" unicode="&#xf3;" horiz-adv-x="254" 
d="M218 248q0 -56 -1.5 -103t-10 -81.5t-27 -54t-52.5 -19.5t-52.5 19.5t-27 54t-10 82t-1.5 102.5q0 64 2 113.5t10.5 83.5t27 51.5t51.5 17.5t51.5 -17.5t27 -51.5t10.5 -83.5t2 -113.5zM198 248q0 52 -1 97.5t-8 78.5t-21 52t-41 19t-41 -19t-21 -52.5t-8 -78.5t-1 -97
q0 -51 1 -95t8 -76t21 -50t41 -18t41 18t21 50t8 76t1 95zM104 592h-17l84 137h24z" />
    <glyph glyph-name="ocircumflex" unicode="&#xf4;" horiz-adv-x="254" 
d="M218 248q0 -56 -1.5 -103t-10 -81.5t-27 -54t-52.5 -19.5t-52.5 19.5t-27 54t-10 82t-1.5 102.5q0 64 2 113.5t10.5 83.5t27 51.5t51.5 17.5t51.5 -17.5t27 -51.5t10.5 -83.5t2 -113.5zM198 248q0 52 -1 97.5t-8 78.5t-21 52t-41 19t-41 -19t-21 -52.5t-8 -78.5t-1 -97
q0 -51 1 -95t8 -76t21 -50t41 -18t41 18t21 50t8 76t1 95zM194 592l-68 117l-68 -117h-17l74 137h22l74 -137h-17z" />
    <glyph glyph-name="otilde" unicode="&#xf5;" horiz-adv-x="254" 
d="M218 248q0 -56 -1.5 -103t-10 -81.5t-27 -54t-52.5 -19.5t-52.5 19.5t-27 54t-10 82t-1.5 102.5q0 64 2 113.5t10.5 83.5t27 51.5t51.5 17.5t51.5 -17.5t27 -51.5t10.5 -83.5t2 -113.5zM198 248q0 52 -1 97.5t-8 78.5t-21 52t-41 19t-41 -19t-21 -52.5t-8 -78.5t-1 -97
q0 -51 1 -95t8 -76t21 -50t41 -18t41 18t21 50t8 76t1 95zM219 678q-2 -30 -16 -42t-34 -12q-13 0 -24.5 5.5t-22 12t-20 12t-18.5 5.5q-14 0 -21.5 -7.5t-9.5 -27.5h-20q2 29 16 41.5t35 12.5q13 0 24.5 -5.5t22 -12t20 -12t18.5 -5.5q27 0 30 35h20z" />
    <glyph glyph-name="odieresis" unicode="&#xf6;" horiz-adv-x="254" 
d="M218 248q0 -56 -1.5 -103t-10 -81.5t-27 -54t-52.5 -19.5t-52.5 19.5t-27 54t-10 82t-1.5 102.5q0 64 2 113.5t10.5 83.5t27 51.5t51.5 17.5t51.5 -17.5t27 -51.5t10.5 -83.5t2 -113.5zM198 248q0 52 -1 97.5t-8 78.5t-21 52t-41 19t-41 -19t-21 -52.5t-8 -78.5t-1 -97
q0 -51 1 -95t8 -76t21 -50t41 -18t41 18t21 50t8 76t1 95zM155 651v59h24v-59h-24zM73 651v59h24v-59h-24z" />
    <glyph glyph-name="divide" unicode="&#xf7;" horiz-adv-x="408" 
d="M193 343v50h22v-50h-22zM193 87v50h22v-50h-22zM48 231v18h312v-18h-312z" />
    <glyph glyph-name="oslash" unicode="&#xf8;" horiz-adv-x="254" 
d="M209 431q7 -34 8 -79.5t1 -103.5q0 -56 -1.5 -103t-10 -81.5t-27 -54t-52.5 -19.5q-29 0 -46.5 14.5t-27.5 40.5l-30 -75l-17 7l39 97q-7 34 -8 78.5t-1 95.5q0 64 2 113.5t10.5 83.5t27 51.5t51.5 17.5q29 0 46.5 -13.5t27.5 -39.5l29 73l18 -6zM188 429q-7 31 -21 48.5
t-40 17.5q-27 0 -41 -19t-21 -52.5t-8 -78.5t-1 -97q0 -39 0.5 -73.5t3.5 -63.5zM198 248q0 42 -0.5 78.5t-3.5 66.5l-129 -318q7 -31 21.5 -48.5t40.5 -17.5q27 0 41 18t21 50t8 76t1 95z" />
    <glyph glyph-name="ugrave" unicode="&#xf9;" horiz-adv-x="252" 
d="M187 0l-1 48q-7 -21 -22 -38.5t-47 -17.5q-22 0 -36 8.5t-21.5 22t-10.5 31t-3 36.5v414h20v-408q0 -17 2 -32t7.5 -27t16 -19t28.5 -7q29 0 47 28.5t18 79.5v385h20v-397q0 -26 0.5 -48t1.5 -59h-20zM147 592l-91 137h24l84 -137h-17z" />
    <glyph glyph-name="uacute" unicode="&#xfa;" horiz-adv-x="252" 
d="M187 0l-1 48q-7 -21 -22 -38.5t-47 -17.5q-22 0 -36 8.5t-21.5 22t-10.5 31t-3 36.5v414h20v-408q0 -17 2 -32t7.5 -27t16 -19t28.5 -7q29 0 47 28.5t18 79.5v385h20v-397q0 -26 0.5 -48t1.5 -59h-20zM103 592h-17l84 137h24z" />
    <glyph glyph-name="ucircumflex" unicode="&#xfb;" horiz-adv-x="252" 
d="M187 0l-1 48q-7 -21 -22 -38.5t-47 -17.5q-22 0 -36 8.5t-21.5 22t-10.5 31t-3 36.5v414h20v-408q0 -17 2 -32t7.5 -27t16 -19t28.5 -7q29 0 47 28.5t18 79.5v385h20v-397q0 -26 0.5 -48t1.5 -59h-20zM193 592l-68 117l-68 -117h-17l74 137h22l74 -137h-17z" />
    <glyph glyph-name="udieresis" unicode="&#xfc;" horiz-adv-x="252" 
d="M187 0l-1 48q-7 -21 -22 -38.5t-47 -17.5q-22 0 -36 8.5t-21.5 22t-10.5 31t-3 36.5v414h20v-408q0 -17 2 -32t7.5 -27t16 -19t28.5 -7q29 0 47 28.5t18 79.5v385h20v-397q0 -26 0.5 -48t1.5 -59h-20zM154 651v59h24v-59h-24zM72 651v59h24v-59h-24z" />
    <glyph glyph-name="yacute" unicode="&#xfd;" horiz-adv-x="230" 
d="M90 -200h-21l35 200l-86 504h21l76 -466l76 466h21zM92 592h-17l84 137h24z" />
    <glyph glyph-name="thorn" unicode="&#xfe;" horiz-adv-x="265" 
d="M229 248q0 -60 -2 -107.5t-10.5 -80.5t-27 -50.5t-51.5 -17.5q-28 0 -47 17t-24 46v-251h-20v919h20v-276q5 26 21.5 45.5t49.5 19.5q32 0 50 -16t27 -49t11.5 -82.5t2.5 -116.5zM209 248q0 52 -1 97t-8 78t-21 51.5t-41 18.5t-41 -18.5t-21 -51.5t-8 -78t-1 -97
q0 -51 1 -94.5t8 -75t21 -49.5t41 -18t41 18t21 49.5t8 75t1 94.5z" />
    <glyph glyph-name="ydieresis" unicode="&#xff;" horiz-adv-x="230" 
d="M90 -200h-21l35 200l-86 504h21l76 -466l76 466h21zM143 651v59h24v-59h-24zM61 651v59h24v-59h-24z" />
    <glyph glyph-name=".null" horiz-adv-x="567" 
 />
    <glyph glyph-name="grave.cap" horiz-adv-x="100" 
d="M72 777l-91 137h24l84 -137h-17z" />
    <glyph glyph-name="acute.cap" horiz-adv-x="100" 
d="M28 777h-17l84 137h24z" />
    <glyph glyph-name="circumflex.cap" horiz-adv-x="100" 
d="M118 777l-68 117l-68 -117h-17l74 137h22l74 -137h-17z" />
    <glyph glyph-name="caron.cap" horiz-adv-x="100" 
d="M61 777h-22l-74 137h17l68 -117l68 117h17z" />
    <glyph glyph-name="caron.alt" horiz-adv-x="112" 
d="M61 556h-12l17 167h24z" />
    <glyph glyph-name="tilde.cap" horiz-adv-x="100" 
d="M143 863q-2 -30 -16 -42t-34 -12q-13 0 -24.5 5.5t-22 12t-20 12t-18.5 5.5q-14 0 -21.5 -7.5t-9.5 -27.5h-20q2 29 16 41.5t35 12.5q13 0 24.5 -5.5t22 -12t20 -12t18.5 -5.5q27 0 30 35h20z" />
    <glyph glyph-name="dieresis.cap" horiz-adv-x="100" 
d="M79 826v59h24v-59h-24zM-3 826v59h24v-59h-24z" />
    <glyph glyph-name="macron.cap" horiz-adv-x="100" 
d="M-16 822v20h132v-20h-132z" />
    <glyph glyph-name="breve.cap" horiz-adv-x="100" 
d="M137 869q-10 -51 -30.5 -69t-57.5 -18q-33 0 -55.5 18.5t-30.5 68.5h16q5 -35 23 -51.5t47 -16.5q28 0 44.5 12t27.5 56h16z" />
    <glyph glyph-name="ring.cap" horiz-adv-x="100" 
d="M-22 821q0 31 20.5 51.5t51.5 20.5t51.5 -20.5t20.5 -51.5t-20.5 -51.5t-51.5 -20.5t-51.5 20.5t-20.5 51.5zM-3 821q0 -23 15 -39t38 -16t38 16t15 39t-15 39t-38 16t-38 -16t-15 -39z" />
    <glyph glyph-name="hungarumlaut.cap" horiz-adv-x="100" 
d="M68 777h-17l84 137h24zM-18 777h-17l84 137h24z" />
    <glyph glyph-name="dotaccent.cap" horiz-adv-x="100" 
d="M38 826v59h24v-59h-24z" />
    <glyph glyph-name="commaaccent" horiz-adv-x="112" 
d="M24 -202h-14l35 148h22z" />
    <glyph glyph-name="commaaccent.alt" horiz-adv-x="264" 
d="M163 729h14l-33 -137h-20z" />
    <glyph glyph-name="zero.prop" horiz-adv-x="294" 
d="M37 362q0 102 3.5 173t15.5 115.5t33.5 64.5t57.5 20t57.5 -20t33.5 -64.5t15.5 -115.5t3.5 -173t-3.5 -173t-15 -115.5t-33.5 -65t-58 -20.5q-37 0 -59 20.5t-33 65t-14.5 115.5t-3.5 173zM147 716q-29 0 -46.5 -18.5t-27 -60.5t-13 -109.5t-3.5 -165.5t3 -166t13 -110
t27.5 -60.5t46.5 -18.5t46.5 18.5t27.5 60.5t13 110t3 166t-3.5 165.5t-13 109.5t-27.5 60.5t-46 18.5z" />
    <glyph glyph-name="one.prop" horiz-adv-x="206" 
d="M96 0v699q-19 -20 -35.5 -33.5t-30.5 -22.5v21q31 22 62 59h24v-723h-20z" />
    <glyph glyph-name="two.prop" horiz-adv-x="294" 
d="M48 0v19l129 326q9 21 16.5 43t13 50t9 63.5t3.5 85.5q0 22 -2.5 44.5t-10 41.5t-21.5 31t-36 12q-27 0 -42.5 -14t-23.5 -35.5t-10.5 -47t-2.5 -49.5v-14h-20v14q0 29 3.5 58.5t14 53t30 38.5t51.5 15q28 0 46 -13.5t27.5 -35t13 -48t3.5 -51.5q0 -50 -3 -86t-9 -64.5
t-14 -51.5t-17 -47l-126 -319h193v-19h-215z" />
    <glyph glyph-name="three.prop" horiz-adv-x="294" 
d="M238 194q0 -58 -5.5 -97.5t-17 -63.5t-30 -34.5t-43.5 -10.5q-31 0 -49 12.5t-27.5 35.5t-12.5 54.5t-3 70.5v12h20v-13q0 -32 2 -60t9.5 -48.5t22 -32.5t38.5 -12t39 12.5t23 36.5t11 59t3 79q0 40 -3.5 71.5t-15.5 52.5t-34.5 32t-59.5 11h-23v19h22q36 0 58 11.5
t33.5 33.5t15.5 55t4 77q0 73 -13.5 116t-55.5 43q-21 0 -34 -11t-21 -30t-11 -46t-3 -58v-15h-20v15q0 82 20.5 123t68.5 41q29 0 46.5 -13.5t27 -37.5t12.5 -56.5t3 -70.5q0 -43 -3.5 -74.5t-11.5 -53.5t-22.5 -36t-36.5 -23q23 -8 38 -20t23.5 -31.5t12 -49.5t3.5 -75z
" />
    <glyph glyph-name="four.prop" horiz-adv-x="294" 
d="M215 171v-171h-20v171h-169v19l164 533h25v-533h61v-19h-61zM195 673l-148 -483h148v483z" />
    <glyph glyph-name="five.prop" horiz-adv-x="294" 
d="M258 232q0 -53 -3 -98t-14 -77.5t-32 -50.5t-57 -18q-35 0 -54.5 15.5t-30 40t-13 54.5t-2.5 60v11h20v-10q0 -26 2 -52.5t10.5 -49t24.5 -36.5t43 -14t44 13.5t26.5 41.5t12.5 70.5t3 99.5q0 43 -3 79t-12 62.5t-24.5 41.5t-39.5 15q-21 0 -35 -9t-24 -23t-15 -31.5
t-8 -35.5h-20l3 392h180v-19h-160l-3 -315q26 60 82 60q52 0 75.5 -50.5t23.5 -166.5z" />
    <glyph glyph-name="six.prop" horiz-adv-x="294" 
d="M253 223q0 -52 -4 -95.5t-15.5 -74.5t-31.5 -48t-52 -17q-33 0 -54 16.5t-32.5 53t-16 95.5t-4.5 145v31q0 129 6.5 208.5t19.5 123.5t33.5 59t49.5 15q31 0 49 -12t27 -33t11.5 -50t2.5 -62v-12h-20v12q0 30 -2 55t-9 43t-21 28.5t-38 10.5q-25 0 -41.5 -16t-26.5 -56.5
t-15 -109t-6 -172.5q6 38 29.5 63t60.5 25q57 0 78.5 -53.5t21.5 -172.5zM233 223q0 108 -18 157.5t-64 49.5q-48 0 -67.5 -55t-19.5 -152q0 -113 18 -164.5t68 -51.5t66.5 56t16.5 160z" />
    <glyph glyph-name="seven.prop" horiz-adv-x="247" 
d="M63 0h-21l171 704h-178v19h195v-24z" />
    <glyph glyph-name="eight.prop" horiz-adv-x="294" 
d="M254 177q0 -36 -2 -70t-12.5 -60.5t-32 -42.5t-60.5 -16t-60.5 16t-32 42.5t-12.5 60.5t-2 70q0 46 3.5 79.5t12 57t23.5 37t38 20.5q-45 11 -57 58t-12 126q0 31 2 63t11.5 58t29.5 42.5t56 16.5t56 -16.5t29.5 -42.5t11.5 -58t2 -63q0 -39 -2.5 -70.5t-9.5 -55t-21 -38
t-36 -20.5q23 -7 38 -20.5t23.5 -37t12 -57t3.5 -79.5zM226 555q0 28 -2 57t-9.5 52t-23.5 37.5t-44 14.5t-44 -14.5t-23.5 -37.5t-9.5 -52t-2 -57q0 -36 3 -67.5t11.5 -55.5t24 -37.5t40.5 -13.5q26 0 41.5 14t24 38t11 55.5t2.5 66.5zM234 177q0 36 -3 68.5t-12.5 58
t-26.5 40.5t-45 15t-45 -15t-26.5 -40.5t-12.5 -58t-3 -68.5q0 -40 3 -71.5t12.5 -53.5t26.5 -33.5t45 -11.5t45 12t26.5 34t12.5 53.5t3 70.5z" />
    <glyph glyph-name="nine.prop" horiz-adv-x="294" 
d="M251 410q0 -119 -2.5 -199.5t-13 -130t-32 -71t-58.5 -21.5q-32 0 -51 16.5t-28.5 41t-12 54t-2.5 55.5v12h22v-12q0 -28 2.5 -54.5t10 -46.5t22 -32.5t38.5 -12.5q28 0 44 19.5t25 63t12 114t5 172.5q-6 -38 -29 -63t-60 -25q-36 0 -56.5 19t-31 49t-13 67.5t-2.5 74.5
q0 52 3.5 95t15 74t31.5 48.5t53 17.5t54 -14.5t33 -49t16.5 -90.5t4.5 -140v-31zM229 499q0 115 -18.5 166t-67.5 51q-50 0 -66.5 -56.5t-16.5 -159.5q0 -33 2 -67t10 -61.5t25 -45t46 -17.5q30 0 47 19.5t25.5 48.5t11 62t2.5 60z" />
    <glyph glyph-name="Euro.prop" horiz-adv-x="294" 
d="M108 317q0 -155 18 -232.5t71 -77.5q22 0 37.5 9t26.5 24v-27q-10 -10 -25.5 -17.5t-38.5 -7.5q-32 0 -53 18t-33.5 58t-17.5 102t-5 151h-59l4 18h55v85h-58l4 18h54q1 155 24.5 226t84.5 71q23 0 41.5 -10t26.5 -22l-4 -28q-23 41 -64 41q-51 0 -70 -70.5t-19 -207.5
h127l-4 -18h-123v-85h112l-4 -18h-108z" />
    <glyph glyph-name="cent.prop" horiz-adv-x="238" 
d="M120 496q-20 -2 -32 -17t-18.5 -45t-8.5 -76t-2 -110q0 -75 4.5 -121t12.5 -71.5t19 -35.5t25 -11v487zM138 10q28 5 36.5 36t8.5 78v8h20v-10q0 -59 -15.5 -95t-49.5 -36v-67h-18v66q-52 0 -68 76q-13 61 -13 182q0 69 3 117.5t11 80.5q9 36 26.5 52t40.5 16v61h18v-62
q20 0 32.5 -12t20 -30.5t10 -41.5t2.5 -45v-8h-20v8q0 45 -8 75.5t-37 35.5v-485z" />
    <glyph glyph-name="dollar.prop" horiz-adv-x="294" 
d="M138 -12q-33 2 -51 16t-27 37t-11 53t-2 65v16h20v-16q0 -30 1 -57t8 -47.5t21 -33.5t41 -16v379l-54 122q-17 38 -24 62.5t-7 45.5q0 57 22.5 87.5t62.5 33.5v61h18v-61q28 -1 45 -16t26 -38.5t11.5 -53t2.5 -59.5v-10h-20v9q0 27 -2 53t-8.5 47t-19.5 34.5t-35 15.5
v-326l45 -99q19 -42 32.5 -86.5t13.5 -86.5q0 -26 -4 -49t-14 -40.5t-28 -28.5t-45 -13v-67h-18v67zM156 344v-339q22 1 35.5 10.5t21.5 25t11 35.5t3 43q0 42 -14 85t-31 81zM73 614q0 -19 6 -41.5t23 -60.5l36 -80v285q-31 -3 -48 -29t-17 -74z" />
    <glyph glyph-name="sterling.prop" horiz-adv-x="294" 
d="M241 560v23q0 24 -2 48t-8.5 42.5t-20 30.5t-36.5 12q-25 0 -39 -14t-20.5 -34.5t-8 -43.5t-1.5 -42v-170h95v-19h-95v-374h131v-19h-190v19h39v374h-39v19h39v170q0 24 2.5 51t11.5 49.5t27 37.5t48 15q32 0 49.5 -15t26 -38t10 -49.5t1.5 -49.5v-23h-20z" />
    <glyph glyph-name="florin.prop" horiz-adv-x="274" 
d="M148 475h95l-3 -18h-94l-51 -482q-4 -36 -10.5 -66.5t-18.5 -52.5t-30.5 -34.5t-46.5 -12.5h-9l3 19h6q22 0 36.5 10.5t24.5 29.5t15.5 46t8.5 59l51 484h-83l3 18h82l8 76q4 40 9 74t15.5 58.5t28.5 38t48 13.5q16 0 35 -7l-4 -18l-16 4t-16 2q-39 0 -54 -36.5
t-23 -109.5z" />
    <glyph glyph-name="yen.prop" horiz-adv-x="294" 
d="M159 339h56v-18h-60v-85h60v-18h-60v-218h-20v218h-60v18h60v85h-60v18h57l-94 384h21l87 -363l89 363h21z" />
    <glyph glyph-name="zero.numerator" 
d="M169 509q0 -62 -2.5 -105t-11 -70t-23 -39t-38.5 -12q-25 0 -39.5 12.5t-22 39.5t-10 70t-2.5 104q0 50 2.5 90t10 67.5t22 42.5t39.5 15t40 -15t22.5 -42.5t10 -67.5t2.5 -90zM150 509q0 45 -2 81.5t-8 62.5t-17 40t-29 14t-29 -15t-17 -41t-7.5 -62.5t-1.5 -79.5
q0 -56 2 -96t8 -65t16.5 -36.5t28.5 -11.5q36 0 46 49t10 160z" />
    <glyph glyph-name="one.numerator" 
d="M88 287v409q-11 -11 -21 -18t-22 -14v20q21 14 42 36h20v-433h-19z" />
    <glyph glyph-name="two.numerator" 
d="M25 287v15l83 188q15 34 21.5 64t6.5 74q0 34 -9 56t-35 22q-16 0 -25.5 -8.5t-14 -21t-5.5 -26.5t-1 -26v-12h-19v12q0 16 2 33.5t9 32.5t20 24.5t34 9.5t33 -9.5t19 -23.5t9 -31t2 -32q0 -48 -9 -83.5t-20 -61.5l-80 -179h125v-17h-146z" />
    <glyph glyph-name="three.numerator" 
d="M158 407q0 -68 -15 -96t-50 -28q-39 0 -51 25t-12 68v21h19v-17q0 -35 8.5 -57.5t35.5 -22.5q29 0 37.5 28t8.5 79q0 24 -2 41.5t-9.5 29t-21.5 17t-37 5.5h-18v18h17q23 0 36.5 6.5t21 19t9.5 31t2 42.5q0 40 -8 65t-34 25t-34 -23t-8 -55v-16h-19v12q0 48 13.5 73.5
t47.5 25.5q21 0 33.5 -10t18.5 -25.5t7.5 -34.5t1.5 -37q0 -25 -1.5 -42.5t-6 -30t-13 -21t-21.5 -14.5q13 -5 22 -12.5t13.5 -19t6.5 -28.5t2 -42z" />
    <glyph glyph-name="four.numerator" 
d="M140 386v-99h-19v99h-110v15l107 319h22v-316h39v-18h-39zM121 669l-89 -265h89v265z" />
    <glyph glyph-name="five.numerator" 
d="M172 430q0 -30 -2 -57t-9 -47t-21 -31.5t-39 -11.5q-24 0 -38 10t-20.5 25.5t-8 33.5t-1.5 34v10h19v-9q0 -13 1 -28t6 -28t15 -22t27 -9q33 0 42.5 31.5t9.5 98.5q0 51 -9.5 82.5t-37.5 31.5q-26 0 -37 -19t-15 -40h-18l2 235h123v-17h-104l-2 -174q16 32 50 32
q37 0 52 -31.5t15 -99.5z" />
    <glyph glyph-name="six.numerator" 
d="M166 423q0 -31 -2.5 -57t-10 -44.5t-21.5 -28.5t-36 -10t-36 9.5t-22 31.5t-11 56.5t-3 84.5v19q0 76 4.5 123.5t13.5 73t23 34.5t33 9q38 0 49.5 -27t11.5 -67v-10h-19v10q0 31 -7.5 54t-34.5 23q-14 0 -24 -9t-16.5 -31.5t-10 -59.5t-4.5 -93q14 45 55 45
q39 0 53.5 -32t14.5 -104zM147 423q0 64 -10.5 91.5t-39.5 27.5t-41 -31.5t-12 -86.5q0 -68 11 -96t41 -28q31 0 41 31.5t10 91.5z" />
    <glyph glyph-name="seven.numerator" 
d="M57 287h-20l111 416h-115v17h133v-18z" />
    <glyph glyph-name="eight.numerator" 
d="M166 397q0 -26 -3 -47t-11 -36t-22 -23t-37 -8t-37 8t-22 23t-10.5 36t-2.5 47q0 53 9.5 77.5t34.5 34.5q-25 10 -32 36.5t-7 71.5q0 18 1.5 37t8 34.5t20 25.5t37.5 10q25 0 38.5 -10t20 -25.5t8 -34.5t1.5 -37q0 -45 -7 -71.5t-32 -36.5q26 -10 35 -34.5t9 -77.5z
M142 617q0 40 -8 65t-41 25q-32 0 -40 -25t-8 -65q0 -48 8.5 -73.5t39.5 -25.5q32 0 40.5 25.5t8.5 73.5zM147 397q0 50 -9.5 76t-44.5 26q-33 0 -43 -26t-10 -76q0 -45 10 -71t43 -26q35 0 44.5 26t9.5 71z" />
    <glyph glyph-name="nine.numerator" 
d="M165 533q0 -75 -2.5 -123.5t-10.5 -76.5t-22 -39t-37 -11q-21 0 -33 8.5t-19 23t-9 32.5t-2 36v10h19v-10q0 -16 1.5 -30.5t6.5 -26t13.5 -18.5t23.5 -7t25 9t16 32t8.5 61.5t2.5 98.5q-6 -20 -20 -32t-35 -12q-41 0 -55 35t-14 91q0 31 2.5 57t10 44.5t21.5 28.5t36 10
q21 0 35.5 -8.5t22.5 -28.5t11.5 -53.5t3.5 -83.5v-17zM145 583q0 69 -11.5 96.5t-41.5 27.5q-31 0 -41 -31.5t-10 -91.5q0 -51 10.5 -80t40.5 -29q18 0 28.5 11.5t16 28t7 35t1.5 33.5z" />
    <glyph glyph-name="zero.denominator" 
d="M169 225q0 -62 -2.5 -105t-11 -70t-23 -39t-38.5 -12q-25 0 -39.5 12.5t-22 39.5t-10 70t-2.5 104q0 50 2.5 90t10 67.5t22 42.5t39.5 15t40 -15t22.5 -42.5t10 -67.5t2.5 -90zM150 225q0 45 -2 81.5t-8 62.5t-17 40t-29 14t-29 -15t-17 -41t-7.5 -62.5t-1.5 -79.5
q0 -56 2 -96t8 -65t16.5 -36.5t28.5 -11.5q36 0 46 49t10 160z" />
    <glyph glyph-name="one.denominator" 
d="M88 3v409q-11 -11 -21 -18t-22 -14v20q21 14 42 36h20v-433h-19z" />
    <glyph glyph-name="two.denominator" 
d="M25 3v15l83 188q15 34 21.5 64t6.5 74q0 34 -9 56t-35 22q-16 0 -25.5 -8.5t-14 -21t-5.5 -26.5t-1 -26v-12h-19v12q0 16 2 33.5t9 32.5t20 24.5t34 9.5t33 -9.5t19 -23.5t9 -31t2 -32q0 -48 -9 -83.5t-20 -61.5l-80 -179h125v-17h-146z" />
    <glyph glyph-name="three.denominator" 
d="M158 123q0 -68 -15 -96t-50 -28q-39 0 -51 25t-12 68v21h19v-17q0 -35 8.5 -57.5t35.5 -22.5q29 0 37.5 28t8.5 79q0 24 -2 41.5t-9.5 29t-21.5 17t-37 5.5h-18v18h17q23 0 36.5 6.5t21 19t9.5 31t2 42.5q0 40 -8 65t-34 25t-34 -23t-8 -55v-16h-19v12q0 48 13.5 73.5
t47.5 25.5q21 0 33.5 -10t18.5 -25.5t7.5 -34.5t1.5 -37q0 -25 -1.5 -42.5t-6 -30t-13 -21t-21.5 -14.5q13 -5 22 -12.5t13.5 -19t6.5 -28.5t2 -42z" />
    <glyph glyph-name="four.denominator" 
d="M140 102v-99h-19v99h-110v15l107 319h22v-316h39v-18h-39zM121 385l-89 -265h89v265z" />
    <glyph glyph-name="five.denominator" 
d="M172 146q0 -30 -2 -57t-9 -47t-21 -31.5t-39 -11.5q-24 0 -38 10t-20.5 25.5t-8 33.5t-1.5 34v10h19v-9q0 -13 1 -28t6 -28t15 -22t27 -9q33 0 42.5 31.5t9.5 98.5q0 51 -9.5 82.5t-37.5 31.5q-26 0 -37 -19t-15 -40h-18l2 235h123v-17h-104l-2 -174q16 32 50 32
q37 0 52 -31.5t15 -99.5z" />
    <glyph glyph-name="six.denominator" 
d="M166 139q0 -31 -2.5 -57t-10 -44.5t-21.5 -28.5t-36 -10t-36 9.5t-22 31.5t-11 56.5t-3 84.5v19q0 76 4.5 123.5t13.5 73t23 34.5t33 9q38 0 49.5 -27t11.5 -67v-10h-19v10q0 31 -7.5 54t-34.5 23q-14 0 -24 -9t-16.5 -31.5t-10 -59.5t-4.5 -93q14 45 55 45
q39 0 53.5 -32t14.5 -104zM147 139q0 64 -10.5 91.5t-39.5 27.5t-41 -31.5t-12 -86.5q0 -68 11 -96t41 -28q31 0 41 31.5t10 91.5z" />
    <glyph glyph-name="seven.denominator" 
d="M57 3h-20l111 416h-115v17h133v-18z" />
    <glyph glyph-name="eight.denominator" 
d="M166 113q0 -26 -3 -47t-11 -36t-22 -23t-37 -8t-37 8t-22 23t-10.5 36t-2.5 47q0 53 9.5 77.5t34.5 34.5q-25 10 -32 36.5t-7 71.5q0 18 1.5 37t8 34.5t20 25.5t37.5 10q25 0 38.5 -10t20 -25.5t8 -34.5t1.5 -37q0 -45 -7 -71.5t-32 -36.5q26 -10 35 -34.5t9 -77.5z
M142 333q0 40 -8 65t-41 25q-32 0 -40 -25t-8 -65q0 -48 8.5 -73.5t39.5 -25.5q32 0 40.5 25.5t8.5 73.5zM147 113q0 50 -9.5 76t-44.5 26q-33 0 -43 -26t-10 -76q0 -45 10 -71t43 -26q35 0 44.5 26t9.5 71z" />
    <glyph glyph-name="nine.denominator" 
d="M165 249q0 -75 -2.5 -123.5t-10.5 -76.5t-22 -39t-37 -11q-21 0 -33 8.5t-19 23t-9 32.5t-2 36v10h19v-10q0 -16 1.5 -30.5t6.5 -26t13.5 -18.5t23.5 -7t25 9t16 32t8.5 61.5t2.5 98.5q-6 -20 -20 -32t-35 -12q-41 0 -55 35t-14 91q0 31 2.5 57t10 44.5t21.5 28.5t36 10
q21 0 35.5 -8.5t22.5 -28.5t11.5 -53.5t3.5 -83.5v-17zM145 299q0 69 -11.5 96.5t-41.5 27.5q-31 0 -41 -31.5t-10 -91.5q0 -51 10.5 -80t40.5 -29q18 0 28.5 11.5t16 28t7 35t1.5 33.5z" />
    <glyph glyph-name="Amacron" unicode="&#x100;" horiz-adv-x="291" 
d="M259 0l-32 195h-161l-34 -195h-20l128 723h20l119 -723h-20zM149 675l-80 -461h155zM84 822v20h132v-20h-132z" />
    <glyph glyph-name="amacron" unicode="&#x101;" horiz-adv-x="254" 
d="M193 0q-1 6 -1 13q-1 6 -1 15t-1 21q-2 -9 -8 -19t-15.5 -18.5t-22 -14t-27.5 -5.5q-40 0 -64.5 30t-24.5 102q0 33 3.5 62t14.5 50.5t33 33.5t60 12q14 0 24.5 -2t24.5 -5v120q0 19 -2 37.5t-8.5 32t-20 22t-35.5 8.5q-23 0 -36 -8.5t-19.5 -22.5t-8.5 -31.5t-2 -36.5
v-9h-20v9q0 24 3 45.5t12.5 37.5t26.5 25.5t44 9.5q30 0 47.5 -10t26 -26.5t10.5 -38t2 -44.5v-299q0 -42 1.5 -61.5t3.5 -34.5h-20zM188 256q-14 4 -24.5 5.5t-24.5 1.5q-25 0 -42.5 -6.5t-28 -22.5t-15.5 -43t-5 -67q0 -61 18.5 -87t50.5 -26q36 0 53.5 32t17.5 86v127z
M56 637v20h132v-20h-132z" />
    <glyph glyph-name="Abreve" unicode="&#x102;" horiz-adv-x="291" 
d="M259 0l-32 195h-161l-34 -195h-20l128 723h20l119 -723h-20zM149 675l-80 -461h155zM237 869q-10 -51 -30.5 -69t-57.5 -18q-33 0 -55.5 18.5t-30.5 68.5h16q5 -35 23 -51.5t47 -16.5q28 0 44.5 12t27.5 56h16z" />
    <glyph glyph-name="abreve" unicode="&#x103;" horiz-adv-x="254" 
d="M193 0q-1 6 -1 13q-1 6 -1 15t-1 21q-2 -9 -8 -19t-15.5 -18.5t-22 -14t-27.5 -5.5q-40 0 -64.5 30t-24.5 102q0 33 3.5 62t14.5 50.5t33 33.5t60 12q14 0 24.5 -2t24.5 -5v120q0 19 -2 37.5t-8.5 32t-20 22t-35.5 8.5q-23 0 -36 -8.5t-19.5 -22.5t-8.5 -31.5t-2 -36.5
v-9h-20v9q0 24 3 45.5t12.5 37.5t26.5 25.5t44 9.5q30 0 47.5 -10t26 -26.5t10.5 -38t2 -44.5v-299q0 -42 1.5 -61.5t3.5 -34.5h-20zM188 256q-14 4 -24.5 5.5t-24.5 1.5q-25 0 -42.5 -6.5t-28 -22.5t-15.5 -43t-5 -67q0 -61 18.5 -87t50.5 -26q36 0 53.5 32t17.5 86v127z
M209 684q-10 -51 -30.5 -69t-57.5 -18q-33 0 -55.5 18.5t-30.5 68.5h16q5 -35 23 -51.5t47 -16.5q28 0 44.5 12t27.5 56h16z" />
    <glyph glyph-name="Aogonek" unicode="&#x104;" horiz-adv-x="291" 
d="M299 -161q-14 -7 -24.5 -10.5t-24.5 -3.5q-27 0 -43.5 15.5t-16.5 44.5q0 19 7 36t17.5 31.5t24 26.5t26.5 21h-6l-32 195h-161l-34 -195h-20l128 723h20l119 -723q-26 -19 -47.5 -48.5t-21.5 -64.5q0 -45 43 -45q10 0 21 3.5t20 8.5zM149 675l-80 -461h155z" />
    <glyph glyph-name="aogonek" unicode="&#x105;" horiz-adv-x="254" 
d="M233 -161q-14 -7 -24.5 -10.5t-24.5 -3.5q-27 0 -43.5 15.5t-16.5 44.5q0 19 7 36t17.5 31.5t24 26.5t26.5 21h-6q-1 6 -1 13q-1 6 -1 15t-1 21q-2 -9 -8 -19t-15.5 -18.5t-22 -14t-27.5 -5.5q-40 0 -64.5 30t-24.5 102q0 33 3.5 62t14.5 50.5t33 33.5t60 12
q14 0 24.5 -2t24.5 -5v120q0 19 -2 37.5t-8.5 32t-20 22t-35.5 8.5q-23 0 -36 -8.5t-19.5 -22.5t-8.5 -31.5t-2 -36.5v-9h-20v9q0 24 3 45.5t12.5 37.5t26.5 25.5t44 9.5q30 0 47.5 -10t26 -26.5t10.5 -38t2 -44.5v-299q0 -24 1.5 -47.5t3.5 -48.5q-26 -19 -47.5 -48.5
t-21.5 -64.5q0 -45 43 -45q10 0 21 3.5t20 8.5zM188 256q-14 4 -24.5 5.5t-24.5 1.5q-25 0 -42.5 -6.5t-28 -22.5t-15.5 -43t-5 -67q0 -61 18.5 -87t50.5 -26q36 0 53.5 32t17.5 86v127z" />
    <glyph glyph-name="Cacute" unicode="&#x106;" horiz-adv-x="263" 
d="M219 559q0 22 -2 49.5t-9 51.5t-22 40t-41 16q-31 0 -48 -24t-24.5 -68.5t-9 -107t-1.5 -140.5q0 -87 1.5 -156t9 -116t24.5 -72t48 -25q25 0 39.5 14t21.5 37.5t8.5 55t1.5 66.5h20q0 -30 -1 -64t-9.5 -62.5t-27 -47t-53.5 -18.5q-39 0 -59.5 24t-30.5 72.5t-11.5 121
t-1.5 170.5q0 93 2 160.5t12 112t31 65.5t58 21q35 0 54 -17t28 -43t10.5 -57t1.5 -59h-20zM122 777h-17l84 137h24z" />
    <glyph glyph-name="cacute" unicode="&#x107;" horiz-adv-x="224" 
d="M200 122q0 -23 -2 -46.5t-10 -42.5t-23.5 -31t-42.5 -12q-31 0 -48 17t-25.5 50t-10.5 81t-2 110q0 70 2.5 120.5t11.5 82.5t26 47.5t46 15.5q26 0 41.5 -11.5t23.5 -30t10.5 -41.5t2.5 -47v-8h-20v8q0 24 -2 44.5t-8.5 35.5t-18 23t-29.5 8q-22 0 -35 -13.5t-20 -43
t-9 -76.5t-2 -114q0 -57 1.5 -101.5t8 -75t20 -46.5t36.5 -16q37 0 47.5 32t10.5 83v8h20v-10zM98 592h-17l84 137h24z" />
    <glyph glyph-name="Ccircumflex" unicode="&#x108;" horiz-adv-x="263" 
d="M219 559q0 22 -2 49.5t-9 51.5t-22 40t-41 16q-31 0 -48 -24t-24.5 -68.5t-9 -107t-1.5 -140.5q0 -87 1.5 -156t9 -116t24.5 -72t48 -25q25 0 39.5 14t21.5 37.5t8.5 55t1.5 66.5h20q0 -30 -1 -64t-9.5 -62.5t-27 -47t-53.5 -18.5q-39 0 -59.5 24t-30.5 72.5t-11.5 121
t-1.5 170.5q0 93 2 160.5t12 112t31 65.5t58 21q35 0 54 -17t28 -43t10.5 -57t1.5 -59h-20zM212 777l-68 117l-68 -117h-17l74 137h22l74 -137h-17z" />
    <glyph glyph-name="ccircumflex" unicode="&#x109;" horiz-adv-x="224" 
d="M200 122q0 -23 -2 -46.5t-10 -42.5t-23.5 -31t-42.5 -12q-31 0 -48 17t-25.5 50t-10.5 81t-2 110q0 70 2.5 120.5t11.5 82.5t26 47.5t46 15.5q26 0 41.5 -11.5t23.5 -30t10.5 -41.5t2.5 -47v-8h-20v8q0 24 -2 44.5t-8.5 35.5t-18 23t-29.5 8q-22 0 -35 -13.5t-20 -43
t-9 -76.5t-2 -114q0 -57 1.5 -101.5t8 -75t20 -46.5t36.5 -16q37 0 47.5 32t10.5 83v8h20v-10zM188 592l-68 117l-68 -117h-17l74 137h22l74 -137h-17z" />
    <glyph glyph-name="Cdotaccent" unicode="&#x10a;" horiz-adv-x="263" 
d="M219 559q0 22 -2 49.5t-9 51.5t-22 40t-41 16q-31 0 -48 -24t-24.5 -68.5t-9 -107t-1.5 -140.5q0 -87 1.5 -156t9 -116t24.5 -72t48 -25q25 0 39.5 14t21.5 37.5t8.5 55t1.5 66.5h20q0 -30 -1 -64t-9.5 -62.5t-27 -47t-53.5 -18.5q-39 0 -59.5 24t-30.5 72.5t-11.5 121
t-1.5 170.5q0 93 2 160.5t12 112t31 65.5t58 21q35 0 54 -17t28 -43t10.5 -57t1.5 -59h-20zM132 826v59h24v-59h-24z" />
    <glyph glyph-name="cdotaccent" unicode="&#x10b;" horiz-adv-x="224" 
d="M200 122q0 -23 -2 -46.5t-10 -42.5t-23.5 -31t-42.5 -12q-31 0 -48 17t-25.5 50t-10.5 81t-2 110q0 70 2.5 120.5t11.5 82.5t26 47.5t46 15.5q26 0 41.5 -11.5t23.5 -30t10.5 -41.5t2.5 -47v-8h-20v8q0 24 -2 44.5t-8.5 35.5t-18 23t-29.5 8q-22 0 -35 -13.5t-20 -43
t-9 -76.5t-2 -114q0 -57 1.5 -101.5t8 -75t20 -46.5t36.5 -16q37 0 47.5 32t10.5 83v8h20v-10zM108 651v59h24v-59h-24z" />
    <glyph glyph-name="Ccaron" unicode="&#x10c;" horiz-adv-x="263" 
d="M219 559q0 22 -2 49.5t-9 51.5t-22 40t-41 16q-31 0 -48 -24t-24.5 -68.5t-9 -107t-1.5 -140.5q0 -87 1.5 -156t9 -116t24.5 -72t48 -25q25 0 39.5 14t21.5 37.5t8.5 55t1.5 66.5h20q0 -30 -1 -64t-9.5 -62.5t-27 -47t-53.5 -18.5q-39 0 -59.5 24t-30.5 72.5t-11.5 121
t-1.5 170.5q0 93 2 160.5t12 112t31 65.5t58 21q35 0 54 -17t28 -43t10.5 -57t1.5 -59h-20zM155 777h-22l-74 137h17l68 -117l68 117h17z" />
    <glyph glyph-name="ccaron" unicode="&#x10d;" horiz-adv-x="224" 
d="M200 122q0 -23 -2 -46.5t-10 -42.5t-23.5 -31t-42.5 -12q-31 0 -48 17t-25.5 50t-10.5 81t-2 110q0 70 2.5 120.5t11.5 82.5t26 47.5t46 15.5q26 0 41.5 -11.5t23.5 -30t10.5 -41.5t2.5 -47v-8h-20v8q0 24 -2 44.5t-8.5 35.5t-18 23t-29.5 8q-22 0 -35 -13.5t-20 -43
t-9 -76.5t-2 -114q0 -57 1.5 -101.5t8 -75t20 -46.5t36.5 -16q37 0 47.5 32t10.5 83v8h20v-10zM131 592h-22l-74 137h17l68 -117l68 117h17z" />
    <glyph glyph-name="Dcaron" unicode="&#x10e;" horiz-adv-x="301" 
d="M259 301q0 -73 -3 -129t-14.5 -94.5t-33.5 -58t-61 -19.5h-93v723h93q39 0 61 -20t33.5 -58t14.5 -94t3 -129v-121zM239 421q0 75 -3 129t-13 88t-28.5 50t-49.5 16h-71v-685h71q31 0 49.5 16t28.5 50t13 88t3 129v119zM167 777h-22l-74 137h17l68 -117l68 117h17z" />
    <glyph glyph-name="dcaron" unicode="&#x10f;" horiz-adv-x="265" 
d="M200 0l-2 55q-5 -29 -24 -46t-47 -17q-33 0 -51.5 17.5t-27 50.5t-10.5 80.5t-2 107.5q0 67 2.5 117t11.5 83t27 49.5t50 16.5q33 0 49.5 -20.5t21.5 -46.5v276h20v-621v-38.5v-21t0.5 -17l1.5 -25.5h-20zM198 248q0 52 -1 97t-8 78.5t-21 52.5t-41 19t-41 -19t-21 -52
t-8 -78.5t-1 -97.5q0 -51 1 -94.5t8 -75t21 -49.5t41 -18t41 18t21 49.5t8 75t1 94.5zM262 556h-12l17 167h24z" />
    <glyph glyph-name="Dcroat" unicode="&#x110;" horiz-adv-x="301" 
d="M16 393v18h38v312h93q39 0 61 -20t33.5 -58t14.5 -94t3 -129v-121q0 -73 -3 -129t-14.5 -94.5t-33.5 -58t-61 -19.5h-93v393h-38zM74 393v-374h71q31 0 49.5 16t28.5 50t13 88t3 129v119q0 75 -3 129t-13 88t-28.5 50t-49.5 16h-71v-293h94v-18h-94z" />
    <glyph glyph-name="dcroat" unicode="&#x111;" horiz-adv-x="265" 
d="M200 0l-2 55q-5 -29 -24 -46t-47 -17q-33 0 -51.5 17.5t-27 50.5t-10.5 80.5t-2 107.5q0 67 2.5 117t11.5 83t27 49.5t50 16.5q33 0 49.5 -20.5t21.5 -46.5v148h-93v19h93v109h20v-109h45v-19h-45v-493v-38.5v-21t0.5 -17l1.5 -25.5h-20zM198 248q0 52 -1 97t-8 78.5
t-21 52.5t-41 19t-41 -19t-21 -52t-8 -78.5t-1 -97.5q0 -51 1 -94.5t8 -75t21 -49.5t41 -18t41 18t21 49.5t8 75t1 94.5z" />
    <glyph glyph-name="Emacron" unicode="&#x112;" horiz-adv-x="251" 
d="M54 0v723h163v-19h-143v-313h130v-19h-130v-353h159v-19h-179zM70 822v20h132v-20h-132z" />
    <glyph glyph-name="emacron" unicode="&#x113;" horiz-adv-x="252" 
d="M56 249q0 -51 1 -95t8 -76t21 -50.5t41 -18.5q22 0 35 12t20 30t9.5 39.5t3.5 39.5h20q-1 -20 -3.5 -44t-11.5 -45.5t-26 -36t-47 -14.5q-34 0 -52.5 19.5t-27 55t-10 85.5t-1.5 111q0 54 1.5 100.5t10 80t27 53t52.5 19.5t52.5 -19t27 -54t10 -84t1.5 -108h-162z
M198 268q0 41 -1 81.5t-8 73t-21 52.5t-41 20t-41 -20t-21 -52t-8 -72.5t-1 -82.5h142zM60 637v20h132v-20h-132z" />
    <glyph glyph-name="Ebreve" unicode="&#x114;" horiz-adv-x="251" 
d="M54 0v723h163v-19h-143v-313h130v-19h-130v-353h159v-19h-179zM223 869q-10 -51 -30.5 -69t-57.5 -18q-33 0 -55.5 18.5t-30.5 68.5h16q5 -35 23 -51.5t47 -16.5q28 0 44.5 12t27.5 56h16z" />
    <glyph glyph-name="ebreve" unicode="&#x115;" horiz-adv-x="252" 
d="M56 249q0 -51 1 -95t8 -76t21 -50.5t41 -18.5q22 0 35 12t20 30t9.5 39.5t3.5 39.5h20q-1 -20 -3.5 -44t-11.5 -45.5t-26 -36t-47 -14.5q-34 0 -52.5 19.5t-27 55t-10 85.5t-1.5 111q0 54 1.5 100.5t10 80t27 53t52.5 19.5t52.5 -19t27 -54t10 -84t1.5 -108h-162z
M198 268q0 41 -1 81.5t-8 73t-21 52.5t-41 20t-41 -20t-21 -52t-8 -72.5t-1 -82.5h142zM213 684q-10 -51 -30.5 -69t-57.5 -18q-33 0 -55.5 18.5t-30.5 68.5h16q5 -35 23 -51.5t47 -16.5q28 0 44.5 12t27.5 56h16z" />
    <glyph glyph-name="Edotaccent" unicode="&#x116;" horiz-adv-x="251" 
d="M54 0v723h163v-19h-143v-313h130v-19h-130v-353h159v-19h-179zM124 826v59h24v-59h-24z" />
    <glyph glyph-name="edotaccent" unicode="&#x117;" horiz-adv-x="252" 
d="M56 249q0 -51 1 -95t8 -76t21 -50.5t41 -18.5q22 0 35 12t20 30t9.5 39.5t3.5 39.5h20q-1 -20 -3.5 -44t-11.5 -45.5t-26 -36t-47 -14.5q-34 0 -52.5 19.5t-27 55t-10 85.5t-1.5 111q0 54 1.5 100.5t10 80t27 53t52.5 19.5t52.5 -19t27 -54t10 -84t1.5 -108h-162z
M198 268q0 41 -1 81.5t-8 73t-21 52.5t-41 20t-41 -20t-21 -52t-8 -72.5t-1 -82.5h142zM114 651v59h24v-59h-24z" />
    <glyph glyph-name="Eogonek" unicode="&#x118;" horiz-adv-x="251" 
d="M253 -161q-14 -7 -24.5 -10.5t-24.5 -3.5q-27 0 -43.5 15.5t-16.5 44.5q0 19 7 36t17.5 31.5t24 26.5t26.5 21h-165v723h163v-19h-143v-313h130v-19h-130v-353h159v-19q-26 -19 -47.5 -48.5t-21.5 -64.5q0 -45 43 -45q10 0 21 3.5t20 8.5z" />
    <glyph glyph-name="eogonek" unicode="&#x119;" horiz-adv-x="252" 
d="M183 -161q-14 -7 -24.5 -10.5t-24.5 -3.5q-27 0 -43.5 15.5t-16.5 44.5q0 33 19 60t43 46q-3 -1 -9 -1q-34 0 -52.5 19.5t-27 55t-10 85.5t-1.5 111q0 54 1.5 100.5t10 80t27 53t52.5 19.5t52.5 -19t27 -54t10 -84t1.5 -108h-162q0 -51 1 -95t8 -76t21 -50.5t41 -18.5
q22 0 35 12t20 30t9.5 39.5t3.5 39.5h20q-1 -17 -3 -37.5t-8 -40t-17.5 -35t-30.5 -22.5q-24 -19 -43 -47t-19 -61q0 -45 43 -45q10 0 21 3.5t20 8.5zM198 268q0 41 -1 81.5t-8 73t-21 52.5t-41 20t-41 -20t-21 -52t-8 -72.5t-1 -82.5h142z" />
    <glyph glyph-name="Ecaron" unicode="&#x11a;" horiz-adv-x="251" 
d="M54 0v723h163v-19h-143v-313h130v-19h-130v-353h159v-19h-179zM147 777h-22l-74 137h17l68 -117l68 117h17z" />
    <glyph glyph-name="ecaron" unicode="&#x11b;" horiz-adv-x="252" 
d="M56 249q0 -51 1 -95t8 -76t21 -50.5t41 -18.5q22 0 35 12t20 30t9.5 39.5t3.5 39.5h20q-1 -20 -3.5 -44t-11.5 -45.5t-26 -36t-47 -14.5q-34 0 -52.5 19.5t-27 55t-10 85.5t-1.5 111q0 54 1.5 100.5t10 80t27 53t52.5 19.5t52.5 -19t27 -54t10 -84t1.5 -108h-162z
M198 268q0 41 -1 81.5t-8 73t-21 52.5t-41 20t-41 -20t-21 -52t-8 -72.5t-1 -82.5h142zM137 592h-22l-74 137h17l68 -117l68 117h17z" />
    <glyph glyph-name="Gcircumflex" unicode="&#x11c;" horiz-adv-x="273" 
d="M219 559q0 28 -1.5 56t-9 50.5t-22.5 36.5t-41 14q-32 0 -48.5 -24t-24.5 -68.5t-9 -107.5t-1 -140q0 -94 1.5 -163.5t9.5 -115t26.5 -68t52.5 -22.5q16 0 25 1t14.5 3t10.5 4.5t14 6.5v278h-84v19h104v-309q-20 -11 -36 -16.5t-48 -5.5q-38 0 -59.5 18t-33 62.5
t-14.5 119t-3 188.5q0 88 1.5 155t11.5 112.5t30.5 68.5t59.5 23q34 0 53 -15.5t28 -40.5t11 -56.5t2 -63.5h-20zM214 777l-68 117l-68 -117h-17l74 137h22l74 -137h-17z" />
    <glyph glyph-name="gcircumflex" unicode="&#x11d;" horiz-adv-x="264" 
d="M220 504q-1 -14 -1 -33v-36q0 -20 -1 -42v-429q0 -35 -2 -66.5t-11 -55t-26.5 -37t-48.5 -13.5q-29 0 -46 10.5t-26 27.5t-12 38.5t-3 43.5v9h20v-14q0 -51 17 -74t50 -23q23 0 36.5 9.5t20.5 29t9 48.5t2 67v91q-5 -29 -24 -46t-47 -17q-33 0 -51.5 17.5t-27 50.5
t-10.5 80.5t-2 107.5q0 67 2.5 116.5t11.5 82.5t27 49t50 16q33 0 50 -20t22 -46l1 58h20zM198 248q0 52 -1 97t-8 78t-21 51.5t-41 18.5t-41 -18.5t-21 -51.5t-8 -78t-1 -97q0 -51 1 -94.5t8 -75t21 -49.5t41 -18t41 18t21 49.5t8 75t1 94.5zM197 592l-68 117l-68 -117h-17
l74 137h22l74 -137h-17z" />
    <glyph glyph-name="Gbreve" unicode="&#x11e;" horiz-adv-x="273" 
d="M219 559q0 28 -1.5 56t-9 50.5t-22.5 36.5t-41 14q-32 0 -48.5 -24t-24.5 -68.5t-9 -107.5t-1 -140q0 -94 1.5 -163.5t9.5 -115t26.5 -68t52.5 -22.5q16 0 25 1t14.5 3t10.5 4.5t14 6.5v278h-84v19h104v-309q-20 -11 -36 -16.5t-48 -5.5q-38 0 -59.5 18t-33 62.5
t-14.5 119t-3 188.5q0 88 1.5 155t11.5 112.5t30.5 68.5t59.5 23q34 0 53 -15.5t28 -40.5t11 -56.5t2 -63.5h-20zM233 869q-10 -51 -30.5 -69t-57.5 -18q-33 0 -55.5 18.5t-30.5 68.5h16q5 -35 23 -51.5t47 -16.5q28 0 44.5 12t27.5 56h16z" />
    <glyph glyph-name="gbreve" unicode="&#x11f;" horiz-adv-x="264" 
d="M220 504q-1 -14 -1 -33v-36q0 -20 -1 -42v-429q0 -35 -2 -66.5t-11 -55t-26.5 -37t-48.5 -13.5q-29 0 -46 10.5t-26 27.5t-12 38.5t-3 43.5v9h20v-14q0 -51 17 -74t50 -23q23 0 36.5 9.5t20.5 29t9 48.5t2 67v91q-5 -29 -24 -46t-47 -17q-33 0 -51.5 17.5t-27 50.5
t-10.5 80.5t-2 107.5q0 67 2.5 116.5t11.5 82.5t27 49t50 16q33 0 50 -20t22 -46l1 58h20zM198 248q0 52 -1 97t-8 78t-21 51.5t-41 18.5t-41 -18.5t-21 -51.5t-8 -78t-1 -97q0 -51 1 -94.5t8 -75t21 -49.5t41 -18t41 18t21 49.5t8 75t1 94.5zM216 684q-10 -51 -30.5 -69
t-57.5 -18q-33 0 -55.5 18.5t-30.5 68.5h16q5 -35 23 -51.5t47 -16.5q28 0 44.5 12t27.5 56h16z" />
    <glyph glyph-name="Gdotaccent" unicode="&#x120;" horiz-adv-x="273" 
d="M219 559q0 28 -1.5 56t-9 50.5t-22.5 36.5t-41 14q-32 0 -48.5 -24t-24.5 -68.5t-9 -107.5t-1 -140q0 -94 1.5 -163.5t9.5 -115t26.5 -68t52.5 -22.5q16 0 25 1t14.5 3t10.5 4.5t14 6.5v278h-84v19h104v-309q-20 -11 -36 -16.5t-48 -5.5q-38 0 -59.5 18t-33 62.5
t-14.5 119t-3 188.5q0 88 1.5 155t11.5 112.5t30.5 68.5t59.5 23q34 0 53 -15.5t28 -40.5t11 -56.5t2 -63.5h-20zM134 826v59h24v-59h-24z" />
    <glyph glyph-name="gdotaccent" unicode="&#x121;" horiz-adv-x="264" 
d="M220 504q-1 -14 -1 -33v-36q0 -20 -1 -42v-429q0 -35 -2 -66.5t-11 -55t-26.5 -37t-48.5 -13.5q-29 0 -46 10.5t-26 27.5t-12 38.5t-3 43.5v9h20v-14q0 -51 17 -74t50 -23q23 0 36.5 9.5t20.5 29t9 48.5t2 67v91q-5 -29 -24 -46t-47 -17q-33 0 -51.5 17.5t-27 50.5
t-10.5 80.5t-2 107.5q0 67 2.5 116.5t11.5 82.5t27 49t50 16q33 0 50 -20t22 -46l1 58h20zM198 248q0 52 -1 97t-8 78t-21 51.5t-41 18.5t-41 -18.5t-21 -51.5t-8 -78t-1 -97q0 -51 1 -94.5t8 -75t21 -49.5t41 -18t41 18t21 49.5t8 75t1 94.5zM117 651v59h24v-59h-24z" />
    <glyph glyph-name="Gcommaaccent" unicode="&#x122;" horiz-adv-x="273" 
d="M219 559q0 28 -1.5 56t-9 50.5t-22.5 36.5t-41 14q-32 0 -48.5 -24t-24.5 -68.5t-9 -107.5t-1 -140q0 -94 1.5 -163.5t9.5 -115t26.5 -68t52.5 -22.5q16 0 25 1t14.5 3t10.5 4.5t14 6.5v278h-84v19h104v-309q-20 -11 -36 -16.5t-48 -5.5q-38 0 -59.5 18t-33 62.5
t-14.5 119t-3 188.5q0 88 1.5 155t11.5 112.5t30.5 68.5t59.5 23q34 0 53 -15.5t28 -40.5t11 -56.5t2 -63.5h-20zM123 -202h-14l35 148h22z" />
    <glyph glyph-name="gcommaaccent" unicode="&#x123;" horiz-adv-x="264" 
d="M220 504q-1 -14 -1 -33v-36q0 -20 -1 -42v-429q0 -35 -2 -66.5t-11 -55t-26.5 -37t-48.5 -13.5q-29 0 -46 10.5t-26 27.5t-12 38.5t-3 43.5v9h20v-14q0 -51 17 -74t50 -23q23 0 36.5 9.5t20.5 29t9 48.5t2 67v91q-5 -29 -24 -46t-47 -17q-33 0 -51.5 17.5t-27 50.5
t-10.5 80.5t-2 107.5q0 67 2.5 116.5t11.5 82.5t27 49t50 16q33 0 50 -20t22 -46l1 58h20zM198 248q0 52 -1 97t-8 78t-21 51.5t-41 18.5t-41 -18.5t-21 -51.5t-8 -78t-1 -97q0 -51 1 -94.5t8 -75t21 -49.5t41 -18t41 18t21 49.5t8 75t1 94.5zM158 729h14l-33 -137h-20z" />
    <glyph glyph-name="Hcircumflex" unicode="&#x124;" horiz-adv-x="301" 
d="M227 0v372h-153v-372h-20v723h20v-332h153v332h20v-723h-20zM218 777l-68 117l-68 -117h-17l74 137h22l74 -137h-17z" />
    <glyph glyph-name="hcircumflex" unicode="&#x125;" horiz-adv-x="252" 
d="M186 0v408q0 16 -1.5 31.5t-7 27.5t-15.5 19t-28 7q-29 0 -48 -28.5t-19 -79.5v-385h-20v723h20v-266q6 20 22.5 37.5t47.5 17.5q22 0 35.5 -8.5t21 -22t10 -31t2.5 -36.5v-414h-20zM125 777l-68 117l-68 -117h-17l74 137h22l74 -137h-17z" />
    <glyph glyph-name="Hbar" unicode="&#x126;" horiz-adv-x="301" 
d="M74 504h153v219h20v-723h-20v372h-153v-372h-20v723h20v-219zM74 485v-94h153v94h-153z" />
    <glyph glyph-name="hbar" unicode="&#x127;" horiz-adv-x="252" 
d="M186 0v408q0 16 -1.5 31.5t-7 27.5t-15.5 19t-28 7q-29 0 -48 -28.5t-19 -79.5v-385h-20v595h-45v19h45v109h20v-109h88v-19h-88v-138q6 20 22.5 37.5t47.5 17.5q22 0 35.5 -8.5t21 -22t10 -31t2.5 -36.5v-414h-20z" />
    <glyph glyph-name="Itilde" unicode="&#x128;" horiz-adv-x="128" 
d="M54 0v723h20v-723h-20zM157 863q-2 -30 -16 -42t-34 -12q-13 0 -24.5 5.5t-22 12t-20 12t-18.5 5.5q-14 0 -21.5 -7.5t-9.5 -27.5h-20q2 29 16 41.5t35 12.5q13 0 24.5 -5.5t22 -12t20 -12t18.5 -5.5q27 0 30 35h20z" />
    <glyph glyph-name="itilde" unicode="&#x129;" horiz-adv-x="114" 
d="M47 0v504h20v-504h-20zM150 678q-2 -30 -16 -42t-34 -12q-13 0 -24.5 5.5t-22 12t-20 12t-18.5 5.5q-14 0 -21.5 -7.5t-9.5 -27.5h-20q2 29 16 41.5t35 12.5q13 0 24.5 -5.5t22 -12t20 -12t18.5 -5.5q27 0 30 35h20z" />
    <glyph glyph-name="Imacron" unicode="&#x12a;" horiz-adv-x="128" 
d="M54 0v723h20v-723h-20zM-2 822v20h132v-20h-132z" />
    <glyph glyph-name="imacron" unicode="&#x12b;" horiz-adv-x="114" 
d="M47 0v504h20v-504h-20zM-9 637v20h132v-20h-132z" />
    <glyph glyph-name="Ibreve" unicode="&#x12c;" horiz-adv-x="128" 
d="M54 0v723h20v-723h-20zM151 869q-10 -51 -30.5 -69t-57.5 -18q-33 0 -55.5 18.5t-30.5 68.5h16q5 -35 23 -51.5t47 -16.5q28 0 44.5 12t27.5 56h16z" />
    <glyph glyph-name="ibreve" unicode="&#x12d;" horiz-adv-x="114" 
d="M47 0v504h20v-504h-20zM144 684q-10 -51 -30.5 -69t-57.5 -18q-33 0 -55.5 18.5t-30.5 68.5h16q5 -35 23 -51.5t47 -16.5q28 0 44.5 12t27.5 56h16z" />
    <glyph glyph-name="Iogonek" unicode="&#x12e;" horiz-adv-x="128" 
d="M94 -161q-14 -7 -24.5 -10.5t-24.5 -3.5q-27 0 -43.5 15.5t-16.5 44.5q0 19 7 36t17.5 31.5t24 26.5t26.5 21h-6v723h20v-723q-26 -19 -47.5 -48.5t-21.5 -64.5q0 -45 43 -45q10 0 21 3.5t20 8.5z" />
    <glyph glyph-name="iogonek" unicode="&#x12f;" horiz-adv-x="114" 
d="M87 -161q-14 -7 -24.5 -10.5t-24.5 -3.5q-27 0 -43.5 15.5t-16.5 44.5q0 19 7 36t17.5 31.5t24 26.5t26.5 21h-6v504h20v-504q-26 -19 -47.5 -48.5t-21.5 -64.5q0 -45 43 -45q10 0 21 3.5t20 8.5zM45 655v53h24v-53h-24z" />
    <glyph glyph-name="Idotaccent" unicode="&#x130;" horiz-adv-x="128" 
d="M54 0v723h20v-723h-20zM52 826v59h24v-59h-24z" />
    <glyph glyph-name="dotlessi" unicode="&#x131;" horiz-adv-x="114" 
d="M47 0v504h20v-504h-20z" />
    <glyph glyph-name="Jcircumflex" unicode="&#x134;" horiz-adv-x="252" 
d="M200 124q0 -23 -3 -47t-12.5 -44t-27.5 -32.5t-48 -12.5t-48 12.5t-27.5 32.5t-12.5 44t-3 47v9h20v-9q0 -22 2 -43t9 -37.5t21 -26.5t39 -10t39 10t21 26.5t9 37.5t2 43v599h20v-599zM258 777l-68 117l-68 -117h-17l74 137h22l74 -137h-17z" />
    <glyph glyph-name="jcircumflex" unicode="&#x135;" horiz-adv-x="114" 
d="M67 -128q0 -17 -1 -32t-5.5 -25.5t-14.5 -16.5t-27 -6q-5 0 -11 1t-14 3v19q7 -2 14 -3t11 -1q20 0 24 16.5t4 47.5v629h20v-632zM126 592l-68 117l-68 -117h-17l74 137h22l74 -137h-17z" />
    <glyph glyph-name="Kcommaaccent" unicode="&#x136;" horiz-adv-x="274" 
d="M249 0l-169 393l142 330h21l-143 -330l170 -393h-21zM54 0v723h20v-723h-20zM123 -202h-14l35 148h22z" />
    <glyph glyph-name="kcommaaccent" unicode="&#x137;" horiz-adv-x="229" 
d="M47 0v723h20v-723h-20zM206 0l-137 295l115 209h21l-115 -209l137 -295h-21zM106 -202h-14l35 148h22z" />
    <glyph glyph-name="kgreenlandic" unicode="&#x138;" horiz-adv-x="228" 
d="M46 0v504h20v-504h-20zM205 0l-137 295l115 209h21l-115 -209l137 -295h-21z" />
    <glyph glyph-name="Lacute" unicode="&#x139;" horiz-adv-x="223" 
d="M54 0v723h20v-704h136v-19h-156zM73 777h-17l84 137h24z" />
    <glyph glyph-name="lacute" unicode="&#x13a;" horiz-adv-x="114" 
d="M47 0v723h20v-723h-20zM35 767h-17l84 137h24z" />
    <glyph glyph-name="Lcommaaccent" unicode="&#x13b;" horiz-adv-x="223" 
d="M54 0v723h20v-704h136v-19h-156zM103 -202h-14l35 148h22z" />
    <glyph glyph-name="lcommaaccent" unicode="&#x13c;" horiz-adv-x="114" 
d="M47 0v723h20v-723h-20zM26 -202h-14l35 148h22z" />
    <glyph glyph-name="Lcaron" unicode="&#x13d;" horiz-adv-x="223" 
d="M54 0v723h20v-704h136v-19h-156zM136 556h-12l17 167h24z" />
    <glyph glyph-name="lcaron" unicode="&#x13e;" horiz-adv-x="114" 
d="M47 0v723h20v-723h-20zM104 556h-12l17 167h24z" />
    <glyph glyph-name="Ldot" unicode="&#x13f;" horiz-adv-x="223" 
d="M54 0v723h20v-704h136v-19h-156zM136 342v59h24v-59h-24z" />
    <glyph glyph-name="ldot" unicode="&#x140;" horiz-adv-x="114" 
d="M47 0v723h20v-723h-20zM102 353v59h24v-59h-24z" />
    <glyph glyph-name="Lslash" unicode="&#x141;" horiz-adv-x="223" 
d="M54 0v332l-48 -30v20l48 30v371h20v-358l98 64v-20l-98 -64v-326h136v-19h-156z" />
    <glyph glyph-name="lslash" unicode="&#x142;" horiz-adv-x="114" 
d="M67 428v-428h-20v412l-40 -32v23l40 32v288h20v-271l40 32v-24z" />
    <glyph glyph-name="Nacute" unicode="&#x143;" horiz-adv-x="311" 
d="M221 0l-147 703v-703h-20v723h36l147 -703v703h20v-723h-36zM135 777h-17l84 137h24z" />
    <glyph glyph-name="nacute" unicode="&#x144;" horiz-adv-x="252" 
d="M186 0v408q0 16 -1.5 31.5t-7 27.5t-15.5 19t-28 7q-29 0 -48 -28.5t-19 -79.5v-385h-20v397v24.5t-0.5 23.5t-1 26t-0.5 33h20l1 -48q7 21 23 38.5t48 17.5q22 0 35.5 -8.5t21 -22t10 -31t2.5 -36.5v-414h-20zM105 592h-17l84 137h24z" />
    <glyph glyph-name="Ncommaaccent" unicode="&#x145;" horiz-adv-x="311" 
d="M221 0l-147 703v-703h-20v723h36l147 -703v703h20v-723h-36zM126 -202h-14l35 148h22z" />
    <glyph glyph-name="ncommaaccent" unicode="&#x146;" horiz-adv-x="252" 
d="M186 0v408q0 16 -1.5 31.5t-7 27.5t-15.5 19t-28 7q-29 0 -48 -28.5t-19 -79.5v-385h-20v397v24.5t-0.5 23.5t-1 26t-0.5 33h20l1 -48q7 21 23 38.5t48 17.5q22 0 35.5 -8.5t21 -22t10 -31t2.5 -36.5v-414h-20zM96 -202h-14l35 148h22z" />
    <glyph glyph-name="Ncaron" unicode="&#x147;" horiz-adv-x="311" 
d="M221 0l-147 703v-703h-20v723h36l147 -703v703h20v-723h-36zM168 777h-22l-74 137h17l68 -117l68 117h17z" />
    <glyph glyph-name="ncaron" unicode="&#x148;" horiz-adv-x="252" 
d="M186 0v408q0 16 -1.5 31.5t-7 27.5t-15.5 19t-28 7q-29 0 -48 -28.5t-19 -79.5v-385h-20v397v24.5t-0.5 23.5t-1 26t-0.5 33h20l1 -48q7 21 23 38.5t48 17.5q22 0 35.5 -8.5t21 -22t10 -31t2.5 -36.5v-414h-20zM138 592h-22l-74 137h17l68 -117l68 117h17z" />
    <glyph glyph-name="Eng" unicode="&#x14a;" horiz-adv-x="311" 
d="M257 723v-851q0 -45 -13 -62.5t-42 -17.5q-9 0 -17 1.5t-13 3.5v19q15 -5 28 -5q20 0 28.5 11.5t8.5 49.5v116l-163 715v-703h-20v723h36l147 -642v642h20z" />
    <glyph glyph-name="eng" unicode="&#x14b;" horiz-adv-x="252" 
d="M206 -141q0 -37 -11 -52t-37 -15q-5 0 -11 1t-14 3v19q7 -2 14 -3t11 -1q16 0 22 10.5t6 37.5v549q0 16 -1.5 31.5t-7 27.5t-15.5 19t-28 7q-29 0 -48 -28.5t-19 -79.5v-385h-20v397v24.5t-0.5 23.5t-1 26t-0.5 33h20l1 -48q7 21 23 38.5t48 17.5q22 0 35.5 -8.5t21 -22
t10 -31t2.5 -36.5v-555z" />
    <glyph glyph-name="Omacron" unicode="&#x14c;" horiz-adv-x="308" 
d="M266 371q0 -100 -2 -172.5t-12.5 -119t-33 -69t-64.5 -22.5t-64.5 22.5t-33 69t-12.5 119t-2 172.5q0 88 2 155.5t12.5 114t33 70.5t64.5 24t64.5 -23.5t33 -70t12.5 -114.5t2 -156zM246 371q0 81 -2 145t-11 108.5t-27.5 68t-51.5 23.5q-34 0 -52.5 -23t-27.5 -67.5
t-10.5 -108.5t-1.5 -146q0 -96 1.5 -165t10.5 -113.5t27.5 -65t52.5 -20.5t52.5 21t27.5 65.5t10.5 113.5t1.5 164zM89 822v20h132v-20h-132z" />
    <glyph glyph-name="omacron" unicode="&#x14d;" horiz-adv-x="254" 
d="M218 248q0 -56 -1.5 -103t-10 -81.5t-27 -54t-52.5 -19.5t-52.5 19.5t-27 54t-10 82t-1.5 102.5q0 64 2 113.5t10.5 83.5t27 51.5t51.5 17.5t51.5 -17.5t27 -51.5t10.5 -83.5t2 -113.5zM198 248q0 52 -1 97.5t-8 78.5t-21 52t-41 19t-41 -19t-21 -52.5t-8 -78.5t-1 -97
q0 -51 1 -95t8 -76t21 -50t41 -18t41 18t21 50t8 76t1 95zM60 637v20h132v-20h-132z" />
    <glyph glyph-name="Obreve" unicode="&#x14e;" horiz-adv-x="308" 
d="M266 371q0 -100 -2 -172.5t-12.5 -119t-33 -69t-64.5 -22.5t-64.5 22.5t-33 69t-12.5 119t-2 172.5q0 88 2 155.5t12.5 114t33 70.5t64.5 24t64.5 -23.5t33 -70t12.5 -114.5t2 -156zM246 371q0 81 -2 145t-11 108.5t-27.5 68t-51.5 23.5q-34 0 -52.5 -23t-27.5 -67.5
t-10.5 -108.5t-1.5 -146q0 -96 1.5 -165t10.5 -113.5t27.5 -65t52.5 -20.5t52.5 21t27.5 65.5t10.5 113.5t1.5 164zM242 869q-10 -51 -30.5 -69t-57.5 -18q-33 0 -55.5 18.5t-30.5 68.5h16q5 -35 23 -51.5t47 -16.5q28 0 44.5 12t27.5 56h16z" />
    <glyph glyph-name="obreve" unicode="&#x14f;" horiz-adv-x="254" 
d="M218 248q0 -56 -1.5 -103t-10 -81.5t-27 -54t-52.5 -19.5t-52.5 19.5t-27 54t-10 82t-1.5 102.5q0 64 2 113.5t10.5 83.5t27 51.5t51.5 17.5t51.5 -17.5t27 -51.5t10.5 -83.5t2 -113.5zM198 248q0 52 -1 97.5t-8 78.5t-21 52t-41 19t-41 -19t-21 -52.5t-8 -78.5t-1 -97
q0 -51 1 -95t8 -76t21 -50t41 -18t41 18t21 50t8 76t1 95zM213 684q-10 -51 -30.5 -69t-57.5 -18q-33 0 -55.5 18.5t-30.5 68.5h16q5 -35 23 -51.5t47 -16.5q28 0 44.5 12t27.5 56h16z" />
    <glyph glyph-name="Ohungarumlaut" unicode="&#x150;" horiz-adv-x="308" 
d="M266 371q0 -100 -2 -172.5t-12.5 -119t-33 -69t-64.5 -22.5t-64.5 22.5t-33 69t-12.5 119t-2 172.5q0 88 2 155.5t12.5 114t33 70.5t64.5 24t64.5 -23.5t33 -70t12.5 -114.5t2 -156zM246 371q0 81 -2 145t-11 108.5t-27.5 68t-51.5 23.5q-34 0 -52.5 -23t-27.5 -67.5
t-10.5 -108.5t-1.5 -146q0 -96 1.5 -165t10.5 -113.5t27.5 -65t52.5 -20.5t52.5 21t27.5 65.5t10.5 113.5t1.5 164zM193 777h-17l84 137h24zM107 777h-17l84 137h24z" />
    <glyph glyph-name="ohungarumlaut" unicode="&#x151;" horiz-adv-x="254" 
d="M218 248q0 -56 -1.5 -103t-10 -81.5t-27 -54t-52.5 -19.5t-52.5 19.5t-27 54t-10 82t-1.5 102.5q0 64 2 113.5t10.5 83.5t27 51.5t51.5 17.5t51.5 -17.5t27 -51.5t10.5 -83.5t2 -113.5zM198 248q0 52 -1 97.5t-8 78.5t-21 52t-41 19t-41 -19t-21 -52.5t-8 -78.5t-1 -97
q0 -51 1 -95t8 -76t21 -50t41 -18t41 18t21 50t8 76t1 95zM158 592h-17l84 137h24zM72 592h-17l84 137h24z" />
    <glyph glyph-name="Racute" unicode="&#x154;" horiz-adv-x="295" 
d="M242 0q-5 12 -8 31.5t-4.5 40t-2.5 39.5t-1 31v115q0 31 -3 52.5t-13 34.5t-27.5 19t-46.5 6h-62v-369h-20v723h93q36 0 56 -16.5t29 -42t10.5 -57t1.5 -62.5q0 -22 -1.5 -48.5t-8 -50.5t-20 -41.5t-37.5 -22.5q24 -5 38 -15.5t20.5 -25.5t8.5 -35.5t2 -45.5v-118
q0 -13 1 -32t3 -39.5t5 -39.5t8 -31h-21zM224 545q0 29 -1 57.5t-9 51t-25 36.5t-49 14h-66v-316h62q32 0 50 15.5t26.5 39t10 51t1.5 51.5zM125 777h-17l84 137h24z" />
    <glyph glyph-name="racute" unicode="&#x155;" horiz-adv-x="154" 
d="M153 491q-4 1 -8.5 1.5t-11.5 0.5q-18 0 -30.5 -10t-20.5 -25.5t-11.5 -34t-3.5 -35.5v-388h-20v396v33q0 15 -0.5 34.5t-1.5 40.5h20l1 -49q7 23 24.5 40t40.5 17q10 0 22 -3v-18zM71 592h-17l84 137h24z" />
    <glyph glyph-name="Rcommaaccent" unicode="&#x156;" horiz-adv-x="295" 
d="M242 0q-5 12 -8 31.5t-4.5 40t-2.5 39.5t-1 31v115q0 31 -3 52.5t-13 34.5t-27.5 19t-46.5 6h-62v-369h-20v723h93q36 0 56 -16.5t29 -42t10.5 -57t1.5 -62.5q0 -22 -1.5 -48.5t-8 -50.5t-20 -41.5t-37.5 -22.5q24 -5 38 -15.5t20.5 -25.5t8.5 -35.5t2 -45.5v-118
q0 -13 1 -32t3 -39.5t5 -39.5t8 -31h-21zM224 545q0 29 -1 57.5t-9 51t-25 36.5t-49 14h-66v-316h62q32 0 50 15.5t26.5 39t10 51t1.5 51.5zM122 -202h-14l35 148h22z" />
    <glyph glyph-name="rcommaaccent" unicode="&#x157;" horiz-adv-x="154" 
d="M153 491q-4 1 -8.5 1.5t-11.5 0.5q-18 0 -30.5 -10t-20.5 -25.5t-11.5 -34t-3.5 -35.5v-388h-20v396v33q0 15 -0.5 34.5t-1.5 40.5h20l1 -49q7 23 24.5 40t40.5 17q10 0 22 -3v-18zM26 -202h-14l35 148h22z" />
    <glyph glyph-name="Rcaron" unicode="&#x158;" horiz-adv-x="295" 
d="M242 0q-5 12 -8 31.5t-4.5 40t-2.5 39.5t-1 31v115q0 31 -3 52.5t-13 34.5t-27.5 19t-46.5 6h-62v-369h-20v723h93q36 0 56 -16.5t29 -42t10.5 -57t1.5 -62.5q0 -22 -1.5 -48.5t-8 -50.5t-20 -41.5t-37.5 -22.5q24 -5 38 -15.5t20.5 -25.5t8.5 -35.5t2 -45.5v-118
q0 -13 1 -32t3 -39.5t5 -39.5t8 -31h-21zM224 545q0 29 -1 57.5t-9 51t-25 36.5t-49 14h-66v-316h62q32 0 50 15.5t26.5 39t10 51t1.5 51.5zM150 777h-22l-74 137h17l68 -117l68 117h17z" />
    <glyph glyph-name="rcaron" unicode="&#x159;" horiz-adv-x="154" 
d="M153 491q-4 1 -8.5 1.5t-11.5 0.5q-18 0 -30.5 -10t-20.5 -25.5t-11.5 -34t-3.5 -35.5v-388h-20v396v33q0 15 -0.5 34.5t-1.5 40.5h20l1 -49q7 23 24.5 40t40.5 17q10 0 22 -3v-18zM104 592h-22l-74 137h17l68 -117l68 117h17z" />
    <glyph glyph-name="Sacute" unicode="&#x15a;" horiz-adv-x="268" 
d="M234 119q0 -27 -4 -50.5t-15 -41.5t-29.5 -28.5t-48.5 -10.5q-38 0 -58.5 13t-30.5 36t-12 54.5t-2 67.5v16h20v-16q0 -32 1.5 -59.5t9.5 -48t25 -32.5t47 -12q24 0 39 9t23.5 24.5t11.5 36t3 42.5q0 42 -14 85t-31 81l-98 221q-9 20 -15 34.5t-9.5 26.5t-5 23t-1.5 24
q0 62 25 91.5t68 29.5q34 0 53 -14.5t28.5 -38t11.5 -53.5t2 -61v-10h-20v9q0 29 -1.5 56t-9 47.5t-22.5 33t-42 12.5q-35 0 -54 -25.5t-19 -76.5q0 -21 6 -42.5t23 -59.5l99 -219q19 -42 32.5 -87t13.5 -87zM111 777h-17l84 137h24z" />
    <glyph glyph-name="sacute" unicode="&#x15b;" horiz-adv-x="228" 
d="M199 95q0 -45 -19.5 -76t-65.5 -31q-28 0 -44.5 10.5t-25.5 27t-12 38t-3 43.5v18h20v-18q0 -19 2 -37t8.5 -32t19.5 -22.5t35 -8.5q35 0 50 23t15 65q0 36 -9 58.5t-28 50.5l-58 81q-23 32 -36.5 59.5t-13.5 67.5q0 19 4.5 37t14 32.5t25 23.5t38.5 9q28 0 44 -11
t24.5 -29t10.5 -39.5t2 -42.5v-11h-20v13q0 15 -1 32.5t-7 33t-18.5 25.5t-34.5 10q-31 0 -46.5 -24t-15.5 -59q0 -29 10 -53.5t36 -60.5l58 -81q23 -32 32 -59t9 -63zM93 592h-17l84 137h24z" />
    <glyph glyph-name="Scircumflex" unicode="&#x15c;" horiz-adv-x="268" 
d="M234 119q0 -27 -4 -50.5t-15 -41.5t-29.5 -28.5t-48.5 -10.5q-38 0 -58.5 13t-30.5 36t-12 54.5t-2 67.5v16h20v-16q0 -32 1.5 -59.5t9.5 -48t25 -32.5t47 -12q24 0 39 9t23.5 24.5t11.5 36t3 42.5q0 42 -14 85t-31 81l-98 221q-9 20 -15 34.5t-9.5 26.5t-5 23t-1.5 24
q0 62 25 91.5t68 29.5q34 0 53 -14.5t28.5 -38t11.5 -53.5t2 -61v-10h-20v9q0 29 -1.5 56t-9 47.5t-22.5 33t-42 12.5q-35 0 -54 -25.5t-19 -76.5q0 -21 6 -42.5t23 -59.5l99 -219q19 -42 32.5 -87t13.5 -87zM201 777l-68 117l-68 -117h-17l74 137h22l74 -137h-17z" />
    <glyph glyph-name="scircumflex" unicode="&#x15d;" horiz-adv-x="228" 
d="M199 95q0 -45 -19.5 -76t-65.5 -31q-28 0 -44.5 10.5t-25.5 27t-12 38t-3 43.5v18h20v-18q0 -19 2 -37t8.5 -32t19.5 -22.5t35 -8.5q35 0 50 23t15 65q0 36 -9 58.5t-28 50.5l-58 81q-23 32 -36.5 59.5t-13.5 67.5q0 19 4.5 37t14 32.5t25 23.5t38.5 9q28 0 44 -11
t24.5 -29t10.5 -39.5t2 -42.5v-11h-20v13q0 15 -1 32.5t-7 33t-18.5 25.5t-34.5 10q-31 0 -46.5 -24t-15.5 -59q0 -29 10 -53.5t36 -60.5l58 -81q23 -32 32 -59t9 -63zM183 592l-68 117l-68 -117h-17l74 137h22l74 -137h-17z" />
    <glyph glyph-name="Scedilla" unicode="&#x15e;" horiz-adv-x="268" 
d="M200 -121q0 -42 -25.5 -60.5t-59.5 -18.5q-18 0 -32 5t-27 13l9 18q14 -8 26.5 -12.5t26.5 -4.5q22 0 41.5 13t19.5 45q0 25 -12 36.5t-33 11.5q-14 0 -25 -5.5t-19 -10.5l-6 11l37 69q-32 3 -49.5 17t-26 36.5t-10 52t-1.5 64.5v16h20v-16q0 -32 1.5 -59.5t9.5 -48
t25 -32.5t47 -12q24 0 39 9t23.5 24.5t11.5 36t3 42.5q0 42 -14 85t-31 81l-98 221q-9 20 -15 34.5t-9.5 26.5t-5 23t-1.5 24q0 62 25 91.5t68 29.5q34 0 53 -14.5t28.5 -38t11.5 -53.5t2 -61v-10h-20v9q0 29 -1.5 56t-9 47.5t-22.5 33t-42 12.5q-35 0 -54 -25.5t-19 -76.5
q0 -21 6 -42.5t23 -59.5l99 -219q19 -42 32.5 -87t13.5 -87q0 -26 -4 -49.5t-14 -41t-28 -28.5t-46 -12l-27 -49q8 2 13 3t14 1q27 0 42.5 -16.5t15.5 -47.5z" />
    <glyph glyph-name="scedilla" unicode="&#x15f;" horiz-adv-x="228" 
d="M183 -121q0 -42 -25.5 -60.5t-59.5 -18.5q-18 0 -32 5t-27 13l9 18q14 -8 26.5 -12.5t26.5 -4.5q22 0 41.5 13t19.5 45q0 25 -12 36.5t-33 11.5q-14 0 -25 -5.5t-19 -10.5l-6 11l37 69q-24 2 -39 12.5t-23 27t-10.5 37t-2.5 41.5v18h20v-18q0 -19 2 -37t8.5 -32
t19.5 -22.5t35 -8.5q35 0 50 23t15 65q0 36 -9 58.5t-28 50.5l-58 81q-23 32 -36.5 59.5t-13.5 67.5q0 19 4.5 37t14 32.5t25 23.5t38.5 9q28 0 44 -11t24.5 -29t10.5 -39.5t2 -42.5v-11h-20v13q0 15 -1 32.5t-7 33t-18.5 25.5t-34.5 10q-31 0 -46.5 -24t-15.5 -59
q0 -29 10 -53.5t36 -60.5l58 -81q23 -32 32 -59t9 -63q0 -42 -17 -71.5t-56 -34.5l-28 -50q8 2 13 3t14 1q27 0 42.5 -16.5t15.5 -47.5z" />
    <glyph glyph-name="uni0162" unicode="&#x162;" horiz-adv-x="208" 
d="M114 704v-704h-20v704h-82v19h184v-19h-82zM73 -202h-14l35 148h22z" />
    <glyph glyph-name="uni0163" unicode="&#x163;" horiz-adv-x="143" 
d="M131 -5q-13 -4 -27 -4q-31 0 -38.5 21.5t-7.5 61.5v411h-42v19h42v65l20 8v-73h46v-19h-46v-411q0 -37 5 -50.5t24 -13.5q13 0 24 4v-19zM54 -202h-14l35 148h22z" />
    <glyph glyph-name="Tcaron" unicode="&#x164;" horiz-adv-x="208" 
d="M114 704v-704h-20v704h-82v19h184v-19h-82zM115 777h-22l-74 137h17l68 -117l68 117h17z" />
    <glyph glyph-name="tcaron" unicode="&#x165;" horiz-adv-x="143" 
d="M131 -5q-13 -4 -27 -4q-31 0 -38.5 21.5t-7.5 61.5v411h-42v19h42v65l20 8v-73h46v-19h-46v-411q0 -37 5 -50.5t24 -13.5q13 0 24 4v-19zM148 556h-12l17 167h24z" />
    <glyph glyph-name="Tbar" unicode="&#x166;" horiz-adv-x="208" 
d="M114 372v-372h-20v372h-72v19h72v313h-82v19h184v-19h-82v-313h73v-19h-73z" />
    <glyph glyph-name="tbar" unicode="&#x167;" horiz-adv-x="143" 
d="M131 -5q-8 -2 -15 -3t-12 -1q-31 0 -38.5 21.5t-7.5 61.5v281h-42v19h42v111h-42v19h42v65l20 8v-73h46v-19h-46v-111h46v-19h-46v-281q0 -37 5 -50.5t24 -13.5q4 0 11 1t13 3v-19z" />
    <glyph glyph-name="Utilde" unicode="&#x168;" horiz-adv-x="286" 
d="M234 124q0 -23 -3 -47t-12.5 -44t-27.5 -32.5t-48 -12.5t-48 12.5t-27.5 32.5t-12.5 44t-3 47v599h20v-599q0 -22 2 -43t9 -37.5t21 -26.5t39 -10t39 10t21 26.5t9 37.5t2 43v599h20v-599zM234 863q-2 -30 -16 -42t-34 -12q-13 0 -24.5 5.5t-22 12t-20 12t-18.5 5.5
q-14 0 -21.5 -7.5t-9.5 -27.5h-20q2 29 16 41.5t35 12.5q13 0 24.5 -5.5t22 -12t20 -12t18.5 -5.5q27 0 30 35h20z" />
    <glyph glyph-name="utilde" unicode="&#x169;" horiz-adv-x="252" 
d="M187 0l-1 48q-7 -21 -22 -38.5t-47 -17.5q-22 0 -36 8.5t-21.5 22t-10.5 31t-3 36.5v414h20v-408q0 -17 2 -32t7.5 -27t16 -19t28.5 -7q29 0 47 28.5t18 79.5v385h20v-397q0 -26 0.5 -48t1.5 -59h-20zM218 678q-2 -30 -16 -42t-34 -12q-13 0 -24.5 5.5t-22 12t-20 12
t-18.5 5.5q-14 0 -21.5 -7.5t-9.5 -27.5h-20q2 29 16 41.5t35 12.5q13 0 24.5 -5.5t22 -12t20 -12t18.5 -5.5q27 0 30 35h20z" />
    <glyph glyph-name="Umacron" unicode="&#x16a;" horiz-adv-x="286" 
d="M234 124q0 -23 -3 -47t-12.5 -44t-27.5 -32.5t-48 -12.5t-48 12.5t-27.5 32.5t-12.5 44t-3 47v599h20v-599q0 -22 2 -43t9 -37.5t21 -26.5t39 -10t39 10t21 26.5t9 37.5t2 43v599h20v-599zM75 822v20h132v-20h-132z" />
    <glyph glyph-name="umacron" unicode="&#x16b;" horiz-adv-x="252" 
d="M187 0l-1 48q-7 -21 -22 -38.5t-47 -17.5q-22 0 -36 8.5t-21.5 22t-10.5 31t-3 36.5v414h20v-408q0 -17 2 -32t7.5 -27t16 -19t28.5 -7q29 0 47 28.5t18 79.5v385h20v-397q0 -26 0.5 -48t1.5 -59h-20zM59 637v20h132v-20h-132z" />
    <glyph glyph-name="Ubreve" unicode="&#x16c;" horiz-adv-x="286" 
d="M234 124q0 -23 -3 -47t-12.5 -44t-27.5 -32.5t-48 -12.5t-48 12.5t-27.5 32.5t-12.5 44t-3 47v599h20v-599q0 -22 2 -43t9 -37.5t21 -26.5t39 -10t39 10t21 26.5t9 37.5t2 43v599h20v-599zM228 869q-10 -51 -30.5 -69t-57.5 -18q-33 0 -55.5 18.5t-30.5 68.5h16
q5 -35 23 -51.5t47 -16.5q28 0 44.5 12t27.5 56h16z" />
    <glyph glyph-name="ubreve" unicode="&#x16d;" horiz-adv-x="252" 
d="M187 0l-1 48q-7 -21 -22 -38.5t-47 -17.5q-22 0 -36 8.5t-21.5 22t-10.5 31t-3 36.5v414h20v-408q0 -17 2 -32t7.5 -27t16 -19t28.5 -7q29 0 47 28.5t18 79.5v385h20v-397q0 -26 0.5 -48t1.5 -59h-20zM212 684q-10 -51 -30.5 -69t-57.5 -18q-33 0 -55.5 18.5t-30.5 68.5
h16q5 -35 23 -51.5t47 -16.5q28 0 44.5 12t27.5 56h16z" />
    <glyph glyph-name="Uring" unicode="&#x16e;" horiz-adv-x="286" 
d="M234 124q0 -23 -3 -47t-12.5 -44t-27.5 -32.5t-48 -12.5t-48 12.5t-27.5 32.5t-12.5 44t-3 47v599h20v-599q0 -22 2 -43t9 -37.5t21 -26.5t39 -10t39 10t21 26.5t9 37.5t2 43v599h20v-599zM69 821q0 31 20.5 51.5t51.5 20.5t51.5 -20.5t20.5 -51.5t-20.5 -51.5
t-51.5 -20.5t-51.5 20.5t-20.5 51.5zM88 821q0 -23 15 -39t38 -16t38 16t15 39t-15 39t-38 16t-38 -16t-15 -39z" />
    <glyph glyph-name="uring" unicode="&#x16f;" horiz-adv-x="252" 
d="M187 0l-1 48q-7 -21 -22 -38.5t-47 -17.5q-22 0 -36 8.5t-21.5 22t-10.5 31t-3 36.5v414h20v-408q0 -17 2 -32t7.5 -27t16 -19t28.5 -7q29 0 47 28.5t18 79.5v385h20v-397q0 -26 0.5 -48t1.5 -59h-20zM53 666q0 31 20.5 51.5t51.5 20.5t51.5 -20.5t20.5 -51.5
t-20.5 -51.5t-51.5 -20.5t-51.5 20.5t-20.5 51.5zM72 666q0 -23 15 -39t38 -16t38 16t15 39t-15 39t-38 16t-38 -16t-15 -39z" />
    <glyph glyph-name="Uhungarumlaut" unicode="&#x170;" horiz-adv-x="286" 
d="M234 124q0 -23 -3 -47t-12.5 -44t-27.5 -32.5t-48 -12.5t-48 12.5t-27.5 32.5t-12.5 44t-3 47v599h20v-599q0 -22 2 -43t9 -37.5t21 -26.5t39 -10t39 10t21 26.5t9 37.5t2 43v599h20v-599zM177 777h-17l84 137h24zM91 777h-17l84 137h24z" />
    <glyph glyph-name="uhungarumlaut" unicode="&#x171;" horiz-adv-x="252" 
d="M187 0l-1 48q-7 -21 -22 -38.5t-47 -17.5q-22 0 -36 8.5t-21.5 22t-10.5 31t-3 36.5v414h20v-408q0 -17 2 -32t7.5 -27t16 -19t28.5 -7q29 0 47 28.5t18 79.5v385h20v-397q0 -26 0.5 -48t1.5 -59h-20zM155 592h-17l84 137h24zM69 592h-17l84 137h24z" />
    <glyph glyph-name="Uogonek" unicode="&#x172;" horiz-adv-x="286" 
d="M201 -161q-14 -7 -24.5 -10.5t-24.5 -3.5q-27 0 -43.5 15.5t-16.5 44.5q0 32 18 58.5t41 44.5h-8q-30 0 -48 12.5t-27.5 32.5t-12.5 44t-3 47v599h20v-599q0 -22 2 -43t9 -37.5t21 -26.5t39 -10t39 10t21 26.5t9 37.5t2 43v599h20v-599q0 -20 -2 -41.5t-9 -39.5t-20 -32
t-34 -19q-23 -20 -40 -46.5t-17 -58.5q0 -45 43 -45q10 0 21 3.5t20 8.5z" />
    <glyph glyph-name="uogonek" unicode="&#x173;" horiz-adv-x="252" 
d="M227 -161q-14 -7 -24.5 -10.5t-24.5 -3.5q-27 0 -43.5 15.5t-16.5 44.5q0 19 7 36t17.5 31.5t24 26.5t26.5 21h-6l-1 48q-7 -21 -22 -38.5t-47 -17.5q-22 0 -36 8.5t-21.5 22t-10.5 31t-3 36.5v414h20v-408q0 -17 2 -32t7.5 -27t16 -19t28.5 -7q29 0 47 28.5t18 79.5v385
h20v-397q0 -26 0.5 -53t1.5 -54q-26 -19 -47.5 -48.5t-21.5 -64.5q0 -45 43 -45q10 0 21 3.5t20 8.5z" />
    <glyph glyph-name="Wcircumflex" unicode="&#x174;" horiz-adv-x="470" 
d="M343 0h-24l-84 671l-95 -671h-24l-104 723h20l96 -674l95 674h24l86 -674l105 674h20zM303 777l-68 117l-68 -117h-17l74 137h22l74 -137h-17z" />
    <glyph glyph-name="wcircumflex" unicode="&#x175;" horiz-adv-x="383" 
d="M283 0h-24l-68 450l-70 -450h-24l-79 504h21l71 -461l70 461h23l70 -462l71 462h21zM259 592l-68 117l-68 -117h-17l74 137h22l74 -137h-17z" />
    <glyph glyph-name="Ycircumflex" unicode="&#x176;" horiz-adv-x="260" 
d="M140 326v-326h-20v326l-114 397h21l103 -364l103 364h21zM197 777l-68 117l-68 -117h-17l74 137h22l74 -137h-17z" />
    <glyph glyph-name="ycircumflex" unicode="&#x177;" horiz-adv-x="230" 
d="M90 -200h-21l35 200l-86 504h21l76 -466l76 466h21zM182 592l-68 117l-68 -117h-17l74 137h22l74 -137h-17z" />
    <glyph glyph-name="Zacute" unicode="&#x179;" horiz-adv-x="230" 
d="M14 0v19l181 685h-167v19h188v-19l-181 -685h181v-19h-202zM96 777h-17l84 137h24z" />
    <glyph glyph-name="zacute" unicode="&#x17a;" horiz-adv-x="201" 
d="M14 0v19l153 466h-140v19h158v-19l-150 -466h152v-19h-173zM79 592h-17l84 137h24z" />
    <glyph glyph-name="Zdotaccent" unicode="&#x17b;" horiz-adv-x="230" 
d="M14 0v19l181 685h-167v19h188v-19l-181 -685h181v-19h-202zM106 826v59h24v-59h-24z" />
    <glyph glyph-name="zdotaccent" unicode="&#x17c;" horiz-adv-x="201" 
d="M14 0v19l153 466h-140v19h158v-19l-150 -466h152v-19h-173zM89 651v59h24v-59h-24z" />
    <glyph glyph-name="Scommaaccent" unicode="&#x218;" horiz-adv-x="268" 
d="M234 119q0 -27 -4 -50.5t-15 -41.5t-29.5 -28.5t-48.5 -10.5q-38 0 -58.5 13t-30.5 36t-12 54.5t-2 67.5v16h20v-16q0 -32 1.5 -59.5t9.5 -48t25 -32.5t47 -12q24 0 39 9t23.5 24.5t11.5 36t3 42.5q0 42 -14 85t-31 81l-98 221q-9 20 -15 34.5t-9.5 26.5t-5 23t-1.5 24
q0 62 25 91.5t68 29.5q34 0 53 -14.5t28.5 -38t11.5 -53.5t2 -61v-10h-20v9q0 29 -1.5 56t-9 47.5t-22.5 33t-42 12.5q-35 0 -54 -25.5t-19 -76.5q0 -21 6 -42.5t23 -59.5l99 -219q19 -42 32.5 -87t13.5 -87zM106 -202h-14l35 148h22z" />
    <glyph glyph-name="scommaaccent" unicode="&#x219;" horiz-adv-x="228" 
d="M199 95q0 -45 -19.5 -76t-65.5 -31q-28 0 -44.5 10.5t-25.5 27t-12 38t-3 43.5v18h20v-18q0 -19 2 -37t8.5 -32t19.5 -22.5t35 -8.5q35 0 50 23t15 65q0 36 -9 58.5t-28 50.5l-58 81q-23 32 -36.5 59.5t-13.5 67.5q0 19 4.5 37t14 32.5t25 23.5t38.5 9q28 0 44 -11
t24.5 -29t10.5 -39.5t2 -42.5v-11h-20v13q0 15 -1 32.5t-7 33t-18.5 25.5t-34.5 10q-31 0 -46.5 -24t-15.5 -59q0 -29 10 -53.5t36 -60.5l58 -81q23 -32 32 -59t9 -63zM83 -202h-14l35 148h22z" />
    <glyph glyph-name="uni021A" unicode="&#x21a;" horiz-adv-x="208" 
d="M114 704v-704h-20v704h-82v19h184v-19h-82zM73 -202h-14l35 148h22z" />
    <glyph glyph-name="uni021B" unicode="&#x21b;" horiz-adv-x="143" 
d="M131 -5q-13 -4 -27 -4q-31 0 -38.5 21.5t-7.5 61.5v411h-42v19h42v65l20 8v-73h46v-19h-46v-411q0 -37 5 -50.5t24 -13.5q13 0 24 4v-19zM54 -202h-14l35 148h22z" />
    <glyph glyph-name="dotlessj" unicode="&#x237;" horiz-adv-x="114" 
d="M67 -128q0 -17 -1 -32t-5.5 -25.5t-14.5 -16.5t-27 -6q-5 0 -11 1t-14 3v19q7 -2 14 -3t11 -1q20 0 24 16.5t4 47.5v629h20v-632z" />
    <glyph glyph-name="caron" unicode="&#x2c7;" horiz-adv-x="100" 
d="M61 592h-22l-74 137h17l68 -117l68 117h17z" />
    <glyph glyph-name="uni02C9" unicode="&#x2c9;" horiz-adv-x="100" 
d="M-16 822v20h132v-20h-132z" />
    <glyph glyph-name="breve" unicode="&#x2d8;" horiz-adv-x="100" 
d="M137 684q-10 -51 -30.5 -69t-57.5 -18q-33 0 -55.5 18.5t-30.5 68.5h16q5 -35 23 -51.5t47 -16.5q28 0 44.5 12t27.5 56h16z" />
    <glyph glyph-name="dotaccent" unicode="&#x2d9;" horiz-adv-x="100" 
d="M38 651v59h24v-59h-24z" />
    <glyph glyph-name="ring" unicode="&#x2da;" horiz-adv-x="100" 
d="M-22 666q0 31 20.5 51.5t51.5 20.5t51.5 -20.5t20.5 -51.5t-20.5 -51.5t-51.5 -20.5t-51.5 20.5t-20.5 51.5zM-3 666q0 -23 15 -39t38 -16t38 16t15 39t-15 39t-38 16t-38 -16t-15 -39z" />
    <glyph glyph-name="ogonek" unicode="&#x2db;" horiz-adv-x="100" 
d="M87 -161q-14 -7 -24.5 -10.5t-24.5 -3.5q-27 0 -43.5 15.5t-16.5 44.5q0 19 7 36t18 32t24.5 27t27.5 21h13q-13 -9 -25.5 -21.5t-22.5 -27t-16 -31t-6 -34.5q0 -45 43 -45q10 0 21 3.5t20 8.5z" />
    <glyph glyph-name="hungarumlaut" unicode="&#x2dd;" horiz-adv-x="100" 
d="M68 592h-17l84 137h24zM-18 592h-17l84 137h24z" />
    <glyph glyph-name="uni0394" unicode="&#x394;" horiz-adv-x="324" 
d="M12 0l139 723h20l141 -723h-300zM161 667l-125 -648h252z" />
    <glyph glyph-name="uni03A9" unicode="&#x3a9;" horiz-adv-x="308" 
d="M154 735q42 0 64.5 -24t33 -70.5t12.5 -114t2 -155.5q0 -75 -3 -129.5t-10.5 -93.5t-19.5 -65.5t-30 -45.5v-17h68v-20h-88v45q16 16 27.5 35.5t19.5 54.5t12 91t4 145q0 82 -1.5 146t-10.5 108.5t-27.5 67.5t-52.5 23t-52.5 -23t-27.5 -67.5t-10.5 -108.5t-1.5 -146
q0 -89 4 -145t12 -91t19.5 -54.5t27.5 -35.5v-45h-88v20h68v17q-18 19 -30 45.5t-19.5 65.5t-10.5 93.5t-3 129.5q0 88 2 155.5t12.5 114t33 70.5t64.5 24z" />
    <glyph glyph-name="uni03BC" unicode="&#x3bc;" horiz-adv-x="253" 
d="M47 504h20v-421q0 -29 11 -50.5t43 -21.5q29 0 47 28.5t18 79.5v385h20v-397v-48t2 -59h-20l-1 48q-7 -21 -22 -38.5t-47 -17.5q-17 0 -30 8t-21 23v-219h-20v700z" />
    <glyph glyph-name="pi" unicode="&#x3c0;" horiz-adv-x="363" 
d="M327 8q-6 -5 -15 -8.5t-20 -3.5q-26 0 -38 16t-12 54v420h-122v-486h-20v486h-56v18h280v-18h-62v-420q0 -26 6.5 -39t23.5 -13q18 0 35 13v-19z" />
    <glyph glyph-name="Wgrave" unicode="&#x1e80;" horiz-adv-x="470" 
d="M343 0h-24l-84 671l-95 -671h-24l-104 723h20l96 -674l95 674h24l86 -674l105 674h20zM254 777l-91 137h24l84 -137h-17z" />
    <glyph glyph-name="wgrave" unicode="&#x1e81;" horiz-adv-x="383" 
d="M283 0h-24l-68 450l-70 -450h-24l-79 504h21l71 -461l70 461h23l70 -462l71 462h21zM212 592l-91 137h24l84 -137h-17z" />
    <glyph glyph-name="Wacute" unicode="&#x1e82;" horiz-adv-x="470" 
d="M343 0h-24l-84 671l-95 -671h-24l-104 723h20l96 -674l95 674h24l86 -674l105 674h20zM210 777h-17l84 137h24z" />
    <glyph glyph-name="wacute" unicode="&#x1e83;" horiz-adv-x="383" 
d="M283 0h-24l-68 450l-70 -450h-24l-79 504h21l71 -461l70 461h23l70 -462l71 462h21zM169 592h-17l84 137h24z" />
    <glyph glyph-name="Wdieresis" unicode="&#x1e84;" horiz-adv-x="470" 
d="M343 0h-24l-84 671l-95 -671h-24l-104 723h20l96 -674l95 674h24l86 -674l105 674h20zM264 826v59h24v-59h-24zM182 826v59h24v-59h-24z" />
    <glyph glyph-name="wdieresis" unicode="&#x1e85;" horiz-adv-x="383" 
d="M283 0h-24l-68 450l-70 -450h-24l-79 504h21l71 -461l70 461h23l70 -462l71 462h21zM220 651v59h24v-59h-24zM138 651v59h24v-59h-24z" />
    <glyph glyph-name="Ygrave" unicode="&#x1ef2;" horiz-adv-x="260" 
d="M140 326v-326h-20v326l-114 397h21l103 -364l103 364h21zM150 777l-91 137h24l84 -137h-17z" />
    <glyph glyph-name="ygrave" unicode="&#x1ef3;" horiz-adv-x="230" 
d="M90 -200h-21l35 200l-86 504h21l76 -466l76 466h21zM138 592l-91 137h24l84 -137h-17z" />
    <glyph glyph-name="fraction" unicode="&#x2044;" horiz-adv-x="110" 
d="M-70 -12h-20l275 747h20z" />
    <glyph glyph-name="zero.superior" unicode="&#x2070;" 
d="M169 684q0 -62 -2.5 -105t-11 -70t-23 -39t-38.5 -12q-25 0 -39.5 12.5t-22 39.5t-10 70t-2.5 104q0 50 2.5 90t10 67.5t22 42.5t39.5 15t40 -15t22.5 -42.5t10 -67.5t2.5 -90zM150 684q0 45 -2 81.5t-8 62.5t-17 40t-29 14t-29 -15t-17 -41t-7.5 -62.5t-1.5 -79.5
q0 -56 2 -96t8 -65t16.5 -36.5t28.5 -11.5q36 0 46 49t10 160z" />
    <glyph glyph-name="four.superior" unicode="&#x2074;" 
d="M140 561v-99h-19v99h-110v15l107 319h22v-316h39v-18h-39zM121 844l-89 -265h89v265z" />
    <glyph glyph-name="five.superior" unicode="&#x2075;" 
d="M172 605q0 -30 -2 -57t-9 -47t-21 -31.5t-39 -11.5q-24 0 -38 10t-20.5 25.5t-8 33.5t-1.5 34v10h19v-9q0 -13 1 -28t6 -28t15 -22t27 -9q33 0 42.5 31.5t9.5 98.5q0 51 -9.5 82.5t-37.5 31.5q-26 0 -37 -19t-15 -40h-18l2 235h123v-17h-104l-2 -174q16 32 50 32
q37 0 52 -31.5t15 -99.5z" />
    <glyph glyph-name="six.superior" unicode="&#x2076;" 
d="M166 598q0 -31 -2.5 -57t-10 -44.5t-21.5 -28.5t-36 -10t-36 9.5t-22 31.5t-11 56.5t-3 84.5v19q0 76 4.5 123.5t13.5 73t23 34.5t33 9q38 0 49.5 -27t11.5 -67v-10h-19v10q0 31 -7.5 54t-34.5 23q-14 0 -24 -9t-16.5 -31.5t-10 -59.5t-4.5 -93q14 45 55 45
q39 0 53.5 -32t14.5 -104zM147 598q0 64 -10.5 91.5t-39.5 27.5t-41 -31.5t-12 -86.5q0 -68 11 -96t41 -28q31 0 41 31.5t10 91.5z" />
    <glyph glyph-name="seven.superior" unicode="&#x2077;" 
d="M57 462h-20l111 416h-115v17h133v-18z" />
    <glyph glyph-name="eight.superior" unicode="&#x2078;" 
d="M166 572q0 -26 -3 -47t-11 -36t-22 -23t-37 -8t-37 8t-22 23t-10.5 36t-2.5 47q0 53 9.5 77.5t34.5 34.5q-25 10 -32 36.5t-7 71.5q0 18 1.5 37t8 34.5t20 25.5t37.5 10q25 0 38.5 -10t20 -25.5t8 -34.5t1.5 -37q0 -45 -7 -71.5t-32 -36.5q26 -10 35 -34.5t9 -77.5z
M142 792q0 40 -8 65t-41 25q-32 0 -40 -25t-8 -65q0 -48 8.5 -73.5t39.5 -25.5q32 0 40.5 25.5t8.5 73.5zM147 572q0 50 -9.5 76t-44.5 26q-33 0 -43 -26t-10 -76q0 -45 10 -71t43 -26q35 0 44.5 26t9.5 71z" />
    <glyph glyph-name="nine.superior" unicode="&#x2079;" 
d="M165 708q0 -75 -2.5 -123.5t-10.5 -76.5t-22 -39t-37 -11q-21 0 -33 8.5t-19 23t-9 32.5t-2 36v10h19v-10q0 -16 1.5 -30.5t6.5 -26t13.5 -18.5t23.5 -7t25 9t16 32t8.5 61.5t2.5 98.5q-6 -20 -20 -32t-35 -12q-41 0 -55 35t-14 91q0 31 2.5 57t10 44.5t21.5 28.5t36 10
q21 0 35.5 -8.5t22.5 -28.5t11.5 -53.5t3.5 -83.5v-17zM145 758q0 69 -11.5 96.5t-41.5 27.5q-31 0 -41 -31.5t-10 -91.5q0 -51 10.5 -80t40.5 -29q18 0 28.5 11.5t16 28t7 35t1.5 33.5z" />
    <glyph glyph-name="zero.inferior" unicode="&#x2080;" 
d="M169 51q0 -62 -2.5 -105t-11 -70t-23 -39t-38.5 -12q-25 0 -39.5 12.5t-22 39.5t-10 70t-2.5 104q0 50 2.5 90t10 67.5t22 42.5t39.5 15t40 -15t22.5 -42.5t10 -67.5t2.5 -90zM150 51q0 45 -2 81.5t-8 62.5t-17 40t-29 14t-29 -15t-17 -41t-7.5 -62.5t-1.5 -79.5
q0 -56 2 -96t8 -65t16.5 -36.5t28.5 -11.5q36 0 46 49t10 160z" />
    <glyph glyph-name="one.inferior" unicode="&#x2081;" 
d="M88 -171v409q-11 -11 -21 -18t-22 -14v20q21 14 42 36h20v-433h-19z" />
    <glyph glyph-name="two.inferior" unicode="&#x2082;" 
d="M25 -171v15l83 188q15 34 21.5 64t6.5 74q0 34 -9 56t-35 22q-16 0 -25.5 -8.5t-14 -21t-5.5 -26.5t-1 -26v-12h-19v12q0 16 2 33.5t9 32.5t20 24.5t34 9.5t33 -9.5t19 -23.5t9 -31t2 -32q0 -48 -9 -83.5t-20 -61.5l-80 -179h125v-17h-146z" />
    <glyph glyph-name="three.inferior" unicode="&#x2083;" 
d="M158 -51q0 -68 -15 -96t-50 -28q-39 0 -51 25t-12 68v21h19v-17q0 -35 8.5 -57.5t35.5 -22.5q29 0 37.5 28t8.5 79q0 24 -2 41.5t-9.5 29t-21.5 17t-37 5.5h-18v18h17q23 0 36.5 6.5t21 19t9.5 31t2 42.5q0 40 -8 65t-34 25t-34 -23t-8 -55v-16h-19v12q0 48 13.5 73.5
t47.5 25.5q21 0 33.5 -10t18.5 -25.5t7.5 -34.5t1.5 -37q0 -25 -1.5 -42.5t-6 -30t-13 -21t-21.5 -14.5q13 -5 22 -12.5t13.5 -19t6.5 -28.5t2 -42z" />
    <glyph glyph-name="four.inferior" unicode="&#x2084;" 
d="M140 -72v-99h-19v99h-110v15l107 319h22v-316h39v-18h-39zM121 211l-89 -265h89v265z" />
    <glyph glyph-name="five.inferior" unicode="&#x2085;" 
d="M172 -28q0 -30 -2 -57t-9 -47t-21 -31.5t-39 -11.5q-24 0 -38 10t-20.5 25.5t-8 33.5t-1.5 34v10h19v-9q0 -13 1 -28t6 -28t15 -22t27 -9q33 0 42.5 31.5t9.5 98.5q0 51 -9.5 82.5t-37.5 31.5q-26 0 -37 -19t-15 -40h-18l2 235h123v-17h-104l-2 -174q16 32 50 32
q37 0 52 -31.5t15 -99.5z" />
    <glyph glyph-name="six.inferior" unicode="&#x2086;" 
d="M166 -35q0 -31 -2.5 -57t-10 -44.5t-21.5 -28.5t-36 -10t-36 9.5t-22 31.5t-11 56.5t-3 84.5v19q0 76 4.5 123.5t13.5 73t23 34.5t33 9q38 0 49.5 -27t11.5 -67v-10h-19v10q0 31 -7.5 54t-34.5 23q-14 0 -24 -9t-16.5 -31.5t-10 -59.5t-4.5 -93q14 45 55 45
q39 0 53.5 -32t14.5 -104zM147 -35q0 64 -10.5 91.5t-39.5 27.5t-41 -31.5t-12 -86.5q0 -68 11 -96t41 -28q31 0 41 31.5t10 91.5z" />
    <glyph glyph-name="seven.inferior" unicode="&#x2087;" 
d="M57 -171h-20l111 416h-115v17h133v-18z" />
    <glyph glyph-name="eight.inferior" unicode="&#x2088;" 
d="M166 -61q0 -26 -3 -47t-11 -36t-22 -23t-37 -8t-37 8t-22 23t-10.5 36t-2.5 47q0 53 9.5 77.5t34.5 34.5q-25 10 -32 36.5t-7 71.5q0 18 1.5 37t8 34.5t20 25.5t37.5 10q25 0 38.5 -10t20 -25.5t8 -34.5t1.5 -37q0 -45 -7 -71.5t-32 -36.5q26 -10 35 -34.5t9 -77.5z
M142 159q0 40 -8 65t-41 25q-32 0 -40 -25t-8 -65q0 -48 8.5 -73.5t39.5 -25.5q32 0 40.5 25.5t8.5 73.5zM147 -61q0 50 -9.5 76t-44.5 26q-33 0 -43 -26t-10 -76q0 -45 10 -71t43 -26q35 0 44.5 26t9.5 71z" />
    <glyph glyph-name="nine.inferior" unicode="&#x2089;" 
d="M165 75q0 -75 -2.5 -123.5t-10.5 -76.5t-22 -39t-37 -11q-21 0 -33 8.5t-19 23t-9 32.5t-2 36v10h19v-10q0 -16 1.5 -30.5t6.5 -26t13.5 -18.5t23.5 -7t25 9t16 32t8.5 61.5t2.5 98.5q-6 -20 -20 -32t-35 -12q-41 0 -55 35t-14 91q0 31 2.5 57t10 44.5t21.5 28.5t36 10
q21 0 35.5 -8.5t22.5 -28.5t11.5 -53.5t3.5 -83.5v-17zM145 125q0 69 -11.5 96.5t-41.5 27.5q-31 0 -41 -31.5t-10 -91.5q0 -51 10.5 -80t40.5 -29q18 0 28.5 11.5t16 28t7 35t1.5 33.5z" />
    <glyph glyph-name="afii61289" unicode="&#x2113;" horiz-adv-x="292" 
d="M239 612q0 -30 -5 -65.5t-18.5 -78.5t-36.5 -95.5t-59 -118.5v-172q0 -39 12.5 -56.5t35.5 -17.5q34 0 59 47l15 -9q-29 -56 -75 -56q-33 0 -50 22.5t-17 70.5v136l-33 -59l-17 10l50 91v334q0 68 16 103t55 35q35 0 51.5 -31.5t16.5 -89.5zM120 298q56 108 77.5 184.5
t21.5 129.5q0 103 -48 103q-27 0 -39 -29t-12 -91v-297z" />
    <glyph glyph-name="Omega" unicode="&#x2126;" horiz-adv-x="308" 
d="M154 735q42 0 64.5 -24t33 -70.5t12.5 -114t2 -155.5q0 -75 -3 -129.5t-10.5 -93.5t-19.5 -65.5t-30 -45.5v-17h68v-20h-88v45q16 16 27.5 35.5t19.5 54.5t12 91t4 145q0 82 -1.5 146t-10.5 108.5t-27.5 67.5t-52.5 23t-52.5 -23t-27.5 -67.5t-10.5 -108.5t-1.5 -146
q0 -89 4 -145t12 -91t19.5 -54.5t27.5 -35.5v-45h-88v20h68v17q-18 19 -30 45.5t-19.5 65.5t-10.5 93.5t-3 129.5q0 88 2 155.5t12.5 114t33 70.5t64.5 24z" />
    <glyph glyph-name="estimated" unicode="&#x212e;" horiz-adv-x="600" 
d="M157 259v-181q59 -59 145 -59q63 0 109 28.5t84 91.5l35 -21q-23 -36 -46.5 -61.5t-51 -42t-59.5 -24t-71 -7.5q-59 0 -106.5 21.5t-81.5 59t-52 87.5t-18 108t18 108.5t52 87.5t81.5 58.5t106.5 21.5q58 0 105.5 -20.5t81.5 -57t53 -87t19 -111.5h-404zM448 295v145
q-63 60 -147 60t-144 -60v-145h291z" />
    <glyph glyph-name="onethird" unicode="&#x2153;" horiz-adv-x="442" 
d="M76 -12h-20l275 747h20zM73 290v409q-11 -11 -21 -18t-22 -14v20q21 14 42 36h20v-433h-19zM405 120q0 -68 -15 -96t-50 -28q-39 0 -51 25t-12 68v21h19v-17q0 -35 8.5 -57.5t35.5 -22.5q29 0 37.5 28t8.5 79q0 24 -2 41.5t-9.5 29t-21.5 17t-37 5.5h-18v18h17
q23 0 36.5 6.5t21 19t9.5 31t2 42.5q0 40 -8 65t-34 25t-34 -23t-8 -55v-16h-19v12q0 48 13.5 73.5t47.5 25.5q21 0 33.5 -10t18.5 -25.5t7.5 -34.5t1.5 -37q0 -25 -1.5 -42.5t-6 -30t-13 -21t-21.5 -14.5q13 -5 22 -12.5t13.5 -19t6.5 -28.5t2 -42z" />
    <glyph glyph-name="twothirds" unicode="&#x2154;" horiz-adv-x="495" 
d="M142 -12h-20l275 747h20zM465 120q0 -68 -15 -96t-50 -28q-39 0 -51 25t-12 68v21h19v-17q0 -35 8.5 -57.5t35.5 -22.5q29 0 37.5 28t8.5 79q0 24 -2 41.5t-9.5 29t-21.5 17t-37 5.5h-18v18h17q23 0 36.5 6.5t21 19t9.5 31t2 42.5q0 40 -8 65t-34 25t-34 -23t-8 -55v-16
h-19v12q0 48 13.5 73.5t47.5 25.5q21 0 33.5 -10t18.5 -25.5t7.5 -34.5t1.5 -37q0 -25 -1.5 -42.5t-6 -30t-13 -21t-21.5 -14.5q13 -5 22 -12.5t13.5 -19t6.5 -28.5t2 -42zM39 290v15l83 188q15 34 21.5 64t6.5 74q0 34 -9 56t-35 22q-16 0 -25.5 -8.5t-14 -21t-5.5 -26.5
t-1 -26v-12h-19v12q0 16 2 33.5t9 32.5t20 24.5t34 9.5t33 -9.5t19 -23.5t9 -31t2 -32q0 -48 -9 -83.5t-20 -61.5l-80 -179h125v-17h-146z" />
    <glyph glyph-name="oneeighth" unicode="&#x215b;" horiz-adv-x="442" 
d="M76 -12h-20l275 747h20zM73 290v409q-11 -11 -21 -18t-22 -14v20q21 14 42 36h20v-433h-19zM414 110q0 -26 -3 -47t-11 -36t-22 -23t-37 -8t-37 8t-22 23t-10.5 36t-2.5 47q0 53 9.5 77.5t34.5 34.5q-25 10 -32 36.5t-7 71.5q0 18 1.5 37t8 34.5t20 25.5t37.5 10
q25 0 38.5 -10t20 -25.5t8 -34.5t1.5 -37q0 -45 -7 -71.5t-32 -36.5q26 -10 35 -34.5t9 -77.5zM390 330q0 40 -8 65t-41 25q-32 0 -40 -25t-8 -65q0 -48 8.5 -73.5t39.5 -25.5q32 0 40.5 25.5t8.5 73.5zM395 110q0 50 -9.5 76t-44.5 26q-33 0 -43 -26t-10 -76q0 -45 10 -71
t43 -26q35 0 44.5 26t9.5 71z" />
    <glyph glyph-name="threeeighths" unicode="&#x215c;" horiz-adv-x="453" 
d="M94 -12h-20l275 747h20zM425 110q0 -26 -3 -47t-11 -36t-22 -23t-37 -8t-37 8t-22 23t-10.5 36t-2.5 47q0 53 9.5 77.5t34.5 34.5q-25 10 -32 36.5t-7 71.5q0 18 1.5 37t8 34.5t20 25.5t37.5 10q25 0 38.5 -10t20 -25.5t8 -34.5t1.5 -37q0 -45 -7 -71.5t-32 -36.5
q26 -10 35 -34.5t9 -77.5zM401 330q0 40 -8 65t-41 25q-32 0 -40 -25t-8 -65q0 -48 8.5 -73.5t39.5 -25.5q32 0 40.5 25.5t8.5 73.5zM406 110q0 50 -9.5 76t-44.5 26q-33 0 -43 -26t-10 -76q0 -45 10 -71t43 -26q35 0 44.5 26t9.5 71zM158 410q0 -68 -15 -96t-50 -28
q-39 0 -51 25t-12 68v21h19v-17q0 -35 8.5 -57.5t35.5 -22.5q29 0 37.5 28t8.5 79q0 24 -2 41.5t-9.5 29t-21.5 17t-37 5.5h-18v18h17q23 0 36.5 6.5t21 19t9.5 31t2 42.5q0 40 -8 65t-34 25t-34 -23t-8 -55v-16h-19v12q0 48 13.5 73.5t47.5 25.5q21 0 33.5 -10t18.5 -25.5
t7.5 -34.5t1.5 -37q0 -25 -1.5 -42.5t-6 -30t-13 -21t-21.5 -14.5q13 -5 22 -12.5t13.5 -19t6.5 -28.5t2 -42z" />
    <glyph glyph-name="fiveeighths" unicode="&#x215d;" horiz-adv-x="453" 
d="M94 -12h-20l275 747h20zM425 110q0 -26 -3 -47t-11 -36t-22 -23t-37 -8t-37 8t-22 23t-10.5 36t-2.5 47q0 53 9.5 77.5t34.5 34.5q-25 10 -32 36.5t-7 71.5q0 18 1.5 37t8 34.5t20 25.5t37.5 10q25 0 38.5 -10t20 -25.5t8 -34.5t1.5 -37q0 -45 -7 -71.5t-32 -36.5
q26 -10 35 -34.5t9 -77.5zM401 330q0 40 -8 65t-41 25q-32 0 -40 -25t-8 -65q0 -48 8.5 -73.5t39.5 -25.5q32 0 40.5 25.5t8.5 73.5zM406 110q0 50 -9.5 76t-44.5 26q-33 0 -43 -26t-10 -76q0 -45 10 -71t43 -26q35 0 44.5 26t9.5 71zM161 433q0 -30 -2 -57t-9 -47
t-21 -31.5t-39 -11.5q-24 0 -38 10t-20.5 25.5t-8 33.5t-1.5 34v10h19v-9q0 -13 1 -28t6 -28t15 -22t27 -9q33 0 42.5 31.5t9.5 98.5q0 51 -9.5 82.5t-37.5 31.5q-26 0 -37 -19t-15 -40h-18l2 235h123v-17h-104l-2 -174q16 32 50 32q37 0 52 -31.5t15 -99.5z" />
    <glyph glyph-name="seveneighths" unicode="&#x215e;" horiz-adv-x="453" 
d="M76 -12h-20l275 747h20zM414 110q0 -26 -3 -47t-11 -36t-22 -23t-37 -8t-37 8t-22 23t-10.5 36t-2.5 47q0 53 9.5 77.5t34.5 34.5q-25 10 -32 36.5t-7 71.5q0 18 1.5 37t8 34.5t20 25.5t37.5 10q25 0 38.5 -10t20 -25.5t8 -34.5t1.5 -37q0 -45 -7 -71.5t-32 -36.5
q26 -10 35 -34.5t9 -77.5zM390 330q0 40 -8 65t-41 25q-32 0 -40 -25t-8 -65q0 -48 8.5 -73.5t39.5 -25.5q32 0 40.5 25.5t8.5 73.5zM395 110q0 50 -9.5 76t-44.5 26q-33 0 -43 -26t-10 -76q0 -45 10 -71t43 -26q35 0 44.5 26t9.5 71zM82 290h-20l111 416h-115v17h133v-18z
" />
    <glyph glyph-name="partialdiff" unicode="&#x2202;" horiz-adv-x="322" 
d="M247 363q0 70 -6 134t-19 112.5t-33.5 77t-48.5 28.5q-20 0 -35.5 -8t-32.5 -28l-13 12q37 42 82 42q35 0 59 -29.5t39 -80.5t21.5 -118t6.5 -142q0 -373 -130 -373q-27 0 -45 16t-29 43t-15.5 62.5t-4.5 75.5q0 52 8.5 94.5t24 73t38 47.5t51.5 17q31 0 50 -18.5
t32 -49.5v12zM166 401q-24 0 -43 -15.5t-32.5 -43.5t-20.5 -67.5t-7 -87.5q0 -39 4 -71.5t13 -56.5t23 -37.5t34 -13.5q48 0 76.5 73t32.5 230q-14 45 -32.5 67.5t-47.5 22.5z" />
    <glyph glyph-name="Delta" unicode="&#x2206;" horiz-adv-x="324" 
d="M12 0l139 723h20l141 -723h-300zM161 667l-125 -648h252z" />
    <glyph glyph-name="product" unicode="&#x220f;" horiz-adv-x="480" 
d="M373 -192v959h-266v-959h-20v978h306v-978h-20z" />
    <glyph glyph-name="summation" unicode="&#x2211;" horiz-adv-x="384" 
d="M40 -192v18l198 485l-183 457v18h285v-19h-263l184 -456l-199 -484h286v-19h-308z" />
    <glyph glyph-name="minus" unicode="&#x2212;" horiz-adv-x="408" 
d="M48 231v18h312v-18h-312z" />
    <glyph glyph-name="uni2215" unicode="&#x2215;" horiz-adv-x="110" 
d="M-70 -12h-20l275 747h20z" />
    <glyph glyph-name="uni2219" unicode="&#x2219;" horiz-adv-x="205" 
d="M93 321v56h20v-56h-20z" />
    <glyph glyph-name="radical" unicode="&#x221a;" horiz-adv-x="437" 
d="M226 -202h-18l-116 383l-46 -15l-6 17l65 20l110 -369l191 952h21z" />
    <glyph glyph-name="infinity" unicode="&#x221e;" horiz-adv-x="599" 
d="M452 368q54 0 85.5 -34.5t31.5 -91.5q0 -55 -32.5 -90.5t-84.5 -35.5q-42 0 -77 26t-77 84q-20 -26 -37.5 -46.5t-35 -34.5t-36.5 -21.5t-42 -7.5q-54 0 -85.5 34.5t-31.5 91.5q0 55 32.5 90.5t84.5 35.5q42 0 78 -28.5t74 -82.5q18 24 35 44.5t35 35.5t38 23t45 8z
M452 134q46 0 71.5 31t25.5 77q0 48 -24.5 78t-72.5 30q-22 0 -39.5 -7.5t-34 -21t-33 -34t-35.5 -45.5q40 -58 72 -83t70 -25zM147 134q42 0 72.5 28t68.5 79q-22 31 -40.5 52t-35 33.5t-32.5 18t-33 5.5q-46 0 -71.5 -31t-25.5 -77q0 -48 24.5 -78t72.5 -30z" />
    <glyph glyph-name="integral" unicode="&#x222b;" horiz-adv-x="304" 
d="M162 -71q0 -70 -19 -100.5t-54 -30.5q-11 0 -19 2t-15 5l6 16q13 -5 28 -5q26 0 39.5 26.5t13.5 85.5v724q0 70 19 100.5t54 30.5q11 0 19 -2t15 -5l-6 -16q-13 5 -28 5q-26 0 -39.5 -26.5t-13.5 -85.5v-724z" />
    <glyph glyph-name="approxequal" unicode="&#x2248;" horiz-adv-x="408" 
d="M286 271q-23 0 -44 9.5t-41 21.5t-39.5 21.5t-39.5 9.5q-23 0 -37.5 -14.5t-17.5 -46.5h-19q3 39 23.5 58.5t50.5 19.5q23 0 44 -9.5t41 -21.5t39.5 -21.5t39.5 -9.5q23 0 37.5 14.5t17.5 46.5h19q-3 -39 -23.5 -58.5t-50.5 -19.5zM286 128q-23 0 -44 9.5t-41 21.5
t-39.5 21.5t-39.5 9.5q-23 0 -37.5 -14.5t-17.5 -46.5h-19q3 39 23.5 58.5t50.5 19.5q23 0 44 -9.5t41 -21.5t39.5 -21.5t39.5 -9.5q23 0 37.5 14.5t17.5 46.5h19q-3 -39 -23.5 -58.5t-50.5 -19.5z" />
    <glyph glyph-name="notequal" unicode="&#x2260;" horiz-adv-x="408" 
d="M285 321h75v-18h-90l-106 -126h196v-18h-211l-61 -72l-13 11l51 61h-78v18h93l106 126h-199v18h214l59 69l13 -11z" />
    <glyph glyph-name="lessequal" unicode="&#x2264;" horiz-adv-x="408" 
d="M48 231v18l312 134v-19l-290 -124l290 -123v-19zM48 0v18h312v-18h-312z" />
    <glyph glyph-name="greaterequal" unicode="&#x2265;" horiz-adv-x="408" 
d="M48 98v19l290 123l-290 124v19l312 -134v-18zM48 0v18h312v-18h-312z" />
    <glyph glyph-name="lozenge" unicode="&#x25ca;" horiz-adv-x="290" 
d="M135 751h20l98 -391l-98 -392h-20l-98 392zM145 717l-87 -357l87 -358l87 358z" />
    <glyph glyph-name="f_i" unicode="&#xf001;" horiz-adv-x="246" 
d="M177 655v53h24v-53h-24zM151 711q-8 2 -11.5 2.5t-7.5 0.5q-29 0 -38 -25.5t-9 -63.5v-121h64v-19h-64v-485h-20v485h-55v19h55v121q0 61 17 84t48 23q8 0 9 -0.5t12 -2.5v-18zM179 0v504h20v-504h-20z" />
    <glyph glyph-name="f_l" unicode="&#xf002;" horiz-adv-x="246" 
d="M179 0v723h20v-723h-20zM151 711q-8 2 -11.5 2.5t-7.5 0.5q-29 0 -38 -25.5t-9 -63.5v-121h64v-19h-64v-485h-20v485h-55v19h55v121q0 61 17 84t48 23q8 0 9 -0.5t12 -2.5v-18z" />
    <glyph glyph-name="uniF8FF" unicode="&#xf8ff;" horiz-adv-x="512" 
d="M222 117v67h56v-67h-56zM223 234v17q0 27 3 46.5t10 35t18 29t28 29.5q16 16 26 28t15 22t7 19t2 20q0 36 -22.5 57.5t-53.5 21.5t-53.5 -22t-28.5 -73l-50 8q7 72 44 104.5t91 32.5q27 0 49.5 -9t39 -25t26 -39.5t9.5 -51.5q0 -17 -2.5 -32.5t-9.5 -30.5t-19.5 -30
t-31.5 -33q-16 -14 -25.5 -25t-15 -22t-7 -23.5t-1.5 -29.5v-24h-48zM462 50v617h-412v-617h412zM512 718v-718h-512v718h512z" />
    </font>
</defs>
</svg>
