<?xml version="1.0" standalone="no"?>
<!DOCTYPE svg PUBLIC "-//W3C//DTD SVG 1.1//EN" "http://www.w3.org/Graphics/SVG/1.1/DTD/svg11.dtd" >
<svg xmlns="http://www.w3.org/2000/svg" xmlns:xlink="http://www.w3.org/1999/xlink" version="1.1">
<metadata>
Created by FontForge 20201107 at Tue Feb  9 13:59:53 2010
 By Jimmy Wärting
Copyright (c) 2010 Linotype GmbH, www.linotype.com. All rights reserved. This font software may not be reproduced, modified, disclosed or transferred without the express written approval of Linotype GmbH. Univers is a trademark of Linotype Corp. registered in the U.S. Patent and Trademark Office and may be registered in certain other jurisdictions in the name of Linotype Corp. or its licensee Linotype GmbH. This typeface is original artwork of Adrian Frutiger and Linotype Design Studio. The design may be protected in certain jurisdictions.
</metadata>
<defs>
<font id="UniversNextPro-HeavyCond" horiz-adv-x="500" >
  <font-face 
    font-family="Univers Next Pro Condensed"
    font-weight="700"
    font-stretch="condensed"
    units-per-em="1000"
    panose-1="2 11 9 6 3 2 2 2 2 3"
    ascent="750"
    descent="-250"
    x-height="504"
    cap-height="723"
    bbox="-96 -227 909 955"
    underline-thickness="50"
    underline-position="-100"
    unicode-range="U+000D-FB04"
  />
<missing-glyph horiz-adv-x="512" 
d="M222 117v67h56v-67h-56zM223 234v17q0 27 3 46.5t10 35t18 29t28 29.5q16 16 26 28t15 22t7 19t2 20q0 36 -22.5 57.5t-53.5 21.5t-53.5 -22t-28.5 -73l-50 8q7 72 44 104.5t91 32.5q27 0 49.5 -9t39 -25t26 -39.5t9.5 -51.5q0 -17 -2.5 -32.5t-9.5 -30.5t-19.5 -30
t-31.5 -33q-16 -14 -25.5 -25t-15 -22t-7 -23.5t-1.5 -29.5v-24h-48zM462 50v617h-412v-617h412zM512 718v-718h-512v718h512z" />
    <glyph glyph-name="IJ" unicode="IJ" horiz-adv-x="806" 
d="M70 0v723h152v-723h-152zM742 221q0 -64 -12 -108.5t-39 -73t-70 -41.5t-104 -13q-59 0 -99 14.5t-64 43t-34.5 71.5t-10.5 100v31h151v-18q0 -29 1.5 -53.5t8 -42.5t19.5 -28.5t36 -10.5q25 0 38.5 12.5t19.5 32t6.5 43t0.5 46.5v497h152v-502v0z" />
    <glyph glyph-name="ij" unicode="ij" horiz-adv-x="502" 
d="M55 604v113h141v-113h-141zM55 0v504h141v-504h-141zM306 604v113h141v-113h-141zM447 -47q0 -39 -6 -67t-21.5 -45.5t-42 -26t-66.5 -8.5h-33.5t-32.5 1v87q18 0 30 2t18.5 8t9.5 18t3 32v550h141v-551z" />
    <glyph glyph-name="napostrophe" unicode="&#x22;n" horiz-adv-x="555" 
d="M360 0v336q0 20 -1.5 37.5t-7 30.5t-16.5 20.5t-31 7.5q-19 0 -31.5 -9.5t-20 -25.5t-10.5 -35.5t-3 -38.5v-323h-141v423q0 16 -0.5 40.5t-2.5 40.5h142l1 -51q23 33 55 48t74 15q74 0 104 -37.5t30 -115.5v-363h-141zM52 544h-91l23 179h126z" />
    <glyph glyph-name="f_f" unicode="ff" horiz-adv-x="612" 
d="M295 639q-5 1 -12 1q-43 0 -55 -18t-12 -62v-56h76v-86h-76v-418h-140v418h-67v86h67v79q0 78 30.5 112.5t105.5 34.5q20 0 41.5 -0.5t41.5 -2.5v-88v0zM601 639q-5 1 -12 1q-43 0 -55 -18t-12 -62v-56h76v-86h-76v-418h-140v418h-67v86h67v79q0 78 30.5 112.5
t105.5 34.5q20 0 41.5 -0.5t41.5 -2.5v-88v0z" />
    <glyph glyph-name="fi" unicode="fi" horiz-adv-x="536" 
d="M295 639q-5 1 -12 1q-43 0 -55 -18t-12 -62v-56h76v-86h-76v-418h-140v418h-67v86h67v79q0 78 30.5 112.5t105.5 34.5q20 0 41.5 -0.5t41.5 -2.5v-88v0zM340 604v113h141v-113h-141zM340 0v504h141v-504h-141z" />
    <glyph glyph-name="fl" unicode="fl" horiz-adv-x="536" 
d="M295 639q-5 1 -12 1q-43 0 -55 -18t-12 -62v-56h76v-86h-76v-418h-140v418h-67v86h67v79q0 78 30.5 112.5t105.5 34.5q20 0 41.5 -0.5t41.5 -2.5v-88v0zM340 0v723h141v-723h-141z" />
    <glyph glyph-name="f_f_i" unicode="ffi" horiz-adv-x="842" 
d="M295 639q-5 1 -12 1q-43 0 -55 -18t-12 -62v-56h76v-86h-76v-418h-140v418h-67v86h67v79q0 78 30.5 112.5t105.5 34.5q20 0 41.5 -0.5t41.5 -2.5v-88v0zM601 639q-5 1 -12 1q-43 0 -55 -18t-12 -62v-56h76v-86h-76v-418h-140v418h-67v86h67v79q0 78 30.5 112.5
t105.5 34.5q20 0 41.5 -0.5t41.5 -2.5v-88v0zM646 604v113h141v-113h-141zM646 0v504h141v-504h-141z" />
    <glyph glyph-name="f_f_l" unicode="ffl" horiz-adv-x="842" 
d="M295 639q-5 1 -12 1q-43 0 -55 -18t-12 -62v-56h76v-86h-76v-418h-140v418h-67v86h67v79q0 78 30.5 112.5t105.5 34.5q20 0 41.5 -0.5t41.5 -2.5v-88v0zM601 639q-5 1 -12 1q-43 0 -55 -18t-12 -62v-56h76v-86h-76v-418h-140v418h-67v86h67v79q0 78 30.5 112.5
t105.5 34.5q20 0 41.5 -0.5t41.5 -2.5v-88v0zM646 0v723h141v-723h-141z" />
    <glyph glyph-name=".notdef" horiz-adv-x="512" 
d="M222 117v67h56v-67h-56zM223 234v17q0 27 3 46.5t10 35t18 29t28 29.5q16 16 26 28t15 22t7 19t2 20q0 36 -22.5 57.5t-53.5 21.5t-53.5 -22t-28.5 -73l-50 8q7 72 44 104.5t91 32.5q27 0 49.5 -9t39 -25t26 -39.5t9.5 -51.5q0 -17 -2.5 -32.5t-9.5 -30.5t-19.5 -30
t-31.5 -33q-16 -14 -25.5 -25t-15 -22t-7 -23.5t-1.5 -29.5v-24h-48zM462 50v617h-412v-617h412zM512 718v-718h-512v718h512z" />
    <glyph glyph-name="nonmarkingreturn" unicode="&#xd;" horiz-adv-x="0" 
 />
    <glyph glyph-name="space" unicode=" " horiz-adv-x="250" 
 />
    <glyph glyph-name="exclam" unicode="!" horiz-adv-x="314" 
d="M205 194h-96l-22 529h140zM100 0v118h116v-118h-116z" />
    <glyph glyph-name="quotedbl" unicode="&#x22;" horiz-adv-x="435" 
d="M350 416h-78l-22 297h122zM164 416h-79l-22 297h123z" />
    <glyph glyph-name="numbersign" unicode="#" 
d="M394 430l-19 -137h65v-102h-80l-27 -191h-96l27 191h-78l-27 -191h-95l28 191h-67v102h82l19 137h-66v102h82l26 191h96l-28 -191h79l27 191h96l-29 -191h66v-102h-81zM222 430l-21 -137h79l20 137h-78z" />
    <glyph glyph-name="dollar" unicode="$" 
d="M217 13q-94 6 -138.5 51t-44.5 141v23h125v-16q0 -18 2.5 -35t9 -30.5t19 -23.5t32.5 -14v197l-18 11q-43 25 -73.5 46.5t-50 44.5t-28.5 51.5t-9 66.5q0 34 10 65.5t31.5 56t54.5 40.5t78 21v89h70v-88q49 -4 82 -17.5t52.5 -36.5t27.5 -54t8 -69v-21h-120v8
q0 37 -11.5 61.5t-43.5 32.5v-185l39 -22q33 -19 59.5 -38.5t45.5 -42.5t29 -52.5t10 -68.5q0 -38 -10 -71t-31 -58t-55 -41.5t-82 -20.5v-89h-70v88zM342 186q0 29 -17 49.5t-43 36.5v-162q35 8 47.5 29t12.5 47zM167 543q0 -23 14.5 -42.5t40.5 -36.5v151
q-31 -8 -43 -27.5t-12 -44.5z" />
    <glyph glyph-name="percent" unicode="%" horiz-adv-x="784" 
d="M278 -25h-68l298 773h68zM325 550q0 -38 -6 -71t-22 -58t-44.5 -39.5t-73.5 -14.5t-73.5 14.5t-44.5 39.5t-22 58t-6 71q0 37 6 70.5t22 59t44.5 40t73.5 14.5t73.5 -14t44.5 -39t22 -58.5t6 -72.5zM230 550q0 22 -1.5 43.5t-6.5 38.5t-15 28t-28 11t-28 -11t-15 -28
t-6.5 -38.5t-1.5 -43.5t1.5 -43.5t6.5 -38.5t15 -27.5t28 -10.5t28 10.5t15 27.5t6.5 38.5t1.5 43.5zM751 172q0 -38 -6 -71t-22 -58t-44.5 -39.5t-73.5 -14.5t-73.5 14.5t-44.5 39.5t-22 58t-6 71q0 37 6 70.5t22 59t44.5 40t73.5 14.5t73.5 -14t44.5 -39t22 -58.5t6 -72.5
zM656 172q0 22 -1.5 43.5t-6.5 38.5t-15 28t-28 11t-28 -11t-15 -28t-6.5 -38.5t-1.5 -43.5t1.5 -43.5t6.5 -38.5t15 -27.5t28 -10.5t28 10.5t15 27.5t6.5 38.5t1.5 43.5z" />
    <glyph glyph-name="ampersand" unicode="&#x26;" horiz-adv-x="620" 
d="M512 333v-333h-240q-48 0 -88.5 10t-70.5 33t-46.5 59.5t-16.5 90.5q0 79 36.5 124t110.5 65q-63 14 -97.5 54.5t-34.5 106.5q0 49 16 85t44.5 60t67.5 36t84 12q23 0 43 -2t41 -5v-101q-9 2 -24.5 2.5t-22.5 0.5q-52 0 -81 -26.5t-29 -74.5q0 -28 9.5 -46t26 -28.5
t39.5 -15t50 -4.5h54v136h129v-136h102v-103h-102zM383 333h-74q-58 0 -84.5 -30t-26.5 -88q0 -61 31 -86t88 -25h66v229z" />
    <glyph glyph-name="quotesingle" unicode="'" horiz-adv-x="248" 
d="M161 416h-74l-24 297h122z" />
    <glyph glyph-name="parenleft" unicode="(" horiz-adv-x="285" 
d="M161 -155q-18 49 -37 105.5t-34 115t-24.5 116.5t-9.5 111t9 108.5t23.5 111t33 109t38.5 101.5h80q-15 -49 -27 -104.5t-20.5 -112.5t-13 -113.5t-4.5 -108.5q0 -56 6.5 -111t16 -109.5t21 -109t21.5 -109.5h-79z" />
    <glyph glyph-name="parenright" unicode=")" horiz-adv-x="285" 
d="M229 293q0 -53 -9.5 -111t-24.5 -116.5t-34 -115t-37 -105.5h-79q10 55 21 109.5t21 109t16.5 109.5t6.5 111q0 52 -4.5 108.5t-13 113.5t-20.5 112.5t-27 104.5h79q20 -48 39 -101.5t33.5 -109t23.5 -111t9 -108.5z" />
    <glyph glyph-name="asterisk" unicode="*" horiz-adv-x="442" 
d="M271 522l86 -116l-86 -49l-50 136l-57 -136l-84 51l88 118l-137 -23v98l138 -17l-81 108l83 46l51 -124l48 124l86 -48l-84 -106l139 18v-99z" />
    <glyph glyph-name="plus" unicode="+" horiz-adv-x="565" 
d="M345 213v-198h-124v198h-186v115h186v197h124v-197h186v-115h-186z" />
    <glyph glyph-name="comma" unicode="," horiz-adv-x="250" 
d="M122 -99h-96l40 232h132z" />
    <glyph glyph-name="hyphen" unicode="-" horiz-adv-x="337" 
d="M46 219v102h245v-102h-245z" />
    <glyph glyph-name="period" unicode="." horiz-adv-x="250" 
d="M65 0v133h120v-133h-120z" />
    <glyph glyph-name="slash" unicode="/" horiz-adv-x="277" 
d="M83 -15h-102l213 753h103z" />
    <glyph glyph-name="zero" unicode="0" 
d="M460 302q0 -65 -4.5 -122.5t-25 -100.5t-62.5 -67.5t-118 -24.5t-118 23.5t-62.5 65.5t-25 99t-4.5 123v195q0 53 9 97.5t32.5 77t65 50.5t106.5 18q64 0 104.5 -16.5t63 -46.5t31 -73t8.5 -96v-202zM319 421q0 54 -1.5 95.5t-8 70t-20 43t-38.5 14.5q-26 0 -39.5 -15.5
t-20.5 -46.5t-8 -76.5t-1 -105.5v-110q0 -49 1.5 -88t8 -66.5t20.5 -42t38 -14.5q26 0 40 15t20.5 44.5t7.5 72t1 97.5v113z" />
    <glyph glyph-name="one" unicode="1" 
d="M218 0v563q-26 -25 -56 -44t-62 -36v132q42 24 74.5 50t61.5 58h129v-723h-147z" />
    <glyph glyph-name="two" unicode="2" 
d="M33 0v113l199 287q24 34 40 59t25 44t13 34.5t4 31.5q0 32 -12.5 52.5t-47.5 20.5q-32 0 -47 -19.5t-19 -48.5q-2 -9 -2 -18.5v-18.5h-141q0 10 0.5 20t1.5 19q4 45 23.5 75.5t48 49.5t64.5 27t75 8q97 0 149.5 -39t52.5 -131q0 -65 -30.5 -127.5t-81.5 -132.5l-150 -209
h265v-97h-430z" />
    <glyph glyph-name="three" unicode="3" 
d="M455 198q0 -107 -50.5 -159t-165.5 -52q-55 0 -95 9.5t-65.5 32.5t-38 61t-12.5 95v4h141q0 -17 2 -36.5t9 -35.5t20.5 -26.5t35.5 -10.5q25 0 39.5 10t22 26.5t10 36.5t2.5 40q0 38 -4.5 64.5t-16 43t-32 24t-53.5 7.5h-25v94h25q53 0 76 24.5t23 92.5q0 18 -2.5 36.5
t-9 32.5t-19 23t-31.5 9q-20 0 -32 -7.5t-18.5 -20.5t-9 -30t-2.5 -36h-139v17q0 90 54 129.5t152 39.5q100 0 150.5 -42t50.5 -143q0 -33 -4.5 -60.5t-16.5 -49.5t-32 -37.5t-51 -22.5q34 -8 55.5 -23t34 -37.5t17.5 -53t5 -69.5z" />
    <glyph glyph-name="four" unicode="4" 
d="M405 165v-165h-139v165h-232v115l173 443h198v-463h75v-95h-75zM273 627l-134 -368h134v368z" />
    <glyph glyph-name="five" unicode="5" 
d="M459 252q0 -65 -9 -114.5t-33.5 -83t-67 -50.5t-108.5 -17q-47 0 -83 9t-61.5 30t-38.5 55t-13 83h142q0 -17 2.5 -32.5t9.5 -27t19 -18t30 -6.5q24 0 37 11.5t19.5 33.5t8 52.5t1.5 68.5q0 21 -1 45t-7 44t-19 33.5t-36 13.5q-32 0 -46 -22.5t-16 -49.5h-137l10 413h373
v-96h-238l-7 -208q24 24 48 36.5t65 12.5q48 0 78.5 -16t48 -44.5t23.5 -68t6 -87.5z" />
    <glyph glyph-name="six" unicode="6" 
d="M464 227q0 -57 -11 -101.5t-36 -75t-65.5 -47t-99.5 -16.5q-68 0 -109 19.5t-63 57.5t-29.5 93.5t-7.5 128.5v148q0 62 8 117t32 96t67.5 65t114.5 24q44 0 79 -8t59.5 -27t38 -50.5t14.5 -78.5h-142q0 35 -13 54.5t-45 19.5q-25 0 -39.5 -17t-22 -45.5t-9.5 -67.5
t-2 -82v-32q20 24 47 39t72 15q48 0 79.5 -15t49.5 -44.5t25.5 -72t7.5 -97.5zM321 228q0 32 -1.5 57.5t-8.5 43.5t-20.5 28t-37.5 10t-37.5 -12.5t-20.5 -32.5t-9 -44.5t-2 -47.5q0 -70 12.5 -110.5t56.5 -40.5q24 0 37.5 12t20.5 32.5t8.5 47.5t1.5 57z" />
    <glyph glyph-name="seven" unicode="7" 
d="M267 0h-156l196 626h-247v97h379v-112z" />
    <glyph glyph-name="eight" unicode="8" 
d="M462 196q0 -51 -11 -90.5t-36 -65.5t-65.5 -39.5t-99.5 -13.5q-54 0 -94 10.5t-66 35.5t-38.5 65t-12.5 99q0 28 3 55.5t13.5 51.5t31 43t54.5 31q-29 8 -48 23t-29.5 36t-14.5 47t-4 56q0 101 49 148.5t156 47.5q51 0 89.5 -10t64.5 -32t39 -57.5t13 -87.5q0 -31 -4 -58
t-15.5 -48.5t-31 -38t-49.5 -26.5q32 -9 52.5 -24t32.5 -37t16.5 -52t4.5 -69zM313 532q0 21 -1.5 41t-7.5 36t-18.5 25.5t-35.5 9.5q-22 0 -34.5 -9.5t-18.5 -25t-7.5 -35t-1.5 -39.5t2 -40t8.5 -35.5t18.5 -25.5t33 -10t33.5 9.5t19 24.5t8.5 34.5t2 39.5zM318 201
q0 22 -2 45.5t-8.5 42.5t-20 31t-37.5 12q-23 0 -36.5 -12.5t-20.5 -31t-8.5 -41.5t-1.5 -44q0 -20 1.5 -41.5t8 -40.5t20 -31t37.5 -12t38 12t20.5 30t8 39.5t1.5 41.5z" />
    <glyph glyph-name="nine" unicode="9" 
d="M454 310q0 -71 -5 -130.5t-27 -102t-65.5 -66.5t-119.5 -24q-90 0 -140.5 39.5t-51.5 134.5h142q0 -36 12.5 -60t48.5 -24q19 0 31.5 10t20 27t10.5 39.5t4 48.5q0 10 0.5 25t0.5 31.5v33.5v32q-21 -24 -47 -38.5t-71 -14.5t-76.5 14.5t-50.5 43t-27.5 69.5t-8.5 94
q0 57 11 102.5t36 77t65.5 48t99.5 16.5q63 0 103.5 -16.5t63.5 -50.5t32 -84.5t9 -119.5v-155zM314 499q0 30 -2 56.5t-9 46t-20.5 31t-36.5 11.5q-24 0 -38 -12t-20.5 -32.5t-8.5 -46.5t-2 -54q0 -32 2 -57.5t8.5 -44t20 -28.5t37.5 -10t37.5 12.5t20.5 32.5t9 45t2 50z
" />
    <glyph glyph-name="colon" unicode=":" horiz-adv-x="250" 
d="M65 372v133h120v-133h-120zM65 0v133h120v-133h-120z" />
    <glyph glyph-name="semicolon" unicode=";" horiz-adv-x="250" 
d="M65 375v130h118v-130h-118zM122 -99h-96l42 232h130z" />
    <glyph glyph-name="less" unicode="&#x3c;" horiz-adv-x="565" 
d="M35 213v115l496 194v-128l-343 -124l343 -122v-130z" />
    <glyph glyph-name="equal" unicode="=" horiz-adv-x="565" 
d="M35 323v114h496v-114h-496zM35 102v115h496v-115h-496z" />
    <glyph glyph-name="greater" unicode="&#x3e;" horiz-adv-x="565" 
d="M35 18v130l342 122l-342 124v128l496 -194v-115z" />
    <glyph glyph-name="question" unicode="?" horiz-adv-x="437" 
d="M405 568q0 -29 -5 -52.5t-16 -46.5t-30 -48.5t-46 -58.5q-14 -17 -22 -29.5t-12.5 -25t-6 -26.5t-1.5 -33v-54h-104v79q0 46 13 79t39 73q24 36 40 69.5t16 67.5q0 14 -3 28t-9.5 25t-18 18t-28.5 7q-19 0 -31 -7.5t-19 -19t-9.5 -26.5t-2.5 -30v-25h-120v23
q0 94 48 138.5t141 44.5q187 0 187 -170zM158 0v118h116v-118h-116z" />
    <glyph glyph-name="at" unicode="@" horiz-adv-x="891" 
d="M847 372q0 -65 -17.5 -118t-47.5 -90t-70 -57t-86 -20q-48 0 -78.5 21.5t-39.5 60.5q-17 -39 -50 -59t-74 -20q-66 0 -98 36.5t-32 95.5q0 22 1.5 42t4.5 42q7 45 20.5 83t35 65.5t51 42.5t68.5 15q32 0 54.5 -13.5t32.5 -39.5l8 44h124l-44 -254q-1 -7 -2 -16t-1 -16
q0 -20 8 -32t28 -12q22 0 41.5 15t34.5 41.5t23.5 63t8.5 79.5q0 65 -17.5 117.5t-51.5 89t-84.5 56t-116.5 19.5q-80 0 -143 -32.5t-106.5 -87t-66.5 -126t-23 -149.5q0 -70 19.5 -126t56 -95.5t89 -60.5t118.5 -21q67 0 121.5 16.5t101.5 45.5l41 -76q-55 -35 -121 -54.5
t-143 -19.5q-88 0 -159 27t-120.5 77.5t-76 123t-26.5 163.5q0 96 29.5 183t86 152.5t137.5 104.5t185 39q90 0 158 -26.5t114.5 -75t70 -116t23.5 -148.5zM494 297q5 24 8.5 47t3.5 42q0 23 -8.5 37.5t-30.5 14.5q-34 0 -49.5 -37.5t-27.5 -103.5q-4 -21 -7 -38.5t-3 -34.5
q0 -23 8.5 -37t27.5 -14q32 0 49 27.5t29 96.5z" />
    <glyph glyph-name="A" unicode="A" horiz-adv-x="598" 
d="M441 0l-40 160h-209l-40 -160h-152l198 723h202l198 -723h-157zM294 608l-77 -343h157z" />
    <glyph glyph-name="B" unicode="B" horiz-adv-x="577" 
d="M538 199q0 -65 -18.5 -104t-52 -60t-79.5 -28t-101 -7h-217v723h249q45 0 83.5 -7.5t66 -27.5t43.5 -55t16 -89q0 -70 -29.5 -110t-95.5 -54q76 -13 105.5 -57t29.5 -124zM382 524q0 29 -8 47.5t-22.5 29t-34 14t-43.5 3.5h-56v-193h53q28 0 49 4.5t35 15.5t20.5 30.5
t6.5 48.5zM388 216q0 60 -27.5 83.5t-89.5 23.5h-53v-218h53q25 0 46 4t37 15.5t25 33.5t9 58z" />
    <glyph glyph-name="C" unicode="C" horiz-adv-x="556" 
d="M531 223q0 -64 -14.5 -109t-43.5 -73.5t-74.5 -42t-106.5 -13.5q-84 0 -133 23.5t-75 70.5t-33.5 117t-7.5 163q0 84 5.5 153.5t30.5 120t75.5 78t139.5 27.5q57 0 100.5 -11.5t72.5 -37.5t43.5 -68t14.5 -103v-19h-149v15q0 21 -2.5 42t-11 38t-25 27.5t-44.5 10.5
q-34 0 -53.5 -18t-29 -51.5t-12 -81t-2.5 -107.5q0 -77 2.5 -130.5t12.5 -87.5t28.5 -49.5t51.5 -15.5q31 0 49 12t27 31t11 43.5t2 49.5v18h151v-22v0z" />
    <glyph glyph-name="D" unicode="D" horiz-adv-x="605" 
d="M562 380q0 -90 -5.5 -160.5t-32 -119.5t-82 -74.5t-155.5 -25.5h-217v723h216q94 0 149 -21t83 -64t36 -107t8 -151zM408 358q0 64 -3 112t-15.5 80.5t-39 49t-74.5 16.5h-55v-510h57q46 0 72.5 18.5t39 52t15.5 80t3 101.5z" />
    <glyph glyph-name="E" unicode="E" 
d="M70 0v723h395v-107h-244v-190h223v-104h-223v-215h250v-107h-401z" />
    <glyph glyph-name="F" unicode="F" horiz-adv-x="465" 
d="M221 616v-193h216v-104h-216v-319h-151v723h377v-107h-226z" />
    <glyph glyph-name="G" unicode="G" horiz-adv-x="581" 
d="M386 504v13q0 25 -4 46.5t-13.5 36.5t-26.5 23.5t-43 8.5q-37 0 -57.5 -17.5t-30.5 -50.5t-12.5 -80t-2.5 -106q0 -80 3.5 -135t14.5 -89t32.5 -48.5t56.5 -14.5q48 0 87 15v171h-84v106h231v-361q-52 -17 -110.5 -27t-118.5 -10q-93 0 -146 24.5t-79.5 72.5t-33 118.5
t-6.5 163.5q0 87 6.5 156t33 117.5t78 74.5t141.5 26q121 0 178.5 -52t57.5 -170v-12h-152z" />
    <glyph glyph-name="H" unicode="H" horiz-adv-x="620" 
d="M398 0v324h-176v-324h-152v723h152v-293h176v293h152v-723h-152z" />
    <glyph glyph-name="I" unicode="I" horiz-adv-x="292" 
d="M70 0v723h152v-723h-152z" />
    <glyph glyph-name="J" unicode="J" horiz-adv-x="514" 
d="M450 221q0 -64 -12 -108.5t-39 -73t-70 -41.5t-104 -13q-59 0 -99 14.5t-64 43t-34.5 71.5t-10.5 100v31h151v-18q0 -29 1.5 -53.5t8 -42.5t19.5 -28.5t36 -10.5q25 0 38.5 12.5t19.5 32t6.5 43t0.5 46.5v497h152v-502v0z" />
    <glyph glyph-name="K" unicode="K" horiz-adv-x="571" 
d="M401 0l-176 394l166 329h171l-187 -321l199 -402h-173zM70 0v723h151v-723h-151z" />
    <glyph glyph-name="L" unicode="L" horiz-adv-x="462" 
d="M70 0v723h151v-615h225v-108h-376z" />
    <glyph glyph-name="M" unicode="M" horiz-adv-x="855" 
d="M642 0v623l-140 -623h-161l-139 625v-625h-132v723h245l112 -558l113 558h245v-723h-143z" />
    <glyph glyph-name="N" unicode="N" horiz-adv-x="652" 
d="M359 0l-160 598v-598h-129v723h223l160 -599v599h129v-723h-223z" />
    <glyph glyph-name="O" unicode="O" horiz-adv-x="594" 
d="M551 352q0 -87 -7 -155t-33.5 -115.5t-78 -72t-139.5 -24.5q-85 0 -135 24.5t-75.5 71.5t-32.5 115.5t-7 155.5q0 90 6.5 161.5t32 121.5t76 76.5t138.5 26.5q90 0 141 -26t76.5 -75.5t31.5 -121.5t6 -163zM396 367q0 62 -1.5 111t-10.5 83.5t-29.5 52.5t-58.5 18
t-58.5 -19t-29.5 -54.5t-10.5 -85t-1.5 -110.5q0 -67 1.5 -117.5t11 -85t29.5 -52t58 -17.5q37 0 57.5 18t30 53t11 86.5t1.5 118.5z" />
    <glyph glyph-name="P" unicode="P" horiz-adv-x="561" 
d="M538 511q0 -70 -16.5 -112.5t-48 -66t-77 -31t-102.5 -7.5h-73v-294h-151v723h235q60 0 104 -10.5t72.5 -35.5t42.5 -65.5t14 -100.5zM386 511q0 61 -28.5 83.5t-84.5 22.5h-53v-217h50q57 0 86.5 23.5t29.5 87.5z" />
    <glyph glyph-name="Q" unicode="Q" horiz-adv-x="602" 
d="M492 0q-27 0 -58.5 -2t-59.5 -4q-20 -2 -41 -3t-42 -1q-86 0 -135.5 25.5t-74.5 73t-31.5 114t-6.5 149.5q0 90 6.5 161.5t32 121.5t76 76.5t138.5 26.5q90 0 141 -26t76.5 -75.5t31.5 -121.5t6 -163q0 -41 -2 -78t-9.5 -71t-21.5 -63t-37 -53q26 5 56 9.5t65 5.5v-102
h-110zM396 367q0 62 -1.5 111t-10.5 83.5t-29.5 52.5t-58.5 18t-58.5 -19t-29.5 -54.5t-10.5 -85t-1.5 -110.5q0 -67 1.5 -117t11 -83.5t29.5 -50t58 -16.5q37 0 57.5 17t30 51t11 85t1.5 118z" />
    <glyph glyph-name="R" unicode="R" horiz-adv-x="592" 
d="M388 0q-5 27 -6.5 53t-1.5 55q0 46 -3 90q-2 31 -7 51t-16 32t-30.5 17t-50.5 5h-52v-303h-151v723h246q48 0 89 -6.5t71 -26.5t47 -57.5t17 -98.5q0 -35 -6 -64t-20 -51.5t-38.5 -38.5t-60.5 -23q40 -3 63 -16t35 -38t15 -63t4 -92q1 -40 3.5 -74.5t10.5 -73.5h-158z
M387 516q0 57 -27 79t-78 22h-62v-210h54q62 0 87.5 24t25.5 85z" />
    <glyph glyph-name="S" unicode="S" horiz-adv-x="531" 
d="M502 188q0 -57 -18 -96t-50 -63t-75.5 -34t-93.5 -10q-62 0 -106.5 11.5t-73 38.5t-41.5 70.5t-13 107.5v10h152v-12q0 -25 2.5 -46.5t11.5 -38t25.5 -26t43.5 -9.5q40 0 61.5 22.5t21.5 60.5q0 35 -20.5 59.5t-63.5 50.5l-90 53q-31 18 -55.5 37.5t-42 43t-27 53
t-9.5 68.5q0 55 18 93.5t49.5 61.5t75 33.5t93.5 10.5q52 0 92.5 -10t68 -32.5t41.5 -59t14 -90.5v-25h-150v18q0 19 -2.5 35.5t-10 29.5t-22 20.5t-38.5 7.5q-37 0 -57 -21t-20 -56q0 -34 23 -59t57 -45l75 -44q42 -25 71.5 -46.5t48 -46.5t26.5 -55t8 -71z" />
    <glyph glyph-name="T" unicode="T" horiz-adv-x="489" 
d="M321 615v-615h-152v615h-164v108h479v-108h-163z" />
    <glyph glyph-name="U" unicode="U" horiz-adv-x="627" 
d="M562 238q0 -131 -58.5 -192t-191.5 -61q-69 0 -116.5 16.5t-76.5 49.5t-41.5 81.5t-12.5 112.5v478h150v-469q0 -30 2.5 -59t12 -52t29.5 -37.5t55 -14.5t55 14t30 36.5t12.5 51t2.5 57.5v473h148v-485v0z" />
    <glyph glyph-name="V" unicode="V" horiz-adv-x="571" 
d="M370 0h-184l-178 723h159l118 -589l129 589h149z" />
    <glyph glyph-name="W" unicode="W" horiz-adv-x="882" 
d="M717 0h-176l-96 579l-115 -579h-175l-142 723h158l83 -572l109 572h176l99 -572l91 572h140z" />
    <glyph glyph-name="X" unicode="X" horiz-adv-x="561" 
d="M393 0l-117 278l-121 -278h-154l188 380l-173 343h168l106 -252l105 252h154l-174 -350l185 -373h-167z" />
    <glyph glyph-name="Y" unicode="Y" horiz-adv-x="542" 
d="M347 257v-257h-152v257l-198 466h164l117 -331l112 331h155z" />
    <glyph glyph-name="Z" unicode="Z" horiz-adv-x="498" 
d="M21 0v123l297 493h-282v107h436v-121l-295 -495h300v-107h-456z" />
    <glyph glyph-name="bracketleft" unicode="[" horiz-adv-x="284" 
d="M54 -155v878h212v-84h-103v-709h103v-85h-212z" />
    <glyph glyph-name="backslash" unicode="\" horiz-adv-x="277" 
d="M195 -15l-214 753h103l213 -753h-102z" />
    <glyph glyph-name="bracketright" unicode="]" horiz-adv-x="284" 
d="M18 -155v85h103v709h-103v84h212v-878h-212z" />
    <glyph glyph-name="asciicircum" unicode="^" horiz-adv-x="565" 
d="M385 290l-104 277l-102 -277h-130l176 433h114l176 -433h-130z" />
    <glyph glyph-name="underscore" unicode="_" 
d="M0 -125v50h500v-50h-500z" />
    <glyph glyph-name="grave" unicode="`" horiz-adv-x="235" 
d="M106 582l-143 143h135l91 -143h-83z" />
    <glyph glyph-name="a" unicode="a" horiz-adv-x="477" 
d="M298 0l-3 60q-23 -38 -55 -54t-77 -16q-71 0 -103 43t-32 111q0 56 18 90.5t49 53t72.5 25t87.5 6.5h33v27q0 16 -1 32.5t-5.5 29.5t-15.5 21t-30 8q-30 0 -42.5 -18.5t-12.5 -46.5v-9h-139v9q0 44 18.5 72t47 44t64 22t69.5 6q97 0 141 -39t44 -135v-184q0 -40 2 -79.5
t7 -78.5h-137zM288 244h-22q-51 0 -74 -21t-23 -72q0 -14 2 -28t8 -24.5t16.5 -17t26.5 -6.5q20 0 33 10.5t20.5 27t10 36.5t2.5 38v57z" />
    <glyph glyph-name="b" unicode="b" horiz-adv-x="501" 
d="M467 256q0 -51 -4 -99t-20 -85t-47.5 -59.5t-86.5 -22.5q-44 0 -71.5 14.5t-48.5 49.5v-54h-137q0 2 0.5 16t1 30.5t1 30.5t0.5 16v630h140v-268q23 33 55 47t72 14q52 0 81 -20t43 -54.5t17.5 -82.5t3.5 -103zM326 261q0 36 -1.5 67t-7.5 54.5t-18.5 37t-34.5 13.5
q-24 0 -37.5 -14t-20.5 -38t-9 -56.5t-2 -69.5q0 -38 2 -71t8.5 -58t20 -39t36.5 -14q21 0 34 14t19.5 39t8.5 59.5t2 75.5z" />
    <glyph glyph-name="c" unicode="c" horiz-adv-x="459" 
d="M441 180q0 -37 -8 -71.5t-30 -61.5t-61 -43t-102 -16q-64 0 -104 17t-62.5 48.5t-31 77t-8.5 103.5q0 61 7 113t29 89.5t63.5 58.5t109.5 21q50 0 87 -9.5t61 -31t36 -57t12 -87.5h-135q0 16 -1.5 34t-7 32t-17.5 23.5t-34 9.5q-27 0 -41.5 -15t-20.5 -40.5t-6.5 -58
t-0.5 -67.5q0 -33 0.5 -64.5t6.5 -56t19.5 -39.5t39.5 -15q22 0 35 10t20 25.5t9 34.5t2 36h134v0z" />
    <glyph glyph-name="d" unicode="d" horiz-adv-x="502" 
d="M312 0v54q-22 -34 -51.5 -49t-69.5 -15q-54 0 -85.5 22t-47.5 58.5t-20 83.5t-4 97q0 56 4.5 104.5t20 84t45 56t79.5 20.5q40 0 70 -14t53 -47v268h141v-629q0 -2 0.5 -16t1 -31t1 -31t0.5 -16h-138zM305 249q0 36 -1.5 69.5t-8 59t-20 40.5t-36.5 15q-22 0 -34.5 -13.5
t-19 -37.5t-8.5 -58t-2 -75q0 -33 1.5 -64.5t8.5 -56.5t19.5 -40t35.5 -15q22 0 35 14.5t20 38.5t8.5 56t1.5 67z" />
    <glyph glyph-name="e" unicode="e" horiz-adv-x="470" 
d="M174 236v-8.5t0.5 -14t0.5 -14v-7.5q2 -62 14 -91.5t49 -29.5q20 0 32 8.5t18.5 22t8.5 31t2 34.5h136q-3 -94 -50.5 -136.5t-145.5 -42.5q-67 0 -107.5 19t-62 53.5t-28.5 82.5t-7 105t8.5 106t31.5 85t64 56.5t106 20.5q67 0 105.5 -20.5t58 -56.5t25 -84.5t5.5 -105.5
v-13h-264zM297 311q0 17 -0.5 34t-2.5 32q-4 24 -16 40t-39 16q-29 0 -42 -17.5t-18 -45.5q-2 -14 -3 -28t-1 -31h122z" />
    <glyph glyph-name="f" unicode="f" horiz-adv-x="306" 
d="M295 639q-5 1 -12 1q-43 0 -55 -18t-12 -62v-56h76v-86h-76v-418h-140v418h-67v86h67v79q0 78 30.5 112.5t105.5 34.5q20 0 41.5 -0.5t41.5 -2.5v-88v0z" />
    <glyph glyph-name="g" unicode="g" horiz-adv-x="505" 
d="M453 504q0 -6 -0.5 -16.5t-1 -23t-1 -24.5t-0.5 -19v-440q0 -53 -15.5 -87t-44 -54t-68 -28t-86.5 -8q-41 0 -76.5 6.5t-61 23.5t-40 46.5t-14.5 74.5h148v-7q0 -26 11.5 -47t41.5 -21q38 0 50 27.5t12 81.5v76q-24 -35 -54 -47t-68 -12q-51 0 -81 20.5t-45.5 53.5
t-20 74.5t-4.5 84.5q0 53 3 103t17 88.5t44.5 62t84.5 23.5q45 0 76.5 -16t51.5 -54l2 58h140zM308 247q0 36 -1.5 69.5t-8.5 59t-20.5 40.5t-37.5 15q-23 0 -35.5 -12.5t-19 -36.5t-8 -59t-1.5 -80q0 -31 2 -59t9 -49.5t20 -34.5t34 -13q24 0 37 15t20 38.5t8.5 52
t1.5 54.5z" />
    <glyph glyph-name="h" unicode="h" horiz-adv-x="512" 
d="M317 0v335q0 18 -1.5 35.5t-7 31t-16.5 22t-31 8.5q-18 0 -30 -9t-20 -23.5t-11.5 -34t-3.5 -40.5v-325h-141v723h141v-268q24 32 56 46.5t74 14.5q38 0 63.5 -10.5t40.5 -30.5t21.5 -48t6.5 -64v-363h-141z" />
    <glyph glyph-name="i" unicode="i" horiz-adv-x="251" 
d="M55 604v113h141v-113h-141zM55 0v504h141v-504h-141z" />
    <glyph glyph-name="j" unicode="j" horiz-adv-x="251" 
d="M55 604v113h141v-113h-141zM196 -47q0 -39 -6 -67t-21.5 -45.5t-42 -26t-66.5 -8.5h-33.5t-32.5 1v87q18 0 30 2t18.5 8t9.5 18t3 32v550h141v-551z" />
    <glyph glyph-name="k" unicode="k" horiz-adv-x="474" 
d="M324 0l-126 285l116 219h151l-128 -217l142 -287h-155zM55 0v723h141v-723h-141z" />
    <glyph glyph-name="l" unicode="l" horiz-adv-x="251" 
d="M55 0v723h141v-723h-141z" />
    <glyph glyph-name="m" unicode="m" horiz-adv-x="759" 
d="M564 0v338q0 18 -1 34.5t-6 29.5t-15.5 21t-29.5 8q-18 0 -30 -9.5t-19 -25t-10 -34.5t-3 -38v-324h-141v346q0 16 -1.5 31.5t-7 27.5t-15.5 19t-27 7q-19 0 -31.5 -9.5t-19.5 -25.5t-9.5 -35.5t-2.5 -38.5v-322h-140v431q0 14 -0.5 37t-2.5 36h138l1 -56q21 32 53 50
t74 18q50 0 76 -16.5t43 -51.5q26 33 57.5 50.5t76.5 17.5q40 0 66 -11.5t41 -33.5t21 -52.5t6 -67.5v-351h-141z" />
    <glyph glyph-name="n" unicode="n" horiz-adv-x="512" 
d="M317 0v336q0 20 -1.5 37.5t-7 30.5t-16.5 20.5t-31 7.5q-19 0 -31.5 -9.5t-20 -25.5t-10.5 -35.5t-3 -38.5v-323h-141v423q0 16 -0.5 40.5t-2.5 40.5h142l1 -51q23 33 55 48t74 15q74 0 104 -37.5t30 -115.5v-363h-141z" />
    <glyph glyph-name="o" unicode="o" horiz-adv-x="483" 
d="M449 262q0 -60 -6 -110.5t-27.5 -86.5t-62.5 -56.5t-111 -20.5q-68 0 -109 18.5t-63 53t-29 82.5t-7 108q0 57 7.5 105.5t30 84t63.5 56t109 20.5q67 0 107.5 -17.5t62.5 -50.5t28.5 -80t6.5 -106zM306 307q0 24 -1.5 46.5t-8 39.5t-19 27t-34.5 10q-25 0 -38.5 -13.5
t-20 -34.5t-7.5 -46.5t-1 -50.5v-92q0 -19 1.5 -40t7.5 -38.5t19.5 -29t37.5 -11.5t37 12.5t19 31.5t7 42t1 45v102z" />
    <glyph glyph-name="p" unicode="p" horiz-adv-x="501" 
d="M467 257q0 -53 -4 -101.5t-20 -85.5t-47 -58.5t-86 -21.5q-38 0 -66.5 12.5t-48.5 42.5v-237h-140v586q0 2 -0.5 18.5t-1 36t-1 36.5t-0.5 19h138l1 -55q23 35 57 51t72 16q52 0 81.5 -19.5t44 -54.5t18 -82.5t3.5 -102.5zM326 261q0 37 -1.5 68.5t-8 54.5t-19 36
t-34.5 13q-24 0 -37.5 -15.5t-20.5 -41.5t-8.5 -59t-1.5 -69q0 -38 2.5 -70t10 -55t21 -36.5t34.5 -13.5q22 0 34.5 17t19 44t8 60.5t1.5 66.5z" />
    <glyph glyph-name="q" unicode="q" horiz-adv-x="503" 
d="M451 504q0 -2 -0.5 -19.5t-1 -38t-1 -38t-0.5 -19.5v-581h-141v240q-42 -58 -118 -58q-55 0 -86 20.5t-46.5 55t-19 79t-3.5 91.5q0 54 3 104t18 88.5t45.5 62t86.5 23.5q40 0 72.5 -15t53.5 -50l2 55h136zM306 244q0 26 -1 58.5t-7 61t-20 48t-39 19.5q-23 0 -36 -17.5
t-19 -45.5t-7.5 -61.5t-1.5 -64.5q0 -30 1.5 -60t7.5 -53.5t18.5 -38.5t35.5 -15q24 0 37.5 14.5t20.5 38t8.5 54t1.5 62.5z" />
    <glyph glyph-name="r" unicode="r" horiz-adv-x="330" 
d="M323 394q-5 1 -12 1.5t-12 0.5q-31 0 -51 -9t-31.5 -25t-16 -38.5t-4.5 -49.5v-274h-141v409q0 2 -0.5 16.5t-1 31t-1 31t-0.5 16.5h135l2 -65q20 44 53 59.5t71 15.5q5 0 10 -1v-119v0z" />
    <glyph glyph-name="s" unicode="s" horiz-adv-x="440" 
d="M415 145q0 -44 -16.5 -73.5t-44.5 -47.5t-64.5 -26t-76.5 -8q-37 0 -71 7.5t-59.5 24.5t-40.5 45t-15 70v23h137v-15q0 -30 11.5 -51.5t45.5 -21.5q26 0 40.5 14.5t14.5 40.5q0 25 -13 40t-49 32l-75 36q-27 13 -47 25.5t-33.5 27.5t-20 34.5t-6.5 48.5q0 41 16.5 68.5
t43.5 44.5t62 24.5t71 7.5q91 0 137 -33t46 -105v-17h-136v16q0 27 -11.5 45.5t-41.5 18.5q-23 0 -36.5 -13.5t-13.5 -36.5q0 -24 16.5 -38.5t46.5 -28.5l69 -33q31 -15 52.5 -28.5t35 -30t20 -37.5t6.5 -50z" />
    <glyph glyph-name="t" unicode="t" horiz-adv-x="306" 
d="M295 -1q-12 -2 -34.5 -4t-44.5 -2q-40 0 -67 6.5t-44 22.5t-24.5 42.5t-7.5 65.5v288h-65v86h65v86l140 54v-140h78v-86h-78v-272q0 -36 10 -50t41 -14q16 0 31 3v-86v0z" />
    <glyph glyph-name="u" unicode="u" horiz-adv-x="511" 
d="M318 0l-1 54q-23 -34 -54 -49t-73 -15q-72 0 -104 34.5t-32 108.5v371h141v-335q0 -18 1.5 -35.5t7 -31t16.5 -21.5t31 -8q19 0 31 9t19.5 24t10.5 33.5t3 37.5v327h141v-422q0 -18 0.5 -41.5t2.5 -40.5h-141z" />
    <glyph glyph-name="v" unicode="v" horiz-adv-x="450" 
d="M305 0h-164l-136 504h147l77 -390l82 390h134z" />
    <glyph glyph-name="w" unicode="w" horiz-adv-x="726" 
d="M598 0h-155l-76 376l-88 -376h-155l-115 504h148l56 -376l84 376h155l75 -376l64 376h126z" />
    <glyph glyph-name="x" unicode="x" horiz-adv-x="465" 
d="M301 0l-74 185l-78 -185h-145l141 265l-125 239h161l61 -162l63 162h139l-123 -240l140 -264h-160z" />
    <glyph glyph-name="y" unicode="y" horiz-adv-x="457" 
d="M243 -193h-137l57 185l-158 512h153l78 -341l76 341h140z" />
    <glyph glyph-name="z" unicode="z" horiz-adv-x="395" 
d="M23 0v92l196 327h-185v85h337v-87l-197 -330h198v-87h-349z" />
    <glyph glyph-name="braceleft" unicode="{" horiz-adv-x="360" 
d="M94 294q45 -5 73 -18.5t44.5 -36.5t22.5 -54.5t6 -70.5v-27q0 -40 4 -68.5t16 -47.5t33.5 -29.5t56.5 -13.5v-73q-68 2 -111.5 17t-69 41.5t-35.5 64t-10 85.5v33q0 38 -5 66t-18.5 47.5t-36.5 31t-59 16.5v74q65 7 92 41.5t27 109.5v48q0 44 8.5 80t33.5 62t69 41.5
t115 19.5v-74q-35 -3 -56.5 -15t-33.5 -32t-16 -48t-4 -63v-27q0 -39 -6 -70.5t-22.5 -54.5t-44.5 -37t-73 -18z" />
    <glyph glyph-name="bar" unicode="|" horiz-adv-x="222" 
d="M50 -214v1001h122v-1001h-122z" />
    <glyph glyph-name="braceright" unicode="}" horiz-adv-x="360" 
d="M266 294q-45 4 -73 18t-44.5 37t-22.5 54.5t-6 70.5v27q0 35 -4.5 63t-16.5 48t-33.5 32t-55.5 15v74q71 -4 115 -19.5t69 -41.5t33.5 -62t8.5 -80v-48q0 -75 27 -109.5t92 -41.5v-74q-36 -5 -59 -16.5t-36.5 -31t-18.5 -47.5t-5 -66v-33q0 -48 -10 -85.5t-35.5 -64
t-69.5 -41.5t-111 -17v73q34 3 55.5 13.5t33.5 29.5t16.5 47.5t4.5 68.5v27q0 39 6 70.5t22.5 54.5t44.5 36.5t73 18.5z" />
    <glyph glyph-name="asciitilde" unicode="~" horiz-adv-x="565" 
d="M533 349q-2 -37 -12.5 -68t-30 -54t-48 -36t-66.5 -13q-26 0 -51.5 8.5t-62.5 25.5q-36 17 -54 22.5t-35 5.5q-23 0 -37.5 -16.5t-18.5 -41.5h-85q2 37 12.5 68t30 54t48 36t66.5 13q26 0 51.5 -8.5t62.5 -25.5q36 -17 54 -22.5t35 -5.5q23 0 37.5 16.5t18.5 41.5h85v0z
" />
    <glyph glyph-name="Euro" unicode="&#x20ac;" 
d="M239 259q0 -47 5 -80t17 -54t32.5 -30.5t52.5 -9.5q42 0 70 14t52 38v-122q-20 -14 -56.5 -21.5t-77.5 -7.5q-65 0 -109 15.5t-71 48.5t-38.5 84.5t-12.5 124.5h-87l17 80h70v63h-87l16 79h71q6 124 65 189t186 65q48 0 81.5 -10t58.5 -27l-26 -116q-13 24 -42.5 39
t-72.5 15q-63 0 -87.5 -37t-26.5 -118h197l-17 -79h-180v-63h162l-17 -80h-145z" />
    <glyph glyph-name="quotesinglbase" unicode="&#x201a;" horiz-adv-x="254" 
d="M138 -100h-96l35 227h135z" />
    <glyph glyph-name="florin" unicode="&#x192;" 
d="M423 627q-6 2 -13.5 3t-14.5 1q-29 0 -41 -20t-17 -45l-16 -93h80l-12 -86h-81l-49 -328q-7 -48 -18 -88t-32 -68t-56.5 -43.5t-91.5 -15.5q-10 0 -20.5 1t-18.5 3l16 101q9 -4 20 -4q26 0 39.5 21t19.5 62l54 359h-66l14 86h66l16 92q6 37 17.5 68t32.5 54t54 36t82 13
q13 0 27 -1t24 -3z" />
    <glyph glyph-name="quotedblbase" unicode="&#x201e;" horiz-adv-x="427" 
d="M312 -100h-97l35 227h135zM138 -100h-96l35 227h135z" />
    <glyph glyph-name="ellipsis" unicode="&#x2026;" horiz-adv-x="1000" 
d="M763 0v143h140v-143h-140zM430 0v143h139v-143h-139zM97 0v143h139v-143h-139z" />
    <glyph glyph-name="dagger" unicode="&#x2020;" horiz-adv-x="444" 
d="M279 472v-472h-117v472h-149v97h149v154h117v-154h149v-97h-149z" />
    <glyph glyph-name="daggerdbl" unicode="&#x2021;" horiz-adv-x="444" 
d="M279 149v-149h-117v149h-149v95h149v234h-149v96h149v149h117v-149h149v-96h-149v-234h149v-95h-149z" />
    <glyph glyph-name="circumflex" unicode="&#x2c6;" horiz-adv-x="235" 
d="M193 582l-76 84l-75 -84h-86l104 143h115l103 -143h-85z" />
    <glyph glyph-name="perthousand" unicode="&#x2030;" horiz-adv-x="943" 
d="M204 -25h-68l296 774h68zM157 735q39 0 63 -12.5t37.5 -35t18.5 -52.5t5 -66t-5 -66.5t-18.5 -53t-37.5 -35t-63 -12.5t-63 12.5t-37.5 35t-18.5 53t-5 66.5q0 35 5 65t18.5 52.5t37.5 35.5t63 13zM157 678q-14 0 -22.5 -8t-13 -23t-6 -35t-1.5 -44t1.5 -44t6 -34.5
t13 -22.5t22.5 -8q28 0 35.5 30.5t7.5 78.5t-7.5 79t-35.5 31zM482 321q39 0 63 -12.5t37.5 -35t18.5 -52.5t5 -66t-5 -66.5t-18.5 -53t-37.5 -35t-63 -12.5t-63 12.5t-37.5 35t-18.5 53t-5 66.5q0 35 5 65t18.5 52.5t37.5 35.5t63 13zM482 264q-14 0 -22.5 -8t-13 -23
t-6 -35t-1.5 -44t1.5 -44t6 -34.5t13 -22.5t22.5 -8q28 0 35.5 30.5t7.5 78.5t-7.5 79t-35.5 31zM785 321q39 0 63 -12.5t37.5 -35t18.5 -52.5t5 -66t-5 -66.5t-18.5 -53t-37.5 -35t-63 -12.5t-63 12.5t-37.5 35t-18.5 53t-5 66.5q0 35 5 65t18.5 52.5t37.5 35.5t63 13z
M785 264q-14 0 -22.5 -8t-13 -23t-6 -35t-1.5 -44t1.5 -44t6 -34.5t13 -22.5t22.5 -8q28 0 35.5 30.5t7.5 78.5t-7.5 79t-35.5 31z" />
    <glyph glyph-name="Scaron" unicode="&#x160;" horiz-adv-x="531" 
d="M502 188q0 -57 -18 -96t-50 -63t-75.5 -34t-93.5 -10q-62 0 -106.5 11.5t-73 38.5t-41.5 70.5t-13 107.5v10h152v-12q0 -25 2.5 -46.5t11.5 -38t25.5 -26t43.5 -9.5q40 0 61.5 22.5t21.5 60.5q0 35 -20.5 59.5t-63.5 50.5l-90 53q-31 18 -55.5 37.5t-42 43t-27 53
t-9.5 68.5q0 55 18 93.5t49.5 61.5t75 33.5t93.5 10.5q52 0 92.5 -10t68 -32.5t41.5 -59t14 -90.5v-25h-150v18q0 19 -2.5 35.5t-10 29.5t-22 20.5t-38.5 7.5q-37 0 -57 -21t-20 -56q0 -34 23 -59t57 -45l75 -44q42 -25 71.5 -46.5t48 -46.5t26.5 -55t8 -71zM433 920
l-103 -143h-115l-104 143h86l75 -84l76 84h85z" />
    <glyph glyph-name="guilsinglleft" unicode="&#x2039;" horiz-adv-x="254" 
d="M116 58l-93 192l90 197h116l-86 -197l88 -192h-115z" />
    <glyph glyph-name="OE" unicode="&#x152;" horiz-adv-x="800" 
d="M322 0q-39 0 -76.5 3t-69.5 15q-45 17 -71.5 49t-40 74t-17.5 92t-4 104q0 89 7.5 160.5t36.5 121.5t86.5 77t158.5 27h431v-108h-232v-188h214v-105h-214v-215h240v-107h-449zM381 617q-11 1 -19 1h-18q-57 0 -87.5 -14.5t-44.5 -45t-16 -79t-2 -115.5v-88q0 -38 4 -70
t17 -54.5t38 -35t67 -12.5q17 0 32 1t29 1v511z" />
    <glyph glyph-name="Zcaron" unicode="&#x17d;" horiz-adv-x="498" 
d="M21 0v123l297 493h-282v107h436v-121l-295 -495h300v-107h-456zM419 920l-103 -143h-115l-104 143h86l75 -84l76 84h85z" />
    <glyph glyph-name="quoteleft" unicode="&#x2018;" horiz-adv-x="253" 
d="M176 496h-134l73 227h96z" />
    <glyph glyph-name="quoteright" unicode="&#x2019;" horiz-adv-x="253" 
d="M138 496h-96l35 227h135z" />
    <glyph glyph-name="quotedblleft" unicode="&#x201c;" horiz-adv-x="426" 
d="M350 496h-135l73 227h96zM176 496h-134l73 227h96z" />
    <glyph glyph-name="quotedblright" unicode="&#x201d;" horiz-adv-x="427" 
d="M312 496h-97l35 227h135zM138 496h-96l35 227h135z" />
    <glyph glyph-name="bullet" unicode="&#x2022;" horiz-adv-x="499" 
d="M430 362q0 -37 -14 -70t-38.5 -57.5t-57.5 -39t-70 -14.5q-38 0 -70.5 14t-57.5 39t-39 57.5t-14 70.5q0 37 14.5 70t39 57.5t57.5 38.5t70 14t70 -14t57.5 -38.5t38.5 -57.5t14 -70z" />
    <glyph glyph-name="endash" unicode="&#x2013;" 
d="M0 225v89h500v-89h-500z" />
    <glyph glyph-name="emdash" unicode="&#x2014;" horiz-adv-x="1001" 
d="M130 225v89h741v-89h-741z" />
    <glyph glyph-name="tilde" unicode="&#x2dc;" horiz-adv-x="235" 
d="M294 711q-3 -22 -11 -42.5t-21 -36.5t-32 -26t-43 -10q-20 0 -38 5.5t-35.5 12.5t-36 12.5t-37.5 5.5q-18 0 -28.5 -13t-13.5 -30h-57q3 23 11 44t21.5 37t33 25.5t44.5 9.5q19 0 37.5 -6t35.5 -13t33.5 -13t32.5 -6q21 0 31.5 12t15.5 32h57v0z" />
    <glyph glyph-name="trademark" unicode="&#x2122;" horiz-adv-x="854" 
d="M699 367v281l-86 -281h-63l-86 281v-281h-79v356h128l69 -227l70 227h124v-356h-77zM226 657v-290h-84v290h-103v66h289v-66h-102z" />
    <glyph glyph-name="scaron" unicode="&#x161;" horiz-adv-x="440" 
d="M415 145q0 -44 -16.5 -73.5t-44.5 -47.5t-64.5 -26t-76.5 -8q-37 0 -71 7.5t-59.5 24.5t-40.5 45t-15 70v23h137v-15q0 -30 11.5 -51.5t45.5 -21.5q26 0 40.5 14.5t14.5 40.5q0 25 -13 40t-49 32l-75 36q-27 13 -47 25.5t-33.5 27.5t-20 34.5t-6.5 48.5q0 41 16.5 68.5
t43.5 44.5t62 24.5t71 7.5q91 0 137 -33t46 -105v-17h-136v16q0 27 -11.5 45.5t-41.5 18.5q-23 0 -36.5 -13.5t-13.5 -36.5q0 -24 16.5 -38.5t46.5 -28.5l69 -33q31 -15 52.5 -28.5t35 -30t20 -37.5t6.5 -50zM386 725l-103 -143h-115l-104 143h86l75 -84l76 84h85z" />
    <glyph glyph-name="guilsinglright" unicode="&#x203a;" horiz-adv-x="254" 
d="M139 58h-116l87 192l-85 197h115l92 -197z" />
    <glyph glyph-name="oe" unicode="&#x153;" horiz-adv-x="763" 
d="M454 235v-54q0 -20 2.5 -40t9.5 -36t20.5 -25.5t36.5 -9.5q21 0 34 8.5t20.5 22.5t10 30.5t2.5 33.5h137q-1 -1 -1 -2v-4q-7 -41 -20.5 -73t-36 -53.5t-54.5 -33t-76 -11.5q-54 0 -92 18t-61 68q-23 -48 -62.5 -67t-90.5 -19q-66 0 -105 21t-60 57t-27.5 84.5t-6.5 104.5
q0 59 7.5 107.5t29.5 83t62.5 53.5t107.5 19q51 0 91.5 -17.5t63.5 -60.5q21 43 60 60.5t84 17.5q57 0 93.5 -17t58.5 -48t30.5 -73t8.5 -92v-53h-277zM324 241q0 40 -1 75t-7.5 61.5t-22 42t-45.5 15.5q-28 0 -43 -14.5t-22 -39.5t-8.5 -59.5t-1.5 -74.5q0 -31 1.5 -62.5
t8.5 -57t22 -41.5t42 -16q29 0 44.5 16.5t23 42t8.5 55.5t1 57zM592 333q0 18 -2 36t-9 32.5t-20.5 24t-35.5 9.5q-23 0 -36 -10t-20 -26t-9 -35t-2 -37v-15h134v21z" />
    <glyph glyph-name="zcaron" unicode="&#x17e;" horiz-adv-x="395" 
d="M23 0v92l196 327h-185v85h337v-87l-197 -330h198v-87h-349zM365 725l-103 -143h-115l-104 143h86l75 -84l76 84h85z" />
    <glyph glyph-name="Ydieresis" unicode="&#x178;" horiz-adv-x="542" 
d="M347 257v-257h-152v257l-198 466h164l117 -331l112 331h155zM306 789v109h112v-109h-112zM131 789v109h112v-109h-112z" />
    <glyph glyph-name="uni00A0" unicode="&#xa0;" horiz-adv-x="250" 
 />
    <glyph glyph-name="exclamdown" unicode="&#xa1;" horiz-adv-x="314" 
d="M98 425v117h117v-117h-117zM87 -181l22 530h96l22 -530h-140z" />
    <glyph glyph-name="cent" unicode="&#xa2;" 
d="M274 428q-10 2 -17 2q-27 0 -43.5 -11t-25.5 -33.5t-12 -56.5t-3 -80q0 -29 1 -53t4 -44zM454 180q0 -37 -8 -71.5t-30 -61.5t-61 -43t-102 -16q-37 0 -65 6l-29 -83h-64l35 103q-50 28 -66.5 84t-16.5 136q0 61 7 113t29 89.5t63.5 58.5t109.5 21q13 0 24.5 -0.5
t22.5 -1.5l31 88h64l-35 -102q45 -17 67 -57.5t22 -111.5h-123q0 30 -9 50l-103 -299q16 -8 37 -8q22 0 37 10t23.5 25.5t12 34.5t3.5 36h124z" />
    <glyph glyph-name="sterling" unicode="&#xa3;" 
d="M359 556v7q0 29 -13.5 51.5t-46.5 22.5q-21 0 -33 -8.5t-18.5 -22t-8.5 -30t-2 -32.5v-115h135v-102h-135v-224h234v-103h-423v103h63v224h-65v102h65v44q0 57 4.5 105t23.5 83t57 55t105 20q85 0 127.5 -36.5t48.5 -112.5q1 -8 1 -15.5v-15.5h-119z" />
    <glyph glyph-name="currency" unicode="&#xa4;" 
d="M28 197l57 57q-25 42 -25 95t26 96l-58 57l68 68l57 -59q21 11 45 17.5t50 6.5t50 -6.5t45 -17.5l58 59l68 -68l-58 -57q12 -21 19 -45.5t7 -50.5q0 -54 -26 -95l58 -57l-68 -68l-58 59q-42 -24 -95 -24q-26 0 -50 6.5t-44 17.5l-58 -59zM332 350q0 36 -24 61.5t-60 25.5
t-59.5 -25.5t-23.5 -61.5q0 -37 23.5 -63t59.5 -26t60 26t24 63z" />
    <glyph glyph-name="yen" unicode="&#xa5;" 
d="M339 352h121v-79h-142v-64h142v-79h-142v-130h-144v130h-141v79h141v64h-141v79h123l-137 371h158l77 -323l82 323h146z" />
    <glyph glyph-name="brokenbar" unicode="&#xa6;" horiz-adv-x="222" 
d="M50 411v251h122v-251h-122zM50 -89v250h122v-250h-122z" />
    <glyph glyph-name="section" unicode="&#xa7;" horiz-adv-x="474" 
d="M431 384q0 -44 -26 -77t-64 -55q37 -18 58.5 -46.5t21.5 -69.5q0 -43 -18.5 -72t-48.5 -47t-66.5 -25.5t-72.5 -7.5q-42 0 -83.5 6.5t-80.5 21.5v112q38 -17 75 -26.5t75 -9.5q29 0 50 10t21 38q0 22 -16.5 33t-54.5 27q-29 12 -57.5 25t-51 30.5t-36.5 41t-14 56.5
q0 22 8 41.5t21 35.5t30 28.5t36 21.5q-35 19 -56 48t-21 71q0 36 15 63t40 45t58.5 26.5t69.5 8.5q47 0 84.5 -7.5t75.5 -19.5v-107q-36 16 -70.5 26t-69.5 10q-26 0 -44.5 -10.5t-18.5 -34.5q0 -26 27.5 -41t64.5 -29q24 -9 48.5 -20.5t45 -27.5t33 -38.5t12.5 -54.5z
M306 370q0 16 -6.5 28t-17 20.5t-23.5 15t-26 11.5q-26 -10 -48 -28t-22 -46q0 -16 7 -28.5t18 -22.5t25.5 -18t29.5 -14q23 13 43 33t20 49z" />
    <glyph glyph-name="dieresis" unicode="&#xa8;" horiz-adv-x="235" 
d="M149 604v109h112v-109h-112zM-26 604v109h112v-109h-112z" />
    <glyph glyph-name="copyright" unicode="&#xa9;" horiz-adv-x="801" 
d="M563 288q0 -72 -38.5 -104t-113.5 -32q-48 0 -79 12t-49.5 37.5t-25.5 64.5t-7 94q0 50 6 89.5t24 66.5t50 41.5t83 14.5q147 0 147 -126v-11h-102v8q0 12 -1.5 23t-6 19.5t-13.5 13.5t-25 5q-18 0 -29 -8t-16.5 -24.5t-7 -42.5t-1.5 -61q0 -42 1.5 -70.5t6.5 -46
t15.5 -24.5t28.5 -7t28 5.5t15 15.5t6 23t1 27v9h103v-12zM781 361q0 -81 -29 -150t-79.5 -119t-119 -78t-148.5 -28t-149 28t-119.5 78t-79.5 119t-29 150t29 150t79.5 119t119.5 78.5t149 28.5t148.5 -28.5t119 -78.5t79.5 -119t29 -150zM707 361q0 67 -22.5 124t-63 98.5
t-96 64.5t-121.5 23t-121 -23t-95.5 -64.5t-63 -98.5t-22.5 -124q0 -68 22.5 -124.5t63 -97.5t95.5 -64t121 -23t121.5 23t96 64t63 97.5t22.5 124.5z" />
    <glyph glyph-name="ordfeminine" unicode="&#xaa;" horiz-adv-x="321" 
d="M202 425l-2 33q-30 -39 -83 -39q-46 0 -65 27t-19 65q0 37 13 58.5t35.5 32t51 13.5t60.5 3v23q0 22 -7 32.5t-24 10.5t-26 -11t-9 -27v-4h-86v5q0 26 10.5 43t27.5 26.5t39.5 13.5t45.5 4q63 0 90.5 -23.5t27.5 -83.5v-102q0 -25 0.5 -50t5.5 -50h-86zM193 569h-10
q-33 0 -48.5 -11.5t-15.5 -41.5q0 -17 7 -29t28 -12q13 0 21 6t12 15t5 20t1 22v31z" />
    <glyph glyph-name="guillemotleft" unicode="&#xab;" horiz-adv-x="428" 
d="M316 251l87 -193h-116l-93 193l94 196h117zM112 58l-89 193l90 196h116l-87 -196l87 -193h-117z" />
    <glyph glyph-name="logicalnot" unicode="&#xac;" horiz-adv-x="565" 
d="M407 144v179h-372v114h496v-293h-124z" />
    <glyph glyph-name="uni00AD" unicode="&#xad;" horiz-adv-x="337" 
d="M46 219v102h245v-102h-245z" />
    <glyph glyph-name="registered" unicode="&#xae;" horiz-adv-x="385" 
d="M381 549q0 -41 -13.5 -75.5t-38.5 -59.5t-60 -39.5t-77 -14.5q-41 0 -75.5 14.5t-59.5 40t-39 60t-14 74.5q0 39 14 73.5t39 60t59.5 40.5t75.5 15q40 0 75 -13.5t60 -38.5t39.5 -59.5t14.5 -77.5zM344 549q0 34 -11.5 62t-31.5 48t-48 31t-61 11q-34 0 -61.5 -12
t-47.5 -33t-31 -48.5t-11 -58.5t10 -58.5t29.5 -48.5t47.5 -33t64 -12q30 0 57.5 11t48.5 31.5t33.5 48.5t12.5 61zM230 446q-3 10 -4 20t-1 18q-1 17 -7 27t-35 10h-17v-75h-52v206h74q45 0 68.5 -12t23.5 -47q0 -38 -38 -50q24 -11 28.5 -25.5t5.5 -31.5q1 -10 1.5 -19.5
t5.5 -20.5h-53zM227 588q0 17 -13.5 21.5t-27.5 4.5h-20v-52h20q14 0 27.5 4t13.5 22z" />
    <glyph glyph-name="macron" unicode="&#xaf;" horiz-adv-x="235" 
d="M-27 622v65h289v-65h-289z" />
    <glyph glyph-name="degree" unicode="&#xb0;" horiz-adv-x="399" 
d="M364 575q0 -35 -13 -64t-35 -50t-52.5 -33t-64.5 -12q-35 0 -64.5 12t-52 33t-35 50t-12.5 64q0 34 12.5 63t35 50t52 33t64.5 12q34 0 64.5 -12t52.5 -33t35 -50t13 -63zM269 575q0 32 -20 52.5t-50 20.5t-49.5 -20.5t-19.5 -52.5t19.5 -53t49.5 -21t50 21t20 53z" />
    <glyph glyph-name="plusminus" unicode="&#xb1;" horiz-adv-x="565" 
d="M346 313v-147h-125v147h-186v115h186v146h125v-146h185v-115h-185zM35 0v115h496v-115h-496z" />
    <glyph glyph-name="twosuperior" unicode="&#xb2;" horiz-adv-x="307" 
d="M19 469v72l123 149q14 18 23 31t14.5 24.5t7.5 21.5t2 21q0 41 -38 41q-26 0 -35 -18t-9 -45h-84v17q0 26 10.5 46.5t28.5 34.5t41 21.5t48 7.5q55 0 92 -25.5t37 -83.5q0 -30 -11.5 -60t-34.5 -59l-103 -128h151v-68h-263z" />
    <glyph glyph-name="threesuperior" unicode="&#xb3;" horiz-adv-x="307" 
d="M283 589q0 -126 -132 -126q-65 0 -95.5 28.5t-30.5 97.5h87q0 -30 9 -45.5t32 -15.5t31.5 15.5t8.5 44.5q0 43 -15.5 56.5t-44.5 13.5h-22v58h24q29 0 43.5 15.5t14.5 44.5t-7.5 42t-29.5 13t-30.5 -14.5t-8.5 -40.5h-84v14q0 51 32.5 77t87.5 26q56 0 90.5 -25t34.5 -86
q0 -30 -13 -54.5t-39 -39.5q29 -15 43 -37t14 -62z" />
    <glyph glyph-name="acute" unicode="&#xb4;" horiz-adv-x="235" 
d="M128 582h-82l90 143h136z" />
    <glyph glyph-name="mu" unicode="&#xb5;" horiz-adv-x="509" 
d="M317 0l-1 52q-14 -35 -31 -47.5t-40 -12.5q-32 0 -51 26v-210h-140v696h140v-336q0 -17 1.5 -33.5t7 -29.5t16.5 -21t31 -8q19 0 31.5 9t20 24t10.5 33.5t3 37.5v324h139v-422q0 -23 0.5 -41.5t2.5 -40.5h-140z" />
    <glyph glyph-name="paragraph" unicode="&#xb6;" horiz-adv-x="600" 
d="M416 0v629h-86v-629h-113v332q-44 1 -80.5 13t-62.5 34t-41 54.5t-15 76.5q0 68 23.5 109.5t62.5 64.5t88.5 31t102.5 8h235v-723h-114z" />
    <glyph glyph-name="periodcentered" unicode="&#xb7;" horiz-adv-x="250" 
d="M65 224v133h120v-133h-120z" />
    <glyph glyph-name="cedilla" unicode="&#xb8;" horiz-adv-x="235" 
d="M230 -134q0 -23 -10.5 -40.5t-27.5 -29t-38 -17.5t-42 -6q-28 0 -55 7t-52 19l18 40q17 -7 34.5 -11.5t35.5 -4.5q20 0 38 9t18 32q0 20 -14.5 27.5t-34.5 7.5q-17 0 -36 -7l-22 19l66 89h49l-43 -61q6 2 13 3t16 1q35 0 61 -19.5t26 -57.5z" />
    <glyph glyph-name="onesuperior" unicode="&#xb9;" horiz-adv-x="307" 
d="M126 469v320q-17 -14 -38 -27t-41 -21v82q26 12 45.5 28t38.5 36h88v-418h-93z" />
    <glyph glyph-name="ordmasculine" unicode="&#xba;" horiz-adv-x="323" 
d="M290 586q0 -36 -4 -67.5t-17 -55t-38.5 -36.5t-68.5 -13q-41 0 -66 11t-39 31t-19 49t-5 65t4.5 66.5t18 52t39 33.5t67.5 12q39 0 63.5 -10t39 -28.5t20 -46t5.5 -63.5zM162 476q22 0 29 22t7 76q0 50 -7 74t-29 24t-29.5 -24t-7.5 -74q0 -55 7.5 -76.5t29.5 -21.5z" />
    <glyph glyph-name="guillemotright" unicode="&#xbb;" horiz-adv-x="428" 
d="M316 58h-118l88 193l-88 196h115l93 -196zM141 58h-116l87 193l-89 196h116l93 -196z" />
    <glyph glyph-name="onequarter" unicode="&#xbc;" horiz-adv-x="758" 
d="M695 95v-95h-93v94h-139v82l111 243h121v-255h34v-69h-34zM251 -25h-67l292 762h67zM104 299v320q-17 -12 -36.5 -26t-42.5 -22v82q26 12 45.5 28t38.5 36h88v-418h-93zM610 326q-4 -11 -13.5 -34t-20.5 -48t-21 -47.5t-15 -33.5h68z" />
    <glyph glyph-name="onehalf" unicode="&#xbd;" horiz-adv-x="758" 
d="M461 0v72q7 8 27.5 32t44 52.5t45 56t30.5 42.5q8 12 15.5 32.5t7.5 33.5q0 16 -10.5 27.5t-25.5 11.5q-28 0 -37 -18t-9 -45h-84v17q0 26 10.5 46.5t28.5 34.5t41 21.5t48 7.5q55 0 92 -25.5t37 -83.5q0 -30 -8.5 -53.5t-25.5 -47.5q-8 -12 -23 -31t-31.5 -40.5
t-33 -41.5t-27.5 -33h151v-68h-263zM248 -25h-66l292 762h67zM112 299v320q-17 -12 -37 -26t-42 -22v82q26 12 45.5 28t38.5 36h88v-418h-93z" />
    <glyph glyph-name="threequarters" unicode="&#xbe;" horiz-adv-x="758" 
d="M704 95v-95h-93v94h-138v82l110 243h121v-255h34v-69h-34zM278 423q0 -131 -134 -131q-65 0 -95.5 28.5t-30.5 97.5h87q0 -30 8 -45.5t36 -15.5q23 0 30 19t7 41q0 43 -16 56.5t-44 14.5h-22v58h24q58 2 58 58q0 29 -7 43t-30 14q-22 0 -30.5 -14.5t-8.5 -40.5h-85
q0 5 0.5 9t0.5 9q2 51 34.5 75t85.5 24q56 0 90.5 -25t34.5 -86q0 -30 -13 -54.5t-39 -39.5q29 -15 44 -39.5t15 -55.5zM274 -25h-67l292 762h68zM619 326q-4 -11 -13.5 -34t-20 -48t-20.5 -47.5t-15 -33.5h67z" />
    <glyph glyph-name="questiondown" unicode="&#xbf;" horiz-adv-x="437" 
d="M29 -26q0 29 5 52.5t16 46.5t30 48.5t46 58.5q13 16 21.5 29t13 25.5t6 26.5t1.5 33v54h104v-79q0 -46 -13 -79t-39 -73q-24 -36 -40 -69.5t-16 -67.5q0 -14 2.5 -28t9.5 -25t18.5 -18t28.5 -7q19 0 31 7.5t19 19t9.5 26.5t2.5 30v25h120v-23q0 -94 -48 -138.5
t-141 -44.5q-187 0 -187 170zM276 542v-118h-116v118h116z" />
    <glyph glyph-name="Agrave" unicode="&#xc0;" horiz-adv-x="598" 
d="M441 0l-40 160h-209l-40 -160h-152l198 723h202l198 -723h-157zM294 608l-77 -343h157zM283 777l-143 143h135l91 -143h-83z" />
    <glyph glyph-name="Aacute" unicode="&#xc1;" horiz-adv-x="598" 
d="M441 0l-40 160h-209l-40 -160h-152l198 723h202l198 -723h-157zM294 608l-77 -343h157zM305 777h-82l90 143h136z" />
    <glyph glyph-name="Acircumflex" unicode="&#xc2;" horiz-adv-x="598" 
d="M441 0l-40 160h-209l-40 -160h-152l198 723h202l198 -723h-157zM294 608l-77 -343h157zM370 777l-76 84l-75 -84h-86l104 143h115l103 -143h-85z" />
    <glyph glyph-name="Atilde" unicode="&#xc3;" horiz-adv-x="598" 
d="M441 0l-40 160h-209l-40 -160h-152l198 723h202l198 -723h-157zM294 608l-77 -343h157zM471 906q-3 -22 -11 -42.5t-21 -36.5t-32 -26t-43 -10q-20 0 -38 5.5t-35.5 12.5t-36 12.5t-37.5 5.5q-18 0 -28.5 -13t-13.5 -30h-57q3 23 11 44t21.5 37t33 25.5t44.5 9.5
q19 0 37.5 -6t35.5 -13t33.5 -13t32.5 -6q21 0 31.5 12t15.5 32h57v0z" />
    <glyph glyph-name="Adieresis" unicode="&#xc4;" horiz-adv-x="598" 
d="M441 0l-40 160h-209l-40 -160h-152l198 723h202l198 -723h-157zM294 608l-77 -343h157zM325 789v109h112v-109h-112zM150 789v109h112v-109h-112z" />
    <glyph glyph-name="Aring" unicode="&#xc5;" horiz-adv-x="598" 
d="M441 0l-40 160h-209l-40 -160h-152l198 723h202l198 -723h-157zM294 608l-77 -343h157zM397 853q0 -43 -29.5 -72.5t-73.5 -29.5q-21 0 -40 8t-33 21.5t-22 32.5t-8 40t8 40t22 32.5t33 21.5t40 8q44 0 73.5 -29.5t29.5 -72.5zM351 853q0 26 -16 42.5t-41 16.5
q-24 0 -40 -16.5t-16 -42.5t16 -43t40 -17q25 0 41 17t16 43z" />
    <glyph glyph-name="AE" unicode="&#xc6;" horiz-adv-x="783" 
d="M427 0l-25 161h-210l-49 -161h-143l232 723h506v-108h-267l31 -188h223v-105h-201l34 -213h196v-109h-327zM327 630l-106 -365h162z" />
    <glyph glyph-name="Ccedilla" unicode="&#xc7;" horiz-adv-x="556" 
d="M531 223q0 -124 -55 -179.5t-170 -58.5l-32 -46q6 2 13 3t16 1q35 0 61 -19.5t26 -57.5q0 -23 -10.5 -40.5t-27.5 -29t-38 -17.5t-42 -6q-28 0 -55 7t-52 19l18 40q17 -7 34.5 -11.5t35.5 -4.5q20 0 38 9t18 32q0 20 -14.5 27.5t-34.5 7.5q-17 0 -36 -7l-22 19l55 75
q-72 5 -114 31t-64.5 72.5t-29 114t-6.5 155.5q0 84 5.5 153.5t30.5 120t75.5 78t139.5 27.5q57 0 100.5 -11.5t72.5 -37.5t43.5 -68t14.5 -103v-19h-149v15q0 21 -2.5 42t-11 38t-25 27.5t-44.5 10.5q-34 0 -53.5 -18t-29 -51.5t-12 -81t-2.5 -107.5q0 -77 2.5 -130.5
t12.5 -87.5t28.5 -49.5t51.5 -15.5q31 0 49 12t27 31t11 43.5t2 49.5v18h151v-22v0z" />
    <glyph glyph-name="Egrave" unicode="&#xc8;" 
d="M70 0v723h395v-107h-244v-190h223v-104h-223v-215h250v-107h-401zM262 777l-143 143h135l91 -143h-83z" />
    <glyph glyph-name="Eacute" unicode="&#xc9;" 
d="M70 0v723h395v-107h-244v-190h223v-104h-223v-215h250v-107h-401zM284 777h-82l90 143h136z" />
    <glyph glyph-name="Ecircumflex" unicode="&#xca;" 
d="M70 0v723h395v-107h-244v-190h223v-104h-223v-215h250v-107h-401zM349 777l-76 84l-75 -84h-86l104 143h115l103 -143h-85z" />
    <glyph glyph-name="Edieresis" unicode="&#xcb;" 
d="M70 0v723h395v-107h-244v-190h223v-104h-223v-215h250v-107h-401zM304 789v109h112v-109h-112zM129 789v109h112v-109h-112z" />
    <glyph glyph-name="Igrave" unicode="&#xcc;" horiz-adv-x="292" 
d="M70 0v723h152v-723h-152zM134 777l-143 143h135l91 -143h-83z" />
    <glyph glyph-name="Iacute" unicode="&#xcd;" horiz-adv-x="292" 
d="M70 0v723h152v-723h-152zM156 777h-82l90 143h136z" />
    <glyph glyph-name="Icircumflex" unicode="&#xce;" horiz-adv-x="292" 
d="M70 0v723h152v-723h-152zM221 777l-76 84l-75 -84h-86l104 143h115l103 -143h-85z" />
    <glyph glyph-name="Idieresis" unicode="&#xcf;" horiz-adv-x="292" 
d="M70 0v723h152v-723h-152zM176 789v109h112v-109h-112zM1 789v109h112v-109h-112z" />
    <glyph glyph-name="Eth" unicode="&#xd0;" horiz-adv-x="605" 
d="M562 380q0 -90 -5.5 -160.5t-32 -119.5t-82 -74.5t-155.5 -25.5h-217v356h-62v83h62v284h216q94 0 149 -21t83 -64t36 -107t8 -151zM408 358q0 64 -3 112t-15.5 80.5t-39 49t-74.5 16.5h-55v-177h100v-83h-100v-250h57q46 0 72.5 18.5t39 52t15.5 80t3 101.5z" />
    <glyph glyph-name="Ntilde" unicode="&#xd1;" horiz-adv-x="652" 
d="M359 0l-160 598v-598h-129v723h223l160 -599v599h129v-723h-223zM504 906q-3 -22 -11 -42.5t-21 -36.5t-32 -26t-43 -10q-20 0 -38 5.5t-35.5 12.5t-36 12.5t-37.5 5.5q-18 0 -28.5 -13t-13.5 -30h-57q3 23 11 44t21.5 37t33 25.5t44.5 9.5q19 0 37.5 -6t35.5 -13
t33.5 -13t32.5 -6q21 0 31.5 12t15.5 32h57v0z" />
    <glyph glyph-name="Ograve" unicode="&#xd2;" horiz-adv-x="594" 
d="M551 352q0 -87 -7 -155t-33.5 -115.5t-78 -72t-139.5 -24.5q-85 0 -135 24.5t-75.5 71.5t-32.5 115.5t-7 155.5q0 90 6.5 161.5t32 121.5t76 76.5t138.5 26.5q90 0 141 -26t76.5 -75.5t31.5 -121.5t6 -163zM396 367q0 62 -1.5 111t-10.5 83.5t-29.5 52.5t-58.5 18
t-58.5 -19t-29.5 -54.5t-10.5 -85t-1.5 -110.5q0 -67 1.5 -117.5t11 -85t29.5 -52t58 -17.5q37 0 57.5 18t30 53t11 86.5t1.5 118.5zM287 777l-143 143h135l91 -143h-83z" />
    <glyph glyph-name="Oacute" unicode="&#xd3;" horiz-adv-x="594" 
d="M551 352q0 -87 -7 -155t-33.5 -115.5t-78 -72t-139.5 -24.5q-85 0 -135 24.5t-75.5 71.5t-32.5 115.5t-7 155.5q0 90 6.5 161.5t32 121.5t76 76.5t138.5 26.5q90 0 141 -26t76.5 -75.5t31.5 -121.5t6 -163zM396 367q0 62 -1.5 111t-10.5 83.5t-29.5 52.5t-58.5 18
t-58.5 -19t-29.5 -54.5t-10.5 -85t-1.5 -110.5q0 -67 1.5 -117.5t11 -85t29.5 -52t58 -17.5q37 0 57.5 18t30 53t11 86.5t1.5 118.5zM309 777h-82l90 143h136z" />
    <glyph glyph-name="Ocircumflex" unicode="&#xd4;" horiz-adv-x="594" 
d="M551 352q0 -87 -7 -155t-33.5 -115.5t-78 -72t-139.5 -24.5q-85 0 -135 24.5t-75.5 71.5t-32.5 115.5t-7 155.5q0 90 6.5 161.5t32 121.5t76 76.5t138.5 26.5q90 0 141 -26t76.5 -75.5t31.5 -121.5t6 -163zM396 367q0 62 -1.5 111t-10.5 83.5t-29.5 52.5t-58.5 18
t-58.5 -19t-29.5 -54.5t-10.5 -85t-1.5 -110.5q0 -67 1.5 -117.5t11 -85t29.5 -52t58 -17.5q37 0 57.5 18t30 53t11 86.5t1.5 118.5zM374 777l-76 84l-75 -84h-86l104 143h115l103 -143h-85z" />
    <glyph glyph-name="Otilde" unicode="&#xd5;" horiz-adv-x="594" 
d="M551 352q0 -87 -7 -155t-33.5 -115.5t-78 -72t-139.5 -24.5q-85 0 -135 24.5t-75.5 71.5t-32.5 115.5t-7 155.5q0 90 6.5 161.5t32 121.5t76 76.5t138.5 26.5q90 0 141 -26t76.5 -75.5t31.5 -121.5t6 -163zM396 367q0 62 -1.5 111t-10.5 83.5t-29.5 52.5t-58.5 18
t-58.5 -19t-29.5 -54.5t-10.5 -85t-1.5 -110.5q0 -67 1.5 -117.5t11 -85t29.5 -52t58 -17.5q37 0 57.5 18t30 53t11 86.5t1.5 118.5zM475 906q-3 -22 -11 -42.5t-21 -36.5t-32 -26t-43 -10q-20 0 -38 5.5t-35.5 12.5t-36 12.5t-37.5 5.5q-18 0 -28.5 -13t-13.5 -30h-57
q3 23 11 44t21.5 37t33 25.5t44.5 9.5q19 0 37.5 -6t35.5 -13t33.5 -13t32.5 -6q21 0 31.5 12t15.5 32h57v0z" />
    <glyph glyph-name="Odieresis" unicode="&#xd6;" horiz-adv-x="594" 
d="M551 352q0 -87 -7 -155t-33.5 -115.5t-78 -72t-139.5 -24.5q-85 0 -135 24.5t-75.5 71.5t-32.5 115.5t-7 155.5q0 90 6.5 161.5t32 121.5t76 76.5t138.5 26.5q90 0 141 -26t76.5 -75.5t31.5 -121.5t6 -163zM396 367q0 62 -1.5 111t-10.5 83.5t-29.5 52.5t-58.5 18
t-58.5 -19t-29.5 -54.5t-10.5 -85t-1.5 -110.5q0 -67 1.5 -117.5t11 -85t29.5 -52t58 -17.5q37 0 57.5 18t30 53t11 86.5t1.5 118.5zM329 789v109h112v-109h-112zM154 789v109h112v-109h-112z" />
    <glyph glyph-name="multiply" unicode="&#xd7;" horiz-adv-x="565" 
d="M434 31l-152 152l-151 -151l-82 81l152 152l-152 151l82 82l151 -152l152 152l81 -82l-151 -151l152 -152z" />
    <glyph glyph-name="Oslash" unicode="&#xd8;" horiz-adv-x="594" 
d="M522 617q20 -49 24.5 -115t4.5 -150q0 -87 -7 -155t-33.5 -115.5t-78 -72t-139.5 -24.5q-57 0 -97 11t-68 32l-63 -95l-51 38l71 106q-27 48 -34.5 116.5t-7.5 158.5t6.5 161.5t32 121.5t76 76.5t138.5 26.5q70 0 115.5 -15.5t74.5 -45.5l62 91l52 -36zM390 533
q-8 48 -28.5 73.5t-65.5 25.5q-38 0 -58.5 -19t-29.5 -54t-10.5 -85t-1.5 -111v-62.5t2 -55.5zM211 152q10 -30 30 -45.5t55 -15.5q37 0 57.5 18t30 53t11 86.5t1.5 118.5v61z" />
    <glyph glyph-name="Ugrave" unicode="&#xd9;" horiz-adv-x="627" 
d="M562 238q0 -131 -58.5 -192t-191.5 -61q-69 0 -116.5 16.5t-76.5 49.5t-41.5 81.5t-12.5 112.5v478h150v-469q0 -30 2.5 -59t12 -52t29.5 -37.5t55 -14.5t55 14t30 36.5t12.5 51t2.5 57.5v473h148v-485v0zM304 777l-143 143h135l91 -143h-83z" />
    <glyph glyph-name="Uacute" unicode="&#xda;" horiz-adv-x="627" 
d="M562 238q0 -131 -58.5 -192t-191.5 -61q-69 0 -116.5 16.5t-76.5 49.5t-41.5 81.5t-12.5 112.5v478h150v-469q0 -30 2.5 -59t12 -52t29.5 -37.5t55 -14.5t55 14t30 36.5t12.5 51t2.5 57.5v473h148v-485v0zM326 777h-82l90 143h136z" />
    <glyph glyph-name="Ucircumflex" unicode="&#xdb;" horiz-adv-x="627" 
d="M562 238q0 -131 -58.5 -192t-191.5 -61q-69 0 -116.5 16.5t-76.5 49.5t-41.5 81.5t-12.5 112.5v478h150v-469q0 -30 2.5 -59t12 -52t29.5 -37.5t55 -14.5t55 14t30 36.5t12.5 51t2.5 57.5v473h148v-485v0zM391 777l-76 84l-75 -84h-86l104 143h115l103 -143h-85z" />
    <glyph glyph-name="Udieresis" unicode="&#xdc;" horiz-adv-x="627" 
d="M562 238q0 -131 -58.5 -192t-191.5 -61q-69 0 -116.5 16.5t-76.5 49.5t-41.5 81.5t-12.5 112.5v478h150v-469q0 -30 2.5 -59t12 -52t29.5 -37.5t55 -14.5t55 14t30 36.5t12.5 51t2.5 57.5v473h148v-485v0zM346 789v109h112v-109h-112zM171 789v109h112v-109h-112z" />
    <glyph glyph-name="Yacute" unicode="&#xdd;" horiz-adv-x="542" 
d="M347 257v-257h-152v257l-198 466h164l117 -331l112 331h155zM286 777h-82l90 143h136z" />
    <glyph glyph-name="Thorn" unicode="&#xde;" horiz-adv-x="561" 
d="M538 389q0 -69 -16 -112t-46 -66t-73.5 -31t-98.5 -8h-83v-172h-151v722h151v-121h58q62 0 110 -7t81 -29.5t50.5 -64t17.5 -111.5zM386 388q0 62 -28.5 84.5t-85.5 22.5h-52v-216h51q57 0 86 23t29 86z" />
    <glyph glyph-name="germandbls" unicode="&#xdf;" horiz-adv-x="569" 
d="M551 143q0 -41 -13.5 -69.5t-37 -47.5t-55.5 -27.5t-68 -8.5q-84 0 -122 35t-38 117h119q-1 -26 8 -46t38 -20q25 0 34 17.5t9 40.5t-12.5 44t-31.5 42t-40.5 42t-40.5 43t-31.5 46t-12.5 52q0 27 14 45.5t30.5 36.5t30.5 38.5t14 50.5q0 34 -19.5 52.5t-51.5 18.5
q-31 0 -48 -11.5t-24.5 -31t-9 -45.5t-1.5 -54v-503h-139v500q0 63 13 106.5t40 71.5t69.5 40.5t102.5 12.5q44 0 81.5 -7t64.5 -23.5t42.5 -43.5t15.5 -67q0 -37 -15 -60.5t-33 -42t-33 -35.5t-15 -39q0 -20 12.5 -37.5t30.5 -35.5t40 -37t40 -42.5t30.5 -52t12.5 -65.5z
" />
    <glyph glyph-name="agrave" unicode="&#xe0;" horiz-adv-x="477" 
d="M298 0l-3 60q-23 -38 -55 -54t-77 -16q-71 0 -103 43t-32 111q0 56 18 90.5t49 53t72.5 25t87.5 6.5h33v27q0 16 -1 32.5t-5.5 29.5t-15.5 21t-30 8q-30 0 -42.5 -18.5t-12.5 -46.5v-9h-139v9q0 44 18.5 72t47 44t64 22t69.5 6q97 0 141 -39t44 -135v-184q0 -40 2 -79.5
t7 -78.5h-137zM288 244h-22q-51 0 -74 -21t-23 -72q0 -14 2 -28t8 -24.5t16.5 -17t26.5 -6.5q20 0 33 10.5t20.5 27t10 36.5t2.5 38v57zM229 582l-143 143h135l91 -143h-83z" />
    <glyph glyph-name="aacute" unicode="&#xe1;" horiz-adv-x="477" 
d="M298 0l-3 60q-23 -38 -55 -54t-77 -16q-71 0 -103 43t-32 111q0 56 18 90.5t49 53t72.5 25t87.5 6.5h33v27q0 16 -1 32.5t-5.5 29.5t-15.5 21t-30 8q-30 0 -42.5 -18.5t-12.5 -46.5v-9h-139v9q0 44 18.5 72t47 44t64 22t69.5 6q97 0 141 -39t44 -135v-184q0 -40 2 -79.5
t7 -78.5h-137zM288 244h-22q-51 0 -74 -21t-23 -72q0 -14 2 -28t8 -24.5t16.5 -17t26.5 -6.5q20 0 33 10.5t20.5 27t10 36.5t2.5 38v57zM251 582h-82l90 143h136z" />
    <glyph glyph-name="acircumflex" unicode="&#xe2;" horiz-adv-x="477" 
d="M298 0l-3 60q-23 -38 -55 -54t-77 -16q-71 0 -103 43t-32 111q0 56 18 90.5t49 53t72.5 25t87.5 6.5h33v27q0 16 -1 32.5t-5.5 29.5t-15.5 21t-30 8q-30 0 -42.5 -18.5t-12.5 -46.5v-9h-139v9q0 44 18.5 72t47 44t64 22t69.5 6q97 0 141 -39t44 -135v-184q0 -40 2 -79.5
t7 -78.5h-137zM288 244h-22q-51 0 -74 -21t-23 -72q0 -14 2 -28t8 -24.5t16.5 -17t26.5 -6.5q20 0 33 10.5t20.5 27t10 36.5t2.5 38v57zM316 582l-76 84l-75 -84h-86l104 143h115l103 -143h-85z" />
    <glyph glyph-name="atilde" unicode="&#xe3;" horiz-adv-x="477" 
d="M298 0l-3 60q-23 -38 -55 -54t-77 -16q-71 0 -103 43t-32 111q0 56 18 90.5t49 53t72.5 25t87.5 6.5h33v27q0 16 -1 32.5t-5.5 29.5t-15.5 21t-30 8q-30 0 -42.5 -18.5t-12.5 -46.5v-9h-139v9q0 44 18.5 72t47 44t64 22t69.5 6q97 0 141 -39t44 -135v-184q0 -40 2 -79.5
t7 -78.5h-137zM288 244h-22q-51 0 -74 -21t-23 -72q0 -14 2 -28t8 -24.5t16.5 -17t26.5 -6.5q20 0 33 10.5t20.5 27t10 36.5t2.5 38v57zM417 711q-3 -22 -11 -42.5t-21 -36.5t-32 -26t-43 -10q-20 0 -38 5.5t-35.5 12.5t-36 12.5t-37.5 5.5q-18 0 -28.5 -13t-13.5 -30h-57
q3 23 11 44t21.5 37t33 25.5t44.5 9.5q19 0 37.5 -6t35.5 -13t33.5 -13t32.5 -6q21 0 31.5 12t15.5 32h57v0z" />
    <glyph glyph-name="adieresis" unicode="&#xe4;" horiz-adv-x="477" 
d="M298 0l-3 60q-23 -38 -55 -54t-77 -16q-71 0 -103 43t-32 111q0 56 18 90.5t49 53t72.5 25t87.5 6.5h33v27q0 16 -1 32.5t-5.5 29.5t-15.5 21t-30 8q-30 0 -42.5 -18.5t-12.5 -46.5v-9h-139v9q0 44 18.5 72t47 44t64 22t69.5 6q97 0 141 -39t44 -135v-184q0 -40 2 -79.5
t7 -78.5h-137zM288 244h-22q-51 0 -74 -21t-23 -72q0 -14 2 -28t8 -24.5t16.5 -17t26.5 -6.5q20 0 33 10.5t20.5 27t10 36.5t2.5 38v57zM272 604v109h112v-109h-112zM97 604v109h112v-109h-112z" />
    <glyph glyph-name="aring" unicode="&#xe5;" horiz-adv-x="477" 
d="M298 0l-3 60q-23 -38 -55 -54t-77 -16q-71 0 -103 43t-32 111q0 56 18 90.5t49 53t72.5 25t87.5 6.5h33v27q0 16 -1 32.5t-5.5 29.5t-15.5 21t-30 8q-30 0 -42.5 -18.5t-12.5 -46.5v-9h-139v9q0 44 18.5 72t47 44t64 22t69.5 6q97 0 141 -39t44 -135v-184q0 -40 2 -79.5
t7 -78.5h-137zM288 244h-22q-51 0 -74 -21t-23 -72q0 -14 2 -28t8 -24.5t16.5 -17t26.5 -6.5q20 0 33 10.5t20.5 27t10 36.5t2.5 38v57zM343 668q0 -43 -29.5 -72.5t-73.5 -29.5q-21 0 -40 8t-33 21.5t-22 32.5t-8 40t8 40t22 32.5t33 21.5t40 8q44 0 73.5 -29.5t29.5 -72.5
zM297 668q0 26 -16 42.5t-41 16.5q-24 0 -40 -16.5t-16 -42.5t16 -43t40 -17q25 0 41 17t16 43z" />
    <glyph glyph-name="ae" unicode="&#xe6;" horiz-adv-x="723" 
d="M425 244v-52q0 -62 13.5 -91.5t50.5 -29.5q20 0 32 8.5t18.5 22t8.5 31t2 34.5h136q-3 -94 -51.5 -136.5t-142.5 -42.5q-56 0 -90 24.5t-47 51.5q-33 -44 -72 -60t-102 -16q-41 0 -70 11.5t-47.5 32.5t-27 49.5t-8.5 62.5q0 56 18 89.5t49 51.5t72.5 23.5t87.5 5.5h38v32
q0 16 -1.5 31.5t-7.5 28t-17.5 20t-30.5 7.5q-28 0 -41.5 -17.5t-13.5 -43.5v-9h-139v9q0 44 18.5 72t47 44t61.5 22t62 6q31 0 54.5 -6t40 -15.5t27.5 -22.5t18 -26q12 25 46.5 47.5t87.5 22.5q62 0 98.5 -20t55.5 -55.5t24.5 -83.5t5.5 -105v-8h-264zM548 314v31.5
t-3 31.5q-4 24 -16 40t-39 16q-29 0 -42 -17.5t-18 -45.5q-2 -14 -3 -26.5t-1 -29.5h122zM293 244h-27q-51 0 -74 -21t-23 -72q0 -14 2 -28.5t8 -26t16.5 -18.5t26.5 -7q20 0 33.5 11t22 28.5t12 38t3.5 38.5v57z" />
    <glyph glyph-name="ccedilla" unicode="&#xe7;" horiz-adv-x="459" 
d="M344 -134q0 -23 -10.5 -40.5t-27.5 -29t-38 -17.5t-42 -6q-28 0 -55 7t-52 19l18 40q17 -7 34.5 -11.5t35.5 -4.5q20 0 38 9t18 32q0 20 -14.5 27.5t-34.5 7.5q-17 0 -36 -7l-22 19l57 78q-55 3 -90 21.5t-54.5 50t-27 75t-7.5 98.5q0 61 7 113t29 89.5t63.5 58.5
t109.5 21q50 0 87 -9.5t61 -31t36 -57t12 -87.5h-135q0 16 -1.5 34t-7 32t-17.5 23.5t-34 9.5q-27 0 -41.5 -15t-20.5 -40.5t-6.5 -58t-0.5 -67.5q0 -33 0.5 -64.5t6.5 -56t19.5 -39.5t39.5 -15q22 0 35 10t20 25.5t9 34.5t2 36h134q0 -36 -7.5 -69t-27 -59t-54 -43
t-89.5 -20l-35 -50q6 2 13 3t16 1q35 0 61 -19.5t26 -57.5z" />
    <glyph glyph-name="egrave" unicode="&#xe8;" horiz-adv-x="470" 
d="M174 236v-8.5t0.5 -14t0.5 -14v-7.5q2 -62 14 -91.5t49 -29.5q20 0 32 8.5t18.5 22t8.5 31t2 34.5h136q-3 -94 -50.5 -136.5t-145.5 -42.5q-67 0 -107.5 19t-62 53.5t-28.5 82.5t-7 105t8.5 106t31.5 85t64 56.5t106 20.5q67 0 105.5 -20.5t58 -56.5t25 -84.5t5.5 -105.5
v-13h-264zM297 311q0 17 -0.5 34t-2.5 32q-4 24 -16 40t-39 16q-29 0 -42 -17.5t-18 -45.5q-2 -14 -3 -28t-1 -31h122zM229 582l-143 143h135l91 -143h-83z" />
    <glyph glyph-name="eacute" unicode="&#xe9;" horiz-adv-x="470" 
d="M174 236v-8.5t0.5 -14t0.5 -14v-7.5q2 -62 14 -91.5t49 -29.5q20 0 32 8.5t18.5 22t8.5 31t2 34.5h136q-3 -94 -50.5 -136.5t-145.5 -42.5q-67 0 -107.5 19t-62 53.5t-28.5 82.5t-7 105t8.5 106t31.5 85t64 56.5t106 20.5q67 0 105.5 -20.5t58 -56.5t25 -84.5t5.5 -105.5
v-13h-264zM297 311q0 17 -0.5 34t-2.5 32q-4 24 -16 40t-39 16q-29 0 -42 -17.5t-18 -45.5q-2 -14 -3 -28t-1 -31h122zM251 582h-82l90 143h136z" />
    <glyph glyph-name="ecircumflex" unicode="&#xea;" horiz-adv-x="470" 
d="M174 236v-8.5t0.5 -14t0.5 -14v-7.5q2 -62 14 -91.5t49 -29.5q20 0 32 8.5t18.5 22t8.5 31t2 34.5h136q-3 -94 -50.5 -136.5t-145.5 -42.5q-67 0 -107.5 19t-62 53.5t-28.5 82.5t-7 105t8.5 106t31.5 85t64 56.5t106 20.5q67 0 105.5 -20.5t58 -56.5t25 -84.5t5.5 -105.5
v-13h-264zM297 311q0 17 -0.5 34t-2.5 32q-4 24 -16 40t-39 16q-29 0 -42 -17.5t-18 -45.5q-2 -14 -3 -28t-1 -31h122zM316 582l-76 84l-75 -84h-86l104 143h115l103 -143h-85z" />
    <glyph glyph-name="edieresis" unicode="&#xeb;" horiz-adv-x="470" 
d="M174 236v-8.5t0.5 -14t0.5 -14v-7.5q2 -62 14 -91.5t49 -29.5q20 0 32 8.5t18.5 22t8.5 31t2 34.5h136q-3 -94 -50.5 -136.5t-145.5 -42.5q-67 0 -107.5 19t-62 53.5t-28.5 82.5t-7 105t8.5 106t31.5 85t64 56.5t106 20.5q67 0 105.5 -20.5t58 -56.5t25 -84.5t5.5 -105.5
v-13h-264zM297 311q0 17 -0.5 34t-2.5 32q-4 24 -16 40t-39 16q-29 0 -42 -17.5t-18 -45.5q-2 -14 -3 -28t-1 -31h122zM272 604v109h112v-109h-112zM97 604v109h112v-109h-112z" />
    <glyph glyph-name="igrave" unicode="&#xec;" horiz-adv-x="251" 
d="M55 0v504h141v-504h-141zM113 582l-143 143h135l91 -143h-83z" />
    <glyph glyph-name="iacute" unicode="&#xed;" horiz-adv-x="251" 
d="M55 0v504h141v-504h-141zM135 582h-82l90 143h136z" />
    <glyph glyph-name="icircumflex" unicode="&#xee;" horiz-adv-x="251" 
d="M55 0v504h141v-504h-141zM200 582l-76 84l-75 -84h-86l104 143h115l103 -143h-85z" />
    <glyph glyph-name="idieresis" unicode="&#xef;" horiz-adv-x="251" 
d="M55 0v504h141v-504h-141zM156 604v109h112v-109h-112zM-19 604v109h112v-109h-112z" />
    <glyph glyph-name="eth" unicode="&#xf0;" horiz-adv-x="483" 
d="M449 278q0 -60 -5 -113t-25.5 -92.5t-62 -62t-114.5 -22.5q-62 0 -102 16t-63.5 47t-33 77t-9.5 107q0 51 5 99.5t24 86t55.5 60t99.5 22.5q35 0 60.5 -13.5t45.5 -39.5q-16 50 -43 85.5t-65 67.5l-91 -58l-47 42l83 54q-19 10 -38.5 19t-39.5 16l75 85
q29 -11 55.5 -23.5t51.5 -28.5l84 54l50 -43l-83 -53q47 -45 73.5 -92t40 -95.5t16.5 -99t3 -102.5zM306 280q0 33 -1.5 59t-7.5 44t-18.5 27.5t-34.5 9.5q-23 0 -36.5 -10.5t-20.5 -30.5t-9 -48.5t-2 -64.5v-86q0 -21 2.5 -40.5t10 -34t20 -23t33.5 -8.5q23 0 36 11t19 29
t7.5 40t1.5 43v83z" />
    <glyph glyph-name="ntilde" unicode="&#xf1;" horiz-adv-x="512" 
d="M317 0v336q0 20 -1.5 37.5t-7 30.5t-16.5 20.5t-31 7.5q-19 0 -31.5 -9.5t-20 -25.5t-10.5 -35.5t-3 -38.5v-323h-141v423q0 16 -0.5 40.5t-2.5 40.5h142l1 -51q23 33 55 48t74 15q74 0 104 -37.5t30 -115.5v-363h-141zM434 711q-3 -22 -11 -42.5t-21 -36.5t-32 -26
t-43 -10q-20 0 -38 5.5t-35.5 12.5t-36 12.5t-37.5 5.5q-18 0 -28.5 -13t-13.5 -30h-57q3 23 11 44t21.5 37t33 25.5t44.5 9.5q19 0 37.5 -6t35.5 -13t33.5 -13t32.5 -6q21 0 31.5 12t15.5 32h57v0z" />
    <glyph glyph-name="ograve" unicode="&#xf2;" horiz-adv-x="483" 
d="M449 262q0 -60 -6 -110.5t-27.5 -86.5t-62.5 -56.5t-111 -20.5q-68 0 -109 18.5t-63 53t-29 82.5t-7 108q0 57 7.5 105.5t30 84t63.5 56t109 20.5q67 0 107.5 -17.5t62.5 -50.5t28.5 -80t6.5 -106zM306 307q0 24 -1.5 46.5t-8 39.5t-19 27t-34.5 10q-25 0 -38.5 -13.5
t-20 -34.5t-7.5 -46.5t-1 -50.5v-92q0 -19 1.5 -40t7.5 -38.5t19.5 -29t37.5 -11.5t37 12.5t19 31.5t7 42t1 45v102zM231 582l-143 143h135l91 -143h-83z" />
    <glyph glyph-name="oacute" unicode="&#xf3;" horiz-adv-x="483" 
d="M449 262q0 -60 -6 -110.5t-27.5 -86.5t-62.5 -56.5t-111 -20.5q-68 0 -109 18.5t-63 53t-29 82.5t-7 108q0 57 7.5 105.5t30 84t63.5 56t109 20.5q67 0 107.5 -17.5t62.5 -50.5t28.5 -80t6.5 -106zM306 307q0 24 -1.5 46.5t-8 39.5t-19 27t-34.5 10q-25 0 -38.5 -13.5
t-20 -34.5t-7.5 -46.5t-1 -50.5v-92q0 -19 1.5 -40t7.5 -38.5t19.5 -29t37.5 -11.5t37 12.5t19 31.5t7 42t1 45v102zM253 582h-82l90 143h136z" />
    <glyph glyph-name="ocircumflex" unicode="&#xf4;" horiz-adv-x="483" 
d="M449 262q0 -60 -6 -110.5t-27.5 -86.5t-62.5 -56.5t-111 -20.5q-68 0 -109 18.5t-63 53t-29 82.5t-7 108q0 57 7.5 105.5t30 84t63.5 56t109 20.5q67 0 107.5 -17.5t62.5 -50.5t28.5 -80t6.5 -106zM306 307q0 24 -1.5 46.5t-8 39.5t-19 27t-34.5 10q-25 0 -38.5 -13.5
t-20 -34.5t-7.5 -46.5t-1 -50.5v-92q0 -19 1.5 -40t7.5 -38.5t19.5 -29t37.5 -11.5t37 12.5t19 31.5t7 42t1 45v102zM318 582l-76 84l-75 -84h-86l104 143h115l103 -143h-85z" />
    <glyph glyph-name="otilde" unicode="&#xf5;" horiz-adv-x="483" 
d="M449 262q0 -60 -6 -110.5t-27.5 -86.5t-62.5 -56.5t-111 -20.5q-68 0 -109 18.5t-63 53t-29 82.5t-7 108q0 57 7.5 105.5t30 84t63.5 56t109 20.5q67 0 107.5 -17.5t62.5 -50.5t28.5 -80t6.5 -106zM306 307q0 24 -1.5 46.5t-8 39.5t-19 27t-34.5 10q-25 0 -38.5 -13.5
t-20 -34.5t-7.5 -46.5t-1 -50.5v-92q0 -19 1.5 -40t7.5 -38.5t19.5 -29t37.5 -11.5t37 12.5t19 31.5t7 42t1 45v102zM419 711q-3 -22 -11 -42.5t-21 -36.5t-32 -26t-43 -10q-20 0 -38 5.5t-35.5 12.5t-36 12.5t-37.5 5.5q-18 0 -28.5 -13t-13.5 -30h-57q3 23 11 44t21.5 37
t33 25.5t44.5 9.5q19 0 37.5 -6t35.5 -13t33.5 -13t32.5 -6q21 0 31.5 12t15.5 32h57v0z" />
    <glyph glyph-name="odieresis" unicode="&#xf6;" horiz-adv-x="483" 
d="M449 262q0 -60 -6 -110.5t-27.5 -86.5t-62.5 -56.5t-111 -20.5q-68 0 -109 18.5t-63 53t-29 82.5t-7 108q0 57 7.5 105.5t30 84t63.5 56t109 20.5q67 0 107.5 -17.5t62.5 -50.5t28.5 -80t6.5 -106zM306 307q0 24 -1.5 46.5t-8 39.5t-19 27t-34.5 10q-25 0 -38.5 -13.5
t-20 -34.5t-7.5 -46.5t-1 -50.5v-92q0 -19 1.5 -40t7.5 -38.5t19.5 -29t37.5 -11.5t37 12.5t19 31.5t7 42t1 45v102zM274 604v109h112v-109h-112zM99 604v109h112v-109h-112z" />
    <glyph glyph-name="divide" unicode="&#xf7;" horiz-adv-x="565" 
d="M219 397v135h128v-135h-128zM35 213v115h496v-115h-496zM219 8v135h128v-135h-128z" />
    <glyph glyph-name="oslash" unicode="&#xf8;" horiz-adv-x="483" 
d="M449 262q0 -60 -6 -110.5t-27.5 -86.5t-62.5 -56.5t-111 -20.5q-50 0 -84.5 10t-57.5 28l-60 -75l-43 35l67 84q-18 34 -24 79.5t-6 100.5q0 57 7.5 105.5t30 84t63.5 56t109 20.5q51 0 85.5 -9.5t57.5 -28.5l58 72l43 -34l-66 -83q17 -32 22 -75t5 -96zM302 371
q-4 26 -17 42.5t-42 16.5q-25 0 -38.5 -13.5t-20 -34.5t-7.5 -46.5t-1 -50.5v-74zM306 286l-125 -157q5 -23 18.5 -39t42.5 -16q24 0 37 12.5t19 31.5t7 42t1 45v81z" />
    <glyph glyph-name="ugrave" unicode="&#xf9;" horiz-adv-x="511" 
d="M318 0l-1 54q-23 -34 -54 -49t-73 -15q-72 0 -104 34.5t-32 108.5v371h141v-335q0 -18 1.5 -35.5t7 -31t16.5 -21.5t31 -8q19 0 31 9t19.5 24t10.5 33.5t3 37.5v327h141v-422q0 -18 0.5 -41.5t2.5 -40.5h-141zM246 582l-143 143h135l91 -143h-83z" />
    <glyph glyph-name="uacute" unicode="&#xfa;" horiz-adv-x="511" 
d="M318 0l-1 54q-23 -34 -54 -49t-73 -15q-72 0 -104 34.5t-32 108.5v371h141v-335q0 -18 1.5 -35.5t7 -31t16.5 -21.5t31 -8q19 0 31 9t19.5 24t10.5 33.5t3 37.5v327h141v-422q0 -18 0.5 -41.5t2.5 -40.5h-141zM268 582h-82l90 143h136z" />
    <glyph glyph-name="ucircumflex" unicode="&#xfb;" horiz-adv-x="511" 
d="M318 0l-1 54q-23 -34 -54 -49t-73 -15q-72 0 -104 34.5t-32 108.5v371h141v-335q0 -18 1.5 -35.5t7 -31t16.5 -21.5t31 -8q19 0 31 9t19.5 24t10.5 33.5t3 37.5v327h141v-422q0 -18 0.5 -41.5t2.5 -40.5h-141zM333 582l-76 84l-75 -84h-86l104 143h115l103 -143h-85z" />
    <glyph glyph-name="udieresis" unicode="&#xfc;" horiz-adv-x="511" 
d="M318 0l-1 54q-23 -34 -54 -49t-73 -15q-72 0 -104 34.5t-32 108.5v371h141v-335q0 -18 1.5 -35.5t7 -31t16.5 -21.5t31 -8q19 0 31 9t19.5 24t10.5 33.5t3 37.5v327h141v-422q0 -18 0.5 -41.5t2.5 -40.5h-141zM289 604v109h112v-109h-112zM114 604v109h112v-109h-112z
" />
    <glyph glyph-name="yacute" unicode="&#xfd;" horiz-adv-x="457" 
d="M243 -193h-137l57 185l-158 512h153l78 -341l76 341h140zM247 582h-82l90 143h136z" />
    <glyph glyph-name="thorn" unicode="&#xfe;" horiz-adv-x="501" 
d="M467 257q0 -53 -4 -101.5t-20 -85.5t-47 -58.5t-86 -21.5q-38 0 -66.5 12.5t-48.5 42.5v-237h-140v915h140v-268q20 30 53.5 45.5t71.5 15.5q52 0 81.5 -19.5t44 -54.5t18 -82.5t3.5 -102.5zM326 261q0 37 -1.5 68.5t-8 54.5t-19 36t-34.5 13q-24 0 -37.5 -15.5
t-20.5 -41.5t-8.5 -59t-1.5 -69q0 -38 2.5 -70t10 -55t21 -36.5t34.5 -13.5q22 0 34.5 17t19 44t8 60.5t1.5 66.5z" />
    <glyph glyph-name="ydieresis" unicode="&#xff;" horiz-adv-x="457" 
d="M243 -193h-137l57 185l-158 512h153l78 -341l76 341h140zM268 604v109h112v-109h-112zM93 604v109h112v-109h-112z" />
    <glyph glyph-name=".null" horiz-adv-x="567" 
 />
    <glyph glyph-name="grave.cap" horiz-adv-x="235" 
d="M106 777l-143 143h135l91 -143h-83z" />
    <glyph glyph-name="acute.cap" horiz-adv-x="235" 
d="M128 777h-82l90 143h136z" />
    <glyph glyph-name="circumflex.cap" horiz-adv-x="235" 
d="M193 777l-76 84l-75 -84h-86l104 143h115l103 -143h-85z" />
    <glyph glyph-name="caron.cap" horiz-adv-x="235" 
d="M279 920l-103 -143h-115l-104 143h86l75 -84l76 84h85z" />
    <glyph glyph-name="caron.alt" horiz-adv-x="251" 
d="M165 544h-91l23 179h126z" />
    <glyph glyph-name="tilde.cap" horiz-adv-x="235" 
d="M294 906q-3 -22 -11 -42.5t-21 -36.5t-32 -26t-43 -10q-20 0 -38 5.5t-35.5 12.5t-36 12.5t-37.5 5.5q-18 0 -28.5 -13t-13.5 -30h-57q3 23 11 44t21.5 37t33 25.5t44.5 9.5q19 0 37.5 -6t35.5 -13t33.5 -13t32.5 -6q21 0 31.5 12t15.5 32h57v0z" />
    <glyph glyph-name="dieresis.cap" horiz-adv-x="235" 
d="M149 789v109h112v-109h-112zM-26 789v109h112v-109h-112z" />
    <glyph glyph-name="macron.cap" horiz-adv-x="235" 
d="M-27 807v65h289v-65h-289z" />
    <glyph glyph-name="breve.cap" horiz-adv-x="235" 
d="M279 922q-8 -72 -52 -107t-114 -35t-110 36t-47 106h58q8 -41 37.5 -58t67.5 -17q39 0 67 17t36 58h57v0z" />
    <glyph glyph-name="ring.cap" horiz-adv-x="235" 
d="M220 853q0 -43 -29.5 -72.5t-73.5 -29.5q-21 0 -40 8t-33 21.5t-22 32.5t-8 40t8 40t22 32.5t33 21.5t40 8q44 0 73.5 -29.5t29.5 -72.5zM174 853q0 26 -16 42.5t-41 16.5q-24 0 -40 -16.5t-16 -42.5t16 -43t40 -17q25 0 41 17t16 43z" />
    <glyph glyph-name="hungarumlaut.cap" horiz-adv-x="235" 
d="M224 777h-82l90 143h137zM39 777h-82l90 143h136z" />
    <glyph glyph-name="dotaccent.cap" horiz-adv-x="235" 
d="M61 789v109h112v-109h-112z" />
    <glyph glyph-name="commaaccent" horiz-adv-x="251" 
d="M127 -215h-91l30 161h117z" />
    <glyph glyph-name="commaaccent.alt" horiz-adv-x="505" 
d="M251 725h91l-26 -143h-115z" />
    <glyph glyph-name="exclam.sc" horiz-adv-x="279" 
d="M187 167h-94l-19 377h132zM84 0v116h112v-116h-112z" />
    <glyph glyph-name="dollar.sc" horiz-adv-x="437" 
d="M189 5q-37 2 -66.5 10.5t-50 25.5t-31.5 44t-11 67v21h117v-16q0 -35 11.5 -51t34.5 -21v141l-18 9q-36 19 -62 35t-42.5 34t-24.5 40t-8 51q0 25 8.5 49t26.5 43.5t46.5 32.5t69.5 17v60h58v-59q78 -5 113 -38t35 -97v-20h-112v10q0 32 -12 47t-28 20v-133l35 -18
q28 -15 51 -30t39.5 -33t25 -40t8.5 -52q0 -70 -42 -106t-113 -42v-63h-58v62zM243 200v-115q44 10 44 56q0 37 -38 56zM153 407q0 -16 8.5 -29t31.5 -25v107q-21 -6 -30.5 -20t-9.5 -33z" />
    <glyph glyph-name="percent.sc" horiz-adv-x="656" 
d="M233 -18h-62l252 580h62zM270 412q0 -29 -5 -54.5t-18.5 -44.5t-37 -30.5t-59.5 -11.5t-59 11.5t-36 30.5t-18 44.5t-5 54.5q0 28 5 53.5t18 45t36.5 30.5t59.5 11t59.5 -11t36.5 -30.5t18 -45t5 -53.5zM192 412q0 38 -8.5 61.5t-32.5 23.5t-32.5 -23.5t-8.5 -61.5
t8.5 -62t32.5 -24t32.5 24t8.5 62zM624 133q0 -29 -5 -54.5t-18.5 -44.5t-37 -30.5t-59.5 -11.5t-59 11.5t-36 30.5t-18 44.5t-5 54.5q0 28 5 53.5t18 45t36.5 30.5t59.5 11t59.5 -11t36.5 -30.5t18 -45t5 -53.5zM546 133q0 38 -8.5 61.5t-32.5 23.5t-32.5 -23.5t-8.5 -61.5
t8.5 -62t32.5 -24t32.5 24t8.5 62z" />
    <glyph glyph-name="ampersand.sc" horiz-adv-x="538" 
d="M439 246v-246h-206q-42 0 -77 7.5t-60.5 25t-40 46t-14.5 69.5q0 56 27.5 89t82.5 50q-47 14 -72 44.5t-25 76.5q0 37 14 65t38.5 46.5t58 27.5t72.5 9q25 0 44 -2t33 -4v-85q-11 2 -22.5 3t-23.5 1q-40 0 -62 -18.5t-22 -51.5q0 -38 27 -52.5t69 -14.5h37v98h122v-98h85
v-86h-85zM317 246h-54q-44 0 -64 -20.5t-20 -61.5q0 -42 23.5 -59.5t67.5 -17.5h47v159z" />
    <glyph glyph-name="zero.sc" horiz-adv-x="437" 
d="M403 202q0 -51 -8 -91t-28.5 -67.5t-56.5 -41.5t-92 -14t-92 13.5t-56.5 40.5t-28 67t-7.5 93v140q0 50 7.5 90t28 67.5t56.5 42t92 14.5t92 -13.5t56.5 -40.5t28.5 -67t8 -93v-140zM271 326q0 43 -1.5 72t-7 47t-16 25.5t-27.5 7.5t-27.5 -7.5t-16 -25.5t-7.5 -47
t-2 -72v-108q0 -43 1.5 -72t7 -47t16 -25.5t27.5 -7.5t27.5 7.5t16 25.5t7.5 47t2 72v108z" />
    <glyph glyph-name="one.sc" horiz-adv-x="437" 
d="M185 0v408q-20 -16 -45.5 -29.5t-51.5 -25.5v109q35 18 62.5 37.5t53.5 44.5h118v-544h-137z" />
    <glyph glyph-name="two.sc" horiz-adv-x="437" 
d="M34 0v90l175 209q21 24 32.5 42.5t17.5 33t7.5 27t1.5 25.5q0 21 -9.5 35.5t-34.5 14.5q-29 0 -38.5 -20t-9.5 -58h-132v17q0 69 50 104.5t134 35.5q85 0 130.5 -31.5t45.5 -101.5q0 -58 -21.5 -104t-65.5 -95l-126 -143h215v-81h-372z" />
    <glyph glyph-name="three.sc" horiz-adv-x="437" 
d="M405 150q0 -81 -44 -121.5t-150 -40.5q-97 0 -138.5 35t-41.5 115v8h131q0 -17 1.5 -31.5t7 -25t15.5 -17t27 -6.5q34 0 45.5 21.5t11.5 59.5q0 27 -3.5 45.5t-12.5 30.5t-25.5 17.5t-42.5 5.5h-27v79h27q42 0 60 17t18 65q0 32 -9.5 51.5t-35.5 19.5q-30 0 -39 -20.5
t-9 -48.5h-130v17q0 69 47.5 99.5t133.5 30.5q88 0 132 -32.5t44 -110.5q0 -45 -15.5 -78.5t-58.5 -47.5q48 -14 64.5 -48t16.5 -89z" />
    <glyph glyph-name="four.sc" horiz-adv-x="437" 
d="M352 122v-122h-130v122h-192v91l145 331h177v-342h63v-80h-63zM228 440l-94 -239h94v239z" />
    <glyph glyph-name="five.sc" horiz-adv-x="437" 
d="M398 189q0 -50 -8 -87.5t-29 -62.5t-57.5 -38t-93.5 -13q-81 0 -125.5 31t-44.5 109h133q0 -26 8.5 -44t34.5 -18q17 0 26.5 8.5t14 24t5.5 37.5t1 49q0 19 -1 37t-5 31.5t-13.5 21.5t-25.5 8q-23 0 -32.5 -17t-11.5 -37h-128l8 315h324v-80h-197q-2 -37 -3 -67t-2 -68
q17 14 36 20.5t49 6.5q43 0 69.5 -12.5t41.5 -34.5t20.5 -52.5t5.5 -67.5z" />
    <glyph glyph-name="six.sc" horiz-adv-x="437" 
d="M403 171q0 -43 -9.5 -77t-31 -57.5t-56.5 -36t-86 -12.5q-59 0 -94.5 15t-54.5 43.5t-25.5 70.5t-6.5 97v114q0 47 7 88.5t27.5 72.5t58 49t99.5 18q38 0 68 -6.5t51.5 -21.5t33.5 -40.5t13 -62.5h-133q0 26 -9 40.5t-32 14.5q-27 0 -40 -26.5t-13 -89.5v-46
q16 13 37.5 21t54.5 8q42 0 69.5 -12t43 -34.5t22 -55t6.5 -74.5zM270 172q0 22 -1 40.5t-6 31.5t-15 20t-27 7t-27 -9t-15 -23.5t-6.5 -32t-1.5 -33.5q0 -50 9 -79t41 -29q17 0 27 8.5t15 23.5t6 34.5t1 40.5z" />
    <glyph glyph-name="seven.sc" horiz-adv-x="437" 
d="M239 0h-145l162 463h-203v81h330v-88z" />
    <glyph glyph-name="eight.sc" horiz-adv-x="437" 
d="M401 149q0 -79 -41 -120t-143 -41q-94 0 -138 36t-44 126q0 20 2.5 40t10 37.5t22.5 32t41 24.5q-43 14 -57 46.5t-14 74.5q0 77 42 114t135 37q88 0 133.5 -32.5t45.5 -111.5q0 -44 -14.5 -77t-59.5 -50q47 -16 63 -48t16 -88zM263 399q0 15 -1 29t-5 25t-13.5 18
t-25.5 7q-15 0 -24 -7t-13.5 -18t-6 -24.5t-1.5 -27.5t1.5 -27.5t6 -25t13 -18.5t23.5 -7t24.5 6.5t14 17t6 24.5t1.5 28zM267 153q0 17 -1 34t-6 30t-15 21t-27 8t-26.5 -8.5t-14.5 -21.5t-6.5 -29.5t-1.5 -32.5q0 -15 1 -31t6 -29t15 -21.5t27 -8.5q18 0 27.5 8t14.5 20.5
t6 28.5t1 32z" />
    <glyph glyph-name="nine.sc" horiz-adv-x="437" 
d="M397 231q0 -53 -4.5 -98t-23 -77t-56 -50t-103.5 -18q-79 0 -122.5 31.5t-44.5 106.5h133q0 -27 8 -44.5t34 -17.5q28 0 38.5 27t10.5 85v53q-16 -14 -36.5 -21.5t-54.5 -7.5q-79 0 -110.5 44.5t-31.5 125.5q0 43 9.5 77.5t31 58.5t56.5 37t86 13q54 0 89 -13t55.5 -38.5
t28 -64t7.5 -90.5v-119zM266 375q0 21 -1.5 40t-6.5 33t-15 22t-26 8q-17 0 -27 -8.5t-15 -23t-6.5 -33t-1.5 -38.5q0 -22 1.5 -40.5t6.5 -31.5t14.5 -20.5t26.5 -7.5t27 9t15 23.5t6.5 32t1.5 35.5z" />
    <glyph glyph-name="question.sc" horiz-adv-x="383" 
d="M353 426q0 -22 -4.5 -39.5t-14.5 -35.5t-25.5 -37t-37.5 -44q-10 -12 -16.5 -21t-10 -18t-5 -19t-1.5 -24v-21h-101v40q0 35 10.5 60t33.5 55q19 26 32.5 50.5t13.5 48.5t-9 38.5t-33 14.5q-26 0 -35 -18t-9 -38v-24h-114v22q0 72 41.5 106t122.5 34q162 0 162 -130z
M133 0v116h112v-116h-112z" />
    <glyph glyph-name="a.sc" horiz-adv-x="503" 
d="M330 118h-162l-28 -118h-140l161 544h181l161 -544h-143zM190 206h118l-60 240z" />
    <glyph glyph-name="b.sc" horiz-adv-x="497" 
d="M463 152q0 -44 -12.5 -73.5t-37 -47t-60.5 -24.5t-84 -7h-210v544h213q39 0 72.5 -6t57.5 -21t37.5 -41.5t13.5 -68.5q0 -48 -20.5 -76.5t-65.5 -44.5q53 -17 74.5 -47.5t21.5 -86.5zM318 392q0 20 -6 33t-17 20t-26.5 9.5t-34.5 2.5h-38v-133h35q45 0 66 13.5t21 54.5z
M325 165q0 42 -20.5 58t-69.5 16h-39v-152h47q46 0 64 18t18 60z" />
    <glyph glyph-name="c.sc" horiz-adv-x="477" 
d="M456 172q0 -184 -208 -184q-71 0 -113.5 20t-65.5 62q-19 35 -26 84.5t-7 115.5q0 63 7 113t27 87q23 42 66 64t115 22q99 0 149.5 -39t50.5 -128v-19h-138v16q0 15 -2.5 29t-9.5 25t-19.5 18t-31.5 7q-21 0 -34 -8.5t-21 -23.5q-12 -23 -14.5 -61.5t-2.5 -90.5
q0 -68 2.5 -109.5t14.5 -64.5q15 -28 53 -28q22 0 36 8.5t21 22t9.5 30.5t2.5 35v15h139v-18v0z" />
    <glyph glyph-name="d.sc" horiz-adv-x="520" 
d="M484 286q0 -76 -9.5 -132t-41.5 -93q-26 -29 -70.5 -45t-118.5 -16h-185v544h186q78 0 123 -16t71 -48t35.5 -80t9.5 -114zM342 270q0 59 -3.5 92.5t-15.5 55.5q-11 20 -30 27.5t-52 7.5h-42v-363h39q38 0 55.5 9t28.5 26q11 18 15.5 49t4.5 96z" />
    <glyph glyph-name="e.sc" horiz-adv-x="431" 
d="M59 0v544h342v-93h-202v-126h184v-88h-184v-144h207v-93h-347z" />
    <glyph glyph-name="f.sc" horiz-adv-x="401" 
d="M199 451v-129h179v-88h-179v-234h-140v544h327v-93h-187z" />
    <glyph glyph-name="g.sc" horiz-adv-x="507" 
d="M324 374v11q0 36 -15 58t-53 22q-43 0 -60 -32q-13 -23 -15.5 -60.5t-2.5 -88.5q0 -69 3.5 -110.5t16.5 -64.5q17 -30 60 -30q38 0 68 10v116h-70v88h205v-276q-47 -13 -97.5 -21t-101.5 -8q-78 0 -124 20.5t-69 62.5q-20 36 -26.5 86.5t-6.5 116.5q0 61 7 110.5t27 85.5
q23 42 67.5 64t120.5 22q105 0 154.5 -42t49.5 -130v-10h-138z" />
    <glyph glyph-name="h.sc" horiz-adv-x="534" 
d="M334 0v239h-134v-239h-141v544h141v-215h134v215h141v-544h-141z" />
    <glyph glyph-name="i.sc" horiz-adv-x="259" 
d="M59 0v544h141v-544h-141z" />
    <glyph glyph-name="j.sc" horiz-adv-x="443" 
d="M389 167q0 -48 -10.5 -82t-34 -55.5t-60.5 -31.5t-90 -10q-51 0 -85.5 11t-55.5 32.5t-30 54t-9 76.5v28h140v-15q0 -20 1 -37.5t5.5 -30.5t13.5 -20t26 -7t27 8t14.5 20t5.5 27.5t1 30.5v378h141v-377v0z" />
    <glyph glyph-name="k.sc" horiz-adv-x="493" 
d="M200 0h-141v544h141v-544zM327 544h159l-146 -242l156 -302h-160l-132 298z" />
    <glyph glyph-name="l.sc" horiz-adv-x="400" 
d="M59 0v544h141v-452h186v-92h-327z" />
    <glyph glyph-name="m.sc" horiz-adv-x="711" 
d="M531 0v440l-110 -440h-133l-112 440v-440h-117v544h199l98 -415l99 415h197v-544h-121z" />
    <glyph glyph-name="n.sc" horiz-adv-x="558" 
d="M310 0l-133 424v-424h-118v544h192l131 -424v424h117v-544h-189z" />
    <glyph glyph-name="o.sc" horiz-adv-x="512" 
d="M476 272q0 -63 -7 -113t-28 -86q-23 -40 -66.5 -62.5t-118.5 -22.5t-118.5 22t-66.5 62q-21 36 -28 86.5t-7 113.5t7 112.5t28 85.5q23 40 67 63t118 23t118 -21.5t67 -61.5q21 -36 28 -87t7 -114zM334 272q0 56 -3 97t-17 64q-18 32 -58 32t-58 -32q-14 -23 -17 -64
t-3 -97t3 -98t17 -65q17 -30 58 -30t58 30q14 23 17 65t3 98z" />
    <glyph glyph-name="p.sc" horiz-adv-x="484" 
d="M464 380q0 -54 -14 -87t-41.5 -51t-67 -24.5t-90.5 -6.5h-51v-211h-141v544h201q107 0 155.5 -36.5t48.5 -127.5zM323 380q0 43 -21.5 59.5t-68.5 16.5h-34v-157h31q48 0 70.5 18t22.5 63z" />
    <glyph glyph-name="q.sc" horiz-adv-x="519" 
d="M252 -7q-75 0 -116.5 21.5t-64.5 61.5q-21 36 -28 84.5t-7 111.5t7 114t28 87q23 40 66.5 61.5t118.5 21.5t118.5 -21.5t66.5 -61.5q21 -36 28 -87t7 -114q0 -62 -8 -110.5t-41 -84.5q20 3 41.5 5.5t50.5 2.5v-85h-97q-12 0 -26 -0.5t-28.5 -1t-26.5 -1t-19 -1.5
q-35 -3 -70 -3zM334 272q0 56 -3 97.5t-17 64.5q-18 32 -58 32t-58 -32q-14 -23 -17 -64.5t-3 -97.5q0 -54 3 -94.5t17 -63.5q17 -30 58 -30t58 30q14 23 17 63.5t3 94.5z" />
    <glyph glyph-name="r.sc" horiz-adv-x="511" 
d="M325 0q-5 23 -6 52t-1 50q0 32 -2 54t-9 36q-8 17 -25.5 23.5t-48.5 6.5h-33v-222h-141v544h210q42 0 77.5 -5.5t62 -21t41.5 -43.5t15 -74q0 -48 -18 -81.5t-67 -48.5q27 -5 42 -17t23 -32q8 -19 10 -45.5t3 -61.5q1 -28 3.5 -55.5t10.5 -58.5h-147zM324 386
q0 40 -20.5 55t-63.5 15h-41v-147h35q49 0 69.5 17.5t20.5 59.5z" />
    <glyph glyph-name="s.sc" horiz-adv-x="459" 
d="M432 147q0 -82 -53 -120.5t-150 -38.5q-105 0 -154 41t-49 132v13h140v-17q0 -39 14.5 -60t50.5 -21q33 0 47 16t14 46q0 12 -2.5 21.5t-9.5 18.5t-21 17.5t-36 19.5l-75 35q-61 28 -87 62t-26 90q0 75 49 114.5t149 39.5q94 0 142.5 -38.5t48.5 -112.5v-19h-138v17
q0 28 -10.5 47t-44.5 19q-57 0 -57 -55q0 -23 15.5 -39t50.5 -32l62 -28q37 -17 62 -34t40 -36.5t21.5 -43.5t6.5 -54z" />
    <glyph glyph-name="t.sc" horiz-adv-x="417" 
d="M279 453v-453h-141v453h-136v91h413v-91h-136z" />
    <glyph glyph-name="u.sc" horiz-adv-x="538" 
d="M483 180q0 -100 -51.5 -146t-166.5 -46q-60 0 -100.5 12.5t-64.5 37.5t-34.5 62t-10.5 85v359h139v-349q0 -21 1.5 -42t8 -37.5t21 -26.5t41.5 -10t43 10t24 25.5t10 36t2 41.5v352h138v-364v0z" />
    <glyph glyph-name="v.sc" horiz-adv-x="493" 
d="M324 0h-166l-151 544h148l91 -421l102 421h138z" />
    <glyph glyph-name="w.sc" horiz-adv-x="750" 
d="M611 0h-149l-82 424l-90 -424h-156l-123 544h146l65 -412l86 412h151l80 -412l70 412h131z" />
    <glyph glyph-name="x.sc" horiz-adv-x="483" 
d="M326 0l-89 201l-92 -201h-144l158 286l-146 258h156l80 -182l79 182h144l-147 -263l157 -281h-156z" />
    <glyph glyph-name="y.sc" horiz-adv-x="464" 
d="M302 191v-191h-140v191l-165 353h150l91 -248l87 248h142z" />
    <glyph glyph-name="z.sc" horiz-adv-x="429" 
d="M18 0v97l241 356h-229v91h377v-95l-241 -358h245v-91h-393z" />
    <glyph glyph-name="agrave.sc" horiz-adv-x="503" 
d="M330 118h-162l-28 -118h-140l161 544h181l161 -544h-143zM190 206h118l-60 240zM241 622l-143 143h135l91 -143h-83z" />
    <glyph glyph-name="aacute.sc" horiz-adv-x="503" 
d="M330 118h-162l-28 -118h-140l161 544h181l161 -544h-143zM190 206h118l-60 240zM260 622h-82l90 143h136z" />
    <glyph glyph-name="acircumflex.sc" horiz-adv-x="503" 
d="M330 118h-162l-28 -118h-140l161 544h181l161 -544h-143zM190 206h118l-60 240zM328 622l-76 84l-75 -84h-86l104 143h115l103 -143h-85z" />
    <glyph glyph-name="atilde.sc" horiz-adv-x="503" 
d="M330 118h-162l-28 -118h-140l161 544h181l161 -544h-143zM190 206h118l-60 240zM428 751q-3 -22 -11 -42.5t-21 -36.5t-32 -26t-43 -10q-20 0 -38 5.5t-35.5 12.5t-36 12.5t-37.5 5.5q-18 0 -28.5 -13t-13.5 -30h-57q3 23 11 44t21.5 37t33 25.5t44.5 9.5q19 0 37.5 -6
t35.5 -13t33.5 -13t32.5 -6q21 0 31.5 12t15.5 32h57v0z" />
    <glyph glyph-name="adieresis.sc" horiz-adv-x="503" 
d="M330 118h-162l-28 -118h-140l161 544h181l161 -544h-143zM190 206h118l-60 240zM283 644v109h112v-109h-112zM108 644v109h112v-109h-112z" />
    <glyph glyph-name="amacron.sc" horiz-adv-x="503" 
d="M330 118h-162l-28 -118h-140l161 544h181l161 -544h-143zM190 206h118l-60 240zM107 662v65h289v-65h-289z" />
    <glyph glyph-name="abreve.sc" horiz-adv-x="503" 
d="M330 118h-162l-28 -118h-140l161 544h181l161 -544h-143zM190 206h118l-60 240zM413 767q-8 -72 -52 -107t-114 -35t-110 36t-47 106h58q8 -41 37.5 -58t67.5 -17q39 0 67 17t36 58h57v0z" />
    <glyph glyph-name="aring.sc" horiz-adv-x="503" 
d="M330 118h-162l-28 -118h-140l161 544h181l161 -544h-143zM190 206h118l-60 240zM354 708q0 -43 -29.5 -72.5t-73.5 -29.5q-21 0 -40 8t-33 21.5t-22 32.5t-8 40t8 40t22 32.5t33 21.5t40 8q44 0 73.5 -29.5t29.5 -72.5zM308 708q0 26 -16 42.5t-41 16.5q-24 0 -40 -16.5
t-16 -42.5t16 -43t40 -17q25 0 41 17t16 43z" />
    <glyph glyph-name="aogonek.sc" horiz-adv-x="503" 
d="M330 118h-162l-28 -118h-140l161 544h181l161 -544q-44 -32 -63 -55t-19 -50q0 -23 15.5 -33.5t35.5 -10.5q11 0 22 3t20 8l4 -41q-17 -14 -40 -22.5t-49 -8.5q-33 0 -59 15t-26 53q0 23 9 43.5t23.5 38.5t32 33t35.5 27h-84zM190 206h118l-60 240z" />
    <glyph glyph-name="ae.sc" horiz-adv-x="666" 
d="M431 325h187v-88h-171l28 -144h166v-93h-284l-22 119h-162l-39 -119h-134l196 544h440v-93h-229zM201 206h119l-42 235z" />
    <glyph glyph-name="cacute.sc" horiz-adv-x="477" 
d="M456 172q0 -184 -208 -184q-71 0 -113.5 20t-65.5 62q-19 35 -26 84.5t-7 115.5q0 63 7 113t27 87q23 42 66 64t115 22q99 0 149.5 -39t50.5 -128v-19h-138v16q0 15 -2.5 29t-9.5 25t-19.5 18t-31.5 7q-21 0 -34 -8.5t-21 -23.5q-12 -23 -14.5 -61.5t-2.5 -90.5
q0 -68 2.5 -109.5t14.5 -64.5q15 -28 53 -28q22 0 36 8.5t21 22t9.5 30.5t2.5 35v15h139v-18v0zM261 622h-82l90 143h136z" />
    <glyph glyph-name="ccircumflex.sc" horiz-adv-x="477" 
d="M456 172q0 -184 -208 -184q-71 0 -113.5 20t-65.5 62q-19 35 -26 84.5t-7 115.5q0 63 7 113t27 87q23 42 66 64t115 22q99 0 149.5 -39t50.5 -128v-19h-138v16q0 15 -2.5 29t-9.5 25t-19.5 18t-31.5 7q-21 0 -34 -8.5t-21 -23.5q-12 -23 -14.5 -61.5t-2.5 -90.5
q0 -68 2.5 -109.5t14.5 -64.5q15 -28 53 -28q22 0 36 8.5t21 22t9.5 30.5t2.5 35v15h139v-18v0zM327 622l-76 84l-75 -84h-86l104 143h115l103 -143h-85z" />
    <glyph glyph-name="ccaron.sc" horiz-adv-x="477" 
d="M456 172q0 -184 -208 -184q-71 0 -113.5 20t-65.5 62q-19 35 -26 84.5t-7 115.5q0 63 7 113t27 87q23 42 66 64t115 22q99 0 149.5 -39t50.5 -128v-19h-138v16q0 15 -2.5 29t-9.5 25t-19.5 18t-31.5 7q-21 0 -34 -8.5t-21 -23.5q-12 -23 -14.5 -61.5t-2.5 -90.5
q0 -68 2.5 -109.5t14.5 -64.5q15 -28 53 -28q22 0 36 8.5t21 22t9.5 30.5t2.5 35v15h139v-18v0zM412 765l-103 -143h-115l-104 143h86l75 -84l76 84h85z" />
    <glyph glyph-name="cdotaccent.sc" horiz-adv-x="477" 
d="M456 172q0 -184 -208 -184q-71 0 -113.5 20t-65.5 62q-19 35 -26 84.5t-7 115.5q0 63 7 113t27 87q23 42 66 64t115 22q99 0 149.5 -39t50.5 -128v-19h-138v16q0 15 -2.5 29t-9.5 25t-19.5 18t-31.5 7q-21 0 -34 -8.5t-21 -23.5q-12 -23 -14.5 -61.5t-2.5 -90.5
q0 -68 2.5 -109.5t14.5 -64.5q15 -28 53 -28q22 0 36 8.5t21 22t9.5 30.5t2.5 35v15h139v-18v0zM194 644v109h112v-109h-112z" />
    <glyph glyph-name="ccedilla.sc" horiz-adv-x="477" 
d="M358 -134q0 -23 -10.5 -40.5t-27.5 -29t-38 -17.5t-42 -6q-28 0 -55 7t-52 19l18 40q17 -7 34.5 -11.5t35.5 -4.5q20 0 38 9t18 32q0 20 -14.5 27.5t-34.5 7.5q-17 0 -36 -7l-22 19l57 78q-61 2 -99.5 22t-58.5 59q-19 35 -26 84.5t-7 115.5q0 63 7 113t27 87
q23 42 66 64t115 22q99 0 149.5 -39t50.5 -128v-19h-138v16q0 15 -2.5 29t-9.5 25t-19.5 18t-31.5 7q-21 0 -34 -8.5t-21 -23.5q-12 -23 -14.5 -61.5t-2.5 -90.5q0 -68 2.5 -109.5t14.5 -64.5q15 -28 53 -28q22 0 36 8.5t21 22t9.5 30.5t2.5 35v15h139v-18q0 -169 -179 -183
l-35 -50q6 2 13 3t16 1q35 0 61 -19.5t26 -57.5z" />
    <glyph glyph-name="dcaron.sc" horiz-adv-x="520" 
d="M484 286q0 -76 -9.5 -132t-41.5 -93q-26 -29 -70.5 -45t-118.5 -16h-185v544h186q78 0 123 -16t71 -48t35.5 -80t9.5 -114zM342 270q0 59 -3.5 92.5t-15.5 55.5q-11 20 -30 27.5t-52 7.5h-42v-363h39q38 0 55.5 9t28.5 26q11 18 15.5 49t4.5 96zM421 765l-103 -143h-115
l-104 143h86l75 -84l76 84h85z" />
    <glyph glyph-name="dcroat.sc" horiz-adv-x="520" 
d="M484 286q0 -76 -9.5 -132t-41.5 -93q-26 -29 -70.5 -45t-118.5 -16h-185v249h-52v71h52v224h186q78 0 123 -16t71 -48t35.5 -80t9.5 -114zM198 249v-160h41q38 0 55.5 9.5t28.5 26.5q11 18 15.5 49t4.5 96q0 59 -3.5 92.5t-15.5 55.5q-11 20 -30 28t-52 8h-44v-134h79
v-71h-79z" />
    <glyph glyph-name="eth.sc" horiz-adv-x="520" 
d="M484 286q0 -76 -9.5 -132t-41.5 -93q-26 -29 -70.5 -45t-118.5 -16h-185v249h-52v71h52v224h186q78 0 123 -16t71 -48t35.5 -80t9.5 -114zM198 249v-160h41q38 0 55.5 9.5t28.5 26.5q11 18 15.5 49t4.5 96q0 59 -3.5 92.5t-15.5 55.5q-11 20 -30 28t-52 8h-44v-134h79
v-71h-79z" />
    <glyph glyph-name="egrave.sc" horiz-adv-x="431" 
d="M59 0v544h342v-93h-202v-126h184v-88h-184v-144h207v-93h-347zM225 622l-143 143h135l91 -143h-83z" />
    <glyph glyph-name="eacute.sc" horiz-adv-x="431" 
d="M59 0v544h342v-93h-202v-126h184v-88h-184v-144h207v-93h-347zM234 622h-82l90 143h136z" />
    <glyph glyph-name="ecircumflex.sc" horiz-adv-x="431" 
d="M59 0v544h342v-93h-202v-126h184v-88h-184v-144h207v-93h-347zM309 622l-76 84l-75 -84h-86l104 143h115l103 -143h-85z" />
    <glyph glyph-name="ecaron.sc" horiz-adv-x="431" 
d="M59 0v544h342v-93h-202v-126h184v-88h-184v-144h207v-93h-347zM394 765l-103 -143h-115l-104 143h86l75 -84l76 84h85z" />
    <glyph glyph-name="edieresis.sc" horiz-adv-x="431" 
d="M59 0v544h342v-93h-202v-126h184v-88h-184v-144h207v-93h-347zM262 644v109h112v-109h-112zM87 644v109h112v-109h-112z" />
    <glyph glyph-name="emacron.sc" horiz-adv-x="431" 
d="M59 0v544h342v-93h-202v-126h184v-88h-184v-144h207v-93h-347zM86 662v65h289v-65h-289z" />
    <glyph glyph-name="ebreve.sc" horiz-adv-x="431" 
d="M59 0v544h342v-93h-202v-126h184v-88h-184v-144h207v-93h-347zM392 767q-8 -72 -52 -107t-114 -35t-110 36t-47 106h58q8 -41 37.5 -58t67.5 -17q39 0 67 17t36 58h57v0z" />
    <glyph glyph-name="edotaccent.sc" horiz-adv-x="431" 
d="M59 0v544h342v-93h-202v-126h184v-88h-184v-144h207v-93h-347zM174 644v109h112v-109h-112z" />
    <glyph glyph-name="eogonek.sc" horiz-adv-x="431" 
d="M422 -179q-17 -14 -40 -22.5t-49 -8.5q-33 0 -59 15t-26 53q0 23 9 43.5t23.5 38.5t32 33t35.5 27h-289v544h342v-93h-202v-126h184v-88h-184v-144h207v-93q-44 -32 -62.5 -55t-18.5 -50q0 -23 15.5 -33.5t35.5 -10.5q11 0 22 3t20 8z" />
    <glyph glyph-name="gcircumflex.sc" horiz-adv-x="507" 
d="M324 374v11q0 36 -15 58t-53 22q-43 0 -60 -32q-13 -23 -15.5 -60.5t-2.5 -88.5q0 -69 3.5 -110.5t16.5 -64.5q17 -30 60 -30q38 0 68 10v116h-70v88h205v-276q-47 -13 -97.5 -21t-101.5 -8q-78 0 -124 20.5t-69 62.5q-20 36 -26.5 86.5t-6.5 116.5q0 61 7 110.5t27 85.5
q23 42 67.5 64t120.5 22q105 0 154.5 -42t49.5 -130v-10h-138zM334 622l-76 84l-75 -84h-86l104 143h115l103 -143h-85z" />
    <glyph glyph-name="gbreve.sc" horiz-adv-x="507" 
d="M324 374v11q0 36 -15 58t-53 22q-43 0 -60 -32q-13 -23 -15.5 -60.5t-2.5 -88.5q0 -69 3.5 -110.5t16.5 -64.5q17 -30 60 -30q38 0 68 10v116h-70v88h205v-276q-47 -13 -97.5 -21t-101.5 -8q-78 0 -124 20.5t-69 62.5q-20 36 -26.5 86.5t-6.5 116.5q0 61 7 110.5t27 85.5
q23 42 67.5 64t120.5 22q105 0 154.5 -42t49.5 -130v-10h-138zM419 767q-8 -72 -52 -107t-114 -35t-110 36t-47 106h58q8 -41 37.5 -58t67.5 -17q39 0 67 17t36 58h57v0z" />
    <glyph glyph-name="gdotaccent.sc" horiz-adv-x="507" 
d="M324 374v11q0 36 -15 58t-53 22q-43 0 -60 -32q-13 -23 -15.5 -60.5t-2.5 -88.5q0 -69 3.5 -110.5t16.5 -64.5q17 -30 60 -30q38 0 68 10v116h-70v88h205v-276q-47 -13 -97.5 -21t-101.5 -8q-78 0 -124 20.5t-69 62.5q-20 36 -26.5 86.5t-6.5 116.5q0 61 7 110.5t27 85.5
q23 42 67.5 64t120.5 22q105 0 154.5 -42t49.5 -130v-10h-138zM201 644v109h112v-109h-112z" />
    <glyph glyph-name="gcommaaccent.sc" horiz-adv-x="507" 
d="M324 374v11q0 36 -15 58t-53 22q-43 0 -60 -32q-13 -23 -15.5 -60.5t-2.5 -88.5q0 -69 3.5 -110.5t16.5 -64.5q17 -30 60 -30q38 0 68 10v116h-70v88h205v-276q-47 -13 -97.5 -21t-101.5 -8q-78 0 -124 20.5t-69 62.5q-20 36 -26.5 86.5t-6.5 116.5q0 61 7 110.5t27 85.5
q23 42 67.5 64t120.5 22q105 0 154.5 -42t49.5 -130v-10h-138zM271 -215h-91l30 161h117z" />
    <glyph glyph-name="hcircumflex.sc" horiz-adv-x="534" 
d="M334 0v239h-134v-239h-141v544h141v-215h134v215h141v-544h-141zM344 622l-76 84l-75 -84h-86l104 143h115l103 -143h-85z" />
    <glyph glyph-name="hbar.sc" horiz-adv-x="534" 
d="M334 0v239h-134v-239h-141v544h141v-89h134v89h141v-544h-141zM334 329v40h-134v-40h134z" />
    <glyph glyph-name="igrave.sc" horiz-adv-x="259" 
d="M59 0v544h141v-544h-141zM113 622l-143 143h135l91 -143h-83z" />
    <glyph glyph-name="iacute.sc" horiz-adv-x="259" 
d="M59 0v544h141v-544h-141zM149 622h-82l90 143h136z" />
    <glyph glyph-name="ibreve.sc" horiz-adv-x="259" 
d="M59 0v544h141v-544h-141zM291 767q-8 -72 -52 -107t-114 -35t-110 36t-47 106h58q8 -41 37.5 -58t67.5 -17q39 0 67 17t36 58h57v0z" />
    <glyph glyph-name="icircumflex.sc" horiz-adv-x="259" 
d="M59 0v544h141v-544h-141zM206 622l-76 84l-75 -84h-86l104 143h115l103 -143h-85z" />
    <glyph glyph-name="itilde.sc" horiz-adv-x="259" 
d="M59 0v544h141v-544h-141zM306 751q-3 -22 -11 -42.5t-21 -36.5t-32 -26t-43 -10q-20 0 -38 5.5t-35.5 12.5t-36 12.5t-37.5 5.5q-18 0 -28.5 -13t-13.5 -30h-57q3 23 11 44t21.5 37t33 25.5t44.5 9.5q19 0 37.5 -6t35.5 -13t33.5 -13t32.5 -6q21 0 31.5 12t15.5 32h57v0z
" />
    <glyph glyph-name="idieresis.sc" horiz-adv-x="259" 
d="M59 0v544h141v-544h-141zM161 644v109h112v-109h-112zM-14 644v109h112v-109h-112z" />
    <glyph glyph-name="imacron.sc" horiz-adv-x="259" 
d="M59 0v544h141v-544h-141zM-15 662v65h289v-65h-289z" />
    <glyph glyph-name="idotaccent.sc" horiz-adv-x="259" 
d="M59 0v544h141v-544h-141zM73 644v109h112v-109h-112z" />
    <glyph glyph-name="iogonek.sc" horiz-adv-x="259" 
d="M216 -179q-17 -14 -40 -22.5t-49 -8.5q-33 0 -59 15t-26 53q0 23 9 43.5t23.5 38.5t32 33t35.5 27h-83v544h141v-544q-44 -32 -62.5 -55t-18.5 -50q0 -23 15.5 -33.5t35.5 -10.5q11 0 22 3t20 8z" />
    <glyph glyph-name="jcircumflex.sc" horiz-adv-x="443" 
d="M389 167q0 -48 -10.5 -82t-34 -55.5t-60.5 -31.5t-90 -10q-51 0 -85.5 11t-55.5 32.5t-30 54t-9 76.5v28h140v-15q0 -20 1 -37.5t5.5 -30.5t13.5 -20t26 -7t27 8t14.5 20t5.5 27.5t1 30.5v378h141v-377v0zM396 622l-76 84l-75 -84h-86l104 143h115l103 -143h-85z" />
    <glyph glyph-name="kcommaaccent.sc" horiz-adv-x="493" 
d="M200 0h-141v544h141v-544zM327 544h159l-146 -242l156 -302h-160l-132 298zM272 -215h-91l30 161h117z" />
    <glyph glyph-name="lacute.sc" horiz-adv-x="400" 
d="M59 0v544h141v-452h186v-92h-327zM154 622h-82l90 143h136z" />
    <glyph glyph-name="lcaron.sc" horiz-adv-x="400" 
d="M59 0v544h141v-452h186v-92h-327zM328 366h-91l23 179h126z" />
    <glyph glyph-name="lcommaaccent.sc" horiz-adv-x="400" 
d="M59 0v544h141v-452h186v-92h-327zM231 -215h-91l30 161h117z" />
    <glyph glyph-name="lslash.sc" horiz-adv-x="400" 
d="M59 0v213l-53 -27v84l53 27v247h141v-176l91 47v-84l-91 -47v-192h186v-92h-327z" />
    <glyph glyph-name="ldot.sc" horiz-adv-x="400" 
d="M59 0v544h141v-452h186v-92h-327zM277 248v109h112v-109h-112z" />
    <glyph glyph-name="nacute.sc" horiz-adv-x="558" 
d="M310 0l-133 424v-424h-118v544h192l131 -424v424h117v-544h-189zM268 622h-82l90 143h136z" />
    <glyph glyph-name="ncaron.sc" horiz-adv-x="558" 
d="M310 0l-133 424v-424h-118v544h192l131 -424v424h117v-544h-189zM440 765l-103 -143h-115l-104 143h86l75 -84l76 84h85z" />
    <glyph glyph-name="ntilde.sc" horiz-adv-x="558" 
d="M310 0l-133 424v-424h-118v544h192l131 -424v424h117v-544h-189zM456 751q-3 -22 -11 -42.5t-21 -36.5t-32 -26t-43 -10q-20 0 -38 5.5t-35.5 12.5t-36 12.5t-37.5 5.5q-18 0 -28.5 -13t-13.5 -30h-57q3 23 11 44t21.5 37t33 25.5t44.5 9.5q19 0 37.5 -6t35.5 -13
t33.5 -13t32.5 -6q21 0 31.5 12t15.5 32h57v0z" />
    <glyph glyph-name="ncommaaccent.sc" horiz-adv-x="558" 
d="M310 0l-133 424v-424h-118v544h192l131 -424v424h117v-544h-189zM296 -215h-91l30 161h117z" />
    <glyph glyph-name="ograve.sc" horiz-adv-x="512" 
d="M476 272q0 -63 -7 -113t-28 -86q-23 -40 -66.5 -62.5t-118.5 -22.5t-118.5 22t-66.5 62q-21 36 -28 86.5t-7 113.5t7 112.5t28 85.5q23 40 67 63t118 23t118 -21.5t67 -61.5q21 -36 28 -87t7 -114zM334 272q0 56 -3 97t-17 64q-18 32 -58 32t-58 -32q-14 -23 -17 -64
t-3 -97t3 -98t17 -65q17 -30 58 -30t58 30q14 23 17 65t3 98zM258 622l-143 143h135l91 -143h-83z" />
    <glyph glyph-name="oacute.sc" horiz-adv-x="512" 
d="M476 272q0 -63 -7 -113t-28 -86q-23 -40 -66.5 -62.5t-118.5 -22.5t-118.5 22t-66.5 62q-21 36 -28 86.5t-7 113.5t7 112.5t28 85.5q23 40 67 63t118 23t118 -21.5t67 -61.5q21 -36 28 -87t7 -114zM334 272q0 56 -3 97t-17 64q-18 32 -58 32t-58 -32q-14 -23 -17 -64
t-3 -97t3 -98t17 -65q17 -30 58 -30t58 30q14 23 17 65t3 98zM253 622h-82l90 143h136z" />
    <glyph glyph-name="ocircumflex.sc" horiz-adv-x="512" 
d="M476 272q0 -63 -7 -113t-28 -86q-23 -40 -66.5 -62.5t-118.5 -22.5t-118.5 22t-66.5 62q-21 36 -28 86.5t-7 113.5t7 112.5t28 85.5q23 40 67 63t118 23t118 -21.5t67 -61.5q21 -36 28 -87t7 -114zM334 272q0 56 -3 97t-17 64q-18 32 -58 32t-58 -32q-14 -23 -17 -64
t-3 -97t3 -98t17 -65q17 -30 58 -30t58 30q14 23 17 65t3 98zM333 622l-76 84l-75 -84h-86l104 143h115l103 -143h-85z" />
    <glyph glyph-name="otilde.sc" horiz-adv-x="512" 
d="M476 272q0 -63 -7 -113t-28 -86q-23 -40 -66.5 -62.5t-118.5 -22.5t-118.5 22t-66.5 62q-21 36 -28 86.5t-7 113.5t7 112.5t28 85.5q23 40 67 63t118 23t118 -21.5t67 -61.5q21 -36 28 -87t7 -114zM334 272q0 56 -3 97t-17 64q-18 32 -58 32t-58 -32q-14 -23 -17 -64
t-3 -97t3 -98t17 -65q17 -30 58 -30t58 30q14 23 17 65t3 98zM433 751q-3 -22 -11 -42.5t-21 -36.5t-32 -26t-43 -10q-20 0 -38 5.5t-35.5 12.5t-36 12.5t-37.5 5.5q-18 0 -28.5 -13t-13.5 -30h-57q3 23 11 44t21.5 37t33 25.5t44.5 9.5q19 0 37.5 -6t35.5 -13t33.5 -13
t32.5 -6q21 0 31.5 12t15.5 32h57v0z" />
    <glyph glyph-name="odieresis.sc" horiz-adv-x="512" 
d="M476 272q0 -63 -7 -113t-28 -86q-23 -40 -66.5 -62.5t-118.5 -22.5t-118.5 22t-66.5 62q-21 36 -28 86.5t-7 113.5t7 112.5t28 85.5q23 40 67 63t118 23t118 -21.5t67 -61.5q21 -36 28 -87t7 -114zM334 272q0 56 -3 97t-17 64q-18 32 -58 32t-58 -32q-14 -23 -17 -64
t-3 -97t3 -98t17 -65q17 -30 58 -30t58 30q14 23 17 65t3 98zM288 644v109h112v-109h-112zM113 644v109h112v-109h-112z" />
    <glyph glyph-name="omacron.sc" horiz-adv-x="512" 
d="M476 272q0 -63 -7 -113t-28 -86q-23 -40 -66.5 -62.5t-118.5 -22.5t-118.5 22t-66.5 62q-21 36 -28 86.5t-7 113.5t7 112.5t28 85.5q23 40 67 63t118 23t118 -21.5t67 -61.5q21 -36 28 -87t7 -114zM334 272q0 56 -3 97t-17 64q-18 32 -58 32t-58 -32q-14 -23 -17 -64
t-3 -97t3 -98t17 -65q17 -30 58 -30t58 30q14 23 17 65t3 98zM112 662v65h289v-65h-289z" />
    <glyph glyph-name="obreve.sc" horiz-adv-x="512" 
d="M476 272q0 -63 -7 -113t-28 -86q-23 -40 -66.5 -62.5t-118.5 -22.5t-118.5 22t-66.5 62q-21 36 -28 86.5t-7 113.5t7 112.5t28 85.5q23 40 67 63t118 23t118 -21.5t67 -61.5q21 -36 28 -87t7 -114zM334 272q0 56 -3 97t-17 64q-18 32 -58 32t-58 -32q-14 -23 -17 -64
t-3 -97t3 -98t17 -65q17 -30 58 -30t58 30q14 23 17 65t3 98zM418 767q-8 -72 -52 -107t-114 -35t-110 36t-47 106h58q8 -41 37.5 -58t67.5 -17q39 0 67 17t36 58h57v0z" />
    <glyph glyph-name="ohungarumlaut.sc" horiz-adv-x="512" 
d="M476 272q0 -63 -7 -113t-28 -86q-23 -40 -66.5 -62.5t-118.5 -22.5t-118.5 22t-66.5 62q-21 36 -28 86.5t-7 113.5t7 112.5t28 85.5q23 40 67 63t118 23t118 -21.5t67 -61.5q21 -36 28 -87t7 -114zM334 272q0 56 -3 97t-17 64q-18 32 -58 32t-58 -32q-14 -23 -17 -64
t-3 -97t3 -98t17 -65q17 -30 58 -30t58 30q14 23 17 65t3 98zM369 622h-82l90 143h137zM184 622h-82l90 143h136z" />
    <glyph glyph-name="oslash.sc" horiz-adv-x="512" 
d="M13 -18l62 82q-3 2 -4 7q-21 36 -28 87t-7 114t7 114t28 87q23 40 66.5 61.5t118.5 21.5q56 0 93.5 -11.5t62.5 -34.5l55 73l46 -34l-66 -87q17 -36 23 -84t6 -106q0 -63 -7 -114t-28 -87q-23 -40 -66.5 -61.5t-118.5 -21.5q-48 0 -82.5 8.5t-58.5 25.5l-56 -74zM178 272
v-37t1 -33l148 195q-2 11 -5.5 20t-7.5 17q-18 32 -58 32t-58 -32q-14 -23 -17 -64.5t-3 -97.5zM334 312l-143 -189q4 -10 7 -14q17 -30 58 -30t58 30q14 23 17 65t3 98v40z" />
    <glyph glyph-name="oe.sc" horiz-adv-x="679" 
d="M390 0q-14 0 -28.5 -0.5t-28.5 -1.5t-28 -1h-30q-67 0 -112.5 12.5t-73.5 42t-40.5 79t-12.5 123.5q0 70 8 125t32.5 92t71 56.5t123.5 19.5h20.5t30.5 -1t29 -1.5t27 -0.5h271v-93h-193v-126h175v-88h-175v-144h198v-93h-264zM317 457h-24q-44 0 -67.5 -10t-34.5 -33.5
t-13 -62.5t-2 -97q0 -47 3 -79t13 -51.5t29 -28t52 -8.5h22.5t21.5 1v369z" />
    <glyph glyph-name="racute.sc" horiz-adv-x="511" 
d="M325 0q-5 23 -6 52t-1 50q0 32 -2 54t-9 36q-8 17 -25.5 23.5t-48.5 6.5h-33v-222h-141v544h210q42 0 77.5 -5.5t62 -21t41.5 -43.5t15 -74q0 -48 -18 -81.5t-67 -48.5q27 -5 42 -17t23 -32q8 -19 10 -45.5t3 -61.5q1 -28 3.5 -55.5t10.5 -58.5h-147zM324 386
q0 40 -20.5 55t-63.5 15h-41v-147h35q49 0 69.5 17.5t20.5 59.5zM268 622h-82l90 143h136z" />
    <glyph glyph-name="rcaron.sc" horiz-adv-x="511" 
d="M325 0q-5 23 -6 52t-1 50q0 32 -2 54t-9 36q-8 17 -25.5 23.5t-48.5 6.5h-33v-222h-141v544h210q42 0 77.5 -5.5t62 -21t41.5 -43.5t15 -74q0 -48 -18 -81.5t-67 -48.5q27 -5 42 -17t23 -32q8 -19 10 -45.5t3 -61.5q1 -28 3.5 -55.5t10.5 -58.5h-147zM324 386
q0 40 -20.5 55t-63.5 15h-41v-147h35q49 0 69.5 17.5t20.5 59.5zM413 765l-103 -143h-115l-104 143h86l75 -84l76 84h85z" />
    <glyph glyph-name="rcommaaccent.sc" horiz-adv-x="511" 
d="M325 0q-5 23 -6 52t-1 50q0 32 -2 54t-9 36q-8 17 -25.5 23.5t-48.5 6.5h-33v-222h-141v544h210q42 0 77.5 -5.5t62 -21t41.5 -43.5t15 -74q0 -48 -18 -81.5t-67 -48.5q27 -5 42 -17t23 -32q8 -19 10 -45.5t3 -61.5q1 -28 3.5 -55.5t10.5 -58.5h-147zM324 386
q0 40 -20.5 55t-63.5 15h-41v-147h35q49 0 69.5 17.5t20.5 59.5zM273 -215h-91l30 161h117z" />
    <glyph glyph-name="sacute.sc" horiz-adv-x="459" 
d="M432 147q0 -82 -53 -120.5t-150 -38.5q-105 0 -154 41t-49 132v13h140v-17q0 -39 14.5 -60t50.5 -21q33 0 47 16t14 46q0 12 -2.5 21.5t-9.5 18.5t-21 17.5t-36 19.5l-75 35q-61 28 -87 62t-26 90q0 75 49 114.5t149 39.5q94 0 142.5 -38.5t48.5 -112.5v-19h-138v17
q0 28 -10.5 47t-44.5 19q-57 0 -57 -55q0 -23 15.5 -39t50.5 -32l62 -28q37 -17 62 -34t40 -36.5t21.5 -43.5t6.5 -54zM248 622h-82l90 143h136z" />
    <glyph glyph-name="scircumflex.sc" horiz-adv-x="459" 
d="M432 147q0 -82 -53 -120.5t-150 -38.5q-105 0 -154 41t-49 132v13h140v-17q0 -39 14.5 -60t50.5 -21q33 0 47 16t14 46q0 12 -2.5 21.5t-9.5 18.5t-21 17.5t-36 19.5l-75 35q-61 28 -87 62t-26 90q0 75 49 114.5t149 39.5q94 0 142.5 -38.5t48.5 -112.5v-19h-138v17
q0 28 -10.5 47t-44.5 19q-57 0 -57 -55q0 -23 15.5 -39t50.5 -32l62 -28q37 -17 62 -34t40 -36.5t21.5 -43.5t6.5 -54zM306 622l-76 84l-75 -84h-86l104 143h115l103 -143h-85z" />
    <glyph glyph-name="scaron.sc" horiz-adv-x="459" 
d="M432 147q0 -82 -53 -120.5t-150 -38.5q-105 0 -154 41t-49 132v13h140v-17q0 -39 14.5 -60t50.5 -21q33 0 47 16t14 46q0 12 -2.5 21.5t-9.5 18.5t-21 17.5t-36 19.5l-75 35q-61 28 -87 62t-26 90q0 75 49 114.5t149 39.5q94 0 142.5 -38.5t48.5 -112.5v-19h-138v17
q0 28 -10.5 47t-44.5 19q-57 0 -57 -55q0 -23 15.5 -39t50.5 -32l62 -28q37 -17 62 -34t40 -36.5t21.5 -43.5t6.5 -54zM391 765l-103 -143h-115l-104 143h86l75 -84l76 84h85z" />
    <glyph glyph-name="scedilla.sc" horiz-adv-x="459" 
d="M342 -134q0 -23 -10.5 -40.5t-27.5 -29t-38 -17.5t-42 -6q-28 0 -55 7t-52 19l18 40q17 -7 34.5 -11.5t35.5 -4.5q20 0 38 9t18 32q0 20 -14.5 27.5t-34.5 7.5q-17 0 -36 -7l-22 19l57 78q-96 3 -140.5 43.5t-44.5 128.5v13h140v-17q0 -39 14.5 -60t50.5 -21q33 0 47 16
t14 46q0 12 -2.5 21.5t-9.5 18.5t-21 17.5t-36 19.5l-75 35q-61 28 -87 62t-26 90q0 75 49 114.5t149 39.5q94 0 142.5 -38.5t48.5 -112.5v-19h-138v17q0 28 -10.5 47t-44.5 19q-57 0 -57 -55q0 -23 15.5 -39t50.5 -32l62 -28q37 -17 62 -34t40 -36.5t21.5 -43.5t6.5 -54
q0 -75 -44.5 -113.5t-126.5 -44.5l-35 -50q6 2 13 3t16 1q35 0 61 -19.5t26 -57.5z" />
    <glyph glyph-name="scommaaccent.sc" horiz-adv-x="459" 
d="M432 147q0 -82 -53 -120.5t-150 -38.5q-105 0 -154 41t-49 132v13h140v-17q0 -39 14.5 -60t50.5 -21q33 0 47 16t14 46q0 12 -2.5 21.5t-9.5 18.5t-21 17.5t-36 19.5l-75 35q-61 28 -87 62t-26 90q0 75 49 114.5t149 39.5q94 0 142.5 -38.5t48.5 -112.5v-19h-138v17
q0 28 -10.5 47t-44.5 19q-57 0 -57 -55q0 -23 15.5 -39t50.5 -32l62 -28q37 -17 62 -34t40 -36.5t21.5 -43.5t6.5 -54zM239 -215h-91l30 161h117z" />
    <glyph glyph-name="tcaron.sc" horiz-adv-x="417" 
d="M279 453v-453h-141v453h-136v91h413v-91h-136zM370 765l-103 -143h-115l-104 143h86l75 -84l76 84h85z" />
    <glyph glyph-name="tcommaaccent.sc" horiz-adv-x="417" 
d="M279 453v-453h-141v453h-136v91h413v-91h-136zM215 -215h-91l30 161h117z" />
    <glyph glyph-name="tbar.sc" horiz-adv-x="417" 
d="M24 322h114v131h-136v91h413v-91h-136v-131h114v-86h-114v-236h-141v236h-114v86z" />
    <glyph glyph-name="thorn.sc" horiz-adv-x="484" 
d="M464 283q0 -54 -14 -87t-41.5 -51t-67 -24.5t-90.5 -6.5h-51v-114h-141v544h141v-97h60q107 0 155.5 -36.5t48.5 -127.5zM323 283q0 43 -21.5 59.5t-68.5 16.5h-34v-157h31q48 0 70.5 18t22.5 63z" />
    <glyph glyph-name="ugrave.sc" horiz-adv-x="538" 
d="M483 180q0 -100 -51.5 -146t-166.5 -46q-60 0 -100.5 12.5t-64.5 37.5t-34.5 62t-10.5 85v359h139v-349q0 -21 1.5 -42t8 -37.5t21 -26.5t41.5 -10t43 10t24 25.5t10 36t2 41.5v352h138v-364v0zM259 622l-143 143h135l91 -143h-83z" />
    <glyph glyph-name="uacute.sc" horiz-adv-x="538" 
d="M483 180q0 -100 -51.5 -146t-166.5 -46q-60 0 -100.5 12.5t-64.5 37.5t-34.5 62t-10.5 85v359h139v-349q0 -21 1.5 -42t8 -37.5t21 -26.5t41.5 -10t43 10t24 25.5t10 36t2 41.5v352h138v-364v0zM278 622h-82l90 143h136z" />
    <glyph glyph-name="ucircumflex.sc" horiz-adv-x="538" 
d="M483 180q0 -100 -51.5 -146t-166.5 -46q-60 0 -100.5 12.5t-64.5 37.5t-34.5 62t-10.5 85v359h139v-349q0 -21 1.5 -42t8 -37.5t21 -26.5t41.5 -10t43 10t24 25.5t10 36t2 41.5v352h138v-364v0zM346 622l-76 84l-75 -84h-86l104 143h115l103 -143h-85z" />
    <glyph glyph-name="utilde.sc" horiz-adv-x="538" 
d="M483 180q0 -100 -51.5 -146t-166.5 -46q-60 0 -100.5 12.5t-64.5 37.5t-34.5 62t-10.5 85v359h139v-349q0 -21 1.5 -42t8 -37.5t21 -26.5t41.5 -10t43 10t24 25.5t10 36t2 41.5v352h138v-364v0zM446 751q-3 -22 -11 -42.5t-21 -36.5t-32 -26t-43 -10q-20 0 -38 5.5
t-35.5 12.5t-36 12.5t-37.5 5.5q-18 0 -28.5 -13t-13.5 -30h-57q3 23 11 44t21.5 37t33 25.5t44.5 9.5q19 0 37.5 -6t35.5 -13t33.5 -13t32.5 -6q21 0 31.5 12t15.5 32h57v0z" />
    <glyph glyph-name="udieresis.sc" horiz-adv-x="538" 
d="M483 180q0 -100 -51.5 -146t-166.5 -46q-60 0 -100.5 12.5t-64.5 37.5t-34.5 62t-10.5 85v359h139v-349q0 -21 1.5 -42t8 -37.5t21 -26.5t41.5 -10t43 10t24 25.5t10 36t2 41.5v352h138v-364v0zM301 644v109h112v-109h-112zM126 644v109h112v-109h-112z" />
    <glyph glyph-name="umacron.sc" horiz-adv-x="538" 
d="M483 180q0 -100 -51.5 -146t-166.5 -46q-60 0 -100.5 12.5t-64.5 37.5t-34.5 62t-10.5 85v359h139v-349q0 -21 1.5 -42t8 -37.5t21 -26.5t41.5 -10t43 10t24 25.5t10 36t2 41.5v352h138v-364v0zM125 662v65h289v-65h-289z" />
    <glyph glyph-name="ubreve.sc" horiz-adv-x="538" 
d="M483 180q0 -100 -51.5 -146t-166.5 -46q-60 0 -100.5 12.5t-64.5 37.5t-34.5 62t-10.5 85v359h139v-349q0 -21 1.5 -42t8 -37.5t21 -26.5t41.5 -10t43 10t24 25.5t10 36t2 41.5v352h138v-364v0zM431 767q-8 -72 -52 -107t-114 -35t-110 36t-47 106h58q8 -41 37.5 -58
t67.5 -17q39 0 67 17t36 58h57v0z" />
    <glyph glyph-name="uring.sc" horiz-adv-x="538" 
d="M483 180q0 -100 -51.5 -146t-166.5 -46q-60 0 -100.5 12.5t-64.5 37.5t-34.5 62t-10.5 85v359h139v-349q0 -21 1.5 -42t8 -37.5t21 -26.5t41.5 -10t43 10t24 25.5t10 36t2 41.5v352h138v-364v0zM372 708q0 -43 -29.5 -72.5t-73.5 -29.5q-21 0 -40 8t-33 21.5t-22 32.5
t-8 40t8 40t22 32.5t33 21.5t40 8q44 0 73.5 -29.5t29.5 -72.5zM326 708q0 26 -16 42.5t-41 16.5q-24 0 -40 -16.5t-16 -42.5t16 -43t40 -17q25 0 41 17t16 43z" />
    <glyph glyph-name="uhungarumlaut.sc" horiz-adv-x="538" 
d="M483 180q0 -100 -51.5 -146t-166.5 -46q-60 0 -100.5 12.5t-64.5 37.5t-34.5 62t-10.5 85v359h139v-349q0 -21 1.5 -42t8 -37.5t21 -26.5t41.5 -10t43 10t24 25.5t10 36t2 41.5v352h138v-364v0zM391 622h-82l90 143h137zM206 622h-82l90 143h136z" />
    <glyph glyph-name="uogonek.sc" horiz-adv-x="538" 
d="M339 -179q-17 -14 -40 -22.5t-49 -8.5q-33 0 -59 15t-26 53q0 41 25.5 73.5t57.5 56.5q-55 2 -92 15.5t-59.5 38t-32 60.5t-9.5 83v359h139v-349q0 -21 1.5 -42t8 -37.5t21 -26.5t41.5 -10t43 10t24 25.5t10 36t2 41.5v352h138v-364q0 -91 -41 -136.5t-133 -53.5
q-36 -27 -51.5 -48.5t-15.5 -46.5q0 -23 15.5 -33.5t35.5 -10.5q11 0 22 3t20 8z" />
    <glyph glyph-name="wacute.sc" horiz-adv-x="751" 
d="M611 0h-149l-82 424l-90 -424h-156l-123 544h146l65 -412l86 412h151l80 -412l70 412h131zM401 622h-82l90 143h136z" />
    <glyph glyph-name="wcircumflex.sc" horiz-adv-x="751" 
d="M611 0h-149l-82 424l-90 -424h-156l-123 544h146l65 -412l86 412h151l80 -412l70 412h131zM452 622l-76 84l-75 -84h-86l104 143h115l103 -143h-85z" />
    <glyph glyph-name="wdieresis.sc" horiz-adv-x="751" 
d="M611 0h-149l-82 424l-90 -424h-156l-123 544h146l65 -412l86 412h151l80 -412l70 412h131zM407 644v109h112v-109h-112zM232 644v109h112v-109h-112z" />
    <glyph glyph-name="wgrave.sc" horiz-adv-x="751" 
d="M611 0h-149l-82 424l-90 -424h-156l-123 544h146l65 -412l86 412h151l80 -412l70 412h131zM370 622l-143 143h135l91 -143h-83z" />
    <glyph glyph-name="yacute.sc" horiz-adv-x="464" 
d="M302 191v-191h-140v191l-165 353h150l91 -248l87 248h142zM251 622h-82l90 143h136z" />
    <glyph glyph-name="ycircumflex.sc" horiz-adv-x="464" 
d="M302 191v-191h-140v191l-165 353h150l91 -248l87 248h142zM316 622l-76 84l-75 -84h-86l104 143h115l103 -143h-85z" />
    <glyph glyph-name="ydieresis.sc" horiz-adv-x="464" 
d="M302 191v-191h-140v191l-165 353h150l91 -248l87 248h142zM270 644v109h112v-109h-112zM95 644v109h112v-109h-112z" />
    <glyph glyph-name="ygrave.sc" horiz-adv-x="464" 
d="M302 191v-191h-140v191l-165 353h150l91 -248l87 248h142zM222 622l-143 143h135l91 -143h-83z" />
    <glyph glyph-name="zacute.sc" horiz-adv-x="429" 
d="M18 0v97l241 356h-229v91h377v-95l-241 -358h245v-91h-393zM223 622h-82l90 143h136z" />
    <glyph glyph-name="zcaron.sc" horiz-adv-x="429" 
d="M18 0v97l241 356h-229v91h377v-95l-241 -358h245v-91h-393zM388 765l-103 -143h-115l-104 143h86l75 -84l76 84h85z" />
    <glyph glyph-name="zdotaccent.sc" horiz-adv-x="429" 
d="M18 0v97l241 356h-229v91h377v-95l-241 -358h245v-91h-393zM168 644v109h112v-109h-112z" />
    <glyph glyph-name="ij.sc" horiz-adv-x="702" 
d="M59 0v544h141v-544h-141zM648 167q0 -48 -10.5 -82t-34 -55.5t-60.5 -31.5t-90 -10q-51 0 -85.5 11t-55.5 32.5t-30 54t-9 76.5v28h140v-15q0 -20 1 -37.5t5.5 -30.5t13.5 -20t26 -7t27 8t14.5 20t5.5 27.5t1 30.5v378h141v-377v0z" />
    <glyph glyph-name="germandbls.sc" horiz-adv-x="918" 
d="M891 147q0 -82 -53 -120.5t-150 -38.5q-105 0 -154 41t-49 132v13h140v-17q0 -39 14.5 -60t50.5 -21q33 0 47 16t14 46q0 12 -2.5 21.5t-9.5 18.5t-21 17.5t-36 19.5l-75 35q-61 28 -87 62t-26 90q0 75 49 114.5t149 39.5q94 0 142.5 -38.5t48.5 -112.5v-19h-138v17
q0 28 -10.5 47t-44.5 19q-57 0 -57 -55q0 -23 15.5 -39t50.5 -32l62 -28q37 -17 62 -34t40 -36.5t21.5 -43.5t6.5 -54zM432 147q0 -82 -53 -120.5t-150 -38.5q-105 0 -154 41t-49 132v13h140v-17q0 -39 14.5 -60t50.5 -21q33 0 47 16t14 46q0 12 -2.5 21.5t-9.5 18.5
t-21 17.5t-36 19.5l-75 35q-61 28 -87 62t-26 90q0 75 49 114.5t149 39.5q94 0 142.5 -38.5t48.5 -112.5v-19h-138v17q0 28 -10.5 47t-44.5 19q-57 0 -57 -55q0 -23 15.5 -39t50.5 -32l62 -28q37 -17 62 -34t40 -36.5t21.5 -43.5t6.5 -54z" />
    <glyph glyph-name="eng.sc" horiz-adv-x="548" 
d="M364 -4l-187 395v-391h-118v544h167l146 -313v313h117v-581q0 -39 -6 -68.5t-21.5 -49t-42 -29.5t-66.5 -10h-31.5t-28.5 1v87q36 0 52.5 11.5t18.5 48.5v42z" />
    <glyph glyph-name="grave.sc" horiz-adv-x="235" 
d="M106 622l-143 143h135l91 -143h-83z" />
    <glyph glyph-name="acute.sc" horiz-adv-x="235" 
d="M128 622h-82l90 143h136z" />
    <glyph glyph-name="circumflex.sc" horiz-adv-x="235" 
d="M194 622l-76 84l-75 -84h-86l104 143h115l103 -143h-85z" />
    <glyph glyph-name="caron.sc" horiz-adv-x="235" 
d="M279 765l-103 -143h-115l-104 143h86l75 -84l76 84h85z" />
    <glyph glyph-name="tilde.sc" horiz-adv-x="235" 
d="M294 751q-3 -22 -11 -42.5t-21 -36.5t-32 -26t-43 -10q-20 0 -38 5.5t-35.5 12.5t-36 12.5t-37.5 5.5q-18 0 -28.5 -13t-13.5 -30h-57q3 23 11 44t21.5 37t33 25.5t44.5 9.5q19 0 37.5 -6t35.5 -13t33.5 -13t32.5 -6q21 0 31.5 12t15.5 32h57v0z" />
    <glyph glyph-name="dieresis.sc" horiz-adv-x="235" 
d="M149 644v109h112v-109h-112zM-26 644v109h112v-109h-112z" />
    <glyph glyph-name="macron.sc" horiz-adv-x="235" 
d="M-27 662v65h289v-65h-289z" />
    <glyph glyph-name="breve.sc" horiz-adv-x="235" 
d="M279 767q-8 -72 -52 -107t-114 -35t-110 36t-47 106h58q8 -41 37.5 -58t67.5 -17q39 0 67 17t36 58h57v0z" />
    <glyph glyph-name="ring.sc" horiz-adv-x="235" 
d="M220 708q0 -43 -29.5 -72.5t-73.5 -29.5q-21 0 -40 8t-33 21.5t-22 32.5t-8 40t8 40t22 32.5t33 21.5t40 8q44 0 73.5 -29.5t29.5 -72.5zM174 708q0 26 -16 42.5t-41 16.5q-24 0 -40 -16.5t-16 -42.5t16 -43t40 -17q25 0 41 17t16 43z" />
    <glyph glyph-name="hungarumlaut.sc" horiz-adv-x="235" 
d="M224 622h-82l90 143h137zM39 622h-82l90 143h136z" />
    <glyph glyph-name="dotaccent.sc" horiz-adv-x="235" 
d="M61 644v109h112v-109h-112z" />
    <glyph glyph-name="exclamdown.sc" horiz-adv-x="279" 
d="M91.9941 376.977h93.9941l18.999 -376.977h-131.992zM194.988 543.967v-115.993h-111.993v115.993h111.993z" />
    <glyph glyph-name="questiondown.sc" horiz-adv-x="383" 
d="M29.998 117.993q0 21.998 4.5 39.4971t14.499 35.498t25.498 36.998q15.499 18.998 37.498 43.9971q9.99902 11.999 16.499 20.999q6.5 8.99902 9.99902 17.998q3.5 9 5 18.999q1.5 10 1.5 23.999v20.998h100.994v-39.9971q0 -34.998 -10.5 -59.9961
q-10.499 -24.999 -33.498 -54.9971q-18.998 -25.998 -32.498 -50.4971q-13.499 -24.498 -13.499 -48.4971q0 -23.998 9 -38.4971q8.99902 -14.499 32.998 -14.499q25.998 0 34.9971 17.998q9 17.999 9 37.998v23.999h113.993v-21.999q0 -71.9961 -41.498 -105.993
q-41.4971 -33.998 -122.492 -33.998q-161.99 0 -161.99 129.992zM249.984 543.967v-115.993h-111.993v115.993h111.993z" />
    <glyph glyph-name="Euro.sc" horiz-adv-x="437" 
d="M216 187q3 -65 20 -90.5t58 -25.5q33 0 59.5 13.5t51.5 36.5v-109q-19 -11 -48.5 -17.5t-64.5 -6.5q-59 0 -97.5 11.5t-61.5 36t-33.5 62t-13.5 89.5h-74l19 72h54v44h-71l18 70h56q11 98 64 140.5t153 42.5q47 0 76 -10.5t47 -21.5l-28 -106q-14 23 -39.5 39t-57.5 16
q-44 0 -63.5 -24t-23.5 -76h170l-18 -70h-153v-44h140l-19 -72h-120z" />
    <glyph glyph-name="cent.sc" horiz-adv-x="437" 
d="M278 325q1 21 -3 37l-83 -214q8 -4 21 -4q33 0 47.5 16t17.5 63h118q0 -31 -7 -58.5t-26 -48.5t-53 -33t-88 -12q-17 0 -31 1.5t-27 3.5l-30 -78h-50l35 91q-41 20 -58 61.5t-17 107.5q0 46 6 85t25 67.5t54.5 44.5t94.5 16q11 0 21.5 -0.5t21.5 -1.5l30 77h50l-34 -87
q39 -13 60 -44t21 -90h-116zM163 269v-34t2 -28l74 189q-4 1 -7 1.5t-7 0.5q-20 0 -32.5 -8t-19 -23.5t-8.5 -40t-2 -57.5z" />
    <glyph glyph-name="sterling.sc" horiz-adv-x="437" 
d="M302 413v10q0 20 -9.5 35t-32.5 15q-15 0 -23.5 -6t-13 -15t-6 -20.5t-1.5 -22.5v-82h112v-85h-112v-156h194v-86h-366v86h53v156h-54v85h54v30q0 43 4 79.5t20.5 63t49.5 41.5t91 15q74 0 111 -28t42 -87q1 -5 1 -12.5v-15.5h-114z" />
    <glyph glyph-name="florin.sc" horiz-adv-x="437" 
d="M287 361h65l-12 -73h-66l-41 -238q-6 -37 -15.5 -67t-27.5 -51.5t-48.5 -33t-79.5 -11.5q-9 0 -20 1t-21 3l15 85q13 -5 23 -5q33 0 40 46l47 271h-56l13 73h56l11 64q5 28 15 52t28.5 41.5t47 27.5t71.5 10q11 0 25 -1t25 -3l-14 -89q-18 6 -29 6q-19 0 -28 -11.5
t-13 -33.5z" />
    <glyph glyph-name="yen.sc" horiz-adv-x="436" 
d="M301 270h98v-70h-118v-44h118v-68h-118v-88h-134v88h-117v68h117v44h-117v70h100l-114 274h147l58 -216l62 216h137z" />
    <glyph glyph-name="perthousand.sc" horiz-adv-x="801" 
d="M242 425q0 -27 -4.5 -50t-16.5 -40.5t-32.5 -27.5t-51.5 -10t-51.5 10t-32.5 27.5t-16.5 40.5t-4.5 50t4.5 50t16.5 40.5t32.5 27.5t51.5 10t51.5 -10t32.5 -27.5t16.5 -40.5t4.5 -50zM174 425q0 42 -9 59.5t-28 17.5t-28 -17.5t-9 -59.5t9 -59.5t28 -17.5t28 17.5
t9 59.5zM180 -18h-62l252 580h62zM518 119q0 -27 -4.5 -50t-16.5 -40.5t-32.5 -27.5t-51.5 -10t-51.5 10t-32.5 27.5t-16.5 40.5t-4.5 50t4.5 50t16.5 40.5t32.5 27.5t51.5 10t51.5 -10t32.5 -27.5t16.5 -40.5t4.5 -50zM450 119q0 42 -9 59.5t-28 17.5t-28 -17.5t-9 -59.5
t9 -59.5t28 -17.5t28 17.5t9 59.5zM769 119q0 -27 -4.5 -50t-16.5 -40.5t-32.5 -27.5t-51.5 -10t-51.5 10t-32.5 27.5t-16.5 40.5t-4.5 50t4.5 50t16.5 40.5t32.5 27.5t51.5 10t51.5 -10t32.5 -27.5t16.5 -40.5t4.5 -50zM701 119q0 42 -9 59.5t-28 17.5t-28 -17.5t-9 -59.5
t9 -59.5t28 -17.5t28 17.5t9 59.5z" />
    <glyph glyph-name="parenleft.sc" horiz-adv-x="256" 
d="M137 -60q-42 90 -65 175t-23 163q0 39 7.5 81t19.5 84t28 82.5t33 76.5h81q-25 -83 -40 -165.5t-15 -159.5q0 -78 14 -161t41 -176h-81z" />
    <glyph glyph-name="parenright.sc" horiz-adv-x="256" 
d="M38 -60q27 93 41 176t14 161q0 77 -15 159.5t-40 165.5h81q17 -36 33 -76.5t28 -82.5t19.5 -84t7.5 -81q0 -78 -23 -163t-65 -175h-81z" />
    <glyph glyph-name="bracketleft.sc" horiz-adv-x="253" 
d="M46 -60v662h192v-72h-88v-518h88v-72h-192z" />
    <glyph glyph-name="bracketright.sc" horiz-adv-x="253" 
d="M207 602v-662h-192v72h88v518h-88v72h192z" />
    <glyph glyph-name="braceleft.sc" horiz-adv-x="279" 
d="M201 404q0 -54 -18.5 -87.5t-75.5 -45.5q57 -12 75.5 -45.5t18.5 -87.5v-22q0 -56 12.5 -82.5t55.5 -30.5v-63q-53 2 -87 13t-54 31.5t-28 49t-8 65.5v26q0 26 -3 45t-12 32.5t-26 22.5t-46 15v63q27 5 43.5 13t26.5 21t13.5 31t3.5 42v37q0 34 6.5 61t26 47t54 32
t90.5 15v-64q-43 -5 -55.5 -34t-12.5 -79v-21v0z" />
    <glyph glyph-name="braceright.sc" horiz-adv-x="279" 
d="M78 425q0 50 -12.5 79t-55.5 34v64q56 -3 90.5 -15t54 -32t26 -47t6.5 -61v-37q0 -24 3.5 -42t13.5 -31t26.5 -21t43.5 -13v-63q-29 -6 -46 -15t-26 -22.5t-12 -32.5t-3 -45v-26q0 -37 -8 -65.5t-28 -49t-54 -31.5t-87 -13v63q43 4 55.5 30.5t12.5 82.5v22
q0 54 18.5 87.5t75.5 45.5q-57 12 -75.5 45.5t-18.5 87.5v21z" />
    <glyph glyph-name="zero.onum" 
d="M460 270q0 -81 -11.5 -135t-37 -86.5t-65 -46.5t-96.5 -14t-96.5 13.5t-65 46t-37 86.5t-11.5 136v10q0 80 11.5 134t36.5 87t65 47t97 14t97 -13.5t65 -45.5t36.5 -86.5t11.5 -136.5v-10zM318 310q0 47 -3.5 78t-11 49t-21 25.5t-32.5 7.5q-20 0 -33 -7.5t-20.5 -25.5
t-11 -49t-3.5 -78v-70q0 -48 3.5 -79t11.5 -49t21 -25t32 -7t32 7t21 25t11.5 49t3.5 79v70z" />
    <glyph glyph-name="one.onum" 
d="M228 0v405q-26 -25 -62.5 -44.5t-82.5 -37.5v118q46 18 90 47.5t73 61.5h123v-550h-141z" />
    <glyph glyph-name="two.onum" 
d="M40 0v96l177 158q48 44 71.5 79t23.5 73q0 30 -14 47.5t-43 17.5q-35 0 -50 -23.5t-16 -66.5h-141q5 181 209 181q97 0 148.5 -37.5t51.5 -116.5q0 -28 -7 -55.5t-24 -56.5t-46 -61t-73 -68l-84 -70h235v-97h-418z" />
    <glyph glyph-name="three.onum" 
d="M454 49q0 -50 -11 -88t-36.5 -64t-66 -39t-99.5 -13q-57 0 -95 11.5t-63 33.5q-24 22 -36 57.5t-13 92.5h141q0 -54 16 -78t50 -24q37 0 52.5 26t15.5 80q0 38 -4.5 58.5t-14.5 34.5q-22 31 -86 31h-25v94h25q27 0 46 5.5t30.5 19t16.5 35t5 54.5q0 49 -12 71.5t-43 22.5
q-62 0 -62 -91h-139v11q0 83 48.5 127.5t155.5 44.5q51 0 86 -10.5t60 -30.5q26 -22 38 -55t12 -82q0 -142 -103 -167q65 -15 89 -58q11 -20 16.5 -45t5.5 -65z" />
    <glyph glyph-name="four.onum" 
d="M405 0v-143h-139v143h-242v115l183 435h198v-455h75v-95h-75zM273 454l-144 -360h144v360z" />
    <glyph glyph-name="five.onum" 
d="M457 96q0 -59 -8.5 -106t-31.5 -79t-65 -49t-108 -17q-44 0 -79.5 9.5t-60.5 30t-38.5 53.5t-13.5 80h142q0 -16 2 -30.5t8 -25.5t17.5 -17.5t29.5 -6.5q21 0 33 10t18 29.5t8 48t2 64.5q0 21 -1 43.5t-6 41.5t-16.5 31t-32.5 12q-32 0 -45 -22.5t-15 -49.5h-137l10 404
h367v-96h-232l-7 -199q24 24 50 36.5t67 12.5t68.5 -15t44 -42t23.5 -65.5t7 -85.5z" />
    <glyph glyph-name="six.onum" 
d="M463 224q0 -56 -11 -99.5t-35.5 -74.5t-65 -47t-99.5 -16q-68 0 -108.5 19.5t-63 56.5t-29.5 91.5t-7 125.5v148q0 58 8 111.5t31.5 94.5t67 65t114.5 24q44 0 78 -8t57.5 -27t36.5 -50t14 -76h-142q0 32 -10.5 51.5t-42.5 19.5q-25 0 -39 -17t-21.5 -45.5t-9.5 -65.5
t-2 -77v-32q20 24 46 39t71 15q48 0 79.5 -15t49.5 -44t25.5 -71t7.5 -96zM320 225q0 31 -1.5 56t-8 43t-20 27.5t-37.5 9.5t-37.5 -13t-20 -32.5t-8.5 -43.5t-2 -45q0 -34 2.5 -61t9.5 -46.5t20.5 -30t35.5 -10.5q24 0 37.5 12t20 32t8 46.5t1.5 55.5z" />
    <glyph glyph-name="seven.onum" 
d="M267 -143h-153l193 596h-247v97h379v-112z" />
    <glyph glyph-name="eight.onum" 
d="M461 193q0 -103 -48 -154.5t-163 -51.5q-53 0 -92 10.5t-65.5 34.5t-39.5 63.5t-13 98.5q0 27 3 53.5t13.5 50t31 42.5t54.5 31q-29 8 -48 23t-29.5 36t-14.5 46.5t-4 53.5q0 100 50.5 146.5t153.5 46.5q49 0 87 -9.5t64 -31.5t40 -57t14 -86q0 -29 -4 -55.5t-15.5 -48
t-31 -38t-49.5 -26.5q32 -9 52.5 -24t32.5 -37t16.5 -51t4.5 -66zM312 522q0 20 -1 39.5t-7 35t-18.5 25t-35.5 9.5q-22 0 -34.5 -9.5t-18.5 -24.5t-7 -34t-1 -38q0 -18 2 -37.5t8 -35t18 -25.5t33 -10t33.5 9.5t19 24.5t8 34t1.5 37zM317 198q0 21 -1.5 43t-8.5 41t-20 31
t-37 12q-23 0 -36.5 -12.5t-20 -31t-8 -40.5t-1.5 -41q0 -18 1.5 -39.5t7.5 -39.5t19.5 -30.5t37.5 -12.5t37.5 12t20 30t8 39t1.5 39z" />
    <glyph glyph-name="nine.onum" 
d="M453 149q0 -70 -5 -126t-26.5 -95.5t-65 -61t-119.5 -21.5q-44 0 -79 8.5t-59.5 28.5t-38.5 52.5t-14 79.5h142q0 -34 12 -56.5t48 -22.5q19 0 31.5 10t19.5 26.5t10 38t4 45.5q1 21 1 52v60q-21 -24 -46 -38.5t-70 -14.5t-75.5 14.5t-49 42t-26.5 68t-8 91.5t10 93.5
t34 73.5t64 48t99 17q63 0 103 -17t63.5 -49.5t32 -80.5t8.5 -110v-156zM313 337q0 25 -1.5 49t-7.5 43t-19 30t-36 11q-24 0 -37.5 -11t-20 -29t-8 -42t-1.5 -51q0 -30 1 -55t7 -43t18.5 -27.5t36.5 -9.5t37.5 12t20 31.5t8.5 43.5t2 48z" />
    <glyph glyph-name="zero.scprop" horiz-adv-x="437" 
d="M403 202q0 -51 -8 -91t-28.5 -67.5t-56.5 -41.5t-92 -14t-92 13.5t-56.5 40.5t-28 67t-7.5 93v140q0 50 7.5 90t28 67.5t56.5 42t92 14.5t92 -13.5t56.5 -40.5t28.5 -67t8 -93v-140zM271 326q0 43 -1.5 72t-7 47t-16 25.5t-27.5 7.5t-27.5 -7.5t-16 -25.5t-7.5 -47
t-2 -72v-108q0 -43 1.5 -72t7 -47t16 -25.5t27.5 -7.5t27.5 7.5t16 25.5t7.5 47t2 72v108z" />
    <glyph glyph-name="one.scprop" horiz-adv-x="357" 
d="M146 0v408q-20 -16 -45.5 -29.5t-51.5 -25.5v109q35 18 62.5 37.5t53.5 44.5h118v-544h-137z" />
    <glyph glyph-name="two.scprop" horiz-adv-x="437" 
d="M34 0v90l175 209q21 24 32.5 42.5t17.5 33t7.5 27t1.5 25.5q0 21 -9.5 35.5t-34.5 14.5q-29 0 -38.5 -20t-9.5 -58h-132v17q0 69 50 104.5t134 35.5q85 0 130.5 -31.5t45.5 -101.5q0 -58 -21.5 -104t-65.5 -95l-126 -143h215v-81h-372z" />
    <glyph glyph-name="three.scprop" horiz-adv-x="437" 
d="M405 150q0 -81 -44 -121.5t-150 -40.5q-97 0 -138.5 35t-41.5 115v8h131q0 -17 1.5 -31.5t7 -25t15.5 -17t27 -6.5q34 0 45.5 21.5t11.5 59.5q0 27 -3.5 45.5t-12.5 30.5t-25.5 17.5t-42.5 5.5h-27v79h27q42 0 60 17t18 65q0 32 -9.5 51.5t-35.5 19.5q-30 0 -39 -20.5
t-9 -48.5h-130v17q0 69 47.5 99.5t133.5 30.5q88 0 132 -32.5t44 -110.5q0 -45 -15.5 -78.5t-58.5 -47.5q48 -14 64.5 -48t16.5 -89z" />
    <glyph glyph-name="four.scprop" horiz-adv-x="437" 
d="M352 122v-122h-130v122h-192v91l145 331h177v-342h63v-80h-63zM228 440l-94 -239h94v239z" />
    <glyph glyph-name="five.scprop" horiz-adv-x="437" 
d="M398 189q0 -50 -8 -87.5t-29 -62.5t-57.5 -38t-93.5 -13q-81 0 -125.5 31t-44.5 109h133q0 -26 8.5 -44t34.5 -18q17 0 26.5 8.5t14 24t5.5 37.5t1 49q0 19 -1 37t-5 31.5t-13.5 21.5t-25.5 8q-23 0 -32.5 -17t-11.5 -37h-128l8 315h324v-80h-197q-2 -37 -3 -67t-2 -68
q17 14 36 20.5t49 6.5q43 0 69.5 -12.5t41.5 -34.5t20.5 -52.5t5.5 -67.5z" />
    <glyph glyph-name="six.scprop" horiz-adv-x="437" 
d="M403 171q0 -43 -9.5 -77t-31 -57.5t-56.5 -36t-86 -12.5q-59 0 -94.5 15t-54.5 43.5t-25.5 70.5t-6.5 97v114q0 47 7 88.5t27.5 72.5t58 49t99.5 18q38 0 68 -6.5t51.5 -21.5t33.5 -40.5t13 -62.5h-133q0 26 -9 40.5t-32 14.5q-27 0 -40 -26.5t-13 -89.5v-46
q16 13 37.5 21t54.5 8q42 0 69.5 -12t43 -34.5t22 -55t6.5 -74.5zM270 172q0 22 -1 40.5t-6 31.5t-15 20t-27 7t-27 -9t-15 -23.5t-6.5 -32t-1.5 -33.5q0 -50 9 -79t41 -29q17 0 27 8.5t15 23.5t6 34.5t1 40.5z" />
    <glyph glyph-name="seven.scprop" horiz-adv-x="377" 
d="M210 0h-145l162 463h-203v81h330v-88z" />
    <glyph glyph-name="eight.scprop" horiz-adv-x="437" 
d="M401 149q0 -79 -41 -120t-143 -41q-94 0 -138 36t-44 126q0 20 2.5 40t10 37.5t22.5 32t41 24.5q-43 14 -57 46.5t-14 74.5q0 77 42 114t135 37q88 0 133.5 -32.5t45.5 -111.5q0 -44 -14.5 -77t-59.5 -50q47 -16 63 -48t16 -88zM263 399q0 15 -1 29t-5 25t-13.5 18
t-25.5 7q-15 0 -24 -7t-13.5 -18t-6 -24.5t-1.5 -27.5t1.5 -27.5t6 -25t13 -18.5t23.5 -7t24.5 6.5t14 17t6 24.5t1.5 28zM267 153q0 17 -1 34t-6 30t-15 21t-27 8t-26.5 -8.5t-14.5 -21.5t-6.5 -29.5t-1.5 -32.5q0 -15 1 -31t6 -29t15 -21.5t27 -8.5q18 0 27.5 8t14.5 20.5
t6 28.5t1 32z" />
    <glyph glyph-name="nine.scprop" horiz-adv-x="437" 
d="M397 231q0 -53 -4.5 -98t-23 -77t-56 -50t-103.5 -18q-79 0 -122.5 31.5t-44.5 106.5h133q0 -27 8 -44.5t34 -17.5q28 0 38.5 27t10.5 85v53q-16 -14 -36.5 -21.5t-54.5 -7.5q-79 0 -110.5 44.5t-31.5 125.5q0 43 9.5 77.5t31 58.5t56.5 37t86 13q54 0 89 -13t55.5 -38.5
t28 -64t7.5 -90.5v-119zM266 375q0 21 -1.5 40t-6.5 33t-15 22t-26 8q-17 0 -27 -8.5t-15 -23t-6.5 -33t-1.5 -38.5q0 -22 1.5 -40.5t6.5 -31.5t14.5 -20.5t26.5 -7.5t27 9t15 23.5t6.5 32t1.5 35.5z" />
    <glyph glyph-name="zero.prop" 
d="M460 302q0 -65 -4.5 -122.5t-25 -100.5t-62.5 -67.5t-118 -24.5t-118 23.5t-62.5 65.5t-25 99t-4.5 123v195q0 53 9 97.5t32.5 77t65 50.5t106.5 18q64 0 104.5 -16.5t63 -46.5t31 -73t8.5 -96v-202zM319 421q0 54 -1.5 95.5t-8 70t-20 43t-38.5 14.5q-26 0 -39.5 -15.5
t-20.5 -46.5t-8 -76.5t-1 -105.5v-110q0 -49 1.5 -88t8 -66.5t20.5 -42t38 -14.5q26 0 40 15t20.5 44.5t7.5 72t1 97.5v113z" />
    <glyph glyph-name="one.prop" horiz-adv-x="420" 
d="M179 0v563q-26 -25 -56 -44t-62 -36v132q42 24 74.5 50t61.5 58h129v-723h-147z" />
    <glyph glyph-name="two.prop" 
d="M33 0v113l199 287q24 34 40 59t25 44t13 34.5t4 31.5q0 32 -12.5 52.5t-47.5 20.5q-32 0 -47 -19.5t-19 -48.5q-2 -9 -2 -18.5v-18.5h-141q0 10 0.5 20t1.5 19q4 45 23.5 75.5t48 49.5t64.5 27t75 8q97 0 149.5 -39t52.5 -131q0 -65 -30.5 -127.5t-81.5 -132.5l-150 -209
h265v-97h-430z" />
    <glyph glyph-name="three.prop" 
d="M455 198q0 -107 -50.5 -159t-165.5 -52q-55 0 -95 9.5t-65.5 32.5t-38 61t-12.5 95v4h141q0 -17 2 -36.5t9 -35.5t20.5 -26.5t35.5 -10.5q25 0 39.5 10t22 26.5t10 36.5t2.5 40q0 38 -4.5 64.5t-16 43t-32 24t-53.5 7.5h-25v94h25q53 0 76 24.5t23 92.5q0 18 -2.5 36.5
t-9 32.5t-19 23t-31.5 9q-20 0 -32 -7.5t-18.5 -20.5t-9 -30t-2.5 -36h-139v17q0 90 54 129.5t152 39.5q100 0 150.5 -42t50.5 -143q0 -33 -4.5 -60.5t-16.5 -49.5t-32 -37.5t-51 -22.5q34 -8 55.5 -23t34 -37.5t17.5 -53t5 -69.5z" />
    <glyph glyph-name="four.prop" 
d="M405 165v-165h-139v165h-232v115l173 443h198v-463h75v-95h-75zM273 627l-134 -368h134v368z" />
    <glyph glyph-name="five.prop" 
d="M459 252q0 -65 -9 -114.5t-33.5 -83t-67 -50.5t-108.5 -17q-47 0 -83 9t-61.5 30t-38.5 55t-13 83h142q0 -17 2.5 -32.5t9.5 -27t19 -18t30 -6.5q24 0 37 11.5t19.5 33.5t8 52.5t1.5 68.5q0 21 -1 45t-7 44t-19 33.5t-36 13.5q-32 0 -46 -22.5t-16 -49.5h-137l10 413h373
v-96h-238l-7 -208q24 24 48 36.5t65 12.5q48 0 78.5 -16t48 -44.5t23.5 -68t6 -87.5z" />
    <glyph glyph-name="six.prop" 
d="M464 227q0 -57 -11 -101.5t-36 -75t-65.5 -47t-99.5 -16.5q-68 0 -109 19.5t-63 57.5t-29.5 93.5t-7.5 128.5v148q0 62 8 117t32 96t67.5 65t114.5 24q44 0 79 -8t59.5 -27t38 -50.5t14.5 -78.5h-142q0 35 -13 54.5t-45 19.5q-25 0 -39.5 -17t-22 -45.5t-9.5 -67.5
t-2 -82v-32q20 24 47 39t72 15q48 0 79.5 -15t49.5 -44.5t25.5 -72t7.5 -97.5zM321 228q0 32 -1.5 57.5t-8.5 43.5t-20.5 28t-37.5 10t-37.5 -12.5t-20.5 -32.5t-9 -44.5t-2 -47.5q0 -70 12.5 -110.5t56.5 -40.5q24 0 37.5 12t20.5 32.5t8.5 47.5t1.5 57z" />
    <glyph glyph-name="seven.prop" horiz-adv-x="440" 
d="M238 0h-156l196 626h-247v97h379v-112z" />
    <glyph glyph-name="eight.prop" 
d="M462 196q0 -51 -11 -90.5t-36 -65.5t-65.5 -39.5t-99.5 -13.5q-54 0 -94 10.5t-66 35.5t-38.5 65t-12.5 99q0 28 3 55.5t13.5 51.5t31 43t54.5 31q-29 8 -48 23t-29.5 36t-14.5 47t-4 56q0 101 49 148.5t156 47.5q51 0 89.5 -10t64.5 -32t39 -57.5t13 -87.5q0 -31 -4 -58
t-15.5 -48.5t-31 -38t-49.5 -26.5q32 -9 52.5 -24t32.5 -37t16.5 -52t4.5 -69zM313 532q0 21 -1.5 41t-7.5 36t-18.5 25.5t-35.5 9.5q-22 0 -34.5 -9.5t-18.5 -25t-7.5 -35t-1.5 -39.5t2 -40t8.5 -35.5t18.5 -25.5t33 -10t33.5 9.5t19 24.5t8.5 34.5t2 39.5zM318 201
q0 22 -2 45.5t-8.5 42.5t-20 31t-37.5 12q-23 0 -36.5 -12.5t-20.5 -31t-8.5 -41.5t-1.5 -44q0 -20 1.5 -41.5t8 -40.5t20 -31t37.5 -12t38 12t20.5 30t8 39.5t1.5 41.5z" />
    <glyph glyph-name="nine.prop" 
d="M454 310q0 -71 -5 -130.5t-27 -102t-65.5 -66.5t-119.5 -24q-90 0 -140.5 39.5t-51.5 134.5h142q0 -36 12.5 -60t48.5 -24q19 0 31.5 10t20 27t10.5 39.5t4 48.5q0 10 0.5 25t0.5 31.5v33.5v32q-21 -24 -47 -38.5t-71 -14.5t-76.5 14.5t-50.5 43t-27.5 69.5t-8.5 94
q0 57 11 102.5t36 77t65.5 48t99.5 16.5q63 0 103.5 -16.5t63.5 -50.5t32 -84.5t9 -119.5v-155zM314 499q0 30 -2 56.5t-9 46t-20.5 31t-36.5 11.5q-24 0 -38 -12t-20.5 -32.5t-8.5 -46.5t-2 -54q0 -32 2 -57.5t8.5 -44t20 -28.5t37.5 -10t37.5 12.5t20.5 32.5t9 45t2 50z
" />
    <glyph glyph-name="Euro.prop" 
d="M239 259q0 -47 5 -80t17 -54t32.5 -30.5t52.5 -9.5q42 0 70 14t52 38v-122q-20 -14 -56.5 -21.5t-77.5 -7.5q-65 0 -109 15.5t-71 48.5t-38.5 84.5t-12.5 124.5h-87l17 80h70v63h-87l16 79h71q6 124 65 189t186 65q48 0 81.5 -10t58.5 -27l-26 -116q-13 24 -42.5 39
t-72.5 15q-63 0 -87.5 -37t-26.5 -118h197l-17 -79h-180v-63h162l-17 -80h-145z" />
    <glyph glyph-name="cent.prop" horiz-adv-x="480" 
d="M265 428q-10 2 -17 2q-27 0 -43.5 -11t-25.5 -33.5t-12 -56.5t-3 -80q0 -29 1 -53t4 -44zM445 180q0 -37 -8 -71.5t-30 -61.5t-61 -43t-102 -16q-37 0 -65 6l-29 -83h-64l35 103q-50 28 -66.5 84t-16.5 136q0 61 7 113t29 89.5t63.5 58.5t109.5 21q13 0 24.5 -0.5
t22.5 -1.5l31 88h64l-35 -102q45 -17 67 -57.5t22 -111.5h-123q0 30 -9 50l-103 -299q16 -8 37 -8q22 0 37 10t23.5 25.5t12 34.5t3.5 36h124z" />
    <glyph glyph-name="dollar.prop" 
d="M217 13q-94 6 -138.5 51t-44.5 141v23h125v-16q0 -18 2.5 -35t9 -30.5t19 -23.5t32.5 -14v197l-18 11q-43 25 -73.5 46.5t-50 44.5t-28.5 51.5t-9 66.5q0 34 10 65.5t31.5 56t54.5 40.5t78 21v89h70v-88q49 -4 82 -17.5t52.5 -36.5t27.5 -54t8 -69v-21h-120v8
q0 37 -11.5 61.5t-43.5 32.5v-185l39 -22q33 -19 59.5 -38.5t45.5 -42.5t29 -52.5t10 -68.5q0 -38 -10 -71t-31 -58t-55 -41.5t-82 -20.5v-89h-70v88zM342 186q0 29 -17 49.5t-43 36.5v-162q35 8 47.5 29t12.5 47zM167 543q0 -23 14.5 -42.5t40.5 -36.5v151
q-31 -8 -43 -27.5t-12 -44.5z" />
    <glyph glyph-name="sterling.prop" 
d="M359 556v7q0 29 -13.5 51.5t-46.5 22.5q-21 0 -33 -8.5t-18.5 -22t-8.5 -30t-2 -32.5v-115h135v-102h-135v-224h234v-103h-423v103h63v224h-65v102h65v44q0 57 4.5 105t23.5 83t57 55t105 20q85 0 127.5 -36.5t48.5 -112.5q1 -8 1 -15.5v-15.5h-119z" />
    <glyph glyph-name="florin.prop" horiz-adv-x="444" 
d="M398 627q-6 2 -13.5 3t-14.5 1q-29 0 -41 -20t-17 -45l-16 -93h80l-12 -86h-81l-49 -328q-7 -48 -18 -88t-32 -68t-56.5 -43.5t-91.5 -15.5q-10 0 -20.5 1t-18.5 3l16 101q9 -4 20 -4q26 0 39.5 21t19.5 62l54 359h-66l14 86h66l16 92q6 37 17.5 68t32.5 54t54 36t82 13
q13 0 27 -1t24 -3z" />
    <glyph glyph-name="yen.prop" 
d="M339 352h121v-79h-142v-64h142v-79h-142v-130h-144v130h-141v79h141v64h-141v79h123l-137 371h158l77 -323l82 323h146z" />
    <glyph glyph-name="zero.onumprop" 
d="M460 270q0 -81 -11.5 -135t-37 -86.5t-65 -46.5t-96.5 -14t-96.5 13.5t-65 46t-37 86.5t-11.5 136v10q0 80 11.5 134t36.5 87t65 47t97 14t97 -13.5t65 -45.5t36.5 -86.5t11.5 -136.5v-10zM318 310q0 47 -3.5 78t-11 49t-21 25.5t-32.5 7.5q-20 0 -33 -7.5t-20.5 -25.5
t-11 -49t-3.5 -78v-70q0 -48 3.5 -79t11.5 -49t21 -25t32 -7t32 7t21 25t11.5 49t3.5 79v70z" />
    <glyph glyph-name="one.onumprop" horiz-adv-x="430" 
d="M199 0v405q-26 -25 -62.5 -44.5t-82.5 -37.5v118q46 18 90 47.5t73 61.5h123v-550h-141z" />
    <glyph glyph-name="two.onumprop" 
d="M40 0v96l177 158q48 44 71.5 79t23.5 73q0 30 -14 47.5t-43 17.5q-35 0 -50 -23.5t-16 -66.5h-141q5 181 209 181q97 0 148.5 -37.5t51.5 -116.5q0 -28 -7 -55.5t-24 -56.5t-46 -61t-73 -68l-84 -70h235v-97h-418z" />
    <glyph glyph-name="three.onumprop" 
d="M454 49q0 -50 -11 -88t-36.5 -64t-66 -39t-99.5 -13q-57 0 -95 11.5t-63 33.5q-24 22 -36 57.5t-13 92.5h141q0 -54 16 -78t50 -24q37 0 52.5 26t15.5 80q0 38 -4.5 58.5t-14.5 34.5q-22 31 -86 31h-25v94h25q27 0 46 5.5t30.5 19t16.5 35t5 54.5q0 49 -12 71.5t-43 22.5
q-62 0 -62 -91h-139v11q0 83 48.5 127.5t155.5 44.5q51 0 86 -10.5t60 -30.5q26 -22 38 -55t12 -82q0 -142 -103 -167q65 -15 89 -58q11 -20 16.5 -45t5.5 -65z" />
    <glyph glyph-name="four.onumprop" 
d="M405 0v-143h-139v143h-242v115l183 435h198v-455h75v-95h-75zM273 454l-144 -360h144v360z" />
    <glyph glyph-name="five.onumprop" 
d="M457 96q0 -59 -8.5 -106t-31.5 -79t-65 -49t-108 -17q-44 0 -79.5 9.5t-60.5 30t-38.5 53.5t-13.5 80h142q0 -16 2 -30.5t8 -25.5t17.5 -17.5t29.5 -6.5q21 0 33 10t18 29.5t8 48t2 64.5q0 21 -1 43.5t-6 41.5t-16.5 31t-32.5 12q-32 0 -45 -22.5t-15 -49.5h-137l10 404
h367v-96h-232l-7 -199q24 24 50 36.5t67 12.5t68.5 -15t44 -42t23.5 -65.5t7 -85.5z" />
    <glyph glyph-name="six.onumprop" 
d="M463 224q0 -56 -11 -99.5t-35.5 -74.5t-65 -47t-99.5 -16q-68 0 -108.5 19.5t-63 56.5t-29.5 91.5t-7 125.5v148q0 58 8 111.5t31.5 94.5t67 65t114.5 24q44 0 78 -8t57.5 -27t36.5 -50t14 -76h-142q0 32 -10.5 51.5t-42.5 19.5q-25 0 -39 -17t-21.5 -45.5t-9.5 -65.5
t-2 -77v-32q20 24 46 39t71 15q48 0 79.5 -15t49.5 -44t25.5 -71t7.5 -96zM320 225q0 31 -1.5 56t-8 43t-20 27.5t-37.5 9.5t-37.5 -13t-20 -32.5t-8.5 -43.5t-2 -45q0 -34 2.5 -61t9.5 -46.5t20.5 -30t35.5 -10.5q24 0 37.5 12t20 32t8 46.5t1.5 55.5z" />
    <glyph glyph-name="seven.onumprop" horiz-adv-x="460" 
d="M248 -143h-153l193 596h-247v97h379v-112z" />
    <glyph glyph-name="eight.onumprop" 
d="M461 193q0 -103 -48 -154.5t-163 -51.5q-53 0 -92 10.5t-65.5 34.5t-39.5 63.5t-13 98.5q0 27 3 53.5t13.5 50t31 42.5t54.5 31q-29 8 -48 23t-29.5 36t-14.5 46.5t-4 53.5q0 100 50.5 146.5t153.5 46.5q49 0 87 -9.5t64 -31.5t40 -57t14 -86q0 -29 -4 -55.5t-15.5 -48
t-31 -38t-49.5 -26.5q32 -9 52.5 -24t32.5 -37t16.5 -51t4.5 -66zM312 522q0 20 -1 39.5t-7 35t-18.5 25t-35.5 9.5q-22 0 -34.5 -9.5t-18.5 -24.5t-7 -34t-1 -38q0 -18 2 -37.5t8 -35t18 -25.5t33 -10t33.5 9.5t19 24.5t8 34t1.5 37zM317 198q0 21 -1.5 43t-8.5 41t-20 31
t-37 12q-23 0 -36.5 -12.5t-20 -31t-8 -40.5t-1.5 -41q0 -18 1.5 -39.5t7.5 -39.5t19.5 -30.5t37.5 -12.5t37.5 12t20 30t8 39t1.5 39z" />
    <glyph glyph-name="nine.onumprop" 
d="M453 149q0 -70 -5 -126t-26.5 -95.5t-65 -61t-119.5 -21.5q-44 0 -79 8.5t-59.5 28.5t-38.5 52.5t-14 79.5h142q0 -34 12 -56.5t48 -22.5q19 0 31.5 10t19.5 26.5t10 38t4 45.5q1 21 1 52v60q-21 -24 -46 -38.5t-70 -14.5t-75.5 14.5t-49 42t-26.5 68t-8 91.5t10 93.5
t34 73.5t64 48t99 17q63 0 103 -17t63.5 -49.5t32 -80.5t8.5 -110v-156zM313 337q0 25 -1.5 49t-7.5 43t-19 30t-36 11q-24 0 -37.5 -11t-20 -29t-8 -42t-1.5 -51q0 -30 1 -55t7 -43t18.5 -27.5t36.5 -9.5t37.5 12t20 31.5t8.5 43.5t2 48z" />
    <glyph glyph-name="zero.numerator" horiz-adv-x="307" 
d="M154 364q23 0 33 16.5t10 54.5v158q0 38 -10 54.5t-33 16.5t-33 -16.5t-10 -54.5v-158q0 -38 10 -54.5t33 -16.5zM284 439q0 -32 -6.5 -57.5t-21.5 -44t-40 -28.5t-62 -10t-62 10t-40 28.5t-21.5 44t-6.5 57.5v150q0 31 6.5 57t21.5 44.5t40 28.5t62 10t62 -10t40 -28.5
t21.5 -44.5t6.5 -57v-150z" />
    <glyph glyph-name="one.numerator" horiz-adv-x="307" 
d="M126 305v320q-17 -14 -38 -27t-41 -21v82q26 12 45.5 28t38.5 36h88v-418h-93z" />
    <glyph glyph-name="two.numerator" horiz-adv-x="307" 
d="M19 305v72l123 149q14 18 23 31t14.5 24.5t7.5 21.5t2 21q0 41 -38 41q-26 0 -35 -18t-9 -45h-84v17q0 26 10.5 46.5t28.5 34.5t41 21.5t48 7.5q55 0 92 -25.5t37 -83.5q0 -30 -11.5 -60t-34.5 -59l-103 -128h151v-68h-263z" />
    <glyph glyph-name="three.numerator" horiz-adv-x="307" 
d="M283 425q0 -126 -132 -126q-65 0 -95.5 28.5t-30.5 97.5h87q0 -30 9 -45.5t32 -15.5t31.5 15.5t8.5 44.5q0 43 -15.5 56.5t-44.5 13.5h-22v58h24q29 0 43.5 15.5t14.5 44.5t-7.5 42t-29.5 13t-30.5 -14.5t-8.5 -40.5h-84v14q0 51 32.5 77t87.5 26q56 0 90.5 -25t34.5 -86
q0 -30 -13 -54.5t-39 -39.5q29 -15 43 -37t14 -62z" />
    <glyph glyph-name="four.numerator" horiz-adv-x="307" 
d="M258 400v-95h-93v94h-138v82l105 242h126v-254h34v-69h-34zM100 468h73l2 182z" />
    <glyph glyph-name="five.numerator" horiz-adv-x="307" 
d="M285 450q0 -37 -5.5 -65.5t-20.5 -47.5t-41 -28.5t-67 -9.5q-52 0 -85.5 25.5t-33.5 82.5h87q0 -18 7.5 -31.5t29.5 -13.5q23 0 31 16.5t8 69.5q0 41 -8.5 57t-28.5 16t-28 -13t-10 -28h-84l6 243h228v-65h-145l-4 -106q31 28 68 28q52 0 74 -31.5t22 -98.5z" />
    <glyph glyph-name="six.numerator" horiz-adv-x="307" 
d="M284 438q0 -66 -29 -102.5t-101 -36.5q-41 0 -66.5 11t-39 33t-18 53.5t-4.5 73.5v85q0 39 6 71t21.5 55t41.5 35.5t67 12.5q54 0 84.5 -21.5t32.5 -78.5h-88q-1 17 -8 27.5t-26 10.5q-26 0 -35 -27t-9 -72v-27q13 14 29 23t43 9q58 0 78.5 -35.5t20.5 -99.5zM195 439
q0 38 -7.5 55.5t-32.5 17.5q-24 0 -32.5 -19.5t-8.5 -52.5q0 -42 8.5 -60.5t32.5 -18.5q25 0 32.5 18t7.5 60z" />
    <glyph glyph-name="seven.numerator" horiz-adv-x="307" 
d="M166 305h-97l119 352h-148v66h232v-71z" />
    <glyph glyph-name="eight.numerator" horiz-adv-x="307" 
d="M283 422q0 -60 -29.5 -91.5t-100.5 -31.5q-65 0 -97 27.5t-32 95.5q0 29 10.5 57t42.5 44q-27 11 -38 35.5t-11 55.5q0 60 31 87.5t94 27.5q60 0 93 -24t33 -85q0 -32 -11.5 -57.5t-40.5 -38.5q31 -12 43.5 -36.5t12.5 -65.5zM192 610q0 27 -7.5 41.5t-31.5 14.5
q-23 0 -30.5 -14t-7.5 -40t8 -41.5t30 -15.5q23 0 31 14.5t8 40.5zM195 424q0 35 -8 52t-34 17q-23 0 -32 -17t-9 -50q0 -35 9 -50t32 -15q24 0 33 15t9 48z" />
    <glyph glyph-name="nine.numerator" horiz-adv-x="307" 
d="M283 487q0 -41 -3 -75.5t-16.5 -59.5t-40 -39t-73.5 -14q-54 0 -85.5 23.5t-31.5 81.5h87q0 -17 7.5 -30.5t29.5 -13.5q21 0 30.5 17t9.5 59v52q-14 -14 -29.5 -22.5t-41.5 -8.5q-56 0 -78 34t-22 96q0 66 28.5 104t101.5 38q38 0 62.5 -10t39 -29.5t20 -49t5.5 -68.5
v-85zM196 591q0 37 -7.5 56t-32.5 19q-26 0 -34 -19t-8 -56t7.5 -55t33.5 -18t33.5 20.5t7.5 52.5z" />
    <glyph glyph-name="zero.denominator" horiz-adv-x="307" 
d="M154 59q23 0 33 16.5t10 54.5v158q0 38 -10 54.5t-33 16.5t-33 -16.5t-10 -54.5v-158q0 -38 10 -54.5t33 -16.5zM284 134q0 -32 -6.5 -57.5t-21.5 -44t-40 -28.5t-62 -10t-62 10t-40 28.5t-21.5 44t-6.5 57.5v150q0 31 6.5 57t21.5 44.5t40 28.5t62 10t62 -10t40 -28.5
t21.5 -44.5t6.5 -57v-150z" />
    <glyph glyph-name="one.denominator" horiz-adv-x="307" 
d="M126 0v320q-17 -14 -38 -27t-41 -21v82q26 12 45.5 28t38.5 36h88v-418h-93z" />
    <glyph glyph-name="two.denominator" horiz-adv-x="307" 
d="M19 0v72l123 149q14 18 23 31t14.5 24.5t7.5 21.5t2 21q0 41 -38 41q-26 0 -35 -18t-9 -45h-84v17q0 26 10.5 46.5t28.5 34.5t41 21.5t48 7.5q55 0 92 -25.5t37 -83.5q0 -30 -11.5 -60t-34.5 -59l-103 -128h151v-68h-263z" />
    <glyph glyph-name="three.denominator" horiz-adv-x="307" 
d="M283 120q0 -126 -132 -126q-65 0 -95.5 28.5t-30.5 97.5h87q0 -30 9 -45.5t32 -15.5t31.5 15.5t8.5 44.5q0 43 -15.5 56.5t-44.5 13.5h-22v58h24q29 0 43.5 15.5t14.5 44.5t-7.5 42t-29.5 13t-30.5 -14.5t-8.5 -40.5h-84v14q0 51 32.5 77t87.5 26q56 0 90.5 -25t34.5 -86
q0 -30 -13 -54.5t-39 -39.5q29 -15 43 -37t14 -62z" />
    <glyph glyph-name="four.denominator" horiz-adv-x="307" 
d="M258 95v-95h-93v94h-138v82l105 242h126v-254h34v-69h-34zM100 163h73l2 182z" />
    <glyph glyph-name="five.denominator" horiz-adv-x="307" 
d="M285 145q0 -37 -5.5 -65.5t-20.5 -47.5t-41 -28.5t-67 -9.5q-52 0 -85.5 25.5t-33.5 82.5h87q0 -18 7.5 -31.5t29.5 -13.5q23 0 31 16.5t8 69.5q0 41 -8.5 57t-28.5 16t-28 -13t-10 -28h-84l6 243h228v-65h-145l-4 -106q31 28 68 28q52 0 74 -31.5t22 -98.5z" />
    <glyph glyph-name="six.denominator" horiz-adv-x="307" 
d="M284 133q0 -66 -29 -102.5t-101 -36.5q-41 0 -66.5 11t-39 33t-18 53.5t-4.5 73.5v85q0 39 6 71t21.5 55t41.5 35.5t67 12.5q54 0 84.5 -21.5t32.5 -78.5h-88q-1 17 -8 27.5t-26 10.5q-26 0 -35 -27t-9 -72v-27q13 14 29 23t43 9q58 0 78.5 -35.5t20.5 -99.5zM195 134
q0 38 -7.5 55.5t-32.5 17.5q-24 0 -32.5 -19.5t-8.5 -52.5q0 -42 8.5 -60.5t32.5 -18.5q25 0 32.5 18t7.5 60z" />
    <glyph glyph-name="seven.denominator" horiz-adv-x="307" 
d="M166 0h-97l119 352h-148v66h232v-71z" />
    <glyph glyph-name="eight.denominator" horiz-adv-x="307" 
d="M283 117q0 -60 -29.5 -91.5t-100.5 -31.5q-65 0 -97 27.5t-32 95.5q0 29 10.5 57t42.5 44q-27 11 -38 35.5t-11 55.5q0 60 31 87.5t94 27.5q60 0 93 -24t33 -85q0 -32 -11.5 -57.5t-40.5 -38.5q31 -12 43.5 -36.5t12.5 -65.5zM192 305q0 27 -7.5 41.5t-31.5 14.5
q-23 0 -30.5 -14t-7.5 -40t8 -41.5t30 -15.5q23 0 31 14.5t8 40.5zM195 119q0 35 -8 52t-34 17q-23 0 -32 -17t-9 -50q0 -35 9 -50t32 -15q24 0 33 15t9 48z" />
    <glyph glyph-name="nine.denominator" horiz-adv-x="307" 
d="M283 182q0 -41 -3 -75.5t-16.5 -59.5t-40 -39t-73.5 -14q-54 0 -85.5 23.5t-31.5 81.5h87q0 -17 7.5 -30.5t29.5 -13.5q21 0 30.5 17t9.5 59v52q-14 -14 -29.5 -22.5t-41.5 -8.5q-56 0 -78 34t-22 96q0 66 28.5 104t101.5 38q38 0 62.5 -10t39 -29.5t20 -49t5.5 -68.5
v-85zM196 286q0 37 -7.5 56t-32.5 19q-26 0 -34 -19t-8 -56t7.5 -55t33.5 -18t33.5 20.5t7.5 52.5z" />
    <glyph glyph-name="onehalf.alt01" 
d="M211 457v195q-11 -8 -24.5 -15t-28.5 -13v59q20 10 35.5 19.5t28.5 20.5h57v-266h-68zM96 338v51h308v-51h-308zM156 0v51l91 94q19 19 24 30.5t5 24.5q0 10 -5 16.5t-18 6.5q-27 0 -27 -37h-65q0 45 26 65t68 20t65.5 -18t23.5 -55q0 -29 -12.5 -51t-38.5 -47l-53 -52
h105v-48h-189z" />
    <glyph glyph-name="onethird.alt01" 
d="M211 457v195q-11 -8 -24.5 -15t-28.5 -13v59q20 10 35.5 19.5t28.5 20.5h57v-266h-68zM341 76q0 -42 -22.5 -61.5t-72.5 -19.5q-48 0 -70 19t-22 64h65q0 -17 6 -26.5t21 -9.5q17 0 23 7.5t6 24.5q0 23 -8 32.5t-33 9.5h-15v47h12q22 0 31.5 6.5t9.5 26.5q0 11 -4.5 19.5
t-20.5 8.5q-14 0 -19 -8t-5 -22h-64q0 42 23 59.5t67 17.5t66.5 -16t22.5 -56q0 -23 -8 -35.5t-25 -22.5q18 -8 27 -23t9 -42zM96 338v51h308v-51h-308z" />
    <glyph glyph-name="onequarter.alt01" 
d="M211 457v195q-11 -8 -24.5 -15t-28.5 -13v59q20 10 35.5 19.5t28.5 20.5h57v-266h-68zM310 59v-59h-64v59h-101v50l77 157h88v-160h32v-47h-32zM249 215l-49 -109h49v109zM96 338v51h308v-51h-308z" />
    <glyph glyph-name="oneeighth.alt01" 
d="M211 457v195q-11 -8 -24.5 -15t-28.5 -13v59q20 10 35.5 19.5t28.5 20.5h57v-266h-68zM343 76q0 -40 -21.5 -60.5t-72.5 -20.5q-46 0 -69.5 18t-23.5 63q0 24 8 38.5t25 23.5q-17 8 -24 22.5t-7 34.5q0 40 23 58t68 18q43 0 67.5 -15.5t24.5 -57.5q0 -22 -7.5 -35.5
t-24.5 -23.5q34 -16 34 -63zM277 194q0 32 -28 32q-27 0 -27 -32t27 -32q28 0 28 32zM279 78q0 37 -29 37q-30 0 -30 -37q0 -38 30 -38q29 0 29 38zM96 338v51h308v-51h-308z" />
    <glyph glyph-name="twothirds.alt01" 
d="M156 457v51l91 94q19 19 24 30.5t5 24.5q0 10 -5 16.5t-18 6.5q-27 0 -27 -37h-65q0 45 26 65t68 20t65.5 -18t23.5 -55q0 -29 -12.5 -51t-38.5 -47l-53 -52h105v-48h-189zM341 76q0 -42 -22.5 -61.5t-72.5 -19.5q-48 0 -70 19t-22 64h65q0 -17 6 -26.5t21 -9.5
q17 0 23 7.5t6 24.5q0 23 -8 32.5t-33 9.5h-15v47h12q22 0 31.5 6.5t9.5 26.5q0 11 -4.5 19.5t-20.5 8.5q-14 0 -19 -8t-5 -22h-64q0 42 23 59.5t67 17.5t66.5 -16t22.5 -56q0 -23 -8 -35.5t-25 -22.5q18 -8 27 -23t9 -42zM96 338v51h308v-51h-308z" />
    <glyph glyph-name="threequarters.alt01" 
d="M341 533q0 -42 -22.5 -61.5t-72.5 -19.5q-48 0 -70 19t-22 64h65q0 -17 6 -26.5t21 -9.5q17 0 23 7.5t6 24.5q0 23 -8 32.5t-33 9.5h-15v47h12q22 0 31.5 6.5t9.5 26.5q0 11 -4.5 19.5t-20.5 8.5q-14 0 -19 -8t-5 -22h-64q0 42 23 59.5t67 17.5t66.5 -16t22.5 -56
q0 -23 -8 -35.5t-25 -22.5q18 -8 27 -23t9 -42zM310 59v-59h-64v59h-101v50l77 157h88v-160h32v-47h-32zM249 215l-49 -109h49v109zM96 338v51h308v-51h-308z" />
    <glyph glyph-name="threeeighths.alt01" 
d="M341 533q0 -42 -22.5 -61.5t-72.5 -19.5q-48 0 -70 19t-22 64h65q0 -17 6 -26.5t21 -9.5q17 0 23 7.5t6 24.5q0 23 -8 32.5t-33 9.5h-15v47h12q22 0 31.5 6.5t9.5 26.5q0 11 -4.5 19.5t-20.5 8.5q-14 0 -19 -8t-5 -22h-64q0 42 23 59.5t67 17.5t66.5 -16t22.5 -56
q0 -23 -8 -35.5t-25 -22.5q18 -8 27 -23t9 -42zM343 76q0 -40 -21.5 -60.5t-72.5 -20.5q-46 0 -69.5 18t-23.5 63q0 24 8 38.5t25 23.5q-17 8 -24 22.5t-7 34.5q0 40 23 58t68 18q43 0 67.5 -15.5t24.5 -57.5q0 -22 -7.5 -35.5t-24.5 -23.5q34 -16 34 -63zM277 194
q0 32 -28 32q-27 0 -27 -32t27 -32q28 0 28 32zM279 78q0 37 -29 37q-30 0 -30 -37q0 -38 30 -38q29 0 29 38zM96 338v51h308v-51h-308z" />
    <glyph glyph-name="fiveeighths.alt01" 
d="M340 552q0 -24 -4 -42.5t-14.5 -31.5t-29.5 -19.5t-48 -6.5q-39 0 -62.5 16.5t-23.5 59.5h65q0 -11 5 -20t19 -9q16 0 21 11t5 40q0 23 -5.5 31.5t-18.5 8.5q-14 0 -19 -8t-7 -17h-62l5 158h164v-48h-103l-2 -60q9 11 22 15.5t28 4.5q38 0 51.5 -23.5t13.5 -59.5zM343 76
q0 -40 -21.5 -60.5t-72.5 -20.5q-46 0 -69.5 18t-23.5 63q0 24 8 38.5t25 23.5q-17 8 -24 22.5t-7 34.5q0 40 23 58t68 18q43 0 67.5 -15.5t24.5 -57.5q0 -22 -7.5 -35.5t-24.5 -23.5q34 -16 34 -63zM277 194q0 32 -28 32q-27 0 -27 -32t27 -32q28 0 28 32zM279 78
q0 37 -29 37q-30 0 -30 -37q0 -38 30 -38q29 0 29 38zM96 338v51h308v-51h-308z" />
    <glyph glyph-name="seveneighths.alt01" 
d="M189 457l84 218h-102v48h166v-48l-75 -218h-73zM343 76q0 -40 -21.5 -60.5t-72.5 -20.5q-46 0 -69.5 18t-23.5 63q0 24 8 38.5t25 23.5q-17 8 -24 22.5t-7 34.5q0 40 23 58t68 18q43 0 67.5 -15.5t24.5 -57.5q0 -22 -7.5 -35.5t-24.5 -23.5q34 -16 34 -63zM277 194
q0 32 -28 32q-27 0 -27 -32t27 -32q28 0 28 32zM279 78q0 37 -29 37q-30 0 -30 -37q0 -38 30 -38q29 0 29 38zM96 338v51h308v-51h-308z" />
    <glyph glyph-name="Amacron" unicode="&#x100;" horiz-adv-x="598" 
d="M441 0l-40 160h-209l-40 -160h-152l198 723h202l198 -723h-157zM294 608l-77 -343h157zM149 807v65h289v-65h-289z" />
    <glyph glyph-name="amacron" unicode="&#x101;" horiz-adv-x="477" 
d="M298 0l-3 60q-23 -38 -55 -54t-77 -16q-71 0 -103 43t-32 111q0 56 18 90.5t49 53t72.5 25t87.5 6.5h33v27q0 16 -1 32.5t-5.5 29.5t-15.5 21t-30 8q-30 0 -42.5 -18.5t-12.5 -46.5v-9h-139v9q0 44 18.5 72t47 44t64 22t69.5 6q97 0 141 -39t44 -135v-184q0 -40 2 -79.5
t7 -78.5h-137zM288 244h-22q-51 0 -74 -21t-23 -72q0 -14 2 -28t8 -24.5t16.5 -17t26.5 -6.5q20 0 33 10.5t20.5 27t10 36.5t2.5 38v57zM95 622v65h289v-65h-289z" />
    <glyph glyph-name="Abreve" unicode="&#x102;" horiz-adv-x="598" 
d="M441 0l-40 160h-209l-40 -160h-152l198 723h202l198 -723h-157zM294 608l-77 -343h157zM456 922q-8 -72 -52 -107t-114 -35t-110 36t-47 106h58q8 -41 37.5 -58t67.5 -17q39 0 67 17t36 58h57v0z" />
    <glyph glyph-name="abreve" unicode="&#x103;" horiz-adv-x="477" 
d="M298 0l-3 60q-23 -38 -55 -54t-77 -16q-71 0 -103 43t-32 111q0 56 18 90.5t49 53t72.5 25t87.5 6.5h33v27q0 16 -1 32.5t-5.5 29.5t-15.5 21t-30 8q-30 0 -42.5 -18.5t-12.5 -46.5v-9h-139v9q0 44 18.5 72t47 44t64 22t69.5 6q97 0 141 -39t44 -135v-184q0 -40 2 -79.5
t7 -78.5h-137zM288 244h-22q-51 0 -74 -21t-23 -72q0 -14 2 -28t8 -24.5t16.5 -17t26.5 -6.5q20 0 33 10.5t20.5 27t10 36.5t2.5 38v57zM402 727q-8 -72 -52 -107t-114 -35t-110 36t-47 106h58q8 -41 37.5 -58t67.5 -17q39 0 67 17t36 58h57v0z" />
    <glyph glyph-name="Aogonek" unicode="&#x104;" horiz-adv-x="598" 
d="M614 -179q-17 -14 -40 -22.5t-49 -8.5q-33 0 -59 15t-26 53q0 23 9 43.5t23.5 38.5t32 33t35.5 27h-99l-40 160h-209l-40 -160h-152l198 723h202l198 -723q-44 -32 -62.5 -55t-18.5 -50q0 -23 15.5 -33.5t35.5 -10.5q11 0 22 3t20 8zM294 608l-77 -343h157z" />
    <glyph glyph-name="aogonek" unicode="&#x105;" horiz-adv-x="477" 
d="M451 -179q-17 -14 -40 -22.5t-49 -8.5q-33 0 -59 15t-26 53q0 23 9 43.5t23.5 38.5t32 33t35.5 27h-79l-3 60q-23 -38 -55 -54t-77 -16q-71 0 -103 43t-32 111q0 56 18 90.5t49 53t72.5 25t87.5 6.5h33v27q0 16 -1 32.5t-5.5 29.5t-15.5 21t-30 8q-30 0 -42.5 -18.5
t-12.5 -46.5v-9h-139v9q0 44 18.5 72t47 44t64 22t69.5 6q97 0 141 -39t44 -135v-184q0 -40 2 -79.5t7 -78.5q-44 -32 -62.5 -55t-18.5 -50q0 -23 15.5 -33.5t35.5 -10.5q11 0 22 3t20 8zM288 244h-22q-51 0 -74 -21t-23 -72q0 -14 2 -28t8 -24.5t16.5 -17t26.5 -6.5
q20 0 33 10.5t20.5 27t10 36.5t2.5 38v57z" />
    <glyph glyph-name="Cacute" unicode="&#x106;" horiz-adv-x="556" 
d="M531 223q0 -64 -14.5 -109t-43.5 -73.5t-74.5 -42t-106.5 -13.5q-84 0 -133 23.5t-75 70.5t-33.5 117t-7.5 163q0 84 5.5 153.5t30.5 120t75.5 78t139.5 27.5q57 0 100.5 -11.5t72.5 -37.5t43.5 -68t14.5 -103v-19h-149v15q0 21 -2.5 42t-11 38t-25 27.5t-44.5 10.5
q-34 0 -53.5 -18t-29 -51.5t-12 -81t-2.5 -107.5q0 -77 2.5 -130.5t12.5 -87.5t28.5 -49.5t51.5 -15.5q31 0 49 12t27 31t11 43.5t2 49.5v18h151v-22v0zM303 777h-82l90 143h136z" />
    <glyph glyph-name="cacute" unicode="&#x107;" horiz-adv-x="459" 
d="M441 180q0 -37 -8 -71.5t-30 -61.5t-61 -43t-102 -16q-64 0 -104 17t-62.5 48.5t-31 77t-8.5 103.5q0 61 7 113t29 89.5t63.5 58.5t109.5 21q50 0 87 -9.5t61 -31t36 -57t12 -87.5h-135q0 16 -1.5 34t-7 32t-17.5 23.5t-34 9.5q-27 0 -41.5 -15t-20.5 -40.5t-6.5 -58
t-0.5 -67.5q0 -33 0.5 -64.5t6.5 -56t19.5 -39.5t39.5 -15q22 0 35 10t20 25.5t9 34.5t2 36h134v0zM253 582h-82l90 143h136z" />
    <glyph glyph-name="Ccircumflex" unicode="&#x108;" horiz-adv-x="556" 
d="M531 223q0 -64 -14.5 -109t-43.5 -73.5t-74.5 -42t-106.5 -13.5q-84 0 -133 23.5t-75 70.5t-33.5 117t-7.5 163q0 84 5.5 153.5t30.5 120t75.5 78t139.5 27.5q57 0 100.5 -11.5t72.5 -37.5t43.5 -68t14.5 -103v-19h-149v15q0 21 -2.5 42t-11 38t-25 27.5t-44.5 10.5
q-34 0 -53.5 -18t-29 -51.5t-12 -81t-2.5 -107.5q0 -77 2.5 -130.5t12.5 -87.5t28.5 -49.5t51.5 -15.5q31 0 49 12t27 31t11 43.5t2 49.5v18h151v-22v0zM368 777l-76 84l-75 -84h-86l104 143h115l103 -143h-85z" />
    <glyph glyph-name="ccircumflex" unicode="&#x109;" horiz-adv-x="459" 
d="M441 180q0 -37 -8 -71.5t-30 -61.5t-61 -43t-102 -16q-64 0 -104 17t-62.5 48.5t-31 77t-8.5 103.5q0 61 7 113t29 89.5t63.5 58.5t109.5 21q50 0 87 -9.5t61 -31t36 -57t12 -87.5h-135q0 16 -1.5 34t-7 32t-17.5 23.5t-34 9.5q-27 0 -41.5 -15t-20.5 -40.5t-6.5 -58
t-0.5 -67.5q0 -33 0.5 -64.5t6.5 -56t19.5 -39.5t39.5 -15q22 0 35 10t20 25.5t9 34.5t2 36h134v0zM318 582l-76 84l-75 -84h-86l104 143h115l103 -143h-85z" />
    <glyph glyph-name="Cdotaccent" unicode="&#x10a;" horiz-adv-x="556" 
d="M531 223q0 -64 -14.5 -109t-43.5 -73.5t-74.5 -42t-106.5 -13.5q-84 0 -133 23.5t-75 70.5t-33.5 117t-7.5 163q0 84 5.5 153.5t30.5 120t75.5 78t139.5 27.5q57 0 100.5 -11.5t72.5 -37.5t43.5 -68t14.5 -103v-19h-149v15q0 21 -2.5 42t-11 38t-25 27.5t-44.5 10.5
q-34 0 -53.5 -18t-29 -51.5t-12 -81t-2.5 -107.5q0 -77 2.5 -130.5t12.5 -87.5t28.5 -49.5t51.5 -15.5q31 0 49 12t27 31t11 43.5t2 49.5v18h151v-22v0zM235 789v109h112v-109h-112z" />
    <glyph glyph-name="cdotaccent" unicode="&#x10b;" horiz-adv-x="459" 
d="M441 180q0 -37 -8 -71.5t-30 -61.5t-61 -43t-102 -16q-64 0 -104 17t-62.5 48.5t-31 77t-8.5 103.5q0 61 7 113t29 89.5t63.5 58.5t109.5 21q50 0 87 -9.5t61 -31t36 -57t12 -87.5h-135q0 16 -1.5 34t-7 32t-17.5 23.5t-34 9.5q-27 0 -41.5 -15t-20.5 -40.5t-6.5 -58
t-0.5 -67.5q0 -33 0.5 -64.5t6.5 -56t19.5 -39.5t39.5 -15q22 0 35 10t20 25.5t9 34.5t2 36h134v0zM186 604v109h112v-109h-112z" />
    <glyph glyph-name="Ccaron" unicode="&#x10c;" horiz-adv-x="556" 
d="M531 223q0 -64 -14.5 -109t-43.5 -73.5t-74.5 -42t-106.5 -13.5q-84 0 -133 23.5t-75 70.5t-33.5 117t-7.5 163q0 84 5.5 153.5t30.5 120t75.5 78t139.5 27.5q57 0 100.5 -11.5t72.5 -37.5t43.5 -68t14.5 -103v-19h-149v15q0 21 -2.5 42t-11 38t-25 27.5t-44.5 10.5
q-34 0 -53.5 -18t-29 -51.5t-12 -81t-2.5 -107.5q0 -77 2.5 -130.5t12.5 -87.5t28.5 -49.5t51.5 -15.5q31 0 49 12t27 31t11 43.5t2 49.5v18h151v-22v0zM454 920l-103 -143h-115l-104 143h86l75 -84l76 84h85z" />
    <glyph glyph-name="ccaron" unicode="&#x10d;" horiz-adv-x="459" 
d="M441 180q0 -37 -8 -71.5t-30 -61.5t-61 -43t-102 -16q-64 0 -104 17t-62.5 48.5t-31 77t-8.5 103.5q0 61 7 113t29 89.5t63.5 58.5t109.5 21q50 0 87 -9.5t61 -31t36 -57t12 -87.5h-135q0 16 -1.5 34t-7 32t-17.5 23.5t-34 9.5q-27 0 -41.5 -15t-20.5 -40.5t-6.5 -58
t-0.5 -67.5q0 -33 0.5 -64.5t6.5 -56t19.5 -39.5t39.5 -15q22 0 35 10t20 25.5t9 34.5t2 36h134v0zM404 725l-103 -143h-115l-104 143h86l75 -84l76 84h85z" />
    <glyph glyph-name="Dcaron" unicode="&#x10e;" horiz-adv-x="605" 
d="M562 380q0 -90 -5.5 -160.5t-32 -119.5t-82 -74.5t-155.5 -25.5h-217v723h216q94 0 149 -21t83 -64t36 -107t8 -151zM408 358q0 64 -3 112t-15.5 80.5t-39 49t-74.5 16.5h-55v-510h57q46 0 72.5 18.5t39 52t15.5 80t3 101.5zM473 920l-103 -143h-115l-104 143h86l75 -84
l76 84h85z" />
    <glyph glyph-name="dcaron" unicode="&#x10f;" horiz-adv-x="502" 
d="M312 0v54q-22 -34 -51.5 -49t-69.5 -15q-54 0 -85.5 22t-47.5 58.5t-20 83.5t-4 97q0 56 4.5 104.5t20 84t45 56t79.5 20.5q40 0 70 -14t53 -47v268h141v-629q0 -2 0.5 -16t1 -31t1 -31t0.5 -16h-138zM305 249q0 36 -1.5 69.5t-8 59t-20 40.5t-36.5 15q-22 0 -34.5 -13.5
t-19 -37.5t-8.5 -58t-2 -75q0 -33 1.5 -64.5t8.5 -56.5t19.5 -40t35.5 -15q22 0 35 14.5t20 38.5t8.5 56t1.5 67zM586 544h-91l23 179h126z" />
    <glyph glyph-name="Dcroat" unicode="&#x110;" horiz-adv-x="605" 
d="M562 380q0 -90 -5.5 -160.5t-32 -119.5t-82 -74.5t-155.5 -25.5h-217v356h-62v83h62v284h216q94 0 149 -21t83 -64t36 -107t8 -151zM408 358q0 64 -3 112t-15.5 80.5t-39 49t-74.5 16.5h-55v-177h100v-83h-100v-250h57q46 0 72.5 18.5t39 52t15.5 80t3 101.5z" />
    <glyph glyph-name="dcroat" unicode="&#x111;" horiz-adv-x="502" 
d="M312 0v54q-22 -34 -51.5 -49t-69.5 -15q-54 0 -85.5 22t-47.5 58.5t-20 83.5t-4 97q0 56 4.5 104.5t20 84t45 56t79.5 20.5q40 0 70 -14t53 -47v119h-187v86h187v63h141v-63h55v-86h-55v-480q0 -2 0.5 -16t1 -31t1 -31t0.5 -16h-138zM305 249q0 36 -1.5 69.5t-8 59
t-20 40.5t-36.5 15q-22 0 -34.5 -13.5t-19 -37.5t-8.5 -58t-2 -75q0 -33 1.5 -64.5t8.5 -56.5t19.5 -40t35.5 -15q22 0 35 14.5t20 38.5t8.5 56t1.5 67z" />
    <glyph glyph-name="Emacron" unicode="&#x112;" 
d="M70 0v723h395v-107h-244v-190h223v-104h-223v-215h250v-107h-401zM128 807v65h289v-65h-289z" />
    <glyph glyph-name="emacron" unicode="&#x113;" horiz-adv-x="470" 
d="M174 236v-8.5t0.5 -14t0.5 -14v-7.5q2 -62 14 -91.5t49 -29.5q20 0 32 8.5t18.5 22t8.5 31t2 34.5h136q-3 -94 -50.5 -136.5t-145.5 -42.5q-67 0 -107.5 19t-62 53.5t-28.5 82.5t-7 105t8.5 106t31.5 85t64 56.5t106 20.5q67 0 105.5 -20.5t58 -56.5t25 -84.5t5.5 -105.5
v-13h-264zM297 311q0 17 -0.5 34t-2.5 32q-4 24 -16 40t-39 16q-29 0 -42 -17.5t-18 -45.5q-2 -14 -3 -28t-1 -31h122zM95 622v65h289v-65h-289z" />
    <glyph glyph-name="Ebreve" unicode="&#x114;" 
d="M70 0v723h395v-107h-244v-190h223v-104h-223v-215h250v-107h-401zM435 922q-8 -72 -52 -107t-114 -35t-110 36t-47 106h58q8 -41 37.5 -58t67.5 -17q39 0 67 17t36 58h57v0z" />
    <glyph glyph-name="ebreve" unicode="&#x115;" horiz-adv-x="470" 
d="M174 236v-8.5t0.5 -14t0.5 -14v-7.5q2 -62 14 -91.5t49 -29.5q20 0 32 8.5t18.5 22t8.5 31t2 34.5h136q-3 -94 -50.5 -136.5t-145.5 -42.5q-67 0 -107.5 19t-62 53.5t-28.5 82.5t-7 105t8.5 106t31.5 85t64 56.5t106 20.5q67 0 105.5 -20.5t58 -56.5t25 -84.5t5.5 -105.5
v-13h-264zM297 311q0 17 -0.5 34t-2.5 32q-4 24 -16 40t-39 16q-29 0 -42 -17.5t-18 -45.5q-2 -14 -3 -28t-1 -31h122zM402 727q-8 -72 -52 -107t-114 -35t-110 36t-47 106h58q8 -41 37.5 -58t67.5 -17q39 0 67 17t36 58h57v0z" />
    <glyph glyph-name="Edotaccent" unicode="&#x116;" 
d="M70 0v723h395v-107h-244v-190h223v-104h-223v-215h250v-107h-401zM216 789v109h112v-109h-112z" />
    <glyph glyph-name="edotaccent" unicode="&#x117;" horiz-adv-x="470" 
d="M174 236v-8.5t0.5 -14t0.5 -14v-7.5q2 -62 14 -91.5t49 -29.5q20 0 32 8.5t18.5 22t8.5 31t2 34.5h136q-3 -94 -50.5 -136.5t-145.5 -42.5q-67 0 -107.5 19t-62 53.5t-28.5 82.5t-7 105t8.5 106t31.5 85t64 56.5t106 20.5q67 0 105.5 -20.5t58 -56.5t25 -84.5t5.5 -105.5
v-13h-264zM297 311q0 17 -0.5 34t-2.5 32q-4 24 -16 40t-39 16q-29 0 -42 -17.5t-18 -45.5q-2 -14 -3 -28t-1 -31h122zM184 604v109h112v-109h-112z" />
    <glyph glyph-name="Eogonek" unicode="&#x118;" 
d="M487 -179q-17 -14 -40 -22.5t-49 -8.5q-33 0 -59 15t-26 53q0 23 9 43.5t23.5 38.5t32 33t35.5 27h-343v723h395v-107h-244v-190h223v-104h-223v-215h250v-107q-44 -32 -62.5 -55t-18.5 -50q0 -23 15.5 -33.5t35.5 -10.5q11 0 22 3t20 8z" />
    <glyph glyph-name="eogonek" unicode="&#x119;" horiz-adv-x="470" 
d="M327 -179q-17 -14 -40 -22.5t-49 -8.5q-33 0 -59 15t-26 53q0 41 25.5 73.5t57.5 56.5q-66 0 -106 19.5t-61 53.5t-28 82t-7 105t8.5 106t31.5 85t64 56.5t106 20.5q67 0 105.5 -20.5t58 -56.5t25 -84.5t5.5 -105.5v-13h-264v-8.5t0.5 -14t0.5 -14v-7.5q2 -62 14 -91.5
t49 -29.5q20 0 32 8.5t18.5 22t8.5 31t2 34.5h136q-3 -78 -35.5 -120t-98.5 -54q-38 -29 -54.5 -50.5t-16.5 -47.5q0 -23 15.5 -33.5t35.5 -10.5q11 0 22 3t20 8zM297 311v33t-3 33q-4 24 -16 40t-39 16q-29 0 -42 -17.5t-18 -45.5q-2 -14 -3 -28t-1 -31h122z" />
    <glyph glyph-name="Ecaron" unicode="&#x11a;" 
d="M70 0v723h395v-107h-244v-190h223v-104h-223v-215h250v-107h-401zM435 920l-103 -143h-115l-104 143h86l75 -84l76 84h85z" />
    <glyph glyph-name="ecaron" unicode="&#x11b;" horiz-adv-x="470" 
d="M174 236v-8.5t0.5 -14t0.5 -14v-7.5q2 -62 14 -91.5t49 -29.5q20 0 32 8.5t18.5 22t8.5 31t2 34.5h136q-3 -94 -50.5 -136.5t-145.5 -42.5q-67 0 -107.5 19t-62 53.5t-28.5 82.5t-7 105t8.5 106t31.5 85t64 56.5t106 20.5q67 0 105.5 -20.5t58 -56.5t25 -84.5t5.5 -105.5
v-13h-264zM297 311q0 17 -0.5 34t-2.5 32q-4 24 -16 40t-39 16q-29 0 -42 -17.5t-18 -45.5q-2 -14 -3 -28t-1 -31h122zM402 725l-103 -143h-115l-104 143h86l75 -84l76 84h85z" />
    <glyph glyph-name="Gcircumflex" unicode="&#x11c;" horiz-adv-x="581" 
d="M386 504v13q0 25 -4 46.5t-13.5 36.5t-26.5 23.5t-43 8.5q-37 0 -57.5 -17.5t-30.5 -50.5t-12.5 -80t-2.5 -106q0 -80 3.5 -135t14.5 -89t32.5 -48.5t56.5 -14.5q48 0 87 15v171h-84v106h231v-361q-52 -17 -110.5 -27t-118.5 -10q-93 0 -146 24.5t-79.5 72.5t-33 118.5
t-6.5 163.5q0 87 6.5 156t33 117.5t78 74.5t141.5 26q121 0 178.5 -52t57.5 -170v-12h-152zM376 777l-76 84l-75 -84h-86l104 143h115l103 -143h-85z" />
    <glyph glyph-name="gcircumflex" unicode="&#x11d;" horiz-adv-x="505" 
d="M453 504q0 -6 -0.5 -16.5t-1 -23t-1 -24.5t-0.5 -19v-440q0 -53 -15.5 -87t-44 -54t-68 -28t-86.5 -8q-41 0 -76.5 6.5t-61 23.5t-40 46.5t-14.5 74.5h148v-7q0 -26 11.5 -47t41.5 -21q38 0 50 27.5t12 81.5v76q-24 -35 -54 -47t-68 -12q-51 0 -81 20.5t-45.5 53.5
t-20 74.5t-4.5 84.5q0 53 3 103t17 88.5t44.5 62t84.5 23.5q45 0 76.5 -16t51.5 -54l2 58h140zM308 247q0 36 -1.5 69.5t-8.5 59t-20.5 40.5t-37.5 15q-23 0 -35.5 -12.5t-19 -36.5t-8 -59t-1.5 -80q0 -31 2 -59t9 -49.5t20 -34.5t34 -13q24 0 37 15t20 38.5t8.5 52
t1.5 54.5zM333 582l-76 84l-75 -84h-86l104 143h115l103 -143h-85z" />
    <glyph glyph-name="Gbreve" unicode="&#x11e;" horiz-adv-x="581" 
d="M386 504v13q0 25 -4 46.5t-13.5 36.5t-26.5 23.5t-43 8.5q-37 0 -57.5 -17.5t-30.5 -50.5t-12.5 -80t-2.5 -106q0 -80 3.5 -135t14.5 -89t32.5 -48.5t56.5 -14.5q48 0 87 15v171h-84v106h231v-361q-52 -17 -110.5 -27t-118.5 -10q-93 0 -146 24.5t-79.5 72.5t-33 118.5
t-6.5 163.5q0 87 6.5 156t33 117.5t78 74.5t141.5 26q121 0 178.5 -52t57.5 -170v-12h-152zM462 922q-8 -72 -52 -107t-114 -35t-110 36t-47 106h58q8 -41 37.5 -58t67.5 -17q39 0 67 17t36 58h57v0z" />
    <glyph glyph-name="gbreve" unicode="&#x11f;" horiz-adv-x="505" 
d="M453 504q0 -6 -0.5 -16.5t-1 -23t-1 -24.5t-0.5 -19v-440q0 -53 -15.5 -87t-44 -54t-68 -28t-86.5 -8q-41 0 -76.5 6.5t-61 23.5t-40 46.5t-14.5 74.5h148v-7q0 -26 11.5 -47t41.5 -21q38 0 50 27.5t12 81.5v76q-24 -35 -54 -47t-68 -12q-51 0 -81 20.5t-45.5 53.5
t-20 74.5t-4.5 84.5q0 53 3 103t17 88.5t44.5 62t84.5 23.5q45 0 76.5 -16t51.5 -54l2 58h140zM308 247q0 36 -1.5 69.5t-8.5 59t-20.5 40.5t-37.5 15q-23 0 -35.5 -12.5t-19 -36.5t-8 -59t-1.5 -80q0 -31 2 -59t9 -49.5t20 -34.5t34 -13q24 0 37 15t20 38.5t8.5 52
t1.5 54.5zM419 727q-8 -72 -52 -107t-114 -35t-110 36t-47 106h58q8 -41 37.5 -58t67.5 -17q39 0 67 17t36 58h57v0z" />
    <glyph glyph-name="Gdotaccent" unicode="&#x120;" horiz-adv-x="581" 
d="M386 504v13q0 25 -4 46.5t-13.5 36.5t-26.5 23.5t-43 8.5q-37 0 -57.5 -17.5t-30.5 -50.5t-12.5 -80t-2.5 -106q0 -80 3.5 -135t14.5 -89t32.5 -48.5t56.5 -14.5q48 0 87 15v171h-84v106h231v-361q-52 -17 -110.5 -27t-118.5 -10q-93 0 -146 24.5t-79.5 72.5t-33 118.5
t-6.5 163.5q0 87 6.5 156t33 117.5t78 74.5t141.5 26q121 0 178.5 -52t57.5 -170v-12h-152zM243 789v109h112v-109h-112z" />
    <glyph glyph-name="gdotaccent" unicode="&#x121;" horiz-adv-x="505" 
d="M453 504q0 -6 -0.5 -16.5t-1 -23t-1 -24.5t-0.5 -19v-440q0 -53 -15.5 -87t-44 -54t-68 -28t-86.5 -8q-41 0 -76.5 6.5t-61 23.5t-40 46.5t-14.5 74.5h148v-7q0 -26 11.5 -47t41.5 -21q38 0 50 27.5t12 81.5v76q-24 -35 -54 -47t-68 -12q-51 0 -81 20.5t-45.5 53.5
t-20 74.5t-4.5 84.5q0 53 3 103t17 88.5t44.5 62t84.5 23.5q45 0 76.5 -16t51.5 -54l2 58h140zM308 247q0 36 -1.5 69.5t-8.5 59t-20.5 40.5t-37.5 15q-23 0 -35.5 -12.5t-19 -36.5t-8 -59t-1.5 -80q0 -31 2 -59t9 -49.5t20 -34.5t34 -13q24 0 37 15t20 38.5t8.5 52
t1.5 54.5zM201 604v109h112v-109h-112z" />
    <glyph glyph-name="Gcommaaccent" unicode="&#x122;" horiz-adv-x="581" 
d="M386 504v13q0 25 -4 46.5t-13.5 36.5t-26.5 23.5t-43 8.5q-37 0 -57.5 -17.5t-30.5 -50.5t-12.5 -80t-2.5 -106q0 -80 3.5 -135t14.5 -89t32.5 -48.5t56.5 -14.5q48 0 87 15v171h-84v106h231v-361q-52 -17 -110.5 -27t-118.5 -10q-93 0 -146 24.5t-79.5 72.5t-33 118.5
t-6.5 163.5q0 87 6.5 156t33 117.5t78 74.5t141.5 26q121 0 178.5 -52t57.5 -170v-12h-152zM305 -215h-91l30 161h117z" />
    <glyph glyph-name="gcommaaccent" unicode="&#x123;" horiz-adv-x="505" 
d="M453 504q0 -6 -0.5 -16.5t-1 -23t-1 -24.5t-0.5 -19v-440q0 -53 -15.5 -87t-44 -54t-68 -28t-86.5 -8q-41 0 -76.5 6.5t-61 23.5t-40 46.5t-14.5 74.5h148v-7q0 -26 11.5 -47t41.5 -21q38 0 50 27.5t12 81.5v76q-24 -35 -54 -47t-68 -12q-51 0 -81 20.5t-45.5 53.5
t-20 74.5t-4.5 84.5q0 53 3 103t17 88.5t44.5 62t84.5 23.5q45 0 76.5 -16t51.5 -54l2 58h140zM308 247q0 36 -1.5 69.5t-8.5 59t-20.5 40.5t-37.5 15q-23 0 -35.5 -12.5t-19 -36.5t-8 -59t-1.5 -80q0 -31 2 -59t9 -49.5t20 -34.5t34 -13q24 0 37 15t20 38.5t8.5 52
t1.5 54.5zM248 725h91l-26 -143h-115z" />
    <glyph glyph-name="Hcircumflex" unicode="&#x124;" horiz-adv-x="620" 
d="M398 0v324h-176v-324h-152v723h152v-293h176v293h152v-723h-152zM385 777l-76 84l-75 -84h-86l104 143h115l103 -143h-85z" />
    <glyph glyph-name="hcircumflex" unicode="&#x125;" horiz-adv-x="512" 
d="M317 0v335q0 18 -1.5 35.5t-7 31t-16.5 22t-31 8.5q-18 0 -30 -9t-20 -23.5t-11.5 -34t-3.5 -40.5v-325h-141v723h141v-268q24 32 56 46.5t74 14.5q38 0 63.5 -10.5t40.5 -30.5t21.5 -48t6.5 -64v-363h-141zM202 777l-76 84l-75 -84h-86l104 143h115l103 -143h-85z" />
    <glyph glyph-name="Hbar" unicode="&#x126;" horiz-adv-x="620" 
d="M222 603h176v120h152v-723h-152v324h-176v-324h-152v723h152v-120zM222 499v-69h176v69h-176z" />
    <glyph glyph-name="hbar" unicode="&#x127;" horiz-adv-x="512" 
d="M317 0v335q0 18 -1.5 35.5t-7 31t-16.5 22t-31 8.5q-18 0 -30 -9t-20 -23.5t-11.5 -34t-3.5 -40.5v-325h-141v574h-55v86h55v63h141v-63h187v-86h-187v-119q24 32 56 46.5t74 14.5q38 0 63.5 -10.5t40.5 -30.5t21.5 -48t6.5 -64v-363h-141z" />
    <glyph glyph-name="Itilde" unicode="&#x128;" horiz-adv-x="292" 
d="M70 0v723h152v-723h-152zM322 906q-3 -22 -11 -42.5t-21 -36.5t-32 -26t-43 -10q-20 0 -38 5.5t-35.5 12.5t-36 12.5t-37.5 5.5q-18 0 -28.5 -13t-13.5 -30h-57q3 23 11 44t21.5 37t33 25.5t44.5 9.5q19 0 37.5 -6t35.5 -13t33.5 -13t32.5 -6q21 0 31.5 12t15.5 32h57v0z
" />
    <glyph glyph-name="itilde" unicode="&#x129;" horiz-adv-x="251" 
d="M55 0v504h141v-504h-141zM301 711q-3 -22 -11 -42.5t-21 -36.5t-32 -26t-43 -10q-20 0 -38 5.5t-35.5 12.5t-36 12.5t-37.5 5.5q-18 0 -28.5 -13t-13.5 -30h-57q3 23 11 44t21.5 37t33 25.5t44.5 9.5q19 0 37.5 -6t35.5 -13t33.5 -13t32.5 -6q21 0 31.5 12t15.5 32h57v0z
" />
    <glyph glyph-name="Imacron" unicode="&#x12a;" horiz-adv-x="292" 
d="M70 0v723h152v-723h-152zM0 807v65h289v-65h-289z" />
    <glyph glyph-name="imacron" unicode="&#x12b;" horiz-adv-x="251" 
d="M55 0v504h141v-504h-141zM-21 622v65h289v-65h-289z" />
    <glyph glyph-name="Ibreve" unicode="&#x12c;" horiz-adv-x="292" 
d="M70 0v723h152v-723h-152zM307 922q-8 -72 -52 -107t-114 -35t-110 36t-47 106h58q8 -41 37.5 -58t67.5 -17q39 0 67 17t36 58h57v0z" />
    <glyph glyph-name="ibreve" unicode="&#x12d;" horiz-adv-x="251" 
d="M55 0v504h141v-504h-141zM287 727q-8 -72 -52 -107t-114 -35t-110 36t-47 106h58q8 -41 37.5 -58t67.5 -17q39 0 67 17t36 58h57v0z" />
    <glyph glyph-name="Iogonek" unicode="&#x12e;" horiz-adv-x="292" 
d="M238 -179q-17 -14 -40 -22.5t-49 -8.5q-33 0 -59 15t-26 53q0 23 9 43.5t23.5 38.5t32 33t35.5 27h-94v723h152v-723q-44 -32 -62.5 -55t-18.5 -50q0 -23 15.5 -33.5t35.5 -10.5q11 0 22 3t20 8z" />
    <glyph glyph-name="iogonek" unicode="&#x12f;" horiz-adv-x="251" 
d="M212 -179q-17 -14 -40 -22.5t-49 -8.5q-33 0 -59 15t-26 53q0 23 9 43.5t23.5 38.5t32 33t35.5 27h-83v504h141v-504q-44 -32 -62.5 -55t-18.5 -50q0 -23 15.5 -33.5t35.5 -10.5q11 0 22 3t20 8zM55 604v113h141v-113h-141z" />
    <glyph glyph-name="Idotaccent" unicode="&#x130;" horiz-adv-x="292" 
d="M70 0v723h152v-723h-152zM88 789v109h112v-109h-112z" />
    <glyph glyph-name="dotlessi" unicode="&#x131;" horiz-adv-x="251" 
d="M55 0v504h141v-504h-141z" />
    <glyph glyph-name="Jcircumflex" unicode="&#x134;" horiz-adv-x="514" 
d="M450 221q0 -64 -12 -108.5t-39 -73t-70 -41.5t-104 -13q-59 0 -99 14.5t-64 43t-34.5 71.5t-10.5 100v31h151v-18q0 -29 1.5 -53.5t8 -42.5t19.5 -28.5t36 -10.5q25 0 38.5 12.5t19.5 32t6.5 43t0.5 46.5v497h152v-502v0zM449 777l-76 84l-75 -84h-86l104 143h115
l103 -143h-85z" />
    <glyph glyph-name="jcircumflex" unicode="&#x135;" horiz-adv-x="251" 
d="M196 -47q0 -39 -6 -67t-21.5 -45.5t-42 -26t-66.5 -8.5q-18 0 -34.5 -0.5t-31.5 1.5v87q18 0 30 2t18.5 8t9.5 18t3 32v550h141v-551v0zM200 582l-76 84l-75 -84h-86l104 143h115l103 -143h-85z" />
    <glyph glyph-name="Kcommaaccent" unicode="&#x136;" horiz-adv-x="571" 
d="M401 0l-176 394l166 329h171l-187 -321l199 -402h-173zM70 0v723h151v-723h-151zM311 -215h-91l30 161h117z" />
    <glyph glyph-name="kcommaaccent" unicode="&#x137;" horiz-adv-x="474" 
d="M324 0l-126 285l116 219h151l-128 -217l142 -287h-155zM55 0v723h141v-723h-141zM274 -215h-91l30 161h117z" />
    <glyph glyph-name="kgreenlandic" unicode="&#x138;" horiz-adv-x="474" 
d="M324 0l-126 285l116 219h151l-128 -217l142 -287h-155zM55 0v504h141v-504h-141z" />
    <glyph glyph-name="Lacute" unicode="&#x139;" horiz-adv-x="462" 
d="M70 0v723h151v-615h225v-108h-376zM156 777h-82l90 143h136z" />
    <glyph glyph-name="lacute" unicode="&#x13a;" horiz-adv-x="251" 
d="M55 0v723h141v-723h-141zM137 767h-82l90 143h136z" />
    <glyph glyph-name="Lcommaaccent" unicode="&#x13b;" horiz-adv-x="462" 
d="M70 0v723h151v-615h225v-108h-376zM272 -215h-91l30 161h117z" />
    <glyph glyph-name="lcommaaccent" unicode="&#x13c;" horiz-adv-x="251" 
d="M55 0v723h141v-723h-141zM131 -215h-91l30 161h117z" />
    <glyph glyph-name="Lcaron" unicode="&#x13d;" horiz-adv-x="462" 
d="M70 0v723h151v-615h225v-108h-376zM380 544h-91l23 179h126z" />
    <glyph glyph-name="lcaron" unicode="&#x13e;" horiz-adv-x="251" 
d="M55 0v723h141v-723h-141zM335 544h-91l23 179h126z" />
    <glyph glyph-name="Ldot" unicode="&#x13f;" horiz-adv-x="462" 
d="M70 0v723h151v-615h225v-108h-376zM303 350v109h112v-109h-112z" />
    <glyph glyph-name="ldot" unicode="&#x140;" horiz-adv-x="251" 
d="M55 0v723h141v-723h-141zM250 323v109h112v-109h-112z" />
    <glyph glyph-name="Lslash" unicode="&#x141;" horiz-adv-x="462" 
d="M70 0v298l-64 -39v97l64 39v328h151v-245l111 66v-97l-111 -68v-271h225v-108h-376z" />
    <glyph glyph-name="lslash" unicode="&#x142;" horiz-adv-x="250" 
d="M196 380v-380h-141v302l-71 -45v78l71 44v344h141v-266l70 43v-77z" />
    <glyph glyph-name="Nacute" unicode="&#x143;" horiz-adv-x="652" 
d="M359 0l-160 598v-598h-129v723h223l160 -599v599h129v-723h-223zM338 777h-82l90 143h136z" />
    <glyph glyph-name="nacute" unicode="&#x144;" horiz-adv-x="512" 
d="M317 0v336q0 20 -1.5 37.5t-7 30.5t-16.5 20.5t-31 7.5q-19 0 -31.5 -9.5t-20 -25.5t-10.5 -35.5t-3 -38.5v-323h-141v423q0 16 -0.5 40.5t-2.5 40.5h142l1 -51q23 33 55 48t74 15q74 0 104 -37.5t30 -115.5v-363h-141zM268 582h-82l90 143h136z" />
    <glyph glyph-name="Ncommaaccent" unicode="&#x145;" horiz-adv-x="652" 
d="M359 0l-160 598v-598h-129v723h223l160 -599v599h129v-723h-223zM332 -215h-91l30 161h117z" />
    <glyph glyph-name="ncommaaccent" unicode="&#x146;" horiz-adv-x="512" 
d="M317 0v336q0 20 -1.5 37.5t-7 30.5t-16.5 20.5t-31 7.5q-19 0 -31.5 -9.5t-20 -25.5t-10.5 -35.5t-3 -38.5v-323h-141v423q0 16 -0.5 40.5t-2.5 40.5h142l1 -51q23 33 55 48t74 15q74 0 104 -37.5t30 -115.5v-363h-141zM262 -215h-91l30 161h117z" />
    <glyph glyph-name="Ncaron" unicode="&#x147;" horiz-adv-x="652" 
d="M359 0l-160 598v-598h-129v723h223l160 -599v599h129v-723h-223zM489 920l-103 -143h-115l-104 143h86l75 -84l76 84h85z" />
    <glyph glyph-name="ncaron" unicode="&#x148;" horiz-adv-x="512" 
d="M317 0v336q0 20 -1.5 37.5t-7 30.5t-16.5 20.5t-31 7.5q-19 0 -31.5 -9.5t-20 -25.5t-10.5 -35.5t-3 -38.5v-323h-141v423q0 16 -0.5 40.5t-2.5 40.5h142l1 -51q23 33 55 48t74 15q74 0 104 -37.5t30 -115.5v-363h-141zM419 725l-103 -143h-115l-104 143h86l75 -84l76 84
h85z" />
    <glyph glyph-name="Eng" unicode="&#x14a;" horiz-adv-x="636" 
d="M566 -34q0 -88 -37.5 -124.5t-112.5 -36.5q-17 0 -30.5 0.5t-30.5 2.5v94q8 -1 13 -1h11q27 0 42.5 13.5t15.5 44.5v37l-238 567v-563h-129v723h189l178 -452v452h129v-757z" />
    <glyph glyph-name="eng" unicode="&#x14b;" horiz-adv-x="513" 
d="M458 -47q0 -39 -6 -67t-21.5 -45.5t-42 -26t-66.5 -8.5h-34.5t-31.5 1v87q36 0 48.5 11.5t12.5 48.5v382q0 20 -1.5 37.5t-7 30.5t-16.5 20.5t-31 7.5q-19 0 -31.5 -9.5t-20 -25.5t-10.5 -35.5t-3 -38.5v-323h-141v423q0 16 -0.5 40.5t-2.5 40.5h142l1 -51q23 33 55 48
t74 15q74 0 104 -37.5t30 -115.5v-410v0z" />
    <glyph glyph-name="Omacron" unicode="&#x14c;" horiz-adv-x="594" 
d="M551 352q0 -87 -7 -155t-33.5 -115.5t-78 -72t-139.5 -24.5q-85 0 -135 24.5t-75.5 71.5t-32.5 115.5t-7 155.5q0 90 6.5 161.5t32 121.5t76 76.5t138.5 26.5q90 0 141 -26t76.5 -75.5t31.5 -121.5t6 -163zM396 367q0 62 -1.5 111t-10.5 83.5t-29.5 52.5t-58.5 18
t-58.5 -19t-29.5 -54.5t-10.5 -85t-1.5 -110.5q0 -67 1.5 -117.5t11 -85t29.5 -52t58 -17.5q37 0 57.5 18t30 53t11 86.5t1.5 118.5zM153 807v65h289v-65h-289z" />
    <glyph glyph-name="omacron" unicode="&#x14d;" horiz-adv-x="483" 
d="M449 262q0 -60 -6 -110.5t-27.5 -86.5t-62.5 -56.5t-111 -20.5q-68 0 -109 18.5t-63 53t-29 82.5t-7 108q0 57 7.5 105.5t30 84t63.5 56t109 20.5q67 0 107.5 -17.5t62.5 -50.5t28.5 -80t6.5 -106zM306 307q0 24 -1.5 46.5t-8 39.5t-19 27t-34.5 10q-25 0 -38.5 -13.5
t-20 -34.5t-7.5 -46.5t-1 -50.5v-92q0 -19 1.5 -40t7.5 -38.5t19.5 -29t37.5 -11.5t37 12.5t19 31.5t7 42t1 45v102zM97 622v65h289v-65h-289z" />
    <glyph glyph-name="Obreve" unicode="&#x14e;" horiz-adv-x="594" 
d="M551 352q0 -87 -7 -155t-33.5 -115.5t-78 -72t-139.5 -24.5q-85 0 -135 24.5t-75.5 71.5t-32.5 115.5t-7 155.5q0 90 6.5 161.5t32 121.5t76 76.5t138.5 26.5q90 0 141 -26t76.5 -75.5t31.5 -121.5t6 -163zM396 367q0 62 -1.5 111t-10.5 83.5t-29.5 52.5t-58.5 18
t-58.5 -19t-29.5 -54.5t-10.5 -85t-1.5 -110.5q0 -67 1.5 -117.5t11 -85t29.5 -52t58 -17.5q37 0 57.5 18t30 53t11 86.5t1.5 118.5zM460 922q-8 -72 -52 -107t-114 -35t-110 36t-47 106h58q8 -41 37.5 -58t67.5 -17q39 0 67 17t36 58h57v0z" />
    <glyph glyph-name="obreve" unicode="&#x14f;" horiz-adv-x="483" 
d="M449 262q0 -60 -6 -110.5t-27.5 -86.5t-62.5 -56.5t-111 -20.5q-68 0 -109 18.5t-63 53t-29 82.5t-7 108q0 57 7.5 105.5t30 84t63.5 56t109 20.5q67 0 107.5 -17.5t62.5 -50.5t28.5 -80t6.5 -106zM306 307q0 24 -1.5 46.5t-8 39.5t-19 27t-34.5 10q-25 0 -38.5 -13.5
t-20 -34.5t-7.5 -46.5t-1 -50.5v-92q0 -19 1.5 -40t7.5 -38.5t19.5 -29t37.5 -11.5t37 12.5t19 31.5t7 42t1 45v102zM404 727q-8 -72 -52 -107t-114 -35t-110 36t-47 106h58q8 -41 37.5 -58t67.5 -17q39 0 67 17t36 58h57v0z" />
    <glyph glyph-name="Ohungarumlaut" unicode="&#x150;" horiz-adv-x="594" 
d="M551 352q0 -87 -7 -155t-33.5 -115.5t-78 -72t-139.5 -24.5q-85 0 -135 24.5t-75.5 71.5t-32.5 115.5t-7 155.5q0 90 6.5 161.5t32 121.5t76 76.5t138.5 26.5q90 0 141 -26t76.5 -75.5t31.5 -121.5t6 -163zM396 367q0 62 -1.5 111t-10.5 83.5t-29.5 52.5t-58.5 18
t-58.5 -19t-29.5 -54.5t-10.5 -85t-1.5 -110.5q0 -67 1.5 -117.5t11 -85t29.5 -52t58 -17.5q37 0 57.5 18t30 53t11 86.5t1.5 118.5zM405 777h-82l90 143h137zM220 777h-82l90 143h136z" />
    <glyph glyph-name="ohungarumlaut" unicode="&#x151;" horiz-adv-x="483" 
d="M449 262q0 -60 -6 -110.5t-27.5 -86.5t-62.5 -56.5t-111 -20.5q-68 0 -109 18.5t-63 53t-29 82.5t-7 108q0 57 7.5 105.5t30 84t63.5 56t109 20.5q67 0 107.5 -17.5t62.5 -50.5t28.5 -80t6.5 -106zM306 307q0 24 -1.5 46.5t-8 39.5t-19 27t-34.5 10q-25 0 -38.5 -13.5
t-20 -34.5t-7.5 -46.5t-1 -50.5v-92q0 -19 1.5 -40t7.5 -38.5t19.5 -29t37.5 -11.5t37 12.5t19 31.5t7 42t1 45v102zM349 582h-82l90 143h137zM164 582h-82l90 143h136z" />
    <glyph glyph-name="Racute" unicode="&#x154;" horiz-adv-x="592" 
d="M388 0q-5 27 -6.5 53t-1.5 55q0 46 -3 90q-2 31 -7 51t-16 32t-30.5 17t-50.5 5h-52v-303h-151v723h246q48 0 89 -6.5t71 -26.5t47 -57.5t17 -98.5q0 -35 -6 -64t-20 -51.5t-38.5 -38.5t-60.5 -23q40 -3 63 -16t35 -38t15 -63t4 -92q1 -40 3.5 -74.5t10.5 -73.5h-158z
M387 516q0 57 -27 79t-78 22h-62v-210h54q62 0 87.5 24t25.5 85zM313 777h-82l90 143h136z" />
    <glyph glyph-name="racute" unicode="&#x155;" horiz-adv-x="330" 
d="M323 394q-5 1 -12 1.5t-12 0.5q-31 0 -51 -9t-31.5 -25t-16 -38.5t-4.5 -49.5v-274h-141v409q0 2 -0.5 16.5t-1 31t-1 31t-0.5 16.5h135l2 -65q20 44 53 59.5t71 15.5q5 0 10 -1v-119v0zM197 582h-82l90 143h136z" />
    <glyph glyph-name="Rcommaaccent" unicode="&#x156;" horiz-adv-x="592" 
d="M388 0q-5 27 -6.5 53t-1.5 55q0 46 -3 90q-2 31 -7 51t-16 32t-30.5 17t-50.5 5h-52v-303h-151v723h246q48 0 89 -6.5t71 -26.5t47 -57.5t17 -98.5q0 -35 -6 -64t-20 -51.5t-38.5 -38.5t-60.5 -23q40 -3 63 -16t35 -38t15 -63t4 -92q1 -40 3.5 -74.5t10.5 -73.5h-158z
M387 516q0 57 -27 79t-78 22h-62v-210h54q62 0 87.5 24t25.5 85zM307 -215h-91l30 161h117z" />
    <glyph glyph-name="rcommaaccent" unicode="&#x157;" horiz-adv-x="330" 
d="M323 394q-5 1 -12 1.5t-12 0.5q-31 0 -51 -9t-31.5 -25t-16 -38.5t-4.5 -49.5v-274h-141v409q0 2 -0.5 16.5t-1 31t-1 31t-0.5 16.5h135l2 -65q20 44 53 59.5t71 15.5q5 0 10 -1v-119v0zM131 -215h-91l30 161h117z" />
    <glyph glyph-name="Rcaron" unicode="&#x158;" horiz-adv-x="592" 
d="M388 0q-5 27 -6.5 53t-1.5 55q0 46 -3 90q-2 31 -7 51t-16 32t-30.5 17t-50.5 5h-52v-303h-151v723h246q48 0 89 -6.5t71 -26.5t47 -57.5t17 -98.5q0 -35 -6 -64t-20 -51.5t-38.5 -38.5t-60.5 -23q40 -3 63 -16t35 -38t15 -63t4 -92q1 -40 3.5 -74.5t10.5 -73.5h-158z
M387 516q0 57 -27 79t-78 22h-62v-210h54q62 0 87.5 24t25.5 85zM464 920l-103 -143h-115l-104 143h86l75 -84l76 84h85z" />
    <glyph glyph-name="rcaron" unicode="&#x159;" horiz-adv-x="330" 
d="M323 394q-5 1 -12 1.5t-12 0.5q-31 0 -51 -9t-31.5 -25t-16 -38.5t-4.5 -49.5v-274h-141v409q0 2 -0.5 16.5t-1 31t-1 31t-0.5 16.5h135l2 -65q20 44 53 59.5t71 15.5q5 0 10 -1v-119v0zM348 725l-103 -143h-115l-104 143h86l75 -84l76 84h85z" />
    <glyph glyph-name="Sacute" unicode="&#x15a;" horiz-adv-x="531" 
d="M502 188q0 -57 -18 -96t-50 -63t-75.5 -34t-93.5 -10q-62 0 -106.5 11.5t-73 38.5t-41.5 70.5t-13 107.5v10h152v-12q0 -25 2.5 -46.5t11.5 -38t25.5 -26t43.5 -9.5q40 0 61.5 22.5t21.5 60.5q0 35 -20.5 59.5t-63.5 50.5l-90 53q-31 18 -55.5 37.5t-42 43t-27 53
t-9.5 68.5q0 55 18 93.5t49.5 61.5t75 33.5t93.5 10.5q52 0 92.5 -10t68 -32.5t41.5 -59t14 -90.5v-25h-150v18q0 19 -2.5 35.5t-10 29.5t-22 20.5t-38.5 7.5q-37 0 -57 -21t-20 -56q0 -34 23 -59t57 -45l75 -44q42 -25 71.5 -46.5t48 -46.5t26.5 -55t8 -71zM282 777h-82
l90 143h136z" />
    <glyph glyph-name="sacute" unicode="&#x15b;" horiz-adv-x="440" 
d="M415 145q0 -44 -16.5 -73.5t-44.5 -47.5t-64.5 -26t-76.5 -8q-37 0 -71 7.5t-59.5 24.5t-40.5 45t-15 70v23h137v-15q0 -30 11.5 -51.5t45.5 -21.5q26 0 40.5 14.5t14.5 40.5q0 25 -13 40t-49 32l-75 36q-27 13 -47 25.5t-33.5 27.5t-20 34.5t-6.5 48.5q0 41 16.5 68.5
t43.5 44.5t62 24.5t71 7.5q91 0 137 -33t46 -105v-17h-136v16q0 27 -11.5 45.5t-41.5 18.5q-23 0 -36.5 -13.5t-13.5 -36.5q0 -24 16.5 -38.5t46.5 -28.5l69 -33q31 -15 52.5 -28.5t35 -30t20 -37.5t6.5 -50zM235 582h-82l90 143h136z" />
    <glyph glyph-name="Scircumflex" unicode="&#x15c;" horiz-adv-x="531" 
d="M502 188q0 -57 -18 -96t-50 -63t-75.5 -34t-93.5 -10q-62 0 -106.5 11.5t-73 38.5t-41.5 70.5t-13 107.5v10h152v-12q0 -25 2.5 -46.5t11.5 -38t25.5 -26t43.5 -9.5q40 0 61.5 22.5t21.5 60.5q0 35 -20.5 59.5t-63.5 50.5l-90 53q-31 18 -55.5 37.5t-42 43t-27 53
t-9.5 68.5q0 55 18 93.5t49.5 61.5t75 33.5t93.5 10.5q52 0 92.5 -10t68 -32.5t41.5 -59t14 -90.5v-25h-150v18q0 19 -2.5 35.5t-10 29.5t-22 20.5t-38.5 7.5q-37 0 -57 -21t-20 -56q0 -34 23 -59t57 -45l75 -44q42 -25 71.5 -46.5t48 -46.5t26.5 -55t8 -71zM347 777l-76 84
l-75 -84h-86l104 143h115l103 -143h-85z" />
    <glyph glyph-name="scircumflex" unicode="&#x15d;" horiz-adv-x="440" 
d="M415 145q0 -44 -16.5 -73.5t-44.5 -47.5t-64.5 -26t-76.5 -8q-37 0 -71 7.5t-59.5 24.5t-40.5 45t-15 70v23h137v-15q0 -30 11.5 -51.5t45.5 -21.5q26 0 40.5 14.5t14.5 40.5q0 25 -13 40t-49 32l-75 36q-27 13 -47 25.5t-33.5 27.5t-20 34.5t-6.5 48.5q0 41 16.5 68.5
t43.5 44.5t62 24.5t71 7.5q91 0 137 -33t46 -105v-17h-136v16q0 27 -11.5 45.5t-41.5 18.5q-23 0 -36.5 -13.5t-13.5 -36.5q0 -24 16.5 -38.5t46.5 -28.5l69 -33q31 -15 52.5 -28.5t35 -30t20 -37.5t6.5 -50zM300 582l-76 84l-75 -84h-86l104 143h115l103 -143h-85z" />
    <glyph glyph-name="Scedilla" unicode="&#x15e;" horiz-adv-x="531" 
d="M384 -134q0 -23 -10.5 -40.5t-27.5 -29t-38 -17.5t-42 -6q-28 0 -55 7t-52 19l18 40q17 -7 34.5 -11.5t35.5 -4.5q20 0 38 9t18 32q0 20 -14.5 27.5t-34.5 7.5q-17 0 -36 -7l-22 19l55 74q-59 1 -100.5 13.5t-68 39.5t-39 70t-12.5 105v10h152v-12q0 -25 2.5 -46.5
t11.5 -38t25.5 -26t43.5 -9.5q40 0 61.5 22.5t21.5 60.5q0 35 -20.5 59.5t-63.5 50.5l-90 53q-31 18 -55.5 37.5t-42 43t-27 53t-9.5 68.5q0 55 18 93.5t49.5 61.5t75 33.5t93.5 10.5q52 0 92.5 -10t68 -32.5t41.5 -59t14 -90.5v-25h-150v18q0 19 -2.5 35.5t-10 29.5
t-22 20.5t-38.5 7.5q-37 0 -57 -21t-20 -56q0 -34 23 -59t57 -45l75 -44q42 -25 71.5 -46.5t48 -46.5t26.5 -55t8 -71q0 -52 -15 -88.5t-42 -60.5t-64 -36.5t-80 -15.5l-33 -48q6 2 13 3t16 1q35 0 61 -19.5t26 -57.5z" />
    <glyph glyph-name="scedilla" unicode="&#x15f;" horiz-adv-x="440" 
d="M337 -134q0 -23 -10.5 -40.5t-27.5 -29t-38 -17.5t-42 -6q-28 0 -55 7t-52 19l18 40q17 -7 34.5 -11.5t35.5 -4.5q20 0 38 9t18 32q0 20 -14.5 27.5t-34.5 7.5q-17 0 -36 -7l-22 19l58 79q-36 1 -68.5 8.5t-57.5 25t-39.5 45t-14.5 68.5v23h137v-15q0 -30 11.5 -51.5
t45.5 -21.5q26 0 40.5 14.5t14.5 40.5q0 25 -13 40t-49 32l-75 36q-27 13 -47 25.5t-33.5 27.5t-20 34.5t-6.5 48.5q0 41 16.5 68.5t43.5 44.5t62 24.5t71 7.5q91 0 137 -33t46 -105v-17h-136v16q0 27 -11.5 45.5t-41.5 18.5q-23 0 -36.5 -13.5t-13.5 -36.5
q0 -24 16.5 -38.5t46.5 -28.5l69 -33q31 -15 52.5 -28.5t35 -30t20 -37.5t6.5 -50q0 -37 -12 -64t-33 -45.5t-49.5 -28.5t-61.5 -14l-38 -54q6 2 13 3t16 1q35 0 61 -19.5t26 -57.5z" />
    <glyph glyph-name="uni0162" unicode="&#x162;" horiz-adv-x="489" 
d="M321 615v-615h-152v615h-164v108h479v-108h-163zM253 -215h-91l30 161h117z" />
    <glyph glyph-name="uni0163" unicode="&#x163;" horiz-adv-x="306" 
d="M295 -1q-12 -2 -34.5 -4t-44.5 -2q-40 0 -67 6.5t-44 22.5t-24.5 42.5t-7.5 65.5v288h-65v86h65v86l140 54v-140h78v-86h-78v-272q0 -36 10 -50t41 -14q16 0 31 3v-86v0zM167 -215h-91l30 161h117z" />
    <glyph glyph-name="Tcaron" unicode="&#x164;" horiz-adv-x="489" 
d="M321 615v-615h-152v615h-164v108h479v-108h-163zM408 920l-103 -143h-115l-104 143h86l75 -84l76 84h85z" />
    <glyph glyph-name="tcaron" unicode="&#x165;" horiz-adv-x="306" 
d="M295 -1q-12 -2 -34.5 -4t-44.5 -2q-40 0 -67 6.5t-44 22.5t-24.5 42.5t-7.5 65.5v288h-65v86h65v86l140 54v-140h78v-86h-78v-272q0 -36 10 -50t41 -14q16 0 31 3v-86v0zM350 544h-91l23 179h126z" />
    <glyph glyph-name="Tbar" unicode="&#x166;" horiz-adv-x="489" 
d="M30 319v104h139v192h-164v108h479v-108h-163v-192h138v-104h-138v-319h-152v319h-139z" />
    <glyph glyph-name="tbar" unicode="&#x167;" horiz-adv-x="306" 
d="M295 -1q-18 -4 -37.5 -5t-41.5 -1q-40 0 -67 6.5t-44 22.5t-24.5 42.5t-7.5 65.5v138h-65v86h65v64h-65v86h65v86l140 54v-140h78v-86h-78v-64h78v-86h-78v-122q0 -33 9 -48.5t42 -15.5q8 0 15.5 1t15.5 2v-86v0z" />
    <glyph glyph-name="Utilde" unicode="&#x168;" horiz-adv-x="627" 
d="M562 238q0 -131 -58.5 -192t-191.5 -61q-69 0 -116.5 16.5t-76.5 49.5t-41.5 81.5t-12.5 112.5v478h150v-469q0 -30 2.5 -59t12 -52t29.5 -37.5t55 -14.5t55 14t30 36.5t12.5 51t2.5 57.5v473h148v-485v0zM492 906q-3 -22 -11 -42.5t-21 -36.5t-32 -26t-43 -10
q-20 0 -38 5.5t-35.5 12.5t-36 12.5t-37.5 5.5q-18 0 -28.5 -13t-13.5 -30h-57q3 23 11 44t21.5 37t33 25.5t44.5 9.5q19 0 37.5 -6t35.5 -13t33.5 -13t32.5 -6q21 0 31.5 12t15.5 32h57v0z" />
    <glyph glyph-name="utilde" unicode="&#x169;" horiz-adv-x="511" 
d="M318 0l-1 54q-23 -34 -54 -49t-73 -15q-72 0 -104 34.5t-32 108.5v371h141v-335q0 -18 1.5 -35.5t7 -31t16.5 -21.5t31 -8q19 0 31 9t19.5 24t10.5 33.5t3 37.5v327h141v-422q0 -18 0.5 -41.5t2.5 -40.5h-141zM434 711q-3 -22 -11 -42.5t-21 -36.5t-32 -26t-43 -10
q-20 0 -38 5.5t-35.5 12.5t-36 12.5t-37.5 5.5q-18 0 -28.5 -13t-13.5 -30h-57q3 23 11 44t21.5 37t33 25.5t44.5 9.5q19 0 37.5 -6t35.5 -13t33.5 -13t32.5 -6q21 0 31.5 12t15.5 32h57v0z" />
    <glyph glyph-name="Umacron" unicode="&#x16a;" horiz-adv-x="627" 
d="M562 238q0 -131 -58.5 -192t-191.5 -61q-69 0 -116.5 16.5t-76.5 49.5t-41.5 81.5t-12.5 112.5v478h150v-469q0 -30 2.5 -59t12 -52t29.5 -37.5t55 -14.5t55 14t30 36.5t12.5 51t2.5 57.5v473h148v-485v0zM170 807v65h289v-65h-289z" />
    <glyph glyph-name="umacron" unicode="&#x16b;" horiz-adv-x="511" 
d="M318 0l-1 54q-23 -34 -54 -49t-73 -15q-72 0 -104 34.5t-32 108.5v371h141v-335q0 -18 1.5 -35.5t7 -31t16.5 -21.5t31 -8q19 0 31 9t19.5 24t10.5 33.5t3 37.5v327h141v-422q0 -18 0.5 -41.5t2.5 -40.5h-141zM112 622v65h289v-65h-289z" />
    <glyph glyph-name="Ubreve" unicode="&#x16c;" horiz-adv-x="627" 
d="M562 238q0 -131 -58.5 -192t-191.5 -61q-69 0 -116.5 16.5t-76.5 49.5t-41.5 81.5t-12.5 112.5v478h150v-469q0 -30 2.5 -59t12 -52t29.5 -37.5t55 -14.5t55 14t30 36.5t12.5 51t2.5 57.5v473h148v-485v0zM477 922q-8 -72 -52 -107t-114 -35t-110 36t-47 106h58
q8 -41 37.5 -58t67.5 -17q39 0 67 17t36 58h57v0z" />
    <glyph glyph-name="ubreve" unicode="&#x16d;" horiz-adv-x="511" 
d="M318 0l-1 54q-23 -34 -54 -49t-73 -15q-72 0 -104 34.5t-32 108.5v371h141v-335q0 -18 1.5 -35.5t7 -31t16.5 -21.5t31 -8q19 0 31 9t19.5 24t10.5 33.5t3 37.5v327h141v-422q0 -18 0.5 -41.5t2.5 -40.5h-141zM419 727q-8 -72 -52 -107t-114 -35t-110 36t-47 106h58
q8 -41 37.5 -58t67.5 -17q39 0 67 17t36 58h57v0z" />
    <glyph glyph-name="Uring" unicode="&#x16e;" horiz-adv-x="627" 
d="M562 238q0 -131 -58.5 -192t-191.5 -61q-69 0 -116.5 16.5t-76.5 49.5t-41.5 81.5t-12.5 112.5v478h150v-469q0 -30 2.5 -59t12 -52t29.5 -37.5t55 -14.5t55 14t30 36.5t12.5 51t2.5 57.5v473h148v-485v0zM418 853q0 -43 -29.5 -72.5t-73.5 -29.5q-21 0 -40 8t-33 21.5
t-22 32.5t-8 40t8 40t22 32.5t33 21.5t40 8q44 0 73.5 -29.5t29.5 -72.5zM372 853q0 26 -16 42.5t-41 16.5q-24 0 -40 -16.5t-16 -42.5t16 -43t40 -17q25 0 41 17t16 43z" />
    <glyph glyph-name="uring" unicode="&#x16f;" horiz-adv-x="511" 
d="M318 0l-1 54q-23 -34 -54 -49t-73 -15q-72 0 -104 34.5t-32 108.5v371h141v-335q0 -18 1.5 -35.5t7 -31t16.5 -21.5t31 -8q19 0 31 9t19.5 24t10.5 33.5t3 37.5v327h141v-422q0 -18 0.5 -41.5t2.5 -40.5h-141zM360 668q0 -43 -29.5 -72.5t-73.5 -29.5q-21 0 -40 8
t-33 21.5t-22 32.5t-8 40t8 40t22 32.5t33 21.5t40 8q44 0 73.5 -29.5t29.5 -72.5zM314 668q0 26 -16 42.5t-41 16.5q-24 0 -40 -16.5t-16 -42.5t16 -43t40 -17q25 0 41 17t16 43z" />
    <glyph glyph-name="Uhungarumlaut" unicode="&#x170;" horiz-adv-x="627" 
d="M562 238q0 -131 -58.5 -192t-191.5 -61q-69 0 -116.5 16.5t-76.5 49.5t-41.5 81.5t-12.5 112.5v478h150v-469q0 -30 2.5 -59t12 -52t29.5 -37.5t55 -14.5t55 14t30 36.5t12.5 51t2.5 57.5v473h148v-485v0zM422 777h-82l90 143h137zM237 777h-82l90 143h136z" />
    <glyph glyph-name="uhungarumlaut" unicode="&#x171;" horiz-adv-x="511" 
d="M318 0l-1 54q-23 -34 -54 -49t-73 -15q-72 0 -104 34.5t-32 108.5v371h141v-335q0 -18 1.5 -35.5t7 -31t16.5 -21.5t31 -8q19 0 31 9t19.5 24t10.5 33.5t3 37.5v327h141v-422q0 -18 0.5 -41.5t2.5 -40.5h-141zM364 582h-82l90 143h137zM179 582h-82l90 143h136z" />
    <glyph glyph-name="Uogonek" unicode="&#x172;" horiz-adv-x="627" 
d="M402 -179q-17 -14 -40 -22.5t-49 -8.5q-33 0 -59 15t-26 53q0 40 24.5 72t54.5 55q-68 1 -114 18t-74.5 49.5t-41 81t-12.5 111.5v478h150v-469q0 -30 2.5 -59t12 -52t29.5 -37.5t55 -14.5t55 14t30 36.5t12.5 51t2.5 57.5v473h148v-485q0 -117 -45 -177.5t-148 -72.5
q-35 -26 -49.5 -47t-14.5 -46q0 -23 15.5 -33.5t35.5 -10.5q11 0 22 3t20 8z" />
    <glyph glyph-name="uogonek" unicode="&#x173;" horiz-adv-x="511" 
d="M475 -179q-17 -14 -40 -22.5t-49 -8.5q-33 0 -59 15t-26 53q0 23 9 43.5t23.5 38.5t32 33t35.5 27h-83l-1 54q-23 -34 -54 -49t-73 -15q-72 0 -104 34.5t-32 108.5v371h141v-335q0 -18 1.5 -35.5t7 -31t16.5 -21.5t31 -8q19 0 31 9t19.5 24t10.5 33.5t3 37.5v327h141
v-422q0 -18 0.5 -41.5t2.5 -40.5q-44 -32 -62.5 -55t-18.5 -50q0 -23 15.5 -33.5t35.5 -10.5q11 0 22 3t20 8z" />
    <glyph glyph-name="Wcircumflex" unicode="&#x174;" horiz-adv-x="882" 
d="M717 0h-176l-96 579l-115 -579h-175l-142 723h158l83 -572l109 572h176l99 -572l91 572h140zM523 777l-76 84l-75 -84h-86l104 143h115l103 -143h-85z" />
    <glyph glyph-name="wcircumflex" unicode="&#x175;" horiz-adv-x="726" 
d="M598 0h-155l-76 376l-88 -376h-155l-115 504h148l56 -376l84 376h155l75 -376l64 376h126zM443 582l-76 84l-75 -84h-86l104 143h115l103 -143h-85z" />
    <glyph glyph-name="Ycircumflex" unicode="&#x176;" horiz-adv-x="542" 
d="M347 257v-257h-152v257l-198 466h164l117 -331l112 331h155zM351 777l-76 84l-75 -84h-86l104 143h115l103 -143h-85z" />
    <glyph glyph-name="ycircumflex" unicode="&#x177;" horiz-adv-x="457" 
d="M243 -193h-137l57 185l-158 512h153l78 -341l76 341h140zM312 582l-76 84l-75 -84h-86l104 143h115l103 -143h-85z" />
    <glyph glyph-name="Zacute" unicode="&#x179;" horiz-adv-x="498" 
d="M21 0v123l297 493h-282v107h436v-121l-295 -495h300v-107h-456zM268 777h-82l90 143h136z" />
    <glyph glyph-name="zacute" unicode="&#x17a;" horiz-adv-x="395" 
d="M23 0v92l196 327h-185v85h337v-87l-197 -330h198v-87h-349zM214 582h-82l90 143h136z" />
    <glyph glyph-name="Zdotaccent" unicode="&#x17b;" horiz-adv-x="498" 
d="M21 0v123l297 493h-282v107h436v-121l-295 -495h300v-107h-456zM200 789v109h112v-109h-112z" />
    <glyph glyph-name="zdotaccent" unicode="&#x17c;" horiz-adv-x="395" 
d="M23 0v92l196 327h-185v85h337v-87l-197 -330h198v-87h-349zM147 604v109h112v-109h-112z" />
    <glyph glyph-name="Scommaaccent" unicode="&#x218;" horiz-adv-x="531" 
d="M502 188q0 -57 -18 -96t-50 -63t-75.5 -34t-93.5 -10q-62 0 -106.5 11.5t-73 38.5t-41.5 70.5t-13 107.5v10h152v-12q0 -25 2.5 -46.5t11.5 -38t25.5 -26t43.5 -9.5q40 0 61.5 22.5t21.5 60.5q0 35 -20.5 59.5t-63.5 50.5l-90 53q-31 18 -55.5 37.5t-42 43t-27 53
t-9.5 68.5q0 55 18 93.5t49.5 61.5t75 33.5t93.5 10.5q52 0 92.5 -10t68 -32.5t41.5 -59t14 -90.5v-25h-150v18q0 19 -2.5 35.5t-10 29.5t-22 20.5t-38.5 7.5q-37 0 -57 -21t-20 -56q0 -34 23 -59t57 -45l75 -44q42 -25 71.5 -46.5t48 -46.5t26.5 -55t8 -71zM276 -215h-91
l30 161h117z" />
    <glyph glyph-name="scommaaccent" unicode="&#x219;" horiz-adv-x="440" 
d="M415 145q0 -44 -16.5 -73.5t-44.5 -47.5t-64.5 -26t-76.5 -8q-37 0 -71 7.5t-59.5 24.5t-40.5 45t-15 70v23h137v-15q0 -30 11.5 -51.5t45.5 -21.5q26 0 40.5 14.5t14.5 40.5q0 25 -13 40t-49 32l-75 36q-27 13 -47 25.5t-33.5 27.5t-20 34.5t-6.5 48.5q0 41 16.5 68.5
t43.5 44.5t62 24.5t71 7.5q91 0 137 -33t46 -105v-17h-136v16q0 27 -11.5 45.5t-41.5 18.5q-23 0 -36.5 -13.5t-13.5 -36.5q0 -24 16.5 -38.5t46.5 -28.5l69 -33q31 -15 52.5 -28.5t35 -30t20 -37.5t6.5 -50zM229 -215h-91l30 161h117z" />
    <glyph glyph-name="uni021A" unicode="&#x21a;" horiz-adv-x="489" 
d="M321 615v-615h-152v615h-164v108h479v-108h-163zM253 -215h-91l30 161h117z" />
    <glyph glyph-name="uni021B" unicode="&#x21b;" horiz-adv-x="306" 
d="M295 -1q-12 -2 -34.5 -4t-44.5 -2q-40 0 -67 6.5t-44 22.5t-24.5 42.5t-7.5 65.5v288h-65v86h65v86l140 54v-140h78v-86h-78v-272q0 -36 10 -50t41 -14q16 0 31 3v-86v0zM167 -215h-91l30 161h117z" />
    <glyph glyph-name="dotlessj" unicode="&#x237;" horiz-adv-x="251" 
d="M196 -47q0 -39 -6 -67t-21.5 -45.5t-42 -26t-66.5 -8.5q-18 0 -34.5 -0.5t-31.5 1.5v87q18 0 30 2t18.5 8t9.5 18t3 32v550h141v-551v0z" />
    <glyph glyph-name="caron" unicode="&#x2c7;" horiz-adv-x="235" 
d="M279 725l-103 -143h-115l-104 143h86l75 -84l76 84h85z" />
    <glyph glyph-name="uni02C9" unicode="&#x2c9;" horiz-adv-x="235" 
d="M-27 807v65h289v-65h-289z" />
    <glyph glyph-name="breve" unicode="&#x2d8;" horiz-adv-x="235" 
d="M279 727q-8 -72 -52 -107t-114 -35t-110 36t-47 106h58q8 -41 37.5 -58t67.5 -17q39 0 67 17t36 58h57v0z" />
    <glyph glyph-name="dotaccent" unicode="&#x2d9;" horiz-adv-x="235" 
d="M61 604v109h112v-109h-112z" />
    <glyph glyph-name="ring" unicode="&#x2da;" horiz-adv-x="235" 
d="M220 668q0 -43 -29.5 -72.5t-73.5 -29.5q-21 0 -40 8t-33 21.5t-22 32.5t-8 40t8 40t22 32.5t33 21.5t40 8q44 0 73.5 -29.5t29.5 -72.5zM174 668q0 26 -16 42.5t-41 16.5q-24 0 -40 -16.5t-16 -42.5t16 -43t40 -17q25 0 41 17t16 43z" />
    <glyph glyph-name="ogonek" unicode="&#x2db;" horiz-adv-x="235" 
d="M172 -179q-17 -14 -40 -22.5t-49 -8.5q-33 0 -59 15t-26 53q0 23 9 43.5t23.5 38.5t32 33t35.5 27h58q-44 -32 -62.5 -55t-18.5 -50q0 -23 15.5 -33.5t35.5 -10.5q11 0 22 3t20 8z" />
    <glyph glyph-name="hungarumlaut" unicode="&#x2dd;" horiz-adv-x="235" 
d="M224 582h-82l90 143h137zM39 582h-82l90 143h136z" />
    <glyph glyph-name="uni0394" unicode="&#x394;" horiz-adv-x="616" 
d="M9 0l214 723h162l223 -723h-599zM306 578l-124 -468h247z" />
    <glyph glyph-name="uni03A9" unicode="&#x3a9;" horiz-adv-x="594" 
d="M337 0v111q33 35 47 97.5t14 165.5q0 73 -4 122.5t-15.5 80t-31 43.5t-50.5 13q-32 0 -51.5 -13.5t-30.5 -44t-15 -80t-4 -121.5q0 -103 13.5 -165.5t46.5 -97.5v-111h-211v105h121q-57 31 -89 103.5t-32 204.5q0 85 13 146.5t42.5 101.5t77.5 58.5t119 18.5
q72 0 120.5 -18.5t77.5 -58t41.5 -101t12.5 -147.5q0 -66 -8.5 -116.5t-24 -88t-38 -63t-50.5 -40.5h121v-105h-212z" />
    <glyph glyph-name="uni03BC" unicode="&#x3bc;" horiz-adv-x="509" 
d="M317 0l-1 52q-14 -35 -31 -47.5t-40 -12.5q-32 0 -51 26v-210h-140v696h140v-336q0 -17 1.5 -33.5t7 -29.5t16.5 -21t31 -8q19 0 31.5 9t20 24t10.5 33.5t3 37.5v324h139v-422q0 -23 0.5 -41.5t2.5 -40.5h-140z" />
    <glyph glyph-name="pi" unicode="&#x3c0;" horiz-adv-x="611" 
d="M570 12q-21 -10 -46 -16t-48 -6q-60 0 -91.5 36t-31.5 102v270h-107v-398h-136v398h-72v106h531v-106h-80v-254q0 -22 9.5 -34.5t29.5 -12.5q19 0 42 11v-96v0z" />
    <glyph glyph-name="Wgrave" unicode="&#x1e80;" horiz-adv-x="882" 
d="M717 0h-176l-96 579l-115 -579h-175l-142 723h158l83 -572l109 572h176l99 -572l91 572h140zM441 777l-143 143h135l91 -143h-83z" />
    <glyph glyph-name="wgrave" unicode="&#x1e81;" horiz-adv-x="726" 
d="M598 0h-155l-76 376l-88 -376h-155l-115 504h148l56 -376l84 376h155l75 -376l64 376h126zM361 582l-143 143h135l91 -143h-83z" />
    <glyph glyph-name="Wacute" unicode="&#x1e82;" horiz-adv-x="882" 
d="M717 0h-176l-96 579l-115 -579h-175l-142 723h158l83 -572l109 572h176l99 -572l91 572h140zM462 777h-82l90 143h136z" />
    <glyph glyph-name="wacute" unicode="&#x1e83;" horiz-adv-x="726" 
d="M598 0h-155l-76 376l-88 -376h-155l-115 504h148l56 -376l84 376h155l75 -376l64 376h126zM383 582h-82l90 143h136z" />
    <glyph glyph-name="Wdieresis" unicode="&#x1e84;" horiz-adv-x="882" 
d="M717 0h-176l-96 579l-115 -579h-175l-142 723h158l83 -572l109 572h176l99 -572l91 572h140zM477 789v109h112v-109h-112zM302 789v109h112v-109h-112z" />
    <glyph glyph-name="wdieresis" unicode="&#x1e85;" horiz-adv-x="726" 
d="M598 0h-155l-76 376l-88 -376h-155l-115 504h148l56 -376l84 376h155l75 -376l64 376h126zM399 604v109h112v-109h-112zM224 604v109h112v-109h-112z" />
    <glyph glyph-name="Ygrave" unicode="&#x1ef2;" horiz-adv-x="542" 
d="M347 257v-257h-152v257l-198 466h164l117 -331l112 331h155zM266 777l-143 143h135l91 -143h-83z" />
    <glyph glyph-name="ygrave" unicode="&#x1ef3;" horiz-adv-x="457" 
d="M243 -193h-137l57 185l-158 512h153l78 -341l76 341h140zM220 582l-143 143h135l91 -143h-83z" />
    <glyph glyph-name="fraction" unicode="&#x2044;" horiz-adv-x="168" 
d="M-29 -25h-67l291 762h69z" />
    <glyph glyph-name="zero.superior" unicode="&#x2070;" horiz-adv-x="307" 
d="M154 528q23 0 33 16.5t10 54.5v158q0 38 -10 54.5t-33 16.5t-33 -16.5t-10 -54.5v-158q0 -38 10 -54.5t33 -16.5zM284 603q0 -32 -6.5 -57.5t-21.5 -44t-40 -28.5t-62 -10t-62 10t-40 28.5t-21.5 44t-6.5 57.5v150q0 31 6.5 57t21.5 44.5t40 28.5t62 10t62 -10t40 -28.5
t21.5 -44.5t6.5 -57v-150z" />
    <glyph glyph-name="four.superior" unicode="&#x2074;" horiz-adv-x="307" 
d="M258 564v-95h-93v94h-138v82l105 242h126v-254h34v-69h-34zM100 632h73l2 182z" />
    <glyph glyph-name="five.superior" unicode="&#x2075;" horiz-adv-x="307" 
d="M285 614q0 -37 -5.5 -65.5t-20.5 -47.5t-41 -28.5t-67 -9.5q-52 0 -85.5 25.5t-33.5 82.5h87q0 -18 7.5 -31.5t29.5 -13.5q23 0 31 16.5t8 69.5q0 41 -8.5 57t-28.5 16t-28 -13t-10 -28h-84l6 243h228v-65h-145l-4 -106q31 28 68 28q52 0 74 -31.5t22 -98.5z" />
    <glyph glyph-name="six.superior" unicode="&#x2076;" horiz-adv-x="307" 
d="M284 602q0 -66 -29 -102.5t-101 -36.5q-41 0 -66.5 11t-39 33t-18 53.5t-4.5 73.5v85q0 39 6 71t21.5 55t41.5 35.5t67 12.5q54 0 84.5 -21.5t32.5 -78.5h-88q-1 17 -8 27.5t-26 10.5q-26 0 -35 -27t-9 -72v-27q13 14 29 23t43 9q58 0 78.5 -35.5t20.5 -99.5zM195 603
q0 38 -7.5 55.5t-32.5 17.5q-24 0 -32.5 -19.5t-8.5 -52.5q0 -42 8.5 -60.5t32.5 -18.5q25 0 32.5 18t7.5 60z" />
    <glyph glyph-name="seven.superior" unicode="&#x2077;" horiz-adv-x="307" 
d="M166 469h-97l119 352h-148v66h232v-71z" />
    <glyph glyph-name="eight.superior" unicode="&#x2078;" horiz-adv-x="307" 
d="M283 586q0 -60 -29.5 -91.5t-100.5 -31.5q-65 0 -97 27.5t-32 95.5q0 29 10.5 57t42.5 44q-27 11 -38 35.5t-11 55.5q0 60 31 87.5t94 27.5q60 0 93 -24t33 -85q0 -32 -11.5 -57.5t-40.5 -38.5q31 -12 43.5 -36.5t12.5 -65.5zM192 774q0 27 -7.5 41.5t-31.5 14.5
q-23 0 -30.5 -14t-7.5 -40t8 -41.5t30 -15.5q23 0 31 14.5t8 40.5zM195 588q0 35 -8 52t-34 17q-23 0 -32 -17t-9 -50q0 -35 9 -50t32 -15q24 0 33 15t9 48z" />
    <glyph glyph-name="nine.superior" unicode="&#x2079;" horiz-adv-x="307" 
d="M283 651q0 -41 -3 -75.5t-16.5 -59.5t-40 -39t-73.5 -14q-54 0 -85.5 23.5t-31.5 81.5h87q0 -17 7.5 -30.5t29.5 -13.5q21 0 30.5 17t9.5 59v52q-14 -14 -29.5 -22.5t-41.5 -8.5q-56 0 -78 34t-22 96q0 66 28.5 104t101.5 38q38 0 62.5 -10t39 -29.5t20 -49t5.5 -68.5
v-85zM196 755q0 37 -7.5 56t-32.5 19q-26 0 -34 -19t-8 -56t7.5 -55t33.5 -18t33.5 20.5t7.5 52.5z" />
    <glyph glyph-name="zero.inferior" unicode="&#x2080;" horiz-adv-x="307" 
d="M154 -105q23 0 33 16.5t10 54.5v158q0 38 -10 54.5t-33 16.5t-33 -16.5t-10 -54.5v-158q0 -38 10 -54.5t33 -16.5zM284 -30q0 -32 -6.5 -57.5t-21.5 -44t-40 -28.5t-62 -10t-62 10t-40 28.5t-21.5 44t-6.5 57.5v150q0 31 6.5 57t21.5 44.5t40 28.5t62 10t62 -10t40 -28.5
t21.5 -44.5t6.5 -57v-150z" />
    <glyph glyph-name="one.inferior" unicode="&#x2081;" horiz-adv-x="307" 
d="M126 -164v320q-17 -14 -38 -27t-41 -21v82q26 12 45.5 28t38.5 36h88v-418h-93z" />
    <glyph glyph-name="two.inferior" unicode="&#x2082;" horiz-adv-x="307" 
d="M19 -164v72l123 149q14 18 23 31t14.5 24.5t7.5 21.5t2 21q0 41 -38 41q-26 0 -35 -18t-9 -45h-84v17q0 26 10.5 46.5t28.5 34.5t41 21.5t48 7.5q55 0 92 -25.5t37 -83.5q0 -30 -11.5 -60t-34.5 -59l-103 -128h151v-68h-263z" />
    <glyph glyph-name="three.inferior" unicode="&#x2083;" horiz-adv-x="307" 
d="M283 -44q0 -126 -132 -126q-65 0 -95.5 28.5t-30.5 97.5h87q0 -30 9 -45.5t32 -15.5t31.5 15.5t8.5 44.5q0 43 -15.5 56.5t-44.5 13.5h-22v58h24q29 0 43.5 15.5t14.5 44.5t-7.5 42t-29.5 13t-30.5 -14.5t-8.5 -40.5h-84v14q0 51 32.5 77t87.5 26q56 0 90.5 -25t34.5 -86
q0 -30 -13 -54.5t-39 -39.5q29 -15 43 -37t14 -62z" />
    <glyph glyph-name="four.inferior" unicode="&#x2084;" horiz-adv-x="307" 
d="M258 -69v-95h-93v94h-138v82l105 242h126v-254h34v-69h-34zM100 -1h73l2 182z" />
    <glyph glyph-name="five.inferior" unicode="&#x2085;" horiz-adv-x="307" 
d="M285 -19q0 -37 -5.5 -65.5t-20.5 -47.5t-41 -28.5t-67 -9.5q-52 0 -85.5 25.5t-33.5 82.5h87q0 -18 7.5 -31.5t29.5 -13.5q23 0 31 16.5t8 69.5q0 41 -8.5 57t-28.5 16t-28 -13t-10 -28h-84l6 243h228v-65h-145l-4 -106q31 28 68 28q52 0 74 -31.5t22 -98.5z" />
    <glyph glyph-name="six.inferior" unicode="&#x2086;" horiz-adv-x="307" 
d="M284 -31q0 -66 -29 -102.5t-101 -36.5q-41 0 -66.5 11t-39 33t-18 53.5t-4.5 73.5v85q0 39 6 71t21.5 55t41.5 35.5t67 12.5q54 0 84.5 -21.5t32.5 -78.5h-88q-1 17 -8 27.5t-26 10.5q-26 0 -35 -27t-9 -72v-27q13 14 29 23t43 9q58 0 78.5 -35.5t20.5 -99.5zM195 -30
q0 38 -7.5 55.5t-32.5 17.5q-24 0 -32.5 -19.5t-8.5 -52.5q0 -42 8.5 -60.5t32.5 -18.5q25 0 32.5 18t7.5 60z" />
    <glyph glyph-name="seven.inferior" unicode="&#x2087;" horiz-adv-x="307" 
d="M166 -164h-97l119 352h-148v66h232v-71z" />
    <glyph glyph-name="eight.inferior" unicode="&#x2088;" horiz-adv-x="307" 
d="M283 -47q0 -60 -29.5 -91.5t-100.5 -31.5q-65 0 -97 27.5t-32 95.5q0 29 10.5 57t42.5 44q-27 11 -38 35.5t-11 55.5q0 60 31 87.5t94 27.5q60 0 93 -24t33 -85q0 -32 -11.5 -57.5t-40.5 -38.5q31 -12 43.5 -36.5t12.5 -65.5zM192 141q0 27 -7.5 41.5t-31.5 14.5
q-23 0 -30.5 -14t-7.5 -40t8 -41.5t30 -15.5q23 0 31 14.5t8 40.5zM195 -45q0 35 -8 52t-34 17q-23 0 -32 -17t-9 -50q0 -35 9 -50t32 -15q24 0 33 15t9 48z" />
    <glyph glyph-name="nine.inferior" unicode="&#x2089;" horiz-adv-x="307" 
d="M283 18q0 -41 -3 -75.5t-16.5 -59.5t-40 -39t-73.5 -14q-54 0 -85.5 23.5t-31.5 81.5h87q0 -17 7.5 -30.5t29.5 -13.5q21 0 30.5 17t9.5 59v52q-14 -14 -29.5 -22.5t-41.5 -8.5q-56 0 -78 34t-22 96q0 66 28.5 104t101.5 38q38 0 62.5 -10t39 -29.5t20 -49t5.5 -68.5v-85
zM196 122q0 37 -7.5 56t-32.5 19q-26 0 -34 -19t-8 -56t7.5 -55t33.5 -18t33.5 20.5t7.5 52.5z" />
    <glyph glyph-name="afii61289" unicode="&#x2113;" horiz-adv-x="511" 
d="M450 579q0 -76 -47.5 -153.5t-152.5 -162.5v-91q0 -36 16 -55.5t44 -19.5q27 0 48.5 13.5t46.5 45.5l67 -63q-35 -50 -79 -76.5t-105 -26.5q-81 0 -120 46t-42 131l-35 -27l-54 77l89 70v233q0 109 46.5 162.5t123.5 53.5q75 0 114.5 -42.5t39.5 -114.5zM250 391
q51 53 72.5 100.5t21.5 91.5q0 33 -12 48.5t-31 15.5q-23 0 -37 -20.5t-14 -70.5v-165z" />
    <glyph glyph-name="Omega" unicode="&#x2126;" horiz-adv-x="594" 
d="M337 0v111q33 35 47 97.5t14 165.5q0 73 -4 122.5t-15.5 80t-31 43.5t-50.5 13q-32 0 -51.5 -13.5t-30.5 -44t-15 -80t-4 -121.5q0 -103 13.5 -165.5t46.5 -97.5v-111h-211v105h121q-57 31 -89 103.5t-32 204.5q0 85 13 146.5t42.5 101.5t77.5 58.5t119 18.5
q72 0 120.5 -18.5t77.5 -58t41.5 -101t12.5 -147.5q0 -66 -8.5 -116.5t-24 -88t-38 -63t-50.5 -40.5h121v-105h-212z" />
    <glyph glyph-name="estimated" unicode="&#x212e;" horiz-adv-x="600" 
d="M157 259v-181q59 -59 145 -59q63 0 109 28.5t84 91.5l35 -21q-23 -36 -46.5 -61.5t-51 -42t-59.5 -24t-71 -7.5q-59 0 -106.5 21.5t-81.5 59t-52 87.5t-18 108t18 108.5t52 87.5t81.5 58.5t106.5 21.5q58 0 105.5 -20.5t81.5 -57t53 -87t19 -111.5h-404zM448 295v145
q-63 60 -147 60t-144 -60v-145h291z" />
    <glyph glyph-name="onethird" unicode="&#x2153;" horiz-adv-x="758" 
d="M720 124q0 -131 -134 -131q-65 0 -95.5 28.5t-30.5 97.5h87q0 -30 8 -45.5t36 -15.5q23 0 30 19t7 41q0 43 -16 56.5t-44 14.5h-22v58h24q58 2 58 58q0 29 -7 43t-30 14q-22 0 -30.5 -14.5t-8.5 -40.5h-84v18q2 51 34.5 75t85.5 24q56 0 90.5 -25t34.5 -86
q0 -30 -13 -54.5t-39 -39.5q29 -15 44 -39.5t15 -55.5zM248 -25h-66l292 762h67zM112 299v320q-17 -12 -37 -26t-42 -22v82q26 12 45.5 28t38.5 36h88v-418h-93z" />
    <glyph glyph-name="twothirds" unicode="&#x2154;" horiz-adv-x="758" 
d="M31 299v72q7 8 27.5 32t44 52.5t45 56t30.5 42.5q8 12 15.5 32.5t7.5 33.5q0 16 -10.5 27.5t-25.5 11.5q-28 0 -37 -18t-9 -45h-84v17q0 26 10.5 46.5t28.5 34.5t41 21.5t48 7.5q55 0 92 -25.5t37 -83.5q0 -30 -8.5 -53.5t-25.5 -47.5q-8 -12 -23 -31t-31.5 -40.5
t-33 -41.5t-27.5 -33h151v-68h-263zM760 124q0 -131 -134 -131q-65 0 -95.5 28.5t-30.5 97.5h87q0 -30 8 -45.5t36 -15.5q23 0 30 19t7 41q0 43 -16 56.5t-44 14.5h-22v58h24q58 2 58 58q0 29 -7 43t-30 14q-22 0 -30.5 -14.5t-8.5 -40.5h-84v18q2 51 34.5 75t85.5 24
q56 0 90.5 -25t34.5 -86q0 -30 -13 -54.5t-39 -39.5q29 -15 44 -39.5t15 -55.5zM307 -25h-66l292 762h67z" />
    <glyph glyph-name="oneeighth" unicode="&#x215b;" horiz-adv-x="758" 
d="M719 116q0 -60 -29.5 -91.5t-100.5 -31.5q-65 0 -97 27.5t-32 95.5q0 29 10.5 57t42.5 44q-27 11 -38 35.5t-11 55.5q0 116 125 116q60 0 93 -24.5t33 -85.5q0 -32 -11.5 -57.5t-40.5 -38.5q31 -12 43.5 -36.5t12.5 -65.5zM628 304q0 27 -7.5 42t-31.5 15
q-23 0 -30.5 -14.5t-7.5 -40.5t8 -41.5t30 -15.5q23 0 31 14.5t8 40.5zM631 118q0 29 -8 49t-34 20q-25 0 -33 -20t-8 -47t7.5 -46t33.5 -19t34 18.5t8 44.5zM248 -25h-66l292 762h67zM112 299v320q-17 -12 -37 -26t-42 -22v82q26 12 45.5 28t38.5 36h88v-418h-93z" />
    <glyph glyph-name="threeeighths" unicode="&#x215c;" horiz-adv-x="758" 
d="M719 116q0 -60 -29.5 -91.5t-100.5 -31.5q-65 0 -97 27.5t-32 95.5q0 29 10.5 57t42.5 44q-27 11 -38 35.5t-11 55.5q0 116 125 116q60 0 93 -24.5t33 -85.5q0 -32 -11.5 -57.5t-40.5 -38.5q31 -12 43.5 -36.5t12.5 -65.5zM278 423q0 -131 -134 -131q-65 0 -95.5 28.5
t-30.5 97.5h87q0 -30 8 -45.5t36 -15.5q23 0 30 19t7 41q0 43 -16 56.5t-44 14.5h-22v58h24q58 2 58 58q0 29 -7 43t-30 14q-22 0 -30.5 -14.5t-8.5 -40.5h-85q0 5 0.5 9t0.5 9q2 51 34.5 75t85.5 24q56 0 90.5 -25t34.5 -86q0 -30 -13 -54.5t-39 -39.5q29 -15 44 -39.5
t15 -55.5zM257 -25h-66l292 762h67zM631 118q0 29 -8 49t-34 20q-25 0 -33 -20t-8 -47t7.5 -46t33.5 -19t34 18.5t8 44.5zM628 304q0 27 -7.5 42t-31.5 15q-23 0 -30.5 -14.5t-7.5 -40.5t8 -41.5t30 -15.5q23 0 31 14.5t8 40.5z" />
    <glyph glyph-name="fiveeighths" unicode="&#x215d;" horiz-adv-x="758" 
d="M719 116q0 -60 -29.5 -91.5t-100.5 -31.5q-65 0 -97 27.5t-32 95.5q0 29 10.5 57t42.5 44q-27 11 -38 35.5t-11 55.5q0 116 125 116q60 0 93 -24.5t33 -85.5q0 -32 -11.5 -57.5t-40.5 -38.5q31 -12 43.5 -36.5t12.5 -65.5zM628 304q0 27 -7.5 42t-31.5 15
q-23 0 -30.5 -14.5t-7.5 -40.5t8 -41.5t30 -15.5q23 0 31 14.5t8 40.5zM631 118q0 29 -8 49t-34 20q-25 0 -33 -20t-8 -47t7.5 -46t33.5 -19t34 18.5t8 44.5zM257 -25h-66l292 762h67zM279 444q0 -37 -5.5 -65.5t-20.5 -47.5t-41 -29t-67 -10q-52 0 -85.5 26t-33.5 83h87
q0 -18 7.5 -32t29.5 -14q23 0 31 16.5t8 69.5q0 41 -8.5 57t-28.5 16t-28 -13t-10 -28h-84l6 243h228v-65h-145l-4 -106q31 28 68 28q52 0 74 -31t22 -98z" />
    <glyph glyph-name="seveneighths" unicode="&#x215e;" horiz-adv-x="758" 
d="M719 116q0 -60 -29.5 -91.5t-100.5 -31.5q-65 0 -97 27.5t-32 95.5q0 29 10.5 57t42.5 44q-27 11 -38 35.5t-11 55.5q0 116 125 116q60 0 93 -24.5t33 -85.5q0 -32 -11.5 -57.5t-40.5 -38.5q31 -12 43.5 -36.5t12.5 -65.5zM628 304q0 27 -7.5 42t-31.5 15
q-23 0 -30.5 -14.5t-7.5 -40.5t8 -41.5t30 -15.5q23 0 31 14.5t8 40.5zM631 118q0 29 -8 49t-34 20q-25 0 -33 -20t-8 -47t7.5 -46t33.5 -19t34 18.5t8 44.5zM179 300h-97l119 351h-148v66h232v-71zM248 -25h-66l292 762h67z" />
    <glyph glyph-name="partialdiff" unicode="&#x2202;" horiz-adv-x="515" 
d="M473 360q0 -99 -16.5 -169.5t-47.5 -116t-75.5 -66.5t-100.5 -21q-53 0 -90 19t-59.5 49.5t-32.5 68t-10 74.5q0 51 13 95t38 76t62.5 50.5t86.5 18.5q28 0 53.5 -9t45.5 -24q-5 103 -35 160.5t-90 57.5q-48 0 -100 -33l-49 94q38 24 78 38t90 14q116 0 177.5 -96
t61.5 -280zM240 96q21 0 38 11t29.5 35t20.5 63.5t11 96.5q-14 16 -32.5 25.5t-40.5 9.5q-44 0 -68 -38t-24 -100q0 -48 17 -75.5t49 -27.5z" />
    <glyph glyph-name="Delta" unicode="&#x2206;" horiz-adv-x="616" 
d="M9 0l214 723h162l223 -723h-599zM306 578l-124 -468h247z" />
    <glyph glyph-name="product" unicode="&#x220f;" horiz-adv-x="627" 
d="M422 -205v877h-217v-877h-144v984h505v-984h-144z" />
    <glyph glyph-name="summation" unicode="&#x2211;" horiz-adv-x="563" 
d="M39 -205v95l220 409l-209 387v93h472v-107h-304l197 -368l-215 -402h334v-107h-495z" />
    <glyph glyph-name="minus" unicode="&#x2212;" horiz-adv-x="565" 
d="M35 213v115h496v-115h-496z" />
    <glyph glyph-name="uni2215" unicode="&#x2215;" horiz-adv-x="168" 
d="M-29 -25h-67l291 762h69z" />
    <glyph glyph-name="uni2219" unicode="&#x2219;" horiz-adv-x="250" 
d="M65 224v133h120v-133h-120z" />
    <glyph glyph-name="radical" unicode="&#x221a;" horiz-adv-x="645" 
d="M401 -201h-137l-122 356l-75 -24l-29 92l181 58l105 -322l192 827h124z" />
    <glyph glyph-name="infinity" unicode="&#x221e;" horiz-adv-x="786" 
d="M757 264q0 -37 -13 -69.5t-37 -57t-58 -38.5t-75 -14q-24 0 -45.5 6t-43 18.5t-44 32.5t-48.5 48q-53 -56 -95.5 -80.5t-93.5 -24.5q-39 0 -71.5 13t-55.5 37t-35.5 57t-12.5 72q0 36 13 68t37 56.5t58 38.5t75 14q24 0 44.5 -5.5t41.5 -18t44 -33t50 -49.5
q50 53 92.5 79.5t98.5 26.5q39 0 71 -13.5t55 -37t35.5 -56t12.5 -70.5zM214 182q26 0 51.5 20.5t61.5 60.5q-39 44 -62.5 62.5t-47.5 18.5q-32 0 -53 -23t-21 -58q0 -38 20.5 -59.5t50.5 -21.5zM642 263q0 38 -19.5 59.5t-50.5 21.5q-27 0 -53 -20.5t-62 -60.5
q37 -41 62 -61t50 -20q32 0 52.5 22.5t20.5 58.5z" />
    <glyph glyph-name="integral" unicode="&#x222b;" horiz-adv-x="417" 
d="M271 47q0 -127 -38 -186.5t-123 -59.5q-22 0 -42 2t-34 5l13 105q17 -5 33 -5q31 0 48.5 26t17.5 96v506q0 128 38 188t123 60q22 0 41.5 -2.5t33.5 -5.5l-13 -105q-15 5 -33 5q-30 0 -47.5 -26t-17.5 -96v-507z" />
    </font>
</defs>
</svg>
