<?xml version="1.0" standalone="no"?>
<!DOCTYPE svg PUBLIC "-//W3C//DTD SVG 1.1//EN" "http://www.w3.org/Graphics/SVG/1.1/DTD/svg11.dtd" >
<svg xmlns="http://www.w3.org/2000/svg" xmlns:xlink="http://www.w3.org/1999/xlink" version="1.1">
<metadata>
Created by FontForge 20201107 at Tue Feb  9 14:02:45 2010
 By Jimmy Wärting
Copyright (c) 2010 Linotype GmbH, www.linotype.com. All rights reserved. This font software may not be reproduced, modified, disclosed or transferred without the express written approval of Linotype GmbH. Univers is a trademark of Linotype Corp. registered in the U.S. Patent and Trademark Office and may be registered in certain other jurisdictions in the name of Linotype Corp. or its licensee Linotype GmbH. This typeface is original artwork of Adrian Frutiger and Linotype Design Studio. The design may be protected in certain jurisdictions.
</metadata>
<defs>
<font id="UniversNextPro-MediumCm" horiz-adv-x="250" >
  <font-face 
    font-family="Univers Next Pro Medium Comp"
    font-weight="500"
    font-stretch="extra-condensed"
    units-per-em="1000"
    panose-1="2 11 6 8 3 2 2 2 2 3"
    ascent="730"
    descent="-270"
    x-height="504"
    cap-height="723"
    bbox="-63 -214 892 921"
    underline-thickness="50"
    underline-position="-100"
    unicode-range="U+000D-FB04"
  />
<missing-glyph horiz-adv-x="512" 
d="M222 117v67h56v-67h-56zM223 234v17q0 27 3 46.5t10 35t18 29t28 29.5q16 16 26 28t15 22t7 19t2 20q0 36 -22.5 57.5t-53.5 21.5t-53.5 -22t-28.5 -73l-50 8q7 72 44 104.5t91 32.5q27 0 49.5 -9t39 -25t26 -39.5t9.5 -51.5q0 -17 -2.5 -32.5t-9.5 -30.5t-19.5 -30
t-31.5 -33q-16 -14 -25.5 -25t-15 -22t-7 -23.5t-1.5 -29.5v-24h-48zM462 50v617h-412v-617h412zM512 718v-718h-512v718h512z" />
    <glyph glyph-name="IJ" unicode="IJ" horiz-adv-x="522" 
d="M44 0v723h100v-723h-100zM480 166q0 -42 -7 -75t-23 -56t-42.5 -35t-65.5 -12q-46 0 -74 16t-43 44t-20 66t-5 83v13h98v-15q0 -41 2.5 -66t7.5 -39t13 -19t20 -5q20 0 29.5 16.5t9.5 62.5v578h100v-557z" />
    <glyph glyph-name="ij" unicode="ij" horiz-adv-x="348" 
d="M40 624v99h94v-99h-94zM40 0v504h94v-504h-94zM214 624v99h94v-99h-94zM308 -95q0 -31 -5.5 -52.5t-18.5 -35t-34.5 -19.5t-53.5 -6q-12 0 -23 1t-19 3v68q13 -3 24 -3q22 0 29 11.5t7 44.5v587h94v-599z" />
    <glyph glyph-name="napostrophe" unicode="&#x22;n" horiz-adv-x="354" 
d="M221 0v379q0 27 -7.5 43.5t-33.5 16.5q-20 0 -33 -15t-13 -48v-376h-94v410q0 18 -0.5 40.5t-2.5 53.5h91l3 -46q14 25 36.5 39.5t55.5 14.5q27 0 44.5 -8.5t28 -23t15 -34.5t4.5 -43v-403h-94zM18 526h-70l16 197h99z" />
    <glyph glyph-name="f_f" unicode="ff" horiz-adv-x="458" 
d="M227 652q-11 3 -21 3q-22 0 -36 -11t-14 -46v-94h67v-64h-67v-440h-94v440h-60v64h60v101q0 29 5.5 51.5t18.5 38.5t34.5 24t53.5 8q14 0 25 -1t28 -4v-70zM455 652q-11 3 -21 3q-22 0 -36 -11t-14 -46v-94h67v-64h-67v-440h-94v440h-60v64h60v101q0 29 5.5 51.5
t18.5 38.5t34.5 24t53.5 8q14 0 25 -1t28 -4v-70z" />
    <glyph glyph-name="fi" unicode="fi" horiz-adv-x="383" 
d="M227 652q-11 3 -21 3q-22 0 -36 -11t-14 -46v-94h67v-64h-67v-440h-94v440h-60v64h60v101q0 29 5.5 51.5t18.5 38.5t34.5 24t53.5 8q14 0 25 -1t28 -4v-70zM249 624v99h94v-99h-94zM249 0v504h94v-504h-94z" />
    <glyph glyph-name="fl" unicode="fl" horiz-adv-x="383" 
d="M227 652q-11 3 -21 3q-22 0 -36 -11t-14 -46v-94h67v-64h-67v-440h-94v440h-60v64h60v101q0 29 5.5 51.5t18.5 38.5t34.5 24t53.5 8q14 0 25 -1t28 -4v-70zM249 0v723h94v-723h-94z" />
    <glyph glyph-name="f_f_i" unicode="ffi" horiz-adv-x="612" 
d="M227 652q-11 3 -21 3q-22 0 -36 -11t-14 -46v-94h67v-64h-67v-440h-94v440h-60v64h60v101q0 29 5.5 51.5t18.5 38.5t34.5 24t53.5 8q14 0 25 -1t28 -4v-70zM456 652q-11 3 -21 3q-22 0 -36 -11t-14 -46v-94h67v-64h-67v-440h-94v440h-60v64h60v101q0 29 5.5 51.5
t18.5 38.5t34.5 24t53.5 8q14 0 25 -1t28 -4v-70zM478 624v99h94v-99h-94zM478 0v504h94v-504h-94z" />
    <glyph glyph-name="f_f_l" unicode="ffl" horiz-adv-x="612" 
d="M227 652q-11 3 -21 3q-22 0 -36 -11t-14 -46v-94h67v-64h-67v-440h-94v440h-60v64h60v101q0 29 5.5 51.5t18.5 38.5t34.5 24t53.5 8q14 0 25 -1t28 -4v-70zM456 652q-11 3 -21 3q-22 0 -36 -11t-14 -46v-94h67v-64h-67v-440h-94v440h-60v64h60v101q0 29 5.5 51.5
t18.5 38.5t34.5 24t53.5 8q14 0 25 -1t28 -4v-70zM478 0v723h94v-723h-94z" />
    <glyph glyph-name=".notdef" horiz-adv-x="512" 
d="M222 117v67h56v-67h-56zM223 234v17q0 27 3 46.5t10 35t18 29t28 29.5q16 16 26 28t15 22t7 19t2 20q0 36 -22.5 57.5t-53.5 21.5t-53.5 -22t-28.5 -73l-50 8q7 72 44 104.5t91 32.5q27 0 49.5 -9t39 -25t26 -39.5t9.5 -51.5q0 -17 -2.5 -32.5t-9.5 -30.5t-19.5 -30
t-31.5 -33q-16 -14 -25.5 -25t-15 -22t-7 -23.5t-1.5 -29.5v-24h-48zM462 50v617h-412v-617h412zM512 718v-718h-512v718h512z" />
    <glyph glyph-name="nonmarkingreturn" unicode="&#xd;" horiz-adv-x="0" 
 />
    <glyph glyph-name="space" unicode=" " horiz-adv-x="208" 
 />
    <glyph glyph-name="exclam" unicode="!" horiz-adv-x="222" 
d="M150 165h-78l-14 558h106zM58 0v100h106v-100h-106z" />
    <glyph glyph-name="quotedbl" unicode="&#x22;" horiz-adv-x="302" 
d="M173 545v178h84v-178h-84zM45 545v178h84v-178h-84z" />
    <glyph glyph-name="numbersign" unicode="#" horiz-adv-x="416" 
d="M318 439l-16 -152h68v-66h-75l-24 -221h-66l24 221h-70l-24 -221h-66l24 221h-65v66h72l16 152h-67v66h74l22 218h66l-22 -218h70l22 218h66l-22 -218h66v-66h-73zM182 439l-16 -152h70l16 152h-70z" />
    <glyph glyph-name="dollar" unicode="$" horiz-adv-x="416" 
d="M366 169q0 -37 -6.5 -68t-22 -55t-40.5 -38.5t-62 -18.5v-79h-57v80q-41 5 -66 24.5t-39.5 49t-19.5 68t-5 80.5h95q0 -28 1.5 -54.5t7.5 -46.5t18.5 -32.5t35.5 -12.5q35 0 49 28t14 76q0 27 -8 53t-39 55l-89 84q-26 24 -41.5 46t-24 45t-11.5 48.5t-3 57.5
q0 81 32.5 123t92.5 51v72h57v-71q42 -4 67.5 -21.5t40 -45.5t19 -64.5t4.5 -76.5h-95q0 69 -12.5 100t-48.5 31q-34 0 -48 -25.5t-14 -72.5q0 -34 10 -61.5t44 -61.5l102 -100q35 -34 48.5 -72t13.5 -95z" />
    <glyph glyph-name="percent" unicode="%" horiz-adv-x="611" 
d="M575 73q0 -42 -27 -60.5t-68 -18.5t-68 18.5t-27 60.5v303q0 42 27 60.5t68 18.5t68 -18.5t27 -60.5v-303zM220 -12h-60l230 747h60zM226 347q0 -42 -27 -60.5t-68 -18.5t-68 18.5t-27 60.5v303q0 42 27 60.5t68 18.5t68 -18.5t27 -60.5v-303zM509 361q0 40 -29 40
t-29 -40v-273q0 -40 29 -40t29 40v273zM160 635q0 40 -29 40t-29 -40v-273q0 -40 29 -40t29 40v273z" />
    <glyph glyph-name="ampersand" unicode="&#x26;" horiz-adv-x="456" 
d="M364 344v-342q-30 -8 -65 -11t-69 -3q-59 0 -98.5 11t-64.5 36t-35.5 66t-10.5 101q0 46 5.5 77.5t18.5 53t34 34t53 20.5q-29 5 -48.5 15.5t-31 28.5t-16.5 44.5t-5 64.5q0 51 9 88t31 60.5t58 35t89 11.5q20 0 39 -2.5t34 -7.5v-79q-20 5 -35 7t-36 2t-38 -4.5t-29 -17
t-18.5 -35t-6.5 -58.5q0 -30 3.5 -51.5t14.5 -35.5t30 -21t51 -7h45v135h92v-135h81v-81h-81zM272 344h-48q-34 0 -55 -6.5t-33 -22.5t-16 -44.5t-4 -71.5q0 -73 20.5 -103.5t72.5 -30.5q16 0 30 0.5t33 5.5v273z" />
    <glyph glyph-name="quotesingle" unicode="'" horiz-adv-x="174" 
d="M45 545v178h84v-178h-84z" />
    <glyph glyph-name="parenleft" unicode="(" horiz-adv-x="226" 
d="M151 -155q-20 52 -37 108.5t-30.5 112.5t-21 111.5t-7.5 106.5t7.5 106.5t21 111.5t30.5 112t37 109h66q-11 -31 -22.5 -85.5t-22 -117t-17 -125.5t-6.5 -111t6.5 -111t17 -125.5t22 -117t22.5 -85.5h-66z" />
    <glyph glyph-name="parenright" unicode=")" horiz-adv-x="226" 
d="M171 284q0 -51 -7.5 -106.5t-21 -111.5t-31 -112.5t-36.5 -108.5h-66q10 31 22 85.5t22.5 117t17 125.5t6.5 111t-6.5 111t-17 125.5t-22.5 117t-22 85.5h66q19 -53 36.5 -109t31 -112t21 -111.5t7.5 -106.5z" />
    <glyph glyph-name="asterisk" unicode="*" horiz-adv-x="296" 
d="M181 579l59 -90l-43 -24l-49 92l-46 -94l-48 30l61 86l-108 -9v57l108 -10l-59 90l43 28l49 -94l46 94l48 -30l-61 -88l106 11v-57z" />
    <glyph glyph-name="plus" unicode="+" horiz-adv-x="516" 
d="M303 211v-174h-90v174h-168v84h168v174h90v-174h168v-84h-168z" />
    <glyph glyph-name="comma" unicode="," horiz-adv-x="208" 
d="M112 -60h-72l22 178h106z" />
    <glyph glyph-name="hyphen" unicode="-" horiz-adv-x="296" 
d="M27 214v78h242v-78h-242z" />
    <glyph glyph-name="period" unicode="." horiz-adv-x="208" 
d="M45 0v118h118v-118h-118z" />
    <glyph glyph-name="slash" unicode="/" horiz-adv-x="296" 
d="M82 -12h-84l216 747h84z" />
    <glyph glyph-name="zero" unicode="0" horiz-adv-x="416" 
d="M30 362q0 79 4.5 147t22.5 118t53.5 79t97.5 29q64 0 99.5 -28t53 -78t21.5 -118.5t4 -148.5q0 -79 -4 -147t-21.5 -118.5t-53 -79.5t-99.5 -29t-99.5 29t-53 79.5t-21.5 118.5t-4 147zM288 362q0 90 -3.5 148t-12.5 91t-24.5 45.5t-39.5 12.5t-39.5 -13.5t-24.5 -47
t-12.5 -91t-3.5 -145.5t3.5 -145.5t12.5 -91.5t24.5 -47.5t39.5 -13.5q25 0 40.5 13.5t24.5 47.5t12 91.5t3 145.5z" />
    <glyph glyph-name="one" unicode="1" horiz-adv-x="412" 
d="M168 0v589q-23 -23 -42.5 -38t-45.5 -31v99q30 23 55.5 47t46.5 57h82v-723h-96z" />
    <glyph glyph-name="two" unicode="2" horiz-adv-x="416" 
d="M364 568q0 -41 -4.5 -75.5t-15 -66.5t-27 -64.5t-39.5 -68.5l-135 -210h218v-83h-336v77l175 266q20 30 33 57t20.5 54t10.5 56t3 62q0 46 -16 66.5t-48 20.5q-24 0 -38 -11t-22 -29t-10.5 -41t-2.5 -47h-96q0 102 43 153t125 51q85 0 123.5 -43t38.5 -124z" />
    <glyph glyph-name="three" unicode="3" horiz-adv-x="416" 
d="M376 204q0 -46 -8 -85.5t-27.5 -68.5t-52.5 -45.5t-82 -16.5q-92 0 -130 48.5t-38 142.5v10h97v-10q0 -21 2.5 -41.5t10 -36.5t21 -26t34.5 -10q41 0 58.5 35.5t17.5 101.5q0 24 -3.5 48t-13 42.5t-27.5 30.5t-46 12h-59v78h58q27 0 44 9.5t26 26t12 40t3 50.5
q0 120 -66 120q-35 0 -54.5 -27.5t-19.5 -91.5v-12h-95v14q0 88 42.5 140.5t123.5 52.5q49 0 81 -15.5t50.5 -41.5t25.5 -61t7 -74q0 -30 -4.5 -57t-16.5 -49t-31.5 -39t-49.5 -27q58 -15 84 -52t26 -115z" />
    <glyph glyph-name="four" unicode="4" horiz-adv-x="416" 
d="M329 176v-176h-98v176h-191v77l166 470h123v-473h45v-74h-45zM235 593l-113 -343h113v343z" />
    <glyph glyph-name="five" unicode="5" horiz-adv-x="416" 
d="M386 245q0 -49 -6.5 -95t-25 -82t-53 -58t-90.5 -22q-79 0 -122.5 49.5t-43.5 136.5v21h95v-14q0 -54 19 -85.5t54 -31.5q42 0 59 46.5t17 139.5q0 76 -18.5 111t-57.5 35q-32 0 -50 -24.5t-25 -77.5h-92l7 429h298v-79h-204l-7 -215q37 43 94 43q76 0 114 -53t38 -174z
" />
    <glyph glyph-name="six" unicode="6" horiz-adv-x="416" 
d="M388 243q0 -129 -43.5 -192t-128.5 -63q-64 0 -100 26.5t-53.5 75.5t-21.5 118t-4 154q0 71 4 138.5t22 119.5t54 83.5t101 31.5q53 0 84.5 -17.5t48 -45t22 -61t8.5 -64.5h-95q-1 35 -6 57t-13.5 34.5t-20.5 17t-27 4.5q-26 0 -41.5 -15t-24.5 -46.5t-13 -79.5t-7 -114
q16 29 41.5 46t68.5 17q33 0 59.5 -12t45.5 -39t29.5 -70t10.5 -104zM293 243q0 29 -2.5 56t-10 47.5t-23 33t-40.5 12.5q-24 0 -39.5 -12t-24.5 -32.5t-12 -47.5t-3 -57q0 -29 2 -60.5t10 -57.5t23.5 -43.5t42.5 -17.5q28 0 43.5 15.5t23 41t9 57.5t1.5 65z" />
    <glyph glyph-name="seven" unicode="7" horiz-adv-x="416" 
d="M207 0h-106l163 638h-220v85h318v-70z" />
    <glyph glyph-name="eight" unicode="8" horiz-adv-x="416" 
d="M382 203q0 -49 -10 -89t-31 -68t-54 -43t-79 -15q-47 0 -80 15.5t-54 43.5t-30.5 67.5t-9.5 88.5q0 37 6 63.5t18.5 46t32 33t46.5 23.5q-51 16 -74 54t-23 110q0 100 42 151t126 51q82 0 125 -49.5t43 -152.5q0 -71 -25 -107.5t-79 -54.5q29 -8 50 -20t34.5 -32
t19.5 -48.5t6 -67.5zM282 543q0 55 -18.5 85.5t-55.5 30.5q-34 0 -54 -31t-20 -85q0 -68 15 -99.5t59 -31.5q43 0 58.5 34t15.5 97zM286 208q0 66 -20.5 97t-57.5 31q-36 0 -57 -31t-21 -97q0 -80 19 -112t59 -32q38 0 58 32t20 112z" />
    <glyph glyph-name="nine" unicode="9" horiz-adv-x="416" 
d="M379 361q0 -79 -5 -147t-23.5 -118.5t-54.5 -79t-98 -28.5q-51 0 -82.5 17t-49.5 45.5t-24.5 65t-6.5 74.5v6h96v-9q0 -36 5 -60t14 -38t21 -20t26 -6q50 0 68 61t18 178v36q-16 -30 -41.5 -46.5t-68.5 -16.5q-66 0 -105.5 54t-39.5 155q0 128 42.5 189.5t127.5 61.5
q63 0 99 -26.5t54 -75.5t23 -118t5 -154zM279 500q0 29 -3 57.5t-12 51t-24.5 36.5t-39.5 14q-26 0 -41 -15t-23.5 -39t-11 -53.5t-2.5 -59.5q0 -21 2.5 -45.5t11 -45.5t23.5 -35.5t41 -14.5q24 0 39.5 13t24.5 34.5t12 48t3 53.5z" />
    <glyph glyph-name="colon" unicode=":" horiz-adv-x="208" 
d="M45 384v118h118v-118h-118zM45 0v118h118v-118h-118z" />
    <glyph glyph-name="semicolon" unicode=";" horiz-adv-x="208" 
d="M45 384v118h118v-118h-118zM112 -60h-72l22 178h106z" />
    <glyph glyph-name="less" unicode="&#x3c;" horiz-adv-x="516" 
d="M45 214v77l426 186v-88l-323 -136l323 -135v-89z" />
    <glyph glyph-name="equal" unicode="=" horiz-adv-x="516" 
d="M45 305v84h426v-84h-426zM45 117v84h426v-84h-426z" />
    <glyph glyph-name="greater" unicode="&#x3e;" horiz-adv-x="516" 
d="M45 29v89l323 135l-323 136v88l426 -186v-77z" />
    <glyph glyph-name="question" unicode="?" horiz-adv-x="355" 
d="M310 591q0 -42 -15.5 -85t-32.5 -81q-19 -40 -32 -78.5t-13 -80.5v-106h-79v117q0 53 11.5 95t27.5 84q20 51 30.5 89t10.5 67q0 58 -41 58q-23 0 -33.5 -20.5t-10.5 -76.5v-14h-94v18q0 158 139 158q71 0 101.5 -32.5t30.5 -111.5zM125 0v99h106v-99h-106z" />
    <glyph glyph-name="at" unicode="@" horiz-adv-x="745" 
d="M513 164q24 0 45 21.5t36 57t24 81t9 92.5q0 54 -12.5 99.5t-37.5 79.5t-63 53t-89 19q-63 0 -118.5 -30t-97.5 -87.5t-66 -141t-24 -189.5q0 -66 15 -119t43.5 -89.5t70 -56.5t93.5 -20q57 0 100.5 13.5t79.5 36.5l34 -61q-40 -26 -92.5 -42.5t-121.5 -16.5
q-71 0 -127 24t-94.5 70t-59 111t-20.5 148q0 123 30.5 219.5t82.5 163t122 102t150 35.5q72 0 124.5 -24.5t87 -67.5t51.5 -101.5t17 -127.5q0 -59 -13 -116.5t-38 -103t-61.5 -74t-84.5 -28.5q-37 0 -56.5 17t-25.5 42q-17 -30 -41 -44.5t-60 -14.5q-46 0 -70.5 27
t-24.5 87q0 20 3 46.5t8 53.5q19 109 54.5 155.5t85.5 46.5q48 0 67 -37l5 31h85l-47 -273q-2 -9 -3 -18.5t-1 -15.5q0 -18 7.5 -25.5t18.5 -7.5zM429 370q1 6 2 14t1 17q0 17 -6 31.5t-25 14.5q-13 0 -22.5 -5.5t-18 -21t-15.5 -42.5t-15 -70q-8 -39 -11 -65t-3 -44
q0 -23 8 -32.5t22 -9.5q26 0 40 23.5t22 68.5z" />
    <glyph glyph-name="A" unicode="A" horiz-adv-x="430" 
d="M322 0l-33 184h-152l-33 -184h-100l156 723h122l144 -723h-104zM217 616l-65 -348h123z" />
    <glyph glyph-name="B" unicode="B" horiz-adv-x="410" 
d="M384 196q0 -53 -9 -90.5t-29 -61t-51.5 -34t-76.5 -10.5h-174v723h164q87 0 126.5 -39.5t39.5 -133.5q0 -45 -4 -74t-15 -48.5t-31 -31.5t-52 -21q32 -9 53.5 -22t34.5 -33t18.5 -50t5.5 -74zM272 527q0 25 -3 46t-11.5 37t-24 25t-41.5 9h-48v-233h55q38 0 55.5 27.5
t17.5 88.5zM280 199q0 40 -4 66t-13.5 41t-25.5 21t-41 6h-52v-255h58q40 0 59 27t19 94z" />
    <glyph glyph-name="C" unicode="C" horiz-adv-x="393" 
d="M379 198q0 -44 -6.5 -82.5t-25 -67t-51 -44.5t-84.5 -16q-68 0 -104.5 27.5t-53 77.5t-19.5 119.5t-3 152.5q0 78 3 145.5t20 117.5t53.5 78.5t104.5 28.5q52 0 84.5 -15t49.5 -42.5t23 -66t6 -86.5h-100q0 75 -16 103t-48 28q-29 0 -44 -19t-22.5 -55.5t-8.5 -91
t-1 -125.5q0 -95 3 -153.5t12 -90.5t24.5 -43.5t39.5 -11.5q22 0 34.5 14t18.5 34t7.5 43t1.5 41h102z" />
    <glyph glyph-name="D" unicode="D" horiz-adv-x="418" 
d="M386 350q0 -87 -6.5 -152.5t-26.5 -109.5t-59 -66t-103 -22h-147v723h147q70 0 109.5 -23.5t58.5 -68.5t23 -111t4 -152v-18zM282 370q0 68 -1.5 118.5t-9.5 83.5t-26.5 49t-51.5 16h-49v-552h49q27 0 44.5 9.5t27 38t13.5 80.5t4 137v20z" />
    <glyph glyph-name="E" unicode="E" horiz-adv-x="332" 
d="M44 0v723h272v-84h-172v-227h162v-82h-162v-246h172v-84h-272z" />
    <glyph glyph-name="F" unicode="F" horiz-adv-x="330" 
d="M144 639v-227h162v-82h-162v-330h-100v723h272v-84h-172z" />
    <glyph glyph-name="G" unicode="G" horiz-adv-x="411" 
d="M379 9q-18 -4 -35.5 -8t-37 -7t-43 -4.5t-52.5 -1.5q-67 0 -103.5 29.5t-53 80.5t-19.5 120t-3 149q0 72 3.5 138.5t20.5 117.5t53.5 81.5t102.5 30.5q55 0 87.5 -18t50 -48t22.5 -67.5t5 -76.5h-101q0 71 -14.5 101.5t-49.5 30.5q-28 0 -43.5 -18.5t-23 -55t-9.5 -91
t-2 -127.5q0 -89 2.5 -146.5t11.5 -91.5t25.5 -47t45.5 -13q10 0 25.5 1t34.5 6v211h-66v82h166v-358z" />
    <glyph glyph-name="H" unicode="H" horiz-adv-x="422" 
d="M278 0v328h-134v-328h-100v723h100v-311h134v311h100v-723h-100z" />
    <glyph glyph-name="I" unicode="I" horiz-adv-x="188" 
d="M44 0v723h100v-723h-100z" />
    <glyph glyph-name="J" unicode="J" horiz-adv-x="334" 
d="M292 166q0 -42 -7 -75t-23 -56t-42.5 -35t-65.5 -12q-46 0 -74 16t-43 44t-20 66t-5 83v13h98v-15q0 -41 2.5 -66t7.5 -39t13 -19t20 -5q20 0 29.5 16.5t9.5 62.5v578h100v-557z" />
    <glyph glyph-name="K" unicode="K" horiz-adv-x="416" 
d="M303 0l-158 383l150 340h109l-160 -340l174 -383h-115zM44 0v723h100v-723h-100z" />
    <glyph glyph-name="L" unicode="L" horiz-adv-x="320" 
d="M44 0v723h100v-639h168v-84h-268z" />
    <glyph glyph-name="M" unicode="M" horiz-adv-x="627" 
d="M489 0v661l-112 -661h-132l-112 661v-661h-89v723h171l99 -631l98 631h171v-723h-94z" />
    <glyph glyph-name="N" unicode="N" horiz-adv-x="472" 
d="M264 0l-128 637v-637h-92v723h164l128 -638v638h92v-723h-164z" />
    <glyph glyph-name="O" unicode="O" horiz-adv-x="422" 
d="M390 365q0 -89 -3 -158.5t-19.5 -118.5t-53 -74.5t-103.5 -25.5t-103.5 26t-53 74.5t-19.5 118.5t-3 158q0 74 3 141t20.5 118t54 81t103.5 30q68 0 104.5 -26.5t52.5 -75.5t18 -117t2 -151zM286 365q0 72 -1.5 126.5t-8.5 91.5t-22 55.5t-43 18.5t-43.5 -21t-22.5 -59.5
t-8 -92.5t-1 -119q0 -78 1 -134.5t8 -93t22.5 -54t43.5 -17.5t43.5 20t22.5 58t8 93.5t1 127.5z" />
    <glyph glyph-name="P" unicode="P" horiz-adv-x="406" 
d="M390 517q0 -58 -8.5 -97t-28.5 -62t-52 -33t-80 -10h-77v-315h-100v723h176q45 0 77 -10t52.5 -34t30.5 -63.5t10 -98.5zM288 517q0 38 -5 62t-14.5 37.5t-24.5 18t-34 4.5h-66v-240h67q44 0 60.5 26.5t16.5 91.5z" />
    <glyph glyph-name="Q" unicode="Q" horiz-adv-x="422" 
d="M425 0q-57 0 -107.5 -3.5t-107.5 -3.5q-67 0 -103 27.5t-52.5 77t-19.5 118t-3 149.5q0 74 3 141t19.5 118t53 81t103.5 30t103.5 -25.5t53 -73.5t19.5 -116.5t3 -154.5q0 -45 -0.5 -85t-2.5 -75q-3 -43 -18 -83.5t-34 -59.5q10 2 23 3.5t25.5 3t23.5 2t18 0.5v-71z
M286 365q0 72 -1.5 126.5t-8.5 91.5t-22 55.5t-43 18.5t-43.5 -21t-22.5 -59.5t-8 -92.5t-1 -119q0 -76 1 -131.5t8 -91.5t22.5 -53.5t43.5 -17.5t43.5 20t22.5 57.5t8 92.5t1 124z" />
    <glyph glyph-name="R" unicode="R" horiz-adv-x="411" 
d="M284 0q-7 17 -9 43t-2 51l-1 130q-1 56 -19.5 74.5t-53.5 18.5h-55v-317h-100v723h174q40 0 70.5 -8.5t51.5 -30t31.5 -58t10.5 -92.5q0 -55 -8.5 -86.5t-23.5 -49t-35 -25t-44 -14.5q19 -3 37.5 -8t32.5 -17.5t22.5 -35.5t8.5 -63l1 -132q0 -19 2 -47t8 -56h-99z
M280 534q0 33 -4.5 54t-14 33t-24 16.5t-34.5 4.5h-59v-243h58q20 0 34.5 6.5t24.5 22t14.5 41.5t4.5 65z" />
    <glyph glyph-name="S" unicode="S" horiz-adv-x="382" 
d="M355 167q0 -40 -8.5 -73t-28 -56.5t-52 -36.5t-79.5 -13q-55 0 -88 17.5t-51 47.5t-24 70.5t-6 86.5h102q0 -28 1.5 -54t8 -46t19.5 -32t37 -12q38 0 52.5 27t14.5 75q0 27 -9 53t-41 56l-93 88q-26 25 -42.5 46.5t-26 44t-13 48t-3.5 57.5q0 87 44.5 130.5t123.5 43.5
q51 0 83 -16.5t49.5 -44.5t23.5 -66t6 -80h-100q0 66 -13 97.5t-51 31.5q-36 0 -51 -24.5t-15 -71.5q0 -17 2.5 -31.5t8.5 -29t17 -29.5t29 -33l113 -112q35 -35 47.5 -71.5t12.5 -87.5z" />
    <glyph glyph-name="T" unicode="T" horiz-adv-x="348" 
d="M224 639v-639h-100v639h-120v84h340v-84h-120z" />
    <glyph glyph-name="U" unicode="U" horiz-adv-x="418" 
d="M376 178q0 -44 -8.5 -79t-28 -59.5t-51.5 -38t-78 -13.5q-47 0 -79.5 12.5t-52 37t-28 60t-8.5 80.5v545h100v-545q0 -25 2.5 -45.5t10 -35.5t20.5 -23t34 -8t34 8t20.5 23t10 35.5t2.5 45.5v545h100v-545z" />
    <glyph glyph-name="V" unicode="V" horiz-adv-x="406" 
d="M263 0h-116l-149 723h104l106 -603l103 603h97z" />
    <glyph glyph-name="W" unicode="W" horiz-adv-x="650" 
d="M528 0h-127l-74 611l-78 -611h-127l-122 723h105l82 -613l74 613h140l71 -613l83 613h95z" />
    <glyph glyph-name="X" unicode="X" horiz-adv-x="422" 
d="M313 0l-100 288l-108 -288h-99l156 375l-145 348h106l95 -257l93 257h100l-144 -348l149 -375h-103z" />
    <glyph glyph-name="Y" unicode="Y" horiz-adv-x="369" 
d="M234 296v-296h-100v296l-138 427h100l93 -321l90 321h94z" />
    <glyph glyph-name="Z" unicode="Z" horiz-adv-x="346" 
d="M8 0v91l223 547h-205v84h305v-84l-223 -554h230v-84h-330z" />
    <glyph glyph-name="bracketleft" unicode="[" horiz-adv-x="226" 
d="M59 -155v878h158v-72h-74v-734h74v-72h-158z" />
    <glyph glyph-name="backslash" unicode="\" horiz-adv-x="296" 
d="M214 -12l-216 747h84l216 -747h-84z" />
    <glyph glyph-name="bracketright" unicode="]" horiz-adv-x="226" 
d="M9 -155v72h74v734h-74v72h158v-878h-158z" />
    <glyph glyph-name="asciicircum" unicode="^" horiz-adv-x="516" 
d="M366 309l-108 293l-108 -293h-90l159 414h78l159 -414h-90z" />
    <glyph glyph-name="underscore" unicode="_" horiz-adv-x="500" 
d="M0 -125v50h500v-50h-500z" />
    <glyph glyph-name="grave" unicode="`" horiz-adv-x="168" 
d="M73 597l-109 145h100l69 -145h-60z" />
    <glyph glyph-name="a" unicode="a" horiz-adv-x="352" 
d="M221 0l-2 33q-17 -25 -36.5 -33.5t-42.5 -8.5q-37 0 -60 12.5t-35.5 33.5t-16.5 49t-4 59q0 42 7.5 73t25.5 51.5t47 30t72 9.5h43v52q0 41 -6.5 62.5t-38.5 21.5q-18 0 -28 -8.5t-15 -22t-6.5 -30.5t-1.5 -33h-92q0 87 38.5 124t101.5 37q50 0 78.5 -12.5t42.5 -33.5
t17.5 -50t3.5 -62v-279q0 -23 0.5 -40.5t2.5 -34.5h-95zM219 242h-16q-45 0 -64 -21.5t-19 -75.5q0 -53 10.5 -71t37.5 -18q22 0 36.5 18.5t14.5 57.5v110z" />
    <glyph glyph-name="b" unicode="b" horiz-adv-x="355" 
d="M331 260q0 -137 -25 -202.5t-94 -65.5q-52 0 -79 37l-2 -29h-94q3 37 3 79v644h94v-253q17 24 36 33t44 9q34 0 57 -11t36 -39.5t18.5 -77t5.5 -124.5zM235 260q0 56 -2 91.5t-7.5 55.5t-16 27.5t-26.5 7.5t-25.5 -8.5t-15 -22.5t-7 -31.5t-1.5 -35.5v-166q0 -57 9.5 -90
t41.5 -33q16 0 26 8.5t15.5 31.5t7 63t1.5 102z" />
    <glyph glyph-name="c" unicode="c" horiz-adv-x="325" 
d="M313 164q0 -34 -5 -65t-20.5 -55t-43.5 -38t-74 -14q-53 0 -82.5 22t-43.5 58t-17 81t-3 91q0 73 7.5 124t25 83t46 46.5t70.5 14.5q40 0 66.5 -11t42.5 -33t22.5 -54.5t6.5 -75.5v-7h-93v7q0 52 -8.5 79.5t-37.5 27.5q-14 0 -24 -7.5t-16 -29t-9 -61.5t-3 -105
q0 -49 1.5 -84t7 -57t15 -32t25.5 -10q27 0 38 23t11 82v6h95v-6z" />
    <glyph glyph-name="d" unicode="d" horiz-adv-x="355" 
d="M224 0l-2 29q-27 -37 -79 -37q-69 0 -94 65.5t-25 202.5q0 68 7 116t21 78t36.5 44t52.5 14q31 0 47 -9.5t33 -32.5v253h94v-644q0 -20 0.5 -40t2.5 -39h-94zM221 344q0 18 -1.5 35.5t-7 31.5t-15 22.5t-24.5 8.5q-16 0 -26 -7.5t-16 -27.5t-8.5 -55.5t-2.5 -91.5
q0 -62 1.5 -102t7 -63t15 -31.5t26.5 -8.5q32 0 41.5 33t9.5 90v166z" />
    <glyph glyph-name="e" unicode="e" horiz-adv-x="336" 
d="M120 220v-26q0 -32 1 -57.5t5.5 -42.5t14.5 -26t28 -9q26 0 37 21t11 76h95q-2 -35 -9 -65t-23 -52t-42.5 -34.5t-68.5 -12.5q-53 0 -82 21.5t-43 55t-17 75t-3 81.5q0 63 3 116t17 91t43.5 59t82.5 21q56 0 85.5 -20t42.5 -57.5t14.5 -92t1.5 -122.5h-194zM217 288
q0 37 -0.5 66t-5 49.5t-14.5 31t-28 10.5t-28 -10.5t-14.5 -30.5t-5.5 -49t-1 -67h97z" />
    <glyph glyph-name="f" unicode="f" horiz-adv-x="229" 
d="M227 652q-11 3 -21 3q-22 0 -36 -11t-14 -46v-94h67v-64h-67v-440h-94v440h-60v64h60v101q0 29 5.5 51.5t18.5 38.5t34.5 24t53.5 8q14 0 25 -1t28 -4v-70z" />
    <glyph glyph-name="g" unicode="g" horiz-adv-x="355" 
d="M318 504q-1 -23 -2 -45t-1 -45v-387q0 -48 -2.5 -91t-16.5 -75t-44 -50.5t-86 -18.5q-79 0 -109 40t-30 117h93q0 -43 7.5 -66t39.5 -23q16 0 26 6t15 19t6.5 33.5t1.5 49.5v66q-17 -17 -34 -23t-40 -6q-67 0 -92.5 60t-25.5 182q0 72 6 122t20 82t36 46.5t55 14.5
q23 0 42.5 -8.5t39.5 -35.5l1 36h94zM221 352q0 10 -1 25.5t-6 29.5t-14.5 24.5t-25.5 10.5q-19 0 -30 -9.5t-16 -32t-6.5 -60t-1.5 -93.5q0 -51 1.5 -85t7 -55t15.5 -30t27 -9q30 0 40 31.5t10 82.5v170z" />
    <glyph glyph-name="h" unicode="h" horiz-adv-x="354" 
d="M221 0v379q0 27 -7.5 43.5t-33.5 16.5q-20 0 -33 -15t-13 -48v-376h-94v723h94v-262q14 25 37.5 38t51.5 13q54 0 73 -30t19 -79v-403h-94z" />
    <glyph glyph-name="i" unicode="i" horiz-adv-x="174" 
d="M40 624v99h94v-99h-94zM40 0v504h94v-504h-94z" />
    <glyph glyph-name="j" unicode="j" horiz-adv-x="174" 
d="M40 624v99h94v-99h-94zM134 -95q0 -31 -5.5 -52.5t-18.5 -35t-34.5 -19.5t-53.5 -6q-12 0 -23 1t-19 3v68q13 -3 24 -3q22 0 29 11.5t7 44.5v587h94v-599z" />
    <glyph glyph-name="k" unicode="k" horiz-adv-x="340" 
d="M233 0l-95 273l89 231h101l-99 -229l109 -275h-105zM40 0v723h94v-723h-94z" />
    <glyph glyph-name="l" unicode="l" horiz-adv-x="174" 
d="M40 0v723h94v-723h-94z" />
    <glyph glyph-name="m" unicode="m" horiz-adv-x="535" 
d="M402 0v379q0 27 -7.5 43.5t-33.5 16.5q-20 0 -33 -15t-13 -48v-376h-94v379q0 27 -7.5 43.5t-33.5 16.5q-20 0 -33 -15t-13 -48v-376h-94v404q-1 16 -1 33q-1 14 -1 32t-1 35h89l2 -43q28 51 95 51q38 0 57.5 -14.5t27.5 -40.5q16 30 42 42.5t54 12.5q27 0 44.5 -8.5
t28 -23t15 -34.5t4.5 -43v-403h-94z" />
    <glyph glyph-name="n" unicode="n" horiz-adv-x="354" 
d="M221 0v379q0 27 -7.5 43.5t-33.5 16.5q-20 0 -33 -15t-13 -48v-376h-94v410q0 18 -0.5 40.5t-2.5 53.5h91l3 -46q14 25 36.5 39.5t55.5 14.5q27 0 44.5 -8.5t28 -23t15 -34.5t4.5 -43v-403h-94z" />
    <glyph glyph-name="o" unicode="o" horiz-adv-x="338" 
d="M314 238q0 -43 -2.5 -87t-16 -79t-43 -57.5t-83.5 -22.5q-53 0 -82 20.5t-43 54.5t-17 78.5t-3 92.5q0 57 2.5 107t16 87t43 58.5t83.5 21.5t83.5 -20t43 -56t16 -86.5t2.5 -111.5zM218 238q0 61 -0.5 101.5t-5 63.5t-14.5 32.5t-28 9.5q-17 0 -26.5 -9.5t-15 -33
t-7 -63.5t-1.5 -101q0 -51 1.5 -85t6.5 -55t14.5 -30t26.5 -9q18 0 28 9t14.5 30t5.5 55t1 85z" />
    <glyph glyph-name="p" unicode="p" horiz-adv-x="355" 
d="M331 260q0 -72 -6 -123t-19.5 -83.5t-37 -47t-57.5 -14.5q-27 0 -45 8.5t-32 28.5v-225h-94v622q0 15 -1 37.5t-2 40.5h92l1 -39q17 27 38 37t46 10q33 0 55.5 -10.5t36 -38.5t19.5 -77t6 -126zM235 260q0 56 -2 91.5t-7.5 55.5t-16 27.5t-26.5 7.5t-25.5 -8.5t-15 -22.5
t-7 -31.5t-1.5 -35.5v-166q0 -35 2.5 -59t8.5 -38t15.5 -20t24.5 -6q16 0 26 8.5t15.5 31.5t7 63t1.5 102z" />
    <glyph glyph-name="q" unicode="q" horiz-adv-x="355" 
d="M318 504q-1 -18 -2 -40.5t-1 -37.5v-622h-94v225q-14 -20 -32.5 -28.5t-45.5 -8.5q-35 0 -57.5 15t-36.5 47.5t-19.5 83t-5.5 122.5q0 70 6.5 118t20.5 78t37 43t55 13q25 0 45 -10t37 -37l1 39h92zM221 344q0 18 -2 35.5t-7 31.5t-14.5 22.5t-25.5 8.5q-15 0 -25 -7.5
t-16 -27.5t-8.5 -55.5t-2.5 -91.5q0 -62 2 -101.5t8 -62.5t16 -32t25 -9q32 0 41 33t9 90v166z" />
    <glyph glyph-name="r" unicode="r" horiz-adv-x="226" 
d="M226 417q-16 4 -26 4q-41 0 -53.5 -24t-12.5 -78v-319h-94v411q0 19 -1 45.5t-2 47.5h90l2 -53q9 23 29.5 41.5t41.5 18.5q16 0 26 -4v-90z" />
    <glyph glyph-name="s" unicode="s" horiz-adv-x="335" 
d="M313 134q0 -71 -38 -106.5t-105 -35.5q-46 0 -75 12t-45.5 34t-23 52.5t-6.5 66.5v14h96v-14q0 -57 12 -77.5t41 -20.5q47 0 47 74q0 25 -12.5 41.5t-43.5 35.5l-60 37q-38 23 -57.5 54.5t-19.5 76.5q0 65 38.5 99.5t107.5 34.5q73 0 106.5 -34.5t33.5 -119.5v-12h-95v12
q0 45 -7 66t-38 21q-30 0 -40 -17.5t-10 -46.5q0 -23 11.5 -37t36.5 -30l53 -33q28 -18 46.5 -34t28.5 -32.5t14 -36t4 -44.5z" />
    <glyph glyph-name="t" unicode="t" horiz-adv-x="229" 
d="M227 -3q-17 -5 -27.5 -6t-29.5 -1q-35 0 -56 7.5t-32.5 22.5t-15.5 38t-4 55v327h-58v64h58v93l94 33v-126h65v-64h-65v-323q0 -32 6.5 -43.5t34.5 -11.5q8 0 13.5 1l16.5 3v-69z" />
    <glyph glyph-name="u" unicode="u" horiz-adv-x="354" 
d="M226 0l-3 46q-14 -25 -36.5 -39.5t-55.5 -14.5q-27 0 -45 8.5t-28.5 23t-14.5 34.5t-4 43v403h94v-379q0 -27 7.5 -43.5t33.5 -16.5q20 0 33 15t13 48v376h94v-410q0 -18 0.5 -40.5t2.5 -53.5h-91z" />
    <glyph glyph-name="v" unicode="v" horiz-adv-x="340" 
d="M236 0h-123l-111 504h104l71 -414l60 414h101z" />
    <glyph glyph-name="w" unicode="w" horiz-adv-x="555" 
d="M460 0h-119l-61 403l-66 -403h-118l-94 504h108l51 -404l61 404h120l61 -404l51 404h99z" />
    <glyph glyph-name="x" unicode="x" horiz-adv-x="344" 
d="M228 2l-61 183l-62 -185h-101l107 264l-97 240h112l50 -168l54 168h99l-98 -240l109 -264z" />
    <glyph glyph-name="y" unicode="y" horiz-adv-x="339" 
d="M179 -196h-88l37 171l-126 529h104l72 -383l59 383h101z" />
    <glyph glyph-name="z" unicode="z" horiz-adv-x="259" 
d="M16 0v70l139 361h-137v73h225v-82l-134 -349h137v-73h-230z" />
    <glyph glyph-name="braceleft" unicode="{" horiz-adv-x="231" 
d="M181 -155q-22 0 -42.5 8t-36 24t-24.5 40t-9 55v166q0 51 -12.5 81.5t-46.5 31.5v66q34 1 46.5 31.5t12.5 81.5v166q0 31 9 55t24.5 40t36 24t42.5 8h35v-72h-20q-26 0 -34.5 -22.5t-8.5 -51.5v-162q0 -34 -10.5 -58t-24.5 -39.5t-29.5 -23.5t-24.5 -10v-2
q9 -2 24.5 -9.5t29.5 -22.5t24.5 -39t10.5 -58v-162q0 -29 8.5 -51.5t34.5 -22.5h20v-72h-35z" />
    <glyph glyph-name="bar" unicode="|" horiz-adv-x="222" 
d="M69 -214v1001h84v-1001h-84z" />
    <glyph glyph-name="braceright" unicode="}" horiz-adv-x="231" 
d="M221 251q-34 -1 -46.5 -31.5t-12.5 -81.5v-166q0 -31 -9 -55t-24.5 -40t-36 -24t-42.5 -8h-35v72h20q26 0 34.5 22.5t8.5 51.5v162q0 34 10.5 58t24.5 39.5t29.5 23.5t24.5 10v2q-9 2 -24.5 9.5t-29.5 22.5t-24.5 39t-10.5 58v162q0 29 -8.5 51.5t-34.5 22.5h-20v72h35
q22 0 42.5 -8t36 -24t24.5 -40t9 -55v-166q0 -51 12.5 -81.5t46.5 -31.5v-66z" />
    <glyph glyph-name="asciitilde" unicode="~" horiz-adv-x="516" 
d="M471 321q-2 -35 -12 -61t-25.5 -42.5t-36.5 -24.5t-43 -8q-27 0 -53 8.5t-50 19t-44.5 19.5t-36.5 9q-20 0 -33 -15t-16 -41h-76q3 70 37.5 103t79.5 33q27 0 53 -9t50 -19.5t44.5 -19t36.5 -8.5q20 0 33 15t16 41h76z" />
    <glyph glyph-name="Euro" unicode="&#x20ac;" horiz-adv-x="416" 
d="M28 267l9 63h62v78h-69l9 63h60q6 129 55 196.5t140 67.5q37 0 63 -12t40 -28l-15 -87q-12 22 -34 36t-53 14q-19 0 -36 -8t-30.5 -29t-22 -57.5t-9.5 -92.5h159l-9 -63h-150v-78h137l-9 -63h-128q1 -62 7.5 -101t19 -61.5t29.5 -30.5t39 -8q32 0 56 15t35 32v-95
q-8 -7 -31 -18.5t-63 -11.5q-48 0 -82.5 15t-57 48t-34.5 86t-15 130h-72z" />
    <glyph glyph-name="quotesinglbase" unicode="&#x201a;" horiz-adv-x="198" 
d="M107 -60h-72l22 178h106z" />
    <glyph glyph-name="florin" unicode="&#x192;" horiz-adv-x="416" 
d="M334 668q-5 1 -10 1h-10q-13 0 -21 -2.5t-13.5 -11.5t-9 -26.5t-6.5 -47.5l-10 -87h64l-7 -66h-64l-54 -484q-3 -32 -9.5 -54.5t-18 -37t-30.5 -21.5t-48 -7q-16 0 -28 1t-23 3l6 64q8 -2 15 -2q13 0 21 2.5t13.5 10.5t9 23.5t6.5 42.5l52 459h-62l7 66h62l14 128
q6 55 25.5 84t62.5 29q18 0 36.5 -2t35.5 -4z" />
    <glyph glyph-name="quotedblbase" unicode="&#x201e;" horiz-adv-x="328" 
d="M237 -60h-72l22 178h106zM107 -60h-72l22 178h106z" />
    <glyph glyph-name="ellipsis" unicode="&#x2026;" horiz-adv-x="1000" 
d="M774 0v118h118v-118h-118zM441 0v118h118v-118h-118zM108 0v118h118v-118h-118z" />
    <glyph glyph-name="dagger" unicode="&#x2020;" horiz-adv-x="370" 
d="M229 476v-475h-88v475h-123v84h123v163h88v-163h123v-84h-123z" />
    <glyph glyph-name="daggerdbl" unicode="&#x2021;" horiz-adv-x="370" 
d="M229 184v-184h-88v184h-123v84h123v207h-123v84h123v164h88v-164h123v-84h-123v-207h123v-84h-123z" />
    <glyph glyph-name="circumflex" unicode="&#x2c6;" horiz-adv-x="168" 
d="M149 597l-65 81l-65 -81h-67l92 145h80l92 -145h-67z" />
    <glyph glyph-name="perthousand" unicode="&#x2030;" horiz-adv-x="852" 
d="M816 73q0 -42 -27 -60.5t-68 -18.5t-68 18.5t-27 60.5v303q0 42 27 60.5t68 18.5t68 -18.5t27 -60.5v-303zM575 73q0 -42 -27 -60.5t-68 -18.5t-68 18.5t-27 60.5v303q0 42 27 60.5t68 18.5t68 -18.5t27 -60.5v-303zM220 -12h-60l230 747h60zM226 347q0 -42 -27 -60.5
t-68 -18.5t-68 18.5t-27 60.5v303q0 42 27 60.5t68 18.5t68 -18.5t27 -60.5v-303zM750 361q0 40 -29 40t-29 -40v-273q0 -40 29 -40t29 40v273zM509 361q0 40 -29 40t-29 -40v-273q0 -40 29 -40t29 40v273zM160 635q0 40 -29 40t-29 -40v-273q0 -40 29 -40t29 40v273z" />
    <glyph glyph-name="Scaron" unicode="&#x160;" horiz-adv-x="382" 
d="M355 167q0 -40 -8.5 -73t-28 -56.5t-52 -36.5t-79.5 -13q-55 0 -88 17.5t-51 47.5t-24 70.5t-6 86.5h102q0 -28 1.5 -54t8 -46t19.5 -32t37 -12q38 0 52.5 27t14.5 75q0 27 -9 53t-41 56l-93 88q-26 25 -42.5 46.5t-26 44t-13 48t-3.5 57.5q0 87 44.5 130.5t123.5 43.5
q51 0 83 -16.5t49.5 -44.5t23.5 -66t6 -80h-100q0 66 -13 97.5t-51 31.5q-36 0 -51 -24.5t-15 -71.5q0 -17 2.5 -31.5t8.5 -29t17 -29.5t29 -33l113 -112q35 -35 47.5 -71.5t12.5 -87.5zM232 772h-80l-92 145h67l65 -81l65 81h67z" />
    <glyph glyph-name="guilsinglleft" unicode="&#x2039;" horiz-adv-x="204" 
d="M106 55l-80 198l80 198h72l-58 -198l58 -198h-72z" />
    <glyph glyph-name="OE" unicode="&#x152;" horiz-adv-x="574" 
d="M289 0q-30 0 -39.5 -0.5t-12 -0.5t-3.5 -0.5t-14 -0.5q-61 0 -95 15.5t-58 53.5q-13 21 -21 55.5t-12 75.5t-5.5 85t-1.5 84q0 81 4.5 135.5t16.5 101.5q8 33 22 56t35.5 37.5t51.5 21t71 6.5l63 -2h259v-84h-172v-227h162v-84h-162v-244h172v-84h-261zM278 641
q-14 2 -25 3t-23 1q-41 0 -61 -16.5t-28 -51.5q-3 -11 -5 -34t-3.5 -52.5t-2.5 -61.5t-1 -62q0 -29 1 -62.5t3 -64.5t5 -57t6 -41q8 -35 26 -50.5t51 -15.5q11 0 22.5 1t34.5 4v560z" />
    <glyph glyph-name="Zcaron" unicode="&#x17d;" horiz-adv-x="346" 
d="M8 0v91l223 547h-205v84h305v-84l-223 -554h230v-84h-330zM216 772h-80l-92 145h67l65 -81l65 81h67z" />
    <glyph glyph-name="quoteleft" unicode="&#x2018;" horiz-adv-x="198" 
d="M141 545h-106l56 178h72z" />
    <glyph glyph-name="quoteright" unicode="&#x2019;" horiz-adv-x="198" 
d="M107 545h-72l22 178h106z" />
    <glyph glyph-name="quotedblleft" unicode="&#x201c;" horiz-adv-x="328" 
d="M271 544h-106l56 178h72zM138 544h-103l68 178h60z" />
    <glyph glyph-name="quotedblright" unicode="&#x201d;" horiz-adv-x="328" 
d="M225 545h-60l25 178h103zM95 545h-60l25 178h103z" />
    <glyph glyph-name="bullet" unicode="&#x2022;" horiz-adv-x="501" 
d="M431 361q0 -38 -14 -70.5t-39 -57t-58 -38.5t-70 -14q-38 0 -70.5 14t-57 38.5t-38.5 57t-14 70.5q0 37 14 70t38.5 58t57 39t70.5 14q37 0 70 -14t58 -39t39 -58t14 -70z" />
    <glyph glyph-name="endash" unicode="&#x2013;" horiz-adv-x="500" 
d="M0 220v66h500v-66h-500z" />
    <glyph glyph-name="emdash" unicode="&#x2014;" horiz-adv-x="1000" 
d="M130 220v66h740v-66h-740z" />
    <glyph glyph-name="tilde" unicode="&#x2dc;" horiz-adv-x="168" 
d="M231 728q-1 -17 -6 -36t-16.5 -35t-29 -27t-43.5 -11q-18 0 -34.5 6t-31 12.5t-26.5 12.5t-21 6q-12 0 -20.5 -13t-11.5 -30h-54q1 21 7 40.5t18 35t29.5 24.5t40.5 9q17 0 33 -6t30.5 -12.5t27 -12.5t22.5 -6q24 0 32 43h54z" />
    <glyph glyph-name="trademark" unicode="&#x2122;" horiz-adv-x="926" 
d="M744 309v330l-95 -330h-54l-95 330v-330h-78v414h117l83 -296l82 296h118v-414h-78zM259 657v-348h-84v348h-95v66h274v-66h-95z" />
    <glyph glyph-name="scaron" unicode="&#x161;" horiz-adv-x="335" 
d="M313 134q0 -71 -38 -106.5t-105 -35.5q-46 0 -75 12t-45.5 34t-23 52.5t-6.5 66.5v14h96v-14q0 -57 12 -77.5t41 -20.5q47 0 47 74q0 25 -12.5 41.5t-43.5 35.5l-60 37q-38 23 -57.5 54.5t-19.5 76.5q0 65 38.5 99.5t107.5 34.5q73 0 106.5 -34.5t33.5 -119.5v-12h-95v12
q0 45 -7 66t-38 21q-30 0 -40 -17.5t-10 -46.5q0 -23 11.5 -37t36.5 -30l53 -33q28 -18 46.5 -34t28.5 -32.5t14 -36t4 -44.5zM208 597h-80l-92 145h67l65 -81l65 81h67z" />
    <glyph glyph-name="guilsinglright" unicode="&#x203a;" horiz-adv-x="204" 
d="M98 55h-72l58 198l-58 198h72l80 -198z" />
    <glyph glyph-name="oe" unicode="&#x153;" horiz-adv-x="536" 
d="M320 220v-26q0 -32 1 -57.5t5.5 -42.5t14.5 -26t28 -9q26 0 37.5 21t11.5 76h94q-2 -35 -10 -65t-23.5 -52t-40.5 -34.5t-62 -12.5q-33 0 -61.5 12t-39.5 33q-14 -21 -42 -33t-62 -12q-50 0 -77.5 22.5t-41 57.5t-16.5 78t-3 84q0 57 2.5 107.5t16 88.5t43 60t83.5 22
q34 0 57.5 -9.5t40.5 -33.5q17 23 39 33t56 10q54 0 83.5 -22.5t42.5 -61.5t15 -92.5t2 -115.5h-194zM417 288q0 37 -0.5 66t-5 49.5t-14.5 31t-28 10.5t-28 -11.5t-14.5 -32t-5.5 -49.5t-1 -64h97zM227 234q0 61 -1 102t-5.5 65t-14.5 34t-28 10t-28 -10t-14.5 -34.5
t-5.5 -65t-1 -101.5q0 -51 1 -84.5t5.5 -53.5t14.5 -28.5t28 -8.5t28 8.5t14.5 28.5t5.5 53.5t1 84.5z" />
    <glyph glyph-name="zcaron" unicode="&#x17e;" horiz-adv-x="259" 
d="M16 0v70l139 361h-137v73h225v-82l-134 -349h137v-73h-230zM168 597h-80l-92 145h67l65 -81l65 81h67z" />
    <glyph glyph-name="Ydieresis" unicode="&#x178;" horiz-adv-x="369" 
d="M234 296v-296h-100v296l-138 427h100l93 -321l90 321h94zM224 797v100h78v-100h-78zM70 797v100h78v-100h-78z" />
    <glyph glyph-name="uni00A0" unicode="&#xa0;" horiz-adv-x="208" 
 />
    <glyph glyph-name="exclamdown" unicode="&#xa1;" horiz-adv-x="222" 
d="M58 415v100h106v-100h-106zM58 -208l14 558h78l14 -558h-106z" />
    <glyph glyph-name="cent" unicode="&#xa2;" horiz-adv-x="416" 
d="M356 164q0 -32 -4.5 -60.5t-17 -51.5t-35 -38.5t-58.5 -19.5v-81h-54v81q-44 6 -68 29.5t-35.5 58t-14 77t-2.5 85.5q0 66 6 114t20.5 80.5t37.5 49.5t56 22v81h54v-80q65 -7 89 -50.5t24 -122.5v-7h-93v7q0 52 -8.5 79.5t-37.5 27.5q-14 0 -24 -7.5t-16 -29t-9 -61.5
t-3 -105q0 -49 1.5 -84t7 -57t15 -32t25.5 -10q27 0 38 23t11 82v6h95v-6z" />
    <glyph glyph-name="sterling" unicode="&#xa3;" horiz-adv-x="416" 
d="M299 523q0 36 -1.5 61.5t-7.5 41.5t-18 23.5t-33 7.5q-40 0 -51 -25t-11 -75v-134h95v-66h-95v-279h210v-78h-351v78h46v279h-58v66h58v111q0 44 6.5 81t23.5 63.5t46.5 41.5t76.5 15q54 0 85.5 -16t48 -44t21.5 -67t5 -85h-96z" />
    <glyph glyph-name="currency" unicode="&#xa4;" horiz-adv-x="416" 
d="M74 281q-21 34 -21 81q0 45 21 81l-47 47l51 51l47 -47q18 11 39 17t44 6t44 -6t39 -17l47 47l51 -51l-48 -47q22 -38 22 -81q0 -45 -22 -81l48 -47l-51 -51l-47 47q-37 -23 -83 -23t-83 23l-47 -47l-51 51zM127 362q0 -35 23 -61t58 -26t58 26t23 61t-23 61t-58 26
t-58 -26t-23 -61z" />
    <glyph glyph-name="yen" unicode="&#xa5;" horiz-adv-x="416" 
d="M272 365h86v-63h-103v-78h103v-63h-103v-161h-94v161h-103v63h103v78h-103v63h84l-108 358h94l81 -315l86 315h87z" />
    <glyph glyph-name="brokenbar" unicode="&#xa6;" horiz-adv-x="222" 
d="M69 411v251h84v-251h-84zM69 -89v250h84v-250h-84z" />
    <glyph glyph-name="section" unicode="&#xa7;" horiz-adv-x="296" 
d="M18 363q0 35 12 65.5t47 53.5q-32 25 -44 56t-12 65q0 65 38.5 95.5t104.5 30.5q22 0 47 -4t48 -13v-66q-44 17 -85 17q-32 0 -48.5 -15t-16.5 -40q0 -32 17.5 -49.5t41.5 -32.5q19 -12 38.5 -26t35 -32.5t25 -43t9.5 -56.5q0 -45 -20 -73.5t-47 -44.5q38 -32 52 -63.5
t14 -66.5q0 -63 -37 -97.5t-109 -34.5q-33 0 -61 6.5t-47 14.5v68q7 -4 18.5 -8t24 -7.5t25 -5.5t22.5 -2q35 0 55.5 15t20.5 48q0 30 -16.5 52t-39.5 38t-43.5 31.5t-36 33.5t-24.5 40t-9 51zM105 377q0 -12 1.5 -22t6.5 -19.5t14.5 -19.5t25.5 -23q36 32 36 68
q0 26 -9.5 45t-41.5 39q-17 -12 -25 -30t-8 -38z" />
    <glyph glyph-name="dieresis" unicode="&#xa8;" horiz-adv-x="168" 
d="M122 622v100h78v-100h-78zM-32 622v100h78v-100h-78z" />
    <glyph glyph-name="copyright" unicode="&#xa9;" horiz-adv-x="806" 
d="M525 285q0 -72 -31 -102.5t-89 -30.5q-38 0 -62.5 10.5t-39 35.5t-20 65t-5.5 100q0 55 4.5 94.5t18.5 65t39 37.5t67 12q65 0 90.5 -32t25.5 -101h-81q0 42 -9 57.5t-27 15.5q-16 0 -24.5 -8t-12.5 -26t-4.5 -46.5t-0.5 -68.5q0 -53 1.5 -83.5t6.5 -45.5t13.5 -19
t22.5 -4q12 0 19 8t10.5 19t4.5 24t1 23h82zM764 362q0 -79 -27 -147t-75 -118.5t-114 -79t-144 -28.5q-79 0 -145.5 28.5t-114.5 79t-75 118.5t-27 147t27 147t75 118.5t114.5 79t145.5 28.5q78 0 144 -28.5t114 -79t75 -118.5t27 -147zM694 362q0 66 -21 123t-59.5 99.5
t-92 66.5t-118.5 24t-118.5 -24t-92 -66.5t-59.5 -99.5t-21 -123t21 -123t59.5 -99.5t92 -66.5t118.5 -24t118.5 24t92 66.5t59.5 99.5t21 123z" />
    <glyph glyph-name="ordfeminine" unicode="&#xaa;" horiz-adv-x="216" 
d="M139 426v29q-13 -15 -26.5 -24t-34.5 -9q-28 0 -44.5 15.5t-16.5 63.5q0 44 4.5 63t17.5 30q21 18 94 18v32q0 15 -5 24t-18 9q-12 0 -17 -9t-5 -24v-13h-66v26q0 35 21.5 50.5t65.5 15.5q38 0 64 -16t26 -59v-222h-60zM133 566h-17q-19 0 -26 -11.5t-7 -42.5
q0 -26 5.5 -35t16.5 -9q14 0 21 9t7 24v65z" />
    <glyph glyph-name="guillemotleft" unicode="&#xab;" horiz-adv-x="343" 
d="M245 55l-80 198l80 198h72l-58 -198l58 -198h-72zM106 55l-80 198l80 198h72l-58 -198l58 -198h-72z" />
    <glyph glyph-name="logicalnot" unicode="&#xac;" horiz-adv-x="516" 
d="M381 162v143h-336v84h426v-227h-90z" />
    <glyph glyph-name="uni00AD" unicode="&#xad;" horiz-adv-x="296" 
d="M27 214v78h242v-78h-242z" />
    <glyph glyph-name="registered" unicode="&#xae;" horiz-adv-x="383" 
d="M379 547q0 -39 -15 -73t-40.5 -59.5t-59.5 -40.5t-73 -15t-73 15t-59.5 40.5t-40 60t-14.5 72.5t14.5 72.5t40 60t59.5 40.5t73 15t73 -15t59.5 -40.5t40.5 -59.5t15 -73zM344 547q0 31 -12 59t-33 49t-49 33t-59 12q-32 0 -59.5 -12t-48 -33t-32.5 -49t-12 -59t12 -59
t32.5 -49t48 -33t59.5 -12q31 0 59 12t49 33t33 48.5t12 59.5zM233 445q-2 7 -3 13l-2 12q-1 11 -1.5 20.5t-4 16t-13 10.5t-28.5 4h-19v-76h-49v205h74q16 0 32 -2t29.5 -8t22 -18t8.5 -32q0 -37 -37 -49q24 -11 28 -25.5t5 -31.5q0 -9 1 -19t6 -20h-49zM230 586
q0 18 -15.5 22t-29.5 4h-23v-53h23q7 0 15 0.5t15 3t11 8t4 15.5z" />
    <glyph glyph-name="macron" unicode="&#xaf;" horiz-adv-x="168" 
d="M-48 643v54h264v-54h-264z" />
    <glyph glyph-name="degree" unicode="&#xb0;" horiz-adv-x="362" 
d="M316 596q0 -28 -10.5 -52.5t-29 -42.5t-43 -28.5t-52.5 -10.5t-52.5 10.5t-43 28.5t-29 42.5t-10.5 52.5t10.5 52.5t29 42.5t43 28.5t52.5 10.5t52.5 -10.5t43 -28.5t29 -42.5t10.5 -52.5zM243 596q0 29 -17.5 48t-44.5 19t-44.5 -19t-17.5 -48t17.5 -48t44.5 -19
t44.5 19t17.5 48z" />
    <glyph glyph-name="plusminus" unicode="&#xb1;" horiz-adv-x="516" 
d="M303 270v-154h-90v154h-168v84h168v154h90v-154h168v-84h-168zM45 0v84h426v-84h-426z" />
    <glyph glyph-name="twosuperior" unicode="&#xb2;" 
d="M231 794q0 -34 -10.5 -65t-30.5 -64l-88 -143h128v-60h-209v60l90 151q22 35 32 64.5t10 67.5q0 44 -24 44q-14 0 -20 -14t-6 -54h-78q0 65 28.5 91.5t74.5 26.5q53 0 78 -25t25 -80z" />
    <glyph glyph-name="threesuperior" unicode="&#xb3;" 
d="M229 567q0 -18 -4.5 -37.5t-16 -35t-32 -26t-53.5 -10.5q-32 0 -52 8.5t-31.5 23.5t-16 34.5t-4.5 42.5v13h78v-18q0 -29 6.5 -41.5t19.5 -12.5q14 0 21 12t7 42v36q0 26 -10.5 41t-39.5 15h-15v60h19q26 0 35 18t9 46v28q0 26 -6.5 34.5t-18.5 8.5q-14 0 -19.5 -13.5
t-5.5 -36.5v-13h-78q0 54 25 83.5t81 29.5q59 0 79.5 -30.5t20.5 -85.5q0 -36 -12.5 -62t-53.5 -37q18 -6 31 -13.5t21 -20.5t12 -32.5t4 -50.5z" />
    <glyph glyph-name="acute" unicode="&#xb4;" horiz-adv-x="168" 
d="M95 597h-60l69 145h100z" />
    <glyph glyph-name="mu" unicode="&#xb5;" horiz-adv-x="355" 
d="M227 0l-3 46q-8 -29 -22 -41.5t-31 -12.5q-24 0 -37 18v-206h-94v700h94v-377q0 -33 9 -47.5t32 -14.5q20 0 33 15t13 48v376h94v-410q0 -18 0.5 -40.5t2.5 -53.5h-91z" />
    <glyph glyph-name="paragraph" unicode="&#xb6;" horiz-adv-x="400" 
d="M274 0v663h-62v-663h-78v410q-26 0 -48 12t-37.5 33t-24 49t-8.5 60q0 38 12 67.5t33 50t49.5 31t61.5 10.5h180v-723h-78z" />
    <glyph glyph-name="periodcentered" unicode="&#xb7;" horiz-adv-x="208" 
d="M45 240v118h118v-118h-118z" />
    <glyph glyph-name="cedilla" unicode="&#xb8;" horiz-adv-x="168" 
d="M185 -106q0 -32 -27 -54t-70 -22q-26 0 -44 5.5t-26 11.5l8 31q10 -5 20.5 -8.5t27.5 -3.5q25 0 35 10t10 25q0 17 -11 24.5t-27 7.5q-24 0 -44 -10l37 97h36l-19 -53q5 1 11 1.5t15 0.5q27 0 47.5 -16t20.5 -47z" />
    <glyph glyph-name="onesuperior" unicode="&#xb9;" 
d="M95 462v340h-2q-22 -27 -49 -45v66q17 14 31.5 32.5t25.5 39.5h72v-433h-78z" />
    <glyph glyph-name="ordmasculine" unicode="&#xba;" horiz-adv-x="240" 
d="M211 540q0 -63 -23 -90.5t-68 -27.5q-19 0 -35.5 5t-29 18t-19.5 34.5t-7 54.5v71q0 63 23 90.5t68 27.5q19 0 35.5 -5t29 -18t19.5 -34.5t7 -54.5v-71zM145 617q0 35 -5.5 47.5t-18.5 12.5q-15 0 -20.5 -12.5t-5.5 -47.5v-89q0 -35 5.5 -47.5t18.5 -12.5q15 0 20.5 12.5
t5.5 47.5v89z" />
    <glyph glyph-name="guillemotright" unicode="&#xbb;" horiz-adv-x="343" 
d="M237 55h-72l58 198l-58 198h72l80 -198zM98 55h-72l58 198l-58 198h72l80 -198z" />
    <glyph glyph-name="onequarter" unicode="&#xbc;" horiz-adv-x="555" 
d="M84 290v340h-2q-22 -27 -49 -45v66q6 4 14.5 13t17 20t15.5 21.5t10 17.5h72v-433h-78zM174 -12h-60l230 747h60zM494 100v-100h-78v100h-135v54l104 279h109v-279h28v-54h-28zM416 349h-2l-67 -195h69v195z" />
    <glyph glyph-name="onehalf" unicode="&#xbd;" horiz-adv-x="555" 
d="M84 290v340h-2q-22 -27 -49 -45v66q6 4 14.5 13t17 20t15.5 21.5t10 17.5h72v-433h-78zM163 -12h-60l230 747h60zM522 332q0 -34 -10.5 -65t-30.5 -64l-88 -143h128v-60h-209v60l90 151q22 35 32 64.5t10 67.5q0 44 -24 44q-14 0 -20 -14t-6 -54h-78q0 65 28.5 91.5
t74.5 26.5q53 0 78 -25t25 -80z" />
    <glyph glyph-name="threequarters" unicode="&#xbe;" horiz-adv-x="555" 
d="M204 -12h-60l230 747h60zM512 100v-100h-78v100h-135v54l104 279h109v-279h28v-54h-28zM434 349h-2l-67 -195h69v195zM225 395q0 -18 -4.5 -37.5t-16 -35t-32 -26t-53.5 -10.5q-32 0 -52 8.5t-31.5 23.5t-16 34.5t-4.5 42.5v13h78v-18q0 -29 6.5 -41.5t19.5 -12.5
q14 0 21 12t7 42v36q0 26 -10.5 41t-39.5 15h-15v60h19q26 0 35 18t9 46v28q0 26 -6.5 34.5t-18.5 8.5q-14 0 -19.5 -13.5t-5.5 -36.5v-13h-78q0 54 25 83.5t81 29.5q59 0 79.5 -30.5t20.5 -85.5q0 -36 -12.5 -62t-53.5 -37q18 -6 31 -13.5t21 -20.5t12 -32.5t4 -50.5z" />
    <glyph glyph-name="questiondown" unicode="&#xbf;" horiz-adv-x="355" 
d="M125 416v99h106v-99h-106zM317 -50q0 -158 -139 -158q-72 0 -102 33.5t-30 110.5q0 48 14.5 87t32 76t32 75.5t14.5 84.5v96h79v-107q0 -53 -12.5 -97t-27.5 -83.5t-27.5 -75t-12.5 -71.5q0 -64 41 -64q23 0 33.5 20.5t10.5 76.5v14h94v-18z" />
    <glyph glyph-name="Agrave" unicode="&#xc0;" horiz-adv-x="430" 
d="M322 0l-33 184h-152l-33 -184h-100l156 723h122l144 -723h-104zM217 616l-65 -348h123zM206 772l-109 145h100l69 -145h-60z" />
    <glyph glyph-name="Aacute" unicode="&#xc1;" horiz-adv-x="430" 
d="M322 0l-33 184h-152l-33 -184h-100l156 723h122l144 -723h-104zM217 616l-65 -348h123zM228 772h-60l69 145h100z" />
    <glyph glyph-name="Acircumflex" unicode="&#xc2;" horiz-adv-x="430" 
d="M322 0l-33 184h-152l-33 -184h-100l156 723h122l144 -723h-104zM217 616l-65 -348h123zM282 772l-65 81l-65 -81h-67l92 145h80l92 -145h-67z" />
    <glyph glyph-name="Atilde" unicode="&#xc3;" horiz-adv-x="430" 
d="M322 0l-33 184h-152l-33 -184h-100l156 723h122l144 -723h-104zM217 616l-65 -348h123zM364 903q-1 -17 -6 -36t-16.5 -35t-29 -27t-43.5 -11q-18 0 -34.5 6t-31 12.5t-26.5 12.5t-21 6q-12 0 -20.5 -13t-11.5 -30h-54q1 21 7 40.5t18 35t29.5 24.5t40.5 9q17 0 33 -6
t30.5 -12.5t27 -12.5t22.5 -6q24 0 32 43h54z" />
    <glyph glyph-name="Adieresis" unicode="&#xc4;" horiz-adv-x="430" 
d="M322 0l-33 184h-152l-33 -184h-100l156 723h122l144 -723h-104zM217 616l-65 -348h123zM255 797v100h78v-100h-78zM101 797v100h78v-100h-78z" />
    <glyph glyph-name="Aring" unicode="&#xc5;" horiz-adv-x="430" 
d="M322 0l-33 184h-152l-33 -184h-100l156 723h122l144 -723h-104zM217 616l-65 -348h123zM307 831q0 -38 -26 -64t-64 -26t-64 26t-26 64t26 64t64 26t64 -26t26 -64zM259 831q0 20 -12 33t-30 13t-30 -13t-12 -33t12 -33t30 -13t30 13t12 33z" />
    <glyph glyph-name="AE" unicode="&#xc6;" horiz-adv-x="604" 
d="M329 0l-14 184h-160l-51 -184h-100l224 723h360v-84h-220l20 -227h190v-84h-183l21 -244h172v-84h-259zM279 629l-100 -361h130z" />
    <glyph glyph-name="Ccedilla" unicode="&#xc7;" horiz-adv-x="393" 
d="M379 198q0 -44 -6.5 -82.5t-25 -66.5t-50.5 -44.5t-83 -16.5l-12 -33q5 1 11 1.5t15 0.5q27 0 47.5 -16t20.5 -47q0 -32 -27 -54t-70 -22q-26 0 -44 5.5t-26 11.5l8 31q10 -5 20.5 -8.5t27.5 -3.5q25 0 35 10t10 25q0 17 -11 24.5t-27 7.5q-24 0 -44 -10l30 79
q-55 7 -84.5 37.5t-43 79.5t-16 114.5t-2.5 143.5t3 145.5t20 117.5t53.5 78.5t104.5 28.5q52 0 84.5 -15t49.5 -42.5t23 -66t6 -86.5h-100q0 75 -16 103t-48 28q-29 0 -44 -19t-22.5 -55.5t-8.5 -91t-1 -125.5q0 -95 3 -153.5t12 -90.5t24.5 -43.5t39.5 -11.5q22 0 34.5 14
t18.5 34t7.5 43t1.5 41h102z" />
    <glyph glyph-name="Egrave" unicode="&#xc8;" horiz-adv-x="332" 
d="M44 0v723h272v-84h-172v-227h162v-82h-162v-246h172v-84h-272zM171 772l-109 145h100l69 -145h-60z" />
    <glyph glyph-name="Eacute" unicode="&#xc9;" horiz-adv-x="332" 
d="M44 0v723h272v-84h-172v-227h162v-82h-162v-246h172v-84h-272zM193 772h-60l69 145h100z" />
    <glyph glyph-name="Ecircumflex" unicode="&#xca;" horiz-adv-x="332" 
d="M44 0v723h272v-84h-172v-227h162v-82h-162v-246h172v-84h-272zM247 772l-65 81l-65 -81h-67l92 145h80l92 -145h-67z" />
    <glyph glyph-name="Edieresis" unicode="&#xcb;" horiz-adv-x="332" 
d="M44 0v723h272v-84h-172v-227h162v-82h-162v-246h172v-84h-272zM220 797v100h78v-100h-78zM66 797v100h78v-100h-78z" />
    <glyph glyph-name="Igrave" unicode="&#xcc;" horiz-adv-x="188" 
d="M44 0v723h100v-723h-100zM83 772l-109 145h100l69 -145h-60z" />
    <glyph glyph-name="Iacute" unicode="&#xcd;" horiz-adv-x="188" 
d="M44 0v723h100v-723h-100zM105 772h-60l69 145h100z" />
    <glyph glyph-name="Icircumflex" unicode="&#xce;" horiz-adv-x="188" 
d="M44 0v723h100v-723h-100zM159 772l-65 81l-65 -81h-67l92 145h80l92 -145h-67z" />
    <glyph glyph-name="Idieresis" unicode="&#xcf;" horiz-adv-x="188" 
d="M44 0v723h100v-723h-100zM132 797v100h78v-100h-78zM-22 797v100h78v-100h-78z" />
    <glyph glyph-name="Eth" unicode="&#xd0;" horiz-adv-x="418" 
d="M386 350q0 -87 -6.5 -152.5t-26.5 -109.5t-59 -66t-103 -22h-147v328h-36v84h36v311h147q70 0 109.5 -23.5t58.5 -68.5t23 -111t4 -152v-18zM282 370q0 68 -1.5 118.5t-9.5 83.5t-26.5 49t-51.5 16h-49v-225h67v-84h-67v-243h49q27 0 44.5 9.5t27 38t13.5 80.5t4 137v20z
" />
    <glyph glyph-name="Ntilde" unicode="&#xd1;" horiz-adv-x="472" 
d="M264 0l-128 637v-637h-92v723h164l128 -638v638h92v-723h-164zM380 903q-1 -17 -6 -36t-16.5 -35t-29 -27t-43.5 -11q-18 0 -34.5 6t-31 12.5t-26.5 12.5t-21 6q-12 0 -20.5 -13t-11.5 -30h-54q1 21 7 40.5t18 35t29.5 24.5t40.5 9q17 0 33 -6t30.5 -12.5t27 -12.5
t22.5 -6q24 0 32 43h54z" />
    <glyph glyph-name="Ograve" unicode="&#xd2;" horiz-adv-x="422" 
d="M390 365q0 -89 -3 -158.5t-19.5 -118.5t-53 -74.5t-103.5 -25.5t-103.5 26t-53 74.5t-19.5 118.5t-3 158q0 74 3 141t20.5 118t54 81t103.5 30q68 0 104.5 -26.5t52.5 -75.5t18 -117t2 -151zM286 365q0 72 -1.5 126.5t-8.5 91.5t-22 55.5t-43 18.5t-43.5 -21t-22.5 -59.5
t-8 -92.5t-1 -119q0 -78 1 -134.5t8 -93t22.5 -54t43.5 -17.5t43.5 20t22.5 58t8 93.5t1 127.5zM203 772l-109 145h100l69 -145h-60z" />
    <glyph glyph-name="Oacute" unicode="&#xd3;" horiz-adv-x="422" 
d="M390 365q0 -89 -3 -158.5t-19.5 -118.5t-53 -74.5t-103.5 -25.5t-103.5 26t-53 74.5t-19.5 118.5t-3 158q0 74 3 141t20.5 118t54 81t103.5 30q68 0 104.5 -26.5t52.5 -75.5t18 -117t2 -151zM286 365q0 72 -1.5 126.5t-8.5 91.5t-22 55.5t-43 18.5t-43.5 -21t-22.5 -59.5
t-8 -92.5t-1 -119q0 -78 1 -134.5t8 -93t22.5 -54t43.5 -17.5t43.5 20t22.5 58t8 93.5t1 127.5zM225 772h-60l69 145h100z" />
    <glyph glyph-name="Ocircumflex" unicode="&#xd4;" horiz-adv-x="422" 
d="M390 365q0 -89 -3 -158.5t-19.5 -118.5t-53 -74.5t-103.5 -25.5t-103.5 26t-53 74.5t-19.5 118.5t-3 158q0 74 3 141t20.5 118t54 81t103.5 30q68 0 104.5 -26.5t52.5 -75.5t18 -117t2 -151zM286 365q0 72 -1.5 126.5t-8.5 91.5t-22 55.5t-43 18.5t-43.5 -21t-22.5 -59.5
t-8 -92.5t-1 -119q0 -78 1 -134.5t8 -93t22.5 -54t43.5 -17.5t43.5 20t22.5 58t8 93.5t1 127.5zM279 772l-65 81l-65 -81h-67l92 145h80l92 -145h-67z" />
    <glyph glyph-name="Otilde" unicode="&#xd5;" horiz-adv-x="422" 
d="M390 365q0 -89 -3 -158.5t-19.5 -118.5t-53 -74.5t-103.5 -25.5t-103.5 26t-53 74.5t-19.5 118.5t-3 158q0 74 3 141t20.5 118t54 81t103.5 30q68 0 104.5 -26.5t52.5 -75.5t18 -117t2 -151zM286 365q0 72 -1.5 126.5t-8.5 91.5t-22 55.5t-43 18.5t-43.5 -21t-22.5 -59.5
t-8 -92.5t-1 -119q0 -78 1 -134.5t8 -93t22.5 -54t43.5 -17.5t43.5 20t22.5 58t8 93.5t1 127.5zM361 903q-1 -17 -6 -36t-16.5 -35t-29 -27t-43.5 -11q-18 0 -34.5 6t-31 12.5t-26.5 12.5t-21 6q-12 0 -20.5 -13t-11.5 -30h-54q1 21 7 40.5t18 35t29.5 24.5t40.5 9
q17 0 33 -6t30.5 -12.5t27 -12.5t22.5 -6q24 0 32 43h54z" />
    <glyph glyph-name="Odieresis" unicode="&#xd6;" horiz-adv-x="422" 
d="M390 365q0 -89 -3 -158.5t-19.5 -118.5t-53 -74.5t-103.5 -25.5t-103.5 26t-53 74.5t-19.5 118.5t-3 158q0 74 3 141t20.5 118t54 81t103.5 30q68 0 104.5 -26.5t52.5 -75.5t18 -117t2 -151zM286 365q0 72 -1.5 126.5t-8.5 91.5t-22 55.5t-43 18.5t-43.5 -21t-22.5 -59.5
t-8 -92.5t-1 -119q0 -78 1 -134.5t8 -93t22.5 -54t43.5 -17.5t43.5 20t22.5 58t8 93.5t1 127.5zM252 797v100h78v-100h-78zM98 797v100h78v-100h-78z" />
    <glyph glyph-name="multiply" unicode="&#xd7;" horiz-adv-x="516" 
d="M258 314l128 128l60 -59l-128 -128l128 -128l-60 -60l-128 128l-128 -128l-59 60l128 128l-128 128l59 59z" />
    <glyph glyph-name="Oslash" unicode="&#xd8;" horiz-adv-x="422" 
d="M390 365q0 -89 -3 -158.5t-19.5 -118.5t-53 -74.5t-103.5 -25.5q-65 0 -103 26l-24 -65l-49 19l33 89q-27 48 -31.5 126t-4.5 182q0 74 3 141t20.5 118t54 81t103.5 30q62 0 99 -23l22 58l48 -14l-31 -83q15 -24 23 -56t11.5 -71t4 -84.5t0.5 -96.5zM272 603
q-8 27 -22.5 40.5t-38.5 13.5q-28 0 -43.5 -21t-22.5 -59.5t-8 -92.5t-1 -119v-66t1 -58zM286 365v68t-1 59l-137 -369q8 -29 22.5 -43t40.5 -14q28 0 43.5 20t22.5 58t8 93.5t1 127.5z" />
    <glyph glyph-name="Ugrave" unicode="&#xd9;" horiz-adv-x="418" 
d="M376 178q0 -44 -8.5 -79t-28 -59.5t-51.5 -38t-78 -13.5q-47 0 -79.5 12.5t-52 37t-28 60t-8.5 80.5v545h100v-545q0 -25 2.5 -45.5t10 -35.5t20.5 -23t34 -8t34 8t20.5 23t10 35.5t2.5 45.5v545h100v-545zM197 772l-109 145h100l69 -145h-60z" />
    <glyph glyph-name="Uacute" unicode="&#xda;" horiz-adv-x="418" 
d="M376 178q0 -44 -8.5 -79t-28 -59.5t-51.5 -38t-78 -13.5q-47 0 -79.5 12.5t-52 37t-28 60t-8.5 80.5v545h100v-545q0 -25 2.5 -45.5t10 -35.5t20.5 -23t34 -8t34 8t20.5 23t10 35.5t2.5 45.5v545h100v-545zM219 772h-60l69 145h100z" />
    <glyph glyph-name="Ucircumflex" unicode="&#xdb;" horiz-adv-x="418" 
d="M376 178q0 -44 -8.5 -79t-28 -59.5t-51.5 -38t-78 -13.5q-47 0 -79.5 12.5t-52 37t-28 60t-8.5 80.5v545h100v-545q0 -25 2.5 -45.5t10 -35.5t20.5 -23t34 -8t34 8t20.5 23t10 35.5t2.5 45.5v545h100v-545zM273 772l-65 81l-65 -81h-67l92 145h80l92 -145h-67z" />
    <glyph glyph-name="Udieresis" unicode="&#xdc;" horiz-adv-x="418" 
d="M376 178q0 -44 -8.5 -79t-28 -59.5t-51.5 -38t-78 -13.5q-47 0 -79.5 12.5t-52 37t-28 60t-8.5 80.5v545h100v-545q0 -25 2.5 -45.5t10 -35.5t20.5 -23t34 -8t34 8t20.5 23t10 35.5t2.5 45.5v545h100v-545zM246 797v100h78v-100h-78zM92 797v100h78v-100h-78z" />
    <glyph glyph-name="Yacute" unicode="&#xdd;" horiz-adv-x="369" 
d="M234 296v-296h-100v296l-138 427h100l93 -321l90 321h94zM197 772h-60l69 145h100z" />
    <glyph glyph-name="Thorn" unicode="&#xde;" horiz-adv-x="406" 
d="M390 396q0 -58 -8.5 -97t-28.5 -62t-52 -33t-80 -10h-77v-194h-100v723h100v-121h76q45 0 77 -10t52.5 -34t30.5 -63.5t10 -98.5zM288 396q0 38 -5 62t-14.5 37.5t-24.5 18t-34 4.5h-66v-240h67q44 0 60.5 26.5t16.5 91.5z" />
    <glyph glyph-name="germandbls" unicode="&#xdf;" horiz-adv-x="412" 
d="M398 109q0 -57 -29 -88t-87 -31q-39 0 -61 12.5t-33 33.5t-13.5 49t-2.5 60h76q0 -46 4.5 -65t29.5 -19q17 0 24 10.5t7 30.5q0 41 -19 75t-43 65q-27 35 -51 68t-24 67q0 23 7.5 44.5t17.5 44.5q11 26 21 56t10 68q0 41 -9.5 60t-40.5 19q-33 0 -41 -25t-8 -69v-575h-94
v572q0 83 31.5 123t111.5 40q39 0 65 -9t41 -26t21.5 -41.5t6.5 -54.5q0 -32 -7 -59.5t-16 -51.5q-12 -32 -20.5 -58t-8.5 -46q0 -27 19.5 -54t43.5 -58q26 -34 48.5 -75t22.5 -93z" />
    <glyph glyph-name="agrave" unicode="&#xe0;" horiz-adv-x="352" 
d="M221 0l-2 33q-17 -25 -36.5 -33.5t-42.5 -8.5q-37 0 -60 12.5t-35.5 33.5t-16.5 49t-4 59q0 42 7.5 73t25.5 51.5t47 30t72 9.5h43v52q0 41 -6.5 62.5t-38.5 21.5q-18 0 -28 -8.5t-15 -22t-6.5 -30.5t-1.5 -33h-92q0 87 38.5 124t101.5 37q50 0 78.5 -12.5t42.5 -33.5
t17.5 -50t3.5 -62v-279q0 -23 0.5 -40.5t2.5 -34.5h-95zM219 242h-16q-45 0 -64 -21.5t-19 -75.5q0 -53 10.5 -71t37.5 -18q22 0 36.5 18.5t14.5 57.5v110zM160 597l-109 145h100l69 -145h-60z" />
    <glyph glyph-name="aacute" unicode="&#xe1;" horiz-adv-x="352" 
d="M221 0l-2 33q-17 -25 -36.5 -33.5t-42.5 -8.5q-37 0 -60 12.5t-35.5 33.5t-16.5 49t-4 59q0 42 7.5 73t25.5 51.5t47 30t72 9.5h43v52q0 41 -6.5 62.5t-38.5 21.5q-18 0 -28 -8.5t-15 -22t-6.5 -30.5t-1.5 -33h-92q0 87 38.5 124t101.5 37q50 0 78.5 -12.5t42.5 -33.5
t17.5 -50t3.5 -62v-279q0 -23 0.5 -40.5t2.5 -34.5h-95zM219 242h-16q-45 0 -64 -21.5t-19 -75.5q0 -53 10.5 -71t37.5 -18q22 0 36.5 18.5t14.5 57.5v110zM182 597h-60l69 145h100z" />
    <glyph glyph-name="acircumflex" unicode="&#xe2;" horiz-adv-x="352" 
d="M221 0l-2 33q-17 -25 -36.5 -33.5t-42.5 -8.5q-37 0 -60 12.5t-35.5 33.5t-16.5 49t-4 59q0 42 7.5 73t25.5 51.5t47 30t72 9.5h43v52q0 41 -6.5 62.5t-38.5 21.5q-18 0 -28 -8.5t-15 -22t-6.5 -30.5t-1.5 -33h-92q0 87 38.5 124t101.5 37q50 0 78.5 -12.5t42.5 -33.5
t17.5 -50t3.5 -62v-279q0 -23 0.5 -40.5t2.5 -34.5h-95zM219 242h-16q-45 0 -64 -21.5t-19 -75.5q0 -53 10.5 -71t37.5 -18q22 0 36.5 18.5t14.5 57.5v110zM236 597l-65 81l-65 -81h-67l92 145h80l92 -145h-67z" />
    <glyph glyph-name="atilde" unicode="&#xe3;" horiz-adv-x="352" 
d="M221 0l-2 33q-17 -25 -36.5 -33.5t-42.5 -8.5q-37 0 -60 12.5t-35.5 33.5t-16.5 49t-4 59q0 42 7.5 73t25.5 51.5t47 30t72 9.5h43v52q0 41 -6.5 62.5t-38.5 21.5q-18 0 -28 -8.5t-15 -22t-6.5 -30.5t-1.5 -33h-92q0 87 38.5 124t101.5 37q50 0 78.5 -12.5t42.5 -33.5
t17.5 -50t3.5 -62v-279q0 -23 0.5 -40.5t2.5 -34.5h-95zM219 242h-16q-45 0 -64 -21.5t-19 -75.5q0 -53 10.5 -71t37.5 -18q22 0 36.5 18.5t14.5 57.5v110zM318 728q-1 -17 -6 -36t-16.5 -35t-29 -27t-43.5 -11q-18 0 -34.5 6t-31 12.5t-26.5 12.5t-21 6q-12 0 -20.5 -13
t-11.5 -30h-54q1 21 7 40.5t18 35t29.5 24.5t40.5 9q17 0 33 -6t30.5 -12.5t27 -12.5t22.5 -6q24 0 32 43h54z" />
    <glyph glyph-name="adieresis" unicode="&#xe4;" horiz-adv-x="352" 
d="M221 0l-2 33q-17 -25 -36.5 -33.5t-42.5 -8.5q-37 0 -60 12.5t-35.5 33.5t-16.5 49t-4 59q0 42 7.5 73t25.5 51.5t47 30t72 9.5h43v52q0 41 -6.5 62.5t-38.5 21.5q-18 0 -28 -8.5t-15 -22t-6.5 -30.5t-1.5 -33h-92q0 87 38.5 124t101.5 37q50 0 78.5 -12.5t42.5 -33.5
t17.5 -50t3.5 -62v-279q0 -23 0.5 -40.5t2.5 -34.5h-95zM219 242h-16q-45 0 -64 -21.5t-19 -75.5q0 -53 10.5 -71t37.5 -18q22 0 36.5 18.5t14.5 57.5v110zM209 622v100h78v-100h-78zM55 622v100h78v-100h-78z" />
    <glyph glyph-name="aring" unicode="&#xe5;" horiz-adv-x="352" 
d="M221 0l-2 33q-17 -25 -36.5 -33.5t-42.5 -8.5q-37 0 -60 12.5t-35.5 33.5t-16.5 49t-4 59q0 42 7.5 73t25.5 51.5t47 30t72 9.5h43v52q0 41 -6.5 62.5t-38.5 21.5q-18 0 -28 -8.5t-15 -22t-6.5 -30.5t-1.5 -33h-92q0 87 38.5 124t101.5 37q50 0 78.5 -12.5t42.5 -33.5
t17.5 -50t3.5 -62v-279q0 -23 0.5 -40.5t2.5 -34.5h-95zM219 242h-16q-45 0 -64 -21.5t-19 -75.5q0 -53 10.5 -71t37.5 -18q22 0 36.5 18.5t14.5 57.5v110zM261 659q0 -38 -26 -64t-64 -26t-64 26t-26 64t26 64t64 26t64 -26t26 -64zM213 659q0 20 -12 33t-30 13t-30 -13
t-12 -33t12 -33t30 -13t30 13t12 33z" />
    <glyph glyph-name="ae" unicode="&#xe6;" horiz-adv-x="550" 
d="M314 228v-90q0 -47 13.5 -63t33.5 -16q25 0 37 22t12 61v15h94q0 -81 -36.5 -123t-107.5 -42q-33 0 -60 12t-40 41q-13 -24 -37 -38.5t-64 -14.5q-66 0 -99 33.5t-33 115.5q0 78 34 116t118 38h41v58q0 51 -9 71.5t-36 20.5q-17 0 -27.5 -8t-16 -21t-7 -29t-1.5 -32h-91
q0 34 7.5 63t23.5 50t42 32.5t64 11.5q22 0 37 -3t26 -9t19.5 -14.5t16.5 -19.5q16 23 38.5 34.5t57.5 11.5q48 0 76.5 -16t43.5 -44.5t19 -69t4 -89.5v-65h-193zM412 325q0 22 -0.5 44t-5 38.5t-14.5 27t-29 10.5q-17 0 -27 -9.5t-15 -25.5t-6 -36.5t-1 -41.5v-37h98v30z
M220 228q-28 0 -46.5 -3.5t-30 -13t-16.5 -25.5t-5 -41q0 -27 3 -44t9.5 -26.5t16.5 -12.5t23 -3q16 0 25 7.5t13.5 20.5t6 29t1.5 34v78z" />
    <glyph glyph-name="ccedilla" unicode="&#xe7;" horiz-adv-x="325" 
d="M313 164q0 -34 -5 -64.5t-20 -54t-42 -38t-71 -15.5l-13 -37q5 1 11 1.5t15 0.5q27 0 47.5 -16t20.5 -47q0 -32 -27 -54t-70 -22q-26 0 -44 5.5t-26 11.5l8 31q10 -5 20.5 -8.5t27.5 -3.5q25 0 35 10t10 25q0 17 -11 24.5t-27 7.5q-24 0 -44 -10l31 83q-42 6 -65 30
t-34.5 58.5t-13.5 76.5t-2 85q0 73 7.5 124t25 83t46 46.5t70.5 14.5q40 0 66.5 -11t42.5 -33t22.5 -54.5t6.5 -75.5v-7h-93v7q0 52 -8.5 79.5t-37.5 27.5q-14 0 -24 -7.5t-16 -29t-9 -61.5t-3 -105q0 -49 1.5 -84t7 -57t15 -32t25.5 -10q27 0 38 23t11 82v6h95v-6z" />
    <glyph glyph-name="egrave" unicode="&#xe8;" horiz-adv-x="336" 
d="M120 220v-26q0 -32 1 -57.5t5.5 -42.5t14.5 -26t28 -9q26 0 37 21t11 76h95q-2 -35 -9 -65t-23 -52t-42.5 -34.5t-68.5 -12.5q-53 0 -82 21.5t-43 55t-17 75t-3 81.5q0 63 3 116t17 91t43.5 59t82.5 21q56 0 85.5 -20t42.5 -57.5t14.5 -92t1.5 -122.5h-194zM217 288
q0 37 -0.5 66t-5 49.5t-14.5 31t-28 10.5t-28 -10.5t-14.5 -30.5t-5.5 -49t-1 -67h97zM157 597l-109 145h100l69 -145h-60z" />
    <glyph glyph-name="eacute" unicode="&#xe9;" horiz-adv-x="336" 
d="M120 220v-26q0 -32 1 -57.5t5.5 -42.5t14.5 -26t28 -9q26 0 37 21t11 76h95q-2 -35 -9 -65t-23 -52t-42.5 -34.5t-68.5 -12.5q-53 0 -82 21.5t-43 55t-17 75t-3 81.5q0 63 3 116t17 91t43.5 59t82.5 21q56 0 85.5 -20t42.5 -57.5t14.5 -92t1.5 -122.5h-194zM217 288
q0 37 -0.5 66t-5 49.5t-14.5 31t-28 10.5t-28 -10.5t-14.5 -30.5t-5.5 -49t-1 -67h97zM179 597h-60l69 145h100z" />
    <glyph glyph-name="ecircumflex" unicode="&#xea;" horiz-adv-x="336" 
d="M120 220v-26q0 -32 1 -57.5t5.5 -42.5t14.5 -26t28 -9q26 0 37 21t11 76h95q-2 -35 -9 -65t-23 -52t-42.5 -34.5t-68.5 -12.5q-53 0 -82 21.5t-43 55t-17 75t-3 81.5q0 63 3 116t17 91t43.5 59t82.5 21q56 0 85.5 -20t42.5 -57.5t14.5 -92t1.5 -122.5h-194zM217 288
q0 37 -0.5 66t-5 49.5t-14.5 31t-28 10.5t-28 -10.5t-14.5 -30.5t-5.5 -49t-1 -67h97zM233 597l-65 81l-65 -81h-67l92 145h80l92 -145h-67z" />
    <glyph glyph-name="edieresis" unicode="&#xeb;" horiz-adv-x="336" 
d="M120 220v-26q0 -32 1 -57.5t5.5 -42.5t14.5 -26t28 -9q26 0 37 21t11 76h95q-2 -35 -9 -65t-23 -52t-42.5 -34.5t-68.5 -12.5q-53 0 -82 21.5t-43 55t-17 75t-3 81.5q0 63 3 116t17 91t43.5 59t82.5 21q56 0 85.5 -20t42.5 -57.5t14.5 -92t1.5 -122.5h-194zM217 288
q0 37 -0.5 66t-5 49.5t-14.5 31t-28 10.5t-28 -10.5t-14.5 -30.5t-5.5 -49t-1 -67h97zM206 622v100h78v-100h-78zM52 622v100h78v-100h-78z" />
    <glyph glyph-name="igrave" unicode="&#xec;" horiz-adv-x="174" 
d="M40 0v504h94v-504h-94zM76 597l-109 145h100l69 -145h-60z" />
    <glyph glyph-name="iacute" unicode="&#xed;" horiz-adv-x="174" 
d="M40 0v504h94v-504h-94zM98 597h-60l69 145h100z" />
    <glyph glyph-name="icircumflex" unicode="&#xee;" horiz-adv-x="174" 
d="M40 0v504h94v-504h-94zM152 597l-65 81l-65 -81h-67l92 145h80l92 -145h-67z" />
    <glyph glyph-name="idieresis" unicode="&#xef;" horiz-adv-x="174" 
d="M40 0v504h94v-504h-94zM125 622v100h78v-100h-78zM-29 622v100h78v-100h-78z" />
    <glyph glyph-name="eth" unicode="&#xf0;" horiz-adv-x="341" 
d="M248 632q41 -63 53.5 -166t12.5 -238q0 -43 -2.5 -85.5t-16 -76t-43 -54t-83.5 -20.5q-53 0 -82 18.5t-43 51t-17 75.5t-3 91q0 57 2.5 105.5t16 83.5t43 55t83.5 20q14 0 29 -4t24 -10q0 12 -3 27.5t-8.5 32t-12.5 31.5t-14 26l-69 -40l-33 37l71 41q-35 31 -84 48
l66 40q48 -16 83 -51l67 39l32 -37zM218 228q0 61 -0.5 99.5t-5 60.5t-14.5 29.5t-28 7.5q-17 0 -26.5 -8t-15 -29.5t-7 -60t-1.5 -99.5q0 -51 1.5 -83.5t6.5 -51.5t14.5 -26.5t26.5 -7.5q18 0 28 7.5t14.5 26.5t5.5 51.5t1 83.5z" />
    <glyph glyph-name="ntilde" unicode="&#xf1;" horiz-adv-x="354" 
d="M221 0v379q0 27 -7.5 43.5t-33.5 16.5q-20 0 -33 -15t-13 -48v-376h-94v410q0 18 -0.5 40.5t-2.5 53.5h91l3 -46q14 25 36.5 39.5t55.5 14.5q27 0 44.5 -8.5t28 -23t15 -34.5t4.5 -43v-403h-94zM323 728q-1 -17 -6 -36t-16.5 -35t-29 -27t-43.5 -11q-18 0 -34.5 6
t-31 12.5t-26.5 12.5t-21 6q-12 0 -20.5 -13t-11.5 -30h-54q1 21 7 40.5t18 35t29.5 24.5t40.5 9q17 0 33 -6t30.5 -12.5t27 -12.5t22.5 -6q24 0 32 43h54z" />
    <glyph glyph-name="ograve" unicode="&#xf2;" horiz-adv-x="338" 
d="M314 238q0 -43 -2.5 -87t-16 -79t-43 -57.5t-83.5 -22.5q-53 0 -82 20.5t-43 54.5t-17 78.5t-3 92.5q0 57 2.5 107t16 87t43 58.5t83.5 21.5t83.5 -20t43 -56t16 -86.5t2.5 -111.5zM218 238q0 61 -0.5 101.5t-5 63.5t-14.5 32.5t-28 9.5q-17 0 -26.5 -9.5t-15 -33
t-7 -63.5t-1.5 -101q0 -51 1.5 -85t6.5 -55t14.5 -30t26.5 -9q18 0 28 9t14.5 30t5.5 55t1 85zM158 597l-109 145h100l69 -145h-60z" />
    <glyph glyph-name="oacute" unicode="&#xf3;" horiz-adv-x="338" 
d="M314 238q0 -43 -2.5 -87t-16 -79t-43 -57.5t-83.5 -22.5q-53 0 -82 20.5t-43 54.5t-17 78.5t-3 92.5q0 57 2.5 107t16 87t43 58.5t83.5 21.5t83.5 -20t43 -56t16 -86.5t2.5 -111.5zM218 238q0 61 -0.5 101.5t-5 63.5t-14.5 32.5t-28 9.5q-17 0 -26.5 -9.5t-15 -33
t-7 -63.5t-1.5 -101q0 -51 1.5 -85t6.5 -55t14.5 -30t26.5 -9q18 0 28 9t14.5 30t5.5 55t1 85zM180 597h-60l69 145h100z" />
    <glyph glyph-name="ocircumflex" unicode="&#xf4;" horiz-adv-x="338" 
d="M314 238q0 -43 -2.5 -87t-16 -79t-43 -57.5t-83.5 -22.5q-53 0 -82 20.5t-43 54.5t-17 78.5t-3 92.5q0 57 2.5 107t16 87t43 58.5t83.5 21.5t83.5 -20t43 -56t16 -86.5t2.5 -111.5zM218 238q0 61 -0.5 101.5t-5 63.5t-14.5 32.5t-28 9.5q-17 0 -26.5 -9.5t-15 -33
t-7 -63.5t-1.5 -101q0 -51 1.5 -85t6.5 -55t14.5 -30t26.5 -9q18 0 28 9t14.5 30t5.5 55t1 85zM234 597l-65 81l-65 -81h-67l92 145h80l92 -145h-67z" />
    <glyph glyph-name="otilde" unicode="&#xf5;" horiz-adv-x="338" 
d="M314 238q0 -43 -2.5 -87t-16 -79t-43 -57.5t-83.5 -22.5q-53 0 -82 20.5t-43 54.5t-17 78.5t-3 92.5q0 57 2.5 107t16 87t43 58.5t83.5 21.5t83.5 -20t43 -56t16 -86.5t2.5 -111.5zM218 238q0 61 -0.5 101.5t-5 63.5t-14.5 32.5t-28 9.5q-17 0 -26.5 -9.5t-15 -33
t-7 -63.5t-1.5 -101q0 -51 1.5 -85t6.5 -55t14.5 -30t26.5 -9q18 0 28 9t14.5 30t5.5 55t1 85zM316 728q-1 -17 -6 -36t-16.5 -35t-29 -27t-43.5 -11q-18 0 -34.5 6t-31 12.5t-26.5 12.5t-21 6q-12 0 -20.5 -13t-11.5 -30h-54q1 21 7 40.5t18 35t29.5 24.5t40.5 9
q17 0 33 -6t30.5 -12.5t27 -12.5t22.5 -6q24 0 32 43h54z" />
    <glyph glyph-name="odieresis" unicode="&#xf6;" horiz-adv-x="338" 
d="M314 238q0 -43 -2.5 -87t-16 -79t-43 -57.5t-83.5 -22.5q-53 0 -82 20.5t-43 54.5t-17 78.5t-3 92.5q0 57 2.5 107t16 87t43 58.5t83.5 21.5t83.5 -20t43 -56t16 -86.5t2.5 -111.5zM218 238q0 61 -0.5 101.5t-5 63.5t-14.5 32.5t-28 9.5q-17 0 -26.5 -9.5t-15 -33
t-7 -63.5t-1.5 -101q0 -51 1.5 -85t6.5 -55t14.5 -30t26.5 -9q18 0 28 9t14.5 30t5.5 55t1 85zM207 622v100h78v-100h-78zM53 622v100h78v-100h-78z" />
    <glyph glyph-name="divide" unicode="&#xf7;" horiz-adv-x="516" 
d="M45 295h426v-84h-426v84zM199 506h118v-118h-118v118zM199 118h118v-118h-118v118z" />
    <glyph glyph-name="oslash" unicode="&#xf8;" horiz-adv-x="338" 
d="M314 238q0 -43 -2.5 -87t-16 -79t-43 -57.5t-83.5 -22.5q-26 0 -45 5t-34 14l-24 -57l-41 16l31 73q-23 35 -27.5 86.5t-4.5 108.5t2.5 107t16 87t43 58.5t83.5 21.5q48 0 76 -16l25 59l41 -16l-31 -73q25 -35 29.5 -93.5t4.5 -134.5zM210 412q-5 18 -14 25.5t-26 7.5
t-26.5 -9.5t-15 -33t-7 -63.5t-1.5 -101v-41zM218 316l-91 -216q10 -41 42 -41q18 0 28 9t14.5 30t5.5 55t1 85v78z" />
    <glyph glyph-name="ugrave" unicode="&#xf9;" horiz-adv-x="354" 
d="M226 0l-3 46q-14 -25 -36.5 -39.5t-55.5 -14.5q-27 0 -45 8.5t-28.5 23t-14.5 34.5t-4 43v403h94v-379q0 -27 7.5 -43.5t33.5 -16.5q20 0 33 15t13 48v376h94v-410q0 -18 0.5 -40.5t2.5 -53.5h-91zM166 597l-109 145h100l69 -145h-60z" />
    <glyph glyph-name="uacute" unicode="&#xfa;" horiz-adv-x="354" 
d="M226 0l-3 46q-14 -25 -36.5 -39.5t-55.5 -14.5q-27 0 -45 8.5t-28.5 23t-14.5 34.5t-4 43v403h94v-379q0 -27 7.5 -43.5t33.5 -16.5q20 0 33 15t13 48v376h94v-410q0 -18 0.5 -40.5t2.5 -53.5h-91zM188 597h-60l69 145h100z" />
    <glyph glyph-name="ucircumflex" unicode="&#xfb;" horiz-adv-x="354" 
d="M226 0l-3 46q-14 -25 -36.5 -39.5t-55.5 -14.5q-27 0 -45 8.5t-28.5 23t-14.5 34.5t-4 43v403h94v-379q0 -27 7.5 -43.5t33.5 -16.5q20 0 33 15t13 48v376h94v-410q0 -18 0.5 -40.5t2.5 -53.5h-91zM242 597l-65 81l-65 -81h-67l92 145h80l92 -145h-67z" />
    <glyph glyph-name="udieresis" unicode="&#xfc;" horiz-adv-x="354" 
d="M226 0l-3 46q-14 -25 -36.5 -39.5t-55.5 -14.5q-27 0 -45 8.5t-28.5 23t-14.5 34.5t-4 43v403h94v-379q0 -27 7.5 -43.5t33.5 -16.5q20 0 33 15t13 48v376h94v-410q0 -18 0.5 -40.5t2.5 -53.5h-91zM215 622v100h78v-100h-78zM61 622v100h78v-100h-78z" />
    <glyph glyph-name="yacute" unicode="&#xfd;" horiz-adv-x="339" 
d="M179 -196h-88l37 171l-126 529h104l72 -383l59 383h101zM186 597h-60l69 145h100z" />
    <glyph glyph-name="thorn" unicode="&#xfe;" horiz-adv-x="355" 
d="M331 260q0 -137 -25 -202.5t-94 -65.5q-27 0 -45.5 8.5t-32.5 28.5v-225h-94v919h94v-253q15 23 35 32.5t45 9.5q33 0 55.5 -13t36 -43t19.5 -78t6 -118zM235 260q0 56 -2 91.5t-7.5 55.5t-16 27.5t-26.5 7.5t-25.5 -8.5t-15 -22.5t-7 -31.5t-1.5 -35.5v-166
q0 -57 9.5 -90t41.5 -33q16 0 26 8.5t15.5 31.5t7 63t1.5 102z" />
    <glyph glyph-name="ydieresis" unicode="&#xff;" horiz-adv-x="339" 
d="M179 -196h-88l37 171l-126 529h104l72 -383l59 383h101zM213 622v100h78v-100h-78zM59 622v100h78v-100h-78z" />
    <glyph glyph-name=".null" horiz-adv-x="567" 
 />
    <glyph glyph-name="grave.cap" horiz-adv-x="168" 
d="M73 772l-109 145h100l69 -145h-60z" />
    <glyph glyph-name="acute.cap" horiz-adv-x="168" 
d="M95 772h-60l69 145h100z" />
    <glyph glyph-name="circumflex.cap" horiz-adv-x="168" 
d="M149 772l-65 81l-65 -81h-67l92 145h80l92 -145h-67z" />
    <glyph glyph-name="caron.cap" horiz-adv-x="168" 
d="M124 772h-80l-92 145h67l65 -81l65 81h67z" />
    <glyph glyph-name="caron.alt" horiz-adv-x="172" 
d="M111 526h-70l16 197h99z" />
    <glyph glyph-name="tilde.cap" horiz-adv-x="168" 
d="M231 903q-1 -17 -6 -36t-16.5 -35t-29 -27t-43.5 -11q-18 0 -34.5 6t-31 12.5t-26.5 12.5t-21 6q-12 0 -20.5 -13t-11.5 -30h-54q1 21 7 40.5t18 35t29.5 24.5t40.5 9q17 0 33 -6t30.5 -12.5t27 -12.5t22.5 -6q24 0 32 43h54z" />
    <glyph glyph-name="dieresis.cap" horiz-adv-x="168" 
d="M122 797v100h78v-100h-78zM-32 797v100h78v-100h-78z" />
    <glyph glyph-name="macron.cap" horiz-adv-x="168" 
d="M-48 820v54h264v-54h-264z" />
    <glyph glyph-name="breve.cap" horiz-adv-x="168" 
d="M208 903q-4 -56 -34 -93t-90 -37q-35 0 -58 11t-37 29t-21 41.5t-8 48.5h49q4 -30 24 -50t51 -20q35 0 54 22t21 48h49z" />
    <glyph glyph-name="ring.cap" horiz-adv-x="168" 
d="M174 831q0 -38 -26 -64t-64 -26t-64 26t-26 64t26 64t64 26t64 -26t26 -64zM126 831q0 20 -12 33t-30 13t-30 -13t-12 -33t12 -33t30 -13t30 13t12 33z" />
    <glyph glyph-name="hungarumlaut.cap" horiz-adv-x="168" 
d="M174 772h-60l69 145h100zM15 772h-60l69 145h100z" />
    <glyph glyph-name="dotaccent.cap" horiz-adv-x="168" 
d="M45 797v100h78v-100h-78z" />
    <glyph glyph-name="commaaccent" horiz-adv-x="172" 
d="M86 -212h-70l23 163h94z" />
    <glyph glyph-name="commaaccent.alt" horiz-adv-x="354" 
d="M183 742h68l-27 -145h-88z" />
    <glyph glyph-name="zero.prop" horiz-adv-x="416" 
d="M25 362q0 79 4.5 147t22.5 118t53.5 79t97.5 29q64 0 99.5 -28t53 -78t21.5 -118.5t4 -148.5q0 -79 -4 -147t-21.5 -118.5t-53 -79.5t-99.5 -29t-99.5 29t-53 79.5t-21.5 118.5t-4 147zM283 362q0 90 -3.5 148t-12.5 91t-24.5 45.5t-39.5 12.5t-39.5 -13.5t-24.5 -47
t-12.5 -91t-3.5 -145.5t3.5 -145.5t12.5 -91.5t24.5 -47.5t39.5 -13.5q25 0 40.5 13.5t24.5 47.5t12 91.5t3 145.5z" />
    <glyph glyph-name="one.prop" horiz-adv-x="300" 
d="M125 0v589q-23 -23 -42.5 -38t-45.5 -31v99q30 23 55.5 47t46.5 57h82v-723h-96z" />
    <glyph glyph-name="two.prop" horiz-adv-x="416" 
d="M364 568q0 -41 -4.5 -75.5t-15 -66.5t-27 -64.5t-39.5 -68.5l-135 -210h218v-83h-336v77l175 266q20 30 33 57t20.5 54t10.5 56t3 62q0 46 -16 66.5t-48 20.5q-24 0 -38 -11t-22 -29t-10.5 -41t-2.5 -47h-96q0 102 43 153t125 51q85 0 123.5 -43t38.5 -124z" />
    <glyph glyph-name="three.prop" horiz-adv-x="416" 
d="M376 204q0 -46 -8 -85.5t-27.5 -68.5t-52.5 -45.5t-82 -16.5q-92 0 -130 48.5t-38 142.5v10h97v-10q0 -21 2.5 -41.5t10 -36.5t21 -26t34.5 -10q41 0 58.5 35.5t17.5 101.5q0 24 -3.5 48t-13 42.5t-27.5 30.5t-46 12h-59v78h58q27 0 44 9.5t26 26t12 40t3 50.5
q0 120 -66 120q-35 0 -54.5 -27.5t-19.5 -91.5v-12h-95v14q0 88 42.5 140.5t123.5 52.5q49 0 81 -15.5t50.5 -41.5t25.5 -61t7 -74q0 -30 -4.5 -57t-16.5 -49t-31.5 -39t-49.5 -27q58 -15 84 -52t26 -115z" />
    <glyph glyph-name="four.prop" horiz-adv-x="416" 
d="M329 176v-176h-98v176h-191v77l166 470h123v-473h45v-74h-45zM235 593l-113 -343h113v343z" />
    <glyph glyph-name="five.prop" horiz-adv-x="416" 
d="M386 245q0 -49 -6.5 -95t-25 -82t-53 -58t-90.5 -22q-79 0 -122.5 49.5t-43.5 136.5v21h95v-14q0 -54 19 -85.5t54 -31.5q42 0 59 46.5t17 139.5q0 76 -18.5 111t-57.5 35q-32 0 -50 -24.5t-25 -77.5h-92l7 429h298v-79h-204l-7 -215q37 43 94 43q76 0 114 -53t38 -174z
" />
    <glyph glyph-name="six.prop" horiz-adv-x="416" 
d="M388 243q0 -129 -43.5 -192t-128.5 -63q-64 0 -100 26.5t-53.5 75.5t-21.5 118t-4 154q0 71 4 138.5t22 119.5t54 83.5t101 31.5q53 0 84.5 -17.5t48 -45t22 -61t8.5 -64.5h-95q-1 35 -6 57t-13.5 34.5t-20.5 17t-27 4.5q-26 0 -41.5 -15t-24.5 -46.5t-13 -79.5t-7 -114
q16 29 41.5 46t68.5 17q33 0 59.5 -12t45.5 -39t29.5 -70t10.5 -104zM293 243q0 29 -2.5 56t-10 47.5t-23 33t-40.5 12.5q-24 0 -39.5 -12t-24.5 -32.5t-12 -47.5t-3 -57q0 -29 2 -60.5t10 -57.5t23.5 -43.5t42.5 -17.5q28 0 43.5 15.5t23 41t9 57.5t1.5 65z" />
    <glyph glyph-name="seven.prop" horiz-adv-x="326" 
d="M153 0h-106l163 638h-220v85h318v-70z" />
    <glyph glyph-name="eight.prop" horiz-adv-x="416" 
d="M382 203q0 -49 -10 -89t-31 -68t-54 -43t-79 -15q-47 0 -80 15.5t-54 43.5t-30.5 67.5t-9.5 88.5q0 37 6 63.5t18.5 46t32 33t46.5 23.5q-51 16 -74 54t-23 110q0 100 42 151t126 51q82 0 125 -49.5t43 -152.5q0 -71 -25 -107.5t-79 -54.5q29 -8 50 -20t34.5 -32
t19.5 -48.5t6 -67.5zM282 543q0 55 -18.5 85.5t-55.5 30.5q-34 0 -54 -31t-20 -85q0 -68 15 -99.5t59 -31.5q43 0 58.5 34t15.5 97zM286 208q0 66 -20.5 97t-57.5 31q-36 0 -57 -31t-21 -97q0 -80 19 -112t59 -32q38 0 58 32t20 112z" />
    <glyph glyph-name="nine.prop" horiz-adv-x="416" 
d="M379 361q0 -79 -5 -147t-23.5 -118.5t-54.5 -79t-98 -28.5q-51 0 -82.5 17t-49.5 45.5t-24.5 65t-6.5 74.5v6h96v-9q0 -36 5 -60t14 -38t21 -20t26 -6q50 0 68 61t18 178v36q-16 -30 -41.5 -46.5t-68.5 -16.5q-66 0 -105.5 54t-39.5 155q0 128 42.5 189.5t127.5 61.5
q63 0 99 -26.5t54 -75.5t23 -118t5 -154zM279 500q0 29 -3 57.5t-12 51t-24.5 36.5t-39.5 14q-26 0 -41 -15t-23.5 -39t-11 -53.5t-2.5 -59.5q0 -21 2.5 -45.5t11 -45.5t23.5 -35.5t41 -14.5q24 0 39.5 13t24.5 34.5t12 48t3 53.5z" />
    <glyph glyph-name="Euro.prop" horiz-adv-x="416" 
d="M28 267l9 63h62v78h-69l9 63h60q6 129 55 196.5t140 67.5q37 0 63 -12t40 -28l-15 -87q-12 22 -34 36t-53 14q-19 0 -36 -8t-30.5 -29t-22 -57.5t-9.5 -92.5h159l-9 -63h-150v-78h137l-9 -63h-128q1 -62 7.5 -101t19 -61.5t29.5 -30.5t39 -8q32 0 56 15t35 32v-95
q-8 -7 -31 -18.5t-63 -11.5q-48 0 -82.5 15t-57 48t-34.5 86t-15 130h-72z" />
    <glyph glyph-name="cent.prop" horiz-adv-x="371" 
d="M332 164q0 -32 -4.5 -60.5t-17 -51.5t-35 -38.5t-58.5 -19.5v-81h-54v81q-44 6 -68 29.5t-35.5 58t-14 77t-2.5 85.5q0 66 6 114t20.5 80.5t37.5 49.5t56 22v81h54v-80q65 -7 89 -50.5t24 -122.5v-7h-93v7q0 52 -8.5 79.5t-37.5 27.5q-14 0 -24 -7.5t-16 -29t-9 -61.5
t-3 -105q0 -49 1.5 -84t7 -57t15 -32t25.5 -10q27 0 38 23t11 82v6h95v-6z" />
    <glyph glyph-name="dollar.prop" horiz-adv-x="416" 
d="M366 169q0 -37 -6.5 -68t-22 -55t-40.5 -38.5t-62 -18.5v-79h-57v80q-41 5 -66 24.5t-39.5 49t-19.5 68t-5 80.5h95q0 -28 1.5 -54.5t7.5 -46.5t18.5 -32.5t35.5 -12.5q35 0 49 28t14 76q0 27 -8 53t-39 55l-89 84q-26 24 -41.5 46t-24 45t-11.5 48.5t-3 57.5
q0 81 32.5 123t92.5 51v72h57v-71q42 -4 67.5 -21.5t40 -45.5t19 -64.5t4.5 -76.5h-95q0 69 -12.5 100t-48.5 31q-34 0 -48 -25.5t-14 -72.5q0 -34 10 -61.5t44 -61.5l102 -100q35 -34 48.5 -72t13.5 -95z" />
    <glyph glyph-name="sterling.prop" horiz-adv-x="416" 
d="M299 523q0 36 -1.5 61.5t-7.5 41.5t-18 23.5t-33 7.5q-40 0 -51 -25t-11 -75v-134h95v-66h-95v-279h210v-78h-351v78h46v279h-58v66h58v111q0 44 6.5 81t23.5 63.5t46.5 41.5t76.5 15q54 0 85.5 -16t48 -44t21.5 -67t5 -85h-96z" />
    <glyph glyph-name="florin.prop" horiz-adv-x="320" 
d="M299 668q-5 1 -10 1h-10q-13 0 -21 -2.5t-13.5 -11.5t-9 -26.5t-6.5 -47.5l-10 -87h64l-7 -66h-64l-54 -484q-3 -32 -9.5 -54.5t-18 -37t-30.5 -21.5t-48 -7q-16 0 -28 1t-23 3l6 64q8 -2 15 -2q13 0 21 2.5t13.5 10.5t9 23.5t6.5 42.5l52 459h-62l7 66h62l14 128
q6 55 25.5 84t62.5 29q18 0 36.5 -2t35.5 -4z" />
    <glyph glyph-name="yen.prop" horiz-adv-x="416" 
d="M272 365h86v-63h-103v-78h103v-63h-103v-161h-94v161h-103v63h103v78h-103v63h84l-108 358h94l81 -315l86 315h87z" />
    <glyph glyph-name="zero.numerator" 
d="M235 507q0 -54 -3.5 -95.5t-15 -69.5t-33 -42t-58.5 -14t-59 14t-33 42t-14.5 69.5t-3.5 95.5t4.5 95t16.5 69t33.5 42t55.5 14q37 0 59 -14t33 -42t14.5 -69t3.5 -95zM155 507q0 51 -1 83.5t-4 52t-9 27t-16 7.5t-16 -7.5t-9 -27t-4 -52t-1 -83.5t1 -84t4 -52.5t9 -27
t16 -7.5t16 7.5t9 27t4 52.5t1 84z" />
    <glyph glyph-name="one.numerator" 
d="M95 290v340h-2q-22 -27 -49 -45v66q17 14 31.5 32.5t25.5 39.5h72v-433h-78z" />
    <glyph glyph-name="two.numerator" 
d="M231 622q0 -34 -10.5 -65t-30.5 -64l-88 -143h128v-60h-209v60l90 151q22 35 32 64.5t10 67.5q0 44 -24 44q-14 0 -20 -14t-6 -54h-78q0 65 28.5 91.5t74.5 26.5q53 0 78 -25t25 -80z" />
    <glyph glyph-name="three.numerator" 
d="M229 395q0 -18 -4.5 -37.5t-16 -35t-32 -26t-53.5 -10.5q-32 0 -52 8.5t-31.5 23.5t-16 34.5t-4.5 42.5v13h78v-18q0 -29 6.5 -41.5t19.5 -12.5q14 0 21 12t7 42v36q0 26 -10.5 41t-39.5 15h-15v60h19q26 0 35 18t9 46v28q0 26 -6.5 34.5t-18.5 8.5q-14 0 -19.5 -13.5
t-5.5 -36.5v-13h-78q0 54 25 83.5t81 29.5q59 0 79.5 -30.5t20.5 -85.5q0 -36 -12.5 -62t-53.5 -37q18 -6 31 -13.5t21 -20.5t12 -32.5t4 -50.5z" />
    <glyph glyph-name="four.numerator" horiz-adv-x="240" 
d="M212 390v-100h-78v100h-135v54l104 279h109v-279h28v-54h-28zM134 639h-2l-67 -195h69v195z" />
    <glyph glyph-name="five.numerator" horiz-adv-x="240" 
d="M231 440q0 -42 -5.5 -71.5t-18 -48t-33 -26.5t-51.5 -8q-57 0 -80.5 27t-23.5 84v15h78v-10q0 -40 7 -53.5t20 -13.5q7 0 12.5 2t9.5 9t5.5 20t1.5 34v72q0 34 -8 44t-20 10q-13 0 -20 -12t-9 -49h-76l4 258h188v-51h-113l-3 -115q9 8 21.5 13.5t30.5 5.5q22 0 37.5 -6
t25.5 -21t15 -41.5t5 -67.5z" />
    <glyph glyph-name="six.numerator" 
d="M234 436q0 -44 -7 -73t-20.5 -46t-33.5 -24t-46 -7q-36 0 -57.5 10.5t-33.5 35.5t-15.5 67t-3.5 106q0 56 3.5 98t15.5 69.5t34 41t58 13.5q60 0 81 -30t21 -83h-78q0 35 -5.5 49t-17.5 14q-8 0 -14 -5t-10 -19t-6 -39.5t-2 -66.5q8 10 20 16.5t29 6.5q40 0 64 -30
t24 -104zM156 428q0 56 -7 74.5t-22 18.5t-22 -18.5t-7 -74.5t7 -74.5t22 -18.5t22 18.5t7 74.5z" />
    <glyph glyph-name="seven.numerator" 
d="M138 290h-83l88 371h-119v62h199v-50z" />
    <glyph glyph-name="eight.numerator" 
d="M234 408q0 -63 -25.5 -92.5t-83.5 -29.5q-59 0 -84 29.5t-25 92.5q0 27 4 44.5t11.5 29t19 18t26.5 11.5q-15 4 -25.5 10.5t-17.5 18t-10.5 28t-3.5 41.5q0 63 26.5 90.5t78.5 27.5q51 0 78 -26t27 -92q0 -27 -4 -44t-11.5 -27.5t-19 -16t-26.5 -10.5q17 -4 29 -10
t20 -17.5t12 -30t4 -45.5zM153 613q0 38 -6 51t-22 13q-14 0 -21 -13.5t-7 -50.5q0 -23 1.5 -38t5 -23t8.5 -11t13 -3q16 0 22 15.5t6 59.5zM155 416q0 44 -7.5 58.5t-22.5 14.5q-14 0 -22 -14.5t-8 -58.5q0 -27 1.5 -43t5.5 -24.5t9.5 -11t13.5 -2.5q7 0 13 3t9.5 11.5
t5.5 24.5t2 42z" />
    <glyph glyph-name="nine.numerator" 
d="M233 505q0 -63 -4.5 -105t-16.5 -67.5t-34 -36t-57 -10.5q-32 0 -51.5 8.5t-30.5 24.5t-15 37.5t-4 48.5v5h78v-7q0 -41 6 -54.5t18 -13.5q19 0 25 26t6 98v18q-5 -12 -19 -18.5t-30 -6.5q-42 0 -65 32.5t-23 91.5q0 44 6.5 73t20 46.5t33.5 24.5t47 7q38 0 60 -12
t33 -38.5t14 -69t3 -102.5zM152 589q0 53 -7 70.5t-22 17.5t-22 -17.5t-7 -70.5t7 -70.5t22 -17.5t22 17.5t7 70.5z" />
    <glyph glyph-name="zero.denominator" 
d="M235 217q0 -54 -3.5 -95.5t-15 -69.5t-33 -42t-58.5 -14t-59 14t-33 42t-14.5 69.5t-3.5 95.5t4.5 95t16.5 69t33.5 42t55.5 14q37 0 59 -14t33 -42t14.5 -69t3.5 -95zM155 217q0 51 -1 83.5t-4 52t-9 27t-16 7.5t-16 -7.5t-9 -27t-4 -52t-1 -83.5t1 -84t4 -52.5t9 -27
t16 -7.5t16 7.5t9 27t4 52.5t1 84z" />
    <glyph glyph-name="one.denominator" 
d="M95 0v340h-2q-22 -27 -49 -45v66q17 14 31.5 32.5t25.5 39.5h72v-433h-78z" />
    <glyph glyph-name="two.denominator" 
d="M231 332q0 -34 -10.5 -65t-30.5 -64l-88 -143h128v-60h-209v60l90 151q22 35 32 64.5t10 67.5q0 44 -24 44q-14 0 -20 -14t-6 -54h-78q0 65 28.5 91.5t74.5 26.5q53 0 78 -25t25 -80z" />
    <glyph glyph-name="three.denominator" 
d="M229 105q0 -18 -4.5 -37.5t-16 -35t-32 -26t-53.5 -10.5q-32 0 -52 8.5t-31.5 23.5t-16 34.5t-4.5 42.5v13h78v-18q0 -29 6.5 -41.5t19.5 -12.5q14 0 21 12t7 42v36q0 26 -10.5 41t-39.5 15h-15v60h19q26 0 35 18t9 46v28q0 26 -6.5 34.5t-18.5 8.5q-14 0 -19.5 -13.5
t-5.5 -36.5v-13h-78q0 54 25 83.5t81 29.5q59 0 79.5 -30.5t20.5 -85.5q0 -36 -12.5 -62t-53.5 -37q18 -6 31 -13.5t21 -20.5t12 -32.5t4 -50.5z" />
    <glyph glyph-name="four.denominator" horiz-adv-x="240" 
d="M212 100v-100h-78v100h-135v54l104 279h109v-279h28v-54h-28zM134 349h-2l-67 -195h69v195z" />
    <glyph glyph-name="five.denominator" horiz-adv-x="240" 
d="M231 150q0 -42 -5.5 -71.5t-18 -48t-33 -26.5t-51.5 -8q-57 0 -80.5 27t-23.5 84v15h78v-10q0 -40 7 -53.5t20 -13.5q7 0 12.5 2t9.5 9t5.5 20t1.5 34v72q0 34 -8 44t-20 10q-13 0 -20 -12t-9 -49h-76l4 258h188v-51h-113l-3 -115q9 8 21.5 13.5t30.5 5.5q22 0 37.5 -6
t25.5 -21t15 -41.5t5 -67.5z" />
    <glyph glyph-name="six.denominator" 
d="M234 146q0 -44 -7 -73t-20.5 -46t-33.5 -24t-46 -7q-36 0 -57.5 10.5t-33.5 35.5t-15.5 67t-3.5 106q0 56 3.5 98t15.5 69.5t34 41t58 13.5q60 0 81 -30t21 -83h-78q0 35 -5.5 49t-17.5 14q-8 0 -14 -5t-10 -19t-6 -39.5t-2 -66.5q8 10 20 16.5t29 6.5q40 0 64 -30
t24 -104zM156 138q0 56 -7 74.5t-22 18.5t-22 -18.5t-7 -74.5t7 -74.5t22 -18.5t22 18.5t7 74.5z" />
    <glyph glyph-name="seven.denominator" 
d="M138 0h-83l88 371h-119v62h199v-50z" />
    <glyph glyph-name="eight.denominator" 
d="M234 118q0 -63 -25.5 -92.5t-83.5 -29.5q-59 0 -84 29.5t-25 92.5q0 27 4 44.5t11.5 29t19 18t26.5 11.5q-15 4 -25.5 10.5t-17.5 18t-10.5 28t-3.5 41.5q0 63 26.5 90.5t78.5 27.5q51 0 78 -26t27 -92q0 -27 -4 -44t-11.5 -27.5t-19 -16t-26.5 -10.5q17 -4 29 -10
t20 -17.5t12 -30t4 -45.5zM153 323q0 38 -6 51t-22 13q-14 0 -21 -13.5t-7 -50.5q0 -23 1.5 -38t5 -23t8.5 -11t13 -3q16 0 22 15.5t6 59.5zM155 126q0 44 -7.5 58.5t-22.5 14.5q-14 0 -22 -14.5t-8 -58.5q0 -27 1.5 -43t5.5 -24.5t9.5 -11t13.5 -2.5q7 0 13 3t9.5 11.5
t5.5 24.5t2 42z" />
    <glyph glyph-name="nine.denominator" 
d="M233 215q0 -63 -4.5 -105t-16.5 -67.5t-34 -36t-57 -10.5q-32 0 -51.5 8.5t-30.5 24.5t-15 37.5t-4 48.5v5h78v-7q0 -41 6 -54.5t18 -13.5q19 0 25 26t6 98v18q-5 -12 -19 -18.5t-30 -6.5q-42 0 -65 32.5t-23 91.5q0 44 6.5 73t20 46.5t33.5 24.5t47 7q38 0 60 -12
t33 -38.5t14 -69t3 -102.5zM152 299q0 53 -7 70.5t-22 17.5t-22 -17.5t-7 -70.5t7 -70.5t22 -17.5t22 17.5t7 70.5z" />
    <glyph glyph-name="Amacron" unicode="&#x100;" horiz-adv-x="430" 
d="M322 0l-33 184h-152l-33 -184h-100l156 723h122l144 -723h-104zM217 616l-65 -348h123zM85 820v54h264v-54h-264z" />
    <glyph glyph-name="amacron" unicode="&#x101;" horiz-adv-x="352" 
d="M221 0l-2 33q-17 -25 -36.5 -33.5t-42.5 -8.5q-37 0 -60 12.5t-35.5 33.5t-16.5 49t-4 59q0 42 7.5 73t25.5 51.5t47 30t72 9.5h43v52q0 41 -6.5 62.5t-38.5 21.5q-18 0 -28 -8.5t-15 -22t-6.5 -30.5t-1.5 -33h-92q0 87 38.5 124t101.5 37q50 0 78.5 -12.5t42.5 -33.5
t17.5 -50t3.5 -62v-279q0 -23 0.5 -40.5t2.5 -34.5h-95zM219 242h-16q-45 0 -64 -21.5t-19 -75.5q0 -53 10.5 -71t37.5 -18q22 0 36.5 18.5t14.5 57.5v110zM39 643v54h264v-54h-264z" />
    <glyph glyph-name="Abreve" unicode="&#x102;" horiz-adv-x="430" 
d="M322 0l-33 184h-152l-33 -184h-100l156 723h122l144 -723h-104zM217 616l-65 -348h123zM341 903q-4 -56 -34 -93t-90 -37q-35 0 -58 11t-37 29t-21 41.5t-8 48.5h49q4 -30 24 -50t51 -20q35 0 54 22t21 48h49z" />
    <glyph glyph-name="abreve" unicode="&#x103;" horiz-adv-x="352" 
d="M221 0l-2 33q-17 -25 -36.5 -33.5t-42.5 -8.5q-37 0 -60 12.5t-35.5 33.5t-16.5 49t-4 59q0 42 7.5 73t25.5 51.5t47 30t72 9.5h43v52q0 41 -6.5 62.5t-38.5 21.5q-18 0 -28 -8.5t-15 -22t-6.5 -30.5t-1.5 -33h-92q0 87 38.5 124t101.5 37q50 0 78.5 -12.5t42.5 -33.5
t17.5 -50t3.5 -62v-279q0 -23 0.5 -40.5t2.5 -34.5h-95zM219 242h-16q-45 0 -64 -21.5t-19 -75.5q0 -53 10.5 -71t37.5 -18q22 0 36.5 18.5t14.5 57.5v110zM295 728q-4 -56 -34 -93t-90 -37q-35 0 -58 11t-37 29t-21 41.5t-8 48.5h49q4 -30 24 -50t51 -20q35 0 54 22t21 48
h49z" />
    <glyph glyph-name="Aogonek" unicode="&#x104;" horiz-adv-x="430" 
d="M463 -188q-11 -6 -28 -11t-37 -5q-51 0 -71 19.5t-20 51.5q0 34 17.5 70t46.5 63h-49l-33 184h-152l-33 -184h-100l156 723h122l144 -723q-26 -35 -36.5 -63t-10.5 -50q0 -20 10.5 -32.5t30.5 -12.5q9 0 17 4t16 9zM217 616l-65 -348h123z" />
    <glyph glyph-name="aogonek" unicode="&#x105;" horiz-adv-x="352" 
d="M316 0q-26 -35 -36.5 -63t-10.5 -50q0 -20 10.5 -32.5t30.5 -12.5q9 0 17 4t16 9l10 -43q-11 -6 -28 -11t-37 -5q-51 0 -71 19.5t-20 51.5q0 34 17.5 70t46.5 63h-40l-2 33q-17 -25 -36.5 -33.5t-42.5 -8.5q-37 0 -60 12.5t-35.5 33.5t-16.5 49t-4 59q0 42 7.5 73
t25.5 51.5t47 30t72 9.5h43v52q0 41 -6.5 62.5t-38.5 21.5q-18 0 -28 -8.5t-15 -22t-6.5 -30.5t-1.5 -33h-92q0 87 38.5 124t101.5 37q50 0 78.5 -12.5t42.5 -33.5t17.5 -50t3.5 -62v-279q0 -23 0.5 -40.5t2.5 -34.5zM219 242h-16q-45 0 -64 -21.5t-19 -75.5q0 -53 10.5 -71
t37.5 -18q22 0 36.5 18.5t14.5 57.5v110z" />
    <glyph glyph-name="Cacute" unicode="&#x106;" horiz-adv-x="393" 
d="M379 198q0 -44 -6.5 -82.5t-25 -67t-51 -44.5t-84.5 -16q-68 0 -104.5 27.5t-53 77.5t-19.5 119.5t-3 152.5q0 78 3 145.5t20 117.5t53.5 78.5t104.5 28.5q52 0 84.5 -15t49.5 -42.5t23 -66t6 -86.5h-100q0 75 -16 103t-48 28q-29 0 -44 -19t-22.5 -55.5t-8.5 -91
t-1 -125.5q0 -95 3 -153.5t12 -90.5t24.5 -43.5t39.5 -11.5q22 0 34.5 14t18.5 34t7.5 43t1.5 41h102zM217 772h-60l69 145h100z" />
    <glyph glyph-name="cacute" unicode="&#x107;" horiz-adv-x="325" 
d="M313 164q0 -34 -5 -65t-20.5 -55t-43.5 -38t-74 -14q-53 0 -82.5 22t-43.5 58t-17 81t-3 91q0 73 7.5 124t25 83t46 46.5t70.5 14.5q40 0 66.5 -11t42.5 -33t22.5 -54.5t6.5 -75.5v-7h-93v7q0 52 -8.5 79.5t-37.5 27.5q-14 0 -24 -7.5t-16 -29t-9 -61.5t-3 -105
q0 -49 1.5 -84t7 -57t15 -32t25.5 -10q27 0 38 23t11 82v6h95v-6zM177 597h-60l69 145h100z" />
    <glyph glyph-name="Ccircumflex" unicode="&#x108;" horiz-adv-x="393" 
d="M379 198q0 -44 -6.5 -82.5t-25 -67t-51 -44.5t-84.5 -16q-68 0 -104.5 27.5t-53 77.5t-19.5 119.5t-3 152.5q0 78 3 145.5t20 117.5t53.5 78.5t104.5 28.5q52 0 84.5 -15t49.5 -42.5t23 -66t6 -86.5h-100q0 75 -16 103t-48 28q-29 0 -44 -19t-22.5 -55.5t-8.5 -91
t-1 -125.5q0 -95 3 -153.5t12 -90.5t24.5 -43.5t39.5 -11.5q22 0 34.5 14t18.5 34t7.5 43t1.5 41h102zM271 772l-65 81l-65 -81h-67l92 145h80l92 -145h-67z" />
    <glyph glyph-name="ccircumflex" unicode="&#x109;" horiz-adv-x="325" 
d="M313 164q0 -34 -5 -65t-20.5 -55t-43.5 -38t-74 -14q-53 0 -82.5 22t-43.5 58t-17 81t-3 91q0 73 7.5 124t25 83t46 46.5t70.5 14.5q40 0 66.5 -11t42.5 -33t22.5 -54.5t6.5 -75.5v-7h-93v7q0 52 -8.5 79.5t-37.5 27.5q-14 0 -24 -7.5t-16 -29t-9 -61.5t-3 -105
q0 -49 1.5 -84t7 -57t15 -32t25.5 -10q27 0 38 23t11 82v6h95v-6zM231 597l-65 81l-65 -81h-67l92 145h80l92 -145h-67z" />
    <glyph glyph-name="Cdotaccent" unicode="&#x10a;" horiz-adv-x="393" 
d="M379 198q0 -44 -6.5 -82.5t-25 -67t-51 -44.5t-84.5 -16q-68 0 -104.5 27.5t-53 77.5t-19.5 119.5t-3 152.5q0 78 3 145.5t20 117.5t53.5 78.5t104.5 28.5q52 0 84.5 -15t49.5 -42.5t23 -66t6 -86.5h-100q0 75 -16 103t-48 28q-29 0 -44 -19t-22.5 -55.5t-8.5 -91
t-1 -125.5q0 -95 3 -153.5t12 -90.5t24.5 -43.5t39.5 -11.5q22 0 34.5 14t18.5 34t7.5 43t1.5 41h102zM167 797v100h78v-100h-78z" />
    <glyph glyph-name="cdotaccent" unicode="&#x10b;" horiz-adv-x="325" 
d="M313 164q0 -34 -5 -65t-20.5 -55t-43.5 -38t-74 -14q-53 0 -82.5 22t-43.5 58t-17 81t-3 91q0 73 7.5 124t25 83t46 46.5t70.5 14.5q40 0 66.5 -11t42.5 -33t22.5 -54.5t6.5 -75.5v-7h-93v7q0 52 -8.5 79.5t-37.5 27.5q-14 0 -24 -7.5t-16 -29t-9 -61.5t-3 -105
q0 -49 1.5 -84t7 -57t15 -32t25.5 -10q27 0 38 23t11 82v6h95v-6zM127 622v100h78v-100h-78z" />
    <glyph glyph-name="Ccaron" unicode="&#x10c;" horiz-adv-x="393" 
d="M379 198q0 -44 -6.5 -82.5t-25 -67t-51 -44.5t-84.5 -16q-68 0 -104.5 27.5t-53 77.5t-19.5 119.5t-3 152.5q0 78 3 145.5t20 117.5t53.5 78.5t104.5 28.5q52 0 84.5 -15t49.5 -42.5t23 -66t6 -86.5h-100q0 75 -16 103t-48 28q-29 0 -44 -19t-22.5 -55.5t-8.5 -91
t-1 -125.5q0 -95 3 -153.5t12 -90.5t24.5 -43.5t39.5 -11.5q22 0 34.5 14t18.5 34t7.5 43t1.5 41h102zM246 772h-80l-92 145h67l65 -81l65 81h67z" />
    <glyph glyph-name="ccaron" unicode="&#x10d;" horiz-adv-x="325" 
d="M313 164q0 -34 -5 -65t-20.5 -55t-43.5 -38t-74 -14q-53 0 -82.5 22t-43.5 58t-17 81t-3 91q0 73 7.5 124t25 83t46 46.5t70.5 14.5q40 0 66.5 -11t42.5 -33t22.5 -54.5t6.5 -75.5v-7h-93v7q0 52 -8.5 79.5t-37.5 27.5q-14 0 -24 -7.5t-16 -29t-9 -61.5t-3 -105
q0 -49 1.5 -84t7 -57t15 -32t25.5 -10q27 0 38 23t11 82v6h95v-6zM206 597h-80l-92 145h67l65 -81l65 81h67z" />
    <glyph glyph-name="Dcaron" unicode="&#x10e;" horiz-adv-x="418" 
d="M386 350q0 -87 -6.5 -152.5t-26.5 -109.5t-59 -66t-103 -22h-147v723h147q70 0 109.5 -23.5t58.5 -68.5t23 -111t4 -152v-18zM282 370q0 68 -1.5 118.5t-9.5 83.5t-26.5 49t-51.5 16h-49v-552h49q27 0 44.5 9.5t27 38t13.5 80.5t4 137v20zM250 772h-80l-92 145h67l65 -81
l65 81h67z" />
    <glyph glyph-name="dcaron" unicode="&#x10f;" horiz-adv-x="355" 
d="M224 0l-2 29q-27 -37 -79 -37q-69 0 -94 65.5t-25 202.5q0 68 7 116t21 78t36.5 44t52.5 14q31 0 47 -9.5t33 -32.5v253h94v-644q0 -20 0.5 -40t2.5 -39h-94zM221 344q0 18 -1.5 35.5t-7 31.5t-15 22.5t-24.5 8.5q-16 0 -26 -7.5t-16 -27.5t-8.5 -55.5t-2.5 -91.5
q0 -62 1.5 -102t7 -63t15 -31.5t26.5 -8.5q32 0 41.5 33t9.5 90v166zM417 526h-70l16 197h99z" />
    <glyph glyph-name="Dcroat" unicode="&#x110;" horiz-adv-x="418" 
d="M386 350q0 -87 -6.5 -152.5t-26.5 -109.5t-59 -66t-103 -22h-147v328h-36v84h36v311h147q70 0 109.5 -23.5t58.5 -68.5t23 -111t4 -152v-18zM282 370q0 68 -1.5 118.5t-9.5 83.5t-26.5 49t-51.5 16h-49v-225h67v-84h-67v-243h49q27 0 44.5 9.5t27 38t13.5 80.5t4 137v20z
" />
    <glyph glyph-name="dcroat" unicode="&#x111;" horiz-adv-x="355" 
d="M224 0l-2 29q-27 -37 -79 -37q-69 0 -94 65.5t-25 202.5q0 68 7 116t21 78t36.5 44t52.5 14q31 0 47 -9.5t33 -32.5v100h-100v64h100v89h94v-89h39v-64h-39v-491q0 -20 0.5 -40t2.5 -39h-94zM221 344q0 18 -1.5 35.5t-7 31.5t-15 22.5t-24.5 8.5q-16 0 -26 -7.5
t-16 -27.5t-8.5 -55.5t-2.5 -91.5q0 -62 1.5 -102t7 -63t15 -31.5t26.5 -8.5q32 0 41.5 33t9.5 90v166z" />
    <glyph glyph-name="Emacron" unicode="&#x112;" horiz-adv-x="332" 
d="M44 0v723h272v-84h-172v-227h162v-82h-162v-246h172v-84h-272zM50 820v54h264v-54h-264z" />
    <glyph glyph-name="emacron" unicode="&#x113;" horiz-adv-x="336" 
d="M120 220v-26q0 -32 1 -57.5t5.5 -42.5t14.5 -26t28 -9q26 0 37 21t11 76h95q-2 -35 -9 -65t-23 -52t-42.5 -34.5t-68.5 -12.5q-53 0 -82 21.5t-43 55t-17 75t-3 81.5q0 63 3 116t17 91t43.5 59t82.5 21q56 0 85.5 -20t42.5 -57.5t14.5 -92t1.5 -122.5h-194zM217 288
q0 37 -0.5 66t-5 49.5t-14.5 31t-28 10.5t-28 -10.5t-14.5 -30.5t-5.5 -49t-1 -67h97zM36 643v54h264v-54h-264z" />
    <glyph glyph-name="Ebreve" unicode="&#x114;" horiz-adv-x="332" 
d="M44 0v723h272v-84h-172v-227h162v-82h-162v-246h172v-84h-272zM306 903q-4 -56 -34 -93t-90 -37q-35 0 -58 11t-37 29t-21 41.5t-8 48.5h49q4 -30 24 -50t51 -20q35 0 54 22t21 48h49z" />
    <glyph glyph-name="ebreve" unicode="&#x115;" horiz-adv-x="336" 
d="M120 220v-26q0 -32 1 -57.5t5.5 -42.5t14.5 -26t28 -9q26 0 37 21t11 76h95q-2 -35 -9 -65t-23 -52t-42.5 -34.5t-68.5 -12.5q-53 0 -82 21.5t-43 55t-17 75t-3 81.5q0 63 3 116t17 91t43.5 59t82.5 21q56 0 85.5 -20t42.5 -57.5t14.5 -92t1.5 -122.5h-194zM217 288
q0 37 -0.5 66t-5 49.5t-14.5 31t-28 10.5t-28 -10.5t-14.5 -30.5t-5.5 -49t-1 -67h97zM292 728q-4 -56 -34 -93t-90 -37q-35 0 -58 11t-37 29t-21 41.5t-8 48.5h49q4 -30 24 -50t51 -20q35 0 54 22t21 48h49z" />
    <glyph glyph-name="Edotaccent" unicode="&#x116;" horiz-adv-x="332" 
d="M44 0v723h272v-84h-172v-227h162v-82h-162v-246h172v-84h-272zM143 797v100h78v-100h-78z" />
    <glyph glyph-name="edotaccent" unicode="&#x117;" horiz-adv-x="336" 
d="M120 220v-26q0 -32 1 -57.5t5.5 -42.5t14.5 -26t28 -9q26 0 37 21t11 76h95q-2 -35 -9 -65t-23 -52t-42.5 -34.5t-68.5 -12.5q-53 0 -82 21.5t-43 55t-17 75t-3 81.5q0 63 3 116t17 91t43.5 59t82.5 21q56 0 85.5 -20t42.5 -57.5t14.5 -92t1.5 -122.5h-194zM217 288
q0 37 -0.5 66t-5 49.5t-14.5 31t-28 10.5t-28 -10.5t-14.5 -30.5t-5.5 -49t-1 -67h97zM129 622v100h78v-100h-78z" />
    <glyph glyph-name="Eogonek" unicode="&#x118;" horiz-adv-x="332" 
d="M353 -188q-11 -6 -28 -11t-37 -5q-51 0 -71 19.5t-20 51.5q0 34 17.5 70t46.5 63h-217v723h272v-84h-172v-227h162v-82h-162v-246h172v-84q-26 -35 -36.5 -63t-10.5 -50q0 -20 10.5 -32.5t30.5 -12.5q9 0 17 4t16 9z" />
    <glyph glyph-name="eogonek" unicode="&#x119;" horiz-adv-x="336" 
d="M246 -188q-11 -6 -28 -11t-37 -5q-51 0 -71 19.5t-20 51.5t15.5 65.5t41.5 60.5q-45 4 -70 27t-36.5 56t-14 72t-2.5 77q0 63 3 116t17 91t43.5 59t82.5 21q56 0 85.5 -20t42.5 -57.5t14.5 -92t1.5 -122.5h-194v-26q0 -32 1 -57.5t5.5 -42.5t14.5 -26t28 -9q26 0 37 21
t11 76h95q-2 -31 -7.5 -58t-17.5 -48t-31.5 -35t-49.5 -19q-24 -34 -34 -60.5t-10 -48.5q0 -20 10.5 -32.5t30.5 -12.5q9 0 17 4t16 9zM217 288q0 37 -0.5 66t-5 49.5t-14.5 31t-28 10.5t-28 -10.5t-14.5 -30.5t-5.5 -49t-1 -67h97z" />
    <glyph glyph-name="Ecaron" unicode="&#x11a;" horiz-adv-x="332" 
d="M44 0v723h272v-84h-172v-227h162v-82h-162v-246h172v-84h-272zM222 772h-80l-92 145h67l65 -81l65 81h67z" />
    <glyph glyph-name="ecaron" unicode="&#x11b;" horiz-adv-x="336" 
d="M120 220v-26q0 -32 1 -57.5t5.5 -42.5t14.5 -26t28 -9q26 0 37 21t11 76h95q-2 -35 -9 -65t-23 -52t-42.5 -34.5t-68.5 -12.5q-53 0 -82 21.5t-43 55t-17 75t-3 81.5q0 63 3 116t17 91t43.5 59t82.5 21q56 0 85.5 -20t42.5 -57.5t14.5 -92t1.5 -122.5h-194zM217 288
q0 37 -0.5 66t-5 49.5t-14.5 31t-28 10.5t-28 -10.5t-14.5 -30.5t-5.5 -49t-1 -67h97zM208 597h-80l-92 145h67l65 -81l65 81h67z" />
    <glyph glyph-name="Gcircumflex" unicode="&#x11c;" horiz-adv-x="411" 
d="M379 9q-18 -4 -35.5 -8t-37 -7t-43 -4.5t-52.5 -1.5q-67 0 -103.5 29.5t-53 80.5t-19.5 120t-3 149q0 72 3.5 138.5t20.5 117.5t53.5 81.5t102.5 30.5q55 0 87.5 -18t50 -48t22.5 -67.5t5 -76.5h-101q0 71 -14.5 101.5t-49.5 30.5q-28 0 -43.5 -18.5t-23 -55t-9.5 -91
t-2 -127.5q0 -89 2.5 -146.5t11.5 -91.5t25.5 -47t45.5 -13q10 0 25.5 1t34.5 6v211h-66v82h166v-358zM273 772l-65 81l-65 -81h-67l92 145h80l92 -145h-67z" />
    <glyph glyph-name="gcircumflex" unicode="&#x11d;" horiz-adv-x="354" 
d="M318 504q-1 -23 -2 -45t-1 -45v-387q0 -48 -2.5 -91t-16.5 -75t-44 -50.5t-86 -18.5q-79 0 -109 40t-30 117h93q0 -43 7.5 -66t39.5 -23q16 0 26 6t15 19t6.5 33.5t1.5 49.5v66q-17 -17 -34 -23t-40 -6q-67 0 -92.5 60t-25.5 182q0 72 6 122t20 82t36 46.5t55 14.5
q23 0 42.5 -8.5t39.5 -35.5l1 36h94zM221 352q0 10 -1 25.5t-6 29.5t-14.5 24.5t-25.5 10.5q-19 0 -30 -9.5t-16 -32t-6.5 -60t-1.5 -93.5q0 -51 1.5 -85t7 -55t15.5 -30t27 -9q30 0 40 31.5t10 82.5v170zM238 597l-65 81l-65 -81h-67l92 145h80l92 -145h-67z" />
    <glyph glyph-name="Gbreve" unicode="&#x11e;" horiz-adv-x="411" 
d="M379 9q-18 -4 -35.5 -8t-37 -7t-43 -4.5t-52.5 -1.5q-67 0 -103.5 29.5t-53 80.5t-19.5 120t-3 149q0 72 3.5 138.5t20.5 117.5t53.5 81.5t102.5 30.5q55 0 87.5 -18t50 -48t22.5 -67.5t5 -76.5h-101q0 71 -14.5 101.5t-49.5 30.5q-28 0 -43.5 -18.5t-23 -55t-9.5 -91
t-2 -127.5q0 -89 2.5 -146.5t11.5 -91.5t25.5 -47t45.5 -13q10 0 25.5 1t34.5 6v211h-66v82h166v-358zM332 903q-4 -56 -34 -93t-90 -37q-35 0 -58 11t-37 29t-21 41.5t-8 48.5h49q4 -30 24 -50t51 -20q35 0 54 22t21 48h49z" />
    <glyph glyph-name="gbreve" unicode="&#x11f;" horiz-adv-x="354" 
d="M318 504q-1 -23 -2 -45t-1 -45v-387q0 -48 -2.5 -91t-16.5 -75t-44 -50.5t-86 -18.5q-79 0 -109 40t-30 117h93q0 -43 7.5 -66t39.5 -23q16 0 26 6t15 19t6.5 33.5t1.5 49.5v66q-17 -17 -34 -23t-40 -6q-67 0 -92.5 60t-25.5 182q0 72 6 122t20 82t36 46.5t55 14.5
q23 0 42.5 -8.5t39.5 -35.5l1 36h94zM221 352q0 10 -1 25.5t-6 29.5t-14.5 24.5t-25.5 10.5q-19 0 -30 -9.5t-16 -32t-6.5 -60t-1.5 -93.5q0 -51 1.5 -85t7 -55t15.5 -30t27 -9q30 0 40 31.5t10 82.5v170zM297 728q-4 -56 -34 -93t-90 -37q-35 0 -58 11t-37 29t-21 41.5
t-8 48.5h49q4 -30 24 -50t51 -20q35 0 54 22t21 48h49z" />
    <glyph glyph-name="Gdotaccent" unicode="&#x120;" horiz-adv-x="411" 
d="M379 9q-18 -4 -35.5 -8t-37 -7t-43 -4.5t-52.5 -1.5q-67 0 -103.5 29.5t-53 80.5t-19.5 120t-3 149q0 72 3.5 138.5t20.5 117.5t53.5 81.5t102.5 30.5q55 0 87.5 -18t50 -48t22.5 -67.5t5 -76.5h-101q0 71 -14.5 101.5t-49.5 30.5q-28 0 -43.5 -18.5t-23 -55t-9.5 -91
t-2 -127.5q0 -89 2.5 -146.5t11.5 -91.5t25.5 -47t45.5 -13q10 0 25.5 1t34.5 6v211h-66v82h166v-358zM169 797v100h78v-100h-78z" />
    <glyph glyph-name="gdotaccent" unicode="&#x121;" horiz-adv-x="354" 
d="M318 504q-1 -23 -2 -45t-1 -45v-387q0 -48 -2.5 -91t-16.5 -75t-44 -50.5t-86 -18.5q-79 0 -109 40t-30 117h93q0 -43 7.5 -66t39.5 -23q16 0 26 6t15 19t6.5 33.5t1.5 49.5v66q-17 -17 -34 -23t-40 -6q-67 0 -92.5 60t-25.5 182q0 72 6 122t20 82t36 46.5t55 14.5
q23 0 42.5 -8.5t39.5 -35.5l1 36h94zM221 352q0 10 -1 25.5t-6 29.5t-14.5 24.5t-25.5 10.5q-19 0 -30 -9.5t-16 -32t-6.5 -60t-1.5 -93.5q0 -51 1.5 -85t7 -55t15.5 -30t27 -9q30 0 40 31.5t10 82.5v170zM134 622v100h78v-100h-78z" />
    <glyph glyph-name="Gcommaaccent" unicode="&#x122;" horiz-adv-x="411" 
d="M379 9q-18 -4 -35.5 -8t-37 -7t-43 -4.5t-52.5 -1.5q-67 0 -103.5 29.5t-53 80.5t-19.5 120t-3 149q0 72 3.5 138.5t20.5 117.5t53.5 81.5t102.5 30.5q55 0 87.5 -18t50 -48t22.5 -67.5t5 -76.5h-101q0 71 -14.5 101.5t-49.5 30.5q-28 0 -43.5 -18.5t-23 -55t-9.5 -91
t-2 -127.5q0 -89 2.5 -146.5t11.5 -91.5t25.5 -47t45.5 -13q10 0 25.5 1t34.5 6v211h-66v82h166v-358zM213 -212h-70l23 163h94z" />
    <glyph glyph-name="gcommaaccent" unicode="&#x123;" horiz-adv-x="354" 
d="M318 504q-1 -23 -2 -45t-1 -45v-387q0 -48 -2.5 -91t-16.5 -75t-44 -50.5t-86 -18.5q-79 0 -109 40t-30 117h93q0 -43 7.5 -66t39.5 -23q16 0 26 6t15 19t6.5 33.5t1.5 49.5v66q-17 -17 -34 -23t-40 -6q-67 0 -92.5 60t-25.5 182q0 72 6 122t20 82t36 46.5t55 14.5
q23 0 42.5 -8.5t39.5 -35.5l1 36h94zM221 352q0 10 -1 25.5t-6 29.5t-14.5 24.5t-25.5 10.5q-19 0 -30 -9.5t-16 -32t-6.5 -60t-1.5 -93.5q0 -51 1.5 -85t7 -55t15.5 -30t27 -9q30 0 40 31.5t10 82.5v170zM174 742h68l-27 -145h-88z" />
    <glyph glyph-name="Hcircumflex" unicode="&#x124;" horiz-adv-x="422" 
d="M278 0v328h-134v-328h-100v723h100v-311h134v311h100v-723h-100zM276 772l-65 81l-65 -81h-67l92 145h80l92 -145h-67z" />
    <glyph glyph-name="hcircumflex" unicode="&#x125;" horiz-adv-x="354" 
d="M221 0v379q0 27 -7.5 43.5t-33.5 16.5q-20 0 -33 -15t-13 -48v-376h-94v723h94v-262q14 25 37.5 38t51.5 13q54 0 73 -30t19 -79v-403h-94zM153 772l-65 81l-65 -81h-67l92 145h80l92 -145h-67z" />
    <glyph glyph-name="Hbar" unicode="&#x126;" horiz-adv-x="422" 
d="M144 553h134v170h100v-723h-100v328h-134v-328h-100v723h100v-170zM144 471v-59h134v59h-134z" />
    <glyph glyph-name="hbar" unicode="&#x127;" horiz-adv-x="354" 
d="M221 0v379q0 27 -7.5 43.5t-33.5 16.5q-20 0 -33 -15t-13 -48v-376h-94v570h-39v64h39v89h94v-89h98v-64h-98v-109q14 25 37.5 38t51.5 13q54 0 73 -30t19 -79v-403h-94z" />
    <glyph glyph-name="Itilde" unicode="&#x128;" horiz-adv-x="188" 
d="M44 0v723h100v-723h-100zM241 903q-1 -17 -6 -36t-16.5 -35t-29 -27t-43.5 -11q-18 0 -34.5 6t-31 12.5t-26.5 12.5t-21 6q-12 0 -20.5 -13t-11.5 -30h-54q1 21 7 40.5t18 35t29.5 24.5t40.5 9q17 0 33 -6t30.5 -12.5t27 -12.5t22.5 -6q24 0 32 43h54z" />
    <glyph glyph-name="itilde" unicode="&#x129;" horiz-adv-x="174" 
d="M40 0v504h94v-504h-94zM234 728q-1 -17 -6 -36t-16.5 -35t-29 -27t-43.5 -11q-18 0 -34.5 6t-31 12.5t-26.5 12.5t-21 6q-12 0 -20.5 -13t-11.5 -30h-54q1 21 7 40.5t18 35t29.5 24.5t40.5 9q17 0 33 -6t30.5 -12.5t27 -12.5t22.5 -6q24 0 32 43h54z" />
    <glyph glyph-name="Imacron" unicode="&#x12a;" horiz-adv-x="188" 
d="M44 0v723h100v-723h-100zM-38 820v54h264v-54h-264z" />
    <glyph glyph-name="imacron" unicode="&#x12b;" horiz-adv-x="174" 
d="M40 0v504h94v-504h-94zM-45 643v54h264v-54h-264z" />
    <glyph glyph-name="Ibreve" unicode="&#x12c;" horiz-adv-x="188" 
d="M44 0v723h100v-723h-100zM218 903q-4 -56 -34 -93t-90 -37q-35 0 -58 11t-37 29t-21 41.5t-8 48.5h49q4 -30 24 -50t51 -20q35 0 54 22t21 48h49z" />
    <glyph glyph-name="ibreve" unicode="&#x12d;" horiz-adv-x="174" 
d="M40 0v504h94v-504h-94zM211 728q-4 -56 -34 -93t-90 -37q-35 0 -58 11t-37 29t-21 41.5t-8 48.5h49q4 -30 24 -50t51 -20q35 0 54 22t21 48h49z" />
    <glyph glyph-name="Iogonek" unicode="&#x12e;" horiz-adv-x="188" 
d="M181 -188q-11 -6 -28 -11t-37 -5q-51 0 -71 19.5t-20 51.5q0 34 17.5 70t46.5 63h-45v723h100v-723q-26 -35 -36.5 -63t-10.5 -50q0 -20 10.5 -32.5t30.5 -12.5q9 0 17 4t16 9z" />
    <glyph glyph-name="iogonek" unicode="&#x12f;" horiz-adv-x="174" 
d="M171 -188q-11 -6 -28 -11t-37 -5q-51 0 -71 19.5t-20 51.5q0 34 17.5 70t46.5 63h-39v504h94v-504q-26 -35 -36.5 -63t-10.5 -50q0 -20 10.5 -32.5t30.5 -12.5q9 0 17 4t16 9zM40 624v99h94v-99h-94z" />
    <glyph glyph-name="Idotaccent" unicode="&#x130;" horiz-adv-x="188" 
d="M44 0v723h100v-723h-100zM55 797v100h78v-100h-78z" />
    <glyph glyph-name="dotlessi" unicode="&#x131;" horiz-adv-x="174" 
d="M40 0v504h94v-504h-94z" />
    <glyph glyph-name="Jcircumflex" unicode="&#x134;" horiz-adv-x="334" 
d="M292 166q0 -42 -7 -75t-23 -56t-42.5 -35t-65.5 -12q-46 0 -74 16t-43 44t-20 66t-5 83v13h98v-15q0 -41 2.5 -66t7.5 -39t13 -19t20 -5q20 0 29.5 16.5t9.5 62.5v578h100v-557zM307 772l-65 81l-65 -81h-67l92 145h80l92 -145h-67z" />
    <glyph glyph-name="jcircumflex" unicode="&#x135;" horiz-adv-x="174" 
d="M134 -95q0 -31 -5.5 -52.5t-18.5 -35t-34.5 -19.5t-53.5 -6q-12 0 -23 1t-19 3v68q13 -3 24 -3q22 0 29 11.5t7 44.5v587h94v-599zM152 597l-65 81l-65 -81h-67l92 145h80l92 -145h-67z" />
    <glyph glyph-name="Kcommaaccent" unicode="&#x136;" horiz-adv-x="416" 
d="M303 0l-158 383l150 340h109l-160 -340l174 -383h-115zM44 0v723h100v-723h-100zM221 -212h-70l23 163h94z" />
    <glyph glyph-name="kcommaaccent" unicode="&#x137;" horiz-adv-x="340" 
d="M233 0l-95 273l89 231h101l-99 -229l109 -275h-105zM40 0v723h94v-723h-94zM180 -212h-70l23 163h94z" />
    <glyph glyph-name="kgreenlandic" unicode="&#x138;" horiz-adv-x="340" 
d="M233 0l-95 273l89 231h101l-99 -229l109 -275h-105zM40 0v504h94v-504h-94z" />
    <glyph glyph-name="Lacute" unicode="&#x139;" horiz-adv-x="320" 
d="M44 0v723h100v-639h168v-84h-268zM105 772h-60l69 145h100z" />
    <glyph glyph-name="lacute" unicode="&#x13a;" horiz-adv-x="174" 
d="M40 0v723h94v-723h-94zM99 772h-60l69 145h100z" />
    <glyph glyph-name="Lcommaaccent" unicode="&#x13b;" horiz-adv-x="320" 
d="M44 0v723h100v-639h168v-84h-268zM180 -212h-70l23 163h94z" />
    <glyph glyph-name="lcommaaccent" unicode="&#x13c;" horiz-adv-x="174" 
d="M40 0v723h94v-723h-94zM88 -212h-70l23 163h94z" />
    <glyph glyph-name="Lcaron" unicode="&#x13d;" horiz-adv-x="320" 
d="M44 0v723h100v-639h168v-84h-268zM259 526h-70l16 197h99z" />
    <glyph glyph-name="lcaron" unicode="&#x13e;" horiz-adv-x="174" 
d="M40 0v723h94v-723h-94zM235 526h-70l16 197h99z" />
    <glyph glyph-name="Ldot" unicode="&#x13f;" horiz-adv-x="320" 
d="M44 0v723h100v-639h168v-84h-268zM205 341v100h78v-100h-78z" />
    <glyph glyph-name="ldot" unicode="&#x140;" horiz-adv-x="239" 
d="M39 0v723h94v-723h-94zM167 321v100h78v-100h-78z" />
    <glyph glyph-name="Lslash" unicode="&#x141;" horiz-adv-x="320" 
d="M44 0v282l-36 -22v91l36 22v350h100v-284l97 60v-91l-97 -60v-264h168v-84h-268z" />
    <glyph glyph-name="lslash" unicode="&#x142;" horiz-adv-x="174" 
d="M134 345v-345h-94v288l-37 -24v78l37 24v357h94v-300l37 24v-78z" />
    <glyph glyph-name="Nacute" unicode="&#x143;" horiz-adv-x="472" 
d="M264 0l-128 637v-637h-92v723h164l128 -638v638h92v-723h-164zM244 772h-60l69 145h100z" />
    <glyph glyph-name="nacute" unicode="&#x144;" horiz-adv-x="354" 
d="M221 0v379q0 27 -7.5 43.5t-33.5 16.5q-20 0 -33 -15t-13 -48v-376h-94v410q0 18 -0.5 40.5t-2.5 53.5h91l3 -46q14 25 36.5 39.5t55.5 14.5q27 0 44.5 -8.5t28 -23t15 -34.5t4.5 -43v-403h-94zM187 597h-60l69 145h100z" />
    <glyph glyph-name="Ncommaaccent" unicode="&#x145;" horiz-adv-x="472" 
d="M264 0l-128 637v-637h-92v723h164l128 -638v638h92v-723h-164zM237 -212h-70l23 163h94z" />
    <glyph glyph-name="ncommaaccent" unicode="&#x146;" horiz-adv-x="354" 
d="M221 0v379q0 27 -7.5 43.5t-33.5 16.5q-20 0 -33 -15t-13 -48v-376h-94v410q0 18 -0.5 40.5t-2.5 53.5h91l3 -46q14 25 36.5 39.5t55.5 14.5q27 0 44.5 -8.5t28 -23t15 -34.5t4.5 -43v-403h-94zM180 -212h-70l23 163h94z" />
    <glyph glyph-name="Ncaron" unicode="&#x147;" horiz-adv-x="472" 
d="M264 0l-128 637v-637h-92v723h164l128 -638v638h92v-723h-164zM273 772h-80l-92 145h67l65 -81l65 81h67z" />
    <glyph glyph-name="ncaron" unicode="&#x148;" horiz-adv-x="354" 
d="M221 0v379q0 27 -7.5 43.5t-33.5 16.5q-20 0 -33 -15t-13 -48v-376h-94v410q0 18 -0.5 40.5t-2.5 53.5h91l3 -46q14 25 36.5 39.5t55.5 14.5q27 0 44.5 -8.5t28 -23t15 -34.5t4.5 -43v-403h-94zM216 597h-80l-92 145h67l65 -81l65 81h67z" />
    <glyph glyph-name="Eng" unicode="&#x14a;" horiz-adv-x="466" 
d="M422 -75q0 -73 -26 -103t-93 -30q-6 0 -21.5 1.5t-23.5 3.5v72q5 -2 13.5 -3t13.5 -1q23 0 34 13t11 48v55l-194 617v-598h-92v723h137l149 -491v491h92v-798z" />
    <glyph glyph-name="eng" unicode="&#x14b;" horiz-adv-x="354" 
d="M315 -95q0 -58 -24.5 -85.5t-87.5 -27.5q-26 0 -42 4v68q13 -3 23 -3q20 0 28.5 12t8.5 44v462q0 27 -7.5 43.5t-33.5 16.5q-20 0 -33 -15t-13 -48v-376h-94v410q0 18 -0.5 40.5t-2.5 53.5h91l3 -46q14 25 36.5 39.5t55.5 14.5q27 0 44.5 -8.5t28 -23t15 -34.5t4.5 -43
v-498z" />
    <glyph glyph-name="Omacron" unicode="&#x14c;" horiz-adv-x="422" 
d="M390 365q0 -89 -3 -158.5t-19.5 -118.5t-53 -74.5t-103.5 -25.5t-103.5 26t-53 74.5t-19.5 118.5t-3 158q0 74 3 141t20.5 118t54 81t103.5 30q68 0 104.5 -26.5t52.5 -75.5t18 -117t2 -151zM286 365q0 72 -1.5 126.5t-8.5 91.5t-22 55.5t-43 18.5t-43.5 -21t-22.5 -59.5
t-8 -92.5t-1 -119q0 -78 1 -134.5t8 -93t22.5 -54t43.5 -17.5t43.5 20t22.5 58t8 93.5t1 127.5zM82 820v54h264v-54h-264z" />
    <glyph glyph-name="omacron" unicode="&#x14d;" horiz-adv-x="338" 
d="M314 238q0 -43 -2.5 -87t-16 -79t-43 -57.5t-83.5 -22.5q-53 0 -82 20.5t-43 54.5t-17 78.5t-3 92.5q0 57 2.5 107t16 87t43 58.5t83.5 21.5t83.5 -20t43 -56t16 -86.5t2.5 -111.5zM218 238q0 61 -0.5 101.5t-5 63.5t-14.5 32.5t-28 9.5q-17 0 -26.5 -9.5t-15 -33
t-7 -63.5t-1.5 -101q0 -51 1.5 -85t6.5 -55t14.5 -30t26.5 -9q18 0 28 9t14.5 30t5.5 55t1 85zM37 643v54h264v-54h-264z" />
    <glyph glyph-name="Obreve" unicode="&#x14e;" horiz-adv-x="422" 
d="M390 365q0 -89 -3 -158.5t-19.5 -118.5t-53 -74.5t-103.5 -25.5t-103.5 26t-53 74.5t-19.5 118.5t-3 158q0 74 3 141t20.5 118t54 81t103.5 30q68 0 104.5 -26.5t52.5 -75.5t18 -117t2 -151zM286 365q0 72 -1.5 126.5t-8.5 91.5t-22 55.5t-43 18.5t-43.5 -21t-22.5 -59.5
t-8 -92.5t-1 -119q0 -78 1 -134.5t8 -93t22.5 -54t43.5 -17.5t43.5 20t22.5 58t8 93.5t1 127.5zM338 903q-4 -56 -34 -93t-90 -37q-35 0 -58 11t-37 29t-21 41.5t-8 48.5h49q4 -30 24 -50t51 -20q35 0 54 22t21 48h49z" />
    <glyph glyph-name="obreve" unicode="&#x14f;" horiz-adv-x="338" 
d="M314 238q0 -43 -2.5 -87t-16 -79t-43 -57.5t-83.5 -22.5q-53 0 -82 20.5t-43 54.5t-17 78.5t-3 92.5q0 57 2.5 107t16 87t43 58.5t83.5 21.5t83.5 -20t43 -56t16 -86.5t2.5 -111.5zM218 238q0 61 -0.5 101.5t-5 63.5t-14.5 32.5t-28 9.5q-17 0 -26.5 -9.5t-15 -33
t-7 -63.5t-1.5 -101q0 -51 1.5 -85t6.5 -55t14.5 -30t26.5 -9q18 0 28 9t14.5 30t5.5 55t1 85zM293 728q-4 -56 -34 -93t-90 -37q-35 0 -58 11t-37 29t-21 41.5t-8 48.5h49q4 -30 24 -50t51 -20q35 0 54 22t21 48h49z" />
    <glyph glyph-name="Ohungarumlaut" unicode="&#x150;" horiz-adv-x="422" 
d="M390 365q0 -89 -3 -158.5t-19.5 -118.5t-53 -74.5t-103.5 -25.5t-103.5 26t-53 74.5t-19.5 118.5t-3 158q0 74 3 141t20.5 118t54 81t103.5 30q68 0 104.5 -26.5t52.5 -75.5t18 -117t2 -151zM286 365q0 72 -1.5 126.5t-8.5 91.5t-22 55.5t-43 18.5t-43.5 -21t-22.5 -59.5
t-8 -92.5t-1 -119q0 -78 1 -134.5t8 -93t22.5 -54t43.5 -17.5t43.5 20t22.5 58t8 93.5t1 127.5zM304 772h-60l69 145h100zM145 772h-60l69 145h100z" />
    <glyph glyph-name="ohungarumlaut" unicode="&#x151;" horiz-adv-x="338" 
d="M314 238q0 -43 -2.5 -87t-16 -79t-43 -57.5t-83.5 -22.5q-53 0 -82 20.5t-43 54.5t-17 78.5t-3 92.5q0 57 2.5 107t16 87t43 58.5t83.5 21.5t83.5 -20t43 -56t16 -86.5t2.5 -111.5zM218 238q0 61 -0.5 101.5t-5 63.5t-14.5 32.5t-28 9.5q-17 0 -26.5 -9.5t-15 -33
t-7 -63.5t-1.5 -101q0 -51 1.5 -85t6.5 -55t14.5 -30t26.5 -9q18 0 28 9t14.5 30t5.5 55t1 85zM259 597h-60l69 145h100zM100 597h-60l69 145h100z" />
    <glyph glyph-name="Racute" unicode="&#x154;" horiz-adv-x="411" 
d="M284 0q-7 17 -9 43t-2 51l-1 130q-1 56 -19.5 74.5t-53.5 18.5h-55v-317h-100v723h174q40 0 70.5 -8.5t51.5 -30t31.5 -58t10.5 -92.5q0 -55 -8.5 -86.5t-23.5 -49t-35 -25t-44 -14.5q19 -3 37.5 -8t32.5 -17.5t22.5 -35.5t8.5 -63l1 -132q0 -19 2 -47t8 -56h-99z
M280 534q0 33 -4.5 54t-14 33t-24 16.5t-34.5 4.5h-59v-243h58q20 0 34.5 6.5t24.5 22t14.5 41.5t4.5 65zM219 772h-60l69 145h100z" />
    <glyph glyph-name="racute" unicode="&#x155;" horiz-adv-x="226" 
d="M226 417q-16 4 -26 4q-41 0 -53.5 -24t-12.5 -78v-319h-94v411q0 19 -1 45.5t-2 47.5h90l2 -53q9 23 29.5 41.5t41.5 18.5q16 0 26 -4v-90zM141 597h-60l69 145h100z" />
    <glyph glyph-name="Rcommaaccent" unicode="&#x156;" horiz-adv-x="411" 
d="M284 0q-7 17 -9 43t-2 51l-1 130q-1 56 -19.5 74.5t-53.5 18.5h-55v-317h-100v723h174q40 0 70.5 -8.5t51.5 -30t31.5 -58t10.5 -92.5q0 -55 -8.5 -86.5t-23.5 -49t-35 -25t-44 -14.5q19 -3 37.5 -8t32.5 -17.5t22.5 -35.5t8.5 -63l1 -132q0 -19 2 -47t8 -56h-99z
M280 534q0 33 -4.5 54t-14 33t-24 16.5t-34.5 4.5h-59v-243h58q20 0 34.5 6.5t24.5 22t14.5 41.5t4.5 65zM210 -212h-70l23 163h94z" />
    <glyph glyph-name="rcommaaccent" unicode="&#x157;" horiz-adv-x="226" 
d="M226 417q-16 4 -26 4q-41 0 -53.5 -24t-12.5 -78v-319h-94v411q0 19 -1 45.5t-2 47.5h90l2 -53q9 23 29.5 41.5t41.5 18.5q16 0 26 -4v-90zM91 -212h-70l23 163h94z" />
    <glyph glyph-name="Rcaron" unicode="&#x158;" horiz-adv-x="411" 
d="M284 0q-7 17 -9 43t-2 51l-1 130q-1 56 -19.5 74.5t-53.5 18.5h-55v-317h-100v723h174q40 0 70.5 -8.5t51.5 -30t31.5 -58t10.5 -92.5q0 -55 -8.5 -86.5t-23.5 -49t-35 -25t-44 -14.5q19 -3 37.5 -8t32.5 -17.5t22.5 -35.5t8.5 -63l1 -132q0 -19 2 -47t8 -56h-99z
M280 534q0 33 -4.5 54t-14 33t-24 16.5t-34.5 4.5h-59v-243h58q20 0 34.5 6.5t24.5 22t14.5 41.5t4.5 65zM239 772h-80l-92 145h67l65 -81l65 81h67z" />
    <glyph glyph-name="rcaron" unicode="&#x159;" horiz-adv-x="226" 
d="M226 417q-16 4 -26 4q-41 0 -53.5 -24t-12.5 -78v-319h-94v411q0 19 -1 45.5t-2 47.5h90l2 -53q9 23 29.5 41.5t41.5 18.5q16 0 26 -4v-90zM170 597h-80l-92 145h67l65 -81l65 81h67z" />
    <glyph glyph-name="Sacute" unicode="&#x15a;" horiz-adv-x="382" 
d="M355 167q0 -40 -8.5 -73t-28 -56.5t-52 -36.5t-79.5 -13q-55 0 -88 17.5t-51 47.5t-24 70.5t-6 86.5h102q0 -28 1.5 -54t8 -46t19.5 -32t37 -12q38 0 52.5 27t14.5 75q0 27 -9 53t-41 56l-93 88q-26 25 -42.5 46.5t-26 44t-13 48t-3.5 57.5q0 87 44.5 130.5t123.5 43.5
q51 0 83 -16.5t49.5 -44.5t23.5 -66t6 -80h-100q0 66 -13 97.5t-51 31.5q-36 0 -51 -24.5t-15 -71.5q0 -17 2.5 -31.5t8.5 -29t17 -29.5t29 -33l113 -112q35 -35 47.5 -71.5t12.5 -87.5zM203 772h-60l69 145h100z" />
    <glyph glyph-name="sacute" unicode="&#x15b;" horiz-adv-x="335" 
d="M313 134q0 -71 -38 -106.5t-105 -35.5q-46 0 -75 12t-45.5 34t-23 52.5t-6.5 66.5v14h96v-14q0 -57 12 -77.5t41 -20.5q47 0 47 74q0 25 -12.5 41.5t-43.5 35.5l-60 37q-38 23 -57.5 54.5t-19.5 76.5q0 65 38.5 99.5t107.5 34.5q73 0 106.5 -34.5t33.5 -119.5v-12h-95v12
q0 45 -7 66t-38 21q-30 0 -40 -17.5t-10 -46.5q0 -23 11.5 -37t36.5 -30l53 -33q28 -18 46.5 -34t28.5 -32.5t14 -36t4 -44.5zM179 597h-60l69 145h100z" />
    <glyph glyph-name="Scircumflex" unicode="&#x15c;" horiz-adv-x="382" 
d="M355 167q0 -40 -8.5 -73t-28 -56.5t-52 -36.5t-79.5 -13q-55 0 -88 17.5t-51 47.5t-24 70.5t-6 86.5h102q0 -28 1.5 -54t8 -46t19.5 -32t37 -12q38 0 52.5 27t14.5 75q0 27 -9 53t-41 56l-93 88q-26 25 -42.5 46.5t-26 44t-13 48t-3.5 57.5q0 87 44.5 130.5t123.5 43.5
q51 0 83 -16.5t49.5 -44.5t23.5 -66t6 -80h-100q0 66 -13 97.5t-51 31.5q-36 0 -51 -24.5t-15 -71.5q0 -17 2.5 -31.5t8.5 -29t17 -29.5t29 -33l113 -112q35 -35 47.5 -71.5t12.5 -87.5zM257 772l-65 81l-65 -81h-67l92 145h80l92 -145h-67z" />
    <glyph glyph-name="scircumflex" unicode="&#x15d;" horiz-adv-x="335" 
d="M313 134q0 -71 -38 -106.5t-105 -35.5q-46 0 -75 12t-45.5 34t-23 52.5t-6.5 66.5v14h96v-14q0 -57 12 -77.5t41 -20.5q47 0 47 74q0 25 -12.5 41.5t-43.5 35.5l-60 37q-38 23 -57.5 54.5t-19.5 76.5q0 65 38.5 99.5t107.5 34.5q73 0 106.5 -34.5t33.5 -119.5v-12h-95v12
q0 45 -7 66t-38 21q-30 0 -40 -17.5t-10 -46.5q0 -23 11.5 -37t36.5 -30l53 -33q28 -18 46.5 -34t28.5 -32.5t14 -36t4 -44.5zM233 597l-65 81l-65 -81h-67l92 145h80l92 -145h-67z" />
    <glyph glyph-name="Scedilla" unicode="&#x15e;" horiz-adv-x="382" 
d="M281 -106q0 -32 -27 -54t-70 -22q-26 0 -44 5.5t-26 11.5l8 31q10 -5 20.5 -8.5t27.5 -3.5q25 0 35 10t10 25q0 17 -11 24.5t-27 7.5q-24 0 -44 -10l29 78q-47 4 -75 23t-43.5 48.5t-20.5 68t-5 81.5h102q0 -28 1.5 -54t8 -46t19.5 -32t37 -12q38 0 52.5 27t14.5 75
q0 27 -9 53t-41 56l-93 88q-26 25 -42.5 46.5t-26 44t-13 48t-3.5 57.5q0 87 44.5 130.5t123.5 43.5q51 0 83 -16.5t49.5 -44.5t23.5 -66t6 -80h-100q0 66 -13 97.5t-51 31.5q-36 0 -51 -24.5t-15 -71.5q0 -17 2.5 -31.5t8.5 -29t17 -29.5t29 -33l113 -112
q35 -35 47.5 -71.5t12.5 -87.5q0 -39 -8 -71t-26 -55.5t-48 -37t-74 -15.5l-12 -33q5 1 11 1.5t15 0.5q27 0 47.5 -16t20.5 -47z" />
    <glyph glyph-name="scedilla" unicode="&#x15f;" horiz-adv-x="335" 
d="M250 -106q0 -32 -27 -54t-70 -22q-26 0 -44 5.5t-26 11.5l8 31q10 -5 20.5 -8.5t27.5 -3.5q25 0 35 10t10 25q0 17 -11 24.5t-27 7.5q-24 0 -44 -10l32 84q-35 4 -57 18t-34.5 35t-17.5 48.5t-5 60.5v14h96v-14q0 -57 12 -77.5t41 -20.5q47 0 47 74q0 25 -12.5 41.5
t-43.5 35.5l-60 37q-38 23 -57.5 54.5t-19.5 76.5q0 65 38.5 99.5t107.5 34.5q73 0 106.5 -34.5t33.5 -119.5v-12h-95v12q0 45 -7 66t-38 21q-30 0 -40 -17.5t-10 -46.5q0 -23 11.5 -37t36.5 -30l53 -33q28 -18 46.5 -34t28.5 -32.5t14 -36t4 -44.5q0 -71 -37.5 -106.5
t-106.5 -35.5l-13 -37q5 1 11 1.5t15 0.5q27 0 47.5 -16t20.5 -47z" />
    <glyph glyph-name="uni0162" unicode="&#x162;" horiz-adv-x="348" 
d="M224 639v-639h-100v639h-120v84h340v-84h-120zM176 -212h-70l23 163h94z" />
    <glyph glyph-name="uni0163" unicode="&#x163;" horiz-adv-x="229" 
d="M227 -3q-17 -5 -27.5 -6t-29.5 -1q-35 0 -56 7.5t-32.5 22.5t-15.5 38t-4 55v327h-58v64h58v93l94 33v-126h65v-64h-65v-323q0 -32 6.5 -43.5t34.5 -11.5q8 0 13.5 1l16.5 3v-69zM121 -212h-70l23 163h94z" />
    <glyph glyph-name="Tcaron" unicode="&#x164;" horiz-adv-x="348" 
d="M224 639v-639h-100v639h-120v84h340v-84h-120zM214 772h-80l-92 145h67l65 -81l65 81h67z" />
    <glyph glyph-name="tcaron" unicode="&#x165;" horiz-adv-x="229" 
d="M227 -3q-17 -5 -27.5 -6t-29.5 -1q-35 0 -56 7.5t-32.5 22.5t-15.5 38t-4 55v327h-58v64h58v93l94 33v-126h65v-64h-65v-323q0 -32 6.5 -43.5t34.5 -11.5q8 0 13.5 1l16.5 3v-69zM286 526h-70l16 197h99z" />
    <glyph glyph-name="Tbar" unicode="&#x166;" horiz-adv-x="348" 
d="M30 330v82h94v227h-120v84h340v-84h-120v-227h94v-82h-94v-330h-100v330h-94z" />
    <glyph glyph-name="tbar" unicode="&#x167;" horiz-adv-x="229" 
d="M227 -3q-17 -5 -27.5 -6t-29.5 -1q-35 0 -56 7.5t-32.5 22.5t-15.5 38t-4 55v197h-58v64h58v66h-58v64h58v93l94 33v-126h65v-64h-65v-66h65v-64h-65v-193q0 -32 6.5 -43.5t34.5 -11.5q8 0 13.5 1l16.5 3v-69z" />
    <glyph glyph-name="Utilde" unicode="&#x168;" horiz-adv-x="418" 
d="M376 178q0 -44 -8.5 -79t-28 -59.5t-51.5 -38t-78 -13.5q-47 0 -79.5 12.5t-52 37t-28 60t-8.5 80.5v545h100v-545q0 -25 2.5 -45.5t10 -35.5t20.5 -23t34 -8t34 8t20.5 23t10 35.5t2.5 45.5v545h100v-545zM355 903q-1 -17 -6 -36t-16.5 -35t-29 -27t-43.5 -11
q-18 0 -34.5 6t-31 12.5t-26.5 12.5t-21 6q-12 0 -20.5 -13t-11.5 -30h-54q1 21 7 40.5t18 35t29.5 24.5t40.5 9q17 0 33 -6t30.5 -12.5t27 -12.5t22.5 -6q24 0 32 43h54z" />
    <glyph glyph-name="utilde" unicode="&#x169;" horiz-adv-x="354" 
d="M226 0l-3 46q-14 -25 -36.5 -39.5t-55.5 -14.5q-27 0 -45 8.5t-28.5 23t-14.5 34.5t-4 43v403h94v-379q0 -27 7.5 -43.5t33.5 -16.5q20 0 33 15t13 48v376h94v-410q0 -18 0.5 -40.5t2.5 -53.5h-91zM324 728q-1 -17 -6 -36t-16.5 -35t-29 -27t-43.5 -11q-18 0 -34.5 6
t-31 12.5t-26.5 12.5t-21 6q-12 0 -20.5 -13t-11.5 -30h-54q1 21 7 40.5t18 35t29.5 24.5t40.5 9q17 0 33 -6t30.5 -12.5t27 -12.5t22.5 -6q24 0 32 43h54z" />
    <glyph glyph-name="Umacron" unicode="&#x16a;" horiz-adv-x="418" 
d="M376 178q0 -44 -8.5 -79t-28 -59.5t-51.5 -38t-78 -13.5q-47 0 -79.5 12.5t-52 37t-28 60t-8.5 80.5v545h100v-545q0 -25 2.5 -45.5t10 -35.5t20.5 -23t34 -8t34 8t20.5 23t10 35.5t2.5 45.5v545h100v-545zM76 820v54h264v-54h-264z" />
    <glyph glyph-name="umacron" unicode="&#x16b;" horiz-adv-x="354" 
d="M226 0l-3 46q-14 -25 -36.5 -39.5t-55.5 -14.5q-27 0 -45 8.5t-28.5 23t-14.5 34.5t-4 43v403h94v-379q0 -27 7.5 -43.5t33.5 -16.5q20 0 33 15t13 48v376h94v-410q0 -18 0.5 -40.5t2.5 -53.5h-91zM45 643v54h264v-54h-264z" />
    <glyph glyph-name="Ubreve" unicode="&#x16c;" horiz-adv-x="418" 
d="M376 178q0 -44 -8.5 -79t-28 -59.5t-51.5 -38t-78 -13.5q-47 0 -79.5 12.5t-52 37t-28 60t-8.5 80.5v545h100v-545q0 -25 2.5 -45.5t10 -35.5t20.5 -23t34 -8t34 8t20.5 23t10 35.5t2.5 45.5v545h100v-545zM332 903q-4 -56 -34 -93t-90 -37q-35 0 -58 11t-37 29t-21 41.5
t-8 48.5h49q4 -30 24 -50t51 -20q35 0 54 22t21 48h49z" />
    <glyph glyph-name="ubreve" unicode="&#x16d;" horiz-adv-x="354" 
d="M226 0l-3 46q-14 -25 -36.5 -39.5t-55.5 -14.5q-27 0 -45 8.5t-28.5 23t-14.5 34.5t-4 43v403h94v-379q0 -27 7.5 -43.5t33.5 -16.5q20 0 33 15t13 48v376h94v-410q0 -18 0.5 -40.5t2.5 -53.5h-91zM301 728q-4 -56 -34 -93t-90 -37q-35 0 -58 11t-37 29t-21 41.5t-8 48.5
h49q4 -30 24 -50t51 -20q35 0 54 22t21 48h49z" />
    <glyph glyph-name="Uring" unicode="&#x16e;" horiz-adv-x="418" 
d="M376 178q0 -44 -8.5 -79t-28 -59.5t-51.5 -38t-78 -13.5q-47 0 -79.5 12.5t-52 37t-28 60t-8.5 80.5v545h100v-545q0 -25 2.5 -45.5t10 -35.5t20.5 -23t34 -8t34 8t20.5 23t10 35.5t2.5 45.5v545h100v-545zM298 831q0 -38 -26 -64t-64 -26t-64 26t-26 64t26 64t64 26
t64 -26t26 -64zM250 831q0 20 -12 33t-30 13t-30 -13t-12 -33t12 -33t30 -13t30 13t12 33z" />
    <glyph glyph-name="uring" unicode="&#x16f;" horiz-adv-x="354" 
d="M226 0l-3 46q-14 -25 -36.5 -39.5t-55.5 -14.5q-27 0 -45 8.5t-28.5 23t-14.5 34.5t-4 43v403h94v-379q0 -27 7.5 -43.5t33.5 -16.5q20 0 33 15t13 48v376h94v-410q0 -18 0.5 -40.5t2.5 -53.5h-91zM267 659q0 -38 -26 -64t-64 -26t-64 26t-26 64t26 64t64 26t64 -26
t26 -64zM219 659q0 20 -12 33t-30 13t-30 -13t-12 -33t12 -33t30 -13t30 13t12 33z" />
    <glyph glyph-name="Uhungarumlaut" unicode="&#x170;" horiz-adv-x="418" 
d="M376 178q0 -44 -8.5 -79t-28 -59.5t-51.5 -38t-78 -13.5q-47 0 -79.5 12.5t-52 37t-28 60t-8.5 80.5v545h100v-545q0 -25 2.5 -45.5t10 -35.5t20.5 -23t34 -8t34 8t20.5 23t10 35.5t2.5 45.5v545h100v-545zM298 772h-60l69 145h100zM139 772h-60l69 145h100z" />
    <glyph glyph-name="uhungarumlaut" unicode="&#x171;" horiz-adv-x="354" 
d="M226 0l-3 46q-14 -25 -36.5 -39.5t-55.5 -14.5q-27 0 -45 8.5t-28.5 23t-14.5 34.5t-4 43v403h94v-379q0 -27 7.5 -43.5t33.5 -16.5q20 0 33 15t13 48v376h94v-410q0 -18 0.5 -40.5t2.5 -53.5h-91zM267 597h-60l69 145h100zM108 597h-60l69 145h100z" />
    <glyph glyph-name="Uogonek" unicode="&#x172;" horiz-adv-x="418" 
d="M287 -188q-11 -6 -28 -11t-37 -5q-51 0 -71 19.5t-20 51.5q0 31 14 63.5t39 58.5q-40 3 -67 17t-43.5 38t-24 58t-7.5 76v545h100v-545q0 -25 2.5 -45.5t10 -35.5t20.5 -23t34 -8t34 8t20.5 23t10 35.5t2.5 45.5v545h100v-545q0 -79 -30 -129t-103 -59q-22 -32 -31 -57.5
t-9 -45.5t10.5 -32.5t30.5 -12.5q9 0 17 4t16 9z" />
    <glyph glyph-name="uogonek" unicode="&#x173;" horiz-adv-x="354" 
d="M317 0q-26 -35 -36.5 -63t-10.5 -50q0 -20 10.5 -32.5t30.5 -12.5q9 0 17 4t16 9l10 -43q-11 -6 -28 -11t-37 -5q-51 0 -71 19.5t-20 51.5q0 34 17.5 70t46.5 63h-36l-3 46q-14 -25 -36.5 -39.5t-55.5 -14.5q-27 0 -45 8.5t-28.5 23t-14.5 34.5t-4 43v403h94v-379
q0 -27 7.5 -43.5t33.5 -16.5q20 0 33 15t13 48v376h94v-410q0 -18 0.5 -40.5t2.5 -53.5z" />
    <glyph glyph-name="Wcircumflex" unicode="&#x174;" horiz-adv-x="650" 
d="M528 0h-127l-74 611l-78 -611h-127l-122 723h105l82 -613l74 613h140l71 -613l83 613h95zM396 772l-65 81l-65 -81h-67l92 145h80l92 -145h-67z" />
    <glyph glyph-name="wcircumflex" unicode="&#x175;" horiz-adv-x="555" 
d="M460 0h-119l-61 403l-66 -403h-118l-94 504h108l51 -404l61 404h120l61 -404l51 404h99zM347 597l-65 81l-65 -81h-67l92 145h80l92 -145h-67z" />
    <glyph glyph-name="Ycircumflex" unicode="&#x176;" horiz-adv-x="369" 
d="M234 296v-296h-100v296l-138 427h100l93 -321l90 321h94zM251 772l-65 81l-65 -81h-67l92 145h80l92 -145h-67z" />
    <glyph glyph-name="ycircumflex" unicode="&#x177;" horiz-adv-x="339" 
d="M179 -196h-88l37 171l-126 529h104l72 -383l59 383h101zM240 597l-65 81l-65 -81h-67l92 145h80l92 -145h-67z" />
    <glyph glyph-name="Zacute" unicode="&#x179;" horiz-adv-x="346" 
d="M8 0v91l223 547h-205v84h305v-84l-223 -554h230v-84h-330zM187 772h-60l69 145h100z" />
    <glyph glyph-name="zacute" unicode="&#x17a;" horiz-adv-x="259" 
d="M16 0v70l139 361h-137v73h225v-82l-134 -349h137v-73h-230zM139 597h-60l69 145h100z" />
    <glyph glyph-name="Zdotaccent" unicode="&#x17b;" horiz-adv-x="346" 
d="M8 0v91l223 547h-205v84h305v-84l-223 -554h230v-84h-330zM137 797v100h78v-100h-78z" />
    <glyph glyph-name="zdotaccent" unicode="&#x17c;" horiz-adv-x="259" 
d="M16 0v70l139 361h-137v73h225v-82l-134 -349h137v-73h-230zM89 622v100h78v-100h-78z" />
    <glyph glyph-name="Scommaaccent" unicode="&#x218;" horiz-adv-x="382" 
d="M355 167q0 -40 -8.5 -73t-28 -56.5t-52 -36.5t-79.5 -13q-55 0 -88 17.5t-51 47.5t-24 70.5t-6 86.5h102q0 -28 1.5 -54t8 -46t19.5 -32t37 -12q38 0 52.5 27t14.5 75q0 27 -9 53t-41 56l-93 88q-26 25 -42.5 46.5t-26 44t-13 48t-3.5 57.5q0 87 44.5 130.5t123.5 43.5
q51 0 83 -16.5t49.5 -44.5t23.5 -66t6 -80h-100q0 66 -13 97.5t-51 31.5q-36 0 -51 -24.5t-15 -71.5q0 -17 2.5 -31.5t8.5 -29t17 -29.5t29 -33l113 -112q35 -35 47.5 -71.5t12.5 -87.5zM192 -212h-70l23 163h94z" />
    <glyph glyph-name="scommaaccent" unicode="&#x219;" horiz-adv-x="335" 
d="M313 134q0 -71 -38 -106.5t-105 -35.5q-46 0 -75 12t-45.5 34t-23 52.5t-6.5 66.5v14h96v-14q0 -57 12 -77.5t41 -20.5q47 0 47 74q0 25 -12.5 41.5t-43.5 35.5l-60 37q-38 23 -57.5 54.5t-19.5 76.5q0 65 38.5 99.5t107.5 34.5q73 0 106.5 -34.5t33.5 -119.5v-12h-95v12
q0 45 -7 66t-38 21q-30 0 -40 -17.5t-10 -46.5q0 -23 11.5 -37t36.5 -30l53 -33q28 -18 46.5 -34t28.5 -32.5t14 -36t4 -44.5zM171 -212h-70l23 163h94z" />
    <glyph glyph-name="uni021A" unicode="&#x21a;" horiz-adv-x="348" 
d="M224 639v-639h-100v639h-120v84h340v-84h-120zM176 -212h-70l23 163h94z" />
    <glyph glyph-name="uni021B" unicode="&#x21b;" horiz-adv-x="229" 
d="M227 -3q-17 -5 -27.5 -6t-29.5 -1q-35 0 -56 7.5t-32.5 22.5t-15.5 38t-4 55v327h-58v64h58v93l94 33v-126h65v-64h-65v-323q0 -32 6.5 -43.5t34.5 -11.5q8 0 13.5 1l16.5 3v-69zM121 -212h-70l23 163h94z" />
    <glyph glyph-name="dotlessj" unicode="&#x237;" horiz-adv-x="174" 
d="M134 -95q0 -31 -5.5 -52.5t-18.5 -35t-34.5 -19.5t-53.5 -6q-12 0 -23 1t-19 3v68q13 -3 24 -3q22 0 29 11.5t7 44.5v587h94v-599z" />
    <glyph glyph-name="caron" unicode="&#x2c7;" horiz-adv-x="168" 
d="M124 597h-80l-92 145h67l65 -81l65 81h67z" />
    <glyph glyph-name="uni02C9" unicode="&#x2c9;" horiz-adv-x="168" 
d="M-48 820v54h264v-54h-264z" />
    <glyph glyph-name="breve" unicode="&#x2d8;" horiz-adv-x="168" 
d="M208 728q-4 -56 -34 -93t-90 -37q-35 0 -58 11t-37 29t-21 41.5t-8 48.5h49q4 -30 24 -50t51 -20q35 0 54 22t21 48h49z" />
    <glyph glyph-name="dotaccent" unicode="&#x2d9;" horiz-adv-x="168" 
d="M45 622v100h78v-100h-78z" />
    <glyph glyph-name="ring" unicode="&#x2da;" horiz-adv-x="168" 
d="M174 659q0 -38 -26 -64t-64 -26t-64 26t-26 64t26 64t64 26t64 -26t26 -64zM126 659q0 20 -12 33t-30 13t-30 -13t-12 -33t12 -33t30 -13t30 13t12 33z" />
    <glyph glyph-name="ogonek" unicode="&#x2db;" horiz-adv-x="168" 
d="M280 -188q-11 -6 -28 -11t-37 -5q-51 0 -71 19.5t-20 51.5q0 40 24 82t63 69h46q-34 -42 -47.5 -74t-13.5 -57q0 -20 10.5 -32.5t30.5 -12.5q9 0 17 4t16 9z" />
    <glyph glyph-name="hungarumlaut" unicode="&#x2dd;" horiz-adv-x="168" 
d="M174 597h-60l69 145h100zM15 597h-60l69 145h100z" />
    <glyph glyph-name="uni0394" unicode="&#x394;" horiz-adv-x="430" 
d="M4 0l163 723h97l162 -723h-422zM214 569l-100 -491h197z" />
    <glyph glyph-name="uni03A9" unicode="&#x3a9;" horiz-adv-x="426" 
d="M211 735q67 0 103.5 -27.5t53 -77t19.5 -117t3 -148.5q0 -64 -4 -110.5t-12 -80t-20.5 -56.5t-30.5 -40h74v-78h-152v78q12 13 19.5 31.5t12.5 50.5t7 81t2 124q0 65 -1 119t-8 92.5t-22.5 59.5t-43.5 21t-43.5 -21t-22.5 -59.5t-8 -92.5t-1 -119q0 -75 2 -124t7 -81
t12.5 -50.5t19.5 -31.5v-78h-152v78h74q-18 17 -30.5 40t-20.5 56.5t-12 80t-4 110.5q0 74 3 141t19.5 118t53 81t103.5 30z" />
    <glyph glyph-name="uni03BC" unicode="&#x3bc;" horiz-adv-x="355" 
d="M227 0l-3 46q-8 -29 -22 -41.5t-31 -12.5q-24 0 -37 18v-206h-94v700h94v-377q0 -33 9 -47.5t32 -14.5q20 0 33 15t13 48v376h94v-410q0 -18 0.5 -40.5t2.5 -53.5h-91z" />
    <glyph glyph-name="pi" unicode="&#x3c0;" horiz-adv-x="451" 
d="M429 11q-33 -18 -70 -18q-29 0 -47 9.5t-28 26t-14 38.5t-4 46v312h-81v-425h-94v425h-59v79h393v-79h-67v-297q0 -30 10 -42t27 -12q15 0 34 10v-73z" />
    <glyph glyph-name="Wgrave" unicode="&#x1e80;" horiz-adv-x="650" 
d="M528 0h-127l-74 611l-78 -611h-127l-122 723h105l82 -613l74 613h140l71 -613l83 613h95zM319 772l-109 145h100l69 -145h-60z" />
    <glyph glyph-name="wgrave" unicode="&#x1e81;" horiz-adv-x="555" 
d="M460 0h-119l-61 403l-66 -403h-118l-94 504h108l51 -404l61 404h120l61 -404l51 404h99zM270 597l-109 145h100l69 -145h-60z" />
    <glyph glyph-name="Wacute" unicode="&#x1e82;" horiz-adv-x="650" 
d="M528 0h-127l-74 611l-78 -611h-127l-122 723h105l82 -613l74 613h140l71 -613l83 613h95zM341 772h-60l69 145h100z" />
    <glyph glyph-name="wacute" unicode="&#x1e83;" horiz-adv-x="555" 
d="M460 0h-119l-61 403l-66 -403h-118l-94 504h108l51 -404l61 404h120l61 -404l51 404h99zM293 597h-60l69 145h100z" />
    <glyph glyph-name="Wdieresis" unicode="&#x1e84;" horiz-adv-x="650" 
d="M528 0h-127l-74 611l-78 -611h-127l-122 723h105l82 -613l74 613h140l71 -613l83 613h95zM369 797v100h78v-100h-78zM215 797v100h78v-100h-78z" />
    <glyph glyph-name="wdieresis" unicode="&#x1e85;" horiz-adv-x="555" 
d="M460 0h-119l-61 403l-66 -403h-118l-94 504h108l51 -404l61 404h120l61 -404l51 404h99zM320 622v100h78v-100h-78zM166 622v100h78v-100h-78z" />
    <glyph glyph-name="Ygrave" unicode="&#x1ef2;" horiz-adv-x="369" 
d="M234 296v-296h-100v296l-138 427h100l93 -321l90 321h94zM176 772l-109 145h100l69 -145h-60z" />
    <glyph glyph-name="ygrave" unicode="&#x1ef3;" horiz-adv-x="339" 
d="M179 -196h-88l37 171l-126 529h104l72 -383l59 383h101zM159 597l-109 145h100l69 -145h-60z" />
    <glyph glyph-name="fraction" unicode="&#x2044;" horiz-adv-x="167" 
d="M0 -12h-60l230 747h60z" />
    <glyph glyph-name="zero.superior" unicode="&#x2070;" 
d="M235 679q0 -54 -3.5 -95.5t-15 -69.5t-33 -42t-58.5 -14t-59 14t-33 42t-14.5 69.5t-3.5 95.5t4.5 95t16.5 69t33.5 42t55.5 14q37 0 59 -14t33 -42t14.5 -69t3.5 -95zM155 679q0 51 -1 83.5t-4 52t-9 27t-16 7.5t-16 -7.5t-9 -27t-4 -52t-1 -83.5t1 -84t4 -52.5t9 -27
t16 -7.5t16 7.5t9 27t4 52.5t1 84z" />
    <glyph glyph-name="four.superior" unicode="&#x2074;" horiz-adv-x="240" 
d="M212 562v-100h-78v100h-135v54l104 279h109v-279h28v-54h-28zM134 811h-2l-67 -195h69v195z" />
    <glyph glyph-name="five.superior" unicode="&#x2075;" horiz-adv-x="240" 
d="M231 612q0 -42 -5.5 -71.5t-18 -48t-33 -26.5t-51.5 -8q-57 0 -80.5 27t-23.5 84v15h78v-10q0 -40 7 -53.5t20 -13.5q7 0 12.5 2t9.5 9t5.5 20t1.5 34v72q0 34 -8 44t-20 10q-13 0 -20 -12t-9 -49h-76l4 258h188v-51h-113l-3 -115q9 8 21.5 13.5t30.5 5.5q22 0 37.5 -6
t25.5 -21t15 -41.5t5 -67.5z" />
    <glyph glyph-name="six.superior" unicode="&#x2076;" 
d="M234 608q0 -44 -7 -73t-20.5 -46t-33.5 -24t-46 -7q-36 0 -57.5 10.5t-33.5 35.5t-15.5 67t-3.5 106q0 56 3.5 98t15.5 69.5t34 41t58 13.5q60 0 81 -30t21 -83h-78q0 35 -5.5 49t-17.5 14q-8 0 -14 -5t-10 -19t-6 -39.5t-2 -66.5q8 10 20 16.5t29 6.5q40 0 64 -30
t24 -104zM156 600q0 56 -7 74.5t-22 18.5t-22 -18.5t-7 -74.5t7 -74.5t22 -18.5t22 18.5t7 74.5z" />
    <glyph glyph-name="seven.superior" unicode="&#x2077;" 
d="M138 462h-83l88 371h-119v62h199v-50z" />
    <glyph glyph-name="eight.superior" unicode="&#x2078;" 
d="M234 580q0 -63 -25.5 -92.5t-83.5 -29.5q-59 0 -84 29.5t-25 92.5q0 27 4 44.5t11.5 29t19 18t26.5 11.5q-15 4 -25.5 10.5t-17.5 18t-10.5 28t-3.5 41.5q0 63 26.5 90.5t78.5 27.5q51 0 78 -26t27 -92q0 -27 -4 -44t-11.5 -27.5t-19 -16t-26.5 -10.5q17 -4 29 -10
t20 -17.5t12 -30t4 -45.5zM153 785q0 38 -6 51t-22 13q-14 0 -21 -13.5t-7 -50.5q0 -23 1.5 -38t5 -23t8.5 -11t13 -3q16 0 22 15.5t6 59.5zM155 588q0 44 -7.5 58.5t-22.5 14.5q-14 0 -22 -14.5t-8 -58.5q0 -27 1.5 -43t5.5 -24.5t9.5 -11t13.5 -2.5q7 0 13 3t9.5 11.5
t5.5 24.5t2 42z" />
    <glyph glyph-name="nine.superior" unicode="&#x2079;" 
d="M233 677q0 -63 -4.5 -105t-16.5 -67.5t-34 -36t-57 -10.5q-32 0 -51.5 8.5t-30.5 24.5t-15 37.5t-4 48.5v5h78v-7q0 -41 6 -54.5t18 -13.5q19 0 25 26t6 98v18q-5 -12 -19 -18.5t-30 -6.5q-42 0 -65 32.5t-23 91.5q0 44 6.5 73t20 46.5t33.5 24.5t47 7q38 0 60 -12
t33 -38.5t14 -69t3 -102.5zM152 761q0 53 -7 70.5t-22 17.5t-22 -17.5t-7 -70.5t7 -70.5t22 -17.5t22 17.5t7 70.5z" />
    <glyph glyph-name="zero.inferior" unicode="&#x2080;" 
d="M235 46q0 -54 -3.5 -95.5t-15 -69.5t-33 -42t-58.5 -14t-59 14t-33 42t-14.5 69.5t-3.5 95.5t4.5 95t16.5 69t33.5 42t55.5 14q37 0 59 -14t33 -42t14.5 -69t3.5 -95zM155 46q0 51 -1 83.5t-4 52t-9 27t-16 7.5t-16 -7.5t-9 -27t-4 -52t-1 -83.5t1 -84t4 -52.5t9 -27
t16 -7.5t16 7.5t9 27t4 52.5t1 84z" />
    <glyph glyph-name="one.inferior" unicode="&#x2081;" 
d="M95 -171v340h-2q-22 -27 -49 -45v66q17 14 31.5 32.5t25.5 39.5h72v-433h-78z" />
    <glyph glyph-name="two.inferior" unicode="&#x2082;" 
d="M231 161q0 -34 -10.5 -65t-30.5 -64l-88 -143h128v-60h-209v60l90 151q22 35 32 64.5t10 67.5q0 44 -24 44q-14 0 -20 -14t-6 -54h-78q0 65 28.5 91.5t74.5 26.5q53 0 78 -25t25 -80z" />
    <glyph glyph-name="three.inferior" unicode="&#x2083;" 
d="M229 -66q0 -18 -4.5 -37.5t-16 -35t-32 -26t-53.5 -10.5q-32 0 -52 8.5t-31.5 23.5t-16 34.5t-4.5 42.5v13h78v-18q0 -29 6.5 -41.5t19.5 -12.5q14 0 21 12t7 42v36q0 26 -10.5 41t-39.5 15h-15v60h19q26 0 35 18t9 46v28q0 26 -6.5 34.5t-18.5 8.5q-14 0 -19.5 -13.5
t-5.5 -36.5v-13h-78q0 54 25 83.5t81 29.5q59 0 79.5 -30.5t20.5 -85.5q0 -36 -12.5 -62t-53.5 -37q18 -6 31 -13.5t21 -20.5t12 -32.5t4 -50.5z" />
    <glyph glyph-name="four.inferior" unicode="&#x2084;" horiz-adv-x="240" 
d="M212 -71v-100h-78v100h-135v54l104 279h109v-279h28v-54h-28zM134 178h-2l-67 -195h69v195z" />
    <glyph glyph-name="five.inferior" unicode="&#x2085;" horiz-adv-x="240" 
d="M231 -21q0 -42 -5.5 -71.5t-18 -48t-33 -26.5t-51.5 -8q-57 0 -80.5 27t-23.5 84v15h78v-10q0 -40 7 -53.5t20 -13.5q7 0 12.5 2t9.5 9t5.5 20t1.5 34v72q0 34 -8 44t-20 10q-13 0 -20 -12t-9 -49h-76l4 258h188v-51h-113l-3 -115q9 8 21.5 13.5t30.5 5.5q22 0 37.5 -6
t25.5 -21t15 -41.5t5 -67.5z" />
    <glyph glyph-name="six.inferior" unicode="&#x2086;" 
d="M234 -25q0 -44 -7 -73t-20.5 -46t-33.5 -24t-46 -7q-36 0 -57.5 10.5t-33.5 35.5t-15.5 67t-3.5 106q0 56 3.5 98t15.5 69.5t34 41t58 13.5q60 0 81 -30t21 -83h-78q0 35 -5.5 49t-17.5 14q-8 0 -14 -5t-10 -19t-6 -39.5t-2 -66.5q8 10 20 16.5t29 6.5q40 0 64 -30
t24 -104zM156 -33q0 56 -7 74.5t-22 18.5t-22 -18.5t-7 -74.5t7 -74.5t22 -18.5t22 18.5t7 74.5z" />
    <glyph glyph-name="seven.inferior" unicode="&#x2087;" 
d="M138 -171h-83l88 371h-119v62h199v-50z" />
    <glyph glyph-name="eight.inferior" unicode="&#x2088;" 
d="M234 -53q0 -63 -25.5 -92.5t-83.5 -29.5q-59 0 -84 29.5t-25 92.5q0 27 4 44.5t11.5 29t19 18t26.5 11.5q-15 4 -25.5 10.5t-17.5 18t-10.5 28t-3.5 41.5q0 63 26.5 90.5t78.5 27.5q51 0 78 -26t27 -92q0 -27 -4 -44t-11.5 -27.5t-19 -16t-26.5 -10.5q17 -4 29 -10
t20 -17.5t12 -30t4 -45.5zM153 152q0 38 -6 51t-22 13q-14 0 -21 -13.5t-7 -50.5q0 -23 1.5 -38t5 -23t8.5 -11t13 -3q16 0 22 15.5t6 59.5zM155 -45q0 44 -7.5 58.5t-22.5 14.5q-14 0 -22 -14.5t-8 -58.5q0 -27 1.5 -43t5.5 -24.5t9.5 -11t13.5 -2.5q7 0 13 3t9.5 11.5
t5.5 24.5t2 42z" />
    <glyph glyph-name="nine.inferior" unicode="&#x2089;" 
d="M233 44q0 -63 -4.5 -105t-16.5 -67.5t-34 -36t-57 -10.5q-32 0 -51.5 8.5t-30.5 24.5t-15 37.5t-4 48.5v5h78v-7q0 -41 6 -54.5t18 -13.5q19 0 25 26t6 98v18q-5 -12 -19 -18.5t-30 -6.5q-42 0 -65 32.5t-23 91.5q0 44 6.5 73t20 46.5t33.5 24.5t47 7q38 0 60 -12
t33 -38.5t14 -69t3 -102.5zM152 128q0 53 -7 70.5t-22 17.5t-22 -17.5t-7 -70.5t7 -70.5t22 -17.5t22 17.5t7 70.5z" />
    <glyph glyph-name="afii61289" unicode="&#x2113;" horiz-adv-x="434" 
d="M211 140q0 -74 49 -74q20 0 35.5 10.5t29.5 36.5l59 -39q-28 -46 -62 -65t-76 -19q-57 0 -90.5 39t-33.5 112v30l-27 -33l-55 45l82 99v279q0 49 10 82.5t27.5 53.5t41.5 29t52 9q54 0 86 -35.5t32 -101.5q0 -35 -9.5 -70.5t-29 -74t-50 -81.5t-71.5 -93v-139zM211 393
q81 114 81 205q0 37 -11 53t-28 16q-9 0 -17 -4t-13.5 -14t-8.5 -27.5t-3 -44.5v-184z" />
    <glyph glyph-name="Omega" unicode="&#x2126;" horiz-adv-x="426" 
d="M211 735q67 0 103.5 -27.5t53 -77t19.5 -117t3 -148.5q0 -64 -4 -110.5t-12 -80t-20.5 -56.5t-30.5 -40h74v-78h-152v78q12 13 19.5 31.5t12.5 50.5t7 81t2 124q0 65 -1 119t-8 92.5t-22.5 59.5t-43.5 21t-43.5 -21t-22.5 -59.5t-8 -92.5t-1 -119q0 -75 2 -124t7 -81
t12.5 -50.5t19.5 -31.5v-78h-152v78h74q-18 17 -30.5 40t-20.5 56.5t-12 80t-4 110.5q0 74 3 141t19.5 118t53 81t103.5 30z" />
    <glyph glyph-name="estimated" unicode="&#x212e;" horiz-adv-x="600" 
d="M157 259v-181q59 -59 145 -59q63 0 109 28.5t84 91.5l35 -21q-23 -36 -46.5 -61.5t-51 -42t-59.5 -24t-71 -7.5q-59 0 -106.5 21.5t-81.5 59t-52 87.5t-18 108t18 108.5t52 87.5t81.5 58.5t106.5 21.5q58 0 105.5 -20.5t81.5 -57t53 -87t19 -111.5h-404zM448 295v145
q-63 60 -147 60t-144 -60v-145h291z" />
    <glyph glyph-name="onethird" unicode="&#x2153;" horiz-adv-x="555" 
d="M84 290v340h-2q-22 -27 -49 -45v66q6 4 14.5 13t17 20t15.5 21.5t10 17.5h72v-433h-78zM163 -12h-60l230 747h60zM523 106q0 -18 -4.5 -37.5t-16 -35t-32 -26t-53.5 -10.5q-32 0 -52 8.5t-31.5 23.5t-16 34.5t-4.5 42.5v13h78v-18q0 -29 6.5 -41.5t19.5 -12.5q14 0 21 12
t7 42v36q0 26 -10.5 41t-39.5 15h-15v60h19q26 0 35 18t9 46v28q0 26 -6.5 34.5t-18.5 8.5q-14 0 -19.5 -13.5t-5.5 -36.5v-13h-78q0 54 25 83.5t81 29.5q59 0 79.5 -30.5t20.5 -85.5q0 -36 -12.5 -62t-53.5 -37q18 -6 31 -13.5t21 -20.5t12 -32.5t4 -50.5z" />
    <glyph glyph-name="twothirds" unicode="&#x2154;" horiz-adv-x="615" 
d="M236 -12h-60l230 747h60zM228 622q0 -34 -10.5 -65t-30.5 -64l-88 -143h128v-60h-209v60l90 151q22 35 32 64.5t10 67.5q0 44 -24 44q-14 0 -20 -14t-6 -54h-78q0 65 28.5 91.5t74.5 26.5q53 0 78 -25t25 -80zM597 106q0 -18 -4.5 -37.5t-16 -35t-32 -26t-53.5 -10.5
q-32 0 -52 8.5t-31.5 23.5t-16 34.5t-4.5 42.5v13h78v-18q0 -29 6.5 -41.5t19.5 -12.5q14 0 21 12t7 42v36q0 26 -10.5 41t-39.5 15h-15v60h19q26 0 35 18t9 46v28q0 26 -6.5 34.5t-18.5 8.5q-14 0 -19.5 -13.5t-5.5 -36.5v-13h-78q0 54 25 83.5t81 29.5q59 0 79.5 -30.5
t20.5 -85.5q0 -36 -12.5 -62t-53.5 -37q18 -6 31 -13.5t21 -20.5t12 -32.5t4 -50.5z" />
    <glyph glyph-name="oneeighth" unicode="&#x215b;" horiz-adv-x="555" 
d="M84 290v340h-2q-22 -27 -49 -45v66q6 4 14.5 13t17 20t15.5 21.5t10 17.5h72v-433h-78zM163 -12h-60l230 747h60zM526 118q0 -63 -25.5 -92.5t-83.5 -29.5q-59 0 -84 29.5t-25 92.5q0 27 4 44.5t11.5 29t19 18t26.5 11.5q-15 4 -25.5 10.5t-17.5 18t-10.5 28t-3.5 41.5
q0 63 26.5 90.5t78.5 27.5q51 0 78 -26t27 -92q0 -27 -4 -44t-11.5 -27.5t-19 -16t-26.5 -10.5q17 -4 29 -10t20 -17.5t12 -30t4 -45.5zM445 323q0 38 -6 51t-22 13q-14 0 -21 -13.5t-7 -50.5q0 -23 1.5 -38t5 -23t8.5 -11t13 -3q16 0 22 15.5t6 59.5zM447 126
q0 44 -7.5 58.5t-22.5 14.5q-14 0 -22 -14.5t-8 -58.5q0 -27 1.5 -43t5.5 -24.5t9.5 -11t13.5 -2.5q7 0 13 3t9.5 11.5t5.5 24.5t2 42z" />
    <glyph glyph-name="threeeighths" unicode="&#x215c;" horiz-adv-x="555" 
d="M192 -12h-60l230 747h60zM538 118q0 -63 -25.5 -92.5t-83.5 -29.5q-59 0 -84 29.5t-25 92.5q0 27 4 44.5t11.5 29t19 18t26.5 11.5q-15 4 -25.5 10.5t-17.5 18t-10.5 28t-3.5 41.5q0 63 26.5 90.5t78.5 27.5q51 0 78 -26t27 -92q0 -27 -4 -44t-11.5 -27.5t-19 -16
t-26.5 -10.5q17 -4 29 -10t20 -17.5t12 -30t4 -45.5zM457 323q0 38 -6 51t-22 13q-14 0 -21 -13.5t-7 -50.5q0 -23 1.5 -38t5 -23t8.5 -11t13 -3q16 0 22 15.5t6 59.5zM459 126q0 44 -7.5 58.5t-22.5 14.5q-14 0 -22 -14.5t-8 -58.5q0 -27 1.5 -43t5.5 -24.5t9.5 -11
t13.5 -2.5q7 0 13 3t9.5 11.5t5.5 24.5t2 42zM225 395q0 -18 -4.5 -37.5t-16 -35t-32 -26t-53.5 -10.5q-32 0 -52 8.5t-31.5 23.5t-16 34.5t-4.5 42.5v13h78v-18q0 -29 6.5 -41.5t19.5 -12.5q14 0 21 12t7 42v36q0 26 -10.5 41t-39.5 15h-15v60h19q26 0 35 18t9 46v28
q0 26 -6.5 34.5t-18.5 8.5q-14 0 -19.5 -13.5t-5.5 -36.5v-13h-78q0 54 25 83.5t81 29.5q59 0 79.5 -30.5t20.5 -85.5q0 -36 -12.5 -62t-53.5 -37q18 -6 31 -13.5t21 -20.5t12 -32.5t4 -50.5z" />
    <glyph glyph-name="fiveeighths" unicode="&#x215d;" horiz-adv-x="555" 
d="M192 -12h-60l230 747h60zM228 440q0 -44 -5.5 -73.5t-18 -47.5t-33 -25.5t-51.5 -7.5q-57 0 -80.5 25.5t-23.5 85.5v15h78v-10q0 -40 7 -53.5t20 -13.5q7 0 12.5 2t9.5 9t5.5 20t1.5 34v72q0 34 -8 44t-20 10q-13 0 -20 -12t-9 -49h-76l4 258h188v-51h-113l-3 -115
q9 8 21.5 13.5t30.5 5.5q22 0 37.5 -4.5t25.5 -19t15 -41t5 -71.5zM538 118q0 -63 -25.5 -92.5t-83.5 -29.5q-59 0 -84 29.5t-25 92.5q0 27 4 44.5t11.5 29t19 18t26.5 11.5q-15 4 -25.5 10.5t-17.5 18t-10.5 28t-3.5 41.5q0 63 26.5 90.5t78.5 27.5q51 0 78 -26t27 -92
q0 -27 -4 -44t-11.5 -27.5t-19 -16t-26.5 -10.5q17 -4 29 -10t20 -17.5t12 -30t4 -45.5zM457 323q0 38 -6 51t-22 13q-14 0 -21 -13.5t-7 -50.5q0 -23 1.5 -38t5 -23t8.5 -11t13 -3q16 0 22 15.5t6 59.5zM459 126q0 44 -7.5 58.5t-22.5 14.5q-14 0 -22 -14.5t-8 -58.5
q0 -27 1.5 -43t5.5 -24.5t9.5 -11t13.5 -2.5q7 0 13 3t9.5 11.5t5.5 24.5t2 42z" />
    <glyph glyph-name="seveneighths" unicode="&#x215e;" horiz-adv-x="555" 
d="M163 -12h-60l230 747h60zM526 118q0 -68 -25.5 -95t-83.5 -27q-59 0 -84 27t-25 95q0 27 4 44.5t11.5 29t19 18t26.5 11.5q-15 4 -25.5 10t-17.5 16.5t-10.5 27.5t-3.5 44q0 67 26.5 92.5t78.5 25.5q25 0 45 -5.5t33 -19t20 -36t7 -57.5q0 -27 -4 -44t-11.5 -27.5
t-19 -16t-26.5 -10.5q17 -4 29 -10t20 -17.5t12 -30t4 -45.5zM445 323q0 38 -6 51t-22 13q-14 0 -21 -13.5t-7 -50.5q0 -23 1.5 -38t5 -23t8.5 -11t13 -3q16 0 22 15.5t6 59.5zM447 126q0 44 -7.5 58.5t-22.5 14.5q-14 0 -22 -14.5t-8 -58.5q0 -27 1.5 -43t5.5 -24.5
t9.5 -11t13.5 -2.5q7 0 13 3t9.5 11.5t5.5 24.5t2 42zM143 290h-83l88 371h-119v62h199v-50z" />
    <glyph glyph-name="partialdiff" unicode="&#x2202;" horiz-adv-x="425" 
d="M178 654q-23 0 -43.5 -12t-38.5 -29l-46 61q28 26 63.5 43.5t73.5 17.5q94 0 147.5 -93.5t53.5 -266.5q0 -103 -14 -176.5t-39.5 -120t-62 -68t-81.5 -21.5q-72 0 -114 54t-42 154q0 59 13 105t36 77.5t53 47.5t65 16q29 0 53.5 -12.5t41.5 -35.5q-2 130 -35.5 194.5
t-83.5 64.5zM214 359q-36 0 -62.5 -39t-26.5 -123q0 -69 19 -98.5t51 -29.5q40 0 67 56t34 179q-19 30 -38.5 42.5t-43.5 12.5z" />
    <glyph glyph-name="Delta" unicode="&#x2206;" horiz-adv-x="430" 
d="M4 0l163 723h97l162 -723h-422zM214 569l-100 -491h197z" />
    <glyph glyph-name="product" unicode="&#x220f;" horiz-adv-x="515" 
d="M361 -192v894h-207v-894h-94v978h395v-978h-94z" />
    <glyph glyph-name="summation" unicode="&#x2211;" horiz-adv-x="456" 
d="M36 -192v78l192 425l-178 398v77h364v-84h-254l175 -390l-193 -420h284v-84h-390z" />
    <glyph glyph-name="minus" unicode="&#x2212;" horiz-adv-x="516" 
d="M45 211v84h426v-84h-426z" />
    <glyph glyph-name="uni2215" unicode="&#x2215;" horiz-adv-x="167" 
d="M0 -12h-60l230 747h60z" />
    <glyph glyph-name="uni2219" unicode="&#x2219;" horiz-adv-x="208" 
d="M45 240v118h118v-118h-118z" />
    <glyph glyph-name="radical" unicode="&#x221a;" horiz-adv-x="501" 
d="M304 -202h-99l-102 342l-60 -18l-17 59l140 41l84 -294l175 859h84z" />
    <glyph glyph-name="infinity" unicode="&#x221e;" horiz-adv-x="751" 
d="M210 396q45 0 84 -24.5t81 -72.5q42 50 80.5 73.5t87.5 23.5q33 0 60.5 -11.5t47 -32.5t30 -49.5t10.5 -62.5q0 -32 -11 -60t-31.5 -49.5t-49 -34t-63.5 -12.5q-41 0 -78.5 21t-84.5 76q-47 -57 -87 -77t-82 -20q-33 0 -60.5 11.5t-47 32.5t-30 49.5t-10.5 62.5
q0 31 11 59.5t31 50t48.5 34t63.5 12.5zM211 157q27 0 54 19t62 62q-35 44 -61.5 64.5t-52.5 20.5q-34 0 -55.5 -24.5t-21.5 -58.5q0 -36 21 -59.5t54 -23.5zM537 323q-26 0 -54 -19t-63 -62q35 -45 61 -65t53 -20q33 0 55 24.5t22 58.5q0 36 -20.5 59.5t-53.5 23.5z" />
    <glyph glyph-name="integral" unicode="&#x222b;" horiz-adv-x="416" 
d="M253 -8q0 -50 -11 -86.5t-29.5 -60.5t-44 -35.5t-55.5 -11.5q-14 0 -27.5 2.5t-21.5 5.5l13 71q5 -2 11 -3t14 -1q29 0 44.5 28.5t15.5 88.5v599q0 49 11 85.5t29.5 60.5t44 36t55.5 12q14 0 27.5 -2.5t21.5 -5.5l-13 -71q-5 2 -11 3t-14 1q-29 0 -44.5 -28.5
t-15.5 -88.5v-599z" />
    <glyph glyph-name="approxequal" unicode="&#x2248;" horiz-adv-x="516" 
d="M471 411q-2 -35 -12 -61t-25.5 -42.5t-36.5 -24.5t-43 -8q-27 0 -53 8.5t-50 19t-44.5 19.5t-36.5 9q-20 0 -33 -15t-16 -41h-76q3 70 37.5 103t79.5 33q27 0 53 -9t50 -19.5t44.5 -19t36.5 -8.5q20 0 33 15t16 41h76zM471 229q-2 -35 -12 -61t-25.5 -42.5t-36.5 -24.5
t-43 -8q-27 0 -53 8.5t-50 19t-44.5 19.5t-36.5 9q-20 0 -33 -15t-16 -41h-76q3 70 37.5 103t79.5 33q27 0 53 -9t50 -19.5t44.5 -19t36.5 -8.5q20 0 33 15t16 41h76z" />
    <glyph glyph-name="notequal" unicode="&#x2260;" horiz-adv-x="516" 
d="M203 117l-75 -105l-55 40l46 65h-74v84h134l74 104h-208v84h267l76 106l57 -40l-48 -66h74v-84h-134l-74 -104h208v-84h-268z" />
    <glyph glyph-name="lessequal" unicode="&#x2264;" horiz-adv-x="516" 
d="M45 0v84h426v-84h-426zM45 294v77l426 186v-88l-323 -136l323 -135v-89z" />
    <glyph glyph-name="greaterequal" unicode="&#x2265;" horiz-adv-x="516" 
d="M45 0v84h426v-84h-426zM45 109v89l323 135l-323 136v88l426 -186v-77z" />
    <glyph glyph-name="lozenge" unicode="&#x25ca;" horiz-adv-x="414" 
d="M254 -30h-96l-138 391l139 392h96l139 -392zM207 643l-89 -282l89 -283l88 283z" />
    <glyph glyph-name="f_i" unicode="&#xf001;" horiz-adv-x="383" 
d="M227 652q-11 3 -21 3q-22 0 -36 -11t-14 -46v-94h67v-64h-67v-440h-94v440h-60v64h60v101q0 29 5.5 51.5t18.5 38.5t34.5 24t53.5 8q14 0 25 -1t28 -4v-70zM249 624v99h94v-99h-94zM249 0v504h94v-504h-94z" />
    <glyph glyph-name="f_l" unicode="&#xf002;" horiz-adv-x="383" 
d="M227 652q-11 3 -21 3q-22 0 -36 -11t-14 -46v-94h67v-64h-67v-440h-94v440h-60v64h60v101q0 29 5.5 51.5t18.5 38.5t34.5 24t53.5 8q14 0 25 -1t28 -4v-70zM249 0v723h94v-723h-94z" />
    <glyph glyph-name="uniF8FF" unicode="&#xf8ff;" horiz-adv-x="512" 
d="M222 117v67h56v-67h-56zM223 234v17q0 27 3 46.5t10 35t18 29t28 29.5q16 16 26 28t15 22t7 19t2 20q0 36 -22.5 57.5t-53.5 21.5t-53.5 -22t-28.5 -73l-50 8q7 72 44 104.5t91 32.5q27 0 49.5 -9t39 -25t26 -39.5t9.5 -51.5q0 -17 -2.5 -32.5t-9.5 -30.5t-19.5 -30
t-31.5 -33q-16 -14 -25.5 -25t-15 -22t-7 -23.5t-1.5 -29.5v-24h-48zM462 50v617h-412v-617h412zM512 718v-718h-512v718h512z" />
    </font>
</defs>
</svg>
