<?xml version="1.0" standalone="no"?>
<!DOCTYPE svg PUBLIC "-//W3C//DTD SVG 1.1//EN" "http://www.w3.org/Graphics/SVG/1.1/DTD/svg11.dtd" >
<svg xmlns="http://www.w3.org/2000/svg" xmlns:xlink="http://www.w3.org/1999/xlink" version="1.1">
<metadata>
Created by FontForge 20201107 at Tue Sep 28 13:02:11 2010
 By Jimmy Wärting
Copyright (c) 2010 Linotype GmbH, www.linotype.com. All rights reserved. This font software may not be reproduced, modified, disclosed or transferred without the express written approval of Linotype GmbH. Univers is a trademark of Linotype Corp. registered in the U.S. Patent and Trademark Office and may be registered in certain other jurisdictions in the name of Linotype Corp. or its licensee Linotype GmbH. This typeface is original artwork of Adrian Frutiger and Linotype Design Studio. The design may be protected in certain jurisdictions.
</metadata>
<defs>
<font id="UniversNextPro-Compressed" horiz-adv-x="376" >
  <font-face 
    font-family="Univers Next Pro Compressed"
    font-weight="400"
    font-stretch="extra-condensed"
    units-per-em="1000"
    panose-1="2 11 5 8 3 2 2 2 2 3"
    ascent="730"
    descent="-270"
    x-height="504"
    cap-height="723"
    bbox="-69 -214 878 916"
    underline-thickness="50"
    underline-position="-100"
    unicode-range="U+000D-FB04"
  />
<missing-glyph horiz-adv-x="512" 
d="M222 117v67h56v-67h-56zM223 234v17q0 27 3 46.5t10 35t18 29t28 29.5q16 16 26 28t15 22t7 19t2 20q0 36 -22.5 57.5t-53.5 21.5t-53.5 -22t-28.5 -73l-50 8q7 72 44 104.5t91 32.5q27 0 49.5 -9t39 -25t26 -39.5t9.5 -51.5q0 -17 -2.5 -32.5t-9.5 -30.5t-19.5 -30
t-31.5 -33q-16 -14 -25.5 -25t-15 -22t-7 -23.5t-1.5 -29.5v-24h-48zM462 50v617h-412v-617h412zM512 718v-718h-512v718h512z" />
    <glyph glyph-name="fi" unicode="fi" horiz-adv-x="338" 
d="M226 633v85h72v-85h-72zM226 0v504h72v-504h-72zM203 670q-8 2 -12 2.5t-8 0.5q-24 0 -37 -15.5t-13 -51.5v-102h67v-50h-67v-454h-71v454h-59v50h59v107q0 59 22 88.5t76 29.5q11 0 19.5 -1t23.5 -4v-54z" />
    <glyph glyph-name="fl" unicode="fl" horiz-adv-x="338" 
d="M226 0v723h72v-723h-72zM203 670q-8 2 -12 2.5t-8 0.5q-24 0 -37 -15.5t-13 -51.5v-102h67v-50h-67v-454h-71v454h-59v50h59v107q0 59 22 88.5t76 29.5q11 0 19.5 -1t23.5 -4v-54z" />
    <glyph glyph-name="IJ" unicode="IJ" horiz-adv-x="475" 
d="M46 0v723h76v-723h-76zM431 153q0 -36 -5.5 -66.5t-20 -52t-38.5 -34t-60 -12.5q-41 0 -66 15t-38.5 40.5t-17.5 59.5t-4 72v12h74v-13q0 -35 2.5 -59t8.5 -39t16 -21.5t25 -6.5q18 0 27.5 9.5t14 24.5t5.5 33t1 36v572h76v-570z" />
    <glyph glyph-name="ij" unicode="ij" horiz-adv-x="304" 
d="M40 633v85h72v-85h-72zM40 0v504h72v-504h-72zM192 633v85h72v-85h-72zM264 -105q0 -53 -19 -78t-74 -25q-18 0 -37 4v53q16 -3 25 -3q21 0 27 13t6 45v600h72v-609z" />
    <glyph glyph-name="napostrophe" unicode="&#x22;n" horiz-adv-x="320" 
d="M208 0v388q0 29 -7.5 48t-36.5 19q-23 0 -37.5 -19t-14.5 -57v-379h-72v406q0 20 -0.5 42.5t-2.5 55.5h70l2 -47q11 23 32.5 39t53.5 16q25 0 41.5 -8.5t26.5 -23t13.5 -33.5t3.5 -41v-406h-72zM23 535h-53l16 188h76z" />
    <glyph glyph-name="f_f" unicode="ff" horiz-adv-x="410" 
d="M207 669q-6 2 -11.5 3t-10.5 1q-26 0 -39 -15.5t-13 -51.5v-102h67v-50h-67v-454h-71v454h-59v50h59v107q0 59 21.5 88.5t78.5 29.5q11 0 20.5 -1t24.5 -4v-55zM412 669q-6 2 -11.5 3t-10.5 1q-26 0 -39 -15.5t-13 -51.5v-102h67v-50h-67v-454h-71v454h-59v50h59v107
q0 59 21.5 88.5t78.5 29.5q11 0 20.5 -1t24.5 -4v-55z" />
    <glyph glyph-name="f_f_i" unicode="ffi" horiz-adv-x="543" 
d="M207 669q-6 2 -11.5 3t-10.5 1q-26 0 -39 -15.5t-13 -51.5v-102h67v-50h-67v-454h-71v454h-59v50h59v107q0 59 21.5 88.5t78.5 29.5q11 0 20.5 -1t24.5 -4v-55zM431 633v85h72v-85h-72zM431 0v504h72v-504h-72zM408 670q-8 2 -12 2.5t-8 0.5q-24 0 -37 -15.5t-13 -51.5
v-102h67v-50h-67v-454h-71v454h-59v50h59v107q0 59 22 88.5t76 29.5q11 0 19.5 -1t23.5 -4v-54z" />
    <glyph glyph-name="f_f_l" unicode="ffl" horiz-adv-x="543" 
d="M207 669q-6 2 -11.5 3t-10.5 1q-26 0 -39 -15.5t-13 -51.5v-102h67v-50h-67v-454h-71v454h-59v50h59v107q0 59 21.5 88.5t78.5 29.5q11 0 20.5 -1t24.5 -4v-55zM431 0v723h72v-723h-72zM408 670q-8 2 -12 2.5t-8 0.5q-24 0 -37 -15.5t-13 -51.5v-102h67v-50h-67v-454h-71
v454h-59v50h59v107q0 59 22 88.5t76 29.5q11 0 19.5 -1t23.5 -4v-54z" />
    <glyph glyph-name=".notdef" horiz-adv-x="512" 
d="M222 117v67h56v-67h-56zM223 234v17q0 27 3 46.5t10 35t18 29t28 29.5q16 16 26 28t15 22t7 19t2 20q0 36 -22.5 57.5t-53.5 21.5t-53.5 -22t-28.5 -73l-50 8q7 72 44 104.5t91 32.5q27 0 49.5 -9t39 -25t26 -39.5t9.5 -51.5q0 -17 -2.5 -32.5t-9.5 -30.5t-19.5 -30
t-31.5 -33q-16 -14 -25.5 -25t-15 -22t-7 -23.5t-1.5 -29.5v-24h-48zM462 50v617h-412v-617h412zM512 718v-718h-512v718h512z" />
    <glyph glyph-name="nonmarkingreturn" unicode="&#xd;" horiz-adv-x="0" 
 />
    <glyph glyph-name="space" unicode=" " horiz-adv-x="188" 
 />
    <glyph glyph-name="exclam" unicode="!" horiz-adv-x="180" 
d="M120 163h-60l-10 560h80zM50 0v89h80v-89h-80z" />
    <glyph glyph-name="quotedbl" unicode="&#x22;" horiz-adv-x="285" 
d="M171 505v206h64v-206h-64zM50 505v206h65v-206h-65z" />
    <glyph glyph-name="numbersign" unicode="#" 
d="M292 446l-23 -163h65v-51h-71l-31 -232h-52l31 232h-77l-31 -232h-52l30 232h-64v51h70l23 163h-65v52h71l30 225h53l-31 -225h77l31 225h52l-31 -225h65v-52h-70zM162 446l-22 -163h76l23 163h-77z" />
    <glyph glyph-name="dollar" unicode="$" 
d="M328 155q0 -34 -6 -63t-20 -51t-37 -35.5t-57 -16.5v-67h-46v67q-36 4 -59 20.5t-36 42.5t-17.5 59.5t-4.5 71.5v18h73v-20q0 -19 2.5 -42t10 -43.5t21 -34.5t34.5 -14q38 0 53 28.5t15 79.5q0 32 -11 61.5t-35 63.5l-96 133q-32 44 -47 85.5t-15 75.5q0 28 6 54.5t19 48
t34.5 36t52.5 19.5v66h46v-65q36 -3 59 -19t36 -41.5t18 -58t5 -68.5v-12h-73v7q0 64 -12.5 98.5t-51.5 34.5q-37 0 -51.5 -27.5t-14.5 -72.5q0 -30 9.5 -55t36.5 -62l105 -141q28 -38 41 -75.5t13 -85.5z" />
    <glyph glyph-name="percent" unicode="%" horiz-adv-x="518" 
d="M500 178q0 -45 -1.5 -79.5t-9.5 -58t-26.5 -36t-51.5 -12.5t-51 13.5t-26.5 38t-10 59.5t-1.5 78v89q0 41 1 74t9.5 56.5t26.5 36t52 12.5q33 0 51.5 -13t26.5 -36.5t9.5 -56t1.5 -70.5v-95zM160 -12h-48l244 747h48zM196 459q0 -45 -1.5 -79.5t-9.5 -58t-26.5 -36
t-51.5 -12.5t-51 13.5t-26.5 38t-10 59.5t-1.5 78v89q0 41 1 74t9.5 56.5t26.5 36t52 12.5q33 0 51.5 -13t26.5 -36.5t9.5 -56t1.5 -70.5v-95zM448 272q0 27 -0.5 51.5t-4 43t-11 29t-21.5 10.5t-21 -11t-11 -30t-4.5 -43.5t-0.5 -51.5v-92q0 -33 0.5 -59t4.5 -45t11 -29
t21 -10t21.5 10t11 28t4 44t0.5 58v97zM144 553q0 27 -0.5 51.5t-4 43t-11 29t-21.5 10.5t-21 -11t-11 -30t-4.5 -43.5t-0.5 -51.5v-92q0 -33 0.5 -59t4.5 -45t11 -29t21 -10t21.5 10t11 28t4 44t0.5 58v97z" />
    <glyph glyph-name="ampersand" unicode="&#x26;" horiz-adv-x="422" 
d="M333 353v-353h-121q-53 0 -88.5 10.5t-57 34t-30.5 61t-9 91.5q0 46 5.5 79t18 55t32 35t48.5 20q-26 5 -43.5 15.5t-29 28.5t-16.5 45.5t-5 65.5q0 46 8 82t27.5 61t52 38t81.5 13q20 0 37 -2.5t31 -7.5v-61q-17 5 -32 7t-34 2q-49 0 -73 -30t-24 -102q0 -29 3.5 -52.5
t14.5 -40t30 -25t51 -8.5h53v143h70v-143h77v-62h-77zM263 353h-55q-36 0 -57.5 -10t-33 -29.5t-15 -49t-3.5 -69.5q0 -34 4 -59t15 -41.5t30 -24.5t49 -8h66v291z" />
    <glyph glyph-name="quotesingle" unicode="'" horiz-adv-x="165" 
d="M50 505v206h65v-206h-65z" />
    <glyph glyph-name="parenleft" unicode="(" horiz-adv-x="215" 
d="M144 -152q-37 107 -62.5 216t-25.5 215q0 108 26 221.5t63 222.5h52q-11 -38 -23.5 -93.5t-22.5 -116.5t-16.5 -122t-6.5 -112q0 -50 6 -109.5t16 -118.5t22.5 -112.5t24.5 -90.5h-53z" />
    <glyph glyph-name="parenright" unicode=")" horiz-adv-x="215" 
d="M159 279q0 -106 -25.5 -215t-62.5 -216h-53q12 37 24.5 90.5t22.5 112.5t16 118.5t6 109.5q0 51 -6.5 112t-16.5 122t-22.5 116.5t-23.5 93.5h52q37 -109 63 -222.5t26 -221.5z" />
    <glyph glyph-name="asterisk" unicode="*" horiz-adv-x="328" 
d="M191 584l63 -97l-35 -20l-54 99l-52 -101l-39 25l64 94l-114 -7v45l114 -7l-63 97l35 23l55 -102l52 102l39 -24l-65 -96l112 8v-46z" />
    <glyph glyph-name="plus" unicode="+" horiz-adv-x="484" 
d="M277 217v-166h-70v166h-161v64h161v167h70v-167h161v-64h-161z" />
    <glyph glyph-name="comma" unicode="," horiz-adv-x="188" 
d="M90 -74h-54l27 173h81z" />
    <glyph glyph-name="hyphen" unicode="-" horiz-adv-x="278" 
d="M29 229v60h220v-60h-220z" />
    <glyph glyph-name="period" unicode="." horiz-adv-x="188" 
d="M50 0v99h88v-99h-88z" />
    <glyph glyph-name="slash" unicode="/" horiz-adv-x="307" 
d="M72 -12h-65l227 747h66z" />
    <glyph glyph-name="zero" unicode="0" 
d="M346 365q0 -84 -3.5 -153.5t-19.5 -119t-47.5 -77t-87.5 -27.5t-87.5 26.5t-47 76t-19 119t-3.5 155.5q0 66 2.5 132.5t17.5 119t47 85.5t90 33t90 -29.5t47 -80t18 -117.5t3 -143zM271 365q0 79 -2.5 138t-11 97t-25 57t-44.5 19q-27 0 -43.5 -19t-25 -58t-11.5 -97.5
t-3 -136.5q0 -90 3.5 -151t12.5 -98t25 -53t42 -16q27 0 43.5 16t25 53.5t11.5 98t3 150.5z" />
    <glyph glyph-name="one" unicode="1" 
d="M159 0v623q-22 -22 -40 -36.5t-41 -28.5v75q13 10 24.5 19.5t22 19.5t21 22.5t22.5 29.5h64v-724h-73z" />
    <glyph glyph-name="two" unicode="2" 
d="M326 574q0 -44 -5 -78.5t-14 -66t-23 -61t-32 -62.5l-132 -242h211v-64h-300v60l160 284q16 28 27.5 53.5t19 52.5t11 57.5t3.5 68.5q0 48 -16 74t-51 26q-25 0 -40 -13t-22.5 -33t-9.5 -44.5t-2 -47.5h-74q0 45 8.5 81t26.5 62t46 40t67 14q38 0 65 -12t44 -33
t24.5 -50.5t7.5 -65.5z" />
    <glyph glyph-name="three" unicode="3" 
d="M333 201q0 -51 -7.5 -90.5t-24.5 -66.5t-45.5 -41.5t-70.5 -14.5t-69.5 12.5t-44.5 36t-24 58t-7 79.5v10h74v-11q0 -24 2.5 -46.5t10 -40t21 -28t35.5 -10.5q42 0 59 39.5t17 111.5q0 29 -3.5 55.5t-14 46t-29.5 31t-50 11.5h-48v60h47q30 0 48.5 10t28 28.5t13 44.5
t3.5 58q0 65 -15.5 98.5t-51.5 33.5q-38 0 -55 -31.5t-17 -95.5v-13h-73v15q0 86 35 135t107 49q43 0 71 -15t44 -40.5t22 -59.5t6 -73q0 -71 -19.5 -114.5t-74.5 -62.5q27 -8 46 -20t31 -31.5t17.5 -48t5.5 -69.5z" />
    <glyph glyph-name="four" unicode="4" 
d="M293 174v-174h-75v174h-184v60l165 489h94v-491h49v-58h-49zM221 617l-124 -385h124v385z" />
    <glyph glyph-name="five" unicode="5" 
d="M348 241q0 -50 -5.5 -96t-22 -81t-46.5 -55.5t-80 -20.5q-38 0 -66 13.5t-46 38t-26.5 57.5t-8.5 72v18h73v-13q0 -26 4 -49.5t13 -40.5t23.5 -27t34.5 -10q45 0 62 49t17 149q0 78 -17.5 119.5t-59.5 41.5q-35 0 -53 -26.5t-24 -74.5h-71l4 418h263v-61h-190l-5 -245
q34 48 91 48q69 0 102.5 -52.5t33.5 -171.5z" />
    <glyph glyph-name="six" unicode="6" 
d="M348 236q0 -121 -36.5 -184.5t-114.5 -63.5q-54 0 -85.5 23.5t-47.5 69t-20 113.5t-4 157q0 87 4.5 157.5t21 121t48 78t85.5 27.5q47 0 74.5 -16.5t41.5 -42.5t18.5 -59t6.5 -66h-73q-1 71 -17 98t-50 27q-26 0 -42 -16t-25.5 -50.5t-13.5 -88t-6 -129.5q13 32 37.5 51
t65.5 19q63 0 97.5 -51.5t34.5 -174.5zM276 236q0 38 -3 69t-11.5 52.5t-23.5 33.5t-40 12q-24 0 -40 -13t-25 -35.5t-12.5 -53t-3.5 -65.5v-23q0 -36 4.5 -66.5t14 -52.5t25 -34.5t36.5 -12.5q25 0 41 15t24 41t11 60.5t3 72.5z" />
    <glyph glyph-name="seven" unicode="7" 
d="M174 0h-81l165 657h-208v66h282v-57z" />
    <glyph glyph-name="eight" unicode="8" 
d="M342 195q0 -45 -7.5 -83t-25 -65.5t-47 -43t-73.5 -15.5q-45 0 -74.5 15.5t-47.5 43.5t-25 65.5t-7 82.5q0 40 5 69t16 49.5t29 34t44 22.5q-49 14 -68.5 55t-19.5 115q0 88 34 141.5t114 53.5q79 0 113 -52.5t34 -142.5q0 -73 -21.5 -112.5t-72.5 -56.5
q55 -14 77.5 -53.5t22.5 -122.5zM264 547q0 56 -16.5 92.5t-58.5 36.5q-41 0 -58.5 -37t-17.5 -92q0 -69 15 -106.5t61 -37.5q45 0 60 39t15 105zM269 199q0 67 -19 105.5t-61 38.5q-43 0 -62 -38t-19 -106q0 -81 18 -116.5t63 -35.5q44 0 62 36t18 116z" />
    <glyph glyph-name="nine" unicode="9" 
d="M340 369q0 -92 -4.5 -163t-21 -119.5t-48.5 -73.5t-86 -25q-44 0 -71.5 16.5t-43 43t-21 60t-5.5 68.5v8h74v-10q0 -128 68 -128q48 0 67 58t19 187v56q-14 -33 -38.5 -52t-65.5 -19q-34 0 -59 15.5t-41 43t-24 66t-8 85.5q0 121 35.5 183.5t114.5 62.5q48 0 78.5 -18.5
t48.5 -55t25 -91.5t7 -128v-70zM263 497q0 37 -3.5 69t-12.5 56t-25 37.5t-40 13.5q-26 0 -41.5 -15t-24 -40t-11.5 -58t-3 -69q0 -25 2.5 -52.5t11 -50.5t24 -38t42.5 -15q26 0 42 15t24.5 39t11.5 52.5t3 55.5z" />
    <glyph glyph-name="colon" unicode=":" horiz-adv-x="188" 
d="M50 404v99h88v-99h-88zM50 0v99h88v-99h-88z" />
    <glyph glyph-name="semicolon" unicode=";" horiz-adv-x="188" 
d="M50 404v99h88v-99h-88zM90 -74h-54l27 173h81z" />
    <glyph glyph-name="less" unicode="&#x3c;" horiz-adv-x="484" 
d="M46 219v60l392 170v-67l-313 -133l313 -131v-69z" />
    <glyph glyph-name="equal" unicode="=" horiz-adv-x="484" 
d="M46 304v65h392v-65h-392zM46 129v65h392v-65h-392z" />
    <glyph glyph-name="greater" unicode="&#x3e;" horiz-adv-x="484" 
d="M46 49v69l313 131l-313 133v67l392 -170v-60z" />
    <glyph glyph-name="question" unicode="?" horiz-adv-x="300" 
d="M268 588q0 -32 -7.5 -63t-21.5 -73l-40 -115q-9 -26 -12.5 -43.5t-3.5 -40.5v-94h-61v102q0 26 2.5 46t9.5 42l38 118q10 31 17.5 62.5t7.5 60.5q0 43 -10 66.5t-40 23.5q-31 0 -41.5 -28.5t-10.5 -82.5v-15h-72v18q0 71 29 115.5t96 44.5q35 0 58 -10t37 -28.5
t19.5 -45.5t5.5 -60zM113 0v82h80v-82h-80z" />
    <glyph glyph-name="at" unicode="@" horiz-adv-x="712" 
d="M485 94q-36 0 -53.5 19t-21.5 51q-31 -70 -99 -70q-41 0 -62.5 25t-21.5 77q0 21 3.5 49t8.5 60q19 113 53 159.5t82 46.5q26 0 41 -11t23 -31l6 35h65l-47 -273q-2 -8 -3 -18.5t-1 -21.5q0 -17 6 -29.5t24 -12.5q25 0 47 22.5t38.5 60t25.5 86t9 99.5q0 57 -11.5 105.5
t-36 84t-62.5 55.5t-90 20q-65 0 -120.5 -33.5t-96 -94.5t-63.5 -147.5t-23 -191.5q0 -138 57 -216t160 -78q54 0 95 13t78 36l27 -47q-40 -26 -88.5 -41.5t-111.5 -15.5q-66 0 -118 23.5t-87.5 68.5t-54 109.5t-18.5 146.5q0 120 28 216.5t77 164.5t115.5 105t143.5 37
q68 0 117.5 -24.5t81.5 -67t47 -101t15 -127.5q0 -60 -12.5 -118t-36.5 -103.5t-58 -73.5t-77 -28zM401 264q7 38 14.5 75.5t7.5 70.5q0 21 -8 36t-28 15q-14 0 -25 -7t-20 -25t-17.5 -48t-16.5 -76q-8 -41 -11.5 -68t-3.5 -47q0 -25 9 -35.5t24 -10.5q29 0 46 27t29 93z
" />
    <glyph glyph-name="A" unicode="A" horiz-adv-x="386" 
d="M302 0l-33 187h-155l-33 -187h-76l144 723h91l141 -723h-79zM191 634l-65 -382h132z" />
    <glyph glyph-name="B" unicode="B" horiz-adv-x="373" 
d="M344 201q0 -51 -7 -89t-24 -62.5t-45 -37t-71 -12.5h-151v723h145q82 0 113.5 -43t31.5 -129q0 -37 -3 -66t-12.5 -50.5t-28 -36t-48.5 -21.5q30 -8 49.5 -21t30.5 -34t15.5 -50.5t4.5 -70.5zM258 535q0 26 -2.5 49t-10.5 40.5t-23.5 27.5t-42.5 10h-57v-257h57
q47 0 63 32t16 98zM265 203q0 39 -3 66t-12.5 44t-27 24.5t-45.5 7.5h-55v-285h63q47 0 63.5 36t16.5 107z" />
    <glyph glyph-name="C" unicode="C" horiz-adv-x="352" 
d="M335 193q0 -40 -5 -77t-20 -65.5t-43.5 -45.5t-75.5 -17q-59 0 -91 26.5t-46.5 76t-17 120t-2.5 157.5q0 82 2.5 149.5t17.5 116t46.5 75t90.5 26.5q47 0 75.5 -15.5t43.5 -42.5t19.5 -63.5t4.5 -78.5h-76q0 66 -14.5 102.5t-52.5 36.5q-29 0 -45 -20.5t-23.5 -59.5
t-8.5 -96t-1 -130q0 -92 2.5 -153.5t11 -98.5t24.5 -52.5t42 -15.5q23 0 36 14t19 35.5t7.5 47t1.5 48.5h78z" />
    <glyph glyph-name="D" unicode="D" horiz-adv-x="380" 
d="M347 350q0 -84 -3 -149.5t-18.5 -110t-48.5 -67.5t-92 -23h-139v723h131q61 0 95.5 -22t51 -65t20 -106.5t3.5 -145.5v-34zM268 385q0 70 -2 121.5t-11 85t-27 49.5t-51 16h-55v-592h61q28 0 45 11.5t26 43t11.5 87t2.5 143.5v35z" />
    <glyph glyph-name="E" unicode="E" horiz-adv-x="305" 
d="M46 0v723h239v-64h-163v-253h152v-63h-152v-279h168v-64h-244z" />
    <glyph glyph-name="F" unicode="F" horiz-adv-x="298" 
d="M122 659v-253h153v-63h-153v-343h-76v723h240v-64h-164z" />
    <glyph glyph-name="G" unicode="G" horiz-adv-x="367" 
d="M335 9q-15 -5 -30 -8.5t-31.5 -6.5t-36.5 -4.5t-45 -1.5q-58 0 -90 26t-47 75.5t-18 120t-3 160.5q0 77 3 143.5t18 116t46.5 77.5t89.5 28q49 0 77.5 -17.5t43 -46t18.5 -64t4 -72.5h-76q0 66 -13 103t-54 37q-29 0 -45 -20t-24 -59t-9.5 -96.5t-1.5 -131.5
q0 -90 2 -151.5t11 -98.5t26.5 -53t47.5 -16q17 0 30 2t31 7v232h-72v63h148v-344z" />
    <glyph glyph-name="H" unicode="H" horiz-adv-x="383" 
d="M261 0v341h-139v-341h-76v723h76v-317h139v317h76v-723h-76z" />
    <glyph glyph-name="I" unicode="I" horiz-adv-x="168" 
d="M46 0v723h76v-723h-76z" />
    <glyph glyph-name="J" unicode="J" horiz-adv-x="307" 
d="M263 153q0 -36 -5.5 -66.5t-20 -52t-38.5 -34t-60 -12.5q-41 0 -66 15t-38.5 40.5t-17.5 59.5t-4 72v12h74v-13q0 -35 2.5 -59t8.5 -39t16 -21.5t25 -6.5q18 0 27.5 9.5t14 24.5t5.5 33t1 36v572h76v-570z" />
    <glyph glyph-name="K" unicode="K" horiz-adv-x="371" 
d="M286 0l-162 386l148 337h82l-154 -337l172 -386h-86zM46 0v723h76v-723h-76z" />
    <glyph glyph-name="L" unicode="L" horiz-adv-x="288" 
d="M46 0v723h76v-659h158v-64h-234z" />
    <glyph glyph-name="M" unicode="M" horiz-adv-x="574" 
d="M458 0v678l-123 -678h-98l-123 678v-678h-68v723h125l117 -656l114 656h126v-723h-70z" />
    <glyph glyph-name="N" unicode="N" horiz-adv-x="421" 
d="M254 0l-136 674v-674h-72v723h124l136 -675v675h69v-723h-121z" />
    <glyph glyph-name="O" unicode="O" horiz-adv-x="386" 
d="M352 367q0 -92 -2.5 -162.5t-17.5 -118.5t-47 -73t-92 -25t-92 25t-47 73t-17.5 118.5t-2.5 162.5q0 78 2.5 145t17.5 116.5t47.5 78t92.5 28.5t92.5 -25.5t47 -73.5t16.5 -116t2 -153zM273 367q0 75 -1.5 132.5t-9 96.5t-23.5 59t-46 20t-46.5 -21.5t-24 -62t-8.5 -97.5
t-1 -127q0 -84 1.5 -144t9 -99t23.5 -57.5t46 -18.5t46 20.5t23.5 60.5t9 99.5t1.5 138.5z" />
    <glyph glyph-name="P" unicode="P" horiz-adv-x="363" 
d="M345 516q0 -54 -6.5 -91t-23.5 -60t-45.5 -33.5t-73.5 -10.5h-74v-321h-76v723h151q42 0 70.5 -12t45.5 -37t24.5 -64.5t7.5 -93.5zM268 516q0 79 -17 111t-63 32h-66v-274h67q49 0 64 31.5t15 99.5z" />
    <glyph glyph-name="Q" unicode="Q" horiz-adv-x="385" 
d="M384 0h-21.5t-25.5 -0.5t-24.5 -1t-20.5 -0.5q-23 -1 -48.5 -3t-51.5 -2q-59 0 -91 26t-47 74t-17.5 117.5t-2.5 156.5q0 78 2.5 145t17.5 116.5t47 78t92 28.5t92 -25t47 -72t17.5 -115.5t2.5 -155.5q0 -57 -1 -105t-5 -86q-4 -39 -17 -75t-32 -53q7 1 20 2.5t26 2.5
t24.5 1.5t16.5 0.5v-55zM273 367q0 75 -1.5 132.5t-9 96.5t-23.5 59t-46 20t-46.5 -21.5t-24 -62t-8.5 -97.5t-1 -127q0 -82 1 -141.5t8.5 -97.5t24 -56.5t46.5 -18.5t46 20t23.5 59.5t9 98.5t1.5 136z" />
    <glyph glyph-name="R" unicode="R" horiz-adv-x="374" 
d="M270 0q-8 20 -10 51.5t-2 56.5l-1 126q-1 58 -18.5 78.5t-59.5 20.5h-57v-333h-76v723h149q78 0 111 -44.5t33 -141.5q0 -45 -6.5 -75t-18.5 -49t-30 -30t-42 -17q21 -4 37.5 -10.5t28.5 -20t18.5 -35.5t6.5 -57v-74q0 -26 1 -54q0 -11 0.5 -25t2 -30t4 -31.5t5.5 -28.5
h-76zM262 537q0 63 -16 93.5t-63 30.5h-61v-265h59q47 0 64 36t17 105z" />
    <glyph glyph-name="S" unicode="S" horiz-adv-x="345" 
d="M317 153q0 -36 -7 -66.5t-24 -52t-45 -34t-70 -12.5q-47 0 -76.5 15t-45.5 40.5t-21.5 60.5t-5.5 76v19h77v-14q0 -28 2 -53t9 -43.5t21 -29.5t39 -11q41 0 55.5 29t14.5 76q0 32 -11 62t-37 64l-116 152q-12 15 -21 34.5t-15 39.5t-9 39t-3 33q0 70 35.5 114t110.5 44
q45 0 72.5 -15t43 -40.5t21 -59.5t5.5 -71v-12h-76v8q0 61 -13 95.5t-55 34.5q-68 0 -68 -98q0 -30 10.5 -55t38.5 -62l109 -144q29 -38 42 -76.5t13 -86.5z" />
    <glyph glyph-name="T" unicode="T" horiz-adv-x="304" 
d="M190 659v-659h-76v659h-109v64h293v-64h-108z" />
    <glyph glyph-name="U" unicode="U" 
d="M332 162q0 -38 -6.5 -69.5t-23 -55t-44 -36.5t-69.5 -13t-70 12.5t-44.5 35.5t-23.5 55t-7 71v561h76v-561q0 -24 2.5 -45t9.5 -36t20.5 -24t35.5 -9t35.5 9t20.5 24t9.5 36t2.5 45v561h76v-561z" />
    <glyph glyph-name="V" unicode="V" horiz-adv-x="364" 
d="M228 0h-89l-138 723h78q29 -155 49 -270t33 -193q15 -92 24 -156l103 619h75z" />
    <glyph glyph-name="W" unicode="W" horiz-adv-x="593" 
d="M470 0h-96l-77 634l-83 -634h-96l-116 723h80l86 -628l79 628h106l75 -628l90 628h73z" />
    <glyph glyph-name="X" unicode="X" horiz-adv-x="372" 
d="M287 0l-98 303l-106 -303h-76l142 371l-132 352h80l95 -283l93 283h76l-131 -353l135 -370h-78z" />
    <glyph glyph-name="Y" unicode="Y" horiz-adv-x="334" 
d="M205 305v-305h-76v305l-131 418h76l96 -330l95 330h71z" />
    <glyph glyph-name="Z" unicode="Z" horiz-adv-x="309" 
d="M9 0v69l210 589h-194v64h270v-64l-210 -594h215v-64h-291z" />
    <glyph glyph-name="bracketleft" unicode="[" horiz-adv-x="243" 
d="M70 -152v875h141v-56h-77v-763h77v-56h-141z" />
    <glyph glyph-name="backslash" unicode="\" horiz-adv-x="307" 
d="M234 -12l-227 747h65l228 -747h-66z" />
    <glyph glyph-name="bracketright" unicode="]" horiz-adv-x="243" 
d="M32 -152v57h77v762h-77v56h142v-875h-142z" />
    <glyph glyph-name="asciicircum" unicode="^" horiz-adv-x="484" 
d="M354 307l-112 318l-111 -318h-70l151 412h61l150 -412h-69z" />
    <glyph glyph-name="underscore" unicode="_" horiz-adv-x="500" 
d="M0 -125v50h500v-50h-500z" />
    <glyph glyph-name="grave" unicode="`" horiz-adv-x="148" 
d="M73 595l-104 143h77l74 -143h-47z" />
    <glyph glyph-name="a" unicode="a" horiz-adv-x="320" 
d="M211 0q-1 9 -1 16q0 6 -0.5 12t-0.5 10q-28 -47 -77 -47q-32 0 -53 11t-33 30.5t-17 47t-5 59.5q0 40 6.5 70t22.5 50.5t43 31t68 10.5h8.5t14 -0.5t13.5 -1t8 -0.5v72q0 20 -1 36.5t-6.5 28t-15.5 18t-28 6.5t-29 -8t-17 -20.5t-7.5 -29t-1.5 -32.5v-8h-71v11
q0 71 32.5 105.5t91.5 34.5q44 0 69 -11.5t37.5 -32t15.5 -47t3 -56.5v-285q0 -29 1 -47t3 -34h-73zM208 246q-5 2 -13 2h-12q-47 0 -66.5 -23.5t-19.5 -85.5q0 -56 12.5 -76.5t41.5 -20.5q26 0 41.5 22.5t15.5 66.5v115z" />
    <glyph glyph-name="b" unicode="b" horiz-adv-x="325" 
d="M298 256q0 -66 -4.5 -115.5t-16.5 -82.5t-33.5 -49.5t-55.5 -16.5q-54 0 -77 45l-2 -37h-72q0 5 0.5 16.5t1 24l1 25t0.5 20.5v637h72v-260q13 25 31.5 37.5t45.5 12.5q34 0 55 -12.5t33 -42.5t16.5 -79.5t4.5 -122.5zM225 256q0 55 -2 93.5t-8 62.5t-17.5 35t-30.5 11
t-30 -12t-16.5 -31.5t-7 -45.5t-1.5 -54v-159q0 -53 12.5 -83.5t44.5 -30.5q19 0 30.5 11.5t17 37t7 66t1.5 99.5z" />
    <glyph glyph-name="c" unicode="c" horiz-adv-x="292" 
d="M278 150q0 -31 -4.5 -59.5t-18 -50.5t-37.5 -35.5t-64 -13.5q-47 0 -72.5 20.5t-38 55.5t-15 81t-2.5 97q0 72 6 123t21 83.5t40 47t63 14.5q36 0 59 -11t36.5 -32t19 -51t5.5 -67v-7h-71v7q0 51 -8.5 79.5t-40.5 28.5q-17 0 -27.5 -9t-17 -33t-9 -66t-2.5 -108
q0 -103 9 -151.5t45 -48.5q30 0 40.5 25.5t10.5 82.5v7h73v-9z" />
    <glyph glyph-name="d" unicode="d" horiz-adv-x="325" 
d="M216 0l-2 37q-23 -45 -77 -45q-34 0 -55.5 16.5t-34 49.5t-17 82.5t-4.5 115.5q0 67 5.5 116t18.5 80t34 46t52 15q32 0 47.5 -13.5t29.5 -36.5v260h72v-637v-20.5t0.5 -25t1 -24t0.5 -16.5h-71zM213 364q0 38 -12.5 66t-42.5 28q-19 0 -30.5 -11t-18 -35t-8.5 -62.5
t-2 -93.5q0 -59 1.5 -99.5t7.5 -66t17 -37t31 -11.5q19 0 30.5 11.5t17.5 32t7.5 49.5t1.5 64v165z" />
    <glyph glyph-name="e" unicode="e" horiz-adv-x="308" 
d="M100 229v-30q0 -36 1 -64.5t6.5 -48.5t16.5 -31t31 -11q32 0 42.5 27t11.5 77h73q-2 -30 -7.5 -58.5t-19.5 -50t-38 -35t-62 -13.5q-47 0 -73 20.5t-38.5 55t-15 79t-2.5 90.5q0 60 2.5 111t15 88t39 57.5t73.5 20.5q49 0 75.5 -20t38 -56.5t13 -89t1.5 -118.5h-184z
M210 282q0 38 -0.5 70.5t-6 56.5t-16.5 37.5t-32 13.5t-32 -13t-16.5 -37t-6 -56.5t-0.5 -71.5h110z" />
    <glyph glyph-name="f" unicode="f" horiz-adv-x="205" 
d="M207 669q-6 2 -11.5 3t-10.5 1q-26 0 -39 -15.5t-13 -51.5v-102h67v-50h-67v-454h-71v454h-59v50h59v107q0 59 21.5 88.5t78.5 29.5q11 0 20.5 -1t24.5 -4v-55z" />
    <glyph glyph-name="g" unicode="g" horiz-adv-x="325" 
d="M287 504q0 -6 -0.5 -21.5t-0.5 -32.5q-1 -19 -1 -42v-400q0 -44 -2.5 -83.5t-15 -69t-39 -46.5t-74.5 -17q-69 0 -96 34.5t-27 99.5v12h71v-18q0 -38 12 -56.5t41 -18.5q36 0 45 29t9 93v73q-26 -39 -73 -39q-33 0 -54.5 16t-34 47t-17 77t-4.5 106q0 70 5 120t17.5 82.5
t34 47.5t53.5 15q50 0 79 -51l1 43h71zM213 371q0 13 -2.5 28t-8.5 28t-16.5 21.5t-26.5 8.5q-21 0 -33 -12t-17.5 -37.5t-7 -65.5t-1.5 -95q-1 -102 8.5 -149t48.5 -47q18 0 29 11t17 31.5t8 48t2 60.5v169z" />
    <glyph glyph-name="h" unicode="h" horiz-adv-x="319" 
d="M208 0v388q0 29 -7.5 48t-36.5 19q-23 0 -37.5 -19t-14.5 -57v-379h-72v723h72v-263q11 23 32.5 37.5t50.5 14.5q25 0 41.5 -8t26.5 -22t13.5 -33.5t3.5 -42.5v-406h-72z" />
    <glyph glyph-name="i" unicode="i" horiz-adv-x="152" 
d="M40 633v85h72v-85h-72zM40 0v504h72v-504h-72z" />
    <glyph glyph-name="j" unicode="j" horiz-adv-x="152" 
d="M40 633v85h72v-85h-72zM112 -105q0 -53 -19 -78t-74 -25q-18 0 -37 4v53q16 -3 25 -3q21 0 27 13t6 45v600h72v-609z" />
    <glyph glyph-name="k" unicode="k" horiz-adv-x="303" 
d="M222 0l-108 280l97 224h77l-104 -223l117 -281h-79zM40 0v723h72v-723h-72z" />
    <glyph glyph-name="l" unicode="l" horiz-adv-x="152" 
d="M40 0v723h72v-723h-72z" />
    <glyph glyph-name="m" unicode="m" horiz-adv-x="487" 
d="M376 0v388q0 27 -7.5 47t-36.5 20q-23 0 -37.5 -19.5t-14.5 -56.5v-379h-72v388q0 29 -7.5 48t-36.5 19q-23 0 -37.5 -19t-14.5 -57v-379h-72v400q0 8 -0.5 36.5t-2.5 67.5h68l2 -45q11 24 33.5 38.5t54.5 14.5q35 0 53.5 -15.5t25.5 -41.5q14 31 38 44t51 13
q26 0 42.5 -8.5t26 -23t13 -34t3.5 -41.5v-405h-72z" />
    <glyph glyph-name="n" unicode="n" horiz-adv-x="319" 
d="M208 0v388q0 29 -7.5 48t-36.5 19q-23 0 -37.5 -19t-14.5 -57v-379h-72v406q0 20 -0.5 42.5t-2.5 55.5h70l2 -47q11 23 32.5 39t53.5 16q25 0 41.5 -8.5t26.5 -23t13.5 -33.5t3.5 -41v-406h-72z" />
    <glyph glyph-name="o" unicode="o" horiz-adv-x="310" 
d="M284 241q0 -47 -2 -92t-14.5 -80t-38.5 -56.5t-74 -21.5q-47 0 -73 20t-38.5 54.5t-15 80t-2.5 95.5q0 59 2 109t14.5 86t38.5 56.5t74 20.5t74 -19t38.5 -54.5t14.5 -86t2 -112.5zM211 241q0 59 -0.5 100.5t-6 68t-16.5 38.5t-32 12q-20 0 -31 -12.5t-16.5 -38.5t-7 -68
t-1.5 -100q0 -51 1 -88t6.5 -61.5t16.5 -36t31 -11.5q21 0 32.5 11.5t16.5 36t6 61.5t1 88z" />
    <glyph glyph-name="p" unicode="p" horiz-adv-x="325" 
d="M298 256q0 -69 -4.5 -118.5t-17 -82t-34 -48t-55.5 -15.5q-52 0 -75 45v-233h-72v619q0 5 -0.5 16t-1 23.5t-1 24t-0.5 17.5h71l1 -44q27 52 80 52q33 0 54 -12t33.5 -41.5t17 -79t4.5 -123.5zM225 256q0 55 -2 93.5t-8 62.5t-17.5 34.5t-30.5 10.5t-30 -11.5t-16.5 -31
t-7 -45.5t-1.5 -54v-159q0 -63 13.5 -88.5t43.5 -25.5q19 0 30.5 11.5t17 37t7 66t1.5 99.5z" />
    <glyph glyph-name="q" unicode="q" horiz-adv-x="325" 
d="M287 504q0 -6 -0.5 -17.5t-1 -24t-0.5 -23.5v-16v-619h-72v233q-23 -45 -76 -45q-34 0 -55.5 16t-34 48.5t-17 82t-4.5 117.5q0 69 5 118t18 79.5t34.5 44.5t53.5 14q52 0 79 -52l1 44h70zM213 363q0 18 -3 35t-9.5 30t-17.5 21t-26 8q-19 0 -30 -10.5t-17 -34.5
t-8 -62.5t-2 -93.5q0 -59 2 -99.5t8 -66t17 -37t30 -11.5t30 11.5t17 32t7.5 49.5t1.5 64v164z" />
    <glyph glyph-name="r" unicode="r" horiz-adv-x="201" 
d="M202 439q-8 2 -13.5 2.5t-10.5 0.5q-20 0 -32.5 -10t-20 -25t-10.5 -33t-3 -34v-340h-72v406q0 13 -1 42t-2 56h69l2 -49q11 27 30 41.5t37 14.5q9 0 14 -0.5t13 -2.5v-69z" />
    <glyph glyph-name="s" unicode="s" horiz-adv-x="300" 
d="M278 122q0 -63 -32.5 -97t-93.5 -34q-41 0 -66 11.5t-39.5 32t-19.5 48t-5 59.5v15h73v-15q0 -51 11.5 -75t44.5 -24q53 0 53 79q0 32 -14.5 50t-36.5 36l-56 46q-33 27 -52.5 58t-19.5 76q0 57 32.5 91t94.5 34q68 0 95 -36.5t27 -108.5v-11h-72v12q0 20 -1 36.5
t-6 28.5t-15 19t-28 7q-30 0 -42 -19.5t-12 -50.5q0 -29 14 -47t41 -41l53 -44q22 -18 36 -33t22 -30t11 -32.5t3 -40.5z" />
    <glyph glyph-name="t" unicode="t" horiz-adv-x="201" 
d="M197 -4q-14 -4 -24 -5t-24 -1q-29 0 -46 7t-27 20.5t-13 34.5t-3 49v353h-54v50h54v85l71 25v-110h60v-50h-60v-350q0 -34 6.5 -46t31.5 -12q12 0 28 4v-54z" />
    <glyph glyph-name="u" unicode="u" horiz-adv-x="320" 
d="M213 0l-2 47q-11 -23 -32 -39t-53 -16q-26 0 -42.5 8.5t-26 23t-13.5 33.5t-4 41v406h72v-388q0 -29 8 -48t37 -19q23 0 37 19t14 57v379h72v-406q0 -20 0.5 -42.5t2.5 -55.5h-70z" />
    <glyph glyph-name="v" unicode="v" horiz-adv-x="303" 
d="M201 0h-93l-103 504h79l72 -428l65 428h77z" />
    <glyph glyph-name="w" unicode="w" horiz-adv-x="501" 
d="M406 0h-92l-62 414l-65 -414h-92l-89 504h81l57 -418l64 418h92l62 -418l58 418h75z" />
    <glyph glyph-name="x" unicode="x" horiz-adv-x="309" 
d="M220 1l-68 201l-70 -202h-77l103 263l-93 241h85l58 -184l60 184h76l-94 -241l105 -263z" />
    <glyph glyph-name="y" unicode="y" horiz-adv-x="304" 
d="M143 -197h-68l37 180l-106 521h81l63 -411l71 411h77z" />
    <glyph glyph-name="z" unicode="z" horiz-adv-x="240" 
d="M14 0v55l143 392h-137v57h204v-63l-138 -384h141v-57h-213z" />
    <glyph glyph-name="braceleft" unicode="{" horiz-adv-x="255" 
d="M240 -152q-31 0 -58 5t-47 19t-31.5 39.5t-11.5 66.5v164q0 19 -2 39.5t-9.5 37.5t-22 28.5t-39.5 11.5h-9v52h8q24 0 38.5 10.5t22.5 27.5t10.5 37.5t2.5 41.5v165q0 40 11.5 65.5t31.5 39.5t47 19.5t58 5.5v-52q-33 0 -58 -16t-25 -60v-169q0 -64 -28 -100.5t-64 -41.5
q36 -4 64 -40.5t28 -99.5v-168q0 -22 6.5 -36.5t18 -23.5t26.5 -12.5t32 -3.5v-52z" />
    <glyph glyph-name="bar" unicode="|" horiz-adv-x="222" 
d="M78 -214v1001h66v-1001h-66z" />
    <glyph glyph-name="braceright" unicode="}" horiz-adv-x="255" 
d="M236 259q-25 0 -39.5 -11.5t-22 -28.5t-9.5 -37.5t-2 -39.5v-164q0 -41 -11.5 -66.5t-31.5 -39.5t-47 -19t-58 -5v52q17 0 32 3.5t26.5 12.5t18 23.5t6.5 36.5v168q0 63 28 99.5t64 40.5q-36 5 -64 41.5t-28 100.5v169q0 44 -25 60t-58 16v52q31 0 58 -5.5t47 -19.5
t31.5 -39.5t11.5 -65.5v-165q0 -21 2.5 -41.5t10.5 -37.5t22.5 -27.5t38.5 -10.5h8v-52h-9z" />
    <glyph glyph-name="asciitilde" unicode="~" horiz-adv-x="484" 
d="M438 331q-3 -61 -33 -90t-71 -29q-26 0 -50.5 9t-47.5 20t-43 20t-37 9q-21 0 -34.5 -14.5t-16.5 -42.5h-59q3 61 33 90t71 29q26 0 50.5 -9t47.5 -20t43 -20t37 -9q21 0 34.5 14.5t16.5 42.5h59z" />
    <glyph glyph-name="Euro" unicode="&#x20ac;" 
d="M168 289q0 -69 6 -115.5t17.5 -74t29 -39.5t41.5 -12q29 0 50 13t32 30v-75q-10 -8 -30 -18t-55 -10q-44 0 -74.5 16.5t-50.5 52.5t-29.5 93.5t-10.5 138.5h-67l8 49h59v63h-67l8 49h59q2 142 43.5 213.5t125.5 71.5q33 0 56.5 -11.5t35.5 -26.5l-11 -69q-11 21 -32 33.5
t-50 12.5q-20 0 -37 -11.5t-30 -38t-20 -69.5t-7 -105h150l-9 -49h-141v-63h132l-8 -49h-124z" />
    <glyph glyph-name="quotesinglbase" unicode="&#x201a;" horiz-adv-x="189" 
d="M94 -74h-53l26 173h81z" />
    <glyph glyph-name="florin" unicode="&#x192;" 
d="M314 680q-14 3 -28 3q-15 0 -23.5 -4.5t-14 -16t-9 -32t-7.5 -52.5l-10 -89h73l-6 -53h-72l-55 -490q-8 -69 -32.5 -98t-73.5 -29q-19 0 -37 3l5 51q5 -1 12 -1q36 0 48 32l4 12t3.5 16.5t3.5 26t5 39.5l49 438h-69l6 53h68l12 112q3 31 9 55.5t16 42t26.5 27t40.5 9.5
q20 0 33.5 -1.5t27.5 -4.5z" />
    <glyph glyph-name="quotedblbase" unicode="&#x201e;" horiz-adv-x="288" 
d="M205 -74h-54l26 173h82zM83 -74h-54l27 173h81z" />
    <glyph glyph-name="ellipsis" unicode="&#x2026;" horiz-adv-x="1000" 
d="M789 0v98h89v-98h-89zM456 0v98h88v-98h-88zM123 0v98h88v-98h-88z" />
    <glyph glyph-name="dagger" unicode="&#x2020;" horiz-adv-x="381" 
d="M224 489v-488h-67v488h-124v65h124v169h67v-169h124v-65h-124z" />
    <glyph glyph-name="daggerdbl" unicode="&#x2021;" horiz-adv-x="381" 
d="M224 181v-181h-67v181h-124v65h124v246h-124v65h124v166h67v-166h124v-65h-124v-246h124v-65h-124z" />
    <glyph glyph-name="circumflex" unicode="&#x2c6;" horiz-adv-x="148" 
d="M140 596l-66 91l-66 -91h-52l87 142h62l87 -142h-52z" />
    <glyph glyph-name="perthousand" unicode="&#x2030;" horiz-adv-x="743" 
d="M725 178q0 -45 -1.5 -79.5t-9.5 -58t-26.5 -36t-51.5 -12.5t-51 13.5t-26.5 38t-10 59.5t-1.5 78v89q0 41 1 74t9.5 56.5t26.5 36t52 12.5q33 0 51.5 -13t26.5 -36.5t9.5 -56t1.5 -70.5v-95zM500 178q0 -45 -1.5 -79.5t-9.5 -58t-26.5 -36t-51.5 -12.5t-51 13.5t-26.5 38
t-10 59.5t-1.5 78v89q0 41 1 74t9.5 56.5t26.5 36t52 12.5q33 0 51.5 -13t26.5 -36.5t9.5 -56t1.5 -70.5v-95zM162 -12h-48l240 735h48zM196 452q0 -45 -1.5 -79.5t-9.5 -58t-26.5 -36t-51.5 -12.5t-51 13.5t-26.5 38t-10 59.5t-1.5 78v89q0 41 1 74t9.5 56.5t26.5 36
t52 12.5q33 0 51.5 -13t26.5 -36.5t9.5 -56t1.5 -70.5v-95zM673 272q0 27 -0.5 51.5t-4 43t-11 29t-21.5 10.5t-21 -11t-11 -30t-4.5 -43.5t-0.5 -51.5v-92q0 -33 0.5 -59t4.5 -45t11 -29t21 -10t21.5 10t11 28t4 44t0.5 58v97zM448 272q0 27 -0.5 51.5t-4 43t-11 29
t-21.5 10.5t-21 -11t-11 -30t-4.5 -43.5t-0.5 -51.5v-92q0 -33 0.5 -59t4.5 -45t11 -29t21 -10t21.5 10t11 28t4 44t0.5 58v97zM144 546q0 27 -0.5 51.5t-4 43t-11 29t-21.5 10.5t-21 -11t-11 -30t-4.5 -43.5t-0.5 -51.5v-92q0 -33 0.5 -59t4.5 -45t11 -29t21 -10t21.5 10
t11 28t4 44t0.5 58v97z" />
    <glyph glyph-name="guilsinglleft" unicode="&#x2039;" horiz-adv-x="206" 
d="M115 56l-81 198l81 196h57l-64 -196l64 -198h-57z" />
    <glyph glyph-name="OE" unicode="&#x152;" horiz-adv-x="532" 
d="M281 0q-24 0 -33 -0.5t-13 -0.5t-7.5 -0.5t-16.5 -0.5q-56 0 -89 17t-55 58q-11 21 -18.5 54t-11.5 72t-5.5 82.5t-1.5 86.5q0 78 4.5 132t15.5 99q8 35 21.5 59t33.5 39t47.5 21.5t64.5 6.5q4 0 13.5 -0.5t20 -0.5t19.5 -0.5t12 -0.5h224v-64h-163v-253h153v-65h-153v-1
v-276h168v-64h-230zM267 660q-26 3 -49 3q-40 0 -61.5 -17.5t-32.5 -55.5q-4 -14 -7 -37.5t-5 -53t-3 -63.5t-1 -68q0 -36 1.5 -72t3.5 -68t5.5 -58.5t8.5 -42.5q11 -38 31 -53.5t54 -15.5q15 0 25 1l30 3v598z" />
    <glyph glyph-name="quoteleft" unicode="&#x2018;" horiz-adv-x="189" 
d="M122 550h-81l53 173h54z" />
    <glyph glyph-name="quoteright" unicode="&#x2019;" horiz-adv-x="189" 
d="M94 550h-53l26 173h81z" />
    <glyph glyph-name="quotedblleft" unicode="&#x201c;" horiz-adv-x="312" 
d="M244 549h-81l54 173h54zM120 549h-79l63 173h45z" />
    <glyph glyph-name="quotedblright" unicode="&#x201d;" horiz-adv-x="312" 
d="M208 550h-45l28 173h80zM87 550h-46l29 173h79z" />
    <glyph glyph-name="bullet" unicode="&#x2022;" horiz-adv-x="501" 
d="M430 359q0 -37 -14 -69.5t-38.5 -57t-57.5 -38.5t-70 -14t-69.5 14t-57 38.5t-38.5 57t-14 69.5t14 70t38.5 57.5t57 38.5t69.5 14t70 -14t57.5 -38.5t38.5 -57.5t14 -70z" />
    <glyph glyph-name="endash" unicode="&#x2013;" horiz-adv-x="500" 
d="M0 233v52h500v-52h-500z" />
    <glyph glyph-name="emdash" unicode="&#x2014;" horiz-adv-x="1000" 
d="M130 233v52h740v-52h-740z" />
    <glyph glyph-name="tilde" unicode="&#x2dc;" horiz-adv-x="148" 
d="M205 713q-1 -16 -6 -32.5t-14.5 -29.5t-25 -21.5t-37.5 -8.5q-16 0 -30 5.5t-26.5 12.5t-24 12.5t-21.5 5.5q-14 0 -22.5 -11t-10.5 -30h-44q2 37 22 65t61 28q17 0 31.5 -6t27 -12.5t23.5 -12.5t20 -6q30 0 33 41h44z" />
    <glyph glyph-name="trademark" unicode="&#x2122;" horiz-adv-x="815" 
d="M661 326v331l-92 -331h-44l-91 331v-331h-61v397h92l82 -304l82 304h92v-397h-60zM223 671v-345h-65v345h-87v52h239v-52h-87z" />
    <glyph glyph-name="guilsinglright" unicode="&#x203a;" horiz-adv-x="206" 
d="M92 56h-58l64 198l-64 196h58l80 -196z" />
    <glyph glyph-name="oe" unicode="&#x153;" horiz-adv-x="497" 
d="M288 229v-23q0 -37 1 -67t6.5 -51t17 -32.5t31.5 -11.5q32 0 42.5 27t11.5 77h72q-2 -30 -8 -58.5t-19.5 -50.5t-36.5 -35t-57 -13t-60 15.5t-35 43.5q-11 -28 -36.5 -43.5t-60.5 -15.5q-45 0 -70 21.5t-37 56.5t-14.5 79.5t-2.5 89.5q0 59 2 109.5t14 87t38 57.5t74 21
q34 0 57 -13.5t37 -44.5q13 30 34 44t56 14q48 0 74 -21.5t38 -59.5t14 -90t2 -113h-185zM399 282q0 38 -0.5 70.5t-6 56.5t-16.5 37.5t-32 13.5t-32.5 -14t-16.5 -38t-6 -56.5t-1 -69.5h111zM217 238q0 59 -1 101t-6 69t-16.5 39.5t-32.5 12.5t-32 -13t-16 -40t-6 -69
t-1 -100q0 -51 1 -87.5t6 -60.5t16 -35t32 -11t32.5 11t16.5 35t6 60.5t1 87.5z" />
    <glyph glyph-name="Ydieresis" unicode="&#x178;" horiz-adv-x="334" 
d="M205 305v-305h-76v305l-131 418h76l96 -330l95 330h71zM203 809v87h60v-87h-60zM70 809v87h61v-87h-61z" />
    <glyph glyph-name="uni00A0" unicode="&#xa0;" horiz-adv-x="188" 
 />
    <glyph glyph-name="exclamdown" unicode="&#xa1;" horiz-adv-x="180" 
d="M50 430v89h80v-89h-80zM50 -204l10 559h60l10 -559h-80z" />
    <glyph glyph-name="cent" unicode="&#xa2;" 
d="M315 150q0 -29 -3.5 -55.5t-14.5 -47.5t-31 -36t-53 -19v-76h-42v76q-39 5 -60.5 27t-32 56t-13 78t-2.5 92q0 67 5 115.5t17 80.5t33 49t53 22v74h42v-74q59 -7 79.5 -49t20.5 -111v-7h-71v7q0 51 -8.5 79.5t-40.5 28.5q-17 0 -27.5 -9t-17 -33t-9 -66t-2.5 -108
q0 -103 9 -151.5t45 -48.5q30 0 40.5 25.5t10.5 82.5v7h73v-9z" />
    <glyph glyph-name="sterling" unicode="&#xa3;" 
d="M280 534v21q0 57 -10.5 88t-51.5 31q-35 0 -49.5 -24.5t-14.5 -86.5v-148h95v-51h-95v-304h187v-60h-303v60h44v304h-52v51h52v133q0 38 5.5 72t20 59.5t40.5 40.5t68 15q44 0 71 -14t42 -37.5t20 -54.5t5 -66v-29h-74z" />
    <glyph glyph-name="yen" unicode="&#xa5;" 
d="M237 354h77v-49h-90v-63h90v-49h-90v-193h-72v193h-90v49h90v63h-90v49h77l-105 369h72l83 -325l89 325h66z" />
    <glyph glyph-name="section" unicode="&#xa7;" horiz-adv-x="301" 
d="M134 -13q-30 0 -56 6.5t-46 14.5v54q16 -8 42 -15t47 -7q38 0 61 18t23 57q0 36 -20 60.5t-48 43.5q-22 15 -42 29.5t-35.5 32t-24.5 38t-9 47.5q0 38 16.5 68t51.5 54q-34 24 -48.5 55t-14.5 67q0 61 36 91t96 30q47 0 87 -17v-52q-42 17 -80 17q-33 0 -52 -17.5
t-19 -47.5q0 -34 18.5 -54.5t49.5 -38.5q21 -12 39.5 -26t33 -31t23 -39t8.5 -51q0 -45 -22 -74.5t-51 -47.5q42 -32 58.5 -64.5t16.5 -70.5q0 -63 -36.5 -96.5t-102.5 -33.5zM204 369q0 27 -12 47t-50 43q-28 -18 -38.5 -39t-10.5 -44q0 -27 13.5 -47t47.5 -45
q23 20 36.5 40.5t13.5 44.5z" />
    <glyph glyph-name="dieresis" unicode="&#xa8;" horiz-adv-x="148" 
d="M110 631v87h60v-87h-60zM-23 631v87h61v-87h-61z" />
    <glyph glyph-name="copyright" unicode="&#xa9;" horiz-adv-x="787" 
d="M747 362q0 -79 -26 -147t-72.5 -118.5t-111.5 -79t-143 -28.5q-79 0 -144 28.5t-111.5 79t-72.5 118.5t-26 147t26 147t72.5 118.5t111.5 79t144 28.5q78 0 143 -28.5t111.5 -79t72.5 -118.5t26 -147zM692 362q0 69 -21.5 128t-60.5 103t-94 69t-122 25q-68 0 -123 -25
t-94 -69t-60.5 -103t-21.5 -128t21.5 -128.5t60.5 -103.5t94 -69t123 -25q67 0 122 25t94 69t60.5 103.5t21.5 128.5zM397 148q-33 0 -54.5 11t-34 36t-17 66.5t-4.5 103.5q0 56 4 96t16 65.5t34 37.5t58 12q58 0 80 -31t22 -94h-63q0 41 -8.5 59.5t-30.5 18.5
q-32 0 -39 -38t-7 -126q0 -54 1.5 -87.5t6.5 -52t14 -25t24 -6.5q13 0 21 7.5t12 19.5t5 26.5t1 28.5h63q0 -128 -104 -128z" />
    <glyph glyph-name="ordfeminine" unicode="&#xaa;" horiz-adv-x="224" 
d="M147 421v28q-8 -14 -20.5 -23t-38.5 -9q-29 0 -46 15.5t-17 64.5q0 30 5 50.5t17 32.5t31.5 17t48.5 5h15v44q0 17 -5.5 28.5t-24.5 11.5q-18 0 -24 -11.5t-6 -28.5v-12h-52v16q0 33 19 53t62 20q83 0 83 -75v-170v-12.5v-18t0.5 -17.5t0.5 -9h-48zM142 567h-11
q-35 0 -44.5 -14.5t-9.5 -48.5q0 -31 7 -40.5t22 -9.5q18 0 27 12t9 32v69z" />
    <glyph glyph-name="guillemotleft" unicode="&#xab;" horiz-adv-x="334" 
d="M246 56l-80 198l80 196h57l-63 -196l63 -198h-57zM111 56l-80 198l80 196h57l-63 -196l63 -198h-57z" />
    <glyph glyph-name="logicalnot" unicode="&#xac;" horiz-adv-x="484" 
d="M369 176v128h-323v65h392v-193h-69z" />
    <glyph glyph-name="registered" unicode="&#xae;" horiz-adv-x="385" 
d="M378 550q0 -39 -14.5 -73t-40 -59.5t-59 -40t-72.5 -14.5t-72.5 15t-59 40.5t-40 59.5t-14.5 72t14.5 72t40 59.5t59.5 40t72 14.5q39 0 72.5 -14.5t59 -40t40 -59t14.5 -72.5zM349 550q0 32 -12.5 60.5t-34 50t-50 34t-60.5 12.5q-33 0 -61.5 -12.5t-49.5 -34t-33.5 -50
t-12.5 -60.5t12 -61t33.5 -50.5t50 -34t61.5 -12.5q32 0 60.5 12.5t50 34t34 50t12.5 61.5zM241 448q-5 14 -4.5 28t-2.5 25.5t-12.5 19t-33.5 7.5h-32v-80h-39v205h74q35 0 60.5 -12t25.5 -47q0 -37 -37 -50q18 -8 24 -19t8 -23.5t2.5 -26.5t6.5 -27h-40zM238 591
q0 17 -11 23.5t-28 6.5h-43v-61h41q17 0 29 6.5t12 24.5z" />
    <glyph glyph-name="macron" unicode="&#xaf;" horiz-adv-x="148" 
d="M-38 641v44h224v-44h-224z" />
    <glyph glyph-name="degree" unicode="&#xb0;" horiz-adv-x="349" 
d="M302 605q0 -27 -10 -50t-27 -40t-40 -26.5t-50 -9.5q-26 0 -49.5 9.5t-40.5 26.5t-27 40t-10 50q0 26 10 49t27 40t40.5 27t49.5 10q27 0 50 -10t40 -27t27 -40t10 -49zM244 605q0 32 -19.5 52.5t-49.5 20.5t-49.5 -20.5t-19.5 -52.5t19.5 -53t49.5 -21t49.5 21t19.5 53z
" />
    <glyph glyph-name="plusminus" unicode="&#xb1;" horiz-adv-x="484" 
d="M207 106v152h-161v65h161v152h70v-152h161v-65h-161v-152h-70zM46 0v65h392v-65h-392z" />
    <glyph glyph-name="acute" unicode="&#xb4;" horiz-adv-x="148" 
d="M75 595h-47l73 143h77z" />
    <glyph glyph-name="mu" unicode="&#xb5;" horiz-adv-x="325" 
d="M215 0l-2 47q-16 -55 -58 -55q-27 0 -41 22v-210h-72v700h72v-390q0 -32 9.5 -48.5t35.5 -16.5q23 0 37.5 19t14.5 57v379h72v-406q0 -20 0.5 -42.5t2.5 -55.5h-71z" />
    <glyph glyph-name="paragraph" unicode="&#xb6;" horiz-adv-x="402" 
d="M296 0v675h-78v-675h-60v405q-69 4 -103.5 45t-34.5 116q0 82 47.5 119.5t124.5 37.5h164v-723h-60z" />
    <glyph glyph-name="periodcentered" unicode="&#xb7;" horiz-adv-x="188" 
d="M50 264v100h88v-100h-88z" />
    <glyph glyph-name="cedilla" unicode="&#xb8;" horiz-adv-x="148" 
d="M168 -111q0 -35 -27 -55.5t-67 -20.5q-23 0 -39 5t-27 12l8 27q11 -5 22 -9.5t28 -4.5q24 0 36.5 11t12.5 30q0 20 -12 29t-28 9q-13 0 -20 -2t-16 -7l-6 9l35 84h32l-23 -56q10 3 26 3q27 0 46 -16.5t19 -47.5z" />
    <glyph glyph-name="ordmasculine" unicode="&#xba;" horiz-adv-x="241" 
d="M120 417q-43 0 -63.5 27.5t-20.5 98.5v50q0 69 18 99.5t66 30.5q43 0 64 -27.5t21 -98.5v-50q0 -69 -18.5 -99.5t-66.5 -30.5zM120 454q21 0 27 20.5t6 64.5v62q0 44 -6 64.5t-26 20.5q-21 0 -27 -20.5t-6 -64.5v-62q0 -44 6 -64.5t26 -20.5z" />
    <glyph glyph-name="guillemotright" unicode="&#xbb;" horiz-adv-x="334" 
d="M223 56h-57l63 198l-63 196h57l80 -196zM88 56h-57l63 198l-63 196h57l80 -196z" />
    <glyph glyph-name="questiondown" unicode="&#xbf;" horiz-adv-x="300" 
d="M106 437v82h80v-82h-80zM276 -48q0 -71 -29 -115.5t-96 -44.5q-35 0 -58 10t-37 29.5t-19.5 48t-5.5 64.5q0 19 3.5 37.5t9 35t10.5 30.5t8 23l38 112q9 26 12.5 43.5t3.5 40.5v94h61v-102q0 -26 -3 -46t-10 -42l-37 -115q-10 -31 -17.5 -61.5t-7.5 -59.5q0 -43 10 -66.5
t40 -23.5q31 0 41.5 28.5t10.5 82.5v15h72v-18z" />
    <glyph glyph-name="Agrave" unicode="&#xc0;" horiz-adv-x="386" 
d="M302 0l-33 187h-155l-33 -187h-76l144 723h91l141 -723h-79zM191 634l-65 -382h132zM189 773l-104 143h77l74 -143h-47z" />
    <glyph glyph-name="Aacute" unicode="&#xc1;" horiz-adv-x="386" 
d="M302 0l-33 187h-155l-33 -187h-76l144 723h91l141 -723h-79zM191 634l-65 -382h132zM191 773h-47l73 143h77z" />
    <glyph glyph-name="Acircumflex" unicode="&#xc2;" horiz-adv-x="386" 
d="M302 0l-33 187h-155l-33 -187h-76l144 723h91l141 -723h-79zM191 634l-65 -382h132zM256 774l-66 91l-66 -91h-52l87 142h62l87 -142h-52z" />
    <glyph glyph-name="Atilde" unicode="&#xc3;" horiz-adv-x="386" 
d="M302 0l-33 187h-155l-33 -187h-76l144 723h91l141 -723h-79zM191 634l-65 -382h132zM321 891q-1 -16 -6 -32.5t-14.5 -29.5t-25 -21.5t-37.5 -8.5q-16 0 -30 5.5t-26.5 12.5t-24 12.5t-21.5 5.5q-14 0 -22.5 -11t-10.5 -30h-44q2 37 22 65t61 28q17 0 31.5 -6t27 -12.5
t23.5 -12.5t20 -6q30 0 33 41h44z" />
    <glyph glyph-name="Adieresis" unicode="&#xc4;" horiz-adv-x="386" 
d="M302 0l-33 187h-155l-33 -187h-76l144 723h91l141 -723h-79zM191 634l-65 -382h132zM226 809v87h60v-87h-60zM93 809v87h61v-87h-61z" />
    <glyph glyph-name="Aring" unicode="&#xc5;" horiz-adv-x="386" 
d="M302 0l-33 187h-155l-33 -187h-76l144 723h91l141 -723h-79zM191 634l-65 -382h132zM274 830q0 -35 -24.5 -60t-59.5 -25t-60 25t-25 60t25 60t60 25t59.5 -25t24.5 -60zM234 830q0 21 -12 34.5t-32 13.5t-32 -13.5t-12 -34.5q0 -20 12 -34t32 -14t32 14t12 34z" />
    <glyph glyph-name="AE" unicode="&#xc6;" horiz-adv-x="538" 
d="M307 0l-15 184h-162l-48 -184h-76l206 723h305v-64h-198l24 -253h163v-65h-158l26 -277h149v-64h-216zM251 646l-103 -397h140z" />
    <glyph glyph-name="Ccedilla" unicode="&#xc7;" horiz-adv-x="352" 
d="M271 -111q0 -35 -27 -55.5t-67 -20.5q-23 0 -39 5t-27 12l8 27q11 -5 22 -9.5t28 -4.5q24 0 36.5 11t12.5 30q0 20 -12 29t-28 9q-13 0 -20 -2t-16 -7l-6 9l28 68q-49 6 -75.5 35t-38.5 78t-14 116t-2 149t2.5 149.5t17.5 116t46.5 75t90.5 26.5q47 0 75.5 -15.5
t43.5 -42.5t19.5 -63.5t4.5 -78.5h-76q0 66 -14.5 102.5t-52.5 36.5q-29 0 -45 -20.5t-23.5 -59.5t-8.5 -96t-1 -130q0 -92 2.5 -153.5t11 -98.5t24.5 -52.5t42 -15.5q23 0 36 14t19 35.5t7.5 47t1.5 48.5h78q0 -40 -5 -76.5t-20 -64.5t-42.5 -45.5t-72.5 -18.5l-15 -38
q10 3 26 3q27 0 46 -16.5t19 -47.5z" />
    <glyph glyph-name="Egrave" unicode="&#xc8;" horiz-adv-x="305" 
d="M46 0v723h239v-64h-163v-253h152v-63h-152v-279h168v-64h-244zM167 773l-104 143h77l74 -143h-47z" />
    <glyph glyph-name="Eacute" unicode="&#xc9;" horiz-adv-x="305" 
d="M46 0v723h239v-64h-163v-253h152v-63h-152v-279h168v-64h-244zM169 773h-47l73 143h77z" />
    <glyph glyph-name="Ecircumflex" unicode="&#xca;" horiz-adv-x="305" 
d="M46 0v723h239v-64h-163v-253h152v-63h-152v-279h168v-64h-244zM234 774l-66 91l-66 -91h-52l87 142h62l87 -142h-52z" />
    <glyph glyph-name="Edieresis" unicode="&#xcb;" horiz-adv-x="305" 
d="M46 0v723h239v-64h-163v-253h152v-63h-152v-279h168v-64h-244zM204 809v87h60v-87h-60zM71 809v87h61v-87h-61z" />
    <glyph glyph-name="Igrave" unicode="&#xcc;" horiz-adv-x="168" 
d="M46 0v723h76v-723h-76zM83 773l-104 143h77l74 -143h-47z" />
    <glyph glyph-name="Iacute" unicode="&#xcd;" horiz-adv-x="168" 
d="M46 0v723h76v-723h-76zM85 773h-47l73 143h77z" />
    <glyph glyph-name="Icircumflex" unicode="&#xce;" horiz-adv-x="168" 
d="M46 0v723h76v-723h-76zM150 774l-66 91l-66 -91h-52l87 142h62l87 -142h-52z" />
    <glyph glyph-name="Idieresis" unicode="&#xcf;" horiz-adv-x="168" 
d="M46 0v723h76v-723h-76zM120 809v87h60v-87h-60zM-13 809v87h61v-87h-61z" />
    <glyph glyph-name="Ntilde" unicode="&#xd1;" horiz-adv-x="421" 
d="M254 0l-136 674v-674h-72v723h124l136 -675v675h69v-723h-121zM340 891q-1 -16 -6 -32.5t-14.5 -29.5t-25 -21.5t-37.5 -8.5q-16 0 -30 5.5t-26.5 12.5t-24 12.5t-21.5 5.5q-14 0 -22.5 -11t-10.5 -30h-44q2 37 22 65t61 28q17 0 31.5 -6t27 -12.5t23.5 -12.5t20 -6
q30 0 33 41h44z" />
    <glyph glyph-name="Ograve" unicode="&#xd2;" horiz-adv-x="386" 
d="M352 367q0 -92 -2.5 -162.5t-17.5 -118.5t-47 -73t-92 -25t-92 25t-47 73t-17.5 118.5t-2.5 162.5q0 78 2.5 145t17.5 116.5t47.5 78t92.5 28.5t92.5 -25.5t47 -73.5t16.5 -116t2 -153zM273 367q0 75 -1.5 132.5t-9 96.5t-23.5 59t-46 20t-46.5 -21.5t-24 -62t-8.5 -97.5
t-1 -127q0 -84 1.5 -144t9 -99t23.5 -57.5t46 -18.5t46 20.5t23.5 60.5t9 99.5t1.5 138.5zM192 773l-104 143h77l74 -143h-47z" />
    <glyph glyph-name="Oacute" unicode="&#xd3;" horiz-adv-x="386" 
d="M352 367q0 -92 -2.5 -162.5t-17.5 -118.5t-47 -73t-92 -25t-92 25t-47 73t-17.5 118.5t-2.5 162.5q0 78 2.5 145t17.5 116.5t47.5 78t92.5 28.5t92.5 -25.5t47 -73.5t16.5 -116t2 -153zM273 367q0 75 -1.5 132.5t-9 96.5t-23.5 59t-46 20t-46.5 -21.5t-24 -62t-8.5 -97.5
t-1 -127q0 -84 1.5 -144t9 -99t23.5 -57.5t46 -18.5t46 20.5t23.5 60.5t9 99.5t1.5 138.5zM194 773h-47l73 143h77z" />
    <glyph glyph-name="Ocircumflex" unicode="&#xd4;" horiz-adv-x="386" 
d="M352 367q0 -92 -2.5 -162.5t-17.5 -118.5t-47 -73t-92 -25t-92 25t-47 73t-17.5 118.5t-2.5 162.5q0 78 2.5 145t17.5 116.5t47.5 78t92.5 28.5t92.5 -25.5t47 -73.5t16.5 -116t2 -153zM273 367q0 75 -1.5 132.5t-9 96.5t-23.5 59t-46 20t-46.5 -21.5t-24 -62t-8.5 -97.5
t-1 -127q0 -84 1.5 -144t9 -99t23.5 -57.5t46 -18.5t46 20.5t23.5 60.5t9 99.5t1.5 138.5zM259 774l-66 91l-66 -91h-52l87 142h62l87 -142h-52z" />
    <glyph glyph-name="Otilde" unicode="&#xd5;" horiz-adv-x="386" 
d="M352 367q0 -92 -2.5 -162.5t-17.5 -118.5t-47 -73t-92 -25t-92 25t-47 73t-17.5 118.5t-2.5 162.5q0 78 2.5 145t17.5 116.5t47.5 78t92.5 28.5t92.5 -25.5t47 -73.5t16.5 -116t2 -153zM273 367q0 75 -1.5 132.5t-9 96.5t-23.5 59t-46 20t-46.5 -21.5t-24 -62t-8.5 -97.5
t-1 -127q0 -84 1.5 -144t9 -99t23.5 -57.5t46 -18.5t46 20.5t23.5 60.5t9 99.5t1.5 138.5zM324 891q-1 -16 -6 -32.5t-14.5 -29.5t-25 -21.5t-37.5 -8.5q-16 0 -30 5.5t-26.5 12.5t-24 12.5t-21.5 5.5q-14 0 -22.5 -11t-10.5 -30h-44q2 37 22 65t61 28q17 0 31.5 -6
t27 -12.5t23.5 -12.5t20 -6q30 0 33 41h44z" />
    <glyph glyph-name="Odieresis" unicode="&#xd6;" horiz-adv-x="386" 
d="M352 367q0 -92 -2.5 -162.5t-17.5 -118.5t-47 -73t-92 -25t-92 25t-47 73t-17.5 118.5t-2.5 162.5q0 78 2.5 145t17.5 116.5t47.5 78t92.5 28.5t92.5 -25.5t47 -73.5t16.5 -116t2 -153zM273 367q0 75 -1.5 132.5t-9 96.5t-23.5 59t-46 20t-46.5 -21.5t-24 -62t-8.5 -97.5
t-1 -127q0 -84 1.5 -144t9 -99t23.5 -57.5t46 -18.5t46 20.5t23.5 60.5t9 99.5t1.5 138.5zM229 809v87h60v-87h-60zM96 809v87h61v-87h-61z" />
    <glyph glyph-name="Oslash" unicode="&#xd8;" horiz-adv-x="386" 
d="M352 367q0 -92 -2.5 -162.5t-17.5 -118.5t-47 -73t-92 -25q-71 0 -105 36l-24 -64l-38 13l35 94q-20 48 -23.5 123t-3.5 177q0 78 2.5 145t17.5 116.5t47.5 78t92.5 28.5q35 0 60 -8.5t42 -25.5l26 69l39 -10l-37 -100q22 -48 25 -122t3 -171zM261 605q-8 35 -24 52.5
t-44 17.5q-30 0 -46.5 -21.5t-24 -62t-8.5 -97.5t-1 -127v-84.5t2 -70.5zM273 367v81t-2 69l-147 -396q8 -38 24 -55.5t45 -17.5q30 0 46 20.5t23.5 60.5t9 99.5t1.5 138.5z" />
    <glyph glyph-name="Ugrave" unicode="&#xd9;" 
d="M332 162q0 -38 -6.5 -69.5t-23 -55t-44 -36.5t-69.5 -13t-70 12.5t-44.5 35.5t-23.5 55t-7 71v561h76v-561q0 -24 2.5 -45t9.5 -36t20.5 -24t35.5 -9t35.5 9t20.5 24t9.5 36t2.5 45v561h76v-561zM186 773l-104 143h77l74 -143h-47z" />
    <glyph glyph-name="Uacute" unicode="&#xda;" 
d="M332 162q0 -38 -6.5 -69.5t-23 -55t-44 -36.5t-69.5 -13t-70 12.5t-44.5 35.5t-23.5 55t-7 71v561h76v-561q0 -24 2.5 -45t9.5 -36t20.5 -24t35.5 -9t35.5 9t20.5 24t9.5 36t2.5 45v561h76v-561zM188 773h-47l73 143h77z" />
    <glyph glyph-name="Ucircumflex" unicode="&#xdb;" 
d="M332 162q0 -38 -6.5 -69.5t-23 -55t-44 -36.5t-69.5 -13t-70 12.5t-44.5 35.5t-23.5 55t-7 71v561h76v-561q0 -24 2.5 -45t9.5 -36t20.5 -24t35.5 -9t35.5 9t20.5 24t9.5 36t2.5 45v561h76v-561zM253 774l-66 91l-66 -91h-52l87 142h62l87 -142h-52z" />
    <glyph glyph-name="Udieresis" unicode="&#xdc;" 
d="M332 162q0 -38 -6.5 -69.5t-23 -55t-44 -36.5t-69.5 -13t-70 12.5t-44.5 35.5t-23.5 55t-7 71v561h76v-561q0 -24 2.5 -45t9.5 -36t20.5 -24t35.5 -9t35.5 9t20.5 24t9.5 36t2.5 45v561h76v-561zM223 809v87h60v-87h-60zM90 809v87h61v-87h-61z" />
    <glyph glyph-name="germandbls" unicode="&#xdf;" horiz-adv-x="374" 
d="M361 107q0 -54 -26.5 -85t-80.5 -31q-34 0 -54 10.5t-30.5 28.5t-14 42.5t-3.5 52.5v14h60v-12v-26t4 -26.5t12.5 -20.5t25.5 -8q23 0 32.5 15t9.5 41q0 34 -15.5 67t-40.5 71q-16 24 -30 43t-24.5 36t-17 32.5t-6.5 31.5q0 26 11.5 48.5t22.5 45.5q14 28 24 55.5
t10 65.5q0 42 -14 63t-47 21q-35 0 -46.5 -25t-11.5 -69v-588h-72v586q0 76 30.5 112t99.5 36t97 -34t28 -92q0 -44 -11 -73.5t-25 -60.5q-9 -20 -18.5 -40t-9.5 -42q0 -14 7 -30t17.5 -33t23 -34.5t24.5 -34.5q22 -32 40.5 -70t18.5 -83z" />
    <glyph glyph-name="agrave" unicode="&#xe0;" horiz-adv-x="320" 
d="M211 0q-1 9 -1 16q0 6 -0.5 12t-0.5 10q-28 -47 -77 -47q-32 0 -53 11t-33 30.5t-17 47t-5 59.5q0 40 6.5 70t22.5 50.5t43 31t68 10.5h8.5t14 -0.5t13.5 -1t8 -0.5v72q0 20 -1 36.5t-6.5 28t-15.5 18t-28 6.5t-29 -8t-17 -20.5t-7.5 -29t-1.5 -32.5v-8h-71v11
q0 71 32.5 105.5t91.5 34.5q44 0 69 -11.5t37.5 -32t15.5 -47t3 -56.5v-285q0 -29 1 -47t3 -34h-73zM208 246q-5 2 -13 2h-12q-47 0 -66.5 -23.5t-19.5 -85.5q0 -56 12.5 -76.5t41.5 -20.5q26 0 41.5 22.5t15.5 66.5v115zM156 595l-104 143h77l74 -143h-47z" />
    <glyph glyph-name="aacute" unicode="&#xe1;" horiz-adv-x="320" 
d="M211 0q-1 9 -1 16q0 6 -0.5 12t-0.5 10q-28 -47 -77 -47q-32 0 -53 11t-33 30.5t-17 47t-5 59.5q0 40 6.5 70t22.5 50.5t43 31t68 10.5h8.5t14 -0.5t13.5 -1t8 -0.5v72q0 20 -1 36.5t-6.5 28t-15.5 18t-28 6.5t-29 -8t-17 -20.5t-7.5 -29t-1.5 -32.5v-8h-71v11
q0 71 32.5 105.5t91.5 34.5q44 0 69 -11.5t37.5 -32t15.5 -47t3 -56.5v-285q0 -29 1 -47t3 -34h-73zM208 246q-5 2 -13 2h-12q-47 0 -66.5 -23.5t-19.5 -85.5q0 -56 12.5 -76.5t41.5 -20.5q26 0 41.5 22.5t15.5 66.5v115zM158 595h-47l73 143h77z" />
    <glyph glyph-name="acircumflex" unicode="&#xe2;" horiz-adv-x="320" 
d="M211 0q-1 9 -1 16q0 6 -0.5 12t-0.5 10q-28 -47 -77 -47q-32 0 -53 11t-33 30.5t-17 47t-5 59.5q0 40 6.5 70t22.5 50.5t43 31t68 10.5h8.5t14 -0.5t13.5 -1t8 -0.5v72q0 20 -1 36.5t-6.5 28t-15.5 18t-28 6.5t-29 -8t-17 -20.5t-7.5 -29t-1.5 -32.5v-8h-71v11
q0 71 32.5 105.5t91.5 34.5q44 0 69 -11.5t37.5 -32t15.5 -47t3 -56.5v-285q0 -29 1 -47t3 -34h-73zM208 246q-5 2 -13 2h-12q-47 0 -66.5 -23.5t-19.5 -85.5q0 -56 12.5 -76.5t41.5 -20.5q26 0 41.5 22.5t15.5 66.5v115zM223 596l-66 91l-66 -91h-52l87 142h62l87 -142h-52
z" />
    <glyph glyph-name="atilde" unicode="&#xe3;" horiz-adv-x="320" 
d="M211 0q-1 9 -1 16q0 6 -0.5 12t-0.5 10q-28 -47 -77 -47q-32 0 -53 11t-33 30.5t-17 47t-5 59.5q0 40 6.5 70t22.5 50.5t43 31t68 10.5h8.5t14 -0.5t13.5 -1t8 -0.5v72q0 20 -1 36.5t-6.5 28t-15.5 18t-28 6.5t-29 -8t-17 -20.5t-7.5 -29t-1.5 -32.5v-8h-71v11
q0 71 32.5 105.5t91.5 34.5q44 0 69 -11.5t37.5 -32t15.5 -47t3 -56.5v-285q0 -29 1 -47t3 -34h-73zM208 246q-5 2 -13 2h-12q-47 0 -66.5 -23.5t-19.5 -85.5q0 -56 12.5 -76.5t41.5 -20.5q26 0 41.5 22.5t15.5 66.5v115zM288 713q-1 -16 -6 -32.5t-14.5 -29.5t-25 -21.5
t-37.5 -8.5q-16 0 -30 5.5t-26.5 12.5t-24 12.5t-21.5 5.5q-14 0 -22.5 -11t-10.5 -30h-44q2 37 22 65t61 28q17 0 31.5 -6t27 -12.5t23.5 -12.5t20 -6q30 0 33 41h44z" />
    <glyph glyph-name="adieresis" unicode="&#xe4;" horiz-adv-x="320" 
d="M211 0q-1 9 -1 16q0 6 -0.5 12t-0.5 10q-28 -47 -77 -47q-32 0 -53 11t-33 30.5t-17 47t-5 59.5q0 40 6.5 70t22.5 50.5t43 31t68 10.5h8.5t14 -0.5t13.5 -1t8 -0.5v72q0 20 -1 36.5t-6.5 28t-15.5 18t-28 6.5t-29 -8t-17 -20.5t-7.5 -29t-1.5 -32.5v-8h-71v11
q0 71 32.5 105.5t91.5 34.5q44 0 69 -11.5t37.5 -32t15.5 -47t3 -56.5v-285q0 -29 1 -47t3 -34h-73zM208 246q-5 2 -13 2h-12q-47 0 -66.5 -23.5t-19.5 -85.5q0 -56 12.5 -76.5t41.5 -20.5q26 0 41.5 22.5t15.5 66.5v115zM193 631v87h60v-87h-60zM60 631v87h61v-87h-61z" />
    <glyph glyph-name="aring" unicode="&#xe5;" horiz-adv-x="320" 
d="M211 0q-1 9 -1 16q0 6 -0.5 12t-0.5 10q-28 -47 -77 -47q-32 0 -53 11t-33 30.5t-17 47t-5 59.5q0 40 6.5 70t22.5 50.5t43 31t68 10.5h8.5t14 -0.5t13.5 -1t8 -0.5v72q0 20 -1 36.5t-6.5 28t-15.5 18t-28 6.5t-29 -8t-17 -20.5t-7.5 -29t-1.5 -32.5v-8h-71v11
q0 71 32.5 105.5t91.5 34.5q44 0 69 -11.5t37.5 -32t15.5 -47t3 -56.5v-285q0 -29 1 -47t3 -34h-73zM208 246q-5 2 -13 2h-12q-47 0 -66.5 -23.5t-19.5 -85.5q0 -56 12.5 -76.5t41.5 -20.5q26 0 41.5 22.5t15.5 66.5v115zM241 661q0 -35 -24.5 -60t-59.5 -25t-60 25t-25 60
t25 60t60 25t59.5 -25t24.5 -60zM201 661q0 21 -12 34.5t-32 13.5t-32 -13.5t-12 -34.5q0 -20 12 -34t32 -14t32 14t12 34z" />
    <glyph glyph-name="ae" unicode="&#xe6;" horiz-adv-x="504" 
d="M281 236v-79q0 -113 54 -113q29 0 42 25.5t13 63.5v16h72q0 -34 -7.5 -63t-23 -50t-39.5 -33t-58 -12t-58.5 16t-34.5 47q-11 -26 -33.5 -44t-62.5 -18q-59 0 -89 32.5t-30 111.5q0 38 6.5 66.5t23 48t44.5 29t70 9.5h39v77q0 48 -9.5 71t-41.5 23q-18 0 -29 -7.5
t-17 -20t-8 -28.5t-2 -32v-7h-70v11q0 30 6.5 55t21.5 43t38 28.5t56 10.5q42 0 61 -14.5t32 -41.5q25 56 90 56q43 0 68.5 -16t38.5 -44.5t17 -69t4 -89.5v-58h-184zM392 317q0 27 -1 52.5t-6.5 46t-16.5 32.5t-31 12t-31 -11.5t-16.5 -31t-7 -44.5t-1.5 -52v-32h111v28z
M209 236h-26q-47 0 -65.5 -20.5t-18.5 -76.5t14.5 -75t42.5 -19q16 0 26.5 8t16.5 21.5t8 31.5t2 38v92z" />
    <glyph glyph-name="ccedilla" unicode="&#xe7;" horiz-adv-x="292" 
d="M278 150q0 -30 -4 -58t-16.5 -50t-35 -36t-59.5 -15l-17 -41q10 3 26 3q27 0 46 -16.5t19 -47.5q0 -35 -27 -55.5t-67 -20.5q-23 0 -39 5t-27 12l8 27q11 -5 22 -9.5t28 -4.5q24 0 36.5 11t12.5 30q0 20 -12 29t-28 9q-13 0 -20 -2t-16 -7l-6 9l29 71q-38 5 -59.5 27
t-31.5 56t-12 77.5t-2 91.5q0 72 6 123t21 83.5t40 47t63 14.5q36 0 59 -11t36.5 -32t19 -51t5.5 -67v-7h-71v7q0 51 -8.5 79.5t-40.5 28.5q-17 0 -27.5 -9t-17 -33t-9 -66t-2.5 -108q0 -103 9 -151.5t45 -48.5q30 0 40.5 25.5t10.5 82.5v7h73v-9z" />
    <glyph glyph-name="egrave" unicode="&#xe8;" horiz-adv-x="308" 
d="M100 229v-30q0 -36 1 -64.5t6.5 -48.5t16.5 -31t31 -11q32 0 42.5 27t11.5 77h73q-2 -30 -7.5 -58.5t-19.5 -50t-38 -35t-62 -13.5q-47 0 -73 20.5t-38.5 55t-15 79t-2.5 90.5q0 60 2.5 111t15 88t39 57.5t73.5 20.5q49 0 75.5 -20t38 -56.5t13 -89t1.5 -118.5h-184z
M210 282q0 38 -0.5 70.5t-6 56.5t-16.5 37.5t-32 13.5t-32 -13t-16.5 -37t-6 -56.5t-0.5 -71.5h110zM152 595l-104 143h77l74 -143h-47z" />
    <glyph glyph-name="eacute" unicode="&#xe9;" horiz-adv-x="308" 
d="M100 229v-30q0 -36 1 -64.5t6.5 -48.5t16.5 -31t31 -11q32 0 42.5 27t11.5 77h73q-2 -30 -7.5 -58.5t-19.5 -50t-38 -35t-62 -13.5q-47 0 -73 20.5t-38.5 55t-15 79t-2.5 90.5q0 60 2.5 111t15 88t39 57.5t73.5 20.5q49 0 75.5 -20t38 -56.5t13 -89t1.5 -118.5h-184z
M210 282q0 38 -0.5 70.5t-6 56.5t-16.5 37.5t-32 13.5t-32 -13t-16.5 -37t-6 -56.5t-0.5 -71.5h110zM154 595h-47l73 143h77z" />
    <glyph glyph-name="ecircumflex" unicode="&#xea;" horiz-adv-x="308" 
d="M100 229v-30q0 -36 1 -64.5t6.5 -48.5t16.5 -31t31 -11q32 0 42.5 27t11.5 77h73q-2 -30 -7.5 -58.5t-19.5 -50t-38 -35t-62 -13.5q-47 0 -73 20.5t-38.5 55t-15 79t-2.5 90.5q0 60 2.5 111t15 88t39 57.5t73.5 20.5q49 0 75.5 -20t38 -56.5t13 -89t1.5 -118.5h-184z
M210 282q0 38 -0.5 70.5t-6 56.5t-16.5 37.5t-32 13.5t-32 -13t-16.5 -37t-6 -56.5t-0.5 -71.5h110zM219 596l-66 91l-66 -91h-52l87 142h62l87 -142h-52z" />
    <glyph glyph-name="edieresis" unicode="&#xeb;" horiz-adv-x="308" 
d="M100 229v-30q0 -36 1 -64.5t6.5 -48.5t16.5 -31t31 -11q32 0 42.5 27t11.5 77h73q-2 -30 -7.5 -58.5t-19.5 -50t-38 -35t-62 -13.5q-47 0 -73 20.5t-38.5 55t-15 79t-2.5 90.5q0 60 2.5 111t15 88t39 57.5t73.5 20.5q49 0 75.5 -20t38 -56.5t13 -89t1.5 -118.5h-184z
M210 282q0 38 -0.5 70.5t-6 56.5t-16.5 37.5t-32 13.5t-32 -13t-16.5 -37t-6 -56.5t-0.5 -71.5h110zM189 631v87h60v-87h-60zM56 631v87h61v-87h-61z" />
    <glyph glyph-name="igrave" unicode="&#xec;" horiz-adv-x="152" 
d="M40 0v504h72v-504h-72zM73 595l-104 143h77l74 -143h-47z" />
    <glyph glyph-name="iacute" unicode="&#xed;" horiz-adv-x="152" 
d="M40 0v504h72v-504h-72zM75 595h-47l73 143h77z" />
    <glyph glyph-name="icircumflex" unicode="&#xee;" horiz-adv-x="152" 
d="M40 0v504h72v-504h-72zM140 596l-66 91l-66 -91h-52l87 142h62l87 -142h-52z" />
    <glyph glyph-name="idieresis" unicode="&#xef;" horiz-adv-x="152" 
d="M40 0v504h72v-504h-72zM110 631v87h60v-87h-60zM-23 631v87h61v-87h-61z" />
    <glyph glyph-name="ntilde" unicode="&#xf1;" horiz-adv-x="320" 
d="M208 0v388q0 29 -7.5 48t-36.5 19q-23 0 -37.5 -19t-14.5 -57v-379h-72v406q0 20 -0.5 42.5t-2.5 55.5h70l2 -47q11 23 32.5 39t53.5 16q25 0 41.5 -8.5t26.5 -23t13.5 -33.5t3.5 -41v-406h-72zM290 713q-1 -16 -6 -32.5t-14.5 -29.5t-25 -21.5t-37.5 -8.5q-16 0 -30 5.5
t-26.5 12.5t-24 12.5t-21.5 5.5q-14 0 -22.5 -11t-10.5 -30h-44q2 37 22 65t61 28q17 0 31.5 -6t27 -12.5t23.5 -12.5t20 -6q30 0 33 41h44z" />
    <glyph glyph-name="ograve" unicode="&#xf2;" horiz-adv-x="310" 
d="M284 241q0 -47 -2 -92t-14.5 -80t-38.5 -56.5t-74 -21.5q-47 0 -73 20t-38.5 54.5t-15 80t-2.5 95.5q0 59 2 109t14.5 86t38.5 56.5t74 20.5t74 -19t38.5 -54.5t14.5 -86t2 -112.5zM211 241q0 59 -0.5 100.5t-6 68t-16.5 38.5t-32 12q-20 0 -31 -12.5t-16.5 -38.5t-7 -68
t-1.5 -100q0 -51 1 -88t6.5 -61.5t16.5 -36t31 -11.5q21 0 32.5 11.5t16.5 36t6 61.5t1 88zM154 595l-104 143h77l74 -143h-47z" />
    <glyph glyph-name="oacute" unicode="&#xf3;" horiz-adv-x="310" 
d="M284 241q0 -47 -2 -92t-14.5 -80t-38.5 -56.5t-74 -21.5q-47 0 -73 20t-38.5 54.5t-15 80t-2.5 95.5q0 59 2 109t14.5 86t38.5 56.5t74 20.5t74 -19t38.5 -54.5t14.5 -86t2 -112.5zM211 241q0 59 -0.5 100.5t-6 68t-16.5 38.5t-32 12q-20 0 -31 -12.5t-16.5 -38.5t-7 -68
t-1.5 -100q0 -51 1 -88t6.5 -61.5t16.5 -36t31 -11.5q21 0 32.5 11.5t16.5 36t6 61.5t1 88zM156 595h-47l73 143h77z" />
    <glyph glyph-name="ocircumflex" unicode="&#xf4;" horiz-adv-x="310" 
d="M284 241q0 -47 -2 -92t-14.5 -80t-38.5 -56.5t-74 -21.5q-47 0 -73 20t-38.5 54.5t-15 80t-2.5 95.5q0 59 2 109t14.5 86t38.5 56.5t74 20.5t74 -19t38.5 -54.5t14.5 -86t2 -112.5zM211 241q0 59 -0.5 100.5t-6 68t-16.5 38.5t-32 12q-20 0 -31 -12.5t-16.5 -38.5t-7 -68
t-1.5 -100q0 -51 1 -88t6.5 -61.5t16.5 -36t31 -11.5q21 0 32.5 11.5t16.5 36t6 61.5t1 88zM221 596l-66 91l-66 -91h-52l87 142h62l87 -142h-52z" />
    <glyph glyph-name="otilde" unicode="&#xf5;" horiz-adv-x="310" 
d="M284 241q0 -47 -2 -92t-14.5 -80t-38.5 -56.5t-74 -21.5q-47 0 -73 20t-38.5 54.5t-15 80t-2.5 95.5q0 59 2 109t14.5 86t38.5 56.5t74 20.5t74 -19t38.5 -54.5t14.5 -86t2 -112.5zM211 241q0 59 -0.5 100.5t-6 68t-16.5 38.5t-32 12q-20 0 -31 -12.5t-16.5 -38.5t-7 -68
t-1.5 -100q0 -51 1 -88t6.5 -61.5t16.5 -36t31 -11.5q21 0 32.5 11.5t16.5 36t6 61.5t1 88zM286 713q-1 -16 -6 -32.5t-14.5 -29.5t-25 -21.5t-37.5 -8.5q-16 0 -30 5.5t-26.5 12.5t-24 12.5t-21.5 5.5q-14 0 -22.5 -11t-10.5 -30h-44q2 37 22 65t61 28q17 0 31.5 -6
t27 -12.5t23.5 -12.5t20 -6q30 0 33 41h44z" />
    <glyph glyph-name="odieresis" unicode="&#xf6;" horiz-adv-x="310" 
d="M284 241q0 -47 -2 -92t-14.5 -80t-38.5 -56.5t-74 -21.5q-47 0 -73 20t-38.5 54.5t-15 80t-2.5 95.5q0 59 2 109t14.5 86t38.5 56.5t74 20.5t74 -19t38.5 -54.5t14.5 -86t2 -112.5zM211 241q0 59 -0.5 100.5t-6 68t-16.5 38.5t-32 12q-20 0 -31 -12.5t-16.5 -38.5t-7 -68
t-1.5 -100q0 -51 1 -88t6.5 -61.5t16.5 -36t31 -11.5q21 0 32.5 11.5t16.5 36t6 61.5t1 88zM191 631v87h60v-87h-60zM58 631v87h61v-87h-61z" />
    <glyph glyph-name="divide" unicode="&#xf7;" horiz-adv-x="484" 
d="M197 26v98h90v-98h-90zM46 217v64h392v-64h-392zM287 472v-98h-90v98h90z" />
    <glyph glyph-name="oslash" unicode="&#xf8;" horiz-adv-x="310" 
d="M284 241q0 -47 -2 -92t-14.5 -80t-38.5 -56.5t-74 -21.5q-51 0 -79 25l-26 -62l-33 14l33 81q-17 35 -20.5 85t-3.5 107q0 59 2 109t14.5 86t38.5 56.5t74 20.5q50 0 79 -23l28 69l33 -14l-36 -86q19 -35 22 -90.5t3 -127.5zM203 416q-10 44 -47 44q-20 0 -31 -12.5
t-16.5 -38.5t-7 -68t-1.5 -100v-37.5t1 -33.5zM211 241v54t-1 46l-103 -248q6 -25 17 -37t31 -12q21 0 32.5 11.5t16.5 36t6 61.5t1 88z" />
    <glyph glyph-name="ugrave" unicode="&#xf9;" horiz-adv-x="319" 
d="M213 0l-2 47q-11 -23 -32 -39t-53 -16q-26 0 -42.5 8.5t-26 23t-13.5 33.5t-4 41v406h72v-388q0 -29 8 -48t37 -19q23 0 37 19t14 57v379h72v-406q0 -20 0.5 -42.5t2.5 -55.5h-70zM157 595l-104 143h77l74 -143h-47z" />
    <glyph glyph-name="uacute" unicode="&#xfa;" horiz-adv-x="319" 
d="M213 0l-2 47q-11 -23 -32 -39t-53 -16q-26 0 -42.5 8.5t-26 23t-13.5 33.5t-4 41v406h72v-388q0 -29 8 -48t37 -19q23 0 37 19t14 57v379h72v-406q0 -20 0.5 -42.5t2.5 -55.5h-70zM159 595h-47l73 143h77z" />
    <glyph glyph-name="ucircumflex" unicode="&#xfb;" horiz-adv-x="319" 
d="M213 0l-2 47q-11 -23 -32 -39t-53 -16q-26 0 -42.5 8.5t-26 23t-13.5 33.5t-4 41v406h72v-388q0 -29 8 -48t37 -19q23 0 37 19t14 57v379h72v-406q0 -20 0.5 -42.5t2.5 -55.5h-70zM224 596l-66 91l-66 -91h-52l87 142h62l87 -142h-52z" />
    <glyph glyph-name="udieresis" unicode="&#xfc;" horiz-adv-x="319" 
d="M213 0l-2 47q-11 -23 -32 -39t-53 -16q-26 0 -42.5 8.5t-26 23t-13.5 33.5t-4 41v406h72v-388q0 -29 8 -48t37 -19q23 0 37 19t14 57v379h72v-406q0 -20 0.5 -42.5t2.5 -55.5h-70zM194 631v87h60v-87h-60zM61 631v87h61v-87h-61z" />
    <glyph glyph-name="ydieresis" unicode="&#xff;" horiz-adv-x="304" 
d="M143 -197h-68l37 180l-106 521h81l63 -411l71 411h77zM188 631v87h60v-87h-60zM55 631v87h61v-87h-61z" />
    <glyph glyph-name="dotlessi" unicode="&#x131;" horiz-adv-x="152" 
d="M40 0v504h72v-504h-72z" />
    <glyph glyph-name="caron" unicode="&#x2c7;" horiz-adv-x="159" 
d="M8 737l66 -91l66 91h52l-87 -142h-62l-87 142h52z" />
    <glyph glyph-name="breve" unicode="&#x2d8;" horiz-adv-x="148" 
d="M187 715q-6 -57 -34.5 -87t-79.5 -30q-30 0 -50 9.5t-33 25.5t-20 37t-9 45h39q5 -33 22.5 -51.5t50.5 -18.5t51.5 18.5t23.5 51.5h39z" />
    <glyph glyph-name="dotaccent" unicode="&#x2d9;" horiz-adv-x="148" 
d="M43 631v87h61v-87h-61z" />
    <glyph glyph-name="ring" unicode="&#x2da;" horiz-adv-x="148" 
d="M158 661q0 -35 -24.5 -60t-59.5 -25t-60 25t-25 60t25 60t60 25t59.5 -25t24.5 -60zM118 661q0 21 -12 34.5t-32 13.5t-32 -13.5t-12 -34.5q0 -20 12 -34t32 -14t32 14t12 34z" />
    <glyph glyph-name="ogonek" unicode="&#x2db;" horiz-adv-x="148" 
d="M222 -180q-12 -6 -27 -10.5t-33 -4.5q-43 0 -62.5 19t-19.5 52q0 40 24.5 76.5t59.5 60.5h36q-32 -35 -47.5 -65t-15.5 -58q0 -23 10.5 -35.5t30.5 -12.5q9 0 18.5 4t17.5 9z" />
    <glyph glyph-name="hungarumlaut" unicode="&#x2dd;" horiz-adv-x="148" 
d="M142 595h-47l74 143h77zM5 595h-47l74 143h77z" />
    <glyph glyph-name="pi" unicode="&#x3c0;" horiz-adv-x="425" 
d="M399 10q-29 -16 -60 -16q-48 0 -64 30t-16 75v344h-93v-443h-72v443h-58v61h359v-61h-65v-333q0 -29 9 -41.5t26 -12.5q14 0 34 11v-57z" />
    <glyph glyph-name="fraction" unicode="&#x2044;" horiz-adv-x="150" 
d="M-21 -12h-48l244 747h48z" />
    <glyph glyph-name="Omega" unicode="&#x2126;" horiz-adv-x="386" 
d="M352 367q0 -67 -4 -116.5t-12 -86t-20.5 -61t-30.5 -42.5h74v-61h-140v63q13 16 23 36t17 53t10.5 84.5t3.5 130.5q0 70 -1.5 127t-9 97t-23.5 61.5t-46 21.5t-46 -21.5t-23.5 -61.5t-9 -97t-1.5 -127q0 -79 3.5 -130.5t10.5 -84.5t17 -53t23 -36v-63h-140v61h74
q-18 18 -30.5 42.5t-20.5 61t-12 86t-4 116.5q0 78 2.5 145t17.5 116.5t47 78t92 28.5t92 -25.5t47 -73t17.5 -116t2.5 -153.5z" />
    <glyph glyph-name="partialdiff" unicode="&#x2202;" horiz-adv-x="395" 
d="M167 672q-22 0 -41 -11t-37 -29l-36 47q25 25 56 40t64 15q43 0 76.5 -25.5t56 -73t34.5 -114.5t12 -150q0 -100 -12 -172.5t-35 -119t-56 -68.5t-74 -22q-67 0 -102.5 56t-35.5 149q0 57 12 102t32.5 76t48.5 47.5t61 16.5q29 0 52 -14.5t40 -38.5q-1 67 -9.5 121
t-23.5 91t-36 57t-47 20zM200 371q-40 0 -66.5 -44.5t-26.5 -132.5q0 -143 71 -143q41 0 69.5 61t33.5 194q-17 35 -36 50t-45 15z" />
    <glyph glyph-name="Delta" unicode="&#x2206;" horiz-adv-x="399" 
d="M6 0l156 723h75l155 -723h-386zM198 598l-107 -537h213z" />
    <glyph glyph-name="product" unicode="&#x220f;" horiz-adv-x="505" 
d="M365 -192v913h-225v-913h-72v978h369v-978h-72z" />
    <glyph glyph-name="summation" unicode="&#x2211;" horiz-adv-x="435" 
d="M37 -192v60l194 443l-180 415v60h341v-65h-256l177 -409l-195 -439h285v-65h-366z" />
    <glyph glyph-name="radical" unicode="&#x221a;" horiz-adv-x="482" 
d="M281 -202h-75l-106 354l-56 -17l-14 47l118 34l92 -316l179 887h66z" />
    <glyph glyph-name="infinity" unicode="&#x221e;" horiz-adv-x="706" 
d="M511 93q-41 0 -78 22t-82 79q-45 -56 -83 -78.5t-81 -22.5q-32 0 -57.5 11t-43.5 30.5t-28 47t-10 59.5q0 30 10 56.5t29 47t45.5 32t58.5 11.5q44 0 82.5 -25.5t79.5 -75.5q40 51 77.5 76t85.5 25q31 0 57 -11t44 -30.5t28 -46.5t10 -59q0 -30 -10.5 -57t-29 -47.5
t-45 -32t-59.5 -11.5zM510 150q37 0 60 26.5t23 64.5q0 39 -21.5 64.5t-59.5 25.5q-31 0 -60 -21.5t-65 -67.5q38 -49 65.5 -70.5t57.5 -21.5zM192 150q32 0 60 21.5t64 67.5q-38 49 -65.5 70.5t-56.5 21.5q-38 0 -60.5 -26.5t-22.5 -63.5q0 -40 22 -65.5t59 -25.5z" />
    <glyph glyph-name="integral" unicode="&#x222b;" horiz-adv-x="383" 
d="M226 -27q0 -90 -34 -132.5t-86 -42.5q-13 0 -25 2.5t-20 5.5l11 54q5 -2 11.5 -3t14.5 -1q29 0 43.5 28t14.5 88v636q0 90 34 132.5t86 42.5q13 0 25 -2.5t20 -5.5l-11 -54q-5 2 -11.5 3t-14.5 1q-29 0 -43.5 -28t-14.5 -88v-636z" />
    <glyph glyph-name="approxequal" unicode="&#x2248;" horiz-adv-x="484" 
d="M438 393q-3 -61 -33 -90t-71 -29q-26 0 -50.5 9t-47.5 20t-43 20t-37 9q-21 0 -34.5 -14.5t-16.5 -42.5h-59q3 61 33 90t71 29q26 0 50.5 -9t47.5 -20t43 -20t37 -9q21 0 34.5 14.5t16.5 42.5h59zM438 221q-3 -61 -33 -90t-71 -29q-26 0 -50.5 9t-47.5 20t-43 20t-37 9
q-21 0 -34.5 -14.5t-16.5 -42.5h-59q3 61 33 90t71 29q26 0 50.5 -9t47.5 -20t43 -20t37 -9q21 0 34.5 14.5t16.5 42.5h59z" />
    <glyph glyph-name="notequal" unicode="&#x2260;" horiz-adv-x="484" 
d="M364 369h74v-65h-122l-82 -110h204v-65h-252l-70 -95l-42 32l46 63h-74v65h122l82 110h-204v65h252l70 95l44 -31z" />
    <glyph glyph-name="lessequal" unicode="&#x2264;" horiz-adv-x="484" 
d="M46 275v60l392 171v-68l-313 -132l313 -132v-68zM46 0v65h392v-65h-392z" />
    <glyph glyph-name="greaterequal" unicode="&#x2265;" horiz-adv-x="484" 
d="M46 106v68l313 132l-313 132v68l392 -171v-60zM46 0v65h392v-65h-392z" />
    <glyph glyph-name="lozenge" unicode="&#x25ca;" horiz-adv-x="377" 
d="M225 -31h-74l-126 392l127 391h73l127 -391zM189 665l-89 -304l89 -305l87 305z" />
    <glyph glyph-name="uniF8FF" unicode="&#xf8ff;" horiz-adv-x="512" 
d="M222 117v67h56v-67h-56zM223 234v17q0 27 3 46.5t10 35t18 29t28 29.5q16 16 26 28t15 22t7 19t2 20q0 36 -22.5 57.5t-53.5 21.5t-53.5 -22t-28.5 -73l-50 8q7 72 44 104.5t91 32.5q27 0 49.5 -9t39 -25t26 -39.5t9.5 -51.5q0 -17 -2.5 -32.5t-9.5 -30.5t-19.5 -30
t-31.5 -33q-16 -14 -25.5 -25t-15 -22t-7 -23.5t-1.5 -29.5v-24h-48zM462 50v617h-412v-617h412zM512 718v-718h-512v718h512z" />
    <glyph glyph-name="Scaron" unicode="&#x160;" horiz-adv-x="345" 
d="M317 153q0 -36 -7 -66.5t-24 -52t-45 -34t-70 -12.5q-47 0 -76.5 15t-45.5 40.5t-21.5 60.5t-5.5 76v19h77v-14q0 -28 2 -53t9 -43.5t21 -29.5t39 -11q41 0 55.5 29t14.5 76q0 32 -11 62t-37 64l-116 152q-12 15 -21 34.5t-15 39.5t-9 39t-3 33q0 70 35.5 114t110.5 44
q45 0 72.5 -15t43 -40.5t21 -59.5t5.5 -71v-12h-76v8q0 61 -13 95.5t-55 34.5q-68 0 -68 -98q0 -30 10.5 -55t38.5 -62l109 -144q29 -38 42 -76.5t13 -86.5zM206 773h-62l-87 142h52l66 -91l66 91h52z" />
    <glyph glyph-name="Zcaron" unicode="&#x17d;" horiz-adv-x="309" 
d="M9 0v69l210 589h-194v64h270v-64l-210 -594h215v-64h-291zM188 773h-62l-87 142h52l66 -91l66 91h52z" />
    <glyph glyph-name="scaron" unicode="&#x161;" horiz-adv-x="300" 
d="M278 122q0 -63 -32.5 -97t-93.5 -34q-41 0 -66 11.5t-39.5 32t-19.5 48t-5 59.5v15h73v-15q0 -51 11.5 -75t44.5 -24q53 0 53 79q0 32 -14.5 50t-36.5 36l-56 46q-33 27 -52.5 58t-19.5 76q0 57 32.5 91t94.5 34q68 0 95 -36.5t27 -108.5v-11h-72v12q0 20 -1 36.5
t-6 28.5t-15 19t-28 7q-30 0 -42 -19.5t-12 -50.5q0 -29 14 -47t41 -41l53 -44q22 -18 36 -33t22 -30t11 -32.5t3 -40.5zM84 737l66 -91l66 91h52l-87 -142h-62l-87 142h52z" />
    <glyph glyph-name="zcaron" unicode="&#x17e;" horiz-adv-x="240" 
d="M14 0v55l143 392h-137v57h204v-63l-138 -384h141v-57h-213zM55 737l66 -91l66 91h52l-87 -142h-62l-87 142h52z" />
    <glyph glyph-name="currency" unicode="&#xa4;" horiz-adv-x="380" 
d="M310 436q23 -35 23 -79q0 -23 -6 -43t-17 -37l44 -43l-40 -40l-43 43q-17 -11 -37.5 -17.5t-43.5 -6.5t-43.5 6.5t-37.5 17.5l-43 -43l-40 40l44 43q-23 34 -23 80q0 43 22 79l-43 43l40 40l43 -43q17 11 37.5 17.5t43.5 6.5t43.5 -6.5t37.5 -17.5l43 43l40 -40zM275 357
q0 37 -24 63.5t-61 26.5t-61 -26.5t-24 -63.5q0 -38 24 -64t61 -26t61 26t24 64z" />
    <glyph glyph-name="brokenbar" unicode="&#xa6;" horiz-adv-x="222" 
d="M78 411v251h66v-251h-66zM78 -89v250h66v-250h-66z" />
    <glyph glyph-name="uni00AD" unicode="&#xad;" horiz-adv-x="278" 
d="M29 229v60h220v-60h-220z" />
    <glyph glyph-name="twosuperior" unicode="&#xb2;" horiz-adv-x="236" 
d="M210 797q0 -38 -10 -70.5t-27 -63.5l-86 -154h127v-47h-190v47l88 162q19 35 28.5 64.5t9.5 68.5q0 27 -6.5 40.5t-23.5 13.5q-19 0 -25.5 -17t-6.5 -48v-10h-61v11q0 51 24.5 78t67.5 27q50 0 70.5 -27t20.5 -75z" />
    <glyph glyph-name="threesuperior" unicode="&#xb3;" horiz-adv-x="236" 
d="M211 571q0 -23 -4 -43t-14.5 -36t-29 -25t-46.5 -9t-46 8t-28 22t-14 33t-4 41v16h61v-18q0 -31 7 -46.5t24 -15.5q9 0 15.5 4t11 14t7 27t2.5 43q0 39 -12 56.5t-47 17.5h-15v48h18q31 0 42.5 20t11.5 67q0 34 -8 49t-25 15t-26 -16.5t-9 -42.5v-13h-57v7q1 51 23.5 78
t70.5 27q27 0 44.5 -8.5t27.5 -23.5t13.5 -36t3.5 -45q0 -41 -10 -65.5t-46 -36.5q16 -6 27.5 -13.5t18 -20t9.5 -31.5t3 -48z" />
    <glyph glyph-name="onesuperior" unicode="&#xb9;" horiz-adv-x="236" 
d="M94 462v360h-1q-23 -24 -48 -41v52q13 10 29 28.5t24 33.5h55v-433h-59z" />
    <glyph glyph-name="onequarter" unicode="&#xbc;" horiz-adv-x="535" 
d="M86 290v360h-1q-23 -24 -48 -41v52q13 10 29 28.5t24 33.5h55v-433h-59zM150 -12h-48l244 747h48zM474 102v-102h-58v102h-125v41l106 290h77v-290h31v-41h-31zM417 359h-1l-75 -216h76v216z" />
    <glyph glyph-name="onehalf" unicode="&#xbd;" horiz-adv-x="535" 
d="M487 335q0 -38 -10 -70.5t-27 -63.5l-86 -154h127v-47h-190v47l88 162q19 35 28.5 64.5t9.5 68.5q0 27 -6.5 40.5t-23.5 13.5q-19 0 -25.5 -17t-6.5 -48v-10h-61v11q0 51 24.5 78t67.5 27q50 0 70.5 -27t20.5 -75zM141 -12h-48l244 747h48zM84 290v360h-1
q-23 -24 -48 -41v52q13 10 29 28.5t24 33.5h55v-433h-59z" />
    <glyph glyph-name="threequarters" unicode="&#xbe;" horiz-adv-x="535" 
d="M488 102v-102h-58v102h-125v41l106 290h77v-290h31v-41h-31zM203 399q0 -23 -4 -43t-14.5 -36t-29 -25t-46.5 -9t-46 8t-28 22t-14 33t-4 41v16h61v-18q0 -31 7 -46.5t24 -15.5q9 0 15.5 4t11 14t7 27t2.5 43q0 39 -12 56.5t-47 17.5h-15v48h18q31 0 42.5 20t11.5 67
q0 34 -8 49t-25 15t-26 -16.5t-9 -42.5v-13h-57v7q1 51 23.5 78t70.5 27q27 0 44.5 -8.5t27.5 -23.5t13.5 -36t3.5 -45q0 -41 -10 -65.5t-46 -36.5q16 -6 27.5 -13.5t18 -20t9.5 -31.5t3 -48zM188 -12h-48l244 747h48zM431 359h-1l-75 -216h76v216z" />
    <glyph glyph-name="Eth" unicode="&#xd0;" horiz-adv-x="380" 
d="M46 723h131q61 0 95.5 -22t51 -65t20 -106.5t3.5 -145.5v-34q0 -84 -3 -149.5t-18.5 -110t-48.5 -67.5t-92 -23h-139v348h-36v64h36v311zM122 348v-283h61q28 0 45 11.5t26 43t11.5 87t2.5 143.5v35q0 70 -2 121.5t-11 85t-27 49.5t-51 16h-55v-245h75v-64h-75z" />
    <glyph glyph-name="multiply" unicode="&#xd7;" horiz-adv-x="484" 
d="M242 202l-126 -126l-46 46l126 126l-126 126l46 46l126 -126l126 126l46 -46l-126 -126l126 -126l-46 -46z" />
    <glyph glyph-name="Yacute" unicode="&#xdd;" horiz-adv-x="334" 
d="M205 305v-305h-76v305l-131 418h76l96 -330l95 330h71zM168 773h-47l73 143h77z" />
    <glyph glyph-name="Thorn" unicode="&#xde;" horiz-adv-x="363" 
d="M345 382q0 -54 -6.5 -91t-23.5 -60.5t-45.5 -34t-73.5 -10.5h-74v-186h-76v723h76v-134h75q42 0 70.5 -12t45.5 -37t24.5 -64.5t7.5 -93.5zM268 382q0 79 -17 110.5t-63 31.5h-66v-273h67q49 0 64 31.5t15 99.5z" />
    <glyph glyph-name="eth" unicode="&#xf0;" horiz-adv-x="310" 
d="M284 270q0 -68 -3 -120t-16 -87.5t-39 -53.5t-71 -18q-47 0 -73 20t-38.5 53.5t-15 76t-2.5 87.5q0 59 2 107t14.5 81.5t38.5 52t74 18.5q18 0 34.5 -7.5t24.5 -18.5q0 44 -14 85t-33 67l-69 -39l-27 31l71 39q-17 17 -37.5 29.5t-42.5 20.5l51 31q24 -10 43.5 -22.5
t36.5 -29.5l65 38l25 -31l-66 -38q42 -61 54.5 -155.5t12.5 -216.5zM211 228q0 59 -0.5 98.5t-6 63.5t-16.5 34t-32 10q-20 0 -31 -10.5t-16.5 -34.5t-7 -63.5t-1.5 -97.5q0 -46 1 -80.5t6.5 -57.5t16.5 -34.5t31 -11.5q21 0 32.5 11.5t16.5 34t6 57t1 81.5z" />
    <glyph glyph-name="yacute" unicode="&#xfd;" horiz-adv-x="304" 
d="M143 -197h-68l37 180l-106 521h81l63 -411l71 411h77zM153 595h-47l73 143h77z" />
    <glyph glyph-name="thorn" unicode="&#xfe;" horiz-adv-x="325" 
d="M298 256q0 -66 -4.5 -115.5t-17 -82.5t-34 -49.5t-55.5 -16.5q-53 0 -76 45v-233h-72v919h72v-260q24 49 77 49q33 0 54 -14t33.5 -44.5t17.5 -79.5t5 -118zM224 256q0 55 -1.5 93.5t-7.5 62.5t-17.5 34.5t-30.5 10.5t-30 -11.5t-17 -31t-7.5 -45.5t-1.5 -54v-159
q0 -53 12.5 -83.5t44.5 -30.5q19 0 30.5 11.5t17 37t7 66t1.5 99.5z" />
    <glyph glyph-name=".null" horiz-adv-x="567" 
 />
    <glyph glyph-name="grave.cap" horiz-adv-x="148" 
d="M73 773l-104 143h77l74 -143h-47z" />
    <glyph glyph-name="acute.cap" horiz-adv-x="148" 
d="M75 773h-47l73 143h77z" />
    <glyph glyph-name="circumflex.cap" horiz-adv-x="148" 
d="M140 774l-66 91l-66 -91h-52l87 142h62l87 -142h-52z" />
    <glyph glyph-name="caron.cap" horiz-adv-x="159" 
d="M105 773h-62l-87 142h52l66 -91l66 91h52z" />
    <glyph glyph-name="caron.alt" horiz-adv-x="152" 
d="M94 535h-53l16 188h76z" />
    <glyph glyph-name="tilde.cap" horiz-adv-x="148" 
d="M205 891q-1 -16 -6 -32.5t-14.5 -29.5t-25 -21.5t-37.5 -8.5q-16 0 -30 5.5t-26.5 12.5t-24 12.5t-21.5 5.5q-14 0 -22.5 -11t-10.5 -30h-44q2 37 22 65t61 28q17 0 31.5 -6t27 -12.5t23.5 -12.5t20 -6q30 0 33 41h44z" />
    <glyph glyph-name="dieresis.cap" horiz-adv-x="148" 
d="M110 809v87h60v-87h-60zM-23 809v87h61v-87h-61z" />
    <glyph glyph-name="macron.cap" horiz-adv-x="148" 
d="M-38 817v44h224v-44h-224z" />
    <glyph glyph-name="breve.cap" horiz-adv-x="148" 
d="M187 893q-6 -57 -34.5 -87t-79.5 -30q-30 0 -50 9.5t-33 25.5t-20 37t-9 45h39q5 -33 22.5 -51.5t50.5 -18.5t51.5 18.5t23.5 51.5h39z" />
    <glyph glyph-name="ring.cap" horiz-adv-x="148" 
d="M158 830q0 -35 -24.5 -60t-59.5 -25t-60 25t-25 60t25 60t60 25t59.5 -25t24.5 -60zM118 830q0 21 -12 34.5t-32 13.5t-32 -13.5t-12 -34.5q0 -20 12 -34t32 -14t32 14t12 34z" />
    <glyph glyph-name="hungarumlaut.cap" horiz-adv-x="148" 
d="M142 773h-47l74 143h77zM5 773h-47l74 143h77z" />
    <glyph glyph-name="dotaccent.cap" horiz-adv-x="148" 
d="M43 809v87h61v-87h-61z" />
    <glyph glyph-name="commaaccent" horiz-adv-x="152" 
d="M63 -200h-51l28 150h70z" />
    <glyph glyph-name="commaaccent.alt" horiz-adv-x="325" 
d="M175 738h49l-30 -143h-64z" />
    <glyph glyph-name="zero.prop" 
d="M346 365q0 -84 -3.5 -153.5t-19.5 -119t-47.5 -77t-87.5 -27.5t-87.5 26.5t-47 76t-19 119t-3.5 155.5q0 66 2.5 132.5t17.5 119t47 85.5t90 33t90 -29.5t47 -80t18 -117.5t3 -143zM271 365q0 79 -2.5 138t-11 97t-25 57t-44.5 19q-27 0 -43.5 -19t-25 -58t-11.5 -97.5
t-3 -136.5q0 -90 3.5 -151t12.5 -98t25 -53t42 -16q27 0 43.5 16t25 53.5t11.5 98t3 150.5z" />
    <glyph glyph-name="one.prop" horiz-adv-x="284" 
d="M121 0v623q-22 -22 -40 -36.5t-41 -28.5v75q13 10 24.5 19.5t22 19.5t21 22.5t22.5 29.5h64v-724h-73z" />
    <glyph glyph-name="two.prop" 
d="M326 574q0 -44 -5 -78.5t-14 -66t-23 -61t-32 -62.5l-132 -242h211v-64h-300v60l160 284q16 28 27.5 53.5t19 52.5t11 57.5t3.5 68.5q0 48 -16 74t-51 26q-25 0 -40 -13t-22.5 -33t-9.5 -44.5t-2 -47.5h-74q0 45 8.5 81t26.5 62t46 40t67 14q38 0 65 -12t44 -33
t24.5 -50.5t7.5 -65.5z" />
    <glyph glyph-name="three.prop" 
d="M333 201q0 -51 -7.5 -90.5t-24.5 -66.5t-45.5 -41.5t-70.5 -14.5t-69.5 12.5t-44.5 36t-24 58t-7 79.5v10h74v-11q0 -24 2.5 -46.5t10 -40t21 -28t35.5 -10.5q42 0 59 39.5t17 111.5q0 29 -3.5 55.5t-14 46t-29.5 31t-50 11.5h-48v60h47q30 0 48.5 10t28 28.5t13 44.5
t3.5 58q0 65 -15.5 98.5t-51.5 33.5q-38 0 -55 -31.5t-17 -95.5v-13h-73v15q0 86 35 135t107 49q43 0 71 -15t44 -40.5t22 -59.5t6 -73q0 -71 -19.5 -114.5t-74.5 -62.5q27 -8 46 -20t31 -31.5t17.5 -48t5.5 -69.5z" />
    <glyph glyph-name="four.prop" 
d="M293 174v-174h-75v174h-184v60l165 489h94v-491h49v-58h-49zM221 617l-124 -385h124v385z" />
    <glyph glyph-name="five.prop" 
d="M348 241q0 -50 -5.5 -96t-22 -81t-46.5 -55.5t-80 -20.5q-38 0 -66 13.5t-46 38t-26.5 57.5t-8.5 72v18h73v-13q0 -26 4 -49.5t13 -40.5t23.5 -27t34.5 -10q45 0 62 49t17 149q0 78 -17.5 119.5t-59.5 41.5q-35 0 -53 -26.5t-24 -74.5h-71l4 418h263v-61h-190l-5 -245
q34 48 91 48q69 0 102.5 -52.5t33.5 -171.5z" />
    <glyph glyph-name="six.prop" 
d="M348 236q0 -121 -36.5 -184.5t-114.5 -63.5q-54 0 -85.5 23.5t-47.5 69t-20 113.5t-4 157q0 87 4.5 157.5t21 121t48 78t85.5 27.5q47 0 74.5 -16.5t41.5 -42.5t18.5 -59t6.5 -66h-73q-1 71 -17 98t-50 27q-26 0 -42 -16t-25.5 -50.5t-13.5 -88t-6 -129.5q13 32 37.5 51
t65.5 19q63 0 97.5 -51.5t34.5 -174.5zM276 236q0 38 -3 69t-11.5 52.5t-23.5 33.5t-40 12q-24 0 -40 -13t-25 -35.5t-12.5 -53t-3.5 -65.5v-23q0 -36 4.5 -66.5t14 -52.5t25 -34.5t36.5 -12.5q25 0 41 15t24 41t11 60.5t3 72.5z" />
    <glyph glyph-name="seven.prop" horiz-adv-x="310" 
d="M134 0h-81l165 657h-208v66h282v-57z" />
    <glyph glyph-name="eight.prop" 
d="M342 195q0 -45 -7.5 -83t-25 -65.5t-47 -43t-73.5 -15.5q-45 0 -74.5 15.5t-47.5 43.5t-25 65.5t-7 82.5q0 40 5 69t16 49.5t29 34t44 22.5q-49 14 -68.5 55t-19.5 115q0 88 34 141.5t114 53.5q79 0 113 -52.5t34 -142.5q0 -73 -21.5 -112.5t-72.5 -56.5
q55 -14 77.5 -53.5t22.5 -122.5zM264 547q0 56 -16.5 92.5t-58.5 36.5q-41 0 -58.5 -37t-17.5 -92q0 -69 15 -106.5t61 -37.5q45 0 60 39t15 105zM269 199q0 67 -19 105.5t-61 38.5q-43 0 -62 -38t-19 -106q0 -81 18 -116.5t63 -35.5q44 0 62 36t18 116z" />
    <glyph glyph-name="nine.prop" 
d="M340 369q0 -92 -4.5 -163t-21 -119.5t-48.5 -73.5t-86 -25q-44 0 -71.5 16.5t-43 43t-21 60t-5.5 68.5v8h74v-10q0 -128 68 -128q48 0 67 58t19 187v56q-14 -33 -38.5 -52t-65.5 -19q-34 0 -59 15.5t-41 43t-24 66t-8 85.5q0 121 35.5 183.5t114.5 62.5q48 0 78.5 -18.5
t48.5 -55t25 -91.5t7 -128v-70zM263 497q0 37 -3.5 69t-12.5 56t-25 37.5t-40 13.5q-26 0 -41.5 -15t-24 -40t-11.5 -58t-3 -69q0 -25 2.5 -52.5t11 -50.5t24 -38t42.5 -15q26 0 42 15t24.5 39t11.5 52.5t3 55.5z" />
    <glyph glyph-name="Euro.prop" 
d="M168 289q0 -69 6 -115.5t17.5 -74t29 -39.5t41.5 -12q29 0 50 13t32 30v-75q-10 -8 -30 -18t-55 -10q-44 0 -74.5 16.5t-50.5 52.5t-29.5 93.5t-10.5 138.5h-67l8 49h59v63h-67l8 49h59q2 142 43.5 213.5t125.5 71.5q33 0 56.5 -11.5t35.5 -26.5l-11 -69q-11 21 -32 33.5
t-50 12.5q-20 0 -37 -11.5t-30 -38t-20 -69.5t-7 -105h150l-9 -49h-141v-63h132l-8 -49h-124z" />
    <glyph glyph-name="cent.prop" horiz-adv-x="316" 
d="M285 150q0 -29 -3.5 -55.5t-14.5 -47.5t-31 -36t-53 -19v-76h-42v76q-39 5 -60.5 27t-32 56t-13 78t-2.5 92q0 67 5 115.5t17 80.5t33 49t53 22v74h42v-74q59 -7 79.5 -49t20.5 -111v-7h-71v7q0 51 -8.5 79.5t-40.5 28.5q-17 0 -27.5 -9t-17 -33t-9 -66t-2.5 -108
q0 -103 9 -151.5t45 -48.5q30 0 40.5 25.5t10.5 82.5v7h73v-9z" />
    <glyph glyph-name="dollar.prop" 
d="M328 155q0 -34 -6 -63t-20 -51t-37 -35.5t-57 -16.5v-67h-46v67q-36 4 -59 20.5t-36 42.5t-17.5 59.5t-4.5 71.5v18h73v-20q0 -19 2.5 -42t10 -43.5t21 -34.5t34.5 -14q38 0 53 28.5t15 79.5q0 32 -11 61.5t-35 63.5l-96 133q-32 44 -47 85.5t-15 75.5q0 28 6 54.5t19 48
t34.5 36t52.5 19.5v66h46v-65q36 -3 59 -19t36 -41.5t18 -58t5 -68.5v-12h-73v7q0 64 -12.5 98.5t-51.5 34.5q-37 0 -51.5 -27.5t-14.5 -72.5q0 -30 9.5 -55t36.5 -62l105 -141q28 -38 41 -75.5t13 -85.5z" />
    <glyph glyph-name="sterling.prop" 
d="M280 534v21q0 57 -10.5 88t-51.5 31q-35 0 -49.5 -24.5t-14.5 -86.5v-148h95v-51h-95v-304h187v-60h-303v60h44v304h-52v51h52v133q0 38 5.5 72t20 59.5t40.5 40.5t68 15q44 0 71 -14t42 -37.5t20 -54.5t5 -66v-29h-74z" />
    <glyph glyph-name="florin.prop" horiz-adv-x="292" 
d="M276 680q-14 3 -28 3q-15 0 -23.5 -4.5t-14 -16t-9 -32t-7.5 -52.5l-10 -89h73l-6 -53h-72l-55 -490q-8 -69 -32.5 -98t-73.5 -29q-19 0 -37 3l5 51q5 -1 12 -1q36 0 48 32l4 12t3.5 16.5t3.5 26t5 39.5l49 438h-69l6 53h68l12 112q3 31 9 55.5t16 42t26.5 27t40.5 9.5
q20 0 33.5 -1.5t27.5 -4.5z" />
    <glyph glyph-name="yen.prop" 
d="M237 354h77v-49h-90v-63h90v-49h-90v-193h-72v193h-90v49h90v63h-90v49h77l-105 369h72l83 -325l89 325h66z" />
    <glyph glyph-name="zero.numerator" horiz-adv-x="236" 
d="M219 510q0 -54 -3 -96t-13.5 -70t-30.5 -42.5t-54 -14.5q-35 0 -55 14.5t-30 42.5t-13 69.5t-3 96.5q0 49 3 89t13.5 68.5t30.5 44.5t54 16q35 0 55.5 -15t30.5 -43.5t12.5 -69t2.5 -90.5zM160 510q0 96 -7 137.5t-35 41.5t-35 -42t-7 -137q0 -53 1.5 -88.5t6 -56.5
t12.5 -30t22 -9q13 0 21.5 9t13 30.5t6 56.5t1.5 88z" />
    <glyph glyph-name="one.numerator" horiz-adv-x="236" 
d="M94 291v360h-1q-23 -24 -48 -41v52q13 10 29 28.5t24 33.5h55v-433h-59z" />
    <glyph glyph-name="two.numerator" horiz-adv-x="236" 
d="M210 626q0 -38 -10 -70.5t-27 -63.5l-86 -154h127v-47h-190v47l88 162q19 35 28.5 64.5t9.5 68.5q0 27 -6.5 40.5t-23.5 13.5q-19 0 -25.5 -17t-6.5 -48v-10h-61v11q0 51 24.5 78t67.5 27q50 0 70.5 -27t20.5 -75z" />
    <glyph glyph-name="three.numerator" horiz-adv-x="236" 
d="M211 400q0 -23 -4 -43t-14.5 -36t-29 -25t-46.5 -9t-46 8t-28 22t-14 33t-4 41v16h61v-18q0 -31 7 -46.5t24 -15.5q9 0 15.5 4t11 14t7 27t2.5 43q0 39 -12 56.5t-47 17.5h-15v48h18q31 0 42.5 20t11.5 67q0 34 -8 49t-25 15t-26 -16.5t-9 -42.5v-13h-57v7q1 51 23.5 78
t70.5 27q27 0 44.5 -8.5t27.5 -23.5t13.5 -36t3.5 -45q0 -41 -10 -65.5t-46 -36.5q16 -6 27.5 -13.5t18 -20t9.5 -31.5t3 -48z" />
    <glyph glyph-name="four.numerator" horiz-adv-x="236" 
d="M194 393v-102h-58v102h-125v41l106 290h77v-290h31v-41h-31zM137 650h-1l-75 -216h76v216z" />
    <glyph glyph-name="five.numerator" horiz-adv-x="236" 
d="M218 438q0 -36 -4 -64.5t-15 -47.5t-30.5 -29t-49.5 -10q-53 0 -73.5 29t-20.5 79v13h58v-10q0 -33 8 -52t29 -19q23 0 32 20t9 72q0 54 -8 84t-31 30q-35 0 -39 -61h-56l2 252h171v-41h-115l-2 -136q9 11 22 18t31 7q21 0 36.5 -6t25.5 -21.5t15 -41.5t5 -65z" />
    <glyph glyph-name="six.numerator" horiz-adv-x="236" 
d="M218 439q0 -74 -23 -113t-74 -39q-34 0 -54 13t-30.5 39t-13.5 66.5t-3 96.5q0 55 3.5 97t14.5 70.5t31 43.5t53 15q26 0 43.5 -9.5t28 -25t14.5 -35.5t4 -41h-57q0 40 -8 56t-25 16q-25 0 -33.5 -33.5t-9.5 -115.5q8 13 21.5 21t33.5 8q38 0 61 -29t23 -101zM160 435
q0 47 -7 71.5t-33 24.5q-25 0 -32.5 -27t-7.5 -69q0 -57 9 -83t31 -26q25 0 32.5 29t7.5 80z" />
    <glyph glyph-name="seven.numerator" horiz-adv-x="236" 
d="M116 291h-62l98 386h-122v47h181v-39z" />
    <glyph glyph-name="eight.numerator" horiz-adv-x="236" 
d="M217 407q0 -58 -21 -89t-78 -31t-78 31t-21 89q0 52 14 73.5t43 31.5q-28 9 -40.5 31t-12.5 70q0 57 22 86t73 29t73 -28.5t22 -86.5q0 -48 -13.5 -69t-42.5 -31q31 -9 45.5 -31.5t14.5 -74.5zM156 616q0 35 -7.5 54t-30.5 19q-22 0 -30 -19.5t-8 -53.5q0 -43 7.5 -62.5
t30.5 -19.5t30.5 20t7.5 62zM159 412q0 42 -9 62t-32 20q-41 0 -41 -82q0 -49 9 -67.5t32 -18.5t32 18.5t9 67.5z" />
    <glyph glyph-name="nine.numerator" horiz-adv-x="236" 
d="M216 511q0 -57 -3.5 -99t-14 -70t-30.5 -41.5t-54 -13.5q-29 0 -47 11t-28 27.5t-13 37t-3 39.5v5h58v-7q0 -74 34 -74q26 0 34 37t8 123q-6 -14 -20.5 -22t-34.5 -8q-45 0 -64.5 35t-19.5 89q0 73 22.5 110.5t73.5 37.5q31 0 51 -11t31.5 -33.5t15.5 -57t4 -80.5v-35z
M156 588q0 51 -8.5 76t-32.5 25t-31.5 -26.5t-7.5 -75.5q0 -42 7 -67.5t32 -25.5q26 0 33.5 26t7.5 68z" />
    <glyph glyph-name="zero.denominator" horiz-adv-x="236" 
d="M219 219q0 -54 -3 -96t-13.5 -70t-30.5 -42.5t-54 -14.5q-35 0 -55 14.5t-30 42.5t-13 69.5t-3 96.5q0 49 3 89t13.5 68.5t30.5 44.5t54 16q35 0 55.5 -15t30.5 -43.5t12.5 -69t2.5 -90.5zM160 219q0 96 -7 137.5t-35 41.5t-35 -42t-7 -137q0 -53 1.5 -88.5t6 -56.5
t12.5 -30t22 -9q13 0 21.5 9t13 30.5t6 56.5t1.5 88z" />
    <glyph glyph-name="one.denominator" horiz-adv-x="236" 
d="M94 0v360h-1q-23 -24 -48 -41v52q13 10 29 28.5t24 33.5h55v-433h-59z" />
    <glyph glyph-name="two.denominator" horiz-adv-x="236" 
d="M210 335q0 -38 -10 -70.5t-27 -63.5l-86 -154h127v-47h-190v47l88 162q19 35 28.5 64.5t9.5 68.5q0 27 -6.5 40.5t-23.5 13.5q-19 0 -25.5 -17t-6.5 -48v-10h-61v11q0 51 24.5 78t67.5 27q50 0 70.5 -27t20.5 -75z" />
    <glyph glyph-name="three.denominator" horiz-adv-x="236" 
d="M211 109q0 -23 -4 -43t-14.5 -36t-29 -25t-46.5 -9t-46 8t-28 22t-14 33t-4 41v16h61v-18q0 -31 7 -46.5t24 -15.5q9 0 15.5 4t11 14t7 27t2.5 43q0 39 -12 56.5t-47 17.5h-15v48h18q31 0 42.5 20t11.5 67q0 34 -8 49t-25 15t-26 -16.5t-9 -42.5v-13h-57v7q1 51 23.5 78
t70.5 27q27 0 44.5 -8.5t27.5 -23.5t13.5 -36t3.5 -45q0 -41 -10 -65.5t-46 -36.5q16 -6 27.5 -13.5t18 -20t9.5 -31.5t3 -48z" />
    <glyph glyph-name="four.denominator" horiz-adv-x="236" 
d="M194 102v-102h-58v102h-125v41l106 290h77v-290h31v-41h-31zM137 359h-1l-75 -216h76v216z" />
    <glyph glyph-name="five.denominator" horiz-adv-x="236" 
d="M218 147q0 -36 -4 -64.5t-15 -47.5t-30.5 -29t-49.5 -10q-53 0 -73.5 29t-20.5 79v13h58v-10q0 -33 8 -52t29 -19q23 0 32 20t9 72q0 54 -8 84t-31 30q-35 0 -39 -61h-56l2 252h171v-41h-115l-2 -136q9 11 22 18t31 7q21 0 36.5 -6t25.5 -21.5t15 -41.5t5 -65z" />
    <glyph glyph-name="six.denominator" horiz-adv-x="236" 
d="M218 148q0 -74 -23 -113t-74 -39q-34 0 -54 13t-30.5 39t-13.5 66.5t-3 96.5q0 55 3.5 97t14.5 70.5t31 43.5t53 15q26 0 43.5 -9.5t28 -25t14.5 -35.5t4 -41h-57q0 40 -8 56t-25 16q-25 0 -33.5 -33.5t-9.5 -115.5q8 13 21.5 21t33.5 8q38 0 61 -29t23 -101zM160 144
q0 47 -7 71.5t-33 24.5q-25 0 -32.5 -27t-7.5 -69q0 -57 9 -83t31 -26q25 0 32.5 29t7.5 80z" />
    <glyph glyph-name="seven.denominator" horiz-adv-x="236" 
d="M116 0h-62l98 386h-122v47h181v-39z" />
    <glyph glyph-name="eight.denominator" horiz-adv-x="236" 
d="M217 116q0 -58 -21 -89t-78 -31t-78 31t-21 89q0 52 14 73.5t43 31.5q-28 9 -40.5 31t-12.5 70q0 57 22 86t73 29t73 -28.5t22 -86.5q0 -48 -13.5 -69t-42.5 -31q31 -9 45.5 -31.5t14.5 -74.5zM156 325q0 35 -7.5 54t-30.5 19q-22 0 -30 -19.5t-8 -53.5q0 -43 7.5 -62.5
t30.5 -19.5t30.5 20t7.5 62zM159 121q0 42 -9 62t-32 20q-41 0 -41 -82q0 -49 9 -67.5t32 -18.5t32 18.5t9 67.5z" />
    <glyph glyph-name="nine.denominator" horiz-adv-x="236" 
d="M216 220q0 -57 -3.5 -99t-14 -70t-30.5 -41.5t-54 -13.5q-29 0 -47 11t-28 27.5t-13 37t-3 39.5v5h58v-7q0 -74 34 -74q26 0 34 37t8 123q-6 -14 -20.5 -22t-34.5 -8q-45 0 -64.5 35t-19.5 89q0 73 22.5 110.5t73.5 37.5q31 0 51 -11t31.5 -33.5t15.5 -57t4 -80.5v-35z
M156 297q0 51 -8.5 76t-32.5 25t-31.5 -26.5t-7.5 -75.5q0 -42 7 -67.5t32 -25.5q26 0 33.5 26t7.5 68z" />
    <glyph glyph-name="Amacron" unicode="&#x100;" horiz-adv-x="386" 
d="M302 0l-33 187h-155l-33 -187h-76l144 723h91l141 -723h-79zM191 634l-65 -382h132zM78 817v44h224v-44h-224z" />
    <glyph glyph-name="amacron" unicode="&#x101;" horiz-adv-x="320" 
d="M211 0q-1 9 -1 16q0 6 -0.5 12t-0.5 10q-28 -47 -77 -47q-32 0 -53 11t-33 30.5t-17 47t-5 59.5q0 40 6.5 70t22.5 50.5t43 31t68 10.5h8.5t14 -0.5t13.5 -1t8 -0.5v72q0 20 -1 36.5t-6.5 28t-15.5 18t-28 6.5t-29 -8t-17 -20.5t-7.5 -29t-1.5 -32.5v-8h-71v11
q0 71 32.5 105.5t91.5 34.5q44 0 69 -11.5t37.5 -32t15.5 -47t3 -56.5v-285q0 -29 1 -47t3 -34h-73zM208 246q-5 2 -13 2h-12q-47 0 -66.5 -23.5t-19.5 -85.5q0 -56 12.5 -76.5t41.5 -20.5q26 0 41.5 22.5t15.5 66.5v115zM45 641v44h224v-44h-224z" />
    <glyph glyph-name="Abreve" unicode="&#x102;" horiz-adv-x="386" 
d="M302 0l-33 187h-155l-33 -187h-76l144 723h91l141 -723h-79zM191 634l-65 -382h132zM303 893q-6 -57 -34.5 -87t-79.5 -30q-30 0 -50 9.5t-33 25.5t-20 37t-9 45h39q5 -33 22.5 -51.5t50.5 -18.5t51.5 18.5t23.5 51.5h39z" />
    <glyph glyph-name="abreve" unicode="&#x103;" horiz-adv-x="320" 
d="M211 0q-1 9 -1 16q0 6 -0.5 12t-0.5 10q-28 -47 -77 -47q-32 0 -53 11t-33 30.5t-17 47t-5 59.5q0 40 6.5 70t22.5 50.5t43 31t68 10.5h8.5t14 -0.5t13.5 -1t8 -0.5v72q0 20 -1 36.5t-6.5 28t-15.5 18t-28 6.5t-29 -8t-17 -20.5t-7.5 -29t-1.5 -32.5v-8h-71v11
q0 71 32.5 105.5t91.5 34.5q44 0 69 -11.5t37.5 -32t15.5 -47t3 -56.5v-285q0 -29 1 -47t3 -34h-73zM208 246q-5 2 -13 2h-12q-47 0 -66.5 -23.5t-19.5 -85.5q0 -56 12.5 -76.5t41.5 -20.5q26 0 41.5 22.5t15.5 66.5v115zM270 715q-6 -57 -34.5 -87t-79.5 -30q-30 0 -50 9.5
t-33 25.5t-20 37t-9 45h39q5 -33 22.5 -51.5t50.5 -18.5t51.5 18.5t23.5 51.5h39z" />
    <glyph glyph-name="Aogonek" unicode="&#x104;" horiz-adv-x="386" 
d="M414 -180q-12 -6 -27 -10.5t-33 -4.5q-43 0 -62.5 19t-19.5 52q0 35 19 67.5t48 56.5h-37l-33 187h-155l-33 -187h-76l144 723h91l141 -723q-52 -61 -52 -110q0 -23 10.5 -35.5t30.5 -12.5q9 0 18.5 4t17.5 9zM191 634l-65 -382h132z" />
    <glyph glyph-name="aogonek" unicode="&#x105;" horiz-adv-x="320" 
d="M317 -180q-12 -6 -27 -10.5t-33 -4.5q-43 0 -62.5 19t-19.5 52q0 35 19 67.5t48 56.5h-31q-1 9 -1 16q0 6 -0.5 12t-0.5 10q-28 -47 -77 -47q-32 0 -53 11t-33 30.5t-17 47t-5 59.5q0 40 6.5 70t22.5 50.5t43 31t68 10.5h8.5t14 -0.5t13.5 -1t8 -0.5v72q0 20 -1 36.5
t-6.5 28t-15.5 18t-28 6.5t-29 -8t-17 -20.5t-7.5 -29t-1.5 -32.5v-8h-71v11q0 71 32.5 105.5t91.5 34.5q44 0 69 -11.5t37.5 -32t15.5 -47t3 -56.5v-285q0 -29 1 -47t3 -34q-52 -63 -52 -110q0 -23 10.5 -35.5t30.5 -12.5q9 0 18.5 4t17.5 9zM208 246q-5 2 -13 2h-12
q-47 0 -66.5 -23.5t-19.5 -85.5q0 -56 12.5 -76.5t41.5 -20.5q26 0 41.5 22.5t15.5 66.5v115z" />
    <glyph glyph-name="Cacute" unicode="&#x106;" horiz-adv-x="352" 
d="M335 193q0 -40 -5 -77t-20 -65.5t-43.5 -45.5t-75.5 -17q-59 0 -91 26.5t-46.5 76t-17 120t-2.5 157.5q0 82 2.5 149.5t17.5 116t46.5 75t90.5 26.5q47 0 75.5 -15.5t43.5 -42.5t19.5 -63.5t4.5 -78.5h-76q0 66 -14.5 102.5t-52.5 36.5q-29 0 -45 -20.5t-23.5 -59.5
t-8.5 -96t-1 -130q0 -92 2.5 -153.5t11 -98.5t24.5 -52.5t42 -15.5q23 0 36 14t19 35.5t7.5 47t1.5 48.5h78zM190 773h-47l73 143h77z" />
    <glyph glyph-name="cacute" unicode="&#x107;" horiz-adv-x="292" 
d="M278 150q0 -31 -4.5 -59.5t-18 -50.5t-37.5 -35.5t-64 -13.5q-47 0 -72.5 20.5t-38 55.5t-15 81t-2.5 97q0 72 6 123t21 83.5t40 47t63 14.5q36 0 59 -11t36.5 -32t19 -51t5.5 -67v-7h-71v7q0 51 -8.5 79.5t-40.5 28.5q-17 0 -27.5 -9t-17 -33t-9 -66t-2.5 -108
q0 -103 9 -151.5t45 -48.5q30 0 40.5 25.5t10.5 82.5v7h73v-9zM154 595h-47l73 143h77z" />
    <glyph glyph-name="Ccircumflex" unicode="&#x108;" horiz-adv-x="352" 
d="M335 193q0 -40 -5 -77t-20 -65.5t-43.5 -45.5t-75.5 -17q-59 0 -91 26.5t-46.5 76t-17 120t-2.5 157.5q0 82 2.5 149.5t17.5 116t46.5 75t90.5 26.5q47 0 75.5 -15.5t43.5 -42.5t19.5 -63.5t4.5 -78.5h-76q0 66 -14.5 102.5t-52.5 36.5q-29 0 -45 -20.5t-23.5 -59.5
t-8.5 -96t-1 -130q0 -92 2.5 -153.5t11 -98.5t24.5 -52.5t42 -15.5q23 0 36 14t19 35.5t7.5 47t1.5 48.5h78zM255 774l-66 91l-66 -91h-52l87 142h62l87 -142h-52z" />
    <glyph glyph-name="ccircumflex" unicode="&#x109;" horiz-adv-x="292" 
d="M278 150q0 -31 -4.5 -59.5t-18 -50.5t-37.5 -35.5t-64 -13.5q-47 0 -72.5 20.5t-38 55.5t-15 81t-2.5 97q0 72 6 123t21 83.5t40 47t63 14.5q36 0 59 -11t36.5 -32t19 -51t5.5 -67v-7h-71v7q0 51 -8.5 79.5t-40.5 28.5q-17 0 -27.5 -9t-17 -33t-9 -66t-2.5 -108
q0 -103 9 -151.5t45 -48.5q30 0 40.5 25.5t10.5 82.5v7h73v-9zM219 596l-66 91l-66 -91h-52l87 142h62l87 -142h-52z" />
    <glyph glyph-name="Cdotaccent" unicode="&#x10a;" horiz-adv-x="352" 
d="M335 193q0 -40 -5 -77t-20 -65.5t-43.5 -45.5t-75.5 -17q-59 0 -91 26.5t-46.5 76t-17 120t-2.5 157.5q0 82 2.5 149.5t17.5 116t46.5 75t90.5 26.5q47 0 75.5 -15.5t43.5 -42.5t19.5 -63.5t4.5 -78.5h-76q0 66 -14.5 102.5t-52.5 36.5q-29 0 -45 -20.5t-23.5 -59.5
t-8.5 -96t-1 -130q0 -92 2.5 -153.5t11 -98.5t24.5 -52.5t42 -15.5q23 0 36 14t19 35.5t7.5 47t1.5 48.5h78zM158 809v87h61v-87h-61z" />
    <glyph glyph-name="cdotaccent" unicode="&#x10b;" horiz-adv-x="292" 
d="M278 150q0 -31 -4.5 -59.5t-18 -50.5t-37.5 -35.5t-64 -13.5q-47 0 -72.5 20.5t-38 55.5t-15 81t-2.5 97q0 72 6 123t21 83.5t40 47t63 14.5q36 0 59 -11t36.5 -32t19 -51t5.5 -67v-7h-71v7q0 51 -8.5 79.5t-40.5 28.5q-17 0 -27.5 -9t-17 -33t-9 -66t-2.5 -108
q0 -103 9 -151.5t45 -48.5q30 0 40.5 25.5t10.5 82.5v7h73v-9zM122 631v87h61v-87h-61z" />
    <glyph glyph-name="Ccaron" unicode="&#x10c;" horiz-adv-x="352" 
d="M335 193q0 -40 -5 -77t-20 -65.5t-43.5 -45.5t-75.5 -17q-59 0 -91 26.5t-46.5 76t-17 120t-2.5 157.5q0 82 2.5 149.5t17.5 116t46.5 75t90.5 26.5q47 0 75.5 -15.5t43.5 -42.5t19.5 -63.5t4.5 -78.5h-76q0 66 -14.5 102.5t-52.5 36.5q-29 0 -45 -20.5t-23.5 -59.5
t-8.5 -96t-1 -130q0 -92 2.5 -153.5t11 -98.5t24.5 -52.5t42 -15.5q23 0 36 14t19 35.5t7.5 47t1.5 48.5h78zM220 773h-62l-87 142h52l66 -91l66 91h52z" />
    <glyph glyph-name="ccaron" unicode="&#x10d;" horiz-adv-x="292" 
d="M278 150q0 -31 -4.5 -59.5t-18 -50.5t-37.5 -35.5t-64 -13.5q-47 0 -72.5 20.5t-38 55.5t-15 81t-2.5 97q0 72 6 123t21 83.5t40 47t63 14.5q36 0 59 -11t36.5 -32t19 -51t5.5 -67v-7h-71v7q0 51 -8.5 79.5t-40.5 28.5q-17 0 -27.5 -9t-17 -33t-9 -66t-2.5 -108
q0 -103 9 -151.5t45 -48.5q30 0 40.5 25.5t10.5 82.5v7h73v-9zM87 737l66 -91l66 91h52l-87 -142h-62l-87 142h52z" />
    <glyph glyph-name="Dcaron" unicode="&#x10e;" horiz-adv-x="380" 
d="M347 350q0 -84 -3 -149.5t-18.5 -110t-48.5 -67.5t-92 -23h-139v723h131q61 0 95.5 -22t51 -65t20 -106.5t3.5 -145.5v-34zM268 385q0 70 -2 121.5t-11 85t-27 49.5t-51 16h-55v-592h61q28 0 45 11.5t26 43t11.5 87t2.5 143.5v35zM195 773h-62l-87 142h52l66 -91l66 91
h52z" />
    <glyph glyph-name="dcaron" unicode="&#x10f;" horiz-adv-x="325" 
d="M216 0l-2 37q-23 -45 -77 -45q-34 0 -55.5 16.5t-34 49.5t-17 82.5t-4.5 115.5q0 67 5.5 116t18.5 80t34 46t52 15q32 0 47.5 -13.5t29.5 -36.5v260h72v-637v-20.5t0.5 -25t1 -24t0.5 -16.5h-71zM213 364q0 38 -12.5 66t-42.5 28q-19 0 -30.5 -11t-18 -35t-8.5 -62.5
t-2 -93.5q0 -59 1.5 -99.5t7.5 -66t17 -37t31 -11.5q19 0 30.5 11.5t17.5 32t7.5 49.5t1.5 64v165zM374 535h-53l16 188h76z" />
    <glyph glyph-name="Dcroat" unicode="&#x110;" horiz-adv-x="380" 
d="M46 723h131q61 0 95.5 -22t51 -65t20 -106.5t3.5 -145.5v-34q0 -84 -3 -149.5t-18.5 -110t-48.5 -67.5t-92 -23h-139v348h-36v64h36v311zM122 348v-283h61q28 0 45 11.5t26 43t11.5 87t2.5 143.5v35q0 70 -2 121.5t-11 85t-27 49.5t-51 16h-55v-245h75v-64h-75z" />
    <glyph glyph-name="dcroat" unicode="&#x111;" horiz-adv-x="325" 
d="M216 0l-2 37q-23 -45 -77 -45q-34 0 -55.5 16.5t-34 49.5t-17 82.5t-4.5 115.5q0 67 5.5 116t18.5 80t34 46t52 15q32 0 47.5 -13.5t29.5 -36.5v115h-105v50h105v95h72v-95h40v-50h-40v-492v-20.5t0.5 -25t1 -24t0.5 -16.5h-71zM213 364q0 38 -12.5 66t-42.5 28
q-19 0 -30.5 -11t-18 -35t-8.5 -62.5t-2 -93.5q0 -59 1.5 -99.5t7.5 -66t17 -37t31 -11.5q19 0 30.5 11.5t17.5 32t7.5 49.5t1.5 64v165z" />
    <glyph glyph-name="Emacron" unicode="&#x112;" horiz-adv-x="305" 
d="M46 0v723h239v-64h-163v-253h152v-63h-152v-279h168v-64h-244zM56 817v44h224v-44h-224z" />
    <glyph glyph-name="emacron" unicode="&#x113;" horiz-adv-x="308" 
d="M100 229v-30q0 -36 1 -64.5t6.5 -48.5t16.5 -31t31 -11q32 0 42.5 27t11.5 77h73q-2 -30 -7.5 -58.5t-19.5 -50t-38 -35t-62 -13.5q-47 0 -73 20.5t-38.5 55t-15 79t-2.5 90.5q0 60 2.5 111t15 88t39 57.5t73.5 20.5q49 0 75.5 -20t38 -56.5t13 -89t1.5 -118.5h-184z
M210 282q0 38 -0.5 70.5t-6 56.5t-16.5 37.5t-32 13.5t-32 -13t-16.5 -37t-6 -56.5t-0.5 -71.5h110zM41 641v44h224v-44h-224z" />
    <glyph glyph-name="Ebreve" unicode="&#x114;" horiz-adv-x="305" 
d="M46 0v723h239v-64h-163v-253h152v-63h-152v-279h168v-64h-244zM281 893q-6 -57 -34.5 -87t-79.5 -30q-30 0 -50 9.5t-33 25.5t-20 37t-9 45h39q5 -33 22.5 -51.5t50.5 -18.5t51.5 18.5t23.5 51.5h39z" />
    <glyph glyph-name="ebreve" unicode="&#x115;" horiz-adv-x="308" 
d="M100 229v-30q0 -36 1 -64.5t6.5 -48.5t16.5 -31t31 -11q32 0 42.5 27t11.5 77h73q-2 -30 -7.5 -58.5t-19.5 -50t-38 -35t-62 -13.5q-47 0 -73 20.5t-38.5 55t-15 79t-2.5 90.5q0 60 2.5 111t15 88t39 57.5t73.5 20.5q49 0 75.5 -20t38 -56.5t13 -89t1.5 -118.5h-184z
M210 282q0 38 -0.5 70.5t-6 56.5t-16.5 37.5t-32 13.5t-32 -13t-16.5 -37t-6 -56.5t-0.5 -71.5h110zM266 715q-6 -57 -34.5 -87t-79.5 -30q-30 0 -50 9.5t-33 25.5t-20 37t-9 45h39q5 -33 22.5 -51.5t50.5 -18.5t51.5 18.5t23.5 51.5h39z" />
    <glyph glyph-name="Edotaccent" unicode="&#x116;" horiz-adv-x="305" 
d="M46 0v723h239v-64h-163v-253h152v-63h-152v-279h168v-64h-244zM137 809v87h61v-87h-61z" />
    <glyph glyph-name="edotaccent" unicode="&#x117;" horiz-adv-x="308" 
d="M100 229v-30q0 -36 1 -64.5t6.5 -48.5t16.5 -31t31 -11q32 0 42.5 27t11.5 77h73q-2 -30 -7.5 -58.5t-19.5 -50t-38 -35t-62 -13.5q-47 0 -73 20.5t-38.5 55t-15 79t-2.5 90.5q0 60 2.5 111t15 88t39 57.5t73.5 20.5q49 0 75.5 -20t38 -56.5t13 -89t1.5 -118.5h-184z
M210 282q0 38 -0.5 70.5t-6 56.5t-16.5 37.5t-32 13.5t-32 -13t-16.5 -37t-6 -56.5t-0.5 -71.5h110zM122 631v87h61v-87h-61z" />
    <glyph glyph-name="Eogonek" unicode="&#x118;" horiz-adv-x="305" 
d="M323 -180q-12 -6 -27 -10.5t-33 -4.5q-43 0 -62.5 19t-19.5 52q0 35 19 67.5t48 56.5h-202v723h239v-64h-163v-253h152v-63h-152v-279h168v-64q-52 -61 -52 -110q0 -23 10.5 -35.5t30.5 -12.5q9 0 18.5 4t17.5 9z" />
    <glyph glyph-name="eogonek" unicode="&#x119;" horiz-adv-x="308" 
d="M225 -180q-12 -6 -27 -10.5t-33 -4.5q-43 0 -62.5 19t-19.5 52q0 32 16 62t41 54q-42 3 -65 25t-34 56t-13 76.5t-2 86.5q0 60 2.5 111t15 88t39 57.5t73.5 20.5q49 0 75.5 -20t38 -56.5t13 -89t1.5 -118.5h-184v-30q0 -36 1 -64.5t6.5 -48.5t16.5 -31t31 -11
q32 0 42.5 27t11.5 77h73q-2 -27 -6.5 -52.5t-15 -46t-28 -35t-45.5 -20.5q-47 -57 -47 -104q0 -23 10.5 -35.5t30.5 -12.5q9 0 18.5 4t17.5 9zM210 282q0 38 -0.5 70.5t-6 56.5t-16.5 37.5t-32 13.5t-32 -13t-16.5 -37t-6 -56.5t-0.5 -71.5h110z" />
    <glyph glyph-name="Ecaron" unicode="&#x11a;" horiz-adv-x="305" 
d="M46 0v723h239v-64h-163v-253h152v-63h-152v-279h168v-64h-244zM199 773h-62l-87 142h52l66 -91l66 91h52z" />
    <glyph glyph-name="ecaron" unicode="&#x11b;" horiz-adv-x="308" 
d="M100 229v-30q0 -36 1 -64.5t6.5 -48.5t16.5 -31t31 -11q32 0 42.5 27t11.5 77h73q-2 -30 -7.5 -58.5t-19.5 -50t-38 -35t-62 -13.5q-47 0 -73 20.5t-38.5 55t-15 79t-2.5 90.5q0 60 2.5 111t15 88t39 57.5t73.5 20.5q49 0 75.5 -20t38 -56.5t13 -89t1.5 -118.5h-184z
M210 282q0 38 -0.5 70.5t-6 56.5t-16.5 37.5t-32 13.5t-32 -13t-16.5 -37t-6 -56.5t-0.5 -71.5h110zM87 737l66 -91l66 91h52l-87 -142h-62l-87 142h52z" />
    <glyph glyph-name="Gcircumflex" unicode="&#x11c;" horiz-adv-x="367" 
d="M335 9q-15 -5 -30 -8.5t-31.5 -6.5t-36.5 -4.5t-45 -1.5q-58 0 -90 26t-47 75.5t-18 120t-3 160.5q0 77 3 143.5t18 116t46.5 77.5t89.5 28q49 0 77.5 -17.5t43 -46t18.5 -64t4 -72.5h-76q0 66 -13 103t-54 37q-29 0 -45 -20t-24 -59t-9.5 -96.5t-1.5 -131.5
q0 -90 2 -151.5t11 -98.5t26.5 -53t47.5 -16q17 0 30 2t31 7v232h-72v63h148v-344zM256 774l-66 91l-66 -91h-52l87 142h62l87 -142h-52z" />
    <glyph glyph-name="gcircumflex" unicode="&#x11d;" horiz-adv-x="325" 
d="M287 504q0 -6 -0.5 -21.5t-0.5 -32.5q-1 -19 -1 -42v-400q0 -44 -2.5 -83.5t-15 -69t-39 -46.5t-74.5 -17q-69 0 -96 34.5t-27 99.5v12h71v-18q0 -38 12 -56.5t41 -18.5q36 0 45 29t9 93v73q-26 -39 -73 -39q-33 0 -54.5 16t-34 47t-17 77t-4.5 106q0 70 5 120t17.5 82.5
t34 47.5t53.5 15q50 0 79 -51l1 43h71zM213 371q0 13 -2.5 28t-8.5 28t-16.5 21.5t-26.5 8.5q-21 0 -33 -12t-17.5 -37.5t-7 -65.5t-1.5 -95q-1 -102 8.5 -149t48.5 -47q18 0 29 11t17 31.5t8 48t2 60.5v169zM223 596l-66 91l-66 -91h-52l87 142h62l87 -142h-52z" />
    <glyph glyph-name="Gbreve" unicode="&#x11e;" horiz-adv-x="367" 
d="M335 9q-15 -5 -30 -8.5t-31.5 -6.5t-36.5 -4.5t-45 -1.5q-58 0 -90 26t-47 75.5t-18 120t-3 160.5q0 77 3 143.5t18 116t46.5 77.5t89.5 28q49 0 77.5 -17.5t43 -46t18.5 -64t4 -72.5h-76q0 66 -13 103t-54 37q-29 0 -45 -20t-24 -59t-9.5 -96.5t-1.5 -131.5
q0 -90 2 -151.5t11 -98.5t26.5 -53t47.5 -16q17 0 30 2t31 7v232h-72v63h148v-344zM303 893q-6 -57 -34.5 -87t-79.5 -30q-30 0 -50 9.5t-33 25.5t-20 37t-9 45h39q5 -33 22.5 -51.5t50.5 -18.5t51.5 18.5t23.5 51.5h39z" />
    <glyph glyph-name="gbreve" unicode="&#x11f;" horiz-adv-x="325" 
d="M287 504q0 -6 -0.5 -21.5t-0.5 -32.5q-1 -19 -1 -42v-400q0 -44 -2.5 -83.5t-15 -69t-39 -46.5t-74.5 -17q-69 0 -96 34.5t-27 99.5v12h71v-18q0 -38 12 -56.5t41 -18.5q36 0 45 29t9 93v73q-26 -39 -73 -39q-33 0 -54.5 16t-34 47t-17 77t-4.5 106q0 70 5 120t17.5 82.5
t34 47.5t53.5 15q50 0 79 -51l1 43h71zM213 371q0 13 -2.5 28t-8.5 28t-16.5 21.5t-26.5 8.5q-21 0 -33 -12t-17.5 -37.5t-7 -65.5t-1.5 -95q-1 -102 8.5 -149t48.5 -47q18 0 29 11t17 31.5t8 48t2 60.5v169zM270 715q-6 -57 -34.5 -87t-79.5 -30q-30 0 -50 9.5t-33 25.5
t-20 37t-9 45h39q5 -33 22.5 -51.5t50.5 -18.5t51.5 18.5t23.5 51.5h39z" />
    <glyph glyph-name="Gdotaccent" unicode="&#x120;" horiz-adv-x="367" 
d="M335 9q-15 -5 -30 -8.5t-31.5 -6.5t-36.5 -4.5t-45 -1.5q-58 0 -90 26t-47 75.5t-18 120t-3 160.5q0 77 3 143.5t18 116t46.5 77.5t89.5 28q49 0 77.5 -17.5t43 -46t18.5 -64t4 -72.5h-76q0 66 -13 103t-54 37q-29 0 -45 -20t-24 -59t-9.5 -96.5t-1.5 -131.5
q0 -90 2 -151.5t11 -98.5t26.5 -53t47.5 -16q17 0 30 2t31 7v232h-72v63h148v-344zM159 809v87h61v-87h-61z" />
    <glyph glyph-name="gdotaccent" unicode="&#x121;" horiz-adv-x="325" 
d="M287 504q0 -6 -0.5 -21.5t-0.5 -32.5q-1 -19 -1 -42v-400q0 -44 -2.5 -83.5t-15 -69t-39 -46.5t-74.5 -17q-69 0 -96 34.5t-27 99.5v12h71v-18q0 -38 12 -56.5t41 -18.5q36 0 45 29t9 93v73q-26 -39 -73 -39q-33 0 -54.5 16t-34 47t-17 77t-4.5 106q0 70 5 120t17.5 82.5
t34 47.5t53.5 15q50 0 79 -51l1 43h71zM213 371q0 13 -2.5 28t-8.5 28t-16.5 21.5t-26.5 8.5q-21 0 -33 -12t-17.5 -37.5t-7 -65.5t-1.5 -95q-1 -102 8.5 -149t48.5 -47q18 0 29 11t17 31.5t8 48t2 60.5v169zM126 631v87h61v-87h-61z" />
    <glyph glyph-name="Gcommaaccent" unicode="&#x122;" horiz-adv-x="367" 
d="M335 9q-15 -5 -30 -8.5t-31.5 -6.5t-36.5 -4.5t-45 -1.5q-58 0 -90 26t-47 75.5t-18 120t-3 160.5q0 77 3 143.5t18 116t46.5 77.5t89.5 28q49 0 77.5 -17.5t43 -46t18.5 -64t4 -72.5h-76q0 66 -13 103t-54 37q-29 0 -45 -20t-24 -59t-9.5 -96.5t-1.5 -131.5
q0 -90 2 -151.5t11 -98.5t26.5 -53t47.5 -16q17 0 30 2t31 7v232h-72v63h148v-344zM179 -200h-51l28 150h70z" />
    <glyph glyph-name="gcommaaccent" unicode="&#x123;" horiz-adv-x="325" 
d="M287 504q0 -6 -0.5 -21.5t-0.5 -32.5q-1 -19 -1 -42v-400q0 -44 -2.5 -83.5t-15 -69t-39 -46.5t-74.5 -17q-69 0 -96 34.5t-27 99.5v12h71v-18q0 -38 12 -56.5t41 -18.5q36 0 45 29t9 93v73q-26 -39 -73 -39q-33 0 -54.5 16t-34 47t-17 77t-4.5 106q0 70 5 120t17.5 82.5
t34 47.5t53.5 15q50 0 79 -51l1 43h71zM213 371q0 13 -2.5 28t-8.5 28t-16.5 21.5t-26.5 8.5q-21 0 -33 -12t-17.5 -37.5t-7 -65.5t-1.5 -95q-1 -102 8.5 -149t48.5 -47q18 0 29 11t17 31.5t8 48t2 60.5v169zM167 738h49l-30 -143h-64z" />
    <glyph glyph-name="Hcircumflex" unicode="&#x124;" horiz-adv-x="383" 
d="M261 0v341h-139v-341h-76v723h76v-317h139v317h76v-723h-76zM256 774l-66 91l-66 -91h-52l87 142h62l87 -142h-52z" />
    <glyph glyph-name="hcircumflex" unicode="&#x125;" horiz-adv-x="320" 
d="M208 0v388q0 29 -7.5 48t-36.5 19q-23 0 -37.5 -19t-14.5 -57v-379h-72v723h72v-263q11 23 32.5 37.5t50.5 14.5q25 0 41.5 -8t26.5 -22t13.5 -33.5t3.5 -42.5v-406h-72zM143 774l-66 91l-66 -91h-52l87 142h62l87 -142h-52z" />
    <glyph glyph-name="Hbar" unicode="&#x126;" horiz-adv-x="383" 
d="M122 536h139v187h76v-723h-76v341h-139v-341h-76v723h76v-187zM122 473v-67h139v67h-139z" />
    <glyph glyph-name="hbar" unicode="&#x127;" horiz-adv-x="320" 
d="M208 0v388q0 29 -7.5 48t-36.5 19q-23 0 -37.5 -19t-14.5 -57v-379h-72v578h-40v50h40v95h72v-95h104v-50h-104v-118q11 23 32.5 37.5t50.5 14.5q25 0 41.5 -8t26.5 -22t13.5 -33.5t3.5 -42.5v-406h-72z" />
    <glyph glyph-name="Itilde" unicode="&#x128;" horiz-adv-x="168" 
d="M46 0v723h76v-723h-76zM215 891q-1 -16 -6 -32.5t-14.5 -29.5t-25 -21.5t-37.5 -8.5q-16 0 -30 5.5t-26.5 12.5t-24 12.5t-21.5 5.5q-14 0 -22.5 -11t-10.5 -30h-44q2 37 22 65t61 28q17 0 31.5 -6t27 -12.5t23.5 -12.5t20 -6q30 0 33 41h44z" />
    <glyph glyph-name="itilde" unicode="&#x129;" horiz-adv-x="152" 
d="M40 0v504h72v-504h-72zM205 713q-1 -16 -6 -32.5t-14.5 -29.5t-25 -21.5t-37.5 -8.5q-16 0 -30 5.5t-26.5 12.5t-24 12.5t-21.5 5.5q-14 0 -22.5 -11t-10.5 -30h-44q2 37 22 65t61 28q17 0 31.5 -6t27 -12.5t23.5 -12.5t20 -6q30 0 33 41h44z" />
    <glyph glyph-name="Imacron" unicode="&#x12a;" horiz-adv-x="168" 
d="M46 0v723h76v-723h-76zM-28 817v44h224v-44h-224z" />
    <glyph glyph-name="imacron" unicode="&#x12b;" horiz-adv-x="152" 
d="M40 0v504h72v-504h-72zM-38 641v44h224v-44h-224z" />
    <glyph glyph-name="Ibreve" unicode="&#x12c;" horiz-adv-x="168" 
d="M46 0v723h76v-723h-76zM197 893q-6 -57 -34.5 -87t-79.5 -30q-30 0 -50 9.5t-33 25.5t-20 37t-9 45h39q5 -33 22.5 -51.5t50.5 -18.5t51.5 18.5t23.5 51.5h39z" />
    <glyph glyph-name="ibreve" unicode="&#x12d;" horiz-adv-x="152" 
d="M40 0v504h72v-504h-72zM189 715q-6 -57 -34.5 -87t-79.5 -30q-30 0 -50 9.5t-33 25.5t-20 37t-9 45h39q5 -33 22.5 -51.5t50.5 -18.5t51.5 18.5t23.5 51.5h39z" />
    <glyph glyph-name="Iogonek" unicode="&#x12e;" horiz-adv-x="168" 
d="M155 -180q-12 -6 -27 -10.5t-33 -4.5q-43 0 -62.5 19t-19.5 52q0 35 19 67.5t48 56.5h-34v723h76v-723q-26 -31 -39 -57.5t-13 -52.5q0 -23 10.5 -35.5t30.5 -12.5q9 0 18.5 4t17.5 9z" />
    <glyph glyph-name="iogonek" unicode="&#x12f;" horiz-adv-x="152" 
d="M145 -180q-12 -6 -27 -10.5t-33 -4.5q-43 0 -62.5 19t-19.5 52q0 35 19 67.5t48 56.5h-30v504h72v-504q-52 -63 -52 -110q0 -23 10.5 -35.5t30.5 -12.5q9 0 18.5 4t17.5 9zM40 633v85h72v-85h-72z" />
    <glyph glyph-name="Idotaccent" unicode="&#x130;" horiz-adv-x="168" 
d="M46 0v723h76v-723h-76zM53 809v87h61v-87h-61z" />
    <glyph glyph-name="Jcircumflex" unicode="&#x134;" horiz-adv-x="307" 
d="M263 153q0 -36 -5.5 -66.5t-20 -52t-38.5 -34t-60 -12.5q-41 0 -66 15t-38.5 40.5t-17.5 59.5t-4 72v12h74v-13q0 -35 2.5 -59t8.5 -39t16 -21.5t25 -6.5q18 0 27.5 9.5t14 24.5t5.5 33t1 36v572h76v-570zM291 774l-66 91l-66 -91h-52l87 142h62l87 -142h-52z" />
    <glyph glyph-name="jcircumflex" unicode="&#x135;" horiz-adv-x="152" 
d="M112 -105q0 -53 -19 -78t-74 -25q-18 0 -37 4v53q16 -3 25 -3q21 0 27 13t6 45v600h72v-609zM140 596l-66 91l-66 -91h-52l87 142h62l87 -142h-52z" />
    <glyph glyph-name="Kcommaaccent" unicode="&#x136;" horiz-adv-x="371" 
d="M286 0l-162 386l148 337h82l-154 -337l172 -386h-86zM46 0v723h76v-723h-76zM188 -200h-51l28 150h70z" />
    <glyph glyph-name="kcommaaccent" unicode="&#x137;" horiz-adv-x="303" 
d="M222 0l-108 280l97 224h77l-104 -223l117 -281h-79zM40 0v723h72v-723h-72zM170 -200h-51l28 150h70z" />
    <glyph glyph-name="kgreenlandic" unicode="&#x138;" horiz-adv-x="303" 
d="M222 0l-108 280l97 224h77l-104 -223l117 -281h-79zM40 0v504h72v-504h-72z" />
    <glyph glyph-name="Lacute" unicode="&#x139;" horiz-adv-x="288" 
d="M46 0v723h76v-659h158v-64h-234zM97 773h-47l73 143h77z" />
    <glyph glyph-name="lacute" unicode="&#x13a;" horiz-adv-x="152" 
d="M40 0v723h72v-723h-72zM78 773h-47l73 143h77z" />
    <glyph glyph-name="Lcommaaccent" unicode="&#x13b;" horiz-adv-x="288" 
d="M46 0v723h76v-659h158v-64h-234zM156 -200h-51l28 150h70z" />
    <glyph glyph-name="lcommaaccent" unicode="&#x13c;" horiz-adv-x="152" 
d="M40 0v723h72v-723h-72zM66 -200h-51l28 150h70z" />
    <glyph glyph-name="Lcaron" unicode="&#x13d;" horiz-adv-x="288" 
d="M46 0v723h76v-659h158v-64h-234zM226 535h-53l16 188h76z" />
    <glyph glyph-name="lcaron" unicode="&#x13e;" horiz-adv-x="152" 
d="M40 0v723h72v-723h-72zM201 535h-53l16 188h76z" />
    <glyph glyph-name="Ldot" unicode="&#x13f;" horiz-adv-x="288" 
d="M46 0v723h76v-659h158v-64h-234zM189 334v87h61v-87h-61z" />
    <glyph glyph-name="ldot" unicode="&#x140;" horiz-adv-x="210" 
d="M40 0v723h72v-723h-72zM151 336v87h61v-87h-61z" />
    <glyph glyph-name="Lslash" unicode="&#x141;" horiz-adv-x="288" 
d="M46 0v297l-40 -24v69l40 25v356h76v-306l97 61v-70l-97 -61v-283h158v-64h-234z" />
    <glyph glyph-name="lslash" unicode="&#x142;" horiz-adv-x="152" 
d="M112 370v-370h-72v325l-38 -26v61l38 27v336h72v-291l38 26v-62z" />
    <glyph glyph-name="Nacute" unicode="&#x143;" horiz-adv-x="421" 
d="M254 0l-136 674v-674h-72v723h124l136 -675v675h69v-723h-121zM210 773h-47l73 143h77z" />
    <glyph glyph-name="nacute" unicode="&#x144;" horiz-adv-x="320" 
d="M208 0v388q0 29 -7.5 48t-36.5 19q-23 0 -37.5 -19t-14.5 -57v-379h-72v406q0 20 -0.5 42.5t-2.5 55.5h70l2 -47q11 23 32.5 39t53.5 16q25 0 41.5 -8.5t26.5 -23t13.5 -33.5t3.5 -41v-406h-72zM160 595h-47l73 143h77z" />
    <glyph glyph-name="Ncommaaccent" unicode="&#x145;" horiz-adv-x="421" 
d="M254 0l-136 674v-674h-72v723h124l136 -675v675h69v-723h-121zM198 -200h-51l28 150h70z" />
    <glyph glyph-name="ncommaaccent" unicode="&#x146;" horiz-adv-x="320" 
d="M208 0v388q0 29 -7.5 48t-36.5 19q-23 0 -37.5 -19t-14.5 -57v-379h-72v406q0 20 -0.5 42.5t-2.5 55.5h70l2 -47q11 23 32.5 39t53.5 16q25 0 41.5 -8.5t26.5 -23t13.5 -33.5t3.5 -41v-406h-72zM148 -200h-51l28 150h70z" />
    <glyph glyph-name="Ncaron" unicode="&#x147;" horiz-adv-x="421" 
d="M254 0l-136 674v-674h-72v723h124l136 -675v675h69v-723h-121zM240 773h-62l-87 142h52l66 -91l66 91h52z" />
    <glyph glyph-name="ncaron" unicode="&#x148;" horiz-adv-x="320" 
d="M208 0v388q0 29 -7.5 48t-36.5 19q-23 0 -37.5 -19t-14.5 -57v-379h-72v406q0 20 -0.5 42.5t-2.5 55.5h70l2 -47q11 23 32.5 39t53.5 16q25 0 41.5 -8.5t26.5 -23t13.5 -33.5t3.5 -41v-406h-72zM93 737l66 -91l66 91h52l-87 -142h-62l-87 142h52z" />
    <glyph glyph-name="Eng" unicode="&#x14a;" horiz-adv-x="418" 
d="M372 -91q0 -65 -22 -91t-78 -26q-7 0 -20 1.5t-20 3.5v56q5 -2 13.5 -3t13.5 -1q22 0 32.5 12.5t10.5 48.5v73l-185 646v-629h-71v723h107l149 -536v536h70v-814z" />
    <glyph glyph-name="eng" unicode="&#x14b;" horiz-adv-x="319" 
d="M280 -105q0 -53 -19 -78t-74 -25q-18 0 -37 4v53q16 -3 25 -3q21 0 27 13t6 45v484q0 29 -7.5 48t-36.5 19q-23 0 -37.5 -19t-14.5 -57v-379h-72v406q0 20 -0.5 42.5t-2.5 55.5h70l2 -47q11 23 32.5 39t53.5 16q25 0 41.5 -8.5t26.5 -23t13.5 -33.5t3.5 -41v-511z" />
    <glyph glyph-name="Omacron" unicode="&#x14c;" horiz-adv-x="386" 
d="M352 367q0 -92 -2.5 -162.5t-17.5 -118.5t-47 -73t-92 -25t-92 25t-47 73t-17.5 118.5t-2.5 162.5q0 78 2.5 145t17.5 116.5t47.5 78t92.5 28.5t92.5 -25.5t47 -73.5t16.5 -116t2 -153zM273 367q0 75 -1.5 132.5t-9 96.5t-23.5 59t-46 20t-46.5 -21.5t-24 -62t-8.5 -97.5
t-1 -127q0 -84 1.5 -144t9 -99t23.5 -57.5t46 -18.5t46 20.5t23.5 60.5t9 99.5t1.5 138.5zM81 817v44h224v-44h-224z" />
    <glyph glyph-name="omacron" unicode="&#x14d;" horiz-adv-x="310" 
d="M284 241q0 -47 -2 -92t-14.5 -80t-38.5 -56.5t-74 -21.5q-47 0 -73 20t-38.5 54.5t-15 80t-2.5 95.5q0 59 2 109t14.5 86t38.5 56.5t74 20.5t74 -19t38.5 -54.5t14.5 -86t2 -112.5zM211 241q0 59 -0.5 100.5t-6 68t-16.5 38.5t-32 12q-20 0 -31 -12.5t-16.5 -38.5t-7 -68
t-1.5 -100q0 -51 1 -88t6.5 -61.5t16.5 -36t31 -11.5q21 0 32.5 11.5t16.5 36t6 61.5t1 88zM43 641v44h224v-44h-224z" />
    <glyph glyph-name="Obreve" unicode="&#x14e;" horiz-adv-x="386" 
d="M352 367q0 -92 -2.5 -162.5t-17.5 -118.5t-47 -73t-92 -25t-92 25t-47 73t-17.5 118.5t-2.5 162.5q0 78 2.5 145t17.5 116.5t47.5 78t92.5 28.5t92.5 -25.5t47 -73.5t16.5 -116t2 -153zM273 367q0 75 -1.5 132.5t-9 96.5t-23.5 59t-46 20t-46.5 -21.5t-24 -62t-8.5 -97.5
t-1 -127q0 -84 1.5 -144t9 -99t23.5 -57.5t46 -18.5t46 20.5t23.5 60.5t9 99.5t1.5 138.5zM306 893q-6 -57 -34.5 -87t-79.5 -30q-30 0 -50 9.5t-33 25.5t-20 37t-9 45h39q5 -33 22.5 -51.5t50.5 -18.5t51.5 18.5t23.5 51.5h39z" />
    <glyph glyph-name="obreve" unicode="&#x14f;" horiz-adv-x="310" 
d="M284 241q0 -47 -2 -92t-14.5 -80t-38.5 -56.5t-74 -21.5q-47 0 -73 20t-38.5 54.5t-15 80t-2.5 95.5q0 59 2 109t14.5 86t38.5 56.5t74 20.5t74 -19t38.5 -54.5t14.5 -86t2 -112.5zM211 241q0 59 -0.5 100.5t-6 68t-16.5 38.5t-32 12q-20 0 -31 -12.5t-16.5 -38.5t-7 -68
t-1.5 -100q0 -51 1 -88t6.5 -61.5t16.5 -36t31 -11.5q21 0 32.5 11.5t16.5 36t6 61.5t1 88zM268 715q-6 -57 -34.5 -87t-79.5 -30q-30 0 -50 9.5t-33 25.5t-20 37t-9 45h39q5 -33 22.5 -51.5t50.5 -18.5t51.5 18.5t23.5 51.5h39z" />
    <glyph glyph-name="Ohungarumlaut" unicode="&#x150;" horiz-adv-x="386" 
d="M352 367q0 -92 -2.5 -162.5t-17.5 -118.5t-47 -73t-92 -25t-92 25t-47 73t-17.5 118.5t-2.5 162.5q0 78 2.5 145t17.5 116.5t47.5 78t92.5 28.5t92.5 -25.5t47 -73.5t16.5 -116t2 -153zM273 367q0 75 -1.5 132.5t-9 96.5t-23.5 59t-46 20t-46.5 -21.5t-24 -62t-8.5 -97.5
t-1 -127q0 -84 1.5 -144t9 -99t23.5 -57.5t46 -18.5t46 20.5t23.5 60.5t9 99.5t1.5 138.5zM281 773h-47l74 143h77zM144 773h-47l74 143h77z" />
    <glyph glyph-name="ohungarumlaut" unicode="&#x151;" horiz-adv-x="310" 
d="M284 241q0 -47 -2 -92t-14.5 -80t-38.5 -56.5t-74 -21.5q-47 0 -73 20t-38.5 54.5t-15 80t-2.5 95.5q0 59 2 109t14.5 86t38.5 56.5t74 20.5t74 -19t38.5 -54.5t14.5 -86t2 -112.5zM211 241q0 59 -0.5 100.5t-6 68t-16.5 38.5t-32 12q-20 0 -31 -12.5t-16.5 -38.5t-7 -68
t-1.5 -100q0 -51 1 -88t6.5 -61.5t16.5 -36t31 -11.5q21 0 32.5 11.5t16.5 36t6 61.5t1 88zM233 595h-47l74 143h77zM96 595h-47l74 143h77z" />
    <glyph glyph-name="Racute" unicode="&#x154;" horiz-adv-x="374" 
d="M270 0q-8 20 -10 51.5t-2 56.5l-1 126q-1 58 -18.5 78.5t-59.5 20.5h-57v-333h-76v723h149q78 0 111 -44.5t33 -141.5q0 -45 -6.5 -75t-18.5 -49t-30 -30t-42 -17q21 -4 37.5 -10.5t28.5 -20t18.5 -35.5t6.5 -57v-74q0 -26 1 -54q0 -11 0.5 -25t2 -30t4 -31.5t5.5 -28.5
h-76zM262 537q0 63 -16 93.5t-63 30.5h-61v-265h59q47 0 64 36t17 105zM186 773h-47l73 143h77z" />
    <glyph glyph-name="racute" unicode="&#x155;" horiz-adv-x="201" 
d="M202 439q-8 2 -13.5 2.5t-10.5 0.5q-20 0 -32.5 -10t-20 -25t-10.5 -33t-3 -34v-340h-72v406q0 13 -1 42t-2 56h69l2 -49q11 27 30 41.5t37 14.5q9 0 14 -0.5t13 -2.5v-69zM122 595h-47l73 143h77z" />
    <glyph glyph-name="Rcommaaccent" unicode="&#x156;" horiz-adv-x="374" 
d="M270 0q-8 20 -10 51.5t-2 56.5l-1 126q-1 58 -18.5 78.5t-59.5 20.5h-57v-333h-76v723h149q78 0 111 -44.5t33 -141.5q0 -45 -6.5 -75t-18.5 -49t-30 -30t-42 -17q21 -4 37.5 -10.5t28.5 -20t18.5 -35.5t6.5 -57v-74q0 -26 1 -54q0 -11 0.5 -25t2 -30t4 -31.5t5.5 -28.5
h-76zM262 537q0 63 -16 93.5t-63 30.5h-61v-265h59q47 0 64 36t17 105zM182 -200h-51l28 150h70z" />
    <glyph glyph-name="rcommaaccent" unicode="&#x157;" horiz-adv-x="201" 
d="M202 439q-8 2 -13.5 2.5t-10.5 0.5q-20 0 -32.5 -10t-20 -25t-10.5 -33t-3 -34v-340h-72v406q0 13 -1 42t-2 56h69l2 -49q11 27 30 41.5t37 14.5q9 0 14 -0.5t13 -2.5v-69zM65 -200h-51l28 150h70z" />
    <glyph glyph-name="Rcaron" unicode="&#x158;" horiz-adv-x="374" 
d="M270 0q-8 20 -10 51.5t-2 56.5l-1 126q-1 58 -18.5 78.5t-59.5 20.5h-57v-333h-76v723h149q78 0 111 -44.5t33 -141.5q0 -45 -6.5 -75t-18.5 -49t-30 -30t-42 -17q21 -4 37.5 -10.5t28.5 -20t18.5 -35.5t6.5 -57v-74q0 -26 1 -54q0 -11 0.5 -25t2 -30t4 -31.5t5.5 -28.5
h-76zM262 537q0 63 -16 93.5t-63 30.5h-61v-265h59q47 0 64 36t17 105zM212 773h-62l-87 142h52l66 -91l66 91h52z" />
    <glyph glyph-name="rcaron" unicode="&#x159;" horiz-adv-x="201" 
d="M202 439q-8 2 -13.5 2.5t-10.5 0.5q-20 0 -32.5 -10t-20 -25t-10.5 -33t-3 -34v-340h-72v406q0 13 -1 42t-2 56h69l2 -49q11 27 30 41.5t37 14.5q9 0 14 -0.5t13 -2.5v-69zM55 737l66 -91l66 91h52l-87 -142h-62l-87 142h52z" />
    <glyph glyph-name="Sacute" unicode="&#x15a;" horiz-adv-x="345" 
d="M317 153q0 -36 -7 -66.5t-24 -52t-45 -34t-70 -12.5q-47 0 -76.5 15t-45.5 40.5t-21.5 60.5t-5.5 76v19h77v-14q0 -28 2 -53t9 -43.5t21 -29.5t39 -11q41 0 55.5 29t14.5 76q0 32 -11 62t-37 64l-116 152q-12 15 -21 34.5t-15 39.5t-9 39t-3 33q0 70 35.5 114t110.5 44
q45 0 72.5 -15t43 -40.5t21 -59.5t5.5 -71v-12h-76v8q0 61 -13 95.5t-55 34.5q-68 0 -68 -98q0 -30 10.5 -55t38.5 -62l109 -144q29 -38 42 -76.5t13 -86.5zM176 773h-47l73 143h77z" />
    <glyph glyph-name="sacute" unicode="&#x15b;" horiz-adv-x="300" 
d="M278 122q0 -63 -32.5 -97t-93.5 -34q-41 0 -66 11.5t-39.5 32t-19.5 48t-5 59.5v15h73v-15q0 -51 11.5 -75t44.5 -24q53 0 53 79q0 32 -14.5 50t-36.5 36l-56 46q-33 27 -52.5 58t-19.5 76q0 57 32.5 91t94.5 34q68 0 95 -36.5t27 -108.5v-11h-72v12q0 20 -1 36.5
t-6 28.5t-15 19t-28 7q-30 0 -42 -19.5t-12 -50.5q0 -29 14 -47t41 -41l53 -44q22 -18 36 -33t22 -30t11 -32.5t3 -40.5zM151 595h-47l73 143h77z" />
    <glyph glyph-name="Scircumflex" unicode="&#x15c;" horiz-adv-x="345" 
d="M317 153q0 -36 -7 -66.5t-24 -52t-45 -34t-70 -12.5q-47 0 -76.5 15t-45.5 40.5t-21.5 60.5t-5.5 76v19h77v-14q0 -28 2 -53t9 -43.5t21 -29.5t39 -11q41 0 55.5 29t14.5 76q0 32 -11 62t-37 64l-116 152q-12 15 -21 34.5t-15 39.5t-9 39t-3 33q0 70 35.5 114t110.5 44
q45 0 72.5 -15t43 -40.5t21 -59.5t5.5 -71v-12h-76v8q0 61 -13 95.5t-55 34.5q-68 0 -68 -98q0 -30 10.5 -55t38.5 -62l109 -144q29 -38 42 -76.5t13 -86.5zM241 774l-66 91l-66 -91h-52l87 142h62l87 -142h-52z" />
    <glyph glyph-name="scircumflex" unicode="&#x15d;" horiz-adv-x="300" 
d="M278 122q0 -63 -32.5 -97t-93.5 -34q-41 0 -66 11.5t-39.5 32t-19.5 48t-5 59.5v15h73v-15q0 -51 11.5 -75t44.5 -24q53 0 53 79q0 32 -14.5 50t-36.5 36l-56 46q-33 27 -52.5 58t-19.5 76q0 57 32.5 91t94.5 34q68 0 95 -36.5t27 -108.5v-11h-72v12q0 20 -1 36.5
t-6 28.5t-15 19t-28 7q-30 0 -42 -19.5t-12 -50.5q0 -29 14 -47t41 -41l53 -44q22 -18 36 -33t22 -30t11 -32.5t3 -40.5zM216 596l-66 91l-66 -91h-52l87 142h62l87 -142h-52z" />
    <glyph glyph-name="Scedilla" unicode="&#x15e;" horiz-adv-x="345" 
d="M317 153q0 -36 -7 -66t-23 -51.5t-43.5 -34t-67.5 -13.5l-15 -38q10 3 26 3q27 0 46 -16.5t19 -47.5q0 -35 -27 -55.5t-67 -20.5q-23 0 -39 5t-27 12l8 27q11 -5 22 -9.5t28 -4.5q24 0 36.5 11t12.5 30q0 20 -12 29t-28 9q-13 0 -20 -2t-16 -7l-6 9l28 68q-39 4 -63 20
t-37.5 41.5t-18 58t-4.5 70.5v19h77v-14q0 -28 2 -53t9 -43.5t21 -29.5t39 -11q41 0 55.5 29t14.5 76q0 32 -11 62t-37 64l-116 152q-12 15 -21 34.5t-15 39.5t-9 39t-3 33q0 70 35.5 114t110.5 44q45 0 72.5 -15t43 -40.5t21 -59.5t5.5 -71v-12h-76v8q0 61 -13 95.5
t-55 34.5q-68 0 -68 -98q0 -30 10.5 -55t38.5 -62l109 -144q29 -38 42 -76.5t13 -86.5z" />
    <glyph glyph-name="scedilla" unicode="&#x15f;" horiz-adv-x="300" 
d="M227 -111q0 -35 -27 -55.5t-67 -20.5q-23 0 -39 5t-27 12l8 27q11 -5 22 -9.5t28 -4.5q24 0 36.5 11t12.5 30q0 20 -12 29t-28 9q-13 0 -20 -2t-16 -7l-6 9l29 71q-31 4 -50 17t-30 32.5t-15 45t-4 54.5v15h73v-15q0 -51 11.5 -75t44.5 -24q53 0 53 79q0 32 -14.5 50
t-36.5 36l-56 46q-33 27 -52.5 58t-19.5 76q0 57 32.5 91t94.5 34q68 0 95 -36.5t27 -108.5v-11h-72v12q0 20 -1 36.5t-6 28.5t-15 19t-28 7q-30 0 -42 -19.5t-12 -50.5q0 -29 14 -47t41 -41l53 -44q22 -18 36 -33t22 -30t11 -32.5t3 -40.5q0 -63 -32.5 -96.5t-92.5 -34.5
l-17 -41q10 3 26 3q27 0 46 -16.5t19 -47.5z" />
    <glyph glyph-name="uni0162" unicode="&#x162;" horiz-adv-x="304" 
d="M190 659v-659h-76v659h-109v64h293v-64h-108zM142 -200h-51l28 150h70z" />
    <glyph glyph-name="uni0163" unicode="&#x163;" horiz-adv-x="201" 
d="M197 -4q-14 -4 -24 -5t-24 -1q-29 0 -46 7t-27 20.5t-13 34.5t-3 49v353h-54v50h54v85l71 25v-110h60v-50h-60v-350q0 -34 6.5 -46t31.5 -12q12 0 28 4v-54zM98 -200h-51l28 150h70z" />
    <glyph glyph-name="Tcaron" unicode="&#x164;" horiz-adv-x="304" 
d="M190 659v-659h-76v659h-109v64h293v-64h-108zM184 773h-62l-87 142h52l66 -91l66 91h52z" />
    <glyph glyph-name="tcaron" unicode="&#x165;" horiz-adv-x="201" 
d="M197 -4q-14 -4 -24 -5t-24 -1q-29 0 -46 7t-27 20.5t-13 34.5t-3 49v353h-54v50h54v85l71 25v-110h60v-50h-60v-350q0 -34 6.5 -46t31.5 -12q12 0 28 4v-54zM243 535h-53l16 188h76z" />
    <glyph glyph-name="Tbar" unicode="&#x166;" horiz-adv-x="304" 
d="M24 343v63h90v253h-109v64h293v-64h-108v-253h90v-63h-90v-343h-76v343h-90z" />
    <glyph glyph-name="tbar" unicode="&#x167;" horiz-adv-x="201" 
d="M197 -4q-14 -4 -24 -5t-24 -1q-29 0 -46 7t-27 20.5t-13 34.5t-3 49v223h-54v50h54v80h-54v50h54v85l71 25v-110h60v-50h-60v-80h60v-50h-60v-220q0 -34 6.5 -46t31.5 -12q12 0 28 4v-54z" />
    <glyph glyph-name="Utilde" unicode="&#x168;" 
d="M332 162q0 -38 -6.5 -69.5t-23 -55t-44 -36.5t-69.5 -13t-70 12.5t-44.5 35.5t-23.5 55t-7 71v561h76v-561q0 -24 2.5 -45t9.5 -36t20.5 -24t35.5 -9t35.5 9t20.5 24t9.5 36t2.5 45v561h76v-561zM318 891q-1 -16 -6 -32.5t-14.5 -29.5t-25 -21.5t-37.5 -8.5
q-16 0 -30 5.5t-26.5 12.5t-24 12.5t-21.5 5.5q-14 0 -22.5 -11t-10.5 -30h-44q2 37 22 65t61 28q17 0 31.5 -6t27 -12.5t23.5 -12.5t20 -6q30 0 33 41h44z" />
    <glyph glyph-name="utilde" unicode="&#x169;" horiz-adv-x="319" 
d="M213 0l-2 47q-11 -23 -32 -39t-53 -16q-26 0 -42.5 8.5t-26 23t-13.5 33.5t-4 41v406h72v-388q0 -29 8 -48t37 -19q23 0 37 19t14 57v379h72v-406q0 -20 0.5 -42.5t2.5 -55.5h-70zM289 713q-1 -16 -6 -32.5t-14.5 -29.5t-25 -21.5t-37.5 -8.5q-16 0 -30 5.5t-26.5 12.5
t-24 12.5t-21.5 5.5q-14 0 -22.5 -11t-10.5 -30h-44q2 37 22 65t61 28q17 0 31.5 -6t27 -12.5t23.5 -12.5t20 -6q30 0 33 41h44z" />
    <glyph glyph-name="Umacron" unicode="&#x16a;" 
d="M332 162q0 -38 -6.5 -69.5t-23 -55t-44 -36.5t-69.5 -13t-70 12.5t-44.5 35.5t-23.5 55t-7 71v561h76v-561q0 -24 2.5 -45t9.5 -36t20.5 -24t35.5 -9t35.5 9t20.5 24t9.5 36t2.5 45v561h76v-561zM75 817v44h224v-44h-224z" />
    <glyph glyph-name="umacron" unicode="&#x16b;" horiz-adv-x="319" 
d="M213 0l-2 47q-11 -23 -32 -39t-53 -16q-26 0 -42.5 8.5t-26 23t-13.5 33.5t-4 41v406h72v-388q0 -29 8 -48t37 -19q23 0 37 19t14 57v379h72v-406q0 -20 0.5 -42.5t2.5 -55.5h-70zM46 641v44h224v-44h-224z" />
    <glyph glyph-name="Ubreve" unicode="&#x16c;" 
d="M332 162q0 -38 -6.5 -69.5t-23 -55t-44 -36.5t-69.5 -13t-70 12.5t-44.5 35.5t-23.5 55t-7 71v561h76v-561q0 -24 2.5 -45t9.5 -36t20.5 -24t35.5 -9t35.5 9t20.5 24t9.5 36t2.5 45v561h76v-561zM300 893q-6 -57 -34.5 -87t-79.5 -30q-30 0 -50 9.5t-33 25.5t-20 37
t-9 45h39q5 -33 22.5 -51.5t50.5 -18.5t51.5 18.5t23.5 51.5h39z" />
    <glyph glyph-name="ubreve" unicode="&#x16d;" horiz-adv-x="319" 
d="M213 0l-2 47q-11 -23 -32 -39t-53 -16q-26 0 -42.5 8.5t-26 23t-13.5 33.5t-4 41v406h72v-388q0 -29 8 -48t37 -19q23 0 37 19t14 57v379h72v-406q0 -20 0.5 -42.5t2.5 -55.5h-70zM271 715q-6 -57 -34.5 -87t-79.5 -30q-30 0 -50 9.5t-33 25.5t-20 37t-9 45h39
q5 -33 22.5 -51.5t50.5 -18.5t51.5 18.5t23.5 51.5h39z" />
    <glyph glyph-name="Uring" unicode="&#x16e;" 
d="M332 162q0 -38 -6.5 -69.5t-23 -55t-44 -36.5t-69.5 -13t-70 12.5t-44.5 35.5t-23.5 55t-7 71v561h76v-561q0 -24 2.5 -45t9.5 -36t20.5 -24t35.5 -9t35.5 9t20.5 24t9.5 36t2.5 45v561h76v-561zM271 830q0 -35 -24.5 -60t-59.5 -25t-60 25t-25 60t25 60t60 25t59.5 -25
t24.5 -60zM231 830q0 21 -12 34.5t-32 13.5t-32 -13.5t-12 -34.5q0 -20 12 -34t32 -14t32 14t12 34z" />
    <glyph glyph-name="uring" unicode="&#x16f;" horiz-adv-x="319" 
d="M213 0l-2 47q-11 -23 -32 -39t-53 -16q-26 0 -42.5 8.5t-26 23t-13.5 33.5t-4 41v406h72v-388q0 -29 8 -48t37 -19q23 0 37 19t14 57v379h72v-406q0 -20 0.5 -42.5t2.5 -55.5h-70zM242 661q0 -35 -24.5 -60t-59.5 -25t-60 25t-25 60t25 60t60 25t59.5 -25t24.5 -60z
M202 661q0 21 -12 34.5t-32 13.5t-32 -13.5t-12 -34.5q0 -20 12 -34t32 -14t32 14t12 34z" />
    <glyph glyph-name="Uhungarumlaut" unicode="&#x170;" 
d="M332 162q0 -38 -6.5 -69.5t-23 -55t-44 -36.5t-69.5 -13t-70 12.5t-44.5 35.5t-23.5 55t-7 71v561h76v-561q0 -24 2.5 -45t9.5 -36t20.5 -24t35.5 -9t35.5 9t20.5 24t9.5 36t2.5 45v561h76v-561zM275 773h-47l74 143h77zM138 773h-47l74 143h77z" />
    <glyph glyph-name="uhungarumlaut" unicode="&#x171;" horiz-adv-x="319" 
d="M213 0l-2 47q-11 -23 -32 -39t-53 -16q-26 0 -42.5 8.5t-26 23t-13.5 33.5t-4 41v406h72v-388q0 -29 8 -48t37 -19q23 0 37 19t14 57v379h72v-406q0 -20 0.5 -42.5t2.5 -55.5h-70zM236 595h-47l74 143h77zM99 595h-47l74 143h77z" />
    <glyph glyph-name="Uogonek" unicode="&#x172;" 
d="M260 -180q-12 -6 -27 -10.5t-33 -4.5q-43 0 -62.5 19t-19.5 52q0 31 15.5 60.5t38.5 52.5q-38 2 -62.5 15.5t-39 36.5t-20.5 53.5t-6 67.5v561h76v-561q0 -24 2.5 -45t9.5 -36t20.5 -24t35.5 -9t35.5 9t20.5 24t9.5 36t2.5 45v561h76v-561q0 -34 -5.5 -63.5t-19 -52
t-35 -37.5t-54.5 -19q-43 -55 -43 -100q0 -23 10.5 -35.5t30.5 -12.5q9 0 18.5 4t17.5 9z" />
    <glyph glyph-name="uogonek" unicode="&#x173;" horiz-adv-x="319" 
d="M282 0q-52 -61 -52 -110q0 -23 10.5 -35.5t30.5 -12.5q9 0 18.5 4t17.5 9l8 -35q-12 -6 -27 -10.5t-33 -4.5q-43 0 -62.5 19t-19.5 52q0 35 19 67.5t48 56.5h-28l-2 47q-11 -23 -32 -39t-53 -16q-26 0 -42.5 8.5t-26 23t-13.5 33.5t-4 41v406h72v-388q0 -29 8 -48t37 -19
q23 0 37 19t14 57v379h72v-406q0 -20 0.5 -42.5t2.5 -55.5z" />
    <glyph glyph-name="Wcircumflex" unicode="&#x174;" horiz-adv-x="593" 
d="M470 0h-96l-77 634l-83 -634h-96l-116 723h80l86 -628l79 628h106l75 -628l90 628h73zM363 774l-66 91l-66 -91h-52l87 142h62l87 -142h-52z" />
    <glyph glyph-name="wcircumflex" unicode="&#x175;" horiz-adv-x="501" 
d="M406 0h-92l-62 414l-65 -414h-92l-89 504h81l57 -418l64 418h92l62 -418l58 418h75zM319 596l-66 91l-66 -91h-52l87 142h62l87 -142h-52z" />
    <glyph glyph-name="Ycircumflex" unicode="&#x176;" horiz-adv-x="334" 
d="M205 305v-305h-76v305l-131 418h76l96 -330l95 330h71zM233 774l-66 91l-66 -91h-52l87 142h62l87 -142h-52z" />
    <glyph glyph-name="ycircumflex" unicode="&#x177;" horiz-adv-x="304" 
d="M143 -197h-68l37 180l-106 521h81l63 -411l71 411h77zM218 596l-66 91l-66 -91h-52l87 142h62l87 -142h-52z" />
    <glyph glyph-name="Zacute" unicode="&#x179;" horiz-adv-x="309" 
d="M9 0v69l210 589h-194v64h270v-64l-210 -594h215v-64h-291zM158 773h-47l73 143h77z" />
    <glyph glyph-name="zacute" unicode="&#x17a;" horiz-adv-x="240" 
d="M14 0v55l143 392h-137v57h204v-63l-138 -384h141v-57h-213zM122 595h-47l73 143h77z" />
    <glyph glyph-name="Zdotaccent" unicode="&#x17b;" horiz-adv-x="309" 
d="M9 0v69l210 589h-194v64h270v-64l-210 -594h215v-64h-291zM126 809v87h61v-87h-61z" />
    <glyph glyph-name="zdotaccent" unicode="&#x17c;" horiz-adv-x="240" 
d="M14 0v55l143 392h-137v57h204v-63l-138 -384h141v-57h-213zM90 631v87h61v-87h-61z" />
    <glyph glyph-name="Scommaaccent" unicode="&#x218;" horiz-adv-x="345" 
d="M317 153q0 -36 -7 -66.5t-24 -52t-45 -34t-70 -12.5q-47 0 -76.5 15t-45.5 40.5t-21.5 60.5t-5.5 76v19h77v-14q0 -28 2 -53t9 -43.5t21 -29.5t39 -11q41 0 55.5 29t14.5 76q0 32 -11 62t-37 64l-116 152q-12 15 -21 34.5t-15 39.5t-9 39t-3 33q0 70 35.5 114t110.5 44
q45 0 72.5 -15t43 -40.5t21 -59.5t5.5 -71v-12h-76v8q0 61 -13 95.5t-55 34.5q-68 0 -68 -98q0 -30 10.5 -55t38.5 -62l109 -144q29 -38 42 -76.5t13 -86.5zM164 -200h-51l28 150h70z" />
    <glyph glyph-name="scommaaccent" unicode="&#x219;" horiz-adv-x="300" 
d="M278 122q0 -63 -32.5 -97t-93.5 -34q-41 0 -66 11.5t-39.5 32t-19.5 48t-5 59.5v15h73v-15q0 -51 11.5 -75t44.5 -24q53 0 53 79q0 32 -14.5 50t-36.5 36l-56 46q-33 27 -52.5 58t-19.5 76q0 57 32.5 91t94.5 34q68 0 95 -36.5t27 -108.5v-11h-72v12q0 20 -1 36.5
t-6 28.5t-15 19t-28 7q-30 0 -42 -19.5t-12 -50.5q0 -29 14 -47t41 -41l53 -44q22 -18 36 -33t22 -30t11 -32.5t3 -40.5zM139 -200h-51l28 150h70z" />
    <glyph glyph-name="uni021A" unicode="&#x21a;" horiz-adv-x="304" 
d="M190 659v-659h-76v659h-109v64h293v-64h-108zM142 -200h-51l28 150h70z" />
    <glyph glyph-name="uni021B" unicode="&#x21b;" horiz-adv-x="201" 
d="M197 -4q-14 -4 -24 -5t-24 -1q-29 0 -46 7t-27 20.5t-13 34.5t-3 49v353h-54v50h54v85l71 25v-110h60v-50h-60v-350q0 -34 6.5 -46t31.5 -12q12 0 28 4v-54zM98 -200h-51l28 150h70z" />
    <glyph glyph-name="dotlessj" unicode="&#x237;" horiz-adv-x="152" 
d="M112 -105q0 -53 -19 -78t-74 -25q-18 0 -37 4v53q16 -3 25 -3q21 0 27 13t6 45v600h72v-609z" />
    <glyph glyph-name="uni02C9" unicode="&#x2c9;" horiz-adv-x="148" 
d="M-38 817v44h224v-44h-224z" />
    <glyph glyph-name="uni0394" unicode="&#x394;" horiz-adv-x="399" 
d="M6 0l156 723h75l155 -723h-386zM198 598l-107 -537h213z" />
    <glyph glyph-name="uni03A9" unicode="&#x3a9;" horiz-adv-x="386" 
d="M352 367q0 -67 -4 -116.5t-12 -86t-20.5 -61t-30.5 -42.5h74v-61h-140v63q13 16 23 36t17 53t10.5 84.5t3.5 130.5q0 70 -1.5 127t-9 97t-23.5 61.5t-46 21.5t-46 -21.5t-23.5 -61.5t-9 -97t-1.5 -127q0 -79 3.5 -130.5t10.5 -84.5t17 -53t23 -36v-63h-140v61h74
q-18 18 -30.5 42.5t-20.5 61t-12 86t-4 116.5q0 78 2.5 145t17.5 116.5t47 78t92 28.5t92 -25.5t47 -73t17.5 -116t2.5 -153.5z" />
    <glyph glyph-name="uni03BC" unicode="&#x3bc;" horiz-adv-x="425" 
d="M399 10q-29 -16 -60 -16q-48 0 -64 30t-16 75v344h-93v-443h-72v443h-58v61h359v-61h-65v-333q0 -29 9 -41.5t26 -12.5q14 0 34 11v-57z" />
    <glyph glyph-name="Wgrave" unicode="&#x1e80;" horiz-adv-x="593" 
d="M470 0h-96l-77 634l-83 -634h-96l-116 723h80l86 -628l79 628h106l75 -628l90 628h73zM298 773l-104 143h77l74 -143h-47z" />
    <glyph glyph-name="wgrave" unicode="&#x1e81;" horiz-adv-x="501" 
d="M406 0h-92l-62 414l-65 -414h-92l-89 504h81l57 -418l64 418h92l62 -418l58 418h75zM252 595l-104 143h77l74 -143h-47z" />
    <glyph glyph-name="Wacute" unicode="&#x1e82;" horiz-adv-x="593" 
d="M470 0h-96l-77 634l-83 -634h-96l-116 723h80l86 -628l79 628h106l75 -628l90 628h73zM300 773h-47l73 143h77z" />
    <glyph glyph-name="wacute" unicode="&#x1e83;" horiz-adv-x="501" 
d="M406 0h-92l-62 414l-65 -414h-92l-89 504h81l57 -418l64 418h92l62 -418l58 418h75zM255 595h-47l73 143h77z" />
    <glyph glyph-name="Wdieresis" unicode="&#x1e84;" horiz-adv-x="593" 
d="M470 0h-96l-77 634l-83 -634h-96l-116 723h80l86 -628l79 628h106l75 -628l90 628h73zM333 809v87h60v-87h-60zM200 809v87h61v-87h-61z" />
    <glyph glyph-name="wdieresis" unicode="&#x1e85;" horiz-adv-x="501" 
d="M406 0h-92l-62 414l-65 -414h-92l-89 504h81l57 -418l64 418h92l62 -418l58 418h75zM289 631v87h60v-87h-60zM156 631v87h61v-87h-61z" />
    <glyph glyph-name="Ygrave" unicode="&#x1ef2;" horiz-adv-x="334" 
d="M205 305v-305h-76v305l-131 418h76l96 -330l95 330h71zM167 773l-104 143h77l74 -143h-47z" />
    <glyph glyph-name="ygrave" unicode="&#x1ef3;" horiz-adv-x="304" 
d="M143 -197h-68l37 180l-106 521h81l63 -411l71 411h77zM154 595l-104 143h77l74 -143h-47z" />
    <glyph glyph-name="zero.superior" unicode="&#x2070;" horiz-adv-x="236" 
d="M219 681q0 -54 -3 -96t-13.5 -70t-30.5 -42.5t-54 -14.5q-35 0 -55 14.5t-30 42.5t-13 69.5t-3 96.5q0 49 3 89t13.5 68.5t30.5 44.5t54 16q35 0 55.5 -15t30.5 -43.5t12.5 -69t2.5 -90.5zM160 681q0 96 -7 137.5t-35 41.5t-35 -42t-7 -137q0 -53 1.5 -88.5t6 -56.5
t12.5 -30t22 -9q13 0 21.5 9t13 30.5t6 56.5t1.5 88z" />
    <glyph glyph-name="four.superior" unicode="&#x2074;" horiz-adv-x="236" 
d="M194 564v-102h-58v102h-125v41l106 290h77v-290h31v-41h-31zM137 821h-1l-75 -216h76v216z" />
    <glyph glyph-name="five.superior" unicode="&#x2075;" horiz-adv-x="236" 
d="M218 609q0 -36 -4 -64.5t-15 -47.5t-30.5 -29t-49.5 -10q-53 0 -73.5 29t-20.5 79v13h58v-10q0 -33 8 -52t29 -19q23 0 32 20t9 72q0 54 -8 84t-31 30q-35 0 -39 -61h-56l2 252h171v-41h-115l-2 -136q9 11 22 18t31 7q21 0 36.5 -6t25.5 -21.5t15 -41.5t5 -65z" />
    <glyph glyph-name="six.superior" unicode="&#x2076;" horiz-adv-x="236" 
d="M218 610q0 -74 -23 -113t-74 -39q-34 0 -54 13t-30.5 39t-13.5 66.5t-3 96.5q0 55 3.5 97t14.5 70.5t31 43.5t53 15q26 0 43.5 -9.5t28 -25t14.5 -35.5t4 -41h-57q0 40 -8 56t-25 16q-25 0 -33.5 -33.5t-9.5 -115.5q8 13 21.5 21t33.5 8q38 0 61 -29t23 -101zM160 606
q0 47 -7 71.5t-33 24.5q-25 0 -32.5 -27t-7.5 -69q0 -57 9 -83t31 -26q25 0 32.5 29t7.5 80z" />
    <glyph glyph-name="seven.superior" unicode="&#x2077;" horiz-adv-x="236" 
d="M116 462h-62l98 386h-122v47h181v-39z" />
    <glyph glyph-name="eight.superior" unicode="&#x2078;" horiz-adv-x="236" 
d="M217 578q0 -58 -21 -89t-78 -31t-78 31t-21 89q0 52 14 73.5t43 31.5q-28 9 -40.5 31t-12.5 70q0 57 22 86t73 29t73 -28.5t22 -86.5q0 -48 -13.5 -69t-42.5 -31q31 -9 45.5 -31.5t14.5 -74.5zM156 787q0 35 -7.5 54t-30.5 19q-22 0 -30 -19.5t-8 -53.5q0 -43 7.5 -62.5
t30.5 -19.5t30.5 20t7.5 62zM159 583q0 42 -9 62t-32 20q-41 0 -41 -82q0 -49 9 -67.5t32 -18.5t32 18.5t9 67.5z" />
    <glyph glyph-name="nine.superior" unicode="&#x2079;" horiz-adv-x="236" 
d="M216 682q0 -57 -3.5 -99t-14 -70t-30.5 -41.5t-54 -13.5q-29 0 -47 11t-28 27.5t-13 37t-3 39.5v5h58v-7q0 -74 34 -74q26 0 34 37t8 123q-6 -14 -20.5 -22t-34.5 -8q-45 0 -64.5 35t-19.5 89q0 73 22.5 110.5t73.5 37.5q31 0 51 -11t31.5 -33.5t15.5 -57t4 -80.5v-35z
M156 759q0 51 -8.5 76t-32.5 25t-31.5 -26.5t-7.5 -75.5q0 -42 7 -67.5t32 -25.5q26 0 33.5 26t7.5 68z" />
    <glyph glyph-name="zero.inferior" unicode="&#x2080;" horiz-adv-x="236" 
d="M219 48q0 -54 -3 -96t-13.5 -70t-30.5 -42.5t-54 -14.5q-35 0 -55 14.5t-30 42.5t-13 69.5t-3 96.5q0 49 3 89t13.5 68.5t30.5 44.5t54 16q35 0 55.5 -15t30.5 -43.5t12.5 -69t2.5 -90.5zM160 48q0 96 -7 137.5t-35 41.5t-35 -42t-7 -137q0 -53 1.5 -88.5t6 -56.5
t12.5 -30t22 -9q13 0 21.5 9t13 30.5t6 56.5t1.5 88z" />
    <glyph glyph-name="one.inferior" unicode="&#x2081;" horiz-adv-x="236" 
d="M94 -171v360h-1q-23 -24 -48 -41v52q13 10 29 28.5t24 33.5h55v-433h-59z" />
    <glyph glyph-name="two.inferior" unicode="&#x2082;" horiz-adv-x="236" 
d="M210 164q0 -38 -10 -70.5t-27 -63.5l-86 -154h127v-47h-190v47l88 162q19 35 28.5 64.5t9.5 68.5q0 27 -6.5 40.5t-23.5 13.5q-19 0 -25.5 -17t-6.5 -48v-10h-61v11q0 51 24.5 78t67.5 27q50 0 70.5 -27t20.5 -75z" />
    <glyph glyph-name="three.inferior" unicode="&#x2083;" horiz-adv-x="236" 
d="M211 -62q0 -23 -4 -43t-14.5 -36t-29 -25t-46.5 -9t-46 8t-28 22t-14 33t-4 41v16h61v-18q0 -31 7 -46.5t24 -15.5q9 0 15.5 4t11 14t7 27t2.5 43q0 39 -12 56.5t-47 17.5h-15v48h18q31 0 42.5 20t11.5 67q0 34 -8 49t-25 15t-26 -16.5t-9 -42.5v-13h-57v7q1 51 23.5 78
t70.5 27q27 0 44.5 -8.5t27.5 -23.5t13.5 -36t3.5 -45q0 -41 -10 -65.5t-46 -36.5q16 -6 27.5 -13.5t18 -20t9.5 -31.5t3 -48z" />
    <glyph glyph-name="four.inferior" unicode="&#x2084;" horiz-adv-x="236" 
d="M194 -69v-102h-58v102h-125v41l106 290h77v-290h31v-41h-31zM137 188h-1l-75 -216h76v216z" />
    <glyph glyph-name="five.inferior" unicode="&#x2085;" horiz-adv-x="236" 
d="M218 -24q0 -36 -4 -64.5t-15 -47.5t-30.5 -29t-49.5 -10q-53 0 -73.5 29t-20.5 79v13h58v-10q0 -33 8 -52t29 -19q23 0 32 20t9 72q0 54 -8 84t-31 30q-35 0 -39 -61h-56l2 252h171v-41h-115l-2 -136q9 11 22 18t31 7q21 0 36.5 -6t25.5 -21.5t15 -41.5t5 -65z" />
    <glyph glyph-name="six.inferior" unicode="&#x2086;" horiz-adv-x="236" 
d="M218 -23q0 -74 -23 -113t-74 -39q-34 0 -54 13t-30.5 39t-13.5 66.5t-3 96.5q0 55 3.5 97t14.5 70.5t31 43.5t53 15q26 0 43.5 -9.5t28 -25t14.5 -35.5t4 -41h-57q0 40 -8 56t-25 16q-25 0 -33.5 -33.5t-9.5 -115.5q8 13 21.5 21t33.5 8q38 0 61 -29t23 -101zM160 -27
q0 47 -7 71.5t-33 24.5q-25 0 -32.5 -27t-7.5 -69q0 -57 9 -83t31 -26q25 0 32.5 29t7.5 80z" />
    <glyph glyph-name="seven.inferior" unicode="&#x2087;" horiz-adv-x="236" 
d="M116 -171h-62l98 386h-122v47h181v-39z" />
    <glyph glyph-name="eight.inferior" unicode="&#x2088;" horiz-adv-x="236" 
d="M217 -55q0 -58 -21 -89t-78 -31t-78 31t-21 89q0 52 14 73.5t43 31.5q-28 9 -40.5 31t-12.5 70q0 57 22 86t73 29t73 -28.5t22 -86.5q0 -48 -13.5 -69t-42.5 -31q31 -9 45.5 -31.5t14.5 -74.5zM156 154q0 35 -7.5 54t-30.5 19q-22 0 -30 -19.5t-8 -53.5q0 -43 7.5 -62.5
t30.5 -19.5t30.5 20t7.5 62zM159 -50q0 42 -9 62t-32 20q-41 0 -41 -82q0 -49 9 -67.5t32 -18.5t32 18.5t9 67.5z" />
    <glyph glyph-name="nine.inferior" unicode="&#x2089;" horiz-adv-x="236" 
d="M216 49q0 -57 -3.5 -99t-14 -70t-30.5 -41.5t-54 -13.5q-29 0 -47 11t-28 27.5t-13 37t-3 39.5v5h58v-7q0 -74 34 -74q26 0 34 37t8 123q-6 -14 -20.5 -22t-34.5 -8q-45 0 -64.5 35t-19.5 89q0 73 22.5 110.5t73.5 37.5q31 0 51 -11t31.5 -33.5t15.5 -57t4 -80.5v-35z
M156 126q0 51 -8.5 76t-32.5 25t-31.5 -26.5t-7.5 -75.5q0 -42 7 -67.5t32 -25.5q26 0 33.5 26t7.5 68z" />
    <glyph glyph-name="afii61289" unicode="&#x2113;" horiz-adv-x="392" 
d="M332 602q0 -68 -34 -143.5t-104 -175.5l-10 -13v-147q0 -74 49 -74q20 0 34.5 10.5t28.5 36.5l46 -30q-24 -41 -53.5 -58.5t-65.5 -17.5q-51 0 -79 34t-28 100v57l-29 -37l-44 35l73 96v296q0 89 31 126t82 37q48 0 75.5 -34.5t27.5 -97.5zM184 369q45 70 65.5 127.5
t20.5 105.5q0 41 -11 60t-30 19q-21 0 -33 -21t-12 -78v-213z" />
    <glyph glyph-name="estimated" unicode="&#x212e;" horiz-adv-x="600" 
d="M157 259v-181q59 -59 145 -59q63 0 109 28.5t84 91.5l35 -21q-23 -36 -46.5 -61.5t-51 -42t-59.5 -24t-71 -7.5q-59 0 -106.5 21.5t-81.5 59t-52 87.5t-18 108t18 108.5t52 87.5t81.5 58.5t106.5 21.5q58 0 105.5 -20.5t81.5 -57t53 -87t19 -111.5h-404zM448 295v145
q-63 60 -147 60t-144 -60v-145h291z" />
    <glyph glyph-name="onethird" unicode="&#x2153;" horiz-adv-x="535" 
d="M499 109q0 -23 -4 -43t-14.5 -36t-29 -25t-46.5 -9t-46 8t-28 22t-14 33t-4 41v16h61v-18q0 -31 7 -46.5t24 -15.5q9 0 15.5 4t11 14t7 27t2.5 43q0 39 -12 56.5t-47 17.5h-15v48h18q31 0 42.5 20t11.5 67q0 34 -8 49t-25 15t-26 -16.5t-9 -42.5v-13h-57v7q1 51 23.5 78
t70.5 27q27 0 44.5 -8.5t27.5 -23.5t13.5 -36t3.5 -45q0 -41 -10 -65.5t-46 -36.5q16 -6 27.5 -13.5t18 -20t9.5 -31.5t3 -48zM141 -12h-48l244 747h48zM84 290v360h-1q-23 -24 -48 -41v52q13 10 29 28.5t24 33.5h55v-433h-59z" />
    <glyph glyph-name="twothirds" unicode="&#x2154;" horiz-adv-x="565" 
d="M198 -12h-48l244 747h48zM204 625q0 -38 -10 -70.5t-27 -63.5l-86 -154h127v-47h-190v47l88 162q19 35 28.5 64.5t9.5 68.5q0 27 -6.5 40.5t-23.5 13.5q-19 0 -25.5 -17t-6.5 -48v-10h-61v11q0 51 24.5 78t67.5 27q50 0 70.5 -27t20.5 -75zM547 109q0 -23 -4 -43
t-14.5 -36t-29 -25t-46.5 -9t-46 8t-28 22t-14 33t-4 41v16h61v-18q0 -31 7 -46.5t24 -15.5q9 0 15.5 4t11 14t7 27t2.5 43q0 39 -12 56.5t-47 17.5h-15v48h18q31 0 42.5 20t11.5 67q0 34 -8 49t-25 15t-26 -16.5t-9 -42.5v-13h-57v7q1 51 23.5 78t70.5 27q27 0 44.5 -8.5
t27.5 -23.5t13.5 -36t3.5 -45q0 -41 -10 -65.5t-46 -36.5q16 -6 27.5 -13.5t18 -20t9.5 -31.5t3 -48z" />
    <glyph glyph-name="oneeighth" unicode="&#x215b;" horiz-adv-x="535" 
d="M84 290v360h-1q-23 -24 -48 -41v52q13 10 29 28.5t24 33.5h55v-433h-59zM141 -12h-48l244 747h48zM502 116q0 -58 -21 -89t-78 -31t-78 31t-21 89q0 52 14 73.5t43 31.5q-28 9 -40.5 31t-12.5 70q0 57 22 86t73 29t73 -28.5t22 -86.5q0 -48 -13.5 -69t-42.5 -31
q31 -9 45.5 -31.5t14.5 -74.5zM441 325q0 35 -7.5 54t-30.5 19q-22 0 -30 -19.5t-8 -53.5q0 -43 7.5 -62.5t30.5 -19.5t30.5 20t7.5 62zM444 121q0 42 -9 62t-32 20q-41 0 -41 -82q0 -49 9 -67.5t32 -18.5t32 18.5t9 67.5z" />
    <glyph glyph-name="threeeighths" unicode="&#x215c;" horiz-adv-x="535" 
d="M165 -12h-48l244 747h48zM513 116q0 -58 -21 -89t-78 -31t-78 31t-21 89q0 52 14 73.5t43 31.5q-28 9 -40.5 31t-12.5 70q0 57 22 86t73 29t73 -28.5t22 -86.5q0 -48 -13.5 -69t-42.5 -31q31 -9 45.5 -31.5t14.5 -74.5zM452 325q0 35 -7.5 54t-30.5 19q-22 0 -30 -19.5
t-8 -53.5q0 -43 7.5 -62.5t30.5 -19.5t30.5 20t7.5 62zM455 121q0 42 -9 62t-32 20q-41 0 -41 -82q0 -49 9 -67.5t32 -18.5t32 18.5t9 67.5zM203 399q0 -23 -4 -43t-14.5 -36t-29 -25t-46.5 -9t-46 8t-28 22t-14 33t-4 41v16h61v-18q0 -31 7 -46.5t24 -15.5q9 0 15.5 4
t11 14t7 27t2.5 43q0 39 -12 56.5t-47 17.5h-15v48h18q31 0 42.5 20t11.5 67q0 34 -8 49t-25 15t-26 -16.5t-9 -42.5v-13h-57v7q1 51 23.5 78t70.5 27q27 0 44.5 -8.5t27.5 -23.5t13.5 -36t3.5 -45q0 -41 -10 -65.5t-46 -36.5q16 -6 27.5 -13.5t18 -20t9.5 -31.5t3 -48z" />
    <glyph glyph-name="fiveeighths" unicode="&#x215d;" horiz-adv-x="535" 
d="M165 -12h-48l244 747h48zM513 116q0 -58 -21 -89t-78 -31t-78 31t-21 89q0 52 14 73.5t43 31.5q-28 9 -40.5 31t-12.5 70q0 57 22 86t73 29t73 -28.5t22 -86.5q0 -48 -13.5 -69t-42.5 -31q31 -9 45.5 -31.5t14.5 -74.5zM452 325q0 35 -7.5 54t-30.5 19q-22 0 -30 -19.5
t-8 -53.5q0 -43 7.5 -62.5t30.5 -19.5t30.5 20t7.5 62zM455 121q0 42 -9 62t-32 20q-41 0 -41 -82q0 -49 9 -67.5t32 -18.5t32 18.5t9 67.5zM210 437q0 -36 -4 -64.5t-15 -47.5t-30.5 -29t-49.5 -10q-53 0 -73.5 29t-20.5 79v13h58v-10q0 -33 8 -52t29 -19q23 0 32 20t9 72
q0 54 -8 84t-31 30q-35 0 -39 -61h-56l2 252h171v-41h-115l-2 -136q9 11 22 18t31 7q21 0 36.5 -6t25.5 -21.5t15 -41.5t5 -65z" />
    <glyph glyph-name="seveneighths" unicode="&#x215e;" horiz-adv-x="535" 
d="M141 -12h-48l244 747h48zM502 116q0 -58 -21 -89t-78 -31t-78 31t-21 89q0 52 14 73.5t43 31.5q-28 9 -40.5 31t-12.5 70q0 57 22 86t73 29t73 -28.5t22 -86.5q0 -48 -13.5 -69t-42.5 -31q31 -9 45.5 -31.5t14.5 -74.5zM441 325q0 35 -7.5 54t-30.5 19q-22 0 -30 -19.5
t-8 -53.5q0 -43 7.5 -62.5t30.5 -19.5t30.5 20t7.5 62zM444 121q0 42 -9 62t-32 20q-41 0 -41 -82q0 -49 9 -67.5t32 -18.5t32 18.5t9 67.5zM125 290h-62l98 386h-122v47h181v-39z" />
    <glyph glyph-name="minus" unicode="&#x2212;" horiz-adv-x="484" 
d="M46 217v64h392v-64h-392z" />
    <glyph glyph-name="uni2215" unicode="&#x2215;" horiz-adv-x="150" 
d="M-21 -12h-48l244 747h48z" />
    <glyph glyph-name="uni2219" unicode="&#x2219;" horiz-adv-x="188" 
d="M50 264v100h88v-100h-88z" />
    <glyph glyph-name="f_i" unicode="&#xf001;" horiz-adv-x="338" 
d="M226 633v85h72v-85h-72zM226 0v504h72v-504h-72zM203 670q-8 2 -12 2.5t-8 0.5q-24 0 -37 -15.5t-13 -51.5v-102h67v-50h-67v-454h-71v454h-59v50h59v107q0 59 22 88.5t76 29.5q11 0 19.5 -1t23.5 -4v-54z" />
    <glyph glyph-name="f_l" unicode="&#xf002;" horiz-adv-x="338" 
d="M226 0v723h72v-723h-72zM203 670q-8 2 -12 2.5t-8 0.5q-24 0 -37 -15.5t-13 -51.5v-102h67v-50h-67v-454h-71v454h-59v50h59v107q0 59 22 88.5t76 29.5q11 0 19.5 -1t23.5 -4v-54z" />
    </font>
</defs>
</svg>
