<?xml version="1.0" standalone="no"?>
<!DOCTYPE svg PUBLIC "-//W3C//DTD SVG 1.1//EN" "http://www.w3.org/Graphics/SVG/1.1/DTD/svg11.dtd" >
<svg xmlns="http://www.w3.org/2000/svg" xmlns:xlink="http://www.w3.org/1999/xlink" version="1.1">
<metadata>
Created by FontForge 20201107 at Tue Feb  9 13:58:49 2010
 By Jimmy Wärting
Copyright (c) 2010 Linotype GmbH, www.linotype.com. All rights reserved. This font software may not be reproduced, modified, disclosed or transferred without the express written approval of Linotype GmbH. Univers is a trademark of Linotype Corp. registered in the U.S. Patent and Trademark Office and may be registered in certain other jurisdictions in the name of Linotype Corp. or its licensee Linotype GmbH. This typeface is original artwork of Adrian Frutiger and Linotype Design Studio. The design may be protected in certain jurisdictions.
</metadata>
<defs>
<font id="UniversNextPro-LightCondIt" horiz-adv-x="436" >
  <font-face 
    font-family="Univers Next Pro Light Cond"
    font-weight="300"
    font-style="italic"
    font-stretch="condensed"
    units-per-em="1000"
    panose-1="2 11 4 6 3 2 2 9 2 3"
    ascent="750"
    descent="-250"
    x-height="504"
    cap-height="723"
    bbox="-267 -214 891 927"
    underline-thickness="50"
    underline-position="-100"
    slope="-16"
    unicode-range="U+000D-FB04"
  />
<missing-glyph horiz-adv-x="512" 
d="M222 117v67h56v-67h-56zM223 234v17q0 27 3 46.5t10 35t18 29t28 29.5q16 16 26 28t15 22t7 19t2 20q0 36 -22.5 57.5t-53.5 21.5t-53.5 -22t-28.5 -73l-50 8q7 72 44 104.5t91 32.5q27 0 49.5 -9t39 -25t26 -39.5t9.5 -51.5q0 -17 -2.5 -32.5t-9.5 -30.5t-19.5 -30
t-31.5 -33q-16 -14 -25.5 -25t-15 -22t-7 -23.5t-1.5 -29.5v-24h-48zM462 50v617h-412v-617h412zM512 718v-718h-512v718h512z" />
    <glyph glyph-name="IJ" unicode="IJ" horiz-adv-x="650" 
d="M37 0h-60l207 723h60zM534 215q-13 -46 -29 -87.5t-40.5 -73t-61 -50t-90.5 -18.5q-27 0 -51.5 5t-43 17t-29 32t-10.5 50q0 29 6.5 57t14.5 55h61q-8 -24 -15 -48t-7 -48q0 -38 21.5 -52.5t56.5 -14.5q40 0 67 17t44 43.5t28 59t20 64.5l143 500h60z" />
    <glyph glyph-name="ij" unicode="ij" horiz-adv-x="386" 
d="M210 636h-69l22 76h69zM22 0h-57l145 504h57zM403 636h-69l22 76h69zM193 -75q-9 -31 -19.5 -55t-26 -40.5t-39 -25.5t-58.5 -9q-14 0 -29 3l15 51q8 -2 18 -2q23 0 37 6t22.5 16.5t13.5 26t11 34.5l165 574h57z" />
    <glyph glyph-name="napostrophe" unicode="&#x22;n" horiz-adv-x="454" 
d="M398 427q0 -35 -11 -71l-102 -356h-57l90 314q6 22 13 45.5t7 46.5q0 32 -16.5 45.5t-47.5 13.5q-37 0 -64.5 -15t-47.5 -39.5t-33 -54.5t-22 -60l-85 -296h-57l109 379q9 31 17 62t15 63h55l-19 -69q29 36 64 58t82 22q23 0 43 -4.5t35 -15t23.5 -27.5t8.5 -41zM64 561
h-48l72 162h63z" />
    <glyph glyph-name="f_f" unicode="ff" horiz-adv-x="516" 
d="M335 676q-5 1 -10 1h-10q-25 0 -41.5 -4.5t-28 -15t-19 -28t-14.5 -43.5l-23 -82h97l-14 -47h-97l-131 -457h-57l131 457h-77l14 47h77q2 8 5.5 21.5t7.5 26.5q4 15 9 30q10 36 22 63.5t31 46t46 27.5t68 9q7 0 14 -0.5t14 -1.5zM593 676q-5 1 -10 1h-10
q-25 0 -41.5 -4.5t-28 -15t-19 -28t-14.5 -43.5l-23 -82h97l-14 -47h-97l-131 -457h-57l131 457h-77l14 47h77q2 8 5.5 21.5t7.5 26.5q4 15 9 30q10 36 22 63.5t31 46t46 27.5t68 9q7 0 14 -0.5t14 -1.5z" />
    <glyph glyph-name="fi" unicode="fi" horiz-adv-x="422" 
d="M335 676q-5 1 -10 1h-10q-25 0 -41.5 -4.5t-28 -15t-19 -28t-14.5 -43.5l-23 -82h97l-14 -47h-97l-131 -457h-57l131 457h-77l14 47h77q2 8 5.5 21.5t7.5 26.5q4 15 9 30q10 36 22 63.5t31 46t46 27.5t68 9q7 0 14 -0.5t14 -1.5zM439 636h-69l22 76h69zM251 0h-57
l145 504h57z" />
    <glyph glyph-name="fl" unicode="fl" horiz-adv-x="422" 
d="M335 676q-5 1 -10 1h-10q-25 0 -41.5 -4.5t-28 -15t-19 -28t-14.5 -43.5l-23 -82h97l-14 -47h-97l-131 -457h-57l131 457h-77l14 47h77q2 8 5.5 21.5t7.5 26.5q4 15 9 30q10 36 22 63.5t31 46t46 27.5t68 9q7 0 14 -0.5t14 -1.5zM251 0h-57l207 723h57z" />
    <glyph glyph-name="f_f_i" unicode="ffi" horiz-adv-x="680" 
d="M335 676q-5 1 -10 1h-10q-25 0 -41.5 -4.5t-28 -15t-19 -28t-14.5 -43.5l-23 -82h97l-14 -47h-97l-131 -457h-57l131 457h-77l14 47h77q2 8 5.5 21.5t7.5 26.5q4 15 9 30q10 36 22 63.5t31 46t46 27.5t68 9q7 0 14 -0.5t14 -1.5zM593 676q-5 1 -10 1h-10
q-25 0 -41.5 -4.5t-28 -15t-19 -28t-14.5 -43.5l-23 -82h97l-14 -47h-97l-131 -457h-57l131 457h-77l14 47h77q2 8 5.5 21.5t7.5 26.5q4 15 9 30q10 36 22 63.5t31 46t46 27.5t68 9q7 0 14 -0.5t14 -1.5zM697 636h-69l22 76h69zM509 0h-57l145 504h57z" />
    <glyph glyph-name="f_f_l" unicode="ffl" horiz-adv-x="680" 
d="M335 676q-5 1 -10 1h-10q-25 0 -41.5 -4.5t-28 -15t-19 -28t-14.5 -43.5l-23 -82h97l-14 -47h-97l-131 -457h-57l131 457h-77l14 47h77q2 8 5.5 21.5t7.5 26.5q4 15 9 30q10 36 22 63.5t31 46t46 27.5t68 9q7 0 14 -0.5t14 -1.5zM593 676q-5 1 -10 1h-10
q-25 0 -41.5 -4.5t-28 -15t-19 -28t-14.5 -43.5l-23 -82h97l-14 -47h-97l-131 -457h-57l131 457h-77l14 47h77q2 8 5.5 21.5t7.5 26.5q4 15 9 30q10 36 22 63.5t31 46t46 27.5t68 9q7 0 14 -0.5t14 -1.5zM509 0h-57l207 723h57z" />
    <glyph glyph-name=".notdef" horiz-adv-x="512" 
d="M222 117v67h56v-67h-56zM223 234v17q0 27 3 46.5t10 35t18 29t28 29.5q16 16 26 28t15 22t7 19t2 20q0 36 -22.5 57.5t-53.5 21.5t-53.5 -22t-28.5 -73l-50 8q7 72 44 104.5t91 32.5q27 0 49.5 -9t39 -25t26 -39.5t9.5 -51.5q0 -17 -2.5 -32.5t-9.5 -30.5t-19.5 -30
t-31.5 -33q-16 -14 -25.5 -25t-15 -22t-7 -23.5t-1.5 -29.5v-24h-48zM462 50v617h-412v-617h412zM512 718v-718h-512v718h512z" />
    <glyph glyph-name="nonmarkingreturn" unicode="&#xd;" horiz-adv-x="0" 
 />
    <glyph glyph-name="space" unicode=" " horiz-adv-x="218" 
 />
    <glyph glyph-name="exclam" unicode="!" horiz-adv-x="317" 
d="M129 170h-50l152 553h66zM90 0h-69l23 79h69z" />
    <glyph glyph-name="quotedbl" unicode="&#x22;" horiz-adv-x="322" 
d="M300 431h-39l-7 280h53zM152 431h-40l-7 280h54z" />
    <glyph glyph-name="numbersign" unicode="#" 
d="M452 449h-92l-48 -175h83l-4 -48h-91l-60 -226h-54l60 226h-127l-60 -226h-54l61 226h-86l4 48h95l46 175h-84l4 48h93l59 226h53l-58 -226h126l59 226h54l-59 -226h84zM179 449l-47 -175h126l47 175h-126z" />
    <glyph glyph-name="dollar" unicode="$" 
d="M337 714q60 -5 87.5 -34.5t27.5 -71.5q0 -17 -5 -37.5t-11 -41.5h-58q5 15 9 32.5t4 34.5q0 29 -16.5 48.5t-51.5 21.5l-79 -277q31 -22 52 -40.5t33.5 -36.5t17.5 -37.5t5 -43.5q0 -45 -15 -85.5t-43 -71.5t-68 -49t-91 -18l-26 -91h-37l26 93q-53 7 -83.5 34t-30.5 75
q0 18 5 42t12 46h57q-6 -20 -10.5 -39t-4.5 -36q0 -65 70 -72l83 289q-50 36 -76.5 68.5t-26.5 81.5q0 45 17 84t45.5 68t66 46.5t79.5 19.5l25 85h36zM287 224q0 27 -12 51t-49 51l-76 -268q31 3 56.5 16t43.5 35t27.5 51t9.5 64zM157 509q0 -34 13.5 -55.5t43.5 -43.5
l73 255q-30 -5 -54 -18.5t-41 -34.5t-26 -47.5t-9 -55.5z" />
    <glyph glyph-name="percent" unicode="%" horiz-adv-x="672" 
d="M42 -33h-53l647 789h53zM166 367q-43 0 -66.5 21t-23.5 64q0 23 4.5 44.5t10.5 43.5q12 42 26 77.5t34 61.5t47.5 41t65.5 15q43 0 66.5 -21t23.5 -64q0 -23 -4.5 -44.5t-10.5 -43.5q-12 -42 -26 -77.5t-34 -61.5t-47.5 -41t-65.5 -15zM175 415q24 0 41 12t29.5 32.5
t21 46.5t16.5 54q8 26 12 45t4 34q0 22 -10.5 35t-33.5 13q-24 0 -41 -12t-29.5 -32.5t-21 -46.5t-16.5 -54q-8 -26 -12 -45t-4 -34q0 -22 10.5 -35t33.5 -13zM413 -12q-43 0 -66.5 21t-23.5 64q0 23 4.5 44.5t10.5 43.5q12 42 26 77.5t34 61.5t47.5 41t65.5 15
q43 0 66.5 -21t23.5 -64q0 -23 -4.5 -44.5t-10.5 -43.5q-12 -42 -26 -77.5t-34 -61.5t-47.5 -41t-65.5 -15zM422 36q24 0 41 12t29.5 32.5t21 46.5t16.5 54q8 26 12 45t4 34q0 22 -10.5 35t-33.5 13q-24 0 -41 -12t-29.5 -32.5t-21 -46.5t-16.5 -54q-8 -26 -12 -45t-4 -34
q0 -22 10.5 -35t33.5 -13z" />
    <glyph glyph-name="ampersand" unicode="&#x26;" horiz-adv-x="526" 
d="M501 352h-94l-101 -352h-132q-31 0 -61.5 4.5t-54.5 17.5t-38.5 35.5t-14.5 57.5q0 27 6 57t17.5 58.5t27.5 54.5t37 46q33 32 96 50q-28 14 -42 40.5t-14 58.5q0 55 21.5 109.5t63.5 93.5q27 26 63.5 39t84.5 13q17 0 35.5 -2.5t35.5 -7.5l-14 -50q-16 5 -31.5 7.5
t-31.5 2.5q-30 0 -55.5 -9t-48.5 -32q-30 -30 -45.5 -71t-15.5 -89q0 -24 8.5 -40t23 -25t33.5 -13t40 -4h63l49 174h59l-49 -174h94zM268 352q-87 0 -133 -48q-14 -14 -26 -35.5t-21 -45.5t-14.5 -48.5t-5.5 -44.5q0 -46 30 -63t88 -17h75l87 302h-80z" />
    <glyph glyph-name="quotesingle" unicode="'" horiz-adv-x="174" 
d="M157 431h-40l-7 280h54z" />
    <glyph glyph-name="parenleft" unicode="(" horiz-adv-x="229" 
d="M297 723q-58 -107 -104 -211t-78 -211t-50 -219t-19 -235h-46q0 17 -0.5 34t-0.5 34q0 125 16 227.5t48.5 196.5t80 186.5t110.5 197.5h43v0z" />
    <glyph glyph-name="parenright" unicode=")" horiz-adv-x="229" 
d="M191 649q0 -124 -16.5 -225.5t-49 -195t-80 -185.5t-109.5 -196h-43q58 107 104 211t78.5 210.5t50 219t18.5 235.5h46q1 -19 1 -37v-37z" />
    <glyph glyph-name="asterisk" unicode="*" horiz-adv-x="400" 
d="M275 569l76 -114l-44 -29l-55 129l-56 -129l-44 29l76 114l-132 -14v55l129 -12l-73 112l44 27l56 -127l55 127l44 -27l-76 -112l130 12v-55z" />
    <glyph glyph-name="plus" unicode="+" horiz-adv-x="529" 
d="M269 226v-194h-54v194h-190v49h190v194h54v-194h189v-49h-189z" />
    <glyph glyph-name="comma" unicode="," horiz-adv-x="218" 
d="M-37 -104h-48l90 183h69z" />
    <glyph glyph-name="hyphen" unicode="-" horiz-adv-x="268" 
d="M196 239h-192l16 57h192z" />
    <glyph glyph-name="period" unicode="." horiz-adv-x="218" 
d="M35 0h-71l23 79h71z" />
    <glyph glyph-name="slash" unicode="/" horiz-adv-x="317" 
d="M-43 -14h-51l456 751h50z" />
    <glyph glyph-name="zero" unicode="0" 
d="M448 627q0 -22 -4 -49.5t-11 -58t-16 -62t-18 -60.5l-48 -152q-21 -68 -42 -116.5t-47.5 -79.5t-62.5 -46t-88 -15q-55 0 -87.5 25t-32.5 87q0 19 2 39t7 45.5t13.5 58t21.5 76.5l27 94q22 76 43.5 136t51 101.5t69.5 63t99 21.5q60 0 91.5 -31t31.5 -77zM387 613
q0 33 -17 52.5t-59 19.5q-31 0 -55.5 -11.5t-46 -39t-40.5 -74.5t-39 -117l-46 -163q-15 -54 -24.5 -98t-9.5 -66q0 -39 17.5 -58.5t57.5 -19.5q27 0 50 10.5t43.5 36.5t39.5 70t40 110l55 176q16 50 25 93.5t9 78.5z" />
    <glyph glyph-name="one" unicode="1" 
d="M165 0h-59l184 644q-34 -28 -70 -52t-74 -46l20 68q40 23 79 50t72 59h55z" />
    <glyph glyph-name="two" unicode="2" 
d="M449 623q0 -28 -5.5 -53t-19.5 -51.5t-38 -57.5t-61 -72l-308 -339h273l-14 -50h-336l16 56l342 380q28 32 45.5 57t27 46t12.5 39t3 37q0 32 -21 51t-58 19q-32 0 -56 -10t-42 -28t-30 -42t-20 -52h-60q12 42 30 75.5t43.5 57.5t60.5 36.5t81 12.5q27 0 51.5 -6.5
t43 -20t29.5 -35t11 -50.5z" />
    <glyph glyph-name="three" unicode="3" 
d="M441 619q0 -26 -3.5 -48.5t-8.5 -42.5q-10 -39 -27.5 -66.5t-38.5 -46t-44 -29t-44 -15.5q40 -9 56 -35.5t16 -58.5q0 -37 -8.5 -69.5t-15.5 -52.5q-11 -33 -28.5 -63t-44 -53t-62.5 -37t-84 -14q-27 0 -50.5 5.5t-41.5 18t-28.5 33.5t-10.5 51q0 20 3.5 38t8.5 37h60
q-5 -15 -8 -30.5t-3 -31.5q0 -38 20 -54.5t60 -16.5q32 0 55 9t40.5 25.5t30 39t22.5 50.5q9 25 15.5 52t6.5 53q0 27 -10.5 42.5t-28 24t-39 10.5t-42.5 2l15 50q75 0 119.5 30.5t67.5 100.5q6 19 9.5 40t3.5 44q0 37 -18 55.5t-57 18.5q-59 0 -90 -33.5t-54 -98.5h-60
q12 42 29.5 75.5t43 57t60 36.5t81.5 13q60 0 93.5 -29t33.5 -87z" />
    <glyph glyph-name="four" unicode="4" 
d="M297 225h78l-15 -50h-78l-50 -175h-58l50 175h-237q0 2 3 12t6.5 21.5t6.5 21l3 9.5l349 484h85zM53 225h186l125 437z" />
    <glyph glyph-name="five" unicode="5" 
d="M457 673h-242l-86 -265q26 26 58 40t72 14q62 0 88.5 -29t26.5 -81q0 -23 -2.5 -51.5t-8.5 -55.5q-9 -44 -27.5 -89.5t-48 -83t-72.5 -61t-101 -23.5q-60 0 -94.5 23.5t-34.5 81.5q0 20 4 38.5t9 36.5h60q-5 -15 -8.5 -31t-3.5 -32q0 -36 19.5 -51.5t57.5 -15.5
q35 0 64 16.5t51 44t37.5 64.5t24.5 79q11 50 11 97q0 13 -3 26t-11 23.5t-22.5 17.5t-38.5 7q-50 0 -80.5 -20t-47.5 -54h-57l121 384h299z" />
    <glyph glyph-name="six" unicode="6" 
d="M457 639q0 -19 -3.5 -36.5t-8.5 -35.5h-60q4 13 7 27.5t3 28.5q0 36 -21 49t-53 13q-36 0 -64 -17t-52 -53.5t-45.5 -95t-43.5 -141.5q16 18 31 31.5t31.5 23t37 14.5t46.5 5q51 0 82 -26t31 -90q0 -28 -5 -60t-13.5 -64t-20.5 -62t-27 -54q-30 -51 -77.5 -79.5
t-114.5 -28.5q-60 0 -91.5 28.5t-31.5 94.5q0 21 3 44t9.5 52t16.5 65t24 82q21 69 41 137t50 122t75.5 88t117.5 34q55 0 90.5 -22.5t35.5 -73.5zM311 320q0 34 -14 57.5t-58 23.5q-32 0 -59 -13.5t-48.5 -36.5t-37.5 -52.5t-25 -60.5q-8 -29 -13.5 -60t-5.5 -56
q0 -40 17 -61t59 -21q47 0 79.5 22t53.5 59q12 21 21.5 46.5t16.5 52t10.5 52.5t3.5 48z" />
    <glyph glyph-name="seven" unicode="7" 
d="M462 668l-398 -668h-66l409 671h-279l15 52h335z" />
    <glyph glyph-name="eight" unicode="8" 
d="M453 624q0 -33 -8.5 -72t-25.5 -72q-45 -89 -125 -104q36 -6 53 -29.5t17 -54.5q0 -23 -4.5 -48.5t-10.5 -48.5q-13 -50 -32.5 -88.5t-47.5 -65t-66 -40t-88 -13.5q-57 0 -93 28t-36 85q0 23 3.5 45.5t9.5 44.5q9 34 21.5 64.5t30 55t42.5 41.5t60 24q-60 24 -60 91
q0 38 10 79t27 70q37 62 81 90.5t112 28.5q60 0 95 -27t35 -84zM390 615q0 36 -19.5 53t-54.5 17q-42 0 -71.5 -19t-52.5 -57q-21 -35 -29 -69.5t-8 -66.5q0 -75 77 -75q39 0 68.5 20t49.5 51.5t30 70t10 75.5zM300 277q0 40 -22 55.5t-59 15.5q-36 0 -61.5 -12.5t-44.5 -34
t-31.5 -50.5t-22.5 -62q-5 -17 -8.5 -35t-3.5 -36q0 -80 80 -80q36 0 61.5 13t44.5 35t31.5 51t21.5 61q5 20 9.5 39.5t4.5 39.5z" />
    <glyph glyph-name="nine" unicode="9" 
d="M446 617q0 -23 -6.5 -53.5t-16 -64t-20 -67.5t-19.5 -63t-18 -64.5t-21 -72t-27 -73.5t-35 -69q-29 -48 -71 -75t-108 -27q-56 0 -88.5 23t-32.5 79q0 19 2 35t7 34h60q-4 -14 -6.5 -28.5t-2.5 -28.5q0 -35 19.5 -49.5t54.5 -14.5q45 0 72.5 24t48.5 59q15 25 26.5 54.5
t21 60t18 60t16.5 53.5q-30 -30 -65 -46.5t-78 -16.5q-49 0 -80.5 26.5t-31.5 81.5q0 31 8 60l16 58q13 45 31.5 85.5t46 71t66.5 48.5t93 18q57 0 88.5 -31.5t31.5 -86.5zM386 608q0 37 -18 57t-56 20t-65 -15.5t-45.5 -40.5t-31 -55.5t-21.5 -61.5q-11 -35 -15.5 -57.5
t-4.5 -43.5q0 -35 16.5 -55t53.5 -20q41 0 69 15t47.5 40t32 56.5t21.5 64.5q6 21 11.5 47.5t5.5 48.5z" />
    <glyph glyph-name="colon" unicode=":" horiz-adv-x="218" 
d="M163 426h-71l23 78h71zM41 0h-71l23 79h71z" />
    <glyph glyph-name="semicolon" unicode=";" horiz-adv-x="218" 
d="M163 426h-71l23 78h71zM-37 -104h-48l90 183h69z" />
    <glyph glyph-name="less" unicode="&#x3c;" horiz-adv-x="529" 
d="M25 225v50l433 180v-54l-370 -151l370 -149v-55z" />
    <glyph glyph-name="equal" unicode="=" horiz-adv-x="529" 
d="M25 130v49h433v-49h-433zM25 325v49h433v-49h-433z" />
    <glyph glyph-name="greater" unicode="&#x3e;" horiz-adv-x="529" 
d="M25 46v55l370 149l-370 151v54l433 -180v-50z" />
    <glyph glyph-name="question" unicode="?" horiz-adv-x="369" 
d="M383 651q0 -20 -4 -38t-10 -38q-13 -45 -29.5 -75t-36 -54t-41.5 -48.5t-46 -59.5q-23 -33 -37 -67.5t-25 -73.5l-8 -27h-54l12 43q11 39 26.5 76.5t39.5 71.5q23 32 41 53t34 42t31 47t31 68q6 16 9.5 30t3.5 31q0 53 -53 53q-27 0 -44.5 -9.5t-29 -25.5t-18.5 -36.5
t-13 -41.5h-59q9 34 21 64.5t31.5 52.5t47.5 35t69 13q22 0 42 -4.5t35.5 -15t24.5 -27t9 -39.5zM105 0h-69l23 79h69z" />
    <glyph glyph-name="at" unicode="@" horiz-adv-x="845" 
d="M803 444q0 -74 -24.5 -149.5t-71.5 -128.5q-29 -32 -65 -51.5t-80 -19.5q-39 0 -62 20t-26 59q-29 -45 -64 -62t-72 -17q-51 0 -71 28t-20 68q0 31 8 63.5t18 59.5q35 99 79.5 149t111.5 50q40 0 61 -18t23 -50l21 59h55l-94 -269q-4 -12 -7 -24.5t-3 -23.5
q0 -20 11.5 -34.5t38.5 -14.5q30 0 56 16t49 44q18 23 33 52t25.5 61t16.5 66t6 66q0 58 -15 104.5t-46.5 79.5t-80 50.5t-115.5 17.5q-93 0 -170.5 -43t-133.5 -113.5t-87.5 -161t-31.5 -184.5q0 -142 73.5 -213t212.5 -71q66 0 125.5 17t109.5 47q5 -9 8.5 -18.5
t8.5 -19.5q-113 -69 -256 -69q-159 0 -245 84.5t-86 239.5q0 70 16 138t45.5 129t71.5 112.5t94.5 88.5t114.5 58t131 21q76 0 133 -21t94.5 -59t56.5 -92t19 -121zM492 286q10 26 16.5 45.5t10.5 35t6 27.5t2 23q0 23 -11.5 40t-40.5 17q-48 0 -82.5 -45.5t-63.5 -121.5
q-9 -23 -18 -54t-9 -58q0 -23 11.5 -40.5t40.5 -17.5q41 0 75 36t63 113z" />
    <glyph glyph-name="A" unicode="A" horiz-adv-x="528" 
d="M359 0v191h-270l-111 -191h-62l421 723h73l8 -723h-59zM358 659l-237 -416h238z" />
    <glyph glyph-name="B" unicode="B" horiz-adv-x="497" 
d="M496 616q0 -20 -3 -38t-8 -38q-9 -33 -21.5 -59.5t-29.5 -46.5t-40.5 -34.5t-56.5 -22.5q37 -11 57 -34.5t20 -63.5q0 -22 -4 -41.5t-10 -40.5q-15 -51 -35.5 -88.5t-50 -61.5t-69.5 -35.5t-94 -11.5h-174l207 723h171q27 0 52.5 -5.5t45 -18.5t31.5 -33t12 -50zM432 601
q0 24 -9.5 38t-24.5 21t-34.5 9t-38.5 2h-96l-77 -271h106q71 0 109.5 39t56.5 104q8 29 8 58zM349 266q0 24 -8 40t-22 25.5t-32.5 13.5t-40.5 4h-109l-85 -297h88q43 0 74.5 6.5t55 23t39.5 44.5t28 70q5 17 8.5 34.5t3.5 35.5z" />
    <glyph glyph-name="C" unicode="C" horiz-adv-x="494" 
d="M518 623q0 -26 -5.5 -49t-13.5 -47h-62q6 20 11 40t5 41q0 43 -25.5 59t-64.5 16q-40 0 -70.5 -16t-54 -42.5t-41 -60.5t-30.5 -70.5t-22.5 -72.5t-18.5 -66q-7 -24 -15.5 -53.5t-16 -60t-13 -60t-5.5 -54.5q0 -48 23.5 -68.5t71.5 -20.5q39 0 67 11.5t49 31.5t35 48.5
t24 62.5q1 3 1.5 6.5t2.5 6.5h63q-15 -49 -35 -89t-49.5 -69t-69.5 -45t-94 -16q-33 0 -61 6.5t-49 21.5t-32.5 39.5t-11.5 60.5q0 28 5 59t12.5 62.5t16.5 62t17 57.5q12 42 25 87t29.5 87.5t38 80t52 66t71.5 45t95 16.5q27 0 53 -5.5t46.5 -19t33 -35.5t12.5 -54z" />
    <glyph glyph-name="D" unicode="D" horiz-adv-x="535" 
d="M524 583q0 -26 -4.5 -54.5t-11 -57t-14.5 -56t-15 -52.5q-14 -47 -27.5 -92t-31.5 -85.5t-41 -74.5t-55.5 -58.5t-76 -38.5t-101.5 -14h-169l207 723h159q35 0 67.5 -6.5t58 -22.5t40.5 -43t15 -68zM457 573q0 30 -9 49.5t-25.5 30.5t-39 15t-49.5 4h-104l-178 -620h116
q62 0 103.5 32t69 80t44.5 103.5t31 103.5q6 22 13.5 48t13.5 52.5t10 52.5t4 49z" />
    <glyph glyph-name="E" unicode="E" horiz-adv-x="432" 
d="M479 670h-250l-78 -274h239l-15 -51h-239l-84 -292h257l-15 -53h-317l207 723h310z" />
    <glyph glyph-name="F" unicode="F" horiz-adv-x="394" 
d="M458 670h-229l-78 -271h214l-15 -52h-214l-99 -347h-60l207 723h289z" />
    <glyph glyph-name="G" unicode="G" horiz-adv-x="520" 
d="M530 619q0 -23 -4 -41t-11 -39h-62q5 15 9 33.5t4 34.5q0 45 -28 61.5t-69 16.5q-42 0 -74 -16t-57 -43t-43 -61.5t-32 -72t-24.5 -74.5t-19.5 -69q-6 -23 -14 -49t-14.5 -53t-11 -53t-4.5 -50q0 -57 29 -81t85 -24q32 0 64.5 5.5t58.5 17.5l75 264h-140l15 52h199
l-103 -360q-44 -15 -85.5 -23.5t-87.5 -8.5q-38 0 -69.5 8t-55 25.5t-36.5 44.5t-13 66q0 56 14.5 112t31.5 109q23 74 46.5 143.5t58 123.5t84.5 86.5t127 32.5q29 0 57 -6.5t50.5 -20.5t36 -36.5t13.5 -54.5z" />
    <glyph glyph-name="H" unicode="H" horiz-adv-x="551" 
d="M368 0h-60l99 345h-271l-99 -345h-60l207 723h60l-93 -325h271l93 325h60z" />
    <glyph glyph-name="I" unicode="I" horiz-adv-x="220" 
d="M37 0h-60l207 723h60z" />
    <glyph glyph-name="J" unicode="J" horiz-adv-x="430" 
d="M314 215q-13 -46 -29 -87.5t-40.5 -73t-61 -50t-90.5 -18.5q-27 0 -51.5 5t-43 17t-29 32t-10.5 50q0 29 6.5 57t14.5 55h61q-8 -24 -15 -48t-7 -48q0 -38 21.5 -52.5t56.5 -14.5q40 0 67 17t44 43.5t28 59t20 64.5l143 500h60z" />
    <glyph glyph-name="K" unicode="K" horiz-adv-x="468" 
d="M215 377l145 -377h-65l-143 385l334 338h77zM37 0h-60l207 723h60z" />
    <glyph glyph-name="L" unicode="L" horiz-adv-x="385" 
d="M265 0h-288l207 723h60l-192 -670h228z" />
    <glyph glyph-name="M" unicode="M" horiz-adv-x="756" 
d="M573 0h-56l194 676l-402 -676h-69l-15 676l-193 -676h-55l207 723h91l13 -663l394 663h98z" />
    <glyph glyph-name="N" unicode="N" horiz-adv-x="593" 
d="M410 0h-89l-96 670l-191 -670h-57l207 723h89l97 -670l190 670h57z" />
    <glyph glyph-name="O" unicode="O" horiz-adv-x="537" 
d="M527 600q0 -27 -6.5 -65.5t-17 -82.5t-24.5 -91t-29 -90.5t-30 -80.5t-27 -61q-35 -68 -88 -105.5t-135 -37.5q-76 0 -117.5 32.5t-41.5 110.5q0 28 5 58t12.5 59.5t16.5 58.5t17 56q24 84 48.5 153t58.5 118.5t81.5 77t118.5 27.5q35 0 64 -7.5t50 -23.5t32.5 -42.5
t11.5 -63.5zM460 589q0 50 -24.5 73t-73.5 23q-32 0 -58 -10t-47 -28t-37 -42t-29 -51q-10 -21 -22 -54t-25 -72t-25 -82t-21.5 -82.5t-15 -73.5t-5.5 -56q0 -51 24.5 -73.5t75.5 -22.5q30 0 54.5 9t44 24.5t35 37t29.5 46.5q11 20 24 54t26.5 74.5t26 85t22 86t15.5 76.5
t6 58z" />
    <glyph glyph-name="P" unicode="P" horiz-adv-x="454" 
d="M483 612q0 -25 -7 -55.5t-18 -60.5t-26.5 -57t-31.5 -44q-34 -35 -80.5 -46t-109.5 -11h-76l-97 -338h-60l207 723h143q29 0 57 -4.5t50 -17t35.5 -34t13.5 -55.5zM418 598q0 24 -10 38.5t-25.5 22t-35.5 10t-39 2.5h-79l-80 -281h71q49 0 81.5 10.5t55.5 34.5
q12 13 23 33t19.5 43t13.5 46t5 41z" />
    <glyph glyph-name="Q" unicode="Q" horiz-adv-x="538" 
d="M527 600q0 -24 -5 -57.5t-14 -72t-21 -80t-25 -81.5q-15 -45 -29.5 -84t-32 -72t-40 -60t-53.5 -49q13 1 30 3t34 3l34 2t30 1l-15 -53h-108q-27 0 -46 -1.5t-34.5 -3t-29.5 -2.5t-32 -1q-76 0 -117.5 32.5t-41.5 110.5q0 57 17.5 114.5t33.5 111.5q24 84 48.5 153
t58.5 118.5t81.5 77t118.5 27.5q35 0 64 -7.5t50 -23.5t32.5 -42.5t11.5 -63.5zM460 589q0 50 -24.5 73t-73.5 23q-32 0 -58 -10t-47 -28t-37 -42t-29 -51q-10 -21 -22 -53.5t-25 -71t-25 -80.5t-21.5 -81t-15 -72.5t-5.5 -55.5q0 -51 24.5 -73.5t75.5 -22.5q30 0 54.5 9
t44 24.5t35 37t29.5 46.5q11 20 24 53.5t26.5 73.5t26 83.5t22 84t15.5 75.5t6 58z" />
    <glyph glyph-name="R" unicode="R" horiz-adv-x="498" 
d="M501 616q0 -24 -5 -50t-14 -50t-21.5 -45.5t-26.5 -37.5q-19 -21 -42 -34.5t-61 -21.5q31 -4 50.5 -22t19.5 -52q0 -36 -12.5 -74.5t-21.5 -73.5q-10 -39 -18 -77.5t-16 -77.5h-61q5 38 15 76t19 76q8 34 19.5 71t11.5 72q0 21 -9.5 32.5t-23.5 17t-31.5 6.5t-33.5 1
h-101l-101 -352h-60l207 723h171q27 0 53 -4.5t46.5 -16.5t33.5 -33t13 -53zM437 602q0 22 -8.5 35t-22 20.5t-31 10t-35.5 2.5h-111l-76 -266h80q60 0 97 12.5t61 46.5q9 12 17 29t14.5 35.5t10.5 38t4 36.5z" />
    <glyph glyph-name="S" unicode="S" horiz-adv-x="468" 
d="M487 631q0 -23 -5.5 -44t-12.5 -42h-62q5 18 10 35.5t5 36.5q0 21 -7.5 34t-20.5 20.5t-29.5 10.5t-34.5 3q-35 0 -64.5 -14t-51 -38t-34 -55t-12.5 -65q0 -18 8 -33.5t19.5 -28t23.5 -22.5t21 -16l61 -46q30 -23 54 -58t24 -84q0 -45 -15 -88t-44.5 -76.5t-74 -54
t-103.5 -20.5q-31 0 -59.5 5.5t-50 19t-34.5 36t-13 57.5q0 23 4 46t10 46h63q-5 -20 -9 -39.5t-4 -39.5q0 -46 26.5 -62.5t68.5 -16.5q38 0 69 15t52.5 40.5t33.5 58t12 68.5q0 29 -14 55.5t-43 49.5l-57 43q-12 9 -28.5 23t-31 32t-24.5 39.5t-10 46.5q0 48 18.5 89.5
t50 72.5t74.5 48.5t92 17.5q30 0 57.5 -5.5t47.5 -18t32 -33t12 -49.5z" />
    <glyph glyph-name="T" unicode="T" horiz-adv-x="401" 
d="M487 670h-168l-192 -670h-60l192 670h-167l15 53h395z" />
    <glyph glyph-name="U" unicode="U" horiz-adv-x="551" 
d="M441 240q-17 -57 -36 -104t-48.5 -80t-71.5 -51.5t-104 -18.5q-33 0 -62.5 6t-51 20.5t-34.5 39t-13 60.5q0 34 7 67.5t16 65.5l137 478h60l-137 -479q-8 -27 -15 -61t-7 -63q0 -47 30.5 -64t73.5 -17q46 0 78.5 16t54.5 43.5t36.5 64t26.5 77.5l138 483h60z" />
    <glyph glyph-name="V" unicode="V" horiz-adv-x="478" 
d="M173 0h-74l16 723h57l-21 -665l356 665h64z" />
    <glyph glyph-name="W" unicode="W" horiz-adv-x="804" 
d="M516 0h-76l47 653l-329 -653h-76l39 723h59l-44 -657l332 657h74l-47 -657l332 657h64z" />
    <glyph glyph-name="X" unicode="X" horiz-adv-x="475" 
d="M272 367l88 -367h-63l-70 329l-253 -329h-70l300 379l-73 344h61l60 -301l235 301h67z" />
    <glyph glyph-name="Y" unicode="Y" horiz-adv-x="456" 
d="M236 287l-82 -287h-60l83 291l-70 432h63l53 -370l264 370h72z" />
    <glyph glyph-name="Z" unicode="Z" horiz-adv-x="425" 
d="M487 661l-481 -608h306l-15 -53h-375l16 56l486 614h-291l15 53h356z" />
    <glyph glyph-name="bracketleft" unicode="[" horiz-adv-x="229" 
d="M316 679h-79l-226 -788h79l-13 -44h-132l251 876h132z" />
    <glyph glyph-name="backslash" unicode="\" horiz-adv-x="317" 
d="M147 -14l-26 751h51l25 -751h-50z" />
    <glyph glyph-name="bracketright" unicode="]" horiz-adv-x="229" 
d="M-1 -153h-132l13 44h79l226 788h-79l12 44h132z" />
    <glyph glyph-name="asciicircum" unicode="^" horiz-adv-x="529" 
d="M376 307l-135 352l-135 -352h-56l165 416h52l166 -416h-57z" />
    <glyph glyph-name="underscore" unicode="_" horiz-adv-x="500" 
d="M-103 -125v50h500v-50h-500z" />
    <glyph glyph-name="grave" unicode="`" horiz-adv-x="175" 
d="M173 594l-91 139h72l65 -139h-46z" />
    <glyph glyph-name="a" unicode="a" horiz-adv-x="433" 
d="M377 427q0 -21 -3.5 -40t-9.5 -39q-25 -88 -50 -174t-47 -174h-55l20 70q-35 -38 -69.5 -58t-81.5 -20q-49 0 -79 25.5t-30 73.5q0 67 25 109t67 66t97 32.5t115 8.5h19q7 26 14.5 52.5t7.5 52.5q0 32 -18.5 44t-48.5 12q-48 0 -80 -22.5t-43 -62.5h-58q20 66 68.5 99
t118.5 33q25 0 47 -4.5t38.5 -15t26 -27t9.5 -41.5zM263 261q-44 0 -85 -6.5t-73 -24.5t-51 -49t-19 -80q0 -28 15.5 -45t45.5 -17q46 0 77 21.5t52 54t34 71.5t23 75h-19z" />
    <glyph glyph-name="b" unicode="b" horiz-adv-x="451" 
d="M402 401q0 -36 -7.5 -69.5t-18.5 -67.5q-14 -45 -30 -93.5t-41.5 -88t-63 -65t-93.5 -25.5q-39 0 -67 16.5t-42 54.5l-19 -63h-55q8 24 16.5 48t15.5 49l179 626h57l-78 -272q29 31 60 47.5t71 16.5q54 0 85 -28.5t31 -85.5zM342 389q0 35 -16.5 56.5t-53.5 21.5
q-42 0 -71.5 -22t-50 -55t-34 -71t-22.5 -71q-8 -29 -17 -62.5t-9 -64.5q0 -80 82 -80q40 0 68 23.5t47 57.5t31 72.5t21 68.5q8 30 16.5 62t8.5 64z" />
    <glyph glyph-name="c" unicode="c" horiz-adv-x="385" 
d="M366 424q0 -18 -2.5 -32t-7.5 -31h-57q4 13 6.5 25.5t2.5 26.5q0 32 -18 44t-47 12q-40 0 -67.5 -22.5t-46.5 -56t-30.5 -71.5t-20.5 -69q-10 -35 -20 -73t-10 -75q0 -36 16.5 -51t51.5 -15q27 0 46.5 8.5t33.5 23.5t23.5 35.5t16.5 43.5h57q-20 -71 -61.5 -114
t-118.5 -43q-27 0 -50 5t-40.5 16.5t-27 31t-9.5 48.5q0 40 10.5 81t21.5 79q15 53 33 101t44.5 84t64 57.5t91.5 21.5q53 0 84 -20t31 -71z" />
    <glyph glyph-name="d" unicode="d" horiz-adv-x="441" 
d="M298 97q-7 -24 -13 -48.5t-11 -48.5h-55l16 57q-26 -30 -57 -47.5t-76 -17.5q-58 0 -86 31.5t-28 88.5q0 40 8 77t19 75q15 48 33 93t44.5 80.5t63.5 56.5t88 21q35 0 61.5 -14.5t38.5 -48.5l76 271h57zM315 391q0 38 -18 57t-57 19t-66.5 -20.5t-47 -51t-32.5 -66
t-22 -66.5q-11 -35 -19.5 -71.5t-8.5 -72.5q0 -35 15.5 -56.5t53.5 -21.5q43 0 72 19.5t48.5 50t31.5 67t22 70.5t19 71t9 72z" />
    <glyph glyph-name="e" unicode="e" horiz-adv-x="425" 
d="M383 408q0 -42 -12.5 -83.5t-23.5 -81.5h-273q-10 -32 -20 -66t-10 -68q0 -38 19.5 -55.5t57.5 -17.5q30 0 52.5 8.5t39 24t28 37t20.5 48.5h57q-13 -39 -30 -69.5t-40.5 -51.5t-55.5 -32t-74 -11q-28 0 -52 6t-42 19t-28 33.5t-10 50.5q0 32 7.5 63.5t15.5 61.5
q14 51 31 102.5t44 93.5t68.5 68.5t105.5 26.5q54 0 89.5 -25t35.5 -82zM323 395q0 35 -17 54.5t-54 19.5q-39 0 -66.5 -16t-46 -42t-30.5 -58t-21 -64h213q8 26 15 52.5t7 53.5z" />
    <glyph glyph-name="f" unicode="f" horiz-adv-x="258" 
d="M335 676q-5 1 -10 1h-10q-25 0 -41.5 -4.5t-28 -15t-19 -28t-14.5 -43.5l-23 -82h97l-14 -47h-97l-131 -457h-57l131 457h-77l14 47h77q2 8 5.5 21.5t7.5 26.5q4 15 9 30q10 36 22 63.5t31 46t46 27.5t68 9q7 0 14 -0.5t14 -1.5z" />
    <glyph glyph-name="g" unicode="g" horiz-adv-x="446" 
d="M424 504q-8 -21 -15 -42.5t-13 -43.5l-126 -440q-12 -43 -29 -76.5t-42 -56t-59 -34t-80 -11.5q-23 0 -45.5 4t-40 14.5t-28.5 28t-11 44.5q0 29 7 53h59q-3 -11 -5 -21.5t-2 -21.5q0 -33 20.5 -44.5t49.5 -11.5q48 0 77.5 20.5t47 53t27.5 71.5t21 76q-29 -31 -61 -46
t-75 -15q-54 0 -82.5 25t-28.5 80q0 35 8.5 71t18.5 69q13 46 30.5 93t43.5 85t63 62.5t90 24.5q42 0 68.5 -14.5t37.5 -56.5l19 60h55zM322 389q0 78 -77 78q-40 0 -68.5 -22t-48 -55t-32 -71t-21.5 -69q-8 -29 -17 -62.5t-9 -64.5q0 -72 70 -72q45 0 75.5 22.5t51 56.5
t33 74t22.5 75q8 26 14.5 54t6.5 56z" />
    <glyph glyph-name="h" unicode="h" horiz-adv-x="454" 
d="M398 427q0 -36 -11 -72l-102 -355h-57l90 315q6 22 13 45.5t7 46.5q0 32 -17.5 45t-48.5 13q-38 0 -65 -15.5t-46.5 -40t-32.5 -54.5t-21 -59l-85 -296h-57l207 723h57l-79 -278q29 33 61.5 51.5t76.5 18.5q45 0 77.5 -20t32.5 -68z" />
    <glyph glyph-name="i" unicode="i" horiz-adv-x="193" 
d="M210 636h-69l22 76h69zM22 0h-57l145 504h57z" />
    <glyph glyph-name="j" unicode="j" horiz-adv-x="193" 
d="M210 636h-69l22 76h69zM0 -75q-9 -31 -19.5 -55t-26 -40.5t-39 -25.5t-58.5 -9q-14 0 -29 3l15 51q8 -2 18 -2q23 0 37 6t22.5 16.5t13.5 26t11 34.5l165 574h57z" />
    <glyph glyph-name="k" unicode="k" horiz-adv-x="384" 
d="M169 275l111 -275h-63l-109 284l232 220h72zM22 0h-57l207 723h57z" />
    <glyph glyph-name="l" unicode="l" horiz-adv-x="193" 
d="M22 0h-57l207 723h57z" />
    <glyph glyph-name="m" unicode="m" horiz-adv-x="663" 
d="M608 431q0 -23 -4.5 -45t-11.5 -45l-98 -341h-57l97 340q5 17 9.5 35.5t4.5 36.5q0 28 -15 39.5t-41 11.5q-31 0 -55 -14t-41.5 -35.5t-29.5 -48.5t-19 -53l-89 -312h-57l97 340q5 17 9.5 36t4.5 37q0 28 -15.5 39t-41.5 11q-31 0 -55 -15.5t-41.5 -39t-30 -52
t-19.5 -53.5l-87 -303h-57l117 408q13 48 24 96h56l-20 -71q24 35 56.5 58.5t77.5 23.5q19 0 36.5 -5t31 -14.5t21.5 -24.5t8 -35q26 35 57.5 57t79.5 22q43 0 70.5 -19.5t27.5 -64.5z" />
    <glyph glyph-name="n" unicode="n" horiz-adv-x="454" 
d="M398 427q0 -35 -11 -71l-102 -356h-57l90 314q6 22 13 45.5t7 46.5q0 32 -16.5 45.5t-47.5 13.5q-37 0 -64.5 -15t-47.5 -39.5t-33 -54.5t-22 -60l-85 -296h-57l109 379q9 31 17 62t15 63h55l-19 -69q29 36 64 58t82 22q23 0 43 -4.5t35 -15t23.5 -27.5t8.5 -41z" />
    <glyph glyph-name="o" unicode="o" horiz-adv-x="429" 
d="M382 409q0 -42 -11 -81.5t-22 -78.5q-14 -49 -30.5 -95.5t-42 -83t-64 -58.5t-98.5 -22q-55 0 -91.5 24t-36.5 83q0 38 9.5 75.5t20.5 74.5q14 49 31 97t43.5 86t66.5 61.5t100 23.5q27 0 49.5 -5.5t39.5 -18.5t26.5 -33t9.5 -49zM322 395q0 74 -73 74q-42 0 -70 -20
t-47 -50t-30.5 -66t-21.5 -69q-11 -35 -23.5 -77.5t-12.5 -79.5q0 -38 20 -54.5t57 -16.5q46 0 75 23t47.5 57.5t30 75t21.5 74.5q9 30 18 63.5t9 65.5z" />
    <glyph glyph-name="p" unicode="p" horiz-adv-x="446" 
d="M397 404q0 -35 -7.5 -70.5t-17.5 -69.5q-13 -46 -29 -94t-41 -87.5t-63 -64.5t-95 -25q-35 0 -61.5 12.5t-44.5 47.5l-71 -245h-57l166 579q8 29 16.5 58t13.5 59h55l-17 -62q29 33 60.5 53t76.5 20q56 0 86 -28.5t30 -82.5zM337 387q0 36 -16.5 57.5t-54.5 21.5
q-42 0 -71.5 -21.5t-49.5 -54.5t-33 -71t-22 -71q-8 -30 -17 -63t-9 -64q0 -79 82 -79q41 0 69 22.5t46.5 56.5t30.5 72t21 70q8 30 16 61t8 63z" />
    <glyph glyph-name="q" unicode="q" horiz-adv-x="441" 
d="M419 504q-21 -58 -38 -117l-166 -579h-57l70 241q-29 -29 -56 -43t-69 -14q-57 0 -86 32t-29 88q0 40 8 77t19 75q12 42 29.5 86.5t43.5 81t63 60t88 23.5q43 0 68.5 -16t37.5 -55l19 60h55zM316 391q0 40 -19.5 57.5t-58.5 17.5q-38 0 -65.5 -20.5t-47 -51t-32 -66
t-21.5 -65.5q-10 -34 -18.5 -70.5t-8.5 -72.5q0 -35 15 -57t53 -22q43 0 72 19.5t48.5 50t31.5 67t22 70.5t19.5 71t9.5 72z" />
    <glyph glyph-name="r" unicode="r" horiz-adv-x="269" 
d="M286 457q-5 1 -15 1q-29 0 -54 -10t-45 -28t-34 -41.5t-22 -50.5l-94 -328h-57l118 412q7 23 12.5 46t10.5 46h55l-19 -67q32 41 69 59.5t82 18.5q6 0 9 -1z" />
    <glyph glyph-name="s" unicode="s" horiz-adv-x="360" 
d="M333 431q0 -17 -3.5 -31t-7.5 -31h-57q4 12 6.5 24t2.5 25q0 29 -17.5 39.5t-43.5 10.5q-20 0 -38 -8t-31.5 -21.5t-22 -31.5t-8.5 -38q0 -21 11 -36.5t28 -29t36 -26t36 -27t28 -34t11 -45.5q0 -40 -13.5 -73t-37.5 -57t-57.5 -37.5t-73.5 -13.5q-23 0 -44 4.5
t-37.5 14.5t-26.5 27t-10 43q0 20 4 36.5t9 34.5h57q-5 -18 -8.5 -32t-3.5 -28q0 -31 17 -42.5t46 -11.5q26 0 48 9.5t37.5 26.5t24 39.5t8.5 48.5q0 21 -11 37.5t-27.5 30.5t-36 27t-36 28.5t-27.5 34.5t-11 45q0 33 13.5 61t36.5 48t54 31.5t66 11.5q22 0 42 -4t35 -13.5
t24 -26t9 -40.5z" />
    <glyph glyph-name="t" unicode="t" horiz-adv-x="265" 
d="M272 457h-96l-97 -339q-3 -11 -5 -20.5t-2 -20.5q0 -22 14 -26t31 -4q10 0 19.5 1t19.5 3l-15 -51q-13 -2 -26 -3t-26 -1t-27 2.5t-25 9t-18.5 17t-7.5 27.5t2.5 31.5t7.5 30.5l98 343h-78l14 47h78l27 97l65 26l-35 -123h96z" />
    <glyph glyph-name="u" unicode="u" horiz-adv-x="454" 
d="M319 125q-9 -31 -17 -62t-15 -63h-55l19 69q-29 -36 -64 -58t-82 -22q-23 0 -43 4.5t-35 15t-23.5 27.5t-8.5 41q0 35 11 71l102 356h57l-90 -314q-6 -22 -13 -45.5t-7 -46.5q0 -32 16.5 -45.5t47.5 -13.5q37 0 64.5 15t47.5 39.5t33 54.5t22 60l85 296h57z" />
    <glyph glyph-name="v" unicode="v" horiz-adv-x="380" 
d="M122 0h-65v504h59l-11 -440l242 440h60z" />
    <glyph glyph-name="w" unicode="w" horiz-adv-x="660" 
d="M400 0h-71l13 429l-220 -429h-73l10 504h58l-19 -448l228 448h70l-17 -448l232 448h62z" />
    <glyph glyph-name="x" unicode="x" horiz-adv-x="358" 
d="M184 266l62 -266h-60l-43 223l-172 -223h-69l220 271l-50 233h58l36 -191l149 191h67z" />
    <glyph glyph-name="y" unicode="y" horiz-adv-x="380" 
d="M8 -192h-56l114 198l-9 498h57l-1 -420l234 420h60z" />
    <glyph glyph-name="z" unicode="z" horiz-adv-x="310" 
d="M309 452l-312 -403h199l-14 -49h-262l15 52l311 403h-183l15 49h246z" />
    <glyph glyph-name="braceleft" unicode="{" horiz-adv-x="369" 
d="M434 688q-47 -3 -78 -18t-51.5 -39t-32.5 -54t-21 -62l-14 -50q-11 -40 -25 -70.5t-34 -53t-47.5 -36.5t-66.5 -20q40 -7 63.5 -28t23.5 -63q0 -22 -4.5 -43.5t-11.5 -42.5l-19 -60q-14 -42 -14 -82q0 -23 8 -38.5t22 -25t32 -14t39 -5.5l-10 -36q-27 2 -52.5 7.5t-46 18
t-32.5 33t-12 52.5q0 23 4.5 45t11.5 45l21 67q11 36 11 70q0 24 -9.5 39t-25 24t-35 13t-38.5 6l10 35q21 2 39.5 6t29.5 8q21 7 37.5 17t30 25.5t24.5 38t21 55.5l21 71q13 44 31 79.5t45.5 61.5t67.5 41t97 18z" />
    <glyph glyph-name="bar" unicode="|" horiz-adv-x="222" 
d="M90 -214v1001h54v-1001h-54z" />
    <glyph glyph-name="braceright" unicode="}" horiz-adv-x="369" 
d="M327 267q-35 -3 -71 -14t-62 -37q-20 -20 -32 -47.5t-20 -56.5l-18 -66q-10 -36 -24.5 -70t-41 -61.5t-69 -45.5t-107.5 -22l10 36q48 3 79 18t51 38.5t32 53.5t21 63l14 49q9 31 20.5 60.5t31 53.5t49 41.5t73.5 24.5q-40 6 -63.5 27t-23.5 63q0 23 4.5 44t10.5 42
l19 64q6 20 9.5 38.5t3.5 38.5q0 47 -29 65t-71 21l10 35q28 -2 53.5 -7t45 -17t31 -32.5t11.5 -53.5q0 -23 -4.5 -45t-10.5 -45l-19 -67q-6 -20 -10 -39t-4 -36q0 -21 10.5 -35.5t27 -24t36 -14.5t37.5 -5z" />
    <glyph glyph-name="asciitilde" unicode="~" horiz-adv-x="529" 
d="M459 309q-6 -53 -33.5 -88t-82.5 -35q-24 0 -50.5 10t-58.5 28q-35 20 -58 28.5t-42 8.5q-31 0 -46.5 -20t-22.5 -54h-42q3 26 11.5 48.5t22.5 39t34.5 26t48.5 9.5q24 0 50.5 -10t58.5 -28q35 -20 57.5 -28.5t42.5 -8.5q31 0 46.5 20t22.5 54h41v0z" />
    <glyph glyph-name="Euro" unicode="&#x20ac;" 
d="M314 25q-32 -22 -61.5 -29.5t-69.5 -7.5q-23 0 -48 5.5t-46 19.5t-35 38t-14 60t12 84.5t28 105.5h-82l23 46h72l23 80h-86l23 46h76q16 55 37 103t51 83t72.5 55.5t102.5 20.5q36 0 67 -11.5t51 -40.5l-28 -60q-12 32 -38.5 46t-59.5 14q-42 0 -73 -16t-53.5 -44
t-39 -66.5t-29.5 -83.5h219l-23 -46h-209l-23 -80h194l-23 -46h-184q-19 -65 -29 -107t-10 -77q0 -37 24 -57t72 -20q38 0 64.5 12t52.5 38v-65v0z" />
    <glyph glyph-name="quotesinglbase" unicode="&#x201a;" horiz-adv-x="227" 
d="M-23 -103h-50l92 182h68z" />
    <glyph glyph-name="florin" unicode="&#x192;" 
d="M454 674q-7 2 -13.5 4t-14.5 2q-19 0 -34 -9.5t-27 -24t-21 -32t-16 -34.5l-41 -100h88l-20 -48h-88l-166 -411q-16 -40 -33 -73.5t-39 -58t-50 -38t-65 -13.5h-9t-9 1l23 53q3 -1 8 -1q30 0 56.5 25t54.5 93l171 423h-78l21 48h77l39 98q12 30 27.5 58.5t36 50.5t47 35
t61.5 13q20 0 38 -6z" />
    <glyph glyph-name="quotedblbase" unicode="&#x201e;" horiz-adv-x="368" 
d="M118 -103h-50l92 182h68zM-23 -103h-50l92 182h68z" />
    <glyph glyph-name="ellipsis" unicode="&#x2026;" horiz-adv-x="1000" 
d="M766 0h-71l23 79h71zM432 0h-71l23 79h71zM99 0h-71l23 79h71z" />
    <glyph glyph-name="dagger" unicode="&#x2020;" horiz-adv-x="418" 
d="M412 502h-134l-144 -502h-56l144 502h-134l14 49h134l49 172h56l-49 -172h134z" />
    <glyph glyph-name="daggerdbl" unicode="&#x2021;" horiz-adv-x="418" 
d="M415 513h-134l-86 -300h134l-14 -49h-134l-47 -164h-56l47 164h-134l14 49h134l86 300h-134l14 49h134l46 161h56l-46 -161h134z" />
    <glyph glyph-name="circumflex" unicode="&#x2c6;" horiz-adv-x="175" 
d="M248 594l-58 99l-113 -99h-57l141 139h67l64 -139h-44z" />
    <glyph glyph-name="perthousand" unicode="&#x2030;" horiz-adv-x="888" 
d="M161 391q-42 0 -63.5 21t-21.5 60q0 21 3.5 40.5t9.5 39.5q12 40 26 73.5t32.5 57.5t43.5 37.5t59 13.5q42 0 63.5 -21t21.5 -60q0 -21 -3.5 -40.5t-9.5 -39.5q-12 -41 -26 -74.5t-32.5 -57.5t-43.5 -37t-59 -13zM168 435q41 0 62 35.5t39 98.5q8 29 11.5 45.5t3.5 30.5
q0 20 -9.5 32.5t-31.5 12.5q-41 0 -62 -35.5t-39 -98.5q-8 -29 -11.5 -45.5t-3.5 -30.5q0 -20 9.5 -32.5t31.5 -12.5zM349 -12q-42 0 -63.5 21t-21.5 60q0 21 3.5 40.5t9.5 39.5q12 40 26 73.5t32.5 57.5t43.5 37.5t59 13.5q42 0 63.5 -21t21.5 -60q0 -21 -3.5 -40.5
t-9.5 -39.5q-12 -41 -26 -74.5t-32.5 -57.5t-43.5 -37t-59 -13zM356 32q41 0 62 35.5t39 98.5q8 29 11.5 45.5t3.5 30.5q0 20 -9.5 32.5t-31.5 12.5q-41 0 -62 -35.5t-39 -98.5q-8 -29 -11.5 -45.5t-3.5 -30.5q0 -20 9.5 -32.5t31.5 -12.5zM637 -12q-42 0 -63.5 21t-21.5 60
q0 21 3.5 40.5t9.5 39.5q12 40 26 73.5t32.5 57.5t43.5 37.5t59 13.5q42 0 63.5 -21t21.5 -60q0 -21 -3.5 -40.5t-9.5 -39.5q-12 -41 -26 -74.5t-32.5 -57.5t-43.5 -37t-59 -13zM644 32q41 0 62 35.5t39 98.5q8 29 11.5 45.5t3.5 30.5q0 20 -9.5 32.5t-31.5 12.5
q-41 0 -62 -35.5t-39 -98.5q-8 -29 -11.5 -45.5t-3.5 -30.5q0 -20 9.5 -32.5t31.5 -12.5zM3 -33h-53l647 789h53z" />
    <glyph glyph-name="Scaron" unicode="&#x160;" horiz-adv-x="468" 
d="M487 631q0 -23 -5.5 -44t-12.5 -42h-62q5 18 10 35.5t5 36.5q0 21 -7.5 34t-20.5 20.5t-29.5 10.5t-34.5 3q-35 0 -64.5 -14t-51 -38t-34 -55t-12.5 -65q0 -18 8 -33.5t19.5 -28t23.5 -22.5t21 -16l61 -46q30 -23 54 -58t24 -84q0 -45 -15 -88t-44.5 -76.5t-74 -54
t-103.5 -20.5q-31 0 -59.5 5.5t-50 19t-34.5 36t-13 57.5q0 23 4 46t10 46h63q-5 -20 -9 -39.5t-4 -39.5q0 -46 26.5 -62.5t68.5 -16.5q38 0 69 15t52.5 40.5t33.5 58t12 68.5q0 29 -14 55.5t-43 49.5l-57 43q-12 9 -28.5 23t-31 32t-24.5 39.5t-10 46.5q0 48 18.5 89.5
t50 72.5t74.5 48.5t92 17.5q30 0 57.5 -5.5t47.5 -18t32 -33t12 -49.5zM281 921l58 -99l113 99h57l-141 -139h-67l-64 139h44z" />
    <glyph glyph-name="guilsinglleft" unicode="&#x2039;" horiz-adv-x="226" 
d="M73 250l22 -191h-51l-28 195l139 193h55z" />
    <glyph glyph-name="OE" unicode="&#x152;" horiz-adv-x="740" 
d="M786 666h-247l-77 -267h236l-15 -53h-236l-84 -293h254l-15 -53h-241q-39 0 -70.5 -3t-70.5 -3q-41 0 -77.5 7.5t-64 26t-44 48.5t-16.5 75q0 51 12.5 99.5t26.5 96.5q20 70 43.5 138t61 121.5t94.5 86t144 32.5q42 0 86.5 -3t86.5 -3h228zM480 668q-20 2 -41 3t-41 1
q-48 0 -84 -14t-63.5 -38t-47 -55.5t-34.5 -68t-26.5 -75t-21.5 -75.5q-6 -21 -13 -44.5t-13 -48t-10 -48.5t-4 -46q0 -33 10.5 -55t29.5 -34.5t44.5 -17.5t55.5 -5q20 0 41 1.5t41 3.5z" />
    <glyph glyph-name="Zcaron" unicode="&#x17d;" horiz-adv-x="425" 
d="M487 661l-481 -608h306l-15 -53h-375l16 56l486 614h-291l15 53h356zM272 921l58 -99l113 99h57l-141 -139h-67l-64 139h44z" />
    <glyph glyph-name="quoteleft" unicode="&#x2018;" horiz-adv-x="227" 
d="M180 541h-68l109 182h50z" />
    <glyph glyph-name="quoteright" unicode="&#x2019;" horiz-adv-x="227" 
d="M162 541h-50l91 182h68z" />
    <glyph glyph-name="quotedblleft" unicode="&#x201c;" horiz-adv-x="368" 
d="M321 541h-68l109 182h50zM180 541h-68l109 182h50z" />
    <glyph glyph-name="quotedblright" unicode="&#x201d;" horiz-adv-x="368" 
d="M303 541h-50l91 182h68zM162 541h-50l91 182h68z" />
    <glyph glyph-name="bullet" unicode="&#x2022;" horiz-adv-x="500" 
d="M440 356q0 -37 -14 -69.5t-38 -56.5t-56.5 -38t-69.5 -14t-69.5 14t-56.5 38t-38 56.5t-14 69.5t14 69.5t38 56.5t56.5 38t69.5 14t69.5 -14t56.5 -38t38 -56.5t14 -69.5z" />
    <glyph glyph-name="endash" unicode="&#x2013;" horiz-adv-x="500" 
d="M472 261h-500l13 46h500z" />
    <glyph glyph-name="emdash" unicode="&#x2014;" horiz-adv-x="1001" 
d="M843 261h-741l13 46h741z" />
    <glyph glyph-name="tilde" unicode="&#x2dc;" horiz-adv-x="175" 
d="M337 707q-6 -17 -16.5 -34t-24 -31t-30.5 -23t-37 -9q-19 0 -35 7t-30 15t-28 15t-30 7q-22 0 -38 -15.5t-24 -33.5h-35q7 18 18 35.5t25.5 31t32.5 22t39 8.5q17 0 31.5 -7t28.5 -15t28.5 -15t31.5 -7q21 0 34.5 16t21.5 33h37v0z" />
    <glyph glyph-name="trademark" unicode="&#x2122;" horiz-adv-x="739" 
d="M707 367v315l-109 -315h-36l-109 315v-315h-37v356h62l103 -294l103 294h60v-356h-37zM235 686v-320h-41v320h-105v37h251v-37h-105z" />
    <glyph glyph-name="scaron" unicode="&#x161;" horiz-adv-x="360" 
d="M333 431q0 -17 -3.5 -31t-7.5 -31h-57q4 12 6.5 24t2.5 25q0 29 -17.5 39.5t-43.5 10.5q-20 0 -38 -8t-31.5 -21.5t-22 -31.5t-8.5 -38q0 -21 11 -36.5t28 -29t36 -26t36 -27t28 -34t11 -45.5q0 -40 -13.5 -73t-37.5 -57t-57.5 -37.5t-73.5 -13.5q-23 0 -44 4.5
t-37.5 14.5t-26.5 27t-10 43q0 20 4 36.5t9 34.5h57q-5 -18 -8.5 -32t-3.5 -28q0 -31 17 -42.5t46 -11.5q26 0 48 9.5t37.5 26.5t24 39.5t8.5 48.5q0 21 -11 37.5t-27.5 30.5t-36 27t-36 28.5t-27.5 34.5t-11 45q0 33 13.5 61t36.5 48t54 31.5t66 11.5q22 0 42 -4t35 -13.5
t24 -26t9 -40.5zM174 733l58 -99l113 99h57l-141 -139h-67l-64 139h44z" />
    <glyph glyph-name="guilsinglright" unicode="&#x203a;" horiz-adv-x="226" 
d="M92 256l-22 191h51l28 -195l-139 -193h-55z" />
    <glyph glyph-name="oe" unicode="&#x153;" horiz-adv-x="690" 
d="M647 412q0 -43 -12 -85.5t-23 -83.5h-267q-9 -31 -18 -65t-9 -66q0 -77 76 -77q57 0 88.5 34.5t45.5 84.5h55q-22 -77 -68 -120.5t-128 -43.5q-23 0 -43 4t-36.5 13t-27.5 25t-15 40q-32 -44 -67 -63t-90 -19q-53 0 -87 25.5t-34 83.5q0 40 11 82.5t22 80.5
q13 47 30.5 92.5t44.5 81t66 57.5t96 22q46 0 76.5 -20t38.5 -68q30 42 67 65t89 23q54 0 86.5 -24.5t32.5 -78.5zM588 397q0 72 -71 72q-36 0 -63 -17t-45.5 -43.5t-31 -58t-20.5 -61.5h209q8 26 15 53t7 55zM322 395q0 74 -73 74q-42 0 -70.5 -20t-47.5 -50.5t-31 -67
t-21 -69.5q-11 -37 -23 -77t-12 -78t20.5 -54.5t57.5 -16.5q40 0 66.5 18.5t44.5 46.5t29.5 62t20.5 65q11 38 25 82.5t14 84.5z" />
    <glyph glyph-name="zcaron" unicode="&#x17e;" horiz-adv-x="310" 
d="M309 452l-312 -403h199l-14 -49h-262l15 52l311 403h-183l15 49h246zM159 733l58 -99l113 99h57l-141 -139h-67l-64 139h44z" />
    <glyph glyph-name="Ydieresis" unicode="&#x178;" horiz-adv-x="456" 
d="M236 287l-82 -287h-60l83 291l-70 432h63l53 -370l264 370h72zM451 806h-62l26 90h62zM301 806h-62l26 90h62z" />
    <glyph glyph-name="uni00A0" unicode="&#xa0;" horiz-adv-x="218" 
 />
    <glyph glyph-name="exclamdown" unicode="&#xa1;" horiz-adv-x="317" 
d="M221 458h-69l23 79h69zM34 -186h-66l168 552h50z" />
    <glyph glyph-name="cent" unicode="&#xa2;" 
d="M285 467q-5 1 -11 1.5t-12 0.5q-40 0 -67.5 -22.5t-46.5 -56t-30.5 -71.5t-20.5 -69q-10 -35 -20.5 -74t-10.5 -74q0 -19 2.5 -27t6.5 -13zM385 424q0 -18 -2.5 -32t-7.5 -31h-57q4 13 6.5 25.5t2.5 26.5q0 25 -12 37l-212 -410q12 -4 32 -4q27 0 46.5 8.5t33.5 23.5
t23.5 35.5t16.5 43.5h57q-20 -71 -61.5 -114t-118.5 -43q-14 0 -27 1.5t-25 3.5l-46 -84h-39l52 97q-20 11 -31 32.5t-11 50.5q0 40 10.5 81t21.5 79q15 50 32 97.5t42.5 84.5t63.5 59.5t95 22.5q21 0 38 -3l43 80h39l-48 -90q20 -11 31.5 -29.5t11.5 -48.5z" />
    <glyph glyph-name="sterling" unicode="&#xa3;" 
d="M484 644q0 -23 -5 -45t-11 -41h-57q6 17 10 36t4 29q0 31 -17 46t-48 15q-28 0 -49.5 -10.5t-37 -27.5t-26.5 -40t-18 -47l-45 -158h139l-15 -51h-139l-85 -297h229l-15 -53h-360l15 53h71l85 297h-78l15 51h78q5 15 11.5 38t12.5 46q7 26 15 54q12 43 28.5 79.5t40.5 62
t57.5 40t80.5 14.5q22 0 43 -5t36.5 -16.5t25 -28.5t9.5 -41z" />
    <glyph glyph-name="currency" unicode="&#xa4;" 
d="M34 194l51 51q-16 22 -24.5 48t-8.5 56q0 29 8.5 55.5t24.5 48.5l-51 51l33 34l52 -52q21 16 47.5 25t56.5 9t56.5 -9t48.5 -25l52 52l33 -34l-52 -51q16 -22 25 -48.5t9 -55.5q0 -30 -9 -56t-25 -48l52 -51l-33 -34l-52 52q-45 -34 -105 -34t-105 34l-51 -52zM342 350
q0 25 -9 47t-25 38.5t-38 26t-47 9.5t-46.5 -9.5t-37.5 -26t-25 -38.5t-9 -47q0 -26 9 -48t25 -38.5t37.5 -26t46.5 -9.5t47 9.5t38 26t25 38.5t9 48z" />
    <glyph glyph-name="yen" unicode="&#xa5;" 
d="M249 311h124l-13 -46h-144l-23 -80h144l-13 -46h-144l-40 -139h-56l40 139h-141l13 46h141l23 80h-141l13 46h121l-44 412h66l32 -389l265 389h62z" />
    <glyph glyph-name="brokenbar" unicode="&#xa6;" horiz-adv-x="222" 
d="M90 412v250h54v-250h-54zM90 -89v250h54v-250h-54z" />
    <glyph glyph-name="section" unicode="&#xa7;" horiz-adv-x="421" 
d="M417 666q-52 19 -104 19q-18 0 -37 -5.5t-34.5 -16.5t-25.5 -27t-10 -36q0 -28 23.5 -49t52.5 -40q16 -11 31.5 -21.5t28 -22t20 -25t7.5 -28.5q0 -27 -14 -51t-35 -44.5t-45.5 -37t-45.5 -28.5q13 -9 25 -19t21.5 -21.5t15.5 -25.5t6 -31q0 -40 -17.5 -71.5t-46 -53.5
t-63.5 -33.5t-71 -11.5q-30 0 -64 4.5t-63 15.5l16 57q26 -12 58 -19t60 -7q21 0 43 7t40.5 20t30 31.5t11.5 42.5q0 18 -7.5 33t-20 27.5t-28 23t-31.5 21.5q-16 10 -30.5 20.5t-26 22.5t-18.5 25.5t-7 30.5q0 28 15 50t36.5 40t47 32t46.5 25q-24 18 -44 39t-20 54
q0 38 15.5 67t40.5 48.5t57 29.5t66 10q26 0 56 -4.5t55 -10.5zM304 394q0 13 -6 23.5t-15.5 19t-20.5 15.5t-21 13q-14 -7 -34 -18t-38 -25.5t-31 -31t-13 -33.5q0 -24 20 -43t46 -39q13 8 32.5 21t37.5 29t30.5 33.5t12.5 35.5z" />
    <glyph glyph-name="dieresis" unicode="&#xa8;" horiz-adv-x="175" 
d="M271 628h-62l26 90h62zM121 628h-62l26 90h62z" />
    <glyph glyph-name="copyright" unicode="&#xa9;" horiz-adv-x="813" 
d="M537 271q0 -59 -32 -89t-92 -30q-43 0 -69 14.5t-40 41.5t-18.5 65t-4.5 85q0 54 6 94t21.5 66.5t41.5 40t67 13.5q62 0 89.5 -28.5t27.5 -82.5v-7h-54v7q0 30 -14 48t-50 18q-44 0 -61 -38t-17 -128q0 -38 2 -68.5t9.5 -52t22.5 -33t41 -11.5q39 0 54.5 21t15.5 55v7h54
v-8zM780 361q0 -81 -28.5 -150t-78.5 -119t-118.5 -78t-147.5 -28q-80 0 -148 28t-118 78t-78.5 119t-28.5 150t28.5 150t78.5 119.5t118 78.5t148 28q79 0 147.5 -28t118.5 -78.5t78.5 -119.5t28.5 -150zM735 361q0 73 -25 134.5t-68.5 106t-104 69.5t-130.5 25t-130 -25
t-104 -69.5t-69 -106t-25 -134.5q0 -72 25 -133.5t69 -106.5t104 -70.5t130 -25.5t130.5 25.5t104 70.5t68.5 106.5t25 133.5z" />
    <glyph glyph-name="ordfeminine" unicode="&#xaa;" horiz-adv-x="274" 
d="M313 665q0 -15 -4 -34t-10 -38.5t-12 -38t-10 -33.5q-16 -54 -27 -106h-47l8 27q-18 -14 -37 -22.5t-42 -8.5q-29 0 -48.5 17.5t-19.5 46.5q0 42 17.5 67t45 38.5t62 18t67.5 4.5q4 13 7 28.5t3 23.5q0 17 -12.5 22t-27.5 5q-26 0 -40.5 -12t-21.5 -37h-49
q16 47 42.5 68.5t75.5 21.5q14 0 28 -3t25.5 -9.5t19 -18t7.5 -27.5zM238 564q-21 0 -42.5 -2.5t-39.5 -11t-29.5 -24.5t-11.5 -43q0 -32 31 -32q23 0 39.5 10.5t28 27t19 36.5t12.5 39h-7z" />
    <glyph glyph-name="guillemotleft" unicode="&#xab;" horiz-adv-x="369" 
d="M73 250l22 -191h-51l-28 195l139 193h55zM214 250l22 -191h-51l-28 195l139 193h55z" />
    <glyph glyph-name="logicalnot" unicode="&#xac;" horiz-adv-x="529" 
d="M404 162v163h-379v49h433v-212h-54z" />
    <glyph glyph-name="uni00AD" unicode="&#xad;" horiz-adv-x="268" 
d="M196 239h-192l16 57h192z" />
    <glyph glyph-name="registered" unicode="&#xae;" horiz-adv-x="389" 
d="M441 557q0 -38 -14.5 -71.5t-39 -58.5t-58 -39.5t-71.5 -14.5t-71 14.5t-58 40t-39 58.5t-14 71q0 37 14 70.5t39 59t58 40t71 14.5t71.5 -14.5t58 -39.5t39 -58.5t14.5 -71.5zM414 557q0 32 -12.5 60.5t-33.5 50t-49.5 34t-60.5 12.5t-60.5 -12.5t-49.5 -34t-33 -50
t-12 -60.5t12 -60.5t33 -50t49.5 -34t60.5 -12.5t60.5 12.5t49.5 34t33.5 50t12.5 60.5zM311 467q-7 16 -6.5 29.5t-1.5 23.5t-13.5 15t-42.5 5h-28v-73h-31v183h69q13 0 28 -1.5t27.5 -7t20.5 -16t8 -28.5q0 -32 -34 -45q17 -7 22.5 -16.5t7 -20.5t1.5 -23.5t6 -24.5h-33z
M310 597q0 10 -5 15.5t-13 8.5t-17 3.5t-16 0.5h-40v-60h36q9 0 18.5 0.5t17.5 3.5t13.5 9.5t5.5 18.5z" />
    <glyph glyph-name="macron" unicode="&#xaf;" horiz-adv-x="175" 
d="M289 632h-246l13 45h246z" />
    <glyph glyph-name="degree" unicode="&#xb0;" horiz-adv-x="369" 
d="M390 597q0 -29 -11 -54t-29.5 -43.5t-44 -29t-54.5 -10.5t-54.5 10.5t-44 29t-29 43.5t-10.5 54t10.5 54t29 43t44 28.5t54.5 10.5t54.5 -10.5t44 -28.5t29.5 -43t11 -54zM343 597q0 39 -26.5 66.5t-65.5 27.5q-19 0 -35.5 -7.5t-29 -20t-19.5 -30t-7 -36.5
q0 -20 7 -37.5t19.5 -30t29 -20t35.5 -7.5q39 0 65.5 27.5t26.5 67.5z" />
    <glyph glyph-name="plusminus" unicode="&#xb1;" horiz-adv-x="529" 
d="M269 276v-176h-55v176h-189v49h189v176h55v-176h189v-49h-189zM25 0v49h433v-49h-433z" />
    <glyph glyph-name="twosuperior" unicode="&#xb2;" horiz-adv-x="278" 
d="M375 830q0 -38 -23 -73.5t-48 -61.5l-168 -180h153l-13 -46h-214l12 41l203 219q15 16 30.5 40.5t15.5 47.5q0 19 -14 25.5t-30 6.5q-36 0 -53.5 -21t-26.5 -53h-49q13 54 46.5 86t91.5 32q15 0 30.5 -3t28 -10.5t20.5 -19.5t8 -30z" />
    <glyph glyph-name="threesuperior" unicode="&#xb3;" horiz-adv-x="278" 
d="M379 829q0 -42 -21 -82.5t-59 -60.5q28 -15 28 -50q0 -12 -2.5 -24t-5.5 -23q-16 -55 -49.5 -90.5t-94.5 -35.5q-36 0 -59.5 15t-23.5 54q0 13 2.5 25.5t5.5 24.5h50q-2 -9 -4.5 -18t-2.5 -19q0 -22 13.5 -29.5t33.5 -7.5q22 0 38 11t26.5 28.5t16 38t5.5 39.5
q0 16 -7 24t-18 11.5t-24 3t-25 -1.5l13 45q24 0 41.5 3t30 11t21.5 23t16 39q5 15 5 29q0 20 -11 29t-30 9q-37 0 -53.5 -21.5t-24.5 -53.5h-48q10 51 45.5 85t88.5 34q34 0 58.5 -13.5t24.5 -51.5z" />
    <glyph glyph-name="acute" unicode="&#xb4;" horiz-adv-x="175" 
d="M141 594h-52l138 139h81z" />
    <glyph glyph-name="mu" unicode="&#xb5;" horiz-adv-x="574" 
d="M378 109q-1 -4 -4.5 -17.5t-8 -30t-8.5 -33t-7 -28.5h-55l20 71q-29 -38 -62.5 -60t-75.5 -22q-36 0 -56 17.5t-24 39.5l-68 -238h-56l198 696h57l-89 -310q-7 -23 -14 -48t-7 -43q0 -32 16.5 -48t56.5 -16q30 0 55 13t44.5 36t34 53.5t24.5 65.5l85 297h57z" />
    <glyph glyph-name="paragraph" unicode="&#xb6;" horiz-adv-x="517" 
d="M333 0h-54l195 679h-126l-195 -679h-54l98 342q-34 1 -62.5 10.5t-49 27t-32 44t-11.5 62.5q0 47 24 90t66 75.5t99 52t124 19.5h186z" />
    <glyph glyph-name="periodcentered" unicode="&#xb7;" horiz-adv-x="218" 
d="M125 292h-71l22 79h71z" />
    <glyph glyph-name="cedilla" unicode="&#xb8;" horiz-adv-x="175" 
d="M54 -103q0 -25 -12 -44.5t-31 -33t-42.5 -20.5t-45.5 -7q-47 0 -83 20l23 30q14 -7 28.5 -11t30.5 -4q13 0 26.5 4t24 11t17.5 17.5t7 24.5q0 16 -10.5 22.5t-28.5 6.5q-11 0 -21.5 -2.5t-21.5 -5.5l-11 13l74 83h37l-54 -60q18 6 36 6q23 0 40 -12.5t17 -37.5z" />
    <glyph glyph-name="onesuperior" unicode="&#xb9;" horiz-adv-x="278" 
d="M207 469h-48l100 349q-20 -15 -41 -28t-43 -25l16 56q25 14 49.5 30t44.5 36h42z" />
    <glyph glyph-name="ordmasculine" unicode="&#xba;" horiz-adv-x="274" 
d="M319 658q0 -17 -3 -32t-8 -32l-18 -66t-24 -59.5t-40.5 -43t-67.5 -16.5q-34 0 -59 15t-25 52q0 23 5.5 45t11.5 44q9 31 18.5 59.5t25 50.5t39.5 35t62 13q33 0 58 -14t25 -51zM271 644q0 38 -39 38q-25 0 -40.5 -11.5t-26 -29.5t-16.5 -39t-12 -40q-5 -17 -10.5 -36
t-5.5 -37q0 -22 11.5 -31t32.5 -9q22 0 36.5 12t24.5 29.5t16 37.5t11 37q5 19 11.5 39t6.5 40z" />
    <glyph glyph-name="guillemotright" unicode="&#xbb;" horiz-adv-x="369" 
d="M235 256l-22 191h51l28 -195l-139 -193h-55zM94 256l-22 191h51l28 -195l-139 -193h-55z" />
    <glyph glyph-name="onequarter" unicode="&#xbc;" horiz-adv-x="715" 
d="M586 146h47l-13 -45h-47l-29 -101h-46l29 101h-143l14 49l203 268h63zM56 -33h-53l637 777h53zM157 299h-48l100 349q-20 -15 -41 -28t-43 -25l16 56q25 14 49.5 30t44.5 36h42zM445 146h95l57 201z" />
    <glyph glyph-name="onehalf" unicode="&#xbd;" horiz-adv-x="715" 
d="M676 361q0 -38 -23 -73.5t-48 -61.5l-168 -180h153l-13 -46h-214l12 41l203 219q15 16 30.5 40.5t15.5 47.5q0 19 -14 25.5t-30 6.5q-36 0 -53.5 -21t-26.5 -53h-49q13 54 46.5 86t91.5 32q15 0 30.5 -3t28 -10.5t20.5 -19.5t8 -30zM157 299h-48l100 349q-20 -15 -41 -28
t-43 -25l16 56q25 14 49.5 30t44.5 36h42zM36 -33h-53l637 777h53z" />
    <glyph glyph-name="threequarters" unicode="&#xbe;" horiz-adv-x="715" 
d="M87 -33h-53l637 777h53zM586 146h47l-13 -45h-47l-29 -101h-46l29 101h-143l14 49l203 268h63zM319 658q0 -42 -21 -82.5t-59 -60.5q28 -15 28 -50q0 -12 -2.5 -24t-5.5 -23q-16 -55 -49.5 -90.5t-94.5 -35.5q-36 0 -59.5 15t-23.5 54q0 13 2.5 25.5t5.5 24.5h50
q-2 -9 -4.5 -18t-2.5 -19q0 -22 13.5 -29.5t33.5 -7.5q22 0 38 11t26.5 28.5t16 38t5.5 39.5q0 16 -7 24t-18 11.5t-24 3t-25 -1.5l13 45q24 0 41.5 3t30 11t21.5 23t16 39q5 15 5 29q0 20 -11 29t-30 9q-37 0 -53.5 -21.5t-24.5 -53.5h-48q10 51 45.5 85t88.5 34
q34 0 58.5 -13.5t24.5 -51.5zM445 146h95l57 201z" />
    <glyph glyph-name="questiondown" unicode="&#xbf;" horiz-adv-x="369" 
d="M-65 -114q0 20 4 38t10 38q13 45 29.5 75t36 54t41.5 48.5t46 59.5q23 33 37 67.5t25 73.5l8 27h54l-12 -43q-11 -39 -26.5 -76.5t-39.5 -71.5q-23 -32 -41 -53t-34 -42t-31 -47t-31 -68q-6 -16 -9.5 -30t-3.5 -31q0 -53 53 -53q27 0 44.5 9.5t29 25.5t18.5 36.5t13 41.5
h59q-9 -35 -21 -65t-31.5 -52t-47.5 -35t-69 -13q-22 0 -42 4.5t-35.5 15t-24.5 27t-9 39.5zM213 537h69l-23 -79h-69z" />
    <glyph glyph-name="Agrave" unicode="&#xc0;" horiz-adv-x="528" 
d="M359 0v191h-270l-111 -191h-62l421 723h73l8 -723h-59zM358 659l-237 -416h238zM397 782l-91 139h72l65 -139h-46z" />
    <glyph glyph-name="Aacute" unicode="&#xc1;" horiz-adv-x="528" 
d="M359 0v191h-270l-111 -191h-62l421 723h73l8 -723h-59zM358 659l-237 -416h238zM365 782h-52l138 139h81z" />
    <glyph glyph-name="Acircumflex" unicode="&#xc2;" horiz-adv-x="528" 
d="M359 0v191h-270l-111 -191h-62l421 723h73l8 -723h-59zM358 659l-237 -416h238zM471 782l-58 99l-113 -99h-57l141 139h67l64 -139h-44z" />
    <glyph glyph-name="Atilde" unicode="&#xc3;" horiz-adv-x="528" 
d="M359 0v191h-270l-111 -191h-62l421 723h73l8 -723h-59zM358 659l-237 -416h238zM561 895q-6 -17 -16.5 -34t-24 -31t-30.5 -23t-37 -9q-19 0 -35 7t-30 15t-28 15t-30 7q-22 0 -38 -15.5t-24 -33.5h-35q7 18 18 35.5t25.5 31t32.5 22t39 8.5q17 0 31.5 -7t28.5 -15
t28.5 -15t31.5 -7q21 0 34.5 16t21.5 33h37v0z" />
    <glyph glyph-name="Adieresis" unicode="&#xc4;" horiz-adv-x="528" 
d="M359 0v191h-270l-111 -191h-62l421 723h73l8 -723h-59zM358 659l-237 -416h238zM494 806h-62l26 90h62zM344 806h-62l26 90h62z" />
    <glyph glyph-name="Aring" unicode="&#xc5;" horiz-adv-x="528" 
d="M359 0v191h-270l-111 -191h-62l421 723h73l8 -723h-59zM358 659l-237 -416h238zM487 839q0 -37 -25.5 -62.5t-62.5 -25.5t-62.5 25.5t-25.5 62.5t25.5 62.5t62.5 25.5t62.5 -25.5t25.5 -62.5zM457 839q0 24 -17 41t-41 17t-41 -17t-17 -41t17 -41t41 -17t41 17t17 41z
" />
    <glyph glyph-name="AE" unicode="&#xc6;" horiz-adv-x="725" 
d="M768 670h-269l-54 -271h235l-15 -53h-231l-60 -293h228l-15 -53h-285l40 192h-243l-138 -192h-65l522 723h365zM138 245h215l86 425z" />
    <glyph glyph-name="Ccedilla" unicode="&#xc7;" horiz-adv-x="494" 
d="M233 -103q0 -25 -12 -44.5t-31 -33t-42.5 -20.5t-45.5 -7q-47 0 -83 20l23 30q14 -7 28.5 -11t30.5 -4q13 0 26.5 4t24 11t17.5 17.5t7 24.5q0 16 -10.5 22.5t-28.5 6.5q-11 0 -21.5 -2.5t-21.5 -5.5l-11 13l61 69q-59 4 -96 32.5t-37 94.5q0 28 5 59t12.5 62.5t16.5 62
t17 57.5q12 42 25 87t29.5 87.5t38 80t52 66t71.5 45t95 16.5q27 0 53 -5.5t46.5 -19t33 -35.5t12.5 -54q0 -26 -5.5 -49t-13.5 -47h-62q6 20 11 40t5 41q0 43 -25.5 59t-64.5 16q-40 0 -70.5 -16t-54 -42.5t-41 -60.5t-30.5 -70.5t-22.5 -72.5t-18.5 -66
q-7 -24 -15.5 -53.5t-16 -60t-13 -60t-5.5 -54.5q0 -48 23.5 -68.5t71.5 -20.5q39 0 67 11.5t49 31.5t35 48.5t24 62.5q1 3 1.5 6.5t2.5 6.5h63q-14 -47 -33.5 -86t-47 -67.5t-65 -45.5t-87.5 -20l-40 -45q18 6 36 6q23 0 40 -12.5t17 -37.5z" />
    <glyph glyph-name="Egrave" unicode="&#xc8;" horiz-adv-x="432" 
d="M479 670h-250l-78 -274h239l-15 -51h-239l-84 -292h257l-15 -53h-317l207 723h310zM365 782l-91 139h72l65 -139h-46z" />
    <glyph glyph-name="Eacute" unicode="&#xc9;" horiz-adv-x="432" 
d="M479 670h-250l-78 -274h239l-15 -51h-239l-84 -292h257l-15 -53h-317l207 723h310zM333 782h-52l138 139h81z" />
    <glyph glyph-name="Ecircumflex" unicode="&#xca;" horiz-adv-x="432" 
d="M479 670h-250l-78 -274h239l-15 -51h-239l-84 -292h257l-15 -53h-317l207 723h310zM439 782l-58 99l-113 -99h-57l141 139h67l64 -139h-44z" />
    <glyph glyph-name="Edieresis" unicode="&#xcb;" horiz-adv-x="432" 
d="M479 670h-250l-78 -274h239l-15 -51h-239l-84 -292h257l-15 -53h-317l207 723h310zM462 806h-62l26 90h62zM312 806h-62l26 90h62z" />
    <glyph glyph-name="Igrave" unicode="&#xcc;" horiz-adv-x="220" 
d="M37 0h-60l207 723h60zM242 782l-91 139h72l65 -139h-46z" />
    <glyph glyph-name="Iacute" unicode="&#xcd;" horiz-adv-x="220" 
d="M37 0h-60l207 723h60zM210 782h-52l138 139h81z" />
    <glyph glyph-name="Icircumflex" unicode="&#xce;" horiz-adv-x="220" 
d="M37 0h-60l207 723h60zM306 782l-58 99l-113 -99h-57l141 139h67l64 -139h-44z" />
    <glyph glyph-name="Idieresis" unicode="&#xcf;" horiz-adv-x="220" 
d="M37 0h-60l207 723h60zM339 806h-62l26 90h62zM189 806h-62l26 90h62z" />
    <glyph glyph-name="Eth" unicode="&#xd0;" horiz-adv-x="535" 
d="M524 583q0 -26 -4.5 -54.5t-11 -57t-14.5 -56t-15 -52.5q-14 -47 -27.5 -92t-31.5 -85.5t-41 -74.5t-55.5 -58.5t-76 -38.5t-101.5 -14h-169l108 378h-71l14 45h70l86 300h159q35 0 67.5 -6.5t58 -22.5t40.5 -43t15 -68zM457 573q0 30 -9 49.5t-25.5 30.5t-39 15t-49.5 4
h-104l-71 -249h171l-15 -45h-169l-94 -326h116q62 0 103.5 32t69 80t44.5 103.5t31 103.5q6 22 13.5 48t13.5 52.5t10 52.5t4 49z" />
    <glyph glyph-name="Ntilde" unicode="&#xd1;" horiz-adv-x="593" 
d="M410 0h-89l-96 670l-191 -670h-57l207 723h89l97 -670l190 670h57zM586 895q-6 -17 -16.5 -34t-24 -31t-30.5 -23t-37 -9q-19 0 -35 7t-30 15t-28 15t-30 7q-22 0 -38 -15.5t-24 -33.5h-35q7 18 18 35.5t25.5 31t32.5 22t39 8.5q17 0 31.5 -7t28.5 -15t28.5 -15t31.5 -7
q21 0 34.5 16t21.5 33h37v0z" />
    <glyph glyph-name="Ograve" unicode="&#xd2;" horiz-adv-x="537" 
d="M527 600q0 -27 -6.5 -65.5t-17 -82.5t-24.5 -91t-29 -90.5t-30 -80.5t-27 -61q-35 -68 -88 -105.5t-135 -37.5q-76 0 -117.5 32.5t-41.5 110.5q0 28 5 58t12.5 59.5t16.5 58.5t17 56q24 84 48.5 153t58.5 118.5t81.5 77t118.5 27.5q35 0 64 -7.5t50 -23.5t32.5 -42.5
t11.5 -63.5zM460 589q0 50 -24.5 73t-73.5 23q-32 0 -58 -10t-47 -28t-37 -42t-29 -51q-10 -21 -22 -54t-25 -72t-25 -82t-21.5 -82.5t-15 -73.5t-5.5 -56q0 -51 24.5 -73.5t75.5 -22.5q30 0 54.5 9t44 24.5t35 37t29.5 46.5q11 20 24 54t26.5 74.5t26 85t22 86t15.5 76.5
t6 58zM382 782l-91 139h72l65 -139h-46z" />
    <glyph glyph-name="Oacute" unicode="&#xd3;" horiz-adv-x="537" 
d="M527 600q0 -27 -6.5 -65.5t-17 -82.5t-24.5 -91t-29 -90.5t-30 -80.5t-27 -61q-35 -68 -88 -105.5t-135 -37.5q-76 0 -117.5 32.5t-41.5 110.5q0 28 5 58t12.5 59.5t16.5 58.5t17 56q24 84 48.5 153t58.5 118.5t81.5 77t118.5 27.5q35 0 64 -7.5t50 -23.5t32.5 -42.5
t11.5 -63.5zM460 589q0 50 -24.5 73t-73.5 23q-32 0 -58 -10t-47 -28t-37 -42t-29 -51q-10 -21 -22 -54t-25 -72t-25 -82t-21.5 -82.5t-15 -73.5t-5.5 -56q0 -51 24.5 -73.5t75.5 -22.5q30 0 54.5 9t44 24.5t35 37t29.5 46.5q11 20 24 54t26.5 74.5t26 85t22 86t15.5 76.5
t6 58zM370 782h-52l138 139h81z" />
    <glyph glyph-name="Ocircumflex" unicode="&#xd4;" horiz-adv-x="537" 
d="M527 600q0 -27 -6.5 -65.5t-17 -82.5t-24.5 -91t-29 -90.5t-30 -80.5t-27 -61q-35 -68 -88 -105.5t-135 -37.5q-76 0 -117.5 32.5t-41.5 110.5q0 28 5 58t12.5 59.5t16.5 58.5t17 56q24 84 48.5 153t58.5 118.5t81.5 77t118.5 27.5q35 0 64 -7.5t50 -23.5t32.5 -42.5
t11.5 -63.5zM460 589q0 50 -24.5 73t-73.5 23q-32 0 -58 -10t-47 -28t-37 -42t-29 -51q-10 -21 -22 -54t-25 -72t-25 -82t-21.5 -82.5t-15 -73.5t-5.5 -56q0 -51 24.5 -73.5t75.5 -22.5q30 0 54.5 9t44 24.5t35 37t29.5 46.5q11 20 24 54t26.5 74.5t26 85t22 86t15.5 76.5
t6 58zM476 782l-58 99l-113 -99h-57l141 139h67l64 -139h-44z" />
    <glyph glyph-name="Otilde" unicode="&#xd5;" horiz-adv-x="537" 
d="M527 600q0 -27 -6.5 -65.5t-17 -82.5t-24.5 -91t-29 -90.5t-30 -80.5t-27 -61q-35 -68 -88 -105.5t-135 -37.5q-76 0 -117.5 32.5t-41.5 110.5q0 28 5 58t12.5 59.5t16.5 58.5t17 56q24 84 48.5 153t58.5 118.5t81.5 77t118.5 27.5q35 0 64 -7.5t50 -23.5t32.5 -42.5
t11.5 -63.5zM460 589q0 50 -24.5 73t-73.5 23q-32 0 -58 -10t-47 -28t-37 -42t-29 -51q-10 -21 -22 -54t-25 -72t-25 -82t-21.5 -82.5t-15 -73.5t-5.5 -56q0 -51 24.5 -73.5t75.5 -22.5q30 0 54.5 9t44 24.5t35 37t29.5 46.5q11 20 24 54t26.5 74.5t26 85t22 86t15.5 76.5
t6 58zM556 895q-6 -17 -16.5 -34t-24 -31t-30.5 -23t-37 -9q-19 0 -35 7t-30 15t-28 15t-30 7q-22 0 -38 -15.5t-24 -33.5h-35q7 18 18 35.5t25.5 31t32.5 22t39 8.5q17 0 31.5 -7t28.5 -15t28.5 -15t31.5 -7q21 0 34.5 16t21.5 33h37v0z" />
    <glyph glyph-name="Odieresis" unicode="&#xd6;" horiz-adv-x="537" 
d="M527 600q0 -27 -6.5 -65.5t-17 -82.5t-24.5 -91t-29 -90.5t-30 -80.5t-27 -61q-35 -68 -88 -105.5t-135 -37.5q-76 0 -117.5 32.5t-41.5 110.5q0 28 5 58t12.5 59.5t16.5 58.5t17 56q24 84 48.5 153t58.5 118.5t81.5 77t118.5 27.5q35 0 64 -7.5t50 -23.5t32.5 -42.5
t11.5 -63.5zM460 589q0 50 -24.5 73t-73.5 23q-32 0 -58 -10t-47 -28t-37 -42t-29 -51q-10 -21 -22 -54t-25 -72t-25 -82t-21.5 -82.5t-15 -73.5t-5.5 -56q0 -51 24.5 -73.5t75.5 -22.5q30 0 54.5 9t44 24.5t35 37t29.5 46.5q11 20 24 54t26.5 74.5t26 85t22 86t15.5 76.5
t6 58zM489 806h-62l26 90h62zM339 806h-62l26 90h62z" />
    <glyph glyph-name="multiply" unicode="&#xd7;" horiz-adv-x="529" 
d="M277 241l159 -159l-35 -36l-159 159l-159 -158l-36 35l159 159l-159 159l36 36l159 -159l159 159l35 -36z" />
    <glyph glyph-name="Oslash" unicode="&#xd8;" horiz-adv-x="537" 
d="M522 643q2 -10 3.5 -20.5t1.5 -22.5q0 -27 -6.5 -65.5t-17 -82.5t-24.5 -91t-29 -90.5t-30 -80.5t-27 -61q-35 -68 -88 -105.5t-135 -37.5q-54 0 -90.5 15.5t-53.5 51.5l-72 -85l-32 18l91 108q-2 8 -2 16.5v18.5q0 28 5 58t12.5 59.5t16.5 58.5t17 56q24 84 48.5 153
t58.5 118.5t81.5 77t118.5 27.5q48 0 84 -13.5t55 -45.5l70 82l26 -20zM457 618q-13 67 -95 67q-32 0 -58 -10t-47 -28t-37 -42t-29 -51t-29.5 -74.5t-32.5 -102.5t-29 -109.5t-19 -94.5zM78 116q5 -42 29 -60t70 -18q30 0 54.5 9t44 24.5t35 37t29.5 46.5q10 19 22.5 49.5
t25 67.5t24 78t21.5 80t17 74.5t9 62.5z" />
    <glyph glyph-name="Ugrave" unicode="&#xd9;" horiz-adv-x="551" 
d="M441 240q-17 -57 -36 -104t-48.5 -80t-71.5 -51.5t-104 -18.5q-33 0 -62.5 6t-51 20.5t-34.5 39t-13 60.5q0 34 7 67.5t16 65.5l137 478h60l-137 -479q-8 -27 -15 -61t-7 -63q0 -47 30.5 -64t73.5 -17q46 0 78.5 16t54.5 43.5t36.5 64t26.5 77.5l138 483h60zM404 782
l-91 139h72l65 -139h-46z" />
    <glyph glyph-name="Uacute" unicode="&#xda;" horiz-adv-x="551" 
d="M441 240q-17 -57 -36 -104t-48.5 -80t-71.5 -51.5t-104 -18.5q-33 0 -62.5 6t-51 20.5t-34.5 39t-13 60.5q0 34 7 67.5t16 65.5l137 478h60l-137 -479q-8 -27 -15 -61t-7 -63q0 -47 30.5 -64t73.5 -17q46 0 78.5 16t54.5 43.5t36.5 64t26.5 77.5l138 483h60zM382 782h-52
l138 139h81z" />
    <glyph glyph-name="Ucircumflex" unicode="&#xdb;" horiz-adv-x="551" 
d="M441 240q-17 -57 -36 -104t-48.5 -80t-71.5 -51.5t-104 -18.5q-33 0 -62.5 6t-51 20.5t-34.5 39t-13 60.5q0 34 7 67.5t16 65.5l137 478h60l-137 -479q-8 -27 -15 -61t-7 -63q0 -47 30.5 -64t73.5 -17q46 0 78.5 16t54.5 43.5t36.5 64t26.5 77.5l138 483h60zM478 782
l-58 99l-113 -99h-57l141 139h67l64 -139h-44z" />
    <glyph glyph-name="Udieresis" unicode="&#xdc;" horiz-adv-x="551" 
d="M441 240q-17 -57 -36 -104t-48.5 -80t-71.5 -51.5t-104 -18.5q-33 0 -62.5 6t-51 20.5t-34.5 39t-13 60.5q0 34 7 67.5t16 65.5l137 478h60l-137 -479q-8 -27 -15 -61t-7 -63q0 -47 30.5 -64t73.5 -17q46 0 78.5 16t54.5 43.5t36.5 64t26.5 77.5l138 483h60zM501 806h-62
l26 90h62zM351 806h-62l26 90h62z" />
    <glyph glyph-name="Yacute" unicode="&#xdd;" horiz-adv-x="456" 
d="M236 287l-82 -287h-60l83 291l-70 432h63l53 -370l264 370h72zM332 782h-52l138 139h81z" />
    <glyph glyph-name="Thorn" unicode="&#xde;" horiz-adv-x="454" 
d="M438 455q0 -22 -3.5 -42t-9.5 -40q-19 -65 -43 -104t-55.5 -59.5t-71.5 -27t-91 -6.5h-77l-50 -176h-60l207 723h60l-46 -161h69q30 0 60.5 -3.5t55 -15t40 -32.5t15.5 -56zM372 437q0 24 -10 38.5t-25.5 22t-35.5 9.5t-39 2h-79l-80 -280h70q42 0 72 7.5t51.5 24
t36.5 44t27 67.5q5 17 8.5 32.5t3.5 32.5z" />
    <glyph glyph-name="germandbls" unicode="&#xdf;" horiz-adv-x="460" 
d="M451 640q0 -34 -13 -62.5t-32.5 -53.5t-42 -47.5t-42 -43t-32.5 -40.5t-13 -41q0 -23 16 -42.5t35.5 -40.5t35.5 -46t16 -58q0 -38 -13.5 -70t-37.5 -55.5t-56.5 -36.5t-69.5 -13q-21 0 -40.5 4.5t-34.5 14t-24 25.5t-9 39q0 27 8 54h56q-2 -10 -4 -19.5t-2 -19.5
q0 -28 16 -40t42 -12q22 0 41.5 10.5t34 27t22.5 38t8 42.5q0 29 -15.5 51t-34.5 43t-34.5 44t-15.5 53q0 29 13 54.5t32.5 48t42.5 43.5t42.5 42.5t32.5 44.5t13 50q0 15 -6.5 26t-17 17.5t-23.5 9.5t-26 3q-31 0 -54 -12t-40 -31.5t-28.5 -44.5t-19.5 -52l-156 -544h-56
l158 552q11 39 28.5 71t42 55.5t57 36.5t74.5 13q21 0 43 -4.5t40.5 -14.5t30.5 -27t12 -42z" />
    <glyph glyph-name="agrave" unicode="&#xe0;" horiz-adv-x="433" 
d="M377 427q0 -21 -3.5 -40t-9.5 -39q-25 -88 -50 -174t-47 -174h-55l20 70q-35 -38 -69.5 -58t-81.5 -20q-49 0 -79 25.5t-30 73.5q0 67 25 109t67 66t97 32.5t115 8.5h19q7 26 14.5 52.5t7.5 52.5q0 32 -18.5 44t-48.5 12q-48 0 -80 -22.5t-43 -62.5h-58q20 66 68.5 99
t118.5 33q25 0 47 -4.5t38.5 -15t26 -27t9.5 -41.5zM263 261q-44 0 -85 -6.5t-73 -24.5t-51 -49t-19 -80q0 -28 15.5 -45t45.5 -17q46 0 77 21.5t52 54t34 71.5t23 75h-19zM281 594l-91 139h72l65 -139h-46z" />
    <glyph glyph-name="aacute" unicode="&#xe1;" horiz-adv-x="433" 
d="M377 427q0 -21 -3.5 -40t-9.5 -39q-25 -88 -50 -174t-47 -174h-55l20 70q-35 -38 -69.5 -58t-81.5 -20q-49 0 -79 25.5t-30 73.5q0 67 25 109t67 66t97 32.5t115 8.5h19q7 26 14.5 52.5t7.5 52.5q0 32 -18.5 44t-48.5 12q-48 0 -80 -22.5t-43 -62.5h-58q20 66 68.5 99
t118.5 33q25 0 47 -4.5t38.5 -15t26 -27t9.5 -41.5zM263 261q-44 0 -85 -6.5t-73 -24.5t-51 -49t-19 -80q0 -28 15.5 -45t45.5 -17q46 0 77 21.5t52 54t34 71.5t23 75h-19zM248 594h-52l138 139h81z" />
    <glyph glyph-name="acircumflex" unicode="&#xe2;" horiz-adv-x="433" 
d="M377 427q0 -21 -3.5 -40t-9.5 -39q-25 -88 -50 -174t-47 -174h-55l20 70q-35 -38 -69.5 -58t-81.5 -20q-49 0 -79 25.5t-30 73.5q0 67 25 109t67 66t97 32.5t115 8.5h19q7 26 14.5 52.5t7.5 52.5q0 32 -18.5 44t-48.5 12q-48 0 -80 -22.5t-43 -62.5h-58q20 66 68.5 99
t118.5 33q25 0 47 -4.5t38.5 -15t26 -27t9.5 -41.5zM263 261q-44 0 -85 -6.5t-73 -24.5t-51 -49t-19 -80q0 -28 15.5 -45t45.5 -17q46 0 77 21.5t52 54t34 71.5t23 75h-19zM356 594l-58 99l-113 -99h-57l141 139h67l64 -139h-44z" />
    <glyph glyph-name="atilde" unicode="&#xe3;" horiz-adv-x="433" 
d="M377 427q0 -21 -3.5 -40t-9.5 -39q-25 -88 -50 -174t-47 -174h-55l20 70q-35 -38 -69.5 -58t-81.5 -20q-49 0 -79 25.5t-30 73.5q0 67 25 109t67 66t97 32.5t115 8.5h19q7 26 14.5 52.5t7.5 52.5q0 32 -18.5 44t-48.5 12q-48 0 -80 -22.5t-43 -62.5h-58q20 66 68.5 99
t118.5 33q25 0 47 -4.5t38.5 -15t26 -27t9.5 -41.5zM263 261q-44 0 -85 -6.5t-73 -24.5t-51 -49t-19 -80q0 -28 15.5 -45t45.5 -17q46 0 77 21.5t52 54t34 71.5t23 75h-19zM444 707q-6 -17 -16.5 -34t-24 -31t-30.5 -23t-37 -9q-19 0 -35 7t-30 15t-28 15t-30 7
q-22 0 -38 -15.5t-24 -33.5h-35q7 18 18 35.5t25.5 31t32.5 22t39 8.5q17 0 31.5 -7t28.5 -15t28.5 -15t31.5 -7q21 0 34.5 16t21.5 33h37v0z" />
    <glyph glyph-name="adieresis" unicode="&#xe4;" horiz-adv-x="433" 
d="M377 427q0 -21 -3.5 -40t-9.5 -39q-25 -88 -50 -174t-47 -174h-55l20 70q-35 -38 -69.5 -58t-81.5 -20q-49 0 -79 25.5t-30 73.5q0 67 25 109t67 66t97 32.5t115 8.5h19q7 26 14.5 52.5t7.5 52.5q0 32 -18.5 44t-48.5 12q-48 0 -80 -22.5t-43 -62.5h-58q20 66 68.5 99
t118.5 33q25 0 47 -4.5t38.5 -15t26 -27t9.5 -41.5zM263 261q-44 0 -85 -6.5t-73 -24.5t-51 -49t-19 -80q0 -28 15.5 -45t45.5 -17q46 0 77 21.5t52 54t34 71.5t23 75h-19zM378 628h-62l26 90h62zM228 628h-62l26 90h62z" />
    <glyph glyph-name="aring" unicode="&#xe5;" horiz-adv-x="433" 
d="M377 427q0 -21 -3.5 -40t-9.5 -39q-25 -88 -50 -174t-47 -174h-55l20 70q-35 -38 -69.5 -58t-81.5 -20q-49 0 -79 25.5t-30 73.5q0 67 25 109t67 66t97 32.5t115 8.5h19q7 26 14.5 52.5t7.5 52.5q0 32 -18.5 44t-48.5 12q-48 0 -80 -22.5t-43 -62.5h-58q20 66 68.5 99
t118.5 33q25 0 47 -4.5t38.5 -15t26 -27t9.5 -41.5zM263 261q-44 0 -85 -6.5t-73 -24.5t-51 -49t-19 -80q0 -28 15.5 -45t45.5 -17q46 0 77 21.5t52 54t34 71.5t23 75h-19zM370 671q0 -37 -25.5 -62.5t-62.5 -25.5t-62.5 25.5t-25.5 62.5t25.5 62.5t62.5 25.5t62.5 -25.5
t25.5 -62.5zM340 671q0 24 -17 41t-41 17t-41 -17t-17 -41t17 -41t41 -17t41 17t17 41z" />
    <glyph glyph-name="ae" unicode="&#xe6;" horiz-adv-x="673" 
d="M631 413q0 -42 -11.5 -82t-22.5 -80h-270q-9 -32 -18 -66.5t-9 -67.5q0 -79 77 -79q58 0 88.5 31.5t45.5 84.5h56q-23 -76 -69 -120t-126 -44q-51 0 -83.5 23t-39.5 74q-28 -42 -69.5 -69.5t-93.5 -27.5q-24 0 -46 7t-38.5 20t-26 32.5t-9.5 44.5q0 62 27 101.5t70 62
t96 31t106 8.5h18q8 25 15.5 52t7.5 53q0 65 -68 65q-94 0 -125 -87h-59q9 32 27 57t42.5 42.5t54.5 26.5t62 9q20 0 39.5 -3t36 -11.5t28 -23.5t16.5 -39q30 36 65.5 56.5t83.5 20.5q52 0 87 -23.5t35 -78.5zM574 396q0 74 -75 74q-36 0 -61.5 -16t-44.5 -41.5t-31.5 -56
t-21.5 -59.5h214q7 24 13.5 48.5t6.5 50.5zM244 251q-38 0 -77 -5.5t-70.5 -22t-52 -45.5t-20.5 -76q0 -33 20.5 -47.5t51.5 -14.5q43 0 72 20.5t48.5 51.5t32 68.5t21.5 70.5h-26z" />
    <glyph glyph-name="ccedilla" unicode="&#xe7;" horiz-adv-x="385" 
d="M173 -103q0 -25 -12 -44.5t-31 -33t-42.5 -20.5t-45.5 -7q-47 0 -83 20l23 30q14 -7 28.5 -11t30.5 -4q13 0 26.5 4t24 11t17.5 17.5t7 24.5q0 16 -10.5 22.5t-28.5 6.5q-11 0 -21.5 -2.5t-21.5 -5.5l-11 13l65 73q-45 5 -73.5 26.5t-28.5 73.5q0 40 10.5 81t21.5 79
q15 53 33 101t44.5 84t64 57.5t91.5 21.5q53 0 84 -20t31 -71q0 -18 -2.5 -32t-7.5 -31h-57q4 13 6.5 25.5t2.5 26.5q0 32 -18 44t-47 12q-40 0 -67.5 -22.5t-46.5 -56t-30.5 -71.5t-20.5 -69q-10 -35 -20 -73t-10 -75q0 -36 16.5 -51t51.5 -15q27 0 46.5 8.5t33.5 23.5
t23.5 35.5t16.5 43.5h57q-10 -34 -24 -62t-34.5 -48.5t-47.5 -32.5t-63 -13l-44 -50q18 6 36 6q23 0 40 -12.5t17 -37.5z" />
    <glyph glyph-name="egrave" unicode="&#xe8;" horiz-adv-x="425" 
d="M383 408q0 -42 -12.5 -83.5t-23.5 -81.5h-273q-10 -32 -20 -66t-10 -68q0 -38 19.5 -55.5t57.5 -17.5q30 0 52.5 8.5t39 24t28 37t20.5 48.5h57q-13 -39 -30 -69.5t-40.5 -51.5t-55.5 -32t-74 -11q-28 0 -52 6t-42 19t-28 33.5t-10 50.5q0 32 7.5 63.5t15.5 61.5
q14 51 31 102.5t44 93.5t68.5 68.5t105.5 26.5q54 0 89.5 -25t35.5 -82zM323 395q0 35 -17 54.5t-54 19.5q-39 0 -66.5 -16t-46 -42t-30.5 -58t-21 -64h213q8 26 15 52.5t7 53.5zM271 594l-91 139h72l65 -139h-46z" />
    <glyph glyph-name="eacute" unicode="&#xe9;" horiz-adv-x="425" 
d="M383 408q0 -42 -12.5 -83.5t-23.5 -81.5h-273q-10 -32 -20 -66t-10 -68q0 -38 19.5 -55.5t57.5 -17.5q30 0 52.5 8.5t39 24t28 37t20.5 48.5h57q-13 -39 -30 -69.5t-40.5 -51.5t-55.5 -32t-74 -11q-28 0 -52 6t-42 19t-28 33.5t-10 50.5q0 32 7.5 63.5t15.5 61.5
q14 51 31 102.5t44 93.5t68.5 68.5t105.5 26.5q54 0 89.5 -25t35.5 -82zM323 395q0 35 -17 54.5t-54 19.5q-39 0 -66.5 -16t-46 -42t-30.5 -58t-21 -64h213q8 26 15 52.5t7 53.5zM268 594h-52l138 139h81z" />
    <glyph glyph-name="ecircumflex" unicode="&#xea;" horiz-adv-x="425" 
d="M383 408q0 -42 -12.5 -83.5t-23.5 -81.5h-273q-10 -32 -20 -66t-10 -68q0 -38 19.5 -55.5t57.5 -17.5q30 0 52.5 8.5t39 24t28 37t20.5 48.5h57q-13 -39 -30 -69.5t-40.5 -51.5t-55.5 -32t-74 -11q-28 0 -52 6t-42 19t-28 33.5t-10 50.5q0 32 7.5 63.5t15.5 61.5
q14 51 31 102.5t44 93.5t68.5 68.5t105.5 26.5q54 0 89.5 -25t35.5 -82zM323 395q0 35 -17 54.5t-54 19.5q-39 0 -66.5 -16t-46 -42t-30.5 -58t-21 -64h213q8 26 15 52.5t7 53.5zM356 594l-58 99l-113 -99h-57l141 139h67l64 -139h-44z" />
    <glyph glyph-name="edieresis" unicode="&#xeb;" horiz-adv-x="425" 
d="M383 408q0 -42 -12.5 -83.5t-23.5 -81.5h-273q-10 -32 -20 -66t-10 -68q0 -38 19.5 -55.5t57.5 -17.5q30 0 52.5 8.5t39 24t28 37t20.5 48.5h57q-13 -39 -30 -69.5t-40.5 -51.5t-55.5 -32t-74 -11q-28 0 -52 6t-42 19t-28 33.5t-10 50.5q0 32 7.5 63.5t15.5 61.5
q14 51 31 102.5t44 93.5t68.5 68.5t105.5 26.5q54 0 89.5 -25t35.5 -82zM323 395q0 35 -17 54.5t-54 19.5q-39 0 -66.5 -16t-46 -42t-30.5 -58t-21 -64h213q8 26 15 52.5t7 53.5zM378 628h-62l26 90h62zM228 628h-62l26 90h62z" />
    <glyph glyph-name="igrave" unicode="&#xec;" horiz-adv-x="193" 
d="M22 0h-57l145 504h57zM169 594l-91 139h72l65 -139h-46z" />
    <glyph glyph-name="iacute" unicode="&#xed;" horiz-adv-x="193" 
d="M22 0h-57l145 504h57zM145 594h-52l138 139h81z" />
    <glyph glyph-name="icircumflex" unicode="&#xee;" horiz-adv-x="193" 
d="M22 0h-57l145 504h57zM244 594l-58 99l-113 -99h-57l141 139h67l64 -139h-44z" />
    <glyph glyph-name="idieresis" unicode="&#xef;" horiz-adv-x="193" 
d="M22 0h-57l145 504h57zM275 628h-62l26 90h62zM125 628h-62l26 90h62z" />
    <glyph glyph-name="eth" unicode="&#xf0;" horiz-adv-x="429" 
d="M368 668q23 -29 32.5 -64.5t9.5 -71.5q0 -62 -17 -128t-34 -126q-15 -51 -31.5 -102.5t-42.5 -93t-66.5 -67t-101.5 -25.5q-27 0 -51 5t-42 17t-28 32t-10 49q0 38 10.5 80.5t21.5 78.5q14 48 31 95t44 84t66.5 60t99.5 23q28 0 53 -9.5t36 -38.5q5 28 5 51q0 69 -42 123
l-106 -53l-20 30l100 49q-18 11 -36 21.5t-38 18.5l52 37q45 -17 79 -48l100 49l20 -28zM321 389q0 76 -73 76q-44 0 -73.5 -23.5t-49 -58t-31.5 -74.5t-21 -73q-8 -30 -17.5 -65t-9.5 -66q0 -37 19 -53t55 -16q43 0 71.5 20t47 50.5t30 67.5t21.5 71q10 33 20.5 71t10.5 73
z" />
    <glyph glyph-name="ntilde" unicode="&#xf1;" horiz-adv-x="454" 
d="M398 427q0 -35 -11 -71l-102 -356h-57l90 314q6 22 13 45.5t7 46.5q0 32 -16.5 45.5t-47.5 13.5q-37 0 -64.5 -15t-47.5 -39.5t-33 -54.5t-22 -60l-85 -296h-57l109 379q9 31 17 62t15 63h55l-19 -69q29 36 64 58t82 22q23 0 43 -4.5t35 -15t23.5 -27.5t8.5 -41zM462 707
q-6 -17 -16.5 -34t-24 -31t-30.5 -23t-37 -9q-19 0 -35 7t-30 15t-28 15t-30 7q-22 0 -38 -15.5t-24 -33.5h-35q7 18 18 35.5t25.5 31t32.5 22t39 8.5q17 0 31.5 -7t28.5 -15t28.5 -15t31.5 -7q21 0 34.5 16t21.5 33h37v0z" />
    <glyph glyph-name="ograve" unicode="&#xf2;" horiz-adv-x="429" 
d="M382 409q0 -42 -11 -81.5t-22 -78.5q-14 -49 -30.5 -95.5t-42 -83t-64 -58.5t-98.5 -22q-55 0 -91.5 24t-36.5 83q0 38 9.5 75.5t20.5 74.5q14 49 31 97t43.5 86t66.5 61.5t100 23.5q27 0 49.5 -5.5t39.5 -18.5t26.5 -33t9.5 -49zM322 395q0 74 -73 74q-42 0 -70 -20
t-47 -50t-30.5 -66t-21.5 -69q-11 -35 -23.5 -77.5t-12.5 -79.5q0 -38 20 -54.5t57 -16.5q46 0 75 23t47.5 57.5t30 75t21.5 74.5q9 30 18 63.5t9 65.5zM269 594l-91 139h72l65 -139h-46z" />
    <glyph glyph-name="oacute" unicode="&#xf3;" horiz-adv-x="429" 
d="M382 409q0 -42 -11 -81.5t-22 -78.5q-14 -49 -30.5 -95.5t-42 -83t-64 -58.5t-98.5 -22q-55 0 -91.5 24t-36.5 83q0 38 9.5 75.5t20.5 74.5q14 49 31 97t43.5 86t66.5 61.5t100 23.5q27 0 49.5 -5.5t39.5 -18.5t26.5 -33t9.5 -49zM322 395q0 74 -73 74q-42 0 -70 -20
t-47 -50t-30.5 -66t-21.5 -69q-11 -35 -23.5 -77.5t-12.5 -79.5q0 -38 20 -54.5t57 -16.5q46 0 75 23t47.5 57.5t30 75t21.5 74.5q9 30 18 63.5t9 65.5zM266 594h-52l138 139h81z" />
    <glyph glyph-name="ocircumflex" unicode="&#xf4;" horiz-adv-x="429" 
d="M382 409q0 -42 -11 -81.5t-22 -78.5q-14 -49 -30.5 -95.5t-42 -83t-64 -58.5t-98.5 -22q-55 0 -91.5 24t-36.5 83q0 38 9.5 75.5t20.5 74.5q14 49 31 97t43.5 86t66.5 61.5t100 23.5q27 0 49.5 -5.5t39.5 -18.5t26.5 -33t9.5 -49zM322 395q0 74 -73 74q-42 0 -70 -20
t-47 -50t-30.5 -66t-21.5 -69q-11 -35 -23.5 -77.5t-12.5 -79.5q0 -38 20 -54.5t57 -16.5q46 0 75 23t47.5 57.5t30 75t21.5 74.5q9 30 18 63.5t9 65.5zM354 594l-58 99l-113 -99h-57l141 139h67l64 -139h-44z" />
    <glyph glyph-name="otilde" unicode="&#xf5;" horiz-adv-x="429" 
d="M382 409q0 -42 -11 -81.5t-22 -78.5q-14 -49 -30.5 -95.5t-42 -83t-64 -58.5t-98.5 -22q-55 0 -91.5 24t-36.5 83q0 38 9.5 75.5t20.5 74.5q14 49 31 97t43.5 86t66.5 61.5t100 23.5q27 0 49.5 -5.5t39.5 -18.5t26.5 -33t9.5 -49zM322 395q0 74 -73 74q-42 0 -70 -20
t-47 -50t-30.5 -66t-21.5 -69q-11 -35 -23.5 -77.5t-12.5 -79.5q0 -38 20 -54.5t57 -16.5q46 0 75 23t47.5 57.5t30 75t21.5 74.5q9 30 18 63.5t9 65.5zM442 707q-6 -17 -16.5 -34t-24 -31t-30.5 -23t-37 -9q-19 0 -35 7t-30 15t-28 15t-30 7q-22 0 -38 -15.5t-24 -33.5h-35
q7 18 18 35.5t25.5 31t32.5 22t39 8.5q17 0 31.5 -7t28.5 -15t28.5 -15t31.5 -7q21 0 34.5 16t21.5 33h37v0z" />
    <glyph glyph-name="odieresis" unicode="&#xf6;" horiz-adv-x="429" 
d="M382 409q0 -42 -11 -81.5t-22 -78.5q-14 -49 -30.5 -95.5t-42 -83t-64 -58.5t-98.5 -22q-55 0 -91.5 24t-36.5 83q0 38 9.5 75.5t20.5 74.5q14 49 31 97t43.5 86t66.5 61.5t100 23.5q27 0 49.5 -5.5t39.5 -18.5t26.5 -33t9.5 -49zM322 395q0 74 -73 74q-42 0 -70 -20
t-47 -50t-30.5 -66t-21.5 -69q-11 -35 -23.5 -77.5t-12.5 -79.5q0 -38 20 -54.5t57 -16.5q46 0 75 23t47.5 57.5t30 75t21.5 74.5q9 30 18 63.5t9 65.5zM376 628h-62l26 90h62zM226 628h-62l26 90h62z" />
    <glyph glyph-name="divide" unicode="&#xf7;" horiz-adv-x="529" 
d="M215 396v77h54v-77h-54zM25 226v49h433v-49h-433zM215 28v77h54v-77h-54z" />
    <glyph glyph-name="oslash" unicode="&#xf8;" horiz-adv-x="429" 
d="M376 450q6 -18 6 -41q0 -42 -11 -81.5t-22 -78.5q-14 -49 -30.5 -95.5t-42 -83t-64 -58.5t-98.5 -22q-33 0 -60.5 8t-44.5 28l-63 -74l-29 21l75 85q-6 16 -6 39q0 38 9.5 75.5t20.5 74.5q14 49 31 97t43.5 86t66.5 61.5t100 23.5q32 0 58.5 -8t43.5 -27l64 73l26 -20z
M316 431q-15 38 -67 38q-42 0 -70 -20t-47 -50t-30.5 -66t-21.5 -69q-10 -32 -22 -71.5t-14 -74.5zM50 73q16 -37 71 -37q46 0 75 23t47.5 57.5t30 75t21.5 74.5q8 29 16.5 60t10.5 61z" />
    <glyph glyph-name="ugrave" unicode="&#xf9;" horiz-adv-x="454" 
d="M319 125q-9 -31 -17 -62t-15 -63h-55l19 69q-29 -36 -64 -58t-82 -22q-23 0 -43 4.5t-35 15t-23.5 27.5t-8.5 41q0 35 11 71l102 356h57l-90 -314q-6 -22 -13 -45.5t-7 -46.5q0 -32 16.5 -45.5t47.5 -13.5q37 0 64.5 15t47.5 39.5t33 54.5t22 60l85 296h57zM295 594
l-91 139h72l65 -139h-46z" />
    <glyph glyph-name="uacute" unicode="&#xfa;" horiz-adv-x="454" 
d="M319 125q-9 -31 -17 -62t-15 -63h-55l19 69q-29 -36 -64 -58t-82 -22q-23 0 -43 4.5t-35 15t-23.5 27.5t-8.5 41q0 35 11 71l102 356h57l-90 -314q-6 -22 -13 -45.5t-7 -46.5q0 -32 16.5 -45.5t47.5 -13.5q37 0 64.5 15t47.5 39.5t33 54.5t22 60l85 296h57zM272 594h-52
l138 139h81z" />
    <glyph glyph-name="ucircumflex" unicode="&#xfb;" horiz-adv-x="454" 
d="M319 125q-9 -31 -17 -62t-15 -63h-55l19 69q-29 -36 -64 -58t-82 -22q-23 0 -43 4.5t-35 15t-23.5 27.5t-8.5 41q0 35 11 71l102 356h57l-90 -314q-6 -22 -13 -45.5t-7 -46.5q0 -32 16.5 -45.5t47.5 -13.5q37 0 64.5 15t47.5 39.5t33 54.5t22 60l85 296h57zM380 594
l-58 99l-113 -99h-57l141 139h67l64 -139h-44z" />
    <glyph glyph-name="udieresis" unicode="&#xfc;" horiz-adv-x="454" 
d="M319 125q-9 -31 -17 -62t-15 -63h-55l19 69q-29 -36 -64 -58t-82 -22q-23 0 -43 4.5t-35 15t-23.5 27.5t-8.5 41q0 35 11 71l102 356h57l-90 -314q-6 -22 -13 -45.5t-7 -46.5q0 -32 16.5 -45.5t47.5 -13.5q37 0 64.5 15t47.5 39.5t33 54.5t22 60l85 296h57zM402 628h-62
l26 90h62zM252 628h-62l26 90h62z" />
    <glyph glyph-name="yacute" unicode="&#xfd;" horiz-adv-x="380" 
d="M8 -192h-56l114 198l-9 498h57l-1 -420l234 420h60zM238 594h-52l138 139h81z" />
    <glyph glyph-name="thorn" unicode="&#xfe;" horiz-adv-x="446" 
d="M397 404q0 -35 -7.5 -70.5t-17.5 -69.5q-13 -46 -28.5 -94t-40.5 -87t-63 -64t-95 -25q-35 0 -62.5 12.5t-44.5 45.5l-71 -244h-57l262 915h57l-79 -275q29 34 59 50.5t75 16.5q53 0 83 -28.5t30 -82.5zM337 387q0 36 -16.5 57t-54.5 21q-42 0 -71.5 -21.5t-49.5 -54
t-33 -70.5t-22 -71q-8 -30 -17 -63t-9 -64q0 -79 82 -79q41 0 69 22.5t46.5 56.5t30.5 72t21 70q8 30 16 61t8 63z" />
    <glyph glyph-name="ydieresis" unicode="&#xff;" horiz-adv-x="380" 
d="M8 -192h-56l114 198l-9 498h57l-1 -420l234 420h60zM358 628h-62l26 90h62zM208 628h-62l26 90h62z" />
    <glyph glyph-name=".null" horiz-adv-x="567" 
 />
    <glyph glyph-name="grave.cap" horiz-adv-x="175" 
d="M173 782l-91 139h72l65 -139h-46z" />
    <glyph glyph-name="acute.cap" horiz-adv-x="175" 
d="M141 782h-52l138 139h81z" />
    <glyph glyph-name="circumflex.cap" horiz-adv-x="175" 
d="M248 782l-58 99l-113 -99h-57l141 139h67l64 -139h-44z" />
    <glyph glyph-name="caron.cap" horiz-adv-x="175" 
d="M101 921l58 -99l113 99h57l-141 -139h-67l-64 139h44z" />
    <glyph glyph-name="caron.alt" horiz-adv-x="193" 
d="M176 561h-48l72 162h63z" />
    <glyph glyph-name="tilde.cap" horiz-adv-x="175" 
d="M337 895q-6 -17 -16.5 -34t-24 -31t-30.5 -23t-37 -9q-19 0 -35 7t-30 15t-28 15t-30 7q-22 0 -38 -15.5t-24 -33.5h-35q7 18 18 35.5t25.5 31t32.5 22t39 8.5q17 0 31.5 -7t28.5 -15t28.5 -15t31.5 -7q21 0 34.5 16t21.5 33h37v0z" />
    <glyph glyph-name="dieresis.cap" horiz-adv-x="175" 
d="M271 806h-62l26 90h62zM121 806h-62l26 90h62z" />
    <glyph glyph-name="macron.cap" horiz-adv-x="175" 
d="M289 810h-246l13 45h246z" />
    <glyph glyph-name="breve.cap" horiz-adv-x="175" 
d="M328 906q-23 -59 -65 -93t-107 -34q-45 0 -75 23t-30 70q0 17 3 34h37q0 -2 -0.5 -5.5t-0.5 -6.5q0 -38 21.5 -53.5t56.5 -15.5q44 0 74.5 22t50.5 59h35v0z" />
    <glyph glyph-name="ring.cap" horiz-adv-x="175" 
d="M262 839q0 -37 -25.5 -62.5t-62.5 -25.5t-62.5 25.5t-25.5 62.5t25.5 62.5t62.5 25.5t62.5 -25.5t25.5 -62.5zM232 839q0 24 -17 41t-41 17t-41 -17t-17 -41t17 -41t41 -17t41 17t17 41z" />
    <glyph glyph-name="hungarumlaut.cap" horiz-adv-x="175" 
d="M210 782h-48l145 139h74zM75 782h-48l146 139h73z" />
    <glyph glyph-name="dotaccent.cap" horiz-adv-x="175" 
d="M196 806h-62l26 90h62z" />
    <glyph glyph-name="commaaccent" horiz-adv-x="193" 
d="M-79 -200h-44l71 141h61z" />
    <glyph glyph-name="commaaccent.alt" horiz-adv-x="446" 
d="M333 733h45l-69 -139h-61z" />
    <glyph glyph-name="exclam.sc" horiz-adv-x="190" 
d="M53 127h-49l112 417h63zM-41 0l21 77h69l-22 -77h-68z" />
    <glyph glyph-name="dollar.sc" horiz-adv-x="380" 
d="M261 538q53 -4 76.5 -28t23.5 -59q0 -12 -3 -28t-8 -30h-55q10 37 10 53q0 20 -12.5 33.5t-44.5 15.5l-56 -196q49 -29 70.5 -58.5t21.5 -67.5q0 -40 -16 -74.5t-46 -56.5q-47 -33 -115 -36l-20 -71h-34l20 72q-48 5 -74.5 27t-26.5 57q0 12 2 27.5t10 42.5h53
q-8 -25 -10 -35.5t-2 -18.5q0 -23 15 -37.5t46 -18.5l61 210q-46 26 -68 53.5t-22 62.5q0 59 35 100q22 26 56 43t79 19l19 66h34zM227 166q0 24 -13.5 44t-37.5 34l-55 -192q51 5 78.5 37.5t27.5 76.5zM113 386q0 -18 11 -36t38 -34l52 178q-22 -3 -40.5 -13t-32 -25
t-21 -33t-7.5 -37z" />
    <glyph glyph-name="percent.sc" horiz-adv-x="584" 
d="M27 -24h-52l533 592h52zM121 273q-38 0 -58 20t-20 53q0 18 1.5 30.5t6.5 29.5q9 31 19.5 58t27 47t39 31t55.5 11q38 0 58 -20t20 -53q0 -18 -1.5 -30.5t-6.5 -29.5q-9 -32 -19.5 -58.5t-27 -46.5t-39 -31t-55.5 -11zM127 313q20 0 33.5 8.5t22.5 23.5t16 34.5t13 41.5
q7 23 8.5 35t1.5 22q0 16 -9 25.5t-27 9.5q-20 0 -33.5 -8.5t-22.5 -23.5t-16 -34.5t-13 -41.5q-7 -23 -8.5 -35t-1.5 -22q0 -16 9 -25.5t27 -9.5zM344 -8q-38 0 -58 20t-20 53q0 18 1.5 30.5t6.5 29.5q9 31 19.5 58t27 47t39 31t55.5 11q38 0 58 -20t20 -53
q0 -18 -1.5 -30.5t-6.5 -29.5q-9 -32 -19.5 -58.5t-27 -46.5t-39 -31t-55.5 -11zM350 32q20 0 33.5 8.5t22.5 23.5t16 34.5t13 41.5q7 23 8.5 35t1.5 22q0 16 -9 25.5t-27 9.5q-20 0 -33.5 -8.5t-22.5 -23.5t-16 -34.5t-13 -41.5q-7 -23 -8.5 -35t-1.5 -22q0 -16 9 -25.5
t27 -9.5z" />
    <glyph glyph-name="ampersand.sc" horiz-adv-x="462" 
d="M409 263h-78l-75 -263h-125q-63 0 -101.5 21.5t-38.5 70.5q0 46 17 88.5t49 70.5q13 11 30.5 20.5t43.5 17.5q-20 11 -31.5 30.5t-11.5 45.5q0 38 15 80t50 71q47 40 128 40q28 0 63 -8l-12 -44q-30 8 -53 8q-26 0 -48 -7t-41 -24q-23 -20 -33 -50t-10 -59q0 -38 22 -51
t67 -13h52l37 127h56l-37 -127h78zM210 263q-38 0 -64 -9t-46 -26q-11 -10 -20 -25t-16 -32.5t-10.5 -36t-3.5 -33.5q0 -32 24 -44t76 -12h62l63 218h-65z" />
    <glyph glyph-name="zero.sc" horiz-adv-x="380" 
d="M93 32q23 0 42.5 7.5t36.5 26.5t32.5 51.5t29.5 81.5l39 135q11 39 17.5 70.5t6.5 48.5q0 27 -15.5 43t-46.5 16q-23 0 -42.5 -7.5t-36.5 -26.5t-32.5 -51.5t-29.5 -81.5l-39 -135q-11 -39 -17.5 -70.5t-6.5 -48.5q0 -27 15.5 -43t46.5 -16zM85 -12q-54 0 -82.5 26.5
t-28.5 77.5q0 17 8.5 56t23.5 90l36 124q14 49 32 85.5t42 60.5t55 36t72 12q54 0 82.5 -26.5t28.5 -77.5q0 -17 -8.5 -56t-23.5 -90l-36 -124q-14 -50 -32 -86.5t-42 -60.5t-55 -35.5t-72 -11.5z" />
    <glyph glyph-name="one.sc" horiz-adv-x="380" 
d="M73 0l136 475q-29 -20 -58 -37.5t-62 -34.5l17 59q14 7 31.5 17t35 21t33.5 22.5t27 21.5h51l-155 -544h-56z" />
    <glyph glyph-name="two.sc" horiz-adv-x="380" 
d="M363 462q0 -21 -5.5 -41t-19 -42.5t-35.5 -48.5t-55 -59l-229 -226h228l-13 -45h-292l13 48l263 262q27 26 43.5 47.5t26.5 39t13.5 32.5t3.5 29q0 24 -17 39t-51 15q-53 0 -80.5 -29t-38.5 -70h-57q9 33 23.5 59t36 45t51 29t69.5 10q53 0 87.5 -23.5t34.5 -70.5z" />
    <glyph glyph-name="three.sc" horiz-adv-x="380" 
d="M352 466q0 -20 -3 -36.5t-8 -31.5q-15 -52 -45.5 -80t-64.5 -38q28 -7 40.5 -26.5t12.5 -43.5q0 -28 -6 -52.5t-11 -39.5q-8 -25 -22.5 -48.5t-37 -41.5t-53.5 -29t-72 -11q-23 0 -44 4.5t-37 14t-25.5 25.5t-10.5 40q0 29 9 61h57q-4 -14 -6 -26t-2 -24q0 -51 67 -51
q26 0 45 7t33 20t23.5 29.5t17.5 36.5q7 18 10.5 35t3.5 35q0 36 -27 49.5t-70 13.5h-7l13 45h7q60 0 95 24t50 72q5 14 8 29.5t3 31.5q0 52 -62 52q-49 0 -74 -25.5t-42 -73.5h-57q9 33 23 59t35.5 45t51 29t69.5 10q53 0 83 -23t30 -67z" />
    <glyph glyph-name="four.sc" horiz-adv-x="380" 
d="M234 175h67l-13 -45h-67l-37 -130h-55l37 130h-200l14 53l284 361h75zM31 175h148l88 307z" />
    <glyph glyph-name="five.sc" horiz-adv-x="380" 
d="M363 500h-206l-61 -183q43 34 102 34q57 0 80.5 -25.5t23.5 -65.5q0 -17 -2.5 -36t-7.5 -39q-7 -33 -21 -68t-37.5 -63.5t-59 -47t-85.5 -18.5q-53 0 -84 18.5t-31 63.5q0 16 2.5 30.5t6.5 28.5h58q-10 -28 -10 -50q0 -25 16.5 -35.5t47.5 -10.5q30 0 52.5 12.5t39 33
t28 48t19.5 57.5q5 18 7 31t2 32q0 25 -13.5 42.5t-48.5 17.5q-42 0 -67 -15t-39 -40h-54l94 292h260z" />
    <glyph glyph-name="six.sc" horiz-adv-x="380" 
d="M364 480q0 -14 -2 -27.5t-6 -28.5h-58q4 11 6 22.5t2 20.5q0 25 -18 35t-44 10q-53 0 -87.5 -45.5t-64.5 -147.5l-7 -24q24 23 49.5 35.5t66.5 12.5q45 0 73.5 -22t28.5 -71q0 -42 -14 -91t-37 -86q-24 -37 -64 -61t-97 -24q-52 0 -81 24t-29 75q0 32 8.5 72.5
t29.5 108.5l16 54q14 45 29.5 87t39.5 75t59 52.5t88 19.5q48 0 80.5 -19t32.5 -57zM243 241q0 24 -12 40.5t-48 16.5q-27 0 -48.5 -10t-38.5 -26.5t-28.5 -38t-18.5 -43.5q-6 -21 -9.5 -44.5t-3.5 -41.5q0 -28 14 -44t47 -16q39 0 64.5 17.5t42.5 44.5q9 15 16.5 33.5
t12.5 38t7.5 38.5t2.5 35z" />
    <glyph glyph-name="seven.sc" horiz-adv-x="380" 
d="M377 498l-317 -498h-64l325 498h-236l13 46h291z" />
    <glyph glyph-name="eight.sc" horiz-adv-x="380" 
d="M358 469q0 -25 -6 -55t-20 -55q-31 -60 -89 -76q24 -8 36 -24.5t13 -37.5q0 -18 -3 -37t-8 -36q-20 -76 -65 -118t-130 -42q-55 0 -85.5 24t-30.5 69q0 33 9 66q7 24 16 46t22 40t32 31.5t45 19.5q-44 22 -44 67q0 29 8.5 61.5t21.5 54.5q25 44 63.5 66.5t97.5 22.5
q53 0 85 -21t32 -66zM298 463q0 26 -16 37.5t-45 11.5q-35 0 -58.5 -13.5t-41.5 -41.5q-17 -26 -23 -52t-6 -50q0 -26 17.5 -39t48.5 -13q24 0 43 8.5t33 22.5t24 32.5t16 38.5q8 30 8 58zM232 210q-2 27 -20.5 38t-47.5 11q-30 0 -51 -9t-36 -24.5t-25 -37t-17 -45.5
q-8 -27 -8 -53q0 -28 18 -42.5t50 -14.5q29 0 50 10t36 26.5t24.5 38t16.5 44.5q4 13 7 28.5t3 29.5z" />
    <glyph glyph-name="nine.sc" horiz-adv-x="380" 
d="M352 465q0 -26 -8 -61.5t-22 -84.5l-31 -108q-17 -59 -37 -101t-45.5 -69t-57.5 -40t-73 -13q-49 0 -78.5 19t-29.5 61q0 14 1.5 25.5t5.5 26.5h57q-8 -23 -8 -43q1 -25 17 -34.5t45 -9.5t51 12.5t39 35.5t30.5 57t25.5 76l11 39q-24 -20 -51.5 -30t-61.5 -10
q-43 0 -70.5 22t-27.5 64q0 20 3 39.5t11 46.5q10 34 24.5 65t37 54.5t55 37.5t79.5 14q51 0 79.5 -24.5t28.5 -66.5zM297 458q0 25 -15.5 39.5t-46.5 14.5t-52.5 -12t-37 -31t-25 -41.5t-16.5 -44.5q-8 -24 -11 -41.5t-3 -32.5q2 -52 59 -52q34 0 57 11.5t38.5 30t25 42
t16.5 47.5q4 16 7.5 35t3.5 35z" />
    <glyph glyph-name="question.sc" horiz-adv-x="322" 
d="M297 480q0 -26 -6 -47q-12 -48 -44.5 -86.5t-71.5 -77.5q-35 -35 -53 -97l-10 -34h-52l7 24q8 28 17.5 50t20 39.5t22.5 32.5t26 29q26 28 49 58t31 65q4 15 4 35q0 18 -10.5 28.5t-33.5 10.5q-33 0 -51 -19t-28 -51l-4 -15h-55l3 13q12 54 46.5 86t99.5 32
q52 0 72.5 -22t20.5 -54zM12 0l22 77h69l-22 -77h-69z" />
    <glyph glyph-name="a.sc" horiz-adv-x="463" 
d="M280 142h-217l-85 -142h-63l332 544h69l27 -544h-58zM91 188h187l-10 295z" />
    <glyph glyph-name="b.sc" horiz-adv-x="442" 
d="M401 455q0 -29 -7 -56q-13 -47 -37.5 -74.5t-73.5 -41.5q58 -19 58 -74q0 -16 -2 -30.5t-6 -29.5q-21 -77 -69.5 -113t-140.5 -36h-150l154 544h153q54 0 87.5 -21.5t33.5 -67.5zM341 443q0 55 -85 55h-85l-55 -193h86q59 0 88.5 24.5t43.5 70.5q3 10 5 21.5t2 21.5z
M280 198q0 35 -25.5 48t-61.5 13h-90l-61 -213h70q36 0 62.5 5t45.5 17t31.5 32t21.5 50q7 24 7 48z" />
    <glyph glyph-name="c.sc" horiz-adv-x="435" 
d="M413 466q0 -20 -4 -37t-10 -37h-59q5 17 9 32.5t4 30.5q0 30 -21.5 42.5t-53.5 12.5q-44 0 -74.5 -21.5t-52.5 -58t-38 -85t-30 -101.5q-11 -39 -17 -69.5t-6 -61.5q0 -39 19.5 -59t62.5 -20q29 0 51 9t38.5 25.5t27.5 39.5t19 50h60q-12 -38 -29 -69t-41.5 -53.5
t-58 -35t-79.5 -12.5q-64 0 -97 30.5t-33 86.5q0 41 7 76t18 73q17 64 36.5 119.5t48.5 96t71 63.5t104 23q23 0 46 -4.5t41 -15t29.5 -28t11.5 -42.5z" />
    <glyph glyph-name="d.sc" horiz-adv-x="473" 
d="M425 434q0 -34 -10 -77t-22 -85q-15 -52 -32 -101t-46 -87t-75.5 -61t-120.5 -23h-146l154 544h138q37 0 66.5 -5.5t50.5 -18.5t32 -34t11 -52zM364 429q0 42 -30.5 56t-75.5 14h-86l-130 -453h94q42 0 72.5 16t53.5 46t40.5 73.5t33.5 98.5q14 50 21 83t7 66z" />
    <glyph glyph-name="e.sc" horiz-adv-x="389" 
d="M-27 0l154 544h270l-13 -46h-213l-56 -196h203l-13 -46h-203l-59 -209h218l-13 -47h-275z" />
    <glyph glyph-name="f.sc" horiz-adv-x="355" 
d="M171 498l-55 -194h183l-14 -46h-183l-73 -258h-56l154 544h252l-13 -46h-195z" />
    <glyph glyph-name="g.sc" horiz-adv-x="465" 
d="M428 460q0 -15 -2.5 -29t-7.5 -31h-60q11 28 11 52q0 31 -23 44.5t-61 13.5q-45 0 -76 -18.5t-53.5 -53t-39 -84t-33.5 -110.5q-8 -31 -15.5 -65.5t-7.5 -64.5q0 -45 23.5 -62t69.5 -17q26 0 54 4.5t49 12.5l54 190h-118l13 46h174l-78 -273q-39 -13 -74.5 -20t-74.5 -7
q-33 0 -60.5 6.5t-48 20t-32 35.5t-11.5 54q0 42 9.5 84.5t20.5 82.5q19 69 40 122t50 89t69.5 55t99.5 19q28 0 53.5 -5.5t44.5 -17.5t30 -30t11 -43z" />
    <glyph glyph-name="h.sc" horiz-adv-x="489" 
d="M254 0l73 256h-225l-73 -256h-56l154 544h57l-69 -241h225l69 241h57l-155 -544h-57z" />
    <glyph glyph-name="i.sc" horiz-adv-x="207" 
d="M-27 0l154 544h57l-155 -544h-56z" />
    <glyph glyph-name="j.sc" horiz-adv-x="382" 
d="M258 163q-12 -40 -26.5 -72.5t-36 -55t-51 -35t-70.5 -12.5q-54 0 -86 19t-32 66q0 23 4.5 43t11.5 42h56q-8 -20 -12.5 -38.5t-4.5 -35.5q0 -49 65 -49q34 0 55.5 12.5t35.5 32t22 43.5t14 47l107 374h57z" />
    <glyph glyph-name="k.sc" horiz-adv-x="421" 
d="M29 0h-56l154 544h57zM385 544h73l-286 -260l137 -284h-60l-135 291z" />
    <glyph glyph-name="l.sc" horiz-adv-x="347" 
d="M-27 0l154 544h57l-142 -497h194l-13 -47h-250z" />
    <glyph glyph-name="m.sc" horiz-adv-x="651" 
d="M472 0h-54l141 492l-306 -492h-57l-30 493l-141 -493h-52l154 544h84l28 -484l299 484h90z" />
    <glyph glyph-name="n.sc" horiz-adv-x="515" 
d="M337 0h-82l-89 489l-139 -489h-54l154 544h81l90 -488l140 488h54z" />
    <glyph glyph-name="o.sc" horiz-adv-x="470" 
d="M142 34q36 0 64 15t50 45t39.5 73.5t33.5 100.5q31 111 31 163q0 79 -82 79q-36 0 -64 -15t-50 -45t-39.5 -73.5t-33.5 -100.5q-31 -111 -31 -163q0 -79 82 -79zM282 556q67 0 102.5 -30t35.5 -87q0 -29 -7.5 -72t-27.5 -114q-18 -64 -39.5 -113.5t-50 -83t-67 -51
t-90.5 -17.5q-67 0 -102.5 30t-35.5 87q0 29 7.5 72t27.5 114q18 64 39.5 113t50 83t67 51.5t90.5 17.5z" />
    <glyph glyph-name="p.sc" horiz-adv-x="403" 
d="M391 452q0 -21 -5 -44t-13.5 -45t-20 -40.5t-25.5 -31.5q-29 -27 -70 -37t-95 -10h-64l-69 -244h-56l154 544h128q29 0 54 -4.5t43 -15.5t28.5 -28.5t10.5 -43.5zM333 441q0 33 -22.5 45t-60.5 12h-79l-59 -208h57q83 0 118 34q20 19 33 53.5t13 63.5z" />
    <glyph glyph-name="q.sc" horiz-adv-x="472" 
d="M142 40q38 0 66 15.5t49.5 43.5t37.5 67.5t30 87.5q16 55 25.5 100t9.5 77q0 34 -18.5 56.5t-63.5 22.5q-36 0 -63.5 -15t-49 -43t-38.5 -69t-32 -93q-16 -55 -24.5 -98t-8.5 -73q0 -34 17.5 -56.5t62.5 -22.5zM388 264q-15 -51 -28 -87t-26.5 -61.5t-30 -42.5t-37.5 -31
q23 2 51.5 3.5t49.5 1.5l-13 -47h-96q-26 0 -40 -0.5t-29 -2.5q-13 -2 -25 -2.5t-26 -0.5q-66 0 -102 29.5t-36 86.5q0 26 7 66.5t25 103.5q18 64 38.5 115t49 87t67.5 55t95 19q67 0 102.5 -30t35.5 -87q0 -29 -7 -70.5t-25 -104.5z" />
    <glyph glyph-name="r.sc" horiz-adv-x="445" 
d="M407 455q0 -37 -15.5 -74t-38.5 -61q-14 -14 -29.5 -23.5t-39.5 -15.5q29 -7 37.5 -21t8.5 -34q0 -17 -6.5 -43t-17.5 -65q-8 -29 -14 -59t-10 -59h-58q2 24 7 45.5t10 41.5q14 53 21.5 81.5t7.5 49.5q0 23 -22 32t-59 9h-86l-74 -259h-56l155 544h150q58 0 93.5 -19.5
t35.5 -69.5zM346 447q0 51 -73 51h-102l-55 -194h66q50 0 80 9t49 34q14 17 24.5 46t10.5 54z" />
    <glyph glyph-name="s.sc" horiz-adv-x="421" 
d="M395 468q0 -14 -4 -29.5t-9 -32.5h-59q7 20 9.5 30.5t2.5 21.5q0 29 -23 40.5t-56 11.5q-29 0 -52.5 -9t-41 -24.5t-27 -36t-9.5 -44.5q0 -25 13.5 -41t45.5 -36l41 -26q47 -30 66 -57.5t19 -67.5q0 -46 -19.5 -82.5t-54.5 -61.5q-27 -20 -58.5 -28t-69.5 -8
q-72 0 -104 27.5t-32 76.5q0 25 9 61h60q-5 -17 -7.5 -30.5t-2.5 -27.5q2 -61 83 -61q32 0 57.5 10.5t43.5 28t28 41t10 49.5q0 23 -14 42.5t-51 42.5l-40 25q-23 14 -38.5 27t-25 26t-13.5 28t-4 34q0 42 17.5 75t48.5 55q26 18 58 28t69 10q58 0 96 -21t38 -67z" />
    <glyph glyph-name="t.sc" horiz-adv-x="357" 
d="M246 498l-142 -498h-57l142 498h-142l13 46h341l-13 -46h-142z" />
    <glyph glyph-name="u.sc" horiz-adv-x="481" 
d="M362 181q-12 -43 -27.5 -78.5t-40 -61t-60.5 -39.5t-89 -14q-64 0 -104 22.5t-40 78.5q0 26 4.5 50t11.5 48l103 357h57l-103 -360q-5 -20 -10 -45t-5 -45q0 -33 24 -46t64 -13q39 0 65 12t44 32.5t29 47t19 56.5l104 361h57z" />
    <glyph glyph-name="v.sc" horiz-adv-x="421" 
d="M142 0h-68l-8 544h56l1 -485l276 485h60z" />
    <glyph glyph-name="w.sc" horiz-adv-x="704" 
d="M431 0h-69l24 475l-255 -475h-69l17 544h58l-24 -480l257 480h69l-25 -480l255 480h60z" />
    <glyph glyph-name="x.sc" horiz-adv-x="425" 
d="M223 281l85 -281h-62l-65 241l-198 -241h-71l240 280l-73 264h62l55 -221l186 221h68z" />
    <glyph glyph-name="y.sc" horiz-adv-x="412" 
d="M193 219l-62 -219h-57l62 220l-70 324h59l53 -272l206 272h66z" />
    <glyph glyph-name="z.sc" horiz-adv-x="380" 
d="M390 493l-386 -446h258l-13 -47h-323l13 47l390 451h-246l13 46h308z" />
    <glyph glyph-name="agrave.sc" horiz-adv-x="463" 
d="M280 142h-217l-85 -142h-63l332 544h69l27 -544h-58zM91 188h187l-10 295zM291 634l-91 139h72l65 -139h-46z" />
    <glyph glyph-name="aacute.sc" horiz-adv-x="463" 
d="M280 142h-217l-85 -142h-63l332 544h69l27 -544h-58zM91 188h187l-10 295zM311 634h-52l138 139h81z" />
    <glyph glyph-name="acircumflex.sc" horiz-adv-x="463" 
d="M280 142h-217l-85 -142h-63l332 544h69l27 -544h-58zM91 188h187l-10 295zM399 634l-58 99l-113 -99h-57l141 139h67l64 -139h-44z" />
    <glyph glyph-name="atilde.sc" horiz-adv-x="463" 
d="M280 142h-217l-85 -142h-63l332 544h69l27 -544h-58zM91 188h187l-10 295zM481 747q-6 -17 -16.5 -34t-24 -31t-30.5 -23t-37 -9q-19 0 -35 7t-30 15t-28 15t-30 7q-22 0 -38 -15.5t-24 -33.5h-35q7 18 18 35.5t25.5 31t32.5 22t39 8.5q17 0 31.5 -7t28.5 -15t28.5 -15
t31.5 -7q21 0 34.5 16t21.5 33h37v0z" />
    <glyph glyph-name="adieresis.sc" horiz-adv-x="463" 
d="M280 142h-217l-85 -142h-63l332 544h69l27 -544h-58zM91 188h187l-10 295zM416 668h-62l26 90h62zM266 668h-62l26 90h62z" />
    <glyph glyph-name="amacron.sc" horiz-adv-x="463" 
d="M280 142h-217l-85 -142h-63l332 544h69l27 -544h-58zM91 188h187l-10 295zM434 672h-246l13 45h246z" />
    <glyph glyph-name="abreve.sc" horiz-adv-x="463" 
d="M280 142h-217l-85 -142h-63l332 544h69l27 -544h-58zM91 188h187l-10 295zM472 758q-23 -59 -65 -93t-107 -34q-45 0 -75 23t-30 70q0 17 3 34h37q0 -2 -0.5 -5.5t-0.5 -6.5q0 -38 21.5 -53.5t56.5 -15.5q44 0 74.5 22t50.5 59h35v0z" />
    <glyph glyph-name="aring.sc" horiz-adv-x="463" 
d="M280 142h-217l-85 -142h-63l332 544h69l27 -544h-58zM91 188h187l-10 295zM410 711q0 -37 -25.5 -62.5t-62.5 -25.5t-62.5 25.5t-25.5 62.5t25.5 62.5t62.5 25.5t62.5 -25.5t25.5 -62.5zM380 711q0 24 -17 41t-41 17t-41 -17t-17 -41t17 -41t41 -17t41 17t17 41z" />
    <glyph glyph-name="aogonek.sc" horiz-adv-x="463" 
d="M344 1q-68 -30 -94.5 -59.5t-26.5 -54.5q0 -21 10.5 -31.5t28.5 -10.5q11 0 21.5 3t21.5 7l1 -22q-19 -8 -39 -15t-41 -7q-24 0 -41 13.5t-17 39.5q0 22 10 41t27.5 35.5t40.5 31.5t49 28h-10l-5 142h-217l-85 -142h-63l332 544h69zM91 188h187l-10 295z" />
    <glyph glyph-name="ae.sc" horiz-adv-x="641" 
d="M368 302h202l-13 -46h-197l-40 -209h193l-13 -47h-247l27 143h-198l-110 -143h-67l427 544h317l-13 -46h-230zM118 189h171l58 296z" />
    <glyph glyph-name="cacute.sc" horiz-adv-x="435" 
d="M413 466q0 -20 -4 -37t-10 -37h-59q5 17 9 32.5t4 30.5q0 30 -21.5 42.5t-53.5 12.5q-44 0 -74.5 -21.5t-52.5 -58t-38 -85t-30 -101.5q-11 -39 -17 -69.5t-6 -61.5q0 -39 19.5 -59t62.5 -20q29 0 51 9t38.5 25.5t27.5 39.5t19 50h60q-12 -38 -29 -69t-41.5 -53.5
t-58 -35t-79.5 -12.5q-64 0 -97 30.5t-33 86.5q0 41 7 76t18 73q17 64 36.5 119.5t48.5 96t71 63.5t104 23q23 0 46 -4.5t41 -15t29.5 -28t11.5 -42.5zM304 634h-52l138 139h81z" />
    <glyph glyph-name="ccircumflex.sc" horiz-adv-x="435" 
d="M413 466q0 -20 -4 -37t-10 -37h-59q5 17 9 32.5t4 30.5q0 30 -21.5 42.5t-53.5 12.5q-44 0 -74.5 -21.5t-52.5 -58t-38 -85t-30 -101.5q-11 -39 -17 -69.5t-6 -61.5q0 -39 19.5 -59t62.5 -20q29 0 51 9t38.5 25.5t27.5 39.5t19 50h60q-12 -38 -29 -69t-41.5 -53.5
t-58 -35t-79.5 -12.5q-64 0 -97 30.5t-33 86.5q0 41 7 76t18 73q17 64 36.5 119.5t48.5 96t71 63.5t104 23q23 0 46 -4.5t41 -15t29.5 -28t11.5 -42.5zM407 634l-58 99l-113 -99h-57l141 139h67l64 -139h-44z" />
    <glyph glyph-name="ccaron.sc" horiz-adv-x="435" 
d="M413 466q0 -20 -4 -37t-10 -37h-59q5 17 9 32.5t4 30.5q0 30 -21.5 42.5t-53.5 12.5q-44 0 -74.5 -21.5t-52.5 -58t-38 -85t-30 -101.5q-11 -39 -17 -69.5t-6 -61.5q0 -39 19.5 -59t62.5 -20q29 0 51 9t38.5 25.5t27.5 39.5t19 50h60q-12 -38 -29 -69t-41.5 -53.5
t-58 -35t-79.5 -12.5q-64 0 -97 30.5t-33 86.5q0 41 7 76t18 73q17 64 36.5 119.5t48.5 96t71 63.5t104 23q23 0 46 -4.5t41 -15t29.5 -28t11.5 -42.5zM250 773l58 -99l113 99h57l-141 -139h-67l-64 139h44z" />
    <glyph glyph-name="cdotaccent.sc" horiz-adv-x="435" 
d="M413 466q0 -20 -4 -37t-10 -37h-59q5 17 9 32.5t4 30.5q0 30 -21.5 42.5t-53.5 12.5q-44 0 -74.5 -21.5t-52.5 -58t-38 -85t-30 -101.5q-11 -39 -17 -69.5t-6 -61.5q0 -39 19.5 -59t62.5 -20q29 0 51 9t38.5 25.5t27.5 39.5t19 50h60q-12 -38 -29 -69t-41.5 -53.5
t-58 -35t-79.5 -12.5q-64 0 -97 30.5t-33 86.5q0 41 7 76t18 73q17 64 36.5 119.5t48.5 96t71 63.5t104 23q23 0 46 -4.5t41 -15t29.5 -28t11.5 -42.5zM342 668h-62l26 90h62z" />
    <glyph glyph-name="ccedilla.sc" horiz-adv-x="435" 
d="M196 -103q0 -25 -12 -44.5t-31 -33t-42.5 -20.5t-45.5 -7q-47 0 -83 20l23 30q14 -7 28.5 -11t30.5 -4q13 0 26.5 4t24 11t17.5 17.5t7 24.5q0 16 -10.5 22.5t-28.5 6.5q-11 0 -21.5 -2.5t-21.5 -5.5l-11 13l63 71q-54 5 -81.5 35t-27.5 81q0 41 7 76t18 73
q17 64 36.5 119.5t48.5 96t71 63.5t104 23q23 0 46 -4.5t41 -15t29.5 -28t11.5 -42.5q0 -20 -4 -37t-10 -37h-59q5 17 9 32.5t4 30.5q0 30 -21.5 42.5t-53.5 12.5q-44 0 -74.5 -21.5t-52.5 -58t-38 -85t-30 -101.5q-11 -39 -17 -69.5t-6 -61.5q0 -39 19.5 -59t62.5 -20
q29 0 51 9t38.5 25.5t27.5 39.5t19 50h60q-12 -36 -28 -66.5t-38.5 -52.5t-53.5 -35t-73 -15l-42 -48q18 6 36 6q23 0 40 -12.5t17 -37.5z" />
    <glyph glyph-name="dcaron.sc" horiz-adv-x="473" 
d="M425 434q0 -34 -10 -77t-22 -85q-15 -52 -32 -101t-46 -87t-75.5 -61t-120.5 -23h-146l154 544h138q37 0 66.5 -5.5t50.5 -18.5t32 -34t11 -52zM364 429q0 42 -30.5 56t-75.5 14h-86l-130 -453h94q42 0 72.5 16t53.5 46t40.5 73.5t33.5 98.5q14 50 21 83t7 66zM247 773
l58 -99l113 99h57l-141 -139h-67l-64 139h44z" />
    <glyph glyph-name="dcroat.sc" horiz-adv-x="473" 
d="M1 310h59l67 234h138q37 0 66.5 -5.5t50.5 -18.5t32 -34t11 -52q0 -34 -10 -77t-22 -85q-15 -52 -32 -101t-46 -87t-75.5 -61t-120.5 -23h-146l76 269h-61zM364 429q0 42 -30.5 56t-75.5 14h-86l-54 -189h122l-13 -41h-121l-64 -223h94q42 0 72.5 16t53.5 46t40.5 73.5
t33.5 98.5q14 50 21 83t7 66z" />
    <glyph glyph-name="eth.sc" horiz-adv-x="473" 
d="M1 310h59l67 234h138q37 0 66.5 -5.5t50.5 -18.5t32 -34t11 -52q0 -34 -10 -77t-22 -85q-15 -52 -32 -101t-46 -87t-75.5 -61t-120.5 -23h-146l76 269h-61zM364 429q0 42 -30.5 56t-75.5 14h-86l-54 -189h122l-13 -41h-121l-64 -223h94q42 0 72.5 16t53.5 46t40.5 73.5
t33.5 98.5q14 50 21 83t7 66z" />
    <glyph glyph-name="egrave.sc" horiz-adv-x="389" 
d="M-27 0l154 544h270l-13 -46h-213l-56 -196h203l-13 -46h-203l-59 -209h218l-13 -47h-275zM280 634l-91 139h72l65 -139h-46z" />
    <glyph glyph-name="eacute.sc" horiz-adv-x="389" 
d="M-27 0l154 544h270l-13 -46h-213l-56 -196h203l-13 -46h-203l-59 -209h218l-13 -47h-275zM265 634h-52l138 139h81z" />
    <glyph glyph-name="ecircumflex.sc" horiz-adv-x="389" 
d="M-27 0l154 544h270l-13 -46h-213l-56 -196h203l-13 -46h-203l-59 -209h218l-13 -47h-275zM381 634l-58 99l-113 -99h-57l141 139h67l64 -139h-44z" />
    <glyph glyph-name="ecaron.sc" horiz-adv-x="389" 
d="M-27 0l154 544h270l-13 -46h-213l-56 -196h203l-13 -46h-203l-59 -209h218l-13 -47h-275zM222 773l58 -99l113 99h57l-141 -139h-67l-64 139h44z" />
    <glyph glyph-name="edieresis.sc" horiz-adv-x="389" 
d="M-27 0l154 544h270l-13 -46h-213l-56 -196h203l-13 -46h-203l-59 -209h218l-13 -47h-275zM390 668h-62l26 90h62zM240 668h-62l26 90h62z" />
    <glyph glyph-name="emacron.sc" horiz-adv-x="389" 
d="M-27 0l154 544h270l-13 -46h-213l-56 -196h203l-13 -46h-203l-59 -209h218l-13 -47h-275zM408 672h-246l13 45h246z" />
    <glyph glyph-name="ebreve.sc" horiz-adv-x="389" 
d="M-27 0l154 544h270l-13 -46h-213l-56 -196h203l-13 -46h-203l-59 -209h218l-13 -47h-275zM440 758q-23 -59 -65 -93t-107 -34q-45 0 -75 23t-30 70q0 17 3 34h37q0 -2 -0.5 -5.5t-0.5 -6.5q0 -38 21.5 -53.5t56.5 -15.5q44 0 74.5 22t50.5 59h35v0z" />
    <glyph glyph-name="edotaccent.sc" horiz-adv-x="389" 
d="M-27 0l154 544h270l-13 -46h-213l-56 -196h203l-13 -46h-203l-59 -209h218l-13 -47h-275zM318 668h-62l26 90h62z" />
    <glyph glyph-name="eogonek.sc" horiz-adv-x="389" 
d="M248 0q-57 -25 -89 -53t-32 -60q0 -21 10.5 -31.5t28.5 -10.5q11 0 21.5 3t21.5 7l1 -22q-19 -8 -39 -15t-41 -7q-24 0 -41 13.5t-17 39.5q0 22 10 41t27.5 35.5t40.5 31.5t49 28h-226l154 544h270l-13 -46h-213l-56 -196h203l-13 -46h-203l-59 -209h218z" />
    <glyph glyph-name="gcircumflex.sc" horiz-adv-x="465" 
d="M428 460q0 -15 -2.5 -29t-7.5 -31h-60q11 28 11 52q0 31 -23 44.5t-61 13.5q-45 0 -76 -18.5t-53.5 -53t-39 -84t-33.5 -110.5q-8 -31 -15.5 -65.5t-7.5 -64.5q0 -45 23.5 -62t69.5 -17q26 0 54 4.5t49 12.5l54 190h-118l13 46h174l-78 -273q-39 -13 -74.5 -20t-74.5 -7
q-33 0 -60.5 6.5t-48 20t-32 35.5t-11.5 54q0 42 9.5 84.5t20.5 82.5q19 69 40 122t50 89t69.5 55t99.5 19q28 0 53.5 -5.5t44.5 -17.5t30 -30t11 -43zM403 634l-58 99l-113 -99h-57l141 139h67l64 -139h-44z" />
    <glyph glyph-name="gbreve.sc" horiz-adv-x="465" 
d="M428 460q0 -15 -2.5 -29t-7.5 -31h-60q11 28 11 52q0 31 -23 44.5t-61 13.5q-45 0 -76 -18.5t-53.5 -53t-39 -84t-33.5 -110.5q-8 -31 -15.5 -65.5t-7.5 -64.5q0 -45 23.5 -62t69.5 -17q26 0 54 4.5t49 12.5l54 190h-118l13 46h174l-78 -273q-39 -13 -74.5 -20t-74.5 -7
q-33 0 -60.5 6.5t-48 20t-32 35.5t-11.5 54q0 42 9.5 84.5t20.5 82.5q19 69 40 122t50 89t69.5 55t99.5 19q28 0 53.5 -5.5t44.5 -17.5t30 -30t11 -43zM475 758q-23 -59 -65 -93t-107 -34q-45 0 -75 23t-30 70q0 17 3 34h37q0 -2 -0.5 -5.5t-0.5 -6.5q0 -38 21.5 -53.5
t56.5 -15.5q44 0 74.5 22t50.5 59h35v0z" />
    <glyph glyph-name="gdotaccent.sc" horiz-adv-x="465" 
d="M428 460q0 -15 -2.5 -29t-7.5 -31h-60q11 28 11 52q0 31 -23 44.5t-61 13.5q-45 0 -76 -18.5t-53.5 -53t-39 -84t-33.5 -110.5q-8 -31 -15.5 -65.5t-7.5 -64.5q0 -45 23.5 -62t69.5 -17q26 0 54 4.5t49 12.5l54 190h-118l13 46h174l-78 -273q-39 -13 -74.5 -20t-74.5 -7
q-33 0 -60.5 6.5t-48 20t-32 35.5t-11.5 54q0 42 9.5 84.5t20.5 82.5q19 69 40 122t50 89t69.5 55t99.5 19q28 0 53.5 -5.5t44.5 -17.5t30 -30t11 -43zM346 668h-62l26 90h62z" />
    <glyph glyph-name="gcommaaccent.sc" horiz-adv-x="465" 
d="M428 460q0 -15 -2.5 -29t-7.5 -31h-60q11 28 11 52q0 31 -23 44.5t-61 13.5q-45 0 -76 -18.5t-53.5 -53t-39 -84t-33.5 -110.5q-8 -31 -15.5 -65.5t-7.5 -64.5q0 -45 23.5 -62t69.5 -17q26 0 54 4.5t49 12.5l54 190h-118l13 46h174l-78 -273q-39 -13 -74.5 -20t-74.5 -7
q-33 0 -60.5 6.5t-48 20t-32 35.5t-11.5 54q0 42 9.5 84.5t20.5 82.5q19 69 40 122t50 89t69.5 55t99.5 19q28 0 53.5 -5.5t44.5 -17.5t30 -30t11 -43zM69 -200h-44l71 141h61z" />
    <glyph glyph-name="hcircumflex.sc" horiz-adv-x="489" 
d="M254 0l73 256h-225l-73 -256h-56l154 544h57l-69 -241h225l69 241h57l-155 -544h-57zM405 634l-58 99l-113 -99h-57l141 139h67l64 -139h-44z" />
    <glyph glyph-name="hbar.sc" horiz-adv-x="489" 
d="M254 0l73 256h-225l-73 -256h-56l154 544h57l-40 -140h225l40 140h57l-155 -544h-57zM340 303l16 55h-225l-16 -55h225z" />
    <glyph glyph-name="igrave.sc" horiz-adv-x="207" 
d="M-27 0l154 544h57l-155 -544h-56zM183 634l-91 139h72l65 -139h-46z" />
    <glyph glyph-name="iacute.sc" horiz-adv-x="207" 
d="M-27 0l154 544h57l-155 -544h-56zM173 634h-52l138 139h81z" />
    <glyph glyph-name="ibreve.sc" horiz-adv-x="207" 
d="M-27 0l154 544h57l-155 -544h-56zM347 758q-23 -59 -65 -93t-107 -34q-45 0 -75 23t-30 70q0 17 3 34h37q0 -2 -0.5 -5.5t-0.5 -6.5q0 -38 21.5 -53.5t56.5 -15.5q44 0 74.5 22t50.5 59h35v0z" />
    <glyph glyph-name="icircumflex.sc" horiz-adv-x="207" 
d="M-27 0l154 544h57l-155 -544h-56zM270 634l-58 99l-113 -99h-57l141 139h67l64 -139h-44z" />
    <glyph glyph-name="itilde.sc" horiz-adv-x="207" 
d="M-27 0l154 544h57l-155 -544h-56zM351 747q-6 -17 -16.5 -34t-24 -31t-30.5 -23t-37 -9q-19 0 -35 7t-30 15t-28 15t-30 7q-22 0 -38 -15.5t-24 -33.5h-35q7 18 18 35.5t25.5 31t32.5 22t39 8.5q17 0 31.5 -7t28.5 -15t28.5 -15t31.5 -7q21 0 34.5 16t21.5 33h37v0z" />
    <glyph glyph-name="idieresis.sc" horiz-adv-x="207" 
d="M-27 0l154 544h57l-155 -544h-56zM295 668h-62l26 90h62zM145 668h-62l26 90h62z" />
    <glyph glyph-name="imacron.sc" horiz-adv-x="207" 
d="M-27 0l154 544h57l-155 -544h-56zM312 672h-246l13 45h246z" />
    <glyph glyph-name="idotaccent.sc" horiz-adv-x="207" 
d="M-27 0l154 544h57l-155 -544h-56zM220 668h-62l26 90h62z" />
    <glyph glyph-name="iogonek.sc" horiz-adv-x="207" 
d="M29 0q-54 -25 -86.5 -53t-32.5 -60q0 -21 10.5 -31.5t28.5 -10.5q11 0 21.5 3t21.5 7l1 -22q-19 -8 -39 -15t-41 -7q-24 0 -41 13.5t-17 39.5q0 22 10 41t27.5 35.5t40.5 31.5t49 28h-9l154 544h57z" />
    <glyph glyph-name="jcircumflex.sc" horiz-adv-x="382" 
d="M258 163q-12 -40 -26.5 -72.5t-36 -55t-51 -35t-70.5 -12.5q-54 0 -86 19t-32 66q0 23 4.5 43t11.5 42h56q-8 -20 -12.5 -38.5t-4.5 -35.5q0 -49 65 -49q34 0 55.5 12.5t35.5 32t22 43.5t14 47l107 374h57zM443 634l-58 99l-113 -99h-57l141 139h67l64 -139h-44z" />
    <glyph glyph-name="kcommaaccent.sc" horiz-adv-x="421" 
d="M29 0h-56l154 544h57zM385 544h73l-286 -260l137 -284h-60l-135 291zM60 -200h-44l71 141h61z" />
    <glyph glyph-name="lacute.sc" horiz-adv-x="347" 
d="M-27 0l154 544h57l-142 -497h194l-13 -47h-250zM199 634h-52l138 139h81z" />
    <glyph glyph-name="lcaron.sc" horiz-adv-x="347" 
d="M-27 0l154 544h57l-142 -497h194l-13 -47h-250zM241 383h-48l72 162h63z" />
    <glyph glyph-name="lcommaaccent.sc" horiz-adv-x="347" 
d="M-27 0l154 544h57l-142 -497h194l-13 -47h-250zM43 -200h-44l71 141h61z" />
    <glyph glyph-name="lslash.sc" horiz-adv-x="347" 
d="M-27 0l65 232l-68 -32l12 46l69 32l76 266h57l-68 -236l131 61l-12 -46l-132 -61l-61 -215h194l-13 -47h-250z" />
    <glyph glyph-name="ldot.sc" horiz-adv-x="347" 
d="M-27 0l154 544h57l-142 -497h194l-13 -47h-250zM267 244h-62l26 90h62z" />
    <glyph glyph-name="nacute.sc" horiz-adv-x="515" 
d="M337 0h-82l-89 489l-139 -489h-54l154 544h81l90 -488l140 488h54zM305 634h-52l138 139h81z" />
    <glyph glyph-name="ncaron.sc" horiz-adv-x="515" 
d="M337 0h-82l-89 489l-139 -489h-54l154 544h81l90 -488l140 488h54zM259 773l58 -99l113 99h57l-141 -139h-67l-64 139h44z" />
    <glyph glyph-name="ntilde.sc" horiz-adv-x="515" 
d="M337 0h-82l-89 489l-139 -489h-54l154 544h81l90 -488l140 488h54zM497 747q-6 -17 -16.5 -34t-24 -31t-30.5 -23t-37 -9q-19 0 -35 7t-30 15t-28 15t-30 7q-22 0 -38 -15.5t-24 -33.5h-35q7 18 18 35.5t25.5 31t32.5 22t39 8.5q17 0 31.5 -7t28.5 -15t28.5 -15t31.5 -7
q21 0 34.5 16t21.5 33h37v0z" />
    <glyph glyph-name="ncommaaccent.sc" horiz-adv-x="515" 
d="M337 0h-82l-89 489l-139 -489h-54l154 544h81l90 -488l140 488h54zM93 -200h-44l71 141h61z" />
    <glyph glyph-name="ograve.sc" horiz-adv-x="470" 
d="M142 34q36 0 64 15t50 45t39.5 73.5t33.5 100.5q31 111 31 163q0 79 -82 79q-36 0 -64 -15t-50 -45t-39.5 -73.5t-33.5 -100.5q-31 -111 -31 -163q0 -79 82 -79zM282 556q67 0 102.5 -30t35.5 -87q0 -29 -7.5 -72t-27.5 -114q-18 -64 -39.5 -113.5t-50 -83t-67 -51
t-90.5 -17.5q-67 0 -102.5 30t-35.5 87q0 29 7.5 72t27.5 114q18 64 39.5 113t50 83t67 51.5t90.5 17.5zM305 634l-91 139h72l65 -139h-46z" />
    <glyph glyph-name="oacute.sc" horiz-adv-x="470" 
d="M142 34q36 0 64 15t50 45t39.5 73.5t33.5 100.5q31 111 31 163q0 79 -82 79q-36 0 -64 -15t-50 -45t-39.5 -73.5t-33.5 -100.5q-31 -111 -31 -163q0 -79 82 -79zM282 556q67 0 102.5 -30t35.5 -87q0 -29 -7.5 -72t-27.5 -114q-18 -64 -39.5 -113.5t-50 -83t-67 -51
t-90.5 -17.5q-67 0 -102.5 30t-35.5 87q0 29 7.5 72t27.5 114q18 64 39.5 113t50 83t67 51.5t90.5 17.5zM299 634h-52l138 139h81z" />
    <glyph glyph-name="ocircumflex.sc" horiz-adv-x="470" 
d="M142 34q36 0 64 15t50 45t39.5 73.5t33.5 100.5q31 111 31 163q0 79 -82 79q-36 0 -64 -15t-50 -45t-39.5 -73.5t-33.5 -100.5q-31 -111 -31 -163q0 -79 82 -79zM282 556q67 0 102.5 -30t35.5 -87q0 -29 -7.5 -72t-27.5 -114q-18 -64 -39.5 -113.5t-50 -83t-67 -51
t-90.5 -17.5q-67 0 -102.5 30t-35.5 87q0 29 7.5 72t27.5 114q18 64 39.5 113t50 83t67 51.5t90.5 17.5zM406 634l-58 99l-113 -99h-57l141 139h67l64 -139h-44z" />
    <glyph glyph-name="otilde.sc" horiz-adv-x="470" 
d="M142 34q36 0 64 15t50 45t39.5 73.5t33.5 100.5q31 111 31 163q0 79 -82 79q-36 0 -64 -15t-50 -45t-39.5 -73.5t-33.5 -100.5q-31 -111 -31 -163q0 -79 82 -79zM282 556q67 0 102.5 -30t35.5 -87q0 -29 -7.5 -72t-27.5 -114q-18 -64 -39.5 -113.5t-50 -83t-67 -51
t-90.5 -17.5q-67 0 -102.5 30t-35.5 87q0 29 7.5 72t27.5 114q18 64 39.5 113t50 83t67 51.5t90.5 17.5zM477 747q-6 -17 -16.5 -34t-24 -31t-30.5 -23t-37 -9q-19 0 -35 7t-30 15t-28 15t-30 7q-22 0 -38 -15.5t-24 -33.5h-35q7 18 18 35.5t25.5 31t32.5 22t39 8.5
q17 0 31.5 -7t28.5 -15t28.5 -15t31.5 -7q21 0 34.5 16t21.5 33h37v0z" />
    <glyph glyph-name="odieresis.sc" horiz-adv-x="470" 
d="M142 34q36 0 64 15t50 45t39.5 73.5t33.5 100.5q31 111 31 163q0 79 -82 79q-36 0 -64 -15t-50 -45t-39.5 -73.5t-33.5 -100.5q-31 -111 -31 -163q0 -79 82 -79zM282 556q67 0 102.5 -30t35.5 -87q0 -29 -7.5 -72t-27.5 -114q-18 -64 -39.5 -113.5t-50 -83t-67 -51
t-90.5 -17.5q-67 0 -102.5 30t-35.5 87q0 29 7.5 72t27.5 114q18 64 39.5 113t50 83t67 51.5t90.5 17.5zM414 668h-62l26 90h62zM264 668h-62l26 90h62z" />
    <glyph glyph-name="omacron.sc" horiz-adv-x="470" 
d="M142 34q36 0 64 15t50 45t39.5 73.5t33.5 100.5q31 111 31 163q0 79 -82 79q-36 0 -64 -15t-50 -45t-39.5 -73.5t-33.5 -100.5q-31 -111 -31 -163q0 -79 82 -79zM282 556q67 0 102.5 -30t35.5 -87q0 -29 -7.5 -72t-27.5 -114q-18 -64 -39.5 -113.5t-50 -83t-67 -51
t-90.5 -17.5q-67 0 -102.5 30t-35.5 87q0 29 7.5 72t27.5 114q18 64 39.5 113t50 83t67 51.5t90.5 17.5zM440 672h-246l13 45h246z" />
    <glyph glyph-name="obreve.sc" horiz-adv-x="470" 
d="M142 34q36 0 64 15t50 45t39.5 73.5t33.5 100.5q31 111 31 163q0 79 -82 79q-36 0 -64 -15t-50 -45t-39.5 -73.5t-33.5 -100.5q-31 -111 -31 -163q0 -79 82 -79zM282 556q67 0 102.5 -30t35.5 -87q0 -29 -7.5 -72t-27.5 -114q-18 -64 -39.5 -113.5t-50 -83t-67 -51
t-90.5 -17.5q-67 0 -102.5 30t-35.5 87q0 29 7.5 72t27.5 114q18 64 39.5 113t50 83t67 51.5t90.5 17.5zM487 758q-23 -59 -65 -93t-107 -34q-45 0 -75 23t-30 70q0 17 3 34h37q0 -2 -0.5 -5.5t-0.5 -6.5q0 -38 21.5 -53.5t56.5 -15.5q44 0 74.5 22t50.5 59h35v0z" />
    <glyph glyph-name="ohungarumlaut.sc" horiz-adv-x="470" 
d="M142 34q36 0 64 15t50 45t39.5 73.5t33.5 100.5q31 111 31 163q0 79 -82 79q-36 0 -64 -15t-50 -45t-39.5 -73.5t-33.5 -100.5q-31 -111 -31 -163q0 -79 82 -79zM282 556q67 0 102.5 -30t35.5 -87q0 -29 -7.5 -72t-27.5 -114q-18 -64 -39.5 -113.5t-50 -83t-67 -51
t-90.5 -17.5q-67 0 -102.5 30t-35.5 87q0 29 7.5 72t27.5 114q18 64 39.5 113t50 83t67 51.5t90.5 17.5zM375 634h-48l145 139h74zM240 634h-48l146 139h73z" />
    <glyph glyph-name="oslash.sc" horiz-adv-x="470" 
d="M282 556q77 0 113 -42l58 66l26 -23l-66 -75q7 -18 7 -43q0 -29 -7.5 -72t-27.5 -114q-18 -64 -39.5 -113.5t-50 -83t-67 -51t-90.5 -17.5q-86 0 -119 48l-67 -76l-26 22l78 88q-4 15 -4 35q0 29 7.5 72t27.5 114q18 64 39.5 113t50 83t67 51.5t90.5 17.5zM142 34
q36 0 64 15t50 45t39.5 73.5t33.5 100.5q28 102 31 154l-297 -337q12 -51 79 -51zM91 276q-26 -92 -30 -141l293 332q-17 43 -76 43q-36 0 -64 -15t-50 -45t-39.5 -73.5t-33.5 -100.5z" />
    <glyph glyph-name="oe.sc" horiz-adv-x="646" 
d="M641 498h-211l-56 -196h201l-13 -46h-201l-59 -209h216l-13 -47h-208h-34.5t-31.5 -1q-15 -1 -37 -2t-39 -1q-73 0 -113.5 32t-40.5 101q0 26 5.5 56.5t16.5 68.5q15 54 33.5 106.5t49.5 94t79 67t123 25.5q17 0 36.5 -0.5t38.5 -1.5q21 -1 38.5 -1h34.5h198zM373 496
q-14 2 -31.5 3t-33.5 1q-58 0 -95.5 -23t-62.5 -59t-40 -80.5t-27 -87.5q-14 -47 -18 -72.5t-4 -46.5q0 -48 26 -68t76 -20q17 0 39.5 0.5t42.5 2.5z" />
    <glyph glyph-name="racute.sc" horiz-adv-x="445" 
d="M407 455q0 -37 -15.5 -74t-38.5 -61q-14 -14 -29.5 -23.5t-39.5 -15.5q29 -7 37.5 -21t8.5 -34q0 -17 -6.5 -43t-17.5 -65q-8 -29 -14 -59t-10 -59h-58q2 24 7 45.5t10 41.5q14 53 21.5 81.5t7.5 49.5q0 23 -22 32t-59 9h-86l-74 -259h-56l155 544h150q58 0 93.5 -19.5
t35.5 -69.5zM346 447q0 51 -73 51h-102l-55 -194h66q50 0 80 9t49 34q14 17 24.5 46t10.5 54zM265 634h-52l138 139h81z" />
    <glyph glyph-name="rcaron.sc" horiz-adv-x="445" 
d="M407 455q0 -37 -15.5 -74t-38.5 -61q-14 -14 -29.5 -23.5t-39.5 -15.5q29 -7 37.5 -21t8.5 -34q0 -17 -6.5 -43t-17.5 -65q-8 -29 -14 -59t-10 -59h-58q2 24 7 45.5t10 41.5q14 53 21.5 81.5t7.5 49.5q0 23 -22 32t-59 9h-86l-74 -259h-56l155 544h150q58 0 93.5 -19.5
t35.5 -69.5zM346 447q0 51 -73 51h-102l-55 -194h66q50 0 80 9t49 34q14 17 24.5 46t10.5 54zM224 773l58 -99l113 99h57l-141 -139h-67l-64 139h44z" />
    <glyph glyph-name="rcommaaccent.sc" horiz-adv-x="445" 
d="M407 455q0 -37 -15.5 -74t-38.5 -61q-14 -14 -29.5 -23.5t-39.5 -15.5q29 -7 37.5 -21t8.5 -34q0 -17 -6.5 -43t-17.5 -65q-8 -29 -14 -59t-10 -59h-58q2 24 7 45.5t10 41.5q14 53 21.5 81.5t7.5 49.5q0 23 -22 32t-59 9h-86l-74 -259h-56l155 544h150q58 0 93.5 -19.5
t35.5 -69.5zM346 447q0 51 -73 51h-102l-55 -194h66q50 0 80 9t49 34q14 17 24.5 46t10.5 54zM62 -200h-44l71 141h61z" />
    <glyph glyph-name="sacute.sc" horiz-adv-x="421" 
d="M395 468q0 -14 -4 -29.5t-9 -32.5h-59q7 20 9.5 30.5t2.5 21.5q0 29 -23 40.5t-56 11.5q-29 0 -52.5 -9t-41 -24.5t-27 -36t-9.5 -44.5q0 -25 13.5 -41t45.5 -36l41 -26q47 -30 66 -57.5t19 -67.5q0 -46 -19.5 -82.5t-54.5 -61.5q-27 -20 -58.5 -28t-69.5 -8
q-72 0 -104 27.5t-32 76.5q0 25 9 61h60q-5 -17 -7.5 -30.5t-2.5 -27.5q2 -61 83 -61q32 0 57.5 10.5t43.5 28t28 41t10 49.5q0 23 -14 42.5t-51 42.5l-40 25q-23 14 -38.5 27t-25 26t-13.5 28t-4 34q0 42 17.5 75t48.5 55q26 18 58 28t69 10q58 0 96 -21t38 -67zM273 634
h-52l138 139h81z" />
    <glyph glyph-name="scircumflex.sc" horiz-adv-x="421" 
d="M395 468q0 -14 -4 -29.5t-9 -32.5h-59q7 20 9.5 30.5t2.5 21.5q0 29 -23 40.5t-56 11.5q-29 0 -52.5 -9t-41 -24.5t-27 -36t-9.5 -44.5q0 -25 13.5 -41t45.5 -36l41 -26q47 -30 66 -57.5t19 -67.5q0 -46 -19.5 -82.5t-54.5 -61.5q-27 -20 -58.5 -28t-69.5 -8
q-72 0 -104 27.5t-32 76.5q0 25 9 61h60q-5 -17 -7.5 -30.5t-2.5 -27.5q2 -61 83 -61q32 0 57.5 10.5t43.5 28t28 41t10 49.5q0 23 -14 42.5t-51 42.5l-40 25q-23 14 -38.5 27t-25 26t-13.5 28t-4 34q0 42 17.5 75t48.5 55q26 18 58 28t69 10q58 0 96 -21t38 -67zM366 634
l-58 99l-113 -99h-57l141 139h67l64 -139h-44z" />
    <glyph glyph-name="scaron.sc" horiz-adv-x="421" 
d="M395 468q0 -14 -4 -29.5t-9 -32.5h-59q7 20 9.5 30.5t2.5 21.5q0 29 -23 40.5t-56 11.5q-29 0 -52.5 -9t-41 -24.5t-27 -36t-9.5 -44.5q0 -25 13.5 -41t45.5 -36l41 -26q47 -30 66 -57.5t19 -67.5q0 -46 -19.5 -82.5t-54.5 -61.5q-27 -20 -58.5 -28t-69.5 -8
q-72 0 -104 27.5t-32 76.5q0 25 9 61h60q-5 -17 -7.5 -30.5t-2.5 -27.5q2 -61 83 -61q32 0 57.5 10.5t43.5 28t28 41t10 49.5q0 23 -14 42.5t-51 42.5l-40 25q-23 14 -38.5 27t-25 26t-13.5 28t-4 34q0 42 17.5 75t48.5 55q26 18 58 28t69 10q58 0 96 -21t38 -67zM219 773
l58 -99l113 99h57l-141 -139h-67l-64 139h44z" />
    <glyph glyph-name="scedilla.sc" horiz-adv-x="421" 
d="M189 -103q0 -25 -12 -44.5t-31 -33t-42.5 -20.5t-45.5 -7q-47 0 -83 20l23 30q14 -7 28.5 -11t30.5 -4q13 0 26.5 4t24 11t17.5 17.5t7 24.5q0 16 -10.5 22.5t-28.5 6.5q-11 0 -21.5 -2.5t-21.5 -5.5l-11 13l62 70q-67 2 -97.5 29t-30.5 75q0 25 9 61h60
q-5 -17 -7.5 -30.5t-2.5 -27.5q2 -61 83 -61q32 0 57.5 10.5t43.5 28t28 41t10 49.5q0 23 -14 42.5t-51 42.5l-40 25q-23 14 -38.5 27t-25 26t-13.5 28t-4 34q0 42 17.5 75t48.5 55q26 18 58 28t69 10q58 0 96 -21t38 -67q0 -14 -4 -29.5t-9 -32.5h-59q7 20 9.5 30.5
t2.5 21.5q0 29 -23 40.5t-56 11.5q-29 0 -52.5 -9t-41 -24.5t-27 -36t-9.5 -44.5q0 -25 13.5 -41t45.5 -36l41 -26q47 -30 66 -57.5t19 -67.5q0 -46 -19.5 -82.5t-54.5 -61.5q-22 -16 -45.5 -24t-52.5 -11l-43 -48q18 6 36 6q23 0 40 -12.5t17 -37.5z" />
    <glyph glyph-name="scommaaccent.sc" horiz-adv-x="421" 
d="M395 468q0 -14 -4 -29.5t-9 -32.5h-59q7 20 9.5 30.5t2.5 21.5q0 29 -23 40.5t-56 11.5q-29 0 -52.5 -9t-41 -24.5t-27 -36t-9.5 -44.5q0 -25 13.5 -41t45.5 -36l41 -26q47 -30 66 -57.5t19 -67.5q0 -46 -19.5 -82.5t-54.5 -61.5q-27 -20 -58.5 -28t-69.5 -8
q-72 0 -104 27.5t-32 76.5q0 25 9 61h60q-5 -17 -7.5 -30.5t-2.5 -27.5q2 -61 83 -61q32 0 57.5 10.5t43.5 28t28 41t10 49.5q0 23 -14 42.5t-51 42.5l-40 25q-23 14 -38.5 27t-25 26t-13.5 28t-4 34q0 42 17.5 75t48.5 55q26 18 58 28t69 10q58 0 96 -21t38 -67zM36 -200
h-44l71 141h61z" />
    <glyph glyph-name="tcaron.sc" horiz-adv-x="357" 
d="M246 498l-142 -498h-57l142 498h-142l13 46h341l-13 -46h-142zM191 773l58 -99l113 99h57l-141 -139h-67l-64 139h44z" />
    <glyph glyph-name="tcommaaccent.sc" horiz-adv-x="357" 
d="M246 498l-142 -498h-57l142 498h-142l13 46h341l-13 -46h-142zM3 -200h-44l71 141h61z" />
    <glyph glyph-name="tbar.sc" horiz-adv-x="357" 
d="M11 304h122l56 194h-142l13 46h341l-13 -46h-142l-56 -194h124l-14 -46h-123l-73 -258h-57l73 258h-123z" />
    <glyph glyph-name="thorn.sc" horiz-adv-x="403" 
d="M221 426q29 0 54 -4.5t43 -15.5t28.5 -28.5t10.5 -43.5q0 -21 -4.5 -44t-13 -44.5t-20 -40t-25.5 -31.5q-29 -27 -70 -37.5t-95 -10.5h-65l-36 -126h-55l154 544h57l-34 -118h71zM299 323q0 33 -22.5 45t-60.5 12h-79l-59 -208h58q81 0 118 35q20 19 32.5 53t12.5 63z
" />
    <glyph glyph-name="ugrave.sc" horiz-adv-x="481" 
d="M362 181q-12 -43 -27.5 -78.5t-40 -61t-60.5 -39.5t-89 -14q-64 0 -104 22.5t-40 78.5q0 26 4.5 50t11.5 48l103 357h57l-103 -360q-5 -20 -10 -45t-5 -45q0 -33 24 -46t64 -13q39 0 65 12t44 32.5t29 47t19 56.5l104 361h57zM319 634l-91 139h72l65 -139h-46z" />
    <glyph glyph-name="uacute.sc" horiz-adv-x="481" 
d="M362 181q-12 -43 -27.5 -78.5t-40 -61t-60.5 -39.5t-89 -14q-64 0 -104 22.5t-40 78.5q0 26 4.5 50t11.5 48l103 357h57l-103 -360q-5 -20 -10 -45t-5 -45q0 -33 24 -46t64 -13q39 0 65 12t44 32.5t29 47t19 56.5l104 361h57zM305 634h-52l138 139h81z" />
    <glyph glyph-name="ucircumflex.sc" horiz-adv-x="481" 
d="M362 181q-12 -43 -27.5 -78.5t-40 -61t-60.5 -39.5t-89 -14q-64 0 -104 22.5t-40 78.5q0 26 4.5 50t11.5 48l103 357h57l-103 -360q-5 -20 -10 -45t-5 -45q0 -33 24 -46t64 -13q39 0 65 12t44 32.5t29 47t19 56.5l104 361h57zM407 634l-58 99l-113 -99h-57l141 139h67
l64 -139h-44z" />
    <glyph glyph-name="utilde.sc" horiz-adv-x="481" 
d="M362 181q-12 -43 -27.5 -78.5t-40 -61t-60.5 -39.5t-89 -14q-64 0 -104 22.5t-40 78.5q0 26 4.5 50t11.5 48l103 357h57l-103 -360q-5 -20 -10 -45t-5 -45q0 -33 24 -46t64 -13q39 0 65 12t44 32.5t29 47t19 56.5l104 361h57zM490 747q-6 -17 -16.5 -34t-24 -31
t-30.5 -23t-37 -9q-19 0 -35 7t-30 15t-28 15t-30 7q-22 0 -38 -15.5t-24 -33.5h-35q7 18 18 35.5t25.5 31t32.5 22t39 8.5q17 0 31.5 -7t28.5 -15t28.5 -15t31.5 -7q21 0 34.5 16t21.5 33h37v0z" />
    <glyph glyph-name="udieresis.sc" horiz-adv-x="481" 
d="M362 181q-12 -43 -27.5 -78.5t-40 -61t-60.5 -39.5t-89 -14q-64 0 -104 22.5t-40 78.5q0 26 4.5 50t11.5 48l103 357h57l-103 -360q-5 -20 -10 -45t-5 -45q0 -33 24 -46t64 -13q39 0 65 12t44 32.5t29 47t19 56.5l104 361h57zM428 668h-62l26 90h62zM278 668h-62l26 90
h62z" />
    <glyph glyph-name="umacron.sc" horiz-adv-x="481" 
d="M362 181q-12 -43 -27.5 -78.5t-40 -61t-60.5 -39.5t-89 -14q-64 0 -104 22.5t-40 78.5q0 26 4.5 50t11.5 48l103 357h57l-103 -360q-5 -20 -10 -45t-5 -45q0 -33 24 -46t64 -13q39 0 65 12t44 32.5t29 47t19 56.5l104 361h57zM446 672h-246l13 45h246z" />
    <glyph glyph-name="ubreve.sc" horiz-adv-x="481" 
d="M362 181q-12 -43 -27.5 -78.5t-40 -61t-60.5 -39.5t-89 -14q-64 0 -104 22.5t-40 78.5q0 26 4.5 50t11.5 48l103 357h57l-103 -360q-5 -20 -10 -45t-5 -45q0 -33 24 -46t64 -13q39 0 65 12t44 32.5t29 47t19 56.5l104 361h57zM477 758q-23 -59 -65 -93t-107 -34
q-45 0 -75 23t-30 70q0 17 3 34h37q0 -2 -0.5 -5.5t-0.5 -6.5q0 -38 21.5 -53.5t56.5 -15.5q44 0 74.5 22t50.5 59h35v0z" />
    <glyph glyph-name="uring.sc" horiz-adv-x="481" 
d="M362 181q-12 -43 -27.5 -78.5t-40 -61t-60.5 -39.5t-89 -14q-64 0 -104 22.5t-40 78.5q0 26 4.5 50t11.5 48l103 357h57l-103 -360q-5 -20 -10 -45t-5 -45q0 -33 24 -46t64 -13q39 0 65 12t44 32.5t29 47t19 56.5l104 361h57zM408 711q0 -37 -25.5 -62.5t-62.5 -25.5
t-62.5 25.5t-25.5 62.5t25.5 62.5t62.5 25.5t62.5 -25.5t25.5 -62.5zM378 711q0 24 -17 41t-41 17t-41 -17t-17 -41t17 -41t41 -17t41 17t17 41z" />
    <glyph glyph-name="uhungarumlaut.sc" horiz-adv-x="481" 
d="M362 181q-12 -43 -27.5 -78.5t-40 -61t-60.5 -39.5t-89 -14q-64 0 -104 22.5t-40 78.5q0 26 4.5 50t11.5 48l103 357h57l-103 -360q-5 -20 -10 -45t-5 -45q0 -33 24 -46t64 -13q39 0 65 12t44 32.5t29 47t19 56.5l104 361h57zM375 634h-48l145 139h74zM240 634h-48
l146 139h73z" />
    <glyph glyph-name="uogonek.sc" horiz-adv-x="481" 
d="M362 181q-11 -38 -24 -69.5t-32.5 -56.5t-46.5 -41t-66 -22q-47 -23 -73.5 -49.5t-26.5 -55.5q0 -21 10.5 -31.5t28.5 -10.5q11 0 21.5 3t21.5 7l1 -22q-19 -8 -39 -15t-41 -7q-24 0 -41 13.5t-17 39.5q0 38 30 68.5t74 55.5q-31 0 -57 5.5t-44.5 17.5t-29 31t-10.5 47
q0 26 4.5 50t11.5 48l103 357h57l-103 -360q-5 -20 -10 -45t-5 -45q0 -33 24 -46t64 -13q39 0 65 12t44 32.5t29 47t19 56.5l104 361h57z" />
    <glyph glyph-name="wacute.sc" horiz-adv-x="704" 
d="M431 0h-69l24 475l-255 -475h-69l17 544h58l-24 -480l257 480h69l-25 -480l255 480h60zM442 634h-52l138 139h81z" />
    <glyph glyph-name="wcircumflex.sc" horiz-adv-x="704" 
d="M431 0h-69l24 475l-255 -475h-69l17 544h58l-24 -480l257 480h69l-25 -480l255 480h60zM519 634l-58 99l-113 -99h-57l141 139h67l64 -139h-44z" />
    <glyph glyph-name="wdieresis.sc" horiz-adv-x="704" 
d="M431 0h-69l24 475l-255 -475h-69l17 544h58l-24 -480l257 480h69l-25 -480l255 480h60zM538 668h-62l26 90h62zM388 668h-62l26 90h62z" />
    <glyph glyph-name="wgrave.sc" horiz-adv-x="704" 
d="M431 0h-69l24 475l-255 -475h-69l17 544h58l-24 -480l257 480h69l-25 -480l255 480h60zM409 634l-91 139h72l65 -139h-46z" />
    <glyph glyph-name="yacute.sc" horiz-adv-x="412" 
d="M193 219l-62 -219h-57l62 220l-70 324h59l53 -272l206 272h66zM261 634h-52l138 139h81z" />
    <glyph glyph-name="ycircumflex.sc" horiz-adv-x="412" 
d="M193 219l-62 -219h-57l62 220l-70 324h59l53 -272l206 272h66zM361 634l-58 99l-113 -99h-57l141 139h67l64 -139h-44z" />
    <glyph glyph-name="ydieresis.sc" horiz-adv-x="412" 
d="M193 219l-62 -219h-57l62 220l-70 324h59l53 -272l206 272h66zM379 668h-62l26 90h62zM229 668h-62l26 90h62z" />
    <glyph glyph-name="ygrave.sc" horiz-adv-x="412" 
d="M193 219l-62 -219h-57l62 220l-70 324h59l53 -272l206 272h66zM282 634l-91 139h72l65 -139h-46z" />
    <glyph glyph-name="zacute.sc" horiz-adv-x="380" 
d="M390 493l-386 -446h258l-13 -47h-323l13 47l390 451h-246l13 46h308zM251 634h-52l138 139h81z" />
    <glyph glyph-name="zcaron.sc" horiz-adv-x="380" 
d="M390 493l-386 -446h258l-13 -47h-323l13 47l390 451h-246l13 46h308zM213 773l58 -99l113 99h57l-141 -139h-67l-64 139h44z" />
    <glyph glyph-name="zdotaccent.sc" horiz-adv-x="380" 
d="M390 493l-386 -446h258l-13 -47h-323l13 47l390 451h-246l13 46h308zM307 668h-62l26 90h62z" />
    <glyph glyph-name="ij.sc" horiz-adv-x="589" 
d="M-27 0l154 544h57l-155 -544h-56zM465 163q-12 -40 -26.5 -72.5t-36 -55t-51 -35t-70.5 -12.5q-54 0 -86 19t-32 66q0 23 4.5 43t11.5 42h56q-8 -20 -12.5 -38.5t-4.5 -35.5q0 -49 65 -49q34 0 55.5 12.5t35.5 32t22 43.5t14 47l107 374h57z" />
    <glyph glyph-name="germandbls.sc" horiz-adv-x="842" 
d="M816 468q0 -14 -4 -29.5t-9 -32.5h-59q7 20 9.5 30.5t2.5 21.5q0 29 -23 40.5t-56 11.5q-29 0 -52.5 -9t-41 -24.5t-27 -36t-9.5 -44.5q0 -25 13.5 -41t45.5 -36l41 -26q47 -30 66 -57.5t19 -67.5q0 -46 -19.5 -82.5t-54.5 -61.5q-27 -20 -58.5 -28t-69.5 -8
q-72 0 -104 27.5t-32 76.5q0 25 9 61h60q-5 -17 -7.5 -30.5t-2.5 -27.5q2 -61 83 -61q32 0 57.5 10.5t43.5 28t28 41t10 49.5q0 23 -14 42.5t-51 42.5l-40 25q-23 14 -38.5 27t-25 26t-13.5 28t-4 34q0 42 17.5 75t48.5 55q26 18 58 28t69 10q58 0 96 -21t38 -67zM395 468
q0 -14 -4 -29.5t-9 -32.5h-59q7 20 9.5 30.5t2.5 21.5q0 29 -23 40.5t-56 11.5q-29 0 -52.5 -9t-41 -24.5t-27 -36t-9.5 -44.5q0 -25 13.5 -41t45.5 -36l41 -26q47 -30 66 -57.5t19 -67.5q0 -46 -19.5 -82.5t-54.5 -61.5q-27 -20 -58.5 -28t-69.5 -8q-72 0 -104 27.5
t-32 76.5q0 25 9 61h60q-5 -17 -7.5 -30.5t-2.5 -27.5q2 -61 83 -61q32 0 57.5 10.5t43.5 28t28 41t10 49.5q0 23 -14 42.5t-51 42.5l-40 25q-23 14 -38.5 27t-25 26t-13.5 28t-4 34q0 42 17.5 75t48.5 55q26 18 58 28t69 10q58 0 96 -21t38 -67z" />
    <glyph glyph-name="eng.sc" horiz-adv-x="515" 
d="M282 0l-117 489l-139 -489h-54l154 544h77l108 -439l126 439h54l-176 -619q-9 -31 -19.5 -55t-27 -40.5t-40 -25.5t-56.5 -9q-14 0 -29 3l15 49q8 -2 18 -2q18 0 31 4t22.5 14t17 25.5t14.5 38.5z" />
    <glyph glyph-name="grave.sc" horiz-adv-x="175" 
d="M173 634l-91 139h72l65 -139h-46z" />
    <glyph glyph-name="acute.sc" horiz-adv-x="175" 
d="M141 634h-52l138 139h81z" />
    <glyph glyph-name="circumflex.sc" horiz-adv-x="175" 
d="M248 634l-58 99l-113 -99h-57l141 139h67l64 -139h-44z" />
    <glyph glyph-name="caron.sc" horiz-adv-x="175" 
d="M101 773l58 -99l113 99h57l-141 -139h-67l-64 139h44z" />
    <glyph glyph-name="tilde.sc" horiz-adv-x="175" 
d="M337 747q-6 -17 -16.5 -34t-24 -31t-30.5 -23t-37 -9q-19 0 -35 7t-30 15t-28 15t-30 7q-22 0 -38 -15.5t-24 -33.5h-35q7 18 18 35.5t25.5 31t32.5 22t39 8.5q17 0 31.5 -7t28.5 -15t28.5 -15t31.5 -7q21 0 34.5 16t21.5 33h37v0z" />
    <glyph glyph-name="dieresis.sc" horiz-adv-x="175" 
d="M271 668h-62l26 90h62zM121 668h-62l26 90h62z" />
    <glyph glyph-name="macron.sc" horiz-adv-x="175" 
d="M289 672h-246l13 45h246z" />
    <glyph glyph-name="breve.sc" horiz-adv-x="175" 
d="M328 758q-23 -59 -65 -93t-107 -34q-45 0 -75 23t-30 70q0 17 3 34h37q0 -2 -0.5 -5.5t-0.5 -6.5q0 -38 21.5 -53.5t56.5 -15.5q44 0 74.5 22t50.5 59h35v0z" />
    <glyph glyph-name="ring.sc" horiz-adv-x="175" 
d="M262 711q0 -37 -25.5 -62.5t-62.5 -25.5t-62.5 25.5t-25.5 62.5t25.5 62.5t62.5 25.5t62.5 -25.5t25.5 -62.5zM232 711q0 24 -17 41t-41 17t-41 -17t-17 -41t17 -41t41 -17t41 17t17 41z" />
    <glyph glyph-name="hungarumlaut.sc" horiz-adv-x="175" 
d="M210 634h-48l145 139h74zM75 634h-48l146 139h73z" />
    <glyph glyph-name="dotaccent.sc" horiz-adv-x="175" 
d="M196 668h-62l26 90h62z" />
    <glyph glyph-name="exclamdown.sc" horiz-adv-x="190" 
d="M86.9951 416.975h48.9971l-111.994 -416.975h-62.9961zM180.989 543.967l-20.999 -76.9951h-68.9961l21.999 76.9951h67.9961z" />
    <glyph glyph-name="questiondown.sc" horiz-adv-x="322" 
d="M-24.998 63.9961q0 25.998 5.99902 46.9971q11.999 47.9971 44.4971 86.4951q32.498 38.4971 71.4961 77.4951q34.998 34.998 52.9971 96.9941l9.99902 33.998h51.9971l-7 -23.999q-7.99902 -27.998 -17.499 -49.9971q-9.49902 -21.998 -19.998 -39.4971
q-10.5 -17.499 -22.499 -32.498t-25.998 -28.998q-25.999 -27.999 -48.9971 -57.9971q-22.999 -29.998 -30.998 -64.9961q-4 -14.999 -4 -34.998q0 -17.998 10.499 -28.498q10.499 -10.499 33.498 -10.499q32.998 0 50.9971 18.999t27.998 50.9971l4 14.999h54.9961
l-2.99902 -13q-12 -53.9961 -46.4971 -85.9941q-34.498 -31.998 -99.4941 -31.998q-51.9971 0 -72.4961 21.998q-20.498 21.999 -20.498 53.9971zM259.984 543.967l-21.999 -76.9951h-68.9961l21.999 76.9951h68.9961z" />
    <glyph glyph-name="Euro.sc" horiz-adv-x="372" 
d="M54 254l15 54h-65l21 41h56q11 37 28 74.5t43 66.5t62.5 47.5t87.5 18.5q32 0 59.5 -9t47.5 -33l-26 -52q-12 26 -34.5 37t-50.5 11q-66 0 -102 -42.5t-59 -118.5h184l-20 -41h-175l-15 -54h164l-20 -41h-156q-7 -26 -11.5 -44t-7.5 -31.5t-4 -24t-1 -20.5
q0 -26 18 -42.5t63 -16.5q32 0 55 9.5t46 31.5l3 -58q-29 -17 -54.5 -23t-60.5 -6q-25 0 -48 5.5t-40.5 17.5t-28 31.5t-10.5 47.5q0 25 5.5 52.5t18.5 70.5h-75l21 41h66z" />
    <glyph glyph-name="cent.sc" horiz-adv-x="380" 
d="M283 461q44 -18 44 -65q0 -12 -1.5 -23t-6.5 -25h-54q8 26 8 42q0 20 -13 29l-165 -301q11 -4 30 -4q45 0 65 24t31 59h54q-17 -57 -55 -90.5t-104 -33.5q-12 0 -23 1t-21 3l-49 -89h-36l56 102q-33 20 -33 69q0 24 7 55t16 63q13 47 28.5 83t38 60.5t54 37t77.5 12.5
q5 0 10.5 -0.5t10.5 -1.5l49 88h35zM66 166q0 -18 4 -27l160 288q-4 1 -12 1q-30 0 -51 -14t-36 -36.5t-25 -51t-18 -56.5q-10 -35 -16 -60.5t-6 -43.5z" />
    <glyph glyph-name="sterling.sc" horiz-adv-x="380" 
d="M380 482q0 -15 -4 -32.5t-9 -32.5h-54q5 17 7.5 31t2.5 21q0 42 -50 42q-23 0 -40.5 -7.5t-29.5 -20t-20.5 -28.5t-13.5 -34l-34 -116h116l-13 -45h-116l-61 -213h192l-13 -47h-308l13 47h59l61 213h-66l13 45h66l29 103q9 33 22 60t32.5 46.5t48 30.5t69.5 11
q45 0 73 -18t28 -56z" />
    <glyph glyph-name="florin.sc" horiz-adv-x="380" 
d="M228 367h75l-18 -43h-75l-128 -303q-13 -30 -27 -56t-32 -44.5t-41.5 -29.5t-55.5 -11h-8.5t-10.5 1l20 47q5 -1 9 -1q24 0 46.5 20t42.5 68l129 309h-65l19 43h64l29 70q10 23 22.5 44.5t30 38t40 26.5t51.5 10q18 0 38 -6l-22 -47q-15 5 -25 5q-28 0 -46 -20t-32 -52z
" />
    <glyph glyph-name="yen.sc" horiz-adv-x="380" 
d="M198 239h94l-12 -41h-111l-15 -54h111l-12 -41h-111l-29 -103h-55l29 103h-109l12 41h109l15 54h-109l12 41h94l-51 305h57l40 -287l205 287h62z" />
    <glyph glyph-name="perthousand.sc" horiz-adv-x="763" 
d="M248 421q-18 -63 -47 -97t-83 -34q-38 0 -56 19.5t-18 50.5q0 17 2 30t7 31q18 63 47 97t83 34q38 0 56 -19.5t18 -50.5q0 -17 -2 -30t-7 -31zM201 427q9 33 9 52q0 15 -8.5 24.5t-25.5 9.5q-32 0 -47 -25.5t-29 -72.5q-9 -33 -9 -52q0 -15 8.5 -24.5t25.5 -9.5
q32 0 47 25.5t29 72.5zM416 125q-18 -63 -47 -97t-83 -34q-38 0 -56 19.5t-18 50.5q0 17 2 30t7 31q18 63 47 97t83 34q38 0 56 -19.5t18 -50.5q0 -17 -2 -30t-7 -31zM369 131q9 33 9 52q0 15 -8.5 24.5t-25.5 9.5q-32 0 -47 -25.5t-29 -72.5q-9 -33 -9 -52q0 -15 8.5 -24.5
t25.5 -9.5q32 0 47 25.5t29 72.5zM663 125q-18 -63 -47 -97t-83 -34q-38 0 -56 19.5t-18 50.5q0 17 2 30t7 31q18 63 47 97t83 34q38 0 56 -19.5t18 -50.5q0 -17 -2 -30t-7 -31zM616 131q9 33 9 52q0 15 -8.5 24.5t-25.5 9.5q-32 0 -47 -25.5t-29 -72.5q-9 -33 -9 -52
q0 -15 8.5 -24.5t25.5 -9.5q32 0 47 25.5t29 72.5zM-6 -24h-52l533 592h52z" />
    <glyph glyph-name="parenleft.sc" horiz-adv-x="212" 
d="M11 264q25 87 66 167.5t100 170.5h45q-53 -91 -90 -172t-60 -163q-20 -70 -29.5 -140.5t-9.5 -139.5v-23.5t1 -23.5h-44q-2 28 -3.5 55t-1.5 56q0 53 5.5 106t20.5 107z" />
    <glyph glyph-name="parenright.sc" horiz-adv-x="210" 
d="M151 278q-25 -87 -66 -167.5t-100 -170.5h-45q53 91 90 172t60 163q20 70 29.5 140.5t9.5 139.5v23.5t-1 23.5h44q2 -28 3.5 -55t1.5 -56q0 -53 -5.5 -106t-20.5 -107z" />
    <glyph glyph-name="bracketleft.sc" horiz-adv-x="213" 
d="M-64 -60l188 662h118l-11 -40h-67l-167 -582h67l-11 -40h-117z" />
    <glyph glyph-name="bracketright.sc" horiz-adv-x="213" 
d="M-79 -60l11 40h66l167 582h-67l11 40h118l-189 -662h-117z" />
    <glyph glyph-name="braceleft.sc" horiz-adv-x="262" 
d="M127 -60q-64 3 -88 22t-24 54q0 16 4 35t10 41l15 53q5 15 7.5 27.5t2.5 23.5q0 31 -22 43.5t-52 15.5l9 33q31 4 51.5 11.5t35 20t23.5 30t16 43.5l16 56q9 33 20 59.5t31 46t52 32t82 15.5l-9 -33q-34 -3 -55 -12t-34.5 -24.5t-21.5 -37.5t-16 -51l-11 -39
q-6 -22 -15 -43t-23 -39t-34.5 -31.5t-50.5 -19.5q32 -9 44.5 -27.5t12.5 -43.5q0 -14 -3.5 -29.5t-8.5 -31.5l-14 -48q-5 -19 -8.5 -35.5t-3.5 -30.5q0 -23 14.5 -36.5t56.5 -15.5z" />
    <glyph glyph-name="braceright.sc" horiz-adv-x="263" 
d="M85 602q64 -3 88 -21.5t24 -53.5q0 -16 -4 -35t-10 -41l-15 -53q-5 -15 -7.5 -27.5t-2.5 -23.5q0 -31 22 -43.5t52 -15.5l-9 -33q-31 -5 -51.5 -12t-35 -19.5t-23.5 -30.5t-16 -43l-16 -56q-9 -33 -20 -59.5t-31 -46.5t-52 -32.5t-82 -15.5l9 33q34 3 55 12t34.5 24.5
t21.5 38t16 51.5l11 39q6 22 15 43t23 39t34.5 31.5t50.5 19.5q-32 9 -44.5 27.5t-12.5 43.5q0 14 3.5 29.5t8.5 31.5l14 48q5 19 8.5 35.5t3.5 30.5q0 23 -14.5 36t-56.5 15z" />
    <glyph glyph-name="zero.onum" 
d="M111 -12q-62 0 -94.5 31t-32.5 81q0 27 5 62t18 80l19 66q21 74 46 123t55 78t66 41t79 12q62 0 94.5 -31t32.5 -81q0 -27 -5 -62t-18 -80l-19 -66q-21 -74 -46 -123t-55 -78t-66 -41t-79 -12zM121 38q28 0 53 10.5t46.5 35t40.5 63.5t36 96l19 65q12 42 17.5 74.5
t5.5 55.5q0 41 -21 57.5t-56 16.5q-28 0 -53 -10.5t-46.5 -35t-41 -63.5t-35.5 -96l-19 -65q-12 -42 -17.5 -74.5t-5.5 -55.5q0 -41 21 -57.5t56 -16.5z" />
    <glyph glyph-name="one.onum" 
d="M106 0l137 481q-32 -21 -75.5 -42.5t-79.5 -34.5l17 62q15 6 35.5 15.5t43 20.5t44.5 23.5t40 24.5h54l-157 -550h-59z" />
    <glyph glyph-name="two.onum" 
d="M-54 0l16 55l232 198q33 28 60.5 52t47 47.5t30.5 47t11 49.5q0 29 -20 46.5t-58 17.5q-52 0 -87 -28.5t-53 -82.5h-60q29 85 81 122.5t124 37.5q33 0 57.5 -9t41 -24.5t24.5 -35.5t8 -42q0 -32 -11 -59.5t-34 -56t-58 -61t-84 -72.5l-185 -153h260l-14 -49h-329z" />
    <glyph glyph-name="three.onum" 
d="M392 447q0 -26 -4.5 -48t-10.5 -42q-11 -35 -26.5 -59.5t-35 -41t-40.5 -26t-42 -14.5q40 -9 54 -35.5t14 -58.5q0 -29 -9.5 -62.5t-16.5 -52.5q-12 -33 -28.5 -62t-41.5 -51.5t-60 -35.5t-83 -13q-27 0 -50 5.5t-40 18t-27 33.5t-10 51q0 20 3.5 37.5t8.5 36.5h58
q-5 -15 -8 -30t-3 -31q0 -38 19 -55t59 -17q32 0 54.5 8.5t39 24t28 37.5t22.5 50q9 24 16.5 50.5t7.5 47.5q0 25 -8.5 41t-23.5 24t-35 11t-42 3h-9l15 50h9q35 1 61 7t46 19.5t35 34.5t27 51q8 18 12.5 40.5t4.5 45.5q0 37 -16 55.5t-55 18.5q-29 0 -50.5 -8t-38 -24.5
t-29 -41t-23.5 -56.5h-58q12 42 28.5 75t41 56t58.5 35.5t81 12.5q121 0 121 -115z" />
    <glyph glyph-name="four.onum" 
d="M232 0l-41 -143h-57l41 143h-236l18 63l348 487h85l-144 -501h78l-14 -49h-78zM313 483l-309 -434h185z" />
    <glyph glyph-name="five.onum" 
d="M400 500h-236l-83 -255q26 26 57 40t71 14q60 0 85 -28.5t25 -80.5q0 -48 -14 -102q-11 -44 -29.5 -87t-47.5 -78t-69 -56.5t-95 -21.5q-60 0 -93 23.5t-33 81.5q0 20 3.5 37t8.5 32h57q-6 -16 -8.5 -30.5t-2.5 -26.5q0 -36 19.5 -52t57.5 -16q33 0 60 14.5t48 40
t36.5 60.5t27.5 76q8 26 11.5 48t3.5 47q0 13 -3 25.5t-11 22.5t-22.5 16.5t-37.5 6.5q-48 0 -78 -20.5t-47 -54.5h-57l118 374h293z" />
    <glyph glyph-name="six.onum" 
d="M448 627q0 -19 -3 -35t-8 -34h-59q4 13 6.5 26t2.5 27q0 36 -19.5 49.5t-51.5 13.5q-49 0 -81 -29.5t-53 -74t-35.5 -97.5t-29.5 -101q16 18 30.5 31.5t31 23t36.5 14.5t46 5q51 0 80 -26t29 -90q0 -28 -4.5 -59t-13 -62t-20.5 -60t-27 -53q-30 -51 -75.5 -79.5
t-112.5 -28.5q-60 0 -90.5 28.5t-30.5 94.5q0 26 5 55t13 60t17.5 62t18.5 60q13 44 25.5 89t27.5 87t34 78t45.5 63t61.5 42.5t82 15.5q55 0 88.5 -22.5t33.5 -73.5zM307 314q0 17 -2.5 31.5t-10 25.5t-21 17.5t-35.5 6.5q-32 0 -59 -13.5t-48 -36.5t-36.5 -52.5
t-24.5 -60.5q-8 -29 -13 -57t-5 -53q0 -40 16 -61.5t58 -21.5q47 0 78 22.5t52 59.5q12 21 21.5 45.5t16 50t10 50.5t3.5 47z" />
    <glyph glyph-name="seven.onum" 
d="M412 495l-385 -638h-66l396 641h-279l15 52h335z" />
    <glyph glyph-name="eight.onum" 
d="M450 612q0 -33 -8.5 -69t-25.5 -69q-45 -89 -124 -104q36 -6 52.5 -29.5t16.5 -54.5q0 -23 -4.5 -48.5t-10.5 -48.5q-13 -48 -32 -85t-46.5 -63t-65 -39.5t-87.5 -13.5q-57 0 -92.5 28t-35.5 85q0 23 3.5 45.5t9.5 44.5q9 31 20.5 60t29 53t42 41.5t59.5 24.5
q-59 24 -59 88q0 38 10 75.5t27 69.5q34 63 78.5 91.5t113.5 28.5q59 0 94 -27t35 -84zM388 603q0 36 -20 53.5t-54 17.5q-42 0 -71.5 -19.5t-52.5 -57.5q-18 -29 -27.5 -63.5t-9.5 -66.5q0 -75 77 -75q51 0 86 33.5t53 79.5q10 24 14.5 49.5t4.5 48.5zM298 271
q0 40 -22 55.5t-59 15.5q-36 0 -61.5 -12.5t-44.5 -33.5t-31 -49t-21 -58q-5 -17 -8.5 -35t-3.5 -36q0 -39 20 -60t60 -21q36 0 61.5 13t44 34.5t30.5 49.5t21 58q5 20 9.5 39.5t4.5 39.5z" />
    <glyph glyph-name="nine.onum" 
d="M389 444q0 -23 -5.5 -51.5t-14 -59.5t-18.5 -62.5t-19 -60.5t-18.5 -63.5t-21.5 -69.5t-26 -69t-32 -62q-15 -24 -31.5 -42.5t-38 -31.5t-48.5 -20t-62 -7q-57 0 -86 24t-29 75q0 19 1.5 35t6.5 34h59q-8 -30 -8 -57q0 -62 71 -62q45 0 73 23t49 60q23 40 42.5 98
t36.5 115q-30 -30 -65.5 -46.5t-78.5 -16.5q-49 0 -77 28t-28 83q0 31 6.5 58.5t14.5 56.5q13 45 31 83.5t44.5 66t63.5 43.5t87 16q57 0 89 -31.5t32 -86.5zM331 435q0 37 -19 57.5t-57 20.5q-35 0 -59.5 -13.5t-42.5 -36t-30.5 -51t-21.5 -59.5q-11 -35 -15.5 -57.5
t-4.5 -43.5q0 -35 15 -55t52 -20q41 0 69 15t47.5 40t32.5 56.5t22 64.5q6 21 9 40.5t3 41.5z" />
    <glyph glyph-name="zero.scprop" horiz-adv-x="380" 
d="M93 32q23 0 42.5 7.5t36.5 26.5t32.5 51.5t29.5 81.5l39 135q11 39 17.5 70.5t6.5 48.5q0 27 -15.5 43t-46.5 16q-23 0 -42.5 -7.5t-36.5 -26.5t-32.5 -51.5t-29.5 -81.5l-39 -135q-11 -39 -17.5 -70.5t-6.5 -48.5q0 -27 15.5 -43t46.5 -16zM85 -12q-54 0 -82.5 26.5
t-28.5 77.5q0 17 8.5 56t23.5 90l36 124q14 49 32 85.5t42 60.5t55 36t72 12q54 0 82.5 -26.5t28.5 -77.5q0 -17 -8.5 -56t-23.5 -90l-36 -124q-14 -50 -32 -86.5t-42 -60.5t-55 -35.5t-72 -11.5z" />
    <glyph glyph-name="one.scprop" horiz-adv-x="320" 
d="M44 0l136 475q-29 -20 -58 -37.5t-62 -34.5l17 59q14 7 31.5 17t35 21t33.5 22.5t27 21.5h51l-155 -544h-56z" />
    <glyph glyph-name="two.scprop" horiz-adv-x="380" 
d="M363 462q0 -21 -5.5 -41t-19 -42.5t-35.5 -48.5t-55 -59l-229 -226h228l-13 -45h-292l13 48l263 262q27 26 43.5 47.5t26.5 39t13.5 32.5t3.5 29q0 24 -17 39t-51 15q-53 0 -80.5 -29t-38.5 -70h-57q9 33 23.5 59t36 45t51 29t69.5 10q53 0 87.5 -23.5t34.5 -70.5z" />
    <glyph glyph-name="three.scprop" horiz-adv-x="380" 
d="M352 466q0 -20 -3 -36.5t-8 -31.5q-15 -52 -45.5 -80t-64.5 -38q28 -7 40.5 -26.5t12.5 -43.5q0 -28 -6 -52.5t-11 -39.5q-8 -25 -22.5 -48.5t-37 -41.5t-53.5 -29t-72 -11q-23 0 -44 4.5t-37 14t-25.5 25.5t-10.5 40q0 29 9 61h57q-4 -14 -6 -26t-2 -24q0 -51 67 -51
q26 0 45 7t33 20t23.5 29.5t17.5 36.5q7 18 10.5 35t3.5 35q0 36 -27 49.5t-70 13.5h-7l13 45h7q60 0 95 24t50 72q5 14 8 29.5t3 31.5q0 52 -62 52q-49 0 -74 -25.5t-42 -73.5h-57q9 33 23 59t35.5 45t51 29t69.5 10q53 0 83 -23t30 -67z" />
    <glyph glyph-name="four.scprop" horiz-adv-x="380" 
d="M234 175h67l-13 -45h-67l-37 -130h-55l37 130h-200l14 53l284 361h75zM31 175h148l88 307z" />
    <glyph glyph-name="five.scprop" horiz-adv-x="380" 
d="M363 500h-206l-61 -183q43 34 102 34q57 0 80.5 -25.5t23.5 -65.5q0 -17 -2.5 -36t-7.5 -39q-7 -33 -21 -68t-37.5 -63.5t-59 -47t-85.5 -18.5q-53 0 -84 18.5t-31 63.5q0 16 2.5 30.5t6.5 28.5h58q-10 -28 -10 -50q0 -25 16.5 -35.5t47.5 -10.5q30 0 52.5 12.5t39 33
t28 48t19.5 57.5q5 18 7 31t2 32q0 25 -13.5 42.5t-48.5 17.5q-42 0 -67 -15t-39 -40h-54l94 292h260z" />
    <glyph glyph-name="six.scprop" horiz-adv-x="380" 
d="M364 480q0 -14 -2 -27.5t-6 -28.5h-58q4 11 6 22.5t2 20.5q0 25 -18 35t-44 10q-53 0 -87.5 -45.5t-64.5 -147.5l-7 -24q24 23 49.5 35.5t66.5 12.5q45 0 73.5 -22t28.5 -71q0 -42 -14 -91t-37 -86q-24 -37 -64 -61t-97 -24q-52 0 -81 24t-29 75q0 32 8.5 72.5
t29.5 108.5l16 54q14 45 29.5 87t39.5 75t59 52.5t88 19.5q48 0 80.5 -19t32.5 -57zM243 241q0 24 -12 40.5t-48 16.5q-27 0 -48.5 -10t-38.5 -26.5t-28.5 -38t-18.5 -43.5q-6 -21 -9.5 -44.5t-3.5 -41.5q0 -28 14 -44t47 -16q39 0 64.5 17.5t42.5 44.5q9 15 16.5 33.5
t12.5 38t7.5 38.5t2.5 35z" />
    <glyph glyph-name="seven.scprop" horiz-adv-x="340" 
d="M358 498l-317 -498h-64l325 498h-236l13 46h291z" />
    <glyph glyph-name="eight.scprop" horiz-adv-x="380" 
d="M358 469q0 -25 -6 -55t-20 -55q-31 -60 -89 -76q24 -8 36 -24.5t13 -37.5q0 -18 -3 -37t-8 -36q-20 -76 -65 -118t-130 -42q-55 0 -85.5 24t-30.5 69q0 33 9 66q7 24 16 46t22 40t32 31.5t45 19.5q-44 22 -44 67q0 29 8.5 61.5t21.5 54.5q25 44 63.5 66.5t97.5 22.5
q53 0 85 -21t32 -66zM298 463q0 26 -16 37.5t-45 11.5q-35 0 -58.5 -13.5t-41.5 -41.5q-17 -26 -23 -52t-6 -50q0 -26 17.5 -39t48.5 -13q24 0 43 8.5t33 22.5t24 32.5t16 38.5q8 30 8 58zM232 210q-2 27 -20.5 38t-47.5 11q-30 0 -51 -9t-36 -24.5t-25 -37t-17 -45.5
q-8 -27 -8 -53q0 -28 18 -42.5t50 -14.5q29 0 50 10t36 26.5t24.5 38t16.5 44.5q4 13 7 28.5t3 29.5z" />
    <glyph glyph-name="nine.scprop" horiz-adv-x="380" 
d="M352 465q0 -26 -8 -61.5t-22 -84.5l-31 -108q-17 -59 -37 -101t-45.5 -69t-57.5 -40t-73 -13q-49 0 -78.5 19t-29.5 61q0 14 1.5 25.5t5.5 26.5h57q-8 -23 -8 -43q1 -25 17 -34.5t45 -9.5t51 12.5t39 35.5t30.5 57t25.5 76l11 39q-24 -20 -51.5 -30t-61.5 -10
q-43 0 -70.5 22t-27.5 64q0 20 3 39.5t11 46.5q10 34 24.5 65t37 54.5t55 37.5t79.5 14q51 0 79.5 -24.5t28.5 -66.5zM297 458q0 25 -15.5 39.5t-46.5 14.5t-52.5 -12t-37 -31t-25 -41.5t-16.5 -44.5q-8 -24 -11 -41.5t-3 -32.5q2 -52 59 -52q34 0 57 11.5t38.5 30t25 42
t16.5 47.5q4 16 7.5 35t3.5 35z" />
    <glyph glyph-name="zero.prop" 
d="M447 627q0 -22 -4 -49.5t-11 -58t-16 -62t-18 -60.5l-48 -152q-21 -68 -42 -116.5t-47.5 -79.5t-62.5 -46t-88 -15q-55 0 -87.5 25t-32.5 87q0 19 2 39t7 45.5t13.5 58t21.5 76.5l27 94q22 76 43.5 136t51 101.5t69.5 63t99 21.5q60 0 91.5 -31t31.5 -77zM386 613
q0 33 -17 52.5t-59 19.5q-31 0 -55.5 -11.5t-46 -39t-40.5 -74.5t-39 -117l-46 -163q-15 -54 -24.5 -98t-9.5 -66q0 -39 17.5 -58.5t57.5 -19.5q27 0 50 10.5t43.5 36.5t39.5 70t40 110l55 176q16 50 25 93.5t9 78.5z" />
    <glyph glyph-name="one.prop" horiz-adv-x="346" 
d="M116 0h-59l184 644q-34 -28 -70 -52t-74 -46l20 68q40 23 79 50t72 59h55z" />
    <glyph glyph-name="two.prop" 
d="M449 623q0 -28 -5.5 -53t-19.5 -51.5t-38 -57.5t-61 -72l-308 -339h273l-14 -50h-336l16 56l342 380q28 32 45.5 57t27 46t12.5 39t3 37q0 32 -21 51t-58 19q-32 0 -56 -10t-42 -28t-30 -42t-20 -52h-60q12 42 30 75.5t43.5 57.5t60.5 36.5t81 12.5q27 0 51.5 -6.5
t43 -20t29.5 -35t11 -50.5z" />
    <glyph glyph-name="three.prop" 
d="M441 619q0 -26 -3.5 -48.5t-8.5 -42.5q-10 -39 -27.5 -66.5t-38.5 -46t-44 -29t-44 -15.5q40 -9 56 -35.5t16 -58.5q0 -37 -8.5 -69.5t-15.5 -52.5q-11 -33 -28.5 -63t-44 -53t-62.5 -37t-84 -14q-27 0 -50.5 5.5t-41.5 18t-28.5 33.5t-10.5 51q0 20 3.5 38t8.5 37h60
q-5 -15 -8 -30.5t-3 -31.5q0 -38 20 -54.5t60 -16.5q32 0 55 9t40.5 25.5t30 39t22.5 50.5q9 25 15.5 52t6.5 53q0 27 -10.5 42.5t-28 24t-39 10.5t-42.5 2l15 50q75 0 119.5 30.5t67.5 100.5q6 19 9.5 40t3.5 44q0 37 -18 55.5t-57 18.5q-59 0 -90 -33.5t-54 -98.5h-60
q12 42 29.5 75.5t43 57t60 36.5t81.5 13q60 0 93.5 -29t33.5 -87z" />
    <glyph glyph-name="four.prop" 
d="M297 225h78l-15 -50h-78l-50 -175h-58l50 175h-237q0 2 3 12t6.5 21.5t6.5 21l3 9.5l349 484h85zM53 225h186l125 437z" />
    <glyph glyph-name="five.prop" 
d="M457 673h-242l-86 -265q26 26 58 40t72 14q62 0 88.5 -29t26.5 -81q0 -23 -2.5 -51.5t-8.5 -55.5q-9 -44 -27.5 -89.5t-48 -83t-72.5 -61t-101 -23.5q-60 0 -94.5 23.5t-34.5 81.5q0 20 4 38.5t9 36.5h60q-5 -15 -8.5 -31t-3.5 -32q0 -36 19.5 -51.5t57.5 -15.5
q35 0 64 16.5t51 44t37.5 64.5t24.5 79q11 50 11 97q0 13 -3 26t-11 23.5t-22.5 17.5t-38.5 7q-50 0 -80.5 -20t-47.5 -54h-57l121 384h299z" />
    <glyph glyph-name="six.prop" 
d="M457 639q0 -19 -3.5 -36.5t-8.5 -35.5h-60q4 13 7 27.5t3 28.5q0 36 -21 49t-53 13q-36 0 -64 -17t-52 -53.5t-45.5 -95t-43.5 -141.5q16 18 31 31.5t31.5 23t37 14.5t46.5 5q51 0 82 -26t31 -90q0 -28 -5 -60t-13.5 -64t-20.5 -62t-27 -54q-30 -51 -77.5 -79.5
t-114.5 -28.5q-60 0 -91.5 28.5t-31.5 94.5q0 21 3 44t9.5 52t16.5 65t24 82q21 69 41 137t50 122t75.5 88t117.5 34q55 0 90.5 -22.5t35.5 -73.5zM311 320q0 34 -14 57.5t-58 23.5q-32 0 -59 -13.5t-48.5 -36.5t-37.5 -52.5t-25 -60.5q-8 -29 -13.5 -60t-5.5 -56
q0 -40 17 -61t59 -21q47 0 79.5 22t53.5 59q12 21 21.5 46.5t16.5 52t10.5 52.5t3.5 48z" />
    <glyph glyph-name="seven.prop" horiz-adv-x="396" 
d="M443 668l-398 -668h-66l409 671h-279l15 52h335z" />
    <glyph glyph-name="eight.prop" 
d="M453 624q0 -33 -8.5 -72t-25.5 -72q-45 -89 -125 -104q36 -6 53 -29.5t17 -54.5q0 -23 -4.5 -48.5t-10.5 -48.5q-13 -50 -32.5 -88.5t-47.5 -65t-66 -40t-88 -13.5q-57 0 -93 28t-36 85q0 23 3.5 45.5t9.5 44.5q9 34 21.5 64.5t30 55t42.5 41.5t60 24q-60 24 -60 91
q0 38 10 79t27 70q37 62 81 90.5t112 28.5q60 0 95 -27t35 -84zM390 615q0 36 -19.5 53t-54.5 17q-42 0 -71.5 -19t-52.5 -57q-21 -35 -29 -69.5t-8 -66.5q0 -75 77 -75q39 0 68.5 20t49.5 51.5t30 70t10 75.5zM300 277q0 40 -22 55.5t-59 15.5q-36 0 -61.5 -12.5t-44.5 -34
t-31.5 -50.5t-22.5 -62q-5 -17 -8.5 -35t-3.5 -36q0 -80 80 -80q36 0 61.5 13t44.5 35t31.5 51t21.5 61q5 20 9.5 39.5t4.5 39.5z" />
    <glyph glyph-name="nine.prop" 
d="M446 617q0 -23 -6.5 -53.5t-16 -64t-20 -67.5t-19.5 -63t-18 -64.5t-21 -72t-27 -73.5t-35 -69q-29 -48 -71 -75t-108 -27q-56 0 -88.5 23t-32.5 79q0 19 2 35t7 34h60q-4 -14 -6.5 -28.5t-2.5 -28.5q0 -35 19.5 -49.5t54.5 -14.5q45 0 72.5 24t48.5 59q15 25 26.5 54.5
t21 60t18 60t16.5 53.5q-30 -30 -65 -46.5t-78 -16.5q-49 0 -80.5 26.5t-31.5 81.5q0 31 8 60l16 58q13 45 31.5 85.5t46 71t66.5 48.5t93 18q57 0 88.5 -31.5t31.5 -86.5zM386 608q0 37 -18 57t-56 20t-65 -15.5t-45.5 -40.5t-31 -55.5t-21.5 -61.5q-11 -35 -15.5 -57.5
t-4.5 -43.5q0 -35 16.5 -55t53.5 -20q41 0 69 15t47.5 40t32 56.5t21.5 64.5q6 21 11.5 47.5t5.5 48.5z" />
    <glyph glyph-name="Euro.prop" 
d="M314 25q-32 -22 -61.5 -29.5t-69.5 -7.5q-23 0 -48 5.5t-46 19.5t-35 38t-14 60t12 84.5t28 105.5h-82l23 46h72l23 80h-86l23 46h76q16 55 37 103t51 83t72.5 55.5t102.5 20.5q36 0 67 -11.5t51 -40.5l-28 -60q-12 32 -38.5 46t-59.5 14q-42 0 -73 -16t-53.5 -44
t-39 -66.5t-29.5 -83.5h219l-23 -46h-209l-23 -80h194l-23 -46h-184q-19 -65 -29 -107t-10 -77q0 -37 24 -57t72 -20q38 0 64.5 12t52.5 38v-65v0z" />
    <glyph glyph-name="cent.prop" horiz-adv-x="416" 
d="M276 467q-5 1 -11 1.5t-12 0.5q-40 0 -67.5 -22.5t-46.5 -56t-30.5 -71.5t-20.5 -69q-10 -35 -20.5 -74t-10.5 -74q0 -19 2.5 -27t6.5 -13zM376 424q0 -18 -2.5 -32t-7.5 -31h-57q4 13 6.5 25.5t2.5 26.5q0 25 -12 37l-212 -410q12 -4 32 -4q27 0 46.5 8.5t33.5 23.5
t23.5 35.5t16.5 43.5h57q-20 -71 -61.5 -114t-118.5 -43q-14 0 -27 1.5t-25 3.5l-46 -84h-39l52 97q-20 11 -31 32.5t-11 50.5q0 40 10.5 81t21.5 79q15 50 32 97.5t42.5 84.5t63.5 59.5t95 22.5q21 0 38 -3l43 80h39l-48 -90q20 -11 31.5 -29.5t11.5 -48.5z" />
    <glyph glyph-name="dollar.prop" 
d="M337 714q60 -5 87.5 -34.5t27.5 -71.5q0 -17 -5 -37.5t-11 -41.5h-58q5 15 9 32.5t4 34.5q0 29 -16.5 48.5t-51.5 21.5l-79 -277q31 -22 52 -40.5t33.5 -36.5t17.5 -37.5t5 -43.5q0 -45 -15 -85.5t-43 -71.5t-68 -49t-91 -18l-26 -91h-37l26 93q-53 7 -83.5 34t-30.5 75
q0 18 5 42t12 46h57q-6 -20 -10.5 -39t-4.5 -36q0 -65 70 -72l83 289q-50 36 -76.5 68.5t-26.5 81.5q0 45 17 84t45.5 68t66 46.5t79.5 19.5l25 85h36zM287 224q0 27 -12 51t-49 51l-76 -268q31 3 56.5 16t43.5 35t27.5 51t9.5 64zM157 509q0 -34 13.5 -55.5t43.5 -43.5
l73 255q-30 -5 -54 -18.5t-41 -34.5t-26 -47.5t-9 -55.5z" />
    <glyph glyph-name="sterling.prop" 
d="M484 644q0 -23 -5 -45t-11 -41h-57q6 17 10 36t4 29q0 31 -17 46t-48 15q-28 0 -49.5 -10.5t-37 -27.5t-26.5 -40t-18 -47l-45 -158h139l-15 -51h-139l-85 -297h229l-15 -53h-360l15 53h71l85 297h-78l15 51h78q5 15 11.5 38t12.5 46q7 26 15 54q12 43 28.5 79.5t40.5 62
t57.5 40t80.5 14.5q22 0 43 -5t36.5 -16.5t25 -28.5t9.5 -41z" />
    <glyph glyph-name="florin.prop" horiz-adv-x="366" 
d="M425 674q-7 2 -13.5 4t-14.5 2q-19 0 -34 -9.5t-27 -24t-21 -32t-16 -34.5l-41 -100h88l-20 -48h-88l-166 -411q-16 -40 -33 -73.5t-39 -58t-50 -38t-65 -13.5h-9t-9 1l23 53q3 -1 8 -1q30 0 56.5 25t54.5 93l171 423h-78l21 48h77l39 98q12 30 27.5 58.5t36 50.5t47 35
t61.5 13q20 0 38 -6z" />
    <glyph glyph-name="yen.prop" 
d="M249 311h124l-13 -46h-144l-23 -80h144l-13 -46h-144l-40 -139h-56l40 139h-141l13 46h141l23 80h-141l13 46h121l-44 412h66l32 -389l265 389h62z" />
    <glyph glyph-name="zero.onumprop" 
d="M111 -12q-62 0 -94.5 31t-32.5 81q0 27 5 62t18 80l19 66q21 74 46 123t55 78t66 41t79 12q62 0 94.5 -31t32.5 -81q0 -27 -5 -62t-18 -80l-19 -66q-21 -74 -46 -123t-55 -78t-66 -41t-79 -12zM121 38q28 0 53 10.5t46.5 35t40.5 63.5t36 96l19 65q12 42 17.5 74.5
t5.5 55.5q0 41 -21 57.5t-56 16.5q-28 0 -53 -10.5t-46.5 -35t-41 -63.5t-35.5 -96l-19 -65q-12 -42 -17.5 -74.5t-5.5 -55.5q0 -41 21 -57.5t56 -16.5z" />
    <glyph glyph-name="one.onumprop" horiz-adv-x="346" 
d="M59 0l137 481q-32 -21 -75.5 -42.5t-79.5 -34.5l17 62q15 6 35.5 15.5t43 20.5t44.5 23.5t40 24.5h54l-157 -550h-59z" />
    <glyph glyph-name="two.onumprop" 
d="M-54 0l16 55l232 198q33 28 60.5 52t47 47.5t30.5 47t11 49.5q0 29 -20 46.5t-58 17.5q-52 0 -87 -28.5t-53 -82.5h-60q29 85 81 122.5t124 37.5q33 0 57.5 -9t41 -24.5t24.5 -35.5t8 -42q0 -32 -11 -59.5t-34 -56t-58 -61t-84 -72.5l-185 -153h260l-14 -49h-329z" />
    <glyph glyph-name="three.onumprop" 
d="M392 447q0 -26 -4.5 -48t-10.5 -42q-11 -35 -26.5 -59.5t-35 -41t-40.5 -26t-42 -14.5q40 -9 54 -35.5t14 -58.5q0 -29 -9.5 -62.5t-16.5 -52.5q-12 -33 -28.5 -62t-41.5 -51.5t-60 -35.5t-83 -13q-27 0 -50 5.5t-40 18t-27 33.5t-10 51q0 20 3.5 37.5t8.5 36.5h58
q-5 -15 -8 -30t-3 -31q0 -38 19 -55t59 -17q32 0 54.5 8.5t39 24t28 37.5t22.5 50q9 24 16.5 50.5t7.5 47.5q0 25 -8.5 41t-23.5 24t-35 11t-42 3h-9l15 50h9q35 1 61 7t46 19.5t35 34.5t27 51q8 18 12.5 40.5t4.5 45.5q0 37 -16 55.5t-55 18.5q-29 0 -50.5 -8t-38 -24.5
t-29 -41t-23.5 -56.5h-58q12 42 28.5 75t41 56t58.5 35.5t81 12.5q121 0 121 -115z" />
    <glyph glyph-name="four.onumprop" 
d="M232 0l-41 -143h-57l41 143h-236l18 63l348 487h85l-144 -501h78l-14 -49h-78zM313 483l-309 -434h185z" />
    <glyph glyph-name="five.onumprop" 
d="M400 500h-236l-83 -255q26 26 57 40t71 14q60 0 85 -28.5t25 -80.5q0 -48 -14 -102q-11 -44 -29.5 -87t-47.5 -78t-69 -56.5t-95 -21.5q-60 0 -93 23.5t-33 81.5q0 20 3.5 37t8.5 32h57q-6 -16 -8.5 -30.5t-2.5 -26.5q0 -36 19.5 -52t57.5 -16q33 0 60 14.5t48 40
t36.5 60.5t27.5 76q8 26 11.5 48t3.5 47q0 13 -3 25.5t-11 22.5t-22.5 16.5t-37.5 6.5q-48 0 -78 -20.5t-47 -54.5h-57l118 374h293z" />
    <glyph glyph-name="six.onumprop" 
d="M448 627q0 -19 -3 -35t-8 -34h-59q4 13 6.5 26t2.5 27q0 36 -19.5 49.5t-51.5 13.5q-49 0 -81 -29.5t-53 -74t-35.5 -97.5t-29.5 -101q16 18 30.5 31.5t31 23t36.5 14.5t46 5q51 0 80 -26t29 -90q0 -28 -4.5 -59t-13 -62t-20.5 -60t-27 -53q-30 -51 -75.5 -79.5
t-112.5 -28.5q-60 0 -90.5 28.5t-30.5 94.5q0 26 5 55t13 60t17.5 62t18.5 60q13 44 25.5 89t27.5 87t34 78t45.5 63t61.5 42.5t82 15.5q55 0 88.5 -22.5t33.5 -73.5zM307 314q0 17 -2.5 31.5t-10 25.5t-21 17.5t-35.5 6.5q-32 0 -59 -13.5t-48 -36.5t-36.5 -52.5
t-24.5 -60.5q-8 -29 -13 -57t-5 -53q0 -40 16 -61.5t58 -21.5q47 0 78 22.5t52 59.5q12 21 21.5 45.5t16 50t10 50.5t3.5 47z" />
    <glyph glyph-name="seven.onumprop" horiz-adv-x="396" 
d="M398 495l-385 -638h-66l396 641h-279l15 52h335z" />
    <glyph glyph-name="eight.onumprop" 
d="M450 612q0 -33 -8.5 -69t-25.5 -69q-45 -89 -124 -104q36 -6 52.5 -29.5t16.5 -54.5q0 -23 -4.5 -48.5t-10.5 -48.5q-13 -48 -32 -85t-46.5 -63t-65 -39.5t-87.5 -13.5q-57 0 -92.5 28t-35.5 85q0 23 3.5 45.5t9.5 44.5q9 31 20.5 60t29 53t42 41.5t59.5 24.5
q-59 24 -59 88q0 38 10 75.5t27 69.5q34 63 78.5 91.5t113.5 28.5q59 0 94 -27t35 -84zM388 603q0 36 -20 53.5t-54 17.5q-42 0 -71.5 -19.5t-52.5 -57.5q-18 -29 -27.5 -63.5t-9.5 -66.5q0 -75 77 -75q51 0 86 33.5t53 79.5q10 24 14.5 49.5t4.5 48.5zM298 271
q0 40 -22 55.5t-59 15.5q-36 0 -61.5 -12.5t-44.5 -33.5t-31 -49t-21 -58q-5 -17 -8.5 -35t-3.5 -36q0 -39 20 -60t60 -21q36 0 61.5 13t44 34.5t30.5 49.5t21 58q5 20 9.5 39.5t4.5 39.5z" />
    <glyph glyph-name="nine.onumprop" 
d="M389 444q0 -23 -5.5 -51.5t-14 -59.5t-18.5 -62.5t-19 -60.5t-18.5 -63.5t-21.5 -69.5t-26 -69t-32 -62q-15 -24 -31.5 -42.5t-38 -31.5t-48.5 -20t-62 -7q-57 0 -86 24t-29 75q0 19 1.5 35t6.5 34h59q-8 -30 -8 -57q0 -62 71 -62q45 0 73 23t49 60q23 40 42.5 98
t36.5 115q-30 -30 -65.5 -46.5t-78.5 -16.5q-49 0 -77 28t-28 83q0 31 6.5 58.5t14.5 56.5q13 45 31 83.5t44.5 66t63.5 43.5t87 16q57 0 89 -31.5t32 -86.5zM331 435q0 37 -19 57.5t-57 20.5q-35 0 -59.5 -13.5t-42.5 -36t-30.5 -51t-21.5 -59.5q-11 -35 -15.5 -57.5
t-4.5 -43.5q0 -35 15 -55t52 -20q41 0 69 15t47.5 40t32.5 56.5t22 64.5q6 21 9 40.5t3 41.5z" />
    <glyph glyph-name="zero.numerator" horiz-adv-x="278" 
d="M100 578q23 81 57.5 116t90.5 35q43 0 63 -21t20 -56q0 -16 -3.5 -34.5t-9.5 -39.5l-37 -128q-23 -81 -57.5 -116t-90.5 -35q-43 0 -63 21t-20 56q0 16 3.5 34.5t9.5 39.5zM114 463q-8 -25 -12 -44t-4 -33q0 -23 11.5 -32.5t32.5 -9.5q32 0 55 28t41 91l29 102
q8 25 12 44t4 33q0 23 -11.5 32.5t-32.5 9.5q-32 0 -55 -28t-41 -91z" />
    <glyph glyph-name="one.numerator" horiz-adv-x="278" 
d="M175 305h-48l100 349q-20 -15 -41 -28t-43 -25l16 56q25 14 49.5 30t44.5 36h42z" />
    <glyph glyph-name="two.numerator" horiz-adv-x="278" 
d="M340 666q0 -38 -20.5 -71t-50.5 -65l-168 -179h153l-13 -46h-214l12 41l203 219q15 16 30.5 40.5t15.5 47.5q0 19 -14 25.5t-30 6.5q-36 0 -53.5 -21t-26.5 -53h-49q13 54 46.5 86t91.5 32q15 0 30.5 -3t28 -10.5t20.5 -19.5t8 -30z" />
    <glyph glyph-name="three.numerator" horiz-adv-x="278" 
d="M338 663q0 -10 -1.5 -22.5t-4.5 -23.5q-10 -35 -27.5 -60t-46.5 -35q28 -15 28 -50q0 -12 -2.5 -24t-5.5 -23q-16 -55 -49.5 -90.5t-94.5 -35.5q-36 0 -59 15t-23 54q0 13 2.5 25.5t5.5 24.5h49q-2 -9 -4.5 -19t-2.5 -20q0 -22 11.5 -28.5t31.5 -6.5q32 0 50 20t31 55
q8 22 8 42q0 24 -14.5 30.5t-34.5 6.5h-24l13 45q50 0 73 17.5t35 57.5q5 15 5 32q0 20 -10.5 27.5t-29.5 7.5q-35 0 -52.5 -21.5t-25.5 -53.5h-48q10 51 43.5 85t88.5 34q34 0 59.5 -14t25.5 -52z" />
    <glyph glyph-name="four.numerator" horiz-adv-x="278" 
d="M261 451h47l-13 -45h-47l-29 -101h-46l29 101h-143l14 49l203 268h63zM120 451h95l57 201z" />
    <glyph glyph-name="five.numerator" horiz-adv-x="278" 
d="M300 448q-10 -35 -22 -62.5t-29.5 -47t-40.5 -29.5t-56 -10q-42 0 -62 19.5t-20 52.5q0 22 7 44h47q-5 -22 -5 -33q0 -38 40 -38q36 0 56.5 24t36.5 80q8 30 8 47q0 43 -45 43q-26 0 -43 -12t-25 -29h-44l72 226h191l-13 -45h-148l-40 -121q14 11 32 18t38 7
q39 0 57.5 -18.5t18.5 -53.5q0 -26 -11 -62z" />
    <glyph glyph-name="six.numerator" horiz-adv-x="278" 
d="M296 437q-9 -30 -20.5 -55t-28.5 -43.5t-41 -29t-57 -10.5q-22 0 -36.5 6.5t-23.5 16.5t-13 23t-4 27q0 21 5 46t13 54l28 96q13 44 27.5 74.5t33 50t42 28t53.5 8.5q38 0 57 -17t19 -47q0 -19 -6 -41h-47q2 7 3 14.5t1 13.5q0 15 -8.5 23.5t-30.5 8.5q-38 0 -60.5 -31.5
t-42.5 -101.5l-5 -17q19 19 39 29t44 10q38 0 54.5 -19.5t16.5 -48.5q0 -14 -3.5 -33t-8.5 -35zM247 434q9 30 9 54q0 19 -8.5 29.5t-30.5 10.5q-35 0 -57 -26t-33 -68q-8 -29 -8 -51q0 -20 10 -29.5t35 -9.5q30 0 51 26t32 64z" />
    <glyph glyph-name="seven.numerator" horiz-adv-x="278" 
d="M113 305h-54l236 372h-162l13 46h213l-12 -42z" />
    <glyph glyph-name="eight.numerator" horiz-adv-x="278" 
d="M276 423q-10 -31 -21.5 -54t-28 -38.5t-39 -23.5t-52.5 -8q-42 0 -63.5 19.5t-21.5 54.5q0 23 7 48q5 18 12 34.5t17 30.5t23 24t30 13q-30 18 -30 55q0 15 5 35q16 56 48 86t87 30q39 0 62 -18.5t23 -53.5q0 -9 -1.5 -20.5t-3.5 -19.5q-11 -38 -27.5 -61t-48.5 -33
q31 -17 31 -55q0 -19 -8 -45zM279 611q6 22 6 38q0 17 -9 27t-31 10q-31 0 -51 -16.5t-31 -56.5q-2 -8 -3 -15t-1 -13q0 -20 10.5 -31.5t32.5 -11.5q33 0 51 20t26 49zM227 422q3 11 5.5 22t2.5 19q0 16 -10 26t-36 10q-36 0 -55 -21.5t-30 -56.5q-3 -10 -5 -19t-2 -17
q0 -22 10.5 -32t36.5 -10q32 0 52 21t31 58z" />
    <glyph glyph-name="nine.numerator" horiz-adv-x="278" 
d="M307 518q-18 -63 -34.5 -105.5t-35 -67.5t-43 -35.5t-59.5 -10.5q-41 0 -60 17.5t-19 47.5q0 10 2 20.5t5 22.5h48q-6 -21 -6 -34q0 -17 11 -23t33 -6q16 0 29.5 6t25 21t22 39.5t21.5 61.5l8 27q-16 -16 -35.5 -25.5t-44.5 -9.5q-31 0 -51 17.5t-20 52.5q0 28 10 62
q8 27 19 51.5t28 42.5t41 28.5t57 10.5q43 0 61 -20.5t18 -52.5q0 -14 -3.5 -34.5t-11.5 -45.5zM282 596q7 25 7 46q0 20 -9 31t-32 11q-33 0 -54.5 -24.5t-32.5 -63.5q-8 -29 -8 -48t10.5 -29t34.5 -10q30 0 51.5 23t32.5 64z" />
    <glyph glyph-name="zero.denominator" horiz-adv-x="278" 
d="M11 273q23 81 57.5 116t90.5 35q43 0 63 -21t20 -56q0 -16 -3.5 -34.5t-9.5 -39.5l-37 -128q-23 -81 -57.5 -116t-90.5 -35q-43 0 -63 21t-20 56q0 16 3.5 34.5t9.5 39.5zM25 158q-8 -25 -12 -44t-4 -33q0 -23 11.5 -32.5t32.5 -9.5q32 0 55 28t41 91l29 102q8 25 12 44
t4 33q0 23 -11.5 32.5t-32.5 9.5q-32 0 -55 -28t-41 -91z" />
    <glyph glyph-name="one.denominator" horiz-adv-x="278" 
d="M86 0h-48l100 349q-20 -15 -41 -28t-43 -25l16 56q25 14 49.5 30t44.5 36h42z" />
    <glyph glyph-name="two.denominator" horiz-adv-x="278" 
d="M251 361q0 -38 -20.5 -71t-50.5 -65l-168 -179h153l-13 -46h-214l12 41l203 219q15 16 30.5 40.5t15.5 47.5q0 19 -14 25.5t-30 6.5q-36 0 -53.5 -21t-26.5 -53h-49q13 54 46.5 86t91.5 32q15 0 30.5 -3t28 -10.5t20.5 -19.5t8 -30z" />
    <glyph glyph-name="three.denominator" horiz-adv-x="278" 
d="M249 358q0 -10 -1.5 -22.5t-4.5 -23.5q-10 -35 -27.5 -60t-46.5 -35q28 -15 28 -50q0 -12 -2.5 -24t-5.5 -23q-16 -55 -49.5 -90.5t-94.5 -35.5q-36 0 -59 15t-23 54q0 13 2.5 25.5t5.5 24.5h49q-2 -9 -4.5 -19t-2.5 -20q0 -22 11.5 -28.5t31.5 -6.5q32 0 50 20t31 55
q8 22 8 42q0 24 -14.5 30.5t-34.5 6.5h-24l13 45q50 0 73 17.5t35 57.5q5 15 5 32q0 20 -10.5 27.5t-29.5 7.5q-35 0 -52.5 -21.5t-25.5 -53.5h-48q10 51 43.5 85t88.5 34q34 0 59.5 -14t25.5 -52z" />
    <glyph glyph-name="four.denominator" horiz-adv-x="278" 
d="M172 146h47l-13 -45h-47l-29 -101h-46l29 101h-143l14 49l203 268h63zM31 146h95l57 201z" />
    <glyph glyph-name="five.denominator" horiz-adv-x="278" 
d="M211 143q-10 -35 -22 -62.5t-29.5 -47t-40.5 -29.5t-56 -10q-42 0 -62 19.5t-20 52.5q0 22 7 44h47q-5 -22 -5 -33q0 -38 40 -38q36 0 56.5 24t36.5 80q8 30 8 47q0 43 -45 43q-26 0 -43 -12t-25 -29h-44l72 226h191l-13 -45h-148l-40 -121q14 11 32 18t38 7
q39 0 57.5 -18.5t18.5 -53.5q0 -26 -11 -62z" />
    <glyph glyph-name="six.denominator" horiz-adv-x="278" 
d="M207 132q-9 -30 -20.5 -55t-28.5 -43.5t-41 -29t-57 -10.5q-22 0 -36.5 6.5t-23.5 16.5t-13 23t-4 27q0 21 5 46t13 54l28 96q13 44 27.5 74.5t33 50t42 28t53.5 8.5q38 0 57 -17t19 -47q0 -19 -6 -41h-47q2 7 3 14.5t1 13.5q0 15 -8.5 23.5t-30.5 8.5q-38 0 -60.5 -31.5
t-42.5 -101.5l-5 -17q19 19 39 29t44 10q38 0 54.5 -19.5t16.5 -48.5q0 -14 -3.5 -33t-8.5 -35zM158 129q9 30 9 54q0 19 -8.5 29.5t-30.5 10.5q-35 0 -57 -26t-33 -68q-8 -29 -8 -51q0 -20 10 -29.5t35 -9.5q30 0 51 26t32 64z" />
    <glyph glyph-name="seven.denominator" horiz-adv-x="278" 
d="M24 0h-54l236 372h-162l13 46h213l-12 -42z" />
    <glyph glyph-name="eight.denominator" horiz-adv-x="278" 
d="M187 118q-10 -31 -21.5 -54t-28 -38.5t-39 -23.5t-52.5 -8q-42 0 -63.5 19.5t-21.5 54.5q0 23 7 48q5 18 12 34.5t17 30.5t23 24t30 13q-30 18 -30 55q0 15 5 35q16 56 48 86t87 30q39 0 62 -18.5t23 -53.5q0 -9 -1.5 -20.5t-3.5 -19.5q-11 -38 -27.5 -61t-48.5 -33
q31 -17 31 -55q0 -19 -8 -45zM190 306q6 22 6 38q0 17 -9 27t-31 10q-31 0 -51 -16.5t-31 -56.5q-2 -8 -3 -15t-1 -13q0 -20 10.5 -31.5t32.5 -11.5q33 0 51 20t26 49zM138 117q3 11 5.5 22t2.5 19q0 16 -10 26t-36 10q-36 0 -55 -21.5t-30 -56.5q-3 -10 -5 -19t-2 -17
q0 -22 10.5 -32t36.5 -10q32 0 52 21t31 58z" />
    <glyph glyph-name="nine.denominator" horiz-adv-x="278" 
d="M218 213q-18 -63 -34.5 -105.5t-35 -67.5t-43 -35.5t-59.5 -10.5q-41 0 -60 17.5t-19 47.5q0 10 2 20.5t5 22.5h48q-6 -21 -6 -34q0 -17 11 -23t33 -6q16 0 29.5 6t25 21t22 39.5t21.5 61.5l8 27q-16 -16 -35.5 -25.5t-44.5 -9.5q-31 0 -51 17.5t-20 52.5q0 28 10 62
q8 27 19 51.5t28 42.5t41 28.5t57 10.5q43 0 61 -20.5t18 -52.5q0 -14 -3.5 -34.5t-11.5 -45.5zM193 291q7 25 7 46q0 20 -9 31t-32 11q-33 0 -54.5 -24.5t-32.5 -63.5q-8 -29 -8 -48t10.5 -29t34.5 -10q30 0 51.5 23t32.5 64z" />
    <glyph glyph-name="onehalf.alt01" 
d="M228 457l62 216q-12 -8 -26 -16t-32 -17l12 41q15 8 34.5 19.5t31.5 22.5h33l-76 -266h-39zM74 348l9 31h280l-9 -31h-280zM36 0l8 29l128 122q23 22 31.5 37t8.5 27q0 23 -28 23q-22 0 -35 -13.5t-18 -33.5h-38q22 79 99 79q29 0 44 -13.5t15 -34.5q0 -23 -10.5 -41
t-35.5 -42l-113 -107h106l-9 -32h-153z" />
    <glyph glyph-name="onethird.alt01" 
d="M228 457l62 216q-12 -8 -26 -16t-32 -17l12 41q15 8 34.5 19.5t31.5 22.5h33l-76 -266h-39zM74 348l9 31h280l-9 -31h-280zM211 72q-11 -36 -34.5 -56t-65.5 -20q-59 0 -59 47q0 14 4 29h39q-2 -5 -3 -10t-1 -10q0 -24 29 -24q21 0 33 12.5t18 32.5q4 13 4 21q0 14 -9 20
t-31 6h-11l9 32h12q26 0 39.5 10t21.5 36q3 10 3 18q0 22 -26 22q-19 0 -31 -11t-17 -31h-39q10 35 31.5 54.5t63.5 19.5q26 0 42 -11t16 -33q0 -11 -4 -27q-7 -25 -19.5 -40.5t-38.5 -22.5q28 -8 28 -40q0 -11 -4 -24z" />
    <glyph glyph-name="onequarter.alt01" 
d="M228 457l62 216q-12 -8 -26 -16t-32 -17l12 41q15 8 34.5 19.5t31.5 22.5h33l-76 -266h-39zM74 348l9 31h280l-9 -31h-280zM172 62l-18 -62h-38l18 62h-98l9 31l137 173h48l-49 -172h33l-9 -32h-33zM178 216l-94 -122h59z" />
    <glyph glyph-name="oneeighth.alt01" 
d="M228 457l62 216q-12 -8 -26 -16t-32 -17l12 41q15 8 34.5 19.5t31.5 22.5h33l-76 -266h-39zM74 348l9 31h280l-9 -31h-280zM214 73q-10 -35 -33.5 -56t-68.5 -21q-30 0 -45 13t-15 34q0 8 1 15t4 16q7 24 19 39.5t34 25.5q-9 7 -14 15t-5 20q0 11 3 23q10 33 33 53t65 20
q31 0 45 -12.5t14 -33.5q0 -10 -5 -27q-7 -24 -17.5 -35.5t-30.5 -22.5q20 -13 20 -36q0 -6 -1 -14t-3 -16zM207 196q3 10 3 18q0 24 -27 24q-38 0 -49 -42q-3 -11 -3 -19q0 -24 27 -24q20 0 31.5 11.5t17.5 31.5zM175 74q3 10 3 20q0 12 -6.5 19.5t-23.5 7.5
q-23 0 -34.5 -13.5t-17.5 -33.5q-2 -5 -3 -10.5t-1 -10.5q0 -25 29 -25q23 0 35.5 13.5t18.5 32.5z" />
    <glyph glyph-name="twothirds.alt01" 
d="M167 457l8 29l128 122q23 22 31.5 37t8.5 27q0 23 -28 23q-22 0 -35 -13.5t-18 -33.5h-38q22 79 99 79q29 0 44 -13.5t15 -34.5q0 -23 -10.5 -41t-35.5 -42l-113 -107h106l-9 -32h-153zM74 348l9 31h280l-9 -31h-280zM210 72q-11 -36 -34.5 -56t-65.5 -20q-59 0 -59 47
q0 14 4 29h39q-2 -5 -3 -10t-1 -10q0 -24 29 -24q21 0 33 12.5t18 32.5q4 13 4 21q0 14 -9 20t-31 6h-11l9 32h12q26 0 39.5 10t21.5 36q3 10 3 18q0 22 -26 22q-19 0 -31 -11t-17 -31h-39q10 35 31.5 54.5t63.5 19.5q26 0 42 -11t16 -33q0 -11 -4 -27q-7 -25 -19.5 -40.5
t-38.5 -22.5q28 -8 28 -40q0 -11 -4 -24z" />
    <glyph glyph-name="threequarters.alt01" 
d="M343 529q-11 -36 -34.5 -56t-65.5 -20q-59 0 -59 47q0 14 4 29h39q-2 -5 -3 -10t-1 -10q0 -24 29 -24q21 0 33 12.5t18 32.5q4 13 4 21q0 14 -9 20t-31 6h-11l9 32h12q26 0 39.5 10t21.5 36q3 10 3 18q0 22 -26 22q-19 0 -31 -11t-17 -31h-39q10 35 31.5 54.5t63.5 19.5
q26 0 42 -11t16 -33q0 -11 -4 -27q-7 -25 -19.5 -40.5t-38.5 -22.5q28 -8 28 -40q0 -11 -4 -24zM74 348l9 31h280l-9 -31h-280zM172 62l-18 -62h-38l18 62h-98l9 31l137 173h48l-49 -172h33l-9 -32h-33zM178 216l-94 -122h59z" />
    <glyph glyph-name="threeeighths.alt01" 
d="M342 529q-11 -36 -34.5 -56t-65.5 -20q-59 0 -59 47q0 14 4 29h39q-2 -5 -3 -10t-1 -10q0 -24 29 -24q21 0 33 12.5t18 32.5q4 13 4 21q0 14 -9 20t-31 6h-11l9 32h12q26 0 39.5 10t21.5 36q3 10 3 18q0 22 -26 22q-19 0 -31 -11t-17 -31h-39q10 35 31.5 54.5t63.5 19.5
q26 0 42 -11t16 -33q0 -11 -4 -27q-7 -25 -19.5 -40.5t-38.5 -22.5q28 -8 28 -40q0 -11 -4 -24zM74 348l9 31h280l-9 -31h-280zM214 73q-10 -35 -33.5 -56t-68.5 -21q-30 0 -45 13t-15 34q0 8 1 15t4 16q7 24 19 39.5t34 25.5q-9 7 -14 15t-5 20q0 11 3 23q10 33 33 53
t65 20q31 0 45 -12.5t14 -33.5q0 -10 -5 -27q-7 -24 -17.5 -35.5t-30.5 -22.5q20 -13 20 -36q0 -6 -1 -14t-3 -16zM207 196q3 10 3 18q0 24 -27 24q-38 0 -49 -42q-3 -11 -3 -19q0 -24 27 -24q20 0 31.5 11.5t17.5 31.5zM175 74q3 10 3 20q0 12 -6.5 19.5t-23.5 7.5
q-23 0 -34.5 -13.5t-17.5 -33.5q-2 -5 -3 -10.5t-1 -10.5q0 -25 29 -25q23 0 35.5 13.5t18.5 32.5z" />
    <glyph glyph-name="fiveeighths.alt01" 
d="M348 546q-14 -48 -38.5 -70.5t-67.5 -22.5q-56 0 -56 47q0 15 4 30h39q-3 -12 -3 -21q0 -24 25 -24q22 0 34.5 14t23.5 47q6 19 6 31q0 11 -6 17.5t-21 6.5q-16 0 -28 -7.5t-19 -18.5h-36l48 148h138l-9 -32h-101l-26 -76q9 8 21 13t29 5q28 0 39 -12.5t11 -32.5
q0 -9 -2 -20t-5 -22zM74 348l9 31h280l-9 -31h-280zM214 73q-10 -35 -33.5 -56t-68.5 -21q-30 0 -45 13t-15 34q0 8 1 15t4 16q7 24 19 39.5t34 25.5q-9 7 -14 15t-5 20q0 11 3 23q10 33 33 53t65 20q31 0 45 -12.5t14 -33.5q0 -10 -5 -27q-7 -24 -17.5 -35.5t-30.5 -22.5
q20 -13 20 -36q0 -6 -1 -14t-3 -16zM207 196q3 10 3 18q0 24 -27 24q-38 0 -49 -42q-3 -11 -3 -19q0 -24 27 -24q20 0 31.5 11.5t17.5 31.5zM175 74q3 10 3 20q0 12 -6.5 19.5t-23.5 7.5q-23 0 -34.5 -13.5t-17.5 -33.5q-2 -5 -3 -10.5t-1 -10.5q0 -25 29 -25
q23 0 35.5 13.5t18.5 32.5z" />
    <glyph glyph-name="seveneighths.alt01" 
d="M197 457l155 233h-113l10 33h153l-8 -28l-156 -238h-41zM74 348l9 31h280l-9 -31h-280zM214 73q-10 -35 -33.5 -56t-68.5 -21q-30 0 -45 13t-15 34q0 8 1 15t4 16q7 24 19 39.5t34 25.5q-9 7 -14 15t-5 20q0 11 3 23q10 33 33 53t65 20q31 0 45 -12.5t14 -33.5
q0 -10 -5 -27q-7 -24 -17.5 -35.5t-30.5 -22.5q20 -13 20 -36q0 -6 -1 -14t-3 -16zM207 196q3 10 3 18q0 24 -27 24q-38 0 -49 -42q-3 -11 -3 -19q0 -24 27 -24q20 0 31.5 11.5t17.5 31.5zM175 74q3 10 3 20q0 12 -6.5 19.5t-23.5 7.5q-23 0 -34.5 -13.5t-17.5 -33.5
q-2 -5 -3 -10.5t-1 -10.5q0 -25 29 -25q23 0 35.5 13.5t18.5 32.5z" />
    <glyph glyph-name="Amacron" unicode="&#x100;" horiz-adv-x="528" 
d="M359 0v191h-270l-111 -191h-62l421 723h73l8 -723h-59zM358 659l-237 -416h238zM513 810h-246l13 45h246z" />
    <glyph glyph-name="amacron" unicode="&#x101;" horiz-adv-x="433" 
d="M377 427q0 -21 -3.5 -40t-9.5 -39q-25 -88 -50 -174t-47 -174h-55l20 70q-35 -38 -69.5 -58t-81.5 -20q-49 0 -79 25.5t-30 73.5q0 67 25 109t67 66t97 32.5t115 8.5h19q7 26 14.5 52.5t7.5 52.5q0 32 -18.5 44t-48.5 12q-48 0 -80 -22.5t-43 -62.5h-58q20 66 68.5 99
t118.5 33q25 0 47 -4.5t38.5 -15t26 -27t9.5 -41.5zM263 261q-44 0 -85 -6.5t-73 -24.5t-51 -49t-19 -80q0 -28 15.5 -45t45.5 -17q46 0 77 21.5t52 54t34 71.5t23 75h-19zM396 632h-246l13 45h246z" />
    <glyph glyph-name="Abreve" unicode="&#x102;" horiz-adv-x="528" 
d="M359 0v191h-270l-111 -191h-62l421 723h73l8 -723h-59zM358 659l-237 -416h238zM551 906q-23 -59 -65 -93t-107 -34q-45 0 -75 23t-30 70q0 17 3 34h37q0 -2 -0.5 -5.5t-0.5 -6.5q0 -38 21.5 -53.5t56.5 -15.5q44 0 74.5 22t50.5 59h35v0z" />
    <glyph glyph-name="abreve" unicode="&#x103;" horiz-adv-x="433" 
d="M377 427q0 -21 -3.5 -40t-9.5 -39q-25 -88 -50 -174t-47 -174h-55l20 70q-35 -38 -69.5 -58t-81.5 -20q-49 0 -79 25.5t-30 73.5q0 67 25 109t67 66t97 32.5t115 8.5h19q7 26 14.5 52.5t7.5 52.5q0 32 -18.5 44t-48.5 12q-48 0 -80 -22.5t-43 -62.5h-58q20 66 68.5 99
t118.5 33q25 0 47 -4.5t38.5 -15t26 -27t9.5 -41.5zM263 261q-44 0 -85 -6.5t-73 -24.5t-51 -49t-19 -80q0 -28 15.5 -45t45.5 -17q46 0 77 21.5t52 54t34 71.5t23 75h-19zM437 718q-23 -59 -65 -93t-107 -34q-45 0 -75 23t-30 70q0 17 3 34h37q0 -2 -0.5 -5.5t-0.5 -6.5
q0 -38 21.5 -53.5t56.5 -15.5q44 0 74.5 22t50.5 59h35v0z" />
    <glyph glyph-name="Aogonek" unicode="&#x104;" horiz-adv-x="528" 
d="M418 0q-54 -24 -86.5 -52.5t-32.5 -60.5q0 -21 10.5 -31.5t28.5 -10.5q11 0 21.5 3t21.5 7l1 -22q-19 -8 -39 -15t-41 -7q-24 0 -41 13.5t-17 39.5q0 22 10 41t27.5 35.5t40.5 31.5t49 28h-14v191h-270l-111 -191h-60l421 723h73zM356 659l-237 -416h238z" />
    <glyph glyph-name="aogonek" unicode="&#x105;" horiz-adv-x="433" 
d="M267 0q-54 -24 -86.5 -52.5t-32.5 -60.5q0 -21 10.5 -31.5t28.5 -10.5q11 0 21.5 3t21.5 7l1 -22q-19 -8 -39 -15t-41 -7q-24 0 -41 13.5t-17 39.5q0 22 10 41t27.5 35.5t40.5 31.5t49 28h-8l20 70q-35 -38 -69.5 -58t-81.5 -20q-49 0 -79 25.5t-30 73.5q0 67 25 109
t67 66t97 32.5t115 8.5h19q7 26 14.5 52.5t7.5 52.5q0 32 -18.5 44t-48.5 12q-48 0 -80 -22.5t-43 -62.5h-58q20 66 68.5 99t118.5 33q25 0 47 -4.5t38.5 -15t26 -27t9.5 -41.5q0 -21 -3.5 -40t-9.5 -39q-25 -88 -50 -174t-47 -174zM263 261q-44 0 -85 -6.5t-73 -24.5
t-51 -49t-19 -80q0 -28 15.5 -45t45.5 -17q46 0 77 21.5t52 54t34 71.5t23 75h-19z" />
    <glyph glyph-name="Cacute" unicode="&#x106;" horiz-adv-x="494" 
d="M518 623q0 -26 -5.5 -49t-13.5 -47h-62q6 20 11 40t5 41q0 43 -25.5 59t-64.5 16q-40 0 -70.5 -16t-54 -42.5t-41 -60.5t-30.5 -70.5t-22.5 -72.5t-18.5 -66q-7 -24 -15.5 -53.5t-16 -60t-13 -60t-5.5 -54.5q0 -48 23.5 -68.5t71.5 -20.5q39 0 67 11.5t49 31.5t35 48.5
t24 62.5q1 3 1.5 6.5t2.5 6.5h63q-15 -49 -35 -89t-49.5 -69t-69.5 -45t-94 -16q-33 0 -61 6.5t-49 21.5t-32.5 39.5t-11.5 60.5q0 28 5 59t12.5 62.5t16.5 62t17 57.5q12 42 25 87t29.5 87.5t38 80t52 66t71.5 45t95 16.5q27 0 53 -5.5t46.5 -19t33 -35.5t12.5 -54z
M366 782h-52l138 139h81z" />
    <glyph glyph-name="cacute" unicode="&#x107;" horiz-adv-x="385" 
d="M366 424q0 -18 -2.5 -32t-7.5 -31h-57q4 13 6.5 25.5t2.5 26.5q0 32 -18 44t-47 12q-40 0 -67.5 -22.5t-46.5 -56t-30.5 -71.5t-20.5 -69q-10 -35 -20 -73t-10 -75q0 -36 16.5 -51t51.5 -15q27 0 46.5 8.5t33.5 23.5t23.5 35.5t16.5 43.5h57q-20 -71 -61.5 -114
t-118.5 -43q-27 0 -50 5t-40.5 16.5t-27 31t-9.5 48.5q0 40 10.5 81t21.5 79q15 53 33 101t44.5 84t64 57.5t91.5 21.5q53 0 84 -20t31 -71zM250 594h-52l138 139h81z" />
    <glyph glyph-name="Ccircumflex" unicode="&#x108;" horiz-adv-x="494" 
d="M518 623q0 -26 -5.5 -49t-13.5 -47h-62q6 20 11 40t5 41q0 43 -25.5 59t-64.5 16q-40 0 -70.5 -16t-54 -42.5t-41 -60.5t-30.5 -70.5t-22.5 -72.5t-18.5 -66q-7 -24 -15.5 -53.5t-16 -60t-13 -60t-5.5 -54.5q0 -48 23.5 -68.5t71.5 -20.5q39 0 67 11.5t49 31.5t35 48.5
t24 62.5q1 3 1.5 6.5t2.5 6.5h63q-15 -49 -35 -89t-49.5 -69t-69.5 -45t-94 -16q-33 0 -61 6.5t-49 21.5t-32.5 39.5t-11.5 60.5q0 28 5 59t12.5 62.5t16.5 62t17 57.5q12 42 25 87t29.5 87.5t38 80t52 66t71.5 45t95 16.5q27 0 53 -5.5t46.5 -19t33 -35.5t12.5 -54z
M462 782l-58 99l-113 -99h-57l141 139h67l64 -139h-44z" />
    <glyph glyph-name="ccircumflex" unicode="&#x109;" horiz-adv-x="385" 
d="M366 424q0 -18 -2.5 -32t-7.5 -31h-57q4 13 6.5 25.5t2.5 26.5q0 32 -18 44t-47 12q-40 0 -67.5 -22.5t-46.5 -56t-30.5 -71.5t-20.5 -69q-10 -35 -20 -73t-10 -75q0 -36 16.5 -51t51.5 -15q27 0 46.5 8.5t33.5 23.5t23.5 35.5t16.5 43.5h57q-20 -71 -61.5 -114
t-118.5 -43q-27 0 -50 5t-40.5 16.5t-27 31t-9.5 48.5q0 40 10.5 81t21.5 79q15 53 33 101t44.5 84t64 57.5t91.5 21.5q53 0 84 -20t31 -71zM358 594l-58 99l-113 -99h-57l141 139h67l64 -139h-44z" />
    <glyph glyph-name="Cdotaccent" unicode="&#x10a;" horiz-adv-x="494" 
d="M518 623q0 -26 -5.5 -49t-13.5 -47h-62q6 20 11 40t5 41q0 43 -25.5 59t-64.5 16q-40 0 -70.5 -16t-54 -42.5t-41 -60.5t-30.5 -70.5t-22.5 -72.5t-18.5 -66q-7 -24 -15.5 -53.5t-16 -60t-13 -60t-5.5 -54.5q0 -48 23.5 -68.5t71.5 -20.5q39 0 67 11.5t49 31.5t35 48.5
t24 62.5q1 3 1.5 6.5t2.5 6.5h63q-15 -49 -35 -89t-49.5 -69t-69.5 -45t-94 -16q-33 0 -61 6.5t-49 21.5t-32.5 39.5t-11.5 60.5q0 28 5 59t12.5 62.5t16.5 62t17 57.5q12 42 25 87t29.5 87.5t38 80t52 66t71.5 45t95 16.5q27 0 53 -5.5t46.5 -19t33 -35.5t12.5 -54z
M402 806h-62l26 90h62z" />
    <glyph glyph-name="cdotaccent" unicode="&#x10b;" horiz-adv-x="385" 
d="M366 424q0 -18 -2.5 -32t-7.5 -31h-57q4 13 6.5 25.5t2.5 26.5q0 32 -18 44t-47 12q-40 0 -67.5 -22.5t-46.5 -56t-30.5 -71.5t-20.5 -69q-10 -35 -20 -73t-10 -75q0 -36 16.5 -51t51.5 -15q27 0 46.5 8.5t33.5 23.5t23.5 35.5t16.5 43.5h57q-20 -71 -61.5 -114
t-118.5 -43q-27 0 -50 5t-40.5 16.5t-27 31t-9.5 48.5q0 40 10.5 81t21.5 79q15 53 33 101t44.5 84t64 57.5t91.5 21.5q53 0 84 -20t31 -71zM306 628h-62l26 90h62z" />
    <glyph glyph-name="Ccaron" unicode="&#x10c;" horiz-adv-x="494" 
d="M518 623q0 -26 -5.5 -49t-13.5 -47h-62q6 20 11 40t5 41q0 43 -25.5 59t-64.5 16q-40 0 -70.5 -16t-54 -42.5t-41 -60.5t-30.5 -70.5t-22.5 -72.5t-18.5 -66q-7 -24 -15.5 -53.5t-16 -60t-13 -60t-5.5 -54.5q0 -48 23.5 -68.5t71.5 -20.5q39 0 67 11.5t49 31.5t35 48.5
t24 62.5q1 3 1.5 6.5t2.5 6.5h63q-15 -49 -35 -89t-49.5 -69t-69.5 -45t-94 -16q-33 0 -61 6.5t-49 21.5t-32.5 39.5t-11.5 60.5q0 28 5 59t12.5 62.5t16.5 62t17 57.5q12 42 25 87t29.5 87.5t38 80t52 66t71.5 45t95 16.5q27 0 53 -5.5t46.5 -19t33 -35.5t12.5 -54z
M316 921l58 -99l113 99h57l-141 -139h-67l-64 139h44z" />
    <glyph glyph-name="ccaron" unicode="&#x10d;" horiz-adv-x="385" 
d="M366 424q0 -18 -2.5 -32t-7.5 -31h-57q4 13 6.5 25.5t2.5 26.5q0 32 -18 44t-47 12q-40 0 -67.5 -22.5t-46.5 -56t-30.5 -71.5t-20.5 -69q-10 -35 -20 -73t-10 -75q0 -36 16.5 -51t51.5 -15q27 0 46.5 8.5t33.5 23.5t23.5 35.5t16.5 43.5h57q-20 -71 -61.5 -114
t-118.5 -43q-27 0 -50 5t-40.5 16.5t-27 31t-9.5 48.5q0 40 10.5 81t21.5 79q15 53 33 101t44.5 84t64 57.5t91.5 21.5q53 0 84 -20t31 -71zM211 733l58 -99l113 99h57l-141 -139h-67l-64 139h44z" />
    <glyph glyph-name="Dcaron" unicode="&#x10e;" horiz-adv-x="535" 
d="M524 583q0 -26 -4.5 -54.5t-11 -57t-14.5 -56t-15 -52.5q-14 -47 -27.5 -92t-31.5 -85.5t-41 -74.5t-55.5 -58.5t-76 -38.5t-101.5 -14h-169l207 723h159q35 0 67.5 -6.5t58 -22.5t40.5 -43t15 -68zM457 573q0 30 -9 49.5t-25.5 30.5t-39 15t-49.5 4h-104l-178 -620h116
q62 0 103.5 32t69 80t44.5 103.5t31 103.5q6 22 13.5 48t13.5 52.5t10 52.5t4 49zM326 921l58 -99l113 99h57l-141 -139h-67l-64 139h44z" />
    <glyph glyph-name="dcaron" unicode="&#x10f;" horiz-adv-x="441" 
d="M298 97q-7 -24 -13 -48.5t-11 -48.5h-55l16 57q-26 -30 -57 -47.5t-76 -17.5q-58 0 -86 31.5t-28 88.5q0 40 8 77t19 75q15 48 33 93t44.5 80.5t63.5 56.5t88 21q35 0 61.5 -14.5t38.5 -48.5l76 271h57zM315 391q0 38 -18 57t-57 19t-66.5 -20.5t-47 -51t-32.5 -66
t-22 -66.5q-11 -35 -19.5 -71.5t-8.5 -72.5q0 -35 15.5 -56.5t53.5 -21.5q43 0 72 19.5t48.5 50t31.5 67t22 70.5t19 71t9 72zM522 561h-48l72 162h63z" />
    <glyph glyph-name="Dcroat" unicode="&#x110;" horiz-adv-x="535" 
d="M524 583q0 -26 -4.5 -54.5t-11 -57t-14.5 -56t-15 -52.5q-14 -47 -27.5 -92t-31.5 -85.5t-41 -74.5t-55.5 -58.5t-76 -38.5t-101.5 -14h-169l108 378h-71l14 45h70l86 300h159q35 0 67.5 -6.5t58 -22.5t40.5 -43t15 -68zM457 573q0 30 -9 49.5t-25.5 30.5t-39 15t-49.5 4
h-104l-71 -249h171l-15 -45h-169l-94 -326h116q62 0 103.5 32t69 80t44.5 103.5t31 103.5q6 22 13.5 48t13.5 52.5t10 52.5t4 49z" />
    <glyph glyph-name="dcroat" unicode="&#x111;" horiz-adv-x="441" 
d="M450 628h65l-14 -47h-65l-138 -484q-7 -24 -13 -48.5t-11 -48.5h-55l16 57q-26 -30 -57 -47.5t-76 -17.5q-58 0 -86 31.5t-28 88.5q0 40 8 77t19 75q15 48 33 93t44.5 80.5t63.5 56.5t88 21q35 0 61.5 -14.5t38.5 -48.5l36 129h-178l14 47h177l27 95h57zM315 391
q0 38 -18 57t-57 19t-67 -20.5t-47.5 -51t-32 -66t-21.5 -66.5q-10 -35 -19 -71.5t-9 -72.5q0 -35 15.5 -56.5t53.5 -21.5q43 0 72 19.5t48.5 50t31.5 67t22 70.5t19 71t9 72z" />
    <glyph glyph-name="Emacron" unicode="&#x112;" horiz-adv-x="432" 
d="M479 670h-250l-78 -274h239l-15 -51h-239l-84 -292h257l-15 -53h-317l207 723h310zM481 810h-246l13 45h246z" />
    <glyph glyph-name="emacron" unicode="&#x113;" horiz-adv-x="425" 
d="M383 408q0 -42 -12.5 -83.5t-23.5 -81.5h-273q-10 -32 -20 -66t-10 -68q0 -38 19.5 -55.5t57.5 -17.5q30 0 52.5 8.5t39 24t28 37t20.5 48.5h57q-13 -39 -30 -69.5t-40.5 -51.5t-55.5 -32t-74 -11q-28 0 -52 6t-42 19t-28 33.5t-10 50.5q0 32 7.5 63.5t15.5 61.5
q14 51 31 102.5t44 93.5t68.5 68.5t105.5 26.5q54 0 89.5 -25t35.5 -82zM323 395q0 35 -17 54.5t-54 19.5q-39 0 -66.5 -16t-46 -42t-30.5 -58t-21 -64h213q8 26 15 52.5t7 53.5zM396 632h-246l13 45h246z" />
    <glyph glyph-name="Ebreve" unicode="&#x114;" horiz-adv-x="432" 
d="M479 670h-250l-78 -274h239l-15 -51h-239l-84 -292h257l-15 -53h-317l207 723h310zM519 906q-23 -59 -65 -93t-107 -34q-45 0 -75 23t-30 70q0 17 3 34h37q0 -2 -0.5 -5.5t-0.5 -6.5q0 -38 21.5 -53.5t56.5 -15.5q44 0 74.5 22t50.5 59h35v0z" />
    <glyph glyph-name="ebreve" unicode="&#x115;" horiz-adv-x="425" 
d="M383 408q0 -42 -12.5 -83.5t-23.5 -81.5h-273q-10 -32 -20 -66t-10 -68q0 -38 19.5 -55.5t57.5 -17.5q30 0 52.5 8.5t39 24t28 37t20.5 48.5h57q-13 -39 -30 -69.5t-40.5 -51.5t-55.5 -32t-74 -11q-28 0 -52 6t-42 19t-28 33.5t-10 50.5q0 32 7.5 63.5t15.5 61.5
q14 51 31 102.5t44 93.5t68.5 68.5t105.5 26.5q54 0 89.5 -25t35.5 -82zM323 395q0 35 -17 54.5t-54 19.5q-39 0 -66.5 -16t-46 -42t-30.5 -58t-21 -64h213q8 26 15 52.5t7 53.5zM437 718q-23 -59 -65 -93t-107 -34q-45 0 -75 23t-30 70q0 17 3 34h37q0 -2 -0.5 -5.5
t-0.5 -6.5q0 -38 21.5 -53.5t56.5 -15.5q44 0 74.5 22t50.5 59h35v0z" />
    <glyph glyph-name="Edotaccent" unicode="&#x116;" horiz-adv-x="432" 
d="M479 670h-250l-78 -274h239l-15 -51h-239l-84 -292h257l-15 -53h-317l207 723h310zM389 806h-62l26 90h62z" />
    <glyph glyph-name="edotaccent" unicode="&#x117;" horiz-adv-x="425" 
d="M383 408q0 -42 -12.5 -83.5t-23.5 -81.5h-273q-10 -32 -20 -66t-10 -68q0 -38 19.5 -55.5t57.5 -17.5q30 0 52.5 8.5t39 24t28 37t20.5 48.5h57q-13 -39 -30 -69.5t-40.5 -51.5t-55.5 -32t-74 -11q-28 0 -52 6t-42 19t-28 33.5t-10 50.5q0 32 7.5 63.5t15.5 61.5
q14 51 31 102.5t44 93.5t68.5 68.5t105.5 26.5q54 0 89.5 -25t35.5 -82zM323 395q0 35 -17 54.5t-54 19.5q-39 0 -66.5 -16t-46 -42t-30.5 -58t-21 -64h213q8 26 15 52.5t7 53.5zM304 628h-62l26 90h62z" />
    <glyph glyph-name="Eogonek" unicode="&#x118;" horiz-adv-x="432" 
d="M294 0q-54 -23 -86.5 -52t-32.5 -61q0 -21 10.5 -31.5t28.5 -10.5q11 0 21.5 3t21.5 7l1 -22q-19 -8 -39 -15t-41 -7q-24 0 -41 13.5t-17 39.5q0 22 10 41t27.5 35.5t40.5 31.5t49 28h-270l207 723h310l-15 -53h-250l-78 -274h239l-15 -51h-239l-84 -292h257l-15 -53v0z
" />
    <glyph glyph-name="eogonek" unicode="&#x119;" horiz-adv-x="425" 
d="M383 408q0 -42 -12.5 -83.5t-23.5 -81.5h-273q-10 -32 -20 -66t-10 -68q0 -38 19.5 -55.5t57.5 -17.5q30 0 52.5 8.5t39 24t28 37t20.5 48.5h57q-21 -64 -54.5 -105t-91.5 -53q-51 -24 -80 -51t-29 -58q0 -21 10.5 -31.5t28.5 -10.5q11 0 21.5 3t21.5 7l1 -22
q-19 -8 -39 -15t-41 -7q-24 0 -41 13.5t-17 39.5q0 39 31 70t77 56q-56 1 -93 25.5t-37 83.5q0 32 7.5 63.5t15.5 61.5q14 51 31 102.5t44 93.5t68.5 68.5t105.5 26.5q54 0 89.5 -25t35.5 -82zM323 395q0 35 -17 54.5t-54 19.5q-39 0 -66.5 -16t-46 -42t-30.5 -58t-21 -64
h213q8 26 15 52.5t7 53.5z" />
    <glyph glyph-name="Ecaron" unicode="&#x11a;" horiz-adv-x="432" 
d="M479 670h-250l-78 -274h239l-15 -51h-239l-84 -292h257l-15 -53h-317l207 723h310zM293 921l58 -99l113 99h57l-141 -139h-67l-64 139h44z" />
    <glyph glyph-name="ecaron" unicode="&#x11b;" horiz-adv-x="425" 
d="M383 408q0 -42 -12.5 -83.5t-23.5 -81.5h-273q-10 -32 -20 -66t-10 -68q0 -38 19.5 -55.5t57.5 -17.5q30 0 52.5 8.5t39 24t28 37t20.5 48.5h57q-13 -39 -30 -69.5t-40.5 -51.5t-55.5 -32t-74 -11q-28 0 -52 6t-42 19t-28 33.5t-10 50.5q0 32 7.5 63.5t15.5 61.5
q14 51 31 102.5t44 93.5t68.5 68.5t105.5 26.5q54 0 89.5 -25t35.5 -82zM323 395q0 35 -17 54.5t-54 19.5q-39 0 -66.5 -16t-46 -42t-30.5 -58t-21 -64h213q8 26 15 52.5t7 53.5zM209 733l58 -99l113 99h57l-141 -139h-67l-64 139h44z" />
    <glyph glyph-name="Gcircumflex" unicode="&#x11c;" horiz-adv-x="520" 
d="M530 619q0 -23 -4 -41t-11 -39h-62q5 15 9 33.5t4 34.5q0 45 -28 61.5t-69 16.5q-42 0 -74 -16t-57 -43t-43 -61.5t-32 -72t-24.5 -74.5t-19.5 -69q-6 -23 -14 -49t-14.5 -53t-11 -53t-4.5 -50q0 -57 29 -81t85 -24q32 0 64.5 5.5t58.5 17.5l75 264h-140l15 52h199
l-103 -360q-44 -15 -85.5 -23.5t-87.5 -8.5q-38 0 -69.5 8t-55 25.5t-36.5 44.5t-13 66q0 56 14.5 112t31.5 109q23 74 46.5 143.5t58 123.5t84.5 86.5t127 32.5q29 0 57 -6.5t50.5 -20.5t36 -36.5t13.5 -54.5zM473 782l-58 99l-113 -99h-57l141 139h67l64 -139h-44z" />
    <glyph glyph-name="gcircumflex" unicode="&#x11d;" horiz-adv-x="446" 
d="M424 504q-8 -21 -15 -42.5t-13 -43.5l-126 -440q-12 -43 -29 -76.5t-42 -56t-59 -34t-80 -11.5q-23 0 -45.5 4t-40 14.5t-28.5 28t-11 44.5q0 29 7 53h59q-3 -11 -5 -21.5t-2 -21.5q0 -33 20.5 -44.5t49.5 -11.5q48 0 77.5 20.5t47 53t27.5 71.5t21 76q-29 -31 -61 -46
t-75 -15q-54 0 -82.5 25t-28.5 80q0 35 8.5 71t18.5 69q13 46 30.5 93t43.5 85t63 62.5t90 24.5q42 0 68.5 -14.5t37.5 -56.5l19 60h55zM322 389q0 78 -77 78q-40 0 -68.5 -22t-48 -55t-32 -71t-21.5 -69q-8 -29 -17 -62.5t-9 -64.5q0 -72 70 -72q45 0 75.5 22.5t51 56.5
t33 74t22.5 75q8 26 14.5 54t6.5 56zM376 594l-58 99l-113 -99h-57l141 139h67l64 -139h-44z" />
    <glyph glyph-name="Gbreve" unicode="&#x11e;" horiz-adv-x="520" 
d="M530 619q0 -23 -4 -41t-11 -39h-62q5 15 9 33.5t4 34.5q0 45 -28 61.5t-69 16.5q-42 0 -74 -16t-57 -43t-43 -61.5t-32 -72t-24.5 -74.5t-19.5 -69q-6 -23 -14 -49t-14.5 -53t-11 -53t-4.5 -50q0 -57 29 -81t85 -24q32 0 64.5 5.5t58.5 17.5l75 264h-140l15 52h199
l-103 -360q-44 -15 -85.5 -23.5t-87.5 -8.5q-38 0 -69.5 8t-55 25.5t-36.5 44.5t-13 66q0 56 14.5 112t31.5 109q23 74 46.5 143.5t58 123.5t84.5 86.5t127 32.5q29 0 57 -6.5t50.5 -20.5t36 -36.5t13.5 -54.5zM553 906q-23 -59 -65 -93t-107 -34q-45 0 -75 23t-30 70
q0 17 3 34h37q0 -2 -0.5 -5.5t-0.5 -6.5q0 -38 21.5 -53.5t56.5 -15.5q44 0 74.5 22t50.5 59h35v0z" />
    <glyph glyph-name="gbreve" unicode="&#x11f;" horiz-adv-x="446" 
d="M424 504q-8 -21 -15 -42.5t-13 -43.5l-126 -440q-12 -43 -29 -76.5t-42 -56t-59 -34t-80 -11.5q-23 0 -45.5 4t-40 14.5t-28.5 28t-11 44.5q0 29 7 53h59q-3 -11 -5 -21.5t-2 -21.5q0 -33 20.5 -44.5t49.5 -11.5q48 0 77.5 20.5t47 53t27.5 71.5t21 76q-29 -31 -61 -46
t-75 -15q-54 0 -82.5 25t-28.5 80q0 35 8.5 71t18.5 69q13 46 30.5 93t43.5 85t63 62.5t90 24.5q42 0 68.5 -14.5t37.5 -56.5l19 60h55zM322 389q0 78 -77 78q-40 0 -68.5 -22t-48 -55t-32 -71t-21.5 -69q-8 -29 -17 -62.5t-9 -64.5q0 -72 70 -72q45 0 75.5 22.5t51 56.5
t33 74t22.5 75q8 26 14.5 54t6.5 56zM457 718q-23 -59 -65 -93t-107 -34q-45 0 -75 23t-30 70q0 17 3 34h37q0 -2 -0.5 -5.5t-0.5 -6.5q0 -38 21.5 -53.5t56.5 -15.5q44 0 74.5 22t50.5 59h35v0z" />
    <glyph glyph-name="Gdotaccent" unicode="&#x120;" horiz-adv-x="520" 
d="M530 619q0 -23 -4 -41t-11 -39h-62q5 15 9 33.5t4 34.5q0 45 -28 61.5t-69 16.5q-42 0 -74 -16t-57 -43t-43 -61.5t-32 -72t-24.5 -74.5t-19.5 -69q-6 -23 -14 -49t-14.5 -53t-11 -53t-4.5 -50q0 -57 29 -81t85 -24q32 0 64.5 5.5t58.5 17.5l75 264h-140l15 52h199
l-103 -360q-44 -15 -85.5 -23.5t-87.5 -8.5q-38 0 -69.5 8t-55 25.5t-36.5 44.5t-13 66q0 56 14.5 112t31.5 109q23 74 46.5 143.5t58 123.5t84.5 86.5t127 32.5q29 0 57 -6.5t50.5 -20.5t36 -36.5t13.5 -54.5zM423 806h-62l26 90h62z" />
    <glyph glyph-name="gdotaccent" unicode="&#x121;" horiz-adv-x="446" 
d="M424 504q-8 -21 -15 -42.5t-13 -43.5l-126 -440q-12 -43 -29 -76.5t-42 -56t-59 -34t-80 -11.5q-23 0 -45.5 4t-40 14.5t-28.5 28t-11 44.5q0 29 7 53h59q-3 -11 -5 -21.5t-2 -21.5q0 -33 20.5 -44.5t49.5 -11.5q48 0 77.5 20.5t47 53t27.5 71.5t21 76q-29 -31 -61 -46
t-75 -15q-54 0 -82.5 25t-28.5 80q0 35 8.5 71t18.5 69q13 46 30.5 93t43.5 85t63 62.5t90 24.5q42 0 68.5 -14.5t37.5 -56.5l19 60h55zM322 389q0 78 -77 78q-40 0 -68.5 -22t-48 -55t-32 -71t-21.5 -69q-8 -29 -17 -62.5t-9 -64.5q0 -72 70 -72q45 0 75.5 22.5t51 56.5
t33 74t22.5 75q8 26 14.5 54t6.5 56zM324 628h-62l26 90h62z" />
    <glyph glyph-name="Gcommaaccent" unicode="&#x122;" horiz-adv-x="520" 
d="M530 619q0 -23 -4 -41t-11 -39h-62q5 15 9 33.5t4 34.5q0 45 -28 61.5t-69 16.5q-42 0 -74 -16t-57 -43t-43 -61.5t-32 -72t-24.5 -74.5t-19.5 -69q-6 -23 -14 -49t-14.5 -53t-11 -53t-4.5 -50q0 -57 29 -81t85 -24q32 0 64.5 5.5t58.5 17.5l75 264h-140l15 52h199
l-103 -360q-44 -15 -85.5 -23.5t-87.5 -8.5q-38 0 -69.5 8t-55 25.5t-36.5 44.5t-13 66q0 56 14.5 112t31.5 109q23 74 46.5 143.5t58 123.5t84.5 86.5t127 32.5q29 0 57 -6.5t50.5 -20.5t36 -36.5t13.5 -54.5zM111 -200h-44l71 141h61z" />
    <glyph glyph-name="gcommaaccent" unicode="&#x123;" horiz-adv-x="446" 
d="M424 504q-8 -21 -15 -42.5t-13 -43.5l-126 -440q-12 -43 -29 -76.5t-42 -56t-59 -34t-80 -11.5q-23 0 -45.5 4t-40 14.5t-28.5 28t-11 44.5q0 29 7 53h59q-3 -11 -5 -21.5t-2 -21.5q0 -33 20.5 -44.5t49.5 -11.5q48 0 77.5 20.5t47 53t27.5 71.5t21 76q-29 -31 -61 -46
t-75 -15q-54 0 -82.5 25t-28.5 80q0 35 8.5 71t18.5 69q13 46 30.5 93t43.5 85t63 62.5t90 24.5q42 0 68.5 -14.5t37.5 -56.5l19 60h55zM322 389q0 78 -77 78q-40 0 -68.5 -22t-48 -55t-32 -71t-21.5 -69q-8 -29 -17 -62.5t-9 -64.5q0 -72 70 -72q45 0 75.5 22.5t51 56.5
t33 74t22.5 75q8 26 14.5 54t6.5 56zM333 733h45l-69 -139h-61z" />
    <glyph glyph-name="Hcircumflex" unicode="&#x124;" horiz-adv-x="551" 
d="M368 0h-60l99 345h-271l-99 -345h-60l207 723h60l-93 -325h271l93 325h60zM479 782l-58 99l-113 -99h-57l141 139h67l64 -139h-44z" />
    <glyph glyph-name="hcircumflex" unicode="&#x125;" horiz-adv-x="454" 
d="M398 427q0 -36 -11 -72l-102 -355h-57l90 315q6 22 13 45.5t7 46.5q0 32 -17.5 45t-48.5 13q-38 0 -65 -15.5t-46.5 -40t-32.5 -54.5t-21 -59l-85 -296h-57l207 723h57l-79 -278q29 33 61.5 51.5t76.5 18.5q45 0 77.5 -20t32.5 -68zM294 782l-58 99l-113 -99h-57l141 139
h67l64 -139h-44z" />
    <glyph glyph-name="Hbar" unicode="&#x126;" horiz-adv-x="551" 
d="M183 511h271l61 212h60l-207 -723h-60l99 345h-271l-99 -345h-60l207 723h60zM168 459l-17 -61h271l17 61h-271z" />
    <glyph glyph-name="hbar" unicode="&#x127;" horiz-adv-x="454" 
d="M398 427q0 -36 -11 -72l-102 -355h-57l90 315q6 22 13 45.5t7 46.5q0 32 -17.5 45t-48.5 13q-38 0 -65 -15.5t-46.5 -40t-32.5 -54.5t-21 -59l-85 -296h-57l166 581h-64l14 47h64l27 95h57l-27 -95h178l-14 -47h-178l-38 -136q29 33 61.5 51.5t76.5 18.5q45 0 77.5 -20
t32.5 -68z" />
    <glyph glyph-name="Itilde" unicode="&#x128;" horiz-adv-x="220" 
d="M37 0h-60l207 723h60zM406 895q-6 -17 -16.5 -34t-24 -31t-30.5 -23t-37 -9q-19 0 -35 7t-30 15t-28 15t-30 7q-22 0 -38 -15.5t-24 -33.5h-35q7 18 18 35.5t25.5 31t32.5 22t39 8.5q17 0 31.5 -7t28.5 -15t28.5 -15t31.5 -7q21 0 34.5 16t21.5 33h37v0z" />
    <glyph glyph-name="itilde" unicode="&#x129;" horiz-adv-x="193" 
d="M22 0h-57l145 504h57zM341 707q-6 -17 -16.5 -34t-24 -31t-30.5 -23t-37 -9q-19 0 -35 7t-30 15t-28 15t-30 7q-22 0 -38 -15.5t-24 -33.5h-35q7 18 18 35.5t25.5 31t32.5 22t39 8.5q17 0 31.5 -7t28.5 -15t28.5 -15t31.5 -7q21 0 34.5 16t21.5 33h37v0z" />
    <glyph glyph-name="Imacron" unicode="&#x12a;" horiz-adv-x="220" 
d="M37 0h-60l207 723h60zM358 810h-246l13 45h246z" />
    <glyph glyph-name="imacron" unicode="&#x12b;" horiz-adv-x="193" 
d="M22 0h-57l145 504h57zM293 632h-246l13 45h246z" />
    <glyph glyph-name="Ibreve" unicode="&#x12c;" horiz-adv-x="220" 
d="M37 0h-60l207 723h60zM388 906q-23 -59 -65 -93t-107 -34q-45 0 -75 23t-30 70q0 17 3 34h37q0 -2 -0.5 -5.5t-0.5 -6.5q0 -38 21.5 -53.5t56.5 -15.5q44 0 74.5 22t50.5 59h35v0z" />
    <glyph glyph-name="ibreve" unicode="&#x12d;" horiz-adv-x="193" 
d="M22 0h-57l145 504h57zM324 718q-23 -59 -65 -93t-107 -34q-45 0 -75 23t-30 70q0 17 3 34h37q0 -2 -0.5 -5.5t-0.5 -6.5q0 -38 21.5 -53.5t56.5 -15.5q44 0 74.5 22t50.5 59h35v0z" />
    <glyph glyph-name="Iogonek" unicode="&#x12e;" horiz-adv-x="220" 
d="M37 0q-54 -24 -86.5 -52.5t-32.5 -60.5q0 -21 10.5 -31.5t28.5 -10.5q11 0 21.5 3t21.5 7l1 -22q-19 -8 -39 -15t-41 -7q-24 0 -41 13.5t-17 39.5q0 22 10 41t27.5 35.5t40.5 31.5t49 28h-13l207 723h60l-207 -723v0z" />
    <glyph glyph-name="iogonek" unicode="&#x12f;" horiz-adv-x="193" 
d="M22 0q-54 -24 -86.5 -52.5t-32.5 -60.5q0 -21 10.5 -31.5t28.5 -10.5q11 0 21.5 3t21.5 7l1 -22q-19 -8 -39 -15t-41 -7q-24 0 -41 13.5t-17 39.5q0 22 10 41t27.5 35.5t40.5 31.5t49 28h-10l145 504h57zM210 636h-69l22 76h69z" />
    <glyph glyph-name="Idotaccent" unicode="&#x130;" horiz-adv-x="220" 
d="M37 0h-60l207 723h60zM266 806h-62l26 90h62z" />
    <glyph glyph-name="dotlessi" unicode="&#x131;" horiz-adv-x="193" 
d="M22 0h-57l145 504h57z" />
    <glyph glyph-name="Jcircumflex" unicode="&#x134;" horiz-adv-x="430" 
d="M314 215q-13 -46 -29 -87.5t-40.5 -73t-61 -50t-90.5 -18.5q-27 0 -51.5 5t-43 17t-29 32t-10.5 50q0 29 6.5 57t14.5 55h61q-8 -24 -15 -48t-7 -48q0 -38 21.5 -52.5t56.5 -14.5q40 0 67 17t44 43.5t28 59t20 64.5l143 500h60zM523 782l-58 99l-113 -99h-57l141 139h67
l64 -139h-44z" />
    <glyph glyph-name="jcircumflex" unicode="&#x135;" horiz-adv-x="193" 
d="M0 -75q-9 -31 -19.5 -55t-26 -40.5t-39 -25.5t-58.5 -9q-14 0 -29 3l15 51q5 -2 9 -2h9q23 0 37 6t22.5 16.5t13.5 26t11 34.5l165 574h57zM245 594l-58 99l-113 -99h-57l141 139h67l64 -139h-44z" />
    <glyph glyph-name="Kcommaaccent" unicode="&#x136;" horiz-adv-x="468" 
d="M215 377l145 -377h-65l-143 385l334 338h77zM37 0h-60l207 723h60zM102 -200h-44l71 141h61z" />
    <glyph glyph-name="kcommaaccent" unicode="&#x137;" horiz-adv-x="384" 
d="M169 275l111 -275h-63l-109 284l232 220h72zM22 0h-57l207 723h57zM51 -200h-44l71 141h61z" />
    <glyph glyph-name="kgreenlandic" unicode="&#x138;" horiz-adv-x="384" 
d="M171 278l108 -278h-67l-104 284l230 220h74zM22 0h-57l144 504h57z" />
    <glyph glyph-name="Lacute" unicode="&#x139;" horiz-adv-x="385" 
d="M265 0h-288l207 723h60l-192 -670h228zM242 782h-52l138 139h81z" />
    <glyph glyph-name="lacute" unicode="&#x13a;" horiz-adv-x="193" 
d="M22 0h-57l207 723h57zM199 772h-52l138 139h81z" />
    <glyph glyph-name="Lcommaaccent" unicode="&#x13b;" horiz-adv-x="385" 
d="M265 0h-288l207 723h60l-192 -670h228zM65 -200h-44l71 141h61z" />
    <glyph glyph-name="lcommaaccent" unicode="&#x13c;" horiz-adv-x="193" 
d="M22 0h-57l207 723h57zM-77 -200h-44l71 141h61z" />
    <glyph glyph-name="Lcaron" unicode="&#x13d;" horiz-adv-x="385" 
d="M265 0h-288l207 723h60l-192 -670h228zM320 561h-48l72 162h63z" />
    <glyph glyph-name="lcaron" unicode="&#x13e;" horiz-adv-x="193" 
d="M22 0h-57l207 723h57zM274 561h-48l72 162h63z" />
    <glyph glyph-name="Ldot" unicode="&#x13f;" horiz-adv-x="385" 
d="M265 0h-288l207 723h60l-192 -670h228zM284 341h-62l26 90h62z" />
    <glyph glyph-name="ldot" unicode="&#x140;" horiz-adv-x="193" 
d="M22 0h-57l207 723h57zM231 327h-62l26 90h62z" />
    <glyph glyph-name="Lslash" unicode="&#x141;" horiz-adv-x="385" 
d="M294 435l-156 -82l-86 -300h228l-15 -53h-288l91 319l-83 -45l14 49l83 44l102 356h60l-92 -321l155 81z" />
    <glyph glyph-name="lslash" unicode="&#x142;" horiz-adv-x="193" 
d="M223 460l-83 -49l-118 -411h-57l105 365l-84 -51l15 52l84 51l87 306h57l-74 -259l83 48z" />
    <glyph glyph-name="Nacute" unicode="&#x143;" horiz-adv-x="593" 
d="M410 0h-89l-96 670l-191 -670h-57l207 723h89l97 -670l190 670h57zM390 782h-52l138 139h81z" />
    <glyph glyph-name="nacute" unicode="&#x144;" horiz-adv-x="454" 
d="M398 427q0 -35 -11 -71l-102 -356h-57l90 314q6 22 13 45.5t7 46.5q0 32 -16.5 45.5t-47.5 13.5q-37 0 -64.5 -15t-47.5 -39.5t-33 -54.5t-22 -60l-85 -296h-57l109 379q9 31 17 62t15 63h55l-19 -69q29 36 64 58t82 22q23 0 43 -4.5t35 -15t23.5 -27.5t8.5 -41zM266 594
h-52l138 139h81z" />
    <glyph glyph-name="Ncommaaccent" unicode="&#x145;" horiz-adv-x="593" 
d="M410 0h-89l-96 670l-191 -670h-57l207 723h89l97 -670l190 670h57zM127 -200h-44l71 141h61z" />
    <glyph glyph-name="ncommaaccent" unicode="&#x146;" horiz-adv-x="454" 
d="M398 427q0 -35 -11 -71l-102 -356h-57l90 314q6 22 13 45.5t7 46.5q0 32 -16.5 45.5t-47.5 13.5q-37 0 -64.5 -15t-47.5 -39.5t-33 -54.5t-22 -60l-85 -296h-57l109 379q9 31 17 62t15 63h55l-19 -69q29 36 64 58t82 22q23 0 43 -4.5t35 -15t23.5 -27.5t8.5 -41zM72 -200
h-44l71 141h61z" />
    <glyph glyph-name="Ncaron" unicode="&#x147;" horiz-adv-x="593" 
d="M410 0h-89l-96 670l-191 -670h-57l207 723h89l97 -670l190 670h57zM350 921l58 -99l113 99h57l-141 -139h-67l-64 139h44z" />
    <glyph glyph-name="ncaron" unicode="&#x148;" horiz-adv-x="454" 
d="M398 427q0 -35 -11 -71l-102 -356h-57l90 314q6 22 13 45.5t7 46.5q0 32 -16.5 45.5t-47.5 13.5q-37 0 -64.5 -15t-47.5 -39.5t-33 -54.5t-22 -60l-85 -296h-57l109 379q9 31 17 62t15 63h55l-19 -69q29 36 64 58t82 22q23 0 43 -4.5t35 -15t23.5 -27.5t8.5 -41zM227 733
l58 -99l113 99h57l-141 -139h-67l-64 139h44z" />
    <glyph glyph-name="Eng" unicode="&#x14a;" horiz-adv-x="593" 
d="M388 -75q-11 -36 -24 -61t-30.5 -40.5t-40 -22t-52.5 -6.5q-8 0 -18.5 0.5t-18.5 2.5l15 51q3 -1 12 -1.5t14 -0.5q35 0 54 15.5t30 51.5l25 86l-129 670l-191 -670h-57l207 723h88l116 -603l172 603h57z" />
    <glyph glyph-name="eng" unicode="&#x14b;" horiz-adv-x="454" 
d="M398 427q0 -35 -11 -71l-124 -431q-9 -31 -19.5 -55t-26 -40.5t-39 -25.5t-58.5 -9q-14 0 -29 3l15 51q8 -2 18 -2q23 0 37 6t22.5 16.5t13.5 26t11 34.5l110 384q8 29 14 51t6 41q0 32 -16.5 45.5t-47.5 13.5q-37 0 -64.5 -15t-47.5 -39.5t-33 -54.5t-22 -60l-85 -296
h-57l109 379q9 31 17 62t15 63h55l-19 -69q29 36 64 58t82 22q23 0 43 -4.5t35 -15t23.5 -27.5t8.5 -41z" />
    <glyph glyph-name="Omacron" unicode="&#x14c;" horiz-adv-x="537" 
d="M527 600q0 -27 -6.5 -65.5t-17 -82.5t-24.5 -91t-29 -90.5t-30 -80.5t-27 -61q-35 -68 -88 -105.5t-135 -37.5q-76 0 -117.5 32.5t-41.5 110.5q0 28 5 58t12.5 59.5t16.5 58.5t17 56q24 84 48.5 153t58.5 118.5t81.5 77t118.5 27.5q35 0 64 -7.5t50 -23.5t32.5 -42.5
t11.5 -63.5zM460 589q0 50 -24.5 73t-73.5 23q-32 0 -58 -10t-47 -28t-37 -42t-29 -51q-10 -21 -22 -54t-25 -72t-25 -82t-21.5 -82.5t-15 -73.5t-5.5 -56q0 -51 24.5 -73.5t75.5 -22.5q30 0 54.5 9t44 24.5t35 37t29.5 46.5q11 20 24 54t26.5 74.5t26 85t22 86t15.5 76.5
t6 58zM508 810h-246l13 45h246z" />
    <glyph glyph-name="omacron" unicode="&#x14d;" horiz-adv-x="429" 
d="M382 409q0 -42 -11 -81.5t-22 -78.5q-14 -49 -30.5 -95.5t-42 -83t-64 -58.5t-98.5 -22q-55 0 -91.5 24t-36.5 83q0 38 9.5 75.5t20.5 74.5q14 49 31 97t43.5 86t66.5 61.5t100 23.5q27 0 49.5 -5.5t39.5 -18.5t26.5 -33t9.5 -49zM322 395q0 74 -73 74q-42 0 -70 -20
t-47 -50t-30.5 -66t-21.5 -69q-11 -35 -23.5 -77.5t-12.5 -79.5q0 -38 20 -54.5t57 -16.5q46 0 75 23t47.5 57.5t30 75t21.5 74.5q9 30 18 63.5t9 65.5zM394 632h-246l13 45h246z" />
    <glyph glyph-name="Obreve" unicode="&#x14e;" horiz-adv-x="537" 
d="M527 600q0 -27 -6.5 -65.5t-17 -82.5t-24.5 -91t-29 -90.5t-30 -80.5t-27 -61q-35 -68 -88 -105.5t-135 -37.5q-76 0 -117.5 32.5t-41.5 110.5q0 28 5 58t12.5 59.5t16.5 58.5t17 56q24 84 48.5 153t58.5 118.5t81.5 77t118.5 27.5q35 0 64 -7.5t50 -23.5t32.5 -42.5
t11.5 -63.5zM460 589q0 50 -24.5 73t-73.5 23q-32 0 -58 -10t-47 -28t-37 -42t-29 -51q-10 -21 -22 -54t-25 -72t-25 -82t-21.5 -82.5t-15 -73.5t-5.5 -56q0 -51 24.5 -73.5t75.5 -22.5q30 0 54.5 9t44 24.5t35 37t29.5 46.5q11 20 24 54t26.5 74.5t26 85t22 86t15.5 76.5
t6 58zM546 906q-23 -59 -65 -93t-107 -34q-45 0 -75 23t-30 70q0 17 3 34h37q0 -2 -0.5 -5.5t-0.5 -6.5q0 -38 21.5 -53.5t56.5 -15.5q44 0 74.5 22t50.5 59h35v0z" />
    <glyph glyph-name="obreve" unicode="&#x14f;" horiz-adv-x="429" 
d="M382 409q0 -42 -11 -81.5t-22 -78.5q-14 -49 -30.5 -95.5t-42 -83t-64 -58.5t-98.5 -22q-55 0 -91.5 24t-36.5 83q0 38 9.5 75.5t20.5 74.5q14 49 31 97t43.5 86t66.5 61.5t100 23.5q27 0 49.5 -5.5t39.5 -18.5t26.5 -33t9.5 -49zM322 395q0 74 -73 74q-42 0 -70 -20
t-47 -50t-30.5 -66t-21.5 -69q-11 -35 -23.5 -77.5t-12.5 -79.5q0 -38 20 -54.5t57 -16.5q46 0 75 23t47.5 57.5t30 75t21.5 74.5q9 30 18 63.5t9 65.5zM435 718q-23 -59 -65 -93t-107 -34q-45 0 -75 23t-30 70q0 17 3 34h37q0 -2 -0.5 -5.5t-0.5 -6.5q0 -38 21.5 -53.5
t56.5 -15.5q44 0 74.5 22t50.5 59h35v0z" />
    <glyph glyph-name="Ohungarumlaut" unicode="&#x150;" horiz-adv-x="537" 
d="M527 600q0 -27 -6.5 -65.5t-17 -82.5t-24.5 -91t-29 -90.5t-30 -80.5t-27 -61q-35 -68 -88 -105.5t-135 -37.5q-76 0 -117.5 32.5t-41.5 110.5q0 28 5 58t12.5 59.5t16.5 58.5t17 56q24 84 48.5 153t58.5 118.5t81.5 77t118.5 27.5q35 0 64 -7.5t50 -23.5t32.5 -42.5
t11.5 -63.5zM460 589q0 50 -24.5 73t-73.5 23q-32 0 -58 -10t-47 -28t-37 -42t-29 -51q-10 -21 -22 -54t-25 -72t-25 -82t-21.5 -82.5t-15 -73.5t-5.5 -56q0 -51 24.5 -73.5t75.5 -22.5q30 0 54.5 9t44 24.5t35 37t29.5 46.5q11 20 24 54t26.5 74.5t26 85t22 86t15.5 76.5
t6 58zM464 782h-48l145 139h74zM329 782h-48l146 139h73z" />
    <glyph glyph-name="ohungarumlaut" unicode="&#x151;" horiz-adv-x="429" 
d="M382 409q0 -42 -11 -81.5t-22 -78.5q-14 -49 -30.5 -95.5t-42 -83t-64 -58.5t-98.5 -22q-55 0 -91.5 24t-36.5 83q0 38 9.5 75.5t20.5 74.5q14 49 31 97t43.5 86t66.5 61.5t100 23.5q27 0 49.5 -5.5t39.5 -18.5t26.5 -33t9.5 -49zM322 395q0 74 -73 74q-42 0 -70 -20
t-47 -50t-30.5 -66t-21.5 -69q-11 -35 -23.5 -77.5t-12.5 -79.5q0 -38 20 -54.5t57 -16.5q46 0 75 23t47.5 57.5t30 75t21.5 74.5q9 30 18 63.5t9 65.5zM346 594h-48l145 139h74zM211 594h-48l146 139h73z" />
    <glyph glyph-name="Racute" unicode="&#x154;" horiz-adv-x="498" 
d="M501 616q0 -24 -5 -50t-14 -50t-21.5 -45.5t-26.5 -37.5q-19 -21 -42 -34.5t-61 -21.5q31 -4 50.5 -22t19.5 -52q0 -36 -12.5 -74.5t-21.5 -73.5q-10 -39 -18 -77.5t-16 -77.5h-61q5 38 15 76t19 76q8 34 19.5 71t11.5 72q0 21 -9.5 32.5t-23.5 17t-31.5 6.5t-33.5 1
h-101l-101 -352h-60l207 723h171q27 0 53 -4.5t46.5 -16.5t33.5 -33t13 -53zM437 602q0 22 -8.5 35t-22 20.5t-31 10t-35.5 2.5h-111l-76 -266h80q60 0 97 12.5t61 46.5q9 12 17 29t14.5 35.5t10.5 38t4 36.5zM332 782h-52l138 139h81z" />
    <glyph glyph-name="racute" unicode="&#x155;" horiz-adv-x="269" 
d="M286 457q-5 1 -15 1q-29 0 -54 -10t-45 -28t-34 -41.5t-22 -50.5l-94 -328h-57l118 412q7 23 12.5 46t10.5 46h55l-19 -67q32 41 69 59.5t82 18.5q6 0 9 -1zM215 594h-52l138 139h81z" />
    <glyph glyph-name="Rcommaaccent" unicode="&#x156;" horiz-adv-x="498" 
d="M501 616q0 -24 -5 -50t-14 -50t-21.5 -45.5t-26.5 -37.5q-19 -21 -42 -34.5t-61 -21.5q31 -4 50.5 -22t19.5 -52q0 -36 -12.5 -74.5t-21.5 -73.5q-10 -39 -18 -77.5t-16 -77.5h-61q5 38 15 76t19 76q8 34 19.5 71t11.5 72q0 21 -9.5 32.5t-23.5 17t-31.5 6.5t-33.5 1
h-101l-101 -352h-60l207 723h171q27 0 53 -4.5t46.5 -16.5t33.5 -33t13 -53zM437 602q0 22 -8.5 35t-22 20.5t-31 10t-35.5 2.5h-111l-76 -266h80q60 0 97 12.5t61 46.5q9 12 17 29t14.5 35.5t10.5 38t4 36.5zM97 -200h-44l71 141h61z" />
    <glyph glyph-name="rcommaaccent" unicode="&#x157;" horiz-adv-x="269" 
d="M286 457q-5 1 -15 1q-29 0 -54 -10t-45 -28t-34 -41.5t-22 -50.5l-94 -328h-57l118 412q7 23 12.5 46t10.5 46h55l-19 -67q32 41 69 59.5t82 18.5q6 0 9 -1zM-67 -200h-44l71 141h61z" />
    <glyph glyph-name="Rcaron" unicode="&#x158;" horiz-adv-x="498" 
d="M501 616q0 -24 -5 -50t-14 -50t-21.5 -45.5t-26.5 -37.5q-19 -21 -42 -34.5t-61 -21.5q31 -4 50.5 -22t19.5 -52q0 -36 -12.5 -74.5t-21.5 -73.5q-10 -39 -18 -77.5t-16 -77.5h-61q5 38 15 76t19 76q8 34 19.5 71t11.5 72q0 21 -9.5 32.5t-23.5 17t-31.5 6.5t-33.5 1
h-101l-101 -352h-60l207 723h171q27 0 53 -4.5t46.5 -16.5t33.5 -33t13 -53zM437 602q0 22 -8.5 35t-22 20.5t-31 10t-35.5 2.5h-111l-76 -266h80q60 0 97 12.5t61 46.5q9 12 17 29t14.5 35.5t10.5 38t4 36.5zM292 921l58 -99l113 99h57l-141 -139h-67l-64 139h44z" />
    <glyph glyph-name="rcaron" unicode="&#x159;" horiz-adv-x="269" 
d="M286 457q-5 1 -15 1q-29 0 -54 -10t-45 -28t-34 -41.5t-22 -50.5l-94 -328h-57l118 412q7 23 12.5 46t10.5 46h55l-19 -67q32 41 69 59.5t82 18.5q6 0 9 -1zM166 733l58 -99l113 99h57l-141 -139h-67l-64 139h44z" />
    <glyph glyph-name="Sacute" unicode="&#x15a;" horiz-adv-x="468" 
d="M487 631q0 -23 -5.5 -44t-12.5 -42h-62q5 18 10 35.5t5 36.5q0 21 -7.5 34t-20.5 20.5t-29.5 10.5t-34.5 3q-35 0 -64.5 -14t-51 -38t-34 -55t-12.5 -65q0 -18 8 -33.5t19.5 -28t23.5 -22.5t21 -16l61 -46q30 -23 54 -58t24 -84q0 -45 -15 -88t-44.5 -76.5t-74 -54
t-103.5 -20.5q-31 0 -59.5 5.5t-50 19t-34.5 36t-13 57.5q0 23 4 46t10 46h63q-5 -20 -9 -39.5t-4 -39.5q0 -46 26.5 -62.5t68.5 -16.5q38 0 69 15t52.5 40.5t33.5 58t12 68.5q0 29 -14 55.5t-43 49.5l-57 43q-12 9 -28.5 23t-31 32t-24.5 39.5t-10 46.5q0 48 18.5 89.5
t50 72.5t74.5 48.5t92 17.5q30 0 57.5 -5.5t47.5 -18t32 -33t12 -49.5zM321 782h-52l138 139h81z" />
    <glyph glyph-name="sacute" unicode="&#x15b;" horiz-adv-x="360" 
d="M333 431q0 -17 -3.5 -31t-7.5 -31h-57q4 12 6.5 24t2.5 25q0 29 -17.5 39.5t-43.5 10.5q-20 0 -38 -8t-31.5 -21.5t-22 -31.5t-8.5 -38q0 -21 11 -36.5t28 -29t36 -26t36 -27t28 -34t11 -45.5q0 -40 -13.5 -73t-37.5 -57t-57.5 -37.5t-73.5 -13.5q-23 0 -44 4.5
t-37.5 14.5t-26.5 27t-10 43q0 20 4 36.5t9 34.5h57q-5 -18 -8.5 -32t-3.5 -28q0 -31 17 -42.5t46 -11.5q26 0 48 9.5t37.5 26.5t24 39.5t8.5 48.5q0 21 -11 37.5t-27.5 30.5t-36 27t-36 28.5t-27.5 34.5t-11 45q0 33 13.5 61t36.5 48t54 31.5t66 11.5q22 0 42 -4t35 -13.5
t24 -26t9 -40.5zM213 594h-52l138 139h81z" />
    <glyph glyph-name="Scircumflex" unicode="&#x15c;" horiz-adv-x="468" 
d="M487 631q0 -23 -5.5 -44t-12.5 -42h-62q5 18 10 35.5t5 36.5q0 21 -7.5 34t-20.5 20.5t-29.5 10.5t-34.5 3q-35 0 -64.5 -14t-51 -38t-34 -55t-12.5 -65q0 -18 8 -33.5t19.5 -28t23.5 -22.5t21 -16l61 -46q30 -23 54 -58t24 -84q0 -45 -15 -88t-44.5 -76.5t-74 -54
t-103.5 -20.5q-31 0 -59.5 5.5t-50 19t-34.5 36t-13 57.5q0 23 4 46t10 46h63q-5 -20 -9 -39.5t-4 -39.5q0 -46 26.5 -62.5t68.5 -16.5q38 0 69 15t52.5 40.5t33.5 58t12 68.5q0 29 -14 55.5t-43 49.5l-57 43q-12 9 -28.5 23t-31 32t-24.5 39.5t-10 46.5q0 48 18.5 89.5
t50 72.5t74.5 48.5t92 17.5q30 0 57.5 -5.5t47.5 -18t32 -33t12 -49.5zM427 782l-58 99l-113 -99h-57l141 139h67l64 -139h-44z" />
    <glyph glyph-name="scircumflex" unicode="&#x15d;" horiz-adv-x="360" 
d="M333 431q0 -17 -3.5 -31t-7.5 -31h-57q4 12 6.5 24t2.5 25q0 29 -17.5 39.5t-43.5 10.5q-20 0 -38 -8t-31.5 -21.5t-22 -31.5t-8.5 -38q0 -21 11 -36.5t28 -29t36 -26t36 -27t28 -34t11 -45.5q0 -40 -13.5 -73t-37.5 -57t-57.5 -37.5t-73.5 -13.5q-23 0 -44 4.5
t-37.5 14.5t-26.5 27t-10 43q0 20 4 36.5t9 34.5h57q-5 -18 -8.5 -32t-3.5 -28q0 -31 17 -42.5t46 -11.5q26 0 48 9.5t37.5 26.5t24 39.5t8.5 48.5q0 21 -11 37.5t-27.5 30.5t-36 27t-36 28.5t-27.5 34.5t-11 45q0 33 13.5 61t36.5 48t54 31.5t66 11.5q22 0 42 -4t35 -13.5
t24 -26t9 -40.5zM321 594l-58 99l-113 -99h-57l141 139h67l64 -139h-44z" />
    <glyph glyph-name="Scedilla" unicode="&#x15e;" horiz-adv-x="468" 
d="M222 -103q0 -25 -12 -44.5t-31 -33t-42.5 -20.5t-45.5 -7q-47 0 -83 20l23 30q14 -7 28.5 -11t30.5 -4q13 0 26.5 4t24 11t17.5 17.5t7 24.5q0 16 -10.5 22.5t-28.5 6.5q-11 0 -21.5 -2.5t-21.5 -5.5l-11 13l60 68q-30 1 -56.5 7t-46.5 19.5t-32 36t-12 55.5q0 23 4 46
t10 46h63q-5 -20 -9 -39.5t-4 -39.5q0 -46 26.5 -62.5t68.5 -16.5q38 0 69 15t52.5 40.5t33.5 58t12 68.5q0 29 -14 55.5t-43 49.5l-57 43q-12 9 -28.5 23t-31 32t-24.5 39.5t-10 46.5q0 48 18.5 89.5t50 72.5t74.5 48.5t92 17.5q30 0 57.5 -5.5t47.5 -18t32 -33t12 -49.5
q0 -23 -5.5 -44t-12.5 -42h-62q5 18 10 35.5t5 36.5q0 21 -7.5 34t-20.5 20.5t-29.5 10.5t-34.5 3q-35 0 -64.5 -14t-51 -38t-34 -55t-12.5 -65q0 -18 8 -33.5t19.5 -28t23.5 -22.5t21 -16l61 -46q30 -23 54 -58t24 -84q0 -43 -13 -83.5t-39 -73t-65 -54t-91 -26.5l-42 -47
q18 6 36 6q23 0 40 -12.5t17 -37.5z" />
    <glyph glyph-name="scedilla" unicode="&#x15f;" horiz-adv-x="360" 
d="M158 -103q0 -25 -12 -44.5t-31 -33t-42.5 -20.5t-45.5 -7q-47 0 -83 20l23 30q14 -7 28.5 -11t30.5 -4q13 0 26.5 4t24 11t17.5 17.5t7 24.5q0 16 -10.5 22.5t-28.5 6.5q-11 0 -21.5 -2.5t-21.5 -5.5l-11 13l64 72q-22 1 -41.5 5.5t-34.5 15t-24 27.5t-9 41q0 20 4 36.5
t9 34.5h57q-5 -18 -8.5 -32t-3.5 -28q0 -31 17 -42.5t46 -11.5q26 0 48 9.5t37.5 26.5t24 39.5t8.5 48.5q0 21 -11 37.5t-27.5 30.5t-36 27t-36 28.5t-27.5 34.5t-11 45q0 33 13.5 61t36.5 48t54 31.5t66 11.5q22 0 42 -4t35 -13.5t24 -26t9 -40.5q0 -17 -3.5 -31t-7.5 -31
h-57q4 12 6.5 24t2.5 25q0 29 -17.5 39.5t-43.5 10.5q-20 0 -38 -8t-31.5 -21.5t-22 -31.5t-8.5 -38q0 -21 11 -36.5t28 -29t36 -26t36 -27t28 -34t11 -45.5q0 -36 -11 -67t-31 -54t-48 -38.5t-62 -19.5l-46 -51q18 6 36 6q23 0 40 -12.5t17 -37.5z" />
    <glyph glyph-name="uni0162" unicode="&#x162;" horiz-adv-x="401" 
d="M487 670h-168l-192 -670h-60l192 670h-167l15 53h395zM28 -200h-44l71 141h61z" />
    <glyph glyph-name="uni0163" unicode="&#x163;" horiz-adv-x="265" 
d="M272 457h-96l-97 -339q-3 -11 -5 -20.5t-2 -20.5q0 -22 14 -26t31 -4q10 0 19.5 1t19.5 3l-15 -51q-13 -2 -26 -3t-26 -1t-27 2.5t-25 9t-18.5 17t-7.5 27.5t2.5 31.5t7.5 30.5l98 343h-78l14 47h78l27 97l65 26l-35 -123h96zM-29 -200h-44l71 141h61z" />
    <glyph glyph-name="Tcaron" unicode="&#x164;" horiz-adv-x="401" 
d="M487 670h-168l-192 -670h-60l192 670h-167l15 53h395zM262 921l58 -99l113 99h57l-141 -139h-67l-64 139h44z" />
    <glyph glyph-name="tcaron" unicode="&#x165;" horiz-adv-x="265" 
d="M272 457h-96l-97 -339q-3 -11 -5 -20.5t-2 -20.5q0 -22 14 -26t31 -4q10 0 19.5 1t19.5 3l-15 -51q-13 -2 -26 -3t-26 -1t-27 2.5t-25 9t-18.5 17t-7.5 27.5t2.5 31.5t7.5 30.5l98 343h-78l14 47h78l27 97l65 26l-35 -123h96zM307 561h-48l72 162h63z" />
    <glyph glyph-name="Tbar" unicode="&#x166;" horiz-adv-x="401" 
d="M22 347l15 52h144l78 271h-167l15 53h395l-15 -53h-168l-78 -271h144l-15 -52h-144l-99 -347h-60l99 347h-144z" />
    <glyph glyph-name="tbar" unicode="&#x167;" horiz-adv-x="265" 
d="M272 457h-96l-25 -87h97l-14 -47h-97l-58 -205q-3 -10 -5 -20t-2 -21q0 -22 14 -26t31 -4q10 0 19.5 1t19.5 3l-15 -51q-13 -2 -26 -3t-26 -1t-27 2.5t-25 9t-18.5 17t-7.5 27.5t2.5 31.5t7.5 30.5l59 209h-77l14 47h77l25 87h-78l14 47h78l27 97l65 26l-35 -123h96z" />
    <glyph glyph-name="Utilde" unicode="&#x168;" horiz-adv-x="551" 
d="M441 240q-17 -57 -36 -104t-48.5 -80t-71.5 -51.5t-104 -18.5q-33 0 -62.5 6t-51 20.5t-34.5 39t-13 60.5q0 34 7 67.5t16 65.5l137 478h60l-137 -479q-8 -27 -15 -61t-7 -63q0 -47 30.5 -64t73.5 -17q46 0 78.5 16t54.5 43.5t36.5 64t26.5 77.5l138 483h60zM568 895
q-6 -17 -16.5 -34t-24 -31t-30.5 -23t-37 -9q-19 0 -35 7t-30 15t-28 15t-30 7q-22 0 -38 -15.5t-24 -33.5h-35q7 18 18 35.5t25.5 31t32.5 22t39 8.5q17 0 31.5 -7t28.5 -15t28.5 -15t31.5 -7q21 0 34.5 16t21.5 33h37v0z" />
    <glyph glyph-name="utilde" unicode="&#x169;" horiz-adv-x="454" 
d="M319 125q-9 -31 -17 -62t-15 -63h-55l19 69q-29 -36 -64 -58t-82 -22q-23 0 -43 4.5t-35 15t-23.5 27.5t-8.5 41q0 35 11 71l102 356h57l-90 -314q-6 -22 -13 -45.5t-7 -46.5q0 -32 16.5 -45.5t47.5 -13.5q37 0 64.5 15t47.5 39.5t33 54.5t22 60l85 296h57zM468 707
q-6 -17 -16.5 -34t-24 -31t-30.5 -23t-37 -9q-19 0 -35 7t-30 15t-28 15t-30 7q-22 0 -38 -15.5t-24 -33.5h-35q7 18 18 35.5t25.5 31t32.5 22t39 8.5q17 0 31.5 -7t28.5 -15t28.5 -15t31.5 -7q21 0 34.5 16t21.5 33h37v0z" />
    <glyph glyph-name="Umacron" unicode="&#x16a;" horiz-adv-x="551" 
d="M441 240q-17 -57 -36 -104t-48.5 -80t-71.5 -51.5t-104 -18.5q-33 0 -62.5 6t-51 20.5t-34.5 39t-13 60.5q0 34 7 67.5t16 65.5l137 478h60l-137 -479q-8 -27 -15 -61t-7 -63q0 -47 30.5 -64t73.5 -17q46 0 78.5 16t54.5 43.5t36.5 64t26.5 77.5l138 483h60zM520 810
h-246l13 45h246z" />
    <glyph glyph-name="umacron" unicode="&#x16b;" horiz-adv-x="454" 
d="M319 125q-9 -31 -17 -62t-15 -63h-55l19 69q-29 -36 -64 -58t-82 -22q-23 0 -43 4.5t-35 15t-23.5 27.5t-8.5 41q0 35 11 71l102 356h57l-90 -314q-6 -22 -13 -45.5t-7 -46.5q0 -32 16.5 -45.5t47.5 -13.5q37 0 64.5 15t47.5 39.5t33 54.5t22 60l85 296h57zM414 632h-246
l13 45h246z" />
    <glyph glyph-name="Ubreve" unicode="&#x16c;" horiz-adv-x="551" 
d="M441 240q-17 -57 -36 -104t-48.5 -80t-71.5 -51.5t-104 -18.5q-33 0 -62.5 6t-51 20.5t-34.5 39t-13 60.5q0 34 7 67.5t16 65.5l137 478h60l-137 -479q-8 -27 -15 -61t-7 -63q0 -47 30.5 -64t73.5 -17q46 0 78.5 16t54.5 43.5t36.5 64t26.5 77.5l138 483h60zM558 906
q-23 -59 -65 -93t-107 -34q-45 0 -75 23t-30 70q0 17 3 34h37q0 -2 -0.5 -5.5t-0.5 -6.5q0 -38 21.5 -53.5t56.5 -15.5q44 0 74.5 22t50.5 59h35v0z" />
    <glyph glyph-name="ubreve" unicode="&#x16d;" horiz-adv-x="454" 
d="M319 125q-9 -31 -17 -62t-15 -63h-55l19 69q-29 -36 -64 -58t-82 -22q-23 0 -43 4.5t-35 15t-23.5 27.5t-8.5 41q0 35 11 71l102 356h57l-90 -314q-6 -22 -13 -45.5t-7 -46.5q0 -32 16.5 -45.5t47.5 -13.5q37 0 64.5 15t47.5 39.5t33 54.5t22 60l85 296h57zM451 718
q-23 -59 -65 -93t-107 -34q-45 0 -75 23t-30 70q0 17 3 34h37q0 -2 -0.5 -5.5t-0.5 -6.5q0 -38 21.5 -53.5t56.5 -15.5q44 0 74.5 22t50.5 59h35v0z" />
    <glyph glyph-name="Uring" unicode="&#x16e;" horiz-adv-x="551" 
d="M441 240q-17 -57 -36 -104t-48.5 -80t-71.5 -51.5t-104 -18.5q-33 0 -62.5 6t-51 20.5t-34.5 39t-13 60.5q0 34 7 67.5t16 65.5l137 478h60l-137 -479q-8 -27 -15 -61t-7 -63q0 -47 30.5 -64t73.5 -17q46 0 78.5 16t54.5 43.5t36.5 64t26.5 77.5l138 483h60zM474 839
q0 -37 -25.5 -62.5t-62.5 -25.5t-62.5 25.5t-25.5 62.5t25.5 62.5t62.5 25.5t62.5 -25.5t25.5 -62.5zM444 839q0 24 -17 41t-41 17t-41 -17t-17 -41t17 -41t41 -17t41 17t17 41z" />
    <glyph glyph-name="uring" unicode="&#x16f;" horiz-adv-x="454" 
d="M319 125q-9 -31 -17 -62t-15 -63h-55l19 69q-29 -36 -64 -58t-82 -22q-23 0 -43 4.5t-35 15t-23.5 27.5t-8.5 41q0 35 11 71l102 356h57l-90 -314q-6 -22 -13 -45.5t-7 -46.5q0 -32 16.5 -45.5t47.5 -13.5q37 0 64.5 15t47.5 39.5t33 54.5t22 60l85 296h57zM374 671
q0 -37 -25.5 -62.5t-62.5 -25.5t-62.5 25.5t-25.5 62.5t25.5 62.5t62.5 25.5t62.5 -25.5t25.5 -62.5zM344 671q0 24 -17 41t-41 17t-41 -17t-17 -41t17 -41t41 -17t41 17t17 41z" />
    <glyph glyph-name="Uhungarumlaut" unicode="&#x170;" horiz-adv-x="551" 
d="M441 240q-17 -57 -36 -104t-48.5 -80t-71.5 -51.5t-104 -18.5q-33 0 -62.5 6t-51 20.5t-34.5 39t-13 60.5q0 34 7 67.5t16 65.5l137 478h60l-137 -479q-8 -27 -15 -61t-7 -63q0 -47 30.5 -64t73.5 -17q46 0 78.5 16t54.5 43.5t36.5 64t26.5 77.5l138 483h60zM466 782h-48
l145 139h74zM331 782h-48l146 139h73z" />
    </font>
</defs>
</svg>
