<?xml version="1.0" standalone="no"?>
<!DOCTYPE svg PUBLIC "-//W3C//DTD SVG 1.1//EN" "http://www.w3.org/Graphics/SVG/1.1/DTD/svg11.dtd" >
<svg xmlns="http://www.w3.org/2000/svg" xmlns:xlink="http://www.w3.org/1999/xlink" version="1.1">
<metadata>
Created by FontForge 20201107 at Tue Feb  9 13:59:14 2010
 By Jimmy Wärting
Copyright (c) 2010 Linotype GmbH, www.linotype.com. All rights reserved. This font software may not be reproduced, modified, disclosed or transferred without the express written approval of Linotype GmbH. Univers is a trademark of Linotype Corp. registered in the U.S. Patent and Trademark Office and may be registered in certain other jurisdictions in the name of Linotype Corp. or its licensee Linotype GmbH. This typeface is original artwork of Adrian Frutiger and Linotype Design Studio. The design may be protected in certain jurisdictions.
</metadata>
<defs>
<font id="UniversNextPro-Bold" horiz-adv-x="628" >
  <font-face 
    font-family="Univers Next Pro Light"
    font-weight="600"
    font-stretch="normal"
    units-per-em="1000"
    panose-1="2 11 8 3 3 2 2 2 2 3"
    ascent="750"
    descent="-250"
    x-height="504"
    cap-height="723"
    bbox="-164 -232 1106 955"
    underline-thickness="50"
    underline-position="-100"
    unicode-range="U+000D-FB04"
  />
<missing-glyph horiz-adv-x="512" 
d="M222 117v67h56v-67h-56zM223 234v17q0 56 13 81q7 13 18 27.5t28 31.5q16 15 26 26.5t15 21t7 18t2 17.5q0 36 -22.5 60.5t-53.5 24.5t-53.5 -22t-28.5 -73l-50 8q7 72 44 104.5t91 32.5t89 -35.5t35 -95.5q0 -32 -12.5 -58.5t-50.5 -61.5q-37 -33 -43 -52q-6 -20 -6 -72
h-48zM462 50v617h-412v-617h412zM512 718v-718h-512v718h512z" />
    <glyph glyph-name="IJ" unicode="IJ" horiz-adv-x="901" 
d="M83 0v723h157v-723h-157zM827 232q0 -125 -65 -185t-190 -60q-45 0 -89 11t-78 35t-55 61t-21 89v13.5t1 14.5h161v-25q0 -38 23 -61.5t61 -23.5q30 0 48.5 11t29 29t14 41.5t3.5 48.5v492h157v-491v0z" />
    <glyph glyph-name="ij" unicode="ij" horiz-adv-x="576" 
d="M68 607v116h152v-116h-152zM71 0v505h146v-505h-146zM356 607v116h152v-116h-152zM505 -46q0 -46 -10.5 -74.5t-31.5 -44.5t-52.5 -21.5t-74.5 -5.5q-16 0 -31.5 0.5t-32.5 1.5v100q6 -1 11.5 -1.5t11.5 -0.5q35 0 49.5 21.5t14.5 58.5v517h146v-551z" />
    <glyph glyph-name="napostrophe" unicode="&#x22;n" horiz-adv-x="688" 
d="M474 0v267q0 26 -2 52.5t-11.5 47.5t-28.5 34t-53 13q-35 0 -55.5 -17t-32 -41.5t-15 -52.5t-3.5 -49v-254h-146v405q0 24 -1 48.5t-3 50.5h145l2 -77q34 44 72 64.5t94 20.5q93 0 138.5 -47.5t45.5 -138.5v-326h-146zM123 723l-63 -198h-99l32 198h130z" />
    <glyph glyph-name="f_f" unicode="ff" horiz-adv-x="778" 
d="M381 626q-13 1 -25 1.5t-23 0.5q-26 0 -41 -6t-22.5 -16.5t-9.5 -25.5t-2 -34v-41h116v-96h-116v-409h-146v409h-98v96h98v42q0 86 40 133t133 47q23 0 47.5 -1.5t48.5 -3.5v-96v0zM770 626q-13 1 -25 1.5t-23 0.5q-26 0 -41 -6t-22.5 -16.5t-9.5 -25.5t-2 -34v-41h116
v-96h-116v-409h-146v409h-98v96h98v42q0 86 40 133t133 47q23 0 47.5 -1.5t48.5 -3.5v-96v0z" />
    <glyph glyph-name="fi" unicode="fi" horiz-adv-x="670" 
d="M381 626q-13 1 -25 1.5t-23 0.5q-26 0 -41 -6t-22.5 -16.5t-9.5 -25.5t-2 -34v-41h116v-96h-116v-409h-146v409h-98v96h98v42q0 86 40 133t133 47q23 0 47.5 -1.5t48.5 -3.5v-96v0zM450 607v116h152v-116h-152zM453 0v505h146v-505h-146z" />
    <glyph glyph-name="fl" unicode="fl" horiz-adv-x="671" 
d="M381 626q-13 1 -25 1.5t-23 0.5q-26 0 -41 -6t-22.5 -16.5t-9.5 -25.5t-2 -34v-41h116v-96h-116v-409h-146v409h-98v96h98v42q0 86 40 133t133 47q23 0 47.5 -1.5t48.5 -3.5v-96v0zM454 0v723h146v-723h-146z" />
    <glyph glyph-name="f_f_i" unicode="ffi" horiz-adv-x="1060" 
d="M381 626q-13 1 -25 1.5t-23 0.5q-26 0 -41 -6t-22.5 -16.5t-9.5 -25.5t-2 -34v-41h116v-96h-116v-409h-146v409h-98v96h98v42q0 86 40 133t133 47q23 0 47.5 -1.5t48.5 -3.5v-96v0zM770 626q-13 1 -25 1.5t-23 0.5q-26 0 -41 -6t-22.5 -16.5t-9.5 -25.5t-2 -34v-41h116
v-96h-116v-409h-146v409h-98v96h98v42q0 86 40 133t133 47q23 0 47.5 -1.5t48.5 -3.5v-96v0zM840 607v116h152v-116h-152zM843 0v505h146v-505h-146z" />
    <glyph glyph-name="f_f_l" unicode="ffl" horiz-adv-x="1060" 
d="M381 626q-13 1 -25 1.5t-23 0.5q-26 0 -41 -6t-22.5 -16.5t-9.5 -25.5t-2 -34v-41h116v-96h-116v-409h-146v409h-98v96h98v42q0 86 40 133t133 47q23 0 47.5 -1.5t48.5 -3.5v-96v0zM770 626q-13 1 -25 1.5t-23 0.5q-26 0 -41 -6t-22.5 -16.5t-9.5 -25.5t-2 -34v-41h116
v-96h-116v-409h-146v409h-98v96h98v42q0 86 40 133t133 47q23 0 47.5 -1.5t48.5 -3.5v-96v0zM843 0v723h146v-723h-146z" />
    <glyph glyph-name=".notdef" horiz-adv-x="512" 
d="M222 117v67h56v-67h-56zM223 234v17q0 56 13 81q7 13 18 27.5t28 31.5q16 15 26 26.5t15 21t7 18t2 17.5q0 36 -22.5 60.5t-53.5 24.5t-53.5 -22t-28.5 -73l-50 8q7 72 44 104.5t91 32.5t89 -35.5t35 -95.5q0 -32 -12.5 -58.5t-50.5 -61.5q-37 -33 -43 -52q-6 -20 -6 -72
h-48zM462 50v617h-412v-617h412zM512 718v-718h-512v718h512z" />
    <glyph glyph-name="nonmarkingreturn" unicode="&#xd;" horiz-adv-x="0" 
 />
    <glyph glyph-name="space" unicode=" " horiz-adv-x="314" 
 />
    <glyph glyph-name="exclam" unicode="!" horiz-adv-x="339" 
d="M226 200h-114l-27 523h169zM98 0v128h142v-128h-142z" />
    <glyph glyph-name="quotedbl" unicode="&#x22;" horiz-adv-x="477" 
d="M370 478h-81l-22 245h125zM189 478h-81l-23 245h126z" />
    <glyph glyph-name="numbersign" unicode="#" 
d="M491 427l-25 -139h91v-100h-109l-34 -188h-111l33 188h-105l-33 -188h-112l34 188h-91v100h109l24 139h-91v100h109l35 196h112l-35 -196h105l34 196h112l-35 -196h91v-100h-108zM274 427l-25 -139h105l25 139h-105z" />
    <glyph glyph-name="dollar" unicode="$" 
d="M285 -110v97q-59 3 -104 16.5t-75.5 39.5t-46 66t-15.5 96h142q0 -50 21.5 -80.5t77.5 -37.5v211q-59 14 -102 30.5t-71.5 40t-42 56t-13.5 78.5q0 49 17 85.5t47 61.5t72 39t93 17v99h70v-99q102 -7 154 -53.5t55 -145.5h-140q1 36 -15 62.5t-54 36.5v-202
q46 -11 87.5 -25t73 -36.5t50 -57.5t18.5 -87q0 -49 -17.5 -87t-48 -64t-72.5 -41t-91 -19v-97h-70zM438 188q0 38 -21 60.5t-62 33.5v-194q44 9 63.5 36.5t19.5 63.5zM201 516q0 -34 18.5 -58.5t65.5 -37.5v189q-45 -6 -64.5 -32t-19.5 -61z" />
    <glyph glyph-name="percent" unicode="%" horiz-adv-x="923" 
d="M900 197q0 -41 -8.5 -78t-28.5 -65t-52 -44.5t-78 -16.5t-78 16.5t-52 44t-29 64t-9 77.5q0 42 9.5 78.5t30 63t52.5 42t78 15.5q45 0 76.5 -15.5t51 -42.5t28.5 -63t9 -76zM301 -27h-92l411 782h90zM358 544q0 -41 -9 -78t-28.5 -65t-52 -44.5t-78.5 -16.5
q-45 0 -77 16.5t-52 44t-29 64t-9 77.5q0 42 9.5 78.5t30 63t52.5 42t78 15.5q45 0 76.5 -15.5t51 -42.5t28.5 -63t9 -76zM798 192q0 16 -1 38t-7 42.5t-19 34.5t-36 14q-24 0 -38 -14.5t-20.5 -35.5t-8 -44.5t-1.5 -40.5t2 -37.5t9 -38.5t20 -30.5t35 -12.5q23 0 36 13.5
t19.5 32.5t8 40.5t1.5 38.5zM255 539q0 16 -1.5 38t-7.5 42.5t-18.5 34.5t-35.5 14q-24 0 -37.5 -14.5t-20 -35.5t-8 -44.5t-1.5 -40.5q0 -16 2 -36.5t8.5 -39t19.5 -31t35 -12.5q23 0 36 13.5t19.5 32.5t8 40.5t1.5 38.5z" />
    <glyph glyph-name="ampersand" unicode="&#x26;" horiz-adv-x="810" 
d="M643 333v-333h-304q-50 0 -100.5 9t-91 32t-66.5 64t-26 104q0 39 12.5 69.5t34.5 53.5t52 37.5t64 22.5v2q-60 15 -95 54t-35 106q0 50 21.5 85.5t56 58t77 33t83.5 10.5q34 0 67.5 -3t66.5 -8v-106q-21 4 -42 6.5t-42 2.5q-23 0 -47.5 -3.5t-45 -14t-34 -29
t-13.5 -48.5q0 -31 15 -50.5t37.5 -30.5t48.5 -15t49 -4h115v137h142v-137h139v-105h-139zM501 333h-117q-27 0 -57.5 -3.5t-56 -15t-42.5 -34t-17 -59.5q0 -41 20.5 -64t51 -34.5t65 -14t62.5 -2.5h91v227z" />
    <glyph glyph-name="quotesingle" unicode="'" horiz-adv-x="295" 
d="M188 478h-81l-22 245h125z" />
    <glyph glyph-name="parenleft" unicode="(" horiz-adv-x="317" 
d="M173 -151q-22 51 -43 104t-37.5 107t-26.5 109.5t-10 112.5q0 58 10.5 114.5t27 111.5t38 108.5t42.5 106.5h100l-32 -108t-29 -108.5t-21 -110t-8 -112.5q0 -56 7.5 -111.5t20 -109.5t28.5 -107.5t34 -106.5h-101z" />
    <glyph glyph-name="parenright" unicode=")" horiz-adv-x="317" 
d="M261 289q0 -56 -10.5 -112.5t-27 -112.5t-37.5 -110t-42 -105h-100q16 53 31.5 106.5t28.5 107.5t21 109t8 111q0 115 -27 223.5t-63 216.5h101q22 -51 43.5 -104t37.5 -107.5t26 -110t10 -112.5z" />
    <glyph glyph-name="asterisk" unicode="*" horiz-adv-x="463" 
d="M282 508l93 -116l-93 -49l-51 135l-52 -137l-88 51l92 116l-143 -23v103l144 -23l-93 113l89 52l52 -137l51 137l89 -54l-92 -111l143 23v-103z" />
    <glyph glyph-name="plus" unicode="+" horiz-adv-x="665" 
d="M390 205v-205h-114v205h-206v111h206v205h114v-205h205v-111h-205z" />
    <glyph glyph-name="comma" unicode="," horiz-adv-x="314" 
d="M143 -119h-107l60 247h152z" />
    <glyph glyph-name="hyphen" unicode="-" horiz-adv-x="325" 
d="M26 217v96h273v-96h-273z" />
    <glyph glyph-name="period" unicode="." horiz-adv-x="314" 
d="M85 0v128h143v-128h-143z" />
    <glyph glyph-name="slash" unicode="/" horiz-adv-x="283" 
d="M81 -15h-104l226 756h103z" />
    <glyph glyph-name="zero" unicode="0" 
d="M589 368q0 -72 -13.5 -140.5t-45.5 -122t-85 -86t-133 -32.5t-132.5 33t-83.5 87t-44 122.5t-13 139.5q0 70 14 137t46 119t85 84t131 32q79 0 132 -32t84.5 -84t44.5 -119.5t13 -137.5zM439 359q0 22 -0.5 51.5t-4.5 60.5t-11 61t-21 53t-34.5 37.5t-50.5 14.5
q-32 0 -53.5 -14.5t-35.5 -38t-21.5 -53t-11.5 -61t-4.5 -61t-0.5 -52.5q0 -32 2.5 -77.5t14.5 -87t36.5 -71t68.5 -29.5q30 0 51 13.5t35 35.5t22.5 50.5t12.5 58t5 58t1 51.5z" />
    <glyph glyph-name="one" unicode="1" 
d="M282 0v579q-35 -32 -77 -55.5t-87 -39.5v123q30 10 54 21.5t45.5 25t42 30.5t44.5 39h126v-723h-148z" />
    <glyph glyph-name="two" unicode="2" 
d="M44 0v119q24 19 60.5 48t77 64t81 74t73 78.5t52.5 78t20 72.5q0 47 -26.5 74t-70.5 27q-49 0 -75.5 -30.5t-28.5 -81.5h-151q1 59 23.5 100.5t59 67.5t83 38t96.5 12q45 0 88.5 -12t78 -37t56 -62.5t21.5 -89.5q0 -43 -17.5 -84.5t-46 -81t-65 -76t-74.5 -70
t-74.5 -63.5t-65.5 -55h347v-110h-522z" />
    <glyph glyph-name="three" unicode="3" 
d="M580 199q0 -60 -25.5 -101t-66 -65.5t-90 -35t-97.5 -10.5q-53 0 -101 10.5t-85 35.5t-60 66t-27 103h150q2 -56 37 -83.5t85 -27.5q26 0 49.5 7.5t41.5 22.5t28.5 37.5t10.5 52.5q0 34 -14 56t-36.5 35t-49.5 18t-54 5q-12 0 -24.5 -1t-24.5 -2v101q10 -1 19.5 -1.5
t19.5 -0.5q27 0 54 4.5t48.5 17t35.5 34.5t14 56q0 25 -9.5 45t-25.5 33t-36.5 20t-42.5 7q-17 0 -36.5 -5t-35.5 -17t-26.5 -31.5t-10.5 -47.5h-154q0 54 25 93t64 63.5t86 36t91 11.5q43 0 89 -10t83.5 -33t61.5 -60.5t24 -91.5q0 -35 -11.5 -63.5t-32 -50t-48.5 -35.5
t-62 -19q37 -6 68 -19t53.5 -35t35 -53t12.5 -72z" />
    <glyph glyph-name="four" unicode="4" 
d="M500 157v-157h-140v157h-332v130l299 436h173v-464h111v-102h-111zM132 258h230l2 349z" />
    <glyph glyph-name="five" unicode="5" 
d="M580 248q0 -65 -19 -114t-53.5 -82t-82.5 -49.5t-107 -16.5q-50 0 -97.5 9.5t-84 32.5t-58.5 62t-22 98h149q2 -48 31.5 -72t74.5 -24q31 0 53.5 12.5t36.5 33t21 48t7 57.5q0 28 -6.5 53.5t-20 45t-35 31t-50.5 11.5q-37 0 -66 -20.5t-36 -60.5h-148l16 420h458v-107
h-325l-11 -214q57 85 157 85q51 0 91.5 -18.5t68.5 -51t43 -76t15 -93.5z" />
    <glyph glyph-name="six" unicode="6" 
d="M593 245q0 -59 -20.5 -106.5t-56 -81t-83 -52t-102.5 -18.5q-80 0 -134.5 30t-87.5 81t-47 118t-14 141q0 73 14.5 142.5t48 123t89 86t136.5 32.5q48 0 90.5 -11t74.5 -35t50.5 -61t18.5 -88h-144q0 51 -26 74t-69 23q-45 0 -73 -27.5t-43 -67.5t-20.5 -85.5t-5.5 -81.5
q31 54 75.5 77.5t104.5 23.5q47 0 88 -16.5t71 -47.5t47.5 -75t17.5 -98zM454 239q0 30 -7 56.5t-22 46t-37.5 31t-53.5 11.5q-35 0 -59.5 -12t-40 -32.5t-22.5 -47t-7 -56.5t8.5 -56.5t24.5 -46t39.5 -30.5t53.5 -11q31 0 54 11.5t38.5 31.5t23 47t7.5 57z" />
    <glyph glyph-name="seven" unicode="7" 
d="M297 0h-172l290 611h-367v112h513v-117z" />
    <glyph glyph-name="eight" unicode="8" 
d="M589 201q0 -60 -23.5 -101t-61.5 -66.5t-86 -36.5t-97 -11q-48 0 -98 10t-91 34t-67 64.5t-26 100.5q0 42 13.5 73t37 53.5t55 37t67.5 21.5q-12 1 -37.5 8.5t-51 26t-44.5 50t-19 79.5q0 55 23.5 92.5t60 61t82 33.5t90.5 10q43 0 88.5 -9.5t82.5 -32t60.5 -59.5
t23.5 -91q0 -36 -11.5 -64t-32 -49t-48 -35t-58.5 -21q12 -1 39.5 -9t56 -27.5t50.5 -54t22 -88.5zM432 534q0 54 -34 83.5t-82 29.5q-24 0 -45.5 -7t-38 -21.5t-26 -35.5t-9.5 -48q0 -28 9.5 -48t25.5 -33t37.5 -19t45.5 -6q23 0 44.5 6.5t37.5 19.5t25.5 33t9.5 46z
M448 210q0 31 -11 54t-30 38t-43.5 22.5t-51.5 7.5q-26 0 -50 -7.5t-42 -23t-28.5 -38t-10.5 -52.5t10.5 -53.5t28.5 -39.5t42 -24t51 -8t51 8t43 23.5t30 39t11 53.5z" />
    <glyph glyph-name="nine" unicode="9" 
d="M585 377q0 -77 -12.5 -147.5t-45 -124.5t-88.5 -86.5t-143 -32.5q-58 0 -105 13t-80.5 37.5t-51.5 60t-18 81.5h150q1 -14 5 -28.5t15.5 -26.5t31.5 -20t53 -8q51 0 80 26.5t43.5 66t18 85.5t4.5 84q-29 -47 -68.5 -68t-103.5 -21q-50 0 -92 16.5t-72.5 46.5t-48 72.5
t-17.5 95.5q0 57 20.5 101.5t56.5 76t84 48t104 16.5q82 0 136 -29.5t86 -79t45 -116t13 -139.5zM431 503q0 60 -33 97.5t-91 37.5q-63 0 -95 -37t-32 -98q0 -29 8 -54.5t24 -44t38.5 -29t51.5 -10.5q60 0 94.5 37.5t34.5 100.5z" />
    <glyph glyph-name="colon" unicode=":" horiz-adv-x="314" 
d="M86 375v128h143v-128h-143zM86 0v128h143v-128h-143z" />
    <glyph glyph-name="semicolon" unicode=";" horiz-adv-x="314" 
d="M88 375v128h143v-128h-143zM145 -119h-107l60 247h152z" />
    <glyph glyph-name="less" unicode="&#x3c;" horiz-adv-x="665" 
d="M70 203v115l525 206v-119l-391 -145l391 -144v-120z" />
    <glyph glyph-name="equal" unicode="=" horiz-adv-x="665" 
d="M70 315v111h525v-111h-525zM70 95v110h525v-110h-525z" />
    <glyph glyph-name="greater" unicode="&#x3e;" horiz-adv-x="664" 
d="M70 -4v120l391 144l-391 145v119l524 -206v-115z" />
    <glyph glyph-name="question" unicode="?" horiz-adv-x="542" 
d="M484 552q0 -33 -10.5 -60t-29.5 -51.5t-46.5 -48t-61.5 -50.5q-15 -11 -24.5 -20.5t-15.5 -19.5t-8.5 -22.5t-2.5 -30.5v-49h-122v69q0 19 2.5 32.5t10.5 27t23 29t40 38.5q24 22 41 40t28 34.5t16 32.5t5 34q0 26 -11 44.5t-30 30.5t-45 18t-55 6q-27 0 -53 -4t-52 -12
v104q35 6 70 10t70 4q47 0 94 -8.5t84 -29.5t60 -57t23 -91zM152 0v128h142v-128h-142z" />
    <glyph glyph-name="at" unicode="@" horiz-adv-x="1005" 
d="M709 266q-2 -12 -3.5 -21.5t-1.5 -15.5q0 -22 8.5 -34.5t30.5 -12.5q24 0 45.5 13.5t38 38t26.5 60t10 79.5q0 59 -21 110t-63 88t-104.5 58t-145.5 21q-84 0 -154.5 -30t-121.5 -82t-79.5 -121.5t-28.5 -148.5q0 -71 23.5 -128t66.5 -97.5t104 -62.5t136 -22
q70 0 132 16t108 41l41 -77q-56 -34 -129 -54t-152 -20q-96 0 -176 27.5t-137.5 80t-89.5 127t-32 169.5t35.5 180t100 149t155.5 101.5t201 37.5q99 0 179.5 -25t137.5 -72t87.5 -114.5t30.5 -151.5q0 -67 -19 -119t-52 -88t-76.5 -54.5t-92.5 -18.5q-51 0 -83 22.5
t-37 66.5q-10 -17 -25 -33t-35 -28.5t-45.5 -20t-55.5 -7.5q-86 0 -127 46t-41 119q0 51 13.5 97t40.5 81t68.5 56t97.5 21q42 0 73 -17t45 -43l9 51h125zM591 304q2 11 3.5 25t1.5 24q0 38 -16.5 61t-56.5 23q-23 0 -41 -10t-31.5 -27.5t-23 -40t-14.5 -47.5
q-2 -12 -3.5 -26t-1.5 -26q0 -35 15 -58.5t56 -23.5q43 0 71 34t41 92z" />
    <glyph glyph-name="A" unicode="A" horiz-adv-x="758" 
d="M590 0l-62 166h-316l-62 -166h-155l293 723h177l298 -723h-173zM371 611l-121 -339h237z" />
    <glyph glyph-name="B" unicode="B" horiz-adv-x="701" 
d="M656 202q0 -62 -27.5 -101t-69.5 -61.5t-93 -31t-99 -8.5h-284v723h251q34 0 71.5 -0.5t70.5 -8.5q66 -15 110 -58t44 -116q0 -70 -40 -108t-104 -55q37 -7 68 -20t53.5 -34t35.5 -51t13 -70zM474 520q0 28 -11.5 46.5t-29.5 29t-41 15t-47 4.5h-110v-193h100
q26 0 51 3.5t44.5 14t31.5 29.5t12 51zM495 213q0 32 -11 52.5t-29.5 32.5t-43 16.5t-52.5 4.5h-124v-211h115q27 0 53.5 4t46.5 15.5t32.5 32t12.5 53.5z" />
    <glyph glyph-name="C" unicode="C" horiz-adv-x="719" 
d="M682 213q-7 -62 -33.5 -105t-67 -70t-92 -39t-107.5 -12q-87 0 -151 26.5t-105.5 75.5t-61.5 116.5t-20 150.5q0 82 21.5 151.5t65 120.5t108.5 80t151 29q54 0 105 -12.5t91.5 -40t65 -71t26.5 -104.5h-162q-6 54 -39.5 82t-86.5 28t-88.5 -25.5t-56.5 -65t-30 -87
t-9 -90.5t9 -87.5t29.5 -80.5t55 -58.5t85.5 -22.5q54 0 90 28t44 83h163v0z" />
    <glyph glyph-name="D" unicode="D" horiz-adv-x="780" 
d="M736 365q0 -110 -31.5 -180.5t-88 -111.5t-135 -57t-171.5 -16h-227v723h251q87 0 161 -18t127.5 -59.5t83.5 -110t30 -170.5zM575 363q0 68 -16 115.5t-48 77t-79.5 43t-111.5 13.5h-80v-501h74q133 0 197 60t64 192z" />
    <glyph glyph-name="E" unicode="E" horiz-adv-x="622" 
d="M83 0v723h489v-112h-335v-188h317v-111h-317v-200h345v-112h-499z" />
    <glyph glyph-name="F" unicode="F" horiz-adv-x="588" 
d="M237 611v-193h304v-111h-304v-307h-154v723h477v-112h-323z" />
    <glyph glyph-name="G" unicode="G" horiz-adv-x="767" 
d="M698 27q-69 -19 -138 -29.5t-140 -10.5q-88 0 -158 25t-118.5 72.5t-74 117t-25.5 158.5q0 85 25 155t72 120t115.5 77.5t154.5 27.5q57 0 107 -12.5t88 -39.5t62 -70t29 -104h-159q-8 57 -44.5 83t-91.5 26q-54 0 -91.5 -23t-60 -59.5t-32.5 -83t-10 -93.5
q0 -53 12.5 -101t39 -84.5t68 -58t100.5 -21.5q31 0 61.5 3.5t59.5 11.5v170h-153v107h302v-364v0z" />
    <glyph glyph-name="H" unicode="H" horiz-adv-x="793" 
d="M553 0v309h-313v-309h-157v723h157v-296h313v296h157v-723h-157z" />
    <glyph glyph-name="I" unicode="I" horiz-adv-x="323" 
d="M83 0v723h157v-723h-157z" />
    <glyph glyph-name="J" unicode="J" horiz-adv-x="578" 
d="M504 232q0 -125 -65 -185t-190 -60q-45 0 -89 11t-78 35t-55 61t-21 89v13.5t1 14.5h161v-25q0 -38 23 -61.5t61 -23.5q30 0 48.5 11t29 29t14 41.5t3.5 48.5v492h157v-491v0z" />
    <glyph glyph-name="K" unicode="K" horiz-adv-x="721" 
d="M529 0l-287 397l260 326h190l-284 -320l317 -403h-196zM83 0v723h157v-723h-157z" />
    <glyph glyph-name="L" unicode="L" horiz-adv-x="594" 
d="M83 0v723h157v-609h338v-114h-495z" />
    <glyph glyph-name="M" unicode="M" horiz-adv-x="1017" 
d="M788 0v629l-216 -629h-138l-216 630v-630h-135v723h240l189 -567l182 567h240v-723h-146z" />
    <glyph glyph-name="N" unicode="N" horiz-adv-x="799" 
d="M496 0l-278 596v-596h-135v723h220l278 -597v597h135v-723h-220z" />
    <glyph glyph-name="O" unicode="O" horiz-adv-x="779" 
d="M735 362q0 -81 -22 -150t-65.5 -119.5t-108.5 -79t-151 -28.5q-87 0 -151.5 28t-107.5 77.5t-64 118.5t-21 151t21.5 152t65 121t108.5 79.5t152 28.5t152 -28.5t107.5 -79t63.5 -120t21 -151.5zM577 365q0 46 -9 92.5t-31 84t-58 61t-91 23.5q-54 0 -89.5 -24t-57 -61.5
t-30.5 -84t-9 -91.5q0 -47 8 -94t29 -84.5t57 -61.5t92 -24t92.5 23.5t58 61.5t30 85t8.5 94z" />
    <glyph glyph-name="P" unicode="P" horiz-adv-x="665" 
d="M639 498q0 -66 -32.5 -117.5t-93.5 -77.5q-28 -11 -63.5 -16.5t-73.5 -5.5h-136v-281h-157v723h268q51 0 101.5 -6.5t94.5 -35.5q48 -32 70 -79t22 -104zM480 505q0 34 -12.5 55t-33.5 32.5t-47.5 15.5t-54.5 4h-92v-220h81q30 0 58.5 4.5t51 16.5t36 34t13.5 58z" />
    <glyph glyph-name="Q" unicode="Q" horiz-adv-x="779" 
d="M771 0q-62 0 -123 0.5t-122 -3.5q-38 -2 -74.5 -5t-74.5 -3q-84 0 -146.5 28.5t-104 78.5t-62 117.5t-20.5 146.5q0 82 21.5 152t64.5 121t107.5 79.5t151.5 28.5q82 0 146 -26t108 -73t67.5 -113t23.5 -145q0 -89 -30 -162t-104 -127q43 6 85 8.5t86 2.5v-106zM577 365
q0 46 -9 92.5t-31 84t-58 61t-91 23.5q-54 0 -90 -24t-57 -61.5t-30 -84t-9 -91.5q0 -46 8 -93t29 -84.5t57 -61.5t92 -24t92.5 23.5t58 61t30 84.5t8.5 94z" />
    <glyph glyph-name="R" unicode="R" horiz-adv-x="709" 
d="M504 0q-8 22 -12 45.5t-7 46.5q-3 24 -5 47.5t-4 46.5q-3 33 -9 56t-19 37t-35 20t-57 6h-117v-305h-156v723h277q45 0 88 -3.5t85 -20.5q54 -23 85 -61t31 -98q0 -77 -45.5 -119t-117.5 -56v-1q61 -4 92 -28.5t44 -81.5q4 -16 6 -34t5 -38q3 -23 5 -46.5t5.5 -46.5
t9 -45.5t15.5 -43.5h-164zM496 514q0 33 -14.5 52.5t-37.5 30t-51 13.5t-54 3h-100v-202h89q28 0 58 2.5t54.5 12.5t40 31t15.5 57z" />
    <glyph glyph-name="S" unicode="S" horiz-adv-x="678" 
d="M633 215q0 -62 -27 -105.5t-70 -70.5t-97 -39.5t-107 -12.5q-59 0 -110.5 12.5t-90.5 40t-62 72.5t-24 110h157q2 -58 35 -90.5t98 -32.5q24 0 48 6t43.5 19t32 32.5t12.5 46.5q0 21 -9 35.5t-25.5 25.5t-41 19t-54.5 17l-52 15q-43 12 -83.5 28t-72.5 39.5t-51.5 57
t-19.5 82.5q0 60 25.5 101.5t66.5 66.5t92.5 36t102.5 11q53 0 100.5 -10t83.5 -34.5t57.5 -64.5t21.5 -100h-157q-5 50 -33.5 77t-84.5 27q-22 0 -42.5 -6t-37 -17.5t-26.5 -29.5t-10 -42q0 -20 9 -33.5t27.5 -24.5t47 -21t66.5 -22l60 -19q46 -15 83.5 -31.5t64 -39.5
t40.5 -54.5t14 -76.5z" />
    <glyph glyph-name="T" unicode="T" horiz-adv-x="621" 
d="M389 608v-608h-157v608h-226v115h609v-115h-226z" />
    <glyph glyph-name="U" unicode="U" horiz-adv-x="795" 
d="M715 301q0 -158 -80.5 -237.5t-239.5 -79.5q-40 0 -80 6t-76.5 20t-67.5 38.5t-52 61.5q-27 48 -33 94.5t-6 100.5v418h161v-426q0 -42 6.5 -78t24 -62.5t48.5 -42t79 -15.5t79 16t49 43.5t25 64.5t7 78v422h156v-422v0z" />
    <glyph glyph-name="V" unicode="V" horiz-adv-x="706" 
d="M443 0h-184l-263 723h169l191 -592l198 592h156z" />
    <glyph glyph-name="W" unicode="W" horiz-adv-x="1110" 
d="M909 0h-189l-161 591l-164 -591h-189l-202 723h165l140 -590l160 590h190l156 -590l137 590h154z" />
    <glyph glyph-name="X" unicode="X" horiz-adv-x="740" 
d="M548 0l-187 283l-181 -283h-184l275 377l-259 346h198l165 -254l160 254h181l-251 -345l279 -378h-196z" />
    <glyph glyph-name="Y" unicode="Y" horiz-adv-x="688" 
d="M423 281v-281h-157v281l-281 443h183l182 -335l184 335h169z" />
    <glyph glyph-name="Z" unicode="Z" horiz-adv-x="630" 
d="M20 0v128l383 482h-359v113h552v-118l-400 -492h414v-113h-590z" />
    <glyph glyph-name="bracketleft" unicode="[" horiz-adv-x="317" 
d="M67 -152v875h232v-81h-121v-712h121v-82h-232z" />
    <glyph glyph-name="backslash" unicode="\" horiz-adv-x="283" 
d="M202 -15l-225 756h103l226 -756h-104z" />
    <glyph glyph-name="bracketright" unicode="]" horiz-adv-x="317" 
d="M18 -152v82h121v712h-121v81h232v-875h-232z" />
    <glyph glyph-name="asciicircum" unicode="^" horiz-adv-x="665" 
d="M473 294l-141 294l-139 -294h-127l215 429h103l215 -429h-126z" />
    <glyph glyph-name="underscore" unicode="_" horiz-adv-x="505" 
d="M2 -125v50h501v-50h-501z" />
    <glyph glyph-name="grave" unicode="`" horiz-adv-x="319" 
d="M149 590l-166 145h164l100 -145h-98z" />
    <glyph glyph-name="a" unicode="a" horiz-adv-x="577" 
d="M382 0q-6 17 -8.5 34t-3.5 35q-31 -45 -69 -62t-92 -17q-37 0 -69 9t-56 28t-37.5 48t-13.5 69q0 59 30 93t74.5 51.5t96 22t95.5 4.5h41v19q0 20 -2.5 39t-11 33.5t-23.5 23.5t-39 9q-42 0 -60 -22t-18 -57h-149q1 46 21 77t52.5 49t72 25.5t79.5 7.5q51 0 91.5 -7.5
t69 -28.5t44 -59.5t15.5 -100.5v-150q0 -43 1 -85.5t7 -87.5h-138zM370 244q-11 0 -19 0.5t-19 0.5q-23 0 -50.5 -3.5t-50.5 -13.5t-38.5 -28t-15.5 -48q0 -35 24.5 -55t57.5 -20q35 0 57 14t34 36.5t16 50.5t4 57v9z" />
    <glyph glyph-name="b" unicode="b" horiz-adv-x="635" 
d="M598 259q0 -53 -13.5 -102t-41 -86t-70.5 -59t-102 -22q-52 0 -88 19t-69 58l-3 -67h-144q3 35 3.5 68.5t0.5 66.5v588h146v-289q32 41 71.5 61.5t91.5 20.5q58 0 99.5 -20.5t67.5 -56t38.5 -82t12.5 -98.5zM448 257q0 28 -5 57.5t-17.5 54t-34 40t-55.5 15.5
q-35 0 -58.5 -15.5t-37.5 -40t-20 -54.5t-6 -60q0 -27 5 -57t17.5 -55t34.5 -41.5t56 -16.5q37 0 60.5 16t37 40.5t18.5 55.5t5 61z" />
    <glyph glyph-name="c" unicode="c" horiz-adv-x="565" 
d="M542 181q0 -51 -21 -87.5t-55.5 -60t-78 -34.5t-88.5 -11q-125 0 -193.5 67.5t-68.5 192.5q0 62 18 112t52.5 85.5t84 54.5t112.5 19q47 0 87.5 -10.5t71.5 -33t50.5 -58.5t24.5 -86h-145q-2 44 -23 72.5t-67 28.5q-36 0 -58.5 -16.5t-35 -42.5t-16.5 -57.5t-4 -60.5
q0 -28 4 -59.5t16 -58t33.5 -44t57.5 -17.5q51 0 71 31t22 79h149v-5v0z" />
    <glyph glyph-name="d" unicode="d" horiz-adv-x="635" 
d="M421 0l-4 67q-34 -40 -69 -58.5t-88 -18.5q-58 0 -100 21t-69.5 57t-40.5 83t-13 100q0 48 12 95t38.5 85t67.5 61.5t100 23.5q53 0 92 -17t71 -59v283h146v-588q0 -33 0.5 -67t3.5 -68h-147zM421 254q0 30 -6.5 60t-21 54.5t-38 40t-58.5 15.5q-34 0 -55.5 -15.5
t-34 -40t-17 -54t-4.5 -57.5q0 -30 5 -61t18 -55.5t36 -40.5t60 -16q34 0 56 16.5t35.5 41.5t19 55t5.5 57z" />
    <glyph glyph-name="e" unicode="e" horiz-adv-x="580" 
d="M179 224q0 -29 6 -55.5t20 -47t36 -33t54 -12.5q89 0 101 88h142q-7 -49 -29.5 -82.5t-55.5 -54t-74.5 -29.5t-85.5 -9q-123 0 -189.5 66t-66.5 189q0 126 65.5 200t195.5 74q37 0 71 -7.5t63 -24t51.5 -42t37.5 -60.5q16 -37 19 -76t3 -84h-364zM402 308q0 57 -26 90.5
t-79 33.5q-54 0 -84.5 -35t-30.5 -89h220z" />
    <glyph glyph-name="f" unicode="f" horiz-adv-x="389" 
d="M381 626q-13 1 -25 1.5t-23 0.5q-26 0 -41 -6t-22.5 -16.5t-9.5 -25.5t-2 -34v-41h116v-96h-116v-409h-146v409h-98v96h98v42q0 86 40 133t133 47q23 0 47.5 -1.5t48.5 -3.5v-96v0z" />
    <glyph glyph-name="g" unicode="g" horiz-adv-x="635" 
d="M569 504q-1 -42 -2 -79t-1 -61v-270q0 -149 -62 -221.5t-203 -72.5q-39 0 -80.5 6.5t-76.5 24t-57.5 48t-22.5 78.5v8h138q0 -22 8.5 -37t22.5 -24t32 -12.5t37 -3.5q36 0 58.5 10.5t35 28.5t18 43t6.5 54q1 17 0.5 34.5t-0.5 35.5q-57 -84 -161 -84q-56 0 -97.5 20
t-69.5 54t-41.5 80t-13.5 98t14 98t41.5 80.5t69.5 54.5t98 20q54 0 96 -20.5t72 -67.5v77h141zM422 267q0 27 -6 55.5t-19.5 52t-35.5 38t-54 14.5q-34 0 -57 -15t-36.5 -39t-19 -53.5t-5.5 -57.5q0 -29 5.5 -57.5t18.5 -51.5t35 -37.5t56 -14.5t57 15t36.5 39t19 53.5
t5.5 58.5z" />
    <glyph glyph-name="h" unicode="h" horiz-adv-x="632" 
d="M419 0v269q0 26 -2 52t-11.5 46.5t-29 33.5t-53.5 13t-55 -16.5t-32 -40.5t-15 -50.5t-4 -45.5v-261h-146v723h146v-292q32 42 71 62t91 20q93 0 139 -48t46 -139v-326h-145z" />
    <glyph glyph-name="i" unicode="i" horiz-adv-x="288" 
d="M68 607v116h152v-116h-152zM71 0v505h146v-505h-146z" />
    <glyph glyph-name="j" unicode="j" horiz-adv-x="288" 
d="M68 607v116h152v-116h-152zM217 -46q0 -46 -10.5 -74.5t-31.5 -44.5t-52.5 -21.5t-74.5 -5.5q-16 0 -31.5 0.5t-32.5 1.5v100q6 -1 11.5 -1.5t11.5 -0.5q35 0 49.5 21.5t14.5 58.5v517h146v-551z" />
    <glyph glyph-name="k" unicode="k" horiz-adv-x="620" 
d="M424 0l-207 283l195 222h176l-206 -215l228 -290h-186zM71 0v723h146v-723h-146z" />
    <glyph glyph-name="l" unicode="l" horiz-adv-x="288" 
d="M71 0v723h146v-723h-146z" />
    <glyph glyph-name="m" unicode="m" horiz-adv-x="971" 
d="M757 0v281q0 26 -3 50t-12.5 42.5t-28.5 29.5t-51 11t-52 -11.5t-31 -31t-15 -44t-4 -51.5v-276h-146v280q0 25 -3 49t-13 43t-28.5 30.5t-48.5 11.5t-50 -11.5t-32 -30t-17 -43t-5 -50.5v-279h-146v336q0 42 -1 83.5t-3 84.5h143l4 -79q29 47 72 67t97 20q55 0 96.5 -22
t62.5 -75q29 51 76 74t104 23q48 0 82.5 -14.5t56.5 -40.5t32 -62.5t10 -81.5v-313h-146z" />
    <glyph glyph-name="n" unicode="n" horiz-adv-x="632" 
d="M418 0v267q0 26 -2 52.5t-11.5 47.5t-28.5 34t-53 13q-35 0 -55.5 -17t-32 -41.5t-15 -52.5t-3.5 -49v-254h-146v405q0 24 -1 48.5t-3 50.5h145l2 -77q34 44 72 64.5t94 20.5q93 0 138.5 -47.5t45.5 -138.5v-326h-146z" />
    <glyph glyph-name="o" unicode="o" horiz-adv-x="622" 
d="M585 254q0 -63 -19.5 -112.5t-55.5 -83.5t-87 -52t-113 -18q-63 0 -113.5 17.5t-86 51.5t-54.5 83.5t-19 113.5q0 63 20 112t57 83t87.5 51.5t112.5 17.5t112 -17.5t85.5 -51.5t54.5 -83t19 -112zM433 253q0 30 -5.5 61.5t-19.5 57t-38 42t-60 16.5q-37 0 -60.5 -16.5
t-37 -42t-18.5 -57t-5 -61.5t5 -61.5t18.5 -57.5t37 -42.5t60.5 -16.5q36 0 60 16.5t38 42.5t19.5 57.5t5.5 61.5z" />
    <glyph glyph-name="p" unicode="p" horiz-adv-x="635" 
d="M598 261q0 -53 -13.5 -101.5t-41.5 -86.5t-71 -60.5t-101 -22.5q-51 0 -86.5 17.5t-67.5 57.5v-255h-146v570q0 30 -1 61t-3 63h143l2 -77q31 46 72 67t95 21q57 0 98 -20.5t68 -55t40 -81t13 -97.5zM448 256q0 27 -5.5 57t-18.5 54.5t-35.5 40.5t-55.5 16
q-35 0 -58 -16.5t-36.5 -42t-19 -56t-5.5 -59.5q0 -27 5 -57t17.5 -55.5t34 -42t54.5 -16.5q36 0 59.5 16.5t38 42.5t20 57t5.5 61z" />
    <glyph glyph-name="q" unicode="q" horiz-adv-x="635" 
d="M568 504q-3 -38 -3.5 -66t-0.5 -58v-570h-146v255q-32 -40 -68 -57.5t-88 -17.5q-58 0 -100.5 20t-70 56t-41 85t-13.5 106q0 49 12.5 95.5t39 82.5t67 58t96.5 22t96.5 -20.5t72.5 -67.5l2 77h145zM420 250q0 29 -5.5 59.5t-19.5 56t-37 42t-58 16.5q-34 0 -56 -16
t-34.5 -40.5t-17.5 -54t-5 -57.5q0 -30 5 -61t18.5 -57t37 -42.5t59.5 -16.5q33 0 55 16.5t35 42t18 55.5t5 57z" />
    <glyph glyph-name="r" unicode="r" horiz-adv-x="402" 
d="M392 379q-24 3 -44 3q-71 0 -101 -38t-30 -106v-238h-146v381q0 30 -2 60.5t-2 62.5h141l4 -93q25 50 63 73t93 23h11.5t12.5 -1v-127v0z" />
    <glyph glyph-name="s" unicode="s" horiz-adv-x="541" 
d="M502 153q0 -49 -22 -81t-56 -51t-76.5 -26.5t-82.5 -7.5q-45 0 -85.5 8t-72 27.5t-50 53t-18.5 85.5h147q2 -44 21.5 -67t64.5 -23q15 0 30 4.5t26.5 12.5t19 20.5t7.5 29.5q0 29 -25.5 44.5t-70.5 26.5l-55 13q-28 7 -55 16.5t-48.5 26t-34.5 40.5t-13 59q0 45 20 74.5
t51.5 47t70 24.5t74.5 7q42 0 80 -8t68 -27t48.5 -50.5t21.5 -77.5h-143q-2 36 -21 58.5t-56 22.5q-13 0 -26.5 -3t-24.5 -10t-18 -17.5t-7 -25.5q0 -29 25.5 -43t71.5 -25l57 -13q29 -7 57.5 -17t50.5 -26.5t35.5 -41t13.5 -60.5z" />
    <glyph glyph-name="t" unicode="t" horiz-adv-x="387" 
d="M249 409v-230q0 -22 1.5 -38.5t8.5 -27t21 -16t40 -5.5q12 0 23 1.5t24 2.5v-95q-26 -4 -52 -6t-52 -2q-38 0 -67 5.5t-49 20.5t-30 41.5t-10 67.5v281h-97v96h97v84l142 58v-142h119v-96h-119z" />
    <glyph glyph-name="u" unicode="u" horiz-adv-x="633" 
d="M419 0l-2 77q-34 -44 -71.5 -64.5t-93.5 -20.5q-94 0 -139 47.5t-45 138.5v326h146v-268q0 -26 2 -52.5t11 -47.5t28 -34t53 -13t55 14t33 36t16 49.5t4 54.5v261h146v-318q0 -47 0.5 -92.5t2.5 -93.5h-146z" />
    <glyph glyph-name="v" unicode="v" horiz-adv-x="569" 
d="M364 0h-158l-204 504h155l132 -390l136 390h142z" />
    <glyph glyph-name="w" unicode="w" horiz-adv-x="929" 
d="M747 0h-157l-120 382l-127 -382h-156l-178 504h158l104 -383l124 383h165l116 -383l107 383h137z" />
    <glyph glyph-name="x" unicode="x" horiz-adv-x="560" 
d="M379 0l-111 184l-110 -184h-157l188 261l-179 243h181l94 -162l96 162h157l-172 -243l193 -261h-180z" />
    <glyph glyph-name="y" unicode="y" horiz-adv-x="575" 
d="M288 -190h-139l80 187l-228 507h164l135 -377l130 377h144z" />
    <glyph glyph-name="z" unicode="z" horiz-adv-x="494" 
d="M31 0v99l264 306h-254v99h414v-103l-257 -304h267v-97h-434z" />
    <glyph glyph-name="braceleft" unicode="{" horiz-adv-x="389" 
d="M15 248v75q41 4 65.5 17.5t37.5 34.5t17 49.5t4 61.5v33q0 36 7 71t31 63.5t69.5 47t122.5 22.5v-71q-39 -2 -62.5 -15.5t-35.5 -34.5t-16 -49t-4 -59v-20q0 -32 -3.5 -64t-18.5 -58t-45 -44t-82 -23q52 -5 82 -23t45 -44t18.5 -58t3.5 -64v-20q0 -32 4 -59.5t16 -48.5
t35.5 -34t62.5 -15v-72q-77 4 -122.5 22.5t-69.5 47t-31 63.5t-7 71v33q0 33 -4 61.5t-17 49.5t-37.5 34.5t-65.5 17.5v1z" />
    <glyph glyph-name="bar" unicode="|" horiz-adv-x="264" 
d="M75 -214v1001h114v-1001h-114z" />
    <glyph glyph-name="braceright" unicode="}" horiz-adv-x="389" 
d="M374 247q-41 -4 -65.5 -17.5t-37.5 -34.5t-17 -49.5t-4 -61.5v-33q0 -36 -7 -71t-31 -63.5t-69.5 -47t-122.5 -22.5v72q39 2 62.5 15t35.5 34t16 48.5t4 59.5v20q0 32 3.5 64t18.5 58t45 44t82 23q-52 5 -82 23t-45 44t-18.5 58t-3.5 64v20q0 31 -4 59t-16 49t-35.5 34.5
t-62.5 15.5v71q77 -4 122.5 -22.5t69.5 -47t31 -63.5t7 -71v-33q0 -33 4 -61.5t17 -49.5t37.5 -34.5t65.5 -17.5v-75v-1z" />
    <glyph glyph-name="asciitilde" unicode="~" horiz-adv-x="666" 
d="M606 350q-3 -31 -12 -63t-26.5 -57.5t-43.5 -41.5t-62 -16q-31 0 -67.5 11t-73.5 24q-34 12 -65.5 21.5t-55.5 9.5q-29 0 -45 -19.5t-20 -46.5h-75q3 30 12.5 61.5t26.5 57t43 42t62 16.5q34 0 70 -11.5t72 -24.5q32 -11 62 -20t59 -9q31 0 45 19t19 47h75v0z" />
    <glyph glyph-name="Euro" unicode="&#x20ac;" 
d="M123 335v1v68h-88l24 87h70q18 117 93 183.5t207 66.5q34 0 62 -5t50 -12.5t37.5 -15t24.5 -13.5l-32 -110q-17 19 -51 34t-88 15q-75 0 -110.5 -36.5t-44.5 -106.5h264l-24 -87h-244q0 -14 0.5 -31.5t0.5 -37.5h220l-24 -87h-195q6 -84 46 -119.5t109 -35.5
q48 0 81.5 13.5t59.5 36.5v-125q-23 -14 -59.5 -23t-87.5 -9q-144 0 -213.5 64t-83.5 198h-93l24 87h65z" />
    <glyph glyph-name="quotesinglbase" unicode="&#x201a;" horiz-adv-x="318" 
d="M162 -118h-102l57 246h141z" />
    <glyph glyph-name="florin" unicode="&#x192;" 
d="M396 458h102l-18 -96h-101l-52 -290q-12 -65 -27 -111.5t-38 -75.5t-58 -42.5t-86 -13.5q-20 0 -39 2t-39 6l18 103q15 -3 29 -3q38 0 54.5 20.5t24.5 61.5l64 343h-97l18 96h97l11 59q9 49 21 91.5t33 74t54 49t85 17.5q23 0 45 -2t45 -6l-18 -106q-8 2 -17.5 3t-17.5 1
q-37 0 -53.5 -27t-26.5 -83z" />
    <glyph glyph-name="quotedblbase" unicode="&#x201e;" horiz-adv-x="548" 
d="M392 -118h-102l57 246h141zM162 -118h-102l57 246h141z" />
    <glyph glyph-name="ellipsis" unicode="&#x2026;" horiz-adv-x="1005" 
d="M765 0v128h142v-128h-142zM431 0v128h143v-128h-143zM98 0v128h143v-128h-143z" />
    <glyph glyph-name="dagger" unicode="&#x2020;" horiz-adv-x="632" 
d="M377 459v-459h-121v459h-172v98h172v166h121v-166h171v-98h-171z" />
    <glyph glyph-name="daggerdbl" unicode="&#x2021;" horiz-adv-x="632" 
d="M377 161v-161h-122v161h-171v97h171v209h-171v98h171v158h122v-158h171v-98h-171v-209h171v-97h-171z" />
    <glyph glyph-name="circumflex" unicode="&#x2c6;" horiz-adv-x="319" 
d="M239 590l-79 87l-80 -87h-101l113 146h136l112 -146h-101z" />
    <glyph glyph-name="perthousand" unicode="&#x2030;" horiz-adv-x="1006" 
d="M983 162q0 -34 -8.5 -65t-26 -55t-44.5 -38t-65 -14q-37 0 -64 13t-45 35t-26.5 52t-8.5 65q0 36 8.5 67.5t26 55t45.5 37t67 13.5q37 0 63.5 -13t44 -35.5t25.5 -53t8 -64.5zM311 575q0 -34 -8.5 -65t-26 -55t-44.5 -38t-65 -14q-37 0 -64 12.5t-45 35t-26.5 52
t-8.5 64.5q0 36 8.5 67.5t26 55t45.5 37.5t67 14q37 0 63.5 -13t44 -35.5t25.5 -53t8 -64.5zM175 -27h-91l410 782h90zM644 162q0 -34 -8.5 -65t-26 -55t-44.5 -38t-65 -14q-37 0 -64 13t-45 35t-26.5 52t-8.5 65q0 36 8.5 67.5t26 55t45.5 37t67 13.5q37 0 63.5 -13
t44 -35.5t25.5 -53t8 -64.5zM893 165q0 13 -1.5 29.5t-6.5 31t-16 24t-29 9.5q-19 0 -30 -10.5t-17 -26t-7.5 -33t-1.5 -31.5t1.5 -31t7.5 -32.5t17 -26t29 -10.5q19 0 29.5 11.5t16 28.5t7 35t1.5 32zM221 578q0 13 -1.5 29.5t-6.5 31t-16 24t-29 9.5q-19 0 -30 -10.5
t-16.5 -26.5t-7 -33.5t-1.5 -31.5t1.5 -31t7 -32t16.5 -25.5t29 -10.5q19 0 29.5 11.5t16 28.5t7 35t1.5 32zM554 165q0 13 -1.5 29.5t-6.5 31t-16 24t-29 9.5q-19 0 -30 -10.5t-16.5 -26t-7 -33t-1.5 -31.5t1.5 -31t7 -32.5t16 -26t29.5 -10.5t29.5 12t16 28.5t7 35
t1.5 31.5z" />
    <glyph glyph-name="Scaron" unicode="&#x160;" horiz-adv-x="678" 
d="M633 215q0 -62 -27 -105.5t-70 -70.5t-97 -39.5t-107 -12.5q-59 0 -110.5 12.5t-90.5 40t-62 72.5t-24 110h157q2 -58 35 -90.5t98 -32.5q24 0 48 6t43.5 19t32 32.5t12.5 46.5q0 21 -9 35.5t-25.5 25.5t-41 19t-54.5 17l-52 15q-43 12 -83.5 28t-72.5 39.5t-51.5 57
t-19.5 82.5q0 60 25.5 101.5t66.5 66.5t92.5 36t102.5 11q53 0 100.5 -10t83.5 -34.5t57.5 -64.5t21.5 -100h-157q-5 50 -33.5 77t-84.5 27q-22 0 -42.5 -6t-37 -17.5t-26.5 -29.5t-10 -42q0 -20 9 -33.5t27.5 -24.5t47 -21t66.5 -22l60 -19q46 -15 83.5 -31.5t64 -39.5
t40.5 -54.5t14 -76.5zM409 776h-136l-112 145h98l83 -89l80 89h100z" />
    <glyph glyph-name="guilsinglleft" unicode="&#x2039;" horiz-adv-x="319" 
d="M159 61l-117 196l116 194h119l-109 -196l109 -194h-118z" />
    <glyph glyph-name="OE" unicode="&#x152;" horiz-adv-x="988" 
d="M948 0q-96 0 -190 -0.5t-188 -0.5q-35 0 -70 -2t-70 -2q-89 0 -160 22.5t-121 68.5t-77 115t-27 162q0 92 26.5 160.5t75.5 114.5t119.5 68.5t157.5 22.5q42 0 83.5 -3t83.5 -3h347v-113h-294v-187h275v-112h-275v-198h304v-113zM494 616q-36 6 -72 6q-60 0 -102.5 -20.5
t-69 -56t-39 -83t-12.5 -102.5q0 -54 13 -101t40 -81.5t69 -54.5t101 -20q18 0 36 1t36 5v507z" />
    <glyph glyph-name="Zcaron" unicode="&#x17d;" horiz-adv-x="630" 
d="M20 0v128l383 482h-359v113h552v-118l-400 -492h414v-113h-590zM383 776h-136l-112 145h98l83 -89l80 89h100z" />
    <glyph glyph-name="quoteleft" unicode="&#x2018;" horiz-adv-x="315" 
d="M201 477h-141l93 246h102z" />
    <glyph glyph-name="quoteright" unicode="&#x2019;" horiz-adv-x="316" 
d="M163 477h-103l56 246h140z" />
    <glyph glyph-name="quotedblleft" unicode="&#x201c;" horiz-adv-x="550" 
d="M431 477h-141l98 246h102zM201 477h-141l98 246h102z" />
    <glyph glyph-name="quotedblright" unicode="&#x201d;" horiz-adv-x="550" 
d="M392 477h-102l59 246h141zM162 477h-102l58 246h142z" />
    <glyph glyph-name="bullet" unicode="&#x2022;" horiz-adv-x="506" 
d="M434 362q0 -38 -14 -70.5t-39 -57.5t-58 -39t-70 -14q-38 0 -70.5 14t-57.5 39t-39 57.5t-14 70.5q0 37 14 70t39 58t57.5 39t70.5 14q37 0 70 -14t58 -39t39 -58t14 -70z" />
    <glyph glyph-name="endash" unicode="&#x2013;" horiz-adv-x="504" 
d="M2 217v98h500v-98h-500z" />
    <glyph glyph-name="emdash" unicode="&#x2014;" horiz-adv-x="1005" 
d="M132 217v98h741v-98h-741z" />
    <glyph glyph-name="tilde" unicode="&#x2dc;" horiz-adv-x="320" 
d="M352 726q-3 -23 -12.5 -45.5t-25 -39.5t-36.5 -27.5t-46 -10.5q-20 0 -39 5t-37.5 11.5t-37.5 11.5t-38 5q-38 0 -48 -36h-64q2 25 12 47.5t26.5 39t39 26.5t48.5 10q20 0 39.5 -5.5t38.5 -12t38 -12t37 -5.5q17 0 26 11t12 27h67v0z" />
    <glyph glyph-name="trademark" unicode="&#x2122;" horiz-adv-x="952" 
d="M755 362l2 308l-99 -308h-68l-97 308v-308h-72v361h126l80 -262l80 262h124v-361h-76zM268 664v-302h-82v302h-118v59h317v-59h-117z" />
    <glyph glyph-name="scaron" unicode="&#x161;" horiz-adv-x="541" 
d="M502 153q0 -49 -22 -81t-56 -51t-76.5 -26.5t-82.5 -7.5q-45 0 -85.5 8t-72 27.5t-50 53t-18.5 85.5h147q2 -44 21.5 -67t64.5 -23q15 0 30 4.5t26.5 12.5t19 20.5t7.5 29.5q0 29 -25.5 44.5t-70.5 26.5l-55 13q-28 7 -55 16.5t-48.5 26t-34.5 40.5t-13 59q0 45 20 74.5
t51.5 47t70 24.5t74.5 7q42 0 80 -8t68 -27t48.5 -50.5t21.5 -77.5h-143q-2 36 -21 58.5t-56 22.5q-13 0 -26.5 -3t-24.5 -10t-18 -17.5t-7 -25.5q0 -29 25.5 -43t71.5 -25l57 -13q29 -7 57.5 -17t50.5 -26.5t35.5 -41t13.5 -60.5zM338 590h-136l-112 145h98l83 -89l80 89
h100z" />
    <glyph glyph-name="guilsinglright" unicode="&#x203a;" horiz-adv-x="319" 
d="M161 61h-119l109 196l-109 194h118l117 -196z" />
    <glyph glyph-name="oe" unicode="&#x153;" horiz-adv-x="978" 
d="M578 223v-4q0 -28 6 -54t20 -46t35.5 -32t53.5 -12q44 0 71.5 23t29.5 65h142q-3 -37 -20.5 -68.5t-48.5 -55t-74.5 -37t-98.5 -13.5q-61 0 -108 17.5t-81 59.5q-17 -20 -40 -35t-49 -24.5t-53.5 -14t-52.5 -4.5q-63 0 -113.5 17.5t-86 51.5t-54.5 83.5t-19 113.5
q0 63 20 112t57 83t87.5 51.5t112.5 17.5q54 0 107 -18t88 -63q35 40 85 60.5t102 20.5q37 0 71 -7.5t63 -24t51.5 -42t37.5 -60.5q16 -38 19 -78.5t3 -82.5h-363zM800 307q0 25 -6 47.5t-19 39.5t-33 27t-47 10q-56 0 -85.5 -35.5t-29.5 -88.5h220zM433 253q0 30 -5.5 61.5
t-19.5 57t-38 42t-60 16.5q-37 0 -60.5 -16.5t-37 -42t-18.5 -57t-5 -61.5t5 -61.5t18.5 -57.5t37 -42.5t60.5 -16.5q36 0 60 16.5t38 42.5t19.5 57.5t5.5 61.5z" />
    <glyph glyph-name="zcaron" unicode="&#x17e;" horiz-adv-x="494" 
d="M31 0v99l264 306h-254v99h414v-103l-257 -304h267v-97h-434zM318 590h-136l-112 145h98l83 -89l80 89h100z" />
    <glyph glyph-name="Ydieresis" unicode="&#x178;" horiz-adv-x="688" 
d="M423 281v-281h-157v281l-281 443h183l182 -335l184 335h169zM400 785v117h133v-117h-133zM164 785v117h132v-117h-132z" />
    <glyph glyph-name="uni00A0" unicode="&#xa0;" horiz-adv-x="314" 
 />
    <glyph glyph-name="exclamdown" unicode="&#xa1;" horiz-adv-x="339" 
d="M98 380v128h142v-128h-142zM85 -215l27 523h114l28 -523h-169z" />
    <glyph glyph-name="cent" unicode="&#xa2;" 
d="M347 431q-4 1 -12 1q-36 0 -58.5 -16.5t-35 -42.5t-16.5 -57.5t-4 -60.5q0 -35 6.5 -74.5t27.5 -67.5zM574 181q0 -51 -21 -87.5t-55.5 -60t-78 -34.5t-88.5 -11q-24 0 -45 3l-32 -111l-61 17l31 107q-75 26 -115 88t-40 156q0 62 18 112t52.5 85.5t84 54.5t112.5 19
q9 0 18 -0.5t17 -1.5l31 107l61 -16l-29 -102q57 -18 93.5 -60.5t42.5 -114.5h-145q-1 21 -6 39t-15 31l-93 -323q5 -1 10 -1.5t11 -0.5q51 0 71 31t22 79h149v-5z" />
    <glyph glyph-name="sterling" unicode="&#xa3;" 
d="M461 540q-1 48 -22 77.5t-73 29.5q-32 0 -53 -12t-33 -35t-16.5 -56t-4.5 -75v-24h151v-94h-151v-254h317v-97h-531v97h68v254h-87v94h87q0 65 13.5 119.5t44 93.5t79 61t118.5 22q53 0 96.5 -10t74.5 -33.5t48.5 -62t18.5 -95.5h-145z" />
    <glyph glyph-name="currency" unicode="&#xa4;" 
d="M579 542l-70 -70q16 -26 25 -56.5t9 -64.5q0 -35 -9 -65.5t-25 -56.5l70 -70l-73 -74l-72 71q-26 -15 -57 -23.5t-64 -8.5q-34 0 -65 8.5t-57 23.5l-72 -71l-73 74l70 70q-34 53 -34 122q0 67 34 121l-70 70l73 74l72 -71q26 15 57 23.5t65 8.5q33 0 63.5 -8.5
t56.5 -23.5l73 71zM428 351q0 25 -9 46.5t-24.5 37.5t-36.5 25.5t-45 9.5t-45 -9.5t-37 -25.5t-25 -37.5t-9 -46.5t9 -47t25 -38t37 -25.5t45 -9.5t45 9.5t36.5 25.5t24.5 38t9 47z" />
    <glyph glyph-name="yen" unicode="&#xa5;" 
d="M429 361h129v-87h-172v-69h172v-87h-172v-118h-150v118h-171v87h171v69h-171v87h132l-197 362h170l151 -326l154 326h154z" />
    <glyph glyph-name="brokenbar" unicode="&#xa6;" horiz-adv-x="264" 
d="M75 411v251h114v-251h-114zM75 -89v250h114v-250h-114z" />
    <glyph glyph-name="section" unicode="&#xa7;" horiz-adv-x="634" 
d="M529 385q0 -49 -27.5 -80.5t-69.5 -51.5q42 -20 67 -45.5t25 -74.5q0 -44 -21 -73t-53 -45.5t-71 -23t-75 -6.5q-45 0 -90 4.5t-89 17.5v92q32 -11 64.5 -17t67.5 -6q15 0 35 1.5t37.5 7t30 17.5t12.5 33q0 22 -20 35.5t-50.5 25t-65.5 23t-65.5 28t-50.5 41.5t-20 63
q0 27 8.5 48t23 37.5t34 29.5t42.5 24q-39 17 -63.5 45t-24.5 73q0 40 18.5 66t47.5 41t63.5 20.5t67.5 5.5q38 0 77 -5t77 -12v-93q-30 9 -60.5 15t-62.5 6q-12 0 -26 -2t-26.5 -8t-20.5 -16t-8 -25q0 -20 19.5 -33t48.5 -24t63 -23t63 -29t48.5 -42.5t19.5 -64.5zM397 366
q0 19 -10 33t-25 24.5t-32.5 18.5t-32.5 15q-21 -14 -42 -33.5t-21 -47.5q0 -21 10.5 -35.5t26.5 -25t35 -18t35 -13.5q20 14 38 35t18 47z" />
    <glyph glyph-name="dieresis" unicode="&#xa8;" horiz-adv-x="319" 
d="M211 609v117h133v-117h-133zM-25 609v117h132v-117h-132z" />
    <glyph glyph-name="copyright" unicode="&#xa9;" horiz-adv-x="843" 
d="M44 362q0 81 28.5 149.5t78.5 118.5t119.5 78t150.5 28t150.5 -28t120 -78t79 -118.5t28.5 -149.5t-28.5 -149.5t-79 -118.5t-120 -78t-150.5 -28t-150.5 28t-119.5 78t-78.5 118.5t-28.5 149.5zM729 362q0 70 -22.5 127t-63.5 97.5t-97.5 63t-124.5 22.5t-124.5 -22.5
t-97 -63t-63 -97.5t-22.5 -127t22.5 -127t63.5 -98t97 -63.5t124 -22.5t124.5 22.5t97.5 63t63.5 98t22.5 127.5zM609 285q-4 -35 -20.5 -60t-42 -41t-56.5 -24t-63 -8q-100 0 -150.5 54t-50.5 153q0 97 53.5 155t152.5 58q30 0 61 -8t55.5 -24.5t40.5 -42t17 -59.5h-113
q-4 29 -18 43.5t-43 14.5t-47 -11.5t-28 -30.5t-13 -44.5t-3 -53.5q0 -27 3 -51t12.5 -41.5t26.5 -27.5t45 -10q30 0 45.5 14.5t20.5 44.5h115z" />
    <glyph glyph-name="ordfeminine" unicode="&#xaa;" horiz-adv-x="364" 
d="M233 431q-1 9 -2 17.5t-2 17.5q-22 -23 -43 -32t-53 -9q-45 0 -76.5 23t-31.5 71q0 38 21.5 60t52.5 33t66.5 13t63.5 0q0 13 -1.5 24.5t-6 20t-13.5 13t-25 4.5q-20 0 -34.5 -11t-12.5 -33h-96q0 16 10 35.5t21 30.5q21 19 53 25.5t59 6.5q47 0 74.5 -11t42 -29
t18.5 -41.5t4 -48.5q0 -29 -1.5 -55.5t-1.5 -49.5q0 -19 2 -37.5t5 -37.5h-93zM228 570q-12 0 -30.5 -0.5t-36 -4.5t-29.5 -13t-12 -27q0 -20 13.5 -31t32.5 -11t31.5 7.5t19 20t9 28t2.5 31.5z" />
    <glyph glyph-name="guillemotleft" unicode="&#xab;" horiz-adv-x="557" 
d="M396 61l-117 196l117 194h118l-109 -196l110 -194h-119zM159 61l-117 196l116 194h119l-109 -196l109 -194h-118z" />
    <glyph glyph-name="logicalnot" unicode="&#xac;" horiz-adv-x="665" 
d="M480 95v220h-410v111h525v-331h-115z" />
    <glyph glyph-name="uni00AD" unicode="&#xad;" horiz-adv-x="325" 
d="M26 217v96h273v-96h-273z" />
    <glyph glyph-name="registered" unicode="&#xae;" horiz-adv-x="457" 
d="M417 552q0 -39 -15 -73.5t-40.5 -60t-59.5 -40.5t-73 -15t-73.5 15t-60 40.5t-40.5 60t-15 73.5t15 73.5t40.5 60t60 40.5t73.5 15t73 -15t59.5 -40.5t40.5 -60t15 -73.5zM382 552q0 31 -12 59t-33 49t-49 33t-59 12q-32 0 -59.5 -12t-48.5 -33t-33 -49t-12 -59
q0 -32 12 -60t33 -49t48.5 -33t59.5 -12q31 0 59 12t49 33t33 49t12 60zM265 451q-4 11 -4.5 25.5t-2.5 27.5t-8.5 22t-21.5 9h-32v-84h-46v204h91q14 0 26.5 -2t22 -7.5t15 -15.5t5.5 -27q0 -23 -12.5 -34t-33.5 -15q21 -3 29 -14t11 -25.5t4 -31.5t7 -32h-50zM263 595
q0 19 -12 23.5t-28 4.5h-27v-57h29q16 0 27 4.5t11 24.5z" />
    <glyph glyph-name="macron" unicode="&#xaf;" horiz-adv-x="308" 
d="M-13 629v69h334v-69h-334z" />
    <glyph glyph-name="degree" unicode="&#xb0;" horiz-adv-x="406" 
d="M369 572q0 -35 -13 -65t-35.5 -51.5t-52.5 -34t-65 -12.5t-65 12.5t-52.5 34t-35.5 51.5t-13 65t13 65t35.5 51.5t52.5 34t65 12.5t65 -12.5t52.5 -34t35.5 -51.5t13 -65zM125 572q0 -36 22 -59.5t56 -23.5q35 0 56.5 23.5t21.5 59.5t-21.5 59.5t-56.5 23.5
q-34 0 -56 -23.5t-22 -59.5z" />
    <glyph glyph-name="plusminus" unicode="&#xb1;" horiz-adv-x="665" 
d="M390 306v-157h-114v157h-206v110h206v163h114v-163h205v-110h-205zM70 0v111h525v-111h-525z" />
    <glyph glyph-name="twosuperior" unicode="&#xb2;" horiz-adv-x="400" 
d="M34 468v77l13 10q25 18 60.5 45t68 57t55.5 61t23 57q0 23 -15 36t-39 13q-27 0 -42 -16.5t-16 -45.5h-102q1 37 15 62.5t36.5 41.5t52 23.5t60.5 7.5t59 -7t49 -21.5t33.5 -37t12.5 -53.5q0 -27 -12.5 -54t-34.5 -53t-52 -52.5t-65 -53.5l-26 -20h193v-77h-327z" />
    <glyph glyph-name="threesuperior" unicode="&#xb3;" horiz-adv-x="400" 
d="M371 585q0 -36 -16 -60t-41 -39t-56 -21t-61 -6q-33 0 -63.5 6.5t-53.5 21.5t-37.5 40.5t-17.5 63.5h102q1 -31 21 -45.5t48 -14.5q30 0 52 15t22 46q0 32 -26 44.5t-62 12.5q-19 0 -35 -3v72q6 -1 14.5 -1.5t14.5 -0.5q37 0 62 11.5t25 46.5q0 26 -17 39t-45 13
q-22 0 -42.5 -12.5t-20.5 -44.5h-104q0 34 16 58.5t40 40t53.5 22.5t56.5 7t56 -6t52.5 -19.5t38.5 -35.5t15 -55q0 -35 -18 -57t-56 -39q35 -11 59 -34.5t24 -65.5z" />
    <glyph glyph-name="acute" unicode="&#xb4;" horiz-adv-x="319" 
d="M173 590h-101l104 145h161z" />
    <glyph glyph-name="mu" unicode="&#xb5;" horiz-adv-x="636" 
d="M422 0l-2 73q-18 -37 -42.5 -59t-67.5 -22q-63 0 -93 62v-244h-146v694h146v-268q0 -26 2 -52.5t11 -47.5t28 -34t53 -13t55 13t33 35t16 49.5t4 56.5v261h146v-318q0 -47 0.5 -92.5t2.5 -93.5h-146z" />
    <glyph glyph-name="paragraph" unicode="&#xb6;" horiz-adv-x="630" 
d="M438 0v633h-101v-633h-109v309q-49 4 -86 20.5t-62.5 42.5t-38.5 61t-13 76q0 56 20 96.5t55 66.5t83 38.5t104 12.5h257v-723h-109z" />
    <glyph glyph-name="periodcentered" unicode="&#xb7;" horiz-adv-x="314" 
d="M86 240v127h143v-127h-143z" />
    <glyph glyph-name="cedilla" unicode="&#xb8;" horiz-adv-x="319" 
d="M270 -127q0 -25 -12 -40.5t-31 -24.5t-41 -12t-41 -3q-57 0 -109 21l11 40q22 -11 45 -17.5t47 -6.5q20 0 36.5 8t16.5 31q0 21 -14 29.5t-34 8.5q-9 0 -17 -2l-16 -4l-20 13l47 94h41l-30 -67q9 2 18 3t20 1q32 0 57.5 -17.5t25.5 -54.5z" />
    <glyph glyph-name="onesuperior" unicode="&#xb9;" horiz-adv-x="400" 
d="M173 468v319q-25 -17 -47.5 -28t-51.5 -20v83q19 6 33.5 12t27.5 13.5t25.5 17t27.5 23.5h87v-420h-102z" />
    <glyph glyph-name="ordmasculine" unicode="&#xba;" horiz-adv-x="396" 
d="M366 583q0 -78 -46.5 -118t-121.5 -40q-74 0 -121 40t-47 117q0 39 12.5 68.5t34.5 49.5t53 30.5t68 10.5t67.5 -10.5t53 -30.5t35 -49.5t12.5 -67.5zM266 583q0 17 -3 34t-10.5 31t-21 23t-33.5 9t-33.5 -9t-21 -23t-10.5 -31t-3 -34t3 -34.5t10.5 -31.5t21 -23t33.5 -9
t33.5 9t21 23t10.5 31.5t3 34.5z" />
    <glyph glyph-name="guillemotright" unicode="&#xbb;" horiz-adv-x="557" 
d="M399 61h-119l109 196l-110 194h119l117 -196zM161 61h-119l109 196l-109 194h118l117 -196z" />
    <glyph glyph-name="onequarter" unicode="&#xbc;" horiz-adv-x="970" 
d="M327 -27h-94l411 782h92zM175 303v319q-25 -17 -47.5 -28t-51.5 -20v83q19 6 33.5 12t27.5 13.5t25.5 17t27.5 23.5h87v-420h-102zM883 88v-88h-95v88h-202v82l184 250h113v-262h67v-70h-67zM666 158h123v174z" />
    <glyph glyph-name="onehalf" unicode="&#xbd;" horiz-adv-x="970" 
d="M327 -27h-94l411 782h92zM599 0v77l13 10q25 18 60.5 45t68 57t55.5 61t23 57q0 23 -15 36t-39 13q-27 0 -42 -16.5t-16 -45.5h-102q1 37 15 62.5t36.5 41.5t52 23.5t60.5 7.5t59 -7t49 -21.5t33.5 -37t12.5 -53.5q0 -27 -12.5 -54t-34.5 -53t-52 -52.5t-65 -53.5
l-26 -20h193v-77h-327zM175 303v319q-25 -17 -47.5 -28t-51.5 -20v83q19 6 33.5 12t27.5 13.5t25.5 17t27.5 23.5h87v-420h-102z" />
    <glyph glyph-name="threequarters" unicode="&#xbe;" horiz-adv-x="970" 
d="M347 -27h-94l411 782h92zM883 88v-88h-95v88h-202v82l184 250h113v-262h67v-70h-67zM666 158h123v174zM371 420q0 -36 -16 -60t-41 -39t-56 -21t-61 -6q-33 0 -63.5 6.5t-53.5 21.5t-37.5 40.5t-17.5 63.5h102q1 -31 21 -45.5t48 -14.5q30 0 52 15t22 46q0 32 -26 44.5
t-62 12.5q-19 0 -35 -3v72q6 -1 14.5 -1.5t14.5 -0.5q37 0 62 11.5t25 46.5q0 26 -17 39t-45 13q-22 0 -42.5 -12.5t-20.5 -44.5h-104q0 34 16 58.5t40 40t53.5 22.5t56.5 7t56 -6t52.5 -19.5t38.5 -35.5t15 -55q0 -35 -18 -57t-56 -39q35 -11 59 -34.5t24 -65.5z" />
    <glyph glyph-name="questiondown" unicode="&#xbf;" horiz-adv-x="542" 
d="M238 380v128h143v-128h-143zM449 -218q-35 -7 -70 -10.5t-70 -3.5q-48 0 -94.5 8t-83.5 29.5t-60 58.5t-23 94q0 36 13.5 65t35 53t47.5 45.5t51 42.5q14 12 24 21t16 19t9 22.5t3 31.5v49h123v-69q0 -19 -1.5 -31.5t-12.5 -28.5q-16 -24 -42 -47.5t-50.5 -48.5
t-42.5 -52t-18 -57t12.5 -50t33 -31.5t45.5 -16.5t51 -5q27 0 52.5 4.5t51.5 12.5v-105z" />
    <glyph glyph-name="Agrave" unicode="&#xc0;" horiz-adv-x="758" 
d="M590 0l-62 166h-316l-62 -166h-155l293 723h177l298 -723h-173zM371 611l-121 -339h237zM362 776l-166 145h164l100 -145h-98z" />
    <glyph glyph-name="Aacute" unicode="&#xc1;" horiz-adv-x="758" 
d="M590 0l-62 166h-316l-62 -166h-155l293 723h177l298 -723h-173zM371 611l-121 -339h237zM386 776h-101l104 145h161z" />
    <glyph glyph-name="Acircumflex" unicode="&#xc2;" horiz-adv-x="758" 
d="M590 0l-62 166h-316l-62 -166h-155l293 723h177l298 -723h-173zM371 611l-121 -339h237zM452 776l-79 87l-80 -87h-101l113 146h136l112 -146h-101z" />
    <glyph glyph-name="Atilde" unicode="&#xc3;" horiz-adv-x="758" 
d="M590 0l-62 166h-316l-62 -166h-155l293 723h177l298 -723h-173zM371 611l-121 -339h237zM565 912q-3 -23 -12.5 -45.5t-25 -39.5t-36.5 -27.5t-46 -10.5q-20 0 -39 5t-37.5 11.5t-37.5 11.5t-38 5q-38 0 -48 -36h-64q2 25 12 47.5t26.5 39t39 26.5t48.5 10
q20 0 39.5 -5.5t38.5 -12t38 -12t37 -5.5q17 0 26 11t12 27h67v0z" />
    <glyph glyph-name="Adieresis" unicode="&#xc4;" horiz-adv-x="758" 
d="M590 0l-62 166h-316l-62 -166h-155l293 723h177l298 -723h-173zM371 611l-121 -339h237zM424 785v117h133v-117h-133zM188 785v117h132v-117h-132z" />
    <glyph glyph-name="Aring" unicode="&#xc5;" horiz-adv-x="758" 
d="M590 0l-62 166h-316l-62 -166h-155l293 723h177l298 -723h-173zM371 611l-121 -339h237zM268 852q0 22 8 40.5t22.5 32.5t33.5 22t40 8t40 -8t33.5 -22t22.5 -32.5t8 -40.5t-8 -40.5t-22.5 -32.5t-33.5 -22t-40 -8t-40 8t-33.5 22t-22.5 32.5t-8 40.5zM320 852
q0 -23 14.5 -39.5t37.5 -16.5t37.5 16.5t14.5 39.5t-14.5 39.5t-37.5 16.5t-37.5 -16.5t-14.5 -39.5z" />
    <glyph glyph-name="AE" unicode="&#xc6;" horiz-adv-x="977" 
d="M515 0l-23 164h-267l-76 -164h-156l353 723h581v-113h-339l25 -187h295v-112h-281l26 -198h284v-113h-422zM435 620l-2 -1l-163 -349h211z" />
    <glyph glyph-name="Ccedilla" unicode="&#xc7;" horiz-adv-x="719" 
d="M486 -127q0 -25 -12 -40.5t-31 -24.5t-41 -12t-41 -3q-57 0 -109 21l11 40q22 -11 45 -17.5t47 -6.5q20 0 36.5 8t16.5 31q0 21 -14 29.5t-34 8.5q-9 0 -17 -2l-16 -4l-20 13l37 75q-78 6 -134.5 34.5t-93 76.5t-54.5 113t-18 143q0 82 21.5 151.5t65 120.5t108.5 80
t151 29q54 0 105 -12.5t91.5 -40t65 -71t26.5 -104.5h-162q-6 54 -39.5 82t-86.5 28t-88.5 -25.5t-56.5 -65t-30 -87t-9 -90.5t9 -87.5t29.5 -80.5t55 -58.5t85.5 -22.5q54 0 90 28t44 83h163q-7 -61 -33 -104t-66 -70t-91 -39.5t-107 -12.5l-20 -46q9 2 18 3t20 1
q32 0 57.5 -17.5t25.5 -54.5z" />
    <glyph glyph-name="Egrave" unicode="&#xc8;" horiz-adv-x="622" 
d="M83 0v723h489v-112h-335v-188h317v-111h-317v-200h345v-112h-499zM321 776l-166 145h164l100 -145h-98z" />
    <glyph glyph-name="Eacute" unicode="&#xc9;" horiz-adv-x="622" 
d="M83 0v723h489v-112h-335v-188h317v-111h-317v-200h345v-112h-499zM345 776h-101l104 145h161z" />
    <glyph glyph-name="Ecircumflex" unicode="&#xca;" horiz-adv-x="622" 
d="M83 0v723h489v-112h-335v-188h317v-111h-317v-200h345v-112h-499zM411 776l-79 87l-80 -87h-101l113 146h136l112 -146h-101z" />
    <glyph glyph-name="Edieresis" unicode="&#xcb;" horiz-adv-x="622" 
d="M83 0v723h489v-112h-335v-188h317v-111h-317v-200h345v-112h-499zM383 785v117h133v-117h-133zM147 785v117h132v-117h-132z" />
    <glyph glyph-name="Igrave" unicode="&#xcc;" horiz-adv-x="323" 
d="M83 0v723h157v-723h-157zM151 776l-166 145h164l100 -145h-98z" />
    <glyph glyph-name="Iacute" unicode="&#xcd;" horiz-adv-x="323" 
d="M83 0v723h157v-723h-157zM175 776h-101l104 145h161z" />
    <glyph glyph-name="Icircumflex" unicode="&#xce;" horiz-adv-x="323" 
d="M83 0v723h157v-723h-157zM241 776l-79 87l-80 -87h-101l113 146h136l112 -146h-101z" />
    <glyph glyph-name="Idieresis" unicode="&#xcf;" horiz-adv-x="323" 
d="M83 0v723h157v-723h-157zM213 785v117h133v-117h-133zM-23 785v117h132v-117h-132z" />
    <glyph glyph-name="Eth" unicode="&#xd0;" horiz-adv-x="780" 
d="M736 365q0 -110 -31.5 -180.5t-88 -111.5t-135 -57t-171.5 -16h-227v352h-64v86h64v285h251q87 0 161 -18t127.5 -59.5t83.5 -110t30 -170.5zM575 363q0 68 -16 115.5t-48 77t-79.5 43t-111.5 13.5h-80v-174h168v-86h-168v-241h74q133 0 197 60t64 192z" />
    <glyph glyph-name="Ntilde" unicode="&#xd1;" horiz-adv-x="799" 
d="M496 0l-278 596v-596h-135v723h220l278 -597v597h135v-723h-220zM585 912q-3 -23 -12.5 -45.5t-25 -39.5t-36.5 -27.5t-46 -10.5q-20 0 -39 5t-37.5 11.5t-37.5 11.5t-38 5q-38 0 -48 -36h-64q2 25 12 47.5t26.5 39t39 26.5t48.5 10q20 0 39.5 -5.5t38.5 -12t38 -12
t37 -5.5q17 0 26 11t12 27h67v0z" />
    <glyph glyph-name="Ograve" unicode="&#xd2;" horiz-adv-x="779" 
d="M735 362q0 -81 -22 -150t-65.5 -119.5t-108.5 -79t-151 -28.5q-87 0 -151.5 28t-107.5 77.5t-64 118.5t-21 151t21.5 152t65 121t108.5 79.5t152 28.5t152 -28.5t107.5 -79t63.5 -120t21 -151.5zM577 365q0 46 -9 92.5t-31 84t-58 61t-91 23.5q-54 0 -89.5 -24t-57 -61.5
t-30.5 -84t-9 -91.5q0 -47 8 -94t29 -84.5t57 -61.5t92 -24t92.5 23.5t58 61.5t30 85t8.5 94zM379 776l-166 145h164l100 -145h-98z" />
    <glyph glyph-name="Oacute" unicode="&#xd3;" horiz-adv-x="779" 
d="M735 362q0 -81 -22 -150t-65.5 -119.5t-108.5 -79t-151 -28.5q-87 0 -151.5 28t-107.5 77.5t-64 118.5t-21 151t21.5 152t65 121t108.5 79.5t152 28.5t152 -28.5t107.5 -79t63.5 -120t21 -151.5zM577 365q0 46 -9 92.5t-31 84t-58 61t-91 23.5q-54 0 -89.5 -24t-57 -61.5
t-30.5 -84t-9 -91.5q0 -47 8 -94t29 -84.5t57 -61.5t92 -24t92.5 23.5t58 61.5t30 85t8.5 94zM403 776h-101l104 145h161z" />
    <glyph glyph-name="Ocircumflex" unicode="&#xd4;" horiz-adv-x="779" 
d="M735 362q0 -81 -22 -150t-65.5 -119.5t-108.5 -79t-151 -28.5q-87 0 -151.5 28t-107.5 77.5t-64 118.5t-21 151t21.5 152t65 121t108.5 79.5t152 28.5t152 -28.5t107.5 -79t63.5 -120t21 -151.5zM577 365q0 46 -9 92.5t-31 84t-58 61t-91 23.5q-54 0 -89.5 -24t-57 -61.5
t-30.5 -84t-9 -91.5q0 -47 8 -94t29 -84.5t57 -61.5t92 -24t92.5 23.5t58 61.5t30 85t8.5 94zM469 776l-79 87l-80 -87h-101l113 146h136l112 -146h-101z" />
    <glyph glyph-name="Otilde" unicode="&#xd5;" horiz-adv-x="779" 
d="M735 362q0 -81 -22 -150t-65.5 -119.5t-108.5 -79t-151 -28.5q-87 0 -151.5 28t-107.5 77.5t-64 118.5t-21 151t21.5 152t65 121t108.5 79.5t152 28.5t152 -28.5t107.5 -79t63.5 -120t21 -151.5zM577 365q0 46 -9 92.5t-31 84t-58 61t-91 23.5q-54 0 -89.5 -24t-57 -61.5
t-30.5 -84t-9 -91.5q0 -47 8 -94t29 -84.5t57 -61.5t92 -24t92.5 23.5t58 61.5t30 85t8.5 94zM582 912q-3 -23 -12.5 -45.5t-25 -39.5t-36.5 -27.5t-46 -10.5q-20 0 -39 5t-37.5 11.5t-37.5 11.5t-38 5q-38 0 -48 -36h-64q2 25 12 47.5t26.5 39t39 26.5t48.5 10
q20 0 39.5 -5.5t38.5 -12t38 -12t37 -5.5q17 0 26 11t12 27h67v0z" />
    <glyph glyph-name="Odieresis" unicode="&#xd6;" horiz-adv-x="779" 
d="M735 362q0 -81 -22 -150t-65.5 -119.5t-108.5 -79t-151 -28.5q-87 0 -151.5 28t-107.5 77.5t-64 118.5t-21 151t21.5 152t65 121t108.5 79.5t152 28.5t152 -28.5t107.5 -79t63.5 -120t21 -151.5zM577 365q0 46 -9 92.5t-31 84t-58 61t-91 23.5q-54 0 -89.5 -24t-57 -61.5
t-30.5 -84t-9 -91.5q0 -47 8 -94t29 -84.5t57 -61.5t92 -24t92.5 23.5t58 61.5t30 85t8.5 94zM441 785v117h133v-117h-133zM205 785v117h132v-117h-132z" />
    <glyph glyph-name="multiply" unicode="&#xd7;" horiz-adv-x="666" 
d="M508 7l-175 175l-174 -175l-79 78l175 175l-175 175l79 79l174 -175l174 174l79 -78l-174 -175l174 -175z" />
    <glyph glyph-name="Oslash" unicode="&#xd8;" horiz-adv-x="779" 
d="M674 600q33 -54 47.5 -116t14.5 -124q0 -81 -22 -149.5t-65.5 -119t-108.5 -78.5t-150 -28q-64 0 -122 16.5t-108 59.5l-97 -101l-55 56l100 104q-35 54 -49.5 115.5t-14.5 125.5q0 82 22 151.5t65.5 120.5t108.5 79.5t152 28.5q63 0 123.5 -18.5t108.5 -61.5l93 96
l55 -56zM525 558q-50 68 -135 68q-54 0 -90 -24t-57.5 -62.5t-30.5 -85.5t-9 -92q0 -32 4 -63.5t15 -61.5zM577 365q0 29 -5 57.5t-14 57.5l-301 -319q25 -30 59 -45.5t73 -15.5q56 0 92.5 24t57.5 62t29.5 85t8.5 94z" />
    <glyph glyph-name="Ugrave" unicode="&#xd9;" horiz-adv-x="795" 
d="M715 301q0 -158 -80.5 -237.5t-239.5 -79.5q-40 0 -80 6t-76.5 20t-67.5 38.5t-52 61.5q-27 48 -33 94.5t-6 100.5v418h161v-426q0 -42 6.5 -78t24 -62.5t48.5 -42t79 -15.5t79 16t49 43.5t25 64.5t7 78v422h156v-422v0zM389 776l-166 145h164l100 -145h-98z" />
    <glyph glyph-name="Uacute" unicode="&#xda;" horiz-adv-x="795" 
d="M715 301q0 -158 -80.5 -237.5t-239.5 -79.5q-40 0 -80 6t-76.5 20t-67.5 38.5t-52 61.5q-27 48 -33 94.5t-6 100.5v418h161v-426q0 -42 6.5 -78t24 -62.5t48.5 -42t79 -15.5t79 16t49 43.5t25 64.5t7 78v422h156v-422v0zM413 776h-101l104 145h161z" />
    <glyph glyph-name="Ucircumflex" unicode="&#xdb;" horiz-adv-x="795" 
d="M715 301q0 -158 -80.5 -237.5t-239.5 -79.5q-40 0 -80 6t-76.5 20t-67.5 38.5t-52 61.5q-27 48 -33 94.5t-6 100.5v418h161v-426q0 -42 6.5 -78t24 -62.5t48.5 -42t79 -15.5t79 16t49 43.5t25 64.5t7 78v422h156v-422v0zM479 776l-79 87l-80 -87h-101l113 146h136
l112 -146h-101z" />
    <glyph glyph-name="Udieresis" unicode="&#xdc;" horiz-adv-x="795" 
d="M715 301q0 -158 -80.5 -237.5t-239.5 -79.5q-40 0 -80 6t-76.5 20t-67.5 38.5t-52 61.5q-27 48 -33 94.5t-6 100.5v418h161v-426q0 -42 6.5 -78t24 -62.5t48.5 -42t79 -15.5t79 16t49 43.5t25 64.5t7 78v422h156v-422v0zM451 785v117h133v-117h-133zM215 785v117h132
v-117h-132z" />
    <glyph glyph-name="Yacute" unicode="&#xdd;" horiz-adv-x="688" 
d="M423 281v-281h-157v281l-281 443h183l182 -335l184 335h169zM362 776h-101l104 145h161z" />
    <glyph glyph-name="Thorn" unicode="&#xde;" horiz-adv-x="665" 
d="M639 389q0 -65 -32.5 -117t-93.5 -78q-36 -15 -85.5 -18.5t-97.5 -3.5h-90v-172h-157v723h157v-109h77q30 0 61 -1t61 -5t57.5 -12.5t50.5 -23.5q48 -32 70 -79t22 -104zM480 397q0 34 -12.5 55t-33 32.5t-47.5 15.5t-55 4h-92v-222h81q30 0 58.5 4.5t51 17.5t36 35
t13.5 58z" />
    <glyph glyph-name="germandbls" unicode="&#xdf;" horiz-adv-x="711" 
d="M681 163q0 -45 -18 -78t-48 -54.5t-68.5 -31.5t-78.5 -10t-75.5 8t-62.5 26t-43.5 48.5t-17.5 75.5h131q0 -33 18 -53t50 -20q35 0 54.5 23.5t19.5 56.5q0 17 -6.5 30.5t-16.5 24t-23 19t-26 15.5l-45 24q-21 11 -40.5 23t-34.5 27t-24 33.5t-9 44.5q0 36 18.5 57.5
t49.5 45.5q24 19 37.5 36t13.5 34q0 21 -8.5 36.5t-22 25.5t-31.5 15t-37 5q-39 0 -62.5 -13t-37 -35.5t-18 -52t-4.5 -61.5v-488h-144v453q0 28 1 55t6.5 53.5t16.5 50.5t31 46t45 37t53 24t57 13t58 4q39 0 81 -7.5t77 -25.5t57.5 -49.5t22.5 -79.5q0 -36 -17.5 -58.5
t-48.5 -44.5q-22 -16 -36 -30t-14 -34q0 -26 20 -42t48 -31l41 -22q21 -11 40.5 -24.5t35.5 -31t25.5 -40.5t9.5 -53z" />
    <glyph glyph-name="agrave" unicode="&#xe0;" horiz-adv-x="577" 
d="M382 0q-6 17 -8.5 34t-3.5 35q-31 -45 -69 -62t-92 -17q-37 0 -69 9t-56 28t-37.5 48t-13.5 69q0 59 30 93t74.5 51.5t96 22t95.5 4.5h41v19q0 20 -2.5 39t-11 33.5t-23.5 23.5t-39 9q-42 0 -60 -22t-18 -57h-149q1 46 21 77t52.5 49t72 25.5t79.5 7.5q51 0 91.5 -7.5
t69 -28.5t44 -59.5t15.5 -100.5v-150q0 -43 1 -85.5t7 -87.5h-138zM370 244q-11 0 -19 0.5t-19 0.5q-23 0 -50.5 -3.5t-50.5 -13.5t-38.5 -28t-15.5 -48q0 -35 24.5 -55t57.5 -20q35 0 57 14t34 36.5t16 50.5t4 57v9zM274 590l-166 145h164l100 -145h-98z" />
    <glyph glyph-name="aacute" unicode="&#xe1;" horiz-adv-x="577" 
d="M382 0q-6 17 -8.5 34t-3.5 35q-31 -45 -69 -62t-92 -17q-37 0 -69 9t-56 28t-37.5 48t-13.5 69q0 59 30 93t74.5 51.5t96 22t95.5 4.5h41v19q0 20 -2.5 39t-11 33.5t-23.5 23.5t-39 9q-42 0 -60 -22t-18 -57h-149q1 46 21 77t52.5 49t72 25.5t79.5 7.5q51 0 91.5 -7.5
t69 -28.5t44 -59.5t15.5 -100.5v-150q0 -43 1 -85.5t7 -87.5h-138zM370 244q-11 0 -19 0.5t-19 0.5q-23 0 -50.5 -3.5t-50.5 -13.5t-38.5 -28t-15.5 -48q0 -35 24.5 -55t57.5 -20q35 0 57 14t34 36.5t16 50.5t4 57v9zM308 590h-101l104 145h161z" />
    <glyph glyph-name="acircumflex" unicode="&#xe2;" horiz-adv-x="577" 
d="M382 0q-6 17 -8.5 34t-3.5 35q-31 -45 -69 -62t-92 -17q-37 0 -69 9t-56 28t-37.5 48t-13.5 69q0 59 30 93t74.5 51.5t96 22t95.5 4.5h41v19q0 20 -2.5 39t-11 33.5t-23.5 23.5t-39 9q-42 0 -60 -22t-18 -57h-149q1 46 21 77t52.5 49t72 25.5t79.5 7.5q51 0 91.5 -7.5
t69 -28.5t44 -59.5t15.5 -100.5v-150q0 -43 1 -85.5t7 -87.5h-138zM370 244q-11 0 -19 0.5t-19 0.5q-23 0 -50.5 -3.5t-50.5 -13.5t-38.5 -28t-15.5 -48q0 -35 24.5 -55t57.5 -20q35 0 57 14t34 36.5t16 50.5t4 57v9zM375 590l-79 87l-80 -87h-101l113 146h136l112 -146
h-101z" />
    <glyph glyph-name="atilde" unicode="&#xe3;" horiz-adv-x="577" 
d="M382 0q-6 17 -8.5 34t-3.5 35q-31 -45 -69 -62t-92 -17q-37 0 -69 9t-56 28t-37.5 48t-13.5 69q0 59 30 93t74.5 51.5t96 22t95.5 4.5h41v19q0 20 -2.5 39t-11 33.5t-23.5 23.5t-39 9q-42 0 -60 -22t-18 -57h-149q1 46 21 77t52.5 49t72 25.5t79.5 7.5q51 0 91.5 -7.5
t69 -28.5t44 -59.5t15.5 -100.5v-150q0 -43 1 -85.5t7 -87.5h-138zM370 244q-11 0 -19 0.5t-19 0.5q-23 0 -50.5 -3.5t-50.5 -13.5t-38.5 -28t-15.5 -48q0 -35 24.5 -55t57.5 -20q35 0 57 14t34 36.5t16 50.5t4 57v9zM485 726q-3 -23 -12.5 -45.5t-25 -39.5t-36.5 -27.5
t-46 -10.5q-20 0 -39 5t-37.5 11.5t-37.5 11.5t-38 5q-38 0 -48 -36h-64q2 25 12 47.5t26.5 39t39 26.5t48.5 10q20 0 39.5 -5.5t38.5 -12t38 -12t37 -5.5q17 0 26 11t12 27h67v0z" />
    <glyph glyph-name="adieresis" unicode="&#xe4;" horiz-adv-x="577" 
d="M382 0q-6 17 -8.5 34t-3.5 35q-31 -45 -69 -62t-92 -17q-37 0 -69 9t-56 28t-37.5 48t-13.5 69q0 59 30 93t74.5 51.5t96 22t95.5 4.5h41v19q0 20 -2.5 39t-11 33.5t-23.5 23.5t-39 9q-42 0 -60 -22t-18 -57h-149q1 46 21 77t52.5 49t72 25.5t79.5 7.5q51 0 91.5 -7.5
t69 -28.5t44 -59.5t15.5 -100.5v-150q0 -43 1 -85.5t7 -87.5h-138zM370 244q-11 0 -19 0.5t-19 0.5q-23 0 -50.5 -3.5t-50.5 -13.5t-38.5 -28t-15.5 -48q0 -35 24.5 -55t57.5 -20q35 0 57 14t34 36.5t16 50.5t4 57v9zM347 609v117h133v-117h-133zM111 609v117h132v-117h-132
z" />
    <glyph glyph-name="aring" unicode="&#xe5;" horiz-adv-x="577" 
d="M382 0q-6 17 -8.5 34t-3.5 35q-31 -45 -69 -62t-92 -17q-37 0 -69 9t-56 28t-37.5 48t-13.5 69q0 59 30 93t74.5 51.5t96 22t95.5 4.5h41v19q0 20 -2.5 39t-11 33.5t-23.5 23.5t-39 9q-42 0 -60 -22t-18 -57h-149q1 46 21 77t52.5 49t72 25.5t79.5 7.5q51 0 91.5 -7.5
t69 -28.5t44 -59.5t15.5 -100.5v-150q0 -43 1 -85.5t7 -87.5h-138zM370 244q-11 0 -19 0.5t-19 0.5q-23 0 -50.5 -3.5t-50.5 -13.5t-38.5 -28t-15.5 -48q0 -35 24.5 -55t57.5 -20q35 0 57 14t34 36.5t16 50.5t4 57v9zM190 676q0 22 8 40.5t22.5 32.5t33.5 22t40 8t40 -8
t33.5 -22t22.5 -32.5t8 -40.5t-8 -40.5t-22.5 -32.5t-33.5 -22t-40 -8t-40 8t-33.5 22t-22.5 32.5t-8 40.5zM242 676q0 -23 14.5 -39.5t37.5 -16.5t37.5 16.5t14.5 39.5t-14.5 39.5t-37.5 16.5t-37.5 -16.5t-14.5 -39.5z" />
    <glyph glyph-name="ae" unicode="&#xe6;" horiz-adv-x="902" 
d="M511 228q0 -28 4.5 -56t16.5 -50.5t33.5 -37t54.5 -14.5q46 0 70.5 24.5t29.5 69.5h138q-5 -47 -25 -80t-50 -54t-68.5 -31t-81.5 -10q-65 0 -116.5 22.5t-80.5 84.5q-34 -61 -84.5 -83.5t-117.5 -22.5q-35 0 -71 8.5t-65 27.5t-47 48t-18 70q0 31 10 55t27 41.5t40 29
t50 19.5t55 11t57 5t55 2h49q0 25 -2 48.5t-11 42t-26.5 29.5t-48.5 11q-37 0 -60.5 -20t-23.5 -53h-138q0 43 21 72.5t53 47t70 25t72 7.5q60 0 101 -16t74 -64q33 45 78.5 64t100.5 19q68 0 112.5 -23.5t70.5 -63.5t36 -93t10 -112h-354zM726 306q-1 26 -6 50t-16.5 42
t-31.5 29t-50 11t-50 -11t-33 -29t-19.5 -42t-7.5 -50h214zM376 202q0 7 0.5 14t-0.5 15h-52q-23 0 -48.5 -3t-47 -12t-36 -26t-14.5 -46q0 -37 25 -57t60 -20q30 0 51.5 11t35 29.5t20 43t6.5 51.5z" />
    <glyph glyph-name="ccedilla" unicode="&#xe7;" horiz-adv-x="565" 
d="M409 -127q0 -25 -12 -40.5t-31 -24.5t-41 -12t-41 -3q-57 0 -109 21l11 40q22 -11 45 -17.5t47 -6.5q20 0 36.5 8t16.5 31q0 21 -14 29.5t-34 8.5q-9 0 -17 -2l-16 -4l-20 13l37 75q-109 8 -169.5 75.5t-60.5 183.5q0 62 18 112t52.5 85.5t84 54.5t112.5 19
q47 0 87.5 -10.5t71.5 -33t50.5 -58.5t24.5 -86h-145q-2 44 -23 72.5t-67 28.5q-36 0 -58.5 -16.5t-35 -42.5t-16.5 -57.5t-4 -60.5q0 -28 4 -59.5t16 -58t33.5 -44t57.5 -17.5q51 0 71 31t22 79h149v-5q0 -50 -20 -85.5t-53 -59t-75 -35.5t-85 -13l-21 -47q9 2 18 3t20 1
q32 0 57.5 -17.5t25.5 -54.5z" />
    <glyph glyph-name="egrave" unicode="&#xe8;" horiz-adv-x="580" 
d="M179 224q0 -29 6 -55.5t20 -47t36 -33t54 -12.5q89 0 101 88h142q-7 -49 -29.5 -82.5t-55.5 -54t-74.5 -29.5t-85.5 -9q-123 0 -189.5 66t-66.5 189q0 126 65.5 200t195.5 74q37 0 71 -7.5t63 -24t51.5 -42t37.5 -60.5q16 -37 19 -76t3 -84h-364zM402 308q0 57 -26 90.5
t-79 33.5q-54 0 -84.5 -35t-30.5 -89h220zM285 590l-166 145h164l100 -145h-98z" />
    <glyph glyph-name="eacute" unicode="&#xe9;" horiz-adv-x="580" 
d="M179 224q0 -29 6 -55.5t20 -47t36 -33t54 -12.5q89 0 101 88h142q-7 -49 -29.5 -82.5t-55.5 -54t-74.5 -29.5t-85.5 -9q-123 0 -189.5 66t-66.5 189q0 126 65.5 200t195.5 74q37 0 71 -7.5t63 -24t51.5 -42t37.5 -60.5q16 -37 19 -76t3 -84h-364zM402 308q0 57 -26 90.5
t-79 33.5q-54 0 -84.5 -35t-30.5 -89h220zM309 590h-101l104 145h161z" />
    <glyph glyph-name="ecircumflex" unicode="&#xea;" horiz-adv-x="580" 
d="M179 224q0 -29 6 -55.5t20 -47t36 -33t54 -12.5q89 0 101 88h142q-7 -49 -29.5 -82.5t-55.5 -54t-74.5 -29.5t-85.5 -9q-123 0 -189.5 66t-66.5 189q0 126 65.5 200t195.5 74q37 0 71 -7.5t63 -24t51.5 -42t37.5 -60.5q16 -37 19 -76t3 -84h-364zM402 308q0 57 -26 90.5
t-79 33.5q-54 0 -84.5 -35t-30.5 -89h220zM376 590l-79 87l-80 -87h-101l113 146h136l112 -146h-101z" />
    <glyph glyph-name="edieresis" unicode="&#xeb;" horiz-adv-x="580" 
d="M179 224q0 -29 6 -55.5t20 -47t36 -33t54 -12.5q89 0 101 88h142q-7 -49 -29.5 -82.5t-55.5 -54t-74.5 -29.5t-85.5 -9q-123 0 -189.5 66t-66.5 189q0 126 65.5 200t195.5 74q37 0 71 -7.5t63 -24t51.5 -42t37.5 -60.5q16 -37 19 -76t3 -84h-364zM402 308q0 57 -26 90.5
t-79 33.5q-54 0 -84.5 -35t-30.5 -89h220zM348 609v117h133v-117h-133zM112 609v117h132v-117h-132z" />
    <glyph glyph-name="igrave" unicode="&#xec;" horiz-adv-x="288" 
d="M71 0v504h146v-504h-146zM134 590l-166 145h164l100 -145h-98z" />
    <glyph glyph-name="iacute" unicode="&#xed;" horiz-adv-x="288" 
d="M71 0v504h146v-504h-146zM158 590h-101l104 145h161z" />
    <glyph glyph-name="icircumflex" unicode="&#xee;" horiz-adv-x="288" 
d="M71 0v504h146v-504h-146zM225 590l-79 87l-80 -87h-101l113 146h136l112 -146h-101z" />
    <glyph glyph-name="idieresis" unicode="&#xef;" horiz-adv-x="288" 
d="M71 0v504h146v-504h-146zM197 609v117h133v-117h-133zM-39 609v117h132v-117h-132z" />
    <glyph glyph-name="eth" unicode="&#xf0;" horiz-adv-x="619" 
d="M582 306q0 -68 -15 -126t-48 -100.5t-85 -66.5t-126 -24q-60 0 -110 17t-85.5 50t-55.5 81t-20 110q0 53 17 98t48.5 77.5t76 50.5t98.5 18q45 0 80.5 -15.5t64.5 -50.5q-23 66 -62.5 106.5t-100.5 72.5l-74 -55l-47 28l67 50q-22 8 -43.5 15t-44.5 13l54 99
q36 -8 70.5 -19t68.5 -25l66 47l45 -28l-59 -42q111 -60 165.5 -158t54.5 -223zM432 253q0 30 -6.5 58.5t-20.5 51t-38 36t-58 13.5q-36 0 -59.5 -14.5t-38 -38.5t-20.5 -54t-6 -60t5.5 -60.5t20 -55.5t38 -40.5t59.5 -15.5q37 0 61.5 16.5t38 42.5t19 58t5.5 63z" />
    <glyph glyph-name="ntilde" unicode="&#xf1;" horiz-adv-x="632" 
d="M418 0v267q0 26 -2 52.5t-11.5 47.5t-28.5 34t-53 13q-35 0 -55.5 -17t-32 -41.5t-15 -52.5t-3.5 -49v-254h-146v405q0 24 -1 48.5t-3 50.5h145l2 -77q34 44 72 64.5t94 20.5q93 0 138.5 -47.5t45.5 -138.5v-326h-146zM510 726q-3 -23 -12.5 -45.5t-25 -39.5t-36.5 -27.5
t-46 -10.5q-20 0 -39 5t-37.5 11.5t-37.5 11.5t-38 5q-38 0 -48 -36h-64q2 25 12 47.5t26.5 39t39 26.5t48.5 10q20 0 39.5 -5.5t38.5 -12t38 -12t37 -5.5q17 0 26 11t12 27h67v0z" />
    <glyph glyph-name="ograve" unicode="&#xf2;" horiz-adv-x="622" 
d="M585 254q0 -63 -19.5 -112.5t-55.5 -83.5t-87 -52t-113 -18q-63 0 -113.5 17.5t-86 51.5t-54.5 83.5t-19 113.5q0 63 20 112t57 83t87.5 51.5t112.5 17.5t112 -17.5t85.5 -51.5t54.5 -83t19 -112zM433 253q0 30 -5.5 61.5t-19.5 57t-38 42t-60 16.5q-37 0 -60.5 -16.5
t-37 -42t-18.5 -57t-5 -61.5t5 -61.5t18.5 -57.5t37 -42.5t60.5 -16.5q36 0 60 16.5t38 42.5t19.5 57.5t5.5 61.5zM300 590l-166 145h164l100 -145h-98z" />
    <glyph glyph-name="oacute" unicode="&#xf3;" horiz-adv-x="622" 
d="M585 254q0 -63 -19.5 -112.5t-55.5 -83.5t-87 -52t-113 -18q-63 0 -113.5 17.5t-86 51.5t-54.5 83.5t-19 113.5q0 63 20 112t57 83t87.5 51.5t112.5 17.5t112 -17.5t85.5 -51.5t54.5 -83t19 -112zM433 253q0 30 -5.5 61.5t-19.5 57t-38 42t-60 16.5q-37 0 -60.5 -16.5
t-37 -42t-18.5 -57t-5 -61.5t5 -61.5t18.5 -57.5t37 -42.5t60.5 -16.5q36 0 60 16.5t38 42.5t19.5 57.5t5.5 61.5zM324 590h-101l104 145h161z" />
    <glyph glyph-name="ocircumflex" unicode="&#xf4;" horiz-adv-x="622" 
d="M585 254q0 -63 -19.5 -112.5t-55.5 -83.5t-87 -52t-113 -18q-63 0 -113.5 17.5t-86 51.5t-54.5 83.5t-19 113.5q0 63 20 112t57 83t87.5 51.5t112.5 17.5t112 -17.5t85.5 -51.5t54.5 -83t19 -112zM433 253q0 30 -5.5 61.5t-19.5 57t-38 42t-60 16.5q-37 0 -60.5 -16.5
t-37 -42t-18.5 -57t-5 -61.5t5 -61.5t18.5 -57.5t37 -42.5t60.5 -16.5q36 0 60 16.5t38 42.5t19.5 57.5t5.5 61.5zM391 590l-79 87l-80 -87h-101l113 146h136l112 -146h-101z" />
    <glyph glyph-name="otilde" unicode="&#xf5;" horiz-adv-x="622" 
d="M585 254q0 -63 -19.5 -112.5t-55.5 -83.5t-87 -52t-113 -18q-63 0 -113.5 17.5t-86 51.5t-54.5 83.5t-19 113.5q0 63 20 112t57 83t87.5 51.5t112.5 17.5t112 -17.5t85.5 -51.5t54.5 -83t19 -112zM433 253q0 30 -5.5 61.5t-19.5 57t-38 42t-60 16.5q-37 0 -60.5 -16.5
t-37 -42t-18.5 -57t-5 -61.5t5 -61.5t18.5 -57.5t37 -42.5t60.5 -16.5q36 0 60 16.5t38 42.5t19.5 57.5t5.5 61.5zM501 726q-3 -23 -12.5 -45.5t-25 -39.5t-36.5 -27.5t-46 -10.5q-20 0 -39 5t-37.5 11.5t-37.5 11.5t-38 5q-38 0 -48 -36h-64q2 25 12 47.5t26.5 39t39 26.5
t48.5 10q20 0 39.5 -5.5t38.5 -12t38 -12t37 -5.5q17 0 26 11t12 27h67v0z" />
    <glyph glyph-name="odieresis" unicode="&#xf6;" horiz-adv-x="622" 
d="M585 254q0 -63 -19.5 -112.5t-55.5 -83.5t-87 -52t-113 -18q-63 0 -113.5 17.5t-86 51.5t-54.5 83.5t-19 113.5q0 63 20 112t57 83t87.5 51.5t112.5 17.5t112 -17.5t85.5 -51.5t54.5 -83t19 -112zM433 253q0 30 -5.5 61.5t-19.5 57t-38 42t-60 16.5q-37 0 -60.5 -16.5
t-37 -42t-18.5 -57t-5 -61.5t5 -61.5t18.5 -57.5t37 -42.5t60.5 -16.5q36 0 60 16.5t38 42.5t19.5 57.5t5.5 61.5zM363 609v117h133v-117h-133zM127 609v117h132v-117h-132z" />
    <glyph glyph-name="divide" unicode="&#xf7;" horiz-adv-x="665" 
d="M268 379v135h130v-135h-130zM70 205v111h525v-111h-525zM268 6v134h130v-134h-130z" />
    <glyph glyph-name="oslash" unicode="&#xf8;" horiz-adv-x="622" 
d="M585 254q0 -63 -19.5 -112.5t-55.5 -83.5t-87 -52t-113 -18q-88 0 -149 33l-73 -88l-44 38l69 84q-37 34 -56.5 84t-19.5 115q0 63 20 112t57 83t87.5 51.5t112.5 17.5q90 0 153 -36l65 79l47 -38l-64 -77q34 -34 52 -82t18 -110zM393 393q-14 17 -34 27t-49 10
q-37 0 -60.5 -16.5t-37 -42t-18.5 -57t-5 -61.5q0 -23 2.5 -46.5t10.5 -45.5zM433 253q0 20 -2.5 41t-7.5 41l-191 -229q14 -14 33 -22.5t45 -8.5q36 0 60 16.5t38 42.5t19.5 57.5t5.5 61.5z" />
    <glyph glyph-name="ugrave" unicode="&#xf9;" horiz-adv-x="633" 
d="M419 0l-2 77q-34 -44 -71.5 -64.5t-93.5 -20.5q-94 0 -139 47.5t-45 138.5v326h146v-268q0 -26 2 -52.5t11 -47.5t28 -34t53 -13t55 14t33 36t16 49.5t4 54.5v261h146v-318q0 -47 0.5 -92.5t2.5 -93.5h-146zM306 590l-166 145h164l100 -145h-98z" />
    <glyph glyph-name="uacute" unicode="&#xfa;" horiz-adv-x="633" 
d="M419 0l-2 77q-34 -44 -71.5 -64.5t-93.5 -20.5q-94 0 -139 47.5t-45 138.5v326h146v-268q0 -26 2 -52.5t11 -47.5t28 -34t53 -13t55 14t33 36t16 49.5t4 54.5v261h146v-318q0 -47 0.5 -92.5t2.5 -93.5h-146zM330 590h-101l104 145h161z" />
    <glyph glyph-name="ucircumflex" unicode="&#xfb;" horiz-adv-x="633" 
d="M419 0l-2 77q-34 -44 -71.5 -64.5t-93.5 -20.5q-94 0 -139 47.5t-45 138.5v326h146v-268q0 -26 2 -52.5t11 -47.5t28 -34t53 -13t55 14t33 36t16 49.5t4 54.5v261h146v-318q0 -47 0.5 -92.5t2.5 -93.5h-146zM397 590l-79 87l-80 -87h-101l113 146h136l112 -146h-101z" />
    <glyph glyph-name="udieresis" unicode="&#xfc;" horiz-adv-x="633" 
d="M419 0l-2 77q-34 -44 -71.5 -64.5t-93.5 -20.5q-94 0 -139 47.5t-45 138.5v326h146v-268q0 -26 2 -52.5t11 -47.5t28 -34t53 -13t55 14t33 36t16 49.5t4 54.5v261h146v-318q0 -47 0.5 -92.5t2.5 -93.5h-146zM369 609v117h133v-117h-133zM133 609v117h132v-117h-132z" />
    <glyph glyph-name="yacute" unicode="&#xfd;" horiz-adv-x="575" 
d="M288 -190h-139l80 187l-228 507h164l135 -377l130 377h144zM310 590h-101l104 145h161z" />
    <glyph glyph-name="thorn" unicode="&#xfe;" horiz-adv-x="635" 
d="M598 261q0 -53 -13.5 -101.5t-41 -86.5t-70.5 -60.5t-101 -22.5q-52 0 -87 18t-68 58v-256h-146v913h146v-291q32 44 70.5 64t92.5 20q56 0 97 -21t68 -56t40 -81t13 -97zM448 259q0 28 -5 57.5t-18 54t-35 40.5t-56 16q-36 0 -59 -16t-36.5 -41.5t-18.5 -56t-5 -60.5
q0 -27 4.5 -57.5t17 -55.5t34 -41.5t55.5 -16.5q36 0 60 16.5t37.5 42t19 57t5.5 61.5z" />
    <glyph glyph-name="ydieresis" unicode="&#xff;" horiz-adv-x="575" 
d="M288 -190h-139l80 187l-228 507h164l135 -377l130 377h144zM349 609v117h133v-117h-133zM113 609v117h132v-117h-132z" />
    <glyph glyph-name=".null" horiz-adv-x="567" 
 />
    <glyph glyph-name="grave.cap" horiz-adv-x="319" 
d="M149 776l-166 145h164l100 -145h-98z" />
    <glyph glyph-name="acute.cap" horiz-adv-x="319" 
d="M173 776h-101l104 145h161z" />
    <glyph glyph-name="circumflex.cap" horiz-adv-x="319" 
d="M239 776l-79 87l-80 -87h-101l113 146h136l112 -146h-101z" />
    <glyph glyph-name="caron.cap" horiz-adv-x="319" 
d="M227 776h-136l-112 145h98l83 -89l80 89h100z" />
    <glyph glyph-name="caron.alt" horiz-adv-x="284" 
d="M247 723l-63 -198h-99l32 198h130z" />
    <glyph glyph-name="tilde.cap" horiz-adv-x="320" 
d="M352 912q-3 -23 -12.5 -45.5t-25 -39.5t-36.5 -27.5t-46 -10.5q-20 0 -39 5t-37.5 11.5t-37.5 11.5t-38 5q-38 0 -48 -36h-64q2 25 12 47.5t26.5 39t39 26.5t48.5 10q20 0 39.5 -5.5t38.5 -12t38 -12t37 -5.5q17 0 26 11t12 27h67v0z" />
    <glyph glyph-name="dieresis.cap" horiz-adv-x="319" 
d="M211 785v117h133v-117h-133zM-25 785v117h132v-117h-132z" />
    <glyph glyph-name="macron.cap" horiz-adv-x="308" 
d="M-13 805v69h334v-69h-334z" />
    <glyph glyph-name="breve.cap" horiz-adv-x="320" 
d="M329 909q-8 -73 -53.5 -104t-115.5 -31q-35 0 -65 8t-52.5 24.5t-36 42t-14.5 60.5h59q3 -20 14.5 -32t27.5 -19.5t33.5 -10t34.5 -2.5q38 0 67.5 12.5t43.5 51.5h57v0z" />
    <glyph glyph-name="ring.cap" horiz-adv-x="318" 
d="M55 852q0 22 8 40.5t22.5 32.5t33.5 22t40 8t40 -8t33.5 -22t22.5 -32.5t8 -40.5t-8 -40.5t-22.5 -32.5t-33.5 -22t-40 -8t-40 8t-33.5 22t-22.5 32.5t-8 40.5zM107 852q0 -23 14.5 -39.5t37.5 -16.5t37.5 16.5t14.5 39.5t-14.5 39.5t-37.5 16.5t-37.5 -16.5t-14.5 -39.5
z" />
    <glyph glyph-name="hungarumlaut.cap" horiz-adv-x="319" 
d="M299 777h-103l106 144h161zM63 777h-102l105 144h161z" />
    <glyph glyph-name="dotaccent.cap" horiz-adv-x="320" 
d="M94 785v117h132v-117h-132z" />
    <glyph glyph-name="commaaccent" horiz-adv-x="284" 
d="M210 -47l-77 -166h-97l48 166h126z" />
    <glyph glyph-name="commaaccent.alt" horiz-adv-x="631" 
d="M243 590l77 145h95l-50 -145h-122z" />
    <glyph glyph-name="exclam.sc" horiz-adv-x="295" 
d="M203 171h-111l-23 375h157zM80 0v123h134v-123h-134z" />
    <glyph glyph-name="dollar.sc" horiz-adv-x="524" 
d="M236 -82v73q-97 4 -147.5 43.5t-51.5 127.5h134q0 -35 13.5 -57.5t51.5 -29.5v145l-7 2q-35 8 -68 18.5t-58.5 27.5t-40.5 43t-15 66q0 69 49 109.5t140 45.5v74h58v-74q91 -5 133 -43t44 -114h-132q0 29 -9.5 47t-35.5 25v-138l11 -2q34 -8 67 -18t58.5 -26.5t41 -42.5
t15.5 -68q0 -73 -50.5 -113.5t-142.5 -47.5v-73h-58zM354 144q0 26 -15 40t-45 22v-131q32 5 46 23t14 46zM179 387q0 -26 16 -41.5t41 -22.5v126q-30 -5 -43.5 -20.5t-13.5 -41.5z" />
    <glyph glyph-name="percent.sc" horiz-adv-x="745" 
d="M247 -20h-83l332 589h81zM158 314q23 0 36.5 21.5t13.5 69.5t-13.5 69.5t-36.5 21.5t-36.5 -21.5t-13.5 -69.5t13.5 -69.5t36.5 -21.5zM294 405q0 -32 -8.5 -60t-25.5 -49t-42.5 -33t-59.5 -12q-36 0 -61.5 12t-42 33t-24.5 49t-8 60t8 60t24.5 49t42 33t61.5 12
t61.5 -12t42 -33t24.5 -49t8 -60zM587 57q23 0 36.5 21.5t13.5 69.5t-13.5 69.5t-36.5 21.5t-36.5 -21.5t-13.5 -69.5t13.5 -69.5t36.5 -21.5zM723 148q0 -32 -8.5 -60t-25.5 -49t-42.5 -33t-59.5 -12q-36 0 -61.5 12t-42 33t-24.5 49t-8 60t8 60t24.5 49t42 33t61.5 12
t61.5 -12t42 -33t24.5 -49t8 -60z" />
    <glyph glyph-name="ampersand.sc" horiz-adv-x="668" 
d="M534 246v-246h-252q-41 0 -83 6.5t-76 24.5t-55.5 49t-21.5 80q0 55 34.5 88.5t85.5 47.5q-44 14 -69 43t-25 76q0 39 18 66t47 44t64.5 25t70.5 8q55 0 117 -9v-90q-46 8 -78 8q-16 0 -33.5 -2.5t-32.5 -9t-24.5 -19t-9.5 -33.5t10.5 -34.5t27 -21t35 -10t35.5 -2.5h81
v101h134v-101h110v-89h-110zM400 246h-82q-27 0 -50 -3t-40 -11.5t-27 -23.5t-10 -39q0 -27 13 -42.5t34 -23.5t47.5 -10.5t52.5 -2.5h62v156z" />
    <glyph glyph-name="zero.sc" horiz-adv-x="530" 
d="M494 274q0 -53 -11 -104t-37 -91.5t-70 -65.5t-110 -25q-65 0 -109 25t-71 65.5t-38.5 91.5t-11.5 104t11.5 104t38.5 91t71 64.5t109 24.5q66 0 110 -24.5t70 -65t37 -91.5t11 -103zM354 274q0 102 -20 148t-66 46q-49 0 -70 -45t-21 -149q0 -105 21 -150.5t70 -45.5
q46 0 66 46.5t20 149.5z" />
    <glyph glyph-name="one.sc" horiz-adv-x="530" 
d="M229 0v416q-26 -19 -60.5 -35t-69.5 -28v104q25 8 45 16.5t37.5 19t34 23.5t36.5 30h116v-546h-139z" />
    <glyph glyph-name="two.sc" horiz-adv-x="530" 
d="M44 0v94l126 94q51 38 83 67t50.5 54t25 46.5t6.5 44.5q0 32 -17.5 50.5t-50.5 18.5q-34 0 -52.5 -22.5t-19.5 -59.5h-141q1 46 19.5 79t49 53t69.5 29.5t81 9.5q41 0 78 -9.5t65 -28.5t44.5 -48t16.5 -69q0 -38 -13 -70.5t-39 -64t-64.5 -64t-90.5 -70.5l-57 -42h267
v-92h-436z" />
    <glyph glyph-name="three.sc" horiz-adv-x="530" 
d="M494 150q0 -46 -21.5 -77t-55 -50t-74.5 -27t-81 -8q-44 0 -84 8.5t-71 28t-50.5 52t-22.5 81.5h141q1 -42 26 -62t60 -20q41 0 67 21.5t26 61.5q0 24 -10.5 39.5t-26.5 24.5t-36 12.5t-39 3.5q-11 0 -26 -0.5t-24 -2.5v87q9 -1 21.5 -1.5t20.5 -0.5q22 0 42 3.5t35 12.5
t24 24t9 37q0 35 -21.5 54t-58.5 19q-12 0 -25.5 -4t-24.5 -12.5t-18.5 -23t-7.5 -35.5h-143q0 43 21 74t53.5 50.5t72 28.5t75.5 9t74 -8t69.5 -25.5t51.5 -46t20 -70.5q0 -47 -28.5 -79t-76.5 -45q52 -13 84.5 -45t32.5 -89z" />
    <glyph glyph-name="four.sc" horiz-adv-x="530" 
d="M424 116v-116h-132v116h-263v102l240 328h155v-344h88v-86h-88zM130 201h166v232z" />
    <glyph glyph-name="five.sc" horiz-adv-x="530" 
d="M491 189q0 -49 -16.5 -86.5t-46 -63t-70.5 -38.5t-90 -13q-42 0 -80.5 7.5t-68 26t-47.5 49.5t-18 78h139q2 -36 22 -54t52 -18q39 0 61 27t22 81q0 39 -19 69t-59 30q-26 0 -46.5 -15.5t-25.5 -44.5h-138l13 322h385v-90h-259l-6 -127q22 21 50.5 31.5t61.5 10.5
q43 0 77 -14t58 -39t36.5 -58t12.5 -71z" />
    <glyph glyph-name="six.sc" horiz-adv-x="530" 
d="M494 184q0 -44 -17 -80.5t-46.5 -62t-69.5 -39.5t-85 -14q-50 0 -87.5 13t-65 36t-45 54.5t-26.5 68.5q-12 49 -12 107q0 55 12 107.5t40 93.5t74 65.5t114 24.5q40 0 75.5 -9t62.5 -27.5t42.5 -48t15.5 -70.5h-136q0 37 -17.5 54.5t-46.5 17.5q-28 0 -46.5 -15
t-30 -38.5t-17 -51.5t-7.5 -54q24 26 56.5 37.5t74.5 11.5q40 0 74 -12.5t59.5 -36t40 -57t14.5 -75.5zM363 180q0 42 -20.5 72t-64.5 30q-25 0 -42.5 -8.5t-28.5 -23t-16 -33t-5 -39.5q0 -43 23.5 -72.5t66.5 -29.5q44 0 65.5 30.5t21.5 73.5z" />
    <glyph glyph-name="seven.sc" horiz-adv-x="530" 
d="M263 0h-158l230 452h-289v94h429v-93z" />
    <glyph glyph-name="eight.sc" horiz-adv-x="530" 
d="M494 153q0 -46 -19.5 -77.5t-51.5 -51t-72 -28t-80 -8.5t-81.5 7.5t-75.5 26t-56 49.5t-22 77q0 57 35 90t86 47q-15 4 -33.5 12.5t-34 23t-26 36t-10.5 50.5q0 42 19.5 71t50 46.5t68.5 25.5t76 8q36 0 74 -7.5t68.5 -24.5t50.5 -45.5t20 -70.5q0 -48 -29.5 -79
t-74.5 -45q16 -4 36.5 -13t38.5 -24.5t30.5 -39t12.5 -56.5zM348 399q0 37 -23.5 57.5t-57.5 20.5t-59 -19.5t-25 -57.5t24 -55.5t59 -17.5q33 0 57.5 18t24.5 54zM361 159q0 22 -8 38t-21.5 26.5t-31 15.5t-36.5 5q-38 0 -66 -21t-28 -63t28 -64.5t66 -22.5q19 0 36.5 5.5
t31 16.5t21.5 27t8 37z" />
    <glyph glyph-name="nine.sc" horiz-adv-x="530" 
d="M490 283q0 -58 -10.5 -111.5t-37.5 -94t-73.5 -65t-118.5 -24.5q-98 0 -155.5 40t-57.5 113h139q0 -62 74 -62q33 0 52.5 15t31 38.5t15.5 52t5 55.5q-22 -23 -51 -33t-74 -10q-42 0 -77 12.5t-61 35t-40.5 55t-14.5 72.5q0 43 16.5 77.5t45.5 58.5t70 37t89 13
q43 0 76.5 -9t59 -25.5t43.5 -40t29 -51.5q14 -32 19.5 -70t5.5 -79zM346 376q0 42 -23 68.5t-64 26.5q-45 0 -68 -26t-23 -69q0 -41 22.5 -68.5t64.5 -27.5t66.5 26t24.5 70z" />
    <glyph glyph-name="question.sc" horiz-adv-x="456" 
d="M408 418q0 -22 -7.5 -41.5t-22.5 -38.5t-37.5 -39t-53.5 -44q-10 -8 -17 -14t-11.5 -13t-6.5 -16t-2 -23v-18h-118v33q0 15 3 26t10.5 21.5t20 22t30.5 28.5q25 22 46 45t21 52q0 21 -9 34.5t-23 22t-32.5 12t-36.5 3.5q-40 0 -94 -15v90q32 5 62.5 8.5t59.5 3.5
q39 0 78 -5.5t70 -21t50.5 -43t19.5 -70.5zM123 0v123h134v-123h-134z" />
    <glyph glyph-name="a.sc" horiz-adv-x="634" 
d="M429 120h-238l-45 -120h-145l235 546h157l240 -546h-158zM226 212h168l-84 219z" />
    <glyph glyph-name="b.sc" horiz-adv-x="592" 
d="M549 155q0 -43 -19 -72.5t-49.5 -48t-69 -26.5t-78.5 -8h-260v546h246q37 0 74.5 -7t67.5 -23.5t49 -43.5t19 -67q0 -48 -28 -77t-73 -43q54 -13 87.5 -43.5t33.5 -86.5zM400 164q0 43 -25.5 57.5t-71.5 14.5h-88v-146h81q51 0 77.5 15t26.5 59zM384 392q0 38 -24 51.5
t-68 13.5h-77v-134h69q47 0 73.5 14t26.5 55z" />
    <glyph glyph-name="c.sc" horiz-adv-x="603" 
d="M567 166q-5 -47 -26.5 -80.5t-56 -55.5t-79 -32t-95.5 -10q-72 0 -123 21t-83.5 58.5t-47.5 89.5t-15 114t17 114.5t51.5 91t87 60t123.5 21.5q45 0 88 -9.5t77 -31t55 -55.5t23 -82h-150q-5 41 -29 60.5t-62 19.5q-33 0 -58 -13.5t-41.5 -38.5t-25 -59t-8.5 -74
q0 -89 30 -138.5t94 -49.5q39 0 67.5 19t35.5 60h151v0z" />
    <glyph glyph-name="d.sc" horiz-adv-x="654" 
d="M613 275q0 -72 -20 -123t-58 -84q-42 -36 -102 -52t-135 -16h-225v546h226q60 0 114 -12t96 -39q48 -32 76 -85.5t28 -134.5zM465 274q0 88 -39 130q-21 23 -54.5 33.5t-82.5 10.5h-70v-350h68q49 0 83 11t56 36q19 21 28.5 51.5t10.5 77.5z" />
    <glyph glyph-name="e.sc" horiz-adv-x="532" 
d="M73 0v546h410v-97h-264v-124h247v-95h-247v-132h271v-98h-417z" />
    <glyph glyph-name="f.sc" horiz-adv-x="502" 
d="M219 448v-128h239v-95h-239v-225h-146v546h400v-98h-254z" />
    <glyph glyph-name="g.sc" horiz-adv-x="642" 
d="M580 22q-57 -18 -121 -26t-121 -8q-76 0 -132 19.5t-92.5 56.5t-54.5 89t-18 118t20.5 119.5t59 90.5t94 57t126.5 20q48 0 89 -9.5t72 -30.5t51 -54t26 -80h-147q-18 76 -98 76q-40 0 -67.5 -15t-45 -40.5t-25 -59.5t-7.5 -71q0 -39 6.5 -73.5t24.5 -60t49 -40.5t79 -15
q21 0 46 2.5t46 7.5v115h-115v90h255v-278v0z" />
    <glyph glyph-name="h.sc" horiz-adv-x="665" 
d="M446 0v231h-227v-231h-146v546h146v-213h227v213h146v-546h-146z" />
    <glyph glyph-name="i.sc" horiz-adv-x="292" 
d="M73 0v546h146v-546h-146z" />
    <glyph glyph-name="j.sc" horiz-adv-x="494" 
d="M428 175q0 -96 -55 -141.5t-158 -45.5q-38 0 -75 8.5t-65.5 27t-46 47t-17.5 67.5q0 8 0.5 15t1.5 12h149q-1 -8 -1 -13v-11q0 -26 15 -40t41 -14q20 0 33 7t20 19t9.5 27.5t2.5 33.5v372h146v-371v0z" />
    <glyph glyph-name="k.sc" horiz-adv-x="610" 
d="M219 0h-146v546h146v-546zM410 546h174l-208 -243l233 -303h-178l-209 298z" />
    <glyph glyph-name="l.sc" horiz-adv-x="507" 
d="M73 0v546h146v-448h268v-98h-414z" />
    <glyph glyph-name="m.sc" horiz-adv-x="831" 
d="M627 0v436l-154 -436h-121l-154 436v-436h-125v546h207l139 -410l137 410h200v-546h-129z" />
    <glyph glyph-name="n.sc" horiz-adv-x="666" 
d="M405 0l-207 412v-412h-125v546h188l207 -414v414h125v-546h-188z" />
    <glyph glyph-name="o.sc" horiz-adv-x="652" 
d="M611 273q0 -59 -18 -111t-54 -90.5t-89.5 -61t-124.5 -22.5q-72 0 -125 21.5t-88.5 60t-53 90.5t-17.5 113q0 59 18 111t53.5 90.5t89 61t125.5 22.5t125.5 -22t88.5 -60.5t52.5 -90.5t17.5 -112zM463 275q0 33 -6.5 66.5t-22.5 59.5t-42.5 42.5t-66.5 16.5
q-39 0 -65.5 -17t-42 -43.5t-22 -59.5t-6.5 -65q0 -33 6 -66.5t21 -60.5t41.5 -44t67.5 -17t68 16.5t42.5 43.5t21.5 60.5t6 67.5z" />
    <glyph glyph-name="p.sc" horiz-adv-x="564" 
d="M536 367q0 -45 -18 -79.5t-50 -56.5q-57 -37 -146 -37h-103v-194h-146v546h233q42 0 81 -7.5t71 -25.5q35 -20 56.5 -56t21.5 -90zM388 372q0 20 -5.5 35t-19.5 27q-13 11 -34 15t-45 4h-65v-166h54q31 0 57.5 6.5t41.5 25.5q16 19 16 53z" />
    <glyph glyph-name="q.sc" horiz-adv-x="652" 
d="M542 0q-35 0 -70.5 -1t-70.5 -4q-21 -2 -42.5 -3t-42.5 -1q-69 0 -121 22t-86 60.5t-51 89.5t-17 108q0 60 17.5 112.5t53 91t89 61t125.5 22.5q67 0 120 -20.5t89.5 -56.5t55.5 -85t19 -107q0 -62 -21 -113.5t-72 -91.5q28 2 53.5 3.5t45.5 1.5h23v-89h-97zM463 276
q0 33 -6.5 66t-22.5 59.5t-42.5 42.5t-66.5 16t-66 -16.5t-41.5 -43t-22 -59t-6.5 -65.5t6 -66t21 -60t41.5 -43.5t67.5 -16.5t68 16.5t42.5 43t21.5 59.5t6 67z" />
    <glyph glyph-name="r.sc" horiz-adv-x="602" 
d="M411 0q-11 28 -15.5 57t-6.5 62q-2 27 -5.5 45.5t-12.5 30.5t-25.5 17t-43.5 5h-84v-217h-145v546h260q95 0 148 -31q31 -18 48 -46.5t17 -66.5q0 -51 -28 -83.5t-88 -49.5q27 -5 45 -14t29.5 -23t17.5 -32.5t8 -41.5q4 -41 10 -79.5t24 -78.5h-153zM404 382
q0 38 -22.5 54.5t-72.5 16.5h-91v-147h87q51 0 75 18.5t24 57.5z" />
    <glyph glyph-name="s.sc" horiz-adv-x="574" 
d="M531 164q0 -47 -19.5 -80.5t-53 -54.5t-79.5 -31t-98 -10q-53 0 -96.5 10.5t-75.5 33t-49.5 57.5t-17.5 84h146q0 -44 26.5 -67.5t73.5 -23.5q45 0 71 17t26 51q0 11 -4.5 20t-16.5 17.5t-32 16t-51 15.5l-46 12q-39 10 -72 23t-56.5 31.5t-36.5 44.5t-13 62
q0 43 17.5 74t48 51.5t72 30.5t90.5 10t91 -9.5t72.5 -30t48 -52t17.5 -74.5h-145q0 37 -21.5 57t-62.5 20q-40 0 -62 -17t-22 -46q0 -25 24.5 -39.5t79.5 -28.5l46 -12q49 -13 83 -28t55.5 -34t31.5 -43.5t10 -56.5z" />
    <glyph glyph-name="t.sc" horiz-adv-x="529" 
d="M337 448v-448h-146v448h-179v98h505v-98h-180z" />
    <glyph glyph-name="u.sc" horiz-adv-x="657" 
d="M591 228q0 -240 -265 -240q-60 0 -108.5 12.5t-82 41t-51.5 74t-18 112.5v318h149v-320q0 -30 4.5 -55t17.5 -44t35.5 -29.5t57.5 -10.5t57.5 11t35.5 30.5t18 45t5 55.5v317h145v-318v0z" />
    <glyph glyph-name="v.sc" horiz-adv-x="594" 
d="M377 0h-163l-213 546h156l143 -424l148 424h145z" />
    <glyph glyph-name="w.sc" horiz-adv-x="917" 
d="M746 0h-164l-120 416l-124 -416h-164l-163 546h150l103 -413l119 413h165l116 -413l100 413h142z" />
    <glyph glyph-name="x.sc" horiz-adv-x="626" 
d="M445 0l-139 199l-135 -199h-168l220 284l-208 262h180l121 -178l118 178h166l-201 -261l224 -285h-178z" />
    <glyph glyph-name="y.sc" horiz-adv-x="575" 
d="M361 213v-213h-146v213l-227 333h168l137 -235l138 235h156z" />
    <glyph glyph-name="z.sc" horiz-adv-x="536" 
d="M23 0v100l303 351h-284v95h460v-94l-317 -358h328v-94h-490z" />
    <glyph glyph-name="agrave.sc" horiz-adv-x="634" 
d="M429 120h-238l-45 -120h-145l235 546h157l240 -546h-158zM226 212h168l-84 219zM289 630l-166 145h164l100 -145h-98z" />
    <glyph glyph-name="aacute.sc" horiz-adv-x="634" 
d="M429 120h-238l-45 -120h-145l235 546h157l240 -546h-158zM226 212h168l-84 219zM340 630h-101l104 145h161z" />
    <glyph glyph-name="acircumflex.sc" horiz-adv-x="634" 
d="M429 120h-238l-45 -120h-145l235 546h157l240 -546h-158zM226 212h168l-84 219zM395 630l-79 87l-80 -87h-101l113 146h136l112 -146h-101z" />
    <glyph glyph-name="atilde.sc" horiz-adv-x="634" 
d="M429 120h-238l-45 -120h-145l235 546h157l240 -546h-158zM226 212h168l-84 219zM501 766q-3 -23 -12.5 -45.5t-25 -39.5t-36.5 -27.5t-46 -10.5q-20 0 -40.5 5.5t-40.5 12.5q-18 6 -35.5 10.5t-35.5 4.5q-38 0 -48 -36h-64q2 25 12 47.5t26.5 39t39 26.5t48.5 10
q20 0 39.5 -5.5t39.5 -12.5q19 -7 37 -12t36 -5q17 0 26 10.5t13 27.5h67v0z" />
    <glyph glyph-name="adieresis.sc" horiz-adv-x="634" 
d="M429 120h-238l-45 -120h-145l235 546h157l240 -546h-158zM226 212h168l-84 219zM362 649v117h133v-117h-133zM126 649v117h132v-117h-132z" />
    <glyph glyph-name="amacron.sc" horiz-adv-x="634" 
d="M429 120h-238l-45 -120h-145l235 546h157l240 -546h-158zM226 212h168l-84 219zM143 669v69h334v-69h-334z" />
    <glyph glyph-name="abreve.sc" horiz-adv-x="634" 
d="M429 120h-238l-45 -120h-145l235 546h157l240 -546h-158zM226 212h168l-84 219zM479 763q-8 -73 -53.5 -104t-115.5 -31q-35 0 -65 8t-52.5 24.5t-36 42t-14.5 60.5h59q3 -20 14.5 -32t27.5 -19.5t33.5 -10t34.5 -2.5q38 0 67.5 12.5t43.5 51.5h57v0z" />
    <glyph glyph-name="aring.sc" horiz-adv-x="634" 
d="M429 120h-238l-45 -120h-145l235 546h157l240 -546h-158zM226 212h168l-84 219zM205 716q0 22 8 40.5t22.5 32.5t33.5 22t40 8t40 -8t33.5 -22t22.5 -32.5t8 -40.5t-8 -40.5t-22.5 -32.5t-33.5 -22t-40 -8t-40 8t-33.5 22t-22.5 32.5t-8 40.5zM257 716q0 -23 14.5 -39.5
t37.5 -16.5t37.5 16.5t14.5 39.5t-14.5 39.5t-37.5 16.5t-37.5 -16.5t-14.5 -39.5z" />
    <glyph glyph-name="aogonek.sc" horiz-adv-x="634" 
d="M429 120h-238l-45 -120h-145l235 546h157l240 -546q-41 -20 -67 -42t-26 -56q0 -26 14.5 -39.5t39.5 -13.5q22 0 44 11l3 -41q-23 -11 -43 -17t-45 -6q-18 0 -34.5 4t-30 13t-21.5 23.5t-8 34.5q0 23 9 42t24 35t34 28.5t39 23.5h-90zM226 212h168l-84 219z" />
    <glyph glyph-name="ae.sc" horiz-adv-x="809" 
d="M522 230l19 -132h226v-98h-354l-17 119h-198l-58 -119h-145l286 546h479v-97h-269l17 -124h235v-95h-221zM243 210h141l-31 222z" />
    <glyph glyph-name="cacute.sc" horiz-adv-x="603" 
d="M567 166q-5 -47 -26.5 -80.5t-56 -55.5t-79 -32t-95.5 -10q-72 0 -123 21t-83.5 58.5t-47.5 89.5t-15 114t17 114.5t51.5 91t87 60t123.5 21.5q45 0 88 -9.5t77 -31t55 -55.5t23 -82h-150q-5 41 -29 60.5t-62 19.5q-33 0 -58 -13.5t-41.5 -38.5t-25 -59t-8.5 -74
q0 -89 30 -138.5t94 -49.5q39 0 67.5 19t35.5 60h151v0zM329 630h-101l104 145h161z" />
    <glyph glyph-name="ccircumflex.sc" horiz-adv-x="603" 
d="M567 166q-5 -47 -26.5 -80.5t-56 -55.5t-79 -32t-95.5 -10q-72 0 -123 21t-83.5 58.5t-47.5 89.5t-15 114t17 114.5t51.5 91t87 60t123.5 21.5q45 0 88 -9.5t77 -31t55 -55.5t23 -82h-150q-5 41 -29 60.5t-62 19.5q-33 0 -58 -13.5t-41.5 -38.5t-25 -59t-8.5 -74
q0 -89 30 -138.5t94 -49.5q39 0 67.5 19t35.5 60h151v0zM390 630l-79 87l-80 -87h-101l113 146h136l112 -146h-101z" />
    <glyph glyph-name="ccaron.sc" horiz-adv-x="603" 
d="M567 166q-5 -47 -26.5 -80.5t-56 -55.5t-79 -32t-95.5 -10q-72 0 -123 21t-83.5 58.5t-47.5 89.5t-15 114t17 114.5t51.5 91t87 60t123.5 21.5q45 0 88 -9.5t77 -31t55 -55.5t23 -82h-150q-5 41 -29 60.5t-62 19.5q-33 0 -58 -13.5t-41.5 -38.5t-25 -59t-8.5 -74
q0 -89 30 -138.5t94 -49.5q39 0 67.5 19t35.5 60h151v0zM379 630h-136l-112 145h98l83 -89l80 89h100z" />
    <glyph glyph-name="cdotaccent.sc" horiz-adv-x="603" 
d="M567 166q-5 -47 -26.5 -80.5t-56 -55.5t-79 -32t-95.5 -10q-72 0 -123 21t-83.5 58.5t-47.5 89.5t-15 114t17 114.5t51.5 91t87 60t123.5 21.5q45 0 88 -9.5t77 -31t55 -55.5t23 -82h-150q-5 41 -29 60.5t-62 19.5q-33 0 -58 -13.5t-41.5 -38.5t-25 -59t-8.5 -74
q0 -89 30 -138.5t94 -49.5q39 0 67.5 19t35.5 60h151v0zM245 649v117h132v-117h-132z" />
    <glyph glyph-name="ccedilla.sc" horiz-adv-x="603" 
d="M435 -127q0 -25 -12 -40.5t-31 -24.5t-41 -12t-41 -3q-57 0 -109 21l11 40q22 -11 45 -17.5t47 -6.5q20 0 36.5 8t16.5 31q0 21 -14 29.5t-34 8.5q-9 0 -17 -2l-16 -4l-20 13l37 74q-68 3 -115.5 24.5t-78 59t-44.5 88.5t-14 111q0 62 17 114.5t51.5 91t87 60t123.5 21.5
q45 0 88 -9.5t77 -31t55 -55.5t23 -82h-150q-5 41 -29 60.5t-62 19.5q-33 0 -58 -13.5t-41.5 -38.5t-25 -59t-8.5 -74q0 -89 30 -138.5t94 -49.5q39 0 67.5 19t35.5 60h151q-5 -44 -24.5 -76t-50 -53.5t-71 -33t-86.5 -14.5l-21 -48q9 2 18 3t20 1q32 0 57.5 -17.5
t25.5 -54.5z" />
    <glyph glyph-name="dcaron.sc" horiz-adv-x="654" 
d="M613 275q0 -72 -20 -123t-58 -84q-42 -36 -102 -52t-135 -16h-225v546h226q60 0 114 -12t96 -39q48 -32 76 -85.5t28 -134.5zM465 274q0 88 -39 130q-21 23 -54.5 33.5t-82.5 10.5h-70v-350h68q49 0 83 11t56 36q19 21 28.5 51.5t10.5 77.5zM390 630h-136l-112 145h98
l83 -89l80 89h100z" />
    <glyph glyph-name="dcroat.sc" horiz-adv-x="654" 
d="M613 275q0 -72 -20 -123t-58 -84q-42 -36 -102 -52t-135 -16h-225v246h-51v75h51v225h226q60 0 114 -12t96 -39q48 -32 76 -85.5t28 -134.5zM465 274q0 88 -39 130q-41 45 -137 45h-70v-128h133v-75h-133v-149h68q97 0 139 48q19 21 28.5 51.5t10.5 77.5z" />
    <glyph glyph-name="eth.sc" horiz-adv-x="654" 
d="M613 275q0 -72 -20 -123t-58 -84q-42 -36 -102 -52t-135 -16h-225v246h-51v75h51v225h226q60 0 114 -12t96 -39q48 -32 76 -85.5t28 -134.5zM465 274q0 88 -39 130q-41 45 -137 45h-70v-128h133v-75h-133v-149h68q97 0 139 48q19 21 28.5 51.5t10.5 77.5z" />
    <glyph glyph-name="egrave.sc" horiz-adv-x="532" 
d="M73 0v546h410v-97h-264v-124h247v-95h-247v-132h271v-98h-417zM274 630l-166 145h164l100 -145h-98z" />
    <glyph glyph-name="eacute.sc" horiz-adv-x="532" 
d="M73 0v546h410v-97h-264v-124h247v-95h-247v-132h271v-98h-417zM277 630h-101l104 145h161z" />
    <glyph glyph-name="ecircumflex.sc" horiz-adv-x="532" 
d="M73 0v546h410v-97h-264v-124h247v-95h-247v-132h271v-98h-417zM360 630l-79 87l-80 -87h-101l113 146h136l112 -146h-101z" />
    <glyph glyph-name="ecaron.sc" horiz-adv-x="532" 
d="M73 0v546h410v-97h-264v-124h247v-95h-247v-132h271v-98h-417zM348 630h-136l-112 145h98l83 -89l80 89h100z" />
    <glyph glyph-name="edieresis.sc" horiz-adv-x="532" 
d="M73 0v546h410v-97h-264v-124h247v-95h-247v-132h271v-98h-417zM328 649v117h133v-117h-133zM92 649v117h132v-117h-132z" />
    <glyph glyph-name="emacron.sc" horiz-adv-x="532" 
d="M73 0v546h410v-97h-264v-124h247v-95h-247v-132h271v-98h-417zM114 669v69h334v-69h-334z" />
    <glyph glyph-name="ebreve.sc" horiz-adv-x="532" 
d="M73 0v546h410v-97h-264v-124h247v-95h-247v-132h271v-98h-417zM447 763q-8 -73 -53.5 -104t-115.5 -31q-35 0 -65 8t-52.5 24.5t-36 42t-14.5 60.5h59q3 -20 14.5 -32t27.5 -19.5t33.5 -10t34.5 -2.5q38 0 67.5 12.5t43.5 51.5h57v0z" />
    <glyph glyph-name="edotaccent.sc" horiz-adv-x="532" 
d="M73 0v546h410v-97h-264v-124h247v-95h-247v-132h271v-98h-417zM209 649v117h132v-117h-132z" />
    <glyph glyph-name="eogonek.sc" horiz-adv-x="532" 
d="M498 -181q-23 -11 -43 -17t-45 -6q-18 0 -34.5 4t-30 13t-21.5 23.5t-8 34.5q0 23 9 42t24 35t34 28.5t39 23.5h-349v546h410v-97h-264v-124h247v-95h-247v-132h271v-98q-41 -20 -67 -42t-26 -56q0 -26 14.5 -39.5t39.5 -13.5q22 0 44 11l3 -41v0z" />
    <glyph glyph-name="gcircumflex.sc" horiz-adv-x="642" 
d="M580 22q-57 -18 -121 -26t-121 -8q-76 0 -132 19.5t-92.5 56.5t-54.5 89t-18 118t20.5 119.5t59 90.5t94 57t126.5 20q48 0 89 -9.5t72 -30.5t51 -54t26 -80h-147q-18 76 -98 76q-40 0 -67.5 -15t-45 -40.5t-25 -59.5t-7.5 -71q0 -39 6.5 -73.5t24.5 -60t49 -40.5t79 -15
q21 0 46 2.5t46 7.5v115h-115v90h255v-278v0zM412 630l-79 87l-80 -87h-101l113 146h136l112 -146h-101z" />
    <glyph glyph-name="gbreve.sc" horiz-adv-x="642" 
d="M580 22q-57 -18 -121 -26t-121 -8q-76 0 -132 19.5t-92.5 56.5t-54.5 89t-18 118t20.5 119.5t59 90.5t94 57t126.5 20q48 0 89 -9.5t72 -30.5t51 -54t26 -80h-147q-18 76 -98 76q-40 0 -67.5 -15t-45 -40.5t-25 -59.5t-7.5 -71q0 -39 6.5 -73.5t24.5 -60t49 -40.5t79 -15
q21 0 46 2.5t46 7.5v115h-115v90h255v-278v0zM504 763q-8 -73 -53.5 -104t-115.5 -31q-35 0 -65 8t-52.5 24.5t-36 42t-14.5 60.5h59q3 -20 14.5 -32t27.5 -19.5t33.5 -10t34.5 -2.5q38 0 67.5 12.5t43.5 51.5h57v0z" />
    <glyph glyph-name="gdotaccent.sc" horiz-adv-x="642" 
d="M580 22q-57 -18 -121 -26t-121 -8q-76 0 -132 19.5t-92.5 56.5t-54.5 89t-18 118t20.5 119.5t59 90.5t94 57t126.5 20q48 0 89 -9.5t72 -30.5t51 -54t26 -80h-147q-18 76 -98 76q-40 0 -67.5 -15t-45 -40.5t-25 -59.5t-7.5 -71q0 -39 6.5 -73.5t24.5 -60t49 -40.5t79 -15
q21 0 46 2.5t46 7.5v115h-115v90h255v-278v0zM272 649v117h132v-117h-132z" />
    <glyph glyph-name="gcommaaccent.sc" horiz-adv-x="642" 
d="M580 22q-57 -18 -121 -26t-121 -8q-76 0 -132 19.5t-92.5 56.5t-54.5 89t-18 118t20.5 119.5t59 90.5t94 57t126.5 20q48 0 89 -9.5t72 -30.5t51 -54t26 -80h-147q-18 76 -98 76q-40 0 -67.5 -15t-45 -40.5t-25 -59.5t-7.5 -71q0 -39 6.5 -73.5t24.5 -60t49 -40.5t79 -15
q21 0 46 2.5t46 7.5v115h-115v90h255v-278v0zM398 -47l-77 -166h-97l48 166h126z" />
    <glyph glyph-name="hcircumflex.sc" horiz-adv-x="665" 
d="M446 0v231h-227v-231h-146v546h146v-213h227v213h146v-546h-146zM412 630l-79 87l-80 -87h-101l113 146h136l112 -146h-101z" />
    <glyph glyph-name="hbar.sc" horiz-adv-x="665" 
d="M446 0v231h-227v-231h-146v546h146v-70h227v70h146v-546h-146zM446 333v50h-227v-50h227z" />
    <glyph glyph-name="igrave.sc" horiz-adv-x="292" 
d="M73 0v546h146v-546h-146zM124 630l-166 145h164l100 -145h-98z" />
    <glyph glyph-name="iacute.sc" horiz-adv-x="292" 
d="M73 0v546h146v-546h-146zM175 630h-101l104 145h161z" />
    <glyph glyph-name="ibreve.sc" horiz-adv-x="292" 
d="M73 0v546h146v-546h-146zM316 763q-8 -73 -53.5 -104t-115.5 -31q-35 0 -65 8t-52.5 24.5t-36 42t-14.5 60.5h59q3 -20 14.5 -32t27.5 -19.5t33.5 -10t34.5 -2.5q38 0 67.5 12.5t43.5 51.5h57v0z" />
    <glyph glyph-name="icircumflex.sc" horiz-adv-x="292" 
d="M73 0v546h146v-546h-146zM227 630l-79 87l-80 -87h-101l113 146h136l112 -146h-101z" />
    <glyph glyph-name="itilde.sc" horiz-adv-x="292" 
d="M73 0v546h146v-546h-146zM339 766q-3 -23 -12.5 -45.5t-25 -39.5t-36.5 -27.5t-46 -10.5q-20 0 -40.5 5.5t-40.5 12.5q-18 6 -35.5 10.5t-35.5 4.5q-38 0 -48 -36h-64q2 25 12 47.5t26.5 39t39 26.5t48.5 10q20 0 39.5 -5.5t39.5 -12.5q19 -7 37 -12t36 -5q17 0 26 10.5
t13 27.5h67v0z" />
    <glyph glyph-name="idieresis.sc" horiz-adv-x="292" 
d="M73 0v546h146v-546h-146zM199 649v117h133v-117h-133zM-37 649v117h132v-117h-132z" />
    <glyph glyph-name="imacron.sc" horiz-adv-x="292" 
d="M73 0v546h146v-546h-146zM-20 669v69h334v-69h-334z" />
    <glyph glyph-name="idotaccent.sc" horiz-adv-x="292" 
d="M73 0v546h146v-546h-146zM81 649v117h132v-117h-132z" />
    <glyph glyph-name="iogonek.sc" horiz-adv-x="292" 
d="M227 -181q-23 -11 -43 -17t-45 -6q-18 0 -34.5 4t-30 13t-21.5 23.5t-8 34.5q0 23 9 42t24 35t34 28.5t39 23.5h-78v546h146v-546q-41 -20 -67 -42t-26 -56q0 -26 14.5 -39.5t39.5 -13.5q22 0 44 11l3 -41v0z" />
    <glyph glyph-name="jcircumflex.sc" horiz-adv-x="494" 
d="M428 175q0 -96 -55 -141.5t-158 -45.5q-38 0 -75 8.5t-65.5 27t-46 47t-17.5 67.5q0 8 0.5 15t1.5 12h149q-1 -8 -1 -13v-11q0 -26 15 -40t41 -14q20 0 33 7t20 19t9.5 27.5t2.5 33.5v372h146v-371v0zM435 630l-79 87l-80 -87h-101l113 146h136l112 -146h-101z" />
    <glyph glyph-name="kcommaaccent.sc" horiz-adv-x="610" 
d="M219 0h-146v546h146v-546zM410 546h174l-208 -243l233 -303h-178l-209 298zM390 -47l-77 -166h-97l48 166h126z" />
    <glyph glyph-name="lacute.sc" horiz-adv-x="507" 
d="M73 0v546h146v-448h268v-98h-414zM187 630h-101l104 145h161z" />
    <glyph glyph-name="lcaron.sc" horiz-adv-x="507" 
d="M73 0v546h146v-448h268v-98h-414zM447 547l-63 -198h-99l32 198h130z" />
    <glyph glyph-name="lcommaaccent.sc" horiz-adv-x="507" 
d="M73 0v546h146v-448h268v-98h-414zM354 -47l-77 -166h-97l48 166h126z" />
    <glyph glyph-name="lslash.sc" horiz-adv-x="507" 
d="M73 0v207l-61 -32v78l61 32v261h146v-188l149 80v-78l-149 -80v-182h268v-98h-414z" />
    <glyph glyph-name="ldot.sc" horiz-adv-x="507" 
d="M73 0v546h146v-448h268v-98h-414zM310 262v117h132v-117h-132z" />
    <glyph glyph-name="nacute.sc" horiz-adv-x="666" 
d="M405 0l-207 412v-412h-125v546h188l207 -414v414h125v-546h-188zM338 630h-101l104 145h161z" />
    <glyph glyph-name="ncaron.sc" horiz-adv-x="666" 
d="M405 0l-207 412v-412h-125v546h188l207 -414v414h125v-546h-188zM400 630h-136l-112 145h98l83 -89l80 89h100z" />
    <glyph glyph-name="ntilde.sc" horiz-adv-x="666" 
d="M405 0l-207 412v-412h-125v546h188l207 -414v414h125v-546h-188zM523 766q-3 -23 -12.5 -45.5t-25 -39.5t-36.5 -27.5t-46 -10.5q-20 0 -40.5 5.5t-40.5 12.5q-18 6 -35.5 10.5t-35.5 4.5q-38 0 -48 -36h-64q2 25 12 47.5t26.5 39t39 26.5t48.5 10q20 0 39.5 -5.5
t39.5 -12.5q19 -7 37 -12t36 -5q17 0 26 10.5t13 27.5h67v0z" />
    <glyph glyph-name="ncommaaccent.sc" horiz-adv-x="666" 
d="M405 0l-207 412v-412h-125v546h188l207 -414v414h125v-546h-188zM417 -47l-77 -166h-97l48 166h126z" />
    <glyph glyph-name="ograve.sc" horiz-adv-x="652" 
d="M611 273q0 -59 -18 -111t-54 -90.5t-89.5 -61t-124.5 -22.5q-72 0 -125 21.5t-88.5 60t-53 90.5t-17.5 113q0 59 18 111t53.5 90.5t89 61t125.5 22.5t125.5 -22t88.5 -60.5t52.5 -90.5t17.5 -112zM463 275q0 33 -6.5 66.5t-22.5 59.5t-42.5 42.5t-66.5 16.5
q-39 0 -65.5 -17t-42 -43.5t-22 -59.5t-6.5 -65q0 -33 6 -66.5t21 -60.5t41.5 -44t67.5 -17t68 16.5t42.5 43.5t21.5 60.5t6 67.5zM310 630l-166 145h164l100 -145h-98z" />
    <glyph glyph-name="oacute.sc" horiz-adv-x="652" 
d="M611 273q0 -59 -18 -111t-54 -90.5t-89.5 -61t-124.5 -22.5q-72 0 -125 21.5t-88.5 60t-53 90.5t-17.5 113q0 59 18 111t53.5 90.5t89 61t125.5 22.5t125.5 -22t88.5 -60.5t52.5 -90.5t17.5 -112zM463 275q0 33 -6.5 66.5t-22.5 59.5t-42.5 42.5t-66.5 16.5
q-39 0 -65.5 -17t-42 -43.5t-22 -59.5t-6.5 -65q0 -33 6 -66.5t21 -60.5t41.5 -44t67.5 -17t68 16.5t42.5 43.5t21.5 60.5t6 67.5zM342 630h-101l104 145h161z" />
    <glyph glyph-name="ocircumflex.sc" horiz-adv-x="652" 
d="M611 273q0 -59 -18 -111t-54 -90.5t-89.5 -61t-124.5 -22.5q-72 0 -125 21.5t-88.5 60t-53 90.5t-17.5 113q0 59 18 111t53.5 90.5t89 61t125.5 22.5t125.5 -22t88.5 -60.5t52.5 -90.5t17.5 -112zM463 275q0 33 -6.5 66.5t-22.5 59.5t-42.5 42.5t-66.5 16.5
q-39 0 -65.5 -17t-42 -43.5t-22 -59.5t-6.5 -65q0 -33 6 -66.5t21 -60.5t41.5 -44t67.5 -17t68 16.5t42.5 43.5t21.5 60.5t6 67.5zM405 630l-79 87l-80 -87h-101l113 146h136l112 -146h-101z" />
    <glyph glyph-name="otilde.sc" horiz-adv-x="652" 
d="M611 273q0 -59 -18 -111t-54 -90.5t-89.5 -61t-124.5 -22.5q-72 0 -125 21.5t-88.5 60t-53 90.5t-17.5 113q0 59 18 111t53.5 90.5t89 61t125.5 22.5t125.5 -22t88.5 -60.5t52.5 -90.5t17.5 -112zM463 275q0 33 -6.5 66.5t-22.5 59.5t-42.5 42.5t-66.5 16.5
q-39 0 -65.5 -17t-42 -43.5t-22 -59.5t-6.5 -65q0 -33 6 -66.5t21 -60.5t41.5 -44t67.5 -17t68 16.5t42.5 43.5t21.5 60.5t6 67.5zM518 766q-3 -23 -12.5 -45.5t-25 -39.5t-36.5 -27.5t-46 -10.5q-20 0 -40.5 5.5t-40.5 12.5q-18 6 -35.5 10.5t-35.5 4.5q-38 0 -48 -36h-64
q2 25 12 47.5t26.5 39t39 26.5t48.5 10q20 0 39.5 -5.5t39.5 -12.5q19 -7 37 -12t36 -5q17 0 26 10.5t13 27.5h67v0z" />
    <glyph glyph-name="odieresis.sc" horiz-adv-x="652" 
d="M611 273q0 -59 -18 -111t-54 -90.5t-89.5 -61t-124.5 -22.5q-72 0 -125 21.5t-88.5 60t-53 90.5t-17.5 113q0 59 18 111t53.5 90.5t89 61t125.5 22.5t125.5 -22t88.5 -60.5t52.5 -90.5t17.5 -112zM463 275q0 33 -6.5 66.5t-22.5 59.5t-42.5 42.5t-66.5 16.5
q-39 0 -65.5 -17t-42 -43.5t-22 -59.5t-6.5 -65q0 -33 6 -66.5t21 -60.5t41.5 -44t67.5 -17t68 16.5t42.5 43.5t21.5 60.5t6 67.5zM377 649v117h133v-117h-133zM141 649v117h132v-117h-132z" />
    <glyph glyph-name="omacron.sc" horiz-adv-x="652" 
d="M611 273q0 -59 -18 -111t-54 -90.5t-89.5 -61t-124.5 -22.5q-72 0 -125 21.5t-88.5 60t-53 90.5t-17.5 113q0 59 18 111t53.5 90.5t89 61t125.5 22.5t125.5 -22t88.5 -60.5t52.5 -90.5t17.5 -112zM463 275q0 33 -6.5 66.5t-22.5 59.5t-42.5 42.5t-66.5 16.5
q-39 0 -65.5 -17t-42 -43.5t-22 -59.5t-6.5 -65q0 -33 6 -66.5t21 -60.5t41.5 -44t67.5 -17t68 16.5t42.5 43.5t21.5 60.5t6 67.5zM159 669v69h334v-69h-334z" />
    <glyph glyph-name="obreve.sc" horiz-adv-x="652" 
d="M611 273q0 -59 -18 -111t-54 -90.5t-89.5 -61t-124.5 -22.5q-72 0 -125 21.5t-88.5 60t-53 90.5t-17.5 113q0 59 18 111t53.5 90.5t89 61t125.5 22.5t125.5 -22t88.5 -60.5t52.5 -90.5t17.5 -112zM463 275q0 33 -6.5 66.5t-22.5 59.5t-42.5 42.5t-66.5 16.5
q-39 0 -65.5 -17t-42 -43.5t-22 -59.5t-6.5 -65q0 -33 6 -66.5t21 -60.5t41.5 -44t67.5 -17t68 16.5t42.5 43.5t21.5 60.5t6 67.5zM494 763q-8 -73 -53.5 -104t-115.5 -31q-35 0 -65 8t-52.5 24.5t-36 42t-14.5 60.5h59q3 -20 14.5 -32t27.5 -19.5t33.5 -10t34.5 -2.5
q38 0 67.5 12.5t43.5 51.5h57v0z" />
    <glyph glyph-name="ohungarumlaut.sc" horiz-adv-x="652" 
d="M611 273q0 -59 -18 -111t-54 -90.5t-89.5 -61t-124.5 -22.5q-72 0 -125 21.5t-88.5 60t-53 90.5t-17.5 113q0 59 18 111t53.5 90.5t89 61t125.5 22.5t125.5 -22t88.5 -60.5t52.5 -90.5t17.5 -112zM463 275q0 33 -6.5 66.5t-22.5 59.5t-42.5 42.5t-66.5 16.5
q-39 0 -65.5 -17t-42 -43.5t-22 -59.5t-6.5 -65q0 -33 6 -66.5t21 -60.5t41.5 -44t67.5 -17t68 16.5t42.5 43.5t21.5 60.5t6 67.5zM487 631h-103l106 144h161zM251 631h-102l105 144h161z" />
    <glyph glyph-name="oslash.sc" horiz-adv-x="652" 
d="M33 -2l73 77q-33 38 -49 88.5t-16 109.5t18 111t53.5 90.5t89 61t125.5 22.5q59 0 104.5 -15t79.5 -41l72 75l47 -44l-73 -77q27 -38 40.5 -84t13.5 -99q0 -59 -18 -111t-54 -90.5t-89.5 -61t-124.5 -22.5q-53 0 -95 11.5t-75 32.5l-75 -79zM187 275q0 -26 3 -51.5
t11 -48.5l226 238q-17 23 -42 36t-60 13q-39 0 -65.5 -17t-42.5 -44t-23 -60t-7 -66zM465 275q0 38 -9 74l-220 -231q33 -33 89 -33q41 0 68 17t43 44t22.5 61t6.5 68z" />
    <glyph glyph-name="oe.sc" horiz-adv-x="820" 
d="M476 0q-14 0 -30 -0.5t-32 -1.5q-14 -1 -28.5 -1.5t-28.5 -0.5q-158 0 -237 68t-79 210q0 69 21.5 121t62 86.5t98 51.5t129.5 17q28 0 75 -3q17 -1 29 -1h29h286v-97h-233v-124h216v-95h-216v-132h240v-98h-302zM397 455q-23 3 -46 3q-45 0 -76 -14.5t-50.5 -39.5
t-28 -59.5t-8.5 -73.5t8.5 -72t27.5 -57.5t50.5 -38.5t76.5 -14q11 0 23 0.5t23 1.5v364z" />
    <glyph glyph-name="racute.sc" horiz-adv-x="602" 
d="M411 0q-11 28 -15.5 57t-6.5 62q-2 27 -5.5 45.5t-12.5 30.5t-25.5 17t-43.5 5h-84v-217h-145v546h260q95 0 148 -31q31 -18 48 -46.5t17 -66.5q0 -51 -28 -83.5t-88 -49.5q27 -5 45 -14t29.5 -23t17.5 -32.5t8 -41.5q4 -41 10 -79.5t24 -78.5h-153zM404 382
q0 38 -22.5 54.5t-72.5 16.5h-91v-147h87q51 0 75 18.5t24 57.5zM317 630h-101l104 145h161z" />
    <glyph glyph-name="rcaron.sc" horiz-adv-x="602" 
d="M411 0q-11 28 -15.5 57t-6.5 62q-2 27 -5.5 45.5t-12.5 30.5t-25.5 17t-43.5 5h-84v-217h-145v546h260q95 0 148 -31q31 -18 48 -46.5t17 -66.5q0 -51 -28 -83.5t-88 -49.5q27 -5 45 -14t29.5 -23t17.5 -32.5t8 -41.5q4 -41 10 -79.5t24 -78.5h-153zM404 382
q0 38 -22.5 54.5t-72.5 16.5h-91v-147h87q51 0 75 18.5t24 57.5zM367 630h-136l-112 145h98l83 -89l80 89h100z" />
    <glyph glyph-name="rcommaaccent.sc" horiz-adv-x="602" 
d="M411 0q-11 28 -15.5 57t-6.5 62q-2 27 -5.5 45.5t-12.5 30.5t-25.5 17t-43.5 5h-84v-217h-145v546h260q95 0 148 -31q31 -18 48 -46.5t17 -66.5q0 -51 -28 -83.5t-88 -49.5q27 -5 45 -14t29.5 -23t17.5 -32.5t8 -41.5q4 -41 10 -79.5t24 -78.5h-153zM404 382
q0 38 -22.5 54.5t-72.5 16.5h-91v-147h87q51 0 75 18.5t24 57.5zM384 -47l-77 -166h-97l48 166h126z" />
    <glyph glyph-name="sacute.sc" horiz-adv-x="574" 
d="M531 164q0 -47 -19.5 -80.5t-53 -54.5t-79.5 -31t-98 -10q-53 0 -96.5 10.5t-75.5 33t-49.5 57.5t-17.5 84h146q0 -44 26.5 -67.5t73.5 -23.5q45 0 71 17t26 51q0 11 -4.5 20t-16.5 17.5t-32 16t-51 15.5l-46 12q-39 10 -72 23t-56.5 31.5t-36.5 44.5t-13 62
q0 43 17.5 74t48 51.5t72 30.5t90.5 10t91 -9.5t72.5 -30t48 -52t17.5 -74.5h-145q0 37 -21.5 57t-62.5 20q-40 0 -62 -17t-22 -46q0 -25 24.5 -39.5t79.5 -28.5l46 -12q49 -13 83 -28t55.5 -34t31.5 -43.5t10 -56.5zM305 630h-101l104 145h161z" />
    <glyph glyph-name="scircumflex.sc" horiz-adv-x="574" 
d="M531 164q0 -47 -19.5 -80.5t-53 -54.5t-79.5 -31t-98 -10q-53 0 -96.5 10.5t-75.5 33t-49.5 57.5t-17.5 84h146q0 -44 26.5 -67.5t73.5 -23.5q45 0 71 17t26 51q0 11 -4.5 20t-16.5 17.5t-32 16t-51 15.5l-46 12q-39 10 -72 23t-56.5 31.5t-36.5 44.5t-13 62
q0 43 17.5 74t48 51.5t72 30.5t90.5 10t91 -9.5t72.5 -30t48 -52t17.5 -74.5h-145q0 37 -21.5 57t-62.5 20q-40 0 -62 -17t-22 -46q0 -25 24.5 -39.5t79.5 -28.5l46 -12q49 -13 83 -28t55.5 -34t31.5 -43.5t10 -56.5zM368 630l-79 87l-80 -87h-101l113 146h136l112 -146
h-101z" />
    <glyph glyph-name="scaron.sc" horiz-adv-x="574" 
d="M531 164q0 -47 -19.5 -80.5t-53 -54.5t-79.5 -31t-98 -10q-53 0 -96.5 10.5t-75.5 33t-49.5 57.5t-17.5 84h146q0 -44 26.5 -67.5t73.5 -23.5q45 0 71 17t26 51q0 11 -4.5 20t-16.5 17.5t-32 16t-51 15.5l-46 12q-39 10 -72 23t-56.5 31.5t-36.5 44.5t-13 62
q0 43 17.5 74t48 51.5t72 30.5t90.5 10t91 -9.5t72.5 -30t48 -52t17.5 -74.5h-145q0 37 -21.5 57t-62.5 20q-40 0 -62 -17t-22 -46q0 -25 24.5 -39.5t79.5 -28.5l46 -12q49 -13 83 -28t55.5 -34t31.5 -43.5t10 -56.5zM356 630h-136l-112 145h98l83 -89l80 89h100z" />
    <glyph glyph-name="scedilla.sc" horiz-adv-x="574" 
d="M397 -127q0 -25 -12 -40.5t-31 -24.5t-41 -12t-41 -3q-57 0 -109 21l11 40q22 -11 45 -17.5t47 -6.5q20 0 36.5 8t16.5 31q0 21 -14 29.5t-34 8.5q-9 0 -17 -2l-16 -4l-20 13l37 75q-47 2 -86.5 14t-67.5 34.5t-43.5 56t-15.5 79.5h146q0 -44 26.5 -67.5t73.5 -23.5
q45 0 71 17t26 51q0 11 -4.5 20t-16.5 17.5t-32 16t-51 15.5l-46 12q-39 10 -72 23t-56.5 31.5t-36.5 44.5t-13 62q0 43 17.5 74t48 51.5t72 30.5t90.5 10t91 -9.5t72.5 -30t48 -52t17.5 -74.5h-145q0 37 -21.5 57t-62.5 20q-40 0 -62 -17t-22 -46q0 -25 24.5 -39.5
t79.5 -28.5l46 -12q49 -13 83 -28t55.5 -34t31.5 -43.5t10 -56.5q0 -45 -18 -78t-49.5 -54t-74.5 -31.5t-92 -11.5l-21 -48q9 2 18 3t20 1q32 0 57.5 -17.5t25.5 -54.5z" />
    <glyph glyph-name="scommaaccent.sc" horiz-adv-x="574" 
d="M531 164q0 -47 -19.5 -80.5t-53 -54.5t-79.5 -31t-98 -10q-53 0 -96.5 10.5t-75.5 33t-49.5 57.5t-17.5 84h146q0 -44 26.5 -67.5t73.5 -23.5q45 0 71 17t26 51q0 11 -4.5 20t-16.5 17.5t-32 16t-51 15.5l-46 12q-39 10 -72 23t-56.5 31.5t-36.5 44.5t-13 62
q0 43 17.5 74t48 51.5t72 30.5t90.5 10t91 -9.5t72.5 -30t48 -52t17.5 -74.5h-145q0 37 -21.5 57t-62.5 20q-40 0 -62 -17t-22 -46q0 -25 24.5 -39.5t79.5 -28.5l46 -12q49 -13 83 -28t55.5 -34t31.5 -43.5t10 -56.5zM354 -47l-77 -166h-97l48 166h126z" />
    <glyph glyph-name="tcaron.sc" horiz-adv-x="529" 
d="M337 448v-448h-146v448h-179v98h505v-98h-180zM332 630h-136l-112 145h98l83 -89l80 89h100z" />
    <glyph glyph-name="tcommaaccent.sc" horiz-adv-x="529" 
d="M337 448v-448h-146v448h-179v98h505v-98h-180zM330 -47l-77 -166h-97l48 166h126z" />
    <glyph glyph-name="tbar.sc" horiz-adv-x="529" 
d="M49 320h142v128h-179v98h505v-98h-180v-128h142v-93h-142v-227h-146v227h-142v93z" />
    <glyph glyph-name="thorn.sc" horiz-adv-x="564" 
d="M536 271q0 -45 -18 -79.5t-50 -56.5q-57 -37 -146 -37h-103v-98h-146v546h146v-96h87q42 0 81 -7.5t71 -25.5q35 -20 56.5 -56t21.5 -90zM388 276q0 20 -5.5 35t-19.5 27q-13 11 -34 15t-45 4h-65v-166h54q31 0 57.5 6.5t41.5 25.5q16 19 16 53z" />
    <glyph glyph-name="ugrave.sc" horiz-adv-x="657" 
d="M591 228q0 -240 -265 -240q-60 0 -108.5 12.5t-82 41t-51.5 74t-18 112.5v318h149v-320q0 -30 4.5 -55t17.5 -44t35.5 -29.5t57.5 -10.5t57.5 11t35.5 30.5t18 45t5 55.5v317h145v-318v0zM312 630l-166 145h164l100 -145h-98z" />
    <glyph glyph-name="uacute.sc" horiz-adv-x="657" 
d="M591 228q0 -240 -265 -240q-60 0 -108.5 12.5t-82 41t-51.5 74t-18 112.5v318h149v-320q0 -30 4.5 -55t17.5 -44t35.5 -29.5t57.5 -10.5t57.5 11t35.5 30.5t18 45t5 55.5v317h145v-318v0zM351 630h-101l104 145h161z" />
    <glyph glyph-name="ucircumflex.sc" horiz-adv-x="657" 
d="M591 228q0 -240 -265 -240q-60 0 -108.5 12.5t-82 41t-51.5 74t-18 112.5v318h149v-320q0 -30 4.5 -55t17.5 -44t35.5 -29.5t57.5 -10.5t57.5 11t35.5 30.5t18 45t5 55.5v317h145v-318v0zM408 630l-79 87l-80 -87h-101l113 146h136l112 -146h-101z" />
    <glyph glyph-name="utilde.sc" horiz-adv-x="657" 
d="M591 228q0 -240 -265 -240q-60 0 -108.5 12.5t-82 41t-51.5 74t-18 112.5v318h149v-320q0 -30 4.5 -55t17.5 -44t35.5 -29.5t57.5 -10.5t57.5 11t35.5 30.5t18 45t5 55.5v317h145v-318v0zM520 766q-3 -23 -12.5 -45.5t-25 -39.5t-36.5 -27.5t-46 -10.5q-20 0 -40.5 5.5
t-40.5 12.5q-18 6 -35.5 10.5t-35.5 4.5q-38 0 -48 -36h-64q2 25 12 47.5t26.5 39t39 26.5t48.5 10q20 0 39.5 -5.5t39.5 -12.5q19 -7 37 -12t36 -5q17 0 26 10.5t13 27.5h67v0z" />
    <glyph glyph-name="udieresis.sc" horiz-adv-x="657" 
d="M591 228q0 -240 -265 -240q-60 0 -108.5 12.5t-82 41t-51.5 74t-18 112.5v318h149v-320q0 -30 4.5 -55t17.5 -44t35.5 -29.5t57.5 -10.5t57.5 11t35.5 30.5t18 45t5 55.5v317h145v-318v0zM380 649v117h133v-117h-133zM144 649v117h132v-117h-132z" />
    <glyph glyph-name="umacron.sc" horiz-adv-x="657" 
d="M591 228q0 -240 -265 -240q-60 0 -108.5 12.5t-82 41t-51.5 74t-18 112.5v318h149v-320q0 -30 4.5 -55t17.5 -44t35.5 -29.5t57.5 -10.5t57.5 11t35.5 30.5t18 45t5 55.5v317h145v-318v0zM161 669v69h334v-69h-334z" />
    <glyph glyph-name="ubreve.sc" horiz-adv-x="657" 
d="M591 228q0 -240 -265 -240q-60 0 -108.5 12.5t-82 41t-51.5 74t-18 112.5v318h149v-320q0 -30 4.5 -55t17.5 -44t35.5 -29.5t57.5 -10.5t57.5 11t35.5 30.5t18 45t5 55.5v317h145v-318v0zM497 763q-8 -73 -53.5 -104t-115.5 -31q-35 0 -65 8t-52.5 24.5t-36 42
t-14.5 60.5h59q3 -20 14.5 -32t27.5 -19.5t33.5 -10t34.5 -2.5q38 0 67.5 12.5t43.5 51.5h57v0z" />
    <glyph glyph-name="uring.sc" horiz-adv-x="657" 
d="M591 228q0 -240 -265 -240q-60 0 -108.5 12.5t-82 41t-51.5 74t-18 112.5v318h149v-320q0 -30 4.5 -55t17.5 -44t35.5 -29.5t57.5 -10.5t57.5 11t35.5 30.5t18 45t5 55.5v317h145v-318v0zM224 716q0 22 8 40.5t22.5 32.5t33.5 22t40 8t40 -8t33.5 -22t22.5 -32.5t8 -40.5
t-8 -40.5t-22.5 -32.5t-33.5 -22t-40 -8t-40 8t-33.5 22t-22.5 32.5t-8 40.5zM276 716q0 -23 14.5 -39.5t37.5 -16.5t37.5 16.5t14.5 39.5t-14.5 39.5t-37.5 16.5t-37.5 -16.5t-14.5 -39.5z" />
    <glyph glyph-name="uhungarumlaut.sc" horiz-adv-x="657" 
d="M591 228q0 -240 -265 -240q-60 0 -108.5 12.5t-82 41t-51.5 74t-18 112.5v318h149v-320q0 -30 4.5 -55t17.5 -44t35.5 -29.5t57.5 -10.5t57.5 11t35.5 30.5t18 45t5 55.5v317h145v-318v0zM477 631h-103l106 144h161zM241 631h-102l105 144h161z" />
    <glyph glyph-name="uogonek.sc" horiz-adv-x="657" 
d="M407 -181q-23 -11 -43 -17t-45 -6q-18 0 -34.5 4t-30 13t-21.5 23.5t-8 34.5q0 40 25 68.5t59 48.5q-57 1 -102 14.5t-76.5 42t-48 73.5t-16.5 110v318h149v-320q0 -30 4.5 -55t17.5 -44t35.5 -29.5t57.5 -10.5t57.5 11t35.5 30.5t18 45t5 55.5v317h145v-318
q0 -213 -209 -236q-34 -18 -55 -39t-21 -51q0 -26 14.5 -39.5t39.5 -13.5q22 0 44 11l3 -41v0z" />
    <glyph glyph-name="wacute.sc" horiz-adv-x="917" 
d="M746 0h-164l-120 416l-124 -416h-164l-163 546h150l103 -413l119 413h165l116 -413l100 413h142zM497 630h-101l104 145h161z" />
    <glyph glyph-name="wcircumflex.sc" horiz-adv-x="917" 
d="M746 0h-164l-120 416l-124 -416h-164l-163 546h150l103 -413l119 413h165l116 -413l100 413h142zM538 630l-79 87l-80 -87h-101l113 146h136l112 -146h-101z" />
    <glyph glyph-name="wdieresis.sc" horiz-adv-x="917" 
d="M746 0h-164l-120 416l-124 -416h-164l-163 546h150l103 -413l119 413h165l116 -413l100 413h142zM510 649v117h133v-117h-133zM274 649v117h132v-117h-132z" />
    <glyph glyph-name="wgrave.sc" horiz-adv-x="917" 
d="M746 0h-164l-120 416l-124 -416h-164l-163 546h150l103 -413l119 413h165l116 -413l100 413h142zM438 630l-166 145h164l100 -145h-98z" />
    <glyph glyph-name="yacute.sc" horiz-adv-x="575" 
d="M361 213v-213h-146v213l-227 333h168l137 -235l138 235h156zM316 630h-101l104 145h161z" />
    <glyph glyph-name="ycircumflex.sc" horiz-adv-x="575" 
d="M361 213v-213h-146v213l-227 333h168l137 -235l138 235h156zM367 630l-79 87l-80 -87h-101l113 146h136l112 -146h-101z" />
    <glyph glyph-name="ydieresis.sc" horiz-adv-x="575" 
d="M361 213v-213h-146v213l-227 333h168l137 -235l138 235h156zM339 649v117h133v-117h-133zM103 649v117h132v-117h-132z" />
    <glyph glyph-name="ygrave.sc" horiz-adv-x="575" 
d="M361 213v-213h-146v213l-227 333h168l137 -235l138 235h156zM271 630l-166 145h164l100 -145h-98z" />
    <glyph glyph-name="zacute.sc" horiz-adv-x="536" 
d="M23 0v100l303 351h-284v95h460v-94l-317 -358h328v-94h-490zM296 630h-101l104 145h161z" />
    <glyph glyph-name="zcaron.sc" horiz-adv-x="536" 
d="M23 0v100l303 351h-284v95h460v-94l-317 -358h328v-94h-490zM335 630h-136l-112 145h98l83 -89l80 89h100z" />
    <glyph glyph-name="zdotaccent.sc" horiz-adv-x="536" 
d="M23 0v100l303 351h-284v95h460v-94l-317 -358h328v-94h-490zM202 649v117h132v-117h-132z" />
    <glyph glyph-name="ij.sc" horiz-adv-x="786" 
d="M73 0v546h146v-546h-146zM720 175q0 -96 -55 -141.5t-158 -45.5q-38 0 -75 8.5t-65.5 27t-46 47t-17.5 67.5q0 8 0.5 15t1.5 12h149q-1 -8 -1 -13v-11q0 -26 15 -40t41 -14q20 0 33 7t20 19t9.5 27.5t2.5 33.5v372h146v-371v0z" />
    <glyph glyph-name="germandbls.sc" horiz-adv-x="1148" 
d="M1105 164q0 -47 -19.5 -80.5t-53 -54.5t-79.5 -31t-98 -10q-53 0 -96.5 10.5t-75.5 33t-49.5 57.5t-17.5 84h146q0 -44 26.5 -67.5t73.5 -23.5q45 0 71 17t26 51q0 11 -4.5 20t-16.5 17.5t-32 16t-51 15.5l-46 12q-39 10 -72 23t-56.5 31.5t-36.5 44.5t-13 62
q0 43 17.5 74t48 51.5t72 30.5t90.5 10t91 -9.5t72.5 -30t48 -52t17.5 -74.5h-145q0 37 -21.5 57t-62.5 20q-40 0 -62 -17t-22 -46q0 -25 24.5 -39.5t79.5 -28.5l46 -12q49 -13 83 -28t55.5 -34t31.5 -43.5t10 -56.5zM531 164q0 -47 -19.5 -80.5t-53 -54.5t-79.5 -31
t-98 -10q-53 0 -96.5 10.5t-75.5 33t-49.5 57.5t-17.5 84h146q0 -44 26.5 -67.5t73.5 -23.5q45 0 71 17t26 51q0 11 -4.5 20t-16.5 17.5t-32 16t-51 15.5l-46 12q-39 10 -72 23t-56.5 31.5t-36.5 44.5t-13 62q0 43 17.5 74t48 51.5t72 30.5t90.5 10t91 -9.5t72.5 -30t48 -52
t17.5 -74.5h-145q0 37 -21.5 57t-62.5 20q-40 0 -62 -17t-22 -46q0 -25 24.5 -39.5t79.5 -28.5l46 -12q49 -13 83 -28t55.5 -34t31.5 -43.5t10 -56.5z" />
    <glyph glyph-name="eng.sc" horiz-adv-x="656" 
d="M458 -5l-260 421v-416h-125v546h182l203 -340v340h125v-554q0 -53 -11 -88.5t-32.5 -56.5t-54 -30t-75.5 -9q-13 0 -32 0.5t-35 1.5v100q9 -1 15.5 -1.5t14.5 -0.5q42 0 63.5 14.5t21.5 51.5v21z" />
    <glyph glyph-name="grave.sc" horiz-adv-x="319" 
d="M149 630l-166 145h164l100 -145h-98z" />
    <glyph glyph-name="acute.sc" horiz-adv-x="319" 
d="M173 630h-101l104 145h161z" />
    <glyph glyph-name="circumflex.sc" horiz-adv-x="319" 
d="M239 630l-79 87l-80 -87h-101l113 146h136l112 -146h-101z" />
    <glyph glyph-name="caron.sc" horiz-adv-x="319" 
d="M227 630h-136l-112 145h98l83 -89l80 89h100z" />
    <glyph glyph-name="tilde.sc" horiz-adv-x="320" 
d="M352 766q-3 -23 -12.5 -45.5t-25 -39.5t-36.5 -27.5t-46 -10.5q-20 0 -40.5 5.5t-40.5 12.5q-18 6 -35.5 10.5t-35.5 4.5q-38 0 -48 -36h-64q2 25 12 47.5t26.5 39t39 26.5t48.5 10q20 0 39.5 -5.5t39.5 -12.5q19 -7 37 -12t36 -5q17 0 26 10.5t13 27.5h67v0z" />
    <glyph glyph-name="dieresis.sc" horiz-adv-x="319" 
d="M211 649v117h133v-117h-133zM-25 649v117h132v-117h-132z" />
    <glyph glyph-name="macron.sc" horiz-adv-x="308" 
d="M-13 669v69h334v-69h-334z" />
    <glyph glyph-name="breve.sc" horiz-adv-x="320" 
d="M329 763q-8 -73 -53.5 -104t-115.5 -31q-35 0 -65 8t-52.5 24.5t-36 42t-14.5 60.5h59q3 -20 14.5 -32t27.5 -19.5t33.5 -10t34.5 -2.5q38 0 67.5 12.5t43.5 51.5h57v0z" />
    <glyph glyph-name="ring.sc" horiz-adv-x="318" 
d="M55 716q0 22 8 40.5t22.5 32.5t33.5 22t40 8t40 -8t33.5 -22t22.5 -32.5t8 -40.5t-8 -40.5t-22.5 -32.5t-33.5 -22t-40 -8t-40 8t-33.5 22t-22.5 32.5t-8 40.5zM107 716q0 -23 14.5 -39.5t37.5 -16.5t37.5 16.5t14.5 39.5t-14.5 39.5t-37.5 16.5t-37.5 -16.5t-14.5 -39.5
z" />
    <glyph glyph-name="hungarumlaut.sc" horiz-adv-x="319" 
d="M299 631h-103l106 144h161zM63 631h-102l105 144h161z" />
    <glyph glyph-name="dotaccent.sc" horiz-adv-x="320" 
d="M94 649v117h132v-117h-132z" />
    <glyph glyph-name="exclamdown.sc" horiz-adv-x="295" 
d="M91.9941 374.978h110.993l22.999 -374.978h-156.99zM214.987 545.967v-122.992h-133.992v122.992h133.992z" />
    <glyph glyph-name="questiondown.sc" horiz-adv-x="456" 
d="M47.9971 127.992q0 21.999 7.5 41.4971q7.49902 19.499 22.498 38.498t37.498 38.998q22.498 19.998 53.4961 43.9971q10 7.99902 16.999 13.999q7 6 11.5 12.999q4.49902 7 6.49902 15.999q2 9 2 22.999v17.999h117.993v-32.998q0 -14.999 -3 -25.999
q-3 -10.999 -10.499 -21.498q-7.5 -10.5 -19.999 -21.999t-30.498 -28.498q-24.999 -21.999 -45.9971 -44.9971q-20.999 -22.999 -20.999 -51.9971q0 -20.999 8.99902 -34.498q9 -13.499 22.999 -21.999q13.999 -8.49902 32.498 -11.999t36.498 -3.5
q39.9971 0 93.9941 14.999v-89.9941q-31.998 -5 -62.4961 -8.49902q-30.498 -3.5 -59.4971 -3.5q-38.9971 0 -77.9951 5.49902q-38.9971 5.5 -69.9951 20.999t-50.4971 42.9971q-19.499 27.499 -19.499 70.4961zM332.979 545.967v-122.992h-133.991v122.992h133.991z" />
    <glyph glyph-name="Euro.sc" horiz-adv-x="530" 
d="M107 371q19 97 84.5 142t162.5 45q57 0 94.5 -14.5t53.5 -23.5l-29 -102q-19 18 -48 33t-68 15q-23 0 -41.5 -4t-33 -14.5t-24.5 -29t-14 -47.5h208l-19 -70h-192v-45h179l-20 -70h-157q3 -24 9 -43.5t19 -33.5t33 -21.5t51 -7.5q35 0 64.5 14t58.5 37v-115
q-22 -13 -53.5 -20.5t-74.5 -7.5q-61 0 -104.5 12.5t-73 37t-46 61.5t-22.5 87h-74l20 70h51v43v2h-71l20 70h57z" />
    <glyph glyph-name="cent.sc" horiz-adv-x="530" 
d="M362 462q54 -16 82.5 -52t33.5 -87h-137q0 25 -8 44l-68 -221q2 -1 5.5 -1h6.5q35 0 48.5 23t15.5 58h139q0 -44 -18 -74t-46.5 -48.5t-65 -26.5t-73.5 -8q-9 0 -18 0.5t-18 1.5l-25 -83l-52 14l23 79q-59 19 -94 65t-35 121q0 47 15 85t44 65t70 41.5t94 14.5
q7 0 13.5 -0.5t13.5 -0.5l25 79l52 -13zM200 272q0 -30 4 -54t13 -41l68 220h-8q-24 0 -39.5 -12t-23.5 -30.5t-11 -40.5t-3 -42z" />
    <glyph glyph-name="sterling.sc" horiz-adv-x="530" 
d="M369 399q-1 35 -14.5 57t-48.5 22q-44 0 -59 -33.5t-15 -92.5v-15h120v-81h-120v-172h250v-84h-441v84h54v172h-69v81h69v13q0 46 12.5 84.5t38.5 66t66 43t96 15.5q44 0 80 -8t62 -27t40.5 -49.5t15.5 -75.5h-137z" />
    <glyph glyph-name="florin.sc" horiz-adv-x="530" 
d="M354 342h84l-17 -81h-83l-39 -205q-9 -48 -21 -83.5t-31.5 -59t-48.5 -35.5t-73 -12q-31 0 -74 8l17 87q20 -4 32 -4q26 0 37.5 16.5t16.5 39.5l49 248h-78l16 81h79l8 41q8 40 18 72t27.5 55t45 35.5t71.5 12.5q18 0 38.5 -2t43.5 -6l-16 -90q-21 6 -34 6q-44 0 -56 -63
z" />
    <glyph glyph-name="yen.sc" horiz-adv-x="530" 
d="M369 278h97v-70h-135v-45h135v-70h-135v-93h-136v93h-135v70h135v45h-135v70h100l-158 268h155l114 -233l117 233h141z" />
    <glyph glyph-name="perthousand.sc" horiz-adv-x="819" 
d="M152 -20h-83l332 589h81zM254 428q0 -27 -6.5 -51t-21 -41.5t-36.5 -27.5t-52 -10t-52 10t-36.5 27.5t-21 41.5t-6.5 51t6.5 51t21 42t36.5 28t52 10t52 -10t36.5 -28t21 -42t6.5 -51zM180 428q0 34 -10 54t-32 20t-32 -20t-10 -54t10 -53.5t32 -19.5t32 19.5t10 53.5z
M531 122q0 -27 -6.5 -51t-21 -41.5t-36.5 -27.5t-52 -10t-52 10t-36.5 27.5t-21 41.5t-6.5 51t6.5 51t21 42t36.5 28t52 10t52 -10t36.5 -28t21 -42t6.5 -51zM457 122q0 34 -10 54t-32 20t-32 -20t-10 -54t10 -53.5t32 -19.5t32 19.5t10 53.5zM801 122q0 -27 -6.5 -51
t-21 -41.5t-36.5 -27.5t-52 -10t-52 10t-36.5 27.5t-21 41.5t-6.5 51t6.5 51t21 42t36.5 28t52 10t52 -10t36.5 -28t21 -42t6.5 -51zM727 122q0 34 -10 54t-32 20t-32 -20t-10 -54t10 -53.5t32 -19.5t32 19.5t10 53.5z" />
    <glyph glyph-name="parenleft.sc" horiz-adv-x="300" 
d="M66 271q0 43 8 85t21.5 83t30.5 82t36 82h100q-17 -49 -30 -91t-23 -81t-15 -78t-5 -82t5 -82t15 -78t23 -81t30 -91h-100q-19 41 -36 81.5t-30.5 82t-21.5 83.5t-8 85z" />
    <glyph glyph-name="parenright.sc" horiz-adv-x="300" 
d="M234 271q0 -43 -8 -85t-21.5 -83.5t-30.5 -82t-36 -81.5h-100q16 49 29.5 91t23.5 81t15 78t5 82t-5 82t-15 78t-23.5 81t-29.5 91h100q19 -41 36 -82t30.5 -82t21.5 -83t8 -85z" />
    <glyph glyph-name="bracketleft.sc" horiz-adv-x="319" 
d="M72 -61v664h205v-71h-96v-521h96v-72h-205z" />
    <glyph glyph-name="bracketright.sc" horiz-adv-x="319" 
d="M42 -61v72h96v521h-96v71h205v-664h-205z" />
    <glyph glyph-name="braceleft.sc" horiz-adv-x="338" 
d="M122 270q30 -7 50 -19t31.5 -29t16 -40t4.5 -52v-26q0 -55 20 -77t70 -24v-64q-58 2 -97 12.5t-63 30.5t-34 49.5t-10 69.5v34q0 25 -3.5 43t-14 30.5t-30 20t-50.5 10.5v64q31 3 50.5 10.5t30 20t14 30.5t3.5 43v34q0 40 10 69.5t34 49.5t63 30.5t97 12.5v-64
q-50 -2 -70 -24t-20 -77v-26q0 -58 -20.5 -93t-81.5 -49z" />
    <glyph glyph-name="braceright.sc" horiz-adv-x="338" 
d="M216 270q-61 14 -81.5 49t-20.5 93v26q0 55 -20 77t-70 24v64q58 -2 97 -12.5t63 -30.5t34 -49.5t10 -69.5v-34q0 -25 3.5 -43t14 -30.5t30 -20t50.5 -10.5v-64q-31 -3 -50.5 -10.5t-30 -20t-14 -30.5t-3.5 -43v-34q0 -40 -10 -69.5t-34 -49.5t-63 -30.5t-97 -12.5v64
q50 2 70 24t20 77v26q0 29 4.5 52t16 40t31.5 29t50 19z" />
    <glyph glyph-name="zero.onum" 
d="M599 275q0 -63 -19.5 -116t-56.5 -91t-89.5 -59t-119.5 -21t-120 21t-89.5 59t-56 91t-19.5 116t19.5 116t56 91t89.5 59t120 21t119.5 -21t89.5 -59t56.5 -91t19.5 -116zM448 275q0 36 -7 69.5t-23 59t-41.5 41t-62.5 15.5t-62.5 -15.5t-41.5 -41t-23 -59t-7 -69.5
t7 -69.5t23 -59t41.5 -41t62.5 -15.5t62.5 15.5t41.5 41t23 59t7 69.5z" />
    <glyph glyph-name="one.onum" 
d="M285 0v416q-35 -29 -85.5 -50.5t-98.5 -32.5v113q50 17 103.5 40.5t102.5 65.5h126v-552h-148z" />
    <glyph glyph-name="two.onum" 
d="M58 0v110l151 88q63 37 103.5 64.5t63 49.5t31 39t8.5 34q0 36 -21.5 59t-65.5 23q-49 0 -74.5 -25t-27.5 -72h-151q1 52 22 88.5t56 60t81.5 34.5t99.5 11q45 0 86.5 -10.5t73.5 -32.5t51.5 -54.5t19.5 -76.5q0 -66 -58.5 -124t-173.5 -120l-67 -36h304v-110h-512z" />
    <glyph glyph-name="three.onum" 
d="M574 48q0 -45 -20 -83t-55 -65.5t-83 -43t-104 -15.5q-53 0 -99 10.5t-81 34.5t-56 63.5t-25 97.5h149q2 -56 32.5 -79.5t80.5 -23.5q53 0 82.5 29.5t29.5 82.5q0 51 -30 79.5t-104 28.5q-12 0 -24.5 -1t-24.5 -2v101q10 -1 19.5 -1.5t19.5 -0.5q63 0 97.5 25t34.5 81
q0 40 -20.5 68t-71.5 28q-43 0 -73.5 -22.5t-30.5 -75.5h-153q0 51 22 88.5t58 62t81.5 37t92.5 12.5t91 -9.5t77.5 -31.5t53.5 -59t20 -91q0 -25 -8 -49t-23.5 -45t-39.5 -37t-57 -25q64 -13 103 -53.5t39 -115.5z" />
    <glyph glyph-name="four.onum" 
d="M494 0v-147h-140v147h-312v130l279 422h173v-450h111v-102h-111zM356 426l-209 -325h209v325z" />
    <glyph glyph-name="five.onum" 
d="M578 95q0 -62 -19 -109t-52.5 -79.5t-80.5 -49t-102 -16.5q-50 0 -96 9.5t-81 32t-56 59.5t-21 93h149q2 -48 29.5 -69.5t72.5 -21.5q30 0 50.5 11.5t33.5 31t18.5 46t5.5 57.5t-5 56t-17 43t-31.5 27.5t-47.5 9.5q-37 0 -64.5 -21t-34.5 -61h-148l16 408h450v-107h-317
l-11 -202q57 85 153 85q51 0 89.5 -17.5t64.5 -49t39 -74t13 -92.5z" />
    <glyph glyph-name="six.onum" 
d="M584 240q0 -59 -20 -105.5t-54.5 -79t-81.5 -50t-102 -17.5q-80 0 -133.5 28.5t-85.5 77t-45 113.5t-13 139q0 73 13.5 141.5t46 120.5t87 83.5t135.5 31.5q115 0 172.5 -50.5t57.5 -138.5h-144q0 51 -23.5 71t-66.5 20q-39 0 -65.5 -20.5t-42 -55.5t-22.5 -81.5
t-7 -97.5q31 54 72.5 77.5t101.5 23.5q47 0 87.5 -15.5t70 -45.5t46 -73t16.5 -97zM445 234q0 60 -28 99.5t-88 39.5q-35 0 -58.5 -11t-37.5 -30.5t-20.5 -45t-6.5 -55.5q0 -60 30 -99t90 -39q61 0 90 40t29 101z" />
    <glyph glyph-name="seven.onum" 
d="M300 -147h-162l279 587h-364v112h503v-117z" />
    <glyph glyph-name="eight.onum" 
d="M584 198q0 -56 -23 -96t-60 -65.5t-84 -37t-96 -11.5q-48 0 -97 9t-88.5 32.5t-65 63t-25.5 99.5q0 40 13.5 70.5t37 52.5t55 36t67.5 21q-12 1 -37.5 8t-51 25t-44.5 48.5t-19 77.5q0 55 23 92t59.5 59t81 31.5t87.5 9.5q42 0 85.5 -9t79.5 -30.5t59 -57.5t23 -90
q0 -65 -42 -107.5t-105 -56.5q12 -1 39.5 -8.5t56 -26.5t50 -52.5t21.5 -86.5zM427 523q0 51 -31 78.5t-79 27.5t-81 -26.5t-33 -78.5q0 -51 32 -77t81 -26q47 0 79 27t32 75zM443 207q0 59 -38 88t-92 29q-26 0 -49 -7.5t-40 -22t-27 -36.5t-10 -50q0 -58 36.5 -89
t90.5 -31q27 0 50.5 8t41 23t27.5 37t10 51z" />
    <glyph glyph-name="nine.onum" 
d="M574 213q0 -89 -15.5 -158t-49.5 -116.5t-87.5 -72.5t-129.5 -25q-117 0 -177.5 47.5t-60.5 137.5h150q2 -37 22.5 -58.5t69.5 -21.5q40 0 66.5 15t42.5 45.5t23 77t7 109.5q-15 -23 -30.5 -40t-34.5 -28t-43 -16t-56 -5q-50 0 -90 15.5t-68.5 44.5t-44 70.5t-15.5 94.5
t18.5 96.5t52 74t79.5 47.5t102 17q79 0 131 -27.5t82.5 -74.5t43 -111.5t12.5 -137.5zM420 333q0 60 -28 94t-85 34q-58 0 -86.5 -37t-28.5 -91q0 -28 6.5 -52t20 -42t34 -28t49.5 -10q60 0 89 37t29 95z" />
    <glyph glyph-name="zero.scprop" horiz-adv-x="530" 
d="M494 274q0 -53 -11 -104t-37 -91.5t-70 -65.5t-110 -25q-65 0 -109 25t-71 65.5t-38.5 91.5t-11.5 104t11.5 104t38.5 91t71 64.5t109 24.5q66 0 110 -24.5t70 -65t37 -91.5t11 -103zM354 274q0 102 -20 148t-66 46q-49 0 -70 -45t-21 -149q0 -105 21 -150.5t70 -45.5
q46 0 66 46.5t20 149.5z" />
    <glyph glyph-name="one.scprop" horiz-adv-x="470" 
d="M200 0v416q-26 -19 -60.5 -35t-69.5 -28v104q25 8 45 16.5t37.5 19t34 23.5t36.5 30h116v-546h-139z" />
    <glyph glyph-name="two.scprop" horiz-adv-x="530" 
d="M44 0v94l126 94q51 38 83 67t50.5 54t25 46.5t6.5 44.5q0 32 -17.5 50.5t-50.5 18.5q-34 0 -52.5 -22.5t-19.5 -59.5h-141q1 46 19.5 79t49 53t69.5 29.5t81 9.5q41 0 78 -9.5t65 -28.5t44.5 -48t16.5 -69q0 -38 -13 -70.5t-39 -64t-64.5 -64t-90.5 -70.5l-57 -42h267
v-92h-436z" />
    <glyph glyph-name="three.scprop" horiz-adv-x="530" 
d="M494 150q0 -46 -21.5 -77t-55 -50t-74.5 -27t-81 -8q-44 0 -84 8.5t-71 28t-50.5 52t-22.5 81.5h141q1 -42 26 -62t60 -20q41 0 67 21.5t26 61.5q0 24 -10.5 39.5t-26.5 24.5t-36 12.5t-39 3.5q-11 0 -26 -0.5t-24 -2.5v87q9 -1 21.5 -1.5t20.5 -0.5q22 0 42 3.5t35 12.5
t24 24t9 37q0 35 -21.5 54t-58.5 19q-12 0 -25.5 -4t-24.5 -12.5t-18.5 -23t-7.5 -35.5h-143q0 43 21 74t53.5 50.5t72 28.5t75.5 9t74 -8t69.5 -25.5t51.5 -46t20 -70.5q0 -47 -28.5 -79t-76.5 -45q52 -13 84.5 -45t32.5 -89z" />
    <glyph glyph-name="four.scprop" horiz-adv-x="530" 
d="M424 116v-116h-132v116h-263v102l240 328h155v-344h88v-86h-88zM130 201h166v232z" />
    <glyph glyph-name="five.scprop" horiz-adv-x="530" 
d="M491 189q0 -49 -16.5 -86.5t-46 -63t-70.5 -38.5t-90 -13q-42 0 -80.5 7.5t-68 26t-47.5 49.5t-18 78h139q2 -36 22 -54t52 -18q39 0 61 27t22 81q0 39 -19 69t-59 30q-26 0 -46.5 -15.5t-25.5 -44.5h-138l13 322h385v-90h-259l-6 -127q22 21 50.5 31.5t61.5 10.5
q43 0 77 -14t58 -39t36.5 -58t12.5 -71z" />
    <glyph glyph-name="six.scprop" horiz-adv-x="530" 
d="M494 184q0 -44 -17 -80.5t-46.5 -62t-69.5 -39.5t-85 -14q-50 0 -87.5 13t-65 36t-45 54.5t-26.5 68.5q-12 49 -12 107q0 55 12 107.5t40 93.5t74 65.5t114 24.5q40 0 75.5 -9t62.5 -27.5t42.5 -48t15.5 -70.5h-136q0 37 -17.5 54.5t-46.5 17.5q-28 0 -46.5 -15
t-30 -38.5t-17 -51.5t-7.5 -54q24 26 56.5 37.5t74.5 11.5q40 0 74 -12.5t59.5 -36t40 -57t14.5 -75.5zM363 180q0 42 -20.5 72t-64.5 30q-25 0 -42.5 -8.5t-28.5 -23t-16 -33t-5 -39.5q0 -43 23.5 -72.5t66.5 -29.5q44 0 65.5 30.5t21.5 73.5z" />
    <glyph glyph-name="seven.scprop" horiz-adv-x="490" 
d="M244 0h-158l230 452h-289v94h429v-93z" />
    <glyph glyph-name="eight.scprop" horiz-adv-x="530" 
d="M494 153q0 -46 -19.5 -77.5t-51.5 -51t-72 -28t-80 -8.5t-81.5 7.5t-75.5 26t-56 49.5t-22 77q0 57 35 90t86 47q-15 4 -33.5 12.5t-34 23t-26 36t-10.5 50.5q0 42 19.5 71t50 46.5t68.5 25.5t76 8q36 0 74 -7.5t68.5 -24.5t50.5 -45.5t20 -70.5q0 -48 -29.5 -79
t-74.5 -45q16 -4 36.5 -13t38.5 -24.5t30.5 -39t12.5 -56.5zM348 399q0 37 -23.5 57.5t-57.5 20.5t-59 -19.5t-25 -57.5t24 -55.5t59 -17.5q33 0 57.5 18t24.5 54zM361 159q0 22 -8 38t-21.5 26.5t-31 15.5t-36.5 5q-38 0 -66 -21t-28 -63t28 -64.5t66 -22.5q19 0 36.5 5.5
t31 16.5t21.5 27t8 37z" />
    <glyph glyph-name="nine.scprop" horiz-adv-x="530" 
d="M490 283q0 -58 -10.5 -111.5t-37.5 -94t-73.5 -65t-118.5 -24.5q-98 0 -155.5 40t-57.5 113h139q0 -62 74 -62q33 0 52.5 15t31 38.5t15.5 52t5 55.5q-22 -23 -51 -33t-74 -10q-42 0 -77 12.5t-61 35t-40.5 55t-14.5 72.5q0 43 16.5 77.5t45.5 58.5t70 37t89 13
q43 0 76.5 -9t59 -25.5t43.5 -40t29 -51.5q14 -32 19.5 -70t5.5 -79zM346 376q0 42 -23 68.5t-64 26.5q-45 0 -68 -26t-23 -69q0 -41 22.5 -68.5t64.5 -27.5t66.5 26t24.5 70z" />
    <glyph glyph-name="zero.prop" 
d="M589 368q0 -72 -13.5 -140.5t-45.5 -122t-85 -86t-133 -32.5t-132.5 33t-83.5 87t-44 122.5t-13 139.5q0 70 14 137t46 119t85 84t131 32q79 0 132 -32t84.5 -84t44.5 -119.5t13 -137.5zM439 359q0 22 -0.5 51.5t-4.5 60.5t-11 61t-21 53t-34.5 37.5t-50.5 14.5
q-32 0 -53.5 -14.5t-35.5 -38t-21.5 -53t-11.5 -61t-4.5 -61t-0.5 -52.5q0 -32 2.5 -77.5t14.5 -87t36.5 -71t68.5 -29.5q30 0 51 13.5t35 35.5t22.5 50.5t12.5 58t5 58t1 51.5z" />
    <glyph glyph-name="one.prop" horiz-adv-x="498" 
d="M213 0v579q-35 -32 -77 -55.5t-87 -39.5v123q30 10 54 21.5t45.5 25t42 30.5t44.5 39h126v-723h-148z" />
    <glyph glyph-name="two.prop" 
d="M44 0v119q24 19 60.5 48t77 64t81 74t73 78.5t52.5 78t20 72.5q0 47 -26.5 74t-70.5 27q-49 0 -75.5 -30.5t-28.5 -81.5h-151q1 59 23.5 100.5t59 67.5t83 38t96.5 12q45 0 88.5 -12t78 -37t56 -62.5t21.5 -89.5q0 -43 -17.5 -84.5t-46 -81t-65 -76t-74.5 -70
t-74.5 -63.5t-65.5 -55h347v-110h-522z" />
    <glyph glyph-name="three.prop" 
d="M580 199q0 -60 -25.5 -101t-66 -65.5t-90 -35t-97.5 -10.5q-53 0 -101 10.5t-85 35.5t-60 66t-27 103h150q2 -56 37 -83.5t85 -27.5q26 0 49.5 7.5t41.5 22.5t28.5 37.5t10.5 52.5q0 34 -14 56t-36.5 35t-49.5 18t-54 5q-12 0 -24.5 -1t-24.5 -2v101q10 -1 19.5 -1.5
t19.5 -0.5q27 0 54 4.5t48.5 17t35.5 34.5t14 56q0 25 -9.5 45t-25.5 33t-36.5 20t-42.5 7q-17 0 -36.5 -5t-35.5 -17t-26.5 -31.5t-10.5 -47.5h-154q0 54 25 93t64 63.5t86 36t91 11.5q43 0 89 -10t83.5 -33t61.5 -60.5t24 -91.5q0 -35 -11.5 -63.5t-32 -50t-48.5 -35.5
t-62 -19q37 -6 68 -19t53.5 -35t35 -53t12.5 -72z" />
    <glyph glyph-name="four.prop" 
d="M500 157v-157h-140v157h-332v130l299 436h173v-464h111v-102h-111zM132 258h230l2 349z" />
    <glyph glyph-name="five.prop" 
d="M580 248q0 -65 -19 -114t-53.5 -82t-82.5 -49.5t-107 -16.5q-50 0 -97.5 9.5t-84 32.5t-58.5 62t-22 98h149q2 -48 31.5 -72t74.5 -24q31 0 53.5 12.5t36.5 33t21 48t7 57.5q0 28 -6.5 53.5t-20 45t-35 31t-50.5 11.5q-37 0 -66 -20.5t-36 -60.5h-148l16 420h458v-107
h-325l-11 -214q57 85 157 85q51 0 91.5 -18.5t68.5 -51t43 -76t15 -93.5z" />
    <glyph glyph-name="six.prop" 
d="M593 245q0 -59 -20.5 -106.5t-56 -81t-83 -52t-102.5 -18.5q-80 0 -134.5 30t-87.5 81t-47 118t-14 141q0 73 14.5 142.5t48 123t89 86t136.5 32.5q48 0 90.5 -11t74.5 -35t50.5 -61t18.5 -88h-144q0 51 -26 74t-69 23q-45 0 -73 -27.5t-43 -67.5t-20.5 -85.5t-5.5 -81.5
q31 54 75.5 77.5t104.5 23.5q47 0 88 -16.5t71 -47.5t47.5 -75t17.5 -98zM454 239q0 30 -7 56.5t-22 46t-37.5 31t-53.5 11.5q-35 0 -59.5 -12t-40 -32.5t-22.5 -47t-7 -56.5t8.5 -56.5t24.5 -46t39.5 -30.5t53.5 -11q31 0 54 11.5t38.5 31.5t23 47t7.5 57z" />
    <glyph glyph-name="seven.prop" horiz-adv-x="588" 
d="M278 0h-172l290 611h-367v112h513v-117z" />
    <glyph glyph-name="eight.prop" 
d="M589 201q0 -60 -23.5 -101t-61.5 -66.5t-86 -36.5t-97 -11q-48 0 -98 10t-91 34t-67 64.5t-26 100.5q0 42 13.5 73t37 53.5t55 37t67.5 21.5q-12 1 -37.5 8.5t-51 26t-44.5 50t-19 79.5q0 55 23.5 92.5t60 61t82 33.5t90.5 10q43 0 88.5 -9.5t82.5 -32t60.5 -59.5
t23.5 -91q0 -36 -11.5 -64t-32 -49t-48 -35t-58.5 -21q12 -1 39.5 -9t56 -27.5t50.5 -54t22 -88.5zM432 534q0 54 -34 83.5t-82 29.5q-24 0 -45.5 -7t-38 -21.5t-26 -35.5t-9.5 -48q0 -28 9.5 -48t25.5 -33t37.5 -19t45.5 -6q23 0 44.5 6.5t37.5 19.5t25.5 33t9.5 46z
M448 210q0 31 -11 54t-30 38t-43.5 22.5t-51.5 7.5q-26 0 -50 -7.5t-42 -23t-28.5 -38t-10.5 -52.5t10.5 -53.5t28.5 -39.5t42 -24t51 -8t51 8t43 23.5t30 39t11 53.5z" />
    <glyph glyph-name="nine.prop" 
d="M585 377q0 -77 -12.5 -147.5t-45 -124.5t-88.5 -86.5t-143 -32.5q-58 0 -105 13t-80.5 37.5t-51.5 60t-18 81.5h150q1 -14 5 -28.5t15.5 -26.5t31.5 -20t53 -8q51 0 80 26.5t43.5 66t18 85.5t4.5 84q-29 -47 -68.5 -68t-103.5 -21q-50 0 -92 16.5t-72.5 46.5t-48 72.5
t-17.5 95.5q0 57 20.5 101.5t56.5 76t84 48t104 16.5q82 0 136 -29.5t86 -79t45 -116t13 -139.5zM431 503q0 60 -33 97.5t-91 37.5q-63 0 -95 -37t-32 -98q0 -29 8 -54.5t24 -44t38.5 -29t51.5 -10.5q60 0 94.5 37.5t34.5 100.5z" />
    <glyph glyph-name="Euro.prop" 
d="M123 335v1v68h-88l24 87h70q18 117 93 183.5t207 66.5q34 0 62 -5t50 -12.5t37.5 -15t24.5 -13.5l-32 -110q-17 19 -51 34t-88 15q-75 0 -110.5 -36.5t-44.5 -106.5h264l-24 -87h-244q0 -14 0.5 -31.5t0.5 -37.5h220l-24 -87h-195q6 -84 46 -119.5t109 -35.5
q48 0 81.5 13.5t59.5 36.5v-125q-23 -14 -59.5 -23t-87.5 -9q-144 0 -213.5 64t-83.5 198h-93l24 87h65z" />
    <glyph glyph-name="cent.prop" horiz-adv-x="618" 
d="M338 431q-4 1 -12 1q-36 0 -58.5 -16.5t-35 -42.5t-16.5 -57.5t-4 -60.5q0 -35 6.5 -74.5t27.5 -67.5zM565 181q0 -51 -21 -87.5t-55.5 -60t-78 -34.5t-88.5 -11q-24 0 -45 3l-32 -111l-61 17l31 107q-75 26 -115 88t-40 156q0 62 18 112t52.5 85.5t84 54.5t112.5 19
q9 0 18 -0.5t17 -1.5l31 107l61 -16l-29 -102q57 -18 93.5 -60.5t42.5 -114.5h-145q-1 21 -6 39t-15 31l-93 -323q5 -1 10 -1.5t11 -0.5q51 0 71 31t22 79h149v-5z" />
    <glyph glyph-name="dollar.prop" 
d="M285 -110v97q-59 3 -104 16.5t-75.5 39.5t-46 66t-15.5 96h142q0 -50 21.5 -80.5t77.5 -37.5v211q-59 14 -102 30.5t-71.5 40t-42 56t-13.5 78.5q0 49 17 85.5t47 61.5t72 39t93 17v99h70v-99q102 -7 154 -53.5t55 -145.5h-140q1 36 -15 62.5t-54 36.5v-202
q46 -11 87.5 -25t73 -36.5t50 -57.5t18.5 -87q0 -49 -17.5 -87t-48 -64t-72.5 -41t-91 -19v-97h-70zM438 188q0 38 -21 60.5t-62 33.5v-194q44 9 63.5 36.5t19.5 63.5zM201 516q0 -34 18.5 -58.5t65.5 -37.5v189q-45 -6 -64.5 -32t-19.5 -61z" />
    <glyph glyph-name="sterling.prop" 
d="M461 540q-1 48 -22 77.5t-73 29.5q-32 0 -53 -12t-33 -35t-16.5 -56t-4.5 -75v-24h151v-94h-151v-254h317v-97h-531v97h68v254h-87v94h87q0 65 13.5 119.5t44 93.5t79 61t118.5 22q53 0 96.5 -10t74.5 -33.5t48.5 -62t18.5 -95.5h-145z" />
    <glyph glyph-name="florin.prop" horiz-adv-x="578" 
d="M367 458h102l-18 -96h-101l-52 -290q-12 -65 -27 -111.5t-38 -75.5t-58 -42.5t-86 -13.5q-20 0 -39 2t-39 6l18 103q15 -3 29 -3q38 0 54.5 20.5t24.5 61.5l64 343h-97l18 96h97l11 59q9 49 21 91.5t33 74t54 49t85 17.5q23 0 45 -2t45 -6l-18 -106q-8 2 -17.5 3t-17.5 1
q-37 0 -53.5 -27t-26.5 -83z" />
    <glyph glyph-name="yen.prop" 
d="M429 361h129v-87h-172v-69h172v-87h-172v-118h-150v118h-171v87h171v69h-171v87h132l-197 362h170l151 -326l154 326h154z" />
    <glyph glyph-name="zero.onumprop" horiz-adv-x="646" 
d="M608 275q0 -63 -19.5 -116t-56.5 -91t-89.5 -59t-119.5 -21t-120 21t-89.5 59t-56 91t-19.5 116t19.5 116t56 91t89.5 59t120 21t119.5 -21t89.5 -59t56.5 -91t19.5 -116zM457 275q0 36 -7 69.5t-23 59t-41.5 41t-62.5 15.5t-62.5 -15.5t-41.5 -41t-23 -59t-7 -69.5
t7 -69.5t23 -59t41.5 -41t62.5 -15.5t62.5 15.5t41.5 41t23 59t7 69.5z" />
    <glyph glyph-name="one.onumprop" horiz-adv-x="508" 
d="M236 0v416q-35 -29 -85.5 -50.5t-98.5 -32.5v113q50 17 103.5 40.5t102.5 65.5h126v-552h-148z" />
    <glyph glyph-name="two.onumprop" 
d="M58 0v110l151 88q63 37 103.5 64.5t63 49.5t31 39t8.5 34q0 36 -21.5 59t-65.5 23q-49 0 -74.5 -25t-27.5 -72h-151q1 52 22 88.5t56 60t81.5 34.5t99.5 11q45 0 86.5 -10.5t73.5 -32.5t51.5 -54.5t19.5 -76.5q0 -66 -58.5 -124t-173.5 -120l-67 -36h304v-110h-512z" />
    <glyph glyph-name="three.onumprop" 
d="M574 48q0 -45 -20 -83t-55 -65.5t-83 -43t-104 -15.5q-53 0 -99 10.5t-81 34.5t-56 63.5t-25 97.5h149q2 -56 32.5 -79.5t80.5 -23.5q53 0 82.5 29.5t29.5 82.5q0 51 -30 79.5t-104 28.5q-12 0 -24.5 -1t-24.5 -2v101q10 -1 19.5 -1.5t19.5 -0.5q63 0 97.5 25t34.5 81
q0 40 -20.5 68t-71.5 28q-43 0 -73.5 -22.5t-30.5 -75.5h-153q0 51 22 88.5t58 62t81.5 37t92.5 12.5t91 -9.5t77.5 -31.5t53.5 -59t20 -91q0 -25 -8 -49t-23.5 -45t-39.5 -37t-57 -25q64 -13 103 -53.5t39 -115.5z" />
    <glyph glyph-name="four.onumprop" 
d="M494 0v-147h-140v147h-312v130l279 422h173v-450h111v-102h-111zM356 426l-209 -325h209v325z" />
    <glyph glyph-name="five.onumprop" 
d="M578 95q0 -62 -19 -109t-52.5 -79.5t-80.5 -49t-102 -16.5q-50 0 -96 9.5t-81 32t-56 59.5t-21 93h149q2 -48 29.5 -69.5t72.5 -21.5q30 0 50.5 11.5t33.5 31t18.5 46t5.5 57.5t-5 56t-17 43t-31.5 27.5t-47.5 9.5q-37 0 -64.5 -21t-34.5 -61h-148l16 408h450v-107h-317
l-11 -202q57 85 153 85q51 0 89.5 -17.5t64.5 -49t39 -74t13 -92.5z" />
    <glyph glyph-name="six.onumprop" 
d="M584 240q0 -59 -20 -105.5t-54.5 -79t-81.5 -50t-102 -17.5q-80 0 -133.5 28.5t-85.5 77t-45 113.5t-13 139q0 73 13.5 141.5t46 120.5t87 83.5t135.5 31.5q115 0 172.5 -50.5t57.5 -138.5h-144q0 51 -23.5 71t-66.5 20q-39 0 -65.5 -20.5t-42 -55.5t-22.5 -81.5
t-7 -97.5q31 54 72.5 77.5t101.5 23.5q47 0 87.5 -15.5t70 -45.5t46 -73t16.5 -97zM445 234q0 60 -28 99.5t-88 39.5q-35 0 -58.5 -11t-37.5 -30.5t-20.5 -45t-6.5 -55.5q0 -60 30 -99t90 -39q61 0 90 40t29 101z" />
    <glyph glyph-name="seven.onumprop" horiz-adv-x="598" 
d="M291 -147h-162l279 587h-364v112h503v-117z" />
    <glyph glyph-name="eight.onumprop" 
d="M584 198q0 -56 -23 -96t-60 -65.5t-84 -37t-96 -11.5q-48 0 -97 9t-88.5 32.5t-65 63t-25.5 99.5q0 40 13.5 70.5t37 52.5t55 36t67.5 21q-12 1 -37.5 8t-51 25t-44.5 48.5t-19 77.5q0 55 23 92t59.5 59t81 31.5t87.5 9.5q42 0 85.5 -9t79.5 -30.5t59 -57.5t23 -90
q0 -65 -42 -107.5t-105 -56.5q12 -1 39.5 -8.5t56 -26.5t50 -52.5t21.5 -86.5zM427 523q0 51 -31 78.5t-79 27.5t-81 -26.5t-33 -78.5q0 -51 32 -77t81 -26q47 0 79 27t32 75zM443 207q0 59 -38 88t-92 29q-26 0 -49 -7.5t-40 -22t-27 -36.5t-10 -50q0 -58 36.5 -89
t90.5 -31q27 0 50.5 8t41 23t27.5 37t10 51z" />
    <glyph glyph-name="nine.onumprop" 
d="M574 213q0 -89 -15.5 -158t-49.5 -116.5t-87.5 -72.5t-129.5 -25q-117 0 -177.5 47.5t-60.5 137.5h150q2 -37 22.5 -58.5t69.5 -21.5q40 0 66.5 15t42.5 45.5t23 77t7 109.5q-15 -23 -30.5 -40t-34.5 -28t-43 -16t-56 -5q-50 0 -90 15.5t-68.5 44.5t-44 70.5t-15.5 94.5
t18.5 96.5t52 74t79.5 47.5t102 17q79 0 131 -27.5t82.5 -74.5t43 -111.5t12.5 -137.5zM420 333q0 60 -28 94t-85 34q-58 0 -86.5 -37t-28.5 -91q0 -28 6.5 -52t20 -42t34 -28t49.5 -10q60 0 89 37t29 95z" />
    <glyph glyph-name="zero.numerator" horiz-adv-x="400" 
d="M372 515q0 -42 -8.5 -81.5t-28.5 -70.5t-53.5 -50t-83.5 -19t-82.5 19.5t-52 51t-27.5 71t-8 80.5q0 40 8.5 79t28.5 69.5t53 49t82 18.5t82.5 -18.5t53 -49t28 -69.5t8.5 -80zM271 510q0 18 -1.5 44t-8 49.5t-20.5 40t-39 16.5q-27 0 -42 -16.5t-21.5 -40t-8 -49.5
t-1.5 -45q0 -17 1.5 -41.5t8 -47t20.5 -38.5t39 -16q26 0 40.5 15.5t22 38t9 47.5t1.5 43z" />
    <glyph glyph-name="one.numerator" horiz-adv-x="400" 
d="M173 303v319q-25 -17 -47.5 -28t-51.5 -20v83q19 6 33.5 12t27.5 13.5t25.5 17t27.5 23.5h87v-420h-102z" />
    <glyph glyph-name="two.numerator" horiz-adv-x="400" 
d="M34 303v77l13 10q25 18 60.5 45t68 57t55.5 61t23 57q0 23 -15 36t-39 13q-27 0 -42 -16.5t-16 -45.5h-102q1 37 15 62.5t36.5 41.5t52 23.5t60.5 7.5t59 -7t49 -21.5t33.5 -37t12.5 -53.5q0 -27 -12.5 -54t-34.5 -53t-52 -52.5t-65 -53.5l-26 -20h193v-77h-327z" />
    <glyph glyph-name="three.numerator" horiz-adv-x="400" 
d="M371 420q0 -36 -16 -60t-41 -39t-56 -21t-61 -6q-33 0 -63.5 6.5t-53.5 21.5t-37.5 40.5t-17.5 63.5h102q1 -31 21 -45.5t48 -14.5q30 0 52 15t22 46q0 32 -26 44.5t-62 12.5q-19 0 -35 -3v72q6 -1 14.5 -1.5t14.5 -0.5q37 0 62 11.5t25 46.5q0 26 -17 39t-45 13
q-22 0 -42.5 -12.5t-20.5 -44.5h-104q0 34 16 58.5t40 40t53.5 22.5t56.5 7t56 -6t52.5 -19.5t38.5 -35.5t15 -55q0 -35 -18 -57t-56 -39q35 -11 59 -34.5t24 -65.5z" />
    <glyph glyph-name="four.numerator" horiz-adv-x="400" 
d="M319 391v-88h-95v88h-202v82l184 250h113v-262h67v-70h-67zM225 635l-123 -174h123v174z" />
    <glyph glyph-name="five.numerator" horiz-adv-x="400" 
d="M374 449q0 -77 -47 -116t-121 -39q-32 0 -61 5.5t-51.5 19.5t-36 38t-13.5 61h100q2 -27 19 -39.5t43 -12.5q35 0 50.5 24t15.5 56q0 29 -15 51t-47 22q-21 0 -37 -10.5t-24 -31.5h-100l11 246h291v-73h-201l-5 -99q30 39 92 39q32 0 57.5 -11t43 -30t27 -45t9.5 -55z
" />
    <glyph glyph-name="six.numerator" horiz-adv-x="400" 
d="M374 446q0 -35 -12.5 -63t-35 -47.5t-52.5 -30.5t-64 -11q-50 0 -84 17.5t-54.5 47t-29.5 68.5t-9 82t9 83t30 71t55.5 50t85.5 19q60 0 101 -27.5t46 -87.5h-97q-6 46 -53 46q-23 0 -38 -12t-24 -30t-13.5 -39.5t-5.5 -41.5q20 24 46 34.5t58 10.5q30 0 55.5 -10
t44.5 -28t30 -43.5t11 -57.5zM280 443q0 31 -16.5 52.5t-51.5 21.5q-38 0 -55.5 -22.5t-17.5 -53.5q0 -32 18.5 -53.5t52.5 -21.5q35 0 52.5 22.5t17.5 54.5z" />
    <glyph glyph-name="seven.numerator" horiz-adv-x="400" 
d="M198 303h-116l176 344h-219v76h322v-74z" />
    <glyph glyph-name="eight.numerator" horiz-adv-x="400" 
d="M374 422q0 -33 -14 -57t-37 -40t-54 -23.5t-65 -7.5q-36 0 -68 7t-56 22.5t-38.5 39.5t-14.5 57q0 40 21.5 64.5t56.5 37.5q-26 10 -46 31.5t-20 59.5q0 30 13 52.5t35.5 37t52.5 22t63 7.5t62 -7t51 -21.5t35 -36t13 -50.5q0 -35 -18 -58.5t-47 -36.5q29 -10 52 -33.5
t23 -66.5zM267 609q0 27 -19 42t-45 15q-27 0 -47 -15t-20 -42t19.5 -40.5t46.5 -13.5q26 0 45.5 14t19.5 40zM275 428q0 31 -21.5 46t-53.5 15t-52.5 -15.5t-20.5 -45.5q0 -31 21 -48t53 -17t53 16.5t21 48.5z" />
    <glyph glyph-name="nine.numerator" horiz-adv-x="400" 
d="M371 521q0 -45 -7.5 -86t-28 -72.5t-55.5 -50t-89 -18.5q-73 0 -115.5 31t-44.5 87h100q2 -23 16 -33.5t44 -10.5q27 0 43 12.5t25 31.5t12 42t4 43q-31 -44 -100 -44q-31 0 -57.5 9.5t-46 27.5t-30.5 43.5t-11 56.5q0 33 13 59.5t35.5 45t52.5 28t65 9.5q51 0 85 -17
t54 -46t28 -67t8 -81zM268 592q0 31 -19 50t-52 19q-35 0 -53.5 -19.5t-18.5 -49.5t18.5 -50.5t50.5 -20.5q34 0 54 19.5t20 51.5z" />
    <glyph glyph-name="zero.denominator" horiz-adv-x="400" 
d="M372 212q0 -42 -8.5 -81.5t-28.5 -70.5t-53.5 -50t-83.5 -19t-82.5 19.5t-52 51t-27.5 71t-8 80.5q0 40 8.5 79t28.5 69.5t53 49t82 18.5t82.5 -18.5t53 -49t28 -69.5t8.5 -80zM271 207q0 18 -1.5 44t-8 49.5t-20.5 40t-39 16.5q-27 0 -42 -16.5t-21.5 -40t-8 -49.5
t-1.5 -45q0 -17 1.5 -41.5t8 -47t20.5 -38.5t39 -16q26 0 40.5 15.5t22 38t9 47.5t1.5 43z" />
    <glyph glyph-name="one.denominator" horiz-adv-x="400" 
d="M173 0v319q-25 -17 -47.5 -28t-51.5 -20v83q19 6 33.5 12t27.5 13.5t25.5 17t27.5 23.5h87v-420h-102z" />
    <glyph glyph-name="two.denominator" horiz-adv-x="400" 
d="M34 0v77l13 10q25 18 60.5 45t68 57t55.5 61t23 57q0 23 -15 36t-39 13q-27 0 -42 -16.5t-16 -45.5h-102q1 37 15 62.5t36.5 41.5t52 23.5t60.5 7.5t59 -7t49 -21.5t33.5 -37t12.5 -53.5q0 -27 -12.5 -54t-34.5 -53t-52 -52.5t-65 -53.5l-26 -20h193v-77h-327z" />
    <glyph glyph-name="three.denominator" horiz-adv-x="400" 
d="M371 117q0 -36 -16 -60t-41 -39t-56 -21t-61 -6q-33 0 -63.5 6.5t-53.5 21.5t-37.5 40.5t-17.5 63.5h102q1 -31 21 -45.5t48 -14.5q30 0 52 15t22 46q0 32 -26 44.5t-62 12.5q-19 0 -35 -3v72q6 -1 14.5 -1.5t14.5 -0.5q37 0 62 11.5t25 46.5q0 26 -17 39t-45 13
q-22 0 -42.5 -12.5t-20.5 -44.5h-104q0 34 16 58.5t40 40t53.5 22.5t56.5 7t56 -6t52.5 -19.5t38.5 -35.5t15 -55q0 -35 -18 -57t-56 -39q35 -11 59 -34.5t24 -65.5z" />
    <glyph glyph-name="four.denominator" horiz-adv-x="400" 
d="M319 88v-88h-95v88h-202v82l184 250h113v-262h67v-70h-67zM225 332l-123 -174h123v174z" />
    <glyph glyph-name="five.denominator" horiz-adv-x="400" 
d="M374 146q0 -77 -47 -116t-121 -39q-32 0 -61 5.5t-51.5 19.5t-36 38t-13.5 61h100q2 -27 19 -39.5t43 -12.5q35 0 50.5 24t15.5 56q0 29 -15 51t-47 22q-21 0 -37 -10.5t-24 -31.5h-100l11 246h291v-73h-201l-5 -99q30 39 92 39q32 0 57.5 -11t43 -30t27 -45t9.5 -55z
" />
    <glyph glyph-name="six.denominator" horiz-adv-x="400" 
d="M374 143q0 -35 -12.5 -63t-35 -47.5t-52.5 -30.5t-64 -11q-50 0 -84 17.5t-54.5 47t-29.5 68.5t-9 82t9 83t30 71t55.5 50t85.5 19q60 0 101 -27.5t46 -87.5h-97q-6 46 -53 46q-23 0 -38 -12t-24 -30t-13.5 -39.5t-5.5 -41.5q20 24 46 34.5t58 10.5q30 0 55.5 -10
t44.5 -28t30 -43.5t11 -57.5zM280 140q0 31 -16.5 52.5t-51.5 21.5q-38 0 -55.5 -22.5t-17.5 -53.5q0 -32 18.5 -53.5t52.5 -21.5q35 0 52.5 22.5t17.5 54.5z" />
    <glyph glyph-name="seven.denominator" horiz-adv-x="400" 
d="M198 0h-116l176 344h-219v76h322v-74z" />
    <glyph glyph-name="eight.denominator" horiz-adv-x="400" 
d="M374 119q0 -33 -14 -57t-37 -40t-54 -23.5t-65 -7.5q-36 0 -68 7t-56 22.5t-38.5 39.5t-14.5 57q0 40 21.5 64.5t56.5 37.5q-26 10 -46 31.5t-20 59.5q0 30 13 52.5t35.5 37t52.5 22t63 7.5t62 -7t51 -21.5t35 -36t13 -50.5q0 -35 -18 -58.5t-47 -36.5q29 -10 52 -33.5
t23 -66.5zM267 306q0 27 -19 42t-45 15q-27 0 -47 -15t-20 -42t19.5 -40.5t46.5 -13.5q26 0 45.5 14t19.5 40zM275 125q0 31 -21.5 46t-53.5 15t-52.5 -15.5t-20.5 -45.5q0 -31 21 -48t53 -17t53 16.5t21 48.5z" />
    <glyph glyph-name="nine.denominator" horiz-adv-x="400" 
d="M371 218q0 -45 -7.5 -86t-28 -72.5t-55.5 -50t-89 -18.5q-73 0 -115.5 31t-44.5 87h100q2 -23 16 -33.5t44 -10.5q27 0 43 12.5t25 31.5t12 42t4 43q-31 -44 -100 -44q-31 0 -57.5 9.5t-46 27.5t-30.5 43.5t-11 56.5q0 33 13 59.5t35.5 45t52.5 28t65 9.5q51 0 85 -17
t54 -46t28 -67t8 -81zM268 289q0 31 -19 50t-52 19q-35 0 -53.5 -19.5t-18.5 -49.5t18.5 -50.5t50.5 -20.5q34 0 54 19.5t20 51.5z" />
    <glyph glyph-name="onehalf.alt01" 
d="M280 457v194q-14 -9 -31 -16t-36 -13v58q27 8 44 17t37 26h66v-266h-80zM76 339v56h476v-56h-476zM192 0v50l33 23q62 42 90 68.5t28 52.5q0 13 -8.5 21t-22.5 8q-17 0 -25.5 -11t-9.5 -28h-80q0 24 10 40.5t26 27t37 15.5t44 5q48 0 79.5 -19.5t31.5 -56.5
q0 -38 -31 -69t-81 -65l-18 -12h131v-50h-234z" />
    <glyph glyph-name="onethird.alt01" 
d="M280 457v194q-14 -9 -31 -16t-36 -13v58q27 8 44 17t37 26h66v-266h-80zM76 339v56h476v-56h-476zM435 75q0 -38 -32.5 -59t-91.5 -21q-49 0 -83.5 19t-38.5 67h81q0 -19 11.5 -29t31.5 -10t31.5 9t11.5 27q0 35 -50 35h-10.5t-14.5 -1v48h24q26 0 36 10t10 24
q0 15 -9.5 23.5t-26.5 8.5q-38 0 -38 -37h-82q0 22 9.5 37.5t26 25.5t38 15t45.5 5q23 0 44 -4t36.5 -13t25 -23t9.5 -34q0 -21 -12.5 -36t-32.5 -23q23 -8 37 -23t14 -41z" />
    <glyph glyph-name="onequarter.alt01" 
d="M280 457v194q-14 -9 -31 -16t-36 -13v58q27 8 44 17t37 26h66v-266h-80zM76 339v56h476v-56h-476zM393 54v-54h-75v54h-139v55l124 157h90v-163h44v-49h-44zM321 208l-79 -106h79v106z" />
    <glyph glyph-name="oneeighth.alt01" 
d="M280 457v194q-14 -9 -31 -16t-36 -13v58q27 8 44 17t37 26h66v-266h-80zM76 339v56h476v-56h-476zM438 76q0 -23 -11 -38.5t-28.5 -25t-39.5 -13.5t-44 -4q-23 0 -45 4t-39.5 13t-28 24t-10.5 38q0 26 16 41.5t40 23.5q-17 5 -32.5 19t-15.5 39q0 21 10.5 35.5t27 23
t37 12.5t41.5 4q20 0 40.5 -3.5t37 -12t26.5 -22.5t10 -35q0 -22 -13 -36.5t-34 -22.5q18 -6 36.5 -20.5t18.5 -43.5zM355 194q0 15 -11.5 24t-27.5 9q-17 0 -29 -8.5t-12 -24.5q0 -17 12 -25t28 -8t28 8t12 25zM361 79q0 20 -13.5 29.5t-33.5 9.5t-32.5 -10t-12.5 -28
q0 -20 12.5 -29.5t32.5 -9.5t33.5 9.5t13.5 28.5z" />
    <glyph glyph-name="twothirds.alt01" 
d="M192 458v50l33 23q62 42 90 68.5t28 52.5q0 13 -8.5 21t-22.5 8q-17 0 -25.5 -11t-9.5 -28h-80q0 24 10 40.5t26 27t37 15.5t44 5q48 0 79.5 -19.5t31.5 -56.5q0 -38 -31 -69t-81 -65l-18 -12h131v-50h-234zM76 339v56h476v-56h-476zM435 75q0 -38 -32.5 -59t-91.5 -21
q-49 0 -83.5 19t-38.5 67h81q0 -19 11.5 -29t31.5 -10t31.5 9t11.5 27q0 35 -50 35h-10.5t-14.5 -1v48h24q26 0 36 10t10 24q0 15 -9.5 23.5t-26.5 8.5q-38 0 -38 -37h-82q0 22 9.5 37.5t26 25.5t38 15t45.5 5q23 0 44 -4t36.5 -13t25 -23t9.5 -34q0 -21 -12.5 -36
t-32.5 -23q23 -8 37 -23t14 -41z" />
    <glyph glyph-name="threequarters.alt01" 
d="M435 532q0 -38 -32.5 -59t-91.5 -21q-49 0 -83.5 19t-38.5 67h81q0 -19 11.5 -29t31.5 -10t31.5 9t11.5 27q0 35 -50 35h-10.5t-14.5 -1v49q8 -1 13.5 -1h10.5q26 0 36 10t10 24q0 15 -9.5 23.5t-26.5 8.5q-38 0 -38 -37h-82q0 22 9.5 37.5t26 25.5t38 15t45.5 5
q23 0 44 -4t36.5 -13t25 -23t9.5 -34q0 -21 -12.5 -36t-32.5 -23q23 -8 37 -23t14 -41zM76 339v56h476v-56h-476zM393 54v-54h-75v54h-139v55l124 157h90v-163h44v-49h-44zM321 208l-79 -106h79v106z" />
    <glyph glyph-name="threeeighths.alt01" 
d="M435 532q0 -38 -32.5 -59t-91.5 -21q-49 0 -83.5 19t-38.5 67h81q0 -19 11.5 -29t31.5 -10t31.5 9t11.5 27q0 35 -50 35h-10.5t-14.5 -1v49q8 -1 13.5 -1h10.5q26 0 36 10t10 24q0 15 -9.5 23.5t-26.5 8.5q-38 0 -38 -37h-82q0 22 9.5 37.5t26 25.5t38 15t45.5 5
q23 0 44 -4t36.5 -13t25 -23t9.5 -34q0 -21 -12.5 -36t-32.5 -23q23 -8 37 -23t14 -41zM76 339v56h476v-56h-476zM438 76q0 -23 -11 -38.5t-28.5 -25t-39.5 -13.5t-44 -4q-23 0 -45 4t-39.5 13t-28 24t-10.5 38q0 26 16 41.5t40 23.5q-17 5 -32.5 19t-15.5 39
q0 21 10.5 35.5t27 23t37 12.5t41.5 4q20 0 40.5 -3.5t37 -12t26.5 -22.5t10 -35q0 -22 -13 -36.5t-34 -22.5q18 -6 36.5 -20.5t18.5 -43.5zM355 194q0 15 -11.5 24t-27.5 9q-17 0 -29 -8.5t-12 -24.5q0 -17 12 -25t28 -8t28 8t12 25zM361 79q0 20 -13.5 29.5t-33.5 9.5
t-32.5 -10t-12.5 -28q0 -20 12.5 -29.5t32.5 -9.5t33.5 9.5t13.5 28.5z" />
    <glyph glyph-name="fiveeighths.alt01" 
d="M435 550q0 -49 -29.5 -73.5t-84.5 -24.5q-23 0 -44 4t-37 13.5t-25.5 25t-9.5 39.5h79q0 -17 10.5 -25t26.5 -8q20 0 29.5 12.5t9.5 34.5q0 20 -9 31.5t-29 11.5q-12 0 -22.5 -7t-12.5 -20h-79l7 159h208v-50h-138l-4 -57q10 9 24 16t37 7q45 0 69 -25.5t24 -63.5z
M76 339v56h476v-56h-476zM438 76q0 -23 -11 -38.5t-28.5 -25t-39.5 -13.5t-44 -4q-23 0 -45 4t-39.5 13t-28 24t-10.5 38q0 26 16 41.5t40 23.5q-17 5 -32.5 19t-15.5 39q0 21 10.5 35.5t27 23t37 12.5t41.5 4q20 0 40.5 -3.5t37 -12t26.5 -22.5t10 -35q0 -22 -13 -36.5
t-34 -22.5q18 -6 36.5 -20.5t18.5 -43.5zM355 194q0 15 -11.5 24t-27.5 9q-17 0 -29 -8.5t-12 -24.5q0 -17 12 -25t28 -8t28 8t12 25zM361 79q0 20 -13.5 29.5t-33.5 9.5t-32.5 -10t-12.5 -28q0 -20 12.5 -29.5t32.5 -9.5t33.5 9.5t13.5 28.5z" />
    <glyph glyph-name="seveneighths.alt01" 
d="M237 457l120 215h-146v51h228v-50l-110 -216h-92zM76 339v56h476v-56h-476zM438 76q0 -23 -11 -38.5t-28.5 -25t-39.5 -13.5t-44 -4q-23 0 -45 4t-39.5 13t-28 24t-10.5 38q0 26 16 41.5t40 23.5q-17 5 -32.5 19t-15.5 39q0 21 10.5 35.5t27 23t37 12.5t41.5 4
q20 0 40.5 -3.5t37 -12t26.5 -22.5t10 -35q0 -22 -13 -36.5t-34 -22.5q18 -6 36.5 -20.5t18.5 -43.5zM355 194q0 15 -11.5 24t-27.5 9q-17 0 -29 -8.5t-12 -24.5q0 -17 12 -25t28 -8t28 8t12 25zM361 79q0 20 -13.5 29.5t-33.5 9.5t-32.5 -10t-12.5 -28q0 -20 12.5 -29.5
t32.5 -9.5t33.5 9.5t13.5 28.5z" />
    <glyph glyph-name="Amacron" unicode="&#x100;" horiz-adv-x="758" 
d="M590 0l-62 166h-316l-62 -166h-155l293 723h177l298 -723h-173zM371 611l-121 -339h237zM200 805v69h334v-69h-334z" />
    <glyph glyph-name="amacron" unicode="&#x101;" horiz-adv-x="577" 
d="M382 0q-6 17 -8.5 34t-3.5 35q-31 -45 -69 -62t-92 -17q-37 0 -69 9t-56 28t-37.5 48t-13.5 69q0 59 30 93t74.5 51.5t96 22t95.5 4.5h41v19q0 20 -2.5 39t-11 33.5t-23.5 23.5t-39 9q-42 0 -60 -22t-18 -57h-149q1 46 21 77t52.5 49t72 25.5t79.5 7.5q51 0 91.5 -7.5
t69 -28.5t44 -59.5t15.5 -100.5v-150q0 -43 1 -85.5t7 -87.5h-138zM370 244q-11 0 -19 0.5t-19 0.5q-23 0 -50.5 -3.5t-50.5 -13.5t-38.5 -28t-15.5 -48q0 -35 24.5 -55t57.5 -20q35 0 57 14t34 36.5t16 50.5t4 57v9zM128 629v69h334v-69h-334z" />
    <glyph glyph-name="Abreve" unicode="&#x102;" horiz-adv-x="758" 
d="M590 0l-62 166h-316l-62 -166h-155l293 723h177l298 -723h-173zM371 611l-121 -339h237zM542 909q-8 -73 -53.5 -104t-115.5 -31q-35 0 -65 8t-52.5 24.5t-36 42t-14.5 60.5h59q3 -20 14.5 -32t27.5 -19.5t33.5 -10t34.5 -2.5q38 0 67.5 12.5t43.5 51.5h57v0z" />
    <glyph glyph-name="abreve" unicode="&#x103;" horiz-adv-x="577" 
d="M382 0q-6 17 -8.5 34t-3.5 35q-31 -45 -69 -62t-92 -17q-37 0 -69 9t-56 28t-37.5 48t-13.5 69q0 59 30 93t74.5 51.5t96 22t95.5 4.5h41v19q0 20 -2.5 39t-11 33.5t-23.5 23.5t-39 9q-42 0 -60 -22t-18 -57h-149q1 46 21 77t52.5 49t72 25.5t79.5 7.5q51 0 91.5 -7.5
t69 -28.5t44 -59.5t15.5 -100.5v-150q0 -43 1 -85.5t7 -87.5h-138zM370 244q-11 0 -19 0.5t-19 0.5q-23 0 -50.5 -3.5t-50.5 -13.5t-38.5 -28t-15.5 -48q0 -35 24.5 -55t57.5 -20q35 0 57 14t34 36.5t16 50.5t4 57v9zM464 723q-8 -73 -53.5 -104t-115.5 -31q-35 0 -65 8
t-52.5 24.5t-36 42t-14.5 60.5h59q3 -20 14.5 -32t27.5 -19.5t33.5 -10t34.5 -2.5q38 0 67.5 12.5t43.5 51.5h57v0z" />
    <glyph glyph-name="Aogonek" unicode="&#x104;" horiz-adv-x="758" 
d="M771 -181q-23 -11 -43 -17t-45 -6q-18 0 -34.5 4t-30 13t-21.5 23.5t-8 34.5q0 23 9 42t24 35t34 28.5t39 23.5h-105l-62 166h-316l-62 -166h-155l293 723h177l298 -723q-41 -20 -67 -42t-26 -56q0 -26 14.5 -39.5t39.5 -13.5q22 0 44 11zM371 611l-121 -339h237z" />
    <glyph glyph-name="aogonek" unicode="&#x105;" horiz-adv-x="577" 
d="M528 -181q-23 -11 -43 -17t-45 -6q-18 0 -34.5 4t-30 13t-21.5 23.5t-8 34.5q0 23 9 42t24 35t34 28.5t39 23.5h-70q-6 17 -8.5 34t-3.5 35q-31 -45 -69 -62t-92 -17q-37 0 -69 9t-56 28t-37.5 48t-13.5 69q0 59 30 93t74.5 51.5t96 22t95.5 4.5h41v19q0 20 -2.5 39
t-11 33.5t-23.5 23.5t-39 9q-42 0 -60 -22t-18 -57h-149q1 46 21 77t52.5 49t72 25.5t79.5 7.5q51 0 91.5 -7.5t69 -28.5t44 -59.5t15.5 -100.5v-150q0 -43 1 -85.5t7 -87.5q-41 -20 -67 -42t-26 -56q0 -26 14.5 -39.5t39.5 -13.5q22 0 44 11zM370 244q-10 1 -18.5 1h-19.5
q-23 0 -50.5 -3.5t-50.5 -13.5t-38.5 -28t-15.5 -48q0 -35 24.5 -55t57.5 -20q35 0 57 14t34 36.5t16 50.5t4 57v9z" />
    <glyph glyph-name="Cacute" unicode="&#x106;" horiz-adv-x="719" 
d="M682 213q-7 -62 -33.5 -105t-67 -70t-92 -39t-107.5 -12q-87 0 -151 26.5t-105.5 75.5t-61.5 116.5t-20 150.5q0 82 21.5 151.5t65 120.5t108.5 80t151 29q54 0 105 -12.5t91.5 -40t65 -71t26.5 -104.5h-162q-6 54 -39.5 82t-86.5 28t-88.5 -25.5t-56.5 -65t-30 -87
t-9 -90.5t9 -87.5t29.5 -80.5t55 -58.5t85.5 -22.5q54 0 90 28t44 83h163v0zM401 776h-101l104 145h161z" />
    <glyph glyph-name="cacute" unicode="&#x107;" horiz-adv-x="565" 
d="M542 181q0 -51 -21 -87.5t-55.5 -60t-78 -34.5t-88.5 -11q-125 0 -193.5 67.5t-68.5 192.5q0 62 18 112t52.5 85.5t84 54.5t112.5 19q47 0 87.5 -10.5t71.5 -33t50.5 -58.5t24.5 -86h-145q-2 44 -23 72.5t-67 28.5q-36 0 -58.5 -16.5t-35 -42.5t-16.5 -57.5t-4 -60.5
q0 -28 4 -59.5t16 -58t33.5 -44t57.5 -17.5q51 0 71 31t22 79h149v-5v0zM314 590h-101l104 145h161z" />
    <glyph glyph-name="Ccircumflex" unicode="&#x108;" horiz-adv-x="719" 
d="M682 213q-7 -62 -33.5 -105t-67 -70t-92 -39t-107.5 -12q-87 0 -151 26.5t-105.5 75.5t-61.5 116.5t-20 150.5q0 82 21.5 151.5t65 120.5t108.5 80t151 29q54 0 105 -12.5t91.5 -40t65 -71t26.5 -104.5h-162q-6 54 -39.5 82t-86.5 28t-88.5 -25.5t-56.5 -65t-30 -87
t-9 -90.5t9 -87.5t29.5 -80.5t55 -58.5t85.5 -22.5q54 0 90 28t44 83h163v0zM467 776l-79 87l-80 -87h-101l113 146h136l112 -146h-101z" />
    <glyph glyph-name="ccircumflex" unicode="&#x109;" horiz-adv-x="565" 
d="M542 181q0 -51 -21 -87.5t-55.5 -60t-78 -34.5t-88.5 -11q-125 0 -193.5 67.5t-68.5 192.5q0 62 18 112t52.5 85.5t84 54.5t112.5 19q47 0 87.5 -10.5t71.5 -33t50.5 -58.5t24.5 -86h-145q-2 44 -23 72.5t-67 28.5q-36 0 -58.5 -16.5t-35 -42.5t-16.5 -57.5t-4 -60.5
q0 -28 4 -59.5t16 -58t33.5 -44t57.5 -17.5q51 0 71 31t22 79h149v-5v0zM381 590l-79 87l-80 -87h-101l113 146h136l112 -146h-101z" />
    <glyph glyph-name="Cdotaccent" unicode="&#x10a;" horiz-adv-x="719" 
d="M682 213q-7 -62 -33.5 -105t-67 -70t-92 -39t-107.5 -12q-87 0 -151 26.5t-105.5 75.5t-61.5 116.5t-20 150.5q0 82 21.5 151.5t65 120.5t108.5 80t151 29q54 0 105 -12.5t91.5 -40t65 -71t26.5 -104.5h-162q-6 54 -39.5 82t-86.5 28t-88.5 -25.5t-56.5 -65t-30 -87
t-9 -90.5t9 -87.5t29.5 -80.5t55 -58.5t85.5 -22.5q54 0 90 28t44 83h163v0zM322 785v117h132v-117h-132z" />
    <glyph glyph-name="cdotaccent" unicode="&#x10b;" horiz-adv-x="565" 
d="M542 181q0 -51 -21 -87.5t-55.5 -60t-78 -34.5t-88.5 -11q-125 0 -193.5 67.5t-68.5 192.5q0 62 18 112t52.5 85.5t84 54.5t112.5 19q47 0 87.5 -10.5t71.5 -33t50.5 -58.5t24.5 -86h-145q-2 44 -23 72.5t-67 28.5q-36 0 -58.5 -16.5t-35 -42.5t-16.5 -57.5t-4 -60.5
q0 -28 4 -59.5t16 -58t33.5 -44t57.5 -17.5q51 0 71 31t22 79h149v-5v0zM235 609v117h132v-117h-132z" />
    <glyph glyph-name="Ccaron" unicode="&#x10c;" horiz-adv-x="719" 
d="M682 213q-7 -62 -33.5 -105t-67 -70t-92 -39t-107.5 -12q-87 0 -151 26.5t-105.5 75.5t-61.5 116.5t-20 150.5q0 82 21.5 151.5t65 120.5t108.5 80t151 29q54 0 105 -12.5t91.5 -40t65 -71t26.5 -104.5h-162q-6 54 -39.5 82t-86.5 28t-88.5 -25.5t-56.5 -65t-30 -87
t-9 -90.5t9 -87.5t29.5 -80.5t55 -58.5t85.5 -22.5q54 0 90 28t44 83h163v0zM455 776h-136l-112 145h98l83 -89l80 89h100z" />
    <glyph glyph-name="ccaron" unicode="&#x10d;" horiz-adv-x="565" 
d="M542 181q0 -51 -21 -87.5t-55.5 -60t-78 -34.5t-88.5 -11q-125 0 -193.5 67.5t-68.5 192.5q0 62 18 112t52.5 85.5t84 54.5t112.5 19q47 0 87.5 -10.5t71.5 -33t50.5 -58.5t24.5 -86h-145q-2 44 -23 72.5t-67 28.5q-36 0 -58.5 -16.5t-35 -42.5t-16.5 -57.5t-4 -60.5
q0 -28 4 -59.5t16 -58t33.5 -44t57.5 -17.5q51 0 71 31t22 79h149v-5v0zM369 590h-136l-112 145h98l83 -89l80 89h100z" />
    <glyph glyph-name="Dcaron" unicode="&#x10e;" horiz-adv-x="780" 
d="M736 365q0 -110 -31.5 -180.5t-88 -111.5t-135 -57t-171.5 -16h-227v723h251q87 0 161 -18t127.5 -59.5t83.5 -110t30 -170.5zM575 363q0 68 -16 115.5t-48 77t-79.5 43t-111.5 13.5h-80v-501h74q133 0 197 60t64 192zM460 776h-136l-112 145h98l83 -89l80 89h100z" />
    <glyph glyph-name="dcaron" unicode="&#x10f;" horiz-adv-x="635" 
d="M421 0l-4 67q-34 -40 -69 -58.5t-88 -18.5q-58 0 -100 21t-69.5 57t-40.5 83t-13 100q0 48 12 95t38.5 85t67.5 61.5t100 23.5q53 0 92 -17t71 -59v283h146v-588q0 -33 0.5 -67t3.5 -68h-147zM421 254q0 30 -6.5 60t-21 54.5t-38 40t-58.5 15.5q-34 0 -55.5 -15.5
t-34 -40t-17 -54t-4.5 -57.5q0 -30 5 -61t18 -55.5t36 -40.5t60 -16q34 0 56 16.5t35.5 41.5t19 55t5.5 57zM775 723l-63 -198h-99l32 198h130z" />
    <glyph glyph-name="Dcroat" unicode="&#x110;" horiz-adv-x="780" 
d="M736 365q0 -110 -31.5 -180.5t-88 -111.5t-135 -57t-171.5 -16h-227v352h-64v86h64v285h251q87 0 161 -18t127.5 -59.5t83.5 -110t30 -170.5zM575 363q0 68 -16 115.5t-48 77t-79.5 43t-111.5 13.5h-80v-174h168v-86h-168v-241h74q133 0 197 60t64 192z" />
    <glyph glyph-name="dcroat" unicode="&#x111;" horiz-adv-x="635" 
d="M421 0l-4 67q-34 -40 -69 -58.5t-88 -18.5q-58 0 -100 21t-69.5 57t-40.5 83t-13 100q0 48 12 95t38.5 85t67.5 61.5t100 23.5q53 0 92 -17t71 -59v120h-223v96h223v67h146v-67h69v-96h-69v-425q0 -33 0.5 -67t3.5 -68h-147zM421 254q0 30 -6.5 60t-21 54.5t-38 40
t-58.5 15.5q-34 0 -55.5 -15.5t-34 -40t-17 -54t-4.5 -57.5q0 -30 5 -61t18 -55.5t36 -40.5t60 -16q34 0 56 16.5t35.5 41.5t19 55t5.5 57z" />
    <glyph glyph-name="Emacron" unicode="&#x112;" horiz-adv-x="622" 
d="M83 0v723h489v-112h-335v-188h317v-111h-317v-200h345v-112h-499zM159 805v69h334v-69h-334z" />
    <glyph glyph-name="emacron" unicode="&#x113;" horiz-adv-x="580" 
d="M179 224q0 -29 6 -55.5t20 -47t36 -33t54 -12.5q89 0 101 88h142q-7 -49 -29.5 -82.5t-55.5 -54t-74.5 -29.5t-85.5 -9q-123 0 -189.5 66t-66.5 189q0 126 65.5 200t195.5 74q37 0 71 -7.5t63 -24t51.5 -42t37.5 -60.5q16 -37 19 -76t3 -84h-364zM402 308q0 57 -26 90.5
t-79 33.5q-54 0 -84.5 -35t-30.5 -89h220zM129 629v69h334v-69h-334z" />
    <glyph glyph-name="Ebreve" unicode="&#x114;" horiz-adv-x="622" 
d="M83 0v723h489v-112h-335v-188h317v-111h-317v-200h345v-112h-499zM501 909q-8 -73 -53.5 -104t-115.5 -31q-35 0 -65 8t-52.5 24.5t-36 42t-14.5 60.5h59q3 -20 14.5 -32t27.5 -19.5t33.5 -10t34.5 -2.5q38 0 67.5 12.5t43.5 51.5h57v0z" />
    <glyph glyph-name="ebreve" unicode="&#x115;" horiz-adv-x="580" 
d="M179 224q0 -29 6 -55.5t20 -47t36 -33t54 -12.5q89 0 101 88h142q-7 -49 -29.5 -82.5t-55.5 -54t-74.5 -29.5t-85.5 -9q-123 0 -189.5 66t-66.5 189q0 126 65.5 200t195.5 74q37 0 71 -7.5t63 -24t51.5 -42t37.5 -60.5q16 -37 19 -76t3 -84h-364zM402 308q0 57 -26 90.5
t-79 33.5q-54 0 -84.5 -35t-30.5 -89h220zM465 723q-8 -73 -53.5 -104t-115.5 -31q-35 0 -65 8t-52.5 24.5t-36 42t-14.5 60.5h59q3 -20 14.5 -32t27.5 -19.5t33.5 -10t34.5 -2.5q38 0 67.5 12.5t43.5 51.5h57v0z" />
    <glyph glyph-name="Edotaccent" unicode="&#x116;" horiz-adv-x="622" 
d="M83 0v723h489v-112h-335v-188h317v-111h-317v-200h345v-112h-499zM266 785v117h132v-117h-132z" />
    <glyph glyph-name="edotaccent" unicode="&#x117;" horiz-adv-x="580" 
d="M179 224q0 -29 6 -55.5t20 -47t36 -33t54 -12.5q89 0 101 88h142q-7 -49 -29.5 -82.5t-55.5 -54t-74.5 -29.5t-85.5 -9q-123 0 -189.5 66t-66.5 189q0 126 65.5 200t195.5 74q37 0 71 -7.5t63 -24t51.5 -42t37.5 -60.5q16 -37 19 -76t3 -84h-364zM402 308q0 57 -26 90.5
t-79 33.5q-54 0 -84.5 -35t-30.5 -89h220zM230 609v117h132v-117h-132z" />
    <glyph glyph-name="Eogonek" unicode="&#x118;" horiz-adv-x="622" 
d="M590 -181q-23 -11 -43 -17t-45 -6q-18 0 -34.5 4t-30 13t-21.5 23.5t-8 34.5q0 23 9 42t24 35t34 28.5t39 23.5h-431v723h489v-112h-335v-188h317v-111h-317v-200h345v-112q-41 -20 -67 -42t-26 -56q0 -26 14.5 -39.5t39.5 -13.5q22 0 44 11l3 -41v0z" />
    <glyph glyph-name="eogonek" unicode="&#x119;" horiz-adv-x="580" 
d="M381 -181q-23 -11 -43 -17t-45 -6q-18 0 -34.5 4t-30 13t-21.5 23.5t-8 34.5q0 41 25.5 69.5t60.5 48.5q-119 2 -183.5 68t-64.5 187q0 126 65.5 200t195.5 74q37 0 71 -7.5t63 -24t51.5 -42t37.5 -60.5q16 -37 19 -76t3 -84h-364q0 -29 6 -55.5t20 -47t36 -33t54 -12.5
q89 0 101 88h142q-6 -39 -21.5 -68.5t-39 -50t-53 -32.5t-62.5 -18q-37 -19 -59.5 -40t-22.5 -53q0 -26 14.5 -39.5t39.5 -13.5q22 0 44 11zM402 308q0 57 -26 90.5t-79 33.5q-54 0 -84.5 -35t-30.5 -89h220z" />
    <glyph glyph-name="Ecaron" unicode="&#x11a;" horiz-adv-x="622" 
d="M83 0v723h489v-112h-335v-188h317v-111h-317v-200h345v-112h-499zM399 776h-136l-112 145h98l83 -89l80 89h100z" />
    <glyph glyph-name="ecaron" unicode="&#x11b;" horiz-adv-x="580" 
d="M179 224q0 -29 6 -55.5t20 -47t36 -33t54 -12.5q89 0 101 88h142q-7 -49 -29.5 -82.5t-55.5 -54t-74.5 -29.5t-85.5 -9q-123 0 -189.5 66t-66.5 189q0 126 65.5 200t195.5 74q37 0 71 -7.5t63 -24t51.5 -42t37.5 -60.5q16 -37 19 -76t3 -84h-364zM402 308q0 57 -26 90.5
t-79 33.5q-54 0 -84.5 -35t-30.5 -89h220zM364 590h-136l-112 145h98l83 -89l80 89h100z" />
    <glyph glyph-name="Gcircumflex" unicode="&#x11c;" horiz-adv-x="767" 
d="M698 27q-69 -19 -138 -29.5t-140 -10.5q-88 0 -158 25t-118.5 72.5t-74 117t-25.5 158.5q0 85 25 155t72 120t115.5 77.5t154.5 27.5q57 0 107 -12.5t88 -39.5t62 -70t29 -104h-159q-8 57 -44.5 83t-91.5 26q-54 0 -91.5 -23t-60 -59.5t-32.5 -83t-10 -93.5
q0 -53 12.5 -101t39 -84.5t68 -58t100.5 -21.5q31 0 61.5 3.5t59.5 11.5v170h-153v107h302v-364v0zM490 776l-79 87l-80 -87h-101l113 146h136l112 -146h-101z" />
    <glyph glyph-name="gcircumflex" unicode="&#x11d;" horiz-adv-x="635" 
d="M569 504q-1 -42 -2 -79t-1 -61v-270q0 -149 -62 -221.5t-203 -72.5q-39 0 -80.5 6.5t-76.5 24t-57.5 48t-22.5 78.5v8h138q0 -22 8.5 -37t22.5 -24t32 -12.5t37 -3.5q36 0 58.5 10.5t35 28.5t18 43t6.5 54q1 17 0.5 34.5t-0.5 35.5q-57 -84 -161 -84q-56 0 -97.5 20
t-69.5 54t-41.5 80t-13.5 98t14 98t41.5 80.5t69.5 54.5t98 20q54 0 96 -20.5t72 -67.5v77h141zM422 267q0 27 -6 55.5t-19.5 52t-35.5 38t-54 14.5q-34 0 -57 -15t-36.5 -39t-19 -53.5t-5.5 -57.5q0 -29 5.5 -57.5t18.5 -51.5t35 -37.5t56 -14.5t57 15t36.5 39t19 53.5
t5.5 58.5zM393 590l-79 87l-80 -87h-101l113 146h136l112 -146h-101z" />
    <glyph glyph-name="Gbreve" unicode="&#x11e;" horiz-adv-x="767" 
d="M698 27q-69 -19 -138 -29.5t-140 -10.5q-88 0 -158 25t-118.5 72.5t-74 117t-25.5 158.5q0 85 25 155t72 120t115.5 77.5t154.5 27.5q57 0 107 -12.5t88 -39.5t62 -70t29 -104h-159q-8 57 -44.5 83t-91.5 26q-54 0 -91.5 -23t-60 -59.5t-32.5 -83t-10 -93.5
q0 -53 12.5 -101t39 -84.5t68 -58t100.5 -21.5q31 0 61.5 3.5t59.5 11.5v170h-153v107h302v-364v0zM580 909q-8 -73 -53.5 -104t-115.5 -31q-35 0 -65 8t-52.5 24.5t-36 42t-14.5 60.5h59q3 -20 14.5 -32t27.5 -19.5t33.5 -10t34.5 -2.5q38 0 67.5 12.5t43.5 51.5h57v0z" />
    <glyph glyph-name="gbreve" unicode="&#x11f;" horiz-adv-x="635" 
d="M569 504q-1 -42 -2 -79t-1 -61v-270q0 -149 -62 -221.5t-203 -72.5q-39 0 -80.5 6.5t-76.5 24t-57.5 48t-22.5 78.5v8h138q0 -22 8.5 -37t22.5 -24t32 -12.5t37 -3.5q36 0 58.5 10.5t35 28.5t18 43t6.5 54q1 17 0.5 34.5t-0.5 35.5q-57 -84 -161 -84q-56 0 -97.5 20
t-69.5 54t-41.5 80t-13.5 98t14 98t41.5 80.5t69.5 54.5t98 20q54 0 96 -20.5t72 -67.5v77h141zM422 267q0 27 -6 55.5t-19.5 52t-35.5 38t-54 14.5q-34 0 -57 -15t-36.5 -39t-19 -53.5t-5.5 -57.5q0 -29 5.5 -57.5t18.5 -51.5t35 -37.5t56 -14.5t57 15t36.5 39t19 53.5
t5.5 58.5zM482 723q-8 -73 -53.5 -104t-115.5 -31q-35 0 -65 8t-52.5 24.5t-36 42t-14.5 60.5h59q3 -20 14.5 -32t27.5 -19.5t33.5 -10t34.5 -2.5q38 0 67.5 12.5t43.5 51.5h57v0z" />
    <glyph glyph-name="Gdotaccent" unicode="&#x120;" horiz-adv-x="767" 
d="M698 27q-69 -19 -138 -29.5t-140 -10.5q-88 0 -158 25t-118.5 72.5t-74 117t-25.5 158.5q0 85 25 155t72 120t115.5 77.5t154.5 27.5q57 0 107 -12.5t88 -39.5t62 -70t29 -104h-159q-8 57 -44.5 83t-91.5 26q-54 0 -91.5 -23t-60 -59.5t-32.5 -83t-10 -93.5
q0 -53 12.5 -101t39 -84.5t68 -58t100.5 -21.5q31 0 61.5 3.5t59.5 11.5v170h-153v107h302v-364v0zM345 785v117h132v-117h-132z" />
    <glyph glyph-name="gdotaccent" unicode="&#x121;" horiz-adv-x="635" 
d="M569 504q-1 -42 -2 -79t-1 -61v-270q0 -149 -62 -221.5t-203 -72.5q-39 0 -80.5 6.5t-76.5 24t-57.5 48t-22.5 78.5v8h138q0 -22 8.5 -37t22.5 -24t32 -12.5t37 -3.5q36 0 58.5 10.5t35 28.5t18 43t6.5 54q1 17 0.5 34.5t-0.5 35.5q-57 -84 -161 -84q-56 0 -97.5 20
t-69.5 54t-41.5 80t-13.5 98t14 98t41.5 80.5t69.5 54.5t98 20q54 0 96 -20.5t72 -67.5v77h141zM422 267q0 27 -6 55.5t-19.5 52t-35.5 38t-54 14.5q-34 0 -57 -15t-36.5 -39t-19 -53.5t-5.5 -57.5q0 -29 5.5 -57.5t18.5 -51.5t35 -37.5t56 -14.5t57 15t36.5 39t19 53.5
t5.5 58.5zM247 609v117h132v-117h-132z" />
    <glyph glyph-name="Gcommaaccent" unicode="&#x122;" horiz-adv-x="767" 
d="M698 27q-69 -19 -138 -29.5t-140 -10.5q-88 0 -158 25t-118.5 72.5t-74 117t-25.5 158.5q0 85 25 155t72 120t115.5 77.5t154.5 27.5q57 0 107 -12.5t88 -39.5t62 -70t29 -104h-159q-8 57 -44.5 83t-91.5 26q-54 0 -91.5 -23t-60 -59.5t-32.5 -83t-10 -93.5
q0 -53 12.5 -101t39 -84.5t68 -58t100.5 -21.5q31 0 61.5 3.5t59.5 11.5v170h-153v107h302v-364v0zM488 -47l-77 -166h-97l48 166h126z" />
    <glyph glyph-name="gcommaaccent" unicode="&#x123;" horiz-adv-x="635" 
d="M569 504q-1 -42 -2 -79t-1 -61v-270q0 -149 -62 -221.5t-203 -72.5q-39 0 -80.5 6.5t-76.5 24t-57.5 48t-22.5 78.5v8h138q0 -22 8.5 -37t22.5 -24t32 -12.5t37 -3.5q36 0 58.5 10.5t35 28.5t18 43t6.5 54q1 17 0.5 34.5t-0.5 35.5q-57 -84 -161 -84q-56 0 -97.5 20
t-69.5 54t-41.5 80t-13.5 98t14 98t41.5 80.5t69.5 54.5t98 20q54 0 96 -20.5t72 -67.5v77h141zM422 267q0 27 -6 55.5t-19.5 52t-35.5 38t-54 14.5q-34 0 -57 -15t-36.5 -39t-19 -53.5t-5.5 -57.5q0 -29 5.5 -57.5t18.5 -51.5t35 -37.5t56 -14.5t57 15t36.5 39t19 53.5
t5.5 58.5zM239 590l77 145h95l-50 -145h-122z" />
    <glyph glyph-name="Hcircumflex" unicode="&#x124;" horiz-adv-x="793" 
d="M553 0v309h-313v-309h-157v723h157v-296h313v296h157v-723h-157zM474 776l-79 87l-80 -87h-101l113 146h136l112 -146h-101z" />
    <glyph glyph-name="hcircumflex" unicode="&#x125;" horiz-adv-x="632" 
d="M419 0v269q0 26 -2 52t-11.5 46.5t-29 33.5t-53.5 13t-55 -16.5t-32 -40.5t-15 -50.5t-4 -45.5v-261h-146v723h146v-292q32 42 71 62t91 20q93 0 139 -48t46 -139v-326h-145zM225 776l-79 87l-80 -87h-101l113 146h136l112 -146h-101z" />
    <glyph glyph-name="Hbar" unicode="&#x126;" horiz-adv-x="793" 
d="M240 608h313v115h157v-723h-157v309h-313v-309h-157v723h157v-115zM240 497v-70h313v70h-313z" />
    <glyph glyph-name="hbar" unicode="&#x127;" horiz-adv-x="632" 
d="M419 0v269q0 26 -2 52t-11.5 46.5t-29 33.5t-53.5 13t-55 -16.5t-32 -40.5t-15 -50.5t-4 -45.5v-261h-146v560h-69v96h69v67h146v-67h223v-96h-223v-129q32 42 71 62t91 20q93 0 139 -48t46 -139v-326h-145z" />
    <glyph glyph-name="Itilde" unicode="&#x128;" horiz-adv-x="323" 
d="M83 0v723h157v-723h-157zM354 912q-3 -23 -12.5 -45.5t-25 -39.5t-36.5 -27.5t-46 -10.5q-20 0 -39 5t-37.5 11.5t-37.5 11.5t-38 5q-38 0 -48 -36h-64q2 25 12 47.5t26.5 39t39 26.5t48.5 10q20 0 39.5 -5.5t38.5 -12t38 -12t37 -5.5q17 0 26 11t12 27h67v0z" />
    <glyph glyph-name="itilde" unicode="&#x129;" horiz-adv-x="288" 
d="M71 0v504h146v-504h-146zM335 726q-3 -23 -12.5 -45.5t-25 -39.5t-36.5 -27.5t-46 -10.5q-20 0 -39 5t-37.5 11.5t-37.5 11.5t-38 5q-38 0 -48 -36h-64q2 25 12 47.5t26.5 39t39 26.5t48.5 10q20 0 39.5 -5.5t38.5 -12t38 -12t37 -5.5q17 0 26 11t12 27h67v0z" />
    <glyph glyph-name="Imacron" unicode="&#x12a;" horiz-adv-x="323" 
d="M83 0v723h157v-723h-157zM-11 805v69h334v-69h-334z" />
    <glyph glyph-name="imacron" unicode="&#x12b;" horiz-adv-x="288" 
d="M71 0v504h146v-504h-146zM-22 629v69h334v-69h-334z" />
    <glyph glyph-name="Ibreve" unicode="&#x12c;" horiz-adv-x="323" 
d="M83 0v723h157v-723h-157zM330 909q-8 -73 -53.5 -104t-115.5 -31q-35 0 -65 8t-52.5 24.5t-36 42t-14.5 60.5h59q3 -20 14.5 -32t27.5 -19.5t33.5 -10t34.5 -2.5q38 0 67.5 12.5t43.5 51.5h57v0z" />
    <glyph glyph-name="ibreve" unicode="&#x12d;" horiz-adv-x="288" 
d="M71 0v504h146v-504h-146zM314 723q-8 -73 -53.5 -104t-115.5 -31q-35 0 -65 8t-52.5 24.5t-36 42t-14.5 60.5h59q3 -20 14.5 -32t27.5 -19.5t33.5 -10t34.5 -2.5q38 0 67.5 12.5t43.5 51.5h57v0z" />
    <glyph glyph-name="Iogonek" unicode="&#x12e;" horiz-adv-x="323" 
d="M247 -181q-23 -11 -43 -17t-45 -6q-18 0 -34.5 4t-30 13t-21.5 23.5t-8 34.5q0 23 9 42t24 35t34 28.5t39 23.5h-88v723h157v-723q-42 -20 -68 -42.5t-26 -55.5q0 -26 14.5 -39.5t39.5 -13.5q22 0 44 11l3 -41v0z" />
    <glyph glyph-name="iogonek" unicode="&#x12f;" horiz-adv-x="288" 
d="M224 -181q-23 -11 -43 -17t-45 -6q-18 0 -34.5 4t-30 13t-21.5 23.5t-8 34.5q0 23 9 42t24 35t34 28.5t39 23.5h-77v505h146v-505q-42 -20 -68 -42t-26 -56q0 -26 14.5 -39.5t39.5 -13.5q22 0 44 11zM68 607v116h152v-116h-152z" />
    <glyph glyph-name="Idotaccent" unicode="&#x130;" horiz-adv-x="323" 
d="M83 0v723h157v-723h-157zM96 785v117h132v-117h-132z" />
    <glyph glyph-name="dotlessi" unicode="&#x131;" horiz-adv-x="288" 
d="M71 0v504h146v-504h-146z" />
    <glyph glyph-name="Jcircumflex" unicode="&#x134;" horiz-adv-x="578" 
d="M504 232q0 -125 -65 -185t-190 -60q-45 0 -89 11t-78 35t-55 61t-21 89v13.5t1 14.5h161v-25q0 -38 23 -61.5t61 -23.5q30 0 48.5 11t29 29t14 41.5t3.5 48.5v492h157v-491v0zM505 776l-79 87l-80 -87h-101l113 146h136l112 -146h-101z" />
    <glyph glyph-name="jcircumflex" unicode="&#x135;" horiz-adv-x="288" 
d="M217 -46q0 -46 -10.5 -74.5t-31.5 -44.5t-52.5 -21.5t-74.5 -5.5q-16 0 -31.5 0.5t-32.5 1.5v100q6 -1 11.5 -1.5t11.5 -0.5q35 0 49.5 21.5t14.5 58.5v517h146v-551v0zM225 590l-79 87l-80 -87h-101l113 146h136l112 -146h-101z" />
    <glyph glyph-name="Kcommaaccent" unicode="&#x136;" horiz-adv-x="721" 
d="M529 0l-287 397l260 326h190l-284 -320l317 -403h-196zM83 0v723h157v-723h-157zM436 -47l-77 -166h-97l48 166h126z" />
    <glyph glyph-name="kcommaaccent" unicode="&#x137;" horiz-adv-x="620" 
d="M424 0l-207 283l195 222h176l-206 -215l228 -290h-186zM71 0v723h146v-723h-146zM398 -47l-77 -166h-97l48 166h126z" />
    <glyph glyph-name="kgreenlandic" unicode="&#x138;" horiz-adv-x="620" 
d="M424 0l-207 283l195 222h176l-206 -215l228 -290h-186zM71 0v505h146v-505h-146z" />
    <glyph glyph-name="Lacute" unicode="&#x139;" horiz-adv-x="594" 
d="M83 0v723h157v-609h338v-114h-495zM185 776h-101l104 145h161z" />
    <glyph glyph-name="lacute" unicode="&#x13a;" horiz-adv-x="288" 
d="M71 0v723h146v-723h-146zM159 766h-101l104 145h161z" />
    <glyph glyph-name="Lcommaaccent" unicode="&#x13b;" horiz-adv-x="594" 
d="M83 0v723h157v-609h338v-114h-495zM405 -47l-77 -166h-97l48 166h126z" />
    <glyph glyph-name="lcommaaccent" unicode="&#x13c;" horiz-adv-x="288" 
d="M71 0v723h146v-723h-146zM212 -47l-77 -166h-97l48 166h126z" />
    <glyph glyph-name="Lcaron" unicode="&#x13d;" horiz-adv-x="594" 
d="M83 0v723h157v-609h338v-114h-495zM496 723l-63 -198h-99l32 198h130z" />
    <glyph glyph-name="lcaron" unicode="&#x13e;" horiz-adv-x="288" 
d="M71 0v723h146v-723h-146zM435 723l-63 -198h-99l32 198h130z" />
    <glyph glyph-name="Ldot" unicode="&#x13f;" horiz-adv-x="594" 
d="M83 0v723h157v-609h338v-114h-495zM343 361v117h132v-117h-132z" />
    <glyph glyph-name="ldot" unicode="&#x140;" horiz-adv-x="416" 
d="M71 0v723h146v-723h-146zM286 311v117h132v-117h-132z" />
    <glyph glyph-name="Lslash" unicode="&#x141;" horiz-adv-x="595" 
d="M84 0v294l-77 -46v85l77 45v345h157v-260l188 111v-85l-188 -110v-265h338v-114h-495z" />
    <glyph glyph-name="lslash" unicode="&#x142;" horiz-adv-x="288" 
d="M218 389v-389h-146v297l-90 -57v89l90 57v337h146v-245l89 57v-89z" />
    <glyph glyph-name="Nacute" unicode="&#x143;" horiz-adv-x="799" 
d="M496 0l-278 596v-596h-135v723h220l278 -597v597h135v-723h-220zM406 776h-101l104 145h161z" />
    <glyph glyph-name="nacute" unicode="&#x144;" horiz-adv-x="632" 
d="M418 0v267q0 26 -2 52.5t-11.5 47.5t-28.5 34t-53 13q-35 0 -55.5 -17t-32 -41.5t-15 -52.5t-3.5 -49v-254h-146v405q0 24 -1 48.5t-3 50.5h145l2 -77q34 44 72 64.5t94 20.5q93 0 138.5 -47.5t45.5 -138.5v-326h-146zM333 590h-101l104 145h161z" />
    <glyph glyph-name="Ncommaaccent" unicode="&#x145;" horiz-adv-x="799" 
d="M496 0l-278 596v-596h-135v723h220l278 -597v597h135v-723h-220zM460 -47l-77 -166h-97l48 166h126z" />
    <glyph glyph-name="ncommaaccent" unicode="&#x146;" horiz-adv-x="632" 
d="M418 0v267q0 26 -2 52.5t-11.5 47.5t-28.5 34t-53 13q-35 0 -55.5 -17t-32 -41.5t-15 -52.5t-3.5 -49v-254h-146v405q0 24 -1 48.5t-3 50.5h145l2 -77q34 44 72 64.5t94 20.5q93 0 138.5 -47.5t45.5 -138.5v-326h-146zM389 -47l-77 -166h-97l48 166h126z" />
    <glyph glyph-name="Ncaron" unicode="&#x147;" horiz-adv-x="799" 
d="M496 0l-278 596v-596h-135v723h220l278 -597v597h135v-723h-220zM460 776h-136l-112 145h98l83 -89l80 89h100z" />
    <glyph glyph-name="ncaron" unicode="&#x148;" horiz-adv-x="632" 
d="M418 0v267q0 26 -2 52.5t-11.5 47.5t-28.5 34t-53 13q-35 0 -55.5 -17t-32 -41.5t-15 -52.5t-3.5 -49v-254h-146v405q0 24 -1 48.5t-3 50.5h145l2 -77q34 44 72 64.5t94 20.5q93 0 138.5 -47.5t45.5 -138.5v-326h-146zM388 590h-136l-112 145h98l83 -89l80 89h100z" />
    <glyph glyph-name="Eng" unicode="&#x14a;" horiz-adv-x="785" 
d="M563 0l-345 598v-598h-135v723h211l273 -490v490h135v-708q0 -114 -48.5 -160.5t-150.5 -46.5q-16 0 -31.5 0.5t-28.5 1.5v111q16 -3 39 -3q45 0 63 19.5t18 56.5v6z" />
    <glyph glyph-name="eng" unicode="&#x14b;" horiz-adv-x="633" 
d="M564 -13q0 -50 -10 -84.5t-31 -55.5t-54 -30t-79 -9q-16 0 -36 0.5t-33 1.5v100q7 -1 15 -1.5t14 -0.5q32 0 50 19t18 61v279q0 26 -2 52.5t-11.5 47.5t-28.5 34t-53 13q-35 0 -55.5 -17t-32 -41.5t-15 -52.5t-3.5 -49v-254h-146v405q0 24 -1 48.5t-3 50.5h145l2 -77
q34 44 72 64.5t94 20.5q93 0 138.5 -47.5t45.5 -138.5v-339v0z" />
    <glyph glyph-name="Omacron" unicode="&#x14c;" horiz-adv-x="779" 
d="M735 362q0 -81 -22 -150t-65.5 -119.5t-108.5 -79t-151 -28.5q-87 0 -151.5 28t-107.5 77.5t-64 118.5t-21 151t21.5 152t65 121t108.5 79.5t152 28.5t152 -28.5t107.5 -79t63.5 -120t21 -151.5zM577 365q0 46 -9 92.5t-31 84t-58 61t-91 23.5q-54 0 -89.5 -24t-57 -61.5
t-30.5 -84t-9 -91.5q0 -47 8 -94t29 -84.5t57 -61.5t92 -24t92.5 23.5t58 61.5t30 85t8.5 94zM217 805v69h334v-69h-334z" />
    <glyph glyph-name="omacron" unicode="&#x14d;" horiz-adv-x="622" 
d="M585 254q0 -63 -19.5 -112.5t-55.5 -83.5t-87 -52t-113 -18q-63 0 -113.5 17.5t-86 51.5t-54.5 83.5t-19 113.5q0 63 20 112t57 83t87.5 51.5t112.5 17.5t112 -17.5t85.5 -51.5t54.5 -83t19 -112zM433 253q0 30 -5.5 61.5t-19.5 57t-38 42t-60 16.5q-37 0 -60.5 -16.5
t-37 -42t-18.5 -57t-5 -61.5t5 -61.5t18.5 -57.5t37 -42.5t60.5 -16.5q36 0 60 16.5t38 42.5t19.5 57.5t5.5 61.5zM144 629v69h334v-69h-334z" />
    <glyph glyph-name="Obreve" unicode="&#x14e;" horiz-adv-x="779" 
d="M735 362q0 -81 -22 -150t-65.5 -119.5t-108.5 -79t-151 -28.5q-87 0 -151.5 28t-107.5 77.5t-64 118.5t-21 151t21.5 152t65 121t108.5 79.5t152 28.5t152 -28.5t107.5 -79t63.5 -120t21 -151.5zM577 365q0 46 -9 92.5t-31 84t-58 61t-91 23.5q-54 0 -89.5 -24t-57 -61.5
t-30.5 -84t-9 -91.5q0 -47 8 -94t29 -84.5t57 -61.5t92 -24t92.5 23.5t58 61.5t30 85t8.5 94zM559 909q-8 -73 -53.5 -104t-115.5 -31q-35 0 -65 8t-52.5 24.5t-36 42t-14.5 60.5h59q3 -20 14.5 -32t27.5 -19.5t33.5 -10t34.5 -2.5q38 0 67.5 12.5t43.5 51.5h57v0z" />
    <glyph glyph-name="obreve" unicode="&#x14f;" horiz-adv-x="622" 
d="M585 254q0 -63 -19.5 -112.5t-55.5 -83.5t-87 -52t-113 -18q-63 0 -113.5 17.5t-86 51.5t-54.5 83.5t-19 113.5q0 63 20 112t57 83t87.5 51.5t112.5 17.5t112 -17.5t85.5 -51.5t54.5 -83t19 -112zM433 253q0 30 -5.5 61.5t-19.5 57t-38 42t-60 16.5q-37 0 -60.5 -16.5
t-37 -42t-18.5 -57t-5 -61.5t5 -61.5t18.5 -57.5t37 -42.5t60.5 -16.5q36 0 60 16.5t38 42.5t19.5 57.5t5.5 61.5zM480 723q-8 -73 -53.5 -104t-115.5 -31q-35 0 -65 8t-52.5 24.5t-36 42t-14.5 60.5h59q3 -20 14.5 -32t27.5 -19.5t33.5 -10t34.5 -2.5q38 0 67.5 12.5
t43.5 51.5h57v0z" />
    <glyph glyph-name="Ohungarumlaut" unicode="&#x150;" horiz-adv-x="779" 
d="M735 362q0 -81 -22 -150t-65.5 -119.5t-108.5 -79t-151 -28.5q-87 0 -151.5 28t-107.5 77.5t-64 118.5t-21 151t21.5 152t65 121t108.5 79.5t152 28.5t152 -28.5t107.5 -79t63.5 -120t21 -151.5zM577 365q0 46 -9 92.5t-31 84t-58 61t-91 23.5q-54 0 -89.5 -24t-57 -61.5
t-30.5 -84t-9 -91.5q0 -47 8 -94t29 -84.5t57 -61.5t92 -24t92.5 23.5t58 61.5t30 85t8.5 94zM529 777h-103l106 144h161zM293 777h-102l105 144h161z" />
    <glyph glyph-name="ohungarumlaut" unicode="&#x151;" horiz-adv-x="622" 
d="M585 254q0 -63 -19.5 -112.5t-55.5 -83.5t-87 -52t-113 -18q-63 0 -113.5 17.5t-86 51.5t-54.5 83.5t-19 113.5q0 63 20 112t57 83t87.5 51.5t112.5 17.5t112 -17.5t85.5 -51.5t54.5 -83t19 -112zM433 253q0 30 -5.5 61.5t-19.5 57t-38 42t-60 16.5q-37 0 -60.5 -16.5
t-37 -42t-18.5 -57t-5 -61.5t5 -61.5t18.5 -57.5t37 -42.5t60.5 -16.5q36 0 60 16.5t38 42.5t19.5 57.5t5.5 61.5zM450 591h-103l106 144h161zM214 591h-102l105 144h161z" />
    <glyph glyph-name="Racute" unicode="&#x154;" horiz-adv-x="709" 
d="M504 0q-8 22 -12 45.5t-7 46.5q-3 24 -5 47.5t-4 46.5q-3 33 -9 56t-19 37t-35 20t-57 6h-117v-305h-156v723h277q45 0 88 -3.5t85 -20.5q54 -23 85 -61t31 -98q0 -77 -45.5 -119t-117.5 -56v-1q61 -4 92 -28.5t44 -81.5q4 -16 6 -34t5 -38q3 -23 5 -46.5t5.5 -46.5
t9 -45.5t15.5 -43.5h-164zM496 514q0 33 -14.5 52.5t-37.5 30t-51 13.5t-54 3h-100v-202h89q28 0 58 2.5t54.5 12.5t40 31t15.5 57zM374 776h-101l104 145h161z" />
    <glyph glyph-name="racute" unicode="&#x155;" horiz-adv-x="402" 
d="M392 379q-24 3 -44 3q-71 0 -101 -38t-30 -106v-238h-146v381q0 30 -2 60.5t-2 62.5h141l4 -93q25 50 63 73t93 23h11.5t12.5 -1v-127v0zM220 590h-101l104 145h161z" />
    <glyph glyph-name="Rcommaaccent" unicode="&#x156;" horiz-adv-x="709" 
d="M504 0q-8 22 -12 45.5t-7 46.5q-3 24 -5 47.5t-4 46.5q-3 33 -9 56t-19 37t-35 20t-57 6h-117v-305h-156v723h277q45 0 88 -3.5t85 -20.5q54 -23 85 -61t31 -98q0 -77 -45.5 -119t-117.5 -56v-1q61 -4 92 -28.5t44 -81.5q4 -16 6 -34t5 -38q3 -23 5 -46.5t5.5 -46.5
t9 -45.5t15.5 -43.5h-164zM496 514q0 33 -14.5 52.5t-37.5 30t-51 13.5t-54 3h-100v-202h89q28 0 58 2.5t54.5 12.5t40 31t15.5 57zM430 -47l-77 -166h-97l48 166h126z" />
    <glyph glyph-name="rcommaaccent" unicode="&#x157;" horiz-adv-x="402" 
d="M392 379q-24 3 -44 3q-71 0 -101 -38t-30 -106v-238h-146v381q0 30 -2 60.5t-2 62.5h141l4 -93q25 50 63 73t93 23h11.5t12.5 -1v-127v0zM212 -47l-77 -166h-97l48 166h126z" />
    <glyph glyph-name="Rcaron" unicode="&#x158;" horiz-adv-x="709" 
d="M504 0q-8 22 -12 45.5t-7 46.5q-3 24 -5 47.5t-4 46.5q-3 33 -9 56t-19 37t-35 20t-57 6h-117v-305h-156v723h277q45 0 88 -3.5t85 -20.5q54 -23 85 -61t31 -98q0 -77 -45.5 -119t-117.5 -56v-1q61 -4 92 -28.5t44 -81.5q4 -16 6 -34t5 -38q3 -23 5 -46.5t5.5 -46.5
t9 -45.5t15.5 -43.5h-164zM496 514q0 33 -14.5 52.5t-37.5 30t-51 13.5t-54 3h-100v-202h89q28 0 58 2.5t54.5 12.5t40 31t15.5 57zM428 776h-136l-112 145h98l83 -89l80 89h100z" />
    <glyph glyph-name="rcaron" unicode="&#x159;" horiz-adv-x="402" 
d="M392 379q-24 3 -44 3q-71 0 -101 -38t-30 -106v-238h-146v381q0 30 -2 60.5t-2 62.5h141l4 -93q25 50 63 73t93 23h11.5t12.5 -1v-127v0zM275 590h-136l-112 145h98l83 -89l80 89h100z" />
    <glyph glyph-name="Sacute" unicode="&#x15a;" horiz-adv-x="678" 
d="M633 215q0 -62 -27 -105.5t-70 -70.5t-97 -39.5t-107 -12.5q-59 0 -110.5 12.5t-90.5 40t-62 72.5t-24 110h157q2 -58 35 -90.5t98 -32.5q24 0 48 6t43.5 19t32 32.5t12.5 46.5q0 21 -9 35.5t-25.5 25.5t-41 19t-54.5 17l-52 15q-43 12 -83.5 28t-72.5 39.5t-51.5 57
t-19.5 82.5q0 60 25.5 101.5t66.5 66.5t92.5 36t102.5 11q53 0 100.5 -10t83.5 -34.5t57.5 -64.5t21.5 -100h-157q-5 50 -33.5 77t-84.5 27q-22 0 -42.5 -6t-37 -17.5t-26.5 -29.5t-10 -42q0 -20 9 -33.5t27.5 -24.5t47 -21t66.5 -22l60 -19q46 -15 83.5 -31.5t64 -39.5
t40.5 -54.5t14 -76.5zM355 776h-101l104 145h161z" />
    <glyph glyph-name="sacute" unicode="&#x15b;" horiz-adv-x="541" 
d="M502 153q0 -49 -22 -81t-56 -51t-76.5 -26.5t-82.5 -7.5q-45 0 -85.5 8t-72 27.5t-50 53t-18.5 85.5h147q2 -44 21.5 -67t64.5 -23q15 0 30 4.5t26.5 12.5t19 20.5t7.5 29.5q0 29 -25.5 44.5t-70.5 26.5l-55 13q-28 7 -55 16.5t-48.5 26t-34.5 40.5t-13 59q0 45 20 74.5
t51.5 47t70 24.5t74.5 7q42 0 80 -8t68 -27t48.5 -50.5t21.5 -77.5h-143q-2 36 -21 58.5t-56 22.5q-13 0 -26.5 -3t-24.5 -10t-18 -17.5t-7 -25.5q0 -29 25.5 -43t71.5 -25l57 -13q29 -7 57.5 -17t50.5 -26.5t35.5 -41t13.5 -60.5zM283 590h-101l104 145h161z" />
    <glyph glyph-name="Scircumflex" unicode="&#x15c;" horiz-adv-x="678" 
d="M633 215q0 -62 -27 -105.5t-70 -70.5t-97 -39.5t-107 -12.5q-59 0 -110.5 12.5t-90.5 40t-62 72.5t-24 110h157q2 -58 35 -90.5t98 -32.5q24 0 48 6t43.5 19t32 32.5t12.5 46.5q0 21 -9 35.5t-25.5 25.5t-41 19t-54.5 17l-52 15q-43 12 -83.5 28t-72.5 39.5t-51.5 57
t-19.5 82.5q0 60 25.5 101.5t66.5 66.5t92.5 36t102.5 11q53 0 100.5 -10t83.5 -34.5t57.5 -64.5t21.5 -100h-157q-5 50 -33.5 77t-84.5 27q-22 0 -42.5 -6t-37 -17.5t-26.5 -29.5t-10 -42q0 -20 9 -33.5t27.5 -24.5t47 -21t66.5 -22l60 -19q46 -15 83.5 -31.5t64 -39.5
t40.5 -54.5t14 -76.5zM421 776l-79 87l-80 -87h-101l113 146h136l112 -146h-101z" />
    <glyph glyph-name="scircumflex" unicode="&#x15d;" horiz-adv-x="541" 
d="M502 153q0 -49 -22 -81t-56 -51t-76.5 -26.5t-82.5 -7.5q-45 0 -85.5 8t-72 27.5t-50 53t-18.5 85.5h147q2 -44 21.5 -67t64.5 -23q15 0 30 4.5t26.5 12.5t19 20.5t7.5 29.5q0 29 -25.5 44.5t-70.5 26.5l-55 13q-28 7 -55 16.5t-48.5 26t-34.5 40.5t-13 59q0 45 20 74.5
t51.5 47t70 24.5t74.5 7q42 0 80 -8t68 -27t48.5 -50.5t21.5 -77.5h-143q-2 36 -21 58.5t-56 22.5q-13 0 -26.5 -3t-24.5 -10t-18 -17.5t-7 -25.5q0 -29 25.5 -43t71.5 -25l57 -13q29 -7 57.5 -17t50.5 -26.5t35.5 -41t13.5 -60.5zM350 590l-79 87l-80 -87h-101l113 146h136
l112 -146h-101z" />
    <glyph glyph-name="Scedilla" unicode="&#x15e;" horiz-adv-x="678" 
d="M448 -127q0 -25 -12 -40.5t-31 -24.5t-41 -12t-41 -3q-57 0 -109 21l11 40q22 -11 45 -17.5t47 -6.5q20 0 36.5 8t16.5 31q0 21 -14 29.5t-34 8.5q-9 0 -17 -2l-16 -4l-20 13l37 74q-54 3 -101 17t-82.5 41.5t-56 71t-21.5 104.5h157q2 -58 35 -90.5t98 -32.5q24 0 48 6
t43.5 19t32 32.5t12.5 46.5q0 21 -9 35.5t-25.5 25.5t-41 19t-54.5 17l-52 15q-43 12 -83.5 28t-72.5 39.5t-51.5 57t-19.5 82.5q0 60 25.5 101.5t66.5 66.5t92.5 36t102.5 11q53 0 100.5 -10t83.5 -34.5t57.5 -64.5t21.5 -100h-157q-5 50 -33.5 77t-84.5 27q-22 0 -42.5 -6
t-37 -17.5t-26.5 -29.5t-10 -42q0 -20 9 -33.5t27.5 -24.5t47 -21t66.5 -22l60 -19q46 -15 83.5 -31.5t64 -39.5t40.5 -54.5t14 -76.5q0 -60 -25.5 -102t-66 -69.5t-91.5 -41t-103 -15.5l-20 -46q9 2 18 3t20 1q32 0 57.5 -17.5t25.5 -54.5z" />
    <glyph glyph-name="scedilla" unicode="&#x15f;" horiz-adv-x="541" 
d="M380 -127q0 -25 -12 -40.5t-31 -24.5t-41 -12t-41 -3q-57 0 -109 21l11 40q22 -11 45 -17.5t47 -6.5q20 0 36.5 8t16.5 31q0 21 -14 29.5t-34 8.5q-9 0 -17 -2l-16 -4l-20 13l37 74q-41 2 -77 11t-63 29t-43 52.5t-16 80.5h147q2 -44 21.5 -67t64.5 -23q15 0 30 4.5
t26.5 12.5t19 20.5t7.5 29.5q0 29 -25.5 44.5t-70.5 26.5l-55 13q-28 7 -55 16.5t-48.5 26t-34.5 40.5t-13 59q0 45 20 74.5t51.5 47t70 24.5t74.5 7q42 0 80 -8t68 -27t48.5 -50.5t21.5 -77.5h-143q-2 36 -21 58.5t-56 22.5q-13 0 -26.5 -3t-24.5 -10t-18 -17.5t-7 -25.5
q0 -29 25.5 -43t71.5 -25l57 -13q29 -7 57.5 -17t50.5 -26.5t35.5 -41t13.5 -60.5q0 -47 -20 -78.5t-52 -50.5t-72 -27.5t-79 -9.5l-20 -46q9 2 18 3t20 1q32 0 57.5 -17.5t25.5 -54.5z" />
    <glyph glyph-name="uni0162" unicode="&#x162;" horiz-adv-x="621" 
d="M389 608v-608h-157v608h-226v115h609v-115h-226zM380 -47l-77 -166h-97l48 166h126z" />
    <glyph glyph-name="uni0163" unicode="&#x163;" horiz-adv-x="387" 
d="M249 409v-230q0 -22 1.5 -38.5t8.5 -27t21 -16t40 -5.5q12 0 23 1.5t24 2.5v-95q-26 -4 -52 -6t-52 -2q-38 0 -67 5.5t-49 20.5t-30 41.5t-10 67.5v281h-97v96h97v84l142 58v-142h119v-96h-119zM265 -47l-77 -166h-97l48 166h126z" />
    <glyph glyph-name="Tcaron" unicode="&#x164;" horiz-adv-x="621" 
d="M389 608v-608h-157v608h-226v115h609v-115h-226zM380 776h-136l-112 145h98l83 -89l80 89h100z" />
    <glyph glyph-name="tcaron" unicode="&#x165;" horiz-adv-x="387" 
d="M249 409v-230q0 -22 1.5 -38.5t8.5 -27t21 -16t40 -5.5q12 0 23 1.5t24 2.5v-95q-26 -4 -52 -6t-52 -2q-38 0 -67 5.5t-49 20.5t-30 41.5t-10 67.5v281h-97v96h97v84l142 58v-142h119v-96h-119zM482 723l-63 -198h-99l32 198h130z" />
    <glyph glyph-name="Tbar" unicode="&#x166;" horiz-adv-x="621" 
d="M568 307h-179v-307h-157v307h-179v111h179v190h-226v115h609v-115h-226v-190h179v-111z" />
    <glyph glyph-name="tbar" unicode="&#x167;" horiz-adv-x="387" 
d="M249 409v-74h119v-96h-119v-60q0 -22 1.5 -38.5t8.5 -27t21 -16t40 -5.5q12 0 23 1.5t24 2.5v-95q-26 -4 -52 -6t-52 -2q-38 0 -67 5.5t-49 20.5t-30 41.5t-10 67.5v111h-97v96h97v74h-97v96h97v84l142 58v-142h119v-96h-119z" />
    <glyph glyph-name="Utilde" unicode="&#x168;" horiz-adv-x="795" 
d="M715 301q0 -158 -80.5 -237.5t-239.5 -79.5q-40 0 -80 6t-76.5 20t-67.5 38.5t-52 61.5q-27 48 -33 94.5t-6 100.5v418h161v-426q0 -42 6.5 -78t24 -62.5t48.5 -42t79 -15.5t79 16t49 43.5t25 64.5t7 78v422h156v-422v0zM592 912q-3 -23 -12.5 -45.5t-25 -39.5
t-36.5 -27.5t-46 -10.5q-20 0 -39 5t-37.5 11.5t-37.5 11.5t-38 5q-38 0 -48 -36h-64q2 25 12 47.5t26.5 39t39 26.5t48.5 10q20 0 39.5 -5.5t38.5 -12t38 -12t37 -5.5q17 0 26 11t12 27h67v0z" />
    <glyph glyph-name="utilde" unicode="&#x169;" horiz-adv-x="633" 
d="M419 0l-2 77q-34 -44 -71.5 -64.5t-93.5 -20.5q-94 0 -139 47.5t-45 138.5v326h146v-268q0 -26 2 -52.5t11 -47.5t28 -34t53 -13t55 14t33 36t16 49.5t4 54.5v261h146v-318q0 -47 0.5 -92.5t2.5 -93.5h-146zM507 726q-3 -23 -12.5 -45.5t-25 -39.5t-36.5 -27.5t-46 -10.5
q-20 0 -39 5t-37.5 11.5t-37.5 11.5t-38 5q-38 0 -48 -36h-64q2 25 12 47.5t26.5 39t39 26.5t48.5 10q20 0 39.5 -5.5t38.5 -12t38 -12t37 -5.5q17 0 26 11t12 27h67v0z" />
    <glyph glyph-name="Umacron" unicode="&#x16a;" horiz-adv-x="795" 
d="M715 301q0 -158 -80.5 -237.5t-239.5 -79.5q-40 0 -80 6t-76.5 20t-67.5 38.5t-52 61.5q-27 48 -33 94.5t-6 100.5v418h161v-426q0 -42 6.5 -78t24 -62.5t48.5 -42t79 -15.5t79 16t49 43.5t25 64.5t7 78v422h156v-422v0zM227 805v69h334v-69h-334z" />
    <glyph glyph-name="umacron" unicode="&#x16b;" horiz-adv-x="633" 
d="M419 0l-2 77q-34 -44 -71.5 -64.5t-93.5 -20.5q-94 0 -139 47.5t-45 138.5v326h146v-268q0 -26 2 -52.5t11 -47.5t28 -34t53 -13t55 14t33 36t16 49.5t4 54.5v261h146v-318q0 -47 0.5 -92.5t2.5 -93.5h-146zM150 629v69h334v-69h-334z" />
    <glyph glyph-name="Ubreve" unicode="&#x16c;" horiz-adv-x="795" 
d="M715 301q0 -158 -80.5 -237.5t-239.5 -79.5q-40 0 -80 6t-76.5 20t-67.5 38.5t-52 61.5q-27 48 -33 94.5t-6 100.5v418h161v-426q0 -42 6.5 -78t24 -62.5t48.5 -42t79 -15.5t79 16t49 43.5t25 64.5t7 78v422h156v-422v0zM569 909q-8 -73 -53.5 -104t-115.5 -31
q-35 0 -65 8t-52.5 24.5t-36 42t-14.5 60.5h59q3 -20 14.5 -32t27.5 -19.5t33.5 -10t34.5 -2.5q38 0 67.5 12.5t43.5 51.5h57v0z" />
    <glyph glyph-name="ubreve" unicode="&#x16d;" horiz-adv-x="633" 
d="M419 0l-2 77q-34 -44 -71.5 -64.5t-93.5 -20.5q-94 0 -139 47.5t-45 138.5v326h146v-268q0 -26 2 -52.5t11 -47.5t28 -34t53 -13t55 14t33 36t16 49.5t4 54.5v261h146v-318q0 -47 0.5 -92.5t2.5 -93.5h-146zM486 723q-8 -73 -53.5 -104t-115.5 -31q-35 0 -65 8
t-52.5 24.5t-36 42t-14.5 60.5h59q3 -20 14.5 -32t27.5 -19.5t33.5 -10t34.5 -2.5q38 0 67.5 12.5t43.5 51.5h57v0z" />
    <glyph glyph-name="Uring" unicode="&#x16e;" horiz-adv-x="795" 
d="M715 301q0 -158 -80.5 -237.5t-239.5 -79.5q-40 0 -80 6t-76.5 20t-67.5 38.5t-52 61.5q-27 48 -33 94.5t-6 100.5v418h161v-426q0 -42 6.5 -78t24 -62.5t48.5 -42t79 -15.5t79 16t49 43.5t25 64.5t7 78v422h156v-422v0zM295 852q0 22 8 40.5t22.5 32.5t33.5 22t40 8
t40 -8t33.5 -22t22.5 -32.5t8 -40.5t-8 -40.5t-22.5 -32.5t-33.5 -22t-40 -8t-40 8t-33.5 22t-22.5 32.5t-8 40.5zM347 852q0 -23 14.5 -39.5t37.5 -16.5t37.5 16.5t14.5 39.5t-14.5 39.5t-37.5 16.5t-37.5 -16.5t-14.5 -39.5z" />
    <glyph glyph-name="uring" unicode="&#x16f;" horiz-adv-x="633" 
d="M419 0l-2 77q-34 -44 -71.5 -64.5t-93.5 -20.5q-94 0 -139 47.5t-45 138.5v326h146v-268q0 -26 2 -52.5t11 -47.5t28 -34t53 -13t55 14t33 36t16 49.5t4 54.5v261h146v-318q0 -47 0.5 -92.5t2.5 -93.5h-146zM212 676q0 22 8 40.5t22.5 32.5t33.5 22t40 8t40 -8t33.5 -22
t22.5 -32.5t8 -40.5t-8 -40.5t-22.5 -32.5t-33.5 -22t-40 -8t-40 8t-33.5 22t-22.5 32.5t-8 40.5zM264 676q0 -23 14.5 -39.5t37.5 -16.5t37.5 16.5t14.5 39.5t-14.5 39.5t-37.5 16.5t-37.5 -16.5t-14.5 -39.5z" />
    <glyph glyph-name="Uhungarumlaut" unicode="&#x170;" horiz-adv-x="795" 
d="M715 301q0 -158 -80.5 -237.5t-239.5 -79.5q-40 0 -80 6t-76.5 20t-67.5 38.5t-52 61.5q-27 48 -33 94.5t-6 100.5v418h161v-426q0 -42 6.5 -78t24 -62.5t48.5 -42t79 -15.5t79 16t49 43.5t25 64.5t7 78v422h156v-422v0zM539 777h-103l106 144h161zM303 777h-102l105 144
h161z" />
    <glyph glyph-name="uhungarumlaut" unicode="&#x171;" horiz-adv-x="633" 
d="M419 0l-2 77q-34 -44 -71.5 -64.5t-93.5 -20.5q-94 0 -139 47.5t-45 138.5v326h146v-268q0 -26 2 -52.5t11 -47.5t28 -34t53 -13t55 14t33 36t16 49.5t4 54.5v261h146v-318q0 -47 0.5 -92.5t2.5 -93.5h-146zM456 591h-103l106 144h161zM220 591h-102l105 144h161z" />
    <glyph glyph-name="Uogonek" unicode="&#x172;" horiz-adv-x="795" 
d="M489 -181q-23 -11 -43 -17t-45 -6q-18 0 -34.5 4t-30 13t-21.5 23.5t-8 34.5q0 38 23 65.5t55 47.5q-39 1 -77.5 7t-73.5 20.5t-64.5 38.5t-50.5 60q-27 48 -33 94.5t-6 100.5v418h161v-426q0 -42 6.5 -78t24 -62.5t48.5 -42t79 -15.5t79 16t49 43.5t25 64.5t7 78v422
h156v-422q0 -285 -259 -314q-31 -17 -49.5 -36.5t-18.5 -48.5q0 -26 14.5 -39.5t39.5 -13.5q22 0 44 11l3 -41v0z" />
    <glyph glyph-name="uogonek" unicode="&#x173;" horiz-adv-x="633" 
d="M573 -181q-23 -11 -43 -17t-45 -6q-18 0 -34.5 4t-30 13t-21.5 23.5t-8 34.5q0 23 9 42t24 35t34 28.5t39 23.5h-78l-2 77q-34 -44 -71.5 -64.5t-93.5 -20.5q-94 0 -139 47.5t-45 138.5v326h146v-268q0 -26 2 -52.5t11 -47.5t28 -34t53 -13t55 14t33 36t16 49.5t4 54.5
v261h146v-318q0 -47 0.5 -92.5t2.5 -93.5q-41 -20 -67 -42t-26 -56q0 -26 14.5 -39.5t39.5 -13.5q22 0 44 11l3 -41v0z" />
    <glyph glyph-name="Wcircumflex" unicode="&#x174;" horiz-adv-x="1110" 
d="M909 0h-189l-161 591l-164 -591h-189l-202 723h165l140 -590l160 590h190l156 -590l137 590h154zM640 776l-79 87l-80 -87h-101l113 146h136l112 -146h-101z" />
    <glyph glyph-name="wcircumflex" unicode="&#x175;" horiz-adv-x="929" 
d="M747 0h-157l-120 382l-127 -382h-156l-178 504h158l104 -383l124 383h165l116 -383l107 383h137zM551 590l-79 87l-80 -87h-101l113 146h136l112 -146h-101z" />
    <glyph glyph-name="Ycircumflex" unicode="&#x176;" horiz-adv-x="688" 
d="M423 281v-281h-157v281l-281 443h183l182 -335l184 335h169zM428 776l-79 87l-80 -87h-101l113 146h136l112 -146h-101z" />
    <glyph glyph-name="ycircumflex" unicode="&#x177;" horiz-adv-x="575" 
d="M288 -190h-139l80 187l-228 507h164l135 -377l130 377h144zM377 590l-79 87l-80 -87h-101l113 146h136l112 -146h-101z" />
    <glyph glyph-name="Zacute" unicode="&#x179;" horiz-adv-x="630" 
d="M20 0v128l383 482h-359v113h552v-118l-400 -492h414v-113h-590zM329 776h-101l104 145h161z" />
    <glyph glyph-name="zacute" unicode="&#x17a;" horiz-adv-x="494" 
d="M31 0v99l264 306h-254v99h414v-103l-257 -304h267v-97h-434zM263 590h-101l104 145h161z" />
    <glyph glyph-name="Zdotaccent" unicode="&#x17b;" horiz-adv-x="630" 
d="M20 0v128l383 482h-359v113h552v-118l-400 -492h414v-113h-590zM250 785v117h132v-117h-132z" />
    <glyph glyph-name="zdotaccent" unicode="&#x17c;" horiz-adv-x="494" 
d="M31 0v99l264 306h-254v99h414v-103l-257 -304h267v-97h-434zM184 609v117h132v-117h-132z" />
    <glyph glyph-name="Scommaaccent" unicode="&#x218;" horiz-adv-x="678" 
d="M633 215q0 -62 -27 -105.5t-70 -70.5t-97 -39.5t-107 -12.5q-59 0 -110.5 12.5t-90.5 40t-62 72.5t-24 110h157q2 -58 35 -90.5t98 -32.5q24 0 48 6t43.5 19t32 32.5t12.5 46.5q0 21 -9 35.5t-25.5 25.5t-41 19t-54.5 17l-52 15q-43 12 -83.5 28t-72.5 39.5t-51.5 57
t-19.5 82.5q0 60 25.5 101.5t66.5 66.5t92.5 36t102.5 11q53 0 100.5 -10t83.5 -34.5t57.5 -64.5t21.5 -100h-157q-5 50 -33.5 77t-84.5 27q-22 0 -42.5 -6t-37 -17.5t-26.5 -29.5t-10 -42q0 -20 9 -33.5t27.5 -24.5t47 -21t66.5 -22l60 -19q46 -15 83.5 -31.5t64 -39.5
t40.5 -54.5t14 -76.5zM404 -47l-77 -166h-97l48 166h126z" />
    <glyph glyph-name="scommaaccent" unicode="&#x219;" horiz-adv-x="541" 
d="M502 153q0 -49 -22 -81t-56 -51t-76.5 -26.5t-82.5 -7.5q-45 0 -85.5 8t-72 27.5t-50 53t-18.5 85.5h147q2 -44 21.5 -67t64.5 -23q15 0 30 4.5t26.5 12.5t19 20.5t7.5 29.5q0 29 -25.5 44.5t-70.5 26.5l-55 13q-28 7 -55 16.5t-48.5 26t-34.5 40.5t-13 59q0 45 20 74.5
t51.5 47t70 24.5t74.5 7q42 0 80 -8t68 -27t48.5 -50.5t21.5 -77.5h-143q-2 36 -21 58.5t-56 22.5q-13 0 -26.5 -3t-24.5 -10t-18 -17.5t-7 -25.5q0 -29 25.5 -43t71.5 -25l57 -13q29 -7 57.5 -17t50.5 -26.5t35.5 -41t13.5 -60.5zM336 -47l-77 -166h-97l48 166h126z" />
    <glyph glyph-name="uni021A" unicode="&#x21a;" horiz-adv-x="621" 
d="M389 608v-608h-157v608h-226v115h609v-115h-226zM380 -47l-77 -166h-97l48 166h126z" />
    <glyph glyph-name="uni021B" unicode="&#x21b;" horiz-adv-x="387" 
d="M249 409v-230q0 -22 1.5 -38.5t8.5 -27t21 -16t40 -5.5q12 0 23 1.5t24 2.5v-95q-26 -4 -52 -6t-52 -2q-38 0 -67 5.5t-49 20.5t-30 41.5t-10 67.5v281h-97v96h97v84l142 58v-142h119v-96h-119zM265 -47l-77 -166h-97l48 166h126z" />
    <glyph glyph-name="dotlessj" unicode="&#x237;" horiz-adv-x="288" 
d="M217 -46q0 -46 -10.5 -74.5t-31.5 -44.5t-52.5 -21.5t-74.5 -5.5q-16 0 -31.5 0.5t-32.5 1.5v100q6 -1 11.5 -1.5t11.5 -0.5q35 0 49.5 21.5t14.5 58.5v517h146v-551v0z" />
    <glyph glyph-name="caron" unicode="&#x2c7;" horiz-adv-x="319" 
d="M227 590h-136l-112 145h98l83 -89l80 89h100z" />
    <glyph glyph-name="uni02C9" unicode="&#x2c9;" horiz-adv-x="308" 
d="M-13 805v69h334v-69h-334z" />
    <glyph glyph-name="breve" unicode="&#x2d8;" horiz-adv-x="320" 
d="M329 723q-8 -73 -53.5 -104t-115.5 -31q-35 0 -65 8t-52.5 24.5t-36 42t-14.5 60.5h59q3 -20 14.5 -32t27.5 -19.5t33.5 -10t34.5 -2.5q38 0 67.5 12.5t43.5 51.5h57v0z" />
    <glyph glyph-name="dotaccent" unicode="&#x2d9;" horiz-adv-x="320" 
d="M94 609v117h132v-117h-132z" />
    <glyph glyph-name="ring" unicode="&#x2da;" horiz-adv-x="318" 
d="M55 676q0 22 8 40.5t22.5 32.5t33.5 22t40 8t40 -8t33.5 -22t22.5 -32.5t8 -40.5t-8 -40.5t-22.5 -32.5t-33.5 -22t-40 -8t-40 8t-33.5 22t-22.5 32.5t-8 40.5zM107 676q0 -23 14.5 -39.5t37.5 -16.5t37.5 16.5t14.5 39.5t-14.5 39.5t-37.5 16.5t-37.5 -16.5t-14.5 -39.5
z" />
    <glyph glyph-name="ogonek" unicode="&#x2db;" horiz-adv-x="319" 
d="M247 -181q-23 -11 -43 -17t-45 -6q-18 0 -34.5 4t-30 13t-21.5 23.5t-8 34.5q0 23 9 42t24 35t34 28.5t39 23.5h68q-41 -20 -67 -42t-26 -56q0 -26 14.5 -39.5t39.5 -13.5q22 0 44 11l3 -41v0z" />
    <glyph glyph-name="hungarumlaut" unicode="&#x2dd;" horiz-adv-x="319" 
d="M299 591h-103l106 144h161zM63 591h-102l105 144h161z" />
    <glyph glyph-name="uni0394" unicode="&#x394;" horiz-adv-x="736" 
d="M-3 0l283 723h171l288 -723h-742zM367 607l-185 -497h368z" />
    <glyph glyph-name="uni03A9" unicode="&#x3a9;" horiz-adv-x="774" 
d="M387 741q84 0 147.5 -28.5t106 -77t64 -111.5t21.5 -132q0 -44 -11 -86t-30 -78.5t-45 -65t-55 -46.5h136v-116h-278v116q60 37 93.5 104t33.5 155q0 45 -9 90t-30.5 80.5t-56.5 58t-87 22.5t-87 -22.5t-56.5 -58t-30.5 -80.5t-9 -90q0 -88 33.5 -155t93.5 -104v-116
h-278v116h136q-29 18 -55 46.5t-45 65t-30 78.5t-11 86q0 69 21.5 132t64 111.5t106 77t147.5 28.5z" />
    <glyph glyph-name="uni03BC" unicode="&#x3bc;" horiz-adv-x="636" 
d="M422 0l-2 73q-18 -37 -42.5 -59t-67.5 -22q-63 0 -93 62v-244h-146v694h146v-268q0 -26 2 -52.5t11 -47.5t28 -34t53 -13t55 13t33 35t16 49.5t4 56.5v261h146v-318q0 -47 0.5 -92.5t2.5 -93.5h-146z" />
    <glyph glyph-name="pi" unicode="&#x3c0;" horiz-adv-x="742" 
d="M682 15q-46 -23 -112 -23q-34 0 -57 10.5t-37.5 29.5t-20.5 45t-6 58v257h-168v-392h-147v392h-80v112h628v-112h-87v-243q0 -52 42 -52q14 0 24 3t21 8v-93v0z" />
    <glyph glyph-name="Wgrave" unicode="&#x1e80;" horiz-adv-x="1110" 
d="M909 0h-189l-161 591l-164 -591h-189l-202 723h165l140 -590l160 590h190l156 -590l137 590h154zM554 776l-166 145h164l100 -145h-98z" />
    <glyph glyph-name="wgrave" unicode="&#x1e81;" horiz-adv-x="929" 
d="M747 0h-157l-120 382l-127 -382h-156l-178 504h158l104 -383l124 383h165l116 -383l107 383h137zM464 590l-166 145h164l100 -145h-98z" />
    <glyph glyph-name="Wacute" unicode="&#x1e82;" horiz-adv-x="1110" 
d="M909 0h-189l-161 591l-164 -591h-189l-202 723h165l140 -590l160 590h190l156 -590l137 590h154zM579 776h-101l104 145h161z" />
    <glyph glyph-name="wacute" unicode="&#x1e83;" horiz-adv-x="929" 
d="M747 0h-157l-120 382l-127 -382h-156l-178 504h158l104 -383l124 383h165l116 -383l107 383h137zM489 590h-101l104 145h161z" />
    <glyph glyph-name="Wdieresis" unicode="&#x1e84;" horiz-adv-x="1110" 
d="M909 0h-189l-161 591l-164 -591h-189l-202 723h165l140 -590l160 590h190l156 -590l137 590h154zM611 785v117h133v-117h-133zM375 785v117h132v-117h-132z" />
    <glyph glyph-name="wdieresis" unicode="&#x1e85;" horiz-adv-x="929" 
d="M747 0h-157l-120 382l-127 -382h-156l-178 504h158l104 -383l124 383h165l116 -383l107 383h137zM522 609v117h133v-117h-133zM286 609v117h132v-117h-132z" />
    <glyph glyph-name="Ygrave" unicode="&#x1ef2;" horiz-adv-x="688" 
d="M423 281v-281h-157v281l-281 443h183l182 -335l184 335h169zM339 776l-166 145h164l100 -145h-98z" />
    <glyph glyph-name="ygrave" unicode="&#x1ef3;" horiz-adv-x="575" 
d="M288 -190h-139l80 187l-228 507h164l135 -377l130 377h144zM286 590l-166 145h164l100 -145h-98z" />
    <glyph glyph-name="fraction" unicode="&#x2044;" horiz-adv-x="173" 
d="M-73 -27h-91l410 782h91z" />
    <glyph glyph-name="zero.superior" unicode="&#x2070;" horiz-adv-x="400" 
d="M372 680q0 -42 -8.5 -81.5t-28.5 -70.5t-53.5 -50t-83.5 -19t-82.5 19.5t-52 51t-27.5 71t-8 80.5q0 40 8.5 79t28.5 69.5t53 49t82 18.5t82.5 -18.5t53 -49t28 -69.5t8.5 -80zM271 675q0 18 -1.5 44t-8 49.5t-20.5 40t-39 16.5q-27 0 -42 -16.5t-21.5 -40t-8 -49.5
t-1.5 -45q0 -17 1.5 -41.5t8 -47t20.5 -38.5t39 -16q26 0 40.5 15.5t22 38t9 47.5t1.5 43z" />
    <glyph glyph-name="four.superior" unicode="&#x2074;" horiz-adv-x="400" 
d="M319 556v-88h-95v88h-202v82l184 250h113v-262h67v-70h-67zM225 800l-123 -174h123v174z" />
    <glyph glyph-name="five.superior" unicode="&#x2075;" horiz-adv-x="400" 
d="M374 614q0 -77 -47 -116t-121 -39q-32 0 -61 5.5t-51.5 19.5t-36 38t-13.5 61h100q2 -27 19 -39.5t43 -12.5q35 0 50.5 24t15.5 56q0 29 -15 51t-47 22q-21 0 -37 -10.5t-24 -31.5h-100l11 246h291v-73h-201l-5 -99q30 39 92 39q32 0 57.5 -11t43 -30t27 -45t9.5 -55z
" />
    <glyph glyph-name="six.superior" unicode="&#x2076;" horiz-adv-x="400" 
d="M374 611q0 -35 -12.5 -63t-35 -47.5t-52.5 -30.5t-64 -11q-50 0 -84 17.5t-54.5 47t-29.5 68.5t-9 82t9 83t30 71t55.5 50t85.5 19q60 0 101 -27.5t46 -87.5h-97q-6 46 -53 46q-23 0 -38 -12t-24 -30t-13.5 -39.5t-5.5 -41.5q20 24 46 34.5t58 10.5q30 0 55.5 -10
t44.5 -28t30 -43.5t11 -57.5zM280 608q0 31 -16.5 52.5t-51.5 21.5q-38 0 -55.5 -22.5t-17.5 -53.5q0 -32 18.5 -53.5t52.5 -21.5q35 0 52.5 22.5t17.5 54.5z" />
    <glyph glyph-name="seven.superior" unicode="&#x2077;" horiz-adv-x="400" 
d="M198 468h-116l176 344h-219v76h322v-74z" />
    <glyph glyph-name="eight.superior" unicode="&#x2078;" horiz-adv-x="400" 
d="M374 587q0 -33 -14 -57t-37 -40t-54 -23.5t-65 -7.5q-36 0 -68 7t-56 22.5t-38.5 39.5t-14.5 57q0 40 21.5 64.5t56.5 37.5q-26 10 -46 31.5t-20 59.5q0 30 13 52.5t35.5 37t52.5 22t63 7.5t62 -7t51 -21.5t35 -36t13 -50.5q0 -35 -18 -58.5t-47 -36.5q29 -10 52 -33.5
t23 -66.5zM267 774q0 27 -19 42t-45 15q-27 0 -47 -15t-20 -42t19.5 -40.5t46.5 -13.5q26 0 45.5 14t19.5 40zM275 593q0 31 -21.5 46t-53.5 15t-52.5 -15.5t-20.5 -45.5q0 -31 21 -48t53 -17t53 16.5t21 48.5z" />
    <glyph glyph-name="nine.superior" unicode="&#x2079;" horiz-adv-x="400" 
d="M371 686q0 -45 -7.5 -86t-28 -72.5t-55.5 -50t-89 -18.5q-73 0 -115.5 31t-44.5 87h100q2 -23 16 -33.5t44 -10.5q27 0 43 12.5t25 31.5t12 42t4 43q-31 -44 -100 -44q-31 0 -57.5 9.5t-46 27.5t-30.5 43.5t-11 56.5q0 33 13 59.5t35.5 45t52.5 28t65 9.5q51 0 85 -17
t54 -46t28 -67t8 -81zM268 757q0 31 -19 50t-52 19q-35 0 -53.5 -19.5t-18.5 -49.5t18.5 -50.5t50.5 -20.5q34 0 54 19.5t20 51.5z" />
    <glyph glyph-name="zero.inferior" unicode="&#x2080;" horiz-adv-x="400" 
d="M372 47q0 -42 -8.5 -81.5t-28.5 -70.5t-53.5 -50t-83.5 -19t-82.5 19.5t-52 51t-27.5 71t-8 80.5q0 40 8.5 79t28.5 69.5t53 49t82 18.5t82.5 -18.5t53 -49t28 -69.5t8.5 -80zM271 42q0 18 -1.5 44t-8 49.5t-20.5 40t-39 16.5q-27 0 -42 -16.5t-21.5 -40t-8 -49.5
t-1.5 -45q0 -17 1.5 -41.5t8 -47t20.5 -38.5t39 -16q26 0 40.5 15.5t22 38t9 47.5t1.5 43z" />
    <glyph glyph-name="one.inferior" unicode="&#x2081;" horiz-adv-x="400" 
d="M173 -165v319q-25 -17 -47.5 -28t-51.5 -20v83q19 6 33.5 12t27.5 13.5t25.5 17t27.5 23.5h87v-420h-102z" />
    <glyph glyph-name="two.inferior" unicode="&#x2082;" horiz-adv-x="400" 
d="M34 -165v77l13 10q25 18 60.5 45t68 57t55.5 61t23 57q0 23 -15 36t-39 13q-27 0 -42 -16.5t-16 -45.5h-102q1 37 15 62.5t36.5 41.5t52 23.5t60.5 7.5t59 -7t49 -21.5t33.5 -37t12.5 -53.5q0 -27 -12.5 -54t-34.5 -53t-52 -52.5t-65 -53.5l-26 -20h193v-77h-327z" />
    <glyph glyph-name="three.inferior" unicode="&#x2083;" horiz-adv-x="400" 
d="M371 -48q0 -36 -16 -60t-41 -39t-56 -21t-61 -6q-33 0 -63.5 6.5t-53.5 21.5t-37.5 40.5t-17.5 63.5h102q1 -31 21 -45.5t48 -14.5q30 0 52 15t22 46q0 32 -26 44.5t-62 12.5q-19 0 -35 -3v72q6 -1 14.5 -1.5t14.5 -0.5q37 0 62 11.5t25 46.5q0 26 -17 39t-45 13
q-22 0 -42.5 -12.5t-20.5 -44.5h-104q0 34 16 58.5t40 40t53.5 22.5t56.5 7t56 -6t52.5 -19.5t38.5 -35.5t15 -55q0 -35 -18 -57t-56 -39q35 -11 59 -34.5t24 -65.5z" />
    <glyph glyph-name="four.inferior" unicode="&#x2084;" horiz-adv-x="400" 
d="M319 -77v-88h-95v88h-202v82l184 250h113v-262h67v-70h-67zM225 167l-123 -174h123v174z" />
    <glyph glyph-name="five.inferior" unicode="&#x2085;" horiz-adv-x="400" 
d="M374 -19q0 -77 -47 -116t-121 -39q-32 0 -61 5.5t-51.5 19.5t-36 38t-13.5 61h100q2 -27 19 -39.5t43 -12.5q35 0 50.5 24t15.5 56q0 29 -15 51t-47 22q-21 0 -37 -10.5t-24 -31.5h-100l11 246h291v-73h-201l-5 -99q30 39 92 39q32 0 57.5 -11t43 -30t27 -45t9.5 -55z
" />
    <glyph glyph-name="six.inferior" unicode="&#x2086;" horiz-adv-x="400" 
d="M374 -22q0 -35 -12.5 -63t-35 -47.5t-52.5 -30.5t-64 -11q-50 0 -84 17.5t-54.5 47t-29.5 68.5t-9 82t9 83t30 71t55.5 50t85.5 19q60 0 101 -27.5t46 -87.5h-97q-6 46 -53 46q-23 0 -38 -12t-24 -30t-13.5 -39.5t-5.5 -41.5q20 24 46 34.5t58 10.5q30 0 55.5 -10
t44.5 -28t30 -43.5t11 -57.5zM280 -25q0 31 -16.5 52.5t-51.5 21.5q-38 0 -55.5 -22.5t-17.5 -53.5q0 -32 18.5 -53.5t52.5 -21.5q35 0 52.5 22.5t17.5 54.5z" />
    <glyph glyph-name="seven.inferior" unicode="&#x2087;" horiz-adv-x="400" 
d="M198 -165h-116l176 344h-219v76h322v-74z" />
    <glyph glyph-name="eight.inferior" unicode="&#x2088;" horiz-adv-x="400" 
d="M374 -46q0 -33 -14 -57t-37 -40t-54 -23.5t-65 -7.5q-36 0 -68 7t-56 22.5t-38.5 39.5t-14.5 57q0 40 21.5 64.5t56.5 37.5q-26 10 -46 31.5t-20 59.5q0 30 13 52.5t35.5 37t52.5 22t63 7.5t62 -7t51 -21.5t35 -36t13 -50.5q0 -35 -18 -58.5t-47 -36.5q29 -10 52 -33.5
t23 -66.5zM267 141q0 27 -19 42t-45 15q-27 0 -47 -15t-20 -42t19.5 -40.5t46.5 -13.5q26 0 45.5 14t19.5 40zM275 -40q0 31 -21.5 46t-53.5 15t-52.5 -15.5t-20.5 -45.5q0 -31 21 -48t53 -17t53 16.5t21 48.5z" />
    <glyph glyph-name="nine.inferior" unicode="&#x2089;" horiz-adv-x="400" 
d="M371 53q0 -45 -7.5 -86t-28 -72.5t-55.5 -50t-89 -18.5q-73 0 -115.5 31t-44.5 87h100q2 -23 16 -33.5t44 -10.5q27 0 43 12.5t25 31.5t12 42t4 43q-31 -44 -100 -44q-31 0 -57.5 9.5t-46 27.5t-30.5 43.5t-11 56.5q0 33 13 59.5t35.5 45t52.5 28t65 9.5q51 0 85 -17
t54 -46t28 -67t8 -81zM268 124q0 31 -19 50t-52 19q-35 0 -53.5 -19.5t-18.5 -49.5t18.5 -50.5t50.5 -20.5q34 0 54 19.5t20 51.5z" />
    <glyph glyph-name="afii61289" unicode="&#x2113;" horiz-adv-x="516" 
d="M459 570q0 -78 -53.5 -159.5t-169.5 -171.5v-64q0 -42 19.5 -62.5t53.5 -20.5q33 0 59.5 18t49.5 45l66 -63q-38 -50 -87 -77t-109 -27q-82 0 -123.5 40.5t-49.5 120.5l-43 -33l-52 77l94 71v248q0 115 50.5 169.5t131.5 54.5q75 0 119 -44t44 -122zM236 360
q64 58 91 111.5t27 102.5q0 36 -15.5 55t-38.5 19q-26 0 -45 -23.5t-19 -83.5v-181z" />
    <glyph glyph-name="Omega" unicode="&#x2126;" horiz-adv-x="774" 
d="M387 741q84 0 147.5 -28.5t106 -77t64 -111.5t21.5 -132q0 -44 -11 -86t-30 -78.5t-45 -65t-55 -46.5h136v-116h-278v116q60 37 93.5 104t33.5 155q0 45 -9 90t-30.5 80.5t-56.5 58t-87 22.5t-87 -22.5t-56.5 -58t-30.5 -80.5t-9 -90q0 -88 33.5 -155t93.5 -104v-116
h-278v116h136q-29 18 -55 46.5t-45 65t-30 78.5t-11 86q0 69 21.5 132t64 111.5t106 77t147.5 28.5z" />
    </font>
</defs>
</svg>
