<?xml version="1.0" standalone="no"?>
<!DOCTYPE svg PUBLIC "-//W3C//DTD SVG 1.1//EN" "http://www.w3.org/Graphics/SVG/1.1/DTD/svg11.dtd" >
<svg xmlns="http://www.w3.org/2000/svg" xmlns:xlink="http://www.w3.org/1999/xlink" version="1.1">
<metadata>
Created by FontForge 20201107 at Tue Feb  9 13:59:58 2010
 By Jimmy Wärting
Copyright (c) 2010 Linotype GmbH, www.linotype.com. All rights reserved. This font software may not be reproduced, modified, disclosed or transferred without the express written approval of Linotype GmbH. Univers is a trademark of Linotype Corp. registered in the U.S. Patent and Trademark Office and may be registered in certain other jurisdictions in the name of Linotype Corp. or its licensee Linotype GmbH. This typeface is original artwork of Adrian Frutiger and Linotype Design Studio. The design may be protected in certain jurisdictions.
</metadata>
<defs>
<font id="UniversNextPro-HeavyCondIt" horiz-adv-x="500" >
  <font-face 
    font-family="Univers Next Pro Condensed"
    font-weight="700"
    font-style="italic"
    font-stretch="condensed"
    units-per-em="1000"
    panose-1="2 11 9 6 3 2 2 9 2 3"
    ascent="750"
    descent="-250"
    x-height="504"
    cap-height="723"
    bbox="-206 -227 974 955"
    underline-thickness="50"
    underline-position="-100"
    slope="-16"
    unicode-range="U+000D-FB04"
  />
<missing-glyph horiz-adv-x="512" 
d="M222 117v67h56v-67h-56zM223 234v17q0 27 3 46.5t10 35t18 29t28 29.5q16 16 26 28t15 22t7 19t2 20q0 36 -22.5 57.5t-53.5 21.5t-53.5 -22t-28.5 -73l-50 8q7 72 44 104.5t91 32.5q27 0 49.5 -9t39 -25t26 -39.5t9.5 -51.5q0 -17 -2.5 -32.5t-9.5 -30.5t-19.5 -30
t-31.5 -33q-16 -14 -25.5 -25t-15 -22t-7 -23.5t-1.5 -29.5v-24h-48zM462 50v617h-412v-617h412zM512 718v-718h-512v718h512z" />
    <glyph glyph-name="IJ" unicode="IJ" horiz-adv-x="809" 
d="M119 0h-152l207 723h152zM704 221q-17 -60 -38.5 -104.5t-53 -73.5t-75.5 -43.5t-107 -14.5q-34 0 -65.5 7t-55.5 22t-38.5 39.5t-14.5 59.5q0 36 7 68t18 64h148q-3 -12 -7.5 -26.5t-8 -29.5t-6 -28.5t-2.5 -22.5q0 -46 45 -46q25 0 41.5 12t28.5 31.5t19.5 43
t14.5 47.5l142 497h152z" />
    <glyph glyph-name="ij" unicode="ij" horiz-adv-x="506" 
d="M267 604h-141l33 113h141zM94 0h-141l145 504h141zM520 604h-141l33 113h141zM334 -47q-14 -48 -31 -77t-41.5 -44.5t-58.5 -20.5t-82 -5h-15.5t-15.5 1l25 87q19 0 31.5 2.5t21 9t14.5 18.5t11 30l158 550h141z" />
    <glyph glyph-name="napostrophe" unicode="&#x22;n" horiz-adv-x="513" 
d="M513 427q0 -18 -4 -34.5t-9 -33.5l-103 -359h-141l96 336q4 14 7.5 29t3.5 30q0 37 -39 37q-20 0 -36 -11t-27.5 -27t-19.5 -35.5t-13 -35.5l-93 -323h-141l121 423q6 20 11.5 40.5t8.5 40.5h143l-14 -51q31 32 65 47.5t78 15.5q21 0 40.5 -5t34 -15.5t23 -27.5t8.5 -41z
M105 544h-94l66 179h129z" />
    <glyph glyph-name="f_f" unicode="ff" horiz-adv-x="610" 
d="M376 639h-6q-24 0 -40.5 -5.5t-27.5 -17.5t-18.5 -30.5t-14.5 -44.5l-10 -37h76l-25 -86h-76l-120 -418h-140l120 418h-67l25 86h67l10 37q10 39 22.5 73.5t32.5 60t52 40.5t83 15q41 0 82 -3zM678 639h-6q-24 0 -40.5 -5.5t-27.5 -17.5t-18.5 -30.5t-14.5 -44.5l-10 -37
h76l-25 -86h-76l-120 -418h-140l120 418h-67l25 86h67l10 37q10 39 22.5 73.5t32.5 60t52 40.5t83 15q41 0 82 -3z" />
    <glyph glyph-name="fi" unicode="fi" horiz-adv-x="538" 
d="M376 639h-6q-24 0 -40.5 -5.5t-27.5 -17.5t-18.5 -30.5t-14.5 -44.5l-10 -37h76l-25 -86h-76l-120 -418h-140l120 418h-67l25 86h67l10 37q10 39 22.5 73.5t32.5 60t52 40.5t83 15q41 0 82 -3zM552 604h-141l33 113h141zM379 0h-141l145 504h141z" />
    <glyph glyph-name="fl" unicode="fl" horiz-adv-x="538" 
d="M376 639h-6q-24 0 -40.5 -5.5t-27.5 -17.5t-18.5 -30.5t-14.5 -44.5l-10 -37h76l-25 -86h-76l-120 -418h-140l120 418h-67l25 86h67l10 37q10 39 22.5 73.5t32.5 60t52 40.5t83 15q41 0 82 -3zM379 0h-141l207 723h141z" />
    <glyph glyph-name="f_f_i" unicode="ffi" horiz-adv-x="840" 
d="M376 639h-6q-24 0 -40.5 -5.5t-27.5 -17.5t-18.5 -30.5t-14.5 -44.5l-10 -37h76l-25 -86h-76l-120 -418h-140l120 418h-67l25 86h67l10 37q10 39 22.5 73.5t32.5 60t52 40.5t83 15q41 0 82 -3zM678 639h-6q-24 0 -40.5 -5.5t-27.5 -17.5t-18.5 -30.5t-14.5 -44.5l-10 -37
h76l-25 -86h-76l-120 -418h-140l120 418h-67l25 86h67l10 37q10 39 22.5 73.5t32.5 60t52 40.5t83 15q41 0 82 -3zM854 604h-141l33 113h141zM681 0h-141l145 504h141z" />
    <glyph glyph-name="f_f_l" unicode="ffl" horiz-adv-x="840" 
d="M376 639h-6q-24 0 -40.5 -5.5t-27.5 -17.5t-18.5 -30.5t-14.5 -44.5l-10 -37h76l-25 -86h-76l-120 -418h-140l120 418h-67l25 86h67l10 37q10 39 22.5 73.5t32.5 60t52 40.5t83 15q41 0 82 -3zM678 639h-6q-24 0 -40.5 -5.5t-27.5 -17.5t-18.5 -30.5t-14.5 -44.5l-10 -37
h76l-25 -86h-76l-120 -418h-140l120 418h-67l25 86h67l10 37q10 39 22.5 73.5t32.5 60t52 40.5t83 15q41 0 82 -3zM681 0h-141l207 723h141z" />
    <glyph glyph-name=".notdef" horiz-adv-x="512" 
d="M222 117v67h56v-67h-56zM223 234v17q0 27 3 46.5t10 35t18 29t28 29.5q16 16 26 28t15 22t7 19t2 20q0 36 -22.5 57.5t-53.5 21.5t-53.5 -22t-28.5 -73l-50 8q7 72 44 104.5t91 32.5q27 0 49.5 -9t39 -25t26 -39.5t9.5 -51.5q0 -17 -2.5 -32.5t-9.5 -30.5t-19.5 -30
t-31.5 -33q-16 -14 -25.5 -25t-15 -22t-7 -23.5t-1.5 -29.5v-24h-48zM462 50v617h-412v-617h412zM512 718v-718h-512v718h512z" />
    <glyph glyph-name="nonmarkingreturn" unicode="&#xd;" horiz-adv-x="0" 
 />
    <glyph glyph-name="space" unicode=" " horiz-adv-x="250" 
 />
    <glyph glyph-name="exclam" unicode="!" horiz-adv-x="314" 
d="M158 194h-96l129 529h140zM113 0h-116l34 118h116z" />
    <glyph glyph-name="quotedbl" unicode="&#x22;" horiz-adv-x="435" 
d="M401 416h-78l-22 297h122zM215 416h-79l-22 297h123z" />
    <glyph glyph-name="numbersign" unicode="#" 
d="M485 430h-81l-39 -137h65l-14 -102h-80l-54 -191h-96l54 191h-78l-54 -191h-95l55 191h-67l14 102h82l39 137h-66l14 102h82l53 191h96l-55 -191h79l54 191h96l-56 -191h66zM232 430l-41 -137h79l40 137h-78z" />
    <glyph glyph-name="dollar" unicode="$" 
d="M382 710q65 -5 98.5 -32t33.5 -76q0 -23 -4 -44t-11 -43h-126q4 14 7 29t3 29t-7 25.5t-21 16.5l-58 -202q67 -47 99 -82.5t32 -72.5q0 -15 -1.5 -28t-6.5 -28q-26 -93 -82 -138t-156 -51l-29 -103h-56l29 102q-69 4 -109 32t-40 84q0 25 5.5 49.5t12.5 48.5h135
q-5 -17 -9 -33.5t-4 -33.5q0 -43 37 -50l59 205q-35 25 -60 43.5t-41 35.5t-23.5 35t-7.5 42q0 15 2.5 32t7.5 31q28 84 83.5 128t151.5 49l26 88h56zM216 518q0 -18 9 -37t26 -34l48 169q-38 -10 -60.5 -39t-22.5 -59zM293 216q0 16 -10 34t-24 31l-48 -170q38 11 60 40
t22 65z" />
    <glyph glyph-name="percent" unicode="%" horiz-adv-x="784" 
d="M395 646q0 -25 -4.5 -50t-11.5 -48q-11 -39 -26 -72t-37 -57t-53.5 -38t-75.5 -14q-51 0 -82.5 22.5t-31.5 75.5q0 21 4 42.5t10 41.5q11 39 25.5 72.5t37 58.5t54 39.5t75.5 14.5q23 0 44 -4t37 -14t25.5 -27t9.5 -43zM171 -25h-68l517 773h68zM713 268q0 -25 -4.5 -50
t-11.5 -48q-11 -39 -26 -72t-37 -57t-53.5 -38t-75.5 -14q-51 0 -82.5 22.5t-31.5 75.5q0 21 4 42t10 41q11 39 25.5 72.5t37 59t54 40t75.5 14.5q23 0 44 -4t37 -14t25.5 -27t9.5 -43zM300 629q0 16 -6.5 29t-25.5 13q-24 0 -42.5 -24t-31 -56.5t-19.5 -66t-7 -52.5
q0 -16 6 -29t25 -13q24 0 43 24t31.5 56.5t19.5 66t7 52.5zM618 251q0 16 -6.5 29t-25.5 13q-24 0 -43 -24t-31.5 -56t-19.5 -65t-7 -52q0 -16 6 -30t26 -14q24 0 43 24t31.5 56.5t19.5 66t7 52.5z" />
    <glyph glyph-name="ampersand" unicode="&#x26;" horiz-adv-x="625" 
d="M608 332h-102l-95 -332h-239q-31 0 -62 7t-55.5 23.5t-40 42.5t-15.5 65q0 31 5 56.5t16 49.5q26 54 75.5 90t109.5 47q-42 11 -68.5 45t-26.5 79q0 25 8 52q13 47 39 80.5t61.5 55.5t78 32t90.5 10q21 0 41.5 -2t40.5 -5l-30 -100q-8 2 -23.5 2.5t-23.5 0.5
q-27 0 -53 -8.5t-46.5 -25.5t-32.5 -42.5t-12 -58.5q0 -20 9.5 -32t24.5 -18.5t33.5 -8.5t36.5 -2h60l38 134h124l-39 -134h102zM302 332q-65 0 -97 -30.5t-48 -86.5q-3 -11 -5 -22t-2 -22q0 -21 8 -34.5t21 -21t30.5 -10.5t36.5 -3h70l66 230h-80z" />
    <glyph glyph-name="quotesingle" unicode="'" horiz-adv-x="236" 
d="M221 416h-74l-24 297h122z" />
    <glyph glyph-name="parenleft" unicode="(" horiz-adv-x="287" 
d="M345 723q-61 -103 -110 -213.5t-81 -225.5q-15 -54 -24 -108.5t-15 -109.5t-10.5 -110.5t-10.5 -110.5h-79q-4 45 -6.5 88t-2.5 88q0 69 6.5 137.5t25.5 134.5q15 54 40.5 110.5t56 112t64.5 108.5t66 99h80v0z" />
    <glyph glyph-name="parenright" unicode=")" horiz-adv-x="287" 
d="M241 537q0 -62 -6.5 -123t-23.5 -121q-15 -54 -42 -113.5t-59 -118t-66.5 -114t-65.5 -102.5h-79q25 54 51.5 108t52 108t47.5 109.5t39 113.5q14 50 26 105t20 112t12 113.5t3 108.5h79q5 -47 8.5 -93t3.5 -93z" />
    <glyph glyph-name="asterisk" unicode="*" horiz-adv-x="445" 
d="M310 522l86 -116l-86 -49l-50 136l-57 -136l-84 51l88 118l-137 -23v98l138 -17l-81 108l83 46l51 -124l48 124l86 -48l-84 -106l139 18v-99z" />
    <glyph glyph-name="plus" unicode="+" horiz-adv-x="585" 
d="M316 213v-198h-123v198h-187v115h187v197h123v-197h186v-115h-186z" />
    <glyph glyph-name="comma" unicode="," horiz-adv-x="246" 
d="M0 -99h-96l106 232h132z" />
    <glyph glyph-name="hyphen" unicode="-" horiz-adv-x="333" 
d="M248 219h-245l29 102h245z" />
    <glyph glyph-name="period" unicode="." horiz-adv-x="246" 
d="M80 0h-120l38 133h120z" />
    <glyph glyph-name="slash" unicode="/" horiz-adv-x="277" 
d="M-24 -15h-102l429 753h103z" />
    <glyph glyph-name="zero" unicode="0" 
d="M510 615q0 -30 -8 -71.5t-21 -86.5l-44 -155q-20 -71 -39.5 -129t-49.5 -99t-76.5 -64t-120.5 -23q-33 0 -64 5.5t-55 20t-38 38.5t-14 62q0 41 10.5 87.5t24.5 97.5l56 195q16 56 36.5 101t51 76.5t74 48.5t106.5 17q34 0 65 -5t54.5 -18.5t37.5 -37t14 -60.5zM368 595
q0 23 -9.5 36t-33.5 13q-25 0 -42.5 -14t-33 -44t-30 -76t-33.5 -110l-29 -98q-14 -46 -25.5 -94t-11.5 -79q0 -23 9.5 -36.5t33.5 -13.5t42 14.5t32.5 43.5t28.5 71.5t31 99.5l29 100q7 25 14.5 51.5t13.5 51t10 46.5t4 38z" />
    <glyph glyph-name="one" unicode="1" 
d="M247 0h-147l162 563q-32 -25 -68 -44t-73 -36l38 132q45 23 87 49.5t80 58.5h129z" />
    <glyph glyph-name="two" unicode="2" 
d="M519 605q0 -35 -9.5 -64.5t-34 -65t-68.5 -82t-113 -113.5l-187 -183h277l-28 -97h-430l32 113l248 253q49 49 81.5 83t52 59.5t27.5 46t8 43.5q0 20 -13.5 32t-33.5 12q-23 0 -38.5 -9.5t-26.5 -24.5t-18.5 -34t-12.5 -37h-141q26 101 87 150t163 49q36 0 68 -6
t56.5 -21t39 -40.5t14.5 -63.5z" />
    <glyph glyph-name="three" unicode="3" 
d="M510 622q0 -18 -3 -39t-7 -35q-8 -28 -19 -55t-28.5 -49.5t-42.5 -39t-60 -23.5q37 -9 56 -36t19 -66q0 -19 -4.5 -39t-10.5 -42q-16 -54 -37.5 -93.5t-52 -65.5t-72.5 -39t-98 -13q-30 0 -62.5 3.5t-59.5 15.5t-44 34.5t-17 60.5q0 23 3.5 44.5t9.5 43.5h141
q-4 -14 -7 -28.5t-3 -28.5q0 -23 11.5 -37.5t35.5 -14.5t41.5 10t29.5 26t20 36.5t14 40.5t10.5 40.5t4.5 37.5q0 38 -23 49.5t-58 11.5h-26l27 94h11q34 0 57.5 6t40 19.5t28 36t20.5 55.5q4 13 6.5 27t2.5 28q0 46 -43 46q-20 0 -34.5 -8.5t-25 -22t-17 -30t-11.5 -33.5
h-139q25 101 83.5 143.5t158.5 42.5q34 0 65.5 -5.5t55.5 -19t38.5 -35t14.5 -54.5z" />
    <glyph glyph-name="four" unicode="4" 
d="M377 260h75l-28 -95h-75l-47 -165h-139l47 165h-232q1 3 6 21t11 39t11 38l5 17l301 443h198zM110 259h134l106 368z" />
    <glyph glyph-name="five" unicode="5" 
d="M505 627h-238l-66 -208q29 26 56 37.5t66 11.5q53 0 86 -25.5t33 -82.5q0 -29 -5 -56t-13 -54q-18 -60 -37 -109t-49 -83t-75.5 -52.5t-117.5 -18.5q-33 0 -64 4.5t-55 16.5t-38.5 33.5t-14.5 56.5q0 34 9 66h142q-3 -10 -5 -19.5t-2 -19.5q0 -45 45 -45q22 0 38.5 12
t29.5 34t23 52t21 66q7 22 13 51t6 45q0 17 -9.5 29.5t-31.5 12.5q-32 0 -52 -21t-31 -51h-137l128 413h373z" />
    <glyph glyph-name="six" unicode="6" 
d="M518 630q0 -14 -2 -27.5t-6 -27.5h-142q5 17 5 31q0 40 -42 40q-21 0 -38 -14t-31 -35.5t-25 -49t-19.5 -54.5t-15 -51.5t-10.5 -39.5q32 30 60.5 42t69.5 12q56 0 88.5 -25.5t32.5 -84.5q0 -30 -6 -58.5t-14 -57.5q-17 -57 -38.5 -102.5t-52.5 -76.5t-73.5 -47.5
t-102.5 -16.5q-34 0 -64.5 6t-54 20.5t-37.5 39t-14 62.5q0 42 10.5 86t21.5 85q31 112 58.5 196t63 140.5t85.5 85t127 28.5q27 0 56.5 -4t54 -15.5t40 -32t15.5 -54.5zM299 322q0 24 -12 34.5t-35 10.5q-38 0 -61.5 -34t-43.5 -92q-8 -24 -12.5 -41t-7 -29.5t-3.5 -22.5
t-1 -19q0 -23 10.5 -36.5t35.5 -13.5q42 0 66.5 37.5t45.5 114.5q8 27 13 50.5t5 40.5z" />
    <glyph glyph-name="seven" unicode="7" 
d="M524 723q-1 -3 -6 -20.5t-11 -38t-11 -37l-5 -16.5l-346 -611h-157l377 626h-248l28 97h379v0z" />
    <glyph glyph-name="eight" unicode="8" 
d="M516 615q0 -51 -17 -102t-55 -88q-17 -16 -38 -28t-47 -19q70 -23 70 -98q0 -18 -4 -38.5t-10 -41.5q-15 -56 -37 -96t-52.5 -66t-72.5 -38.5t-97 -12.5q-31 0 -63 4.5t-57.5 17.5t-41.5 36.5t-16 61.5q0 23 3.5 43.5t9.5 43.5q9 35 21.5 64.5t30.5 52.5t42.5 39.5
t58.5 27.5q-32 9 -47 34.5t-15 58.5q0 14 3.5 31t8.5 35q15 52 36.5 89.5t51 62t69 36t90.5 11.5q32 0 63.5 -5.5t56 -19.5t40 -37t15.5 -59zM375 601q0 43 -45 43q-23 0 -38 -10t-25.5 -26t-17.5 -36t-13 -40q-5 -15 -8 -32t-3 -30q0 -21 9.5 -33.5t32.5 -12.5q21 0 36.5 9
t26 24.5t18.5 35.5t14 42q6 20 9.5 37.5t3.5 28.5zM286 281q0 23 -10.5 37t-35.5 14q-29 0 -50.5 -22.5t-36.5 -55t-22.5 -67.5t-7.5 -59q0 -23 10.5 -36.5t34.5 -13.5q43 0 65.5 35.5t38.5 91.5q5 19 9.5 37.5t4.5 38.5z" />
    <glyph glyph-name="nine" unicode="9" 
d="M502 612q0 -50 -18.5 -120t-51.5 -179q-25 -84 -47.5 -145t-53.5 -101.5t-76.5 -60t-117.5 -19.5q-32 0 -62.5 4.5t-54 17t-38 34t-14.5 55.5q0 16 2.5 32t7.5 31h142q-6 -20 -6 -39q0 -25 11.5 -35t32.5 -10q20 0 37.5 13.5t34 43t32.5 76.5t33 113q-15 -13 -29 -23
t-28.5 -16.5t-30.5 -10t-37 -3.5q-57 0 -91.5 27t-34.5 86q0 28 4.5 53.5t12.5 51.5q17 57 38.5 103t52 78.5t73.5 49.5t103 17q33 0 64.5 -5t56 -19t39 -38t14.5 -62zM363 594q0 25 -10.5 37.5t-35.5 12.5q-26 0 -44.5 -15.5t-31.5 -38.5t-21 -49t-14 -46q-8 -28 -13 -48.5
t-5 -42.5q0 -46 47 -46q23 0 40 12t30 31.5t22.5 45.5t17.5 54t13 52t5 41z" />
    <glyph glyph-name="colon" unicode=":" horiz-adv-x="246" 
d="M187 372h-120l38 133h120zM80 0h-120l38 133h120z" />
    <glyph glyph-name="semicolon" unicode=";" horiz-adv-x="246" 
d="M197 375h-118l37 130h118zM0 -99h-96l108 232h130z" />
    <glyph glyph-name="less" unicode="&#x3c;" horiz-adv-x="585" 
d="M6 213v115l496 194v-128l-342 -124l342 -122v-130z" />
    <glyph glyph-name="equal" unicode="=" horiz-adv-x="579" 
d="M6 323v114h496v-114h-496zM6 102v115h496v-115h-496z" />
    <glyph glyph-name="greater" unicode="&#x3e;" horiz-adv-x="585" 
d="M6 18v130l342 122l-342 124v128l496 -194v-115z" />
    <glyph glyph-name="question" unicode="?" horiz-adv-x="437" 
d="M475 630q0 -41 -13 -76.5t-36 -68t-54 -63.5t-67 -64q-16 -15 -27.5 -28t-20 -27t-15 -30.5t-12.5 -38.5l-11 -40h-104l20 73q6 22 15 41.5t22.5 40.5t32.5 44t45 52q34 37 59 73.5t25 78.5q0 43 -42 43q-23 0 -38.5 -10t-26 -26t-17 -35t-11.5 -37h-120q14 49 32.5 87.5
t45.5 65t65.5 40t92.5 13.5q28 0 56.5 -4.5t51.5 -16.5t37.5 -33t14.5 -54zM171 0h-116l34 118h116z" />
    <glyph glyph-name="at" unicode="@" horiz-adv-x="946" 
d="M839 424q0 -54 -15 -113t-46.5 -109t-79.5 -82.5t-115 -32.5q-49 0 -79.5 21t-36.5 59q-46 -77 -124 -77q-64 0 -90 32.5t-26 82.5q0 25 5.5 52.5t15.5 54.5q34 102 81 151t116 49q36 0 58.5 -15t30.5 -38l16 44h124l-90 -254q-4 -11 -7 -23t-3 -21q0 -14 7 -23t23 -9
q31 0 56.5 25t43.5 62t28 79.5t10 76.5q0 55 -13.5 99.5t-43 75.5t-74.5 48t-108 17q-86 0 -157 -39.5t-122 -103t-79.5 -144t-28.5 -162.5q0 -126 66 -188.5t188 -62.5q67 0 122.5 16t105.5 44l34 -74q-58 -35 -126 -54.5t-145 -19.5q-79 0 -142.5 22.5t-108.5 65t-69 105
t-24 143.5q0 101 34.5 197t98.5 171t154.5 120.5t203.5 45.5q81 0 142.5 -23t103.5 -64.5t63.5 -99t21.5 -127.5zM478 297q11 32 19.5 59t8.5 48q0 15 -7.5 24.5t-24.5 9.5q-34 0 -55.5 -37.5t-45.5 -103.5q-9 -25 -16.5 -48.5t-7.5 -40.5q0 -16 7.5 -25.5t22.5 -9.5
q30 0 53 29t46 95z" />
    <glyph glyph-name="A" unicode="A" horiz-adv-x="600" 
d="M496 0h-149l6 160h-211l-86 -160h-158l405 723h202zM201 265h155l17 342z" />
    <glyph glyph-name="B" unicode="B" horiz-adv-x="579" 
d="M585 603q0 -17 -1 -35.5t-6 -35.5q-10 -34 -23.5 -60t-33.5 -45t-47.5 -30.5t-64.5 -16.5q45 -8 71 -34.5t26 -74.5q0 -20 -3.5 -40t-9.5 -40q-18 -62 -44.5 -99.5t-64 -58t-87 -27t-113.5 -6.5h-217l207 723h241q29 0 59.5 -5t55 -18.5t40 -36.5t15.5 -60zM435 562
q0 19 -8 30t-20.5 17t-28 7.5t-30.5 1.5h-56l-55 -193q15 0 29 -0.5t29 -0.5q56 0 87 23t47 77q6 18 6 38zM355 262q0 21 -8.5 33t-22 18t-30.5 8t-33 2h-53l-63 -218h53q63 0 97.5 24.5t51.5 86.5q3 11 5.5 22.5t2.5 23.5z" />
    <glyph glyph-name="C" unicode="C" horiz-adv-x="558" 
d="M583 610q0 -29 -5 -56.5t-13 -54.5h-147q5 18 10 37.5t5 39.5q0 29 -16.5 42.5t-45.5 13.5q-36 0 -62.5 -22t-46 -58t-34.5 -82.5t-28 -95.5q-20 -70 -33.5 -126.5t-13.5 -91.5q0 -32 13.5 -48.5t47.5 -16.5t56.5 14t37 36t23 49.5t16.5 54.5h151q-18 -65 -39.5 -113.5
t-54.5 -81t-82 -49t-122 -16.5q-38 0 -73.5 7.5t-63.5 25.5t-44.5 48t-16.5 76q0 48 12.5 105.5t28.5 111.5q24 82 47.5 152t60 120t93.5 78.5t148 28.5q34 0 68 -5.5t61.5 -20t44.5 -39t17 -63.5z" />
    <glyph glyph-name="D" unicode="D" horiz-adv-x="607" 
d="M605 573q0 -50 -10.5 -102.5t-21.5 -90.5q-19 -66 -36 -120.5t-37 -96.5t-45.5 -73t-62 -51t-86.5 -29.5t-118 -9.5h-221l207 723h217q44 0 83 -5.5t68 -21.5t46 -45.5t17 -77.5zM448 535q0 47 -27.5 64t-70.5 17h-55l-147 -510h57q51 0 82.5 17t53.5 49t37 79t33 107
q17 56 27 100t10 77z" />
    <glyph glyph-name="E" unicode="E" horiz-adv-x="502" 
d="M539 616h-244l-55 -190h223l-30 -104h-223l-61 -215h250l-31 -107h-401l207 723h395z" />
    <glyph glyph-name="F" unicode="F" horiz-adv-x="467" 
d="M521 616h-226l-56 -193h216l-30 -104h-216l-91 -319h-151l207 723h377z" />
    <glyph glyph-name="G" unicode="G" horiz-adv-x="583" 
d="M595 596q0 -26 -3 -46.5t-11 -45.5h-152q5 17 9 35t4 36q0 32 -17 44.5t-47 12.5q-44 0 -73.5 -27.5t-49 -66.5t-32 -83t-21.5 -77q-6 -22 -14.5 -50.5t-16 -58.5t-12.5 -58.5t-5 -51.5q0 -38 17.5 -53t55.5 -15q47 0 91 15l49 171h-84l31 106h231l-104 -361
q-59 -17 -113 -27t-115 -10q-40 0 -78 7t-67.5 25t-47.5 49t-18 78q0 55 14 111t29 109q22 78 45.5 146.5t60.5 119t95 79.5t151 29q34 0 69.5 -6.5t64 -22.5t46.5 -43.5t18 -69.5z" />
    <glyph glyph-name="H" unicode="H" horiz-adv-x="622" 
d="M447 0h-152l93 324h-176l-93 -324h-152l208 723h152l-84 -293h176l84 293h152z" />
    <glyph glyph-name="I" unicode="I" horiz-adv-x="293" 
d="M119 0h-152l207 723h152z" />
    <glyph glyph-name="J" unicode="J" horiz-adv-x="516" 
d="M411 221q-17 -60 -38.5 -104.5t-53 -73.5t-75.5 -43.5t-107 -14.5q-34 0 -65.5 7t-55.5 22t-38.5 39.5t-14.5 59.5q0 36 7 68t18 64h148q-3 -12 -7.5 -26.5t-8 -29.5t-6 -28.5t-2.5 -22.5q0 -46 45 -46q25 0 41.5 12t28.5 31.5t19.5 43t14.5 47.5l142 497h152z" />
    <glyph glyph-name="K" unicode="K" horiz-adv-x="573" 
d="M382 380l86 -380h-160l-73 394l254 329h177zM118 0h-151l207 723h151z" />
    <glyph glyph-name="L" unicode="L" horiz-adv-x="464" 
d="M343 0h-376l207 723h151l-176 -615h225z" />
    <glyph glyph-name="M" unicode="M" horiz-adv-x="857" 
d="M682 0h-143l179 623l-319 -623h-161l40 625l-179 -625h-132l207 723h231l-42 -562l279 562h247z" />
    <glyph glyph-name="N" unicode="N" horiz-adv-x="653" 
d="M479 0h-217l7 618l-173 -618h-129l207 723h217l-6 -618l172 618h129z" />
    <glyph glyph-name="O" unicode="O" horiz-adv-x="596" 
d="M594 585q0 -57 -14 -118t-30 -115q-24 -84 -46 -151.5t-57 -115.5t-92 -74t-150 -26q-40 0 -76.5 8t-64.5 27t-45 49.5t-17 75.5q0 55 12.5 104.5t27.5 102.5q22 78 44.5 148t59.5 123t95.5 84t152.5 31q40 0 76 -7t63.5 -24t44 -46.5t16.5 -75.5zM442 564q0 35 -16 51.5
t-51 16.5q-45 0 -74.5 -29.5t-49 -72t-32 -88.5t-21.5 -79q-6 -21 -14 -47.5t-15 -54.5t-12 -54.5t-5 -48.5q0 -35 16.5 -51t51.5 -16q34 0 57.5 15t40 38.5t27.5 52t20 55.5q10 29 18 57.5t16 57.5q6 20 13.5 45.5t14 52t11 52.5t4.5 47z" />
    <glyph glyph-name="P" unicode="P" horiz-adv-x="563" 
d="M594 591q0 -48 -12 -91q-20 -71 -48.5 -112t-66.5 -62t-85 -26.5t-105 -5.5h-75l-84 -294h-151l207 723h235q33 0 66 -5t59.5 -19.5t43 -40.5t16.5 -67zM437 557q0 20 -8 32t-21 18t-29 8t-32 2h-53l-62 -217h50q62 0 96.5 25.5t51.5 85.5q3 11 5 22.5t2 23.5z" />
    <glyph glyph-name="Q" unicode="Q" horiz-adv-x="602" 
d="M594 585q0 -57 -14 -118t-30 -115q-25 -87 -57.5 -154.5t-88.5 -110.5q61 13 125 15l-29 -102h-110q-33 0 -57 -1.5t-45 -3.5t-40.5 -3.5t-42.5 -1.5q-39 0 -75.5 8t-65 26.5t-45.5 49t-17 76.5q0 55 12.5 102t27.5 100q22 78 44.5 148t59.5 123t95.5 84t152.5 31
q40 0 76 -7t63.5 -24t44 -46.5t16.5 -75.5zM442 564q0 35 -16 51.5t-51 16.5q-45 0 -74.5 -29.5t-49 -72t-32 -88.5t-21.5 -79q-6 -21 -14 -47t-15 -52.5t-12 -52.5t-5 -48q0 -35 16.5 -51t51.5 -16q34 0 57.5 14t40 36.5t27.5 50.5t20 55q10 29 18 57.5t16 57.5
q6 20 13.5 45.5t14 52t11 52.5t4.5 47z" />
    <glyph glyph-name="R" unicode="R" horiz-adv-x="596" 
d="M596 591q0 -39 -11 -78q-10 -35 -24.5 -61t-35 -44.5t-48 -31t-63.5 -19.5q38 -3 60.5 -24t22.5 -63q0 -32 -7.5 -64.5t-17.5 -66.5t-18.5 -69t-10.5 -70h-158q4 30 13 63l18 66t16 65t7 59q0 16 -6.5 26t-17 15t-24.5 7t-28 2h-58l-87 -303h-151l207 723h242q30 0 62 -6
t58.5 -21t43 -40.5t16.5 -64.5zM440 559q0 19 -7 30.5t-19 17.5t-27 8t-30 2h-62l-60 -210h54q62 0 94.5 24.5t49.5 84.5q3 11 5 21.5t2 21.5z" />
    <glyph glyph-name="S" unicode="S" horiz-adv-x="533" 
d="M557 613q0 -26 -4.5 -46.5t-12.5 -45.5h-148l10 32t5 33q0 26 -17.5 36t-41.5 10q-21 0 -39.5 -7t-33 -20t-23 -31.5t-8.5 -41.5q0 -35 15.5 -59t49.5 -49l69 -51q35 -26 59.5 -61.5t24.5 -77.5q0 -43 -18.5 -91t-58.5 -85q-37 -35 -90 -54t-122 -19q-33 0 -67.5 5.5
t-63.5 20t-47.5 40.5t-18.5 68q0 29 4.5 52.5t12.5 51.5h150q-5 -19 -11 -38.5t-6 -39.5q0 -30 17.5 -42t46.5 -12q23 0 43.5 8.5t36.5 23.5t25 35.5t9 43.5q0 34 -15 57t-40 43l-79 61q-44 33 -63.5 69.5t-19.5 84.5q0 47 23 89.5t67 74.5q42 30 93 43.5t102 13.5
q31 0 63.5 -6.5t59.5 -21t44.5 -38.5t17.5 -59z" />
    <glyph glyph-name="T" unicode="T" horiz-adv-x="491" 
d="M558 615h-163l-176 -615h-152l176 615h-164l31 108h479z" />
    <glyph glyph-name="U" unicode="U" horiz-adv-x="628" 
d="M528 238q-18 -64 -42.5 -111.5t-59.5 -79t-84.5 -47t-117.5 -15.5q-38 0 -75 5.5t-66.5 21.5t-48 44t-18.5 72q0 58 17 117l137 478h150l-134 -469q-7 -23 -13 -47.5t-6 -48.5q0 -35 18 -51t53 -16t59 14t40.5 37t27.5 51t19 57l135 473h148z" />
    <glyph glyph-name="V" unicode="V" horiz-adv-x="573" 
d="M276 0h-184l21 723h155l-51 -589l298 589h153z" />
    <glyph glyph-name="W" unicode="W" horiz-adv-x="884" 
d="M623 0h-174l62 579l-273 -579h-177l57 723h153l-81 -572l273 572h176l-65 -572l255 572h145z" />
    <glyph glyph-name="X" unicode="X" horiz-adv-x="563" 
d="M373 370l80 -370h-144l-50 269l-198 -269h-162l310 384l-79 339h148l42 -246l173 246h161z" />
    <glyph glyph-name="Y" unicode="Y" horiz-adv-x="544" 
d="M311 257l-74 -257h-152l81 263l-56 460h148l16 -331l215 331h161z" />
    <glyph glyph-name="Z" unicode="Z" 
d="M543 602l-435 -495h298l-31 -107h-456l35 123l437 493h-280l30 107h436z" />
    <glyph glyph-name="bracketleft" unicode="[" horiz-adv-x="286" 
d="M347 639h-103l-203 -709h103l-24 -85h-212l251 878h212z" />
    <glyph glyph-name="backslash" unicode="\" horiz-adv-x="277" 
d="M190 -15h-102l2 753h103z" />
    <glyph glyph-name="bracketright" unicode="]" horiz-adv-x="286" 
d="M84 -155h-212l24 85h103l203 709h-103l24 84h212z" />
    <glyph glyph-name="asciicircum" unicode="^" horiz-adv-x="585" 
d="M362 290l-104 277l-102 -277h-130l176 433h114l176 -433h-130z" />
    <glyph glyph-name="underscore" unicode="_" 
d="M-103 -125v50h500v-50h-500z" />
    <glyph glyph-name="grave" unicode="`" horiz-adv-x="235" 
d="M173 582l-103 143h131l52 -143h-80z" />
    <glyph glyph-name="a" unicode="a" horiz-adv-x="479" 
d="M433 413q0 -20 -4 -38.5t-9 -37.5q-24 -85 -48.5 -167t-38.5 -170h-137l14 60q-31 -35 -64 -52.5t-80 -17.5q-46 0 -76 23.5t-30 71.5q0 52 21 99q17 39 46.5 65t65.5 41.5t76.5 22t80.5 6.5h27q5 20 12 41.5t7 41.5q0 35 -37 35q-34 0 -51 -22t-25 -51h-139
q12 44 34 73.5t52 47t66.5 24.5t78.5 7q27 0 55 -4t51 -15t37.5 -31t14.5 -53zM234 244q-51 0 -80.5 -22t-43.5 -71q-2 -9 -4 -18.5t-2 -19.5q0 -38 38 -38q28 0 47.5 19t32.5 45.5t20.5 55.5t13.5 49h-22z" />
    <glyph glyph-name="b" unicode="b" horiz-adv-x="508" 
d="M469 415q0 -15 -3 -34.5t-7.5 -41t-10.5 -43t-11 -40.5q-19 -65 -38.5 -114.5t-45 -83.5t-59 -51t-81.5 -17q-38 0 -69 13t-43 51l-15 -54h-137q8 23 15.5 46.5t14.5 46.5l180 630h140l-77 -268q30 30 63.5 45.5t76.5 15.5q50 0 78.5 -24.5t28.5 -76.5zM324 386
q0 20 -8 33.5t-31 13.5q-28 0 -48 -20t-34 -48.5t-23 -58.5t-15 -51q-8 -29 -17 -65t-9 -65q0 -21 8.5 -36.5t32.5 -15.5q27 0 46.5 22t33.5 52.5t23 62t15 51.5q8 27 17 62t9 63z" />
    <glyph glyph-name="c" unicode="c" horiz-adv-x="461" 
d="M444 405q0 -20 -3.5 -37t-8.5 -37h-135q4 14 7.5 28.5t3.5 29.5q0 41 -43 41q-30 0 -50.5 -20t-34 -48t-22 -59.5t-14.5 -53.5q-8 -28 -18 -63.5t-10 -63.5q0 -23 10 -35.5t34 -12.5q22 0 38 10t27 25.5t19 34t13 36.5h134q-15 -49 -35 -85t-49 -60t-68 -35.5t-91 -11.5
q-32 0 -62.5 6t-54 20t-37.5 38.5t-14 61.5q0 32 5 61t14 59q17 59 36 110.5t49.5 89.5t76 60t114.5 22q28 0 58 -4.5t54.5 -16.5t40.5 -33.5t16 -56.5z" />
    <glyph glyph-name="d" unicode="d" horiz-adv-x="508" 
d="M376 94q-7 -23 -13 -47t-12 -47h-137l15 54q-27 -31 -58.5 -47.5t-74.5 -16.5q-55 0 -85.5 27.5t-30.5 78.5q0 39 8.5 78.5t19.5 76.5q15 51 30.5 99t39 84.5t59.5 59t91 22.5q36 0 66 -13t44 -48l77 268h141zM306 382q0 21 -8.5 36t-32.5 15q-27 0 -46.5 -21.5
t-33.5 -51t-22.5 -60.5t-14.5 -51q-8 -28 -16 -61.5t-8 -62.5q0 -20 7.5 -36t31.5 -16q26 0 45.5 20t33 48.5t22 58t14.5 49.5q4 15 9 32t9 34.5t7 34.5t3 32z" />
    <glyph glyph-name="e" unicode="e" horiz-adv-x="474" 
d="M435 393q0 -35 -10 -76.5t-21 -80.5h-264q-8 -29 -16.5 -60.5t-8.5 -60.5q0 -22 9 -33t32 -11q20 0 34.5 9t25 22.5t17.5 30.5t12 34h136q-29 -93 -82.5 -136t-150.5 -43q-33 0 -63 6t-53.5 20.5t-37.5 38.5t-14 61q0 35 6.5 68t16.5 66q16 57 36.5 106t51 85t75.5 56.5
t110 20.5q31 0 60 -6t51 -20.5t35 -38t13 -58.5zM301 392q0 41 -40 41q-23 0 -39.5 -12t-28 -30.5t-19 -40t-12.5 -39.5h122q6 20 11.5 42t5.5 39z" />
    <glyph glyph-name="f" unicode="f" horiz-adv-x="308" 
d="M376 639h-6q-24 0 -40.5 -5.5t-27.5 -17.5t-18.5 -30.5t-14.5 -44.5l-10 -37h76l-25 -86h-76l-120 -418h-140l120 418h-67l25 86h67l10 37q10 39 22.5 73.5t32.5 60t52 40.5t83 15q41 0 82 -3z" />
    <glyph glyph-name="g" unicode="g" horiz-adv-x="504" 
d="M495 504q-7 -20 -13 -41l-12 -42l-126 -440q-15 -51 -37 -85t-53 -54.5t-71 -29t-90 -8.5q-26 0 -55.5 3t-55.5 13t-43 29t-17 52q0 27 8 54h148q-3 -9 -5 -18.5t-2 -18.5q0 -38 39 -38q43 0 68 46.5t49 138.5q-30 -31 -60.5 -45t-73.5 -14q-50 0 -81.5 26.5t-31.5 80.5
q0 33 6.5 63.5t15.5 62.5q19 66 39 118t45.5 87t58 53.5t77.5 18.5q19 0 38 -3t34.5 -11t27 -21.5t16.5 -34.5l17 58h140zM305 378q0 22 -8.5 37.5t-33.5 15.5q-28 0 -48 -22t-33.5 -52t-22 -62t-14.5 -52q-7 -25 -13.5 -52t-6.5 -53q0 -21 8 -36t32 -15q25 0 44 17.5
t32.5 43t22 52.5t14.5 47q8 29 17.5 65t9.5 66z" />
    <glyph glyph-name="h" unicode="h" horiz-adv-x="513" 
d="M471 427q0 -18 -3.5 -32.5t-8.5 -31.5l-104 -363h-141l96 335q4 14 7.5 29t3.5 30q0 38 -39 38q-20 0 -35.5 -10.5t-27.5 -26.5t-20.5 -35t-12.5 -35l-93 -325h-141l207 723h141l-77 -268q31 30 65 45.5t77 15.5q44 0 75 -21t31 -68z" />
    <glyph glyph-name="i" unicode="i" horiz-adv-x="253" 
d="M267 604h-141l33 113h141zM94 0h-141l145 504h141z" />
    <glyph glyph-name="j" unicode="j" horiz-adv-x="253" 
d="M267 604h-141l33 113h141zM81 -47q-14 -48 -31 -77t-41.5 -44.5t-58.5 -20.5t-82 -5h-15.5t-15.5 1l25 87q19 0 31.5 2.5t21 9t14.5 18.5t11 30l158 550h141z" />
    <glyph glyph-name="k" unicode="k" horiz-adv-x="475" 
d="M312 275l64 -275h-145l-54 285l177 219h162zM93 0h-141l207 723h141z" />
    <glyph glyph-name="l" unicode="l" horiz-adv-x="253" 
d="M94 0h-141l207 723h141z" />
    <glyph glyph-name="m" unicode="m" horiz-adv-x="759" 
d="M717 429q0 -21 -4 -39.5t-10 -38.5l-101 -351h-141l97 338q4 14 8 28.5t4 29.5q0 35 -37 35q-20 0 -35 -11t-26.5 -27t-19.5 -34.5t-12 -34.5l-93 -324h-141l99 346q4 12 6.5 24t2.5 25q0 36 -35 36q-21 0 -36.5 -11t-27 -27t-19 -35.5t-12.5 -35.5l-92 -322h-140
l124 431q5 18 10 36.5t7 36.5h139l-16 -56q29 30 62.5 49t76.5 19q39 0 67.5 -14t39.5 -54q33 31 65.5 49.5t78.5 18.5q22 0 42 -4.5t35.5 -15t24.5 -27t9 -40.5z" />
    <glyph glyph-name="n" unicode="n" horiz-adv-x="513" 
d="M471 427q0 -18 -4 -34.5t-9 -33.5l-103 -359h-141l96 336q4 14 7.5 29t3.5 30q0 37 -39 37q-20 0 -36 -11t-27.5 -27t-19.5 -35.5t-13 -35.5l-93 -323h-141l121 423q6 20 11.5 40.5t8.5 40.5h143l-14 -51q31 32 65 47.5t78 15.5q21 0 40.5 -5t34 -15.5t23 -27.5t8.5 -41z
" />
    <glyph glyph-name="o" unicode="o" horiz-adv-x="485" 
d="M446 395q0 -35 -7 -67.5t-17 -65.5q-17 -60 -35.5 -110t-48 -86.5t-74.5 -57t-115 -20.5q-33 0 -63.5 5.5t-54 20t-37.5 38.5t-14 62q0 35 7 68.5t17 67.5q16 58 36 106.5t50.5 84t75.5 55.5t112 20q31 0 61.5 -5t54 -18.5t38 -37t14.5 -60.5zM308 386q0 44 -44 44
q-23 0 -40 -12t-29 -32.5t-21.5 -46.5t-17.5 -54l-27 -92q-5 -17 -9 -37t-4 -34q0 -23 10.5 -35.5t34.5 -12.5q41 0 62.5 34t39.5 97l29 102q5 18 10.5 41t5.5 38z" />
    <glyph glyph-name="p" unicode="p" horiz-adv-x="508" 
d="M469 415q0 -17 -3.5 -38.5t-8.5 -43.5t-10.5 -42.5t-9.5 -33.5q-13 -46 -28.5 -93.5t-40.5 -86t-62 -63t-93 -24.5q-16 0 -32.5 2t-31 8t-26 16.5t-18.5 27.5l-67 -236h-140l168 586q8 27 15.5 54.5t13.5 55.5h138l-14 -53q29 32 63.5 48.5t79.5 16.5q51 0 79 -25t28 -76
zM324 385q0 20 -8 34t-31 14q-28 0 -47.5 -20t-34 -48.5t-24 -60.5t-16.5 -56q-8 -29 -16 -60t-8 -61q0 -21 8 -37.5t33 -16.5q41 0 66.5 49t51.5 139q8 27 17 61.5t9 62.5z" />
    <glyph glyph-name="q" unicode="q" horiz-adv-x="508" 
d="M495 504q-10 -29 -18 -57.5t-16 -57.5l-167 -581h-141l69 240q-26 -29 -56.5 -43.5t-70.5 -14.5q-53 0 -84 27t-31 81q0 31 6.5 67t16.5 71q13 46 28 95.5t39 90.5t61 67.5t96 26.5q18 0 36 -3t33.5 -11t27.5 -21.5t18 -33.5l17 57h136zM306 376q0 10 -1 20t-5.5 18.5
t-12.5 13.5t-21 5q-25 0 -43 -16t-31.5 -43t-24.5 -61.5t-21 -70.5q-8 -26 -15 -58t-7 -59q0 -20 8 -36t31 -16q22 0 39 15t30.5 39t24.5 55t20 64q4 15 9.5 32.5t9.5 35t7 34t3 28.5z" />
    <glyph glyph-name="r" unicode="r" horiz-adv-x="331" 
d="M333 394q-3 1 -10 1.5t-13 0.5q-31 0 -53.5 -9t-38.5 -25t-27 -38.5t-19 -49.5l-79 -274h-141l117 409q7 23 13.5 47t12.5 48h135l-18 -65q31 39 65.5 57t84.5 18h5z" />
    <glyph glyph-name="s" unicode="s" horiz-adv-x="442" 
d="M422 423q0 -16 -3.5 -31.5t-8.5 -30.5h-136q3 10 6 22t3 23q0 19 -12 27t-30 8q-26 0 -45 -19t-19 -46q0 -20 17 -36.5t43 -31.5l25 -14q18 -10 36 -21t31.5 -24.5t22 -29.5t8.5 -36q0 -23 -3.5 -41.5t-13.5 -38.5q-16 -34 -39.5 -56t-51.5 -34.5t-60.5 -17.5t-66.5 -5
q-25 0 -54.5 4t-54.5 15t-42 30.5t-17 50.5q0 18 4.5 35.5t9.5 34.5h137q-4 -12 -7 -24.5t-3 -25.5q0 -20 12.5 -29t32.5 -9q31 0 51 22.5t20 53.5q0 25 -19 41t-57 36l-22 12q-33 19 -58 45.5t-25 72.5q0 29 14.5 55.5t35.5 46.5q18 17 39.5 28.5t45 18t47 9.5t44.5 3
q24 0 52 -3t53 -13t41.5 -28.5t16.5 -48.5z" />
    <glyph glyph-name="t" unicode="t" horiz-adv-x="308" 
d="M309 418h-78l-78 -272q-2 -9 -4.5 -18.5t-2.5 -18.5q0 -18 12.5 -22.5t27.5 -4.5q8 0 15.5 1t15.5 2l-24 -86q-20 -4 -40.5 -5t-40.5 -1t-40 3t-36.5 11t-27 22.5t-10.5 37.5q0 17 2.5 32t7.5 31l83 288h-65l25 86h65l24 86l156 54l-40 -140h78z" />
    <glyph glyph-name="u" unicode="u" horiz-adv-x="512" 
d="M377 82q-12 -41 -20 -82h-142l14 54q-30 -32 -61 -48t-75 -16q-22 0 -42 4t-35.5 14t-25 26.5t-9.5 40.5q0 16 2 29.5t7 28.5l106 371h141l-97 -335q-4 -14 -7.5 -28.5t-3.5 -29.5q0 -20 11 -29t31 -9t35 10t26 25.5t18.5 33.5t12.5 35l94 327h141z" />
    <glyph glyph-name="v" unicode="v" horiz-adv-x="452" 
d="M210 0h-164l2 504h141l-33 -390l192 390h140z" />
    <glyph glyph-name="w" unicode="w" horiz-adv-x="728" 
d="M504 0h-154l24 376l-188 -376h-156l22 504h140l-52 -376l192 376h155l-33 -376l172 376h134z" />
    <glyph glyph-name="x" unicode="x" horiz-adv-x="467" 
d="M289 259l63 -259h-135l-36 181l-126 -181h-153l231 275l-57 229h137l24 -152l103 152h147z" />
    <glyph glyph-name="y" unicode="y" horiz-adv-x="459" 
d="M90 -193h-141l117 193l-18 504h147l-19 -341l173 341h146z" />
    <glyph glyph-name="z" unicode="z" horiz-adv-x="397" 
d="M389 417l-290 -330h196l-25 -87h-349l26 92l290 327h-185l25 85h337z" />
    <glyph glyph-name="braceleft" unicode="{" horiz-adv-x="370" 
d="M457 659q-38 -3 -63.5 -16t-42.5 -34t-28.5 -48.5t-20.5 -58.5l-10 -33q-10 -32 -23 -61.5t-35 -53.5t-55.5 -40t-82.5 -20q23 -2 43 -8t35 -17.5t23.5 -29t8.5 -42.5q0 -21 -4.5 -41.5t-10.5 -40.5l-9 -30q-7 -22 -11.5 -43t-4.5 -44q0 -38 23 -53t58 -17l-21 -73
q-31 1 -63 5.5t-58 17.5t-42.5 36.5t-16.5 62.5q0 23 4.5 45.5t11.5 45.5l8 28q6 21 10 41.5t4 42.5q0 21 -7 34.5t-19 22t-27.5 13t-33.5 7.5l21 74q42 4 69 18t45 34t28.5 45t18.5 53l14 48q11 37 27.5 72t47 63t81 46.5t129.5 22.5z" />
    <glyph glyph-name="bar" unicode="|" horiz-adv-x="222" 
d="M54 -214v1001h122v-1001h-122z" />
    <glyph glyph-name="braceright" unicode="}" horiz-adv-x="370" 
d="M319 257q-42 -6 -69.5 -20t-45.5 -34t-29 -44.5t-18 -51.5l-13 -46q-10 -36 -25.5 -71.5t-46 -64t-81.5 -47.5t-133 -23l21 73q40 2 66 16t42.5 36t26.5 49.5t19 57.5l10 33q9 30 22 59t35 53t55.5 40.5t84.5 21.5q-23 2 -43 7.5t-34.5 16t-23 27.5t-8.5 43q0 22 4.5 43
t10.5 42l9 31q6 20 10 40t4 41q0 36 -21 53.5t-59 20.5l21 74q33 -1 65.5 -7t58.5 -19.5t42 -36.5t16 -58q0 -17 -5 -43t-12 -49l-9 -30q-6 -20 -10 -41t-4 -39q0 -41 25 -57.5t63 -21.5z" />
    <glyph glyph-name="asciitilde" unicode="~" horiz-adv-x="579" 
d="M506 349q-2 -37 -13 -68t-30.5 -54t-48 -36t-66.5 -13q-26 0 -51.5 8.5t-61.5 25.5q-37 16 -54.5 22t-35.5 6q-23 0 -37 -16.5t-19 -41.5h-85q3 37 13.5 68t30 54t48 36t66.5 13q26 0 51.5 -8.5t61.5 -25.5t54 -22.5t36 -5.5q23 0 37 16.5t19 41.5h85v0z" />
    <glyph glyph-name="Euro" unicode="&#x20ac;" 
d="M213 271q-15 -51 -20 -77t-5 -45q0 -34 18.5 -49t58.5 -15q41 0 71 15t57 44v-120q-35 -22 -73 -29.5t-83 -7.5q-92 0 -141 32.5t-49 107.5q0 20 5.5 53.5t20.5 90.5h-79l40 79h61q4 14 9 30.5t10 33.5h-84l41 79h67q21 63 45.5 108.5t60 75.5t83.5 44t116 14
q39 0 77 -11.5t62 -40.5l-55 -104q-4 16 -14.5 27t-24 17.5t-29.5 9.5t-31 3q-33 0 -56.5 -10.5t-40 -29.5t-28.5 -45.5t-22 -57.5h200l-41 -79h-183l-20 -64h166l-40 -79h-150z" />
    <glyph glyph-name="quotesinglbase" unicode="&#x201a;" horiz-adv-x="253" 
d="M5 -100h-96l91 227h135z" />
    <glyph glyph-name="florin" unicode="&#x192;" 
d="M506 626q-12 4 -27 4q-29 0 -47 -20.5t-29 -44.5l-43 -93h80l-37 -86h-81l-143 -328q-21 -47 -42.5 -86.5t-50.5 -68t-69 -44.5t-97 -16q-22 0 -38 4l45 101q5 -2 9.5 -3t9.5 -1q25 0 45 22t37 61l157 359h-66l39 86h66l23 51q19 43 40 81.5t49.5 67.5t68 46t96.5 17
q13 0 26.5 -1t23.5 -3z" />
    <glyph glyph-name="quotedblbase" unicode="&#x201e;" horiz-adv-x="427" 
d="M179 -100h-97l91 227h135zM5 -100h-96l91 227h135z" />
    <glyph glyph-name="ellipsis" unicode="&#x2026;" horiz-adv-x="1000" 
d="M800 0h-140l41 143h140zM466 0h-139l41 143h139zM133 0h-139l41 143h139z" />
    <glyph glyph-name="dagger" unicode="&#x2020;" horiz-adv-x="444" 
d="M460 472h-149l-135 -472h-117l135 472h-149l28 97h149l44 154h117l-44 -154h149z" />
    <glyph glyph-name="daggerdbl" unicode="&#x2021;" horiz-adv-x="444" 
d="M462 478h-149l-67 -234h149l-27 -95h-149l-43 -149h-117l43 149h-149l27 95h149l67 234h-149l28 96h149l42 149h117l-42 -149h149z" />
    <glyph glyph-name="circumflex" unicode="&#x2c6;" horiz-adv-x="235" 
d="M264 582l-52 84l-99 -84h-92l144 143h114l63 -143h-78z" />
    <glyph glyph-name="perthousand" unicode="&#x2030;" horiz-adv-x="933" 
d="M862 243q0 -23 -5 -45t-11 -44q-10 -34 -23 -64t-33 -52.5t-48.5 -36t-67.5 -13.5q-43 0 -67.5 19.5t-24.5 64.5q0 20 4.5 40t9.5 40q10 34 23.5 64.5t34 53.5t49 37t67.5 14q41 0 66.5 -17t25.5 -61zM349 645q0 -23 -5 -45t-11 -43q-10 -33 -23 -63.5t-33 -53.5
t-48.5 -36.5t-67.5 -13.5q-43 0 -67 18.5t-24 63.5q0 20 4.5 40.5t9.5 40.5q9 33 22.5 64t33.5 54.5t48.5 37.5t67.5 14q41 0 67 -17t26 -61zM89 -25h-68l510 762h68zM559 243q0 -23 -5 -45t-11 -43q-10 -34 -23 -64t-33 -53t-48.5 -36.5t-67.5 -13.5q-43 0 -67.5 19.5
t-24.5 64.5q0 20 4.5 40t9.5 40q10 34 23.5 64.5t34 53.5t49 37t67.5 14q41 0 66.5 -17t25.5 -61zM779 231q0 13 -5 23t-20 10q-21 0 -37.5 -22.5t-28 -53t-18 -61.5t-6.5 -47q0 -14 5 -24.5t21 -10.5q20 0 36.5 23t28 54t18 62t6.5 47zM266 632q0 13 -5 23.5t-21 10.5
q-20 0 -36.5 -22.5t-28 -53t-18 -61t-6.5 -46.5q0 -14 5 -24.5t21 -10.5q21 0 37.5 22.5t28 53t17.5 61.5t6 47zM476 231q0 13 -5 23t-20 10q-20 0 -36.5 -23t-28.5 -53.5t-18.5 -61.5t-6.5 -47q0 -14 5 -24t21 -10q20 0 36.5 23t28 54t18 62t6.5 47z" />
    <glyph glyph-name="Scaron" unicode="&#x160;" horiz-adv-x="533" 
d="M557 613q0 -26 -4.5 -46.5t-12.5 -45.5h-148l10 32t5 33q0 26 -17.5 36t-41.5 10q-21 0 -39.5 -7t-33 -20t-23 -31.5t-8.5 -41.5q0 -35 15.5 -59t49.5 -49l69 -51q35 -26 59.5 -61.5t24.5 -77.5q0 -43 -18.5 -91t-58.5 -85q-37 -35 -90 -54t-122 -19q-33 0 -67.5 5.5
t-63.5 20t-47.5 40.5t-18.5 68q0 29 4.5 52.5t12.5 51.5h150q-5 -19 -11 -38.5t-6 -39.5q0 -30 17.5 -42t46.5 -12q23 0 43.5 8.5t36.5 23.5t25 35.5t9 43.5q0 34 -15 57t-40 43l-79 61q-44 33 -63.5 69.5t-19.5 84.5q0 47 23 89.5t67 74.5q42 30 93 43.5t102 13.5
q31 0 63.5 -6.5t59.5 -21t44.5 -38.5t17.5 -59zM339 920l52 -84l99 84h92l-144 -143h-114l-63 143h78z" />
    <glyph glyph-name="guilsinglleft" unicode="&#x2039;" horiz-adv-x="270" 
d="M117 245l34 -187h-113l-38 195l145 194h123z" />
    <glyph glyph-name="OE" unicode="&#x152;" horiz-adv-x="802" 
d="M837 615h-232l-54 -188h214l-30 -105h-214l-61 -215h240l-31 -107h-301q-40 0 -70 -1t-70 -1q-42 0 -82 7t-71 25.5t-50 51.5t-19 85q0 47 9.5 86t22.5 84q29 102 57 175.5t70 120.5t106 69.5t166 22.5q26 0 47 -1t47 -1h337zM456 617q-7 1 -13.5 1h-13.5
q-56 0 -91.5 -10.5t-60 -38.5t-44 -77.5t-41.5 -127.5q-13 -44 -21 -73.5t-12.5 -49t-6 -32t-1.5 -22.5q0 -24 7.5 -40t20 -25.5t29.5 -13.5t36 -4q17 0 32.5 1t32.5 1z" />
    <glyph glyph-name="Zcaron" unicode="&#x17d;" 
d="M543 602l-435 -495h298l-31 -107h-456l35 123l437 493h-280l30 107h436zM324 920l52 -84l99 84h92l-144 -143h-114l-63 143h78z" />
    <glyph glyph-name="quoteleft" unicode="&#x2018;" horiz-adv-x="253" 
d="M224 496h-134l129 227h96z" />
    <glyph glyph-name="quoteright" unicode="&#x2019;" horiz-adv-x="253" 
d="M186 496h-96l91 227h135z" />
    <glyph glyph-name="quotedblleft" unicode="&#x201c;" horiz-adv-x="426" 
d="M398 496h-135l129 227h96zM224 496h-134l129 227h96z" />
    <glyph glyph-name="quotedblright" unicode="&#x201d;" horiz-adv-x="427" 
d="M360 496h-97l91 227h135zM186 496h-96l91 227h135z" />
    <glyph glyph-name="bullet" unicode="&#x2022;" horiz-adv-x="499" 
d="M432 362q0 -37 -14 -70t-38.5 -57.5t-57.5 -39t-70 -14.5t-70 14.5t-57.5 39t-39 57.5t-14.5 70t14.5 70t39 57.5t57.5 38.5t70 14t69.5 -14.5t57 -39t39 -57t14.5 -69.5z" />
    <glyph glyph-name="endash" unicode="&#x2013;" 
d="M462 225h-500l25 89h500z" />
    <glyph glyph-name="emdash" unicode="&#x2014;" horiz-adv-x="1001" 
d="M833 225h-741l25 89h741z" />
    <glyph glyph-name="tilde" unicode="&#x2dc;" horiz-adv-x="235" 
d="M395 711q-9 -21 -22.5 -41.5t-31.5 -37t-39.5 -26.5t-46.5 -10q-18 0 -35 5.5t-33.5 12.5t-33.5 12.5t-35 5.5q-19 0 -32.5 -13.5t-21.5 -29.5h-57q9 22 23 42.5t32 37t40 26.5t48 10q19 0 35.5 -6t31.5 -13t30 -13t31 -6q22 0 36.5 13t23.5 31h57v0z" />
    <glyph glyph-name="trademark" unicode="&#x2122;" horiz-adv-x="854" 
d="M761 367v281l-86 -281h-63l-86 281v-281h-79v356h128l69 -227l70 227h124v-356h-77zM288 657v-290h-84v290h-103v66h289v-66h-102z" />
    <glyph glyph-name="scaron" unicode="&#x161;" horiz-adv-x="442" 
d="M422 423q0 -16 -3.5 -31.5t-8.5 -30.5h-136q3 10 6 22t3 23q0 19 -12 27t-30 8q-26 0 -45 -19t-19 -46q0 -20 17 -36.5t43 -31.5l25 -14q18 -10 36 -21t31.5 -24.5t22 -29.5t8.5 -36q0 -23 -3.5 -41.5t-13.5 -38.5q-16 -34 -39.5 -56t-51.5 -34.5t-60.5 -17.5t-66.5 -5
q-25 0 -54.5 4t-54.5 15t-42 30.5t-17 50.5q0 18 4.5 35.5t9.5 34.5h137q-4 -12 -7 -24.5t-3 -25.5q0 -20 12.5 -29t32.5 -9q31 0 51 22.5t20 53.5q0 25 -19 41t-57 36l-22 12q-33 19 -58 45.5t-25 72.5q0 29 14.5 55.5t35.5 46.5q18 17 39.5 28.5t45 18t47 9.5t44.5 3
q24 0 52 -3t53 -13t41.5 -28.5t16.5 -48.5zM241 725l52 -84l99 84h92l-144 -143h-114l-63 143h78z" />
    <glyph glyph-name="guilsinglright" unicode="&#x203a;" horiz-adv-x="270" 
d="M94 260l-34 187h113l38 -195l-145 -194h-123z" />
    <glyph glyph-name="oe" unicode="&#x153;" horiz-adv-x="768" 
d="M729 393q0 -42 -11 -80.5t-22 -77.5h-277q-8 -27 -17 -56.5t-9 -58.5q0 -50 48 -50q21 0 36 8.5t26.5 22t19 30.5t12.5 34h137q-29 -85 -81 -131t-144 -46q-24 0 -47.5 3.5t-43 13t-33.5 26t-18 43.5q-34 -44 -75.5 -65t-96.5 -21q-33 0 -61 6.5t-48.5 21.5t-32 39.5
t-11.5 60.5t7.5 70t17.5 69q17 58 38 106.5t52.5 83t76.5 54t111 19.5q21 0 42.5 -3.5t40.5 -12.5t33 -24t21 -38q31 39 72.5 58.5t90.5 19.5q64 0 105 -29.5t41 -95.5zM595 387q0 48 -47 48q-25 0 -42 -12t-28.5 -30t-19 -40t-13.5 -41h134q5 18 10.5 36.5t5.5 38.5z
M322 381q0 26 -12 40t-39 14q-32 0 -53.5 -20.5t-36 -50t-23.5 -61.5t-16 -56q-8 -28 -16.5 -60t-8.5 -61q0 -25 10.5 -40.5t37.5 -15.5q30 0 51 18t35.5 44.5t24 56t15.5 52.5q4 15 9.5 33t10.5 36.5t8 37t3 33.5z" />
    <glyph glyph-name="zcaron" unicode="&#x17e;" horiz-adv-x="397" 
d="M389 417l-290 -330h196l-25 -87h-349l26 92l290 327h-185l25 85h337zM215 725l52 -84l99 84h92l-144 -143h-114l-63 143h78z" />
    <glyph glyph-name="Ydieresis" unicode="&#x178;" horiz-adv-x="544" 
d="M311 257l-74 -257h-152l81 263l-56 460h148l16 -331l215 331h161zM532 789h-112l31 109h112zM357 789h-112l31 109h112z" />
    <glyph glyph-name="uni00A0" unicode="&#xa0;" horiz-adv-x="250" 
 />
    <glyph glyph-name="exclamdown" unicode="&#xa1;" horiz-adv-x="314" 
d="M234 425h-117l33 117h117zM72 -181h-140l174 530h96z" />
    <glyph glyph-name="cent" unicode="&#xa2;" 
d="M463 405q0 -20 -3.5 -37t-8.5 -37h-125q4 14 7.5 28.5t3.5 29.5q0 6 -1 9l-175 -322q10 -2 18 -2q22 0 39 10t29.5 25.5t21.5 34t14 36.5h127q-15 -49 -35 -85t-49 -60t-68 -35.5t-91 -11.5q-14 0 -27 1t-25 3l-49 -89h-54l56 102q-31 14 -50 39.5t-19 69.5q0 32 5 61
t14 59q17 59 36 110.5t49.5 89.5t76 60t114.5 22q25 0 51 -3l46 84h54l-52 -96q30 -11 50 -33.5t20 -62.5zM299 429q-5 1 -15 1q-29 0 -50 -18.5t-36 -46t-25 -59t-18 -57.5q-13 -42 -20.5 -73.5t-7.5 -53.5v-8z" />
    <glyph glyph-name="sterling" unicode="&#xa3;" 
d="M543 634q0 -20 -3.5 -39t-8.5 -38h-119q3 9 5 18.5t2 19.5q0 43 -43 43q-20 0 -34.5 -8t-25 -21.5t-17.5 -30t-12 -33.5l-33 -116h135l-29 -102h-135l-64 -224h234l-30 -103h-423l30 103h63l64 224h-65l29 102h65l25 87q15 49 33.5 90t45.5 70t65.5 45t93.5 16
q27 0 54 -4.5t49 -15.5t35.5 -31.5t13.5 -51.5z" />
    <glyph glyph-name="currency" unicode="&#xa4;" 
d="M30 197l58 57q-25 44 -25 95t25 95l-58 58l68 68l58 -59q21 11 45 17.5t50 6.5t50 -6.5t44 -17.5l59 59l68 -68l-59 -58q12 -21 19 -45t7 -50t-7 -50t-19 -45l59 -57l-68 -68l-59 59q-21 -11 -44.5 -17.5t-49.5 -6.5t-50 6.5t-44 17.5l-59 -59zM334 350q0 36 -23.5 61.5
t-59.5 25.5q-37 0 -60 -25.5t-23 -61.5q0 -37 23 -63t60 -26q36 0 59.5 26t23.5 63z" />
    <glyph glyph-name="yen" unicode="&#xa5;" 
d="M337 352h120l-22 -79h-142l-18 -64h141l-22 -79h-142l-37 -130h-144l37 130h-140l22 79h141l18 64h-141l21 79h125l-31 371h149l-15 -323l173 323h156z" />
    <glyph glyph-name="brokenbar" unicode="&#xa6;" horiz-adv-x="222" 
d="M54 411v251h122v-251h-122zM54 -89v250h122v-250h-122z" />
    <glyph glyph-name="section" unicode="&#xa7;" horiz-adv-x="474" 
d="M473 604q-30 16 -62 26t-67 10q-12 0 -26 -2.5t-25.5 -8.5t-19 -16t-7.5 -25q0 -23 22.5 -37t51.5 -27q18 -8 36.5 -17t33 -21t24 -27.5t9.5 -36.5q0 -29 -12 -54.5t-31 -47.5t-43 -39t-47 -29q23 -14 37.5 -37.5t14.5 -51.5q0 -47 -23.5 -81t-60 -56t-80.5 -32t-84 -10
t-83 6t-80 22l33 112q32 -17 67 -26.5t72 -9.5q14 0 29.5 3t29 10t22 18.5t8.5 28.5t-21 31t-49 28q-19 10 -38 21t-34.5 24.5t-25.5 30t-10 37.5q0 28 12 52.5t31.5 44t44 34.5t48.5 25q-23 14 -35.5 39t-12.5 52q0 44 20.5 76.5t52.5 53.5t71.5 31t77.5 10q83 0 160 -27z
M312 388q0 23 -18 36t-36 21q-15 -5 -31.5 -13.5t-30.5 -19.5t-23 -26t-9 -33q0 -26 19.5 -40.5t39.5 -24.5q15 7 30.5 16.5t28.5 22t21.5 28t8.5 33.5z" />
    <glyph glyph-name="dieresis" unicode="&#xa8;" horiz-adv-x="235" 
d="M331 604h-112l31 109h112zM156 604h-112l31 109h112z" />
    <glyph glyph-name="copyright" unicode="&#xa9;" horiz-adv-x="816" 
d="M784 361q0 -81 -28.5 -150t-79 -119t-119 -78t-148.5 -28t-149 28t-119.5 78t-79 119t-28.5 150t28.5 150t79 119t119.5 78.5t149 28.5t148.5 -28.5t119 -78.5t79 -119t28.5 -150zM715 361q0 68 -23 125.5t-64 99.5t-97 65.5t-123 23.5q-66 0 -122.5 -23.5t-97 -65.5
t-63.5 -99.5t-23 -125.5t23 -125.5t63.5 -99.5t97 -65.5t122.5 -23.5q67 0 123 23.5t97 65.5t64 99.5t23 125.5zM562 285q0 -68 -37 -100.5t-109 -32.5q-48 0 -79 13t-48 39.5t-23.5 65.5t-6.5 92q0 49 6 88t23.5 66t49 41.5t81.5 14.5q68 0 104 -31t36 -94v-9h-93v7
q0 11 -1.5 22.5t-6.5 20.5t-15 14.5t-26 5.5q-20 0 -31.5 -9t-17.5 -26.5t-7.5 -44t-1.5 -60.5q0 -43 1.5 -72t7.5 -47t17 -25.5t30 -7.5q18 0 29 6t16 16t6.5 23t1.5 27v9h94v-12z" />
    <glyph glyph-name="ordfeminine" unicode="&#xaa;" horiz-adv-x="316" 
d="M370 673q0 -11 -2 -23t-5 -23q-14 -48 -30 -99.5t-22 -102.5h-86l7 33q-19 -18 -38.5 -28.5t-45.5 -10.5q-28 0 -50 13t-22 43q0 20 5 40q10 36 29 57t43.5 31t54.5 12.5t63 2.5q3 11 6 21.5t3 21.5q0 23 -21 23q-19 0 -30.5 -12.5t-16.5 -29.5h-86q14 54 51.5 73
t88.5 19q16 0 34.5 -2t34 -8t25.5 -18t10 -33zM247 569q-34 0 -58 -17t-24 -55q0 -13 7.5 -17.5t18.5 -4.5q17 0 28 10t18.5 24.5t11.5 30.5t8 29h-10z" />
    <glyph glyph-name="guillemotleft" unicode="&#xab;" horiz-adv-x="446" 
d="M288 245l34 -187h-113l-38 195l145 194h123zM116 245l34 -187h-113l-38 195l145 194h123z" />
    <glyph glyph-name="logicalnot" unicode="&#xac;" horiz-adv-x="585" 
d="M379 144v179h-373v114h496v-293h-123z" />
    <glyph glyph-name="uni00AD" unicode="&#xad;" horiz-adv-x="333" 
d="M248 219h-245l29 102h245z" />
    <glyph glyph-name="registered" unicode="&#xae;" horiz-adv-x="385" 
d="M430 549q0 -42 -14 -76.5t-39 -59.5t-59.5 -39t-76.5 -14q-41 0 -75 14.5t-59.5 40t-39.5 60t-14 74.5t14.5 74.5t39.5 60t59.5 40t74.5 14.5q42 0 76.5 -14t59.5 -39t39 -59.5t14 -76.5zM393 549q0 33 -11 61t-31.5 48.5t-48.5 31.5t-61 11q-32 0 -60 -11.5t-48 -32
t-31.5 -48.5t-11.5 -60q0 -33 11 -61t31 -48.5t48 -31.5t61 -11q32 0 59.5 12t48 32.5t32.5 48t12 59.5zM279 446q-7 20 -6 34t-1.5 23t-14 13.5t-42.5 4.5v-75h-52v206h74q16 0 32.5 -1.5t29.5 -7.5t21.5 -17.5t8.5 -32.5q0 -37 -38 -50q19 -8 25.5 -18.5t8 -23.5t1.5 -27
t6 -28h-53zM276 588q0 17 -13.5 21.5t-27.5 4.5h-20v-52h20q14 0 27.5 4t13.5 22z" />
    <glyph glyph-name="macron" unicode="&#xaf;" horiz-adv-x="235" 
d="M337 622h-289l19 65h289z" />
    <glyph glyph-name="degree" unicode="&#xb0;" horiz-adv-x="398" 
d="M408 575q0 -35 -13 -64t-35 -50t-52.5 -33t-64.5 -12q-35 0 -64.5 12t-52 33t-35 50t-12.5 64q0 34 12.5 63t35 50t52 33t64.5 12q34 0 64.5 -12t52.5 -33t35 -50t13 -63zM313 575q0 32 -20 52.5t-50 20.5q-29 0 -49 -20.5t-20 -52.5t20 -53t49 -21q30 0 50 21t20 53z
" />
    <glyph glyph-name="plusminus" unicode="&#xb1;" horiz-adv-x="585" 
d="M317 313v-147h-125v147h-186v115h186v146h125v-146h185v-115h-185zM6 0v115h496v-115h-496z" />
    <glyph glyph-name="twosuperior" unicode="&#xb2;" horiz-adv-x="307" 
d="M398 820q0 -39 -21 -74.5t-47 -62.5q-38 -38 -77 -74.5t-80 -71.5h151l-19 -68h-263l20 72q12 10 34.5 29t49.5 43t55.5 51t51.5 52.5t37.5 48t14.5 37.5q0 11 -7 19t-19 8q-29 0 -43 -19t-21 -44h-85q15 60 59 93.5t106 33.5q18 0 36.5 -3.5t33 -11.5t24 -22t9.5 -36z
" />
    <glyph glyph-name="threesuperior" unicode="&#xb3;" horiz-adv-x="307" 
d="M392 824q0 -43 -23.5 -79.5t-61.5 -55.5q35 -21 35 -62q0 -15 -5 -33q-19 -65 -60.5 -98t-109.5 -33q-19 0 -36.5 2.5t-31.5 10t-22.5 21t-8.5 36.5q0 14 2.5 28t6.5 28h86q-2 -8 -4.5 -17t-2.5 -18q0 -16 9.5 -21t23.5 -5q15 0 26.5 10t19 24.5t11.5 31t4 28.5
q0 15 -6.5 23t-16.5 11t-22 3h-23l17 58q18 0 33.5 1.5t28 7.5t21.5 17.5t15 31.5q2 8 4.5 17t2.5 17q0 23 -26 23q-24 0 -36.5 -17.5t-18.5 -37.5h-86q34 117 155 117q18 0 36 -3t32 -10.5t23 -21t9 -35.5z" />
    <glyph glyph-name="acute" unicode="&#xb4;" horiz-adv-x="235" 
d="M196 582h-86l122 143h145z" />
    <glyph glyph-name="mu" unicode="&#xb5;" horiz-adv-x="592" 
d="M380 88q-7 -24 -12 -44.5t-10 -43.5h-142l14 54q-19 -35 -39 -48.5t-46 -13.5q-17 0 -31 8t-19 26l-63 -218h-139l199 696h140l-97 -337q-5 -14 -7.5 -28.5t-2.5 -26.5q0 -40 43 -40q20 0 35.5 9t27 23.5t20 33.5t14.5 39l94 327h141z" />
    <glyph glyph-name="paragraph" unicode="&#xb6;" horiz-adv-x="580" 
d="M406 0h-114l180 629h-86l-180 -629h-113l95 323q-66 6 -106 42.5t-40 105.5q0 57 27 103.5t74.5 79.5t112.5 51t142 18h215z" />
    <glyph glyph-name="periodcentered" unicode="&#xb7;" horiz-adv-x="246" 
d="M144 224h-120l38 133h120z" />
    <glyph glyph-name="cedilla" unicode="&#xb8;" horiz-adv-x="235" 
d="M92 -113q0 -27 -14 -48t-36 -35.5t-48 -22.5t-50 -8q-26 0 -51.5 6t-48.5 20l30 40q32 -16 66 -16q26 0 47 12.5t21 37.5q0 26 -40 26q-10 0 -19.5 -2t-18.5 -5l-17 19l78 89h52l-49 -61q7 2 13.5 3t13.5 1q26 0 48.5 -13.5t22.5 -42.5z" />
    <glyph glyph-name="onesuperior" unicode="&#xb9;" horiz-adv-x="307" 
d="M252 469h-93l91 320q-23 -14 -45 -27t-47 -21l23 82q55 24 103 64h88z" />
    <glyph glyph-name="ordmasculine" unicode="&#xba;" horiz-adv-x="316" 
d="M373 659q0 -35 -11 -73q-11 -36 -22.5 -67.5t-29.5 -55t-45.5 -36.5t-70.5 -13q-20 0 -39 3t-34 11t-24 23t-9 38q0 20 3.5 40.5t8.5 40.5q10 36 21.5 66.5t29.5 52t45.5 33.5t69.5 12q20 0 39 -3t34 -11.5t24.5 -23t9.5 -37.5zM281 643q0 11 -4.5 20t-17.5 9
q-15 0 -25.5 -11.5t-22.5 -40.5q-14 -31 -23 -62t-9 -54q0 -12 4 -20t18 -8t24 8.5t16.5 20.5t11 25.5t7.5 24.5q6 20 13.5 44t7.5 44z" />
    <glyph glyph-name="guillemotright" unicode="&#xbb;" horiz-adv-x="442" 
d="M93 260l-34 187h113l38 -195l-145 -194h-123zM265 260l-34 187h113l38 -195l-145 -194h-123z" />
    <glyph glyph-name="onequarter" unicode="&#xbc;" horiz-adv-x="758" 
d="M639 164h34l-20 -69h-34l-27 -95h-93l27 94h-139l23 82l181 243h121zM141 -25h-67l510 762h67zM180 299h-93l91 320q-23 -14 -45 -27t-47 -21l23 82q55 24 103 64h88zM600 326q-28 -42 -57.5 -82t-58.5 -81h68z" />
    <glyph glyph-name="onehalf" unicode="&#xbd;" horiz-adv-x="758" 
d="M715 351q0 -39 -21.5 -74.5t-47.5 -62.5q-38 -38 -77 -74.5t-80 -71.5h151l-19 -68h-263l21 72q12 10 34.5 29t49.5 43t55 50.5t51.5 52t38 48t14.5 37.5q0 12 -7.5 20t-19.5 8q-29 0 -43 -19t-21 -44h-84q15 59 59 93t106 34q18 0 36.5 -3t33.5 -11.5t24 -22.5t9 -36z
M138 -25h-66l510 762h67zM188 299h-93l91 320q-23 -14 -45 -27t-47 -21l23 82q55 24 103 64h88z" />
    <glyph glyph-name="threequarters" unicode="&#xbe;" horiz-adv-x="758" 
d="M648 164h34l-20 -69h-34l-27 -95h-93l27 94h-138l23 82l180 243h121zM164 -25h-67l510 762h68zM350 653q0 -43 -23.5 -79.5t-61.5 -55.5q36 -22 36 -63q0 -15 -5 -32q-38 -131 -171 -131q-19 0 -36.5 2.5t-31.5 10t-22.5 21t-8.5 36.5q0 14 2.5 28t6.5 28h87
q-2 -8 -4.5 -17t-2.5 -18q0 -16 9.5 -21t23.5 -5q15 0 26 10t18.5 24.5t11.5 31t4 28.5q0 15 -6.5 23t-16 11t-21.5 3h-23l17 58q18 0 33.5 1.5t28 7.5t21.5 17.5t15 31.5q2 8 4 16.5t2 16.5q0 14 -6.5 19t-19.5 5q-24 0 -36.5 -17.5t-18.5 -37.5h-85q17 59 54.5 88t99.5 29
q18 0 36 -3t32 -10.5t23 -21t9 -35.5zM609 326q-27 -42 -56.5 -82t-58.5 -81h67z" />
    <glyph glyph-name="questiondown" unicode="&#xbf;" horiz-adv-x="437" 
d="M295 425h-116l33 117h116zM305 11q-14 -50 -32 -88.5t-45.5 -65t-66 -40t-92.5 -13.5q-28 0 -56.5 4.5t-51.5 16.5t-37.5 33t-14.5 54q0 46 15 83.5t39.5 70t55 61t60.5 57.5q24 22 37 39t21 34t13.5 38.5t14.5 52.5h104l-23 -79q-15 -51 -47.5 -92.5t-65.5 -79t-58 -74
t-25 -78.5q0 -43 42 -43q23 0 38.5 10.5t26 26t17 35t11.5 37.5h120z" />
    <glyph glyph-name="Agrave" unicode="&#xc0;" horiz-adv-x="600" 
d="M496 0h-149l6 160h-211l-86 -160h-158l405 723h202zM201 265h155l17 342zM400 777l-103 143h131l52 -143h-80z" />
    <glyph glyph-name="Aacute" unicode="&#xc1;" horiz-adv-x="600" 
d="M496 0h-149l6 160h-211l-86 -160h-158l405 723h202zM201 265h155l17 342zM424 777h-86l122 143h145z" />
    <glyph glyph-name="Acircumflex" unicode="&#xc2;" horiz-adv-x="600" 
d="M496 0h-149l6 160h-211l-86 -160h-158l405 723h202zM201 265h155l17 342zM492 777l-52 84l-99 -84h-92l144 143h114l63 -143h-78z" />
    <glyph glyph-name="Atilde" unicode="&#xc3;" horiz-adv-x="600" 
d="M496 0h-149l6 160h-211l-86 -160h-158l405 723h202zM201 265h155l17 342zM624 906q-9 -21 -22.5 -41.5t-31.5 -37t-39.5 -26.5t-46.5 -10q-18 0 -35 5.5t-33.5 12.5t-33.5 12.5t-35 5.5q-19 0 -32.5 -13.5t-21.5 -29.5h-57q9 22 23 42.5t32 37t40 26.5t48 10
q19 0 35.5 -6t31.5 -13t30 -13t31 -6q22 0 36.5 13t23.5 31h57v0z" />
    <glyph glyph-name="Adieresis" unicode="&#xc4;" horiz-adv-x="600" 
d="M496 0h-149l6 160h-211l-86 -160h-158l405 723h202zM201 265h155l17 342zM561 789h-112l31 109h112zM386 789h-112l31 109h112z" />
    <glyph glyph-name="Aring" unicode="&#xc5;" horiz-adv-x="600" 
d="M496 0h-149l6 160h-211l-86 -160h-158l405 723h202zM201 265h155l17 342zM535 853q0 -43 -29.5 -72.5t-73.5 -29.5q-21 0 -40 8t-33 21.5t-22 32.5t-8 40t8 40t22 32.5t33 21.5t40 8q44 0 73.5 -29.5t29.5 -72.5zM489 853q0 26 -16 42.5t-41 16.5q-24 0 -40 -16.5
t-16 -42.5t16 -43t40 -17q25 0 41 17t16 43z" />
    <glyph glyph-name="AE" unicode="&#xc6;" horiz-adv-x="785" 
d="M812 615h-267l-23 -188h223l-30 -105h-201l-27 -213h196l-31 -109h-327l21 161h-210l-95 -161h-150l439 723h513zM195 265h162l49 365z" />
    <glyph glyph-name="Ccedilla" unicode="&#xc7;" horiz-adv-x="558" 
d="M285 -113q0 -27 -14 -48t-36 -35.5t-48 -22.5t-50 -8q-26 0 -51.5 6t-48.5 20l30 40q32 -16 66 -16q26 0 47 12.5t21 37.5q0 26 -40 26q-10 0 -19.5 -2t-18.5 -5l-17 19l65 75q-34 3 -64.5 12t-54 27t-37 46.5t-13.5 70.5q0 48 12.5 105.5t28.5 111.5q24 82 47.5 152
t60 120t93.5 78.5t148 28.5q34 0 68 -5.5t61.5 -20t44.5 -39t17 -63.5q0 -29 -5 -56.5t-13 -54.5h-147q5 18 10 37.5t5 39.5q0 29 -16.5 42.5t-45.5 13.5q-36 0 -62.5 -22t-46 -58t-34.5 -82.5t-28 -95.5q-20 -70 -33.5 -126.5t-13.5 -91.5q0 -32 13.5 -48.5t47.5 -16.5
t56.5 14t37 36t23 49.5t16.5 54.5h151q-17 -62 -37.5 -109.5t-51 -79.5t-75 -49.5t-110.5 -20.5l-37 -47q7 2 13.5 3t13.5 1q26 0 48.5 -13.5t22.5 -42.5z" />
    <glyph glyph-name="Egrave" unicode="&#xc8;" horiz-adv-x="502" 
d="M539 616h-244l-55 -190h223l-30 -104h-223l-61 -215h250l-31 -107h-401l207 723h395zM375 777l-103 143h131l52 -143h-80z" />
    <glyph glyph-name="Eacute" unicode="&#xc9;" horiz-adv-x="502" 
d="M539 616h-244l-55 -190h223l-30 -104h-223l-61 -215h250l-31 -107h-401l207 723h395zM399 777h-86l122 143h145z" />
    <glyph glyph-name="Ecircumflex" unicode="&#xca;" horiz-adv-x="502" 
d="M539 616h-244l-55 -190h223l-30 -104h-223l-61 -215h250l-31 -107h-401l207 723h395zM467 777l-52 84l-99 -84h-92l144 143h114l63 -143h-78z" />
    <glyph glyph-name="Edieresis" unicode="&#xcb;" horiz-adv-x="502" 
d="M539 616h-244l-55 -190h223l-30 -104h-223l-61 -215h250l-31 -107h-401l207 723h395zM536 789h-112l31 109h112zM361 789h-112l31 109h112z" />
    <glyph glyph-name="Igrave" unicode="&#xcc;" horiz-adv-x="293" 
d="M119 0h-152l207 723h152zM251 777l-103 143h131l52 -143h-80z" />
    <glyph glyph-name="Iacute" unicode="&#xcd;" horiz-adv-x="293" 
d="M119 0h-152l207 723h152zM275 777h-86l122 143h145z" />
    <glyph glyph-name="Icircumflex" unicode="&#xce;" horiz-adv-x="293" 
d="M119 0h-152l207 723h152zM333 777l-52 84l-99 -84h-92l144 143h114l63 -143h-78z" />
    <glyph glyph-name="Idieresis" unicode="&#xcf;" horiz-adv-x="293" 
d="M119 0h-152l207 723h152zM412 789h-112l31 109h112zM237 789h-112l31 109h112z" />
    <glyph glyph-name="Eth" unicode="&#xd0;" horiz-adv-x="607" 
d="M605 570q0 -50 -10.5 -101t-21.5 -89q-19 -66 -36 -120.5t-37 -96.5t-45.5 -73t-62 -51t-86.5 -29.5t-118 -9.5h-221l102 355h-63l24 84h63l81 284h217q39 0 77.5 -6t69 -22.5t49 -46.5t18.5 -78zM448 535q0 47 -27.5 64t-70.5 17h-55l-51 -177h101l-24 -84h-101
l-72 -249h57q52 0 84.5 18.5t54 51.5t36.5 79.5t31 102.5q6 19 12.5 41.5t12 46t9 46.5t3.5 43z" />
    <glyph glyph-name="Ntilde" unicode="&#xd1;" horiz-adv-x="653" 
d="M479 0h-217l7 618l-173 -618h-129l207 723h217l-6 -618l172 618h129zM658 906q-9 -21 -22.5 -41.5t-31.5 -37t-39.5 -26.5t-46.5 -10q-18 0 -35 5.5t-33.5 12.5t-33.5 12.5t-35 5.5q-19 0 -32.5 -13.5t-21.5 -29.5h-57q9 22 23 42.5t32 37t40 26.5t48 10q19 0 35.5 -6
t31.5 -13t30 -13t31 -6q22 0 36.5 13t23.5 31h57v0z" />
    <glyph glyph-name="Ograve" unicode="&#xd2;" horiz-adv-x="596" 
d="M594 585q0 -57 -14 -118t-30 -115q-24 -84 -46 -151.5t-57 -115.5t-92 -74t-150 -26q-40 0 -76.5 8t-64.5 27t-45 49.5t-17 75.5q0 55 12.5 104.5t27.5 102.5q22 78 44.5 148t59.5 123t95.5 84t152.5 31q40 0 76 -7t63.5 -24t44 -46.5t16.5 -75.5zM442 564q0 35 -16 51.5
t-51 16.5q-45 0 -74.5 -29.5t-49 -72t-32 -88.5t-21.5 -79q-6 -21 -14 -47.5t-15 -54.5t-12 -54.5t-5 -48.5q0 -35 16.5 -51t51.5 -16q34 0 57.5 15t40 38.5t27.5 52t20 55.5q10 29 18 57.5t16 57.5q6 20 13.5 45.5t14 52t11 52.5t4.5 47zM392 777l-103 143h131l52 -143h-80
z" />
    <glyph glyph-name="Oacute" unicode="&#xd3;" horiz-adv-x="596" 
d="M594 585q0 -57 -14 -118t-30 -115q-24 -84 -46 -151.5t-57 -115.5t-92 -74t-150 -26q-40 0 -76.5 8t-64.5 27t-45 49.5t-17 75.5q0 55 12.5 104.5t27.5 102.5q22 78 44.5 148t59.5 123t95.5 84t152.5 31q40 0 76 -7t63.5 -24t44 -46.5t16.5 -75.5zM442 564q0 35 -16 51.5
t-51 16.5q-45 0 -74.5 -29.5t-49 -72t-32 -88.5t-21.5 -79q-6 -21 -14 -47.5t-15 -54.5t-12 -54.5t-5 -48.5q0 -35 16.5 -51t51.5 -16q34 0 57.5 15t40 38.5t27.5 52t20 55.5q10 29 18 57.5t16 57.5q6 20 13.5 45.5t14 52t11 52.5t4.5 47zM416 777h-86l122 143h145z" />
    <glyph glyph-name="Ocircumflex" unicode="&#xd4;" horiz-adv-x="596" 
d="M594 585q0 -57 -14 -118t-30 -115q-24 -84 -46 -151.5t-57 -115.5t-92 -74t-150 -26q-40 0 -76.5 8t-64.5 27t-45 49.5t-17 75.5q0 55 12.5 104.5t27.5 102.5q22 78 44.5 148t59.5 123t95.5 84t152.5 31q40 0 76 -7t63.5 -24t44 -46.5t16.5 -75.5zM442 564q0 35 -16 51.5
t-51 16.5q-45 0 -74.5 -29.5t-49 -72t-32 -88.5t-21.5 -79q-6 -21 -14 -47.5t-15 -54.5t-12 -54.5t-5 -48.5q0 -35 16.5 -51t51.5 -16q34 0 57.5 15t40 38.5t27.5 52t20 55.5q10 29 18 57.5t16 57.5q6 20 13.5 45.5t14 52t11 52.5t4.5 47zM484 777l-52 84l-99 -84h-92
l144 143h114l63 -143h-78z" />
    <glyph glyph-name="Otilde" unicode="&#xd5;" horiz-adv-x="596" 
d="M594 585q0 -57 -14 -118t-30 -115q-24 -84 -46 -151.5t-57 -115.5t-92 -74t-150 -26q-40 0 -76.5 8t-64.5 27t-45 49.5t-17 75.5q0 55 12.5 104.5t27.5 102.5q22 78 44.5 148t59.5 123t95.5 84t152.5 31q40 0 76 -7t63.5 -24t44 -46.5t16.5 -75.5zM442 564q0 35 -16 51.5
t-51 16.5q-45 0 -74.5 -29.5t-49 -72t-32 -88.5t-21.5 -79q-6 -21 -14 -47.5t-15 -54.5t-12 -54.5t-5 -48.5q0 -35 16.5 -51t51.5 -16q34 0 57.5 15t40 38.5t27.5 52t20 55.5q10 29 18 57.5t16 57.5q6 20 13.5 45.5t14 52t11 52.5t4.5 47zM616 906q-9 -21 -22.5 -41.5
t-31.5 -37t-39.5 -26.5t-46.5 -10q-18 0 -35 5.5t-33.5 12.5t-33.5 12.5t-35 5.5q-19 0 -32.5 -13.5t-21.5 -29.5h-57q9 22 23 42.5t32 37t40 26.5t48 10q19 0 35.5 -6t31.5 -13t30 -13t31 -6q22 0 36.5 13t23.5 31h57v0z" />
    <glyph glyph-name="Odieresis" unicode="&#xd6;" horiz-adv-x="596" 
d="M594 585q0 -57 -14 -118t-30 -115q-24 -84 -46 -151.5t-57 -115.5t-92 -74t-150 -26q-40 0 -76.5 8t-64.5 27t-45 49.5t-17 75.5q0 55 12.5 104.5t27.5 102.5q22 78 44.5 148t59.5 123t95.5 84t152.5 31q40 0 76 -7t63.5 -24t44 -46.5t16.5 -75.5zM442 564q0 35 -16 51.5
t-51 16.5q-45 0 -74.5 -29.5t-49 -72t-32 -88.5t-21.5 -79q-6 -21 -14 -47.5t-15 -54.5t-12 -54.5t-5 -48.5q0 -35 16.5 -51t51.5 -16q34 0 57.5 15t40 38.5t27.5 52t20 55.5q10 29 18 57.5t16 57.5q6 20 13.5 45.5t14 52t11 52.5t4.5 47zM553 789h-112l31 109h112zM378 789
h-112l31 109h112z" />
    <glyph glyph-name="multiply" unicode="&#xd7;" horiz-adv-x="579" 
d="M397 31l-152 152l-151 -151l-82 81l151 152l-151 151l82 82l151 -152l152 152l81 -82l-151 -151l152 -152z" />
    <glyph glyph-name="Oslash" unicode="&#xd8;" horiz-adv-x="596" 
d="M592 612q1 -6 1.5 -13t0.5 -14q0 -57 -14 -118t-30 -115q-24 -84 -46 -151.5t-57 -115.5t-92 -74t-150 -26q-48 0 -90.5 12t-71.5 40l-80 -84l-41 38l90 94q-10 28 -10 60q0 55 12.5 104.5t27.5 102.5q22 78 44.5 148t59.5 123t95.5 84t152.5 31q57 0 104.5 -14.5
t73.5 -53.5l74 78l42 -36zM442 564q0 35 -16 51.5t-51 16.5q-45 0 -74.5 -29.5t-49 -72t-32 -88.5t-21.5 -79q-7 -25 -16 -55.5t-17 -62.5l275 287q1 8 1.5 16t0.5 16zM152 151q2 -32 18.5 -46t49.5 -14q34 0 57.5 15t40 38.5t27.5 52t20 55.5q10 29 18 57.5t16 57.5l18 61z
" />
    <glyph glyph-name="Ugrave" unicode="&#xd9;" horiz-adv-x="628" 
d="M528 238q-18 -64 -42.5 -111.5t-59.5 -79t-84.5 -47t-117.5 -15.5q-38 0 -75 5.5t-66.5 21.5t-48 44t-18.5 72q0 58 17 117l137 478h150l-134 -469q-7 -23 -13 -47.5t-6 -48.5q0 -35 18 -51t53 -16t59 14t40.5 37t27.5 51t19 57l135 473h148zM418 777l-103 143h131
l52 -143h-80z" />
    <glyph glyph-name="Uacute" unicode="&#xda;" horiz-adv-x="628" 
d="M528 238q-18 -64 -42.5 -111.5t-59.5 -79t-84.5 -47t-117.5 -15.5q-38 0 -75 5.5t-66.5 21.5t-48 44t-18.5 72q0 58 17 117l137 478h150l-134 -469q-7 -23 -13 -47.5t-6 -48.5q0 -35 18 -51t53 -16t59 14t40.5 37t27.5 51t19 57l135 473h148zM442 777h-86l122 143h145z
" />
    <glyph glyph-name="Ucircumflex" unicode="&#xdb;" horiz-adv-x="628" 
d="M528 238q-18 -64 -42.5 -111.5t-59.5 -79t-84.5 -47t-117.5 -15.5q-38 0 -75 5.5t-66.5 21.5t-48 44t-18.5 72q0 58 17 117l137 478h150l-134 -469q-7 -23 -13 -47.5t-6 -48.5q0 -35 18 -51t53 -16t59 14t40.5 37t27.5 51t19 57l135 473h148zM510 777l-52 84l-99 -84h-92
l144 143h114l63 -143h-78z" />
    <glyph glyph-name="Udieresis" unicode="&#xdc;" horiz-adv-x="628" 
d="M528 238q-18 -64 -42.5 -111.5t-59.5 -79t-84.5 -47t-117.5 -15.5q-38 0 -75 5.5t-66.5 21.5t-48 44t-18.5 72q0 58 17 117l137 478h150l-134 -469q-7 -23 -13 -47.5t-6 -48.5q0 -35 18 -51t53 -16t59 14t40.5 37t27.5 51t19 57l135 473h148zM579 789h-112l31 109h112z
M404 789h-112l31 109h112z" />
    <glyph glyph-name="Yacute" unicode="&#xdd;" horiz-adv-x="544" 
d="M311 257l-74 -257h-152l81 263l-56 460h148l16 -331l215 331h161zM395 777h-86l122 143h145z" />
    <glyph glyph-name="Thorn" unicode="&#xde;" horiz-adv-x="563" 
d="M561 476q0 -46 -14 -93q-21 -72 -47.5 -114t-62 -63.5t-81.5 -27.5t-106 -6h-83l-49 -172h-151l207 723h151l-35 -122h84q31 0 64 -5t60.5 -18.5t45 -38t17.5 -63.5zM402 435q0 20 -8 32t-21 18t-29.5 8t-32.5 2h-52l-62 -216h51q61 0 95 24.5t51 84.5q3 11 5.5 23
t2.5 24z" />
    <glyph glyph-name="germandbls" unicode="&#xdf;" horiz-adv-x="571" 
d="M551 618q0 -34 -11.5 -60t-28 -46t-36.5 -36.5t-36.5 -32t-28 -31.5t-11.5 -35q0 -23 15.5 -44t33.5 -44t33.5 -50.5t15.5 -62.5q0 -46 -16 -80.5t-44.5 -58t-66.5 -35.5t-82 -12q-20 0 -44.5 3t-45.5 12.5t-35 26.5t-14 46q0 17 3 32.5t8 31.5h115q-3 -8 -5 -16.5
t-2 -17.5q0 -32 34 -32q15 0 26.5 7.5t19.5 19.5t12.5 26t4.5 27q0 27 -15.5 52.5t-34.5 51t-34.5 53t-15.5 59.5q0 25 11 44t27 35.5t35 32t35 32.5t27 37t11 46q0 25 -15.5 35.5t-38.5 10.5q-32 0 -53 -13t-34.5 -34t-21.5 -46t-15 -49l-144 -503h-139l143 500
q17 61 40 104.5t56.5 71.5t79.5 41.5t109 13.5q25 0 55 -5t56 -18t44 -34.5t18 -55.5z" />
    <glyph glyph-name="agrave" unicode="&#xe0;" horiz-adv-x="479" 
d="M433 413q0 -20 -4 -38.5t-9 -37.5q-24 -85 -48.5 -167t-38.5 -170h-137l14 60q-31 -35 -64 -52.5t-80 -17.5q-46 0 -76 23.5t-30 71.5q0 52 21 99q17 39 46.5 65t65.5 41.5t76.5 22t80.5 6.5h27q5 20 12 41.5t7 41.5q0 35 -37 35q-34 0 -51 -22t-25 -51h-139
q12 44 34 73.5t52 47t66.5 24.5t78.5 7q27 0 55 -4t51 -15t37.5 -31t14.5 -53zM234 244q-51 0 -80.5 -22t-43.5 -71q-2 -9 -4 -18.5t-2 -19.5q0 -38 38 -38q28 0 47.5 19t32.5 45.5t20.5 55.5t13.5 49h-22zM282 582l-103 143h131l52 -143h-80z" />
    <glyph glyph-name="aacute" unicode="&#xe1;" horiz-adv-x="479" 
d="M433 413q0 -20 -4 -38.5t-9 -37.5q-24 -85 -48.5 -167t-38.5 -170h-137l14 60q-31 -35 -64 -52.5t-80 -17.5q-46 0 -76 23.5t-30 71.5q0 52 21 99q17 39 46.5 65t65.5 41.5t76.5 22t80.5 6.5h27q5 20 12 41.5t7 41.5q0 35 -37 35q-34 0 -51 -22t-25 -51h-139
q12 44 34 73.5t52 47t66.5 24.5t78.5 7q27 0 55 -4t51 -15t37.5 -31t14.5 -53zM234 244q-51 0 -80.5 -22t-43.5 -71q-2 -9 -4 -18.5t-2 -19.5q0 -38 38 -38q28 0 47.5 19t32.5 45.5t20.5 55.5t13.5 49h-22zM306 582h-86l122 143h145z" />
    <glyph glyph-name="acircumflex" unicode="&#xe2;" horiz-adv-x="479" 
d="M433 413q0 -20 -4 -38.5t-9 -37.5q-24 -85 -48.5 -167t-38.5 -170h-137l14 60q-31 -35 -64 -52.5t-80 -17.5q-46 0 -76 23.5t-30 71.5q0 52 21 99q17 39 46.5 65t65.5 41.5t76.5 22t80.5 6.5h27q5 20 12 41.5t7 41.5q0 35 -37 35q-34 0 -51 -22t-25 -51h-139
q12 44 34 73.5t52 47t66.5 24.5t78.5 7q27 0 55 -4t51 -15t37.5 -31t14.5 -53zM234 244q-51 0 -80.5 -22t-43.5 -71q-2 -9 -4 -18.5t-2 -19.5q0 -38 38 -38q28 0 47.5 19t32.5 45.5t20.5 55.5t13.5 49h-22zM373 582l-52 84l-99 -84h-92l144 143h114l63 -143h-78z" />
    <glyph glyph-name="atilde" unicode="&#xe3;" horiz-adv-x="479" 
d="M433 413q0 -20 -4 -38.5t-9 -37.5q-24 -85 -48.5 -167t-38.5 -170h-137l14 60q-31 -35 -64 -52.5t-80 -17.5q-46 0 -76 23.5t-30 71.5q0 52 21 99q17 39 46.5 65t65.5 41.5t76.5 22t80.5 6.5h27q5 20 12 41.5t7 41.5q0 35 -37 35q-34 0 -51 -22t-25 -51h-139
q12 44 34 73.5t52 47t66.5 24.5t78.5 7q27 0 55 -4t51 -15t37.5 -31t14.5 -53zM234 244q-51 0 -80.5 -22t-43.5 -71q-2 -9 -4 -18.5t-2 -19.5q0 -38 38 -38q28 0 47.5 19t32.5 45.5t20.5 55.5t13.5 49h-22zM505 711q-9 -21 -22.5 -41.5t-31.5 -37t-39.5 -26.5t-46.5 -10
q-18 0 -35 5.5t-33.5 12.5t-33.5 12.5t-35 5.5q-19 0 -32.5 -13.5t-21.5 -29.5h-57q9 22 23 42.5t32 37t40 26.5t48 10q19 0 35.5 -6t31.5 -13t30 -13t31 -6q22 0 36.5 13t23.5 31h57v0z" />
    <glyph glyph-name="adieresis" unicode="&#xe4;" horiz-adv-x="479" 
d="M433 413q0 -20 -4 -38.5t-9 -37.5q-24 -85 -48.5 -167t-38.5 -170h-137l14 60q-31 -35 -64 -52.5t-80 -17.5q-46 0 -76 23.5t-30 71.5q0 52 21 99q17 39 46.5 65t65.5 41.5t76.5 22t80.5 6.5h27q5 20 12 41.5t7 41.5q0 35 -37 35q-34 0 -51 -22t-25 -51h-139
q12 44 34 73.5t52 47t66.5 24.5t78.5 7q27 0 55 -4t51 -15t37.5 -31t14.5 -53zM234 244q-51 0 -80.5 -22t-43.5 -71q-2 -9 -4 -18.5t-2 -19.5q0 -38 38 -38q28 0 47.5 19t32.5 45.5t20.5 55.5t13.5 49h-22zM441 604h-112l31 109h112zM266 604h-112l31 109h112z" />
    <glyph glyph-name="aring" unicode="&#xe5;" horiz-adv-x="479" 
d="M433 413q0 -20 -4 -38.5t-9 -37.5q-24 -85 -48.5 -167t-38.5 -170h-137l14 60q-31 -35 -64 -52.5t-80 -17.5q-46 0 -76 23.5t-30 71.5q0 52 21 99q17 39 46.5 65t65.5 41.5t76.5 22t80.5 6.5h27q5 20 12 41.5t7 41.5q0 35 -37 35q-34 0 -51 -22t-25 -51h-139
q12 44 34 73.5t52 47t66.5 24.5t78.5 7q27 0 55 -4t51 -15t37.5 -31t14.5 -53zM234 244q-51 0 -80.5 -22t-43.5 -71q-2 -9 -4 -18.5t-2 -19.5q0 -38 38 -38q28 0 47.5 19t32.5 45.5t20.5 55.5t13.5 49h-22zM418 668q0 -43 -29.5 -72.5t-73.5 -29.5q-21 0 -40 8t-33 21.5
t-22 32.5t-8 40t8 40t22 32.5t33 21.5t40 8q44 0 73.5 -29.5t29.5 -72.5zM372 668q0 26 -16 42.5t-41 16.5q-24 0 -40 -16.5t-16 -42.5t16 -43t40 -17q25 0 41 17t16 43z" />
    <glyph glyph-name="ae" unicode="&#xe6;" horiz-adv-x="727" 
d="M688 397q0 -40 -9.5 -77.5t-20.5 -75.5h-264q-8 -29 -18.5 -62.5t-10.5 -64.5q0 -23 10 -34.5t33 -11.5q20 0 34.5 9t25 22.5t17.5 30.5t12 34h136q-14 -46 -34 -79.5t-48 -55.5t-64.5 -33t-84.5 -11q-19 0 -39.5 4.5t-39 13.5t-32.5 23.5t-19 34.5q-23 -22 -43.5 -36.5
t-42.5 -23.5t-47 -12.5t-56 -3.5q-60 0 -91.5 23.5t-31.5 77.5q0 34 7.5 62t21.5 51q18 30 45.5 51t61.5 34.5t72.5 20t78.5 6.5h35q5 19 11.5 40t6.5 41q0 38 -41 38q-32 0 -49.5 -20.5t-25.5 -48.5h-139q10 41 30.5 70t49 47t64 26.5t75.5 8.5q19 0 40 -2.5t40 -10
t33.5 -21.5t20.5 -36q26 34 65.5 52t81.5 18q30 0 56.5 -6t45.5 -20.5t30 -37t11 -55.5zM553 392q0 41 -40 41q-23 0 -39 -11.5t-27.5 -29.5t-19 -39t-12.5 -39h122q5 19 10.5 38.5t5.5 39.5zM235 244q-51 0 -80.5 -22t-43.5 -71q-6 -20 -6 -40q0 -18 8 -29t28 -11
q29 0 49 19t34 46.5t23 57t15 50.5h-27z" />
    <glyph glyph-name="ccedilla" unicode="&#xe7;" horiz-adv-x="461" 
d="M237 -113q0 -27 -14 -48t-36 -35.5t-48 -22.5t-50 -8q-26 0 -51.5 6t-48.5 20l30 40q32 -16 66 -16q26 0 47 12.5t21 37.5q0 26 -40 26q-10 0 -19.5 -2t-18.5 -5l-17 19l68 78q-29 1 -55.5 8t-46.5 21.5t-32 38t-12 57.5q0 32 5 61t14 59q17 59 36 110.5t49.5 89.5t76 60
t114.5 22q28 0 58 -4.5t54.5 -16.5t40.5 -33.5t16 -56.5q0 -20 -3.5 -37t-8.5 -37h-135q4 14 7.5 28.5t3.5 29.5q0 41 -43 41q-30 0 -50.5 -20t-34 -48t-22 -59.5t-14.5 -53.5q-8 -28 -18 -63.5t-10 -63.5q0 -23 10 -35.5t34 -12.5q22 0 38 10t27 25.5t19 34t13 36.5h134
q-27 -90 -75.5 -137t-136.5 -54l-40 -50q7 2 13.5 3t13.5 1q26 0 48.5 -13.5t22.5 -42.5z" />
    <glyph glyph-name="egrave" unicode="&#xe8;" horiz-adv-x="474" 
d="M435 393q0 -35 -10 -76.5t-21 -80.5h-264q-8 -29 -16.5 -60.5t-8.5 -60.5q0 -22 9 -33t32 -11q20 0 34.5 9t25 22.5t17.5 30.5t12 34h136q-29 -93 -82.5 -136t-150.5 -43q-33 0 -63 6t-53.5 20.5t-37.5 38.5t-14 61q0 35 6.5 68t16.5 66q16 57 36.5 106t51 85t75.5 56.5
t110 20.5q31 0 60 -6t51 -20.5t35 -38t13 -58.5zM301 392q0 41 -40 41q-23 0 -39.5 -12t-28 -30.5t-19 -40t-12.5 -39.5h122q6 20 11.5 42t5.5 39zM282 582l-103 143h131l52 -143h-80z" />
    <glyph glyph-name="eacute" unicode="&#xe9;" horiz-adv-x="474" 
d="M435 393q0 -35 -10 -76.5t-21 -80.5h-264q-8 -29 -16.5 -60.5t-8.5 -60.5q0 -22 9 -33t32 -11q20 0 34.5 9t25 22.5t17.5 30.5t12 34h136q-29 -93 -82.5 -136t-150.5 -43q-33 0 -63 6t-53.5 20.5t-37.5 38.5t-14 61q0 35 6.5 68t16.5 66q16 57 36.5 106t51 85t75.5 56.5
t110 20.5q31 0 60 -6t51 -20.5t35 -38t13 -58.5zM301 392q0 41 -40 41q-23 0 -39.5 -12t-28 -30.5t-19 -40t-12.5 -39.5h122q6 20 11.5 42t5.5 39zM306 582h-86l122 143h145z" />
    <glyph glyph-name="ecircumflex" unicode="&#xea;" horiz-adv-x="474" 
d="M435 393q0 -35 -10 -76.5t-21 -80.5h-264q-8 -29 -16.5 -60.5t-8.5 -60.5q0 -22 9 -33t32 -11q20 0 34.5 9t25 22.5t17.5 30.5t12 34h136q-29 -93 -82.5 -136t-150.5 -43q-33 0 -63 6t-53.5 20.5t-37.5 38.5t-14 61q0 35 6.5 68t16.5 66q16 57 36.5 106t51 85t75.5 56.5
t110 20.5q31 0 60 -6t51 -20.5t35 -38t13 -58.5zM301 392q0 41 -40 41q-23 0 -39.5 -12t-28 -30.5t-19 -40t-12.5 -39.5h122q6 20 11.5 42t5.5 39zM373 582l-52 84l-99 -84h-92l144 143h114l63 -143h-78z" />
    <glyph glyph-name="edieresis" unicode="&#xeb;" horiz-adv-x="474" 
d="M435 393q0 -35 -10 -76.5t-21 -80.5h-264q-8 -29 -16.5 -60.5t-8.5 -60.5q0 -22 9 -33t32 -11q20 0 34.5 9t25 22.5t17.5 30.5t12 34h136q-29 -93 -82.5 -136t-150.5 -43q-33 0 -63 6t-53.5 20.5t-37.5 38.5t-14 61q0 35 6.5 68t16.5 66q16 57 36.5 106t51 85t75.5 56.5
t110 20.5q31 0 60 -6t51 -20.5t35 -38t13 -58.5zM301 392q0 41 -40 41q-23 0 -39.5 -12t-28 -30.5t-19 -40t-12.5 -39.5h122q6 20 11.5 42t5.5 39zM441 604h-112l31 109h112zM266 604h-112l31 109h112z" />
    <glyph glyph-name="igrave" unicode="&#xec;" horiz-adv-x="253" 
d="M94 0h-141l145 504h141zM176 582l-103 143h131l52 -143h-80z" />
    <glyph glyph-name="iacute" unicode="&#xed;" horiz-adv-x="253" 
d="M94 0h-141l145 504h141zM200 582h-86l122 143h145z" />
    <glyph glyph-name="icircumflex" unicode="&#xee;" horiz-adv-x="253" 
d="M94 0h-141l145 504h141zM258 582l-52 84l-99 -84h-92l144 143h114l63 -143h-78z" />
    <glyph glyph-name="idieresis" unicode="&#xef;" horiz-adv-x="253" 
d="M94 0h-141l145 504h141zM335 604h-112l31 109h112zM160 604h-112l31 109h112z" />
    <glyph glyph-name="eth" unicode="&#xf0;" horiz-adv-x="485" 
d="M400 667q31 -41 48.5 -86t17.5 -96q0 -54 -11.5 -105t-25.5 -102q-18 -61 -36.5 -114t-47.5 -92t-74.5 -61.5t-116.5 -22.5q-33 0 -64.5 5t-55.5 18.5t-39 37t-15 61.5q0 32 7 63.5t15 61.5q15 52 32 100t44.5 85.5t69 60t103.5 22.5q31 0 61 -13.5t41 -39.5
q-2 47 -11.5 87.5t-40.5 75.5l-108 -58l-34 42l98 54q-17 10 -33.5 19t-34.5 16l80 75q25 -10 48.5 -22.5t44.5 -29.5l99 54l38 -43zM307 379q0 41 -46 41q-28 0 -46.5 -16t-30.5 -39.5t-19 -50.5t-13 -48q-5 -16 -11 -34.5t-11 -37t-9 -37.5t-4 -36q0 -47 46 -47
q24 0 40.5 12t28 30.5t19 40t12.5 40.5l24 83q6 22 13 49t7 50z" />
    <glyph glyph-name="ntilde" unicode="&#xf1;" horiz-adv-x="513" 
d="M471 427q0 -18 -4 -34.5t-9 -33.5l-103 -359h-141l96 336q4 14 7.5 29t3.5 30q0 37 -39 37q-20 0 -36 -11t-27.5 -27t-19.5 -35.5t-13 -35.5l-93 -323h-141l121 423q6 20 11.5 40.5t8.5 40.5h143l-14 -51q31 32 65 47.5t78 15.5q21 0 40.5 -5t34 -15.5t23 -27.5t8.5 -41z
M515 711q-9 -21 -22.5 -41.5t-31.5 -37t-39.5 -26.5t-46.5 -10q-18 0 -35 5.5t-33.5 12.5t-33.5 12.5t-35 5.5q-19 0 -32.5 -13.5t-21.5 -29.5h-57q9 22 23 42.5t32 37t40 26.5t48 10q19 0 35.5 -6t31.5 -13t30 -13t31 -6q22 0 36.5 13t23.5 31h57v0z" />
    <glyph glyph-name="ograve" unicode="&#xf2;" horiz-adv-x="485" 
d="M446 395q0 -35 -7 -67.5t-17 -65.5q-17 -60 -35.5 -110t-48 -86.5t-74.5 -57t-115 -20.5q-33 0 -63.5 5.5t-54 20t-37.5 38.5t-14 62q0 35 7 68.5t17 67.5q16 58 36 106.5t50.5 84t75.5 55.5t112 20q31 0 61.5 -5t54 -18.5t38 -37t14.5 -60.5zM308 386q0 44 -44 44
q-23 0 -40 -12t-29 -32.5t-21.5 -46.5t-17.5 -54l-27 -92q-5 -17 -9 -37t-4 -34q0 -23 10.5 -35.5t34.5 -12.5q41 0 62.5 34t39.5 97l29 102q5 18 10.5 41t5.5 38zM293 582l-103 143h131l52 -143h-80z" />
    <glyph glyph-name="oacute" unicode="&#xf3;" horiz-adv-x="485" 
d="M446 395q0 -35 -7 -67.5t-17 -65.5q-17 -60 -35.5 -110t-48 -86.5t-74.5 -57t-115 -20.5q-33 0 -63.5 5.5t-54 20t-37.5 38.5t-14 62q0 35 7 68.5t17 67.5q16 58 36 106.5t50.5 84t75.5 55.5t112 20q31 0 61.5 -5t54 -18.5t38 -37t14.5 -60.5zM308 386q0 44 -44 44
q-23 0 -40 -12t-29 -32.5t-21.5 -46.5t-17.5 -54l-27 -92q-5 -17 -9 -37t-4 -34q0 -23 10.5 -35.5t34.5 -12.5q41 0 62.5 34t39.5 97l29 102q5 18 10.5 41t5.5 38zM317 582h-86l122 143h145z" />
    <glyph glyph-name="ocircumflex" unicode="&#xf4;" horiz-adv-x="485" 
d="M446 395q0 -35 -7 -67.5t-17 -65.5q-17 -60 -35.5 -110t-48 -86.5t-74.5 -57t-115 -20.5q-33 0 -63.5 5.5t-54 20t-37.5 38.5t-14 62q0 35 7 68.5t17 67.5q16 58 36 106.5t50.5 84t75.5 55.5t112 20q31 0 61.5 -5t54 -18.5t38 -37t14.5 -60.5zM308 386q0 44 -44 44
q-23 0 -40 -12t-29 -32.5t-21.5 -46.5t-17.5 -54l-27 -92q-5 -17 -9 -37t-4 -34q0 -23 10.5 -35.5t34.5 -12.5q41 0 62.5 34t39.5 97l29 102q5 18 10.5 41t5.5 38zM384 582l-52 84l-99 -84h-92l144 143h114l63 -143h-78z" />
    <glyph glyph-name="otilde" unicode="&#xf5;" horiz-adv-x="485" 
d="M446 395q0 -35 -7 -67.5t-17 -65.5q-17 -60 -35.5 -110t-48 -86.5t-74.5 -57t-115 -20.5q-33 0 -63.5 5.5t-54 20t-37.5 38.5t-14 62q0 35 7 68.5t17 67.5q16 58 36 106.5t50.5 84t75.5 55.5t112 20q31 0 61.5 -5t54 -18.5t38 -37t14.5 -60.5zM308 386q0 44 -44 44
q-23 0 -40 -12t-29 -32.5t-21.5 -46.5t-17.5 -54l-27 -92q-5 -17 -9 -37t-4 -34q0 -23 10.5 -35.5t34.5 -12.5q41 0 62.5 34t39.5 97l29 102q5 18 10.5 41t5.5 38zM516 711q-9 -21 -22.5 -41.5t-31.5 -37t-39.5 -26.5t-46.5 -10q-18 0 -35 5.5t-33.5 12.5t-33.5 12.5
t-35 5.5q-19 0 -32.5 -13.5t-21.5 -29.5h-57q9 22 23 42.5t32 37t40 26.5t48 10q19 0 35.5 -6t31.5 -13t30 -13t31 -6q22 0 36.5 13t23.5 31h57v0z" />
    <glyph glyph-name="odieresis" unicode="&#xf6;" horiz-adv-x="485" 
d="M446 395q0 -35 -7 -67.5t-17 -65.5q-17 -60 -35.5 -110t-48 -86.5t-74.5 -57t-115 -20.5q-33 0 -63.5 5.5t-54 20t-37.5 38.5t-14 62q0 35 7 68.5t17 67.5q16 58 36 106.5t50.5 84t75.5 55.5t112 20q31 0 61.5 -5t54 -18.5t38 -37t14.5 -60.5zM308 386q0 44 -44 44
q-23 0 -40 -12t-29 -32.5t-21.5 -46.5t-17.5 -54l-27 -92q-5 -17 -9 -37t-4 -34q0 -23 10.5 -35.5t34.5 -12.5q41 0 62.5 34t39.5 97l29 102q5 18 10.5 41t5.5 38zM452 604h-112l31 109h112zM277 604h-112l31 109h112z" />
    <glyph glyph-name="divide" unicode="&#xf7;" horiz-adv-x="579" 
d="M191 397v135h127v-135h-127zM6 213v115h496v-115h-496zM191 8v135h127v-135h-127z" />
    <glyph glyph-name="oslash" unicode="&#xf8;" horiz-adv-x="485" 
d="M446 395q0 -35 -7 -67.5t-17 -65.5q-17 -60 -35.5 -110t-48 -86.5t-74.5 -57t-115 -20.5q-41 0 -77.5 9t-59.5 32l-87 -80l-33 36l94 87q-6 18 -6 42q0 35 7 68.5t17 67.5q16 58 36 106.5t50.5 84t75.5 55.5t112 20q42 0 79.5 -9t61.5 -35l80 74l33 -35l-90 -83
q4 -13 4 -33zM116 122q0 -23 10.5 -35.5t34.5 -12.5q25 0 42 13.5t28.5 33t18.5 42.5t13 42l22 77l-169 -156v-4zM308 386q0 44 -44 44q-26 0 -44 -15t-30 -37.5t-20 -47.5t-14 -45l-23 -77l174 160q1 5 1 9v9z" />
    <glyph glyph-name="ugrave" unicode="&#xf9;" horiz-adv-x="512" 
d="M377 82q-12 -41 -20 -82h-142l14 54q-30 -32 -61 -48t-75 -16q-22 0 -42 4t-35.5 14t-25 26.5t-9.5 40.5q0 16 2 29.5t7 28.5l106 371h141l-97 -335q-4 -14 -7.5 -28.5t-3.5 -29.5q0 -20 11 -29t31 -9t35 10t26 25.5t18.5 33.5t12.5 35l94 327h141zM308 582l-103 143h131
l52 -143h-80z" />
    <glyph glyph-name="uacute" unicode="&#xfa;" horiz-adv-x="512" 
d="M377 82q-12 -41 -20 -82h-142l14 54q-30 -32 -61 -48t-75 -16q-22 0 -42 4t-35.5 14t-25 26.5t-9.5 40.5q0 16 2 29.5t7 28.5l106 371h141l-97 -335q-4 -14 -7.5 -28.5t-3.5 -29.5q0 -20 11 -29t31 -9t35 10t26 25.5t18.5 33.5t12.5 35l94 327h141zM332 582h-86l122 143
h145z" />
    <glyph glyph-name="ucircumflex" unicode="&#xfb;" horiz-adv-x="512" 
d="M377 82q-12 -41 -20 -82h-142l14 54q-30 -32 -61 -48t-75 -16q-22 0 -42 4t-35.5 14t-25 26.5t-9.5 40.5q0 16 2 29.5t7 28.5l106 371h141l-97 -335q-4 -14 -7.5 -28.5t-3.5 -29.5q0 -20 11 -29t31 -9t35 10t26 25.5t18.5 33.5t12.5 35l94 327h141zM399 582l-52 84
l-99 -84h-92l144 143h114l63 -143h-78z" />
    <glyph glyph-name="udieresis" unicode="&#xfc;" horiz-adv-x="512" 
d="M377 82q-12 -41 -20 -82h-142l14 54q-30 -32 -61 -48t-75 -16q-22 0 -42 4t-35.5 14t-25 26.5t-9.5 40.5q0 16 2 29.5t7 28.5l106 371h141l-97 -335q-4 -14 -7.5 -28.5t-3.5 -29.5q0 -20 11 -29t31 -9t35 10t26 25.5t18.5 33.5t12.5 35l94 327h141zM467 604h-112l31 109
h112zM292 604h-112l31 109h112z" />
    <glyph glyph-name="yacute" unicode="&#xfd;" horiz-adv-x="459" 
d="M90 -193h-141l117 193l-18 504h147l-19 -341l173 341h146zM309 582h-86l122 143h145z" />
    <glyph glyph-name="thorn" unicode="&#xfe;" horiz-adv-x="508" 
d="M469 415q0 -41 -10.5 -80.5t-21.5 -77.5q-13 -46 -28.5 -93.5t-40.5 -86t-63 -63t-96 -24.5q-32 0 -62 11t-42 44l-68 -237h-140l262 915h140l-77 -268q28 29 61.5 45t73.5 16q51 0 81.5 -24t30.5 -77zM323 385q0 20 -8 34t-31 14q-28 0 -48 -21t-34.5 -50.5t-23.5 -61
l-15 -52.5q-8 -29 -15.5 -60t-7.5 -61q0 -21 8 -37.5t33 -16.5t44.5 22.5t33.5 53t23.5 62t14.5 50.5q8 27 17 61.5t9 62.5z" />
    <glyph glyph-name="ydieresis" unicode="&#xff;" horiz-adv-x="459" 
d="M90 -193h-141l117 193l-18 504h147l-19 -341l173 341h146zM434 604h-112l31 109h112zM259 604h-112l31 109h112z" />
    <glyph glyph-name=".null" horiz-adv-x="567" 
 />
    <glyph glyph-name="grave.cap" horiz-adv-x="235" 
d="M173 777l-103 143h131l52 -143h-80z" />
    <glyph glyph-name="acute.cap" horiz-adv-x="235" 
d="M196 777h-86l122 143h145z" />
    <glyph glyph-name="circumflex.cap" horiz-adv-x="235" 
d="M264 777l-52 84l-99 -84h-92l144 143h114l63 -143h-78z" />
    <glyph glyph-name="caron.cap" horiz-adv-x="235" 
d="M141 920l52 -84l99 84h92l-144 -143h-114l-63 143h78z" />
    <glyph glyph-name="caron.alt" horiz-adv-x="253" 
d="M222 544h-94l66 179h129z" />
    <glyph glyph-name="tilde.cap" horiz-adv-x="235" 
d="M395 906q-9 -21 -22.5 -41.5t-31.5 -37t-39.5 -26.5t-46.5 -10q-18 0 -35 5.5t-33.5 12.5t-33.5 12.5t-35 5.5q-19 0 -32.5 -13.5t-21.5 -29.5h-57q9 22 23 42.5t32 37t40 26.5t48 10q19 0 35.5 -6t31.5 -13t30 -13t31 -6q22 0 36.5 13t23.5 31h57v0z" />
    <glyph glyph-name="dieresis.cap" horiz-adv-x="235" 
d="M331 789h-112l31 109h112zM156 789h-112l31 109h112z" />
    <glyph glyph-name="macron.cap" horiz-adv-x="235" 
d="M337 807h-289l19 65h289z" />
    <glyph glyph-name="breve.cap" horiz-adv-x="235" 
d="M384 922q-27 -69 -76 -105.5t-122 -36.5q-58 0 -93.5 25t-35.5 78q0 22 4 39h58v-11q0 -32 22.5 -48t61.5 -16q42 0 74 18.5t50 56.5h57v0z" />
    <glyph glyph-name="ring.cap" horiz-adv-x="235" 
d="M307 853q0 -43 -29.5 -72.5t-73.5 -29.5q-21 0 -40 8t-33 21.5t-22 32.5t-8 40t8 40t22 32.5t33 21.5t40 8q44 0 73.5 -29.5t29.5 -72.5zM261 853q0 26 -16 42.5t-41 16.5q-24 0 -40 -16.5t-16 -42.5t16 -43t40 -17q25 0 41 17t16 43z" />
    <glyph glyph-name="hungarumlaut.cap" horiz-adv-x="235" 
d="M288 777h-82l131 143h137zM103 777h-82l131 143h136z" />
    <glyph glyph-name="dotaccent.cap" horiz-adv-x="235" 
d="M243 789h-112l31 109h112z" />
    <glyph glyph-name="commaaccent" horiz-adv-x="253" 
d="M-30 -215h-90l74 161h117z" />
    <glyph glyph-name="commaaccent.alt" horiz-adv-x="504" 
d="M342 725h91l-65 -143h-115z" />
    <glyph glyph-name="exclam.sc" horiz-adv-x="279" 
d="M131 167h-94l89 377h132zM-19 0l33 116h112l-33 -116h-112z" />
    <glyph glyph-name="dollar.sc" horiz-adv-x="437" 
d="M93 6q-24 2 -47 7.5t-41 16t-29 27t-11 40.5q0 19 4 37.5t9 38.5h122q-5 -17 -7.5 -28t-2.5 -25q0 -16 6.5 -23.5t19.5 -9.5l42 148l-9 6q-50 33 -75.5 63t-25.5 68q0 29 11.5 59t31.5 50q23 23 60 38t93 19l17 59h47l-17 -58q56 -3 89.5 -24.5t33.5 -59.5
q0 -17 -3.5 -34t-9.5 -35h-114q4 12 6.5 24.5t2.5 23.5q0 9 -6 16.5t-21 11.5l-40 -142l10 -6q31 -21 51.5 -38.5t32 -33t16 -31t4.5 -31.5q0 -26 -11 -57t-32 -54q-26 -29 -65.5 -45.5t-95.5 -18.5l-17 -62h-47zM197 208l-34 -121q27 6 45.5 26.5t18.5 51.5q0 11 -6.5 21.5
t-20.5 20.5zM165 393q0 -14 5.5 -24.5t19.5 -21.5l32 114q-30 -6 -43.5 -25t-13.5 -43z" />
    <glyph glyph-name="percent.sc" horiz-adv-x="653" 
d="M123 -18h-63l419 581h63zM282 406q-8 -29 -20 -53.5t-30.5 -42.5t-45 -28.5t-62.5 -10.5q-51 0 -70 24t-19 59q0 14 3 30.5t8 33.5q8 28 20 52.5t30.5 42.5t45 28.5t62.5 10.5q26 0 43 -6.5t27 -17.5t14 -26t4 -32q0 -14 -2.5 -30.5t-7.5 -33.5zM205 412q9 31 9 54
q0 31 -26 31q-24 0 -39 -23.5t-26 -61.5q-5 -16 -7.5 -30t-2.5 -25q0 -31 26 -31q24 0 39.5 24t26.5 62zM557 127q-8 -29 -20 -53.5t-30.5 -42.5t-45 -28.5t-62.5 -10.5q-51 0 -70 24t-19 59q0 14 3 30.5t8 33.5q8 28 20 52.5t30.5 42.5t45 28.5t62.5 10.5q26 0 43 -6.5
t27 -17.5t14 -26t4 -32q0 -14 -2.5 -30.5t-7.5 -33.5zM480 133q9 31 9 54q0 31 -26 31q-24 0 -39 -23.5t-26 -61.5q-5 -16 -7.5 -30t-2.5 -25q0 -31 26 -31q24 0 39.5 24t26.5 62z" />
    <glyph glyph-name="ampersand.sc" horiz-adv-x="532" 
d="M479 246h-82l-70 -246h-204q-31 0 -58.5 5.5t-48 18.5t-32.5 33t-12 50q0 32 12 65.5t36 59.5q40 41 103 56q-30 11 -49 35t-19 55q0 32 14 66.5t40 57.5q30 28 74 41t99 13q17 0 34.5 -1t38.5 -4l-24 -85q-10 2 -20 2.5t-17 0.5q-25 0 -45.5 -5.5t-35.5 -18.5
q-13 -11 -21 -30t-8 -40q0 -25 22 -34t56 -9h42l28 98h118l-28 -98h81zM228 246q-33 0 -54.5 -9t-35.5 -26q-12 -14 -19.5 -37t-7.5 -40q0 -14 6 -23.5t16.5 -14.5t24 -7t27.5 -2h49l46 159h-52z" />
    <glyph glyph-name="zero.sc" horiz-adv-x="437" 
d="M134 65q18 0 32 10.5t25.5 32t22.5 55t25 79.5l23 77q10 34 18 69t8 58q0 14 -7.5 23t-23.5 9q-18 0 -32 -10.5t-25.5 -32t-23 -55t-24.5 -79.5l-23 -77q-10 -34 -17 -69t-7 -58q0 -14 6.5 -23t22.5 -9zM125 -12q-29 0 -56 4t-48 14.5t-33.5 29.5t-12.5 48q0 63 23 140
l43 149q12 42 29 76t42.5 58t62.5 36.5t91 12.5q34 0 62 -5t47.5 -17t30.5 -32t11 -49q0 -32 -6.5 -63.5t-17.5 -69.5l-43 -149q-12 -42 -29 -76t-42.5 -58t-62.5 -36.5t-91 -12.5z" />
    <glyph glyph-name="one.sc" horiz-adv-x="437" 
d="M82 0l116 408q-25 -16 -54 -29.5t-58 -25.5l31 109q41 18 74 37.5t65 44.5h118l-155 -544h-137z" />
    <glyph glyph-name="two.sc" horiz-adv-x="437" 
d="M426 452q0 -26 -6.5 -50.5t-25 -53t-51.5 -62.5t-85 -77l-154 -128h222l-23 -81h-371l26 90l216 189q39 34 62 58t35.5 43t16.5 34t4 31q0 32 -32 32q-17 0 -28.5 -7t-20 -18.5t-13.5 -25.5t-9 -27h-132q20 80 71.5 118.5t139.5 38.5q34 0 63 -5.5t50 -17.5t33 -32
t12 -49z" />
    <glyph glyph-name="three.sc" horiz-adv-x="437" 
d="M417 461q0 -14 -2 -28t-5 -24q-10 -39 -34.5 -74t-75.5 -49q25 -10 40 -29.5t15 -45.5q0 -14 -2.5 -30t-7.5 -33q-12 -41 -29.5 -71t-44 -49.5t-63 -29.5t-84.5 -10q-30 0 -59.5 3.5t-52 14t-36.5 28t-14 46.5q0 32 10 66h132q-4 -13 -6 -24.5t-2 -23.5q0 -32 32 -32
q18 0 31.5 7.5t23 19t16 26t10.5 28.5q5 19 7 32.5t2 25.5q0 26 -18.5 33.5t-44.5 7.5h-31l23 79h15q26 0 45 4t32 14t22 25.5t15 39.5q2 9 4 19t2 20q0 31 -31 31q-30 0 -44 -22t-22 -47h-130q19 80 69.5 113.5t136.5 33.5q34 0 62.5 -5.5t49.5 -16.5t32.5 -29.5
t11.5 -43.5z" />
    <glyph glyph-name="four.sc" horiz-adv-x="437" 
d="M283 122l-34 -122h-130l34 122h-191l26 91l239 331h177l-98 -342h63l-23 -80h-63zM251 440l-163 -239h94z" />
    <glyph glyph-name="five.sc" horiz-adv-x="437" 
d="M409 464h-197l-44 -133q20 13 39.5 19t47.5 6q47 0 78 -20.5t31 -65.5q0 -17 -3.5 -40.5t-9.5 -44.5q-13 -45 -27.5 -81.5t-39.5 -62t-64.5 -39.5t-100.5 -14q-29 0 -56 3.5t-49 13t-35 26.5t-13 44t8 53h133q-7 -18 -7 -34q0 -28 30 -28q17 0 29 9t21.5 25t17 38
t15.5 48q5 16 9 36.5t4 31.5q0 13 -6.5 21t-20.5 8q-23 0 -38 -15.5t-24 -38.5h-128l99 315h324z" />
    <glyph glyph-name="six.sc" horiz-adv-x="437" 
d="M421 473q0 -11 -2 -22t-5 -24h-133q6 16 6 28q0 14 -8 19.5t-22 5.5q-32 0 -50.5 -34t-37.5 -97l-9 -30q18 14 41 21t53 7q50 0 80.5 -20t30.5 -66q0 -23 -4 -44.5t-10 -43.5q-13 -44 -30.5 -78t-43.5 -58t-62.5 -36.5t-87.5 -12.5q-30 0 -57.5 5t-48.5 16.5t-33.5 30.5
t-12.5 47q0 32 7.5 65.5t16.5 64.5l23 80q18 64 38 113t48 81t67.5 48.5t97.5 16.5q24 0 50 -3t48 -12t36 -25.5t14 -42.5zM231 243q-1 28 -32 28q-29 0 -47 -23t-31 -67q-10 -32 -13.5 -49t-3.5 -31q0 -36 31 -36q32 0 49.5 28t33.5 83q6 20 9.5 37t3.5 30z" />
    <glyph glyph-name="seven.sc" horiz-adv-x="437" 
d="M136 0h-145l294 463h-203l23 81h330l-25 -88z" />
    <glyph glyph-name="eight.sc" horiz-adv-x="437" 
d="M415 459q0 -45 -14 -85t-44 -63q-13 -9 -26 -15.5t-31 -11.5q24 -11 37.5 -29.5t13.5 -42.5q0 -14 -2 -30t-7 -32q-13 -42 -30.5 -72.5t-43.5 -50.5t-61 -29.5t-83 -9.5q-32 0 -60.5 5t-50 16.5t-34 30t-12.5 45.5q0 17 1.5 32t6.5 32q13 48 39 83t76 53q-23 9 -34 27
t-11 41t8 52q23 79 70.5 115t136.5 36q30 0 57.5 -4.5t49.5 -16t35 -30t13 -46.5zM284 451q0 27 -31 27q-17 0 -28 -7t-18.5 -18.5t-12.5 -25.5t-9 -28q-3 -11 -5.5 -24t-2.5 -23q0 -13 7 -21t22 -8q31 0 45.5 24.5t23.5 56.5q5 14 7 26.5t2 20.5zM219 216q0 30 -32 30
q-17 0 -30.5 -10.5t-24 -27t-17.5 -36t-10 -37.5q-4 -19 -4 -38q0 -15 7 -24t24 -9q32 0 49 27.5t28 66.5q4 14 7 29t3 29z" />
    <glyph glyph-name="nine.sc" horiz-adv-x="437" 
d="M359 231q-19 -64 -36.5 -110t-44 -75.5t-67.5 -43.5t-107 -14q-65 0 -101 22t-36 67q0 20 8 49h132q-5 -20 -5 -32q0 -30 33 -30q25 0 43.5 26t31.5 70l20 69q-20 -14 -39 -21.5t-53 -7.5q-57 0 -85.5 23t-28.5 67q0 17 3 36.5t10 42.5q12 43 30 78t44 59t63 37t88 13
q151 0 151 -101q0 -22 -5 -48.5t-14 -57.5zM270 374q5 20 9 37.5t4 31.5q0 17 -7 26t-25 9q-17 0 -29.5 -9t-21.5 -23.5t-15.5 -33t-12.5 -38.5t-10 -36.5t-4 -29.5q0 -16 7.5 -24.5t26.5 -8.5q17 0 29.5 9t21.5 23t15.5 31.5t11.5 35.5z" />
    <glyph glyph-name="question.sc" horiz-adv-x="383" 
d="M370 425q-6 -22 -16 -39.5t-25 -35t-36 -36.5t-50 -44q-14 -12 -23 -21t-15.5 -18t-10.5 -19t-8 -24l-6 -21h-100l11 40q10 35 28 60t49 55q26 26 46.5 50.5t27.5 48.5q5 17 5 26q0 27 -31 27q-26 0 -40.5 -18t-19.5 -38l-7 -24h-114l6 22q20 72 67.5 106t134.5 34
q134 0 134 -89q0 -8 -2 -19.5t-5 -22.5zM28 0l33 116h112l-34 -116h-111z" />
    <glyph glyph-name="a.sc" horiz-adv-x="503" 
d="M271 118h-169l-62 -118h-142l314 544h180l8 -544h-131zM149 206h123l5 240z" />
    <glyph glyph-name="b.sc" horiz-adv-x="497" 
d="M403 148q-13 -44 -33.5 -73t-50 -45.5t-67.5 -23t-86 -6.5h-209l154 544h213q66 0 106 -23.5t40 -76.5q0 -11 -1.5 -25t-6.5 -28q-12 -40 -38 -66t-78 -39q34 -12 50 -31t16 -49q0 -11 -2 -26.5t-7 -31.5zM327 392q4 12 4 25q0 25 -19 32.5t-50 7.5h-38l-39 -133h35
q45 0 70 13.5t37 54.5zM269 165q5 20 5 31q0 24 -18 33.5t-56 9.5h-39l-44 -152h47q46 0 69.5 18t35.5 60z" />
    <glyph glyph-name="c.sc" horiz-adv-x="477" 
d="M467 452q0 -22 -3.5 -41t-9.5 -41h-137q5 15 8 29.5t3 28.5q0 19 -12 28t-33 9q-28 0 -47.5 -15.5t-34 -41t-25.5 -59t-21 -69.5q-9 -33 -15.5 -56.5t-10.5 -41t-5.5 -31.5t-1.5 -27q0 -21 10.5 -33t34.5 -12q22 0 38 7t27.5 21.5t19.5 35t15 47.5h140q-14 -50 -31 -88
t-44.5 -63.5t-69 -38t-104.5 -12.5q-82 0 -129 33t-47 104q0 13 1.5 28t5.5 34.5t10.5 45t16.5 60.5q18 62 38.5 111t52 82.5t77 51.5t114.5 18q78 0 123.5 -22.5t45.5 -81.5z" />
    <glyph glyph-name="d.sc" horiz-adv-x="520" 
d="M463 281q-22 -78 -43.5 -131.5t-55.5 -87t-86 -48t-135 -14.5h-186l154 544h186q54 0 90 -7.5t58 -22.5t31.5 -37.5t9.5 -53.5q0 -28 -6 -64.5t-17 -77.5zM317 270q11 38 18 68.5t7 53.5q0 31 -17.5 46t-62.5 15h-37l-104 -363h39q34 0 57.5 8.5t40.5 29t30.5 55
t28.5 87.5z" />
    <glyph glyph-name="e.sc" horiz-adv-x="431" 
d="M-43 0l154 544h342l-26 -93h-202l-36 -126h184l-25 -87h-184l-42 -145h207l-26 -93h-346z" />
    <glyph glyph-name="f.sc" horiz-adv-x="401" 
d="M225 451l-37 -129h179l-25 -86h-179l-67 -236h-139l154 544h327l-26 -93h-187z" />
    <glyph glyph-name="g.sc" horiz-adv-x="507" 
d="M476 446q0 -20 -2 -36t-8 -36h-138q9 27 9 51q0 20 -14 30t-35 10q-25 0 -43 -9.5t-33 -31.5t-29 -58t-29 -90q-17 -58 -24.5 -90.5t-7.5 -57.5q0 -49 56 -49q37 0 70 10l33 116h-70l26 88h205l-80 -276q-51 -14 -104.5 -21.5t-99.5 -7.5q-79 0 -127.5 32t-48.5 104
q0 36 9 75t20 78q20 70 41.5 122t53 87t78 52.5t117.5 17.5q30 0 61 -5t56.5 -17.5t41.5 -33.5t16 -54z" />
    <glyph glyph-name="h.sc" horiz-adv-x="534" 
d="M231 0l68 239h-134l-68 -239h-140l154 544h141l-61 -215h134l61 215h141l-155 -544h-141z" />
    <glyph glyph-name="i.sc" horiz-adv-x="259" 
d="M-43 0l154 544h141l-155 -544h-140z" />
    <glyph glyph-name="j.sc" horiz-adv-x="443" 
d="M334 166q-13 -45 -30 -78.5t-43.5 -55.5t-63.5 -33t-91 -11q-74 0 -114.5 24.5t-40.5 80.5q0 18 4.5 44.5t12.5 52.5h137q-17 -51 -17 -79q0 -14 7 -22.5t24 -8.5q18 0 30 8t20.5 21t14.5 29.5t11 32.5l107 373h141z" />
    <glyph glyph-name="k.sc" horiz-adv-x="493" 
d="M97 0h-140l154 544h141zM379 544h159l-221 -253l76 -291h-143l-64 298z" />
    <glyph glyph-name="l.sc" horiz-adv-x="400" 
d="M-43 0l154 544h141l-129 -452h186l-26 -92h-326z" />
    <glyph glyph-name="m.sc" horiz-adv-x="711" 
d="M428 0l126 440l-236 -440h-133l14 440l-126 -440h-116l154 544h195l-21 -415l218 415h201l-155 -544h-121z" />
    <glyph glyph-name="n.sc" horiz-adv-x="558" 
d="M207 0l-12 424l-121 -424h-117l154 544h192l10 -424l121 424h117l-155 -544h-189z" />
    <glyph glyph-name="o.sc" horiz-adv-x="512" 
d="M157 -12q-92 0 -133.5 37t-41.5 100q0 30 9 71.5t25 97.5q21 74 45 124t57 81t78 44t108 13q92 0 133.5 -37t41.5 -100q0 -30 -9 -71.5t-25 -97.5q-21 -74 -45 -124t-57 -81t-78 -44t-108 -13zM286 465q-27 0 -46.5 -13t-34.5 -37.5t-27 -60.5t-25 -81q-9 -33 -15 -55.5
t-9.5 -38.5t-5 -27t-1.5 -21q0 -26 12 -39t41 -13q27 0 46.5 13t34.5 38t27 61t25 81q9 33 15 55.5t9.5 38t5 26.5t1.5 21q0 26 -12 39t-41 13z" />
    <glyph glyph-name="p.sc" horiz-adv-x="484" 
d="M477 434q0 -35 -13.5 -75t-34.5 -69q-18 -25 -40 -40.5t-49.5 -24t-60.5 -11.5t-71 -3h-51l-60 -211h-140l154 544h201q86 0 125.5 -28t39.5 -82zM307 335q11 15 18.5 37t7.5 39q0 25 -18 35t-55 10h-34l-45 -157h31q33 0 56.5 8t38.5 28z" />
    <glyph glyph-name="q.sc" horiz-adv-x="519" 
d="M309 276q14 47 21.5 81t7.5 57q0 26 -11.5 39t-40.5 13q-27 0 -46.5 -13t-34.5 -38t-27 -61t-25 -81q-14 -47 -21.5 -80t-7.5 -57q0 -26 12 -39t41 -13q27 0 45.5 12t33 36t27 60t26.5 84zM147 -7q-91 0 -128 35.5t-37 97.5q0 30 7.5 63.5t18.5 75.5q21 76 44.5 131
t58 90.5t83 52.5t118.5 17q47 0 79 -9.5t51.5 -27t28 -42.5t8.5 -55q0 -33 -8.5 -71t-22.5 -86q-13 -45 -24.5 -74.5t-23.5 -50t-25 -35t-29 -28.5q20 3 42.5 5.5t51.5 2.5l-24 -85h-97q-23 0 -49 -1t-52 -3q-36 -3 -71 -3z" />
    <glyph glyph-name="r.sc" horiz-adv-x="504" 
d="M222 0q2 23 9 52t13 50q8 26 12 45t4 33q0 25 -15.5 33.5t-51.5 8.5h-33l-63 -222h-140l154 544h182q100 0 142.5 -27.5t42.5 -84.5q0 -24 -7 -50t-22 -50t-38.5 -39t-56.5 -23q51 -15 51 -68q0 -18 -5 -37.5t-13 -50.5q-7 -28 -12 -55.5t-6 -58.5h-147zM318 354
q7 12 12 28t5 31q0 24 -14.5 33.5t-47.5 9.5h-47l-42 -147h45q38 0 56.5 11t32.5 34z" />
    <glyph glyph-name="s.sc" horiz-adv-x="456" 
d="M375 179q0 -29 -13.5 -64.5t-37.5 -61.5q-29 -32 -77.5 -48.5t-123.5 -16.5q-84 0 -123.5 29t-39.5 82q0 15 3 30t12 45h138q-7 -23 -9.5 -35.5t-2.5 -22.5q0 -18 11 -29t37 -11q34 0 58 21t24 59q0 23 -13 39t-45 33l-53 29q-42 23 -59 52t-17 65q0 39 14 72.5t43 56.5
q65 53 178 53q75 0 119.5 -27t44.5 -78q0 -22 -12 -65h-138q6 20 8.5 31.5t2.5 18.5q0 14 -9.5 23.5t-32.5 9.5q-14 0 -28 -5t-25 -14t-17.5 -22t-6.5 -29q0 -21 9.5 -34t37.5 -28l53 -29q28 -15 45.5 -31t27.5 -32t13.5 -32.5t3.5 -33.5z" />
    <glyph glyph-name="t.sc" horiz-adv-x="417" 
d="M305 453l-129 -453h-141l129 453h-136l26 91h413l-26 -91h-136z" />
    <glyph glyph-name="u.sc" horiz-adv-x="538" 
d="M433 180q-14 -50 -34.5 -86t-51 -59.5t-73 -35t-99.5 -11.5q-91 0 -135.5 29.5t-44.5 92.5q0 18 2 34.5t9 40.5l103 359h139l-100 -349q-5 -18 -9.5 -36t-4.5 -33q0 -20 11 -33.5t42 -13.5q27 0 45.5 10t31 25.5t20.5 36t14 41.5l101 352h138l-104 -364v0z" />
    <glyph glyph-name="v.sc" horiz-adv-x="493" 
d="M221 0h-166l4 544h141l-29 -421l222 421h145z" />
    <glyph glyph-name="w.sc" horiz-adv-x="750" 
d="M505 0h-146l42 424l-211 -424h-159l32 544h144l-53 -412l204 412h151l-41 -412l191 412h133z" />
    <glyph glyph-name="x.sc" horiz-adv-x="483" 
d="M302 278l79 -278h-134l-49 189l-147 -189h-152l250 290l-75 254h138l38 -170l124 170h151z" />
    <glyph glyph-name="y.sc" horiz-adv-x="464" 
d="M253 191l-54 -191h-140l54 191l-64 353h144l20 -248l158 248h148z" />
    <glyph glyph-name="z.sc" horiz-adv-x="429" 
d="M-84 0l27 97l333 356h-220l26 91h377l-27 -95l-334 -358h236l-26 -91h-392z" />
    <glyph glyph-name="agrave.sc" horiz-adv-x="503" 
d="M271 118h-169l-62 -118h-142l314 544h180l8 -544h-131zM149 206h123l5 240zM287 622l-103 143h131l52 -143h-80z" />
    <glyph glyph-name="aacute.sc" horiz-adv-x="503" 
d="M271 118h-169l-62 -118h-142l314 544h180l8 -544h-131zM149 206h123l5 240zM336 622h-86l122 143h145z" />
    <glyph glyph-name="acircumflex.sc" horiz-adv-x="503" 
d="M271 118h-169l-62 -118h-142l314 544h180l8 -544h-131zM149 206h123l5 240zM401 622l-52 84l-99 -84h-92l144 143h114l63 -143h-78z" />
    <glyph glyph-name="atilde.sc" horiz-adv-x="503" 
d="M271 118h-169l-62 -118h-142l314 544h180l8 -544h-131zM149 206h123l5 240zM519 751q-9 -21 -22.5 -41.5t-31.5 -37t-39.5 -26.5t-46.5 -10q-18 0 -35 5.5t-33.5 12.5t-33.5 12.5t-35 5.5q-19 0 -32.5 -13.5t-21.5 -29.5h-57q9 22 23 42.5t32 37t40 26.5t48 10
q19 0 35.5 -6t31.5 -13t30 -13t31 -6q22 0 36.5 13t23.5 31h57v0z" />
    <glyph glyph-name="adieresis.sc" horiz-adv-x="503" 
d="M271 118h-169l-62 -118h-142l314 544h180l8 -544h-131zM149 206h123l5 240zM464 644h-112l31 109h112zM289 644h-112l31 109h112z" />
    <glyph glyph-name="amacron.sc" horiz-adv-x="503" 
d="M271 118h-169l-62 -118h-142l314 544h180l8 -544h-131zM149 206h123l5 240zM470 662h-289l19 65h289z" />
    <glyph glyph-name="abreve.sc" horiz-adv-x="503" 
d="M271 118h-169l-62 -118h-142l314 544h180l8 -544h-131zM149 206h123l5 240zM517 767q-27 -69 -76 -105.5t-122 -36.5q-58 0 -93.5 25t-35.5 78q0 22 4 39h58v-11q0 -32 22.5 -48t61.5 -16q42 0 74 18.5t50 56.5h57v0z" />
    <glyph glyph-name="aring.sc" horiz-adv-x="503" 
d="M271 118h-169l-62 -118h-142l314 544h180l8 -544h-131zM149 206h123l5 240zM440 708q0 -43 -29.5 -72.5t-73.5 -29.5q-21 0 -40 8t-33 21.5t-22 32.5t-8 40t8 40t22 32.5t33 21.5t40 8q44 0 73.5 -29.5t29.5 -72.5zM394 708q0 26 -16 42.5t-41 16.5q-24 0 -40 -16.5
t-16 -42.5t16 -43t40 -17q25 0 41 17t16 43z" />
    <glyph glyph-name="aogonek.sc" horiz-adv-x="503" 
d="M271 118h-169l-62 -118h-142l314 544h180l8 -544q-32 -20 -53.5 -36t-35 -30t-19 -26.5t-5.5 -25.5q0 -31 40 -31q11 0 21.5 3t20.5 7l-6 -39q-21 -14 -44 -23t-52 -9q-31 0 -50 10.5t-19 36.5q0 45 40.5 85.5t103.5 77.5h-73zM149 206h123l5 240z" />
    <glyph glyph-name="ae.sc" horiz-adv-x="664" 
d="M416 325h190l-25 -88h-173l-14 -144h168l-26 -93h-285l13 119h-156l-71 -119h-149l352 544h446l-26 -93h-231zM160 206h113l26 231z" />
    <glyph glyph-name="cacute.sc" horiz-adv-x="477" 
d="M467 452q0 -22 -3.5 -41t-9.5 -41h-137q5 15 8 29.5t3 28.5q0 19 -12 28t-33 9q-28 0 -47.5 -15.5t-34 -41t-25.5 -59t-21 -69.5q-9 -33 -15.5 -56.5t-10.5 -41t-5.5 -31.5t-1.5 -27q0 -21 10.5 -33t34.5 -12q22 0 38 7t27.5 21.5t19.5 35t15 47.5h140q-14 -50 -31 -88
t-44.5 -63.5t-69 -38t-104.5 -12.5q-82 0 -129 33t-47 104q0 13 1.5 28t5.5 34.5t10.5 45t16.5 60.5q18 62 38.5 111t52 82.5t77 51.5t114.5 18q78 0 123.5 -22.5t45.5 -81.5zM309 622h-86l122 143h145z" />
    <glyph glyph-name="ccircumflex.sc" horiz-adv-x="477" 
d="M467 452q0 -22 -3.5 -41t-9.5 -41h-137q5 15 8 29.5t3 28.5q0 19 -12 28t-33 9q-28 0 -47.5 -15.5t-34 -41t-25.5 -59t-21 -69.5q-9 -33 -15.5 -56.5t-10.5 -41t-5.5 -31.5t-1.5 -27q0 -21 10.5 -33t34.5 -12q22 0 38 7t27.5 21.5t19.5 35t15 47.5h140q-14 -50 -31 -88
t-44.5 -63.5t-69 -38t-104.5 -12.5q-82 0 -129 33t-47 104q0 13 1.5 28t5.5 34.5t10.5 45t16.5 60.5q18 62 38.5 111t52 82.5t77 51.5t114.5 18q78 0 123.5 -22.5t45.5 -81.5zM401 622l-52 84l-99 -84h-92l144 143h114l63 -143h-78z" />
    <glyph glyph-name="ccaron.sc" horiz-adv-x="477" 
d="M467 452q0 -22 -3.5 -41t-9.5 -41h-137q5 15 8 29.5t3 28.5q0 19 -12 28t-33 9q-28 0 -47.5 -15.5t-34 -41t-25.5 -59t-21 -69.5q-9 -33 -15.5 -56.5t-10.5 -41t-5.5 -31.5t-1.5 -27q0 -21 10.5 -33t34.5 -12q22 0 38 7t27.5 21.5t19.5 35t15 47.5h140q-14 -50 -31 -88
t-44.5 -63.5t-69 -38t-104.5 -12.5q-82 0 -129 33t-47 104q0 13 1.5 28t5.5 34.5t10.5 45t16.5 60.5q18 62 38.5 111t52 82.5t77 51.5t114.5 18q78 0 123.5 -22.5t45.5 -81.5zM270 765l52 -84l99 84h92l-144 -143h-114l-63 143h78z" />
    <glyph glyph-name="cdotaccent.sc" horiz-adv-x="477" 
d="M467 452q0 -22 -3.5 -41t-9.5 -41h-137q5 15 8 29.5t3 28.5q0 19 -12 28t-33 9q-28 0 -47.5 -15.5t-34 -41t-25.5 -59t-21 -69.5q-9 -33 -15.5 -56.5t-10.5 -41t-5.5 -31.5t-1.5 -27q0 -21 10.5 -33t34.5 -12q22 0 38 7t27.5 21.5t19.5 35t15 47.5h140q-14 -50 -31 -88
t-44.5 -63.5t-69 -38t-104.5 -12.5q-82 0 -129 33t-47 104q0 13 1.5 28t5.5 34.5t10.5 45t16.5 60.5q18 62 38.5 111t52 82.5t77 51.5t114.5 18q78 0 123.5 -22.5t45.5 -81.5zM387 644h-112l31 109h112z" />
    <glyph glyph-name="ccedilla.sc" horiz-adv-x="477" 
d="M241 -113q0 -27 -14 -48t-36 -35.5t-48 -22.5t-50 -8q-26 0 -51.5 6t-48.5 20l30 40q32 -16 66 -16q26 0 47 12.5t21 37.5q0 26 -40 26q-10 0 -19.5 -2t-18.5 -5l-17 19l68 78q-70 5 -109 38t-39 98q0 13 1.5 28t5.5 34.5t10.5 45t16.5 60.5q18 62 38.5 111t52 82.5
t77 51.5t114.5 18q78 0 123.5 -22.5t45.5 -81.5q0 -22 -3.5 -41t-9.5 -41h-137q5 15 8 29.5t3 28.5q0 19 -12 28t-33 9q-28 0 -47.5 -15.5t-34 -41t-25.5 -59t-21 -69.5q-9 -33 -15.5 -56.5t-10.5 -41t-5.5 -31.5t-1.5 -27q0 -21 10.5 -33t34.5 -12q22 0 38 7t27.5 21.5
t19.5 35t15 47.5h140q-13 -48 -29 -84.5t-41 -61.5t-62 -39t-92 -16l-40 -50q7 2 13.5 3t13.5 1q26 0 48.5 -13.5t22.5 -42.5z" />
    <glyph glyph-name="dcaron.sc" horiz-adv-x="520" 
d="M463 281q-22 -78 -43.5 -131.5t-55.5 -87t-86 -48t-135 -14.5h-186l154 544h186q54 0 90 -7.5t58 -22.5t31.5 -37.5t9.5 -53.5q0 -28 -6 -64.5t-17 -77.5zM317 270q11 38 18 68.5t7 53.5q0 31 -17.5 46t-62.5 15h-37l-104 -363h39q34 0 57.5 8.5t40.5 29t30.5 55
t28.5 87.5zM278 765l52 -84l99 84h92l-144 -143h-114l-63 143h78z" />
    <glyph glyph-name="dcroat.sc" horiz-adv-x="520" 
d="M-4 322h52l63 222h186q54 0 90 -7.5t58 -22.5t31.5 -37.5t9.5 -53.5q0 -28 -6 -64.5t-17 -77.5q-22 -78 -43.5 -131.5t-55.5 -87t-86 -48t-135 -14.5h-186l71 251h-53zM317 270q11 38 18 68.5t7 53.5q0 31 -17.5 46t-62.5 15h-37l-38 -131h78l-20 -71h-78l-46 -161h39
q35 0 58 8.5t39.5 29.5t30 55.5t29.5 86.5z" />
    <glyph glyph-name="eth.sc" horiz-adv-x="520" 
d="M-4 322h52l63 222h186q54 0 90 -7.5t58 -22.5t31.5 -37.5t9.5 -53.5q0 -28 -6 -64.5t-17 -77.5q-22 -78 -43.5 -131.5t-55.5 -87t-86 -48t-135 -14.5h-186l71 251h-53zM317 270q11 38 18 68.5t7 53.5q0 31 -17.5 46t-62.5 15h-37l-38 -131h78l-20 -71h-78l-46 -161h39
q35 0 58 8.5t39.5 29.5t30 55.5t29.5 86.5z" />
    <glyph glyph-name="egrave.sc" horiz-adv-x="431" 
d="M-43 0l154 544h342l-26 -93h-202l-36 -126h184l-25 -87h-184l-42 -145h207l-26 -93h-346zM281 622l-103 143h131l52 -143h-80z" />
    <glyph glyph-name="eacute.sc" horiz-adv-x="431" 
d="M-43 0l154 544h342l-26 -93h-202l-36 -126h184l-25 -87h-184l-42 -145h207l-26 -93h-346zM296 622h-86l122 143h145z" />
    <glyph glyph-name="ecircumflex.sc" horiz-adv-x="431" 
d="M-43 0l154 544h342l-26 -93h-202l-36 -126h184l-25 -87h-184l-42 -145h207l-26 -93h-346zM379 622l-52 84l-99 -84h-92l144 143h114l63 -143h-78z" />
    <glyph glyph-name="ecaron.sc" horiz-adv-x="431" 
d="M-43 0l154 544h342l-26 -93h-202l-36 -126h184l-25 -87h-184l-42 -145h207l-26 -93h-346zM256 765l52 -84l99 84h92l-144 -143h-114l-63 143h78z" />
    <glyph glyph-name="edieresis.sc" horiz-adv-x="431" 
d="M-43 0l154 544h342l-26 -93h-202l-36 -126h184l-25 -87h-184l-42 -145h207l-26 -93h-346zM446 644h-112l31 109h112zM271 644h-112l31 109h112z" />
    <glyph glyph-name="emacron.sc" horiz-adv-x="431" 
d="M-43 0l154 544h342l-26 -93h-202l-36 -126h184l-25 -87h-184l-42 -145h207l-26 -93h-346zM452 662h-289l19 65h289z" />
    <glyph glyph-name="ebreve.sc" horiz-adv-x="431" 
d="M-43 0l154 544h342l-26 -93h-202l-36 -126h184l-25 -87h-184l-42 -145h207l-26 -93h-346zM499 767q-27 -69 -76 -105.5t-122 -36.5q-58 0 -93.5 25t-35.5 78q0 22 4 39h58v-11q0 -32 22.5 -48t61.5 -16q42 0 74 18.5t50 56.5h57v0z" />
    <glyph glyph-name="edotaccent.sc" horiz-adv-x="431" 
d="M-43 0l154 544h342l-26 -93h-202l-36 -126h184l-25 -87h-184l-42 -145h207l-26 -93h-346zM358 644h-112l31 109h112z" />
    <glyph glyph-name="eogonek.sc" horiz-adv-x="431" 
d="M303 0q-32 -20 -54 -36t-35.5 -30t-19 -26.5t-5.5 -25.5q0 -31 40 -31q11 0 21.5 3t20.5 7l-6 -39q-21 -14 -44 -23t-52 -9q-31 0 -50 10.5t-19 36.5q0 45 40.5 85.5t103.5 77.5h-287l154 544h342l-26 -93h-202l-36 -126h184l-25 -87h-184l-42 -145h207z" />
    <glyph glyph-name="gcircumflex.sc" horiz-adv-x="507" 
d="M476 446q0 -20 -2 -36t-8 -36h-138q9 27 9 51q0 20 -14 30t-35 10q-25 0 -43 -9.5t-33 -31.5t-29 -58t-29 -90q-17 -58 -24.5 -90.5t-7.5 -57.5q0 -49 56 -49q37 0 70 10l33 116h-70l26 88h205l-80 -276q-51 -14 -104.5 -21.5t-99.5 -7.5q-79 0 -127.5 32t-48.5 104
q0 36 9 75t20 78q20 70 41.5 122t53 87t78 52.5t117.5 17.5q30 0 61 -5t56.5 -17.5t41.5 -33.5t16 -54zM402 622l-52 84l-99 -84h-92l144 143h114l63 -143h-78z" />
    <glyph glyph-name="gbreve.sc" horiz-adv-x="507" 
d="M476 446q0 -20 -2 -36t-8 -36h-138q9 27 9 51q0 20 -14 30t-35 10q-25 0 -43 -9.5t-33 -31.5t-29 -58t-29 -90q-17 -58 -24.5 -90.5t-7.5 -57.5q0 -49 56 -49q37 0 70 10l33 116h-70l26 88h205l-80 -276q-51 -14 -104.5 -21.5t-99.5 -7.5q-79 0 -127.5 32t-48.5 104
q0 36 9 75t20 78q20 70 41.5 122t53 87t78 52.5t117.5 17.5q30 0 61 -5t56.5 -17.5t41.5 -33.5t16 -54zM518 767q-27 -69 -76 -105.5t-122 -36.5q-58 0 -93.5 25t-35.5 78q0 22 4 39h58v-11q0 -32 22.5 -48t61.5 -16q42 0 74 18.5t50 56.5h57v0z" />
    <glyph glyph-name="gdotaccent.sc" horiz-adv-x="507" 
d="M476 446q0 -20 -2 -36t-8 -36h-138q9 27 9 51q0 20 -14 30t-35 10q-25 0 -43 -9.5t-33 -31.5t-29 -58t-29 -90q-17 -58 -24.5 -90.5t-7.5 -57.5q0 -49 56 -49q37 0 70 10l33 116h-70l26 88h205l-80 -276q-51 -14 -104.5 -21.5t-99.5 -7.5q-79 0 -127.5 32t-48.5 104
q0 36 9 75t20 78q20 70 41.5 122t53 87t78 52.5t117.5 17.5q30 0 61 -5t56.5 -17.5t41.5 -33.5t16 -54zM381 644h-112l31 109h112z" />
    <glyph glyph-name="gcommaaccent.sc" horiz-adv-x="507" 
d="M476 446q0 -20 -2 -36t-8 -36h-138q9 27 9 51q0 20 -14 30t-35 10q-25 0 -43 -9.5t-33 -31.5t-29 -58t-29 -90q-17 -58 -24.5 -90.5t-7.5 -57.5q0 -49 56 -49q37 0 70 10l33 116h-70l26 88h205l-80 -276q-51 -14 -104.5 -21.5t-99.5 -7.5q-79 0 -127.5 32t-48.5 104
q0 36 9 75t20 78q20 70 41.5 122t53 87t78 52.5t117.5 17.5q30 0 61 -5t56.5 -17.5t41.5 -33.5t16 -54zM121 -215h-90l74 161h117z" />
    <glyph glyph-name="hcircumflex.sc" horiz-adv-x="534" 
d="M231 0l68 239h-134l-68 -239h-140l154 544h141l-61 -215h134l61 215h141l-155 -544h-141zM411 622l-52 84l-99 -84h-92l144 143h114l63 -143h-78z" />
    <glyph glyph-name="hbar.sc" horiz-adv-x="534" 
d="M231 0l68 239h-134l-68 -239h-140l154 544h141l-25 -89h134l25 89h141l-155 -544h-141zM325 329l11 40h-134l-11 -40h134z" />
    <glyph glyph-name="igrave.sc" horiz-adv-x="259" 
d="M-43 0l154 544h141l-155 -544h-140zM187 622l-103 143h131l52 -143h-80z" />
    <glyph glyph-name="iacute.sc" horiz-adv-x="259" 
d="M-43 0l154 544h141l-155 -544h-140zM216 622h-86l122 143h145z" />
    <glyph glyph-name="ibreve.sc" horiz-adv-x="259" 
d="M-43 0l154 544h141l-155 -544h-140zM402 767q-27 -69 -76 -105.5t-122 -36.5q-58 0 -93.5 25t-35.5 78q0 22 4 39h58v-11q0 -32 22.5 -48t61.5 -16q42 0 74 18.5t50 56.5h57v0z" />
    <glyph glyph-name="icircumflex.sc" horiz-adv-x="259" 
d="M-43 0l154 544h141l-155 -544h-140zM278 622l-52 84l-99 -84h-92l144 143h114l63 -143h-78z" />
    <glyph glyph-name="itilde.sc" horiz-adv-x="259" 
d="M-43 0l154 544h141l-155 -544h-140zM408 751q-9 -21 -22.5 -41.5t-31.5 -37t-39.5 -26.5t-46.5 -10q-18 0 -35 5.5t-33.5 12.5t-33.5 12.5t-35 5.5q-19 0 -32.5 -13.5t-21.5 -29.5h-57q9 22 23 42.5t32 37t40 26.5t48 10q19 0 35.5 -6t31.5 -13t30 -13t31 -6
q22 0 36.5 13t23.5 31h57v0z" />
    <glyph glyph-name="idieresis.sc" horiz-adv-x="259" 
d="M-43 0l154 544h141l-155 -544h-140zM352 644h-112l31 109h112zM177 644h-112l31 109h112z" />
    <glyph glyph-name="imacron.sc" horiz-adv-x="259" 
d="M-43 0l154 544h141l-155 -544h-140zM358 662h-289l19 65h289z" />
    <glyph glyph-name="idotaccent.sc" horiz-adv-x="259" 
d="M-43 0l154 544h141l-155 -544h-140zM263 644h-112l31 109h112z" />
    <glyph glyph-name="iogonek.sc" horiz-adv-x="259" 
d="M97 0q-32 -20 -53.5 -36t-35 -30t-19 -26.5t-5.5 -25.5q0 -31 40 -31q11 0 21.5 3t20.5 7l-6 -39q-21 -14 -44 -23t-52 -9q-31 0 -50 10.5t-19 36.5q0 45 40.5 85.5t103.5 77.5h-82l154 544h141z" />
    <glyph glyph-name="jcircumflex.sc" horiz-adv-x="443" 
d="M334 166q-13 -45 -30 -78.5t-43.5 -55.5t-63.5 -33t-91 -11q-74 0 -114.5 24.5t-40.5 80.5q0 18 4.5 44.5t12.5 52.5h137q-17 -51 -17 -79q0 -14 7 -22.5t24 -8.5q18 0 30 8t20.5 21t14.5 29.5t11 32.5l107 373h141zM474 622l-52 84l-99 -84h-92l144 143h114l63 -143h-78
z" />
    <glyph glyph-name="kcommaaccent.sc" horiz-adv-x="493" 
d="M97 0h-140l154 544h141zM379 544h159l-221 -253l76 -291h-143l-64 298zM129 -215h-90l74 161h117z" />
    <glyph glyph-name="lacute.sc" horiz-adv-x="400" 
d="M-43 0l154 544h141l-129 -452h186l-26 -92h-326zM225 622h-86l122 143h145z" />
    <glyph glyph-name="lcaron.sc" horiz-adv-x="400" 
d="M-43 0l154 544h141l-129 -452h186l-26 -92h-326zM355 365h-94l66 179h129z" />
    <glyph glyph-name="lcommaaccent.sc" horiz-adv-x="400" 
d="M-43 0l154 544h141l-129 -452h186l-26 -92h-326zM82 -215h-90l74 161h117z" />
    <glyph glyph-name="lslash.sc" horiz-adv-x="400" 
d="M-43 0l59 209l-64 -30l26 87l63 30l70 248h141l-51 -177l109 52l-26 -87l-107 -52l-54 -188h186l-26 -92h-326z" />
    <glyph glyph-name="ldot.sc" horiz-adv-x="400" 
d="M-43 0l154 544h141l-129 -452h186l-26 -92h-326zM346 224h-112l31 109h112z" />
    <glyph glyph-name="nacute.sc" horiz-adv-x="558" 
d="M207 0l-12 424l-121 -424h-117l154 544h192l10 -424l121 424h117l-155 -544h-189zM356 622h-86l122 143h145z" />
    <glyph glyph-name="ncaron.sc" horiz-adv-x="558" 
d="M207 0l-12 424l-121 -424h-117l154 544h192l10 -424l121 424h117l-155 -544h-189zM306 765l52 -84l99 84h92l-144 -143h-114l-63 143h78z" />
    <glyph glyph-name="ntilde.sc" horiz-adv-x="558" 
d="M207 0l-12 424l-121 -424h-117l154 544h192l10 -424l121 424h117l-155 -544h-189zM552 751q-9 -21 -22.5 -41.5t-31.5 -37t-39.5 -26.5t-46.5 -10q-18 0 -35 5.5t-33.5 12.5t-33.5 12.5t-35 5.5q-19 0 -32.5 -13.5t-21.5 -29.5h-57q9 22 23 42.5t32 37t40 26.5t48 10
q19 0 35.5 -6t31.5 -13t30 -13t31 -6q22 0 36.5 13t23.5 31h57v0z" />
    <glyph glyph-name="ncommaaccent.sc" horiz-adv-x="558" 
d="M207 0l-12 424l-121 -424h-117l154 544h192l10 -424l121 424h117l-155 -544h-189zM172 -215h-90l74 161h117z" />
    <glyph glyph-name="ograve.sc" horiz-adv-x="512" 
d="M157 -12q-92 0 -133.5 37t-41.5 100q0 30 9 71.5t25 97.5q21 74 45 124t57 81t78 44t108 13q92 0 133.5 -37t41.5 -100q0 -30 -9 -71.5t-25 -97.5q-21 -74 -45 -124t-57 -81t-78 -44t-108 -13zM286 465q-27 0 -46.5 -13t-34.5 -37.5t-27 -60.5t-25 -81q-9 -33 -15 -55.5
t-9.5 -38.5t-5 -27t-1.5 -21q0 -26 12 -39t41 -13q27 0 46.5 13t34.5 38t27 61t25 81q9 33 15 55.5t9.5 38t5 26.5t1.5 21q0 26 -12 39t-41 13zM308 622l-103 143h131l52 -143h-80z" />
    <glyph glyph-name="oacute.sc" horiz-adv-x="512" 
d="M157 -12q-92 0 -133.5 37t-41.5 100q0 30 9 71.5t25 97.5q21 74 45 124t57 81t78 44t108 13q92 0 133.5 -37t41.5 -100q0 -30 -9 -71.5t-25 -97.5q-21 -74 -45 -124t-57 -81t-78 -44t-108 -13zM286 465q-27 0 -46.5 -13t-34.5 -37.5t-27 -60.5t-25 -81q-9 -33 -15 -55.5
t-9.5 -38.5t-5 -27t-1.5 -21q0 -26 12 -39t41 -13q27 0 46.5 13t34.5 38t27 61t25 81q9 33 15 55.5t9.5 38t5 26.5t1.5 21q0 26 -12 39t-41 13zM320 622h-86l122 143h145z" />
    <glyph glyph-name="ocircumflex.sc" horiz-adv-x="512" 
d="M157 -12q-92 0 -133.5 37t-41.5 100q0 30 9 71.5t25 97.5q21 74 45 124t57 81t78 44t108 13q92 0 133.5 -37t41.5 -100q0 -30 -9 -71.5t-25 -97.5q-21 -74 -45 -124t-57 -81t-78 -44t-108 -13zM286 465q-27 0 -46.5 -13t-34.5 -37.5t-27 -60.5t-25 -81q-9 -33 -15 -55.5
t-9.5 -38.5t-5 -27t-1.5 -21q0 -26 12 -39t41 -13q27 0 46.5 13t34.5 38t27 61t25 81q9 33 15 55.5t9.5 38t5 26.5t1.5 21q0 26 -12 39t-41 13zM411 622l-52 84l-99 -84h-92l144 143h114l63 -143h-78z" />
    <glyph glyph-name="otilde.sc" horiz-adv-x="512" 
d="M157 -12q-92 0 -133.5 37t-41.5 100q0 30 9 71.5t25 97.5q21 74 45 124t57 81t78 44t108 13q92 0 133.5 -37t41.5 -100q0 -30 -9 -71.5t-25 -97.5q-21 -74 -45 -124t-57 -81t-78 -44t-108 -13zM286 465q-27 0 -46.5 -13t-34.5 -37.5t-27 -60.5t-25 -81q-9 -33 -15 -55.5
t-9.5 -38.5t-5 -27t-1.5 -21q0 -26 12 -39t41 -13q27 0 46.5 13t34.5 38t27 61t25 81q9 33 15 55.5t9.5 38t5 26.5t1.5 21q0 26 -12 39t-41 13zM540 751q-9 -21 -22.5 -41.5t-31.5 -37t-39.5 -26.5t-46.5 -10q-18 0 -35 5.5t-33.5 12.5t-33.5 12.5t-35 5.5
q-19 0 -32.5 -13.5t-21.5 -29.5h-57q9 22 23 42.5t32 37t40 26.5t48 10q19 0 35.5 -6t31.5 -13t30 -13t31 -6q22 0 36.5 13t23.5 31h57v0z" />
    <glyph glyph-name="odieresis.sc" horiz-adv-x="512" 
d="M157 -12q-92 0 -133.5 37t-41.5 100q0 30 9 71.5t25 97.5q21 74 45 124t57 81t78 44t108 13q92 0 133.5 -37t41.5 -100q0 -30 -9 -71.5t-25 -97.5q-21 -74 -45 -124t-57 -81t-78 -44t-108 -13zM286 465q-27 0 -46.5 -13t-34.5 -37.5t-27 -60.5t-25 -81q-9 -33 -15 -55.5
t-9.5 -38.5t-5 -27t-1.5 -21q0 -26 12 -39t41 -13q27 0 46.5 13t34.5 38t27 61t25 81q9 33 15 55.5t9.5 38t5 26.5t1.5 21q0 26 -12 39t-41 13zM481 644h-112l31 109h112zM306 644h-112l31 109h112z" />
    <glyph glyph-name="omacron.sc" horiz-adv-x="512" 
d="M157 -12q-92 0 -133.5 37t-41.5 100q0 30 9 71.5t25 97.5q21 74 45 124t57 81t78 44t108 13q92 0 133.5 -37t41.5 -100q0 -30 -9 -71.5t-25 -97.5q-21 -74 -45 -124t-57 -81t-78 -44t-108 -13zM286 465q-27 0 -46.5 -13t-34.5 -37.5t-27 -60.5t-25 -81q-9 -33 -15 -55.5
t-9.5 -38.5t-5 -27t-1.5 -21q0 -26 12 -39t41 -13q27 0 46.5 13t34.5 38t27 61t25 81q9 33 15 55.5t9.5 38t5 26.5t1.5 21q0 26 -12 39t-41 13zM488 662h-289l19 65h289z" />
    <glyph glyph-name="obreve.sc" horiz-adv-x="512" 
d="M157 -12q-92 0 -133.5 37t-41.5 100q0 30 9 71.5t25 97.5q21 74 45 124t57 81t78 44t108 13q92 0 133.5 -37t41.5 -100q0 -30 -9 -71.5t-25 -97.5q-21 -74 -45 -124t-57 -81t-78 -44t-108 -13zM286 465q-27 0 -46.5 -13t-34.5 -37.5t-27 -60.5t-25 -81q-9 -33 -15 -55.5
t-9.5 -38.5t-5 -27t-1.5 -21q0 -26 12 -39t41 -13q27 0 46.5 13t34.5 38t27 61t25 81q9 33 15 55.5t9.5 38t5 26.5t1.5 21q0 26 -12 39t-41 13zM524 767q-27 -69 -76 -105.5t-122 -36.5q-58 0 -93.5 25t-35.5 78q0 22 4 39h58v-11q0 -32 22.5 -48t61.5 -16q42 0 74 18.5
t50 56.5h57v0z" />
    <glyph glyph-name="ohungarumlaut.sc" horiz-adv-x="512" 
d="M157 -12q-92 0 -133.5 37t-41.5 100q0 30 9 71.5t25 97.5q21 74 45 124t57 81t78 44t108 13q92 0 133.5 -37t41.5 -100q0 -30 -9 -71.5t-25 -97.5q-21 -74 -45 -124t-57 -81t-78 -44t-108 -13zM286 465q-27 0 -46.5 -13t-34.5 -37.5t-27 -60.5t-25 -81q-9 -33 -15 -55.5
t-9.5 -38.5t-5 -27t-1.5 -21q0 -26 12 -39t41 -13q27 0 46.5 13t34.5 38t27 61t25 81q9 33 15 55.5t9.5 38t5 26.5t1.5 21q0 26 -12 39t-41 13zM442 622h-82l131 143h137zM257 622h-82l131 143h136z" />
    <glyph glyph-name="oslash.sc" horiz-adv-x="512" 
d="M-86 10l75 68q-7 20 -7 47q0 30 9 71.5t25 97.5q21 74 45 124t57 81t78 44t108 13q56 0 93 -14.5t57 -40.5l65 60l37 -39l-80 -73q3 -14 3 -30q0 -30 -9 -71.5t-25 -97.5q-21 -74 -45 -124t-57 -81t-78 -44t-108 -13q-97 0 -140 43l-66 -61zM286 465q-27 0 -46.5 -13
t-34.5 -37.5t-27 -60.5t-25 -81q-5 -19 -9.5 -33.5t-7.5 -27.5l202 184q1 5 1 8.5v8.5q0 26 -12 39t-41 13zM317 304l-195 -178q1 -23 13 -35t40 -12q27 0 46.5 13t34.5 38t27 61t25 81z" />
    <glyph glyph-name="oe.sc" horiz-adv-x="677" 
d="M673 451h-193l-36 -126h175l-25 -87h-175l-42 -145h198l-26 -93h-255h-30.5t-30.5 -1t-27.5 -1h-27.5q-36 0 -71.5 6t-63 21t-44.5 40.5t-17 65.5q0 35 6 62.5t16 61.5q21 74 43 129t57 91t88.5 53.5t139.5 17.5h16.5t20.5 -1q11 -1 22.5 -1h22.5h285zM188 87h22t26 1
l107 369h-14q-44 0 -72 -7.5t-47.5 -28t-33.5 -56t-30 -92.5q-9 -33 -15 -54.5t-9.5 -35.5t-4.5 -23.5t-1 -16.5q0 -33 21.5 -44.5t50.5 -11.5z" />
    <glyph glyph-name="racute.sc" horiz-adv-x="504" 
d="M222 0q2 23 9 52t13 50q8 26 12 45t4 33q0 25 -15.5 33.5t-51.5 8.5h-33l-63 -222h-140l154 544h182q100 0 142.5 -27.5t42.5 -84.5q0 -24 -7 -50t-22 -50t-38.5 -39t-56.5 -23q51 -15 51 -68q0 -18 -5 -37.5t-13 -50.5q-7 -28 -12 -55.5t-6 -58.5h-147zM318 354
q7 12 12 28t5 31q0 24 -14.5 33.5t-47.5 9.5h-47l-42 -147h45q38 0 56.5 11t32.5 34zM338 622h-86l122 143h145z" />
    <glyph glyph-name="rcaron.sc" horiz-adv-x="504" 
d="M222 0q2 23 9 52t13 50q8 26 12 45t4 33q0 25 -15.5 33.5t-51.5 8.5h-33l-63 -222h-140l154 544h182q100 0 142.5 -27.5t42.5 -84.5q0 -24 -7 -50t-22 -50t-38.5 -39t-56.5 -23q51 -15 51 -68q0 -18 -5 -37.5t-13 -50.5q-7 -28 -12 -55.5t-6 -58.5h-147zM318 354
q7 12 12 28t5 31q0 24 -14.5 33.5t-47.5 9.5h-47l-42 -147h45q38 0 56.5 11t32.5 34zM266 765l52 -84l99 84h92l-144 -143h-114l-63 143h78z" />
    <glyph glyph-name="rcommaaccent.sc" horiz-adv-x="504" 
d="M222 0q2 23 9 52t13 50q8 26 12 45t4 33q0 25 -15.5 33.5t-51.5 8.5h-33l-63 -222h-140l154 544h182q100 0 142.5 -27.5t42.5 -84.5q0 -24 -7 -50t-22 -50t-38.5 -39t-56.5 -23q51 -15 51 -68q0 -18 -5 -37.5t-13 -50.5q-7 -28 -12 -55.5t-6 -58.5h-147zM318 354
q7 12 12 28t5 31q0 24 -14.5 33.5t-47.5 9.5h-47l-42 -147h45q38 0 56.5 11t32.5 34zM114 -215h-90l74 161h117z" />
    <glyph glyph-name="sacute.sc" horiz-adv-x="456" 
d="M375 179q0 -29 -13.5 -64.5t-37.5 -61.5q-29 -32 -77.5 -48.5t-123.5 -16.5q-84 0 -123.5 29t-39.5 82q0 15 3 30t12 45h138q-7 -23 -9.5 -35.5t-2.5 -22.5q0 -18 11 -29t37 -11q34 0 58 21t24 59q0 23 -13 39t-45 33l-53 29q-42 23 -59 52t-17 65q0 39 14 72.5t43 56.5
q65 53 178 53q75 0 119.5 -27t44.5 -78q0 -22 -12 -65h-138q6 20 8.5 31.5t2.5 18.5q0 14 -9.5 23.5t-32.5 9.5q-14 0 -28 -5t-25 -14t-17.5 -22t-6.5 -29q0 -21 9.5 -34t37.5 -28l53 -29q28 -15 45.5 -31t27.5 -32t13.5 -32.5t3.5 -33.5zM297 622h-86l122 143h145z" />
    <glyph glyph-name="scircumflex.sc" horiz-adv-x="456" 
d="M375 179q0 -29 -13.5 -64.5t-37.5 -61.5q-29 -32 -77.5 -48.5t-123.5 -16.5q-84 0 -123.5 29t-39.5 82q0 15 3 30t12 45h138q-7 -23 -9.5 -35.5t-2.5 -22.5q0 -18 11 -29t37 -11q34 0 58 21t24 59q0 23 -13 39t-45 33l-53 29q-42 23 -59 52t-17 65q0 39 14 72.5t43 56.5
q65 53 178 53q75 0 119.5 -27t44.5 -78q0 -22 -12 -65h-138q6 20 8.5 31.5t2.5 18.5q0 14 -9.5 23.5t-32.5 9.5q-14 0 -28 -5t-25 -14t-17.5 -22t-6.5 -29q0 -21 9.5 -34t37.5 -28l53 -29q28 -15 45.5 -31t27.5 -32t13.5 -32.5t3.5 -33.5zM375 622l-52 84l-99 -84h-92
l144 143h114l63 -143h-78z" />
    <glyph glyph-name="scaron.sc" horiz-adv-x="456" 
d="M375 179q0 -29 -13.5 -64.5t-37.5 -61.5q-29 -32 -77.5 -48.5t-123.5 -16.5q-84 0 -123.5 29t-39.5 82q0 15 3 30t12 45h138q-7 -23 -9.5 -35.5t-2.5 -22.5q0 -18 11 -29t37 -11q34 0 58 21t24 59q0 23 -13 39t-45 33l-53 29q-42 23 -59 52t-17 65q0 39 14 72.5t43 56.5
q65 53 178 53q75 0 119.5 -27t44.5 -78q0 -22 -12 -65h-138q6 20 8.5 31.5t2.5 18.5q0 14 -9.5 23.5t-32.5 9.5q-14 0 -28 -5t-25 -14t-17.5 -22t-6.5 -29q0 -21 9.5 -34t37.5 -28l53 -29q28 -15 45.5 -31t27.5 -32t13.5 -32.5t3.5 -33.5zM238 765l52 -84l99 84h92
l-144 -143h-114l-63 143h78z" />
    <glyph glyph-name="scedilla.sc" horiz-adv-x="456" 
d="M220 -113q0 -27 -14 -48t-36 -35.5t-48 -22.5t-50 -8q-26 0 -51.5 6t-48.5 20l30 40q32 -16 66 -16q26 0 47 12.5t21 37.5q0 26 -40 26q-10 0 -19.5 -2t-18.5 -5l-17 19l67 77q-76 3 -112 31.5t-36 79.5q0 15 3 30t12 45h138q-7 -23 -9.5 -35.5t-2.5 -22.5q0 -18 11 -29
t37 -11q34 0 58 21t24 59q0 23 -13 39t-45 33l-53 29q-42 23 -59 52t-17 65q0 39 14 72.5t43 56.5q65 53 178 53q75 0 119.5 -27t44.5 -78q0 -22 -12 -65h-138q6 20 8.5 31.5t2.5 18.5q0 14 -9.5 23.5t-32.5 9.5q-14 0 -28 -5t-25 -14t-17.5 -22t-6.5 -29q0 -21 9.5 -34
t37.5 -28l53 -29q28 -15 45.5 -31t27.5 -32t13.5 -32.5t3.5 -33.5q0 -29 -13.5 -64.5t-37.5 -61.5q-26 -27 -64.5 -43t-97.5 -20l-40 -51q7 2 13.5 3t13.5 1q26 0 48.5 -13.5t22.5 -42.5z" />
    <glyph glyph-name="scommaaccent.sc" horiz-adv-x="456" 
d="M375 179q0 -29 -13.5 -64.5t-37.5 -61.5q-29 -32 -77.5 -48.5t-123.5 -16.5q-84 0 -123.5 29t-39.5 82q0 15 3 30t12 45h138q-7 -23 -9.5 -35.5t-2.5 -22.5q0 -18 11 -29t37 -11q34 0 58 21t24 59q0 23 -13 39t-45 33l-53 29q-42 23 -59 52t-17 65q0 39 14 72.5t43 56.5
q65 53 178 53q75 0 119.5 -27t44.5 -78q0 -22 -12 -65h-138q6 20 8.5 31.5t2.5 18.5q0 14 -9.5 23.5t-32.5 9.5q-14 0 -28 -5t-25 -14t-17.5 -22t-6.5 -29q0 -21 9.5 -34t37.5 -28l53 -29q28 -15 45.5 -31t27.5 -32t13.5 -32.5t3.5 -33.5zM89 -215h-90l74 161h117z" />
    <glyph glyph-name="tcaron.sc" horiz-adv-x="417" 
d="M305 453l-129 -453h-141l129 453h-136l26 91h413l-26 -91h-136zM228 765l52 -84l99 84h92l-144 -143h-114l-63 143h78z" />
    <glyph glyph-name="tcommaaccent.sc" horiz-adv-x="417" 
d="M305 453l-129 -453h-141l129 453h-136l26 91h413l-26 -91h-136zM57 -215h-90l74 161h117z" />
    <glyph glyph-name="tbar.sc" horiz-adv-x="417" 
d="M12 322h115l37 131h-136l26 91h413l-26 -91h-136l-37 -131h114l-25 -86h-114l-67 -236h-141l67 236h-115z" />
    <glyph glyph-name="thorn.sc" horiz-adv-x="484" 
d="M97 0h-140l154 544h140l-29 -105h61q86 0 125.5 -28t39.5 -82q0 -35 -13.5 -75t-34.5 -69q-18 -25 -40 -40.5t-49.5 -24t-60.5 -11.5t-71 -3h-51zM278 230q11 15 18.5 37t7.5 39q0 25 -18 35t-55 10h-34l-45 -157h31q33 0 56.5 8t38.5 28z" />
    <glyph glyph-name="ugrave.sc" horiz-adv-x="538" 
d="M433 180q-14 -50 -34.5 -86t-51 -59.5t-73 -35t-99.5 -11.5q-91 0 -135.5 29.5t-44.5 92.5q0 18 2 34.5t9 40.5l103 359h139l-100 -349q-5 -18 -9.5 -36t-4.5 -33q0 -20 11 -33.5t42 -13.5q27 0 45.5 10t31 25.5t20.5 36t14 41.5l101 352h138l-104 -364v0zM312 622
l-103 143h131l52 -143h-80z" />
    <glyph glyph-name="uacute.sc" horiz-adv-x="538" 
d="M433 180q-14 -50 -34.5 -86t-51 -59.5t-73 -35t-99.5 -11.5q-91 0 -135.5 29.5t-44.5 92.5q0 18 2 34.5t9 40.5l103 359h139l-100 -349q-5 -18 -9.5 -36t-4.5 -33q0 -20 11 -33.5t42 -13.5q27 0 45.5 10t31 25.5t20.5 36t14 41.5l101 352h138l-104 -364v0zM364 622h-86
l122 143h145z" />
    <glyph glyph-name="ucircumflex.sc" horiz-adv-x="538" 
d="M433 180q-14 -50 -34.5 -86t-51 -59.5t-73 -35t-99.5 -11.5q-91 0 -135.5 29.5t-44.5 92.5q0 18 2 34.5t9 40.5l103 359h139l-100 -349q-5 -18 -9.5 -36t-4.5 -33q0 -20 11 -33.5t42 -13.5q27 0 45.5 10t31 25.5t20.5 36t14 41.5l101 352h138l-104 -364v0zM425 622
l-52 84l-99 -84h-92l144 143h114l63 -143h-78z" />
    <glyph glyph-name="utilde.sc" horiz-adv-x="538" 
d="M433 180q-14 -50 -34.5 -86t-51 -59.5t-73 -35t-99.5 -11.5q-91 0 -135.5 29.5t-44.5 92.5q0 18 2 34.5t9 40.5l103 359h139l-100 -349q-5 -18 -9.5 -36t-4.5 -33q0 -20 11 -33.5t42 -13.5q27 0 45.5 10t31 25.5t20.5 36t14 41.5l101 352h138l-104 -364v0zM555 751
q-9 -21 -22.5 -41.5t-31.5 -37t-39.5 -26.5t-46.5 -10q-18 0 -35 5.5t-33.5 12.5t-33.5 12.5t-35 5.5q-19 0 -32.5 -13.5t-21.5 -29.5h-57q9 22 23 42.5t32 37t40 26.5t48 10q19 0 35.5 -6t31.5 -13t30 -13t31 -6q22 0 36.5 13t23.5 31h57v0z" />
    <glyph glyph-name="udieresis.sc" horiz-adv-x="538" 
d="M433 180q-14 -50 -34.5 -86t-51 -59.5t-73 -35t-99.5 -11.5q-91 0 -135.5 29.5t-44.5 92.5q0 18 2 34.5t9 40.5l103 359h139l-100 -349q-5 -18 -9.5 -36t-4.5 -33q0 -20 11 -33.5t42 -13.5q27 0 45.5 10t31 25.5t20.5 36t14 41.5l101 352h138l-104 -364v0zM494 644h-112
l31 109h112zM319 644h-112l31 109h112z" />
    <glyph glyph-name="umacron.sc" horiz-adv-x="538" 
d="M433 180q-14 -50 -34.5 -86t-51 -59.5t-73 -35t-99.5 -11.5q-91 0 -135.5 29.5t-44.5 92.5q0 18 2 34.5t9 40.5l103 359h139l-100 -349q-5 -18 -9.5 -36t-4.5 -33q0 -20 11 -33.5t42 -13.5q27 0 45.5 10t31 25.5t20.5 36t14 41.5l101 352h138l-104 -364v0zM501 662h-289
l19 65h289z" />
    <glyph glyph-name="ubreve.sc" horiz-adv-x="538" 
d="M433 180q-14 -50 -34.5 -86t-51 -59.5t-73 -35t-99.5 -11.5q-91 0 -135.5 29.5t-44.5 92.5q0 18 2 34.5t9 40.5l103 359h139l-100 -349q-5 -18 -9.5 -36t-4.5 -33q0 -20 11 -33.5t42 -13.5q27 0 45.5 10t31 25.5t20.5 36t14 41.5l101 352h138l-104 -364v0zM534 767
q-27 -69 -76 -105.5t-122 -36.5q-58 0 -93.5 25t-35.5 78q0 22 4 39h58v-11q0 -32 22.5 -48t61.5 -16q42 0 74 18.5t50 56.5h57v0z" />
    <glyph glyph-name="uring.sc" horiz-adv-x="538" 
d="M433 180q-14 -50 -34.5 -86t-51 -59.5t-73 -35t-99.5 -11.5q-91 0 -135.5 29.5t-44.5 92.5q0 18 2 34.5t9 40.5l103 359h139l-100 -349q-5 -18 -9.5 -36t-4.5 -33q0 -20 11 -33.5t42 -13.5q27 0 45.5 10t31 25.5t20.5 36t14 41.5l101 352h138l-104 -364v0zM456 708
q0 -43 -29.5 -72.5t-73.5 -29.5q-21 0 -40 8t-33 21.5t-22 32.5t-8 40t8 40t22 32.5t33 21.5t40 8q44 0 73.5 -29.5t29.5 -72.5zM410 708q0 26 -16 42.5t-41 16.5q-24 0 -40 -16.5t-16 -42.5t16 -43t40 -17q25 0 41 17t16 43z" />
    <glyph glyph-name="uhungarumlaut.sc" horiz-adv-x="538" 
d="M433 180q-14 -50 -34.5 -86t-51 -59.5t-73 -35t-99.5 -11.5q-91 0 -135.5 29.5t-44.5 92.5q0 18 2 34.5t9 40.5l103 359h139l-100 -349q-5 -18 -9.5 -36t-4.5 -33q0 -20 11 -33.5t42 -13.5q27 0 45.5 10t31 25.5t20.5 36t14 41.5l101 352h138l-104 -364v0zM465 622h-82
l131 143h137zM280 622h-82l131 143h136z" />
    <glyph glyph-name="uogonek.sc" horiz-adv-x="538" 
d="M433 180q-14 -47 -32.5 -81.5t-46 -58t-65 -36t-87.5 -15.5q-54 -35 -74.5 -58.5t-20.5 -48.5q0 -31 40 -31q11 0 21.5 3t20.5 7l-6 -39q-21 -14 -44 -23t-52 -9q-31 0 -50 10.5t-19 36.5q0 42 34.5 79.5t90.5 72.5q-75 5 -111.5 34.5t-36.5 86.5q0 18 2 34.5t9 40.5
l103 359h139l-100 -349q-5 -18 -9.5 -36t-4.5 -33q0 -20 11 -33.5t42 -13.5q27 0 45.5 10t31 25.5t20.5 36t14 41.5l101 352h138l-104 -364v0z" />
    <glyph glyph-name="wacute.sc" horiz-adv-x="750" 
d="M505 0h-146l42 424l-211 -424h-159l32 544h144l-53 -412l204 412h151l-41 -412l191 412h133zM472 622h-86l122 143h145z" />
    <glyph glyph-name="wcircumflex.sc" horiz-adv-x="750" 
d="M505 0h-146l42 424l-211 -424h-159l32 544h144l-53 -412l204 412h151l-41 -412l191 412h133zM530 622l-52 84l-99 -84h-92l144 143h114l63 -143h-78z" />
    <glyph glyph-name="wdieresis.sc" horiz-adv-x="750" 
d="M505 0h-146l42 424l-211 -424h-159l32 544h144l-53 -412l204 412h151l-41 -412l191 412h133zM602 644h-112l31 109h112zM427 644h-112l31 109h112z" />
    <glyph glyph-name="wgrave.sc" horiz-adv-x="750" 
d="M505 0h-146l42 424l-211 -424h-159l32 544h144l-53 -412l204 412h151l-41 -412l191 412h133zM436 622l-103 143h131l52 -143h-80z" />
    <glyph glyph-name="yacute.sc" horiz-adv-x="464" 
d="M253 191l-54 -191h-140l54 191l-64 353h144l20 -248l158 248h148zM318 622h-86l122 143h145z" />
    <glyph glyph-name="ycircumflex.sc" horiz-adv-x="464" 
d="M253 191l-54 -191h-140l54 191l-64 353h144l20 -248l158 248h148zM368 622l-52 84l-99 -84h-92l144 143h114l63 -143h-78z" />
    <glyph glyph-name="ydieresis.sc" horiz-adv-x="464" 
d="M253 191l-54 -191h-140l54 191l-64 353h144l20 -248l158 248h148zM441 644h-112l31 109h112zM266 644h-112l31 109h112z" />
    <glyph glyph-name="ygrave.sc" horiz-adv-x="464" 
d="M253 191l-54 -191h-140l54 191l-64 353h144l20 -248l158 248h148zM274 622l-103 143h131l52 -143h-80z" />
    <glyph glyph-name="zacute.sc" horiz-adv-x="429" 
d="M-84 0l27 97l333 356h-220l26 91h377l-27 -95l-334 -358h236l-26 -91h-392zM283 622h-86l122 143h145z" />
    <glyph glyph-name="zcaron.sc" horiz-adv-x="429" 
d="M-84 0l27 97l333 356h-220l26 91h377l-27 -95l-334 -358h236l-26 -91h-392zM232 765l52 -84l99 84h92l-144 -143h-114l-63 143h78z" />
    <glyph glyph-name="zdotaccent.sc" horiz-adv-x="429" 
d="M-84 0l27 97l333 356h-220l26 91h377l-27 -95l-334 -358h236l-26 -91h-392zM340 644h-112l31 109h112z" />
    <glyph glyph-name="ij.sc" horiz-adv-x="702" 
d="M-43 0l154 544h141l-155 -544h-140zM593 166q-13 -45 -30 -78.5t-43.5 -55.5t-63.5 -33t-91 -11q-74 0 -114.5 24.5t-40.5 80.5q0 18 4.5 44.5t12.5 52.5h137q-17 -51 -17 -79q0 -14 7 -22.5t24 -8.5q18 0 30 8t20.5 21t14.5 29.5t11 32.5l107 373h141z" />
    <glyph glyph-name="germandbls.sc" horiz-adv-x="912" 
d="M831 179q0 -29 -13.5 -64.5t-37.5 -61.5q-29 -32 -77.5 -48.5t-123.5 -16.5q-84 0 -123.5 29t-39.5 82q0 15 3 30t12 45h138q-7 -23 -9.5 -35.5t-2.5 -22.5q0 -18 11 -29t37 -11q34 0 58 21t24 59q0 23 -13 39t-45 33l-53 29q-42 23 -59 52t-17 65q0 39 14 72.5t43 56.5
q65 53 178 53q75 0 119.5 -27t44.5 -78q0 -22 -12 -65h-138q6 20 8.5 31.5t2.5 18.5q0 14 -9.5 23.5t-32.5 9.5q-14 0 -28 -5t-25 -14t-17.5 -22t-6.5 -29q0 -21 9.5 -34t37.5 -28l53 -29q28 -15 45.5 -31t27.5 -32t13.5 -32.5t3.5 -33.5zM375 179q0 -29 -13.5 -64.5
t-37.5 -61.5q-29 -32 -77.5 -48.5t-123.5 -16.5q-84 0 -123.5 29t-39.5 82q0 15 3 30t12 45h138q-7 -23 -9.5 -35.5t-2.5 -22.5q0 -18 11 -29t37 -11q34 0 58 21t24 59q0 23 -13 39t-45 33l-53 29q-42 23 -59 52t-17 65q0 39 14 72.5t43 56.5q65 53 178 53q75 0 119.5 -27
t44.5 -78q0 -22 -12 -65h-138q6 20 8.5 31.5t2.5 18.5q0 14 -9.5 23.5t-32.5 9.5q-14 0 -28 -5t-25 -14t-17.5 -22t-6.5 -29q0 -21 9.5 -34t37.5 -28l53 -29q28 -15 45.5 -31t27.5 -32t13.5 -32.5t3.5 -33.5z" />
    <glyph glyph-name="eng.sc" horiz-adv-x="548" 
d="M259 -4l-72 405l-112 -401h-118l154 544h167l54 -322l92 322h117l-166 -581q-11 -39 -25.5 -68.5t-35.5 -49t-50.5 -29.5t-69.5 -10h-34t-31 1l25 87q36 0 58.5 11.5t34.5 48.5z" />
    <glyph glyph-name="grave.sc" horiz-adv-x="235" 
d="M173 622l-103 143h131l52 -143h-80z" />
    <glyph glyph-name="acute.sc" horiz-adv-x="235" 
d="M196 622h-86l122 143h145z" />
    <glyph glyph-name="circumflex.sc" horiz-adv-x="235" 
d="M264 622l-52 84l-99 -84h-92l144 143h114l63 -143h-78z" />
    <glyph glyph-name="caron.sc" horiz-adv-x="235" 
d="M141 765l52 -84l99 84h92l-144 -143h-114l-63 143h78z" />
    <glyph glyph-name="tilde.sc" horiz-adv-x="235" 
d="M395 751q-9 -21 -22.5 -41.5t-31.5 -37t-39.5 -26.5t-46.5 -10q-18 0 -35 5.5t-33.5 12.5t-33.5 12.5t-35 5.5q-19 0 -32.5 -13.5t-21.5 -29.5h-57q9 22 23 42.5t32 37t40 26.5t48 10q19 0 35.5 -6t31.5 -13t30 -13t31 -6q22 0 36.5 13t23.5 31h57v0z" />
    <glyph glyph-name="dieresis.sc" horiz-adv-x="235" 
d="M331 644h-112l31 109h112zM156 644h-112l31 109h112z" />
    <glyph glyph-name="macron.sc" horiz-adv-x="235" 
d="M337 662h-289l19 65h289z" />
    <glyph glyph-name="breve.sc" horiz-adv-x="235" 
d="M384 767q-27 -69 -76 -105.5t-122 -36.5q-58 0 -93.5 25t-35.5 78q0 22 4 39h58v-11q0 -32 22.5 -48t61.5 -16q42 0 74 18.5t50 56.5h57v0z" />
    <glyph glyph-name="ring.sc" horiz-adv-x="235" 
d="M307 708q0 -43 -29.5 -72.5t-73.5 -29.5q-21 0 -40 8t-33 21.5t-22 32.5t-8 40t8 40t22 32.5t33 21.5t40 8q44 0 73.5 -29.5t29.5 -72.5zM261 708q0 26 -16 42.5t-41 16.5q-24 0 -40 -16.5t-16 -42.5t16 -43t40 -17q25 0 41 17t16 43z" />
    <glyph glyph-name="hungarumlaut.sc" horiz-adv-x="235" 
d="M288 622h-82l131 143h137zM103 622h-82l131 143h136z" />
    <glyph glyph-name="dotaccent.sc" horiz-adv-x="235" 
d="M243 644h-112l31 109h112z" />
    <glyph glyph-name="exclamdown.sc" horiz-adv-x="279" 
d="M122.992 376.977h93.9941l-88.9941 -376.977h-131.992zM272.983 543.967l-32.998 -115.993h-111.993l32.998 115.993h111.993z" />
    <glyph glyph-name="questiondown.sc" horiz-adv-x="383" 
d="M-11.999 118.993q5.99902 21.998 15.999 39.4971q9.99902 17.499 24.998 34.998t35.998 36.498q20.999 18.998 49.9971 43.9971q13.999 11.999 22.998 20.999q9 8.99902 15.499 17.998q6.5 9 10.5 18.999q4 10 7.99902 23.999l6 20.998h99.9941l-11 -39.9971
q-9.99902 -34.998 -27.998 -59.9961q-17.999 -24.999 -48.9971 -54.9971q-25.998 -25.998 -46.4971 -50.4971q-20.499 -24.498 -27.498 -48.4971q-5 -16.999 -5 -25.998q0 -26.998 30.998 -26.998q25.999 0 40.498 17.998q14.499 17.999 19.498 37.998l7 23.999h113.993
l-6 -21.999q-19.999 -71.9961 -67.4961 -105.993q-47.4971 -33.998 -134.491 -33.998q-133.992 0 -133.992 88.9941q0 8 2 19.499t5 22.499zM329.979 543.967l-32.998 -115.993h-111.993l33.998 115.993h110.993z" />
    <glyph glyph-name="Euro.sc" horiz-adv-x="437" 
d="M165 187q-14 -48 -14 -71q0 -45 58 -45q32 0 58.5 13.5t54.5 40.5l4 -107q-32 -17 -67.5 -23.5t-71.5 -6.5q-81 0 -123 28.5t-42 85.5q0 13 2.5 31.5t11.5 53.5h-69l37 72h52l13 44h-69l38 70h52q18 52 41 87t53 56.5t69 30.5t90 9q34 0 69 -9.5t58 -32.5l-53 -96
q-11 28 -33.5 41t-47.5 13q-48 0 -74.5 -26t-42.5 -73h172l-37 -70h-155l-13 -44h141l-38 -72h-124z" />
    <glyph glyph-name="cent.sc" horiz-adv-x="437" 
d="M50 89q-23 11 -37 30.5t-16 49.5q0 47 13 90q13 44 28 83t39.5 67.5t63 45t98.5 16.5q14 0 27 -1t25 -3l50 79h45l-56 -88q28 -11 44 -29.5t16 -47.5q0 -15 -2.5 -27t-7.5 -29h-115q5 17 7 24.5t2 16.5v4l-143 -224q5 -2 10.5 -2h13.5q32 0 50 21t28 58h120
q-23 -77 -69.5 -114.5t-136.5 -37.5q-33 0 -60 6l-50 -79h-45zM132 268q-6 -19 -12.5 -43t-8.5 -40l135 212q-3 1 -11 1q-23 0 -38.5 -10t-27 -27t-20 -41t-17.5 -52z" />
    <glyph glyph-name="sterling.sc" horiz-adv-x="437" 
d="M316 413q4 13 5 19t1 11q0 13 -7 21.5t-24 8.5q-26 0 -40 -18t-22 -46l-24 -82h112l-25 -85h-112l-44 -156h194l-25 -86h-365l25 86h52l44 156h-54l25 85h54l9 30q13 45 29 81.5t40.5 63t61.5 40.5t91 14q63 0 93 -23.5t30 -66.5q0 -9 -2.5 -24t-7.5 -29h-114z" />
    <glyph glyph-name="florin.sc" horiz-adv-x="437" 
d="M302 361h65l-33 -73h-66l-110 -238q-17 -36 -34.5 -66t-42 -51.5t-58 -33.5t-81.5 -12q-9 0 -20 1t-20 3l38 84q9 -4 23 -4q31 0 54 51l123 266h-56l34 73h55l30 64q13 28 30 52.5t40 41.5t54.5 27t74.5 10q11 0 25 -1t24 -3l-39 -89q-17 6 -28 6q-20 0 -32.5 -14
t-20.5 -31z" />
    <glyph glyph-name="yen.sc" horiz-adv-x="437" 
d="M275 270h98l-20 -70h-118l-13 -44h118l-19 -68h-118l-25 -88h-134l25 88h-116l19 68h116l13 44h-117l20 70h100l-36 274h140l-3 -216l123 216h144z" />
    <glyph glyph-name="perthousand.sc" horiz-adv-x="799" 
d="M71 -18h-62l419 580h62zM308 -9q-46 0 -61.5 21.5t-15.5 52.5q0 14 2.5 31t7.5 33q16 54 48.5 86t90.5 32q46 0 61.5 -21.5t15.5 -52.5q0 -14 -2.5 -31t-7.5 -33q-16 -54 -48.5 -86t-90.5 -32zM381 119q9 31 9 49q0 28 -25 28q-19 0 -32.5 -17.5t-25.5 -59.5
q-9 -32 -9 -49q0 -28 25 -28q19 0 32.5 17.5t25.5 59.5zM559 -9q-46 0 -61.5 21.5t-15.5 52.5q0 14 2.5 31t7.5 33q16 54 48.5 86t90.5 32q46 0 61.5 -21.5t15.5 -52.5q0 -14 -2.5 -31t-7.5 -33q-16 -54 -48.5 -86t-90.5 -32zM632 119q9 31 9 49q0 28 -25 28
q-19 0 -32.5 -17.5t-25.5 -59.5q-9 -32 -9 -49q0 -28 25 -28q19 0 32.5 17.5t25.5 59.5zM119 297q-46 0 -61.5 21.5t-15.5 52.5q0 14 2.5 31t7.5 33q16 54 48.5 86t90.5 32q46 0 61.5 -21.5t15.5 -52.5q0 -14 -2.5 -31t-7.5 -33q-16 -54 -48.5 -86t-90.5 -32zM192 425
q9 31 9 49q0 28 -25 28q-19 0 -32.5 -17.5t-25.5 -59.5q-9 -32 -9 -49q0 -28 25 -28q19 0 32.5 17.5t25.5 59.5z" />
    <glyph glyph-name="parenleft.sc" horiz-adv-x="256" 
d="M17 -60q-15 81 -15 159q0 93 24 179q11 39 30.5 81t43.5 84t51.5 82.5t54.5 76.5h81q-48 -83 -87 -165.5t-61 -159.5q-21 -75 -31 -155t-10 -169v-13h-81z" />
    <glyph glyph-name="parenright.sc" horiz-adv-x="256" 
d="M189 602q15 -81 15 -159q0 -94 -24 -179q-11 -39 -30.5 -81t-43.5 -84t-51.5 -82.5t-54.5 -76.5h-81q48 83 87 165.5t61 159.5q21 75 31 155t10 169v13h81z" />
    <glyph glyph-name="bracketleft.sc" horiz-adv-x="253" 
d="M-73 -60l188 662h192l-20 -72h-88l-149 -518h88l-20 -72h-191z" />
    <glyph glyph-name="bracketright.sc" horiz-adv-x="253" 
d="M276 602l-188 -662h-192l20 72h88l149 518h-88l20 72h191z" />
    <glyph glyph-name="braceleft.sc" horiz-adv-x="279" 
d="M216 404q-16 -54 -45 -87.5t-89 -45.5q36 -8 51 -26t15 -46q0 -14 -3 -29t-8 -32l-6 -22q-6 -21 -9.5 -37.5t-3.5 -29.5q0 -21 11.5 -32t37.5 -14l-18 -63q-80 3 -111.5 26.5t-31.5 67.5q0 27 11 65l8 26q4 12 7 29t3 28q0 23 -14 36.5t-49 21.5l17 63q28 5 47 13
t32.5 21t22 31t15.5 42l11 37q10 34 24.5 61t39 47t62.5 32t95 15l-18 -64q-44 -5 -64 -34.5t-34 -78.5l-6 -21v0z" />
    <glyph glyph-name="braceright.sc" horiz-adv-x="279" 
d="M13 138q16 54 45 87.5t89 45.5q-36 8 -51 26t-15 46q0 14 3 29t8 32l6 22q6 21 9.5 37.5t3.5 29.5q0 21 -11.5 32t-37.5 14l18 63q80 -3 111.5 -26.5t31.5 -67.5q0 -27 -11 -65l-8 -26q-4 -12 -7 -29t-3 -28q0 -23 14 -36.5t49 -21.5l-17 -63q-28 -5 -47 -13t-32.5 -21
t-22 -31t-15.5 -42l-11 -37q-10 -34 -24.5 -61t-39 -47t-62.5 -32t-95 -15l18 64q44 4 64 33.5t34 79.5z" />
    <glyph glyph-name="zero.onum" 
d="M138 -12q-80 0 -119.5 31t-39.5 90q0 30 8 73.5t22 94.5l3 11q22 82 48 135t60 84t77.5 43t102.5 12q80 0 119 -31t39 -90q0 -30 -8 -73.5t-22 -94.5l-4 -14q-23 -81 -48.5 -133t-59 -83t-77 -43t-101.5 -12zM164 80q20 0 35.5 10t29 32.5t27 59t29.5 88.5l2 7
q14 50 22 85.5t8 58.5q0 26 -10.5 37.5t-32.5 11.5q-20 0 -35.5 -9.5t-29.5 -31.5t-27.5 -58t-28.5 -88l-3 -10q-29 -101 -29 -144q0 -26 10.5 -37.5t32.5 -11.5z" />
    <glyph glyph-name="one.onum" 
d="M103 0l115 399q-33 -25 -80 -46.5t-98 -39.5l35 124q25 9 53 21.5t55 27.5t51.5 31.5t43.5 32.5h123l-157 -550h-141z" />
    <glyph glyph-name="two.onum" 
d="M-67 0l25 95l225 159q42 30 69.5 53.5t43 44t22 39t6.5 37.5t-11 31t-33 12q-35 0 -54 -23.5t-33 -66.5h-141q28 89 85 135t158 46q83 0 123 -34t40 -91q0 -74 -53 -136.5t-144 -123.5l-121 -80h238l-28 -97h-417z" />
    <glyph glyph-name="three.onum" 
d="M460 448q0 -18 -3 -39t-7 -35q-8 -28 -19 -53.5t-28 -46t-42 -35t-60 -21.5q37 -9 55.5 -31.5t18.5 -61.5q0 -19 -4 -43.5t-11 -46.5q-15 -50 -36 -86t-51 -59t-70.5 -34.5t-94.5 -11.5q-30 0 -62.5 3.5t-58.5 15.5t-43 34.5t-17 60.5q0 23 3.5 43t9.5 42h141
q-4 -14 -7 -27t-3 -27q0 -23 10.5 -37.5t34.5 -14.5q41 0 61.5 26.5t34.5 66.5q16 44 16 78q0 38 -22.5 49.5t-57.5 11.5h-26l27 94h11q31 0 54 4.5t40 16t29 32t22 53.5q4 13 7.5 28t3.5 29q0 22 -9 33t-32 11q-20 0 -34.5 -8t-24 -20.5t-16 -29t-11.5 -33.5h-139
q25 100 83 141.5t157 41.5q34 0 64.5 -5.5t54 -19t37.5 -35t14 -54.5z" />
    <glyph glyph-name="four.onum" 
d="M302 0l-41 -143h-139l41 143h-241l32 115l308 435h198l-130 -455h75l-28 -95h-75zM300 454l-247 -360h144z" />
    <glyph glyph-name="five.onum" 
d="M462 454h-233l-64 -197q29 26 56 37.5t66 11.5q53 0 81.5 -25.5t28.5 -82.5q0 -29 -5 -58.5t-14 -56.5q-18 -54 -36.5 -97.5t-48 -75t-73.5 -48.5t-111 -17q-33 0 -63 4.5t-53.5 16.5t-37.5 33.5t-14 56.5q0 34 9 66h142q-3 -10 -5 -19.5t-2 -19.5q0 -23 9 -34t32 -11
q21 0 36.5 12t27 31.5t21 45.5t18.5 55q3 10 6.5 23.5t6.5 27t4.5 25.5t1.5 20q0 17 -5 29.5t-27 12.5q-32 0 -52 -21t-31 -51h-137l126 402h368z" />
    <glyph glyph-name="six.onum" 
d="M514 617q0 -14 -2 -27.5t-6 -27.5h-142q5 17 5 31q0 40 -41 40q-32 0 -54.5 -28.5t-38.5 -67t-26.5 -78.5t-17.5 -63q32 30 60 42t69 12q56 0 88 -25.5t32 -84.5q0 -30 -6 -58.5t-14 -57.5q-16 -54 -36.5 -98t-51.5 -75t-73.5 -47.5t-102.5 -16.5q-34 0 -65 6t-54.5 20.5
t-37.5 39t-14 62.5t10.5 81t21.5 84q31 112 58 195t62.5 138t85 82.5t126.5 27.5q27 0 56.5 -4t53.5 -15.5t39.5 -32t15.5 -54.5zM296 316q0 24 -11.5 34.5t-34.5 10.5q-38 0 -61.5 -34t-42.5 -92q-8 -24 -12.5 -40.5t-6.5 -27.5t-2.5 -20t-0.5 -18q0 -23 10 -36.5t35 -13.5
q27 0 45 15t30 37.5t19.5 48t14.5 45.5t12.5 45t5.5 46z" />
    <glyph glyph-name="seven.onum" 
d="M448 438l-333 -581h-157l364 596h-248l28 97h379z" />
    <glyph glyph-name="eight.onum" 
d="M512 602q0 -51 -16 -99t-54 -85q-17 -16 -37.5 -28t-46.5 -19q69 -23 69 -98q0 -23 -4 -41t-10 -39q-15 -53 -36.5 -92t-52 -64.5t-72 -37.5t-96.5 -12q-31 0 -62.5 4.5t-57 17.5t-41.5 36.5t-16 61.5q0 23 3.5 43.5t9.5 43.5q9 32 21 60t29.5 50.5t42 39t58.5 27.5
q-32 9 -46.5 34.5t-14.5 58.5q0 19 3.5 33.5t8.5 32.5q14 50 35 86.5t50 60t68.5 35t90.5 11.5q32 0 63 -5.5t56 -19.5t40 -37t15 -59zM371 588q0 43 -44 43q-23 0 -38 -10t-25 -25t-16.5 -34t-11.5 -37q-5 -15 -8 -30.5t-3 -31.5q0 -21 9 -33.5t32 -12.5q21 0 36 10
t25.5 25.5t17.5 34t13 35.5q5 16 9 32.5t4 33.5zM284 274q0 23 -10 37t-35 14q-20 0 -36.5 -11.5t-29 -29.5t-22.5 -40.5t-16 -44.5q-11 -42 -11 -71q0 -23 10 -36.5t34 -13.5t41 11.5t28.5 29.5t19 39t13.5 40q5 19 9.5 37.5t4.5 38.5z" />
    <glyph glyph-name="nine.onum" 
d="M457 438q0 -28 -7 -64t-17 -74t-21.5 -75t-20.5 -68q-20 -66 -38.5 -118.5t-44.5 -91.5q-32 -50 -79.5 -76t-128.5 -26q-28 0 -58 4t-55 16t-41 33t-16 55q0 16 2.5 32t7.5 31h142q-6 -20 -6 -39q0 -22 12 -32t33 -10q26 0 44.5 20t34.5 52q17 33 29.5 75t23.5 84
q-30 -29 -58 -41t-66 -12q-57 0 -90 27t-33 86q0 28 4.5 52.5t12.5 50.5q15 52 35.5 95t51 73.5t73.5 47.5t103 17q33 0 64 -5t55 -19t38 -38t14 -62zM318 420q0 23 -9 36.5t-34 13.5q-26 0 -43.5 -13.5t-29.5 -33.5t-20 -43.5t-14 -43.5t-12 -43.5t-6 -45.5q0 -24 10 -35
t34 -11q25 0 42.5 12.5t30 32t20 41.5t13.5 42q6 22 12 45t6 46z" />
    <glyph glyph-name="zero.scprop" horiz-adv-x="437" 
d="M134 65q18 0 32 10.5t25.5 32t22.5 55t25 79.5l23 77q10 34 18 69t8 58q0 14 -7.5 23t-23.5 9q-18 0 -32 -10.5t-25.5 -32t-23 -55t-24.5 -79.5l-23 -77q-10 -34 -17 -69t-7 -58q0 -14 6.5 -23t22.5 -9zM125 -12q-29 0 -56 4t-48 14.5t-33.5 29.5t-12.5 48q0 63 23 140
l43 149q12 42 29 76t42.5 58t62.5 36.5t91 12.5q34 0 62 -5t47.5 -17t30.5 -32t11 -49q0 -32 -6.5 -63.5t-17.5 -69.5l-43 -149q-12 -42 -29 -76t-42.5 -58t-62.5 -36.5t-91 -12.5z" />
    <glyph glyph-name="one.scprop" horiz-adv-x="357" 
d="M43 0l116 408q-25 -16 -54 -29.5t-58 -25.5l31 109q41 18 74 37.5t65 44.5h118l-155 -544h-137z" />
    <glyph glyph-name="two.scprop" horiz-adv-x="437" 
d="M426 452q0 -26 -6.5 -50.5t-25 -53t-51.5 -62.5t-85 -77l-154 -128h222l-23 -81h-371l26 90l216 189q39 34 62 58t35.5 43t16.5 34t4 31q0 32 -32 32q-17 0 -28.5 -7t-20 -18.5t-13.5 -25.5t-9 -27h-132q20 80 71.5 118.5t139.5 38.5q34 0 63 -5.5t50 -17.5t33 -32
t12 -49z" />
    <glyph glyph-name="three.scprop" horiz-adv-x="437" 
d="M417 461q0 -14 -2 -28t-5 -24q-10 -39 -34.5 -74t-75.5 -49q25 -10 40 -29.5t15 -45.5q0 -14 -2.5 -30t-7.5 -33q-12 -41 -29.5 -71t-44 -49.5t-63 -29.5t-84.5 -10q-30 0 -59.5 3.5t-52 14t-36.5 28t-14 46.5q0 32 10 66h132q-4 -13 -6 -24.5t-2 -23.5q0 -32 32 -32
q18 0 31.5 7.5t23 19t16 26t10.5 28.5q5 19 7 32.5t2 25.5q0 26 -18.5 33.5t-44.5 7.5h-31l23 79h15q26 0 45 4t32 14t22 25.5t15 39.5q2 9 4 19t2 20q0 31 -31 31q-30 0 -44 -22t-22 -47h-130q19 80 69.5 113.5t136.5 33.5q34 0 62.5 -5.5t49.5 -16.5t32.5 -29.5
t11.5 -43.5z" />
    <glyph glyph-name="four.scprop" horiz-adv-x="437" 
d="M283 122l-34 -122h-130l34 122h-191l26 91l239 331h177l-98 -342h63l-23 -80h-63zM251 440l-163 -239h94z" />
    <glyph glyph-name="five.scprop" horiz-adv-x="437" 
d="M409 464h-197l-44 -133q20 13 39.5 19t47.5 6q47 0 78 -20.5t31 -65.5q0 -17 -3.5 -40.5t-9.5 -44.5q-13 -45 -27.5 -81.5t-39.5 -62t-64.5 -39.5t-100.5 -14q-29 0 -56 3.5t-49 13t-35 26.5t-13 44t8 53h133q-7 -18 -7 -34q0 -28 30 -28q17 0 29 9t21.5 25t17 38
t15.5 48q5 16 9 36.5t4 31.5q0 13 -6.5 21t-20.5 8q-23 0 -38 -15.5t-24 -38.5h-128l99 315h324z" />
    <glyph glyph-name="six.scprop" horiz-adv-x="437" 
d="M421 473q0 -11 -2 -22t-5 -24h-133q6 16 6 28q0 14 -8 19.5t-22 5.5q-32 0 -50.5 -34t-37.5 -97l-9 -30q18 14 41 21t53 7q50 0 80.5 -20t30.5 -66q0 -23 -4 -44.5t-10 -43.5q-13 -44 -30.5 -78t-43.5 -58t-62.5 -36.5t-87.5 -12.5q-30 0 -57.5 5t-48.5 16.5t-33.5 30.5
t-12.5 47q0 32 7.5 65.5t16.5 64.5l23 80q18 64 38 113t48 81t67.5 48.5t97.5 16.5q24 0 50 -3t48 -12t36 -25.5t14 -42.5zM231 243q-1 28 -32 28q-29 0 -47 -23t-31 -67q-10 -32 -13.5 -49t-3.5 -31q0 -36 31 -36q32 0 49.5 28t33.5 83q6 20 9.5 37t3.5 30z" />
    <glyph glyph-name="seven.scprop" horiz-adv-x="377" 
d="M107 0h-145l294 463h-203l23 81h330l-25 -88z" />
    <glyph glyph-name="eight.scprop" horiz-adv-x="437" 
d="M415 459q0 -45 -14 -85t-44 -63q-13 -9 -26 -15.5t-31 -11.5q24 -11 37.5 -29.5t13.5 -42.5q0 -14 -2 -30t-7 -32q-13 -42 -30.5 -72.5t-43.5 -50.5t-61 -29.5t-83 -9.5q-32 0 -60.5 5t-50 16.5t-34 30t-12.5 45.5q0 17 1.5 32t6.5 32q13 48 39 83t76 53q-23 9 -34 27
t-11 41t8 52q23 79 70.5 115t136.5 36q30 0 57.5 -4.5t49.5 -16t35 -30t13 -46.5zM284 451q0 27 -31 27q-17 0 -28 -7t-18.5 -18.5t-12.5 -25.5t-9 -28q-3 -11 -5.5 -24t-2.5 -23q0 -13 7 -21t22 -8q31 0 45.5 24.5t23.5 56.5q5 14 7 26.5t2 20.5zM219 216q0 30 -32 30
q-17 0 -30.5 -10.5t-24 -27t-17.5 -36t-10 -37.5q-4 -19 -4 -38q0 -15 7 -24t24 -9q32 0 49 27.5t28 66.5q4 14 7 29t3 29z" />
    <glyph glyph-name="nine.scprop" horiz-adv-x="437" 
d="M359 231q-19 -64 -36.5 -110t-44 -75.5t-67.5 -43.5t-107 -14q-65 0 -101 22t-36 67q0 20 8 49h132q-5 -20 -5 -32q0 -30 33 -30q25 0 43.5 26t31.5 70l20 69q-20 -14 -39 -21.5t-53 -7.5q-57 0 -85.5 23t-28.5 67q0 17 3 36.5t10 42.5q12 43 30 78t44 59t63 37t88 13
q151 0 151 -101q0 -22 -5 -48.5t-14 -57.5zM270 374q5 20 9 37.5t4 31.5q0 17 -7 26t-25 9q-17 0 -29.5 -9t-21.5 -23.5t-15.5 -33t-12.5 -38.5t-10 -36.5t-4 -29.5q0 -16 7.5 -24.5t26.5 -8.5q17 0 29.5 9t21.5 23t15.5 31.5t11.5 35.5z" />
    <glyph glyph-name="zero.prop" 
d="M510 615q0 -30 -8 -71.5t-21 -86.5l-44 -155q-20 -71 -39.5 -129t-49.5 -99t-76.5 -64t-120.5 -23q-33 0 -64 5.5t-55 20t-38 38.5t-14 62q0 41 10.5 87.5t24.5 97.5l56 195q16 56 36.5 101t51 76.5t74 48.5t106.5 17q34 0 65 -5t54.5 -18.5t37.5 -37t14 -60.5zM368 595
q0 23 -9.5 36t-33.5 13q-25 0 -42.5 -14t-33 -44t-30 -76t-33.5 -110l-29 -98q-14 -46 -25.5 -94t-11.5 -79q0 -23 9.5 -36.5t33.5 -13.5t42 14.5t32.5 43.5t28.5 71.5t31 99.5l29 100q7 25 14.5 51.5t13.5 51t10 46.5t4 38z" />
    <glyph glyph-name="one.prop" horiz-adv-x="420" 
d="M208 0h-147l162 563q-32 -25 -68 -44t-73 -36l38 132q45 23 87 49.5t80 58.5h129z" />
    <glyph glyph-name="two.prop" 
d="M519 605q0 -35 -9.5 -64.5t-34 -65t-68.5 -82t-113 -113.5l-187 -183h277l-28 -97h-430l32 113l248 253q49 49 81.5 83t52 59.5t27.5 46t8 43.5q0 20 -13.5 32t-33.5 12q-23 0 -38.5 -9.5t-26.5 -24.5t-18.5 -34t-12.5 -37h-141q26 101 87 150t163 49q36 0 68 -6
t56.5 -21t39 -40.5t14.5 -63.5z" />
    <glyph glyph-name="three.prop" 
d="M510 622q0 -18 -3 -39t-7 -35q-8 -28 -19 -55t-28.5 -49.5t-42.5 -39t-60 -23.5q37 -9 56 -36t19 -66q0 -19 -4.5 -39t-10.5 -42q-16 -54 -37.5 -93.5t-52 -65.5t-72.5 -39t-98 -13q-30 0 -62.5 3.5t-59.5 15.5t-44 34.5t-17 60.5q0 23 3.5 44.5t9.5 43.5h141
q-4 -14 -7 -28.5t-3 -28.5q0 -23 11.5 -37.5t35.5 -14.5t41.5 10t29.5 26t20 36.5t14 40.5t10.5 40.5t4.5 37.5q0 38 -23 49.5t-58 11.5h-26l27 94h11q34 0 57.5 6t40 19.5t28 36t20.5 55.5q4 13 6.5 27t2.5 28q0 46 -43 46q-20 0 -34.5 -8.5t-25 -22t-17 -30t-11.5 -33.5
h-139q25 101 83.5 143.5t158.5 42.5q34 0 65.5 -5.5t55.5 -19t38.5 -35t14.5 -54.5z" />
    <glyph glyph-name="four.prop" 
d="M377 260h75l-28 -95h-75l-47 -165h-139l47 165h-232q1 3 6 21t11 39t11 38l5 17l301 443h198zM110 259h134l106 368z" />
    <glyph glyph-name="five.prop" 
d="M505 627h-238l-66 -208q29 26 56 37.5t66 11.5q53 0 86 -25.5t33 -82.5q0 -29 -5 -56t-13 -54q-18 -60 -37 -109t-49 -83t-75.5 -52.5t-117.5 -18.5q-33 0 -64 4.5t-55 16.5t-38.5 33.5t-14.5 56.5q0 34 9 66h142q-3 -10 -5 -19.5t-2 -19.5q0 -45 45 -45q22 0 38.5 12
t29.5 34t23 52t21 66q7 22 13 51t6 45q0 17 -9.5 29.5t-31.5 12.5q-32 0 -52 -21t-31 -51h-137l128 413h373z" />
    <glyph glyph-name="six.prop" 
d="M518 630q0 -14 -2 -27.5t-6 -27.5h-142q5 17 5 31q0 40 -42 40q-21 0 -38 -14t-31 -35.5t-25 -49t-19.5 -54.5t-15 -51.5t-10.5 -39.5q32 30 60.5 42t69.5 12q56 0 88.5 -25.5t32.5 -84.5q0 -30 -6 -58.5t-14 -57.5q-17 -57 -38.5 -102.5t-52.5 -76.5t-73.5 -47.5
t-102.5 -16.5q-34 0 -64.5 6t-54 20.5t-37.5 39t-14 62.5q0 42 10.5 86t21.5 85q31 112 58.5 196t63 140.5t85.5 85t127 28.5q27 0 56.5 -4t54 -15.5t40 -32t15.5 -54.5zM299 322q0 24 -12 34.5t-35 10.5q-38 0 -61.5 -34t-43.5 -92q-8 -24 -12.5 -41t-7 -29.5t-3.5 -22.5
t-1 -19q0 -23 10.5 -36.5t35.5 -13.5q42 0 66.5 37.5t45.5 114.5q8 27 13 50.5t5 40.5z" />
    <glyph glyph-name="seven.prop" horiz-adv-x="440" 
d="M495 723q-1 -3 -6 -20.5t-11 -38t-11 -37l-5 -16.5l-346 -611h-157l377 626h-248l28 97h379v0z" />
    <glyph glyph-name="eight.prop" 
d="M516 615q0 -51 -17 -102t-55 -88q-17 -16 -38 -28t-47 -19q70 -23 70 -98q0 -18 -4 -38.5t-10 -41.5q-15 -56 -37 -96t-52.5 -66t-72.5 -38.5t-97 -12.5q-31 0 -63 4.5t-57.5 17.5t-41.5 36.5t-16 61.5q0 23 3.5 43.5t9.5 43.5q9 35 21.5 64.5t30.5 52.5t42.5 39.5
t58.5 27.5q-32 9 -47 34.5t-15 58.5q0 14 3.5 31t8.5 35q15 52 36.5 89.5t51 62t69 36t90.5 11.5q32 0 63.5 -5.5t56 -19.5t40 -37t15.5 -59zM375 601q0 43 -45 43q-23 0 -38 -10t-25.5 -26t-17.5 -36t-13 -40q-5 -15 -8 -32t-3 -30q0 -21 9.5 -33.5t32.5 -12.5q21 0 36.5 9
t26 24.5t18.5 35.5t14 42q6 20 9.5 37.5t3.5 28.5zM286 281q0 23 -10.5 37t-35.5 14q-29 0 -50.5 -22.5t-36.5 -55t-22.5 -67.5t-7.5 -59q0 -23 10.5 -36.5t34.5 -13.5q43 0 65.5 35.5t38.5 91.5q5 19 9.5 37.5t4.5 38.5z" />
    <glyph glyph-name="nine.prop" 
d="M502 612q0 -50 -18.5 -120t-51.5 -179q-25 -84 -47.5 -145t-53.5 -101.5t-76.5 -60t-117.5 -19.5q-32 0 -62.5 4.5t-54 17t-38 34t-14.5 55.5q0 16 2.5 32t7.5 31h142q-6 -20 -6 -39q0 -25 11.5 -35t32.5 -10q20 0 37.5 13.5t34 43t32.5 76.5t33 113q-15 -13 -29 -23
t-28.5 -16.5t-30.5 -10t-37 -3.5q-57 0 -91.5 27t-34.5 86q0 28 4.5 53.5t12.5 51.5q17 57 38.5 103t52 78.5t73.5 49.5t103 17q33 0 64.5 -5t56 -19t39 -38t14.5 -62zM363 594q0 25 -10.5 37.5t-35.5 12.5q-26 0 -44.5 -15.5t-31.5 -38.5t-21 -49t-14 -46q-8 -28 -13 -48.5
t-5 -42.5q0 -46 47 -46q23 0 40 12t30 31.5t22.5 45.5t17.5 54t13 52t5 41z" />
    <glyph glyph-name="Euro.prop" 
d="M213 271q-15 -51 -20 -77t-5 -45q0 -34 18.5 -49t58.5 -15q41 0 71 15t57 44v-120q-35 -22 -73 -29.5t-83 -7.5q-92 0 -141 32.5t-49 107.5q0 20 5.5 53.5t20.5 90.5h-79l40 79h61q4 14 9 30.5t10 33.5h-84l41 79h67q21 63 45.5 108.5t60 75.5t83.5 44t116 14
q39 0 77 -11.5t62 -40.5l-55 -104q-4 16 -14.5 27t-24 17.5t-29.5 9.5t-31 3q-33 0 -56.5 -10.5t-40 -29.5t-28.5 -45.5t-22 -57.5h200l-41 -79h-183l-20 -64h166l-40 -79h-150z" />
    <glyph glyph-name="cent.prop" horiz-adv-x="480" 
d="M454 405q0 -20 -3.5 -37t-8.5 -37h-125q4 14 7.5 28.5t3.5 29.5q0 6 -1 9l-175 -322q10 -2 18 -2q22 0 39 10t29.5 25.5t21.5 34t14 36.5h127q-15 -49 -35 -85t-49 -60t-68 -35.5t-91 -11.5q-14 0 -27 1t-25 3l-49 -89h-54l56 102q-31 14 -50 39.5t-19 69.5q0 32 5 61
t14 59q17 59 36 110.5t49.5 89.5t76 60t114.5 22q25 0 51 -3l46 84h54l-52 -96q30 -11 50 -33.5t20 -62.5zM290 429q-5 1 -15 1q-29 0 -50 -18.5t-36 -46t-25 -59t-18 -57.5q-13 -42 -20.5 -73.5t-7.5 -53.5v-8z" />
    <glyph glyph-name="dollar.prop" 
d="M382 710q65 -5 98.5 -32t33.5 -76q0 -23 -4 -44t-11 -43h-126q4 14 7 29t3 29t-7 25.5t-21 16.5l-58 -202q67 -47 99 -82.5t32 -72.5q0 -15 -1.5 -28t-6.5 -28q-26 -93 -82 -138t-156 -51l-29 -103h-56l29 102q-69 4 -109 32t-40 84q0 25 5.5 49.5t12.5 48.5h135
q-5 -17 -9 -33.5t-4 -33.5q0 -43 37 -50l59 205q-35 25 -60 43.5t-41 35.5t-23.5 35t-7.5 42q0 15 2.5 32t7.5 31q28 84 83.5 128t151.5 49l26 88h56zM216 518q0 -18 9 -37t26 -34l48 169q-38 -10 -60.5 -39t-22.5 -59zM293 216q0 16 -10 34t-24 31l-48 -170q38 11 60 40
t22 65z" />
    <glyph glyph-name="sterling.prop" 
d="M543 634q0 -20 -3.5 -39t-8.5 -38h-119q3 9 5 18.5t2 19.5q0 43 -43 43q-20 0 -34.5 -8t-25 -21.5t-17.5 -30t-12 -33.5l-33 -116h135l-29 -102h-135l-64 -224h234l-30 -103h-423l30 103h63l64 224h-65l29 102h65l25 87q15 49 33.5 90t45.5 70t65.5 45t93.5 16
q27 0 54 -4.5t49 -15.5t35.5 -31.5t13.5 -51.5z" />
    <glyph glyph-name="florin.prop" horiz-adv-x="444" 
d="M481 626q-12 4 -27 4q-29 0 -47 -20.5t-29 -44.5l-43 -93h80l-37 -86h-81l-143 -328q-21 -47 -42.5 -86.5t-50.5 -68t-69 -44.5t-97 -16q-22 0 -38 4l45 101q5 -2 9.5 -3t9.5 -1q25 0 45 22t37 61l157 359h-66l39 86h66l23 51q19 43 40 81.5t49.5 67.5t68 46t96.5 17
q13 0 26.5 -1t23.5 -3z" />
    <glyph glyph-name="yen.prop" 
d="M337 352h120l-22 -79h-142l-18 -64h141l-22 -79h-142l-37 -130h-144l37 130h-140l22 79h141l18 64h-141l21 79h125l-31 371h149l-15 -323l173 323h156z" />
    <glyph glyph-name="zero.onumprop" 
d="M138 -12q-80 0 -119.5 31t-39.5 90q0 30 8 73.5t22 94.5l3 11q22 82 48 135t60 84t77.5 43t102.5 12q80 0 119 -31t39 -90q0 -30 -8 -73.5t-22 -94.5l-4 -14q-23 -81 -48.5 -133t-59 -83t-77 -43t-101.5 -12zM164 80q20 0 35.5 10t29 32.5t27 59t29.5 88.5l2 7
q14 50 22 85.5t8 58.5q0 26 -10.5 37.5t-32.5 11.5q-20 0 -35.5 -9.5t-29.5 -31.5t-27.5 -58t-28.5 -88l-3 -10q-29 -101 -29 -144q0 -26 10.5 -37.5t32.5 -11.5z" />
    <glyph glyph-name="one.onumprop" horiz-adv-x="430" 
d="M74 0l115 399q-33 -25 -80 -46.5t-98 -39.5l35 124q25 9 53 21.5t55 27.5t51.5 31.5t43.5 32.5h123l-157 -550h-141z" />
    <glyph glyph-name="two.onumprop" 
d="M-67 0l25 95l225 159q42 30 69.5 53.5t43 44t22 39t6.5 37.5t-11 31t-33 12q-35 0 -54 -23.5t-33 -66.5h-141q28 89 85 135t158 46q83 0 123 -34t40 -91q0 -74 -53 -136.5t-144 -123.5l-121 -80h238l-28 -97h-417z" />
    <glyph glyph-name="three.onumprop" 
d="M460 448q0 -18 -3 -39t-7 -35q-8 -28 -19 -53.5t-28 -46t-42 -35t-60 -21.5q37 -9 55.5 -31.5t18.5 -61.5q0 -19 -4 -43.5t-11 -46.5q-15 -50 -36 -86t-51 -59t-70.5 -34.5t-94.5 -11.5q-30 0 -62.5 3.5t-58.5 15.5t-43 34.5t-17 60.5q0 23 3.5 43t9.5 42h141
q-4 -14 -7 -27t-3 -27q0 -23 10.5 -37.5t34.5 -14.5q41 0 61.5 26.5t34.5 66.5q16 44 16 78q0 38 -22.5 49.5t-57.5 11.5h-26l27 94h11q31 0 54 4.5t40 16t29 32t22 53.5q4 13 7.5 28t3.5 29q0 22 -9 33t-32 11q-20 0 -34.5 -8t-24 -20.5t-16 -29t-11.5 -33.5h-139
q25 100 83 141.5t157 41.5q34 0 64.5 -5.5t54 -19t37.5 -35t14 -54.5z" />
    <glyph glyph-name="four.onumprop" 
d="M302 0l-41 -143h-139l41 143h-241l32 115l308 435h198l-130 -455h75l-28 -95h-75zM300 454l-247 -360h144z" />
    <glyph glyph-name="five.onumprop" 
d="M462 454h-233l-64 -197q29 26 56 37.5t66 11.5q53 0 81.5 -25.5t28.5 -82.5q0 -29 -5 -58.5t-14 -56.5q-18 -54 -36.5 -97.5t-48 -75t-73.5 -48.5t-111 -17q-33 0 -63 4.5t-53.5 16.5t-37.5 33.5t-14 56.5q0 34 9 66h142q-3 -10 -5 -19.5t-2 -19.5q0 -23 9 -34t32 -11
q21 0 36.5 12t27 31.5t21 45.5t18.5 55q3 10 6.5 23.5t6.5 27t4.5 25.5t1.5 20q0 17 -5 29.5t-27 12.5q-32 0 -52 -21t-31 -51h-137l126 402h368z" />
    <glyph glyph-name="six.onumprop" 
d="M514 617q0 -14 -2 -27.5t-6 -27.5h-142q5 17 5 31q0 40 -41 40q-32 0 -54.5 -28.5t-38.5 -67t-26.5 -78.5t-17.5 -63q32 30 60 42t69 12q56 0 88 -25.5t32 -84.5q0 -30 -6 -58.5t-14 -57.5q-16 -54 -36.5 -98t-51.5 -75t-73.5 -47.5t-102.5 -16.5q-34 0 -65 6t-54.5 20.5
t-37.5 39t-14 62.5t10.5 81t21.5 84q31 112 58 195t62.5 138t85 82.5t126.5 27.5q27 0 56.5 -4t53.5 -15.5t39.5 -32t15.5 -54.5zM296 316q0 24 -11.5 34.5t-34.5 10.5q-38 0 -61.5 -34t-42.5 -92q-8 -24 -12.5 -40.5t-6.5 -27.5t-2.5 -20t-0.5 -18q0 -23 10 -36.5t35 -13.5
q27 0 45 15t30 37.5t19.5 48t14.5 45.5t12.5 45t5.5 46z" />
    <glyph glyph-name="seven.onumprop" horiz-adv-x="460" 
d="M429 438l-333 -581h-157l364 596h-248l28 97h379z" />
    <glyph glyph-name="eight.onumprop" 
d="M512 602q0 -51 -16 -99t-54 -85q-17 -16 -37.5 -28t-46.5 -19q69 -23 69 -98q0 -23 -4 -41t-10 -39q-15 -53 -36.5 -92t-52 -64.5t-72 -37.5t-96.5 -12q-31 0 -62.5 4.5t-57 17.5t-41.5 36.5t-16 61.5q0 23 3.5 43.5t9.5 43.5q9 32 21 60t29.5 50.5t42 39t58.5 27.5
q-32 9 -46.5 34.5t-14.5 58.5q0 19 3.5 33.5t8.5 32.5q14 50 35 86.5t50 60t68.5 35t90.5 11.5q32 0 63 -5.5t56 -19.5t40 -37t15 -59zM371 588q0 43 -44 43q-23 0 -38 -10t-25 -25t-16.5 -34t-11.5 -37q-5 -15 -8 -30.5t-3 -31.5q0 -21 9 -33.5t32 -12.5q21 0 36 10
t25.5 25.5t17.5 34t13 35.5q5 16 9 32.5t4 33.5zM284 274q0 23 -10 37t-35 14q-20 0 -36.5 -11.5t-29 -29.5t-22.5 -40.5t-16 -44.5q-11 -42 -11 -71q0 -23 10 -36.5t34 -13.5t41 11.5t28.5 29.5t19 39t13.5 40q5 19 9.5 37.5t4.5 38.5z" />
    <glyph glyph-name="nine.onumprop" 
d="M457 438q0 -28 -7 -64t-17 -74t-21.5 -75t-20.5 -68q-20 -66 -38.5 -118.5t-44.5 -91.5q-32 -50 -79.5 -76t-128.5 -26q-28 0 -58 4t-55 16t-41 33t-16 55q0 16 2.5 32t7.5 31h142q-6 -20 -6 -39q0 -22 12 -32t33 -10q26 0 44.5 20t34.5 52q17 33 29.5 75t23.5 84
q-30 -29 -58 -41t-66 -12q-57 0 -90 27t-33 86q0 28 4.5 52.5t12.5 50.5q15 52 35.5 95t51 73.5t73.5 47.5t103 17q33 0 64 -5t55 -19t38 -38t14 -62zM318 420q0 23 -9 36.5t-34 13.5q-26 0 -43.5 -13.5t-29.5 -33.5t-20 -43.5t-14 -43.5t-12 -43.5t-6 -45.5q0 -24 10 -35
t34 -11q25 0 42.5 12.5t30 32t20 41.5t13.5 42q6 22 12 45t6 46z" />
    <glyph glyph-name="zero.numerator" horiz-adv-x="307" 
d="M126 435q-8 -27 -8 -41q0 -30 30 -30q23 0 38 16.5t26 54.5l45 158q8 27 8 41q0 30 -30 30q-23 0 -38 -16.5t-26 -54.5zM300 439q-20 -69 -58 -104.5t-112 -35.5q-54 0 -76.5 23t-22.5 61q0 14 2.5 28.5t7.5 31.5l42 146q20 69 58 104.5t112 35.5q54 0 76.5 -23t22.5 -61
q0 -14 -2.5 -28.5t-7.5 -31.5z" />
    <glyph glyph-name="one.numerator" horiz-adv-x="307" 
d="M196 305h-93l91 320q-22 -15 -44.5 -26.5t-47.5 -21.5l23 82q55 24 103 64h88z" />
    <glyph glyph-name="two.numerator" horiz-adv-x="307" 
d="M374 655q0 -20 -5 -39t-18 -40t-34 -44.5t-52 -52.5l-117 -107h151l-19 -68h-263l21 72l112 97q67 58 99 99t32 64q0 14 -7.5 21t-19.5 7q-29 0 -43 -19t-21 -44h-84q15 59 59 93t106 34q18 0 36.5 -3t33.5 -11.5t24 -22.5t9 -36z" />
    <glyph glyph-name="three.numerator" horiz-adv-x="307" 
d="M366 659q0 -9 -1.5 -22t-4.5 -24q-9 -32 -26 -53t-53 -36q34 -21 34 -61q0 -8 -2 -20t-4 -20q-10 -36 -25 -60.5t-35 -38.5t-46.5 -20t-60.5 -6q-44 0 -72 15t-28 60q0 14 2.5 26t6.5 25h86q-2 -8 -4.5 -17t-2.5 -18q0 -26 31 -26q23 0 36 15.5t23 48.5q4 15 4 30
q0 21 -13 28.5t-39 7.5h-15l16 58q37 0 62 10t36 45q3 11 5 19t2 16q0 25 -26 25q-24 0 -36.5 -17t-18.5 -37h-85q17 59 54.5 87.5t99.5 28.5q18 0 36 -2.5t32 -10t23 -21t9 -35.5z" />
    <glyph glyph-name="four.numerator" horiz-adv-x="307" 
d="M294 468h34l-20 -68h-34l-27 -95h-91l27 94h-140l23 81l180 243h121zM133 467h76l53 182z" />
    <glyph glyph-name="five.numerator" horiz-adv-x="307" 
d="M317 451q-11 -37 -24.5 -65.5t-33 -47.5t-48 -29t-69.5 -10q-43 0 -70 17.5t-27 55.5q0 15 6 36h87q-3 -11 -3 -20q0 -11 6 -18.5t21 -7.5q12 0 20.5 3.5t15.5 13t13.5 26t14.5 43.5q9 30 9 47q0 26 -25 26q-20 0 -32 -13t-18 -28h-84l76 243h228l-19 -65h-145l-34 -106
q17 14 33.5 21t40.5 7q32 0 52 -15t20 -47q0 -26 -11 -67z" />
    <glyph glyph-name="six.numerator" horiz-adv-x="307" 
d="M313 438q-12 -38 -26.5 -64.5t-34.5 -43t-46.5 -24t-62.5 -7.5q-54 0 -75.5 21t-21.5 58q0 20 5 41.5t13 50.5l24 85q12 44 27.5 76.5t37.5 54.5t51 32.5t70 10.5q45 0 69 -14t24 -49q0 -8 -1 -17t-4 -20h-88q2 10 2 16q0 22 -25 22q-26 0 -42.5 -27t-29.5 -72l-8 -27
q17 14 35.5 23t45.5 9q40 0 56.5 -17t16.5 -48q0 -15 -2.5 -32.5t-9.5 -37.5zM224 439q9 30 9 47q0 26 -28 26q-24 0 -38 -19.5t-24 -52.5q-9 -32 -9 -50q0 -29 28 -29q25 0 37.5 18t24.5 60z" />
    <glyph glyph-name="seven.numerator" horiz-adv-x="307" 
d="M145 305h-97l220 352h-148l19 66h232l-20 -71z" />
    <glyph glyph-name="eight.numerator" horiz-adv-x="307" 
d="M309 421q-17 -60 -56 -91.5t-110 -31.5q-48 0 -74.5 18.5t-26.5 57.5q0 11 2 22t6 25q8 29 26.5 57t55.5 44q-29 14 -29 51q0 19 6 40q32 116 158 116q47 0 73.5 -17.5t26.5 -54.5q0 -19 -6 -38q-10 -32 -28.5 -57.5t-50.5 -38.5q35 -16 35 -55q0 -18 -8 -47zM272 609
q6 19 6 32q0 25 -29 25q-23 0 -34.5 -14.5t-19.5 -40.5q-5 -18 -5 -30q0 -27 27 -27q23 0 35 15t20 40zM221 423q3 11 5 20.5t2 17.5q0 14 -6.5 22.5t-22.5 8.5q-25 0 -38.5 -20t-21.5 -47q-6 -21 -6 -37q0 -13 6 -20.5t22 -7.5q26 0 39.5 18.5t20.5 44.5z" />
    <glyph glyph-name="nine.numerator" horiz-adv-x="307" 
d="M322 487q-14 -48 -27 -83.5t-33 -59t-50 -34.5t-77 -11q-43 0 -68 15t-25 51q0 16 6 39h87q-3 -11 -3 -20q0 -11 5 -17.5t20 -6.5q21 0 36.5 16.5t27.5 59.5l15 52q-17 -14 -35.5 -22.5t-44.5 -8.5q-35 0 -54 17.5t-19 52.5q0 26 11 64q11 36 25.5 62.5t34.5 43t47 24.5
t63 8q53 0 75 -18t22 -56q0 -17 -4 -37.5t-11 -45.5zM265 591q9 28 9 47q0 28 -28 28q-26 0 -39 -19t-24 -56q-9 -30 -9 -47q0 -26 29 -26q26 0 39 20.5t23 52.5z" />
    <glyph glyph-name="zero.denominator" horiz-adv-x="307" 
d="M40 130q-8 -27 -8 -41q0 -30 30 -30q23 0 38 16.5t26 54.5l45 158q8 27 8 41q0 30 -30 30q-23 0 -38 -16.5t-26 -54.5zM214 134q-20 -69 -58 -104.5t-112 -35.5q-54 0 -76.5 23t-22.5 61q0 14 2.5 28.5t7.5 31.5l42 146q20 69 58 104.5t112 35.5q54 0 76.5 -23t22.5 -61
q0 -14 -2.5 -28.5t-7.5 -31.5z" />
    <glyph glyph-name="one.denominator" horiz-adv-x="307" 
d="M110 0h-93l91 320q-22 -15 -44.5 -26.5t-47.5 -21.5l23 82q55 24 103 64h88z" />
    <glyph glyph-name="two.denominator" horiz-adv-x="307" 
d="M288 350q0 -20 -5 -39t-18 -40t-34 -44.5t-52 -52.5l-117 -107h151l-19 -68h-263l21 72l112 97q67 58 99 99t32 64q0 14 -7.5 21t-19.5 7q-29 0 -43 -19t-21 -44h-84q15 59 59 93t106 34q18 0 36.5 -3t33.5 -11.5t24 -22.5t9 -36z" />
    <glyph glyph-name="three.denominator" horiz-adv-x="307" 
d="M280 354q0 -9 -1.5 -22t-4.5 -24q-9 -32 -26 -53t-53 -36q34 -21 34 -61q0 -8 -2 -20t-4 -20q-10 -36 -25 -60.5t-35 -38.5t-46.5 -20t-60.5 -6q-44 0 -72 15t-28 60q0 14 2.5 26t6.5 25h86q-2 -8 -4.5 -17t-2.5 -18q0 -26 31 -26q23 0 36 15.5t23 48.5q4 15 4 30
q0 21 -13 28.5t-39 7.5h-15l16 58q37 0 62 10t36 45q3 11 5 19t2 16q0 25 -26 25q-24 0 -36.5 -17t-18.5 -37h-85q17 59 54.5 87.5t99.5 28.5q18 0 36 -2.5t32 -10t23 -21t9 -35.5z" />
    <glyph glyph-name="four.denominator" horiz-adv-x="307" 
d="M208 163h34l-20 -68h-34l-27 -95h-91l27 94h-140l23 81l180 243h121zM47 162h76l53 182z" />
    <glyph glyph-name="five.denominator" horiz-adv-x="307" 
d="M231 146q-11 -37 -24.5 -65.5t-33 -47.5t-48 -29t-69.5 -10q-43 0 -70 17.5t-27 55.5q0 15 6 36h87q-3 -11 -3 -20q0 -11 6 -18.5t21 -7.5q12 0 20.5 3.5t15.5 13t13.5 26t14.5 43.5q9 30 9 47q0 26 -25 26q-20 0 -32 -13t-18 -28h-84l76 243h228l-19 -65h-145l-34 -106
q17 14 33.5 21t40.5 7q32 0 52 -15t20 -47q0 -26 -11 -67z" />
    <glyph glyph-name="six.denominator" horiz-adv-x="307" 
d="M227 133q-12 -38 -26.5 -64.5t-34.5 -43t-46.5 -24t-62.5 -7.5q-54 0 -75.5 21t-21.5 58q0 20 5 41.5t13 50.5l24 85q12 44 27.5 76.5t37.5 54.5t51 32.5t70 10.5q45 0 69 -14t24 -49q0 -8 -1 -17t-4 -20h-88q2 10 2 16q0 22 -25 22q-26 0 -42.5 -27t-29.5 -72l-8 -27
q17 14 35.5 23t45.5 9q40 0 56.5 -17t16.5 -48q0 -15 -2.5 -32.5t-9.5 -37.5zM138 134q9 30 9 47q0 26 -28 26q-24 0 -38 -19.5t-24 -52.5q-9 -32 -9 -50q0 -29 28 -29q25 0 37.5 18t24.5 60z" />
    <glyph glyph-name="seven.denominator" horiz-adv-x="307" 
d="M59 0h-97l220 352h-148l19 66h232l-20 -71z" />
    <glyph glyph-name="eight.denominator" horiz-adv-x="307" 
d="M223 116q-17 -60 -56 -91.5t-110 -31.5q-48 0 -74.5 18.5t-26.5 57.5q0 11 2 22t6 25q8 29 26.5 57t55.5 44q-29 14 -29 51q0 19 6 40q32 116 158 116q47 0 73.5 -17.5t26.5 -54.5q0 -19 -6 -38q-10 -32 -28.5 -57.5t-50.5 -38.5q35 -16 35 -55q0 -18 -8 -47zM186 304
q6 19 6 32q0 25 -29 25q-23 0 -34.5 -14.5t-19.5 -40.5q-5 -18 -5 -30q0 -27 27 -27q23 0 35 15t20 40zM135 118q3 11 5 20.5t2 17.5q0 14 -6.5 22.5t-22.5 8.5q-25 0 -38.5 -20t-21.5 -47q-6 -21 -6 -37q0 -13 6 -20.5t22 -7.5q26 0 39.5 18.5t20.5 44.5z" />
    <glyph glyph-name="nine.denominator" horiz-adv-x="307" 
d="M236 182q-14 -48 -27 -83.5t-33 -59t-50 -34.5t-77 -11q-43 0 -68 15t-25 51q0 16 6 39h87q-3 -11 -3 -20q0 -11 5 -17.5t20 -6.5q21 0 36.5 16.5t27.5 59.5l15 52q-17 -14 -35.5 -22.5t-44.5 -8.5q-35 0 -54 17.5t-19 52.5q0 26 11 64q11 36 25.5 62.5t34.5 43t47 24.5
t63 8q53 0 75 -18t22 -56q0 -17 -4 -37.5t-11 -45.5zM179 286q9 28 9 47q0 28 -28 28q-26 0 -39 -19t-24 -56q-9 -30 -9 -47q0 -26 29 -26q26 0 39 20.5t23 52.5z" />
    <glyph glyph-name="onehalf.alt01" 
d="M238 457l56 195q-28 -16 -62 -28l17 59q23 10 41.5 19.5t34.5 20.5h57l-76 -266h-68zM88 338l15 51h308l-15 -51h-308zM52 0l14 51l118 94q25 20 36 34.5t11 29.5q0 14 -18 14q-27 0 -38 -37h-65q14 45 44 65t75 20q35 0 53.5 -12t18.5 -37q0 -35 -23 -64t-60 -58
l-68 -52h105l-14 -48h-189z" />
    <glyph glyph-name="onethird.alt01" 
d="M238 457l56 195q-28 -16 -62 -28l17 59q23 10 41.5 19.5t34.5 20.5h57l-76 -266h-68zM260 72q-12 -40 -40.5 -58.5t-78.5 -18.5q-35 0 -54 11.5t-19 37.5q0 14 6 34h64q-3 -9 -3 -17q0 -19 20 -19q17 0 25 9t13 23q4 11 4 21q0 11 -7.5 16t-25.5 5h-15l13 47h12
q22 0 33 6.5t18 26.5q2 6 2 12q0 7 -4 11.5t-15 4.5q-14 0 -21.5 -8t-11.5 -22h-64q8 41 37.5 59t74.5 18q73 0 73 -48q0 -13 -4 -26q-7 -23 -18.5 -34.5t-31.5 -21.5q23 -11 23 -38q0 -13 -5 -31zM88 338l15 51h308l-15 -51h-308z" />
    <glyph glyph-name="onequarter.alt01" 
d="M238 457l56 195q-28 -16 -62 -28l17 59q23 10 41.5 19.5t34.5 20.5h57l-76 -266h-68zM223 59l-17 -59h-64l17 59h-101l14 50l122 157h88l-46 -160h32l-13 -47h-32zM206 215l-80 -109h49zM88 338l15 51h308l-15 -51h-308z" />
    <glyph glyph-name="oneeighth.alt01" 
d="M238 457l56 195q-28 -16 -62 -28l17 59q23 10 41.5 19.5t34.5 20.5h57l-76 -266h-68zM260 76q-11 -40 -37.5 -60.5t-80.5 -20.5q-37 0 -55.5 12t-18.5 39q0 11 5 31q8 24 19 38t31 23q-19 10 -19 33q0 12 4 24q11 40 39.5 58t73.5 18q35 0 55 -10.5t20 -36.5
q0 -13 -4 -26q-6 -22 -17.5 -35.5t-31.5 -23.5q22 -11 22 -36q0 -6 -1.5 -12.5t-3.5 -14.5zM227 194q2 5 2 8v6q0 18 -21 18q-14 0 -22 -7.5t-14 -24.5q-3 -9 -3 -15q0 -17 21 -17q27 0 37 32zM196 78q3 10 3 18q0 19 -21 19q-30 0 -41 -37q-3 -11 -3 -18q0 -20 22 -20
q29 0 40 38zM88 338l15 51h308l-15 -51h-308z" />
    <glyph glyph-name="twothirds.alt01" 
d="M183 457l14 51l118 94q25 20 36 34.5t11 29.5q0 14 -18 14q-27 0 -38 -37h-65q14 45 44 65t75 20q35 0 53.5 -12t18.5 -37q0 -35 -23 -64t-60 -58l-68 -52h105l-14 -48h-189zM260 72q-12 -40 -40.5 -58.5t-78.5 -18.5q-35 0 -54 11.5t-19 37.5q0 14 6 34h64q-3 -9 -3 -17
q0 -19 20 -19q17 0 25 9t13 23q4 11 4 21q0 11 -7.5 16t-25.5 5h-15l13 47h12q22 0 33 6.5t18 26.5q2 6 2 12q0 7 -4 11.5t-15 4.5q-14 0 -21.5 -8t-11.5 -22h-64q8 41 37.5 59t74.5 18q73 0 73 -48q0 -13 -4 -26q-7 -23 -18.5 -34.5t-31.5 -21.5q23 -11 23 -38
q0 -13 -5 -31zM88 338l15 51h308l-15 -51h-308z" />
    <glyph glyph-name="threequarters.alt01" 
d="M390 529q-12 -40 -40.5 -58.5t-78.5 -18.5q-35 0 -54 11.5t-19 37.5q0 14 6 34h64q-3 -9 -3 -17q0 -19 20 -19q17 0 25 9t13 23q4 11 4 21q0 11 -7.5 16t-25.5 5h-15l13 47h12q22 0 33 6.5t18 26.5q2 6 2 12q0 7 -4 11.5t-15 4.5q-14 0 -21.5 -8t-11.5 -22h-64
q8 41 37.5 59t74.5 18q73 0 73 -48q0 -13 -4 -26q-7 -23 -18.5 -34.5t-31.5 -21.5q23 -11 23 -38q0 -13 -5 -31zM223 59l-17 -59h-64l17 59h-101l14 50l122 157h88l-46 -160h32l-13 -47h-32zM206 215l-80 -109h49zM88 338l15 51h308l-15 -51h-308z" />
    <glyph glyph-name="threeeighths.alt01" 
d="M390 529q-12 -40 -40.5 -58.5t-78.5 -18.5q-35 0 -54 11.5t-19 37.5q0 14 6 34h64q-3 -9 -3 -17q0 -19 20 -19q17 0 25 9t13 23q4 11 4 21q0 11 -7.5 16t-25.5 5h-15l13 47h12q22 0 33 6.5t18 26.5q2 6 2 12q0 7 -4 11.5t-15 4.5q-14 0 -21.5 -8t-11.5 -22h-64
q8 41 37.5 59t74.5 18q73 0 73 -48q0 -13 -4 -26q-7 -23 -18.5 -34.5t-31.5 -21.5q23 -11 23 -38q0 -13 -5 -31zM260 76q-11 -40 -37.5 -60.5t-80.5 -20.5q-37 0 -55.5 12t-18.5 39q0 11 5 31q8 24 19 38t31 23q-19 10 -19 33q0 12 4 24q11 40 39.5 58t73.5 18
q35 0 55 -10.5t20 -36.5q0 -13 -4 -26q-6 -22 -17.5 -35.5t-31.5 -23.5q22 -11 22 -36q0 -6 -1.5 -12.5t-3.5 -14.5zM227 194q2 5 2 8v6q0 18 -21 18q-14 0 -22 -7.5t-14 -24.5q-3 -9 -3 -15q0 -17 21 -17q27 0 37 32zM196 78q3 10 3 18q0 19 -21 19q-30 0 -41 -37
q-3 -11 -3 -18q0 -20 22 -20q29 0 40 38zM88 338l15 51h308l-15 -51h-308z" />
    <glyph glyph-name="fiveeighths.alt01" 
d="M395 552q-14 -48 -39.5 -74t-83.5 -26q-32 0 -51 12t-19 38q0 11 4 26h65q-2 -8 -2 -12q0 -7 4 -12t14 -5q16 0 24 12.5t16 38.5q5 18 5 25q0 15 -17 15q-14 0 -21.5 -8t-11.5 -17h-62l50 158h164l-14 -48h-103l-19 -60q12 11 26.5 15.5t29.5 4.5q26 0 37 -11.5t11 -31.5
q0 -9 -2 -19t-5 -21zM260 76q-11 -40 -37.5 -60.5t-80.5 -20.5q-37 0 -55.5 12t-18.5 39q0 11 5 31q8 24 19 38t31 23q-19 10 -19 33q0 12 4 24q11 40 39.5 58t73.5 18q35 0 55 -10.5t20 -36.5q0 -13 -4 -26q-6 -22 -17.5 -35.5t-31.5 -23.5q22 -11 22 -36q0 -6 -1.5 -12.5
t-3.5 -14.5zM227 194q2 5 2 8v6q0 18 -21 18q-14 0 -22 -7.5t-14 -24.5q-3 -9 -3 -15q0 -17 21 -17q27 0 37 32zM196 78q3 10 3 18q0 19 -21 19q-30 0 -41 -37q-3 -11 -3 -18q0 -20 22 -20q29 0 40 38zM88 338l15 51h308l-15 -51h-308z" />
    <glyph glyph-name="seveneighths.alt01" 
d="M217 457l146 218h-102l14 48h166l-14 -48l-137 -218h-73zM260 76q-11 -40 -37.5 -60.5t-80.5 -20.5q-37 0 -55.5 12t-18.5 39q0 11 5 31q8 24 19 38t31 23q-19 10 -19 33q0 12 4 24q11 40 39.5 58t73.5 18q35 0 55 -10.5t20 -36.5q0 -13 -4 -26q-6 -22 -17.5 -35.5
t-31.5 -23.5q22 -11 22 -36q0 -6 -1.5 -12.5t-3.5 -14.5zM227 194q2 5 2 8v6q0 18 -21 18q-14 0 -22 -7.5t-14 -24.5q-3 -9 -3 -15q0 -17 21 -17q27 0 37 32zM196 78q3 10 3 18q0 19 -21 19q-30 0 -41 -37q-3 -11 -3 -18q0 -20 22 -20q29 0 40 38zM88 338l15 51h308l-15 -51
h-308z" />
    <glyph glyph-name="Amacron" unicode="&#x100;" horiz-adv-x="600" 
d="M496 0h-149l6 160h-211l-86 -160h-158l405 723h202zM201 265h155l17 342zM565 807h-289l19 65h289z" />
    <glyph glyph-name="amacron" unicode="&#x101;" horiz-adv-x="479" 
d="M433 413q0 -20 -4 -38.5t-9 -37.5q-24 -85 -48.5 -167t-38.5 -170h-137l14 60q-31 -35 -64 -52.5t-80 -17.5q-46 0 -76 23.5t-30 71.5q0 52 21 99q17 39 46.5 65t65.5 41.5t76.5 22t80.5 6.5h27q5 20 12 41.5t7 41.5q0 35 -37 35q-34 0 -51 -22t-25 -51h-139
q12 44 34 73.5t52 47t66.5 24.5t78.5 7q27 0 55 -4t51 -15t37.5 -31t14.5 -53zM234 244q-51 0 -80.5 -22t-43.5 -71q-2 -9 -4 -18.5t-2 -19.5q0 -38 38 -38q28 0 47.5 19t32.5 45.5t20.5 55.5t13.5 49h-22zM448 622h-289l19 65h289z" />
    <glyph glyph-name="Abreve" unicode="&#x102;" horiz-adv-x="600" 
d="M496 0h-149l6 160h-211l-86 -160h-158l405 723h202zM201 265h155l17 342zM612 922q-27 -69 -76 -105.5t-122 -36.5q-58 0 -93.5 25t-35.5 78q0 22 4 39h58v-11q0 -32 22.5 -48t61.5 -16q42 0 74 18.5t50 56.5h57v0z" />
    <glyph glyph-name="abreve" unicode="&#x103;" horiz-adv-x="479" 
d="M433 413q0 -20 -4 -38.5t-9 -37.5q-24 -85 -48.5 -167t-38.5 -170h-137l14 60q-31 -35 -64 -52.5t-80 -17.5q-46 0 -76 23.5t-30 71.5q0 52 21 99q17 39 46.5 65t65.5 41.5t76.5 22t80.5 6.5h27q5 20 12 41.5t7 41.5q0 35 -37 35q-34 0 -51 -22t-25 -51h-139
q12 44 34 73.5t52 47t66.5 24.5t78.5 7q27 0 55 -4t51 -15t37.5 -31t14.5 -53zM234 244q-51 0 -80.5 -22t-43.5 -71q-2 -9 -4 -18.5t-2 -19.5q0 -38 38 -38q28 0 47.5 19t32.5 45.5t20.5 55.5t13.5 49h-22zM494 727q-27 -69 -76 -105.5t-122 -36.5q-58 0 -93.5 25t-35.5 78
q0 22 4 39h58v-11q0 -32 22.5 -48t61.5 -16q42 0 74 18.5t50 56.5h57v0z" />
    <glyph glyph-name="Aogonek" unicode="&#x104;" horiz-adv-x="600" 
d="M496 0q-32 -20 -53.5 -36t-35 -30t-19 -26.5t-5.5 -25.5q0 -31 40 -31q11 0 21.5 3t20.5 7l-6 -39q-21 -14 -44 -23t-52 -9q-31 0 -50 10.5t-19 36.5q0 45 40.5 85.5t103.5 77.5h-97l6 160h-211l-86 -160h-152l405 723h202zM195 265h155l17 342z" />
    <glyph glyph-name="aogonek" unicode="&#x105;" horiz-adv-x="479" 
d="M433 413q0 -20 -4 -38.5t-9 -37.5q-24 -85 -48.5 -167t-38.5 -170q-32 -20 -53.5 -36t-35 -30t-19 -26.5t-5.5 -25.5q0 -31 40 -31q11 0 21.5 3t20.5 7l-6 -39q-21 -14 -44 -23t-52 -9q-31 0 -50 10.5t-19 36.5q0 45 40.5 85.5t103.5 77.5h-79l14 60q-31 -35 -64 -52.5
t-80 -17.5q-46 0 -76 23.5t-30 71.5q0 52 21 99q17 39 46.5 65t65.5 41.5t76.5 22t80.5 6.5h27q5 20 12 41.5t7 41.5q0 35 -37 35q-34 0 -51 -22t-25 -51h-139q12 44 34 73.5t52 47t66.5 24.5t78.5 7q27 0 55 -4t51 -15t37.5 -31t14.5 -53zM234 244q-51 0 -80.5 -22
t-43.5 -71q-2 -9 -4 -18.5t-2 -19.5q0 -38 38 -38q28 0 47.5 19t32.5 45.5t20.5 55.5t13.5 49h-22z" />
    <glyph glyph-name="Cacute" unicode="&#x106;" horiz-adv-x="558" 
d="M583 610q0 -29 -5 -56.5t-13 -54.5h-147q5 18 10 37.5t5 39.5q0 29 -16.5 42.5t-45.5 13.5q-36 0 -62.5 -22t-46 -58t-34.5 -82.5t-28 -95.5q-20 -70 -33.5 -126.5t-13.5 -91.5q0 -32 13.5 -48.5t47.5 -16.5t56.5 14t37 36t23 49.5t16.5 54.5h151q-18 -65 -39.5 -113.5
t-54.5 -81t-82 -49t-122 -16.5q-38 0 -73.5 7.5t-63.5 25.5t-44.5 48t-16.5 76q0 48 12.5 105.5t28.5 111.5q24 82 47.5 152t60 120t93.5 78.5t148 28.5q34 0 68 -5.5t61.5 -20t44.5 -39t17 -63.5zM414 777h-86l122 143h145z" />
    <glyph glyph-name="cacute" unicode="&#x107;" horiz-adv-x="461" 
d="M444 405q0 -20 -3.5 -37t-8.5 -37h-135q4 14 7.5 28.5t3.5 29.5q0 41 -43 41q-30 0 -50.5 -20t-34 -48t-22 -59.5t-14.5 -53.5q-8 -28 -18 -63.5t-10 -63.5q0 -23 10 -35.5t34 -12.5q22 0 38 10t27 25.5t19 34t13 36.5h134q-15 -49 -35 -85t-49 -60t-68 -35.5t-91 -11.5
q-32 0 -62.5 6t-54 20t-37.5 38.5t-14 61.5q0 32 5 61t14 59q17 59 36 110.5t49.5 89.5t76 60t114.5 22q28 0 58 -4.5t54.5 -16.5t40.5 -33.5t16 -56.5zM307 582h-86l122 143h145z" />
    <glyph glyph-name="Ccircumflex" unicode="&#x108;" horiz-adv-x="558" 
d="M583 610q0 -29 -5 -56.5t-13 -54.5h-147q5 18 10 37.5t5 39.5q0 29 -16.5 42.5t-45.5 13.5q-36 0 -62.5 -22t-46 -58t-34.5 -82.5t-28 -95.5q-20 -70 -33.5 -126.5t-13.5 -91.5q0 -32 13.5 -48.5t47.5 -16.5t56.5 14t37 36t23 49.5t16.5 54.5h151q-18 -65 -39.5 -113.5
t-54.5 -81t-82 -49t-122 -16.5q-38 0 -73.5 7.5t-63.5 25.5t-44.5 48t-16.5 76q0 48 12.5 105.5t28.5 111.5q24 82 47.5 152t60 120t93.5 78.5t148 28.5q34 0 68 -5.5t61.5 -20t44.5 -39t17 -63.5zM482 777l-52 84l-99 -84h-92l144 143h114l63 -143h-78z" />
    <glyph glyph-name="ccircumflex" unicode="&#x109;" horiz-adv-x="461" 
d="M444 405q0 -20 -3.5 -37t-8.5 -37h-135q4 14 7.5 28.5t3.5 29.5q0 41 -43 41q-30 0 -50.5 -20t-34 -48t-22 -59.5t-14.5 -53.5q-8 -28 -18 -63.5t-10 -63.5q0 -23 10 -35.5t34 -12.5q22 0 38 10t27 25.5t19 34t13 36.5h134q-15 -49 -35 -85t-49 -60t-68 -35.5t-91 -11.5
q-32 0 -62.5 6t-54 20t-37.5 38.5t-14 61.5q0 32 5 61t14 59q17 59 36 110.5t49.5 89.5t76 60t114.5 22q28 0 58 -4.5t54.5 -16.5t40.5 -33.5t16 -56.5zM374 582l-52 84l-99 -84h-92l144 143h114l63 -143h-78z" />
    <glyph glyph-name="Cdotaccent" unicode="&#x10a;" horiz-adv-x="558" 
d="M583 610q0 -29 -5 -56.5t-13 -54.5h-147q5 18 10 37.5t5 39.5q0 29 -16.5 42.5t-45.5 13.5q-36 0 -62.5 -22t-46 -58t-34.5 -82.5t-28 -95.5q-20 -70 -33.5 -126.5t-13.5 -91.5q0 -32 13.5 -48.5t47.5 -16.5t56.5 14t37 36t23 49.5t16.5 54.5h151q-18 -65 -39.5 -113.5
t-54.5 -81t-82 -49t-122 -16.5q-38 0 -73.5 7.5t-63.5 25.5t-44.5 48t-16.5 76q0 48 12.5 105.5t28.5 111.5q24 82 47.5 152t60 120t93.5 78.5t148 28.5q34 0 68 -5.5t61.5 -20t44.5 -39t17 -63.5zM461 789h-112l31 109h112z" />
    <glyph glyph-name="cdotaccent" unicode="&#x10b;" horiz-adv-x="461" 
d="M444 405q0 -20 -3.5 -37t-8.5 -37h-135q4 14 7.5 28.5t3.5 29.5q0 41 -43 41q-30 0 -50.5 -20t-34 -48t-22 -59.5t-14.5 -53.5q-8 -28 -18 -63.5t-10 -63.5q0 -23 10 -35.5t34 -12.5q22 0 38 10t27 25.5t19 34t13 36.5h134q-15 -49 -35 -85t-49 -60t-68 -35.5t-91 -11.5
q-32 0 -62.5 6t-54 20t-37.5 38.5t-14 61.5q0 32 5 61t14 59q17 59 36 110.5t49.5 89.5t76 60t114.5 22q28 0 58 -4.5t54.5 -16.5t40.5 -33.5t16 -56.5zM352 604h-112l31 109h112z" />
    <glyph glyph-name="Ccaron" unicode="&#x10c;" horiz-adv-x="558" 
d="M583 610q0 -29 -5 -56.5t-13 -54.5h-147q5 18 10 37.5t5 39.5q0 29 -16.5 42.5t-45.5 13.5q-36 0 -62.5 -22t-46 -58t-34.5 -82.5t-28 -95.5q-20 -70 -33.5 -126.5t-13.5 -91.5q0 -32 13.5 -48.5t47.5 -16.5t56.5 14t37 36t23 49.5t16.5 54.5h151q-18 -65 -39.5 -113.5
t-54.5 -81t-82 -49t-122 -16.5q-38 0 -73.5 7.5t-63.5 25.5t-44.5 48t-16.5 76q0 48 12.5 105.5t28.5 111.5q24 82 47.5 152t60 120t93.5 78.5t148 28.5q34 0 68 -5.5t61.5 -20t44.5 -39t17 -63.5zM359 920l52 -84l99 84h92l-144 -143h-114l-63 143h78z" />
    <glyph glyph-name="ccaron" unicode="&#x10d;" horiz-adv-x="461" 
d="M444 405q0 -20 -3.5 -37t-8.5 -37h-135q4 14 7.5 28.5t3.5 29.5q0 41 -43 41q-30 0 -50.5 -20t-34 -48t-22 -59.5t-14.5 -53.5q-8 -28 -18 -63.5t-10 -63.5q0 -23 10 -35.5t34 -12.5q22 0 38 10t27 25.5t19 34t13 36.5h134q-15 -49 -35 -85t-49 -60t-68 -35.5t-91 -11.5
q-32 0 -62.5 6t-54 20t-37.5 38.5t-14 61.5q0 32 5 61t14 59q17 59 36 110.5t49.5 89.5t76 60t114.5 22q28 0 58 -4.5t54.5 -16.5t40.5 -33.5t16 -56.5zM258 725l52 -84l99 84h92l-144 -143h-114l-63 143h78z" />
    <glyph glyph-name="Dcaron" unicode="&#x10e;" horiz-adv-x="607" 
d="M605 573q0 -50 -10.5 -102.5t-21.5 -90.5q-19 -66 -36 -120.5t-37 -96.5t-45.5 -73t-62 -51t-86.5 -29.5t-118 -9.5h-221l207 723h217q44 0 83 -5.5t68 -21.5t46 -45.5t17 -77.5zM448 535q0 47 -27.5 64t-70.5 17h-55l-147 -510h57q51 0 82.5 17t53.5 49t37 79t33 107
q17 56 27 100t10 77zM360 920l52 -84l99 84h92l-144 -143h-114l-63 143h78z" />
    <glyph glyph-name="dcaron" unicode="&#x10f;" horiz-adv-x="508" 
d="M376 94q-7 -23 -13 -47t-12 -47h-137l15 54q-27 -31 -58.5 -47.5t-74.5 -16.5q-55 0 -85.5 27.5t-30.5 78.5q0 39 8.5 78.5t19.5 76.5q15 51 30.5 99t39 84.5t59.5 59t91 22.5q36 0 66 -13t44 -48l77 268h141zM306 382q0 21 -8.5 36t-32.5 15q-27 0 -46.5 -21.5
t-33.5 -51t-22.5 -60.5t-14.5 -51q-8 -28 -16 -61.5t-8 -62.5q0 -20 7.5 -36t31.5 -16q26 0 45.5 20t33 48.5t22 58t14.5 49.5q4 15 9 32t9 34.5t7 34.5t3 32zM652 544h-94l66 179h129z" />
    <glyph glyph-name="Dcroat" unicode="&#x110;" horiz-adv-x="607" 
d="M605 570q0 -50 -10.5 -101t-21.5 -89q-19 -66 -36 -120.5t-37 -96.5t-45.5 -73t-62 -51t-86.5 -29.5t-118 -9.5h-221l102 355h-63l24 84h63l81 284h217q39 0 77.5 -6t69 -22.5t49 -46.5t18.5 -78zM448 535q0 47 -27.5 64t-70.5 17h-55l-51 -177h101l-24 -84h-101
l-72 -249h57q52 0 84.5 18.5t54 51.5t36.5 79.5t31 102.5q6 19 12.5 41.5t12 46t9 46.5t3.5 43z" />
    <glyph glyph-name="dcroat" unicode="&#x111;" horiz-adv-x="508" 
d="M538 660h62l-25 -86h-62l-137 -480q-7 -23 -13 -47t-12 -47h-137l15 54q-27 -31 -58.5 -47.5t-74.5 -16.5q-55 0 -85.5 27.5t-30.5 78.5q0 39 8.5 78.5t19.5 76.5q15 51 30.5 99t39 84.5t59.5 59t91 22.5q36 0 66 -13t44 -48l34 119h-170l25 86h170l18 63h141zM306 382
q0 21 -8.5 36t-32.5 15q-27 0 -46.5 -21.5t-33.5 -51t-22.5 -60.5t-14.5 -51q-8 -28 -16 -61.5t-8 -62.5q0 -20 7.5 -36t31.5 -16q26 0 45.5 20t33 48.5t22 58t14.5 49.5q4 15 9 32t9 34.5t7 34.5t3 32z" />
    <glyph glyph-name="Emacron" unicode="&#x112;" horiz-adv-x="502" 
d="M539 616h-244l-55 -190h223l-30 -104h-223l-61 -215h250l-31 -107h-401l207 723h395zM540 807h-289l19 65h289z" />
    <glyph glyph-name="emacron" unicode="&#x113;" horiz-adv-x="474" 
d="M435 393q0 -35 -10 -76.5t-21 -80.5h-264q-8 -29 -16.5 -60.5t-8.5 -60.5q0 -22 9 -33t32 -11q20 0 34.5 9t25 22.5t17.5 30.5t12 34h136q-29 -93 -82.5 -136t-150.5 -43q-33 0 -63 6t-53.5 20.5t-37.5 38.5t-14 61q0 35 6.5 68t16.5 66q16 57 36.5 106t51 85t75.5 56.5
t110 20.5q31 0 60 -6t51 -20.5t35 -38t13 -58.5zM301 392q0 41 -40 41q-23 0 -39.5 -12t-28 -30.5t-19 -40t-12.5 -39.5h122q6 20 11.5 42t5.5 39zM448 622h-289l19 65h289z" />
    <glyph glyph-name="Ebreve" unicode="&#x114;" horiz-adv-x="502" 
d="M539 616h-244l-55 -190h223l-30 -104h-223l-61 -215h250l-31 -107h-401l207 723h395zM587 922q-27 -69 -76 -105.5t-122 -36.5q-58 0 -93.5 25t-35.5 78q0 22 4 39h58v-11q0 -32 22.5 -48t61.5 -16q42 0 74 18.5t50 56.5h57v0z" />
    <glyph glyph-name="ebreve" unicode="&#x115;" horiz-adv-x="474" 
d="M435 393q0 -35 -10 -76.5t-21 -80.5h-264q-8 -29 -16.5 -60.5t-8.5 -60.5q0 -22 9 -33t32 -11q20 0 34.5 9t25 22.5t17.5 30.5t12 34h136q-29 -93 -82.5 -136t-150.5 -43q-33 0 -63 6t-53.5 20.5t-37.5 38.5t-14 61q0 35 6.5 68t16.5 66q16 57 36.5 106t51 85t75.5 56.5
t110 20.5q31 0 60 -6t51 -20.5t35 -38t13 -58.5zM301 392q0 41 -40 41q-23 0 -39.5 -12t-28 -30.5t-19 -40t-12.5 -39.5h122q6 20 11.5 42t5.5 39zM494 727q-27 -69 -76 -105.5t-122 -36.5q-58 0 -93.5 25t-35.5 78q0 22 4 39h58v-11q0 -32 22.5 -48t61.5 -16q42 0 74 18.5
t50 56.5h57v0z" />
    <glyph glyph-name="Edotaccent" unicode="&#x116;" horiz-adv-x="502" 
d="M539 616h-244l-55 -190h223l-30 -104h-223l-61 -215h250l-31 -107h-401l207 723h395zM446 789h-112l31 109h112z" />
    <glyph glyph-name="edotaccent" unicode="&#x117;" horiz-adv-x="474" 
d="M435 393q0 -35 -10 -76.5t-21 -80.5h-264q-8 -29 -16.5 -60.5t-8.5 -60.5q0 -22 9 -33t32 -11q20 0 34.5 9t25 22.5t17.5 30.5t12 34h136q-29 -93 -82.5 -136t-150.5 -43q-33 0 -63 6t-53.5 20.5t-37.5 38.5t-14 61q0 35 6.5 68t16.5 66q16 57 36.5 106t51 85t75.5 56.5
t110 20.5q31 0 60 -6t51 -20.5t35 -38t13 -58.5zM301 392q0 41 -40 41q-23 0 -39.5 -12t-28 -30.5t-19 -40t-12.5 -39.5h122q6 20 11.5 42t5.5 39zM351 604h-112l31 109h112z" />
    <glyph glyph-name="Eogonek" unicode="&#x118;" horiz-adv-x="502" 
d="M539 616h-244l-55 -190h223l-30 -104h-223l-61 -215h250l-31 -107q-32 -20 -53.5 -36t-35 -30t-19 -26.5t-5.5 -25.5q0 -31 40 -31q11 0 21.5 3t20.5 7l-6 -39q-21 -14 -44 -23t-52 -9q-31 0 -50 10.5t-19 36.5q0 45 40.5 85.5t103.5 77.5h-343l207 723h395z" />
    <glyph glyph-name="eogonek" unicode="&#x119;" horiz-adv-x="474" 
d="M435 393q0 -42 -10 -80t-21 -77h-264q-8 -29 -16.5 -60.5t-8.5 -60.5q0 -22 9 -33t32 -11q20 0 34.5 9t25 22.5t17.5 30.5t12 34h136q-25 -78 -64.5 -120.5t-108.5 -53.5q-29 -19 -48 -34t-31 -27.5t-17 -24.5t-5 -25q0 -31 40 -31q11 0 21.5 3t20.5 7l-6 -39
q-21 -14 -44 -23t-52 -9q-31 0 -50 10.5t-19 36.5q0 41 34 78.5t90 72.5q-32 1 -61 7t-51.5 20.5t-36 38.5t-13.5 60q0 35 6.5 68t16.5 66q16 57 36.5 106t51 85t75.5 56.5t110 20.5q31 0 60 -6t51 -20.5t35 -38t13 -58.5zM301 392q0 41 -40 41q-23 0 -39.5 -12t-28 -30.5
t-19 -40t-12.5 -39.5h122q5 20 11 40.5t6 40.5z" />
    <glyph glyph-name="Ecaron" unicode="&#x11a;" horiz-adv-x="502" 
d="M539 616h-244l-55 -190h223l-30 -104h-223l-61 -215h250l-31 -107h-401l207 723h395zM344 920l52 -84l99 84h92l-144 -143h-114l-63 143h78z" />
    <glyph glyph-name="ecaron" unicode="&#x11b;" horiz-adv-x="474" 
d="M435 393q0 -35 -10 -76.5t-21 -80.5h-264q-8 -29 -16.5 -60.5t-8.5 -60.5q0 -22 9 -33t32 -11q20 0 34.5 9t25 22.5t17.5 30.5t12 34h136q-29 -93 -82.5 -136t-150.5 -43q-33 0 -63 6t-53.5 20.5t-37.5 38.5t-14 61q0 35 6.5 68t16.5 66q16 57 36.5 106t51 85t75.5 56.5
t110 20.5q31 0 60 -6t51 -20.5t35 -38t13 -58.5zM301 392q0 41 -40 41q-23 0 -39.5 -12t-28 -30.5t-19 -40t-12.5 -39.5h122q6 20 11.5 42t5.5 39zM257 725l52 -84l99 84h92l-144 -143h-114l-63 143h78z" />
    <glyph glyph-name="Gcircumflex" unicode="&#x11c;" horiz-adv-x="583" 
d="M595 596q0 -26 -3 -46.5t-11 -45.5h-152q5 17 9 35t4 36q0 32 -17 44.5t-47 12.5q-44 0 -73.5 -27.5t-49 -66.5t-32 -83t-21.5 -77q-6 -22 -14.5 -50.5t-16 -58.5t-12.5 -58.5t-5 -51.5q0 -38 17.5 -53t55.5 -15q47 0 91 15l49 171h-84l31 106h231l-104 -361
q-59 -17 -113 -27t-115 -10q-40 0 -78 7t-67.5 25t-47.5 49t-18 78q0 55 14 111t29 109q22 78 45.5 146.5t60.5 119t95 79.5t151 29q34 0 69.5 -6.5t64 -22.5t46.5 -43.5t18 -69.5zM486 777l-52 84l-99 -84h-92l144 143h114l63 -143h-78z" />
    <glyph glyph-name="gcircumflex" unicode="&#x11d;" horiz-adv-x="504" 
d="M495 504q-7 -20 -13 -41l-12 -42l-126 -440q-15 -51 -37 -85t-53 -54.5t-71 -29t-90 -8.5q-26 0 -55.5 3t-55.5 13t-43 29t-17 52q0 27 8 54h148q-3 -9 -5 -18.5t-2 -18.5q0 -38 39 -38q43 0 68 46.5t49 138.5q-30 -31 -60.5 -45t-73.5 -14q-50 0 -81.5 26.5t-31.5 80.5
q0 33 6.5 63.5t15.5 62.5q19 66 39 118t45.5 87t58 53.5t77.5 18.5q19 0 38 -3t34.5 -11t27 -21.5t16.5 -34.5l17 58h140zM305 378q0 22 -8.5 37.5t-33.5 15.5q-28 0 -48 -22t-33.5 -52t-22 -62t-14.5 -52q-7 -25 -13.5 -52t-6.5 -53q0 -21 8 -36t32 -15q25 0 44 17.5
t32.5 43t22 52.5t14.5 47q8 29 17.5 65t9.5 66zM386 582l-52 84l-99 -84h-92l144 143h114l63 -143h-78z" />
    <glyph glyph-name="Gbreve" unicode="&#x11e;" horiz-adv-x="583" 
d="M595 596q0 -26 -3 -46.5t-11 -45.5h-152q5 17 9 35t4 36q0 32 -17 44.5t-47 12.5q-44 0 -73.5 -27.5t-49 -66.5t-32 -83t-21.5 -77q-6 -22 -14.5 -50.5t-16 -58.5t-12.5 -58.5t-5 -51.5q0 -38 17.5 -53t55.5 -15q47 0 91 15l49 171h-84l31 106h231l-104 -361
q-59 -17 -113 -27t-115 -10q-40 0 -78 7t-67.5 25t-47.5 49t-18 78q0 55 14 111t29 109q22 78 45.5 146.5t60.5 119t95 79.5t151 29q34 0 69.5 -6.5t64 -22.5t46.5 -43.5t18 -69.5zM606 922q-27 -69 -76 -105.5t-122 -36.5q-58 0 -93.5 25t-35.5 78q0 22 4 39h58v-11
q0 -32 22.5 -48t61.5 -16q42 0 74 18.5t50 56.5h57v0z" />
    <glyph glyph-name="gbreve" unicode="&#x11f;" horiz-adv-x="504" 
d="M495 504q-7 -20 -13 -41l-12 -42l-126 -440q-15 -51 -37 -85t-53 -54.5t-71 -29t-90 -8.5q-26 0 -55.5 3t-55.5 13t-43 29t-17 52q0 27 8 54h148q-3 -9 -5 -18.5t-2 -18.5q0 -38 39 -38q43 0 68 46.5t49 138.5q-30 -31 -60.5 -45t-73.5 -14q-50 0 -81.5 26.5t-31.5 80.5
q0 33 6.5 63.5t15.5 62.5q19 66 39 118t45.5 87t58 53.5t77.5 18.5q19 0 38 -3t34.5 -11t27 -21.5t16.5 -34.5l17 58h140zM305 378q0 22 -8.5 37.5t-33.5 15.5q-28 0 -48 -22t-33.5 -52t-22 -62t-14.5 -52q-7 -25 -13.5 -52t-6.5 -53q0 -21 8 -36t32 -15q25 0 44 17.5
t32.5 43t22 52.5t14.5 47q8 29 17.5 65t9.5 66zM507 727q-27 -69 -76 -105.5t-122 -36.5q-58 0 -93.5 25t-35.5 78q0 22 4 39h58v-11q0 -32 22.5 -48t61.5 -16q42 0 74 18.5t50 56.5h57v0z" />
    <glyph glyph-name="Gdotaccent" unicode="&#x120;" horiz-adv-x="583" 
d="M595 596q0 -26 -3 -46.5t-11 -45.5h-152q5 17 9 35t4 36q0 32 -17 44.5t-47 12.5q-44 0 -73.5 -27.5t-49 -66.5t-32 -83t-21.5 -77q-6 -22 -14.5 -50.5t-16 -58.5t-12.5 -58.5t-5 -51.5q0 -38 17.5 -53t55.5 -15q47 0 91 15l49 171h-84l31 106h231l-104 -361
q-59 -17 -113 -27t-115 -10q-40 0 -78 7t-67.5 25t-47.5 49t-18 78q0 55 14 111t29 109q22 78 45.5 146.5t60.5 119t95 79.5t151 29q34 0 69.5 -6.5t64 -22.5t46.5 -43.5t18 -69.5zM465 789h-112l31 109h112z" />
    <glyph glyph-name="gdotaccent" unicode="&#x121;" horiz-adv-x="504" 
d="M495 504q-7 -20 -13 -41l-12 -42l-126 -440q-15 -51 -37 -85t-53 -54.5t-71 -29t-90 -8.5q-26 0 -55.5 3t-55.5 13t-43 29t-17 52q0 27 8 54h148q-3 -9 -5 -18.5t-2 -18.5q0 -38 39 -38q43 0 68 46.5t49 138.5q-30 -31 -60.5 -45t-73.5 -14q-50 0 -81.5 26.5t-31.5 80.5
q0 33 6.5 63.5t15.5 62.5q19 66 39 118t45.5 87t58 53.5t77.5 18.5q19 0 38 -3t34.5 -11t27 -21.5t16.5 -34.5l17 58h140zM305 378q0 22 -8.5 37.5t-33.5 15.5q-28 0 -48 -22t-33.5 -52t-22 -62t-14.5 -52q-7 -25 -13.5 -52t-6.5 -53q0 -21 8 -36t32 -15q25 0 44 17.5
t32.5 43t22 52.5t14.5 47q8 29 17.5 65t9.5 66zM364 604h-112l31 109h112z" />
    <glyph glyph-name="Gcommaaccent" unicode="&#x122;" horiz-adv-x="583" 
d="M595 596q0 -26 -3 -46.5t-11 -45.5h-152q5 17 9 35t4 36q0 32 -17 44.5t-47 12.5q-44 0 -73.5 -27.5t-49 -66.5t-32 -83t-21.5 -77q-6 -22 -14.5 -50.5t-16 -58.5t-12.5 -58.5t-5 -51.5q0 -38 17.5 -53t55.5 -15q47 0 91 15l49 171h-84l31 106h231l-104 -361
q-59 -17 -113 -27t-115 -10q-40 0 -78 7t-67.5 25t-47.5 49t-18 78q0 55 14 111t29 109q22 78 45.5 146.5t60.5 119t95 79.5t151 29q34 0 69.5 -6.5t64 -22.5t46.5 -43.5t18 -69.5zM160 -215h-90l74 161h117z" />
    <glyph glyph-name="gcommaaccent" unicode="&#x123;" horiz-adv-x="504" 
d="M495 504q-7 -20 -13 -41l-12 -42l-126 -440q-15 -51 -37 -85t-53 -54.5t-71 -29t-90 -8.5q-26 0 -55.5 3t-55.5 13t-43 29t-17 52q0 27 8 54h148q-3 -9 -5 -18.5t-2 -18.5q0 -38 39 -38q43 0 68 46.5t49 138.5q-30 -31 -60.5 -45t-73.5 -14q-50 0 -81.5 26.5t-31.5 80.5
q0 33 6.5 63.5t15.5 62.5q19 66 39 118t45.5 87t58 53.5t77.5 18.5q19 0 38 -3t34.5 -11t27 -21.5t16.5 -34.5l17 58h140zM305 378q0 22 -8.5 37.5t-33.5 15.5q-28 0 -48 -22t-33.5 -52t-22 -62t-14.5 -52q-7 -25 -13.5 -52t-6.5 -53q0 -21 8 -36t32 -15q25 0 44 17.5
t32.5 43t22 52.5t14.5 47q8 29 17.5 65t9.5 66zM335 725h91l-65 -143h-115z" />
    <glyph glyph-name="Hcircumflex" unicode="&#x124;" horiz-adv-x="622" 
d="M447 0h-152l93 324h-176l-93 -324h-152l208 723h152l-84 -293h176l84 293h152zM506 777l-52 84l-99 -84h-92l144 143h114l63 -143h-78z" />
    <glyph glyph-name="hcircumflex" unicode="&#x125;" horiz-adv-x="513" 
d="M471 427q0 -18 -3.5 -32.5t-8.5 -31.5l-104 -363h-141l96 335q4 14 7.5 29t3.5 30q0 38 -39 38q-20 0 -35.5 -10.5t-27.5 -26.5t-20.5 -35t-12.5 -35l-93 -325h-141l207 723h141l-77 -268q31 30 65 45.5t77 15.5q44 0 75 -21t31 -68zM312 777l-52 84l-99 -84h-92l144 143
h114l63 -143h-78z" />
    <glyph glyph-name="Hbar" unicode="&#x126;" horiz-adv-x="622" 
d="M293 603h176l34 120h152l-208 -723h-152l93 324h-176l-93 -324h-152l208 723h152zM263 499l-20 -69h176l20 69h-176z" />
    <glyph glyph-name="hbar" unicode="&#x127;" horiz-adv-x="513" 
d="M471 427q0 -18 -3.5 -32.5t-8.5 -31.5l-104 -363h-141l96 335q4 14 7.5 29t3.5 30q0 38 -39 38q-20 0 -35.5 -10.5t-27.5 -26.5t-20.5 -35t-12.5 -35l-93 -325h-141l164 574h-58l25 86h58l18 63h141l-18 -63h174l-25 -86h-174l-34 -119q31 30 65 45.5t77 15.5
q44 0 75 -21t31 -68z" />
    <glyph glyph-name="Itilde" unicode="&#x128;" horiz-adv-x="293" 
d="M119 0h-152l207 723h152zM475 906q-9 -21 -22.5 -41.5t-31.5 -37t-39.5 -26.5t-46.5 -10q-18 0 -35 5.5t-33.5 12.5t-33.5 12.5t-35 5.5q-19 0 -32.5 -13.5t-21.5 -29.5h-57q9 22 23 42.5t32 37t40 26.5t48 10q19 0 35.5 -6t31.5 -13t30 -13t31 -6q22 0 36.5 13t23.5 31
h57v0z" />
    <glyph glyph-name="itilde" unicode="&#x129;" horiz-adv-x="253" 
d="M94 0h-141l145 504h141zM399 711q-9 -21 -22.5 -41.5t-31.5 -37t-39.5 -26.5t-46.5 -10q-18 0 -35 5.5t-33.5 12.5t-33.5 12.5t-35 5.5q-19 0 -32.5 -13.5t-21.5 -29.5h-57q9 22 23 42.5t32 37t40 26.5t48 10q19 0 35.5 -6t31.5 -13t30 -13t31 -6q22 0 36.5 13t23.5 31
h57v0z" />
    <glyph glyph-name="Imacron" unicode="&#x12a;" horiz-adv-x="293" 
d="M119 0h-152l207 723h152zM416 807h-289l19 65h289z" />
    <glyph glyph-name="imacron" unicode="&#x12b;" horiz-adv-x="253" 
d="M94 0h-141l145 504h141zM342 622h-289l19 65h289z" />
    <glyph glyph-name="Ibreve" unicode="&#x12c;" horiz-adv-x="293" 
d="M119 0h-152l207 723h152zM460 922q-27 -69 -76 -105.5t-122 -36.5q-58 0 -93.5 25t-35.5 78q0 22 4 39h58v-11q0 -32 22.5 -48t61.5 -16q42 0 74 18.5t50 56.5h57v0z" />
    <glyph glyph-name="ibreve" unicode="&#x12d;" horiz-adv-x="253" 
d="M94 0h-141l145 504h141zM378 727q-27 -69 -76 -105.5t-122 -36.5q-58 0 -93.5 25t-35.5 78q0 22 4 39h58v-11q0 -32 22.5 -48t61.5 -16q42 0 74 18.5t50 56.5h57v0z" />
    <glyph glyph-name="Iogonek" unicode="&#x12e;" horiz-adv-x="293" 
d="M119 0q-32 -20 -53.5 -36t-35 -30t-19 -26.5t-5.5 -25.5q0 -31 40 -31q11 0 21.5 3t20.5 7l-6 -39q-21 -14 -44 -23t-52 -9q-31 0 -50 10.5t-19 36.5q0 45 40.5 85.5t103.5 77.5h-94l207 723h152z" />
    <glyph glyph-name="iogonek" unicode="&#x12f;" horiz-adv-x="253" 
d="M94 0q-32 -20 -53.5 -36t-35 -30t-19 -26.5t-5.5 -25.5q0 -31 40 -31q11 0 21.5 3t20.5 7l-6 -39q-21 -14 -44 -23t-52 -9q-31 0 -50 10.5t-19 36.5q0 45 40.5 85.5t103.5 77.5h-83l145 504h141zM267 604h-141l33 113h141z" />
    <glyph glyph-name="Idotaccent" unicode="&#x130;" horiz-adv-x="293" 
d="M119 0h-152l207 723h152zM322 789h-112l31 109h112z" />
    <glyph glyph-name="dotlessi" unicode="&#x131;" horiz-adv-x="253" 
d="M94 0h-141l145 504h141z" />
    <glyph glyph-name="Jcircumflex" unicode="&#x134;" horiz-adv-x="516" 
d="M411 221q-17 -60 -38.5 -104.5t-53 -73.5t-75.5 -43.5t-107 -14.5q-34 0 -65.5 7t-55.5 22t-38.5 39.5t-14.5 59.5q0 36 7 68t18 64h148q-3 -12 -7.5 -26.5t-8 -29.5t-6 -28.5t-2.5 -22.5q0 -46 45 -46q25 0 41.5 12t28.5 31.5t19.5 43t14.5 47.5l142 497h152zM562 777
l-52 84l-99 -84h-92l144 143h114l63 -143h-78z" />
    <glyph glyph-name="jcircumflex" unicode="&#x135;" horiz-adv-x="253" 
d="M81 -47q-14 -48 -31 -77t-41.5 -44.5t-58.5 -20.5t-82 -5h-15.5t-15.5 1l25 87q19 0 31.5 2.5t21 9t14.5 18.5t11 30l158 550h141zM260 582l-52 84l-99 -84h-92l144 143h114l63 -143h-78z" />
    <glyph glyph-name="Kcommaaccent" unicode="&#x136;" horiz-adv-x="573" 
d="M382 380l86 -380h-160l-73 394l254 329h177zM118 0h-151l207 723h151zM173 -215h-90l74 161h117z" />
    <glyph glyph-name="kcommaaccent" unicode="&#x137;" horiz-adv-x="475" 
d="M312 275l64 -275h-145l-54 285l177 219h162zM93 0h-141l207 723h141zM114 -215h-90l74 161h117z" />
    <glyph glyph-name="kgreenlandic" unicode="&#x138;" horiz-adv-x="475" 
d="M312 280l64 -280h-148l-51 285l176 219h158zM93 0h-141l144 504h141z" />
    <glyph glyph-name="Lacute" unicode="&#x139;" horiz-adv-x="464" 
d="M343 0h-376l207 723h151l-176 -615h225zM274 777h-86l122 143h145z" />
    <glyph glyph-name="lacute" unicode="&#x13a;" horiz-adv-x="253" 
d="M94 0h-141l207 723h141zM254 767h-86l122 143h145z" />
    <glyph glyph-name="Lcommaaccent" unicode="&#x13b;" horiz-adv-x="464" 
d="M343 0h-376l207 723h151l-176 -615h225zM121 -215h-90l74 161h117z" />
    <glyph glyph-name="lcommaaccent" unicode="&#x13c;" horiz-adv-x="253" 
d="M94 0h-141l207 723h141zM-22 -215h-90l74 161h117z" />
    <glyph glyph-name="Lcaron" unicode="&#x13d;" horiz-adv-x="464" 
d="M343 0h-376l207 723h151l-176 -615h225zM438 544h-94l66 179h129z" />
    <glyph glyph-name="lcaron" unicode="&#x13e;" horiz-adv-x="253" 
d="M94 0h-141l207 723h141zM396 544h-94l66 179h129z" />
    <glyph glyph-name="Ldot" unicode="&#x13f;" horiz-adv-x="464" 
d="M343 0h-376l207 723h151l-176 -615h225zM412 350h-112l31 109h112z" />
    <glyph glyph-name="ldot" unicode="&#x140;" horiz-adv-x="253" 
d="M94 0h-141l207 723h141zM352 323h-112l31 109h112z" />
    <glyph glyph-name="Lslash" unicode="&#x141;" horiz-adv-x="464" 
d="M358 447l-130 -68l-78 -271h225l-31 -108h-376l85 298l-75 -39l28 97l75 39l94 328h151l-70 -245l130 66z" />
    <glyph glyph-name="lslash" unicode="&#x142;" horiz-adv-x="252" 
d="M284 423l-82 -43l-109 -380h-141l87 302l-84 -45l22 78l84 44l98 344h141l-76 -266l82 43z" />
    <glyph glyph-name="Nacute" unicode="&#x143;" horiz-adv-x="653" 
d="M479 0h-217l7 618l-173 -618h-129l207 723h217l-6 -618l172 618h129zM458 777h-86l122 143h145z" />
    <glyph glyph-name="nacute" unicode="&#x144;" horiz-adv-x="513" 
d="M471 427q0 -18 -4 -34.5t-9 -33.5l-103 -359h-141l96 336q4 14 7.5 29t3.5 30q0 37 -39 37q-20 0 -36 -11t-27.5 -27t-19.5 -35.5t-13 -35.5l-93 -323h-141l121 423q6 20 11.5 40.5t8.5 40.5h143l-14 -51q31 32 65 47.5t78 15.5q21 0 40.5 -5t34 -15.5t23 -27.5t8.5 -41z
M331 582h-86l122 143h145z" />
    <glyph glyph-name="Ncommaaccent" unicode="&#x145;" horiz-adv-x="653" 
d="M479 0h-217l7 618l-173 -618h-129l207 723h217l-6 -618l172 618h129zM184 -215h-90l74 161h117z" />
    <glyph glyph-name="ncommaaccent" unicode="&#x146;" horiz-adv-x="513" 
d="M471 427q0 -18 -4 -34.5t-9 -33.5l-103 -359h-141l96 336q4 14 7.5 29t3.5 30q0 37 -39 37q-20 0 -36 -11t-27.5 -27t-19.5 -35.5t-13 -35.5l-93 -323h-141l121 423q6 20 11.5 40.5t8.5 40.5h143l-14 -51q31 32 65 47.5t78 15.5q21 0 40.5 -5t34 -15.5t23 -27.5t8.5 -41z
M113 -215h-90l74 161h117z" />
    <glyph glyph-name="Ncaron" unicode="&#x147;" horiz-adv-x="653" 
d="M479 0h-217l7 618l-173 -618h-129l207 723h217l-6 -618l172 618h129zM403 920l52 -84l99 84h92l-144 -143h-114l-63 143h78z" />
    <glyph glyph-name="ncaron" unicode="&#x148;" horiz-adv-x="513" 
d="M471 427q0 -18 -4 -34.5t-9 -33.5l-103 -359h-141l96 336q4 14 7.5 29t3.5 30q0 37 -39 37q-20 0 -36 -11t-27.5 -27t-19.5 -35.5t-13 -35.5l-93 -323h-141l121 423q6 20 11.5 40.5t8.5 40.5h143l-14 -51q31 32 65 47.5t78 15.5q21 0 40.5 -5t34 -15.5t23 -27.5t8.5 -41z
M282 725l52 -84l99 84h92l-144 -143h-114l-63 143h78z" />
    <glyph glyph-name="Eng" unicode="&#x14a;" horiz-adv-x="638" 
d="M451 -47q-23 -78 -72 -112.5t-121 -34.5q-17 0 -32.5 1t-29.5 3l27 91q12 -1 19 -1h16q52 0 67 54l12 44l-75 594l-166 -592h-129l207 723h192l51 -450l125 450h129z" />
    <glyph glyph-name="eng" unicode="&#x14b;" horiz-adv-x="513" 
d="M342 -47q-14 -48 -31 -77t-41.5 -44.5t-58.5 -20.5t-82 -5q-8 0 -15.5 0.5t-15.5 1.5l25 86q19 0 31.5 2.5t21 9t14.5 18.5t11 30l109 382q4 14 7.5 29t3.5 30q0 37 -39 37q-20 0 -36 -11t-27.5 -27t-19.5 -35.5t-13 -35.5l-93 -323h-141l121 423q6 20 11.5 40.5
t8.5 40.5h143l-14 -51q31 32 65 47.5t78 15.5q21 0 40.5 -5t34 -15.5t23 -27.5t8.5 -41q0 -13 -3.5 -30.5t-9.5 -37.5z" />
    <glyph glyph-name="Omacron" unicode="&#x14c;" horiz-adv-x="596" 
d="M594 585q0 -57 -14 -118t-30 -115q-24 -84 -46 -151.5t-57 -115.5t-92 -74t-150 -26q-40 0 -76.5 8t-64.5 27t-45 49.5t-17 75.5q0 55 12.5 104.5t27.5 102.5q22 78 44.5 148t59.5 123t95.5 84t152.5 31q40 0 76 -7t63.5 -24t44 -46.5t16.5 -75.5zM442 564q0 35 -16 51.5
t-51 16.5q-45 0 -74.5 -29.5t-49 -72t-32 -88.5t-21.5 -79q-6 -21 -14 -47.5t-15 -54.5t-12 -54.5t-5 -48.5q0 -35 16.5 -51t51.5 -16q34 0 57.5 15t40 38.5t27.5 52t20 55.5q10 29 18 57.5t16 57.5q6 20 13.5 45.5t14 52t11 52.5t4.5 47zM557 807h-289l19 65h289z" />
    <glyph glyph-name="omacron" unicode="&#x14d;" horiz-adv-x="485" 
d="M446 395q0 -35 -7 -67.5t-17 -65.5q-17 -60 -35.5 -110t-48 -86.5t-74.5 -57t-115 -20.5q-33 0 -63.5 5.5t-54 20t-37.5 38.5t-14 62q0 35 7 68.5t17 67.5q16 58 36 106.5t50.5 84t75.5 55.5t112 20q31 0 61.5 -5t54 -18.5t38 -37t14.5 -60.5zM308 386q0 44 -44 44
q-23 0 -40 -12t-29 -32.5t-21.5 -46.5t-17.5 -54l-27 -92q-5 -17 -9 -37t-4 -34q0 -23 10.5 -35.5t34.5 -12.5q41 0 62.5 34t39.5 97l29 102q5 18 10.5 41t5.5 38zM459 622h-289l19 65h289z" />
    <glyph glyph-name="Obreve" unicode="&#x14e;" horiz-adv-x="596" 
d="M594 585q0 -57 -14 -118t-30 -115q-24 -84 -46 -151.5t-57 -115.5t-92 -74t-150 -26q-40 0 -76.5 8t-64.5 27t-45 49.5t-17 75.5q0 55 12.5 104.5t27.5 102.5q22 78 44.5 148t59.5 123t95.5 84t152.5 31q40 0 76 -7t63.5 -24t44 -46.5t16.5 -75.5zM442 564q0 35 -16 51.5
t-51 16.5q-45 0 -74.5 -29.5t-49 -72t-32 -88.5t-21.5 -79q-6 -21 -14 -47.5t-15 -54.5t-12 -54.5t-5 -48.5q0 -35 16.5 -51t51.5 -16q34 0 57.5 15t40 38.5t27.5 52t20 55.5q10 29 18 57.5t16 57.5q6 20 13.5 45.5t14 52t11 52.5t4.5 47zM604 922q-27 -69 -76 -105.5
t-122 -36.5q-58 0 -93.5 25t-35.5 78q0 22 4 39h58v-11q0 -32 22.5 -48t61.5 -16q42 0 74 18.5t50 56.5h57v0z" />
    <glyph glyph-name="obreve" unicode="&#x14f;" horiz-adv-x="485" 
d="M446 395q0 -35 -7 -67.5t-17 -65.5q-17 -60 -35.5 -110t-48 -86.5t-74.5 -57t-115 -20.5q-33 0 -63.5 5.5t-54 20t-37.5 38.5t-14 62q0 35 7 68.5t17 67.5q16 58 36 106.5t50.5 84t75.5 55.5t112 20q31 0 61.5 -5t54 -18.5t38 -37t14.5 -60.5zM308 386q0 44 -44 44
q-23 0 -40 -12t-29 -32.5t-21.5 -46.5t-17.5 -54l-27 -92q-5 -17 -9 -37t-4 -34q0 -23 10.5 -35.5t34.5 -12.5q41 0 62.5 34t39.5 97l29 102q5 18 10.5 41t5.5 38zM505 727q-27 -69 -76 -105.5t-122 -36.5q-58 0 -93.5 25t-35.5 78q0 22 4 39h58v-11q0 -32 22.5 -48
t61.5 -16q42 0 74 18.5t50 56.5h57v0z" />
    <glyph glyph-name="Ohungarumlaut" unicode="&#x150;" horiz-adv-x="596" 
d="M594 585q0 -57 -14 -118t-30 -115q-24 -84 -46 -151.5t-57 -115.5t-92 -74t-150 -26q-40 0 -76.5 8t-64.5 27t-45 49.5t-17 75.5q0 55 12.5 104.5t27.5 102.5q22 78 44.5 148t59.5 123t95.5 84t152.5 31q40 0 76 -7t63.5 -24t44 -46.5t16.5 -75.5zM442 564q0 35 -16 51.5
t-51 16.5q-45 0 -74.5 -29.5t-49 -72t-32 -88.5t-21.5 -79q-6 -21 -14 -47.5t-15 -54.5t-12 -54.5t-5 -48.5q0 -35 16.5 -51t51.5 -16q34 0 57.5 15t40 38.5t27.5 52t20 55.5q10 29 18 57.5t16 57.5q6 20 13.5 45.5t14 52t11 52.5t4.5 47zM527 777h-82l131 143h137zM342 777
h-82l131 143h136z" />
    <glyph glyph-name="ohungarumlaut" unicode="&#x151;" horiz-adv-x="485" 
d="M446 395q0 -35 -7 -67.5t-17 -65.5q-17 -60 -35.5 -110t-48 -86.5t-74.5 -57t-115 -20.5q-33 0 -63.5 5.5t-54 20t-37.5 38.5t-14 62q0 35 7 68.5t17 67.5q16 58 36 106.5t50.5 84t75.5 55.5t112 20q31 0 61.5 -5t54 -18.5t38 -37t14.5 -60.5zM308 386q0 44 -44 44
q-23 0 -40 -12t-29 -32.5t-21.5 -46.5t-17.5 -54l-27 -92q-5 -17 -9 -37t-4 -34q0 -23 10.5 -35.5t34.5 -12.5q41 0 62.5 34t39.5 97l29 102q5 18 10.5 41t5.5 38zM426 582h-82l131 143h137zM241 582h-82l131 143h136z" />
    <glyph glyph-name="Racute" unicode="&#x154;" horiz-adv-x="596" 
d="M596 591q0 -39 -11 -78q-10 -35 -24.5 -61t-35 -44.5t-48 -31t-63.5 -19.5q38 -3 60.5 -24t22.5 -63q0 -32 -7.5 -64.5t-17.5 -66.5t-18.5 -69t-10.5 -70h-158q4 30 13 63l18 66t16 65t7 59q0 16 -6.5 26t-17 15t-24.5 7t-28 2h-58l-87 -303h-151l207 723h242q30 0 62 -6
t58.5 -21t43 -40.5t16.5 -64.5zM440 559q0 19 -7 30.5t-19 17.5t-27 8t-30 2h-62l-60 -210h54q62 0 94.5 24.5t49.5 84.5q3 11 5 21.5t2 21.5zM427 777h-86l122 143h145z" />
    <glyph glyph-name="racute" unicode="&#x155;" horiz-adv-x="331" 
d="M333 394q-3 1 -10 1.5t-13 0.5q-31 0 -53.5 -9t-38.5 -25t-27 -38.5t-19 -49.5l-79 -274h-141l117 409q7 23 13.5 47t12.5 48h135l-18 -65q31 39 65.5 57t84.5 18h5zM273 582h-86l122 143h145z" />
    <glyph glyph-name="Rcommaaccent" unicode="&#x156;" horiz-adv-x="596" 
d="M596 591q0 -39 -11 -78q-10 -35 -24.5 -61t-35 -44.5t-48 -31t-63.5 -19.5q38 -3 60.5 -24t22.5 -63q0 -32 -7.5 -64.5t-17.5 -66.5t-18.5 -69t-10.5 -70h-158q4 30 13 63l18 66t16 65t7 59q0 16 -6.5 26t-17 15t-24.5 7t-28 2h-58l-87 -303h-151l207 723h242q30 0 62 -6
t58.5 -21t43 -40.5t16.5 -64.5zM440 559q0 19 -7 30.5t-19 17.5t-27 8t-30 2h-62l-60 -210h54q62 0 94.5 24.5t49.5 84.5q3 11 5 21.5t2 21.5zM164 -215h-90l74 161h117z" />
    <glyph glyph-name="rcommaaccent" unicode="&#x157;" horiz-adv-x="331" 
d="M333 394q-3 1 -10 1.5t-13 0.5q-31 0 -53.5 -9t-38.5 -25t-27 -38.5t-19 -49.5l-79 -274h-141l117 409q7 23 13.5 47t12.5 48h135l-18 -65q31 39 65.5 57t84.5 18h5zM-23 -215h-90l74 161h117z" />
    <glyph glyph-name="Rcaron" unicode="&#x158;" horiz-adv-x="596" 
d="M596 591q0 -39 -11 -78q-10 -35 -24.5 -61t-35 -44.5t-48 -31t-63.5 -19.5q38 -3 60.5 -24t22.5 -63q0 -32 -7.5 -64.5t-17.5 -66.5t-18.5 -69t-10.5 -70h-158q4 30 13 63l18 66t16 65t7 59q0 16 -6.5 26t-17 15t-24.5 7t-28 2h-58l-87 -303h-151l207 723h242q30 0 62 -6
t58.5 -21t43 -40.5t16.5 -64.5zM440 559q0 19 -7 30.5t-19 17.5t-27 8t-30 2h-62l-60 -210h54q62 0 94.5 24.5t49.5 84.5q3 11 5 21.5t2 21.5zM362 920l52 -84l99 84h92l-144 -143h-114l-63 143h78z" />
    <glyph glyph-name="rcaron" unicode="&#x159;" horiz-adv-x="331" 
d="M333 394q-3 1 -10 1.5t-13 0.5q-31 0 -53.5 -9t-38.5 -25t-27 -38.5t-19 -49.5l-79 -274h-141l117 409q7 23 13.5 47t12.5 48h135l-18 -65q31 39 65.5 57t84.5 18h5zM209 725l52 -84l99 84h92l-144 -143h-114l-63 143h78z" />
    <glyph glyph-name="Sacute" unicode="&#x15a;" horiz-adv-x="533" 
d="M557 613q0 -26 -4.5 -46.5t-12.5 -45.5h-148l10 32t5 33q0 26 -17.5 36t-41.5 10q-21 0 -39.5 -7t-33 -20t-23 -31.5t-8.5 -41.5q0 -35 15.5 -59t49.5 -49l69 -51q35 -26 59.5 -61.5t24.5 -77.5q0 -43 -18.5 -91t-58.5 -85q-37 -35 -90 -54t-122 -19q-33 0 -67.5 5.5
t-63.5 20t-47.5 40.5t-18.5 68q0 29 4.5 52.5t12.5 51.5h150q-5 -19 -11 -38.5t-6 -39.5q0 -30 17.5 -42t46.5 -12q23 0 43.5 8.5t36.5 23.5t25 35.5t9 43.5q0 34 -15 57t-40 43l-79 61q-44 33 -63.5 69.5t-19.5 84.5q0 47 23 89.5t67 74.5q42 30 93 43.5t102 13.5
q31 0 63.5 -6.5t59.5 -21t44.5 -38.5t17.5 -59zM394 777h-86l122 143h145z" />
    <glyph glyph-name="sacute" unicode="&#x15b;" horiz-adv-x="442" 
d="M422 423q0 -16 -3.5 -31.5t-8.5 -30.5h-136q3 10 6 22t3 23q0 19 -12 27t-30 8q-26 0 -45 -19t-19 -46q0 -20 17 -36.5t43 -31.5l25 -14q18 -10 36 -21t31.5 -24.5t22 -29.5t8.5 -36q0 -23 -3.5 -41.5t-13.5 -38.5q-16 -34 -39.5 -56t-51.5 -34.5t-60.5 -17.5t-66.5 -5
q-25 0 -54.5 4t-54.5 15t-42 30.5t-17 50.5q0 18 4.5 35.5t9.5 34.5h137q-4 -12 -7 -24.5t-3 -25.5q0 -20 12.5 -29t32.5 -9q31 0 51 22.5t20 53.5q0 25 -19 41t-57 36l-22 12q-33 19 -58 45.5t-25 72.5q0 29 14.5 55.5t35.5 46.5q18 17 39.5 28.5t45 18t47 9.5t44.5 3
q24 0 52 -3t53 -13t41.5 -28.5t16.5 -48.5zM290 582h-86l122 143h145z" />
    <glyph glyph-name="Scircumflex" unicode="&#x15c;" horiz-adv-x="533" 
d="M557 613q0 -26 -4.5 -46.5t-12.5 -45.5h-148l10 32t5 33q0 26 -17.5 36t-41.5 10q-21 0 -39.5 -7t-33 -20t-23 -31.5t-8.5 -41.5q0 -35 15.5 -59t49.5 -49l69 -51q35 -26 59.5 -61.5t24.5 -77.5q0 -43 -18.5 -91t-58.5 -85q-37 -35 -90 -54t-122 -19q-33 0 -67.5 5.5
t-63.5 20t-47.5 40.5t-18.5 68q0 29 4.5 52.5t12.5 51.5h150q-5 -19 -11 -38.5t-6 -39.5q0 -30 17.5 -42t46.5 -12q23 0 43.5 8.5t36.5 23.5t25 35.5t9 43.5q0 34 -15 57t-40 43l-79 61q-44 33 -63.5 69.5t-19.5 84.5q0 47 23 89.5t67 74.5q42 30 93 43.5t102 13.5
q31 0 63.5 -6.5t59.5 -21t44.5 -38.5t17.5 -59zM462 777l-52 84l-99 -84h-92l144 143h114l63 -143h-78z" />
    <glyph glyph-name="scircumflex" unicode="&#x15d;" horiz-adv-x="442" 
d="M422 423q0 -16 -3.5 -31.5t-8.5 -30.5h-136q3 10 6 22t3 23q0 19 -12 27t-30 8q-26 0 -45 -19t-19 -46q0 -20 17 -36.5t43 -31.5l25 -14q18 -10 36 -21t31.5 -24.5t22 -29.5t8.5 -36q0 -23 -3.5 -41.5t-13.5 -38.5q-16 -34 -39.5 -56t-51.5 -34.5t-60.5 -17.5t-66.5 -5
q-25 0 -54.5 4t-54.5 15t-42 30.5t-17 50.5q0 18 4.5 35.5t9.5 34.5h137q-4 -12 -7 -24.5t-3 -25.5q0 -20 12.5 -29t32.5 -9q31 0 51 22.5t20 53.5q0 25 -19 41t-57 36l-22 12q-33 19 -58 45.5t-25 72.5q0 29 14.5 55.5t35.5 46.5q18 17 39.5 28.5t45 18t47 9.5t44.5 3
q24 0 52 -3t53 -13t41.5 -28.5t16.5 -48.5zM357 582l-52 84l-99 -84h-92l144 143h114l63 -143h-78z" />
    <glyph glyph-name="Scedilla" unicode="&#x15e;" horiz-adv-x="533" 
d="M260 -113q0 -27 -14 -48t-36 -35.5t-48 -22.5t-50 -8q-26 0 -51.5 6t-48.5 20l30 40q32 -16 66 -16q26 0 47 12.5t21 37.5q0 26 -40 26q-10 0 -19.5 -2t-18.5 -5l-17 19l65 75q-30 1 -60.5 8t-55 22.5t-39.5 40t-15 62.5q0 29 4.5 52.5t12.5 51.5h150q-5 -19 -11 -38.5
t-6 -39.5q0 -30 17.5 -42t46.5 -12q23 0 43.5 8.5t36.5 23.5t25 35.5t9 43.5q0 34 -15 57t-40 43l-79 61q-44 33 -63.5 69.5t-19.5 84.5q0 47 23 89.5t67 74.5q42 30 93 43.5t102 13.5q31 0 63.5 -6.5t59.5 -21t44.5 -38.5t17.5 -59q0 -26 -4.5 -46.5t-12.5 -45.5h-148
l10 32t5 33q0 26 -17.5 36t-41.5 10q-21 0 -39.5 -7t-33 -20t-23 -31.5t-8.5 -41.5q0 -35 15.5 -59t49.5 -49l69 -51q35 -26 59.5 -61.5t24.5 -77.5q0 -43 -18.5 -91t-58.5 -85q-33 -32 -79.5 -50t-106.5 -22l-37 -47q7 2 13.5 3t13.5 1q26 0 48.5 -13.5t22.5 -42.5z" />
    <glyph glyph-name="scedilla" unicode="&#x15f;" horiz-adv-x="442" 
d="M220 -113q0 -27 -14 -48t-36 -35.5t-48 -22.5t-50 -8q-26 0 -51.5 6t-48.5 20l30 40q32 -16 66 -16q26 0 47 12.5t21 37.5q0 26 -40 26q-10 0 -19.5 -2t-18.5 -5l-17 19l69 79q-25 1 -52 6t-49.5 16t-37 30t-14.5 48q0 18 4.5 35.5t9.5 34.5h137q-4 -12 -7 -24.5
t-3 -25.5q0 -20 12.5 -29t32.5 -9q31 0 51 22.5t20 53.5q0 25 -19 41t-57 36l-22 12q-33 19 -58 45.5t-25 72.5q0 29 14.5 55.5t35.5 46.5q18 17 39.5 28.5t45 18t47 9.5t44.5 3q24 0 52 -3t53 -13t41.5 -28.5t16.5 -48.5q0 -16 -3.5 -31.5t-8.5 -30.5h-136q3 10 6 22t3 23
q0 19 -12 27t-30 8q-26 0 -45 -19t-19 -46q0 -20 17 -36.5t43 -31.5l25 -14q18 -10 36 -21t31.5 -24.5t22 -29.5t8.5 -36q0 -23 -3.5 -41.5t-13.5 -38.5q-28 -58 -75 -82t-104 -29l-42 -53q7 2 13.5 3t13.5 1q26 0 48.5 -13.5t22.5 -42.5z" />
    <glyph glyph-name="uni0162" unicode="&#x162;" horiz-adv-x="491" 
d="M558 615h-163l-176 -615h-152l176 615h-164l31 108h479zM100 -215h-90l74 161h117z" />
    <glyph glyph-name="uni0163" unicode="&#x163;" horiz-adv-x="308" 
d="M309 418h-78l-78 -272q-2 -9 -4.5 -18.5t-2.5 -18.5q0 -18 12.5 -22.5t27.5 -4.5q8 0 15.5 1t15.5 2l-24 -86q-20 -4 -40.5 -5t-40.5 -1t-40 3t-36.5 11t-27 22.5t-10.5 37.5q0 17 2.5 32t7.5 31l83 288h-65l25 86h65l24 86l156 54l-40 -140h78zM6 -215h-90l74 161h117z
" />
    <glyph glyph-name="Tcaron" unicode="&#x164;" horiz-adv-x="491" 
d="M558 615h-163l-176 -615h-152l176 615h-164l31 108h479zM320 920l52 -84l99 84h92l-144 -143h-114l-63 143h78z" />
    <glyph glyph-name="tcaron" unicode="&#x165;" horiz-adv-x="308" 
d="M309 418h-78l-78 -272q-2 -9 -4.5 -18.5t-2.5 -18.5q0 -18 12.5 -22.5t27.5 -4.5q8 0 15.5 1t15.5 2l-24 -86q-20 -4 -40.5 -5t-40.5 -1t-40 3t-36.5 11t-27 22.5t-10.5 37.5q0 17 2.5 32t7.5 31l83 288h-65l25 86h65l24 86l156 54l-40 -140h78zM409 544h-94l66 179h129z
" />
    <glyph glyph-name="Tbar" unicode="&#x166;" horiz-adv-x="491" 
d="M478 423l-30 -104h-138l-91 -319h-152l91 319h-139l30 104h139l55 192h-164l31 108h479l-31 -108h-163l-55 -192h138z" />
    <glyph glyph-name="tbar" unicode="&#x167;" horiz-adv-x="308" 
d="M309 418h-78l-19 -64h79l-25 -86h-78l-35 -122q-2 -9 -4.5 -18.5t-2.5 -18.5q0 -18 12.5 -22.5t27.5 -4.5q8 0 15.5 1t15.5 2l-24 -86q-20 -4 -40.5 -5t-40.5 -1t-40 3t-36.5 11t-27 22.5t-10.5 37.5q0 17 2.5 32t7.5 31l40 138h-65l25 86h64l19 64h-65l25 86h65l24 86
l156 54l-40 -140h78z" />
    <glyph glyph-name="Utilde" unicode="&#x168;" horiz-adv-x="628" 
d="M528 238q-18 -64 -42.5 -111.5t-59.5 -79t-84.5 -47t-117.5 -15.5q-38 0 -75 5.5t-66.5 21.5t-48 44t-18.5 72q0 58 17 117l137 478h150l-134 -469q-7 -23 -13 -47.5t-6 -48.5q0 -35 18 -51t53 -16t59 14t40.5 37t27.5 51t19 57l135 473h148zM642 906q-9 -21 -22.5 -41.5
t-31.5 -37t-39.5 -26.5t-46.5 -10q-18 0 -35 5.5t-33.5 12.5t-33.5 12.5t-35 5.5q-19 0 -32.5 -13.5t-21.5 -29.5h-57q9 22 23 42.5t32 37t40 26.5t48 10q19 0 35.5 -6t31.5 -13t30 -13t31 -6q22 0 36.5 13t23.5 31h57v0z" />
    <glyph glyph-name="utilde" unicode="&#x169;" horiz-adv-x="512" 
d="M377 82q-12 -41 -20 -82h-142l14 54q-30 -32 -61 -48t-75 -16q-22 0 -42 4t-35.5 14t-25 26.5t-9.5 40.5q0 16 2 29.5t7 28.5l106 371h141l-97 -335q-4 -14 -7.5 -28.5t-3.5 -29.5q0 -20 11 -29t31 -9t35 10t26 25.5t18.5 33.5t12.5 35l94 327h141zM531 711
q-9 -21 -22.5 -41.5t-31.5 -37t-39.5 -26.5t-46.5 -10q-18 0 -35 5.5t-33.5 12.5t-33.5 12.5t-35 5.5q-19 0 -32.5 -13.5t-21.5 -29.5h-57q9 22 23 42.5t32 37t40 26.5t48 10q19 0 35.5 -6t31.5 -13t30 -13t31 -6q22 0 36.5 13t23.5 31h57v0z" />
    <glyph glyph-name="Umacron" unicode="&#x16a;" horiz-adv-x="628" 
d="M528 238q-18 -64 -42.5 -111.5t-59.5 -79t-84.5 -47t-117.5 -15.5q-38 0 -75 5.5t-66.5 21.5t-48 44t-18.5 72q0 58 17 117l137 478h150l-134 -469q-7 -23 -13 -47.5t-6 -48.5q0 -35 18 -51t53 -16t59 14t40.5 37t27.5 51t19 57l135 473h148zM583 807h-289l19 65h289z
" />
    <glyph glyph-name="umacron" unicode="&#x16b;" horiz-adv-x="512" 
d="M377 82q-12 -41 -20 -82h-142l14 54q-30 -32 -61 -48t-75 -16q-22 0 -42 4t-35.5 14t-25 26.5t-9.5 40.5q0 16 2 29.5t7 28.5l106 371h141l-97 -335q-4 -14 -7.5 -28.5t-3.5 -29.5q0 -20 11 -29t31 -9t35 10t26 25.5t18.5 33.5t12.5 35l94 327h141zM474 622h-289l19 65
h289z" />
    <glyph glyph-name="Ubreve" unicode="&#x16c;" horiz-adv-x="628" 
d="M528 238q-18 -64 -42.5 -111.5t-59.5 -79t-84.5 -47t-117.5 -15.5q-38 0 -75 5.5t-66.5 21.5t-48 44t-18.5 72q0 58 17 117l137 478h150l-134 -469q-7 -23 -13 -47.5t-6 -48.5q0 -35 18 -51t53 -16t59 14t40.5 37t27.5 51t19 57l135 473h148zM620 922q-27 -69 -76 -105.5
t-122 -36.5q-58 0 -93.5 25t-35.5 78q0 22 4 39h58v-11q0 -32 22.5 -48t61.5 -16q42 0 74 18.5t50 56.5h57v0z" />
    <glyph glyph-name="ubreve" unicode="&#x16d;" horiz-adv-x="512" 
d="M377 82q-12 -41 -20 -82h-142l14 54q-30 -32 -61 -48t-75 -16q-22 0 -42 4t-35.5 14t-25 26.5t-9.5 40.5q0 16 2 29.5t7 28.5l106 371h141l-97 -335q-4 -14 -7.5 -28.5t-3.5 -29.5q0 -20 11 -29t31 -9t35 10t26 25.5t18.5 33.5t12.5 35l94 327h141zM510 727
q-27 -69 -76 -105.5t-122 -36.5q-58 0 -93.5 25t-35.5 78q0 22 4 39h58v-11q0 -32 22.5 -48t61.5 -16q42 0 74 18.5t50 56.5h57v0z" />
    <glyph glyph-name="Uring" unicode="&#x16e;" horiz-adv-x="628" 
d="M528 238q-18 -64 -42.5 -111.5t-59.5 -79t-84.5 -47t-117.5 -15.5q-38 0 -75 5.5t-66.5 21.5t-48 44t-18.5 72q0 58 17 117l137 478h150l-134 -469q-7 -23 -13 -47.5t-6 -48.5q0 -35 18 -51t53 -16t59 14t40.5 37t27.5 51t19 57l135 473h148zM533 853q0 -43 -29.5 -72.5
t-73.5 -29.5q-21 0 -40 8t-33 21.5t-22 32.5t-8 40t8 40t22 32.5t33 21.5t40 8q44 0 73.5 -29.5t29.5 -72.5zM487 853q0 26 -16 42.5t-41 16.5q-24 0 -40 -16.5t-16 -42.5t16 -43t40 -17q25 0 41 17t16 43z" />
    <glyph glyph-name="uring" unicode="&#x16f;" horiz-adv-x="512" 
d="M377 82q-12 -41 -20 -82h-142l14 54q-30 -32 -61 -48t-75 -16q-22 0 -42 4t-35.5 14t-25 26.5t-9.5 40.5q0 16 2 29.5t7 28.5l106 371h141l-97 -335q-4 -14 -7.5 -28.5t-3.5 -29.5q0 -20 11 -29t31 -9t35 10t26 25.5t18.5 33.5t12.5 35l94 327h141zM414 668
q0 -43 -29.5 -72.5t-73.5 -29.5q-21 0 -40 8t-33 21.5t-22 32.5t-8 40t8 40t22 32.5t33 21.5t40 8q44 0 73.5 -29.5t29.5 -72.5zM368 668q0 26 -16 42.5t-41 16.5q-24 0 -40 -16.5t-16 -42.5t16 -43t40 -17q25 0 41 17t16 43z" />
    <glyph glyph-name="Uhungarumlaut" unicode="&#x170;" horiz-adv-x="628" 
d="M528 238q-18 -64 -42.5 -111.5t-59.5 -79t-84.5 -47t-117.5 -15.5q-38 0 -75 5.5t-66.5 21.5t-48 44t-18.5 72q0 58 17 117l137 478h150l-134 -469q-7 -23 -13 -47.5t-6 -48.5q0 -35 18 -51t53 -16t59 14t40.5 37t27.5 51t19 57l135 473h148zM553 777h-82l131 143h137z
M368 777h-82l131 143h136z" />
    <glyph glyph-name="uhungarumlaut" unicode="&#x171;" horiz-adv-x="512" 
d="M377 82q-12 -41 -20 -82h-142l14 54q-30 -32 -61 -48t-75 -16q-22 0 -42 4t-35.5 14t-25 26.5t-9.5 40.5q0 16 2 29.5t7 28.5l106 371h141l-97 -335q-4 -14 -7.5 -28.5t-3.5 -29.5q0 -20 11 -29t31 -9t35 10t26 25.5t18.5 33.5t12.5 35l94 327h141zM441 582h-82l131 143
h137zM256 582h-82l131 143h136z" />
    <glyph glyph-name="Uogonek" unicode="&#x172;" horiz-adv-x="628" 
d="M528 238q-17 -59 -38.5 -103.5t-52 -76t-72 -49t-97.5 -22.5q-52 -34 -72 -57.5t-20 -47.5q0 -31 40 -31q11 0 21.5 3t20.5 7l-6 -39q-21 -14 -44 -23t-52 -9q-31 0 -50 10.5t-19 36.5q0 40 32.5 77t86.5 71q-36 1 -70 8t-60.5 23t-43 43t-16.5 69q0 58 17 117l137 478
h150l-134 -469q-7 -23 -13 -47.5t-6 -48.5q0 -35 18 -51t53 -16t59 14t40.5 37t27.5 51t19 57l135 473h148z" />
    </font>
</defs>
</svg>
