<?xml version="1.0" standalone="no"?>
<!DOCTYPE svg PUBLIC "-//W3C//DTD SVG 1.1//EN" "http://www.w3.org/Graphics/SVG/1.1/DTD/svg11.dtd" >
<svg xmlns="http://www.w3.org/2000/svg" xmlns:xlink="http://www.w3.org/1999/xlink" version="1.1">
<metadata>
Created by FontForge 20201107 at Tue Feb  9 13:59:28 2010
 By Jimmy Wärting
Copyright (c) 2010 Linotype GmbH, www.linotype.com. All rights reserved. This font software may not be reproduced, modified, disclosed or transferred without the express written approval of Linotype GmbH. Univers is a trademark of Linotype Corp. registered in the U.S. Patent and Trademark Office and may be registered in certain other jurisdictions in the name of Linotype Corp. or its licensee Linotype GmbH. This typeface is original artwork of Adrian Frutiger and Linotype Design Studio. The design may be protected in certain jurisdictions.
</metadata>
<defs>
<font id="UniversNextPro-LightExtIt" horiz-adv-x="716" >
  <font-face 
    font-family="Univers Next Pro Light Ext"
    font-weight="300"
    font-style="italic"
    font-stretch="expanded"
    units-per-em="1000"
    panose-1="2 11 4 5 3 2 2 9 2 3"
    ascent="750"
    descent="-250"
    x-height="503"
    cap-height="722"
    bbox="-344 -214 1302 941"
    underline-thickness="50"
    underline-position="-100"
    slope="-16"
    unicode-range="U+000D-FB04"
  />
<missing-glyph horiz-adv-x="512" 
d="M222 117v67h56v-67h-56zM223 234v17q0 27 3 46.5t10 35t18 29t28 29.5q16 16 26 28t15 22t7 19t2 20q0 36 -22.5 57.5t-53.5 21.5t-53.5 -22t-28.5 -73l-50 8q7 72 44 104.5t91 32.5q27 0 49.5 -9t39 -25t26 -39.5t9.5 -51.5q0 -17 -2.5 -32.5t-9.5 -30.5t-19.5 -30
t-31.5 -33q-16 -14 -25.5 -25t-15 -22t-7 -23.5t-1.5 -29.5v-24h-48zM462 50v617h-412v-617h412zM512 718v-718h-512v718h512z" />
    <glyph glyph-name="IJ" unicode="IJ" horiz-adv-x="968" 
d="M79 0h-70l208 722h70zM836 253q-40 -139 -125.5 -203.5t-221.5 -64.5q-36 0 -74.5 7t-70 24.5t-52 46t-20.5 71.5q0 14 1 27.5t5 27.5h73q-5 -22 -5 -43q0 -32 14 -52.5t35.5 -32t48.5 -16t54 -4.5q108 0 174.5 59t95.5 160l132 462h70z" />
    <glyph glyph-name="ij" unicode="ij" horiz-adv-x="522" 
d="M244 640h-66l24 82h66zM61 0h-66l144 503h67zM505 640h-66l23 82h67zM301 -73q-10 -36 -24.5 -60.5t-35.5 -40t-49 -22t-64 -6.5q-16 0 -33.5 1t-33.5 3l15 51q25 -3 52 -3q28 0 46.5 6t31 18.5t20.5 31.5t15 44l158 553h67z" />
    <glyph glyph-name="napostrophe" unicode="&#x22;n" horiz-adv-x="691" 
d="M594 376q0 -26 -5 -48.5t-12 -45.5l-81 -282h-66l80 281q7 24 11 44.5t4 40.5q0 29 -10 49t-27 32t-40 17.5t-49 5.5q-50 0 -92.5 -16.5t-76.5 -45.5t-58.5 -68t-37.5 -85l-73 -255h-66l109 383q9 32 17 61.5t15 58.5h63l-28 -108q45 59 104 91t139 32q36 0 68.5 -7.5
t57 -24t39.5 -44t15 -66.5zM70 551h-54l75 171h77z" />
    <glyph glyph-name="f_f" unicode="ff" horiz-adv-x="768" 
d="M464 676q-29 6 -57 6q-38 0 -62.5 -12t-40.5 -32t-25.5 -45.5t-16.5 -51.5l-10 -38h151l-14 -48h-152l-130 -455h-66l130 455h-131l14 48h131l12 41q12 41 27 75.5t39 59t58.5 38t85.5 13.5q35 0 71 -6zM848 676q-29 6 -57 6q-38 0 -62.5 -12t-40.5 -32t-25.5 -45.5
t-16.5 -51.5l-10 -38h151l-14 -48h-152l-130 -455h-66l130 455h-131l14 48h131l12 41q12 41 27 75.5t39 59t58.5 38t85.5 13.5q35 0 71 -6z" />
    <glyph glyph-name="fi" unicode="fi" horiz-adv-x="629" 
d="M464 676q-29 6 -57 6q-38 0 -62.5 -12t-40.5 -32t-25.5 -45.5t-16.5 -51.5l-10 -38h151l-14 -48h-152l-130 -455h-66l130 455h-131l14 48h131l12 41q12 41 27 75.5t39 59t58.5 38t85.5 13.5q35 0 71 -6zM612 640h-66l24 82h66zM429 0h-66l144 503h67z" />
    <glyph glyph-name="fl" unicode="fl" horiz-adv-x="629" 
d="M464 676q-29 6 -57 6q-38 0 -62.5 -12t-40.5 -32t-25.5 -45.5t-16.5 -51.5l-10 -38h151l-14 -48h-152l-130 -455h-66l130 455h-131l14 48h131l12 41q12 41 27 75.5t39 59t58.5 38t85.5 13.5q35 0 71 -6zM429 0h-66l207 722h66z" />
    <glyph glyph-name="f_f_i" unicode="ffi" horiz-adv-x="1012" 
d="M464 676q-29 6 -57 6q-38 0 -62.5 -12t-40.5 -32t-25.5 -45.5t-16.5 -51.5l-10 -38h151l-14 -48h-152l-130 -455h-66l130 455h-131l14 48h131l12 41q12 41 27 75.5t39 59t58.5 38t85.5 13.5q35 0 71 -6zM848 676q-29 6 -57 6q-38 0 -62.5 -12t-40.5 -32t-25.5 -45.5
t-16.5 -51.5l-10 -38h151l-14 -48h-152l-130 -455h-66l130 455h-131l14 48h131l12 41q12 41 27 75.5t39 59t58.5 38t85.5 13.5q35 0 71 -6zM995 640h-66l24 82h66zM812 0h-66l144 503h67z" />
    <glyph glyph-name="f_f_l" unicode="ffl" horiz-adv-x="1013" 
d="M464 676q-29 6 -57 6q-38 0 -62.5 -12t-40.5 -32t-25.5 -45.5t-16.5 -51.5l-10 -38h151l-14 -48h-152l-130 -455h-66l130 455h-131l14 48h131l12 41q12 41 27 75.5t39 59t58.5 38t85.5 13.5q35 0 71 -6zM848 676q-29 6 -57 6q-38 0 -62.5 -12t-40.5 -32t-25.5 -45.5
t-16.5 -51.5l-10 -38h151l-14 -48h-152l-130 -455h-66l130 455h-131l14 48h131l12 41q12 41 27 75.5t39 59t58.5 38t85.5 13.5q35 0 71 -6zM813 0h-66l207 722h66z" />
    <glyph glyph-name=".notdef" horiz-adv-x="512" 
d="M222 117v67h56v-67h-56zM223 234v17q0 27 3 46.5t10 35t18 29t28 29.5q16 16 26 28t15 22t7 19t2 20q0 36 -22.5 57.5t-53.5 21.5t-53.5 -22t-28.5 -73l-50 8q7 72 44 104.5t91 32.5q27 0 49.5 -9t39 -25t26 -39.5t9.5 -51.5q0 -17 -2.5 -32.5t-9.5 -30.5t-19.5 -30
t-31.5 -33q-16 -14 -25.5 -25t-15 -22t-7 -23.5t-1.5 -29.5v-24h-48zM462 50v617h-412v-617h412zM512 718v-718h-512v718h512z" />
    <glyph glyph-name="nonmarkingreturn" unicode="&#xd;" horiz-adv-x="0" 
 />
    <glyph glyph-name="space" unicode=" " horiz-adv-x="358" 
 />
    <glyph glyph-name="exclam" unicode="!" horiz-adv-x="470" 
d="M207 167h-55l148 556h78zM169 0h-74l24 84h74z" />
    <glyph glyph-name="quotedbl" unicode="&#x22;" horiz-adv-x="493" 
d="M400 484h-54l-3 239h60zM222 484h-54l-3 239h60z" />
    <glyph glyph-name="numbersign" unicode="#" 
d="M140 495h114l77 227h58l-77 -227h183l77 227h58l-77 -227h105l-10 -51h-113l-55 -164h105l-10 -51h-113l-77 -229h-58l77 229h-183l-77 -229h-58l77 229h-106l10 51h114l55 164h-106zM239 280h183l55 164h-183z" />
    <glyph glyph-name="dollar" unicode="$" 
d="M688 589v-19t-2 -19h-68q1 6 2 12.5t1 12.5q0 30 -12.5 49.5t-32.5 31t-44.5 16.5t-48.5 7l-81 -284l58 -15q33 -8 61.5 -19.5t49.5 -28t33.5 -40t12.5 -56.5q0 -72 -31.5 -120t-80 -77t-107.5 -41.5t-113 -13.5l-26 -90h-43l26 91q-2 0 -4.5 -0.5t-3.5 0.5
q-38 0 -75.5 7t-67.5 25.5t-48.5 50t-18.5 80.5q0 27 4 50h68q-2 -9 -3.5 -18.5t-1.5 -18.5q0 -38 15 -61t39 -36.5t53.5 -18.5t59.5 -5l86 300l-88 23q-24 6 -47 17t-41 27.5t-29 39.5t-11 53q0 66 31 111.5t79.5 73t106.5 39.5t112 12l23 80h43l-24 -82q32 -3 65.5 -10.5
t61 -23.5t45 -43t17.5 -69zM441 681q-36 -1 -79 -9t-80.5 -27.5t-62.5 -51t-25 -79.5q0 -35 28.5 -57t73.5 -33l66 -17zM548 220q0 24 -11 40.5t-27.5 27.5t-35.5 17.5t-36 11.5l-54 14l-83 -289q42 3 86 12.5t80 30t58.5 53.5t22.5 82z" />
    <glyph glyph-name="percent" unicode="%" horiz-adv-x="943" 
d="M869 239q0 -48 -16 -93.5t-45.5 -81t-71 -57t-91.5 -21.5q-57 0 -94.5 32t-37.5 91q0 47 16.5 92.5t46.5 81t71.5 57t90.5 21.5q57 0 94 -31t37 -91zM443 616q0 -48 -16 -93.5t-45.5 -81t-71 -57t-91.5 -21.5q-57 0 -94.5 32t-37.5 91q0 47 16.5 92t46.5 80.5t71 57
t90 21.5q57 0 94.5 -30.5t37.5 -90.5zM816 234q0 41 -22 62.5t-63 21.5q-37 0 -67 -19t-51.5 -48t-33.5 -65t-12 -69q0 -40 21 -64.5t63 -24.5q38 0 68.5 19t52 49t33 66.5t11.5 71.5zM389 611q0 41 -22 62.5t-63 21.5q-37 0 -67 -19t-51.5 -48t-33.5 -65t-12 -69
q0 -40 21 -64.5t63 -24.5q38 0 68.5 19t52 49t33 66.5t11.5 71.5zM97 -46h-56l844 814h54z" />
    <glyph glyph-name="ampersand" unicode="&#x26;" horiz-adv-x="788" 
d="M784 358h-134l-103 -358h-290q-42 0 -88.5 6t-85.5 23.5t-64 48.5t-25 81q0 45 17.5 84t49.5 70q35 33 81.5 51t97.5 25q-24 4 -45 13t-36.5 24t-25 35t-9.5 46q0 44 17 82.5t49 68.5q45 43 109.5 61.5t129.5 18.5q38 0 72.5 -2.5t73.5 -9.5l-17 -57q-36 8 -65 11t-64 3
q-52 0 -104 -15t-87 -50q-21 -21 -33 -49t-12 -58q0 -35 22.5 -54.5t54.5 -29t67 -11.5t61 -2h201l48 166h66l-48 -166h135zM362 357q-36 0 -73 -2t-70.5 -10t-63 -24t-50.5 -44q-17 -23 -27 -51.5t-10 -57.5q0 -41 23 -64t57.5 -34t76 -13t77.5 -2h195l86 302h-221z" />
    <glyph glyph-name="quotesingle" unicode="'" horiz-adv-x="317" 
d="M222 484h-54l-3 239h60z" />
    <glyph glyph-name="parenleft" unicode="(" horiz-adv-x="338" 
d="M387 722q-58 -75 -109 -150t-89.5 -153t-60.5 -162t-22 -177q0 -28 2.5 -62t7 -69.5t10.5 -69t12 -60.5h-58q-8 30 -14.5 65.5t-11.5 72.5t-8 72.5t-3 67.5q0 94 23.5 177t63 159.5t90.5 147.5t107 141h60v0z" />
    <glyph glyph-name="parenright" unicode=")" horiz-adv-x="337" 
d="M258 474q0 -95 -23.5 -183t-63 -169.5t-91.5 -157t-108 -145.5h-61q58 74 109.5 152t90.5 162t61.5 173.5t22.5 185.5q0 57 -8 116t-20 114h57q16 -61 25 -123t9 -125z" />
    <glyph glyph-name="asterisk" unicode="*" horiz-adv-x="480" 
d="M303 542l90 -130l-45 -26l-68 141l-68 -141l-45 26l90 130l-158 -13v52l158 -13l-91 132l48 27l66 -144l66 144l48 -27l-91 -132l157 13v-51z" />
    <glyph glyph-name="plus" unicode="+" horiz-adv-x="661" 
d="M331 220v-220h-64v220h-240v60h240v220h64v-220h241v-60h-241z" />
    <glyph glyph-name="comma" unicode="," horiz-adv-x="358" 
d="M16 -110h-55l111 194h83z" />
    <glyph glyph-name="hyphen" unicode="-" horiz-adv-x="374" 
d="M304 238h-298l17 60h298z" />
    <glyph glyph-name="period" unicode="." horiz-adv-x="358" 
d="M116 0h-75l25 84h74z" />
    <glyph glyph-name="slash" unicode="/" horiz-adv-x="385" 
d="M-35 -15h-67l523 752h66z" />
    <glyph glyph-name="zero" unicode="0" 
d="M687 531q0 -40 -10 -85t-26 -89t-36.5 -85.5t-40.5 -73.5q-28 -45 -58 -84t-67 -67.5t-83 -45t-106 -16.5q-52 0 -94.5 12t-73 37t-47 64.5t-16.5 93.5q0 40 9.5 84.5t25.5 88t35.5 84t40.5 73.5q27 43 58 82t69 68.5t85 47t104 17.5q52 0 94.5 -12t73 -37.5t47 -64
t16.5 -92.5zM616 520q0 85 -41.5 123.5t-121.5 38.5q-40 0 -76.5 -15t-68 -39.5t-57.5 -55t-45 -61.5q-20 -32 -39 -71.5t-34 -81t-24.5 -82.5t-9.5 -76q0 -83 42 -121.5t120 -38.5q47 0 84.5 15t67.5 40t54.5 57t45.5 65q19 30 37.5 67.5t33 78t23.5 81t9 76.5z" />
    <glyph glyph-name="one" unicode="1" 
d="M328 0h-70l185 647q-54 -42 -113.5 -71.5t-123.5 -51.5l20 67q131 48 244 131h65z" />
    <glyph glyph-name="two" unicode="2" 
d="M675 576q0 -47 -19 -91t-52 -84.5t-79 -77t-100 -68.5l-335 -198h467l-16 -57h-572l19 64l401 239q98 59 156 125.5t58 139.5q0 32 -14 54t-36.5 35t-50 18.5t-54.5 5.5q-39 0 -75.5 -9.5t-67.5 -28.5t-55.5 -47.5t-38.5 -66.5h-72q18 53 49.5 92t72.5 65t90 38.5
t102 12.5q39 0 78.5 -8t71.5 -27t52 -50t20 -76z" />
    <glyph glyph-name="three" unicode="3" 
d="M676 594q0 -44 -17 -81t-45.5 -65.5t-65.5 -47t-76 -25.5q25 -5 48 -15.5t40 -26.5t27.5 -38.5t10.5 -52.5q0 -62 -27.5 -110t-74.5 -81t-110 -50t-133 -17q-35 0 -77.5 6t-80 22.5t-62.5 46.5t-25 77q0 15 1.5 27.5t5.5 26.5h72q-3 -10 -5 -20.5t-2 -20.5q0 -34 18 -55
t44 -33t56.5 -16t56.5 -4q66 0 118 16t94 53q26 23 42 55t16 69q0 31 -15 52.5t-39 34.5t-53.5 19t-58.5 6h-92l16 57h89q37 0 78.5 11t75.5 33t56.5 55t22.5 78q0 31 -15.5 50.5t-38.5 30.5t-51 15.5t-52 4.5q-36 0 -72.5 -7t-68 -23t-56.5 -41.5t-39 -62.5h-72
q16 51 48 87t74 59t91 33.5t99 10.5q34 0 73.5 -6t73 -22t55.5 -44t22 -71z" />
    <glyph glyph-name="four" unicode="4" 
d="M639 178h-143l-51 -178h-66l51 178h-438l22 72l557 472h81l-139 -490h142zM75 232h371l118 419z" />
    <glyph glyph-name="five" unicode="5" 
d="M689 665h-416l-99 -279q28 26 55.5 43t55.5 27.5t58.5 14.5t65.5 4q41 0 79 -10t67.5 -30.5t47 -52.5t17.5 -77q0 -74 -28 -133t-76.5 -100.5t-113 -64t-136.5 -22.5q-36 0 -78 6.5t-79 23.5t-61.5 45t-24.5 72q0 14 0.5 24.5t4.5 23.5h71q-4 -15 -4 -34
q0 -33 17.5 -53.5t43.5 -32t56 -15.5t56 -4q52 0 102.5 16.5t90 49t63.5 79.5t24 108q0 36 -14 60t-37 38.5t-52.5 21t-60.5 6.5q-72 0 -133.5 -27t-100.5 -88h-68l143 417h480z" />
    <glyph glyph-name="six" unicode="6" 
d="M706 591q0 -14 -2 -24.5t-5 -23.5h-69q2 8 3 18t1 18q0 32 -13.5 52t-34.5 31t-47.5 15t-53.5 4q-65 0 -116 -21t-92 -62q-54 -54 -88.5 -127t-52.5 -144q50 73 121.5 104.5t156.5 31.5q40 0 80 -10t71 -31.5t50.5 -55t19.5 -79.5q0 -66 -29 -124t-72 -94
q-58 -49 -119.5 -66.5t-133.5 -17.5q-49 0 -91.5 11.5t-74 36t-49.5 63t-18 92.5q0 59 13 122.5t37.5 124t60 114.5t79.5 93q107 95 256 95q36 0 74 -6.5t68.5 -23t50 -45t19.5 -71.5zM562 277q0 36 -15 60.5t-39.5 40t-55 22t-61.5 6.5q-48 0 -96.5 -16t-87.5 -45.5
t-63.5 -70.5t-24.5 -92q0 -36 14 -62.5t37.5 -44t53.5 -26t63 -8.5q66 0 119 22.5t94 64.5q28 29 45 67.5t17 81.5z" />
    <glyph glyph-name="seven" unicode="7" 
d="M699 659l-535 -659h-86l547 662h-477l18 60h551z" />
    <glyph glyph-name="eight" unicode="8" 
d="M693 590q0 -45 -18.5 -81t-49.5 -63t-70 -44.5t-80 -24.5q28 -5 54 -16t46 -28.5t32 -42.5t12 -56q0 -48 -19 -87.5t-51 -69.5q-54 -50 -122.5 -71t-162.5 -21q-45 0 -90 8t-81 27.5t-58.5 51.5t-22.5 80t21.5 87t56 68t78 46.5t88.5 23.5q-24 5 -45 15.5t-37 26
t-25.5 36.5t-9.5 47q0 41 16.5 77t43.5 63q49 49 118.5 72t144.5 23q35 0 75.5 -6t75 -22.5t57.5 -45t23 -73.5zM622 578q0 32 -16.5 52t-41.5 31.5t-54.5 15.5t-54.5 4q-26 0 -53.5 -4t-54.5 -13t-51.5 -22.5t-43.5 -32.5q-20 -20 -33 -46t-13 -55q0 -31 17.5 -51.5
t43 -32.5t55.5 -16.5t54 -4.5q38 0 81.5 10t80 31.5t60.5 54.5t24 79zM549 229q0 36 -19 59t-47.5 35.5t-61.5 17.5t-60 5q-42 0 -91 -10t-90.5 -32.5t-69 -58t-27.5 -87.5q0 -38 20 -61t49 -35.5t61.5 -16.5t58.5 -4q72 0 130.5 18.5t100.5 62.5q20 21 33 48t13 59z" />
    <glyph glyph-name="nine" unicode="9" 
d="M683 535q0 -66 -13 -128t-35.5 -118t-52 -104t-61.5 -84q-19 -21 -44.5 -42t-58.5 -37.5t-74 -26.5t-90 -10q-39 0 -80 7t-74.5 24.5t-55 46.5t-21.5 73q0 13 2 24.5t4 22.5h70q-2 -8 -3 -17.5t-1 -18.5q0 -33 15.5 -54t39.5 -32.5t52.5 -15.5t54.5 -4q63 0 112 22.5
t86 59.5q28 28 50 62t39 70t30 74t24 76q-47 -73 -119.5 -104t-163.5 -31q-41 0 -80.5 11t-70.5 33t-49.5 55t-18.5 78q0 70 30 124t79 91t111 56t125 19q50 0 94 -12t77 -37t52 -63t19 -90zM610 549q0 36 -15 61.5t-39.5 41t-55.5 22.5t-64 7q-48 0 -96 -15t-86.5 -44.5
t-62 -71.5t-23.5 -96q0 -36 15.5 -60.5t40 -39.5t55 -21.5t60.5 -6.5q49 0 97.5 15.5t87 44t62.5 70t24 93.5z" />
    <glyph glyph-name="colon" unicode=":" horiz-adv-x="358" 
d="M236 420h-75l25 84h74zM116 0h-75l25 84h74z" />
    <glyph glyph-name="semicolon" unicode=";" horiz-adv-x="358" 
d="M242 420h-75l24 84h75zM15 -110h-54l109 194h83z" />
    <glyph glyph-name="less" unicode="&#x3c;" horiz-adv-x="661" 
d="M27 219v61l545 208v-63l-471 -176l471 -175v-64z" />
    <glyph glyph-name="equal" unicode="=" horiz-adv-x="661" 
d="M27 321v61h545v-61h-545zM27 120v60h545v-60h-545z" />
    <glyph glyph-name="greater" unicode="&#x3e;" horiz-adv-x="661" 
d="M27 10v64l471 175l-471 176v63l545 -208v-61z" />
    <glyph glyph-name="question" unicode="?" horiz-adv-x="571" 
d="M555 614q0 -29 -8 -55t-25 -51.5t-45.5 -52.5t-68.5 -57l-110 -83q-12 -9 -20.5 -17t-14.5 -16t-10 -18t-8 -24l-22 -76h-57l24 84q4 16 10 28.5t14.5 23.5t21 22.5t29.5 25.5l127 102q41 33 65.5 70t24.5 77q0 25 -11.5 41.5t-31.5 27t-46.5 15t-56.5 4.5
q-37 0 -72.5 -5t-74.5 -15l16 56q45 7 83 11.5t76 4.5q40 0 75 -6.5t60.5 -21.5t40.5 -38.5t15 -56.5zM111 0l24 83h73l-24 -83h-73z" />
    <glyph glyph-name="at" unicode="@" horiz-adv-x="1098" 
d="M1033 400q0 -61 -20 -118t-55 -101q-32 -39 -74.5 -62t-95.5 -23q-25 0 -46.5 7t-36 20.5t-21.5 34.5t-2 49q-37 -50 -92 -80.5t-135 -30.5q-83 0 -124 42t-41 105q0 56 23 106t62.5 87t92 58.5t111.5 21.5q31 0 58.5 -6t48.5 -19t34 -33t16 -48l33 93h63l-87 -246
q-5 -15 -8.5 -29.5t-3.5 -28.5q0 -25 14.5 -41t51.5 -16q35 0 65 17.5t53 46.5q30 38 47.5 89.5t17.5 104.5q0 62 -23.5 115t-70 91.5t-115.5 60.5t-159 22q-101 0 -194.5 -33.5t-165.5 -95t-115 -147t-43 -190.5q0 -73 26 -130.5t74 -97.5t117 -61t155 -21q81 0 155.5 17.5
t146.5 50.5l17 -42q-70 -35 -153 -53.5t-170 -18.5q-97 0 -175 24t-132.5 69.5t-84 111t-29.5 149.5q0 115 46.5 209.5t125.5 162t183 104.5t219 37q97 0 174 -25t131 -69t82.5 -105.5t28.5 -134.5zM697 298q11 32 11 73q0 49 -32 73.5t-89 24.5q-46 0 -88 -17.5
t-73.5 -47.5t-50.5 -71t-19 -88q0 -44 28 -73t91 -29q37 0 71.5 10t63.5 30t51.5 48.5t35.5 66.5z" />
    <glyph glyph-name="A" unicode="A" horiz-adv-x="829" 
d="M657 0l-43 207h-450l-162 -207h-84l576 725h77l160 -725h-74zM520 661l-312 -397h394z" />
    <glyph glyph-name="B" unicode="B" horiz-adv-x="778" 
d="M742 585q0 -42 -15 -77t-42 -62t-63.5 -45t-78.5 -24q57 -8 93 -40.5t36 -89.5q0 -45 -14 -78t-33 -60q-21 -30 -51.5 -51t-67 -34t-76.5 -18.5t-80 -5.5h-341l207 722h311q39 0 77.5 -5.5t69 -21t49.5 -42t19 -68.5zM668 576q0 30 -16 48t-40 27t-51 11.5t-49 2.5h-242
l-75 -260h259q41 0 79.5 9.5t68.5 30.5t48 53.5t18 77.5zM598 249q0 34 -18 54t-44.5 30t-57 13t-55.5 3h-244l-83 -292h260q27 0 55.5 3.5t56 12.5t51.5 25.5t42 42.5q14 20 25.5 47t11.5 61z" />
    <glyph glyph-name="C" unicode="C" horiz-adv-x="813" 
d="M726 565q0 59 -50 87.5t-141 28.5q-85 0 -155 -30t-122 -82q-62 -63 -98 -149.5t-36 -182.5q0 -53 18 -90t49.5 -60.5t75 -34.5t94.5 -11q48 0 91.5 8t80.5 26t66 45.5t49 66.5h75q-28 -57 -67.5 -95.5t-88 -62.5t-105 -34t-119.5 -10q-59 0 -112.5 15t-93.5 46
t-63.5 78.5t-23.5 111.5q0 48 10 97.5t29.5 97.5t47.5 92t64 79q65 64 151.5 99.5t191.5 35.5q45 0 91 -8.5t83 -28.5t60 -53t23 -82h-75z" />
    <glyph glyph-name="D" unicode="D" horiz-adv-x="862" 
d="M812 481q0 -51 -11 -102.5t-31 -99.5t-48.5 -90t-62.5 -75q-68 -64 -155.5 -89t-204.5 -25h-290l207 722h269q63 0 122 -11.5t104.5 -39t73 -74t27.5 -116.5zM739 481q0 57 -24 93t-62.5 56.5t-86 27.5t-94.5 7h-202l-174 -608h221q95 0 167.5 23.5t125.5 76.5
q30 29 53.5 68t40.5 82t26 88t9 86z" />
    <glyph glyph-name="E" unicode="E" horiz-adv-x="680" 
d="M700 665h-430l-75 -260h410l-16 -57h-410l-83 -291h439l-17 -57h-509l207 722h500z" />
    <glyph glyph-name="F" unicode="F" horiz-adv-x="635" 
d="M677 665h-407l-76 -265h390l-16 -56h-390l-99 -344h-70l207 722h477z" />
    <glyph glyph-name="G" unicode="G" horiz-adv-x="871" 
d="M761 555q0 37 -21.5 61.5t-53 38.5t-68 20t-65.5 6q-96 0 -175.5 -32t-136.5 -94q-28 -30 -50 -66t-37 -76t-22.5 -81.5t-7.5 -82.5q0 -58 21 -98t56.5 -64.5t82 -35t98.5 -10.5q66 0 131.5 11.5t127.5 32.5l66 225h-228l16 56h298l-93 -324q-75 -25 -158 -41t-169 -16
q-62 0 -120 14.5t-103 46t-72.5 81.5t-27.5 121q0 46 10 94.5t29 94t46.5 87.5t62.5 77q67 66 157.5 101t197.5 35q42 0 92 -7.5t93 -27.5t72 -55.5t29 -91.5h-78z" />
    <glyph glyph-name="H" unicode="H" horiz-adv-x="865" 
d="M649 0h-70l99 348h-499l-100 -348h-70l207 722h70l-91 -317h500l91 317h70z" />
    <glyph glyph-name="I" unicode="I" horiz-adv-x="296" 
d="M79 0h-70l208 722h70z" />
    <glyph glyph-name="J" unicode="J" horiz-adv-x="672" 
d="M540 253q-40 -139 -125.5 -203.5t-221.5 -64.5q-36 0 -74.5 7t-70 24.5t-52 46t-20.5 71.5q0 14 1 27.5t5 27.5h73q-5 -22 -5 -43q0 -32 14 -52.5t35.5 -32t48.5 -16t54 -4.5q108 0 174.5 59t95.5 160l132 462h70z" />
    <glyph glyph-name="K" unicode="K" horiz-adv-x="751" 
d="M285 383l350 -383h-90l-348 390l520 332h102zM79 0h-70l207 722h70z" />
    <glyph glyph-name="L" unicode="L" horiz-adv-x="618" 
d="M495 0h-486l207 722h70l-190 -665h416z" />
    <glyph glyph-name="M" unicode="M" horiz-adv-x="1143" 
d="M927 0h-69l194 669l-546 -669h-78l-159 672l-193 -672h-67l207 722h105l158 -661l541 661h114z" />
    <glyph glyph-name="N" unicode="N" horiz-adv-x="885" 
d="M669 0h-95l-308 663l-190 -663h-67l207 722h95l309 -663l189 663h67z" />
    <glyph glyph-name="O" unicode="O" horiz-adv-x="909" 
d="M859 471q0 -107 -38 -200t-107 -159q-63 -61 -148 -94t-189 -33q-67 0 -126.5 15.5t-104 48t-70.5 82.5t-26 118q0 53 12 105t34 100t53.5 90t70.5 77q64 56 145.5 86t175.5 30q61 0 118.5 -16t102 -49t71 -83t26.5 -118zM785 467q0 55 -20.5 95t-55 66.5t-80.5 39.5
t-96 13q-80 0 -147.5 -26.5t-120.5 -75.5q-66 -61 -103.5 -144.5t-37.5 -179.5q0 -58 20 -99t55 -66.5t83 -37t104 -11.5q84 0 152.5 29t120.5 81q60 60 93 142t33 174z" />
    <glyph glyph-name="P" unicode="P" horiz-adv-x="722" 
d="M731 568q0 -94 -65 -162q-36 -38 -92.5 -57.5t-150.5 -19.5h-250l-94 -329h-70l207 722h290q36 0 75.5 -6t73 -23t55 -47t21.5 -78zM656 568q0 31 -15.5 50t-39 29.5t-52 14t-54.5 3.5h-225l-81 -280h235q54 0 103.5 14.5t82.5 48.5q24 25 35 55.5t11 64.5z" />
    <glyph glyph-name="Q" unicode="Q" horiz-adv-x="909" 
d="M859 471q0 -101 -35 -191q-16 -41 -40.5 -77t-54.5 -66t-63 -53t-65 -37q18 2 45 4t55.5 3.5t54.5 2.5t42 1l-17 -58h-183q-34 0 -68 -2.5t-68 -5.5q-20 -2 -41.5 -3.5t-43.5 -1.5q-67 0 -126.5 15.5t-104 47.5t-70.5 81.5t-26 117.5q0 53 12 105t34 100t53.5 90t70.5 77
q64 56 145.5 86t175.5 30q61 0 118.5 -16t102 -49t71 -83t26.5 -118zM785 467q0 55 -20.5 95t-55 66.5t-80.5 39.5t-96 13q-80 0 -147.5 -26.5t-120.5 -75.5q-66 -61 -103.5 -144.5t-37.5 -179.5q0 -58 20 -98.5t55 -65.5t83 -36.5t104 -11.5q84 0 152.5 28t120.5 80
q60 60 93 142t33 174z" />
    <glyph glyph-name="R" unicode="R" horiz-adv-x="787" 
d="M755 582q0 -47 -17 -84.5t-46 -65t-68.5 -44.5t-84.5 -21q48 -6 72.5 -33.5t24.5 -80.5q0 -26 -4 -51t-9 -51.5t-9 -53.5t-4 -56q0 -10 1 -21t5 -20h-75q-2 5 -3 13t-1 16q0 28 4 56.5t9 56.5t9 56.5t4 56.5q0 45 -27 65t-93 20h-267l-97 -340h-70l207 722h313
q40 0 80 -5.5t72.5 -21t53 -43t20.5 -70.5zM681 576q0 49 -45 69t-118 20h-248l-77 -268h252q55 0 103.5 12.5t82.5 45.5q23 23 36.5 54t13.5 67z" />
    <glyph glyph-name="S" unicode="S" horiz-adv-x="751" 
d="M729 589q0 -10 -0.5 -20.5t-1.5 -17.5h-72q1 6 1.5 12.5t0.5 12.5q0 35 -19 56t-49 32t-66 14t-70 3q-38 0 -83.5 -7t-85 -25t-66.5 -49.5t-27 -80.5q0 -19 9 -34t24.5 -26.5t35.5 -20t43 -14.5l181 -47q35 -9 66 -20.5t54.5 -28.5t37 -41t13.5 -57q0 -74 -36 -121
t-91 -75t-120.5 -38.5t-125.5 -10.5q-44 0 -92 5.5t-88.5 23t-67 49.5t-26.5 86q0 27 4 50h73q-5 -20 -5 -37q0 -39 16 -62.5t43.5 -36.5t65 -17.5t81.5 -4.5q45 0 96.5 7.5t95.5 27t73.5 54t29.5 89.5q0 24 -11.5 40.5t-29 27.5t-38.5 17.5t-39 11.5l-173 45
q-27 7 -57.5 17.5t-56 28t-42 42.5t-16.5 62q0 45 17 79t44.5 59t63.5 42t74 27t75 14.5t67 4.5q37 0 83.5 -5t88 -20.5t70 -44.5t28.5 -78z" />
    <glyph glyph-name="T" unicode="T" horiz-adv-x="678" 
d="M755 665h-301l-191 -665h-70l191 665h-303l17 57h672z" />
    <glyph glyph-name="U" unicode="U" horiz-adv-x="851" 
d="M723 284q-42 -145 -137.5 -222t-244.5 -77q-48 0 -96.5 9t-87.5 31t-63.5 59t-24.5 93q0 28 4 54.5t12 53.5l125 437h70l-126 -441q-6 -22 -10 -45t-4 -46q0 -44 16.5 -72.5t44 -45.5t63 -24t73.5 -7q121 0 202.5 64.5t113.5 178.5l125 438h70z" />
    <glyph glyph-name="V" unicode="V" horiz-adv-x="742" 
d="M304 0h-86l-132 722h71l117 -662l475 662h83z" />
    <glyph glyph-name="W" unicode="W" horiz-adv-x="1218" 
d="M843 0h-94l-66 662l-420 -662h-98l-69 722h72l59 -666l420 666h94l66 -666l413 666h82z" />
    <glyph glyph-name="X" unicode="X" horiz-adv-x="760" 
d="M429 367l206 -367h-79l-177 332l-369 -332h-95l430 376l-192 346h78l164 -311l347 311h93z" />
    <glyph glyph-name="Y" unicode="Y" horiz-adv-x="723" 
d="M376 314l-90 -314h-70l91 317l-211 405h82l174 -351l378 351h93z" />
    <glyph glyph-name="Z" unicode="Z" horiz-adv-x="689" 
d="M735 656l-705 -600h544l-17 -56h-626l18 66l708 601h-511l16 55h593z" />
    <glyph glyph-name="bracketleft" unicode="[" horiz-adv-x="337" 
d="M373 679h-105l-234 -817h105l-12 -43h-164l257 903h165z" />
    <glyph glyph-name="backslash" unicode="\" horiz-adv-x="385" 
d="M205 -15l-92 752h67l92 -752h-67z" />
    <glyph glyph-name="bracketright" unicode="]" horiz-adv-x="337" 
d="M78 -181h-164l11 43h105l234 817h-105l12 43h165z" />
    <glyph glyph-name="asciicircum" unicode="^" horiz-adv-x="661" 
d="M480 324l-181 338l-180 -338h-72l218 398h68l219 -398h-72z" />
    <glyph glyph-name="underscore" unicode="_" horiz-adv-x="500" 
d="M-42 -125v50h500v-50h-500z" />
    <glyph glyph-name="grave" unicode="`" horiz-adv-x="261" 
d="M216 587l-92 141h78l63 -141h-49z" />
    <glyph glyph-name="a" unicode="a" horiz-adv-x="669" 
d="M572 394q0 -17 -3.5 -35.5t-11.5 -42.5l-70 -236q-7 -23 -11.5 -39.5t-9.5 -40.5h-64l26 91q-51 -62 -113.5 -84t-140.5 -22q-31 0 -63 6.5t-58.5 21t-43.5 38t-17 57.5q0 46 19.5 79t52 54.5t73.5 34t84.5 19t85 8t75.5 1.5h22.5t30 -0.5t30 -1t22.5 -0.5q6 21 11.5 41
t5.5 40q0 29 -12.5 46t-32.5 26t-44.5 12t-47.5 3q-27 0 -56 -4.5t-56 -15.5t-48.5 -29.5t-32.5 -45.5h-70q16 41 46 68.5t67.5 44t79.5 23.5t82 7q31 0 65 -4.5t62.5 -18t47 -38t18.5 -63.5zM471 255q-8 0 -25 0.5t-36.5 1t-36.5 0.5h-25q-22 0 -52 -1.5t-62 -6t-62.5 -14
t-54.5 -25t-39 -39t-15 -56.5q0 -25 13 -41t33 -25t44 -12.5t46 -3.5q96 0 162 42t93 127z" />
    <glyph glyph-name="b" unicode="b" horiz-adv-x="733" 
d="M657 332q0 -69 -27 -133t-77 -112t-116 -75t-143 -27q-32 0 -63.5 6t-58.5 20.5t-47.5 37.5t-30.5 56l-35 -105h-64q10 30 19.5 60t18.5 60l173 602h66l-93 -323q51 60 111.5 89.5t145.5 29.5q45 0 85 -11t70.5 -34t48 -58t17.5 -83zM587 329q0 39 -14 65.5t-37 43.5
t-54 24.5t-64 7.5q-53 0 -99.5 -17.5t-83.5 -48t-63.5 -73t-38.5 -92.5q-8 -35 -8 -67q0 -38 13 -64.5t35.5 -43t52.5 -24t65 -7.5q63 0 117 23t95 65q40 42 62 96.5t22 111.5z" />
    <glyph glyph-name="c" unicode="c" horiz-adv-x="647" 
d="M524 347q0 25 -8 47t-25 39t-44.5 27t-67.5 10q-63 0 -115.5 -23t-92.5 -64q-39 -40 -61.5 -93t-22.5 -115q0 -36 13 -63t35 -44.5t52 -26t64 -8.5q72 0 131.5 28t91.5 95h72q-20 -48 -51.5 -80.5t-70.5 -52.5t-84 -29t-94 -9q-44 0 -85.5 11t-73.5 33.5t-52 58t-20 84.5
q0 69 29 135.5t80 114.5q49 46 110 71t149 25q42 0 79.5 -7.5t66.5 -26.5t46.5 -52.5t19.5 -84.5h-71z" />
    <glyph glyph-name="d" unicode="d" horiz-adv-x="733" 
d="M563 118q-8 -29 -15.5 -59t-15.5 -59h-63q1 5 4.5 18.5t7 29t7.5 30.5t6 23q-49 -57 -113 -86.5t-139 -29.5q-44 0 -85 12.5t-72.5 36.5t-50.5 60.5t-19 84.5q0 79 34.5 147t91.5 114q48 38 107 58t125 20q34 0 65.5 -6t58.5 -19.5t47.5 -36t32.5 -55.5l93 321h66z
M547 330q0 39 -13.5 65.5t-36.5 43.5t-53.5 24.5t-65.5 7.5q-60 0 -113.5 -23t-93 -63t-63 -93.5t-23.5 -114.5q0 -38 14 -65.5t37.5 -45t54.5 -26t64 -8.5q61 0 114 24t92.5 64.5t62.5 95t23 114.5z" />
    <glyph glyph-name="e" unicode="e" horiz-adv-x="675" 
d="M602 345q0 -29 -5 -55t-13 -53h-493q-8 -34 -8 -66q0 -35 12 -61t34 -43t51.5 -25.5t64.5 -8.5q73 0 133 26t98 91h71q-23 -46 -55 -77.5t-71 -51t-84 -28t-93 -8.5q-44 0 -85 11.5t-73 34.5t-51.5 58.5t-19.5 82.5q0 78 32.5 143.5t84.5 112.5q49 44 108.5 67t134.5 23
q45 0 86.5 -9t72.5 -29t49.5 -53.5t18.5 -81.5zM534 341q0 37 -12.5 62t-34.5 40t-52 21t-65 6q-44 0 -85 -13.5t-75.5 -38.5t-61 -59t-41.5 -74h420q3 14 5 28t2 28z" />
    <glyph glyph-name="f" unicode="f" horiz-adv-x="384" 
d="M464 676q-29 6 -57 6q-38 0 -62.5 -12t-40.5 -32t-25.5 -45.5t-16.5 -51.5l-10 -38h151l-14 -48h-152l-130 -455h-66l130 455h-131l14 48h131l12 41q12 41 27 75.5t39 59t58.5 38t85.5 13.5q35 0 71 -6z" />
    <glyph glyph-name="g" unicode="g" horiz-adv-x="731" 
d="M674 503q-10 -30 -20 -60.5t-19 -61.5l-94 -324q-20 -71 -51 -121t-74 -81.5t-100 -46.5t-129 -15q-36 0 -77 4.5t-75 18t-56.5 38.5t-22.5 66q0 9 0.5 16.5t1.5 12.5h69q-1 -5 -1.5 -11t-0.5 -11q0 -26 15 -42.5t38 -26.5t52 -13.5t56 -3.5q112 0 179 44t99 138l33 96
q-47 -57 -113.5 -85t-139.5 -28q-47 0 -88 11t-71.5 34.5t-48.5 59t-18 83.5q0 78 35.5 144.5t95.5 111.5q46 34 103.5 51t121.5 17q31 0 63.5 -5.5t60.5 -19t49 -36.5t31 -57q1 5 5 17.5t9 28l10 31t9 26.5h63zM546 332q0 38 -14 64.5t-37 43t-54.5 24t-65.5 7.5
q-58 0 -110 -20.5t-91 -57.5t-62 -88.5t-23 -112.5q0 -38 14 -64.5t37 -43t54 -24t64 -7.5q50 0 94.5 14.5t81 41.5t62.5 65.5t40 86.5q5 17 7.5 35t2.5 36z" />
    <glyph glyph-name="h" unicode="h" horiz-adv-x="691" 
d="M594 380q0 -26 -5 -48t-13 -51l-80 -281h-66l79 280q8 29 12 48.5t4 38.5q0 29 -10 49t-27 32t-40 17t-49 5q-50 0 -92.5 -16.5t-76.5 -45.5t-58.5 -68.5t-37.5 -84.5l-73 -255h-66l207 722h66l-94 -326q44 61 105 91.5t131 30.5q36 0 69 -7t58.5 -23t41 -42.5
t15.5 -65.5z" />
    <glyph glyph-name="i" unicode="i" horiz-adv-x="261" 
d="M244 640h-66l24 82h66zM61 0h-66l144 503h67z" />
    <glyph glyph-name="j" unicode="j" horiz-adv-x="261" 
d="M244 640h-66l23 82h67zM40 -73q-10 -36 -24.5 -60.5t-35.5 -40t-49 -22t-64 -6.5q-16 0 -33.5 1t-33.5 3l15 51q25 -3 52 -3q28 0 46.5 6t31 18.5t20.5 31.5t15 44l158 553h67z" />
    <glyph glyph-name="k" unicode="k" horiz-adv-x="599" 
d="M228 285l259 -285h-85l-253 292l351 211h101zM62 0h-67l207 722h67z" />
    <glyph glyph-name="l" unicode="l" horiz-adv-x="261" 
d="M61 0h-66l207 722h66z" />
    <glyph glyph-name="m" unicode="m" horiz-adv-x="1075" 
d="M978 388q0 -26 -3.5 -47.5t-10.5 -46.5l-85 -294h-66l80 283q8 26 12 46.5t4 40.5q0 56 -31.5 78t-85.5 22q-46 0 -86 -17.5t-72 -47t-55 -67.5t-35 -79l-74 -259h-67l78 270q11 35 15 57.5t4 42.5q0 54 -30 77t-84 23q-47 0 -87 -17.5t-72.5 -46.5t-55.5 -67t-35 -80
l-75 -259h-66l110 383q8 29 15.5 59.5t15.5 60.5h62l-27 -108q51 66 106.5 94.5t130.5 28.5q28 0 54 -5.5t47 -18.5t35 -33t18 -49q1 -8 1.5 -16t0.5 -16q46 70 109 104t136 34q33 0 63.5 -6.5t54 -21.5t37.5 -40t14 -62z" />
    <glyph glyph-name="n" unicode="n" horiz-adv-x="691" 
d="M594 376q0 -26 -5 -48.5t-12 -45.5l-81 -282h-66l80 281q7 24 11 44.5t4 40.5q0 29 -10 49t-27 32t-40 17.5t-49 5.5q-50 0 -92.5 -16.5t-76.5 -45.5t-58.5 -68t-37.5 -85l-73 -255h-66l109 383q9 32 17 61.5t15 58.5h63l-28 -108q45 59 104 91t139 32q36 0 68.5 -7.5
t57 -24t39.5 -44t15 -66.5z" />
    <glyph glyph-name="o" unicode="o" horiz-adv-x="704" 
d="M628 328q0 -73 -25.5 -135t-71.5 -107q-48 -47 -115 -74t-148 -27q-44 0 -89 10.5t-81.5 33.5t-59.5 60t-23 90q0 66 28.5 131.5t78.5 112.5q53 50 116.5 72.5t138.5 22.5q48 0 93 -10.5t80.5 -33t56.5 -59t21 -87.5zM558 324q0 39 -15 67t-40.5 45.5t-58 25.5t-66.5 8
q-60 0 -116 -22.5t-98 -67.5q-37 -39 -58 -92.5t-21 -106.5q0 -39 15 -67t40 -46t57.5 -26.5t67.5 -8.5q71 0 123 23.5t86 56.5q39 39 61.5 94t22.5 117z" />
    <glyph glyph-name="p" unicode="p" horiz-adv-x="733" 
d="M657 329q0 -68 -26 -132.5t-74 -112.5q-50 -49 -114.5 -74t-139.5 -25q-33 0 -65 6t-60 19.5t-49.5 35.5t-33.5 54l-85 -294h-66l167 583q16 57 30 114h63l-26 -107q45 61 106.5 91.5t152.5 30.5q44 0 84 -11.5t70 -35t48 -59t18 -83.5zM587 329q0 39 -14 65.5t-37 43.5
t-54 24.5t-64 7.5q-52 0 -98 -17t-83 -48t-63.5 -73t-38.5 -93q-4 -17 -6.5 -34.5t-2.5 -34.5q0 -38 13 -64t35.5 -42t52.5 -23.5t64 -7.5q63 0 118 23t96 65t61.5 96t20.5 112z" />
    <glyph glyph-name="q" unicode="q" horiz-adv-x="733" 
d="M676 503q-9 -28 -18 -55.5t-17 -55.5l-168 -586h-66l84 293q-50 -58 -113.5 -86t-139.5 -28q-45 0 -85 12t-71 35.5t-49 59t-18 83.5q0 76 29.5 139t79 108.5t114 70.5t135.5 25q35 0 67.5 -5.5t60 -19t48 -36.5t31.5 -58l32 104h64zM547 330q0 38 -13 64.5t-36 43.5
t-53.5 25t-65.5 8q-60 0 -113.5 -23t-93.5 -62.5t-63.5 -93t-23.5 -114.5q0 -38 14 -65.5t37 -45.5t54 -26.5t65 -8.5q60 0 113.5 24t93 64.5t62.5 95t23 114.5z" />
    <glyph glyph-name="r" unicode="r" horiz-adv-x="411" 
d="M413 449q-10 3 -20 4t-21 1q-49 0 -87 -13.5t-66.5 -39t-49 -61.5t-33.5 -81l-75 -259h-66l113 395q8 27 14.5 54t13.5 54h63l-27 -102q44 56 95.5 83.5t122.5 27.5q10 0 22.5 -0.5t18.5 -1.5z" />
    <glyph glyph-name="s" unicode="s" horiz-adv-x="587" 
d="M526 405q0 -8 -0.5 -15.5t-2.5 -15.5h-69q2 10 2 18q0 26 -13.5 41.5t-33.5 23.5t-43.5 10.5t-43.5 2.5q-26 0 -58.5 -4.5t-61.5 -16.5t-48.5 -32.5t-19.5 -51.5q0 -32 29.5 -47t69.5 -24l123 -29q22 -5 44 -13.5t39 -20.5t27.5 -29t10.5 -39q0 -56 -29 -91t-72 -54.5
t-94 -26t-94 -6.5q-33 0 -69.5 4.5t-67 18t-50.5 38.5t-20 65q0 10 0.5 17.5t1.5 13.5h70q-1 -6 -1.5 -11.5t-0.5 -11.5q0 -29 15 -46t37.5 -26t49 -11.5t48.5 -2.5q30 0 65.5 5t65.5 17.5t50.5 34t20.5 54.5q0 15 -8.5 27t-22.5 21t-31.5 15t-35.5 10l-129 29
q-23 5 -43 13.5t-36 21t-25 29.5t-9 38q0 51 26.5 84t66.5 52t86.5 26.5t86.5 7.5q29 0 63.5 -4.5t64 -16.5t49.5 -34t20 -58z" />
    <glyph glyph-name="t" unicode="t" horiz-adv-x="393" 
d="M378 455h-145l-95 -331q-3 -11 -4.5 -19t-1.5 -18q0 -27 16.5 -36.5t41.5 -9.5q19 0 37.5 2.5t36.5 5.5l-11 -48q-22 -3 -44 -5t-44 -2q-20 0 -38.5 3t-32.5 11t-23 22.5t-9 37.5q0 13 2.5 26t6.5 26l95 335h-128l14 48h129l27 99l76 29l-37 -128h146z" />
    <glyph glyph-name="u" unicode="u" horiz-adv-x="691" 
d="M528 120q-9 -32 -17 -61.5t-15 -58.5h-63l28 109q-47 -58 -108 -91t-136 -33q-36 0 -68 6.5t-57 22t-39.5 41.5t-14.5 65q0 41 11 80l87 303h67l-86 -300q-5 -17 -8 -34.5t-3 -34.5q0 -30 10 -49.5t27.5 -31t41 -16t49.5 -4.5q49 0 91.5 16.5t76.5 45.5t58.5 68.5
t37.5 84.5l73 255h67z" />
    <glyph glyph-name="v" unicode="v" horiz-adv-x="607" 
d="M229 0h-81l-115 503h70l96 -450l346 450h81z" />
    <glyph glyph-name="w" unicode="w" horiz-adv-x="1051" 
d="M696 0h-82l-80 445l-329 -445h-82l-87 503h70l69 -450l330 450h82l78 -450l325 450h77z" />
    <glyph glyph-name="x" unicode="x" horiz-adv-x="629" 
d="M332 254l180 -254h-84l-149 225l-277 -225h-92l333 266l-165 237h80l139 -208l258 208h92z" />
    <glyph glyph-name="y" unicode="y" horiz-adv-x="625" 
d="M88 -194h-78l158 197l-125 500h71l105 -443l337 443h83z" />
    <glyph glyph-name="z" unicode="z" horiz-adv-x="557" 
d="M541 448l-499 -398h394l-15 -50h-483l17 54l504 399h-376l15 50h459z" />
    <glyph glyph-name="braceleft" unicode="{" horiz-adv-x="355" 
d="M429 679q-13 0 -29.5 -1.5t-24.5 -3.5q-42 -10 -64.5 -37.5t-36.5 -77.5l-39 -135q-11 -41 -35 -76.5t-62 -56.5q-11 -6 -25 -10t-27 -7q41 -12 58 -33.5t17 -52.5q0 -22 -8 -51l-45 -155q-5 -16 -8 -32t-3 -30q0 -15 5 -27.5t18 -20.5q19 -12 73 -12l-12 -42
q-37 0 -60.5 3t-41.5 13q-20 11 -31 32t-11 53q0 25 9 58l44 153q8 29 8 50q0 33 -25 51t-57 20l13 48q28 1 54 12q42 17 61.5 48t31.5 73l38 133q20 69 58 105t95 46q17 3 34.5 4t39.5 1z" />
    <glyph glyph-name="bar" unicode="|" horiz-adv-x="222" 
d="M80 -214v1000h62v-1000h-62z" />
    <glyph glyph-name="braceright" unicode="}" horiz-adv-x="355" 
d="M-129 -140q13 0 29.5 1.5t24.5 3.5q42 10 64.5 37.5t36.5 77.5l39 135q11 41 35 76.5t62 56.5q11 6 25 10t27 7q-41 12 -58 33.5t-17 52.5q0 22 8 51l45 155q5 16 8 32t3 30q0 15 -5 27.5t-18 20.5q-19 12 -73 12l12 42q37 0 60.5 -3t41.5 -13q20 -11 31 -32t11 -53
q0 -25 -9 -58l-44 -153q-8 -29 -8 -50q0 -33 25 -51t57 -20l-13 -48q-28 -1 -54 -12q-42 -17 -61.5 -48t-31.5 -73l-38 -133q-20 -69 -58 -105t-95 -46q-17 -3 -34.5 -4t-39.5 -1z" />
    <glyph glyph-name="asciitilde" unicode="~" horiz-adv-x="661" 
d="M572 319q-3 -27 -12 -52t-24.5 -43.5t-38 -30t-53.5 -11.5q-28 0 -67.5 11t-84.5 26q-40 14 -78 25.5t-64 11.5q-38 0 -55 -21t-23 -55h-45q3 27 12 51.5t24 43.5t37.5 30t53.5 11q28 0 66.5 -10t81.5 -25q41 -14 80.5 -26.5t66.5 -12.5q38 0 55 21t23 56h45v0z" />
    <glyph glyph-name="Euro" unicode="&#x20ac;" 
d="M218 285q-5 -21 -7.5 -42.5t-2.5 -43.5q0 -85 44.5 -121.5t135.5 -36.5q61 0 107 17.5t71 41.5v-68q-29 -18 -73 -32.5t-113 -14.5q-56 0 -100.5 11.5t-76 36.5t-48.5 64.5t-17 95.5q0 40 11 92h-111l27 50h97q10 28 18 47l18 42h-105l27 50h102q28 57 60.5 105.5
t74 83.5t93 54.5t119.5 19.5q39 0 69 -6.5t51.5 -16t36 -20t22.5 -18.5l-27 -54q-8 9 -20.5 19t-32 19t-46.5 15t-63 6q-47 0 -85.5 -16.5t-71.5 -44.5t-60 -65.5t-49 -80.5h339l-27 -50h-337l-17 -41l-18 -48h320l-27 -50h-308z" />
    <glyph glyph-name="quotesinglbase" unicode="&#x201a;" horiz-adv-x="332" 
d="M7 -145h-55l112 195h82z" />
    <glyph glyph-name="florin" unicode="&#x192;" 
d="M666 676q-29 9 -60 9q-26 0 -47.5 -10t-38.5 -26t-30 -35t-22 -38l-42 -87h154l-21 -48h-154l-191 -423q-20 -45 -40.5 -82.5t-48 -64.5t-64.5 -42t-90 -15q-14 0 -27 2t-26 5l22 49q17 -4 32 -4q37 0 64 12t46.5 33t34 49t28.5 59l190 422h-139l22 48h136l55 111
q13 27 31 51.5t42 43.5t54 30.5t67 11.5q21 0 45 -2t40 -7z" />
    <glyph glyph-name="quotedblbase" unicode="&#x201e;" horiz-adv-x="532" 
d="M207 -145h-56l112 195h83zM8 -145h-56l113 195h82z" />
    <glyph glyph-name="ellipsis" unicode="&#x2026;" horiz-adv-x="1000" 
d="M767 0h-74l24 84h75zM434 0h-74l24 84h75zM101 0h-74l24 84h75z" />
    <glyph glyph-name="dagger" unicode="&#x2020;" horiz-adv-x="570" 
d="M544 477h-192l-136 -477h-67l137 477h-192l16 56h192l54 189h67l-55 -189h192z" />
    <glyph glyph-name="daggerdbl" unicode="&#x2021;" horiz-adv-x="570" 
d="M548 494h-190l-76 -267h191l-17 -57h-191l-48 -170h-69l49 170h-191l17 57h191l76 267h-191l17 57h191l48 171h69l-49 -171h189z" />
    <glyph glyph-name="circumflex" unicode="&#x2c6;" horiz-adv-x="261" 
d="M299 587l-64 110l-131 -110h-64l157 141h80l74 -141h-52z" />
    <glyph glyph-name="perthousand" unicode="&#x2030;" horiz-adv-x="1244" 
d="M1170 239q0 -48 -16 -93.5t-45.5 -81t-71 -57t-91.5 -21.5q-57 0 -94 32t-37 91q0 47 16.5 92.5t46.5 81t71 57t90 21.5q57 0 94 -31t37 -91zM443 616q0 -48 -16 -93.5t-45.5 -81t-71 -57t-91.5 -21.5q-57 0 -94.5 32t-37.5 91q0 47 16.5 92t46.5 80.5t71 57t90 21.5
q57 0 94.5 -30.5t37.5 -90.5zM766 239q0 -48 -16 -93.5t-45.5 -81t-70.5 -57t-91 -21.5q-57 0 -95 32t-38 91q0 47 16.5 92.5t46.5 81t71 57t90 21.5q57 0 94.5 -31t37.5 -91zM1117 234q0 41 -21.5 62.5t-62.5 21.5q-37 0 -67.5 -19t-52.5 -48t-34 -65t-12 -69
q0 -40 21.5 -64.5t63.5 -24.5q38 0 68.5 19t52 49t33 66.5t11.5 71.5zM390 611q0 41 -22 62.5t-63 21.5q-37 0 -67.5 -19t-52 -48t-33.5 -65t-12 -69q0 -40 21.5 -64.5t63.5 -24.5q38 0 68.5 19t52 49t33 66.5t11.5 71.5zM713 234q0 41 -22 62.5t-63 21.5q-37 0 -67 -19
t-51.5 -48t-33.5 -65t-12 -69q0 -40 21 -64.5t63 -24.5q38 0 68.5 19t52 49t33 66.5t11.5 71.5zM29 -46h-56l843 814h56z" />
    <glyph glyph-name="Scaron" unicode="&#x160;" horiz-adv-x="751" 
d="M729 589q0 -10 -0.5 -20.5t-1.5 -17.5h-72q1 6 1.5 12.5t0.5 12.5q0 35 -19 56t-49 32t-66 14t-70 3q-38 0 -83.5 -7t-85 -25t-66.5 -49.5t-27 -80.5q0 -19 9 -34t24.5 -26.5t35.5 -20t43 -14.5l181 -47q35 -9 66 -20.5t54.5 -28.5t37 -41t13.5 -57q0 -74 -36 -121
t-91 -75t-120.5 -38.5t-125.5 -10.5q-44 0 -92 5.5t-88.5 23t-67 49.5t-26.5 86q0 27 4 50h73q-5 -20 -5 -37q0 -39 16 -62.5t43.5 -36.5t65 -17.5t81.5 -4.5q45 0 96.5 7.5t95.5 27t73.5 54t29.5 89.5q0 24 -11.5 40.5t-29 27.5t-38.5 17.5t-39 11.5l-173 45
q-27 7 -57.5 17.5t-56 28t-42 42.5t-16.5 62q0 45 17 79t44.5 59t63.5 42t74 27t75 14.5t67 4.5q37 0 83.5 -5t88 -20.5t70 -44.5t28.5 -78zM403 914l64 -110l131 110h64l-157 -141h-80l-74 141h52z" />
    <glyph glyph-name="guilsinglleft" unicode="&#x2039;" horiz-adv-x="333" 
d="M100 260l52 -189h-57l-58 197l169 191h62z" />
    <glyph glyph-name="OE" unicode="&#x152;" horiz-adv-x="1193" 
d="M1213 665h-409l-75 -260h386l-15 -57h-386l-84 -291h422l-16 -57h-414q-47 0 -93 -2.5t-93 -2.5q-40 0 -84 4.5t-87 15.5t-82 30t-68.5 48t-47 68.5t-17.5 92.5q0 47 10.5 94.5t29 91.5t44.5 83t58 70q41 40 86 66t99.5 41t121.5 21t151 6q51 0 100.5 -2.5t100.5 -2.5
h378zM734 665q-32 2 -63.5 4t-64.5 2q-122 0 -212 -27.5t-156 -95.5q-25 -26 -46.5 -59t-37 -70.5t-24.5 -78t-9 -81.5q0 -64 29 -104.5t74 -63.5t99.5 -31.5t106.5 -8.5q65 0 130 6z" />
    <glyph glyph-name="Zcaron" unicode="&#x17d;" horiz-adv-x="689" 
d="M735 656l-705 -600h544l-17 -56h-626l18 66l708 601h-511l16 55h593zM399 914l64 -110l131 110h64l-157 -141h-80l-74 141h52z" />
    <glyph glyph-name="quoteleft" unicode="&#x2018;" horiz-adv-x="332" 
d="M228 527h-83l139 196h56z" />
    <glyph glyph-name="quoteright" unicode="&#x2019;" horiz-adv-x="332" 
d="M200 527h-55l111 196h84z" />
    <glyph glyph-name="quotedblleft" unicode="&#x201c;" horiz-adv-x="530" 
d="M426 527h-82l139 196h55zM227 527h-82l139 196h55z" />
    <glyph glyph-name="quotedblright" unicode="&#x201d;" horiz-adv-x="530" 
d="M399 527h-55l111 196h83zM200 527h-55l111 196h83z" />
    <glyph glyph-name="bullet" unicode="&#x2022;" horiz-adv-x="508" 
d="M434 362q0 -37 -14 -70t-39 -57.5t-58 -39t-70 -14.5q-38 0 -70.5 14t-57.5 39t-39 57.5t-14 70.5q0 37 14.5 70t39 57.5t57.5 38.5t70 14t70 -14t57.5 -38.5t39 -57.5t14.5 -70z" />
    <glyph glyph-name="endash" unicode="&#x2013;" horiz-adv-x="508" 
d="M468 235h-500l16 57h500z" />
    <glyph glyph-name="emdash" unicode="&#x2014;" horiz-adv-x="1008" 
d="M836 235h-735l16 57h735z" />
    <glyph glyph-name="tilde" unicode="&#x2dc;" horiz-adv-x="261" 
d="M385 712q-14 -37 -40.5 -62.5t-68.5 -25.5q-17 0 -34 5t-33.5 11.5t-32.5 11.5t-29 5q-19 0 -32 -11.5t-21 -26.5h-42q6 17 16 33.5t23 29t30 20t37 7.5q16 0 33.5 -6t34 -12.5t32 -12.5t26.5 -6q20 0 34.5 11.5t23.5 28.5h43v0z" />
    <glyph glyph-name="trademark" unicode="&#x2122;" horiz-adv-x="970" 
d="M836 333v318l-128 -318h-46l-127 319v-319h-58v389h87l121 -300l122 300h86v-389h-57zM253 673v-340h-60v340h-134v49h329v-49h-135z" />
    <glyph glyph-name="scaron" unicode="&#x161;" horiz-adv-x="587" 
d="M526 405q0 -8 -0.5 -15.5t-2.5 -15.5h-69q2 10 2 18q0 26 -13.5 41.5t-33.5 23.5t-43.5 10.5t-43.5 2.5q-26 0 -58.5 -4.5t-61.5 -16.5t-48.5 -32.5t-19.5 -51.5q0 -32 29.5 -47t69.5 -24l123 -29q22 -5 44 -13.5t39 -20.5t27.5 -29t10.5 -39q0 -56 -29 -91t-72 -54.5
t-94 -26t-94 -6.5q-33 0 -69.5 4.5t-67 18t-50.5 38.5t-20 65q0 10 0.5 17.5t1.5 13.5h70q-1 -6 -1.5 -11.5t-0.5 -11.5q0 -29 15 -46t37.5 -26t49 -11.5t48.5 -2.5q30 0 65.5 5t65.5 17.5t50.5 34t20.5 54.5q0 15 -8.5 27t-22.5 21t-31.5 15t-35.5 10l-129 29
q-23 5 -43 13.5t-36 21t-25 29.5t-9 38q0 51 26.5 84t66.5 52t86.5 26.5t86.5 7.5q29 0 63.5 -4.5t64 -16.5t49.5 -34t20 -58zM281 728l64 -110l131 110h64l-157 -141h-80l-74 141h52z" />
    <glyph glyph-name="guilsinglright" unicode="&#x203a;" horiz-adv-x="332" 
d="M179 270l-52 189h57l58 -197l-169 -191h-62z" />
    <glyph glyph-name="oe" unicode="&#x153;" horiz-adv-x="1152" 
d="M1079 348q0 -29 -5.5 -55.5t-13.5 -55.5h-461q-4 -16 -6.5 -31.5t-2.5 -32.5q0 -72 40 -106t109 -34q30 0 62 7t61 21.5t52.5 36.5t36.5 51h70q-18 -43 -47 -74t-66.5 -51t-81.5 -29.5t-92 -9.5q-35 0 -67.5 7t-59 22.5t-46 41.5t-27.5 65q-54 -71 -126.5 -103.5
t-161.5 -32.5q-44 0 -85.5 10t-74 31.5t-52 57t-19.5 86.5q0 35 8.5 71t23.5 69.5t36.5 63t47.5 52.5q51 45 116.5 68.5t142.5 23.5q36 0 72 -7t66 -23.5t52 -43t30 -64.5q51 72 114 105t150 33q43 0 80 -9.5t65 -30t44 -53t16 -77.5zM1011 347q0 33 -11.5 56t-31 38t-46 22
t-57.5 7q-45 0 -84 -13.5t-71 -38.5t-56.5 -59t-40.5 -74h389q4 15 6.5 31t2.5 31zM554 325q0 39 -13.5 66.5t-36.5 45t-54 25.5t-67 8q-61 0 -114 -21.5t-94 -60.5q-43 -42 -66 -98t-23 -116q0 -39 13.5 -66t36.5 -43.5t54.5 -24t66.5 -7.5q51 0 97 15.5t83 43.5t64 68
t41 88q5 19 8.5 38t3.5 39z" />
    <glyph glyph-name="zcaron" unicode="&#x17e;" horiz-adv-x="557" 
d="M458 448l-499 -398h394l-15 -50h-483l17 54l504 399h-376l15 50h459zM271 728l64 -110l131 110h64l-157 -141h-80l-74 141h52z" />
    <glyph glyph-name="Ydieresis" unicode="&#x178;" horiz-adv-x="723" 
d="M376 314l-90 -314h-70l91 317l-211 405h82l174 -351l378 351h93zM603 816h-66l24 81h65zM421 816h-66l23 81h66z" />
    <glyph glyph-name="uni00A0" unicode="&#xa0;" horiz-adv-x="358" 
 />
    <glyph glyph-name="exclamdown" unicode="&#xa1;" horiz-adv-x="470" 
d="M298 447h-75l23 84h75zM115 -192h-77l171 556h55z" />
    <glyph glyph-name="cent" unicode="&#xa2;" 
d="M562 347q-1 36 -18 66t-57 45l-270 -415q30 -10 67 -10q72 0 131.5 28t91.5 95h72q-20 -48 -51.5 -80.5t-70.5 -52.5t-84 -29t-94 -9q-48 0 -91 12l-70 -107h-45l78 120q-45 20 -74 58t-29 98q0 71 29.5 139t80.5 116q49 46 113.5 71.5t144.5 25.5q16 0 31.5 -1t30.5 -4
l64 99h45l-70 -108q46 -16 77.5 -52.5t38.5 -104.5h-71zM448 467q-17 3 -36 3q-63 0 -115.5 -23t-92.5 -64q-39 -40 -61.5 -93t-22.5 -115q0 -42 16.5 -71t45.5 -46z" />
    <glyph glyph-name="sterling" unicode="&#xa3;" 
d="M734 606q0 -14 -1 -27t-5 -26h-70q5 17 5 35q0 27 -12 45t-31.5 29t-43.5 15.5t-47 4.5q-92 0 -154 -50.5t-88 -141.5l-23 -81h230l-15 -51h-229l-87 -302h405l-17 -56h-573l16 56h100l86 302h-99l14 51h100l24 87q32 118 115 179.5t201 61.5q32 0 67 -5.5t64.5 -20.5
t48.5 -40.5t19 -64.5z" />
    <glyph glyph-name="currency" unicode="&#xa4;" 
d="M78 122l89 89q-23 30 -36 67.5t-13 80.5q0 42 13 79.5t37 68.5l-90 90l40 41l91 -90q30 23 68 36.5t81 13.5q42 0 80 -13.5t69 -36.5l90 90l41 -41l-91 -90q24 -30 37.5 -67.5t13.5 -80.5t-13.5 -80t-36.5 -68l90 -89l-41 -41l-90 89q-31 -24 -68.5 -37t-80.5 -13t-81 13
t-69 37l-90 -89zM534 359q0 38 -13.5 71.5t-37 58t-56 38.5t-69.5 14q-38 0 -70 -14t-55.5 -38.5t-37 -58t-13.5 -71.5t13.5 -71.5t37 -58t55.5 -38.5t70 -14q37 0 69.5 14t56 38.5t37 58t13.5 71.5z" />
    <glyph glyph-name="yen" unicode="&#xa5;" 
d="M423 368h159l-14 -50h-191l-25 -89h191l-14 -50h-192l-51 -179h-68l52 179h-190l13 50h190l26 89h-190l14 50h160l-138 354h76l124 -352l322 352h84z" />
    <glyph glyph-name="brokenbar" unicode="&#xa6;" horiz-adv-x="222" 
d="M80 411v250h62v-250h-62zM80 -89v250h62v-250h-62z" />
    <glyph glyph-name="section" unicode="&#xa7;" horiz-adv-x="569" 
d="M533 654q-34 14 -71 22.5t-73 8.5q-22 0 -47.5 -6t-47 -18.5t-36 -31.5t-14.5 -46q0 -18 10.5 -31.5t27 -24.5t38 -20.5t43.5 -18.5t42.5 -18.5t37 -21t26.5 -26t10 -32.5q0 -28 -17 -50t-42 -38.5t-54 -28t-52 -19.5q17 -6 34.5 -15.5t31.5 -22t22.5 -28.5t8.5 -37
q0 -45 -22.5 -78.5t-57.5 -55t-79 -32.5t-86 -11q-18 0 -40 2.5t-44 6.5t-43.5 10t-37.5 12l18 58q35 -18 73.5 -28t78.5 -10q24 0 53.5 7t55 21t43 35.5t17.5 51.5q0 17 -11 30.5t-28.5 24.5t-40 20.5t-46.5 18.5t-47 19t-41.5 21.5t-29.5 25.5t-11 32q0 25 13 46t35 38.5
t52 32.5t65 27q-14 7 -28 16.5t-25 21t-17.5 26t-6.5 31.5q0 42 21 73t53.5 52t71.5 31t76 10t78.5 -7t76.5 -17zM410 379q0 22 -28.5 40t-86.5 38q-16 -5 -39.5 -15.5t-46 -24.5t-38.5 -32t-16 -39q0 -26 30 -41t82 -31q16 5 40 14.5t47 22.5t39.5 30t16.5 38z" />
    <glyph glyph-name="dieresis" unicode="&#xa8;" horiz-adv-x="261" 
d="M335 640h-66l24 81h65zM153 640h-66l23 81h66z" />
    <glyph glyph-name="copyright" unicode="&#xa9;" horiz-adv-x="829" 
d="M793 362q0 -80 -28.5 -148.5t-78.5 -119t-119.5 -79.5t-151.5 -29t-151.5 29t-120 79.5t-79 119t-28.5 148.5q0 79 28.5 147.5t79 118.5t120 79t151.5 29t151.5 -29t119.5 -79t78.5 -118.5t28.5 -147.5zM747 362q0 70 -25 130.5t-69 105.5t-105 70.5t-133 25.5
t-133 -25.5t-105.5 -70.5t-69 -105.5t-24.5 -130.5q0 -71 24.5 -132t68.5 -106t105 -70.5t134 -25.5q72 0 133 25.5t105 70.5t69 106t25 132zM621 276q-11 -57 -64 -90.5t-131 -33.5q-108 0 -163.5 53.5t-55.5 153.5q0 96 56.5 154.5t164.5 58.5q83 0 130 -33t55 -86h-64
q-8 33 -37 52.5t-84 19.5q-76 0 -115.5 -45t-39.5 -119q0 -78 38.5 -120.5t115.5 -42.5q55 0 87 21.5t43 56.5h64z" />
    <glyph glyph-name="ordfeminine" unicode="&#xaa;" horiz-adv-x="457" 
d="M476 663q0 -17 -2.5 -28.5t-4.5 -19.5q-14 -51 -27.5 -96t-24.5 -97h-51l14 52q-14 -18 -32.5 -29.5t-39.5 -18t-43.5 -9.5t-43.5 -3q-18 0 -39.5 3.5t-40 12t-30.5 23.5t-12 38q0 43 25 67t61.5 36t77 14.5t71.5 2.5h15h22t24.5 -0.5t21.5 -0.5q2 9 4.5 18.5t2.5 18.5
q0 18 -9 28.5t-23 15.5t-30 6.5t-29 1.5q-15 0 -31.5 -3t-32 -9t-28.5 -16.5t-19 -25.5h-58q10 27 29.5 45t43.5 28.5t51 14.5t53 4q19 0 43 -2t44 -9.5t34 -22.5t14 -40zM406 572q-5 0 -14.5 0.5t-20.5 0.5h-20.5h-14.5q-18 0 -48 -1.5t-59 -8t-50.5 -21.5t-21.5 -42
q0 -15 9 -24t22 -14.5t27.5 -7t25.5 -1.5q54 0 96.5 20.5t59.5 71.5z" />
    <glyph glyph-name="guillemotleft" unicode="&#xab;" horiz-adv-x="514" 
d="M100 260l52 -189h-57l-58 197l169 191h62zM281 260l52 -189h-57l-58 197l169 191h62z" />
    <glyph glyph-name="logicalnot" unicode="&#xac;" horiz-adv-x="661" 
d="M507 130v191h-480v61h545v-252h-65z" />
    <glyph glyph-name="uni00AD" unicode="&#xad;" horiz-adv-x="374" 
d="M304 238h-298l17 60h298z" />
    <glyph glyph-name="registered" unicode="&#xae;" horiz-adv-x="516" 
d="M490 546q0 -39 -15 -73t-40.5 -59.5t-59.5 -40t-73 -14.5q-40 0 -74 15t-59 41t-39.5 60t-14.5 72q0 39 14.5 72.5t40 59t59.5 40t73 14.5t73 -14.5t59.5 -40t40.5 -59.5t15 -73zM460 546q0 33 -12.5 61.5t-34 50.5t-50 34.5t-61.5 12.5q-32 0 -61 -12.5t-50.5 -34.5
t-34 -50.5t-12.5 -61.5t12.5 -61.5t34 -50t50 -33.5t61.5 -12t62 12.5t50 33.5t33.5 49.5t12.5 61.5zM351 448q-6 13 -6 28t-2.5 28t-10.5 21t-30 8h-40v-85h-30v200h73q31 0 52.5 -10t21.5 -44q0 -17 -9 -29t-24 -18q15 -7 20 -19t6.5 -26l3 -28t9.5 -26h-34zM348 592
q0 12 -4.5 18.5t-11.5 9.5t-15.5 3.5t-17.5 0.5h-37v-66h35q9 0 18 1t16.5 4.5t12 10.5t4.5 18z" />
    <glyph glyph-name="macron" unicode="&#xaf;" horiz-adv-x="261" 
d="M360 646h-294l13 49h295z" />
    <glyph glyph-name="degree" unicode="&#xb0;" horiz-adv-x="426" 
d="M373 576q0 -34 -12 -63t-33.5 -50.5t-51 -33.5t-63.5 -12t-63.5 12t-51 33.5t-33.5 50.5t-12 63t12 63t33.5 50t51 33t63.5 12t63.5 -12t51 -33t33.5 -50t12 -63zM321 576q0 24 -8 44.5t-22.5 35t-34.5 23t-43 8.5t-43 -8.5t-34.5 -23t-22.5 -35t-8 -44.5t8 -44.5
t22.5 -35.5t34.5 -23.5t43 -8.5t43 8.5t34.5 23.5t22.5 35.5t8 44.5z" />
    <glyph glyph-name="plusminus" unicode="&#xb1;" horiz-adv-x="661" 
d="M331 283v-180h-64v180h-240v61h240v182h64v-182h241v-61h-241zM27 0v61h545v-61h-545z" />
    <glyph glyph-name="twosuperior" unicode="&#xb2;" horiz-adv-x="487" 
d="M101 463l14 47l159 83q106 55 162.5 100t56.5 92q0 18 -8 30.5t-21.5 20t-30 10.5t-34.5 3q-48 0 -87 -21.5t-56 -69.5h-61q26 73 82 106t130 33q26 0 52 -4.5t47 -15.5t34.5 -29.5t13.5 -47.5q0 -35 -15 -65.5t-42.5 -57.5t-65.5 -51.5t-84 -48.5l-128 -66h276l-14 -48
h-380z" />
    <glyph glyph-name="threesuperior" unicode="&#xb3;" horiz-adv-x="487" 
d="M564 801q0 -25 -9.5 -45.5t-26 -36t-39 -24t-47.5 -9.5q30 -8 55 -27.5t25 -54.5q0 -36 -19 -63.5t-51 -46t-73 -28t-85 -9.5q-24 0 -52.5 3t-53 12.5t-41 28t-16.5 49.5q0 20 6 41h57q-3 -11 -3 -24q0 -21 11 -33.5t27.5 -18.5t36 -8t35.5 -2q34 0 64 6.5t52 19
t34.5 30.5t12.5 41q0 17 -9 28t-24 18t-34 9.5t-39 2.5h-67l14 48h59q24 0 49 5t45.5 15t33 26t12.5 39q0 27 -27 41.5t-72 14.5q-22 0 -44.5 -4t-42 -13t-35 -24t-23.5 -38h-57q11 34 32 58t48.5 39.5t59.5 22.5t65 7t61.5 -4.5t49.5 -15.5t33 -29.5t12 -46.5z" />
    <glyph glyph-name="acute" unicode="&#xb4;" horiz-adv-x="261" 
d="M183 587h-58l136 141h93z" />
    <glyph glyph-name="mu" unicode="&#xb5;" horiz-adv-x="699" 
d="M9 -196h-65l200 699h67l-86 -300q-5 -17 -7.5 -36.5t-2.5 -33.5q0 -56 37 -78t100 -22q33 0 70.5 12.5t73 38.5t65 67t45.5 97l73 255h67l-110 -383q-3 -10 -7.5 -26.5t-9 -34t-8.5 -33.5t-7 -26h-64l29 109q-47 -64 -108.5 -94t-129.5 -30q-55 0 -93 22.5t-52 63.5z" />
    <glyph glyph-name="paragraph" unicode="&#xb6;" horiz-adv-x="650" 
d="M425 0h-62l206 679h-161l-206 -679h-61l112 363q-29 0 -59.5 7.5t-55.5 23.5t-40.5 40.5t-15.5 59.5q0 65 30 109t75 70.5t97 37.5t96 11h261z" />
    <glyph glyph-name="periodcentered" unicode="&#xb7;" horiz-adv-x="358" 
d="M197 278h-77l24 85h77z" />
    <glyph glyph-name="cedilla" unicode="&#xb8;" horiz-adv-x="261" 
d="M99 -104q0 -24 -12 -40.5t-31 -27.5t-42 -16t-45 -5q-26 0 -53.5 6t-50.5 17l19 30q21 -8 39.5 -13.5t41.5 -5.5q28 0 50.5 12.5t22.5 35.5q0 26 -48 26q-10 0 -19 -2t-17 -4l-7 18l63 80h38l-54 -66q11 2 18.5 2.5t15.5 0.5q28 0 49.5 -11t21.5 -37z" />
    <glyph glyph-name="onesuperior" unicode="&#xb9;" horiz-adv-x="487" 
d="M350 463h-56l107 374q-35 -25 -72.5 -42t-78.5 -29l14 51q42 14 80.5 32.5t76.5 41.5h52z" />
    <glyph glyph-name="ordmasculine" unicode="&#xba;" horiz-adv-x="502" 
d="M519 620q0 -52 -20.5 -90.5t-54.5 -64t-78.5 -38.5t-91.5 -13q-28 0 -57.5 5.5t-54 19t-40.5 36t-16 56.5q0 52 21 90.5t55.5 64t79.5 38.5t92 13q28 0 57 -6t53 -19.5t39.5 -36t15.5 -55.5zM460 609q0 24 -9.5 41.5t-25 28t-35.5 15.5t-41 5q-33 0 -66 -11.5t-59.5 -32
t-42.5 -50t-16 -65.5q0 -24 10 -40.5t26 -27t36.5 -15t40.5 -4.5q34 0 66.5 10.5t58 31t41.5 49.5t16 65z" />
    <glyph glyph-name="guillemotright" unicode="&#xbb;" horiz-adv-x="513" 
d="M358 270l-52 189h57l58 -197l-169 -191h-62zM177 270l-52 189h57l58 -197l-169 -191h-62z" />
    <glyph glyph-name="onequarter" unicode="&#xbc;" horiz-adv-x="1065" 
d="M906 97h-93l-28 -97h-57l28 97h-287l15 53l356 278h68l-81 -283h93zM108 -46h-56l844 814h55zM295 303h-56l107 374q-35 -25 -73 -42t-79 -29l15 51q42 14 80.5 32.5t76.5 41.5h52zM545 145h225l63 222z" />
    <glyph glyph-name="onehalf" unicode="&#xbd;" horiz-adv-x="1065" 
d="M950 337q0 -35 -18 -66t-48 -58.5t-68.5 -52t-79.5 -46.5q-7 -3 -26 -13t-40 -21.5t-39.5 -21t-23.5 -11.5h284l-14 -47h-380l14 47q6 3 28.5 14.5t48.5 25t50 26t32 17.5q49 27 89.5 51.5t69.5 47.5t44.5 46t15.5 46q0 18 -8 30.5t-21.5 20t-30 11t-34.5 3.5
q-48 0 -87 -21.5t-56 -69.5h-61q26 73 82 106t130 33q26 0 52 -4.5t47 -15.5t34.5 -29.5t13.5 -47.5zM96 -46h-55l843 814h55zM286 303h-56l107 374q-35 -25 -72.5 -42t-78.5 -29l14 51q42 14 80.5 32.5t76.5 41.5h52z" />
    <glyph glyph-name="threequarters" unicode="&#xbe;" horiz-adv-x="1065" 
d="M934 97h-93l-27 -97h-58l29 97h-287l15 53l355 278h68l-81 -283h93zM511 648q0 -26 -10.5 -47t-28 -36t-39.5 -25t-45 -13l1 -1q30 -8 55 -27.5t25 -54.5q0 -43 -23 -72t-57 -46t-74 -24.5t-74 -7.5q-24 0 -52.5 3.5t-53 14t-41 29t-16.5 49.5q0 20 6 41h57
q-3 -11 -3 -24q0 -21 11 -34t27.5 -19.5t36 -9t35.5 -2.5q20 0 48 5t53.5 16.5t43.5 30t18 44.5q0 18 -9 30t-24 19t-34 10t-39 3h-67l14 48h59q24 0 49 5t45.5 15t33 26t12.5 39q0 16 -9.5 27t-24.5 17.5t-32.5 9t-32.5 2.5q-22 0 -44.5 -4t-42 -13t-35 -24t-23.5 -38h-57
q11 34 32 58t48.5 39.5t59.5 22.5t65 7q24 0 51 -3.5t50.5 -13t39 -27t15.5 -45.5zM168 -46h-56l844 814h55zM573 145h225l64 222z" />
    <glyph glyph-name="questiondown" unicode="&#xbf;" horiz-adv-x="571" 
d="M-38 -83q0 29 8 55t25 51.5t45 52.5t69 57l110 83q12 9 20.5 17t14.5 16t10 18t8 24l22 76h57l-24 -84q-5 -16 -10.5 -28.5t-14 -24t-21 -22.5t-29.5 -25l-127 -102q-41 -33 -65.5 -70t-24.5 -77q0 -25 11.5 -41.5t31.5 -27t46.5 -15t56.5 -4.5q37 0 72.5 5t74.5 15
l-16 -56q-45 -7 -83 -11.5t-76 -4.5q-40 0 -75 6.5t-60.5 21.5t-40.5 38.5t-15 56.5zM406 531l-24 -83h-73l24 83h73z" />
    <glyph glyph-name="Agrave" unicode="&#xc0;" horiz-adv-x="829" 
d="M657 0l-43 207h-450l-162 -207h-84l576 725h77l160 -725h-74zM520 661l-312 -397h394zM561 773l-92 141h78l63 -141h-49z" />
    <glyph glyph-name="Aacute" unicode="&#xc1;" horiz-adv-x="829" 
d="M657 0l-43 207h-450l-162 -207h-84l576 725h77l160 -725h-74zM520 661l-312 -397h394zM528 773h-58l136 141h93z" />
    <glyph glyph-name="Acircumflex" unicode="&#xc2;" horiz-adv-x="829" 
d="M657 0l-43 207h-450l-162 -207h-84l576 725h77l160 -725h-74zM520 661l-312 -397h394zM633 773l-64 110l-131 -110h-64l157 141h80l74 -141h-52z" />
    <glyph glyph-name="Atilde" unicode="&#xc3;" horiz-adv-x="829" 
d="M657 0l-43 207h-450l-162 -207h-84l576 725h77l160 -725h-74zM520 661l-312 -397h394zM729 898q-14 -37 -40.5 -62.5t-68.5 -25.5q-17 0 -34 5t-33.5 11.5t-32.5 11.5t-29 5q-19 0 -32 -11.5t-21 -26.5h-42q6 17 16 33.5t23 29t30 20t37 7.5q16 0 33.5 -6t34 -12.5
t32 -12.5t26.5 -6q20 0 34.5 11.5t23.5 28.5h43v0z" />
    <glyph glyph-name="Adieresis" unicode="&#xc4;" horiz-adv-x="829" 
d="M657 0l-43 207h-450l-162 -207h-84l576 725h77l160 -725h-74zM520 661l-312 -397h394zM669 816h-66l24 81h65zM487 816h-66l23 81h66z" />
    <glyph glyph-name="Aring" unicode="&#xc5;" horiz-adv-x="829" 
d="M657 0l-43 207h-450l-162 -207h-84l576 725h77l160 -725h-74zM520 661l-312 -397h394zM659 848q0 -39 -27 -66t-66 -27t-66 27t-27 66t27 66t66 27t66 -27t27 -66zM622 848q0 26 -16 42.5t-40 16.5t-40 -16.5t-16 -42.5t16 -42.5t40 -16.5t40 16.5t16 42.5z" />
    <glyph glyph-name="AE" unicode="&#xc6;" horiz-adv-x="1196" 
d="M1215 665h-472l-26 -260h403l-16 -57h-389l-30 -291h372l-16 -57h-432l22 206h-440l-216 -206h-91l771 722h577zM250 263h385l41 398z" />
    <glyph glyph-name="Ccedilla" unicode="&#xc7;" horiz-adv-x="813" 
d="M410 -104q0 -24 -12 -40.5t-31 -27.5t-42 -16t-45 -5q-26 0 -53.5 6t-50.5 17l19 30q21 -8 39.5 -13.5t41.5 -5.5q28 0 50.5 12.5t22.5 35.5q0 26 -48 26q-10 0 -19 -2t-17 -4l-7 18l47 60q-53 4 -99.5 21.5t-81 48.5t-54.5 75.5t-20 103.5q0 48 10 97.5t29.5 97.5
t47.5 92t64 79q65 64 151.5 99.5t191.5 35.5q45 0 91 -8.5t83 -28.5t60 -53t23 -82h-75q0 59 -50 87.5t-141 28.5q-85 0 -155 -30t-122 -82q-62 -63 -98 -149.5t-36 -182.5q0 -53 18 -90t49.5 -60.5t75 -34.5t94.5 -11q48 0 91.5 8t80.5 26t66 45.5t49 66.5h75
q-28 -57 -67.5 -95.5t-88 -62.5t-105 -34t-119.5 -10h-2l-36 -44q11 2 18.5 2.5t15.5 0.5q28 0 49.5 -11t21.5 -37z" />
    <glyph glyph-name="Egrave" unicode="&#xc8;" horiz-adv-x="680" 
d="M700 665h-430l-75 -260h410l-16 -57h-410l-83 -291h439l-17 -57h-509l207 722h500zM500 773l-92 141h78l63 -141h-49z" />
    <glyph glyph-name="Eacute" unicode="&#xc9;" horiz-adv-x="680" 
d="M700 665h-430l-75 -260h410l-16 -57h-410l-83 -291h439l-17 -57h-509l207 722h500zM477 773h-58l136 141h93z" />
    <glyph glyph-name="Ecircumflex" unicode="&#xca;" horiz-adv-x="680" 
d="M700 665h-430l-75 -260h410l-16 -57h-410l-83 -291h439l-17 -57h-509l207 722h500zM592 773l-64 110l-131 -110h-64l157 141h80l74 -141h-52z" />
    <glyph glyph-name="Edieresis" unicode="&#xcb;" horiz-adv-x="680" 
d="M700 665h-430l-75 -260h410l-16 -57h-410l-83 -291h439l-17 -57h-509l207 722h500zM603 816h-66l24 81h65zM421 816h-66l23 81h66z" />
    <glyph glyph-name="Igrave" unicode="&#xcc;" horiz-adv-x="296" 
d="M79 0h-70l208 722h70zM281 773l-92 141h78l63 -141h-49z" />
    <glyph glyph-name="Iacute" unicode="&#xcd;" horiz-adv-x="296" 
d="M79 0h-70l208 722h70zM248 773h-58l136 141h93z" />
    <glyph glyph-name="Icircumflex" unicode="&#xce;" horiz-adv-x="296" 
d="M79 0h-70l208 722h70zM363 773l-64 110l-131 -110h-64l157 141h80l74 -141h-52z" />
    <glyph glyph-name="Idieresis" unicode="&#xcf;" horiz-adv-x="296" 
d="M79 0h-70l208 722h70zM399 816h-66l24 81h65zM217 816h-66l23 81h66z" />
    <glyph glyph-name="Eth" unicode="&#xd0;" horiz-adv-x="862" 
d="M812 485q0 -47 -11 -98.5t-31.5 -101t-49 -94t-62.5 -77.5q-68 -64 -155.5 -89t-204.5 -25h-290l105 365h-82l15 51h81l88 306h269q60 0 118.5 -10.5t105 -37.5t75.5 -73t29 -116zM738 481q0 57 -24 93t-62.5 56.5t-86 27.5t-94.5 7h-202l-71 -249h265l-15 -51h-265
l-88 -308h221q95 0 167.5 23.5t125.5 76.5q30 29 53.5 68t40.5 82t26 88t9 86z" />
    <glyph glyph-name="Ntilde" unicode="&#xd1;" horiz-adv-x="885" 
d="M669 0h-95l-308 663l-190 -663h-67l207 722h95l309 -663l189 663h67zM728 898q-14 -37 -40.5 -62.5t-68.5 -25.5q-17 0 -34 5t-33.5 11.5t-32.5 11.5t-29 5q-19 0 -32 -11.5t-21 -26.5h-42q6 17 16 33.5t23 29t30 20t37 7.5q16 0 33.5 -6t34 -12.5t32 -12.5t26.5 -6
q20 0 34.5 11.5t23.5 28.5h43v0z" />
    <glyph glyph-name="Ograve" unicode="&#xd2;" horiz-adv-x="909" 
d="M859 471q0 -107 -38 -200t-107 -159q-63 -61 -148 -94t-189 -33q-67 0 -126.5 15.5t-104 48t-70.5 82.5t-26 118q0 53 12 105t34 100t53.5 90t70.5 77q64 56 145.5 86t175.5 30q61 0 118.5 -16t102 -49t71 -83t26.5 -118zM785 467q0 55 -20.5 95t-55 66.5t-80.5 39.5
t-96 13q-80 0 -147.5 -26.5t-120.5 -75.5q-66 -61 -103.5 -144.5t-37.5 -179.5q0 -58 20 -99t55 -66.5t83 -37t104 -11.5q84 0 152.5 29t120.5 81q60 60 93 142t33 174zM560 773l-92 141h78l63 -141h-49z" />
    <glyph glyph-name="Oacute" unicode="&#xd3;" horiz-adv-x="909" 
d="M859 471q0 -107 -38 -200t-107 -159q-63 -61 -148 -94t-189 -33q-67 0 -126.5 15.5t-104 48t-70.5 82.5t-26 118q0 53 12 105t34 100t53.5 90t70.5 77q64 56 145.5 86t175.5 30q61 0 118.5 -16t102 -49t71 -83t26.5 -118zM785 467q0 55 -20.5 95t-55 66.5t-80.5 39.5
t-96 13q-80 0 -147.5 -26.5t-120.5 -75.5q-66 -61 -103.5 -144.5t-37.5 -179.5q0 -58 20 -99t55 -66.5t83 -37t104 -11.5q84 0 152.5 29t120.5 81q60 60 93 142t33 174zM527 773h-58l136 141h93z" />
    <glyph glyph-name="Ocircumflex" unicode="&#xd4;" horiz-adv-x="909" 
d="M859 471q0 -107 -38 -200t-107 -159q-63 -61 -148 -94t-189 -33q-67 0 -126.5 15.5t-104 48t-70.5 82.5t-26 118q0 53 12 105t34 100t53.5 90t70.5 77q64 56 145.5 86t175.5 30q61 0 118.5 -16t102 -49t71 -83t26.5 -118zM785 467q0 55 -20.5 95t-55 66.5t-80.5 39.5
t-96 13q-80 0 -147.5 -26.5t-120.5 -75.5q-66 -61 -103.5 -144.5t-37.5 -179.5q0 -58 20 -99t55 -66.5t83 -37t104 -11.5q84 0 152.5 29t120.5 81q60 60 93 142t33 174zM642 773l-64 110l-131 -110h-64l157 141h80l74 -141h-52z" />
    <glyph glyph-name="Otilde" unicode="&#xd5;" horiz-adv-x="909" 
d="M859 471q0 -107 -38 -200t-107 -159q-63 -61 -148 -94t-189 -33q-67 0 -126.5 15.5t-104 48t-70.5 82.5t-26 118q0 53 12 105t34 100t53.5 90t70.5 77q64 56 145.5 86t175.5 30q61 0 118.5 -16t102 -49t71 -83t26.5 -118zM785 467q0 55 -20.5 95t-55 66.5t-80.5 39.5
t-96 13q-80 0 -147.5 -26.5t-120.5 -75.5q-66 -61 -103.5 -144.5t-37.5 -179.5q0 -58 20 -99t55 -66.5t83 -37t104 -11.5q84 0 152.5 29t120.5 81q60 60 93 142t33 174zM728 898q-14 -37 -40.5 -62.5t-68.5 -25.5q-17 0 -34 5t-33.5 11.5t-32.5 11.5t-29 5q-19 0 -32 -11.5
t-21 -26.5h-42q6 17 16 33.5t23 29t30 20t37 7.5q16 0 33.5 -6t34 -12.5t32 -12.5t26.5 -6q20 0 34.5 11.5t23.5 28.5h43v0z" />
    <glyph glyph-name="Odieresis" unicode="&#xd6;" horiz-adv-x="909" 
d="M859 471q0 -107 -38 -200t-107 -159q-63 -61 -148 -94t-189 -33q-67 0 -126.5 15.5t-104 48t-70.5 82.5t-26 118q0 53 12 105t34 100t53.5 90t70.5 77q64 56 145.5 86t175.5 30q61 0 118.5 -16t102 -49t71 -83t26.5 -118zM785 467q0 55 -20.5 95t-55 66.5t-80.5 39.5
t-96 13q-80 0 -147.5 -26.5t-120.5 -75.5q-66 -61 -103.5 -144.5t-37.5 -179.5q0 -58 20 -99t55 -66.5t83 -37t104 -11.5q84 0 152.5 29t120.5 81q60 60 93 142t33 174zM678 816h-66l24 81h65zM496 816h-66l23 81h66z" />
    <glyph glyph-name="multiply" unicode="&#xd7;" horiz-adv-x="661" 
d="M491 15l-191 192l-193 -192l-43 43l192 193l-192 191l43 44l193 -192l191 192l44 -44l-192 -191l192 -193z" />
    <glyph glyph-name="Oslash" unicode="&#xd8;" horiz-adv-x="909" 
d="M725 616q-36 33 -85.5 49t-106.5 16q-80 0 -147.5 -26.5t-120.5 -75.5q-66 -61 -103.5 -144.5t-37.5 -179.5q0 -38 8.5 -67.5t23.5 -52.5zM181 105q36 -34 88.5 -49t116.5 -15q84 0 152.5 29t120.5 81q60 60 93 142t33 174q0 36 -9 66t-26 54zM804 632q26 -31 40.5 -70.5
t14.5 -90.5q0 -107 -38 -200t-107 -159q-63 -61 -148 -94t-189 -33q-73 0 -137 19t-110 58l-122 -104l-25 30l120 102q-25 30 -39 69.5t-14 89.5q0 53 12 105t34 100t53.5 90t70.5 77q64 56 145.5 86t175.5 30q67 0 129 -19t107 -58l127 108l26 -29z" />
    <glyph glyph-name="Ugrave" unicode="&#xd9;" horiz-adv-x="851" 
d="M723 284q-42 -145 -137.5 -222t-244.5 -77q-48 0 -96.5 9t-87.5 31t-63.5 59t-24.5 93q0 28 4 54.5t12 53.5l125 437h70l-126 -441q-6 -22 -10 -45t-4 -46q0 -44 16.5 -72.5t44 -45.5t63 -24t73.5 -7q121 0 202.5 64.5t113.5 178.5l125 438h70zM545 773l-92 141h78
l63 -141h-49z" />
    <glyph glyph-name="Uacute" unicode="&#xda;" horiz-adv-x="851" 
d="M723 284q-42 -145 -137.5 -222t-244.5 -77q-48 0 -96.5 9t-87.5 31t-63.5 59t-24.5 93q0 28 4 54.5t12 53.5l125 437h70l-126 -441q-6 -22 -10 -45t-4 -46q0 -44 16.5 -72.5t44 -45.5t63 -24t73.5 -7q121 0 202.5 64.5t113.5 178.5l125 438h70zM512 773h-58l136 141h93z
" />
    <glyph glyph-name="Ucircumflex" unicode="&#xdb;" horiz-adv-x="851" 
d="M723 284q-42 -145 -137.5 -222t-244.5 -77q-48 0 -96.5 9t-87.5 31t-63.5 59t-24.5 93q0 28 4 54.5t12 53.5l125 437h70l-126 -441q-6 -22 -10 -45t-4 -46q0 -44 16.5 -72.5t44 -45.5t63 -24t73.5 -7q121 0 202.5 64.5t113.5 178.5l125 438h70zM627 773l-64 110
l-131 -110h-64l157 141h80l74 -141h-52z" />
    <glyph glyph-name="Udieresis" unicode="&#xdc;" horiz-adv-x="851" 
d="M723 284q-42 -145 -137.5 -222t-244.5 -77q-48 0 -96.5 9t-87.5 31t-63.5 59t-24.5 93q0 28 4 54.5t12 53.5l125 437h70l-126 -441q-6 -22 -10 -45t-4 -46q0 -44 16.5 -72.5t44 -45.5t63 -24t73.5 -7q121 0 202.5 64.5t113.5 178.5l125 438h70zM663 816h-66l24 81h65z
M481 816h-66l23 81h66z" />
    <glyph glyph-name="Yacute" unicode="&#xdd;" horiz-adv-x="723" 
d="M376 314l-90 -314h-70l91 317l-211 405h82l174 -351l378 351h93zM452 773h-58l136 141h93z" />
    <glyph glyph-name="Thorn" unicode="&#xde;" horiz-adv-x="722" 
d="M688 420q0 -94 -65 -162q-36 -38 -92.5 -57.5t-150.5 -19.5h-249l-52 -181h-70l207 722h70l-42 -148h219q36 0 75.5 -6t73 -23t55 -47t21.5 -78zM613 420q0 31 -15.5 50t-39 29.5t-52 14t-54.5 3.5h-225l-80 -280h234q54 0 103.5 14.5t82.5 48.5q24 25 35 55.5t11 64.5z
" />
    <glyph glyph-name="germandbls" unicode="&#xdf;" horiz-adv-x="765" 
d="M691 621q0 -37 -17 -64t-42 -47.5t-55 -37t-55 -32t-42 -32.5t-17 -38q0 -18 16 -30t40.5 -23.5t53 -23t53 -27.5t40.5 -38t16 -53q0 -51 -23 -87t-59.5 -59t-82.5 -33.5t-91 -10.5q-29 0 -59.5 4.5t-55.5 17.5t-41.5 34.5t-16.5 56.5q0 24 6 48h70q-4 -15 -4 -33
q0 -23 9.5 -38.5t25.5 -24.5t35.5 -13t39.5 -4q30 0 61 9t56.5 26t42 41.5t16.5 56.5q0 25 -16 41.5t-40 29.5t-51.5 24.5t-51.5 25t-40 31t-16 43.5q0 32 17 56.5t42 44t55 36.5t55 34.5t42 37t17 45.5q0 25 -16.5 39.5t-40 22.5t-48.5 10.5t-43 2.5q-63 0 -109.5 -18
t-81 -49.5t-57.5 -76t-38 -96.5l-128 -450h-67l124 433q21 75 50.5 131.5t71.5 95t100 58t136 19.5q32 0 69.5 -4.5t69.5 -17.5t53.5 -35.5t21.5 -58.5z" />
    <glyph glyph-name="agrave" unicode="&#xe0;" horiz-adv-x="669" 
d="M572 394q0 -17 -3.5 -35.5t-11.5 -42.5l-70 -236q-7 -23 -11.5 -39.5t-9.5 -40.5h-64l26 91q-51 -62 -113.5 -84t-140.5 -22q-31 0 -63 6.5t-58.5 21t-43.5 38t-17 57.5q0 46 19.5 79t52 54.5t73.5 34t84.5 19t85 8t75.5 1.5h22.5t30 -0.5t30 -1t22.5 -0.5q6 21 11.5 41
t5.5 40q0 29 -12.5 46t-32.5 26t-44.5 12t-47.5 3q-27 0 -56 -4.5t-56 -15.5t-48.5 -29.5t-32.5 -45.5h-70q16 41 46 68.5t67.5 44t79.5 23.5t82 7q31 0 65 -4.5t62.5 -18t47 -38t18.5 -63.5zM471 255q-8 0 -25 0.5t-36.5 1t-36.5 0.5h-25q-22 0 -52 -1.5t-62 -6t-62.5 -14
t-54.5 -25t-39 -39t-15 -56.5q0 -25 13 -41t33 -25t44 -12.5t46 -3.5q96 0 162 42t93 127zM423 587l-92 141h78l63 -141h-49z" />
    <glyph glyph-name="aacute" unicode="&#xe1;" horiz-adv-x="669" 
d="M572 394q0 -17 -3.5 -35.5t-11.5 -42.5l-70 -236q-7 -23 -11.5 -39.5t-9.5 -40.5h-64l26 91q-51 -62 -113.5 -84t-140.5 -22q-31 0 -63 6.5t-58.5 21t-43.5 38t-17 57.5q0 46 19.5 79t52 54.5t73.5 34t84.5 19t85 8t75.5 1.5h22.5t30 -0.5t30 -1t22.5 -0.5q6 21 11.5 41
t5.5 40q0 29 -12.5 46t-32.5 26t-44.5 12t-47.5 3q-27 0 -56 -4.5t-56 -15.5t-48.5 -29.5t-32.5 -45.5h-70q16 41 46 68.5t67.5 44t79.5 23.5t82 7q31 0 65 -4.5t62.5 -18t47 -38t18.5 -63.5zM471 255q-8 0 -25 0.5t-36.5 1t-36.5 0.5h-25q-22 0 -52 -1.5t-62 -6t-62.5 -14
t-54.5 -25t-39 -39t-15 -56.5q0 -25 13 -41t33 -25t44 -12.5t46 -3.5q96 0 162 42t93 127zM388 587h-58l136 141h93z" />
    <glyph glyph-name="acircumflex" unicode="&#xe2;" horiz-adv-x="669" 
d="M572 394q0 -17 -3.5 -35.5t-11.5 -42.5l-70 -236q-7 -23 -11.5 -39.5t-9.5 -40.5h-64l26 91q-51 -62 -113.5 -84t-140.5 -22q-31 0 -63 6.5t-58.5 21t-43.5 38t-17 57.5q0 46 19.5 79t52 54.5t73.5 34t84.5 19t85 8t75.5 1.5h22.5t30 -0.5t30 -1t22.5 -0.5q6 21 11.5 41
t5.5 40q0 29 -12.5 46t-32.5 26t-44.5 12t-47.5 3q-27 0 -56 -4.5t-56 -15.5t-48.5 -29.5t-32.5 -45.5h-70q16 41 46 68.5t67.5 44t79.5 23.5t82 7q31 0 65 -4.5t62.5 -18t47 -38t18.5 -63.5zM471 255q-8 0 -25 0.5t-36.5 1t-36.5 0.5h-25q-22 0 -52 -1.5t-62 -6t-62.5 -14
t-54.5 -25t-39 -39t-15 -56.5q0 -25 13 -41t33 -25t44 -12.5t46 -3.5q96 0 162 42t93 127zM504 587l-64 110l-131 -110h-64l157 141h80l74 -141h-52z" />
    <glyph glyph-name="atilde" unicode="&#xe3;" horiz-adv-x="669" 
d="M572 394q0 -17 -3.5 -35.5t-11.5 -42.5l-70 -236q-7 -23 -11.5 -39.5t-9.5 -40.5h-64l26 91q-51 -62 -113.5 -84t-140.5 -22q-31 0 -63 6.5t-58.5 21t-43.5 38t-17 57.5q0 46 19.5 79t52 54.5t73.5 34t84.5 19t85 8t75.5 1.5h22.5t30 -0.5t30 -1t22.5 -0.5q6 21 11.5 41
t5.5 40q0 29 -12.5 46t-32.5 26t-44.5 12t-47.5 3q-27 0 -56 -4.5t-56 -15.5t-48.5 -29.5t-32.5 -45.5h-70q16 41 46 68.5t67.5 44t79.5 23.5t82 7q31 0 65 -4.5t62.5 -18t47 -38t18.5 -63.5zM471 255q-8 0 -25 0.5t-36.5 1t-36.5 0.5h-25q-22 0 -52 -1.5t-62 -6t-62.5 -14
t-54.5 -25t-39 -39t-15 -56.5q0 -25 13 -41t33 -25t44 -12.5t46 -3.5q96 0 162 42t93 127zM590 712q-14 -37 -40.5 -62.5t-68.5 -25.5q-17 0 -34 5t-33.5 11.5t-32.5 11.5t-29 5q-19 0 -32 -11.5t-21 -26.5h-42q6 17 16 33.5t23 29t30 20t37 7.5q16 0 33.5 -6t34 -12.5
t32 -12.5t26.5 -6q20 0 34.5 11.5t23.5 28.5h43v0z" />
    <glyph glyph-name="adieresis" unicode="&#xe4;" horiz-adv-x="669" 
d="M572 394q0 -17 -3.5 -35.5t-11.5 -42.5l-70 -236q-7 -23 -11.5 -39.5t-9.5 -40.5h-64l26 91q-51 -62 -113.5 -84t-140.5 -22q-31 0 -63 6.5t-58.5 21t-43.5 38t-17 57.5q0 46 19.5 79t52 54.5t73.5 34t84.5 19t85 8t75.5 1.5h22.5t30 -0.5t30 -1t22.5 -0.5q6 21 11.5 41
t5.5 40q0 29 -12.5 46t-32.5 26t-44.5 12t-47.5 3q-27 0 -56 -4.5t-56 -15.5t-48.5 -29.5t-32.5 -45.5h-70q16 41 46 68.5t67.5 44t79.5 23.5t82 7q31 0 65 -4.5t62.5 -18t47 -38t18.5 -63.5zM471 255q-8 0 -25 0.5t-36.5 1t-36.5 0.5h-25q-22 0 -52 -1.5t-62 -6t-62.5 -14
t-54.5 -25t-39 -39t-15 -56.5q0 -25 13 -41t33 -25t44 -12.5t46 -3.5q96 0 162 42t93 127zM539 640h-66l24 81h65zM357 640h-66l23 81h66z" />
    <glyph glyph-name="aring" unicode="&#xe5;" horiz-adv-x="669" 
d="M572 394q0 -17 -3.5 -35.5t-11.5 -42.5l-70 -236q-7 -23 -11.5 -39.5t-9.5 -40.5h-64l26 91q-51 -62 -113.5 -84t-140.5 -22q-31 0 -63 6.5t-58.5 21t-43.5 38t-17 57.5q0 46 19.5 79t52 54.5t73.5 34t84.5 19t85 8t75.5 1.5h22.5t30 -0.5t30 -1t22.5 -0.5q6 21 11.5 41
t5.5 40q0 29 -12.5 46t-32.5 26t-44.5 12t-47.5 3q-27 0 -56 -4.5t-56 -15.5t-48.5 -29.5t-32.5 -45.5h-70q16 41 46 68.5t67.5 44t79.5 23.5t82 7q31 0 65 -4.5t62.5 -18t47 -38t18.5 -63.5zM471 255q-8 0 -25 0.5t-36.5 1t-36.5 0.5h-25q-22 0 -52 -1.5t-62 -6t-62.5 -14
t-54.5 -25t-39 -39t-15 -56.5q0 -25 13 -41t33 -25t44 -12.5t46 -3.5q96 0 162 42t93 127zM519 662q0 -39 -27 -66t-66 -27t-66 27t-27 66t27 66t66 27t66 -27t27 -66zM482 662q0 26 -16 42.5t-40 16.5t-40 -16.5t-16 -42.5t16 -42.5t40 -16.5t40 16.5t16 42.5z" />
    <glyph glyph-name="ae" unicode="&#xe6;" horiz-adv-x="1059" 
d="M986 350q0 -28 -5.5 -56t-13.5 -57h-445q-5 -17 -8 -34.5t-3 -35.5q0 -67 40 -100.5t105 -33.5q29 0 60 7.5t58.5 22.5t49.5 36.5t34 49.5h70q-18 -42 -47 -73t-65 -51.5t-77.5 -30t-85.5 -9.5q-32 0 -63.5 6t-58 20t-45.5 36t-26 55q-2 11 -4 25q-49 -73 -117.5 -107.5
t-156.5 -34.5q-29 0 -62.5 4.5t-62 17t-48 35t-19.5 58.5q0 43 16.5 73.5t45 51t65 32.5t76.5 18.5t80.5 8t76.5 1.5h125q6 21 10.5 42t4.5 42q0 30 -11.5 49.5t-30.5 31t-44 16t-51 4.5q-30 0 -58 -5.5t-53 -18t-45.5 -32t-33.5 -47.5h-71q16 40 44 68.5t63 47t75 27
t80 8.5q35 0 68 -5.5t59 -20t43 -39.5t20 -64q41 66 103.5 97.5t138.5 31.5q41 0 77.5 -9.5t63.5 -30t43 -52t16 -76.5zM919 350q0 33 -11 55.5t-30 37t-45 21t-56 6.5q-90 0 -153 -51t-89 -134h374q5 17 7.5 33t2.5 32zM306 237q-33 0 -76 -3.5t-81.5 -16.5t-65.5 -38
t-27 -68q0 -25 14 -40.5t34.5 -23.5t44 -11t42.5 -3q105 0 173 52t97 152h-155z" />
    <glyph glyph-name="ccedilla" unicode="&#xe7;" horiz-adv-x="647" 
d="M313 -104q0 -24 -12 -40.5t-31 -27.5t-42 -16t-45 -5q-26 0 -53.5 6t-50.5 17l19 30q21 -8 39.5 -13.5t41.5 -5.5q28 0 50.5 12.5t22.5 35.5q0 26 -48 26q-10 0 -19 -2t-17 -4l-7 18l47 60q-38 4 -73 17t-61.5 35.5t-42.5 55.5t-16 77q0 69 29 135.5t80 114.5
q49 46 110 71t149 25q42 0 79.5 -7.5t66.5 -26.5t46.5 -52.5t19.5 -84.5h-71q0 25 -8 47t-25 39t-44.5 27t-67.5 10q-63 0 -115.5 -23t-92.5 -64q-39 -40 -61.5 -93t-22.5 -115q0 -36 13 -63t35 -44.5t52 -26t64 -8.5q72 0 131.5 28t91.5 95h72q-20 -48 -51.5 -80.5
t-70.5 -52.5t-84 -29t-94 -9h-2l-36 -44q11 2 18.5 2.5t15.5 0.5q28 0 49.5 -11t21.5 -37z" />
    <glyph glyph-name="egrave" unicode="&#xe8;" horiz-adv-x="675" 
d="M602 345q0 -29 -5 -55t-13 -53h-493q-8 -34 -8 -66q0 -35 12 -61t34 -43t51.5 -25.5t64.5 -8.5q73 0 133 26t98 91h71q-23 -46 -55 -77.5t-71 -51t-84 -28t-93 -8.5q-44 0 -85 11.5t-73 34.5t-51.5 58.5t-19.5 82.5q0 78 32.5 143.5t84.5 112.5q49 44 108.5 67t134.5 23
q45 0 86.5 -9t72.5 -29t49.5 -53.5t18.5 -81.5zM534 341q0 37 -12.5 62t-34.5 40t-52 21t-65 6q-44 0 -85 -13.5t-75.5 -38.5t-61 -59t-41.5 -74h420q3 14 5 28t2 28zM414 587l-92 141h78l63 -141h-49z" />
    <glyph glyph-name="eacute" unicode="&#xe9;" horiz-adv-x="675" 
d="M602 345q0 -29 -5 -55t-13 -53h-493q-8 -34 -8 -66q0 -35 12 -61t34 -43t51.5 -25.5t64.5 -8.5q73 0 133 26t98 91h71q-23 -46 -55 -77.5t-71 -51t-84 -28t-93 -8.5q-44 0 -85 11.5t-73 34.5t-51.5 58.5t-19.5 82.5q0 78 32.5 143.5t84.5 112.5q49 44 108.5 67t134.5 23
q45 0 86.5 -9t72.5 -29t49.5 -53.5t18.5 -81.5zM534 341q0 37 -12.5 62t-34.5 40t-52 21t-65 6q-44 0 -85 -13.5t-75.5 -38.5t-61 -59t-41.5 -74h420q3 14 5 28t2 28zM379 587h-58l136 141h93z" />
    <glyph glyph-name="ecircumflex" unicode="&#xea;" horiz-adv-x="675" 
d="M602 345q0 -29 -5 -55t-13 -53h-493q-8 -34 -8 -66q0 -35 12 -61t34 -43t51.5 -25.5t64.5 -8.5q73 0 133 26t98 91h71q-23 -46 -55 -77.5t-71 -51t-84 -28t-93 -8.5q-44 0 -85 11.5t-73 34.5t-51.5 58.5t-19.5 82.5q0 78 32.5 143.5t84.5 112.5q49 44 108.5 67t134.5 23
q45 0 86.5 -9t72.5 -29t49.5 -53.5t18.5 -81.5zM534 341q0 37 -12.5 62t-34.5 40t-52 21t-65 6q-44 0 -85 -13.5t-75.5 -38.5t-61 -59t-41.5 -74h420q3 14 5 28t2 28zM495 587l-64 110l-131 -110h-64l157 141h80l74 -141h-52z" />
    <glyph glyph-name="edieresis" unicode="&#xeb;" horiz-adv-x="675" 
d="M602 345q0 -29 -5 -55t-13 -53h-493q-8 -34 -8 -66q0 -35 12 -61t34 -43t51.5 -25.5t64.5 -8.5q73 0 133 26t98 91h71q-23 -46 -55 -77.5t-71 -51t-84 -28t-93 -8.5q-44 0 -85 11.5t-73 34.5t-51.5 58.5t-19.5 82.5q0 78 32.5 143.5t84.5 112.5q49 44 108.5 67t134.5 23
q45 0 86.5 -9t72.5 -29t49.5 -53.5t18.5 -81.5zM534 341q0 37 -12.5 62t-34.5 40t-52 21t-65 6q-44 0 -85 -13.5t-75.5 -38.5t-61 -59t-41.5 -74h420q3 14 5 28t2 28zM530 640h-66l24 81h65zM348 640h-66l23 81h66z" />
    <glyph glyph-name="igrave" unicode="&#xec;" horiz-adv-x="261" 
d="M62 0h-67l144 503h67zM220 587l-92 141h78l63 -141h-49z" />
    <glyph glyph-name="iacute" unicode="&#xed;" horiz-adv-x="261" 
d="M62 0h-67l144 503h67zM185 587h-58l136 141h93z" />
    <glyph glyph-name="icircumflex" unicode="&#xee;" horiz-adv-x="261" 
d="M62 0h-67l144 503h67zM292 587l-64 110l-131 -110h-64l157 141h80l74 -141h-52z" />
    <glyph glyph-name="idieresis" unicode="&#xef;" horiz-adv-x="261" 
d="M62 0h-67l144 503h67zM336 640h-66l24 81h65zM154 640h-66l23 81h66z" />
    <glyph glyph-name="eth" unicode="&#xf0;" horiz-adv-x="704" 
d="M641 390q0 -37 -4.5 -74t-15.5 -72q-19 -66 -53.5 -114.5t-81.5 -81t-105 -48t-125 -15.5q-47 0 -90.5 9.5t-77 31t-53.5 56.5t-20 86q0 72 30 133.5t79.5 105.5t114.5 69t135 25q31 0 59.5 -4t53.5 -14.5t46 -28t36 -45.5q-1 11 -3.5 23t-5.5 23q-14 57 -48 103.5
t-85 75.5l-124 -66l-23 29l109 58q-49 25 -104 39l52 41q29 -10 58.5 -20.5t56.5 -25.5l121 63l23 -29l-111 -56q37 -24 66 -55t49 -67t30.5 -75.5t10.5 -79.5zM561 310q0 39 -15.5 66.5t-41 45t-58.5 25t-67 7.5q-56 0 -109 -21.5t-94 -59t-65.5 -88t-24.5 -108.5
q0 -39 14.5 -66t39.5 -44.5t56.5 -25.5t66.5 -8q51 0 98 15.5t85.5 43.5t66 68t40.5 90q4 15 6 29.5t2 30.5z" />
    <glyph glyph-name="ntilde" unicode="&#xf1;" horiz-adv-x="691" 
d="M594 376q0 -26 -5 -48.5t-12 -45.5l-81 -282h-66l80 281q7 24 11 44.5t4 40.5q0 29 -10 49t-27 32t-40 17.5t-49 5.5q-50 0 -92.5 -16.5t-76.5 -45.5t-58.5 -68t-37.5 -85l-73 -255h-66l109 383q9 32 17 61.5t15 58.5h63l-28 -108q45 59 104 91t139 32q36 0 68.5 -7.5
t57 -24t39.5 -44t15 -66.5zM588 712q-14 -37 -40.5 -62.5t-68.5 -25.5q-17 0 -34 5t-33.5 11.5t-32.5 11.5t-29 5q-19 0 -32 -11.5t-21 -26.5h-42q6 17 16 33.5t23 29t30 20t37 7.5q16 0 33.5 -6t34 -12.5t32 -12.5t26.5 -6q20 0 34.5 11.5t23.5 28.5h43v0z" />
    <glyph glyph-name="ograve" unicode="&#xf2;" horiz-adv-x="704" 
d="M628 328q0 -73 -25.5 -135t-71.5 -107q-48 -47 -115 -74t-148 -27q-44 0 -89 10.5t-81.5 33.5t-59.5 60t-23 90q0 66 28.5 131.5t78.5 112.5q53 50 116.5 72.5t138.5 22.5q48 0 93 -10.5t80.5 -33t56.5 -59t21 -87.5zM558 324q0 39 -15 67t-40.5 45.5t-58 25.5t-66.5 8
q-60 0 -116 -22.5t-98 -67.5q-37 -39 -58 -92.5t-21 -106.5q0 -39 15 -67t40 -46t57.5 -26.5t67.5 -8.5q71 0 123 23.5t86 56.5q39 39 61.5 94t22.5 117zM418 587l-92 141h78l63 -141h-49z" />
    <glyph glyph-name="oacute" unicode="&#xf3;" horiz-adv-x="704" 
d="M628 328q0 -73 -25.5 -135t-71.5 -107q-48 -47 -115 -74t-148 -27q-44 0 -89 10.5t-81.5 33.5t-59.5 60t-23 90q0 66 28.5 131.5t78.5 112.5q53 50 116.5 72.5t138.5 22.5q48 0 93 -10.5t80.5 -33t56.5 -59t21 -87.5zM558 324q0 39 -15 67t-40.5 45.5t-58 25.5t-66.5 8
q-60 0 -116 -22.5t-98 -67.5q-37 -39 -58 -92.5t-21 -106.5q0 -39 15 -67t40 -46t57.5 -26.5t67.5 -8.5q71 0 123 23.5t86 56.5q39 39 61.5 94t22.5 117zM383 587h-58l136 141h93z" />
    <glyph glyph-name="ocircumflex" unicode="&#xf4;" horiz-adv-x="704" 
d="M628 328q0 -73 -25.5 -135t-71.5 -107q-48 -47 -115 -74t-148 -27q-44 0 -89 10.5t-81.5 33.5t-59.5 60t-23 90q0 66 28.5 131.5t78.5 112.5q53 50 116.5 72.5t138.5 22.5q48 0 93 -10.5t80.5 -33t56.5 -59t21 -87.5zM558 324q0 39 -15 67t-40.5 45.5t-58 25.5t-66.5 8
q-60 0 -116 -22.5t-98 -67.5q-37 -39 -58 -92.5t-21 -106.5q0 -39 15 -67t40 -46t57.5 -26.5t67.5 -8.5q71 0 123 23.5t86 56.5q39 39 61.5 94t22.5 117zM499 587l-64 110l-131 -110h-64l157 141h80l74 -141h-52z" />
    <glyph glyph-name="otilde" unicode="&#xf5;" horiz-adv-x="704" 
d="M628 328q0 -73 -25.5 -135t-71.5 -107q-48 -47 -115 -74t-148 -27q-44 0 -89 10.5t-81.5 33.5t-59.5 60t-23 90q0 66 28.5 131.5t78.5 112.5q53 50 116.5 72.5t138.5 22.5q48 0 93 -10.5t80.5 -33t56.5 -59t21 -87.5zM558 324q0 39 -15 67t-40.5 45.5t-58 25.5t-66.5 8
q-60 0 -116 -22.5t-98 -67.5q-37 -39 -58 -92.5t-21 -106.5q0 -39 15 -67t40 -46t57.5 -26.5t67.5 -8.5q71 0 123 23.5t86 56.5q39 39 61.5 94t22.5 117zM585 712q-14 -37 -40.5 -62.5t-68.5 -25.5q-17 0 -34 5t-33.5 11.5t-32.5 11.5t-29 5q-19 0 -32 -11.5t-21 -26.5h-42
q6 17 16 33.5t23 29t30 20t37 7.5q16 0 33.5 -6t34 -12.5t32 -12.5t26.5 -6q20 0 34.5 11.5t23.5 28.5h43v0z" />
    <glyph glyph-name="odieresis" unicode="&#xf6;" horiz-adv-x="704" 
d="M628 328q0 -73 -25.5 -135t-71.5 -107q-48 -47 -115 -74t-148 -27q-44 0 -89 10.5t-81.5 33.5t-59.5 60t-23 90q0 66 28.5 131.5t78.5 112.5q53 50 116.5 72.5t138.5 22.5q48 0 93 -10.5t80.5 -33t56.5 -59t21 -87.5zM558 324q0 39 -15 67t-40.5 45.5t-58 25.5t-66.5 8
q-60 0 -116 -22.5t-98 -67.5q-37 -39 -58 -92.5t-21 -106.5q0 -39 15 -67t40 -46t57.5 -26.5t67.5 -8.5q71 0 123 23.5t86 56.5q39 39 61.5 94t22.5 117zM534 640h-66l24 81h65zM352 640h-66l23 81h66z" />
    <glyph glyph-name="divide" unicode="&#xf7;" horiz-adv-x="661" 
d="M27 220v61h545v-61h-545zM265 388v80h68v-80h-68zM265 32v80h68v-80h-68z" />
    <glyph glyph-name="oslash" unicode="&#xf8;" horiz-adv-x="704" 
d="M510 431q-26 20 -60 29.5t-72 9.5q-60 0 -116 -22.5t-98 -67.5q-37 -39 -58 -92.5t-21 -106.5q0 -26 7 -47t19 -38zM136 71q25 -20 58.5 -29t70.5 -9q71 0 123 23.5t86 56.5q39 39 61.5 94t22.5 117q0 25 -6.5 45t-17.5 36zM584 447q20 -22 32 -51.5t12 -67.5
q0 -73 -25.5 -135t-71.5 -107q-48 -47 -115 -74t-148 -27q-46 0 -93 11t-84 37l-115 -96l-22 28l109 91q-22 23 -35 53t-13 70q0 66 28.5 131.5t78.5 112.5q53 50 116.5 72.5t138.5 22.5q51 0 98 -11.5t82 -36.5l110 92l23 -26z" />
    <glyph glyph-name="ugrave" unicode="&#xf9;" horiz-adv-x="691" 
d="M528 120q-9 -32 -17 -61.5t-15 -58.5h-63l28 109q-47 -58 -108 -91t-136 -33q-36 0 -68 6.5t-57 22t-39.5 41.5t-14.5 65q0 41 11 80l87 303h67l-86 -300q-5 -17 -8 -34.5t-3 -34.5q0 -30 10 -49.5t27.5 -31t41 -16t49.5 -4.5q49 0 91.5 16.5t76.5 45.5t58.5 68.5
t37.5 84.5l73 255h67zM418 587l-92 141h78l63 -141h-49z" />
    <glyph glyph-name="uacute" unicode="&#xfa;" horiz-adv-x="691" 
d="M528 120q-9 -32 -17 -61.5t-15 -58.5h-63l28 109q-47 -58 -108 -91t-136 -33q-36 0 -68 6.5t-57 22t-39.5 41.5t-14.5 65q0 41 11 80l87 303h67l-86 -300q-5 -17 -8 -34.5t-3 -34.5q0 -30 10 -49.5t27.5 -31t41 -16t49.5 -4.5q49 0 91.5 16.5t76.5 45.5t58.5 68.5
t37.5 84.5l73 255h67zM383 587h-58l136 141h93z" />
    <glyph glyph-name="ucircumflex" unicode="&#xfb;" horiz-adv-x="691" 
d="M528 120q-9 -32 -17 -61.5t-15 -58.5h-63l28 109q-47 -58 -108 -91t-136 -33q-36 0 -68 6.5t-57 22t-39.5 41.5t-14.5 65q0 41 11 80l87 303h67l-86 -300q-5 -17 -8 -34.5t-3 -34.5q0 -30 10 -49.5t27.5 -31t41 -16t49.5 -4.5q49 0 91.5 16.5t76.5 45.5t58.5 68.5
t37.5 84.5l73 255h67zM499 587l-64 110l-131 -110h-64l157 141h80l74 -141h-52z" />
    <glyph glyph-name="udieresis" unicode="&#xfc;" horiz-adv-x="691" 
d="M528 120q-9 -32 -17 -61.5t-15 -58.5h-63l28 109q-47 -58 -108 -91t-136 -33q-36 0 -68 6.5t-57 22t-39.5 41.5t-14.5 65q0 41 11 80l87 303h67l-86 -300q-5 -17 -8 -34.5t-3 -34.5q0 -30 10 -49.5t27.5 -31t41 -16t49.5 -4.5q49 0 91.5 16.5t76.5 45.5t58.5 68.5
t37.5 84.5l73 255h67zM534 640h-66l24 81h65zM352 640h-66l23 81h66z" />
    <glyph glyph-name="yacute" unicode="&#xfd;" horiz-adv-x="625" 
d="M88 -194h-78l158 197l-125 500h71l105 -443l337 443h83zM345 587h-58l136 141h93z" />
    <glyph glyph-name="thorn" unicode="&#xfe;" horiz-adv-x="733" 
d="M657 332q0 -70 -26.5 -135t-76.5 -114t-117 -73.5t-141 -24.5q-33 0 -64.5 5.5t-58.5 19t-47.5 35.5t-31.5 55l-85 -294h-67l264 916h67l-95 -326q27 33 54.5 56.5t58.5 38t66.5 21t79.5 6.5q43 0 83 -11t70.5 -34t48.5 -58t18 -83zM586 328q0 39 -13.5 66t-36.5 44
t-54 24.5t-66 7.5q-52 0 -98 -17t-83 -48t-63.5 -73t-38.5 -93q-4 -17 -6.5 -34.5t-2.5 -34.5q0 -38 13 -64t35.5 -42t52.5 -23.5t65 -7.5q63 0 117.5 20t94.5 62q40 41 62 98.5t22 114.5z" />
    <glyph glyph-name="ydieresis" unicode="&#xff;" horiz-adv-x="625" 
d="M88 -194h-78l158 197l-125 500h71l105 -443l337 443h83zM486 640h-66l24 81h65zM304 640h-66l23 81h66z" />
    <glyph glyph-name=".null" horiz-adv-x="567" 
 />
    <glyph glyph-name="grave.cap" horiz-adv-x="261" 
d="M216 773l-92 141h78l63 -141h-49z" />
    <glyph glyph-name="acute.cap" horiz-adv-x="261" 
d="M183 773h-58l136 141h93z" />
    <glyph glyph-name="circumflex.cap" horiz-adv-x="261" 
d="M299 773l-64 110l-131 -110h-64l157 141h80l74 -141h-52z" />
    <glyph glyph-name="caron.cap" horiz-adv-x="261" 
d="M133 914l64 -110l131 110h64l-157 -141h-80l-74 141h52z" />
    <glyph glyph-name="caron.alt" horiz-adv-x="261" 
d="M213 551h-54l75 171h77z" />
    <glyph glyph-name="tilde.cap" horiz-adv-x="261" 
d="M385 898q-14 -37 -40.5 -62.5t-68.5 -25.5q-17 0 -34 5t-33.5 11.5t-32.5 11.5t-29 5q-19 0 -32 -11.5t-21 -26.5h-42q6 17 16 33.5t23 29t30 20t37 7.5q16 0 33.5 -6t34 -12.5t32 -12.5t26.5 -6q20 0 34.5 11.5t23.5 28.5h43v0z" />
    <glyph glyph-name="dieresis.cap" horiz-adv-x="261" 
d="M335 816h-66l24 81h65zM153 816h-66l23 81h66z" />
    <glyph glyph-name="macron.cap" horiz-adv-x="261" 
d="M360 822h-294l13 49h295z" />
    <glyph glyph-name="breve.cap" horiz-adv-x="261" 
d="M385 895q-26 -56 -72 -85.5t-111 -29.5q-23 0 -45.5 5t-40.5 16.5t-29 30t-11 44.5v9.5t1 9.5h38q5 -35 34.5 -51t61.5 -16q45 0 78.5 17.5t56.5 49.5h39v0z" />
    <glyph glyph-name="ring.cap" horiz-adv-x="261" 
d="M314 848q0 -39 -27 -66t-66 -27t-66 27t-27 66t27 66t66 27t66 -27t27 -66zM277 848q0 26 -16 42.5t-40 16.5t-40 -16.5t-16 -42.5t16 -42.5t40 -16.5t40 16.5t16 42.5z" />
    <glyph glyph-name="hungarumlaut.cap" horiz-adv-x="261" 
d="M261 773h-55l145 141h84zM92 773h-54l144 141h84z" />
    <glyph glyph-name="dotaccent.cap" horiz-adv-x="261" 
d="M244 816h-66l23 81h67z" />
    <glyph glyph-name="commaaccent" horiz-adv-x="261" 
d="M-53 -200h-52l80 149h77z" />
    <glyph glyph-name="commaaccent.alt" horiz-adv-x="731" 
d="M455 728h53l-76 -141h-76z" />
    <glyph glyph-name="exclam.sc" horiz-adv-x="306" 
d="M117 139h-55l107 404h72zM14 0l19 68h71l-19 -68h-71z" />
    <glyph glyph-name="dollar.sc" horiz-adv-x="567" 
d="M146 -80l19 69q-90 2 -139 31.5t-49 97.5q0 7 0.5 17.5t2.5 18.5h63q-2 -5 -3 -14t-1 -17q1 -25 12 -41t29.5 -26t43.5 -14t55 -5l61 215l-58 13q-28 6 -51.5 15.5t-41 23t-27 31.5t-9.5 41q0 49 24 82.5t63 53.5t87.5 29t97.5 10l19 66h40l-19 -67q32 -2 61 -9.5
t51.5 -20.5t36 -33t14.5 -48v-12.5t-2 -18.5h-64q1 5 1.5 11t0.5 11q0 35 -32 53t-80 21l-59 -206l46 -10q72 -17 105.5 -42t33.5 -74q0 -48 -22.5 -81.5t-60 -55.5t-87 -32.5t-103.5 -12.5l-20 -70h-39zM277 244l-59 -207q42 2 78 10.5t62 24t40.5 38.5t14.5 54t-26.5 47
t-64.5 24zM116 386q0 -23 20 -39t65 -27l55 -13l56 198q-30 -1 -64.5 -7.5t-63.5 -20.5t-48.5 -36t-19.5 -55z" />
    <glyph glyph-name="percent.sc" horiz-adv-x="846" 
d="M171 269q-54 0 -85 26t-31 72q0 20 5 43q6 29 21 54.5t37.5 45t52.5 31t66 11.5q54 0 85 -26t31 -72q0 -20 -5 -43q-6 -29 -21 -54.5t-37.5 -45t-52.5 -31t-66 -11.5zM174 306q25 0 46 9t37 24.5t26.5 35t15.5 40.5q4 16 4 36q0 30 -18.5 46.5t-50.5 16.5q-26 0 -46.5 -9
t-36.5 -24.5t-26.5 -35t-15.5 -40.5q-4 -16 -4 -36q0 -30 18.5 -46.5t50.5 -16.5zM83 -34h-58l692 609h55zM537 -10q-54 0 -85 26t-31 72q0 20 5 43q6 29 21 54.5t37.5 45t52.5 31t66 11.5q54 0 85 -26t31 -72q0 -20 -5 -43q-6 -29 -21 -54.5t-37.5 -45t-52.5 -31t-66 -11.5
zM540 27q25 0 46 9t37 24.5t26.5 35t15.5 40.5q4 16 4 36q0 30 -18.5 46.5t-50.5 16.5q-26 0 -46.5 -9t-36.5 -24.5t-26.5 -35t-15.5 -40.5q-4 -16 -4 -36q0 -30 18.5 -46.5t50.5 -16.5z" />
    <glyph glyph-name="ampersand.sc" horiz-adv-x="667" 
d="M523 267l-76 -267h-247q-50 0 -91 6.5t-70.5 21.5t-45.5 39t-16 58q0 66 46.5 109.5t132.5 58.5q-35 7 -58.5 30t-23.5 60q0 41 20 73.5t54.5 55t81.5 34.5t101 12q37 0 66 -3t66 -9l-13 -48q-18 3 -32.5 5.5t-28.5 4t-29.5 2.5t-34.5 1q-33 0 -66.5 -7.5t-60.5 -22.5
t-44 -38t-17 -54q0 -42 48 -58t129 -16h160l35 123h63l-35 -123h112l-14 -48h-112zM460 267h-205q-97 0 -155 -34t-58 -101q0 -51 49.5 -68t149.5 -17h157z" />
    <glyph glyph-name="zero.sc" horiz-adv-x="610" 
d="M208 -16q-91 0 -144 43t-53 125q0 30 5.5 63t15 65.5t22.5 63t28 55.5q48 78 114 118.5t162 40.5q91 0 144 -43t53 -125q0 -30 -5.5 -63t-15 -65.5t-22.5 -63t-28 -55.5q-48 -78 -114 -118.5t-162 -40.5zM210 31q66 0 118.5 31.5t92.5 92.5q15 24 28 53t22.5 60t14.5 61
t5 55q0 60 -35 93.5t-100 33.5q-66 0 -118.5 -31.5t-92.5 -92.5q-15 -24 -28 -53t-22.5 -60t-14.5 -61t-5 -55q0 -60 35 -93.5t100 -33.5z" />
    <glyph glyph-name="one.sc" horiz-adv-x="610" 
d="M217 0l138 482q-43 -29 -91 -50t-104 -38l15 51q54 17 100.5 39t102.5 59h60l-155 -543h-66z" />
    <glyph glyph-name="two.sc" horiz-adv-x="610" 
d="M542 416q0 -70 -54 -125.5t-158 -109.5l-255 -133h383l-14 -48h-486l16 53l324 169q93 49 137 92.5t44 99.5q0 47 -35 71.5t-98 24.5q-64 0 -117 -28t-76 -84h-67q29 81 100 120.5t162 39.5q94 0 144 -36.5t50 -105.5z" />
    <glyph glyph-name="three.sc" horiz-adv-x="610" 
d="M548 441q0 -32 -12.5 -58t-33.5 -46.5t-48.5 -34t-58.5 -20.5q39 -11 68 -36t29 -66q0 -46 -22 -82.5t-61 -61.5t-91 -38t-112 -13q-30 0 -67 4.5t-69.5 17.5t-54.5 35.5t-22 58.5q0 13 2 23.5t4 19.5h67q-2 -8 -3.5 -16t-1.5 -18q0 -24 15 -39t36.5 -23t47 -11t46.5 -3
q43 0 82.5 9t69.5 26.5t47.5 43.5t17.5 61q0 22 -13 38t-33 26t-44.5 15t-47.5 5h-82l14 48h77q31 0 64.5 7.5t61.5 23t46 39.5t18 56q0 22 -13.5 37t-33.5 24t-43 13t-43 4q-30 0 -60 -5.5t-55.5 -17t-46 -30.5t-30.5 -46h-68q13 39 39.5 67t61.5 46t76 26t84 8q36 0 71 -6
t63 -19.5t45 -36t17 -55.5z" />
    <glyph glyph-name="four.sc" horiz-adv-x="610" 
d="M403 131l-37 -131h-63l37 131h-366l17 60l457 352h73l-104 -363h119l-14 -49h-119zM441 482l-391 -302h304z" />
    <glyph glyph-name="five.sc" horiz-adv-x="610" 
d="M493 153q-13 -38 -39.5 -69t-64 -53t-84 -34t-100.5 -12q-41 0 -77.5 7.5t-64 22.5t-44 38t-16.5 54q0 8 0.5 15.5t1.5 14.5h67q-1 -5 -1.5 -10.5t-0.5 -13.5q0 -23 13 -38.5t33.5 -24.5t44 -13t44.5 -4q39 0 74.5 8.5t64.5 25t50.5 40t32.5 53.5q9 25 9 55
q0 27 -11 45.5t-30 30t-43.5 16.5t-52.5 5q-59 0 -109 -20.5t-82 -65.5h-64l111 317h409l-14 -49h-348l-70 -194q44 34 87 46.5t99 12.5q34 0 67 -7t59.5 -23.5t42.5 -43.5t16 -66q0 -37 -10 -66z" />
    <glyph glyph-name="six.sc" horiz-adv-x="610" 
d="M513 211q0 -50 -23 -91t-58 -70q-38 -32 -94 -48.5t-116 -16.5q-97 0 -150.5 41t-53.5 119q0 45 9.5 93t28 93.5t46 85.5t63.5 69q89 72 214 72q31 0 64 -5.5t60 -19t44 -35.5t17 -55q0 -11 -1.5 -19t-3.5 -17h-65q2 8 3 14.5t1 15.5q0 22 -11.5 36.5t-29.5 22.5t-40 11
t-43 3q-54 0 -96 -16t-74 -45q-39 -36 -65 -87.5t-40 -100.5q40 48 97 69.5t123 21.5q40 0 75.5 -9t62 -27t41.5 -44.5t15 -60.5zM445 205q0 26 -11 44.5t-30.5 30.5t-45.5 17.5t-56 5.5q-39 0 -78 -12t-70 -33.5t-50 -52t-19 -67.5q0 -26 11 -45.5t30 -32.5t44.5 -20
t54.5 -7q54 0 97 16t76 47q23 21 35 49.5t12 59.5z" />
    <glyph glyph-name="seven.sc" horiz-adv-x="610" 
d="M149 0h-82l441 492h-397l15 51h469l-14 -51z" />
    <glyph glyph-name="eight.sc" horiz-adv-x="610" 
d="M554 442q0 -32 -13.5 -58t-36 -46.5t-51.5 -34.5t-61 -21q21 -5 41 -13.5t35.5 -21.5t25 -31t9.5 -40q0 -45 -23.5 -80.5t-64 -60t-94.5 -37t-114 -12.5q-43 0 -83 7t-70.5 22t-49 39.5t-18.5 59.5q0 34 15.5 62.5t41.5 50.5t59.5 36t69.5 20q-35 11 -61 36t-26 61
q0 47 25 80.5t64 55.5t86 32t92 10q30 0 65.5 -5t65.5 -18.5t50.5 -36t20.5 -56.5zM487 433q0 23 -11 38t-30 23.5t-44 12t-53 3.5q-39 0 -75 -8.5t-64 -24t-45 -39t-17 -53.5q0 -22 14.5 -37.5t36 -25t46 -13.5t44.5 -4q31 0 66 7.5t64.5 23t48.5 40t19 57.5zM435 173
q0 25 -16 41.5t-40 25.5t-51.5 12.5t-49.5 3.5q-46 0 -87 -9.5t-71.5 -27.5t-48.5 -43.5t-18 -57.5q0 -24 13.5 -40t35.5 -26t50.5 -14t59.5 -4q42 0 82.5 9t71.5 26.5t50 43.5t19 60z" />
    <glyph glyph-name="nine.sc" horiz-adv-x="610" 
d="M549 399q0 -49 -9.5 -96t-26.5 -89.5t-39.5 -78.5t-48.5 -63q-15 -16 -36 -31.5t-48.5 -28t-62 -20t-76.5 -7.5q-33 0 -68.5 5.5t-64.5 18.5t-48 35.5t-20 55.5q0 22 4 38h67q-2 -7 -3 -15.5t-1 -14.5q1 -24 14 -38.5t32.5 -22.5t43 -11t44.5 -3q53 0 93 16.5t69 42.5
q41 38 65.5 90t40.5 103q-38 -46 -96 -67.5t-128 -21.5q-39 0 -74 10t-61.5 28.5t-42 45t-15.5 59.5q0 53 24.5 94t64.5 68.5t91 42t105 14.5q47 0 86 -10t66.5 -30t43 -49.5t15.5 -69.5zM481 410q0 25 -11.5 44t-31 31.5t-46 18.5t-56.5 6q-40 0 -78.5 -11t-69 -32t-49 -52
t-18.5 -71q0 -24 12 -42t32 -30t45.5 -18t52.5 -6q40 0 79 11t70 32t50 51t19 68z" />
    <glyph glyph-name="question.sc" horiz-adv-x="486" 
d="M440 458q0 -27 -10.5 -50.5t-32.5 -47t-56.5 -49t-82.5 -57.5q-21 -14 -33.5 -24t-19.5 -18.5t-10.5 -16t-6.5 -17.5l-11 -39h-55l13 46q3 12 8.5 23t16.5 23t30 27t49 36q64 45 98 79.5t34 71.5q0 18 -10 31t-26.5 21.5t-38.5 12t-47 3.5q-60 0 -128 -16l14 49
q36 6 71 9t67 3q35 0 65.5 -6t53 -18t35.5 -31t13 -45zM74 0l23 79h71l-23 -79h-71z" />
    <glyph glyph-name="a.sc" horiz-adv-x="709" 
d="M483 153h-372l-129 -153h-76l468 543h68l156 -543h-73zM153 202h317l-76 284z" />
    <glyph glyph-name="b.sc" horiz-adv-x="666" 
d="M603 438q0 -58 -39.5 -98.5t-104.5 -54.5q94 -20 94 -97q0 -44 -19.5 -79t-54.5 -59t-84 -37t-108 -13h-290l155 543h263q42 0 76.5 -5.5t59 -18t38.5 -32.5t14 -49zM534 432q0 33 -33 47.5t-97 14.5h-200l-54 -185h212q34 0 65 7t55 21.5t38 38t14 56.5zM485 187
q0 40 -37.5 56.5t-109.5 16.5h-201l-60 -210h214q43 0 78.5 9.5t61 27.5t40 43t14.5 57z" />
    <glyph glyph-name="c.sc" horiz-adv-x="704" 
d="M594 141q-51 -82 -125 -119t-169 -37q-76 0 -129 17t-86 47t-48 71.5t-15 90.5q0 73 29 139t89 117q51 43 120 67t156 24q46 0 88.5 -9t74 -27t50.5 -45t19 -64v-5h-70v4q0 17 -10 34.5t-30 31.5t-50.5 22.5t-71.5 8.5q-69 0 -125 -19t-105 -62q-45 -40 -71 -96.5
t-26 -120.5q0 -88 55 -132.5t158 -44.5q74 0 131.5 29t89.5 78h71v0z" />
    <glyph glyph-name="d.sc" horiz-adv-x="728" 
d="M657 353q0 -70 -27 -139.5t-81 -120.5t-130.5 -72t-176.5 -21h-245l155 543h227q62 0 113.5 -9.5t88 -32t56.5 -59t20 -89.5zM593 355q0 40 -16.5 66.5t-46 42t-70.5 22t-90 6.5h-166l-127 -442h175q82 0 145.5 18.5t108.5 63.5q21 21 37 48t27.5 56t17 59.5t5.5 59.5z
" />
    <glyph glyph-name="e.sc" horiz-adv-x="587" 
d="M-3 0l155 543h428l-14 -50h-362l-53 -185h344l-14 -49h-344l-60 -209h369l-14 -50h-435z" />
    <glyph glyph-name="f.sc" horiz-adv-x="551" 
d="M204 493l-54 -189h327l-14 -48h-327l-73 -256h-66l155 543h408l-14 -50h-342z" />
    <glyph glyph-name="g.sc" horiz-adv-x="741" 
d="M603 412v6q0 15 -10.5 31.5t-33 29.5t-58 21.5t-84.5 8.5q-74 0 -129.5 -20t-101.5 -61q-45 -40 -71 -96.5t-26 -121.5q0 -85 54 -130.5t162 -45.5q54 0 108 9.5t105 26.5l46 160h-192l14 49h257l-70 -247q-64 -22 -132.5 -34.5t-140.5 -12.5q-136 0 -207 56.5t-71 168.5
q0 72 29 139t89 118q53 45 122.5 68t152.5 23q64 0 113 -11t82 -30t49.5 -44.5t16.5 -55.5v-5h-73z" />
    <glyph glyph-name="h.sc" horiz-adv-x="743" 
d="M474 0l74 259h-411l-74 -259h-66l155 543h66l-67 -235h411l67 235h66l-155 -543h-66z" />
    <glyph glyph-name="i.sc" horiz-adv-x="266" 
d="M-3 0l155 543h66l-155 -543h-66z" />
    <glyph glyph-name="j.sc" horiz-adv-x="579" 
d="M438 189q-18 -59 -45 -98t-64.5 -62.5t-85 -33.5t-104.5 -10q-37 0 -69 7t-56 21.5t-38 37t-14 53.5q0 19 6 40h66q-4 -13 -4 -28q0 -40 33.5 -60.5t95.5 -20.5q83 0 137 39.5t77 118.5l100 350h66l-101 -354v0z" />
    <glyph glyph-name="k.sc" horiz-adv-x="661" 
d="M63 0h-66l155 543h66zM574 543h100l-442 -256l304 -287h-90l-297 294z" />
    <glyph glyph-name="l.sc" horiz-adv-x="536" 
d="M-3 0l155 543h66l-141 -493h349l-14 -50h-415z" />
    <glyph glyph-name="m.sc" horiz-adv-x="977" 
d="M708 0l140 490l-428 -490h-71l-149 490l-140 -490h-63l155 543h93l149 -491l430 491h105l-155 -543h-66z" />
    <glyph glyph-name="n.sc" horiz-adv-x="761" 
d="M478 0l-280 483l-138 -483h-63l155 543h83l277 -482l138 482h63l-155 -543h-80z" />
    <glyph glyph-name="o.sc" horiz-adv-x="763" 
d="M22 208q0 77 29.5 143t88.5 116q52 44 121 67.5t151 23.5q64 0 115.5 -15.5t87.5 -45t55 -70.5t19 -92q0 -77 -29.5 -143t-88.5 -116q-52 -44 -121 -67.5t-151 -23.5q-64 0 -115.5 15.5t-87.5 45t-55 70.5t-19 92zM407 509q-67 0 -122.5 -21.5t-98.5 -59.5
q-44 -39 -70.5 -95t-26.5 -124q0 -81 57 -128t158 -47q67 0 122.5 21.5t98.5 59.5q44 39 70.5 95t26.5 124q0 81 -57 128t-158 47z" />
    <glyph glyph-name="p.sc" horiz-adv-x="616" 
d="M590 425q0 -38 -18 -75t-50 -62q-31 -24 -76.5 -37t-106.5 -13h-208l-68 -238h-66l155 543h258q50 0 84.5 -8.5t55.5 -24.5t30.5 -37.5t9.5 -47.5zM478 323q22 17 35 44t13 57q0 32 -29 51t-100 19h-193l-59 -206h198q91 0 135 35z" />
    <glyph glyph-name="q.sc" horiz-adv-x="773" 
d="M22 208q0 77 29.5 143t88.5 116q52 44 121 67.5t151 23.5q64 0 115.5 -15.5t87.5 -45t55 -70.5t19 -92q0 -54 -14.5 -100t-40.5 -83.5t-62.5 -65t-80.5 -42.5q16 1 36.5 2.5t40 2.5t36 1.5t23.5 0.5h30l-14 -51h-158q-35 0 -60 -1t-51 -4q-22 -2 -41 -3.5t-34 -1.5
q-64 0 -115.5 15t-87.5 43t-55 68.5t-19 91.5zM89 209q0 -81 57 -125.5t158 -44.5q65 0 121.5 19.5t99.5 57.5q46 41 71.5 97t25.5 121q0 81 -57 128t-158 47q-67 0 -122.5 -21.5t-98.5 -59.5q-44 -39 -70.5 -95t-26.5 -124z" />
    <glyph glyph-name="r.sc" horiz-adv-x="680" 
d="M444 0q-3 6 -4 15t-1 18q0 21 1.5 37.5t5.5 38.5q3 20 6 41.5t3 42.5q0 31 -23 44.5t-77 13.5h-221l-71 -251h-66l155 543h265q34 0 69 -4.5t63.5 -17t46.5 -34t18 -54.5q0 -66 -44 -106.5t-113 -51.5q32 -8 49 -28.5t17 -55.5q0 -18 -2.5 -37t-5.5 -38q-4 -20 -6 -39.5
t-2 -40.5q0 -9 1.5 -18t6.5 -18h-71zM356 301q40 0 75 7.5t60 23t39.5 40t14.5 57.5q0 35 -38 50t-98 15h-205l-55 -193h207z" />
    <glyph glyph-name="s.sc" horiz-adv-x="652" 
d="M595 444v-16t-1 -15h-68q1 6 1.5 10.5t0.5 9.5q0 25 -15 40t-39 23t-54.5 10.5t-61.5 2.5q-49 0 -88.5 -8.5t-67 -24.5t-42 -37.5t-14.5 -46.5t23 -42t74 -28l146 -33q77 -17 115 -43.5t38 -76.5q0 -54 -29.5 -89.5t-74.5 -56.5t-99.5 -29.5t-104.5 -8.5q-47 0 -90 5.5
t-76 19.5t-52.5 39.5t-19.5 66.5v17.5t2 16.5h67q-2 -8 -2 -16.5v-14.5q1 -28 14.5 -44.5t37 -25.5t54 -11.5t66.5 -2.5q48 0 91 6.5t75.5 21.5t52 38.5t19.5 57.5q0 30 -24.5 45.5t-78.5 27.5l-138 31q-42 9 -71.5 20.5t-48 25.5t-26.5 32.5t-8 42.5q0 43 23.5 76t62.5 55
t90 33t107 11q31 0 71 -4t75.5 -16.5t60.5 -35t27 -59.5z" />
    <glyph glyph-name="t.sc" horiz-adv-x="597" 
d="M369 492l-141 -492h-66l141 492h-252l14 51h571l-14 -51h-253z" />
    <glyph glyph-name="u.sc" horiz-adv-x="738" 
d="M604 214q-34 -118 -117.5 -171.5t-222.5 -53.5q-46 0 -86.5 9t-70.5 28t-47.5 47t-17.5 66q0 34 12 75l94 329h66l-95 -331q-5 -16 -8 -31.5t-3 -28.5q0 -57 43.5 -85t127.5 -28q98 0 166 44t92 129l95 331h66z" />
    <glyph glyph-name="v.sc" horiz-adv-x="657" 
d="M270 0h-75l-133 543h66l116 -487l377 487h78z" />
    <glyph glyph-name="w.sc" horiz-adv-x="1047" 
d="M715 0h-81l-68 485l-334 -485h-87l-78 543h65l68 -489l334 489h84l69 -489l322 489h75z" />
    <glyph glyph-name="x.sc" horiz-adv-x="656" 
d="M346 274l183 -274h-74l-155 244l-296 -244h-91l353 282l-170 261h75l142 -230l278 230h88z" />
    <glyph glyph-name="y.sc" horiz-adv-x="628" 
d="M310 235l-67 -235h-66l67 235l-191 308h73l159 -260l304 260h90z" />
    <glyph glyph-name="z.sc" horiz-adv-x="596" 
d="M-71 0l16 55l568 440h-422l14 48h504l-16 -55l-568 -439h450l-14 -49h-532z" />
    <glyph glyph-name="agrave.sc" horiz-adv-x="713" 
d="M485 153h-372l-129 -153h-76l468 543h68l156 -543h-73zM155 202h317l-76 284zM439 627l-92 141h78l63 -141h-49z" />
    <glyph glyph-name="aacute.sc" horiz-adv-x="713" 
d="M485 153h-372l-129 -153h-76l468 543h68l156 -543h-73zM155 202h317l-76 284zM433 627h-58l136 141h93z" />
    <glyph glyph-name="acircumflex.sc" horiz-adv-x="713" 
d="M485 153h-372l-129 -153h-76l468 543h68l156 -543h-73zM155 202h317l-76 284zM541 627l-64 110l-131 -110h-64l157 141h80l74 -141h-52z" />
    <glyph glyph-name="atilde.sc" horiz-adv-x="713" 
d="M485 153h-372l-129 -153h-76l468 543h68l156 -543h-73zM155 202h317l-76 284zM614 752q-14 -37 -40.5 -62.5t-68.5 -25.5q-17 0 -34 5t-33.5 11.5t-32.5 11.5t-29 5q-19 0 -32 -11.5t-21 -26.5h-42q6 17 16 33.5t23 29t30 20t37 7.5q16 0 33.5 -6t34 -12.5t32 -12.5
t26.5 -6q20 0 34.5 11.5t23.5 28.5h43v0z" />
    <glyph glyph-name="adieresis.sc" horiz-adv-x="713" 
d="M485 153h-372l-129 -153h-76l468 543h68l156 -543h-73zM155 202h317l-76 284zM580 680h-66l24 81h65zM398 680h-66l23 81h66z" />
    <glyph glyph-name="amacron.sc" horiz-adv-x="713" 
d="M485 153h-372l-129 -153h-76l468 543h68l156 -543h-73zM155 202h317l-76 284zM597 686h-294l13 49h295z" />
    <glyph glyph-name="abreve.sc" horiz-adv-x="713" 
d="M485 153h-372l-129 -153h-76l468 543h68l156 -543h-73zM155 202h317l-76 284zM622 749q-26 -56 -72 -85.5t-111 -29.5q-23 0 -45.5 5t-40.5 16.5t-29 30t-11 44.5v9.5t1 9.5h38q5 -35 34.5 -51t61.5 -16q45 0 78.5 17.5t56.5 49.5h39v0z" />
    <glyph glyph-name="aring.sc" horiz-adv-x="713" 
d="M485 153h-372l-129 -153h-76l468 543h68l156 -543h-73zM155 202h317l-76 284zM550 702q0 -39 -27 -66t-66 -27t-66 27t-27 66t27 66t66 27t66 -27t27 -66zM513 702q0 26 -16 42.5t-40 16.5t-40 -16.5t-16 -42.5t16 -42.5t40 -16.5t40 16.5t16 42.5z" />
    <glyph glyph-name="aogonek.sc" horiz-adv-x="713" 
d="M599 0q-74 -35 -107.5 -64.5t-33.5 -55.5q0 -18 18 -26.5t42 -8.5q16 0 31.5 3t30.5 8l5 -31q-24 -8 -50 -11.5t-51 -3.5q-37 0 -65 12.5t-28 39.5q0 21 14 41t36.5 38.5t50 33.5t54.5 25h-19l-42 153h-372l-129 -153h-76l468 543h68zM155 202h317l-76 284z" />
    <glyph glyph-name="ae.sc" horiz-adv-x="1022" 
d="M586 259l-15 -209h310l-14 -50h-363l11 152h-360l-176 -152h-86l633 543h489l-14 -50h-398l-14 -185h341l-14 -49h-330zM212 201h307l22 284z" />
    <glyph glyph-name="cacute.sc" horiz-adv-x="704" 
d="M594 141q-51 -82 -125 -119t-169 -37q-76 0 -129 17t-86 47t-48 71.5t-15 90.5q0 73 29 139t89 117q51 43 120 67t156 24q46 0 88.5 -9t74 -27t50.5 -45t19 -64v-5h-70v4q0 17 -10 34.5t-30 31.5t-50.5 22.5t-71.5 8.5q-69 0 -125 -19t-105 -62q-45 -40 -71 -96.5
t-26 -120.5q0 -88 55 -132.5t158 -44.5q74 0 131.5 29t89.5 78h71v0zM427 627h-58l136 141h93z" />
    <glyph glyph-name="ccircumflex.sc" horiz-adv-x="704" 
d="M594 141q-51 -82 -125 -119t-169 -37q-76 0 -129 17t-86 47t-48 71.5t-15 90.5q0 73 29 139t89 117q51 43 120 67t156 24q46 0 88.5 -9t74 -27t50.5 -45t19 -64v-5h-70v4q0 17 -10 34.5t-30 31.5t-50.5 22.5t-71.5 8.5q-69 0 -125 -19t-105 -62q-45 -40 -71 -96.5
t-26 -120.5q0 -88 55 -132.5t158 -44.5q74 0 131.5 29t89.5 78h71v0zM553 627l-64 110l-131 -110h-64l157 141h80l74 -141h-52z" />
    <glyph glyph-name="ccaron.sc" horiz-adv-x="704" 
d="M594 141q-51 -82 -125 -119t-169 -37q-76 0 -129 17t-86 47t-48 71.5t-15 90.5q0 73 29 139t89 117q51 43 120 67t156 24q46 0 88.5 -9t74 -27t50.5 -45t19 -64v-5h-70v4q0 17 -10 34.5t-30 31.5t-50.5 22.5t-71.5 8.5q-69 0 -125 -19t-105 -62q-45 -40 -71 -96.5
t-26 -120.5q0 -88 55 -132.5t158 -44.5q74 0 131.5 29t89.5 78h71v0zM393 768l64 -110l131 110h64l-157 -141h-80l-74 141h52z" />
    <glyph glyph-name="cdotaccent.sc" horiz-adv-x="704" 
d="M594 141q-51 -82 -125 -119t-169 -37q-76 0 -129 17t-86 47t-48 71.5t-15 90.5q0 73 29 139t89 117q51 43 120 67t156 24q46 0 88.5 -9t74 -27t50.5 -45t19 -64v-5h-70v4q0 17 -10 34.5t-30 31.5t-50.5 22.5t-71.5 8.5q-69 0 -125 -19t-105 -62q-45 -40 -71 -96.5
t-26 -120.5q0 -88 55 -132.5t158 -44.5q74 0 131.5 29t89.5 78h71v0zM529 761q-1 -3 -4.5 -14.5t-7.5 -25.5t-7.5 -26t-4.5 -15h-66l23 81h67v0z" />
    <glyph glyph-name="ccedilla.sc" horiz-adv-x="704" 
d="M349 -104q0 -24 -12 -40.5t-31 -27.5t-42 -16t-45 -5q-26 0 -53.5 6t-50.5 17l19 30q21 -8 39.5 -13.5t41.5 -5.5q28 0 50.5 12.5t22.5 35.5q0 26 -48 26q-10 0 -19 -2t-17 -4l-7 18l48 61q-60 6 -102.5 25t-69.5 48t-39 67t-12 83q0 73 29 139t89 117q51 43 120 67
t156 24q46 0 88.5 -9t74 -27t50.5 -45t19 -64v-5h-70v4q0 17 -10 34.5t-30 31.5t-50.5 22.5t-71.5 8.5q-69 0 -125 -19t-105 -62q-45 -40 -71 -96.5t-26 -120.5q0 -88 55 -132.5t158 -44.5q74 0 131.5 29t89.5 78h71q-51 -82 -125 -119t-169 -37h-20l-36 -44q11 2 18.5 2.5
t15.5 0.5q28 0 49.5 -11t21.5 -37z" />
    <glyph glyph-name="dcaron.sc" horiz-adv-x="728" 
d="M657 353q0 -70 -27 -139.5t-81 -120.5t-130.5 -72t-176.5 -21h-245l155 543h227q62 0 113.5 -9.5t88 -32t56.5 -59t20 -89.5zM593 355q0 40 -16.5 66.5t-46 42t-70.5 22t-90 6.5h-166l-127 -442h175q82 0 145.5 18.5t108.5 63.5q21 21 37 48t27.5 56t17 59.5t5.5 59.5z
M390 768l64 -110l131 110h64l-157 -141h-80l-74 141h52z" />
    <glyph glyph-name="dcroat.sc" horiz-adv-x="728" 
d="M18 314h68l66 229h227q62 0 113.5 -9.5t88 -32t56.5 -59t20 -89.5q0 -23 -2.5 -45t-8.5 -44q-22 -75 -58 -125.5t-86.5 -81.5t-115.5 -44t-144 -13h-245l77 270h-69zM593 355q0 40 -16.5 66.5t-46 42t-70.5 22t-90 6.5h-166l-52 -178h222l-13 -44h-221l-63 -220h175
q65 0 118.5 11.5t95.5 38.5t71 70t46 106q10 39 10 79z" />
    <glyph glyph-name="eth.sc" horiz-adv-x="728" 
d="M19 314h67l66 229h227q62 0 113.5 -9.5t88 -32t56.5 -59t20 -89.5q0 -76 -30.5 -147.5t-87.5 -120.5q-56 -48 -127 -66.5t-170 -18.5h-245l77 270h-69zM593 355q0 40 -16.5 66.5t-46 42t-70.5 22t-90 6.5h-166l-52 -178h223l-14 -44h-221l-63 -220h178q78 0 138 17
t102 55q24 22 42 49.5t30.5 58.5t19 63t6.5 62z" />
    <glyph glyph-name="egrave.sc" horiz-adv-x="587" 
d="M-3 0l155 543h428l-14 -50h-362l-53 -185h344l-14 -49h-344l-60 -209h369l-14 -50h-435zM401 627l-92 141h78l63 -141h-49z" />
    <glyph glyph-name="eacute.sc" horiz-adv-x="587" 
d="M-3 0l155 543h428l-14 -50h-362l-53 -185h344l-14 -49h-344l-60 -209h369l-14 -50h-435zM375 627h-58l136 141h93z" />
    <glyph glyph-name="ecircumflex.sc" horiz-adv-x="587" 
d="M-3 0l155 543h428l-14 -50h-362l-53 -185h344l-14 -49h-344l-60 -209h369l-14 -50h-435zM507 627l-64 110l-131 -110h-64l157 141h80l74 -141h-52z" />
    <glyph glyph-name="ecaron.sc" horiz-adv-x="587" 
d="M-3 0l155 543h428l-14 -50h-362l-53 -185h344l-14 -49h-344l-60 -209h369l-14 -50h-435zM336 768l64 -110l131 110h64l-157 -141h-80l-74 141h52z" />
    <glyph glyph-name="edieresis.sc" horiz-adv-x="587" 
d="M-3 0l155 543h428l-14 -50h-362l-53 -185h344l-14 -49h-344l-60 -209h369l-14 -50h-435zM519 680h-66l24 81h65zM337 680h-66l23 81h66z" />
    <glyph glyph-name="emacron.sc" horiz-adv-x="587" 
d="M-3 0l155 543h428l-14 -50h-362l-53 -185h344l-14 -49h-344l-60 -209h369l-14 -50h-435zM547 686h-294l13 49h295z" />
    <glyph glyph-name="ebreve.sc" horiz-adv-x="587" 
d="M-3 0l155 543h428l-14 -50h-362l-53 -185h344l-14 -49h-344l-60 -209h369l-14 -50h-435zM563 749q-26 -56 -72 -85.5t-111 -29.5q-23 0 -45.5 5t-40.5 16.5t-29 30t-11 44.5v9.5t1 9.5h38q5 -35 34.5 -51t61.5 -16q45 0 78.5 17.5t56.5 49.5h39v0z" />
    <glyph glyph-name="edotaccent.sc" horiz-adv-x="587" 
d="M-3 0l155 543h428l-14 -50h-362l-53 -185h344l-14 -49h-344l-60 -209h369l-14 -50h-435zM464 761q-1 -3 -4.5 -14.5t-7.5 -25.5t-7.5 -26t-4.5 -15h-66l23 81h67v0z" />
    <glyph glyph-name="eogonek.sc" horiz-adv-x="587" 
d="M432 0q-74 -35 -107.5 -64.5t-33.5 -55.5q0 -18 18 -26.5t42 -8.5q16 0 31.5 3t30.5 8l5 -31q-24 -8 -50 -11.5t-51 -3.5q-37 0 -65 12.5t-28 39.5q0 21 14 41t36.5 38.5t50 33.5t54.5 25h-382l155 543h428l-14 -50h-362l-53 -185h344l-14 -49h-344l-60 -209h369z" />
    <glyph glyph-name="gcircumflex.sc" horiz-adv-x="741" 
d="M603 412v6q0 15 -10.5 31.5t-33 29.5t-58 21.5t-84.5 8.5q-74 0 -129.5 -20t-101.5 -61q-45 -40 -71 -96.5t-26 -121.5q0 -85 54 -130.5t162 -45.5q54 0 108 9.5t105 26.5l46 160h-192l14 49h257l-70 -247q-64 -22 -132.5 -34.5t-140.5 -12.5q-136 0 -207 56.5t-71 168.5
q0 72 29 139t89 118q53 45 122.5 68t152.5 23q64 0 113 -11t82 -30t49.5 -44.5t16.5 -55.5v-5h-73zM562 627l-64 110l-131 -110h-64l157 141h80l74 -141h-52z" />
    <glyph glyph-name="gbreve.sc" horiz-adv-x="741" 
d="M603 412v6q0 15 -10.5 31.5t-33 29.5t-58 21.5t-84.5 8.5q-74 0 -129.5 -20t-101.5 -61q-45 -40 -71 -96.5t-26 -121.5q0 -85 54 -130.5t162 -45.5q54 0 108 9.5t105 26.5l46 160h-192l14 49h257l-70 -247q-64 -22 -132.5 -34.5t-140.5 -12.5q-136 0 -207 56.5t-71 168.5
q0 72 29 139t89 118q53 45 122.5 68t152.5 23q64 0 113 -11t82 -30t49.5 -44.5t16.5 -55.5v-5h-73zM632 749q-26 -56 -72 -85.5t-111 -29.5q-23 0 -45.5 5t-40.5 16.5t-29 30t-11 44.5v9.5t1 9.5h38q5 -35 34.5 -51t61.5 -16q45 0 78.5 17.5t56.5 49.5h39v0z" />
    <glyph glyph-name="gdotaccent.sc" horiz-adv-x="741" 
d="M603 412v6q0 15 -10.5 31.5t-33 29.5t-58 21.5t-84.5 8.5q-74 0 -129.5 -20t-101.5 -61q-45 -40 -71 -96.5t-26 -121.5q0 -85 54 -130.5t162 -45.5q54 0 108 9.5t105 26.5l46 160h-192l14 49h257l-70 -247q-64 -22 -132.5 -34.5t-140.5 -12.5q-136 0 -207 56.5t-71 168.5
q0 72 29 139t89 118q53 45 122.5 68t152.5 23q64 0 113 -11t82 -30t49.5 -44.5t16.5 -55.5v-5h-73zM544 761q-1 -3 -4.5 -14.5t-7.5 -25.5t-7.5 -26t-4.5 -15h-66l23 81h67v0z" />
    <glyph glyph-name="gcommaaccent.sc" horiz-adv-x="741" 
d="M603 412v6q0 15 -10.5 31.5t-33 29.5t-58 21.5t-84.5 8.5q-74 0 -129.5 -20t-101.5 -61q-45 -40 -71 -96.5t-26 -121.5q0 -85 54 -130.5t162 -45.5q54 0 108 9.5t105 26.5l46 160h-192l14 49h257l-70 -247q-64 -22 -132.5 -34.5t-140.5 -12.5q-136 0 -207 56.5t-71 168.5
q0 72 29 139t89 118q53 45 122.5 68t152.5 23q64 0 113 -11t82 -30t49.5 -44.5t16.5 -55.5v-5h-73zM255 -200h-52l80 149h77z" />
    <glyph glyph-name="hcircumflex.sc" horiz-adv-x="743" 
d="M474 0l74 259h-411l-74 -259h-66l155 543h66l-67 -235h411l67 235h66l-155 -543h-66zM564 627l-64 110l-131 -110h-64l157 141h80l74 -141h-52z" />
    <glyph glyph-name="hbar.sc" horiz-adv-x="743" 
d="M474 0l74 259h-411l-74 -259h-66l155 543h66l-39 -137h411l39 137h66l-155 -543h-66zM562 308l14 50h-411l-14 -50h411z" />
    <glyph glyph-name="igrave.sc" horiz-adv-x="266" 
d="M-3 0l155 543h66l-155 -543h-66zM230 627l-92 141h78l63 -141h-49z" />
    <glyph glyph-name="iacute.sc" horiz-adv-x="266" 
d="M-3 0l155 543h66l-155 -543h-66zM223 627h-58l136 141h93z" />
    <glyph glyph-name="ibreve.sc" horiz-adv-x="266" 
d="M-3 0l155 543h66l-155 -543h-66zM412 749q-26 -56 -72 -85.5t-111 -29.5q-23 0 -45.5 5t-40.5 16.5t-29 30t-11 44.5v9.5t1 9.5h38q5 -35 34.5 -51t61.5 -16q45 0 78.5 17.5t56.5 49.5h39v0z" />
    <glyph glyph-name="icircumflex.sc" horiz-adv-x="266" 
d="M-3 0l155 543h66l-155 -543h-66zM332 627l-64 110l-131 -110h-64l157 141h80l74 -141h-52z" />
    <glyph glyph-name="itilde.sc" horiz-adv-x="266" 
d="M-3 0l155 543h66l-155 -543h-66zM410 752q-14 -37 -40.5 -62.5t-68.5 -25.5q-17 0 -34 5t-33.5 11.5t-32.5 11.5t-29 5q-19 0 -32 -11.5t-21 -26.5h-42q6 17 16 33.5t23 29t30 20t37 7.5q16 0 33.5 -6t34 -12.5t32 -12.5t26.5 -6q20 0 34.5 11.5t23.5 28.5h43v0z" />
    <glyph glyph-name="idieresis.sc" horiz-adv-x="266" 
d="M-3 0l155 543h66l-155 -543h-66zM362 680h-66l24 81h65zM180 680h-66l23 81h66z" />
    <glyph glyph-name="imacron.sc" horiz-adv-x="266" 
d="M-3 0l155 543h66l-155 -543h-66zM386 686h-294l13 49h295z" />
    <glyph glyph-name="idotaccent.sc" horiz-adv-x="266" 
d="M-3 0l155 543h66l-155 -543h-66zM271 761q-1 -3 -4.5 -14.5t-7.5 -25.5t-7.5 -26t-4.5 -15h-66l23 81h67v0z" />
    <glyph glyph-name="iogonek.sc" horiz-adv-x="266" 
d="M63 0q-141 -70 -141 -120q0 -18 18 -26.5t42 -8.5q16 0 31.5 3t30.5 8l5 -31q-24 -8 -50 -11.5t-51 -3.5q-37 0 -65 12.5t-28 39.5q0 21 14.5 41t37 38.5t50 33.5t53.5 25h-13l155 543h66z" />
    <glyph glyph-name="jcircumflex.sc" horiz-adv-x="579" 
d="M438 189q-18 -59 -45 -98t-64.5 -62.5t-85 -33.5t-104.5 -10q-37 0 -69 7t-56 21.5t-38 37t-14 53.5q0 19 6 40h66q-4 -13 -4 -28q0 -40 33.5 -60.5t95.5 -20.5q83 0 137 39.5t77 118.5l100 350h66l-101 -354v0zM649 627l-64 110l-131 -110h-64l157 141h80l74 -141h-52z
" />
    <glyph glyph-name="kcommaaccent.sc" horiz-adv-x="661" 
d="M63 0h-66l155 543h66zM574 543h100l-442 -256l304 -287h-90l-297 294zM161 -200h-52l80 149h77z" />
    <glyph glyph-name="lacute.sc" horiz-adv-x="536" 
d="M-3 0l155 543h66l-141 -493h349l-14 -50h-415zM277 627h-58l136 141h93z" />
    <glyph glyph-name="lcaron.sc" horiz-adv-x="536" 
d="M-3 0l155 543h66l-141 -493h349l-14 -50h-415zM349 370h-54l75 171h77z" />
    <glyph glyph-name="lcommaaccent.sc" horiz-adv-x="536" 
d="M-3 0l155 543h66l-141 -493h349l-14 -50h-415zM150 -200h-52l80 149h77z" />
    <glyph glyph-name="lslash.sc" horiz-adv-x="536" 
d="M-3 0l57 200l-90 -38l16 53l89 37l83 291h66l-75 -261l236 101l-16 -53l-235 -100l-51 -180h349l-14 -50h-415z" />
    <glyph glyph-name="ldot.sc" horiz-adv-x="536" 
d="M-3 0l155 543h66l-141 -493h349l-14 -50h-415zM452 320q-1 -3 -4.5 -14.5t-7.5 -25.5t-7.5 -26t-4.5 -15h-66l23 81h67v0z" />
    <glyph glyph-name="nacute.sc" horiz-adv-x="761" 
d="M478 0l-280 483l-138 -483h-63l155 543h83l277 -482l138 482h63l-155 -543h-80zM467 627h-58l136 141h93z" />
    <glyph glyph-name="ncaron.sc" horiz-adv-x="761" 
d="M478 0l-280 483l-138 -483h-63l155 543h83l277 -482l138 482h63l-155 -543h-80zM392 768l64 -110l131 110h64l-157 -141h-80l-74 141h52z" />
    <glyph glyph-name="ntilde.sc" horiz-adv-x="761" 
d="M478 0l-280 483l-138 -483h-63l155 543h83l277 -482l138 482h63l-155 -543h-80zM650 752q-14 -37 -40.5 -62.5t-68.5 -25.5q-17 0 -34 5t-33.5 11.5t-32.5 11.5t-29 5q-19 0 -32 -11.5t-21 -26.5h-42q6 17 16 33.5t23 29t30 20t37 7.5q16 0 33.5 -6t34 -12.5t32 -12.5
t26.5 -6q20 0 34.5 11.5t23.5 28.5h43v0z" />
    <glyph glyph-name="ncommaaccent.sc" horiz-adv-x="761" 
d="M478 0l-280 483l-138 -483h-63l155 543h83l277 -482l138 482h63l-155 -543h-80zM234 -200h-52l80 149h77z" />
    <glyph glyph-name="ograve.sc" horiz-adv-x="763" 
d="M22 208q0 77 29.5 143t88.5 116q52 44 121 67.5t151 23.5q64 0 115.5 -15.5t87.5 -45t55 -70.5t19 -92q0 -77 -29.5 -143t-88.5 -116q-52 -44 -121 -67.5t-151 -23.5q-64 0 -115.5 15.5t-87.5 45t-55 70.5t-19 92zM407 509q-67 0 -122.5 -21.5t-98.5 -59.5
q-44 -39 -70.5 -95t-26.5 -124q0 -81 57 -128t158 -47q67 0 122.5 21.5t98.5 59.5q44 39 70.5 95t26.5 124q0 81 -57 128t-158 47zM457 627l-92 141h78l63 -141h-49z" />
    <glyph glyph-name="oacute.sc" horiz-adv-x="763" 
d="M22 208q0 77 29.5 143t88.5 116q52 44 121 67.5t151 23.5q64 0 115.5 -15.5t87.5 -45t55 -70.5t19 -92q0 -77 -29.5 -143t-88.5 -116q-52 -44 -121 -67.5t-151 -23.5q-64 0 -115.5 15.5t-87.5 45t-55 70.5t-19 92zM407 509q-67 0 -122.5 -21.5t-98.5 -59.5
q-44 -39 -70.5 -95t-26.5 -124q0 -81 57 -128t158 -47q67 0 122.5 21.5t98.5 59.5q44 39 70.5 95t26.5 124q0 81 -57 128t-158 47zM411 627h-58l136 141h93z" />
    <glyph glyph-name="ocircumflex.sc" horiz-adv-x="763" 
d="M22 208q0 77 29.5 143t88.5 116q52 44 121 67.5t151 23.5q64 0 115.5 -15.5t87.5 -45t55 -70.5t19 -92q0 -77 -29.5 -143t-88.5 -116q-52 -44 -121 -67.5t-151 -23.5q-64 0 -115.5 15.5t-87.5 45t-55 70.5t-19 92zM407 509q-67 0 -122.5 -21.5t-98.5 -59.5
q-44 -39 -70.5 -95t-26.5 -124q0 -81 57 -128t158 -47q67 0 122.5 21.5t98.5 59.5q44 39 70.5 95t26.5 124q0 81 -57 128t-158 47zM549 627l-64 110l-131 -110h-64l157 141h80l74 -141h-52z" />
    <glyph glyph-name="otilde.sc" horiz-adv-x="763" 
d="M22 208q0 77 29.5 143t88.5 116q52 44 121 67.5t151 23.5q64 0 115.5 -15.5t87.5 -45t55 -70.5t19 -92q0 -77 -29.5 -143t-88.5 -116q-52 -44 -121 -67.5t-151 -23.5q-64 0 -115.5 15.5t-87.5 45t-55 70.5t-19 92zM407 509q-67 0 -122.5 -21.5t-98.5 -59.5
q-44 -39 -70.5 -95t-26.5 -124q0 -81 57 -128t158 -47q67 0 122.5 21.5t98.5 59.5q44 39 70.5 95t26.5 124q0 81 -57 128t-158 47zM612 752q-14 -37 -40.5 -62.5t-68.5 -25.5q-17 0 -34 5t-33.5 11.5t-32.5 11.5t-29 5q-19 0 -32 -11.5t-21 -26.5h-42q6 17 16 33.5t23 29
t30 20t37 7.5q16 0 33.5 -6t34 -12.5t32 -12.5t26.5 -6q20 0 34.5 11.5t23.5 28.5h43v0z" />
    <glyph glyph-name="odieresis.sc" horiz-adv-x="763" 
d="M22 208q0 77 29.5 143t88.5 116q52 44 121 67.5t151 23.5q64 0 115.5 -15.5t87.5 -45t55 -70.5t19 -92q0 -77 -29.5 -143t-88.5 -116q-52 -44 -121 -67.5t-151 -23.5q-64 0 -115.5 15.5t-87.5 45t-55 70.5t-19 92zM407 509q-67 0 -122.5 -21.5t-98.5 -59.5
q-44 -39 -70.5 -95t-26.5 -124q0 -81 57 -128t158 -47q67 0 122.5 21.5t98.5 59.5q44 39 70.5 95t26.5 124q0 81 -57 128t-158 47zM568 680h-66l24 81h65zM386 680h-66l23 81h66z" />
    <glyph glyph-name="omacron.sc" horiz-adv-x="763" 
d="M22 208q0 77 29.5 143t88.5 116q52 44 121 67.5t151 23.5q64 0 115.5 -15.5t87.5 -45t55 -70.5t19 -92q0 -77 -29.5 -143t-88.5 -116q-52 -44 -121 -67.5t-151 -23.5q-64 0 -115.5 15.5t-87.5 45t-55 70.5t-19 92zM407 509q-67 0 -122.5 -21.5t-98.5 -59.5
q-44 -39 -70.5 -95t-26.5 -124q0 -81 57 -128t158 -47q67 0 122.5 21.5t98.5 59.5q44 39 70.5 95t26.5 124q0 81 -57 128t-158 47zM605 686h-294l13 49h295z" />
    <glyph glyph-name="obreve.sc" horiz-adv-x="763" 
d="M22 208q0 77 29.5 143t88.5 116q52 44 121 67.5t151 23.5q64 0 115.5 -15.5t87.5 -45t55 -70.5t19 -92q0 -77 -29.5 -143t-88.5 -116q-52 -44 -121 -67.5t-151 -23.5q-64 0 -115.5 15.5t-87.5 45t-55 70.5t-19 92zM407 509q-67 0 -122.5 -21.5t-98.5 -59.5
q-44 -39 -70.5 -95t-26.5 -124q0 -81 57 -128t158 -47q67 0 122.5 21.5t98.5 59.5q44 39 70.5 95t26.5 124q0 81 -57 128t-158 47zM630 749q-26 -56 -72 -85.5t-111 -29.5q-23 0 -45.5 5t-40.5 16.5t-29 30t-11 44.5v9.5t1 9.5h38q5 -35 34.5 -51t61.5 -16q45 0 78.5 17.5
t56.5 49.5h39v0z" />
    <glyph glyph-name="ohungarumlaut.sc" horiz-adv-x="763" 
d="M22 208q0 77 29.5 143t88.5 116q52 44 121 67.5t151 23.5q64 0 115.5 -15.5t87.5 -45t55 -70.5t19 -92q0 -77 -29.5 -143t-88.5 -116q-52 -44 -121 -67.5t-151 -23.5q-64 0 -115.5 15.5t-87.5 45t-55 70.5t-19 92zM407 509q-67 0 -122.5 -21.5t-98.5 -59.5
q-44 -39 -70.5 -95t-26.5 -124q0 -81 57 -128t158 -47q67 0 122.5 21.5t98.5 59.5q44 39 70.5 95t26.5 124q0 81 -57 128t-158 47zM510 627h-55l145 141h84zM341 627h-54l144 141h84z" />
    <glyph glyph-name="oslash.sc" horiz-adv-x="763" 
d="M22 208q0 77 29.5 143t88.5 116q52 44 121 67.5t151 23.5q61 0 110.5 -14.5t85.5 -41.5l98 84l24 -28l-95 -81q54 -57 54 -142q0 -77 -29.5 -143t-88.5 -116q-52 -44 -121 -67.5t-151 -23.5q-115 0 -186 48l-106 -90l-23 28l100 85q-62 59 -62 152zM407 509
q-67 0 -122.5 -21.5t-98.5 -59.5q-44 -39 -70.5 -95t-26.5 -124q0 -69 41 -113l432 367q-28 22 -67 34t-88 12zM622 334q0 60 -34 103l-430 -365q55 -38 146 -38q67 0 122.5 21.5t98.5 59.5q44 39 70.5 95t26.5 124z" />
    <glyph glyph-name="oe.sc" horiz-adv-x="1014" 
d="M993 493h-344l-53 -185h326l-14 -49h-326l-60 -209h351l-14 -50h-346q-20 0 -43.5 -0.5t-40.5 -1.5q-26 -2 -39.5 -2h-32.5q-71 0 -132 9t-106 31.5t-70.5 61t-25.5 98.5q0 71 29.5 136.5t81.5 111.5q34 30 71 49.5t82.5 31.5t101.5 16.5t127 4.5q21 0 42.5 -0.5
t42.5 -1.5q20 -1 41 -1h42h323zM350 44q26 0 52.5 1t52.5 3l128 445q-26 2 -50.5 3t-51.5 1q-101 0 -175.5 -20t-126.5 -70q-39 -38 -64.5 -92t-25.5 -115q0 -47 20 -77t55 -47.5t82.5 -24.5t103.5 -7z" />
    <glyph glyph-name="racute.sc" horiz-adv-x="680" 
d="M444 0q-3 6 -4 15t-1 18q0 21 1.5 37.5t5.5 38.5q3 20 6 41.5t3 42.5q0 31 -23 44.5t-77 13.5h-221l-71 -251h-66l155 543h265q34 0 69 -4.5t63.5 -17t46.5 -34t18 -54.5q0 -66 -44 -106.5t-113 -51.5q32 -8 49 -28.5t17 -55.5q0 -18 -2.5 -37t-5.5 -38q-4 -20 -6 -39.5
t-2 -40.5q0 -9 1.5 -18t6.5 -18h-71zM356 301q40 0 75 7.5t60 23t39.5 40t14.5 57.5q0 35 -38 50t-98 15h-205l-55 -193h207zM397 627h-58l136 141h93z" />
    <glyph glyph-name="rcaron.sc" horiz-adv-x="680" 
d="M444 0q-3 6 -4 15t-1 18q0 21 1.5 37.5t5.5 38.5q3 20 6 41.5t3 42.5q0 31 -23 44.5t-77 13.5h-221l-71 -251h-66l155 543h265q34 0 69 -4.5t63.5 -17t46.5 -34t18 -54.5q0 -66 -44 -106.5t-113 -51.5q32 -8 49 -28.5t17 -55.5q0 -18 -2.5 -37t-5.5 -38q-4 -20 -6 -39.5
t-2 -40.5q0 -9 1.5 -18t6.5 -18h-71zM356 301q40 0 75 7.5t60 23t39.5 40t14.5 57.5q0 35 -38 50t-98 15h-205l-55 -193h207zM333 768l64 -110l131 110h64l-157 -141h-80l-74 141h52z" />
    <glyph glyph-name="rcommaaccent.sc" horiz-adv-x="680" 
d="M444 0q-3 6 -4 15t-1 18q0 21 1.5 37.5t5.5 38.5q3 20 6 41.5t3 42.5q0 31 -23 44.5t-77 13.5h-221l-71 -251h-66l155 543h265q34 0 69 -4.5t63.5 -17t46.5 -34t18 -54.5q0 -66 -44 -106.5t-113 -51.5q32 -8 49 -28.5t17 -55.5q0 -18 -2.5 -37t-5.5 -38q-4 -20 -6 -39.5
t-2 -40.5q0 -9 1.5 -18t6.5 -18h-71zM356 301q40 0 75 7.5t60 23t39.5 40t14.5 57.5q0 35 -38 50t-98 15h-205l-55 -193h207zM197 -200h-52l80 149h77z" />
    <glyph glyph-name="sacute.sc" horiz-adv-x="652" 
d="M595 444v-16t-1 -15h-68q1 6 1.5 10.5t0.5 9.5q0 25 -15 40t-39 23t-54.5 10.5t-61.5 2.5q-49 0 -88.5 -8.5t-67 -24.5t-42 -37.5t-14.5 -46.5t23 -42t74 -28l146 -33q77 -17 115 -43.5t38 -76.5q0 -54 -29.5 -89.5t-74.5 -56.5t-99.5 -29.5t-104.5 -8.5q-47 0 -90 5.5
t-76 19.5t-52.5 39.5t-19.5 66.5v17.5t2 16.5h67q-2 -8 -2 -16.5v-14.5q1 -28 14.5 -44.5t37 -25.5t54 -11.5t66.5 -2.5q48 0 91 6.5t75.5 21.5t52 38.5t19.5 57.5q0 30 -24.5 45.5t-78.5 27.5l-138 31q-42 9 -71.5 20.5t-48 25.5t-26.5 32.5t-8 42.5q0 43 23.5 76t62.5 55
t90 33t107 11q31 0 71 -4t75.5 -16.5t60.5 -35t27 -59.5zM376 627h-58l136 141h93z" />
    <glyph glyph-name="scircumflex.sc" horiz-adv-x="652" 
d="M595 444v-16t-1 -15h-68q1 6 1.5 10.5t0.5 9.5q0 25 -15 40t-39 23t-54.5 10.5t-61.5 2.5q-49 0 -88.5 -8.5t-67 -24.5t-42 -37.5t-14.5 -46.5t23 -42t74 -28l146 -33q77 -17 115 -43.5t38 -76.5q0 -54 -29.5 -89.5t-74.5 -56.5t-99.5 -29.5t-104.5 -8.5q-47 0 -90 5.5
t-76 19.5t-52.5 39.5t-19.5 66.5v17.5t2 16.5h67q-2 -8 -2 -16.5v-14.5q1 -28 14.5 -44.5t37 -25.5t54 -11.5t66.5 -2.5q48 0 91 6.5t75.5 21.5t52 38.5t19.5 57.5q0 30 -24.5 45.5t-78.5 27.5l-138 31q-42 9 -71.5 20.5t-48 25.5t-26.5 32.5t-8 42.5q0 43 23.5 76t62.5 55
t90 33t107 11q31 0 71 -4t75.5 -16.5t60.5 -35t27 -59.5zM501 627l-64 110l-131 -110h-64l157 141h80l74 -141h-52z" />
    <glyph glyph-name="scaron.sc" horiz-adv-x="652" 
d="M595 444v-16t-1 -15h-68q1 6 1.5 10.5t0.5 9.5q0 25 -15 40t-39 23t-54.5 10.5t-61.5 2.5q-49 0 -88.5 -8.5t-67 -24.5t-42 -37.5t-14.5 -46.5t23 -42t74 -28l146 -33q77 -17 115 -43.5t38 -76.5q0 -54 -29.5 -89.5t-74.5 -56.5t-99.5 -29.5t-104.5 -8.5q-47 0 -90 5.5
t-76 19.5t-52.5 39.5t-19.5 66.5v17.5t2 16.5h67q-2 -8 -2 -16.5v-14.5q1 -28 14.5 -44.5t37 -25.5t54 -11.5t66.5 -2.5q48 0 91 6.5t75.5 21.5t52 38.5t19.5 57.5q0 30 -24.5 45.5t-78.5 27.5l-138 31q-42 9 -71.5 20.5t-48 25.5t-26.5 32.5t-8 42.5q0 43 23.5 76t62.5 55
t90 33t107 11q31 0 71 -4t75.5 -16.5t60.5 -35t27 -59.5zM324 768l64 -110l131 110h64l-157 -141h-80l-74 141h52z" />
    <glyph glyph-name="scedilla.sc" horiz-adv-x="652" 
d="M324 -104q0 -24 -12 -40.5t-31 -27.5t-42 -16t-45 -5q-26 0 -53.5 6t-50.5 17l19 30q21 -8 39.5 -13.5t41.5 -5.5q28 0 50.5 12.5t22.5 35.5q0 26 -48 26q-10 0 -19 -2t-17 -4l-7 18l45 58q-44 1 -84 7t-70.5 20.5t-48.5 39.5t-18 64v17.5t2 16.5h67q-2 -8 -2 -16.5
v-14.5q1 -28 14.5 -44.5t37 -25.5t54 -11.5t66.5 -2.5q48 0 91 6.5t75.5 21.5t52 38.5t19.5 57.5q0 30 -24.5 45.5t-78.5 27.5l-138 31q-42 9 -71.5 20.5t-48 25.5t-26.5 32.5t-8 42.5q0 43 23.5 76t62.5 55t90 33t107 11q31 0 71 -4t75.5 -16.5t60.5 -35t27 -59.5v-16
t-1 -15h-68q1 6 1.5 10.5t0.5 9.5q0 25 -15 40t-39 23t-54.5 10.5t-61.5 2.5q-49 0 -88.5 -8.5t-67 -24.5t-42 -37.5t-14.5 -46.5t23 -42t74 -28l146 -33q77 -17 115 -43.5t38 -76.5q0 -51 -26.5 -85.5t-68 -55.5t-92.5 -31t-100 -11l-36 -45q11 2 18.5 2.5t15.5 0.5
q28 0 49.5 -11t21.5 -37z" />
    <glyph glyph-name="scommaaccent.sc" horiz-adv-x="652" 
d="M595 444v-16t-1 -15h-68q1 6 1.5 10.5t0.5 9.5q0 25 -15 40t-39 23t-54.5 10.5t-61.5 2.5q-49 0 -88.5 -8.5t-67 -24.5t-42 -37.5t-14.5 -46.5t23 -42t74 -28l146 -33q77 -17 115 -43.5t38 -76.5q0 -54 -29.5 -89.5t-74.5 -56.5t-99.5 -29.5t-104.5 -8.5q-47 0 -90 5.5
t-76 19.5t-52.5 39.5t-19.5 66.5v17.5t2 16.5h67q-2 -8 -2 -16.5v-14.5q1 -28 14.5 -44.5t37 -25.5t54 -11.5t66.5 -2.5q48 0 91 6.5t75.5 21.5t52 38.5t19.5 57.5q0 30 -24.5 45.5t-78.5 27.5l-138 31q-42 9 -71.5 20.5t-48 25.5t-26.5 32.5t-8 42.5q0 43 23.5 76t62.5 55
t90 33t107 11q31 0 71 -4t75.5 -16.5t60.5 -35t27 -59.5zM196 -200h-52l80 149h77z" />
    <glyph glyph-name="tcaron.sc" horiz-adv-x="597" 
d="M369 492l-141 -492h-66l141 492h-252l14 51h571l-14 -51h-253zM302 768l64 -110l131 110h64l-157 -141h-80l-74 141h52z" />
    <glyph glyph-name="tcommaaccent.sc" horiz-adv-x="597" 
d="M369 492l-141 -492h-66l141 492h-252l14 51h571l-14 -51h-253zM120 -200h-52l80 149h77z" />
    <glyph glyph-name="tbar.sc" horiz-adv-x="597" 
d="M68 303h181l54 189h-252l14 51h571l-14 -51h-253l-54 -189h181l-13 -48h-182l-73 -255h-66l73 255h-180z" />
    <glyph glyph-name="thorn.sc" horiz-adv-x="616" 
d="M184 423h192q50 0 84.5 -8.5t55.5 -24.5t30.5 -37.5t9.5 -47.5q0 -11 -1 -21.5t-5 -22.5q-20 -68 -79.5 -105.5t-165.5 -37.5h-208l-34 -118h-66l155 543h66zM488 273q4 15 4 31q0 32 -29 51t-100 19h-193l-59 -206h198q77 0 120 24.5t59 80.5z" />
    <glyph glyph-name="ugrave.sc" horiz-adv-x="738" 
d="M604 214q-34 -118 -117.5 -171.5t-222.5 -53.5q-46 0 -86.5 9t-70.5 28t-47.5 47t-17.5 66q0 34 12 75l94 329h66l-95 -331q-5 -16 -8 -31.5t-3 -28.5q0 -57 43.5 -85t127.5 -28q98 0 166 44t92 129l95 331h66zM462 627l-92 141h78l63 -141h-49z" />
    <glyph glyph-name="uacute.sc" horiz-adv-x="738" 
d="M604 214q-34 -118 -117.5 -171.5t-222.5 -53.5q-46 0 -86.5 9t-70.5 28t-47.5 47t-17.5 66q0 34 12 75l94 329h66l-95 -331q-5 -16 -8 -31.5t-3 -28.5q0 -57 43.5 -85t127.5 -28q98 0 166 44t92 129l95 331h66zM442 627h-58l136 141h93z" />
    <glyph glyph-name="ucircumflex.sc" horiz-adv-x="738" 
d="M604 214q-34 -118 -117.5 -171.5t-222.5 -53.5q-46 0 -86.5 9t-70.5 28t-47.5 47t-17.5 66q0 34 12 75l94 329h66l-95 -331q-5 -16 -8 -31.5t-3 -28.5q0 -57 43.5 -85t127.5 -28q98 0 166 44t92 129l95 331h66zM548 627l-64 110l-131 -110h-64l157 141h80l74 -141h-52z
" />
    <glyph glyph-name="utilde.sc" horiz-adv-x="738" 
d="M604 214q-34 -118 -117.5 -171.5t-222.5 -53.5q-46 0 -86.5 9t-70.5 28t-47.5 47t-17.5 66q0 34 12 75l94 329h66l-95 -331q-5 -16 -8 -31.5t-3 -28.5q0 -57 43.5 -85t127.5 -28q98 0 166 44t92 129l95 331h66zM642 752q-14 -37 -40.5 -62.5t-68.5 -25.5q-17 0 -34 5
t-33.5 11.5t-32.5 11.5t-29 5q-19 0 -32 -11.5t-21 -26.5h-42q6 17 16 33.5t23 29t30 20t37 7.5q16 0 33.5 -6t34 -12.5t32 -12.5t26.5 -6q20 0 34.5 11.5t23.5 28.5h43v0z" />
    <glyph glyph-name="udieresis.sc" horiz-adv-x="738" 
d="M604 214q-34 -118 -117.5 -171.5t-222.5 -53.5q-46 0 -86.5 9t-70.5 28t-47.5 47t-17.5 66q0 34 12 75l94 329h66l-95 -331q-5 -16 -8 -31.5t-3 -28.5q0 -57 43.5 -85t127.5 -28q98 0 166 44t92 129l95 331h66zM587 680h-66l24 81h65zM405 680h-66l23 81h66z" />
    <glyph glyph-name="umacron.sc" horiz-adv-x="738" 
d="M604 214q-34 -118 -117.5 -171.5t-222.5 -53.5q-46 0 -86.5 9t-70.5 28t-47.5 47t-17.5 66q0 34 12 75l94 329h66l-95 -331q-5 -16 -8 -31.5t-3 -28.5q0 -57 43.5 -85t127.5 -28q98 0 166 44t92 129l95 331h66zM600 686h-294l13 49h295z" />
    <glyph glyph-name="ubreve.sc" horiz-adv-x="738" 
d="M604 214q-34 -118 -117.5 -171.5t-222.5 -53.5q-46 0 -86.5 9t-70.5 28t-47.5 47t-17.5 66q0 34 12 75l94 329h66l-95 -331q-5 -16 -8 -31.5t-3 -28.5q0 -57 43.5 -85t127.5 -28q98 0 166 44t92 129l95 331h66zM628 749q-26 -56 -72 -85.5t-111 -29.5q-23 0 -45.5 5
t-40.5 16.5t-29 30t-11 44.5v9.5t1 9.5h38q5 -35 34.5 -51t61.5 -16q45 0 78.5 17.5t56.5 49.5h39v0z" />
    <glyph glyph-name="uring.sc" horiz-adv-x="738" 
d="M604 214q-34 -118 -117.5 -171.5t-222.5 -53.5q-46 0 -86.5 9t-70.5 28t-47.5 47t-17.5 66q0 34 12 75l94 329h66l-95 -331q-5 -16 -8 -31.5t-3 -28.5q0 -57 43.5 -85t127.5 -28q98 0 166 44t92 129l95 331h66zM545 702q0 -39 -27 -66t-66 -27t-66 27t-27 66t27 66t66 27
t66 -27t27 -66zM508 702q0 26 -16 42.5t-40 16.5t-40 -16.5t-16 -42.5t16 -42.5t40 -16.5t40 16.5t16 42.5z" />
    <glyph glyph-name="uhungarumlaut.sc" horiz-adv-x="738" 
d="M604 214q-34 -118 -117.5 -171.5t-222.5 -53.5q-46 0 -86.5 9t-70.5 28t-47.5 47t-17.5 66q0 34 12 75l94 329h66l-95 -331q-5 -16 -8 -31.5t-3 -28.5q0 -57 43.5 -85t127.5 -28q98 0 166 44t92 129l95 331h66zM557 627h-55l145 141h84zM388 627h-54l144 141h84z" />
    <glyph glyph-name="uogonek.sc" horiz-adv-x="738" 
d="M604 214q-31 -106 -101 -159.5t-184 -63.5q-63 -32 -92.5 -59t-29.5 -52q0 -18 18 -26.5t42 -8.5q16 0 31.5 3t30.5 8l5 -31q-24 -8 -50 -11.5t-51 -3.5q-37 0 -65 12.5t-28 39.5q0 18 11.5 36t29.5 34.5t41.5 31t47.5 25.5q-45 0 -84.5 9.5t-69.5 28.5t-47 46.5
t-17 65.5q0 34 12 75l94 329h66l-95 -331q-5 -16 -8 -31.5t-3 -28.5q0 -57 43.5 -85t127.5 -28q98 0 166 44t92 129l95 331h66z" />
    <glyph glyph-name="wacute.sc" horiz-adv-x="1043" 
d="M714 0h-81l-68 485l-334 -485h-87l-78 543h65l68 -489l334 489h84l69 -489l322 489h75zM599 627h-58l136 141h93z" />
    <glyph glyph-name="wcircumflex.sc" horiz-adv-x="1043" 
d="M714 0h-81l-68 485l-334 -485h-87l-78 543h65l68 -489l334 489h84l69 -489l322 489h75zM695 627l-64 110l-131 -110h-64l157 141h80l74 -141h-52z" />
    <glyph glyph-name="wdieresis.sc" horiz-adv-x="1043" 
d="M714 0h-81l-68 485l-334 -485h-87l-78 543h65l68 -489l334 489h84l69 -489l322 489h75zM725 680h-66l24 81h65zM543 680h-66l23 81h66z" />
    <glyph glyph-name="wgrave.sc" horiz-adv-x="1043" 
d="M714 0h-81l-68 485l-334 -485h-87l-78 543h65l68 -489l334 489h84l69 -489l322 489h75zM602 627l-92 141h78l63 -141h-49z" />
    <glyph glyph-name="yacute.sc" horiz-adv-x="624" 
d="M309 235l-67 -235h-66l67 235l-191 308h73l159 -260l304 260h90zM353 627h-58l136 141h93z" />
    <glyph glyph-name="ycircumflex.sc" horiz-adv-x="624" 
d="M309 235l-67 -235h-66l67 235l-191 308h73l159 -260l304 260h90zM464 627l-64 110l-131 -110h-64l157 141h80l74 -141h-52z" />
    <glyph glyph-name="ydieresis.sc" horiz-adv-x="624" 
d="M309 235l-67 -235h-66l67 235l-191 308h73l159 -260l304 260h90zM497 680h-66l24 81h65zM315 680h-66l23 81h66z" />
    <glyph glyph-name="ygrave.sc" horiz-adv-x="624" 
d="M309 235l-67 -235h-66l67 235l-191 308h73l159 -260l304 260h90zM369 627l-92 141h78l63 -141h-49z" />
    <glyph glyph-name="zacute.sc" horiz-adv-x="596" 
d="M-71 0l16 55l568 440h-422l14 48h504l-16 -55l-568 -439h450l-14 -49h-532zM368 627h-58l136 141h93z" />
    <glyph glyph-name="zcaron.sc" horiz-adv-x="596" 
d="M-71 0l16 55l568 440h-422l14 48h504l-16 -55l-568 -439h450l-14 -49h-532zM305 768l64 -110l131 110h64l-157 -141h-80l-74 141h52z" />
    <glyph glyph-name="zdotaccent.sc" horiz-adv-x="596" 
d="M-71 0l16 55l568 440h-422l14 48h504l-16 -55l-568 -439h450l-14 -49h-532zM469 761q-1 -3 -4.5 -14.5t-7.5 -25.5t-7.5 -26t-4.5 -15h-66l23 81h67v0z" />
    <glyph glyph-name="ij.sc" horiz-adv-x="837" 
d="M-3 0l155 543h66l-155 -543h-66zM696 189q-18 -59 -45 -98t-64.5 -62.5t-85 -33.5t-104.5 -10q-37 0 -69 7t-56 21.5t-38 37t-14 53.5q0 19 6 40h66q-4 -13 -4 -28q0 -40 33.5 -60.5t95.5 -20.5q83 0 137 39.5t77 118.5l100 350h66l-101 -354v0z" />
    <glyph glyph-name="germandbls.sc" horiz-adv-x="1296" 
d="M595 444v-16t-1 -15h-68q1 6 1.5 10.5t0.5 9.5q0 25 -15 40t-39 23t-54.5 10.5t-61.5 2.5q-49 0 -88.5 -8.5t-67 -24.5t-42 -37.5t-14.5 -46.5t23 -42t74 -28l146 -33q77 -17 115 -43.5t38 -76.5q0 -54 -29.5 -89.5t-74.5 -56.5t-99.5 -29.5t-104.5 -8.5q-47 0 -90 5.5
t-76 19.5t-52.5 39.5t-19.5 66.5v17.5t2 16.5h67q-2 -8 -2 -16.5v-14.5q1 -28 14.5 -44.5t37 -25.5t54 -11.5t66.5 -2.5q48 0 91 6.5t75.5 21.5t52 38.5t19.5 57.5q0 30 -24.5 45.5t-78.5 27.5l-138 31q-42 9 -71.5 20.5t-48 25.5t-26.5 32.5t-8 42.5q0 43 23.5 76t62.5 55
t90 33t107 11q31 0 71 -4t75.5 -16.5t60.5 -35t27 -59.5zM1239 444v-16t-1 -15h-68q1 6 1.5 10.5t0.5 9.5q0 25 -15 40t-39 23t-54.5 10.5t-61.5 2.5q-49 0 -88.5 -8.5t-67 -24.5t-42 -37.5t-14.5 -46.5t23 -42t74 -28l146 -33q77 -17 115 -43.5t38 -76.5q0 -54 -29.5 -89.5
t-74.5 -56.5t-99.5 -29.5t-104.5 -8.5q-47 0 -90 5.5t-76 19.5t-52.5 39.5t-19.5 66.5v17.5t2 16.5h67q-2 -8 -2 -16.5v-14.5q1 -28 14.5 -44.5t37 -25.5t54 -11.5t66.5 -2.5q48 0 91 6.5t75.5 21.5t52 38.5t19.5 57.5q0 30 -24.5 45.5t-78.5 27.5l-138 31q-42 9 -71.5 20.5
t-48 25.5t-26.5 32.5t-8 42.5q0 43 23.5 76t62.5 55t90 33t107 11q31 0 71 -4t75.5 -16.5t60.5 -35t27 -59.5z" />
    <glyph glyph-name="eng.sc" horiz-adv-x="761" 
d="M539 -67q-21 -72 -62 -103.5t-114 -31.5q-16 0 -33.5 0.5t-33.5 3.5l15 51q25 -3 52 -3q54 0 78.5 25t39.5 76l14 49l-296 487l-139 -487h-63l155 543h83l283 -462l132 462h63z" />
    <glyph glyph-name="grave.sc" horiz-adv-x="261" 
d="M216 627l-92 141h78l63 -141h-49z" />
    <glyph glyph-name="acute.sc" horiz-adv-x="261" 
d="M183 627h-58l136 141h93z" />
    <glyph glyph-name="circumflex.sc" horiz-adv-x="261" 
d="M299 627l-64 110l-131 -110h-64l157 141h80l74 -141h-52z" />
    <glyph glyph-name="caron.sc" horiz-adv-x="261" 
d="M133 768l64 -110l131 110h64l-157 -141h-80l-74 141h52z" />
    <glyph glyph-name="tilde.sc" horiz-adv-x="261" 
d="M385 752q-14 -37 -40.5 -62.5t-68.5 -25.5q-17 0 -34 5t-33.5 11.5t-32.5 11.5t-29 5q-19 0 -32 -11.5t-21 -26.5h-42q6 17 16 33.5t23 29t30 20t37 7.5q16 0 33.5 -6t34 -12.5t32 -12.5t26.5 -6q20 0 34.5 11.5t23.5 28.5h43v0z" />
    <glyph glyph-name="dieresis.sc" horiz-adv-x="261" 
d="M335 680h-66l24 81h65zM153 680h-66l23 81h66z" />
    <glyph glyph-name="macron.sc" horiz-adv-x="261" 
d="M360 686h-294l13 49h295z" />
    <glyph glyph-name="breve.sc" horiz-adv-x="261" 
d="M385 749q-26 -56 -72 -85.5t-111 -29.5q-23 0 -45.5 5t-40.5 16.5t-29 30t-11 44.5v9.5t1 9.5h38q5 -35 34.5 -51t61.5 -16q45 0 78.5 17.5t56.5 49.5h39v0z" />
    <glyph glyph-name="ring.sc" horiz-adv-x="261" 
d="M314 702q0 -39 -27 -66t-66 -27t-66 27t-27 66t27 66t66 27t66 -27t27 -66zM277 702q0 26 -16 42.5t-40 16.5t-40 -16.5t-16 -42.5t16 -42.5t40 -16.5t40 16.5t16 42.5z" />
    <glyph glyph-name="hungarumlaut.sc" horiz-adv-x="261" 
d="M261 627h-55l145 141h84zM92 627h-54l144 141h84z" />
    <glyph glyph-name="dotaccent.sc" horiz-adv-x="261" 
d="M268 761q-1 -3 -4.5 -14.5t-7.5 -25.5t-7.5 -26t-4.5 -15h-66l23 81h67v0z" />
    <glyph glyph-name="exclamdown.sc" horiz-adv-x="306" 
d="M163.99 402.976h54.9961l-106.993 -403.976h-71.9951zM266.983 541.967l-18.999 -67.9961h-70.9951l18.999 67.9961h70.9951z" />
    <glyph glyph-name="questiondown.sc" horiz-adv-x="486" 
d="M36.998 83.9951q0 26.998 10.499 50.4971q10.499 23.498 32.498 46.9971q21.999 23.498 56.4961 48.9971q34.498 25.498 82.4951 57.4961q20.999 13.999 33.498 23.998q12.499 10 19.499 18.499q7 8.5 10.499 15.999q3.5 7.5 6.5 17.499l10.999 38.998h54.9971
l-12.999 -45.9971q-3 -12 -8.5 -22.999q-5.49902 -10.999 -16.499 -22.998q-10.999 -12 -29.998 -26.999t-48.9971 -35.998q-63.9961 -44.9971 -97.9941 -79.4951q-33.998 -34.4971 -33.998 -71.4951q0 -17.999 10 -30.998q9.99902 -12.999 26.498 -21.499
q16.499 -8.49902 38.498 -11.999q21.998 -3.5 46.9971 -3.5q59.9961 0 127.992 15.999l-13.999 -48.9971q-35.998 -5.99902 -70.9961 -8.99902t-66.9961 -3q-34.998 0 -65.4961 6q-30.498 5.99902 -52.9961 17.999q-22.499 11.999 -35.498 30.998
q-12.999 18.998 -12.999 44.9971zM402.976 541.967l-22.999 -78.9951h-70.9951l22.998 78.9951h70.9961z" />
    <glyph glyph-name="Euro.sc" horiz-adv-x="610" 
d="M164 363q53 97 125 146t168 49q33 0 58.5 -5t45 -12.5t32 -16t20.5 -14.5l-24 -46q-8 7 -19 15t-27.5 15t-39 11.5t-52.5 4.5q-65 0 -120.5 -37.5t-97.5 -109.5h292l-24 -44h-290q-6 -14 -12.5 -30.5t-11.5 -34.5h280l-24 -44h-267q-2 -14 -3.5 -28t-1.5 -27
q0 -121 151 -121q51 0 89.5 14t61.5 34l2 -60q-25 -14 -64 -25t-93 -11q-101 0 -156.5 40t-55.5 125q0 14 1 29t3 30h-83l23 44h70q5 17 10.5 33t12.5 32h-78l23 44h76z" />
    <glyph glyph-name="cent.sc" horiz-adv-x="610" 
d="M57 -12l72 103q-42 17 -65 51t-23 85q0 47 21 91.5t63 81.5q40 34 93.5 54t121.5 20q14 0 27 -1.5t25 -3.5l60 86h42l-66 -94q48 -16 75.5 -46.5t27.5 -72.5v-2h-67v3q0 24 -15.5 45.5t-47.5 33.5l-210 -302q22 -6 52 -6q59 0 107.5 20.5t72.5 70.5h69q-17 -37 -43 -62.5
t-58.5 -41t-71 -22.5t-79.5 -7q-22 0 -41 1.5t-36 6.5l-64 -92h-42zM108 230q0 -29 12.5 -54t38.5 -42l206 296q-6 1 -13 1.5t-14 0.5q-51 0 -94 -18t-75 -47q-30 -29 -45.5 -62t-15.5 -75z" />
    <glyph glyph-name="sterling.sc" horiz-adv-x="610" 
d="M519 415q2 9 2 13.5v9.5q0 38 -31 55.5t-80 17.5q-32 0 -62.5 -8.5t-56 -25.5t-45 -43t-29.5 -62l-18 -62h192l-13 -45h-192l-62 -217h339l-14 -48h-487l14 48h82l62 217h-83l13 45h83l19 66q25 86 96 134.5t171 48.5q79 0 123 -29.5t44 -78.5q0 -9 -1 -17t-4 -19h-62z
" />
    <glyph glyph-name="florin.sc" horiz-adv-x="610" 
d="M367 373h128l-21 -42h-127l-147 -305q-20 -42 -39.5 -72t-42.5 -49.5t-52.5 -28.5t-69.5 -9q-11 0 -22.5 1t-24.5 4l20 42q16 -3 28 -3q24 0 43 6t35.5 19.5t31 34.5t28.5 51l147 309h-119l21 42h118l29 60q31 66 74.5 95.5t98.5 29.5q23 0 41 -2.5t32 -6.5l-19 -44
q-14 4 -27.5 6.5t-26.5 2.5q-38 0 -63.5 -21.5t-43.5 -58.5z" />
    <glyph glyph-name="yen.sc" horiz-adv-x="610" 
d="M340 279h134l-13 -44h-161l-19 -65h161l-12 -44h-161l-36 -126h-63l36 126h-159l12 44h160l19 65h-160l13 44h133l-127 264h69l113 -258l260 258h77z" />
    <glyph glyph-name="perthousand.sc" horiz-adv-x="1117" 
d="M176 269q-56 0 -86.5 27t-30.5 73q0 36 13 69t37 58.5t58 40.5t75 15q54 0 84.5 -26t30.5 -72q0 -36 -12.5 -69t-35.5 -59t-56.5 -41.5t-76.5 -15.5zM178 306q31 0 55 13t40.5 34t25 47t8.5 51q0 30 -18.5 46.5t-50.5 16.5q-30 0 -53.5 -13t-40.5 -33t-26 -45.5t-9 -50.5
q0 -30 18.5 -48t50.5 -18zM54 -34h-58l692 609h55zM502 -11q-56 0 -86.5 27t-30.5 73q0 36 13 69t37 58.5t58 40.5t75 15q54 0 84.5 -26t30.5 -72q0 -36 -12.5 -69t-35.5 -59t-56.5 -41.5t-76.5 -15.5zM504 26q31 0 55 13t40.5 34t25 47t8.5 51q0 30 -18.5 46.5t-50.5 16.5
q-30 0 -53.5 -13t-40.5 -33t-26 -45.5t-9 -50.5q0 -30 18.5 -48t50.5 -18zM842 -11q-56 0 -86.5 27t-30.5 73q0 36 13 69t37 58.5t58 40.5t75 15q54 0 84.5 -26t30.5 -72q0 -36 -12.5 -69t-35.5 -59t-56.5 -41.5t-76.5 -15.5zM844 26q31 0 55 13t40.5 34t25 47t8.5 51
q0 30 -18.5 46.5t-50.5 16.5q-30 0 -53.5 -13t-40.5 -33t-26 -45.5t-9 -50.5q0 -30 18.5 -48t50.5 -18z" />
    <glyph glyph-name="parenleft.sc" horiz-adv-x="300" 
d="M65 -60q-17 54 -27 105.5t-10 101.5q0 66 18.5 126.5t49.5 116.5t71.5 108.5t84.5 103.5h55q-41 -49 -80.5 -101.5t-70 -110t-49 -121t-18.5 -135.5q0 -48 7.5 -97t22.5 -97h-54z" />
    <glyph glyph-name="parenright.sc" horiz-adv-x="300" 
d="M183 602q17 -54 27 -105.5t10 -101.5q0 -66 -18.5 -126.5t-49.5 -116.5t-71.5 -108.5t-84.5 -103.5h-55q41 49 80.5 101.5t70 110t49 121t18.5 135.5q0 48 -7.5 97t-22.5 97h54z" />
    <glyph glyph-name="bracketleft.sc" horiz-adv-x="290" 
d="M306 602l-11 -38h-88l-168 -587h88l-11 -37h-145l189 662h146z" />
    <glyph glyph-name="bracketright.sc" horiz-adv-x="290" 
d="M-66 -60l11 38h88l168 587h-88l11 37h145l-189 -662h-146z" />
    <glyph glyph-name="braceleft.sc" horiz-adv-x="304" 
d="M155 -60q-17 0 -32.5 0.5t-31.5 3.5q-32 7 -50 26.5t-18 50.5q0 17 6 37l30 102q3 10 4.5 19.5t1.5 17.5q0 26 -18 38.5t-53 15.5l12 41q48 5 75 24.5t41 66.5l27 95q15 53 46 81t76 37q17 4 36.5 5t36.5 1l-10 -37q-12 0 -27 -1t-27 -4q-26 -6 -43.5 -24.5t-28.5 -58.5
l-30 -103q-11 -38 -35 -64.5t-70 -37.5q26 -11 39 -25.5t13 -39.5q0 -17 -8 -46l-28 -98q-3 -11 -5 -20t-2 -18q0 -16 7.5 -27.5t28.5 -16.5q7 -2 23.5 -2.5t23.5 -0.5z" />
    <glyph glyph-name="braceright.sc" horiz-adv-x="304" 
d="M99 602q17 0 32.5 -0.5t31.5 -3.5q32 -7 50 -26.5t18 -50.5q0 -18 -6 -37l-30 -102q-6 -20 -6 -37q0 -26 18 -38.5t53 -15.5l-12 -41q-48 -5 -75 -24.5t-41 -66.5l-27 -95q-15 -53 -46 -81t-76 -37q-17 -4 -36.5 -5t-36.5 -1l10 37q12 0 27 1t27 4q26 6 43.5 24.5
t28.5 58.5l30 103q11 38 35 64.5t70 37.5q-26 11 -39 25.5t-13 39.5q0 17 8 46l28 98q3 11 5 20t2 18q0 16 -7.5 27.5t-28.5 16.5q-7 2 -23.5 2.5t-23.5 0.5z" />
    <glyph glyph-name="zero.onum" 
d="M256 -15q-66 0 -114.5 18t-80 48.5t-47 70.5t-15.5 84q0 64 19.5 123t72.5 119q47 54 122 85.5t170 31.5q66 0 114.5 -18t80 -48.5t47 -70.5t15.5 -84q0 -64 -19.5 -123t-72.5 -119q-47 -54 -122 -85.5t-170 -31.5zM262 40q81 0 140 30t98 77q31 36 50 85.5t19 105.5
q0 34 -10.5 65.5t-33.5 55t-59.5 37.5t-88.5 14q-81 0 -140 -30t-98 -77q-31 -36 -50 -85.5t-19 -105.5q0 -35 10.5 -66t33.5 -54.5t59.5 -37.5t88.5 -14z" />
    <glyph glyph-name="one.onum" 
d="M259 0l134 472q-25 -17 -58 -33.5t-69.5 -31.5t-74 -28t-71.5 -23l20 66q31 9 66.5 21.5t72 28.5t73 35.5t69.5 42.5h64l-157 -550h-69z" />
    <glyph glyph-name="two.onum" 
d="M-24 0l15 55l287 127q84 37 138.5 67.5t86.5 58.5t44.5 54t12.5 54q0 42 -38.5 68.5t-114.5 26.5q-86 0 -143 -31.5t-89 -101.5h-71q34 90 110.5 138.5t194.5 48.5q59 0 101 -12.5t68.5 -33t39 -47.5t12.5 -56q0 -43 -19 -79t-60 -70t-106 -68.5t-156 -74.5l-153 -67h413
l-17 -57h-556z" />
    <glyph glyph-name="three.onum" 
d="M623 427q0 -42 -16.5 -77.5t-43.5 -62.5t-62.5 -45t-73.5 -24q24 -5 46.5 -15t39 -26t26.5 -37.5t10 -50.5q0 -59 -26.5 -104.5t-71.5 -77.5t-105.5 -48.5t-127.5 -16.5q-33 0 -74 6t-77 21.5t-60 44t-24 73.5q0 15 1 27t5 25h71q-7 -19 -7 -39q0 -33 17 -53t42 -31
t54 -14.5t54 -3.5q45 0 90.5 10t82.5 32.5t60 57t23 84.5q0 30 -14 50.5t-36.5 32.5t-50.5 17.5t-55 5.5h-90l16 57h85q41 0 84.5 13.5t77.5 39.5q27 21 43.5 50t16.5 67q0 28 -14.5 46.5t-36.5 29t-48 14.5t-49 4q-35 0 -69.5 -7t-64.5 -22t-53.5 -39t-36.5 -59h-72
q16 49 46.5 84t70.5 57t87 32t96 10q33 0 70.5 -6t69.5 -21t53 -42t21 -69z" />
    <glyph glyph-name="four.onum" 
d="M438 0l-41 -143h-67l41 143h-422l20 74l546 476h81l-143 -496h142l-15 -54h-142zM508 477l-481 -423h359z" />
    <glyph glyph-name="five.onum" 
d="M642 493h-399l-95 -266q27 25 53 42t53 27t56.5 14.5t62.5 4.5q40 0 76.5 -9.5t64.5 -30t45 -51.5t17 -74q0 -70 -27.5 -126.5t-74.5 -97t-109.5 -62.5t-131.5 -22q-45 0 -87.5 6.5t-75 22.5t-52 43.5t-19.5 68.5q0 14 0.5 24.5t4.5 21.5h71q-2 -7 -3 -15.5t-1 -16.5
q0 -31 16.5 -50.5t41 -30t53 -14.5t53.5 -4q50 0 98 16t86 46.5t61.5 75.5t23.5 103q0 34 -13 57t-34.5 37t-49.5 20.5t-57 6.5q-70 0 -129 -27t-97 -85h-68l137 402h464z" />
    <glyph glyph-name="six.onum" 
d="M696 578q0 -13 -2 -23.5t-4 -23.5h-70q2 8 3 18t1 18q0 31 -13 50.5t-33.5 30t-46 14.5t-51.5 4q-63 0 -113 -20.5t-90 -60.5q-26 -26 -47.5 -57.5t-38.5 -65.5t-29.5 -70t-21.5 -70q48 72 117.5 102.5t152.5 30.5q40 0 79 -10.5t70 -32t49.5 -54.5t18.5 -78
q0 -32 -7.5 -62.5t-21 -58t-31.5 -50.5t-39 -41q-57 -48 -117 -65.5t-131 -17.5q-48 0 -89.5 11.5t-72.5 36t-48.5 62t-17.5 88.5q0 58 12.5 120.5t36.5 121.5t58.5 111.5t78.5 91.5q105 94 251 94q36 0 72.5 -6.5t66.5 -23t49 -44.5t19 -70zM555 271q0 35 -15 59.5
t-38.5 39.5t-53.5 21.5t-60 6.5q-47 0 -94.5 -16t-85.5 -44.5t-61.5 -69.5t-23.5 -90q0 -34 13.5 -59.5t36 -43t52 -26t61.5 -8.5q65 0 117 21.5t92 63.5q27 29 43.5 66t16.5 79z" />
    <glyph glyph-name="seven.onum" 
d="M111 -143h-82l547 633h-476l17 60h551l-18 -63z" />
    <glyph glyph-name="eight.onum" 
d="M686 577q0 -44 -18.5 -79t-48.5 -61.5t-68 -43.5t-78 -23q27 -5 52.5 -16t45 -28.5t31.5 -41.5t12 -55q0 -59 -28 -104.5t-75.5 -76.5t-110.5 -47t-134 -16q-44 0 -88 8t-79.5 27t-57.5 50t-22 78t21 85.5t54.5 67t76.5 46t87 23.5q-23 5 -44 15t-37 25.5t-25 35.5t-9 46
q0 52 26.5 94.5t71 72.5t101.5 46.5t118 16.5q34 0 73.5 -6t73.5 -22.5t56.5 -44.5t22.5 -72zM615 566q0 31 -16 51t-40 30.5t-52.5 14.5t-53.5 4q-45 0 -88.5 -11t-78 -32.5t-55.5 -53t-21 -71.5q0 -30 17 -49.5t42 -31t54 -16.5t53 -5q37 0 79 9.5t77.5 30t59 53
t23.5 77.5zM544 224q0 35 -18.5 57.5t-46.5 35t-59.5 17.5t-58.5 5q-42 0 -89.5 -10t-88 -32t-67 -57t-26.5 -86q0 -38 19.5 -60t47.5 -34t60 -15.5t57 -3.5q58 0 107.5 13t85.5 37t56.5 58t20.5 75z" />
    <glyph glyph-name="nine.onum" 
d="M612 372q0 -63 -12.5 -123.5t-33.5 -114t-48.5 -99.5t-58.5 -81q-18 -20 -42.5 -40t-56.5 -36t-71.5 -26t-86.5 -10q-38 0 -77.5 7t-71.5 24t-52.5 44.5t-20.5 69.5q0 13 1.5 24.5t3.5 21.5h70q-2 -7 -3 -16.5t-1 -18.5q0 -32 14.5 -51.5t37 -30.5t49.5 -14.5t53 -3.5
q59 0 107 21.5t83 56.5q27 27 47.5 58.5t36.5 66t28 70.5t22 72q-45 -70 -113.5 -100.5t-154.5 -30.5q-42 0 -80 11t-67 32.5t-46 54t-17 74.5q0 66 29 118.5t75.5 88.5t106 55t119.5 19q49 0 91.5 -11.5t73.5 -35t48.5 -60t17.5 -86.5zM540 384q0 35 -13.5 59t-36.5 38.5
t-52.5 21t-61.5 6.5q-45 0 -90.5 -15t-82 -43.5t-59.5 -69t-23 -91.5q0 -35 14 -58t36.5 -37.5t52 -20.5t59.5 -6q47 0 93 15t82.5 43t59 68t22.5 90z" />
    <glyph glyph-name="zero.scprop" horiz-adv-x="610" 
d="M208 -16q-91 0 -144 43t-53 125q0 30 5.5 63t15 65.5t22.5 63t28 55.5q48 78 114 118.5t162 40.5q91 0 144 -43t53 -125q0 -30 -5.5 -63t-15 -65.5t-22.5 -63t-28 -55.5q-48 -78 -114 -118.5t-162 -40.5zM210 31q66 0 118.5 31.5t92.5 92.5q15 24 28 53t22.5 60t14.5 61
t5 55q0 60 -35 93.5t-100 33.5q-66 0 -118.5 -31.5t-92.5 -92.5q-15 -24 -28 -53t-22.5 -60t-14.5 -61t-5 -55q0 -60 35 -93.5t100 -33.5z" />
    <glyph glyph-name="one.scprop" horiz-adv-x="410" 
d="M118 0l138 482q-43 -29 -91 -50t-104 -38l15 51q54 17 100.5 39t102.5 59h60l-155 -543h-66z" />
    <glyph glyph-name="two.scprop" horiz-adv-x="610" 
d="M542 416q0 -70 -54 -125.5t-158 -109.5l-255 -133h383l-14 -48h-486l16 53l324 169q93 49 137 92.5t44 99.5q0 47 -35 71.5t-98 24.5q-64 0 -117 -28t-76 -84h-67q29 81 100 120.5t162 39.5q94 0 144 -36.5t50 -105.5z" />
    <glyph glyph-name="three.scprop" horiz-adv-x="610" 
d="M548 441q0 -32 -12.5 -58t-33.5 -46.5t-48.5 -34t-58.5 -20.5q39 -11 68 -36t29 -66q0 -46 -22 -82.5t-61 -61.5t-91 -38t-112 -13q-30 0 -67 4.5t-69.5 17.5t-54.5 35.5t-22 58.5q0 13 2 23.5t4 19.5h67q-2 -8 -3.5 -16t-1.5 -18q0 -24 15 -39t36.5 -23t47 -11t46.5 -3
q43 0 82.5 9t69.5 26.5t47.5 43.5t17.5 61q0 22 -13 38t-33 26t-44.5 15t-47.5 5h-82l14 48h77q31 0 64.5 7.5t61.5 23t46 39.5t18 56q0 22 -13.5 37t-33.5 24t-43 13t-43 4q-30 0 -60 -5.5t-55.5 -17t-46 -30.5t-30.5 -46h-68q13 39 39.5 67t61.5 46t76 26t84 8q36 0 71 -6
t63 -19.5t45 -36t17 -55.5z" />
    <glyph glyph-name="four.scprop" horiz-adv-x="610" 
d="M403 131l-37 -131h-63l37 131h-366l17 60l457 352h73l-104 -363h119l-14 -49h-119zM441 482l-391 -302h304z" />
    <glyph glyph-name="five.scprop" horiz-adv-x="610" 
d="M493 153q-13 -38 -39.5 -69t-64 -53t-84 -34t-100.5 -12q-41 0 -77.5 7.5t-64 22.5t-44 38t-16.5 54q0 8 0.5 15.5t1.5 14.5h67q-1 -5 -1.5 -10.5t-0.5 -13.5q0 -23 13 -38.5t33.5 -24.5t44 -13t44.5 -4q39 0 74.5 8.5t64.5 25t50.5 40t32.5 53.5q9 25 9 55
q0 27 -11 45.5t-30 30t-43.5 16.5t-52.5 5q-59 0 -109 -20.5t-82 -65.5h-64l111 317h409l-14 -49h-348l-70 -194q44 34 87 46.5t99 12.5q34 0 67 -7t59.5 -23.5t42.5 -43.5t16 -66q0 -37 -10 -66z" />
    <glyph glyph-name="six.scprop" horiz-adv-x="610" 
d="M513 211q0 -50 -23 -91t-58 -70q-38 -32 -94 -48.5t-116 -16.5q-97 0 -150.5 41t-53.5 119q0 45 9.5 93t28 93.5t46 85.5t63.5 69q89 72 214 72q31 0 64 -5.5t60 -19t44 -35.5t17 -55q0 -11 -1.5 -19t-3.5 -17h-65q2 8 3 14.5t1 15.5q0 22 -11.5 36.5t-29.5 22.5t-40 11
t-43 3q-54 0 -96 -16t-74 -45q-39 -36 -65 -87.5t-40 -100.5q40 48 97 69.5t123 21.5q40 0 75.5 -9t62 -27t41.5 -44.5t15 -60.5zM445 205q0 26 -11 44.5t-30.5 30.5t-45.5 17.5t-56 5.5q-39 0 -78 -12t-70 -33.5t-50 -52t-19 -67.5q0 -26 11 -45.5t30 -32.5t44.5 -20
t54.5 -7q54 0 97 16t76 47q23 21 35 49.5t12 59.5z" />
    <glyph glyph-name="seven.scprop" horiz-adv-x="530" 
d="M110 0h-82l441 492h-397l15 51h469l-14 -51z" />
    <glyph glyph-name="eight.scprop" horiz-adv-x="610" 
d="M554 442q0 -32 -13.5 -58t-36 -46.5t-51.5 -34.5t-61 -21q21 -5 41 -13.5t35.5 -21.5t25 -31t9.5 -40q0 -45 -23.5 -80.5t-64 -60t-94.5 -37t-114 -12.5q-43 0 -83 7t-70.5 22t-49 39.5t-18.5 59.5q0 34 15.5 62.5t41.5 50.5t59.5 36t69.5 20q-35 11 -61 36t-26 61
q0 47 25 80.5t64 55.5t86 32t92 10q30 0 65.5 -5t65.5 -18.5t50.5 -36t20.5 -56.5zM487 433q0 23 -11 38t-30 23.5t-44 12t-53 3.5q-39 0 -75 -8.5t-64 -24t-45 -39t-17 -53.5q0 -22 14.5 -37.5t36 -25t46 -13.5t44.5 -4q31 0 66 7.5t64.5 23t48.5 40t19 57.5zM435 173
q0 25 -16 41.5t-40 25.5t-51.5 12.5t-49.5 3.5q-46 0 -87 -9.5t-71.5 -27.5t-48.5 -43.5t-18 -57.5q0 -24 13.5 -40t35.5 -26t50.5 -14t59.5 -4q42 0 82.5 9t71.5 26.5t50 43.5t19 60z" />
    <glyph glyph-name="nine.scprop" horiz-adv-x="610" 
d="M549 399q0 -49 -9.5 -96t-26.5 -89.5t-39.5 -78.5t-48.5 -63q-15 -16 -36 -31.5t-48.5 -28t-62 -20t-76.5 -7.5q-33 0 -68.5 5.5t-64.5 18.5t-48 35.5t-20 55.5q0 22 4 38h67q-2 -7 -3 -15.5t-1 -14.5q1 -24 14 -38.5t32.5 -22.5t43 -11t44.5 -3q53 0 93 16.5t69 42.5
q41 38 65.5 90t40.5 103q-38 -46 -96 -67.5t-128 -21.5q-39 0 -74 10t-61.5 28.5t-42 45t-15.5 59.5q0 53 24.5 94t64.5 68.5t91 42t105 14.5q47 0 86 -10t66.5 -30t43 -49.5t15.5 -69.5zM481 410q0 25 -11.5 44t-31 31.5t-46 18.5t-56.5 6q-40 0 -78.5 -11t-69 -32t-49 -52
t-18.5 -71q0 -24 12 -42t32 -30t45.5 -18t52.5 -6q40 0 79 11t70 32t50 51t19 68z" />
    <glyph glyph-name="zero.prop" 
d="M687 531q0 -40 -10 -85t-26 -89t-36.5 -85.5t-40.5 -73.5q-28 -45 -58 -84t-67 -67.5t-83 -45t-106 -16.5q-52 0 -94.5 12t-73 37t-47 64.5t-16.5 93.5q0 40 9.5 84.5t25.5 88t35.5 84t40.5 73.5q27 43 58 82t69 68.5t85 47t104 17.5q52 0 94.5 -12t73 -37.5t47 -64
t16.5 -92.5zM616 520q0 85 -41.5 123.5t-121.5 38.5q-40 0 -76.5 -15t-68 -39.5t-57.5 -55t-45 -61.5q-20 -32 -39 -71.5t-34 -81t-24.5 -82.5t-9.5 -76q0 -83 42 -121.5t120 -38.5q47 0 84.5 15t67.5 40t54.5 57t45.5 65q19 30 37.5 67.5t33 78t23.5 81t9 76.5z" />
    <glyph glyph-name="one.prop" horiz-adv-x="516" 
d="M229 0h-70l185 647q-54 -42 -113.5 -71.5t-123.5 -51.5l20 67q131 48 244 131h65z" />
    <glyph glyph-name="two.prop" 
d="M675 576q0 -47 -19 -91t-52 -84.5t-79 -77t-100 -68.5l-335 -198h467l-16 -57h-572l19 64l401 239q98 59 156 125.5t58 139.5q0 32 -14 54t-36.5 35t-50 18.5t-54.5 5.5q-39 0 -75.5 -9.5t-67.5 -28.5t-55.5 -47.5t-38.5 -66.5h-72q18 53 49.5 92t72.5 65t90 38.5
t102 12.5q39 0 78.5 -8t71.5 -27t52 -50t20 -76z" />
    <glyph glyph-name="three.prop" 
d="M676 594q0 -44 -17 -81t-45.5 -65.5t-65.5 -47t-76 -25.5q25 -5 48 -15.5t40 -26.5t27.5 -38.5t10.5 -52.5q0 -62 -27.5 -110t-74.5 -81t-110 -50t-133 -17q-35 0 -77.5 6t-80 22.5t-62.5 46.5t-25 77q0 15 1.5 27.5t5.5 26.5h72q-3 -10 -5 -20.5t-2 -20.5q0 -34 18 -55
t44 -33t56.5 -16t56.5 -4q66 0 118 16t94 53q26 23 42 55t16 69q0 31 -15 52.5t-39 34.5t-53.5 19t-58.5 6h-92l16 57h89q37 0 78.5 11t75.5 33t56.5 55t22.5 78q0 31 -15.5 50.5t-38.5 30.5t-51 15.5t-52 4.5q-36 0 -72.5 -7t-68 -23t-56.5 -41.5t-39 -62.5h-72
q16 51 48 87t74 59t91 33.5t99 10.5q34 0 73.5 -6t73 -22t55.5 -44t22 -71z" />
    <glyph glyph-name="four.prop" 
d="M639 178h-143l-51 -178h-66l51 178h-438l22 72l557 472h81l-139 -490h142zM75 232h371l118 419z" />
    <glyph glyph-name="five.prop" 
d="M689 665h-416l-99 -279q28 26 55.5 43t55.5 27.5t58.5 14.5t65.5 4q41 0 79 -10t67.5 -30.5t47 -52.5t17.5 -77q0 -74 -28 -133t-76.5 -100.5t-113 -64t-136.5 -22.5q-36 0 -78 6.5t-79 23.5t-61.5 45t-24.5 72q0 14 0.5 24.5t4.5 23.5h71q-4 -15 -4 -34
q0 -33 17.5 -53.5t43.5 -32t56 -15.5t56 -4q52 0 102.5 16.5t90 49t63.5 79.5t24 108q0 36 -14 60t-37 38.5t-52.5 21t-60.5 6.5q-72 0 -133.5 -27t-100.5 -88h-68l143 417h480z" />
    <glyph glyph-name="six.prop" 
d="M706 591q0 -14 -2 -24.5t-5 -23.5h-69q2 8 3 18t1 18q0 32 -13.5 52t-34.5 31t-47.5 15t-53.5 4q-65 0 -116 -21t-92 -62q-54 -54 -88.5 -127t-52.5 -144q50 73 121.5 104.5t156.5 31.5q40 0 80 -10t71 -31.5t50.5 -55t19.5 -79.5q0 -66 -29 -124t-72 -94
q-58 -49 -119.5 -66.5t-133.5 -17.5q-49 0 -91.5 11.5t-74 36t-49.5 63t-18 92.5q0 59 13 122.5t37.5 124t60 114.5t79.5 93q107 95 256 95q36 0 74 -6.5t68.5 -23t50 -45t19.5 -71.5zM562 277q0 36 -15 60.5t-39.5 40t-55 22t-61.5 6.5q-48 0 -96.5 -16t-87.5 -45.5
t-63.5 -70.5t-24.5 -92q0 -36 14 -62.5t37.5 -44t53.5 -26t63 -8.5q66 0 119 22.5t94 64.5q28 29 45 67.5t17 81.5z" />
    <glyph glyph-name="seven.prop" horiz-adv-x="656" 
d="M675 659l-535 -659h-86l547 662h-477l18 60h551z" />
    <glyph glyph-name="eight.prop" 
d="M693 590q0 -45 -18.5 -81t-49.5 -63t-70 -44.5t-80 -24.5q28 -5 54 -16t46 -28.5t32 -42.5t12 -56q0 -48 -19 -87.5t-51 -69.5q-54 -50 -122.5 -71t-162.5 -21q-45 0 -90 8t-81 27.5t-58.5 51.5t-22.5 80t21.5 87t56 68t78 46.5t88.5 23.5q-24 5 -45 15.5t-37 26
t-25.5 36.5t-9.5 47q0 41 16.5 77t43.5 63q49 49 118.5 72t144.5 23q35 0 75.5 -6t75 -22.5t57.5 -45t23 -73.5zM622 578q0 32 -16.5 52t-41.5 31.5t-54.5 15.5t-54.5 4q-26 0 -53.5 -4t-54.5 -13t-51.5 -22.5t-43.5 -32.5q-20 -20 -33 -46t-13 -55q0 -31 17.5 -51.5
t43 -32.5t55.5 -16.5t54 -4.5q38 0 81.5 10t80 31.5t60.5 54.5t24 79zM549 229q0 36 -19 59t-47.5 35.5t-61.5 17.5t-60 5q-42 0 -91 -10t-90.5 -32.5t-69 -58t-27.5 -87.5q0 -38 20 -61t49 -35.5t61.5 -16.5t58.5 -4q72 0 130.5 18.5t100.5 62.5q20 21 33 48t13 59z" />
    <glyph glyph-name="nine.prop" 
d="M683 535q0 -66 -13 -128t-35.5 -118t-52 -104t-61.5 -84q-19 -21 -44.5 -42t-58.5 -37.5t-74 -26.5t-90 -10q-39 0 -80 7t-74.5 24.5t-55 46.5t-21.5 73q0 13 2 24.5t4 22.5h70q-2 -8 -3 -17.5t-1 -18.5q0 -33 15.5 -54t39.5 -32.5t52.5 -15.5t54.5 -4q63 0 112 22.5
t86 59.5q28 28 50 62t39 70t30 74t24 76q-47 -73 -119.5 -104t-163.5 -31q-41 0 -80.5 11t-70.5 33t-49.5 55t-18.5 78q0 70 30 124t79 91t111 56t125 19q50 0 94 -12t77 -37t52 -63t19 -90zM610 549q0 36 -15 61.5t-39.5 41t-55.5 22.5t-64 7q-48 0 -96 -15t-86.5 -44.5
t-62 -71.5t-23.5 -96q0 -36 15.5 -60.5t40 -39.5t55 -21.5t60.5 -6.5q49 0 97.5 15.5t87 44t62.5 70t24 93.5z" />
    <glyph glyph-name="Euro.prop" 
d="M218 285q-5 -21 -7.5 -42.5t-2.5 -43.5q0 -85 44.5 -121.5t135.5 -36.5q61 0 107 17.5t71 41.5v-68q-29 -18 -73 -32.5t-113 -14.5q-56 0 -100.5 11.5t-76 36.5t-48.5 64.5t-17 95.5q0 40 11 92h-111l27 50h97q10 28 18 47l18 42h-105l27 50h102q28 57 60.5 105.5
t74 83.5t93 54.5t119.5 19.5q39 0 69 -6.5t51.5 -16t36 -20t22.5 -18.5l-27 -54q-8 9 -20.5 19t-32 19t-46.5 15t-63 6q-47 0 -85.5 -16.5t-71.5 -44.5t-60 -65.5t-49 -80.5h339l-27 -50h-337l-17 -41l-18 -48h320l-27 -50h-308z" />
    <glyph glyph-name="cent.prop" horiz-adv-x="654" 
d="M531 347q-1 36 -18 66t-57 45l-270 -415q30 -10 67 -10q72 0 131.5 28t91.5 95h72q-20 -48 -51.5 -80.5t-70.5 -52.5t-84 -29t-94 -9q-48 0 -91 12l-70 -107h-45l78 120q-45 20 -74 58t-29 98q0 71 29.5 139t80.5 116q49 46 113.5 71.5t144.5 25.5q16 0 31.5 -1t30.5 -4
l64 99h45l-70 -108q46 -16 77.5 -52.5t38.5 -104.5h-71zM417 467q-17 3 -36 3q-63 0 -115.5 -23t-92.5 -64q-39 -40 -61.5 -93t-22.5 -115q0 -42 16.5 -71t45.5 -46z" />
    <glyph glyph-name="dollar.prop" 
d="M688 589v-19t-2 -19h-68q1 6 2 12.5t1 12.5q0 30 -12.5 49.5t-32.5 31t-44.5 16.5t-48.5 7l-81 -284l58 -15q33 -8 61.5 -19.5t49.5 -28t33.5 -40t12.5 -56.5q0 -72 -31.5 -120t-80 -77t-107.5 -41.5t-113 -13.5l-26 -90h-43l26 91q-2 0 -4.5 -0.5t-3.5 0.5
q-38 0 -75.5 7t-67.5 25.5t-48.5 50t-18.5 80.5q0 27 4 50h68q-2 -9 -3.5 -18.5t-1.5 -18.5q0 -38 15 -61t39 -36.5t53.5 -18.5t59.5 -5l86 300l-88 23q-24 6 -47 17t-41 27.5t-29 39.5t-11 53q0 66 31 111.5t79.5 73t106.5 39.5t112 12l23 80h43l-24 -82q32 -3 65.5 -10.5
t61 -23.5t45 -43t17.5 -69zM441 681q-36 -1 -79 -9t-80.5 -27.5t-62.5 -51t-25 -79.5q0 -35 28.5 -57t73.5 -33l66 -17zM548 220q0 24 -11 40.5t-27.5 27.5t-35.5 17.5t-36 11.5l-54 14l-83 -289q42 3 86 12.5t80 30t58.5 53.5t22.5 82z" />
    <glyph glyph-name="sterling.prop" 
d="M734 606q0 -14 -1 -27t-5 -26h-70q5 17 5 35q0 27 -12 45t-31.5 29t-43.5 15.5t-47 4.5q-92 0 -154 -50.5t-88 -141.5l-23 -81h230l-15 -51h-229l-87 -302h405l-17 -56h-573l16 56h100l86 302h-99l14 51h100l24 87q32 118 115 179.5t201 61.5q32 0 67 -5.5t64.5 -20.5
t48.5 -40.5t19 -64.5z" />
    <glyph glyph-name="florin.prop" horiz-adv-x="576" 
d="M617 676q-29 9 -60 9q-26 0 -47.5 -10t-38.5 -26t-30 -35t-22 -38l-42 -87h154l-21 -48h-154l-191 -423q-20 -45 -40.5 -82.5t-48 -64.5t-64.5 -42t-90 -15q-14 0 -27 2t-26 5l22 49q17 -4 32 -4q37 0 64 12t46.5 33t34 49t28.5 59l190 422h-139l22 48h136l55 111
q13 27 31 51.5t42 43.5t54 30.5t67 11.5q21 0 45 -2t40 -7z" />
    <glyph glyph-name="yen.prop" 
d="M423 368h159l-14 -50h-191l-25 -89h191l-14 -50h-192l-51 -179h-68l52 179h-190l13 50h190l26 89h-190l14 50h160l-138 354h76l124 -352l322 352h84z" />
    <glyph glyph-name="zero.onumprop" horiz-adv-x="730" 
d="M263 -15q-66 0 -114.5 18t-80 48.5t-47 70.5t-15.5 84q0 64 19.5 123t72.5 119q47 54 122 85.5t170 31.5q66 0 114.5 -18t80 -48.5t47 -70.5t15.5 -84q0 -64 -19.5 -123t-72.5 -119q-47 -54 -122 -85.5t-170 -31.5zM269 40q81 0 140 30t98 77q31 36 50 85.5t19 105.5
q0 34 -10.5 65.5t-33.5 55t-59.5 37.5t-88.5 14q-81 0 -140 -30t-98 -77q-31 -36 -50 -85.5t-19 -105.5q0 -35 10.5 -66t33.5 -54.5t59.5 -37.5t88.5 -14z" />
    <glyph glyph-name="one.onumprop" horiz-adv-x="476" 
d="M160 0l134 472q-25 -17 -58 -33.5t-69.5 -31.5t-74 -28t-71.5 -23l20 66q31 9 66.5 21.5t72 28.5t73 35.5t69.5 42.5h64l-157 -550h-69z" />
    <glyph glyph-name="two.onumprop" 
d="M-24 0l15 55l287 127q84 37 138.5 67.5t86.5 58.5t44.5 54t12.5 54q0 42 -38.5 68.5t-114.5 26.5q-86 0 -143 -31.5t-89 -101.5h-71q34 90 110.5 138.5t194.5 48.5q59 0 101 -12.5t68.5 -33t39 -47.5t12.5 -56q0 -43 -19 -79t-60 -70t-106 -68.5t-156 -74.5l-153 -67h413
l-17 -57h-556z" />
    <glyph glyph-name="three.onumprop" 
d="M623 427q0 -42 -16.5 -77.5t-43.5 -62.5t-62.5 -45t-73.5 -24q24 -5 46.5 -15t39 -26t26.5 -37.5t10 -50.5q0 -59 -26.5 -104.5t-71.5 -77.5t-105.5 -48.5t-127.5 -16.5q-33 0 -74 6t-77 21.5t-60 44t-24 73.5q0 15 1 27t5 25h71q-7 -19 -7 -39q0 -33 17 -53t42 -31
t54 -14.5t54 -3.5q45 0 90.5 10t82.5 32.5t60 57t23 84.5q0 30 -14 50.5t-36.5 32.5t-50.5 17.5t-55 5.5h-90l16 57h85q41 0 84.5 13.5t77.5 39.5q27 21 43.5 50t16.5 67q0 28 -14.5 46.5t-36.5 29t-48 14.5t-49 4q-35 0 -69.5 -7t-64.5 -22t-53.5 -39t-36.5 -59h-72
q16 49 46.5 84t70.5 57t87 32t96 10q33 0 70.5 -6t69.5 -21t53 -42t21 -69z" />
    <glyph glyph-name="four.onumprop" 
d="M438 0l-41 -143h-67l41 143h-422l20 74l546 476h81l-143 -496h142l-15 -54h-142zM508 477l-481 -423h359z" />
    <glyph glyph-name="five.onumprop" 
d="M642 493h-399l-95 -266q27 25 53 42t53 27t56.5 14.5t62.5 4.5q40 0 76.5 -9.5t64.5 -30t45 -51.5t17 -74q0 -70 -27.5 -126.5t-74.5 -97t-109.5 -62.5t-131.5 -22q-45 0 -87.5 6.5t-75 22.5t-52 43.5t-19.5 68.5q0 14 0.5 24.5t4.5 21.5h71q-2 -7 -3 -15.5t-1 -16.5
q0 -31 16.5 -50.5t41 -30t53 -14.5t53.5 -4q50 0 98 16t86 46.5t61.5 75.5t23.5 103q0 34 -13 57t-34.5 37t-49.5 20.5t-57 6.5q-70 0 -129 -27t-97 -85h-68l137 402h464z" />
    <glyph glyph-name="six.onumprop" 
d="M696 578q0 -13 -2 -23.5t-4 -23.5h-70q2 8 3 18t1 18q0 31 -13 50.5t-33.5 30t-46 14.5t-51.5 4q-63 0 -113 -20.5t-90 -60.5q-26 -26 -47.5 -57.5t-38.5 -65.5t-29.5 -70t-21.5 -70q48 72 117.5 102.5t152.5 30.5q40 0 79 -10.5t70 -32t49.5 -54.5t18.5 -78
q0 -32 -7.5 -62.5t-21 -58t-31.5 -50.5t-39 -41q-57 -48 -117 -65.5t-131 -17.5q-48 0 -89.5 11.5t-72.5 36t-48.5 62t-17.5 88.5q0 58 12.5 120.5t36.5 121.5t58.5 111.5t78.5 91.5q105 94 251 94q36 0 72.5 -6.5t66.5 -23t49 -44.5t19 -70zM555 271q0 35 -15 59.5
t-38.5 39.5t-53.5 21.5t-60 6.5q-47 0 -94.5 -16t-85.5 -44.5t-61.5 -69.5t-23.5 -90q0 -34 13.5 -59.5t36 -43t52 -26t61.5 -8.5q65 0 117 21.5t92 63.5q27 29 43.5 66t16.5 79z" />
    <glyph glyph-name="seven.onumprop" horiz-adv-x="676" 
d="M92 -143h-82l547 633h-476l17 60h551l-18 -63z" />
    <glyph glyph-name="eight.onumprop" 
d="M686 577q0 -44 -18.5 -79t-48.5 -61.5t-68 -43.5t-78 -23q27 -5 52.5 -16t45 -28.5t31.5 -41.5t12 -55q0 -59 -28 -104.5t-75.5 -76.5t-110.5 -47t-134 -16q-44 0 -88 8t-79.5 27t-57.5 50t-22 78t21 85.5t54.5 67t76.5 46t87 23.5q-23 5 -44 15t-37 25.5t-25 35.5t-9 46
q0 52 26.5 94.5t71 72.5t101.5 46.5t118 16.5q34 0 73.5 -6t73.5 -22.5t56.5 -44.5t22.5 -72zM615 566q0 31 -16 51t-40 30.5t-52.5 14.5t-53.5 4q-45 0 -88.5 -11t-78 -32.5t-55.5 -53t-21 -71.5q0 -30 17 -49.5t42 -31t54 -16.5t53 -5q37 0 79 9.5t77.5 30t59 53
t23.5 77.5zM544 224q0 35 -18.5 57.5t-46.5 35t-59.5 17.5t-58.5 5q-42 0 -89.5 -10t-88 -32t-67 -57t-26.5 -86q0 -38 19.5 -60t47.5 -34t60 -15.5t57 -3.5q58 0 107.5 13t85.5 37t56.5 58t20.5 75z" />
    <glyph glyph-name="nine.onumprop" 
d="M612 372q0 -63 -12.5 -123.5t-33.5 -114t-48.5 -99.5t-58.5 -81q-18 -20 -42.5 -40t-56.5 -36t-71.5 -26t-86.5 -10q-38 0 -77.5 7t-71.5 24t-52.5 44.5t-20.5 69.5q0 13 1.5 24.5t3.5 21.5h70q-2 -7 -3 -16.5t-1 -18.5q0 -32 14.5 -51.5t37 -30.5t49.5 -14.5t53 -3.5
q59 0 107 21.5t83 56.5q27 27 47.5 58.5t36.5 66t28 70.5t22 72q-45 -70 -113.5 -100.5t-154.5 -30.5q-42 0 -80 11t-67 32.5t-46 54t-17 74.5q0 66 29 118.5t75.5 88.5t106 55t119.5 19q49 0 91.5 -11.5t73.5 -35t48.5 -60t17.5 -86.5zM540 384q0 35 -13.5 59t-36.5 38.5
t-52.5 21t-61.5 6.5q-45 0 -90.5 -15t-82 -43.5t-59.5 -69t-23 -91.5q0 -35 14 -58t36.5 -37.5t52 -20.5t59.5 -6q47 0 93 15t82.5 43t59 68t22.5 90z" />
    <glyph glyph-name="zero.numerator" horiz-adv-x="487" 
d="M492 484q-30 -89 -94 -142t-167 -53q-79 0 -114.5 39t-35.5 99q0 43 13 89q28 98 94.5 155.5t169.5 57.5q79 0 115.5 -39.5t36.5 -100.5q0 -20 -4.5 -49.5t-13.5 -55.5zM438 507q11 41 11 72q0 46 -24.5 74t-80.5 28q-72 0 -121.5 -47.5t-70.5 -122.5q-12 -41 -12 -74
q0 -45 24.5 -72.5t80.5 -27.5q76 0 123.5 47.5t69.5 122.5z" />
    <glyph glyph-name="one.numerator" horiz-adv-x="487" 
d="M304 294h-56l107 374q-35 -25 -72.5 -42t-78.5 -29l14 51q42 14 80.5 32.5t76.5 41.5h52z" />
    <glyph glyph-name="two.numerator" horiz-adv-x="487" 
d="M55 294l14 47l159 83q106 55 162.5 100t56.5 92q0 18 -8 30.5t-21.5 20t-30 10.5t-34.5 3q-48 0 -87 -21.5t-56 -69.5h-61q26 73 82 106t130 33q26 0 52 -4.5t47 -15.5t34.5 -29.5t13.5 -47.5q0 -35 -15 -65.5t-42.5 -57.5t-65.5 -51.5t-84 -48.5l-128 -66h276l-14 -48
h-380z" />
    <glyph glyph-name="three.numerator" horiz-adv-x="487" 
d="M518 632q0 -25 -9.5 -45.5t-26 -36t-39 -24t-47.5 -9.5q30 -8 55 -27.5t25 -54.5q0 -36 -19 -63.5t-51 -46t-73 -28t-85 -9.5q-24 0 -52.5 3t-53 12.5t-41 28t-16.5 49.5q0 20 6 41h57q-3 -11 -3 -24q0 -21 11 -33.5t27.5 -18.5t36 -8t35.5 -2q34 0 64 6.5t52 19
t34.5 30.5t12.5 41q0 17 -9 28t-24 18t-34 9.5t-39 2.5h-67l14 48h59q24 0 49 5t45.5 15t33 26t12.5 39q0 27 -27 41.5t-72 14.5q-22 0 -44.5 -4t-42 -13t-35 -24t-23.5 -38h-57q11 34 32 58t48.5 39.5t59.5 22.5t65 7t61.5 -4.5t49.5 -15.5t33 -29.5t12 -46.5z" />
    <glyph glyph-name="four.numerator" horiz-adv-x="487" 
d="M488 391h-93l-27 -97h-58l29 97h-287l15 53l355 278h68l-81 -283h93zM132 439h220l64 222z" />
    <glyph glyph-name="five.numerator" horiz-adv-x="487" 
d="M482 475q0 -41 -18 -75.5t-50 -59t-75.5 -38.5t-95.5 -14q-29 0 -57 5t-49.5 16t-35 29t-13.5 44q0 14 4 30h57q-1 -5 -1 -8.5v-7.5q0 -16 9 -27t24 -18.5t34.5 -11t40.5 -3.5q34 0 64 9t52.5 26t36 41t13.5 54q0 37 -26 53t-72 16q-48 0 -88 -16t-60 -45h-55l87 248h322
l-14 -48h-269l-49 -134q32 22 67 32t77 10q28 0 53.5 -6.5t45 -20t30.5 -33.5t11 -47z" />
    <glyph glyph-name="six.numerator" horiz-adv-x="487" 
d="M478 466q0 -39 -20 -72.5t-49 -54.5q-38 -29 -78.5 -40t-87.5 -11q-33 0 -61.5 6.5t-49.5 21t-32.5 37.5t-11.5 56q0 30 8 67t24 73.5t39 69.5t52 56q35 28 77.5 40.5t91.5 12.5q25 0 49 -4t43.5 -14.5t31.5 -28t12 -44.5q0 -9 -1 -16.5t-3 -14.5h-58q2 5 2 8.5v8.5
q0 15 -7 26t-19 17.5t-27 10t-31 3.5q-42 0 -73 -9.5t-61 -35.5q-28 -23 -44.5 -52.5t-31.5 -73.5q32 31 73 48t96 17q63 0 105 -26.5t42 -81.5zM418 460q0 37 -28.5 51.5t-73.5 14.5q-36 0 -67 -8.5t-54 -24t-36 -38t-13 -49.5q0 -18 8.5 -31.5t22.5 -22.5t32 -13t38 -4
q42 0 76 11.5t59 34.5q36 33 36 79z" />
    <glyph glyph-name="seven.numerator" horiz-adv-x="487" 
d="M199 294h-69l340 379h-303l14 49h369l-14 -46z" />
    <glyph glyph-name="eight.numerator" horiz-adv-x="487" 
d="M477 432q0 -33 -17 -59.5t-48 -45t-74 -29t-94 -10.5q-36 0 -67.5 5t-55 16.5t-37 29t-13.5 42.5q0 27 10.5 49t29 39.5t43 29.5t51.5 19q-60 22 -60 71q0 30 15.5 55t43.5 44t67 29.5t86 10.5q71 0 115.5 -24t44.5 -68q0 -48 -32.5 -76t-82.5 -42q35 -10 55 -31.5
t20 -54.5zM311 540q30 0 56.5 5.5t46.5 16.5t32 27t12 36q0 30 -31.5 43t-75.5 13q-64 0 -106 -24t-42 -62q0 -14 9 -24.5t24 -17.5t34.5 -10t40.5 -3zM252 335q31 0 61.5 5.5t53.5 17t37.5 29.5t14.5 43q0 29 -32 45.5t-89 16.5q-35 0 -65.5 -7t-53 -19.5t-36 -30
t-13.5 -39.5q0 -33 35.5 -47t86.5 -14z" />
    <glyph glyph-name="nine.numerator" horiz-adv-x="487" 
d="M480 463q-17 -40 -37.5 -72t-50 -55t-70 -35.5t-95.5 -12.5q-63 0 -103 21.5t-40 73.5q0 14 3 31h59q-1 -5 -1.5 -9.5t-0.5 -9.5q0 -30 22.5 -44.5t73.5 -14.5q75 0 125.5 41t73.5 135q-35 -35 -80 -49.5t-93 -14.5q-64 0 -103.5 27t-39.5 76q0 41 18.5 72.5t48.5 54.5
q34 26 78 38t89 12q76 0 115 -31.5t39 -91.5q0 -37 -9 -73.5t-22 -68.5zM288 495q36 0 66.5 8t53 23t35 36t12.5 47q0 32 -24.5 51.5t-86.5 19.5q-35 0 -69 -11.5t-58 -33.5q-16 -15 -25.5 -33.5t-9.5 -41.5q0 -65 106 -65z" />
    <glyph glyph-name="zero.denominator" horiz-adv-x="487" 
d="M403 190q-30 -89 -94 -142t-167 -53q-79 0 -114.5 39t-35.5 99q0 43 13 89q28 98 94.5 155.5t169.5 57.5q79 0 115.5 -39.5t36.5 -100.5q0 -20 -4.5 -49.5t-13.5 -55.5zM349 213q11 41 11 72q0 46 -24.5 74t-80.5 28q-72 0 -121.5 -47.5t-70.5 -122.5q-12 -41 -12 -74
q0 -45 24.5 -72.5t80.5 -27.5q76 0 123.5 47.5t69.5 122.5z" />
    <glyph glyph-name="one.denominator" horiz-adv-x="487" 
d="M215 0h-56l107 374q-35 -25 -72.5 -42t-78.5 -29l14 51q42 14 80.5 32.5t76.5 41.5h52z" />
    <glyph glyph-name="two.denominator" horiz-adv-x="487" 
d="M-34 0l14 47l159 83q106 55 162.5 100t56.5 92q0 18 -8 30.5t-21.5 20t-30 10.5t-34.5 3q-48 0 -87 -21.5t-56 -69.5h-61q26 73 82 106t130 33q26 0 52 -4.5t47 -15.5t34.5 -29.5t13.5 -47.5q0 -35 -15 -65.5t-42.5 -57.5t-65.5 -51.5t-84 -48.5l-128 -66h276l-14 -48
h-380z" />
    <glyph glyph-name="three.denominator" horiz-adv-x="487" 
d="M429 338q0 -25 -9.5 -45.5t-26 -36t-39 -24t-47.5 -9.5q30 -8 55 -27.5t25 -54.5q0 -36 -19 -63.5t-51 -46t-73 -28t-85 -9.5q-24 0 -52.5 3t-53 12.5t-41 28t-16.5 49.5q0 20 6 41h57q-3 -11 -3 -24q0 -21 11 -33.5t27.5 -18.5t36 -8t35.5 -2q34 0 64 6.5t52 19
t34.5 30.5t12.5 41q0 17 -9 28t-24 18t-34 9.5t-39 2.5h-67l14 48h59q24 0 49 5t45.5 15t33 26t12.5 39q0 27 -27 41.5t-72 14.5q-22 0 -44.5 -4t-42 -13t-35 -24t-23.5 -38h-57q11 34 32 58t48.5 39.5t59.5 22.5t65 7t61.5 -4.5t49.5 -15.5t33 -29.5t12 -46.5z" />
    <glyph glyph-name="four.denominator" horiz-adv-x="487" 
d="M399 97h-93l-27 -97h-58l29 97h-287l15 53l355 278h68l-81 -283h93zM43 145h220l64 222z" />
    <glyph glyph-name="five.denominator" horiz-adv-x="487" 
d="M393 181q0 -41 -18 -75.5t-50 -59t-75.5 -38.5t-95.5 -14q-29 0 -57 5t-49.5 16t-35 29t-13.5 44q0 14 4 30h57q-1 -5 -1 -8.5v-7.5q0 -16 9 -27t24 -18.5t34.5 -11t40.5 -3.5q34 0 64 9t52.5 26t36 41t13.5 54q0 37 -26 53t-72 16q-48 0 -88 -16t-60 -45h-55l87 248h322
l-14 -48h-269l-49 -134q32 22 67 32t77 10q28 0 53.5 -6.5t45 -20t30.5 -33.5t11 -47z" />
    <glyph glyph-name="six.denominator" horiz-adv-x="487" 
d="M389 172q0 -39 -20 -72.5t-49 -54.5q-38 -29 -78.5 -40t-87.5 -11q-33 0 -61.5 6.5t-49.5 21t-32.5 37.5t-11.5 56q0 30 8 67t24 73.5t39 69.5t52 56q35 28 77.5 40.5t91.5 12.5q25 0 49 -4t43.5 -14.5t31.5 -28t12 -44.5q0 -9 -1 -16.5t-3 -14.5h-58q2 5 2 8.5v8.5
q0 15 -7 26t-19 17.5t-27 10t-31 3.5q-42 0 -73 -9.5t-61 -35.5q-28 -23 -44.5 -52.5t-31.5 -73.5q32 31 73 48t96 17q63 0 105 -26.5t42 -81.5zM329 166q0 37 -28.5 51.5t-73.5 14.5q-36 0 -67 -8.5t-54 -24t-36 -38t-13 -49.5q0 -18 8.5 -31.5t22.5 -22.5t32 -13t38 -4
q42 0 76 11.5t59 34.5q36 33 36 79z" />
    <glyph glyph-name="seven.denominator" horiz-adv-x="487" 
d="M110 0h-69l340 379h-303l14 49h369l-14 -46z" />
    <glyph glyph-name="eight.denominator" horiz-adv-x="487" 
d="M388 138q0 -33 -17 -59.5t-48 -45t-74 -29t-94 -10.5q-36 0 -67.5 5t-55 16.5t-37 29t-13.5 42.5q0 27 10.5 49t29 39.5t43 29.5t51.5 19q-60 22 -60 71q0 30 15.5 55t43.5 44t67 29.5t86 10.5q71 0 115.5 -24t44.5 -68q0 -48 -32.5 -76t-82.5 -42q35 -10 55 -31.5
t20 -54.5zM222 246q30 0 56.5 5.5t46.5 16.5t32 27t12 36q0 30 -31.5 43t-75.5 13q-64 0 -106 -24t-42 -62q0 -14 9 -24.5t24 -17.5t34.5 -10t40.5 -3zM163 41q31 0 61.5 5.5t53.5 17t37.5 29.5t14.5 43q0 29 -32 45.5t-89 16.5q-35 0 -65.5 -7t-53 -19.5t-36 -30
t-13.5 -39.5q0 -33 35.5 -47t86.5 -14z" />
    <glyph glyph-name="nine.denominator" horiz-adv-x="487" 
d="M391 169q-17 -40 -37.5 -72t-50 -55t-70 -35.5t-95.5 -12.5q-63 0 -103 21.5t-40 73.5q0 14 3 31h59q-1 -5 -1.5 -9.5t-0.5 -9.5q0 -30 22.5 -44.5t73.5 -14.5q75 0 125.5 41t73.5 135q-35 -35 -80 -49.5t-93 -14.5q-64 0 -103.5 27t-39.5 76q0 41 18.5 72.5t48.5 54.5
q34 26 78 38t89 12q76 0 115 -31.5t39 -91.5q0 -37 -9 -73.5t-22 -68.5zM199 201q36 0 66.5 8t53 23t35 36t12.5 47q0 32 -24.5 51.5t-86.5 19.5q-35 0 -69 -11.5t-58 -33.5q-16 -15 -25.5 -33.5t-9.5 -41.5q0 -65 106 -65z" />
    <glyph glyph-name="onehalf.alt01" 
d="M363 456l62 216q-40 -21 -98 -36l12 39q29 8 54 19t54 28h41l-76 -266h-49zM123 344l11 39h460l-11 -39h-460zM121 0l10 35l113 53q40 19 67 33.5t43.5 27t23.5 25t7 27.5q0 17 -16 26t-45 9q-32 0 -57 -14t-36 -39h-49q15 43 57 66t95 23q51 0 76 -17.5t25 -45.5
q0 -20 -8 -37t-26.5 -34t-48 -34.5t-71.5 -36.5l-67 -31h182l-10 -36h-265z" />
    <glyph glyph-name="onethird.alt01" 
d="M363 456l62 216q-40 -21 -98 -36l12 39q29 8 54 19t54 28h41l-76 -266h-49zM123 344l11 39h460l-11 -39h-460zM411 94q0 -41 -40 -70.5t-120 -29.5q-110 0 -110 66q0 5 0.5 9.5t1.5 9.5h49q-1 -3 -1 -9q0 -22 21 -31t50 -9q46 0 72.5 16.5t26.5 42.5q0 30 -68 30h-50
l10 36h49q33 0 59 12t26 38q0 14 -16.5 22.5t-46.5 8.5q-34 0 -57 -11t-33 -34h-49q14 40 54.5 60.5t94.5 20.5q53 0 78.5 -15t25.5 -41q0 -29 -19 -48.5t-52 -29.5q20 -5 32 -15.5t12 -28.5z" />
    <glyph glyph-name="onequarter.alt01" 
d="M363 456l62 216q-40 -21 -98 -36l12 39q29 8 54 19t54 28h41l-76 -266h-49zM123 344l11 39h460l-11 -39h-460zM352 61l-17 -61h-48l17 61h-188l11 37l236 168h48l-48 -169h61l-11 -36h-61zM349 215l-165 -118h131z" />
    <glyph glyph-name="oneeighth.alt01" 
d="M363 456l62 216q-40 -21 -98 -36l12 39q29 8 54 19t54 28h41l-76 -266h-49zM123 344l11 39h460l-11 -39h-460zM416 91q0 -23 -12.5 -40.5t-34.5 -30.5t-52 -19.5t-64 -6.5q-50 0 -83 14.5t-33 47.5q0 32 24 52.5t59 30.5q-19 7 -28.5 17.5t-9.5 28.5t12 34t32.5 28
t48 18.5t58.5 6.5q50 0 79 -15t29 -44t-22.5 -47t-49.5 -27q47 -14 47 -48zM389 203q0 17 -19.5 25t-46.5 8q-41 0 -66.5 -14t-25.5 -34q0 -17 20.5 -25t47.5 -8q38 0 64 13t26 35zM366 83q0 17 -20.5 26.5t-56.5 9.5q-42 0 -72 -14.5t-30 -38.5q0 -19 22 -27.5t54 -8.5
q19 0 37.5 3.5t33 10t23.5 16.5t9 23z" />
    <glyph glyph-name="twothirds.alt01" 
d="M252 456l10 35l113 53q40 19 67 33.5t43.5 27t23.5 25t7 27.5q0 17 -16 26t-45 9q-32 0 -57 -14t-36 -39h-49q15 43 57 66t95 23q51 0 76 -17.5t25 -45.5q0 -20 -8 -37t-26.5 -34t-48 -34.5t-71.5 -36.5l-67 -31h182l-10 -36h-265zM123 344l11 39h460l-11 -39h-460z
M411 94q0 -41 -40 -70.5t-120 -29.5q-110 0 -110 66q0 5 0.5 9.5t1.5 9.5h49q-1 -3 -1 -9q0 -22 21 -31t50 -9q46 0 72.5 16.5t26.5 42.5q0 30 -68 30h-50l10 36h49q33 0 59 12t26 38q0 14 -16.5 22.5t-46.5 8.5q-34 0 -57 -11t-33 -34h-49q14 40 54.5 60.5t94.5 20.5
q53 0 78.5 -15t25.5 -41q0 -29 -19 -48.5t-52 -29.5q20 -5 32 -15.5t12 -28.5z" />
    <glyph glyph-name="threequarters.alt01" 
d="M540 550q0 -41 -40 -70.5t-120 -29.5q-110 0 -110 66q0 5 0.5 9.5t1.5 9.5h49q-1 -3 -1 -9q0 -22 21 -31t50 -9q46 0 72.5 16.5t26.5 42.5q0 30 -68 30h-50l10 36h49q33 0 59 12t26 38q0 14 -16.5 22.5t-46.5 8.5q-34 0 -57 -11t-33 -34h-49q14 40 54.5 60.5t94.5 20.5
q53 0 78.5 -15t25.5 -41q0 -29 -19 -48.5t-52 -29.5q20 -5 32 -15.5t12 -28.5zM123 344l11 39h460l-11 -39h-460zM352 61l-18 -61h-48l18 61h-188l10 37l236 168h48l-48 -169h61l-10 -36h-61zM348 215l-165 -118h131z" />
    <glyph glyph-name="threeeighths.alt01" 
d="M540 550q0 -41 -40 -70.5t-120 -29.5q-110 0 -110 66q0 5 0.5 9.5t1.5 9.5h49q-1 -3 -1 -9q0 -22 21 -31t50 -9q46 0 72.5 16.5t26.5 42.5q0 30 -68 30h-50l10 36h49q33 0 59 12t26 38q0 14 -16.5 22.5t-46.5 8.5q-34 0 -57 -11t-33 -34h-49q14 40 54.5 60.5t94.5 20.5
q53 0 78.5 -15t25.5 -41q0 -29 -19 -48.5t-52 -29.5q20 -5 32 -15.5t12 -28.5zM123 344l11 39h460l-11 -39h-460zM416 91q0 -23 -12.5 -40.5t-34.5 -30.5t-52 -19.5t-64 -6.5q-50 0 -83 14.5t-33 47.5q0 32 24 52.5t59 30.5q-19 7 -28.5 17.5t-9.5 28.5t12 34t32.5 28
t48 18.5t58.5 6.5q50 0 79 -15t29 -44t-22.5 -47t-49.5 -27q47 -14 47 -48zM389 203q0 17 -19.5 25t-46.5 8q-41 0 -66.5 -14t-25.5 -34q0 -17 20.5 -25t47.5 -8q38 0 64 13t26 35zM366 83q0 17 -20.5 26.5t-56.5 9.5q-42 0 -72 -14.5t-30 -38.5q0 -19 22 -27.5t54 -8.5
q19 0 37.5 3.5t33 10t23.5 16.5t9 23z" />
    <glyph glyph-name="fiveeighths.alt01" 
d="M547 571q0 -30 -14.5 -52.5t-37.5 -38t-52 -23t-59 -7.5q-21 0 -40.5 3.5t-34.5 11t-24 19.5t-9 30q0 5 2 15h48q0 -25 19 -34t48 -9q19 0 37.5 5t33.5 15t24 23.5t9 31.5q0 21 -17 31t-46 10q-30 0 -54.5 -9.5t-38.5 -27.5h-47l56 157h225l-10 -35h-179l-30 -79
q39 30 92 30q46 0 72.5 -16.5t26.5 -50.5zM123 344l11 39h460l-11 -39h-460zM416 91q0 -23 -12.5 -40.5t-34.5 -30.5t-52 -19.5t-64 -6.5q-50 0 -83 14.5t-33 47.5q0 32 24 52.5t59 30.5q-19 7 -28.5 17.5t-9.5 28.5t12 34t32.5 28t48 18.5t58.5 6.5q50 0 79 -15t29 -44
t-22.5 -47t-49.5 -27q47 -14 47 -48zM389 203q0 17 -19.5 25t-46.5 8q-41 0 -66.5 -14t-25.5 -34q0 -17 20.5 -25t47.5 -8q38 0 64 13t26 35zM366 83q0 17 -20.5 26.5t-56.5 9.5q-42 0 -72 -14.5t-30 -38.5q0 -19 22 -27.5t54 -8.5q19 0 37.5 3.5t33 10t23.5 16.5t9 23z" />
    <glyph glyph-name="seveneighths.alt01" 
d="M308 456l218 229h-198l11 37h256l-9 -32l-221 -234h-57zM123 344l11 39h460l-11 -39h-460zM416 91q0 -23 -12.5 -40.5t-34.5 -30.5t-52 -19.5t-64 -6.5q-50 0 -83 14.5t-33 47.5q0 32 24 52.5t59 30.5q-19 7 -28.5 17.5t-9.5 28.5t12 34t32.5 28t48 18.5t58.5 6.5
q50 0 79 -15t29 -44t-22.5 -47t-49.5 -27q47 -14 47 -48zM389 203q0 17 -19.5 25t-46.5 8q-41 0 -66.5 -14t-25.5 -34q0 -17 20.5 -25t47.5 -8q38 0 64 13t26 35zM366 83q0 17 -20.5 26.5t-56.5 9.5q-42 0 -72 -14.5t-30 -38.5q0 -19 22 -27.5t54 -8.5q19 0 37.5 3.5t33 10
t23.5 16.5t9 23z" />
    <glyph glyph-name="Amacron" unicode="&#x100;" horiz-adv-x="829" 
d="M657 0l-43 207h-450l-162 -207h-84l576 725h77l160 -725h-74zM520 661l-312 -397h394zM705 822h-294l13 49h295z" />
    <glyph glyph-name="amacron" unicode="&#x101;" horiz-adv-x="669" 
d="M572 394q0 -17 -3.5 -35.5t-11.5 -42.5l-70 -236q-7 -23 -11.5 -39.5t-9.5 -40.5h-64l26 91q-51 -62 -113.5 -84t-140.5 -22q-31 0 -63 6.5t-58.5 21t-43.5 38t-17 57.5q0 46 19.5 79t52 54.5t73.5 34t84.5 19t85 8t75.5 1.5h22.5t30 -0.5t30 -1t22.5 -0.5q6 21 11.5 41
t5.5 40q0 29 -12.5 46t-32.5 26t-44.5 12t-47.5 3q-27 0 -56 -4.5t-56 -15.5t-48.5 -29.5t-32.5 -45.5h-70q16 41 46 68.5t67.5 44t79.5 23.5t82 7q31 0 65 -4.5t62.5 -18t47 -38t18.5 -63.5zM471 255q-8 0 -25 0.5t-36.5 1t-36.5 0.5h-25q-22 0 -52 -1.5t-62 -6t-62.5 -14
t-54.5 -25t-39 -39t-15 -56.5q0 -25 13 -41t33 -25t44 -12.5t46 -3.5q96 0 162 42t93 127zM565 646h-294l13 49h295z" />
    <glyph glyph-name="Abreve" unicode="&#x102;" horiz-adv-x="829" 
d="M657 0l-43 207h-450l-162 -207h-84l576 725h77l160 -725h-74zM520 661l-312 -397h394zM720 895q-26 -56 -72 -85.5t-111 -29.5q-23 0 -45.5 5t-40.5 16.5t-29 30t-11 44.5v9.5t1 9.5h38q5 -35 34.5 -51t61.5 -16q45 0 78.5 17.5t56.5 49.5h39v0z" />
    <glyph glyph-name="abreve" unicode="&#x103;" horiz-adv-x="669" 
d="M572 394q0 -17 -3.5 -35.5t-11.5 -42.5l-70 -236q-7 -23 -11.5 -39.5t-9.5 -40.5h-64l26 91q-51 -62 -113.5 -84t-140.5 -22q-31 0 -63 6.5t-58.5 21t-43.5 38t-17 57.5q0 46 19.5 79t52 54.5t73.5 34t84.5 19t85 8t75.5 1.5h22.5t30 -0.5t30 -1t22.5 -0.5q6 21 11.5 41
t5.5 40q0 29 -12.5 46t-32.5 26t-44.5 12t-47.5 3q-27 0 -56 -4.5t-56 -15.5t-48.5 -29.5t-32.5 -45.5h-70q16 41 46 68.5t67.5 44t79.5 23.5t82 7q31 0 65 -4.5t62.5 -18t47 -38t18.5 -63.5zM471 255q-8 0 -25 0.5t-36.5 1t-36.5 0.5h-25q-22 0 -52 -1.5t-62 -6t-62.5 -14
t-54.5 -25t-39 -39t-15 -56.5q0 -25 13 -41t33 -25t44 -12.5t46 -3.5q96 0 162 42t93 127zM591 709q-26 -56 -72 -85.5t-111 -29.5q-23 0 -45.5 5t-40.5 16.5t-29 30t-11 44.5v9.5t1 9.5h38q5 -35 34.5 -51t61.5 -16q45 0 78.5 17.5t56.5 49.5h39v0z" />
    <glyph glyph-name="Aogonek" unicode="&#x104;" horiz-adv-x="829" 
d="M731 0q-72 -36 -106 -65t-34 -55q0 -18 18 -26.5t42 -8.5q16 0 31.5 3t30.5 8l5 -31q-24 -8 -50 -11.5t-51 -3.5q-37 0 -65 12.5t-28 39.5q0 21 14 41t36.5 38.5t50 33.5t54.5 25h-26l-43 207h-450l-162 -207h-80l576 725h77zM516 661l-312 -397h394z" />
    <glyph glyph-name="aogonek" unicode="&#x105;" horiz-adv-x="669" 
d="M466 0q-72 -36 -106 -65t-34 -55q0 -18 18 -26.5t42 -8.5q16 0 31.5 3t30.5 8l5 -31q-24 -8 -50 -11.5t-51 -3.5q-37 0 -65 12.5t-28 39.5q0 21 14 41t36.5 38.5t50 33.5t54.5 25h-12q1 5 4.5 18t8 27.5t8.5 27.5t5 18q-51 -62 -113.5 -84t-140.5 -22q-31 0 -63 6.5
t-58.5 21t-43.5 38t-17 57.5q0 46 19.5 79t52 54.5t73.5 34t84.5 19t85 8t75.5 1.5h22.5t30 -0.5t30 -1t22.5 -0.5q6 21 11.5 41t5.5 40q0 29 -12.5 46t-32.5 26t-44.5 12t-47.5 3q-27 0 -56 -4.5t-56 -15.5t-48.5 -29.5t-32.5 -45.5h-70q16 41 46 68.5t67.5 44t79.5 23.5
t82 7q31 0 65 -4.5t62.5 -18t47 -38t18.5 -63.5q0 -17 -3.5 -35.5t-11.5 -42.5l-70 -236q-7 -23 -11.5 -40t-9.5 -40zM471 255q-8 0 -25 0.5t-36.5 1t-36.5 0.5h-25q-22 0 -52 -1.5t-62 -6t-62.5 -14t-54.5 -25t-39 -39t-15 -56.5q0 -25 13 -41t33 -25t44 -12.5t46 -3.5
q96 0 162 42t93 127z" />
    <glyph glyph-name="Cacute" unicode="&#x106;" horiz-adv-x="813" 
d="M726 565q0 59 -50 87.5t-141 28.5q-85 0 -155 -30t-122 -82q-62 -63 -98 -149.5t-36 -182.5q0 -53 18 -90t49.5 -60.5t75 -34.5t94.5 -11q48 0 91.5 8t80.5 26t66 45.5t49 66.5h75q-28 -57 -67.5 -95.5t-88 -62.5t-105 -34t-119.5 -10q-59 0 -112.5 15t-93.5 46
t-63.5 78.5t-23.5 111.5q0 48 10 97.5t29.5 97.5t47.5 92t64 79q65 64 151.5 99.5t191.5 35.5q45 0 91 -8.5t83 -28.5t60 -53t23 -82h-75zM528 773h-58l136 141h93z" />
    <glyph glyph-name="cacute" unicode="&#x107;" horiz-adv-x="647" 
d="M524 347q0 25 -8 47t-25 39t-44.5 27t-67.5 10q-63 0 -115.5 -23t-92.5 -64q-39 -40 -61.5 -93t-22.5 -115q0 -36 13 -63t35 -44.5t52 -26t64 -8.5q72 0 131.5 28t91.5 95h72q-20 -48 -51.5 -80.5t-70.5 -52.5t-84 -29t-94 -9q-44 0 -85.5 11t-73.5 33.5t-52 58t-20 84.5
q0 69 29 135.5t80 114.5q49 46 110 71t149 25q42 0 79.5 -7.5t66.5 -26.5t46.5 -52.5t19.5 -84.5h-71zM382 587h-58l136 141h93z" />
    <glyph glyph-name="Ccircumflex" unicode="&#x108;" horiz-adv-x="813" 
d="M726 565q0 59 -50 87.5t-141 28.5q-85 0 -155 -30t-122 -82q-62 -63 -98 -149.5t-36 -182.5q0 -53 18 -90t49.5 -60.5t75 -34.5t94.5 -11q48 0 91.5 8t80.5 26t66 45.5t49 66.5h75q-28 -57 -67.5 -95.5t-88 -62.5t-105 -34t-119.5 -10q-59 0 -112.5 15t-93.5 46
t-63.5 78.5t-23.5 111.5q0 48 10 97.5t29.5 97.5t47.5 92t64 79q65 64 151.5 99.5t191.5 35.5q45 0 91 -8.5t83 -28.5t60 -53t23 -82h-75zM643 773l-64 110l-131 -110h-64l157 141h80l74 -141h-52z" />
    <glyph glyph-name="ccircumflex" unicode="&#x109;" horiz-adv-x="647" 
d="M524 347q0 25 -8 47t-25 39t-44.5 27t-67.5 10q-63 0 -115.5 -23t-92.5 -64q-39 -40 -61.5 -93t-22.5 -115q0 -36 13 -63t35 -44.5t52 -26t64 -8.5q72 0 131.5 28t91.5 95h72q-20 -48 -51.5 -80.5t-70.5 -52.5t-84 -29t-94 -9q-44 0 -85.5 11t-73.5 33.5t-52 58t-20 84.5
q0 69 29 135.5t80 114.5q49 46 110 71t149 25q42 0 79.5 -7.5t66.5 -26.5t46.5 -52.5t19.5 -84.5h-71zM498 587l-64 110l-131 -110h-64l157 141h80l74 -141h-52z" />
    <glyph glyph-name="Cdotaccent" unicode="&#x10a;" horiz-adv-x="813" 
d="M726 565q0 59 -50 87.5t-141 28.5q-85 0 -155 -30t-122 -82q-62 -63 -98 -149.5t-36 -182.5q0 -53 18 -90t49.5 -60.5t75 -34.5t94.5 -11q48 0 91.5 8t80.5 26t66 45.5t49 66.5h75q-28 -57 -67.5 -95.5t-88 -62.5t-105 -34t-119.5 -10q-59 0 -112.5 15t-93.5 46
t-63.5 78.5t-23.5 111.5q0 48 10 97.5t29.5 97.5t47.5 92t64 79q65 64 151.5 99.5t191.5 35.5q45 0 91 -8.5t83 -28.5t60 -53t23 -82h-75zM589 816h-66l23 81h67z" />
    <glyph glyph-name="cdotaccent" unicode="&#x10b;" horiz-adv-x="647" 
d="M524 347q0 25 -8 47t-25 39t-44.5 27t-67.5 10q-63 0 -115.5 -23t-92.5 -64q-39 -40 -61.5 -93t-22.5 -115q0 -36 13 -63t35 -44.5t52 -26t64 -8.5q72 0 131.5 28t91.5 95h72q-20 -48 -51.5 -80.5t-70.5 -52.5t-84 -29t-94 -9q-44 0 -85.5 11t-73.5 33.5t-52 58t-20 84.5
q0 69 29 135.5t80 114.5q49 46 110 71t149 25q42 0 79.5 -7.5t66.5 -26.5t46.5 -52.5t19.5 -84.5h-71zM468 721q-1 -3 -4.5 -14.5t-7.5 -25.5t-7.5 -26t-4.5 -15h-66l23 81h67v0z" />
    <glyph glyph-name="Ccaron" unicode="&#x10c;" horiz-adv-x="813" 
d="M726 565q0 59 -50 87.5t-141 28.5q-85 0 -155 -30t-122 -82q-62 -63 -98 -149.5t-36 -182.5q0 -53 18 -90t49.5 -60.5t75 -34.5t94.5 -11q48 0 91.5 8t80.5 26t66 45.5t49 66.5h75q-28 -57 -67.5 -95.5t-88 -62.5t-105 -34t-119.5 -10q-59 0 -112.5 15t-93.5 46
t-63.5 78.5t-23.5 111.5q0 48 10 97.5t29.5 97.5t47.5 92t64 79q65 64 151.5 99.5t191.5 35.5q45 0 91 -8.5t83 -28.5t60 -53t23 -82h-75zM477 914l64 -110l131 110h64l-157 -141h-80l-74 141h52z" />
    <glyph glyph-name="ccaron" unicode="&#x10d;" horiz-adv-x="647" 
d="M524 347q0 25 -8 47t-25 39t-44.5 27t-67.5 10q-63 0 -115.5 -23t-92.5 -64q-39 -40 -61.5 -93t-22.5 -115q0 -36 13 -63t35 -44.5t52 -26t64 -8.5q72 0 131.5 28t91.5 95h72q-20 -48 -51.5 -80.5t-70.5 -52.5t-84 -29t-94 -9q-44 0 -85.5 11t-73.5 33.5t-52 58t-20 84.5
q0 69 29 135.5t80 114.5q49 46 110 71t149 25q42 0 79.5 -7.5t66.5 -26.5t46.5 -52.5t19.5 -84.5h-71zM332 728l64 -110l131 110h64l-157 -141h-80l-74 141h52z" />
    <glyph glyph-name="Dcaron" unicode="&#x10e;" horiz-adv-x="862" 
d="M812 481q0 -51 -11 -102.5t-31 -99.5t-48.5 -90t-62.5 -75q-68 -64 -155.5 -89t-204.5 -25h-290l207 722h269q63 0 122 -11.5t104.5 -39t73 -74t27.5 -116.5zM739 481q0 57 -24 93t-62.5 56.5t-86 27.5t-94.5 7h-202l-174 -608h221q95 0 167.5 23.5t125.5 76.5
q30 29 53.5 68t40.5 82t26 88t9 86zM477 914l64 -110l131 110h64l-157 -141h-80l-74 141h52z" />
    <glyph glyph-name="dcaron" unicode="&#x10f;" horiz-adv-x="733" 
d="M563 118q-8 -29 -15.5 -59t-15.5 -59h-63q1 5 4.5 18.5t7 29t7.5 30.5t6 23q-49 -57 -113 -86.5t-139 -29.5q-44 0 -85 12.5t-72.5 36.5t-50.5 60.5t-19 84.5q0 79 34.5 147t91.5 114q48 38 107 58t125 20q34 0 65.5 -6t58.5 -19.5t47.5 -36t32.5 -55.5l93 321h66z
M547 330q0 39 -13.5 65.5t-36.5 43.5t-53.5 24.5t-65.5 7.5q-60 0 -113.5 -23t-93 -63t-63 -93.5t-23.5 -114.5q0 -38 14 -65.5t37.5 -45t54.5 -26t64 -8.5q61 0 114 24t92.5 64.5t62.5 95t23 114.5zM803 551h-54l75 171h77z" />
    <glyph glyph-name="Dcroat" unicode="&#x110;" horiz-adv-x="862" 
d="M812 485q0 -47 -11 -98.5t-31.5 -101t-49 -94t-62.5 -77.5q-68 -64 -155.5 -89t-204.5 -25h-290l105 365h-82l15 51h81l88 306h269q60 0 118.5 -10.5t105 -37.5t75.5 -73t29 -116zM738 481q0 57 -24 93t-62.5 56.5t-86 27.5t-94.5 7h-202l-71 -249h265l-15 -51h-265
l-88 -308h221q95 0 167.5 23.5t125.5 76.5q30 29 53.5 68t40.5 82t26 88t9 86z" />
    <glyph glyph-name="dcroat" unicode="&#x111;" horiz-adv-x="733" 
d="M711 634h83l-15 -48h-82l-134 -468q-8 -29 -15.5 -59t-15.5 -59h-63l25 101q-49 -57 -113 -86.5t-139 -29.5q-44 0 -85 12.5t-72.5 36.5t-50.5 60.5t-19 84.5q0 79 34.5 147t91.5 114q48 38 107 58t125 20q34 0 65.5 -6t58.5 -19.5t47.5 -36t32.5 -55.5l53 185h-301
l14 48h301l26 88h66zM547 330q0 39 -13.5 65.5t-36.5 43.5t-53.5 24.5t-65.5 7.5q-60 0 -113.5 -23t-93 -63t-63 -93.5t-23.5 -114.5q0 -38 14 -65.5t37.5 -45t54.5 -26t64 -8.5q61 0 114 24t92.5 64.5t62.5 95t23 114.5z" />
    <glyph glyph-name="Emacron" unicode="&#x112;" horiz-adv-x="680" 
d="M700 665h-430l-75 -260h410l-16 -57h-410l-83 -291h439l-17 -57h-509l207 722h500zM634 822h-294l13 49h295z" />
    <glyph glyph-name="emacron" unicode="&#x113;" horiz-adv-x="675" 
d="M602 345q0 -29 -5 -55t-13 -53h-493q-8 -34 -8 -66q0 -35 12 -61t34 -43t51.5 -25.5t64.5 -8.5q73 0 133 26t98 91h71q-23 -46 -55 -77.5t-71 -51t-84 -28t-93 -8.5q-44 0 -85 11.5t-73 34.5t-51.5 58.5t-19.5 82.5q0 78 32.5 143.5t84.5 112.5q49 44 108.5 67t134.5 23
q45 0 86.5 -9t72.5 -29t49.5 -53.5t18.5 -81.5zM534 341q0 37 -12.5 62t-34.5 40t-52 21t-65 6q-44 0 -85 -13.5t-75.5 -38.5t-61 -59t-41.5 -74h420q3 14 5 28t2 28zM556 646h-294l13 49h295z" />
    <glyph glyph-name="Ebreve" unicode="&#x114;" horiz-adv-x="680" 
d="M700 665h-430l-75 -260h410l-16 -57h-410l-83 -291h439l-17 -57h-509l207 722h500zM659 895q-26 -56 -72 -85.5t-111 -29.5q-23 0 -45.5 5t-40.5 16.5t-29 30t-11 44.5v9.5t1 9.5h38q5 -35 34.5 -51t61.5 -16q45 0 78.5 17.5t56.5 49.5h39v0z" />
    <glyph glyph-name="ebreve" unicode="&#x115;" horiz-adv-x="675" 
d="M602 345q0 -29 -5 -55t-13 -53h-493q-8 -34 -8 -66q0 -35 12 -61t34 -43t51.5 -25.5t64.5 -8.5q73 0 133 26t98 91h71q-23 -46 -55 -77.5t-71 -51t-84 -28t-93 -8.5q-44 0 -85 11.5t-73 34.5t-51.5 58.5t-19.5 82.5q0 78 32.5 143.5t84.5 112.5q49 44 108.5 67t134.5 23
q45 0 86.5 -9t72.5 -29t49.5 -53.5t18.5 -81.5zM534 341q0 37 -12.5 62t-34.5 40t-52 21t-65 6q-44 0 -85 -13.5t-75.5 -38.5t-61 -59t-41.5 -74h420q3 14 5 28t2 28zM582 709q-26 -56 -72 -85.5t-111 -29.5q-23 0 -45.5 5t-40.5 16.5t-29 30t-11 44.5v9.5t1 9.5h38
q5 -35 34.5 -51t61.5 -16q45 0 78.5 17.5t56.5 49.5h39v0z" />
    <glyph glyph-name="Edotaccent" unicode="&#x116;" horiz-adv-x="680" 
d="M700 665h-430l-75 -260h410l-16 -57h-410l-83 -291h439l-17 -57h-509l207 722h500zM513 816h-66l23 81h67z" />
    <glyph glyph-name="edotaccent" unicode="&#x117;" horiz-adv-x="675" 
d="M602 345q0 -29 -5 -55t-13 -53h-493q-8 -34 -8 -66q0 -35 12 -61t34 -43t51.5 -25.5t64.5 -8.5q73 0 133 26t98 91h71q-23 -46 -55 -77.5t-71 -51t-84 -28t-93 -8.5q-44 0 -85 11.5t-73 34.5t-51.5 58.5t-19.5 82.5q0 78 32.5 143.5t84.5 112.5q49 44 108.5 67t134.5 23
q45 0 86.5 -9t72.5 -29t49.5 -53.5t18.5 -81.5zM534 341q0 37 -12.5 62t-34.5 40t-52 21t-65 6q-44 0 -85 -13.5t-75.5 -38.5t-61 -59t-41.5 -74h420q3 14 5 28t2 28zM465 721q-1 -3 -4.5 -14.5t-7.5 -25.5t-7.5 -26t-4.5 -15h-66l23 81h67v0z" />
    <glyph glyph-name="Eogonek" unicode="&#x118;" horiz-adv-x="680" 
d="M518 0q-73 -38 -106.5 -66t-33.5 -54q0 -18 18 -26.5t42 -8.5q16 0 31.5 3t30.5 8l5 -31q-24 -8 -50 -11.5t-51 -3.5q-37 0 -65 12.5t-28 39.5q0 21 14 41t36.5 38.5t50 33.5t54.5 25h-457l207 722h500l-16 -57h-430l-75 -260h410l-16 -57h-410l-83 -291h439l-17 -57v0z
" />
    <glyph glyph-name="eogonek" unicode="&#x119;" horiz-adv-x="675" 
d="M602 345q0 -29 -5 -55t-13 -53h-493q-8 -34 -8 -66q0 -35 12 -61t34 -43t51.5 -25.5t64.5 -8.5q73 0 133 26t98 91h71q-20 -40 -46.5 -68.5t-59 -48t-69 -30.5t-76.5 -15q-60 -32 -87.5 -58t-27.5 -50q0 -18 18 -26.5t42 -8.5q16 0 31.5 3t30.5 8l5 -31q-24 -8 -50 -11.5
t-51 -3.5q-37 0 -65 12.5t-28 39.5q0 18 10.5 35t27.5 33t38.5 30t44.5 25q-43 1 -82.5 13t-70 35.5t-49 58t-18.5 80.5q0 78 32.5 143.5t84.5 112.5q49 44 108.5 67t134.5 23q45 0 86.5 -9t72.5 -29t49.5 -53.5t18.5 -81.5zM534 341q0 37 -12.5 62t-34.5 40t-52 21t-65 6
q-44 0 -85 -13.5t-75.5 -38.5t-61 -59t-41.5 -74h420q3 14 5 28t2 28z" />
    <glyph glyph-name="Ecaron" unicode="&#x11a;" horiz-adv-x="680" 
d="M700 665h-430l-75 -260h410l-16 -57h-410l-83 -291h439l-17 -57h-509l207 722h500zM426 914l64 -110l131 110h64l-157 -141h-80l-74 141h52z" />
    <glyph glyph-name="ecaron" unicode="&#x11b;" horiz-adv-x="675" 
d="M602 345q0 -29 -5 -55t-13 -53h-493q-8 -34 -8 -66q0 -35 12 -61t34 -43t51.5 -25.5t64.5 -8.5q73 0 133 26t98 91h71q-23 -46 -55 -77.5t-71 -51t-84 -28t-93 -8.5q-44 0 -85 11.5t-73 34.5t-51.5 58.5t-19.5 82.5q0 78 32.5 143.5t84.5 112.5q49 44 108.5 67t134.5 23
q45 0 86.5 -9t72.5 -29t49.5 -53.5t18.5 -81.5zM534 341q0 37 -12.5 62t-34.5 40t-52 21t-65 6q-44 0 -85 -13.5t-75.5 -38.5t-61 -59t-41.5 -74h420q3 14 5 28t2 28zM329 728l64 -110l131 110h64l-157 -141h-80l-74 141h52z" />
    <glyph glyph-name="Gcircumflex" unicode="&#x11c;" horiz-adv-x="871" 
d="M761 555q0 37 -21.5 61.5t-53 38.5t-68 20t-65.5 6q-96 0 -175.5 -32t-136.5 -94q-28 -30 -50 -66t-37 -76t-22.5 -81.5t-7.5 -82.5q0 -58 21 -98t56.5 -64.5t82 -35t98.5 -10.5q66 0 131.5 11.5t127.5 32.5l66 225h-228l16 56h298l-93 -324q-75 -25 -158 -41t-169 -16
q-62 0 -120 14.5t-103 46t-72.5 81.5t-27.5 121q0 46 10 94.5t29 94t46.5 87.5t62.5 77q67 66 157.5 101t197.5 35q42 0 92 -7.5t93 -27.5t72 -55.5t29 -91.5h-78zM659 773l-64 110l-131 -110h-64l157 141h80l74 -141h-52z" />
    <glyph glyph-name="gcircumflex" unicode="&#x11d;" horiz-adv-x="731" 
d="M674 503q-10 -30 -20 -60.5t-19 -61.5l-94 -324q-20 -71 -51 -121t-74 -81.5t-100 -46.5t-129 -15q-36 0 -77 4.5t-75 18t-56.5 38.5t-22.5 66q0 9 0.5 16.5t1.5 12.5h69q-1 -5 -1.5 -11t-0.5 -11q0 -26 15 -42.5t38 -26.5t52 -13.5t56 -3.5q112 0 179 44t99 138l33 96
q-47 -57 -113.5 -85t-139.5 -28q-47 0 -88 11t-71.5 34.5t-48.5 59t-18 83.5q0 78 35.5 144.5t95.5 111.5q46 34 103.5 51t121.5 17q31 0 63.5 -5.5t60.5 -19t49 -36.5t31 -57q1 5 5 17.5t9 28l10 31t9 26.5h63zM546 332q0 38 -14 64.5t-37 43t-54.5 24t-65.5 7.5
q-58 0 -110 -20.5t-91 -57.5t-62 -88.5t-23 -112.5q0 -38 14 -64.5t37 -43t54 -24t64 -7.5q50 0 94.5 14.5t81 41.5t62.5 65.5t40 86.5q5 17 7.5 35t2.5 36zM503 587l-64 110l-131 -110h-64l157 141h80l74 -141h-52z" />
    <glyph glyph-name="Gbreve" unicode="&#x11e;" horiz-adv-x="871" 
d="M761 555q0 37 -21.5 61.5t-53 38.5t-68 20t-65.5 6q-96 0 -175.5 -32t-136.5 -94q-28 -30 -50 -66t-37 -76t-22.5 -81.5t-7.5 -82.5q0 -58 21 -98t56.5 -64.5t82 -35t98.5 -10.5q66 0 131.5 11.5t127.5 32.5l66 225h-228l16 56h298l-93 -324q-75 -25 -158 -41t-169 -16
q-62 0 -120 14.5t-103 46t-72.5 81.5t-27.5 121q0 46 10 94.5t29 94t46.5 87.5t62.5 77q67 66 157.5 101t197.5 35q42 0 92 -7.5t93 -27.5t72 -55.5t29 -91.5h-78zM746 895q-26 -56 -72 -85.5t-111 -29.5q-23 0 -45.5 5t-40.5 16.5t-29 30t-11 44.5v9.5t1 9.5h38
q5 -35 34.5 -51t61.5 -16q45 0 78.5 17.5t56.5 49.5h39v0z" />
    <glyph glyph-name="gbreve" unicode="&#x11f;" horiz-adv-x="731" 
d="M674 503q-10 -30 -20 -60.5t-19 -61.5l-94 -324q-20 -71 -51 -121t-74 -81.5t-100 -46.5t-129 -15q-36 0 -77 4.5t-75 18t-56.5 38.5t-22.5 66q0 9 0.5 16.5t1.5 12.5h69q-1 -5 -1.5 -11t-0.5 -11q0 -26 15 -42.5t38 -26.5t52 -13.5t56 -3.5q112 0 179 44t99 138l33 96
q-47 -57 -113.5 -85t-139.5 -28q-47 0 -88 11t-71.5 34.5t-48.5 59t-18 83.5q0 78 35.5 144.5t95.5 111.5q46 34 103.5 51t121.5 17q31 0 63.5 -5.5t60.5 -19t49 -36.5t31 -57q1 5 5 17.5t9 28l10 31t9 26.5h63zM546 332q0 38 -14 64.5t-37 43t-54.5 24t-65.5 7.5
q-58 0 -110 -20.5t-91 -57.5t-62 -88.5t-23 -112.5q0 -38 14 -64.5t37 -43t54 -24t64 -7.5q50 0 94.5 14.5t81 41.5t62.5 65.5t40 86.5q5 17 7.5 35t2.5 36zM590 709q-26 -56 -72 -85.5t-111 -29.5q-23 0 -45.5 5t-40.5 16.5t-29 30t-11 44.5v9.5t1 9.5h38q5 -35 34.5 -51
t61.5 -16q45 0 78.5 17.5t56.5 49.5h39v0z" />
    <glyph glyph-name="Gdotaccent" unicode="&#x120;" horiz-adv-x="871" 
d="M761 555q0 37 -21.5 61.5t-53 38.5t-68 20t-65.5 6q-96 0 -175.5 -32t-136.5 -94q-28 -30 -50 -66t-37 -76t-22.5 -81.5t-7.5 -82.5q0 -58 21 -98t56.5 -64.5t82 -35t98.5 -10.5q66 0 131.5 11.5t127.5 32.5l66 225h-228l16 56h298l-93 -324q-75 -25 -158 -41t-169 -16
q-62 0 -120 14.5t-103 46t-72.5 81.5t-27.5 121q0 46 10 94.5t29 94t46.5 87.5t62.5 77q67 66 157.5 101t197.5 35q42 0 92 -7.5t93 -27.5t72 -55.5t29 -91.5h-78zM605 816h-66l23 81h67z" />
    <glyph glyph-name="gdotaccent" unicode="&#x121;" horiz-adv-x="731" 
d="M674 503q-10 -30 -20 -60.5t-19 -61.5l-94 -324q-20 -71 -51 -121t-74 -81.5t-100 -46.5t-129 -15q-36 0 -77 4.5t-75 18t-56.5 38.5t-22.5 66q0 9 0.5 16.5t1.5 12.5h69q-1 -5 -1.5 -11t-0.5 -11q0 -26 15 -42.5t38 -26.5t52 -13.5t56 -3.5q112 0 179 44t99 138l33 96
q-47 -57 -113.5 -85t-139.5 -28q-47 0 -88 11t-71.5 34.5t-48.5 59t-18 83.5q0 78 35.5 144.5t95.5 111.5q46 34 103.5 51t121.5 17q31 0 63.5 -5.5t60.5 -19t49 -36.5t31 -57q1 5 5 17.5t9 28l10 31t9 26.5h63zM546 332q0 38 -14 64.5t-37 43t-54.5 24t-65.5 7.5
q-58 0 -110 -20.5t-91 -57.5t-62 -88.5t-23 -112.5q0 -38 14 -64.5t37 -43t54 -24t64 -7.5q50 0 94.5 14.5t81 41.5t62.5 65.5t40 86.5q5 17 7.5 35t2.5 36zM473 721q-1 -3 -4.5 -14.5t-7.5 -25.5t-7.5 -26t-4.5 -15h-66l23 81h67v0z" />
    <glyph glyph-name="Gcommaaccent" unicode="&#x122;" horiz-adv-x="871" 
d="M761 555q0 37 -21.5 61.5t-53 38.5t-68 20t-65.5 6q-96 0 -175.5 -32t-136.5 -94q-28 -30 -50 -66t-37 -76t-22.5 -81.5t-7.5 -82.5q0 -58 21 -98t56.5 -64.5t82 -35t98.5 -10.5q66 0 131.5 11.5t127.5 32.5l66 225h-228l16 56h298l-93 -324q-75 -25 -158 -41t-169 -16
q-62 0 -120 14.5t-103 46t-72.5 81.5t-27.5 121q0 46 10 94.5t29 94t46.5 87.5t62.5 77q67 66 157.5 101t197.5 35q42 0 92 -7.5t93 -27.5t72 -55.5t29 -91.5h-78zM314 -200h-52l80 149h77z" />
    <glyph glyph-name="gcommaaccent" unicode="&#x123;" horiz-adv-x="731" 
d="M674 503q-10 -30 -20 -60.5t-19 -61.5l-94 -324q-20 -71 -51 -121t-74 -81.5t-100 -46.5t-129 -15q-36 0 -77 4.5t-75 18t-56.5 38.5t-22.5 66q0 9 0.5 16.5t1.5 12.5h69q-1 -5 -1.5 -11t-0.5 -11q0 -26 15 -42.5t38 -26.5t52 -13.5t56 -3.5q112 0 179 44t99 138l33 96
q-47 -57 -113.5 -85t-139.5 -28q-47 0 -88 11t-71.5 34.5t-48.5 59t-18 83.5q0 78 35.5 144.5t95.5 111.5q46 34 103.5 51t121.5 17q31 0 63.5 -5.5t60.5 -19t49 -36.5t31 -57q1 5 5 17.5t9 28l10 31t9 26.5h63zM546 332q0 38 -14 64.5t-37 43t-54.5 24t-65.5 7.5
q-58 0 -110 -20.5t-91 -57.5t-62 -88.5t-23 -112.5q0 -38 14 -64.5t37 -43t54 -24t64 -7.5q50 0 94.5 14.5t81 41.5t62.5 65.5t40 86.5q5 17 7.5 35t2.5 36zM455 728h53l-76 -141h-76z" />
    <glyph glyph-name="Hcircumflex" unicode="&#x124;" horiz-adv-x="865" 
d="M649 0h-70l99 348h-499l-100 -348h-70l207 722h70l-91 -317h500l91 317h70zM652 773l-64 110l-131 -110h-64l157 141h80l74 -141h-52z" />
    <glyph glyph-name="hcircumflex" unicode="&#x125;" horiz-adv-x="691" 
d="M594 380q0 -26 -5 -48t-13 -51l-80 -281h-66l79 280q8 29 12 48.5t4 38.5q0 29 -10 49t-27 32t-40 17t-49 5q-50 0 -92.5 -16.5t-76.5 -45.5t-58.5 -68.5t-37.5 -84.5l-73 -255h-66l207 722h66l-94 -326q44 61 105 91.5t131 30.5q36 0 69 -7t58.5 -23t41 -42.5
t15.5 -65.5zM347 773l-64 110l-131 -110h-64l157 141h80l74 -141h-52z" />
    <glyph glyph-name="Hbar" unicode="&#x126;" horiz-adv-x="865" 
d="M233 538h500l53 184h70l-207 -722h-70l99 348h-499l-100 -348h-70l207 722h70zM217 482l-22 -77h500l22 77h-500z" />
    <glyph glyph-name="hbar" unicode="&#x127;" horiz-adv-x="691" 
d="M594 380q0 -27 -5.5 -51t-12.5 -48l-80 -281h-66l79 280q6 22 11 43t5 44q0 29 -10 49t-27 32t-40 17t-49 5q-50 0 -92.5 -16.5t-76.5 -45.5t-58.5 -68.5t-37.5 -84.5l-73 -255h-66l168 586h-94l14 48h94l25 88h66l-25 -88h291l-15 -48h-290l-55 -190q44 61 105 91.5
t131 30.5q36 0 69 -7t58.5 -23t41 -42.5t15.5 -65.5z" />
    <glyph glyph-name="Itilde" unicode="&#x128;" horiz-adv-x="296" 
d="M79 0h-70l208 722h70zM449 898q-14 -37 -40.5 -62.5t-68.5 -25.5q-17 0 -34 5t-33.5 11.5t-32.5 11.5t-29 5q-19 0 -32 -11.5t-21 -26.5h-42q6 17 16 33.5t23 29t30 20t37 7.5q16 0 33.5 -6t34 -12.5t32 -12.5t26.5 -6q20 0 34.5 11.5t23.5 28.5h43v0z" />
    <glyph glyph-name="itilde" unicode="&#x129;" horiz-adv-x="261" 
d="M62 0h-67l144 503h67zM378 712q-14 -37 -40.5 -62.5t-68.5 -25.5q-17 0 -34 5t-33.5 11.5t-32.5 11.5t-29 5q-19 0 -32 -11.5t-21 -26.5h-42q6 17 16 33.5t23 29t30 20t37 7.5q16 0 33.5 -6t34 -12.5t32 -12.5t26.5 -6q20 0 34.5 11.5t23.5 28.5h43v0z" />
    <glyph glyph-name="Imacron" unicode="&#x12a;" horiz-adv-x="296" 
d="M79 0h-70l208 722h70zM425 822h-294l13 49h295z" />
    <glyph glyph-name="imacron" unicode="&#x12b;" horiz-adv-x="261" 
d="M62 0h-67l144 503h67zM362 646h-294l13 49h295z" />
    <glyph glyph-name="Ibreve" unicode="&#x12c;" horiz-adv-x="296" 
d="M79 0h-70l208 722h70zM449 895q-26 -56 -72 -85.5t-111 -29.5q-23 0 -45.5 5t-40.5 16.5t-29 30t-11 44.5v9.5t1 9.5h38q5 -35 34.5 -51t61.5 -16q45 0 78.5 17.5t56.5 49.5h39v0z" />
    <glyph glyph-name="ibreve" unicode="&#x12d;" horiz-adv-x="261" 
d="M62 0h-67l144 503h67zM378 709q-26 -56 -72 -85.5t-111 -29.5q-23 0 -45.5 5t-40.5 16.5t-29 30t-11 44.5v9.5t1 9.5h38q5 -35 34.5 -51t61.5 -16q45 0 78.5 17.5t56.5 49.5h39v0z" />
    <glyph glyph-name="Iogonek" unicode="&#x12e;" horiz-adv-x="296" 
d="M79 0q-72 -36 -106 -65t-34 -55q0 -18 18 -26.5t42 -8.5q16 0 31.5 3t30.5 8l5 -31q-24 -8 -50 -11.5t-51 -3.5q-37 0 -65 12.5t-28 39.5q0 21 14.5 41t37 38.5t50 33.5t53.5 25h-18l208 722h70l-208 -722v0z" />
    <glyph glyph-name="iogonek" unicode="&#x12f;" horiz-adv-x="261" 
d="M61 0q-72 -36 -106 -65t-34 -55q0 -18 18 -26.5t42 -8.5q16 0 31.5 3t30.5 8l5 -31q-24 -8 -50 -11.5t-51 -3.5q-37 0 -65 12.5t-28 39.5q0 21 14.5 41t37 38.5t50 33.5t53.5 25h-14l144 503h67zM244 640h-66l24 82h66z" />
    <glyph glyph-name="Idotaccent" unicode="&#x130;" horiz-adv-x="296" 
d="M79 0h-70l208 722h70zM309 816h-66l23 81h67z" />
    <glyph glyph-name="dotlessi" unicode="&#x131;" horiz-adv-x="261" 
d="M62 0h-67l144 503h67z" />
    <glyph glyph-name="Jcircumflex" unicode="&#x134;" horiz-adv-x="672" 
d="M540 253q-40 -139 -125.5 -203.5t-221.5 -64.5q-36 0 -74.5 7t-70 24.5t-52 46t-20.5 71.5q0 14 1 27.5t5 27.5h73q-5 -22 -5 -43q0 -32 14 -52.5t35.5 -32t48.5 -16t54 -4.5q108 0 174.5 59t95.5 160l132 462h70zM742 773l-64 110l-131 -110h-64l157 141h80l74 -141h-52
z" />
    <glyph glyph-name="jcircumflex" unicode="&#x135;" horiz-adv-x="261" 
d="M40 -73q-10 -36 -24.5 -60.5t-35.5 -40t-49 -22t-64 -6.5q-16 0 -33.5 0.5t-33.5 3.5l15 51q25 -3 52 -3q28 0 46.5 6t31 18.5t20.5 31.5t15 44l158 553h67zM291 587l-64 110l-131 -110h-64l157 141h80l74 -141h-52z" />
    <glyph glyph-name="Kcommaaccent" unicode="&#x136;" horiz-adv-x="751" 
d="M285 383l350 -383h-90l-348 390l520 332h102zM79 0h-70l207 722h70zM226 -200h-52l80 149h77z" />
    <glyph glyph-name="kcommaaccent" unicode="&#x137;" horiz-adv-x="599" 
d="M228 285l259 -285h-85l-253 292l351 211h101zM62 0h-67l207 722h67zM175 -200h-52l80 149h77z" />
    <glyph glyph-name="kgreenlandic" unicode="&#x138;" horiz-adv-x="599" 
d="M228 285l259 -285h-85l-253 292l351 211h101zM62 0h-67l144 503h67z" />
    <glyph glyph-name="Lacute" unicode="&#x139;" horiz-adv-x="618" 
d="M495 0h-486l207 722h70l-190 -665h416zM285 773h-58l136 141h93z" />
    <glyph glyph-name="lacute" unicode="&#x13a;" horiz-adv-x="261" 
d="M61 0h-66l207 722h66zM231 763h-58l136 141h93z" />
    <glyph glyph-name="Lcommaaccent" unicode="&#x13b;" horiz-adv-x="618" 
d="M495 0h-486l207 722h70l-190 -665h416zM193 -200h-52l80 149h77z" />
    <glyph glyph-name="lcommaaccent" unicode="&#x13c;" horiz-adv-x="261" 
d="M61 0h-66l207 722h66zM-46 -200h-52l80 149h77z" />
    <glyph glyph-name="Lcaron" unicode="&#x13d;" horiz-adv-x="618" 
d="M495 0h-486l207 722h70l-190 -665h416zM392 551h-54l75 171h77z" />
    <glyph glyph-name="lcaron" unicode="&#x13e;" horiz-adv-x="261" 
d="M61 0h-66l207 722h66zM332 551h-54l75 171h77z" />
    <glyph glyph-name="Ldot" unicode="&#x13f;" horiz-adv-x="618" 
d="M495 0h-486l207 722h70l-190 -665h416zM394 326h-66l23 81h67z" />
    <glyph glyph-name="ldot" unicode="&#x140;" horiz-adv-x="261" 
d="M61 0h-66l207 722h66zM309 418q-1 -3 -4.5 -14.5t-7.5 -25.5t-7.5 -26t-4.5 -15h-66l23 81h67v0z" />
    <glyph glyph-name="Lslash" unicode="&#x141;" horiz-adv-x="617" 
d="M495 0h-486l80 277l-110 -51l17 57l109 51l111 388h70l-100 -347l283 132l-16 -58l-283 -132l-74 -260h416z" />
    <glyph glyph-name="lslash" unicode="&#x142;" horiz-adv-x="256" 
d="M261 425l-94 -47l-108 -378h-67l97 338l-95 -46l15 52l95 47l95 331h67l-84 -292l94 46z" />
    <glyph glyph-name="Nacute" unicode="&#x143;" horiz-adv-x="885" 
d="M669 0h-95l-308 663l-190 -663h-67l207 722h95l309 -663l189 663h67zM527 773h-58l136 141h93z" />
    <glyph glyph-name="nacute" unicode="&#x144;" horiz-adv-x="691" 
d="M594 376q0 -26 -5 -48.5t-12 -45.5l-81 -282h-66l80 281q7 24 11 44.5t4 40.5q0 29 -10 49t-27 32t-40 17.5t-49 5.5q-50 0 -92.5 -16.5t-76.5 -45.5t-58.5 -68t-37.5 -85l-73 -255h-66l109 383q9 32 17 61.5t15 58.5h63l-28 -108q45 59 104 91t139 32q36 0 68.5 -7.5
t57 -24t39.5 -44t15 -66.5zM406 587h-58l136 141h93z" />
    <glyph glyph-name="Ncommaaccent" unicode="&#x145;" horiz-adv-x="885" 
d="M669 0h-95l-308 663l-190 -663h-67l207 722h95l309 -663l189 663h67zM254 -200h-52l80 149h77z" />
    <glyph glyph-name="ncommaaccent" unicode="&#x146;" horiz-adv-x="691" 
d="M594 376q0 -26 -5 -48.5t-12 -45.5l-81 -282h-66l80 281q7 24 11 44.5t4 40.5q0 29 -10 49t-27 32t-40 17.5t-49 5.5q-50 0 -92.5 -16.5t-76.5 -45.5t-58.5 -68t-37.5 -85l-73 -255h-66l109 383q9 32 17 61.5t15 58.5h63l-28 -108q45 59 104 91t139 32q36 0 68.5 -7.5
t57 -24t39.5 -44t15 -66.5zM200 -200h-52l80 149h77z" />
    <glyph glyph-name="Ncaron" unicode="&#x147;" horiz-adv-x="885" 
d="M669 0h-95l-308 663l-190 -663h-67l207 722h95l309 -663l189 663h67zM476 914l64 -110l131 110h64l-157 -141h-80l-74 141h52z" />
    <glyph glyph-name="ncaron" unicode="&#x148;" horiz-adv-x="691" 
d="M594 376q0 -26 -5 -48.5t-12 -45.5l-81 -282h-66l80 281q7 24 11 44.5t4 40.5q0 29 -10 49t-27 32t-40 17.5t-49 5.5q-50 0 -92.5 -16.5t-76.5 -45.5t-58.5 -68t-37.5 -85l-73 -255h-66l109 383q9 32 17 61.5t15 58.5h63l-28 -108q45 59 104 91t139 32q36 0 68.5 -7.5
t57 -24t39.5 -44t15 -66.5zM346 728l64 -110l131 110h64l-157 -141h-80l-74 141h52z" />
    <glyph glyph-name="Eng" unicode="&#x14a;" horiz-adv-x="885" 
d="M648 -73q-20 -71 -68 -100t-114 -29q-16 0 -38.5 1.5t-38.5 4.5l16 55q13 -2 29 -4t30 -2q54 0 82 23t42 74l14 48l-336 665l-190 -663h-67l207 722h95l319 -629l179 629h67z" />
    <glyph glyph-name="eng" unicode="&#x14b;" horiz-adv-x="691" 
d="M594 376q0 -26 -5 -48.5t-12 -45.5l-102 -355q-10 -36 -24.5 -60.5t-35.5 -40t-49 -22t-64 -6.5q-16 0 -33.5 0.5t-33.5 3.5l15 51q25 -3 52 -3q28 0 46.5 6t31 18.5t20.5 31.5t15 44l95 331q8 30 11.5 48.5t3.5 36.5q0 29 -10 49t-27 32t-40 17.5t-49 5.5
q-50 0 -92.5 -16.5t-76.5 -45.5t-58.5 -68t-37.5 -85l-73 -255h-66l109 383q9 32 17 61.5t15 58.5h63l-28 -108q45 59 104 91t139 32q36 0 68.5 -7.5t57 -24t39.5 -44t15 -66.5z" />
    <glyph glyph-name="Omacron" unicode="&#x14c;" horiz-adv-x="909" 
d="M859 471q0 -107 -38 -200t-107 -159q-63 -61 -148 -94t-189 -33q-67 0 -126.5 15.5t-104 48t-70.5 82.5t-26 118q0 53 12 105t34 100t53.5 90t70.5 77q64 56 145.5 86t175.5 30q61 0 118.5 -16t102 -49t71 -83t26.5 -118zM785 467q0 55 -20.5 95t-55 66.5t-80.5 39.5
t-96 13q-80 0 -147.5 -26.5t-120.5 -75.5q-66 -61 -103.5 -144.5t-37.5 -179.5q0 -58 20 -99t55 -66.5t83 -37t104 -11.5q84 0 152.5 29t120.5 81q60 60 93 142t33 174zM704 822h-294l13 49h295z" />
    <glyph glyph-name="omacron" unicode="&#x14d;" horiz-adv-x="704" 
d="M628 328q0 -73 -25.5 -135t-71.5 -107q-48 -47 -115 -74t-148 -27q-44 0 -89 10.5t-81.5 33.5t-59.5 60t-23 90q0 66 28.5 131.5t78.5 112.5q53 50 116.5 72.5t138.5 22.5q48 0 93 -10.5t80.5 -33t56.5 -59t21 -87.5zM558 324q0 39 -15 67t-40.5 45.5t-58 25.5t-66.5 8
q-60 0 -116 -22.5t-98 -67.5q-37 -39 -58 -92.5t-21 -106.5q0 -39 15 -67t40 -46t57.5 -26.5t67.5 -8.5q71 0 123 23.5t86 56.5q39 39 61.5 94t22.5 117zM560 646h-294l13 49h295z" />
    <glyph glyph-name="Obreve" unicode="&#x14e;" horiz-adv-x="909" 
d="M859 471q0 -107 -38 -200t-107 -159q-63 -61 -148 -94t-189 -33q-67 0 -126.5 15.5t-104 48t-70.5 82.5t-26 118q0 53 12 105t34 100t53.5 90t70.5 77q64 56 145.5 86t175.5 30q61 0 118.5 -16t102 -49t71 -83t26.5 -118zM785 467q0 55 -20.5 95t-55 66.5t-80.5 39.5
t-96 13q-80 0 -147.5 -26.5t-120.5 -75.5q-66 -61 -103.5 -144.5t-37.5 -179.5q0 -58 20 -99t55 -66.5t83 -37t104 -11.5q84 0 152.5 29t120.5 81q60 60 93 142t33 174zM729 895q-26 -56 -72 -85.5t-111 -29.5q-23 0 -45.5 5t-40.5 16.5t-29 30t-11 44.5v9.5t1 9.5h38
q5 -35 34.5 -51t61.5 -16q45 0 78.5 17.5t56.5 49.5h39v0z" />
    <glyph glyph-name="obreve" unicode="&#x14f;" horiz-adv-x="704" 
d="M628 328q0 -73 -25.5 -135t-71.5 -107q-48 -47 -115 -74t-148 -27q-44 0 -89 10.5t-81.5 33.5t-59.5 60t-23 90q0 66 28.5 131.5t78.5 112.5q53 50 116.5 72.5t138.5 22.5q48 0 93 -10.5t80.5 -33t56.5 -59t21 -87.5zM558 324q0 39 -15 67t-40.5 45.5t-58 25.5t-66.5 8
q-60 0 -116 -22.5t-98 -67.5q-37 -39 -58 -92.5t-21 -106.5q0 -39 15 -67t40 -46t57.5 -26.5t67.5 -8.5q71 0 123 23.5t86 56.5q39 39 61.5 94t22.5 117zM586 709q-26 -56 -72 -85.5t-111 -29.5q-23 0 -45.5 5t-40.5 16.5t-29 30t-11 44.5v9.5t1 9.5h38q5 -35 34.5 -51
t61.5 -16q45 0 78.5 17.5t56.5 49.5h39v0z" />
    <glyph glyph-name="Ohungarumlaut" unicode="&#x150;" horiz-adv-x="909" 
d="M859 471q0 -107 -38 -200t-107 -159q-63 -61 -148 -94t-189 -33q-67 0 -126.5 15.5t-104 48t-70.5 82.5t-26 118q0 53 12 105t34 100t53.5 90t70.5 77q64 56 145.5 86t175.5 30q61 0 118.5 -16t102 -49t71 -83t26.5 -118zM785 467q0 55 -20.5 95t-55 66.5t-80.5 39.5
t-96 13q-80 0 -147.5 -26.5t-120.5 -75.5q-66 -61 -103.5 -144.5t-37.5 -179.5q0 -58 20 -99t55 -66.5t83 -37t104 -11.5q84 0 152.5 29t120.5 81q60 60 93 142t33 174zM646 773h-55l145 141h84zM477 773h-54l144 141h84z" />
    <glyph glyph-name="ohungarumlaut" unicode="&#x151;" horiz-adv-x="704" 
d="M628 328q0 -73 -25.5 -135t-71.5 -107q-48 -47 -115 -74t-148 -27q-44 0 -89 10.5t-81.5 33.5t-59.5 60t-23 90q0 66 28.5 131.5t78.5 112.5q53 50 116.5 72.5t138.5 22.5q48 0 93 -10.5t80.5 -33t56.5 -59t21 -87.5zM558 324q0 39 -15 67t-40.5 45.5t-58 25.5t-66.5 8
q-60 0 -116 -22.5t-98 -67.5q-37 -39 -58 -92.5t-21 -106.5q0 -39 15 -67t40 -46t57.5 -26.5t67.5 -8.5q71 0 123 23.5t86 56.5q39 39 61.5 94t22.5 117zM494 587h-55l145 141h84zM325 587h-54l144 141h84z" />
    <glyph glyph-name="Racute" unicode="&#x154;" horiz-adv-x="787" 
d="M755 582q0 -47 -17 -84.5t-46 -65t-68.5 -44.5t-84.5 -21q48 -6 72.5 -33.5t24.5 -80.5q0 -26 -4 -51t-9 -51.5t-9 -53.5t-4 -56q0 -10 1 -21t5 -20h-75q-2 5 -3 13t-1 16q0 28 4 56.5t9 56.5t9 56.5t4 56.5q0 45 -27 65t-93 20h-267l-97 -340h-70l207 722h313
q40 0 80 -5.5t72.5 -21t53 -43t20.5 -70.5zM681 576q0 49 -45 69t-118 20h-248l-77 -268h252q55 0 103.5 12.5t82.5 45.5q23 23 36.5 54t13.5 67zM506 773h-58l136 141h93z" />
    <glyph glyph-name="racute" unicode="&#x155;" horiz-adv-x="411" 
d="M413 449q-10 3 -20 4t-21 1q-49 0 -87 -13.5t-66.5 -39t-49 -61.5t-33.5 -81l-75 -259h-66l113 395q8 27 14.5 54t13.5 54h63l-27 -102q44 56 95.5 83.5t122.5 27.5q10 0 22.5 -0.5t18.5 -1.5zM291 587h-58l136 141h93z" />
    <glyph glyph-name="Rcommaaccent" unicode="&#x156;" horiz-adv-x="787" 
d="M755 582q0 -47 -17 -84.5t-46 -65t-68.5 -44.5t-84.5 -21q48 -6 72.5 -33.5t24.5 -80.5q0 -26 -4 -51t-9 -51.5t-9 -53.5t-4 -56q0 -10 1 -21t5 -20h-75q-2 5 -3 13t-1 16q0 28 4 56.5t9 56.5t9 56.5t4 56.5q0 45 -27 65t-93 20h-267l-97 -340h-70l207 722h313
q40 0 80 -5.5t72.5 -21t53 -43t20.5 -70.5zM681 576q0 49 -45 69t-118 20h-248l-77 -268h252q55 0 103.5 12.5t82.5 45.5q23 23 36.5 54t13.5 67zM257 -200h-52l80 149h77z" />
    <glyph glyph-name="rcommaaccent" unicode="&#x157;" horiz-adv-x="411" 
d="M413 449q-10 3 -20 4t-21 1q-49 0 -87 -13.5t-66.5 -39t-49 -61.5t-33.5 -81l-75 -259h-66l113 395q8 27 14.5 54t13.5 54h63l-27 -102q44 56 95.5 83.5t122.5 27.5q10 0 22.5 -0.5t18.5 -1.5zM-45 -200h-52l80 149h77z" />
    <glyph glyph-name="Rcaron" unicode="&#x158;" horiz-adv-x="787" 
d="M755 582q0 -47 -17 -84.5t-46 -65t-68.5 -44.5t-84.5 -21q48 -6 72.5 -33.5t24.5 -80.5q0 -26 -4 -51t-9 -51.5t-9 -53.5t-4 -56q0 -10 1 -21t5 -20h-75q-2 5 -3 13t-1 16q0 28 4 56.5t9 56.5t9 56.5t4 56.5q0 45 -27 65t-93 20h-267l-97 -340h-70l207 722h313
q40 0 80 -5.5t72.5 -21t53 -43t20.5 -70.5zM681 576q0 49 -45 69t-118 20h-248l-77 -268h252q55 0 103.5 12.5t82.5 45.5q23 23 36.5 54t13.5 67zM425 914l64 -110l131 110h64l-157 -141h-80l-74 141h52z" />
    <glyph glyph-name="rcaron" unicode="&#x159;" horiz-adv-x="411" 
d="M413 449q-10 3 -20 4t-21 1q-49 0 -87 -13.5t-66.5 -39t-49 -61.5t-33.5 -81l-75 -259h-66l113 395q8 27 14.5 54t13.5 54h63l-27 -102q44 56 95.5 83.5t122.5 27.5q10 0 22.5 -0.5t18.5 -1.5zM231 728l64 -110l131 110h64l-157 -141h-80l-74 141h52z" />
    <glyph glyph-name="Sacute" unicode="&#x15a;" horiz-adv-x="751" 
d="M729 589q0 -10 -0.5 -20.5t-1.5 -17.5h-72q1 6 1.5 12.5t0.5 12.5q0 35 -19 56t-49 32t-66 14t-70 3q-38 0 -83.5 -7t-85 -25t-66.5 -49.5t-27 -80.5q0 -19 9 -34t24.5 -26.5t35.5 -20t43 -14.5l181 -47q35 -9 66 -20.5t54.5 -28.5t37 -41t13.5 -57q0 -74 -36 -121
t-91 -75t-120.5 -38.5t-125.5 -10.5q-44 0 -92 5.5t-88.5 23t-67 49.5t-26.5 86q0 27 4 50h73q-5 -20 -5 -37q0 -39 16 -62.5t43.5 -36.5t65 -17.5t81.5 -4.5q45 0 96.5 7.5t95.5 27t73.5 54t29.5 89.5q0 24 -11.5 40.5t-29 27.5t-38.5 17.5t-39 11.5l-173 45
q-27 7 -57.5 17.5t-56 28t-42 42.5t-16.5 62q0 45 17 79t44.5 59t63.5 42t74 27t75 14.5t67 4.5q37 0 83.5 -5t88 -20.5t70 -44.5t28.5 -78zM454 773h-58l136 141h93z" />
    <glyph glyph-name="sacute" unicode="&#x15b;" horiz-adv-x="587" 
d="M526 405q0 -8 -0.5 -15.5t-2.5 -15.5h-69q2 10 2 18q0 26 -13.5 41.5t-33.5 23.5t-43.5 10.5t-43.5 2.5q-26 0 -58.5 -4.5t-61.5 -16.5t-48.5 -32.5t-19.5 -51.5q0 -32 29.5 -47t69.5 -24l123 -29q22 -5 44 -13.5t39 -20.5t27.5 -29t10.5 -39q0 -56 -29 -91t-72 -54.5
t-94 -26t-94 -6.5q-33 0 -69.5 4.5t-67 18t-50.5 38.5t-20 65q0 10 0.5 17.5t1.5 13.5h70q-1 -6 -1.5 -11.5t-0.5 -11.5q0 -29 15 -46t37.5 -26t49 -11.5t48.5 -2.5q30 0 65.5 5t65.5 17.5t50.5 34t20.5 54.5q0 15 -8.5 27t-22.5 21t-31.5 15t-35.5 10l-129 29
q-23 5 -43 13.5t-36 21t-25 29.5t-9 38q0 51 26.5 84t66.5 52t86.5 26.5t86.5 7.5q29 0 63.5 -4.5t64 -16.5t49.5 -34t20 -58zM331 587h-58l136 141h93z" />
    <glyph glyph-name="Scircumflex" unicode="&#x15c;" horiz-adv-x="751" 
d="M729 589q0 -10 -0.5 -20.5t-1.5 -17.5h-72q1 6 1.5 12.5t0.5 12.5q0 35 -19 56t-49 32t-66 14t-70 3q-38 0 -83.5 -7t-85 -25t-66.5 -49.5t-27 -80.5q0 -19 9 -34t24.5 -26.5t35.5 -20t43 -14.5l181 -47q35 -9 66 -20.5t54.5 -28.5t37 -41t13.5 -57q0 -74 -36 -121
t-91 -75t-120.5 -38.5t-125.5 -10.5q-44 0 -92 5.5t-88.5 23t-67 49.5t-26.5 86q0 27 4 50h73q-5 -20 -5 -37q0 -39 16 -62.5t43.5 -36.5t65 -17.5t81.5 -4.5q45 0 96.5 7.5t95.5 27t73.5 54t29.5 89.5q0 24 -11.5 40.5t-29 27.5t-38.5 17.5t-39 11.5l-173 45
q-27 7 -57.5 17.5t-56 28t-42 42.5t-16.5 62q0 45 17 79t44.5 59t63.5 42t74 27t75 14.5t67 4.5q37 0 83.5 -5t88 -20.5t70 -44.5t28.5 -78zM569 773l-64 110l-131 -110h-64l157 141h80l74 -141h-52z" />
    <glyph glyph-name="scircumflex" unicode="&#x15d;" horiz-adv-x="587" 
d="M526 405q0 -8 -0.5 -15.5t-2.5 -15.5h-69q2 10 2 18q0 26 -13.5 41.5t-33.5 23.5t-43.5 10.5t-43.5 2.5q-26 0 -58.5 -4.5t-61.5 -16.5t-48.5 -32.5t-19.5 -51.5q0 -32 29.5 -47t69.5 -24l123 -29q22 -5 44 -13.5t39 -20.5t27.5 -29t10.5 -39q0 -56 -29 -91t-72 -54.5
t-94 -26t-94 -6.5q-33 0 -69.5 4.5t-67 18t-50.5 38.5t-20 65q0 10 0.5 17.5t1.5 13.5h70q-1 -6 -1.5 -11.5t-0.5 -11.5q0 -29 15 -46t37.5 -26t49 -11.5t48.5 -2.5q30 0 65.5 5t65.5 17.5t50.5 34t20.5 54.5q0 15 -8.5 27t-22.5 21t-31.5 15t-35.5 10l-129 29
q-23 5 -43 13.5t-36 21t-25 29.5t-9 38q0 51 26.5 84t66.5 52t86.5 26.5t86.5 7.5q29 0 63.5 -4.5t64 -16.5t49.5 -34t20 -58zM447 587l-64 110l-131 -110h-64l157 141h80l74 -141h-52z" />
    <glyph glyph-name="Scedilla" unicode="&#x15e;" horiz-adv-x="751" 
d="M354 -104q0 -24 -12 -40.5t-31 -27.5t-42 -16t-45 -5q-26 0 -53.5 6t-50.5 17l19 30q21 -8 39.5 -13.5t41.5 -5.5q28 0 50.5 12.5t22.5 35.5q0 26 -48 26q-10 0 -19 -2t-17 -4l-7 18l46 59q-42 1 -84.5 8.5t-77 25.5t-56.5 49t-22 80q0 27 4 50h73q-5 -20 -5 -37
q0 -39 16 -62.5t43.5 -36.5t65 -17.5t81.5 -4.5q45 0 96.5 7.5t95.5 27t73.5 54t29.5 89.5q0 24 -11.5 40.5t-29 27.5t-38.5 17.5t-39 11.5l-173 45q-27 7 -57.5 17.5t-56 28t-42 42.5t-16.5 62q0 45 17 79t44.5 59t63.5 42t74 27t75 14.5t67 4.5q37 0 83.5 -5t88 -20.5
t70 -44.5t28.5 -78q0 -10 -0.5 -20.5t-1.5 -17.5h-72q1 6 1.5 12.5t0.5 12.5q0 35 -19 56t-49 32t-66 14t-70 3q-38 0 -83.5 -7t-85 -25t-66.5 -49.5t-27 -80.5q0 -19 9 -34t24.5 -26.5t35.5 -20t43 -14.5l181 -47q35 -9 66 -20.5t54.5 -28.5t37 -41t13.5 -57
q0 -73 -35.5 -120.5t-90 -75t-120 -38.5t-124.5 -11l-36 -44q11 2 18.5 2.5t15.5 0.5q28 0 49.5 -11t21.5 -37z" />
    <glyph glyph-name="scedilla" unicode="&#x15f;" horiz-adv-x="587" 
d="M270 -104q0 -24 -12 -40.5t-31 -27.5t-42 -16t-45 -5q-26 0 -53.5 6t-50.5 17l19 30q21 -8 39.5 -13.5t41.5 -5.5q28 0 50.5 12.5t22.5 35.5q0 26 -48 26q-10 0 -19 -2t-17 -4l-7 18l46 59q-32 1 -64.5 7t-59 20t-43 37.5t-16.5 60.5q0 10 0.5 17.5t1.5 13.5h70
q-1 -6 -1.5 -11.5t-0.5 -11.5q0 -29 15 -46t37.5 -26t49 -11.5t48.5 -2.5q30 0 65.5 5t65.5 17.5t50.5 34t20.5 54.5q0 15 -8.5 27t-22.5 21t-31.5 15t-35.5 10l-129 29q-23 5 -43 13.5t-36 21t-25 29.5t-9 38q0 51 26.5 84t66.5 52t86.5 26.5t86.5 7.5q29 0 63.5 -4.5
t64 -16.5t49.5 -34t20 -58q0 -8 -0.5 -15.5t-2.5 -15.5h-69q2 10 2 18q0 26 -13.5 41.5t-33.5 23.5t-43.5 10.5t-43.5 2.5q-26 0 -58.5 -4.5t-61.5 -16.5t-48.5 -32.5t-19.5 -51.5q0 -32 29.5 -47t69.5 -24l123 -29q22 -5 44 -13.5t39 -20.5t27.5 -29t10.5 -39
q0 -54 -27 -88.5t-68 -54t-89.5 -27t-91.5 -8.5l-36 -44q11 2 18.5 2.5t15.5 0.5q28 0 49.5 -11t21.5 -37z" />
    <glyph glyph-name="uni0162" unicode="&#x162;" horiz-adv-x="678" 
d="M755 665h-301l-191 -665h-70l191 665h-303l17 57h672zM157 -200h-52l80 149h77z" />
    <glyph glyph-name="uni0163" unicode="&#x163;" horiz-adv-x="393" 
d="M378 455h-145l-95 -331q-3 -11 -4.5 -19t-1.5 -18q0 -27 16.5 -36.5t41.5 -9.5q19 0 37.5 2.5t36.5 5.5l-11 -48q-22 -3 -44 -5t-44 -2q-20 0 -38.5 3t-32.5 11t-23 22.5t-9 37.5q0 13 2.5 26t6.5 26l95 335h-128l14 48h129l27 99l76 29l-37 -128h146zM16 -200h-52
l80 149h77z" />
    <glyph glyph-name="Tcaron" unicode="&#x164;" horiz-adv-x="678" 
d="M755 665h-301l-191 -665h-70l191 665h-303l17 57h672zM382 914l64 -110l131 110h64l-157 -141h-80l-74 141h52z" />
    </font>
</defs>
</svg>
