<?xml version="1.0" standalone="no"?>
<!DOCTYPE svg PUBLIC "-//W3C//DTD SVG 1.1//EN" "http://www.w3.org/Graphics/SVG/1.1/DTD/svg11.dtd" >
<svg xmlns="http://www.w3.org/2000/svg" xmlns:xlink="http://www.w3.org/1999/xlink" version="1.1">
<metadata>
Created by FontForge 20201107 at Tue Feb  9 13:58:47 2010
 By Jimmy Wärting
Copyright (c) 2010 Linotype GmbH, www.linotype.com. All rights reserved. This font software may not be reproduced, modified, disclosed or transferred without the express written approval of Linotype GmbH. Univers is a trademark of Linotype Corp. registered in the U.S. Patent and Trademark Office and may be registered in certain other jurisdictions in the name of Linotype Corp. or its licensee Linotype GmbH. This typeface is original artwork of Adrian Frutiger and Linotype Design Studio. The design may be protected in certain jurisdictions.
</metadata>
<defs>
<font id="UniversNextPro-LightCond" horiz-adv-x="436" >
  <font-face 
    font-family="Univers Next Pro Light Cond"
    font-weight="300"
    font-stretch="condensed"
    units-per-em="1000"
    panose-1="2 11 4 6 3 2 2 2 2 3"
    ascent="750"
    descent="-250"
    x-height="504"
    cap-height="723"
    bbox="-155 -214 871 927"
    underline-thickness="50"
    underline-position="-100"
    unicode-range="U+000D-FB04"
  />
<missing-glyph horiz-adv-x="512" 
d="M222 117v67h56v-67h-56zM223 234v17q0 27 3 46.5t10 35t18 29t28 29.5q16 16 26 28t15 22t7 19t2 20q0 36 -22.5 57.5t-53.5 21.5t-53.5 -22t-28.5 -73l-50 8q7 72 44 104.5t91 32.5q27 0 49.5 -9t39 -25t26 -39.5t9.5 -51.5q0 -17 -2.5 -32.5t-9.5 -30.5t-19.5 -30
t-31.5 -33q-16 -14 -25.5 -25t-15 -22t-7 -23.5t-1.5 -29.5v-24h-48zM462 50v617h-412v-617h412zM512 718v-718h-512v718h512z" />
    <glyph glyph-name="IJ" unicode="IJ" horiz-adv-x="670" 
d="M85 0v723h60v-723h-60zM590 215q0 -46 -5.5 -87.5t-22.5 -73t-49.5 -50t-87.5 -18.5q-51 0 -83.5 16t-50.5 43.5t-24.5 64t-6.5 78.5v14h61v-12q0 -27 2.5 -54t12.5 -48.5t30.5 -35t57.5 -13.5q42 0 63.5 18t31 45t10.5 59.5t1 61.5v500h60v-508v0z" />
    <glyph glyph-name="ij" unicode="ij" horiz-adv-x="406" 
d="M67 636v76h69v-76h-69zM73 0v504h57v-504h-57zM270 636v76h69v-76h-69zM333 -75q0 -32 -3.5 -56t-15 -40.5t-32.5 -25t-55 -8.5q-15 0 -30 3v51q5 -1 9.5 -1.5t9.5 -0.5q22 0 34.5 5.5t18 16t6.5 26t1 35.5v574h57v-579z" />
    <glyph glyph-name="napostrophe" unicode="&#x22;n" horiz-adv-x="464" 
d="M336 0v314q0 25 -1 52t-9.5 49t-26.5 36t-52 14q-35 0 -57.5 -15t-36 -39.5t-18.5 -54.5t-5 -60v-296h-57v379q0 31 -1 62.5t-3 62.5h55l1 -69q23 37 55.5 58.5t77.5 21.5q38 0 64 -12t41.5 -33.5t22.5 -50.5t7 -63v-356h-57zM11 561h-48l28 162h63z" />
    <glyph glyph-name="f_f" unicode="ff" horiz-adv-x="529" 
d="M157 457v-457h-57v457h-77v47h77v55q0 33 3 63.5t15 54t37 37.5t70 14q8 0 15.5 -0.5t13.5 -1.5v-50q-5 1 -10 1h-10q-46 0 -61.5 -20.5t-15.5 -70.5v-82h97v-47h-97zM419 457v-457h-57v457h-77v47h77v55q0 33 3 63.5t15 54t37 37.5t70 14q8 0 15.5 -0.5t13.5 -1.5v-50
q-5 1 -10 1h-10q-46 0 -61.5 -20.5t-15.5 -70.5v-82h97v-47h-97z" />
    <glyph glyph-name="fi" unicode="fi" horiz-adv-x="437" 
d="M157 457v-457h-57v457h-77v47h77v55q0 33 3 63.5t15 54t37 37.5t70 14q8 0 15.5 -0.5t13.5 -1.5v-50q-5 1 -10 1h-10q-46 0 -61.5 -20.5t-15.5 -70.5v-82h97v-47h-97zM301 636v76h69v-76h-69zM307 0v504h57v-504h-57z" />
    <glyph glyph-name="fl" unicode="fl" horiz-adv-x="437" 
d="M157 457v-457h-57v457h-77v47h77v55q0 33 3 63.5t15 54t37 37.5t70 14q8 0 15.5 -0.5t13.5 -1.5v-50q-5 1 -10 1h-10q-46 0 -61.5 -20.5t-15.5 -70.5v-82h97v-47h-97zM307 0v723h57v-723h-57z" />
    <glyph glyph-name="f_f_i" unicode="ffi" horiz-adv-x="699" 
d="M157 457v-457h-57v457h-77v47h77v55q0 33 3 63.5t15 54t37 37.5t70 14q8 0 15.5 -0.5t13.5 -1.5v-50q-5 1 -10 1h-10q-46 0 -61.5 -20.5t-15.5 -70.5v-82h97v-47h-97zM419 457v-457h-57v457h-77v47h77v55q0 33 3 63.5t15 54t37 37.5t70 14q8 0 15.5 -0.5t13.5 -1.5v-50
q-5 1 -10 1h-10q-46 0 -61.5 -20.5t-15.5 -70.5v-82h97v-47h-97zM563 636v76h69v-76h-69zM569 0v504h57v-504h-57z" />
    <glyph glyph-name="f_f_l" unicode="ffl" horiz-adv-x="699" 
d="M157 457v-457h-57v457h-77v47h77v55q0 33 3 63.5t15 54t37 37.5t70 14q8 0 15.5 -0.5t13.5 -1.5v-50q-5 1 -10 1h-10q-46 0 -61.5 -20.5t-15.5 -70.5v-82h97v-47h-97zM419 457v-457h-57v457h-77v47h77v55q0 33 3 63.5t15 54t37 37.5t70 14q8 0 15.5 -0.5t13.5 -1.5v-50
q-5 1 -10 1h-10q-46 0 -61.5 -20.5t-15.5 -70.5v-82h97v-47h-97zM569 0v723h57v-723h-57z" />
    <glyph glyph-name=".notdef" horiz-adv-x="512" 
d="M222 117v67h56v-67h-56zM223 234v17q0 27 3 46.5t10 35t18 29t28 29.5q16 16 26 28t15 22t7 19t2 20q0 36 -22.5 57.5t-53.5 21.5t-53.5 -22t-28.5 -73l-50 8q7 72 44 104.5t91 32.5q27 0 49.5 -9t39 -25t26 -39.5t9.5 -51.5q0 -17 -2.5 -32.5t-9.5 -30.5t-19.5 -30
t-31.5 -33q-16 -14 -25.5 -25t-15 -22t-7 -23.5t-1.5 -29.5v-24h-48zM462 50v617h-412v-617h412zM512 718v-718h-512v718h512z" />
    <glyph glyph-name="nonmarkingreturn" unicode="&#xd;" horiz-adv-x="0" 
 />
    <glyph glyph-name="space" unicode=" " horiz-adv-x="218" 
 />
    <glyph glyph-name="exclam" unicode="!" horiz-adv-x="217" 
d="M133 170h-50l-6 553h66zM74 0v79h69v-79h-69z" />
    <glyph glyph-name="quotedbl" unicode="&#x22;" horiz-adv-x="322" 
d="M255 431h-39l-7 280h53zM107 431h-40l-7 280h54z" />
    <glyph glyph-name="numbersign" unicode="#" 
d="M352 449l-32 -175h83v-48h-91l-40 -226h-54l40 226h-127l-40 -226h-54l41 226h-86v48h95l30 175h-84v48h93l40 226h53l-39 -226h126l40 226h54l-40 -226h84v-48h-92zM171 449l-31 -175h126l31 175h-126z" />
    <glyph glyph-name="dollar" unicode="$" 
d="M200 7q-83 4 -119.5 49.5t-36.5 132.5v17h57v-22q0 -56 22.5 -88t76.5 -37v288q-39 22 -67.5 42t-46.5 42.5t-27 50t-9 65.5q0 75 40 119t110 49v86h38v-86q81 -4 116 -46.5t35 -129.5v-10h-58v10q0 57 -20 90t-73 38v-275q37 -21 66 -41t48.5 -43.5t29.5 -54t10 -72.5
q0 -85 -39 -126.5t-115 -46.5v-99h-38v98zM332 172q0 29 -5.5 51t-17 39.5t-29 32.5t-42.5 30v-267q50 5 72 33.5t22 80.5zM109 555q0 -26 5.5 -46.5t17 -37t28.5 -30.5t40 -27v252q-44 -6 -67.5 -36t-23.5 -75z" />
    <glyph glyph-name="percent" unicode="%" horiz-adv-x="672" 
d="M152 -33h-53l422 789h53zM281 549q0 -32 -4.5 -64.5t-17.5 -59t-37 -43.5t-63 -17t-63 16.5t-37.5 42.5t-18 59t-4.5 66q0 31 4.5 64t18 59.5t37.5 43.5t63 17t63 -16t37 -42t17.5 -59t4.5 -67zM225 549q0 26 -1.5 50.5t-8.5 43.5t-20 30.5t-36 11.5t-36.5 -11.5
t-20 -30.5t-8.5 -43.5t-2 -50.5q0 -27 2 -51.5t8.5 -43t20 -30t36.5 -11.5t36 11.5t20 30.5t8.5 43.5t1.5 50.5zM636 174q0 -32 -4.5 -64.5t-17.5 -59t-37 -43.5t-63 -17t-63 16.5t-37.5 42.5t-18 59t-4.5 66q0 31 4.5 64t18 59.5t37.5 43.5t63 17t63 -16t37 -42t17.5 -59
t4.5 -67zM580 174q0 26 -1.5 50.5t-8.5 43.5t-20 30.5t-36 11.5t-36.5 -11.5t-20 -30.5t-8.5 -43.5t-2 -50.5q0 -27 2 -51.5t8.5 -43t20 -30t36.5 -11.5t36 11.5t20 30.5t8.5 43.5t1.5 50.5z" />
    <glyph glyph-name="ampersand" unicode="&#x26;" horiz-adv-x="536" 
d="M414 352v-352h-139q-56 0 -94.5 10t-62.5 33t-35 60.5t-11 93.5q0 34 4.5 62.5t17 52t35 40.5t58.5 29q-28 12 -45.5 28t-27 36.5t-13 45t-3.5 53.5q0 46 8.5 81.5t28.5 60t52.5 37t80.5 12.5q18 0 36 -2.5t35 -7.5v-50q-17 5 -33 7.5t-33 2.5q-63 0 -89 -36.5
t-26 -102.5q0 -73 31 -108.5t103 -35.5h63v174h59v-174h94v-50h-94zM355 352h-80q-77 0 -110 -36t-33 -114q0 -53 11 -83t33.5 -45.5t57 -19.5t81.5 -4h40v302z" />
    <glyph glyph-name="quotesingle" unicode="'" horiz-adv-x="174" 
d="M107 431h-40l-7 280h54z" />
    <glyph glyph-name="parenleft" unicode="(" horiz-adv-x="239" 
d="M125 -153q-32 106 -56 211t-24 217q0 116 24 227t59 221h43q-27 -109 -44.5 -220.5t-17.5 -223.5q0 -109 16.5 -217.5t45.5 -214.5h-46z" />
    <glyph glyph-name="parenright" unicode=")" horiz-adv-x="239" 
d="M194 294q0 -116 -24.5 -226.5t-58.5 -220.5h-43q28 108 45 219.5t17 223.5q0 111 -16.5 219t-45.5 214h46q33 -106 56.5 -211.5t23.5 -217.5z" />
    <glyph glyph-name="asterisk" unicode="*" horiz-adv-x="395" 
d="M222 569l76 -114l-44 -29l-55 129l-56 -129l-44 29l76 114l-132 -14v55l129 -12l-73 112l44 27l56 -127l55 127l44 -27l-76 -112l130 12v-55z" />
    <glyph glyph-name="plus" unicode="+" horiz-adv-x="529" 
d="M292 226v-194h-54v194h-190v49h190v194h54v-194h189v-49h-189z" />
    <glyph glyph-name="comma" unicode="," horiz-adv-x="218" 
d="M88 -104h-48l37 183h69z" />
    <glyph glyph-name="hyphen" unicode="-" horiz-adv-x="264" 
d="M36 239v57h192v-57h-192z" />
    <glyph glyph-name="period" unicode="." horiz-adv-x="218" 
d="M74 0v79h71v-79h-71z" />
    <glyph glyph-name="slash" unicode="/" horiz-adv-x="317" 
d="M64 -14h-51l241 751h50z" />
    <glyph glyph-name="zero" unicode="0" 
d="M327 441q0 60 -4 106t-15.5 76.5t-33 46t-56.5 15.5t-56.5 -15.5t-33 -46t-15.5 -76.5t-4 -106v-159q0 -60 4 -106t15.5 -76.5t33 -46t56.5 -15.5t56.5 15.5t33 46t15.5 76.5t4 106v159zM49 413q0 75 5 135t22.5 101.5t51 63.5t90.5 22t90.5 -22t51 -63.5t22.5 -101.5
t5 -135v-103q0 -75 -5 -135t-22.5 -101.5t-51 -63.5t-90.5 -22t-90.5 22t-51 63.5t-22.5 101.5t-5 135v103z" />
    <glyph glyph-name="one" unicode="1" 
d="M228 0v644q-26 -28 -55 -51.5t-61 -46.5v68q14 9 31 22.5t33.5 28t31 29.5t24.5 29h55v-723h-59z" />
    <glyph glyph-name="two" unicode="2" 
d="M391 575q0 -50 -20 -97t-46 -89l-209 -339h273v-50h-336v56l232 380q20 34 32.5 71t12.5 77q0 48 -28 74.5t-75 26.5q-31 0 -52 -10t-34 -28t-18.5 -42t-5.5 -52h-60q0 88 44 135t131 47q82 0 120.5 -42t38.5 -118z" />
    <glyph glyph-name="three" unicode="3" 
d="M382 203q0 -46 -8 -85.5t-28 -68t-53 -45t-83 -16.5q-93 0 -131 48t-38 135h61q0 -31 5 -55.5t17.5 -42t33 -26.5t51.5 -9q33 0 55 12t34.5 32.5t18 48.5t5.5 61q0 45 -8 75t-26 47.5t-46.5 24.5t-69.5 7v50q39 0 66.5 7.5t45 25.5t25.5 48t8 75q0 27 -4.5 51.5t-16 42.5
t-31 28.5t-50.5 10.5t-51.5 -10t-32.5 -28t-16.5 -42t-4.5 -52h-59q0 41 9 74.5t28.5 57.5t51 37t77.5 13q86 0 123 -45t37 -134q0 -33 -5 -63.5t-17.5 -55t-33 -41.5t-50.5 -24q34 -5 55.5 -20t34 -37.5t17 -51.5t4.5 -60z" />
    <glyph glyph-name="four" unicode="4" 
d="M329 175v-175h-58v175h-237v64l210 484h85v-498h78v-50h-78zM271 662l-186 -437h186v437z" />
    <glyph glyph-name="five" unicode="5" 
d="M389 236q0 -48 -5.5 -93t-24 -79.5t-53 -55t-91.5 -20.5q-45 0 -75.5 13t-49.5 36.5t-27.5 56.5t-8.5 74h60q0 -29 4.5 -53t15.5 -41t31 -26.5t51 -9.5q37 0 59 13.5t34 39t16 62.5t4 83q0 34 -4 66t-16 56.5t-33 39.5t-55 15q-18 0 -35 -5t-31.5 -14.5t-25 -23
t-14.5 -31.5h-57l12 384h299v-50h-242l-11 -265q44 54 115 54q52 0 83.5 -19.5t48 -51.5t21.5 -72.5t5 -82.5z" />
    <glyph glyph-name="six" unicode="6" 
d="M394 238q0 -47 -5 -92t-22.5 -80t-50.5 -56.5t-90 -21.5q-63 0 -98 30t-51 76.5t-19 103t-3 108.5v137q0 50 4.5 102t22.5 94t53 69t95 27q88 0 122 -43t34 -125h-60q0 26 -4.5 47.5t-15.5 37.5t-29.5 24.5t-45.5 8.5q-41 0 -64.5 -22t-35.5 -58t-15 -81.5t-3 -92.5v-53
q23 38 53.5 56t75.5 18q46 0 75.5 -17.5t46.5 -46.5t23.5 -68t6.5 -82zM334 234q0 29 -3.5 59t-14.5 54t-31.5 39t-54.5 15q-37 0 -59.5 -16t-35 -42t-16.5 -59t-4 -67q0 -33 4 -65t16 -57.5t34.5 -41t59.5 -15.5q38 0 59.5 19.5t31.5 48.5t12 63.5t2 64.5z" />
    <glyph glyph-name="seven" unicode="7" 
d="M181 0h-63l214 671h-281v52h335v-55z" />
    <glyph glyph-name="eight" unicode="8" 
d="M391 196q0 -46 -8.5 -84t-29 -65.5t-54 -43t-82.5 -15.5q-48 0 -80.5 14.5t-53 41.5t-29 64.5t-8.5 83.5q0 30 3 59.5t13 54.5t30 43.5t54 26.5q-28 10 -46 25.5t-28.5 35.5t-14.5 45.5t-4 54.5q0 44 9 80.5t29.5 62.5t52 40.5t76.5 14.5q87 0 126 -45.5t39 -135.5
q0 -28 -3 -56t-13.5 -52.5t-29.5 -43t-52 -26.5q36 -6 57 -24t31.5 -43t13 -54.5t2.5 -58.5zM324 537q0 30 -3.5 57t-14.5 47t-31 32t-53 12q-32 0 -53 -11t-33.5 -30.5t-17.5 -46t-5 -57.5q0 -29 5 -54.5t17 -45t32.5 -31t51.5 -11.5q30 0 50 11t32.5 30t17.5 44.5t5 53.5z
M330 195q0 31 -3.5 58.5t-15 48.5t-33.5 33.5t-58 12.5q-37 0 -59.5 -13t-34.5 -34.5t-16 -50t-4 -58.5q0 -29 4.5 -56.5t17 -49.5t34 -35t55.5 -13q36 0 58.5 13t34.5 34.5t16 50t4 59.5z" />
    <glyph glyph-name="nine" unicode="9" 
d="M384 367q0 -91 -5 -161.5t-23 -119t-52.5 -73.5t-92.5 -25q-84 0 -120.5 41t-36.5 126h61q0 -54 19.5 -85.5t76.5 -31.5q35 0 57.5 17.5t35 53.5t17.5 91t5 131v16q-23 -32 -53 -47.5t-72 -15.5q-51 0 -82 20t-47 52t-21 72.5t-5 81.5q0 45 7.5 86t27 72t53 49t85.5 18
q60 0 93.5 -24.5t49 -65t19 -92t3.5 -106.5v-80zM324 524q0 27 -3.5 55.5t-14.5 52t-32 38.5t-56 15q-36 0 -58 -16t-33.5 -41t-15 -56t-3.5 -62q0 -33 3.5 -64.5t14.5 -56.5t30.5 -40t52.5 -15q40 0 63.5 17t34.5 44t14 61t3 68z" />
    <glyph glyph-name="colon" unicode=":" horiz-adv-x="218" 
d="M74 426v78h71v-78h-71zM74 0v79h71v-79h-71z" />
    <glyph glyph-name="semicolon" unicode=";" horiz-adv-x="218" 
d="M65 426v78h71v-78h-71zM88 -104h-48l37 183h69z" />
    <glyph glyph-name="less" unicode="&#x3c;" horiz-adv-x="529" 
d="M48 225v50l433 180v-54l-370 -151l370 -149v-55z" />
    <glyph glyph-name="equal" unicode="=" horiz-adv-x="529" 
d="M48 130v49h433v-49h-433zM48 325v49h433v-49h-433z" />
    <glyph glyph-name="greater" unicode="&#x3e;" horiz-adv-x="529" 
d="M48 46v55l370 149l-370 151v54l433 -180v-50z" />
    <glyph glyph-name="question" unicode="?" horiz-adv-x="369" 
d="M307 575q0 -29 -3 -52t-11.5 -46.5t-23.5 -51t-38 -65.5q-14 -24 -22.5 -57t-8.5 -77v-56h-54v43q0 37 3.5 66t10.5 52t16 42t21 37q13 20 22 37t15 35t9 39.5t3 49.5q0 55 -14 84.5t-58 29.5q-41 0 -57 -25.5t-16 -72.5v-15h-59v13q0 34 6.5 62t21.5 48t40 31t62 11
q42 0 68 -11.5t41 -32.5t20.5 -51t5.5 -67zM139 0v79h69v-79h-69z" />
    <glyph glyph-name="at" unicode="@" horiz-adv-x="874" 
d="M816 400q0 -75 -18 -132t-47 -95t-66 -57.5t-75 -19.5q-46 0 -68 24.5t-25 65.5q-20 -45 -51.5 -68t-73.5 -23q-54 0 -82 30t-28 88q0 25 2.5 50t7.5 50q17 94 54.5 147.5t105.5 53.5q39 0 61.5 -16t33.5 -47l9 53h54l-46 -262q-2 -7 -2.5 -16.5t-0.5 -17.5
q0 -28 11 -47.5t42 -19.5q27 0 54 17t48.5 50t35 81t13.5 111q0 64 -16.5 118t-51.5 92t-89 59.5t-128 21.5q-85 0 -153.5 -34.5t-116.5 -94t-74 -138.5t-26 -169q0 -80 21 -143t61.5 -107.5t100 -68t136.5 -23.5q66 0 122 16t104 46l22 -40q-52 -34 -114.5 -51.5
t-133.5 -17.5q-87 0 -155.5 26t-116.5 76t-73 122.5t-25 164.5q0 102 31 190.5t87 153t133 101.5t170 37q84 0 147 -24t105 -68.5t63 -106.5t21 -138zM517 285q3 12 5.5 26.5t5 29.5t4 28t1.5 22q0 36 -15 58.5t-52 22.5q-48 0 -74.5 -43.5t-41.5 -120.5q-4 -20 -7 -44.5
t-3 -47.5q0 -36 15 -56t50 -20q42 0 68.5 37t43.5 108z" />
    <glyph glyph-name="A" unicode="A" horiz-adv-x="538" 
d="M457 0l-55 191h-268l-56 -191h-60l217 723h70l215 -723h-63zM268 657l-117 -414h234z" />
    <glyph glyph-name="B" unicode="B" horiz-adv-x="508" 
d="M452 197q0 -53 -11.5 -90.5t-35.5 -61t-61.5 -34.5t-89.5 -11h-169v723h173q96 0 138 -43t42 -138q0 -32 -4 -57t-15.5 -45.5t-31 -35.5t-50.5 -27q36 -10 58.5 -26t35 -38.5t17 -51.5t4.5 -64zM376 543q0 73 -33 100.5t-102 27.5h-96v-271h106q70 0 97.5 38.5
t27.5 104.5zM389 196q0 72 -29.5 112.5t-105.5 40.5h-109v-297h88q41 0 70.5 6t48.5 22t28 44t9 72z" />
    <glyph glyph-name="C" unicode="C" horiz-adv-x="502" 
d="M460 192q0 -97 -47 -151.5t-148 -54.5q-73 0 -113 27t-59 75.5t-23 116.5t-4 150q0 71 3 139.5t22.5 122.5t61.5 87t121 33q51 0 85.5 -14t55.5 -39.5t30 -61t9 -78.5v-17h-62v14q0 29 -5 55t-18 45.5t-36.5 30.5t-59.5 11q-52 0 -81 -24.5t-42.5 -68t-16.5 -103.5
t-3 -132q0 -78 3 -137.5t16.5 -99t40.5 -60t76 -20.5q39 0 64 11.5t40 32t21 49t6 61.5v13h63v-13v0z" />
    <glyph glyph-name="D" unicode="D" horiz-adv-x="547" 
d="M481 369q0 -123 -13.5 -197t-52.5 -114q-26 -27 -67 -42.5t-101 -15.5h-162v723h162q57 0 95.5 -12t64.5 -34q23 -20 37.5 -44.5t22.5 -60t11 -85t3 -118.5zM417 371q0 91 -8 156t-36 100q-22 28 -56.5 36.5t-67.5 8.5h-104v-620h119q22 0 48.5 7t43.5 21q18 15 30 39
t19 59t9.5 83t2.5 110z" />
    <glyph glyph-name="E" unicode="E" horiz-adv-x="442" 
d="M85 0v723h310v-53h-250v-274h239v-51h-239v-292h257v-53h-317z" />
    <glyph glyph-name="F" unicode="F" horiz-adv-x="404" 
d="M145 670v-271h214v-52h-214v-347h-60v723h289v-53h-229z" />
    <glyph glyph-name="G" unicode="G" horiz-adv-x="533" 
d="M409 539v13q0 60 -28.5 96.5t-96.5 36.5q-59 0 -90.5 -30t-45.5 -78t-16 -108t-2 -120q0 -51 1 -105.5t14.5 -100t46.5 -75t97 -29.5q30 0 59.5 5t56.5 18v264h-140v52h199v-360q-41 -15 -86 -23.5t-88 -8.5q-80 0 -124.5 28t-67 77.5t-27.5 116t-5 143.5q0 82 6.5 152.5
t28.5 122.5t65 81.5t117 29.5q51 0 87 -13t58.5 -37t32.5 -59t10 -79v-10h-62z" />
    <glyph glyph-name="H" unicode="H" horiz-adv-x="561" 
d="M416 0v345h-271v-345h-60v723h60v-325h271v325h60v-723h-60z" />
    <glyph glyph-name="I" unicode="I" horiz-adv-x="230" 
d="M85 0v723h60v-723h-60z" />
    <glyph glyph-name="J" unicode="J" horiz-adv-x="440" 
d="M360 215q0 -46 -5.5 -87.5t-22.5 -73t-49.5 -50t-87.5 -18.5q-51 0 -83.5 16t-50.5 43.5t-24.5 64t-6.5 78.5v14h61v-12q0 -27 2.5 -54t12.5 -48.5t30.5 -35t57.5 -13.5q42 0 63.5 18t31 45t10.5 59.5t1 61.5v500h60v-508v0z" />
    <glyph glyph-name="K" unicode="K" horiz-adv-x="478" 
d="M397 0l-248 385l242 338h72l-247 -338l254 -385h-73zM85 0v723h60v-723h-60z" />
    <glyph glyph-name="L" unicode="L" horiz-adv-x="395" 
d="M85 0v723h60v-670h228v-53h-288z" />
    <glyph glyph-name="M" unicode="M" horiz-adv-x="766" 
d="M623 0v676l-205 -676h-72l-206 676v-676h-55v723h97l204 -668l198 668h97v-723h-58z" />
    <glyph glyph-name="N" unicode="N" horiz-adv-x="603" 
d="M423 0l-281 669v-669h-57v723h95l281 -669v669h57v-723h-95z" />
    <glyph glyph-name="O" unicode="O" horiz-adv-x="547" 
d="M481 362q0 -55 -1 -94t-4 -68t-8.5 -51.5t-13.5 -43.5q-10 -26 -24.5 -48t-35.5 -37.5t-50.5 -24.5t-69.5 -9q-41 0 -70.5 8t-50.5 23t-35.5 35.5t-24.5 44.5q-8 19 -13 38t-8 47.5t-4.5 70.5t-1.5 108q0 64 1.5 110.5t6.5 81.5t15.5 61.5t27.5 50.5q23 33 63.5 52.5
t93.5 19.5q32 0 56 -4.5t42 -13.5t31.5 -21.5t25.5 -27.5q17 -23 27.5 -51t16 -64.5t7 -84t1.5 -108.5zM417 361q0 50 -1 105t-12 104q-5 24 -14 45t-24 36.5t-37.5 24.5t-54.5 9t-55.5 -10t-39.5 -28t-25.5 -42t-13.5 -51q-8 -45 -9 -96t-1 -96q0 -48 0.5 -99.5t9.5 -99.5
q6 -29 15 -52t24.5 -39.5t38.5 -25t56 -8.5q31 0 53 9t37 25t24.5 37.5t15.5 45.5q6 25 9 52.5t4 54.5t0.5 52.5t-0.5 46.5z" />
    <glyph glyph-name="P" unicode="P" horiz-adv-x="461" 
d="M425 537q0 -67 -15.5 -106.5t-44.5 -60t-70 -26.5t-92 -6h-58v-338h-60v723h143q51 0 88 -8.5t61 -30t36 -57.5t12 -90zM361 536q0 39 -7 65t-23.5 41.5t-42.5 22t-64 6.5h-79v-281h71q41 0 68.5 7.5t44.5 24.5t24.5 45t7.5 69z" />
    <glyph glyph-name="Q" unicode="Q" horiz-adv-x="548" 
d="M420 0q-16 0 -31 -1t-31 -2q-21 -2 -42 -3t-42 -1q-79 0 -121.5 33t-62.5 85q-6 18 -10.5 36.5t-7.5 46t-4.5 68.5t-1.5 103q0 61 2 106t7 79.5t14.5 60.5t24.5 49q23 35 64 56t96 21q66 0 102.5 -21t59.5 -56q15 -23 23.5 -50t13.5 -62.5t6.5 -80.5t1.5 -103
q0 -69 -2.5 -121t-11.5 -90.5t-26 -64.5t-46 -43q34 5 66.5 6.5t66.5 1.5v-53h-108zM417 365q0 89 -5 151.5t-23 100.5q-14 29 -39.5 48t-75.5 19q-47 0 -74.5 -21.5t-42.5 -53.5q-17 -37 -22 -95.5t-5 -150.5q0 -47 0.5 -98t9.5 -97q11 -58 41.5 -90t92.5 -32q40 0 66.5 16
t42.5 42t23.5 59.5t9.5 69t1.5 70t-0.5 62.5z" />
    <glyph glyph-name="R" unicode="R" horiz-adv-x="508" 
d="M380 0q-5 21 -7.5 59.5t-2.5 84.5t-1.5 83.5t-6.5 61.5q-8 33 -32.5 48t-83.5 15h-101v-352h-60v723h175q93 0 137 -40.5t44 -133.5q0 -33 -4.5 -60t-17 -49t-34 -37.5t-54.5 -25.5q27 -3 44 -11t27.5 -19.5t15.5 -25t7 -26.5q4 -25 5 -66.5t1 -83.5q0 -13 0.5 -32
t2 -39.5t3.5 -40t4 -33.5h-61zM379 549q0 68 -29.5 94.5t-91.5 26.5h-113v-266h80q43 0 72.5 6t47.5 22t26 44.5t8 72.5z" />
    <glyph glyph-name="S" unicode="S" horiz-adv-x="476" 
d="M424 172q0 -89 -49 -137.5t-134 -48.5q-102 0 -146.5 51.5t-44.5 150.5v8h63v-8q0 -33 5.5 -60.5t20 -47.5t39 -31t62.5 -11q66 0 93 35.5t27 95.5q0 28 -5.5 49t-17 38.5t-30 32.5t-44.5 31l-80 49q-26 16 -49 34t-39.5 40.5t-26 51.5t-9.5 67q0 41 13.5 73.5t38 55
t58.5 34.5t74 12q85 0 131 -41t46 -129v-22h-62v16q0 28 -5 51t-18.5 39t-36 25t-57.5 9q-56 0 -87 -32t-31 -89q0 -28 6 -48.5t17.5 -37t29 -30t40.5 -27.5l85 -52q34 -21 57.5 -40.5t38 -42.5t21 -50.5t6.5 -63.5z" />
    <glyph glyph-name="T" unicode="T" horiz-adv-x="411" 
d="M235 670v-670h-60v670h-167v53h395v-53h-168z" />
    <glyph glyph-name="U" unicode="U" horiz-adv-x="561" 
d="M480 240q0 -59 -9 -106t-31.5 -80t-61 -50.5t-96.5 -17.5q-64 0 -103.5 19.5t-61 54t-29 82t-7.5 103.5v478h60v-479q0 -41 4.5 -78t19 -65t42.5 -45t75 -17q46 0 73.5 17t42 44.5t18.5 64t4 75.5v483h60v-483v0z" />
    <glyph glyph-name="V" unicode="V" horiz-adv-x="488" 
d="M281 0h-74l-191 723h64l166 -665l167 665h59z" />
    <glyph glyph-name="W" unicode="W" horiz-adv-x="814" 
d="M621 0h-76l-138 659l-143 -659h-76l-166 723h64l141 -657l145 657h76l138 -657l147 657h59z" />
    <glyph glyph-name="X" unicode="X" horiz-adv-x="485" 
d="M401 0l-163 331l-160 -331h-64l187 373l-173 350h68l145 -303l150 303h64l-177 -350l193 -373h-70z" />
    <glyph glyph-name="Y" unicode="Y" horiz-adv-x="466" 
d="M262 291v-291h-60v291l-194 432h67l160 -370l159 370h64z" />
    <glyph glyph-name="Z" unicode="Z" horiz-adv-x="435" 
d="M30 0v56l314 614h-295v53h356v-62l-310 -608h310v-53h-375z" />
    <glyph glyph-name="bracketleft" unicode="[" horiz-adv-x="239" 
d="M60 -153v876h132v-44h-79v-788h79v-44h-132z" />
    <glyph glyph-name="backslash" unicode="\" horiz-adv-x="317" 
d="M254 -14l-241 751h51l240 -751h-50z" />
    <glyph glyph-name="bracketright" unicode="]" horiz-adv-x="239" 
d="M38 -153v44h79v788h-79v44h132v-876h-132z" />
    <glyph glyph-name="asciicircum" unicode="^" horiz-adv-x="529" 
d="M399 307l-135 352l-135 -352h-56l165 416h52l166 -416h-57z" />
    <glyph glyph-name="underscore" unicode="_" horiz-adv-x="500" 
d="M0 -125v50h500v-50h-500z" />
    <glyph glyph-name="grave" unicode="`" horiz-adv-x="175" 
d="M105 594l-131 139h74l105 -139h-48z" />
    <glyph glyph-name="a" unicode="a" horiz-adv-x="437" 
d="M313 0v70q-14 -20 -28.5 -35t-31 -24.5t-36 -14t-44.5 -4.5q-67 0 -100 42t-33 105q0 59 24.5 92.5t63 50t86 21t94.5 4.5v19q0 27 -1.5 52.5t-10 45.5t-27 32t-52.5 12q-18 0 -35.5 -4.5t-31 -14.5t-22 -25.5t-8.5 -36.5v-4h-58v3q0 34 12.5 58t34 40t50 23.5t60.5 7.5
q44 0 72 -11t44.5 -32t23 -52t6.5 -72v-190q0 -79 3 -158h-55zM308 261h-19q-32 0 -65.5 -3t-60.5 -15t-44.5 -35t-17.5 -63q0 -21 4.5 -40t14.5 -33.5t26.5 -23.5t39.5 -9q36 0 59.5 14.5t37.5 37.5t19.5 51.5t5.5 57.5v61z" />
    <glyph glyph-name="b" unicode="b" horiz-adv-x="457" 
d="M404 264q0 -30 -1.5 -63t-7 -64.5t-17 -59t-31.5 -47.5q-17 -17 -41.5 -27.5t-59.5 -10.5q-43 0 -70.5 16.5t-50.5 51.5l-1 -60h-55q2 24 3 48.5t1 48.5v626h57v-272q26 34 54 49t66 15q35 0 59.5 -10.5t41.5 -27.5q18 -18 28.5 -43t16 -53.5t7 -58.5t1.5 -58zM346 263
q0 20 -0.5 43t-3.5 46.5t-9.5 44.5t-19.5 37q-12 14 -29 23.5t-42 9.5q-26 0 -45 -10t-32 -25q-14 -17 -22 -40t-11.5 -48t-4 -50t-0.5 -46v-41.5t2.5 -43t7.5 -41t15 -35.5q13 -20 34 -33t56 -13q26 0 43 10t28 26q22 29 27.5 72t5.5 114z" />
    <glyph glyph-name="c" unicode="c" horiz-adv-x="393" 
d="M302 361q0 23 -3.5 43t-13 34.5t-26.5 22.5t-43 8q-38 0 -58.5 -19.5t-30.5 -51t-12 -70.5t-2 -78q0 -65 5.5 -106.5t17.5 -65.5t31 -33t46 -9t44 8.5t26.5 23.5t13 35t4.5 44h57q0 -71 -33 -114t-109 -43q-57 0 -89.5 19.5t-49 54t-20.5 82.5t-4 105q0 46 3 93.5t19 85
t49.5 61.5t93.5 24q42 0 69 -10.5t42.5 -30t22 -48t7.5 -65.5h-57z" />
    <glyph glyph-name="d" unicode="d" horiz-adv-x="457" 
d="M333 0l-1 60q-23 -35 -49 -51.5t-69 -16.5q-57 0 -89.5 26t-48 65.5t-19.5 87.5t-4 93q0 42 5.5 86t23 81t49 60.5t83.5 23.5q47 0 71.5 -15.5t41.5 -43.5v267h57v-626q0 -24 1 -48.5t3 -48.5h-55zM330 248q0 46 -3 86t-14 69.5t-33 46.5t-60 17q-39 0 -61 -20.5
t-32.5 -51.5t-13 -66.5t-2.5 -65.5q0 -49 3.5 -89.5t15 -70t32 -46t53.5 -16.5q42 0 65 18.5t34.5 48t13.5 66.5t2 74z" />
    <glyph glyph-name="e" unicode="e" horiz-adv-x="435" 
d="M112 243v-29q0 -42 4 -75t15.5 -56t32.5 -35t55 -12q32 0 52.5 9.5t32 25.5t16 37.5t5.5 45.5h57q-2 -35 -10 -64.5t-27 -52t-49.5 -35t-76.5 -12.5q-54 0 -86.5 18.5t-50 50.5t-23.5 74.5t-6 90.5q0 50 3 102t19 94t51 68.5t99 26.5q48 0 79 -15.5t49 -43.5t25 -65.5
t7 -81.5v-66h-273zM326 289v28.5t-1 33.5q-2 23 -7.5 44t-17 37.5t-29.5 26.5t-45 10q-56 0 -80.5 -33t-29.5 -81q-3 -33 -3 -66h213z" />
    <glyph glyph-name="f" unicode="f" horiz-adv-x="267" 
d="M157 457v-457h-57v457h-77v47h77v55q0 33 3 63.5t15 54t37 37.5t70 14q8 0 15.5 -0.5t13.5 -1.5v-50q-5 1 -10 1h-10q-46 0 -61.5 -20.5t-15.5 -70.5v-82h97v-47h-97z" />
    <glyph glyph-name="g" unicode="g" horiz-adv-x="456" 
d="M387 504q-1 -23 -2 -43t-1 -43v-440q0 -87 -38 -132.5t-131 -45.5q-146 0 -149 144h59q0 -48 20 -73.5t71 -25.5q38 0 60 12.5t33 34t14 50t3 60.5v64q-23 -33 -50.5 -47t-67.5 -14q-54 0 -85 22t-46.5 57.5t-19.5 79t-4 86.5q0 47 5.5 94.5t22.5 85.5t48 61.5t82 23.5
q49 0 74.5 -17t45.5 -54l1 60h55zM329 279q0 31 -2.5 64t-13.5 60.5t-33 45.5t-61 18q-41 0 -63 -23t-32 -56.5t-11.5 -71t-1.5 -66.5q0 -32 1.5 -67.5t11 -64.5t30 -48t58.5 -19q46 0 70 23.5t34.5 58t11.5 74t1 72.5z" />
    <glyph glyph-name="h" unicode="h" horiz-adv-x="464" 
d="M336 0v315q0 25 -1 51.5t-9.5 48.5t-26.5 36t-52 14q-33 0 -55 -13.5t-36 -36.5t-20 -53t-6 -63v-299h-57v723h57v-281q23 34 53.5 53.5t74.5 19.5q39 0 64.5 -12t41.5 -33.5t22.5 -51t6.5 -63.5v-355h-57z" />
    <glyph glyph-name="i" unicode="i" horiz-adv-x="203" 
d="M67 636v76h69v-76h-69zM73 0v504h57v-504h-57z" />
    <glyph glyph-name="j" unicode="j" horiz-adv-x="203" 
d="M67 636v76h69v-76h-69zM130 -75q0 -32 -3.5 -56t-15 -40.5t-32.5 -25t-55 -8.5q-15 0 -30 3v51q5 -1 9.5 -1.5t9.5 -0.5q22 0 34.5 5.5t18 16t6.5 26t1 35.5v574h57v-579z" />
    <glyph glyph-name="k" unicode="k" horiz-adv-x="394" 
d="M317 0l-184 281l168 223h70l-174 -222l190 -282h-70zM73 0v723h57v-723h-57z" />
    <glyph glyph-name="l" unicode="l" horiz-adv-x="203" 
d="M73 0v723h57v-723h-57z" />
    <glyph glyph-name="m" unicode="m" horiz-adv-x="673" 
d="M545 0v340q0 29 -3 52t-11.5 38.5t-23.5 24t-40 8.5q-28 0 -47.5 -13t-31.5 -34t-17 -47.5t-5 -53.5v-315h-57v340q0 25 -2 47.5t-10 39.5t-23.5 26.5t-41.5 9.5q-28 0 -47.5 -14.5t-31.5 -38t-17.5 -52t-5.5 -55.5v-303h-57v408q0 24 -1 48t-3 48h56l1 -74
q7 16 18.5 31.5t26.5 27.5t33.5 19t40.5 7q30 0 50 -8.5t32.5 -21t19 -27.5t9.5 -28q21 37 49 61t73 24q39 0 63.5 -15t38 -39t18 -54.5t4.5 -62.5v-344h-57z" />
    <glyph glyph-name="n" unicode="n" horiz-adv-x="464" 
d="M336 0v314q0 25 -1 52t-9.5 49t-26.5 36t-52 14q-35 0 -57.5 -15t-36 -39.5t-18.5 -54.5t-5 -60v-296h-57v379q0 31 -1 62.5t-3 62.5h55l1 -69q23 37 55.5 58.5t77.5 21.5q38 0 64 -12t41.5 -33.5t22.5 -50.5t7 -63v-356h-57z" />
    <glyph glyph-name="o" unicode="o" horiz-adv-x="439" 
d="M386 249q0 -62 -6.5 -110.5t-25.5 -81.5t-52 -50t-85 -17q-55 0 -87.5 18t-49.5 52t-22 81t-5 106q0 55 5 104t23 85.5t52 57.5t91 21t89.5 -20t48.5 -55t20 -84t4 -107zM327 266q0 31 -1 66.5t-10 66t-30.5 50.5t-62.5 20q-43 0 -66 -21t-33 -51.5t-11 -66.5t-1 -66v-58
q0 -29 2 -59t12.5 -55t32 -40.5t60.5 -15.5q37 0 58.5 15t32.5 39t14 54t3 60v62z" />
    <glyph glyph-name="p" unicode="p" horiz-adv-x="457" 
d="M404 264q0 -44 -3 -91.5t-18 -87.5t-47 -66t-90 -26q-38 0 -65.5 13t-50.5 45v-243h-57v579v58.5t-4 58.5h55l1 -62q21 36 51.5 54.5t72.5 18.5q54 0 84.5 -24t46.5 -60.5t20 -81t4 -85.5zM346 263q0 29 -1.5 64t-11.5 66t-31.5 51.5t-60.5 20.5q-43 0 -66.5 -22.5
t-34 -55.5t-12 -70.5t-1.5 -68.5q0 -33 1 -69t11.5 -66.5t34 -50.5t68.5 -20q42 0 63.5 23.5t30.5 58t9.5 72.5t0.5 67z" />
    <glyph glyph-name="q" unicode="q" horiz-adv-x="457" 
d="M388 504q-2 -30 -3 -58.5t-1 -58.5v-579h-57v243q-23 -32 -50.5 -45.5t-65.5 -13.5q-56 0 -88 26.5t-47.5 67t-19 88.5t-3.5 90q0 40 5.5 84t22.5 81t48.5 61.5t83.5 24.5q48 0 73 -18.5t46 -54.5l1 62h55zM330 248q0 50 -3.5 90.5t-15 69t-33.5 43.5t-60 15
q-39 0 -60.5 -21t-32 -52t-12.5 -66.5t-2 -63.5q0 -44 3 -84t14 -71t31.5 -49t55.5 -18q45 0 68.5 20t34 51t11.5 67.5t1 68.5z" />
    <glyph glyph-name="r" unicode="r" horiz-adv-x="279" 
d="M263 457q-5 1 -15 1q-59 0 -88.5 -37.5t-29.5 -92.5v-328h-57v412q0 23 -1 46t-3 46h55l1 -67q20 36 53 57t73 21h5.5t6.5 -1v-57v0z" />
    <glyph glyph-name="s" unicode="s" horiz-adv-x="370" 
d="M327 134q0 -144 -145 -144q-77 0 -109 40t-32 108v12h57v-12q0 -49 19.5 -75.5t64.5 -26.5q42 0 64.5 22.5t22.5 64.5q0 22 -4.5 38t-15 29t-27 24.5t-40.5 24.5l-40 22q-38 21 -62.5 50t-24.5 78q0 63 38 94.5t98 31.5q70 0 101.5 -35.5t31.5 -105.5v-5h-57v12
q0 42 -18.5 64.5t-61.5 22.5q-36 0 -55.5 -21.5t-19.5 -55.5q0 -33 20.5 -53.5t49.5 -37.5l38 -22q20 -11 39.5 -24t34.5 -30t24 -39t9 -51z" />
    <glyph glyph-name="t" unicode="t" horiz-adv-x="273" 
d="M251 0q-13 -2 -25.5 -3t-25.5 -1q-33 0 -53.5 7.5t-31 22.5t-14 37t-3.5 51v343h-78v47h78v97l57 26v-123h96v-47h-96v-339q0 -24 3.5 -38t10.5 -21.5t18.5 -9.5t26.5 -2q8 0 18.5 1t18.5 3v-51v0z" />
    <glyph glyph-name="u" unicode="u" horiz-adv-x="464" 
d="M340 0l-1 69q-23 -37 -54 -57t-76 -20q-39 0 -65 12.5t-42.5 34.5t-23.5 51.5t-7 63.5v350h57v-314q0 -25 1.5 -51.5t10 -48t27 -35t52.5 -13.5q38 0 60.5 14.5t34.5 38.5t16 53.5t4 59.5v296h57v-379q0 -31 1 -62.5t3 -62.5h-55z" />
    <glyph glyph-name="v" unicode="v" horiz-adv-x="390" 
d="M228 0h-65l-143 504h62l115 -440l118 440h55z" />
    <glyph glyph-name="w" unicode="w" horiz-adv-x="658" 
d="M505 0h-72l-107 429l-100 -429h-72l-132 504h60l110 -448l102 448h70l109 -448l106 448h57z" />
    <glyph glyph-name="x" unicode="x" horiz-adv-x="368" 
d="M289 0l-107 223l-108 -223h-64l141 268l-119 236h68l89 -191l94 191h62l-126 -234l139 -270h-69z" />
    <glyph glyph-name="y" unicode="y" horiz-adv-x="390" 
d="M171 -192h-56l56 190l-151 506h61l118 -428l115 428h56z" />
    <glyph glyph-name="z" unicode="z" horiz-adv-x="320" 
d="M28 0v52l199 403h-186v49h246v-52l-199 -403h202v-49h-262z" />
    <glyph glyph-name="braceleft" unicode="{" horiz-adv-x="369" 
d="M20 302q39 5 66 14t43.5 25.5t23.5 42t7 63.5v75q0 42 6.5 77t26 61t55.5 42t96 21v-35q-43 -4 -69 -16.5t-40 -33.5t-18.5 -52t-4.5 -71v-50q0 -32 -3.5 -61.5t-16 -53.5t-37 -41.5t-66.5 -23.5q42 -6 66.5 -23.5t37 -41.5t16 -54t3.5 -61v-50q0 -41 4.5 -71.5
t18.5 -51.5t40 -33.5t69 -16.5v-35q-60 4 -96 20.5t-55.5 42.5t-26 61t-6.5 77v75q0 38 -7 63.5t-23.5 41.5t-43.5 25t-66 14v35z" />
    <glyph glyph-name="bar" unicode="|" horiz-adv-x="222" 
d="M84 -214v1001h54v-1001h-54z" />
    <glyph glyph-name="braceright" unicode="}" horiz-adv-x="369" 
d="M349 267q-39 -5 -66 -14t-43.5 -25t-23.5 -41.5t-7 -63.5v-75q0 -42 -6.5 -77t-26 -61t-55.5 -42.5t-96 -20.5v35q43 4 69 16.5t40 33.5t18.5 51.5t4.5 71.5v50q0 31 3.5 61t16 54t37 41.5t66.5 23.5q-42 6 -66.5 23.5t-37 41.5t-16 53.5t-3.5 61.5v50q0 40 -4.5 71
t-18.5 52t-40 33.5t-69 16.5v35q60 -5 96 -21t55.5 -42t26 -61t6.5 -77v-75q0 -38 7 -63.5t23.5 -42t43.5 -25.5t66 -14v-35z" />
    <glyph glyph-name="asciitilde" unicode="~" horiz-adv-x="529" 
d="M482 309q-6 -53 -33.5 -88t-82.5 -35q-24 0 -50.5 10t-58.5 28q-35 20 -58 28.5t-42 8.5q-31 0 -46.5 -20t-22.5 -54h-42q3 26 11.5 48.5t22.5 39t34.5 26t48.5 9.5q24 0 50.5 -10t58.5 -28q35 -20 57.5 -28.5t42.5 -8.5q31 0 46.5 20t22.5 54h41v0z" />
    <glyph glyph-name="Euro" unicode="&#x20ac;" 
d="M302 -12q-65 0 -105.5 23.5t-63 64t-31 95t-9.5 116.5h-83l9 46h73v80h-81l9 46h73q4 55 14.5 105t34 88t62 60.5t98.5 22.5q29 0 50.5 -5t36.5 -11.5t24.5 -14.5t15.5 -14l-12 -63q-14 23 -43.5 40t-72.5 17q-44 0 -72 -20.5t-44.5 -52.5t-23.5 -72t-9 -80h222l-9 -46
h-214v-80h196l-9 -46h-186q1 -50 6 -95t21 -79t45.5 -54t79.5 -20q41 0 68 14t45 35v-66q-20 -16 -46.5 -25t-68.5 -9z" />
    <glyph glyph-name="quotesinglbase" unicode="&#x201a;" horiz-adv-x="227" 
d="M110 -103h-50l39 182h68z" />
    <glyph glyph-name="florin" unicode="&#x192;" 
d="M350 674q-14 6 -30 6q-32 0 -47 -24t-22 -79l-12 -97h88l-6 -48h-88l-52 -436q-11 -89 -44 -123.5t-87 -34.5h-9t-9 1l7 53q3 -1 9 -1q29 0 49.5 25t28.5 93l49 423h-78l7 48h77l9 76q5 44 13.5 77.5t22.5 56t36.5 34t56.5 11.5q19 0 39 -6z" />
    <glyph glyph-name="quotedblbase" unicode="&#x201e;" horiz-adv-x="368" 
d="M251 -103h-50l39 182h68zM110 -103h-50l39 182h68z" />
    <glyph glyph-name="ellipsis" unicode="&#x2026;" horiz-adv-x="1000" 
d="M798 0v79h71v-79h-71zM464 0v79h71v-79h-71zM131 0v79h71v-79h-71z" />
    <glyph glyph-name="dagger" unicode="&#x2020;" horiz-adv-x="418" 
d="M237 502v-502h-56v502h-134v49h134v172h56v-172h134v-49h-134z" />
    <glyph glyph-name="daggerdbl" unicode="&#x2021;" horiz-adv-x="418" 
d="M237 164v-164h-56v164h-134v49h134v300h-134v49h134v161h56v-161h134v-49h-134v-300h134v-49h-134z" />
    <glyph glyph-name="circumflex" unicode="&#x2c6;" horiz-adv-x="175" 
d="M174 594l-86 99l-86 -99h-51l103 139h67l103 -139h-50z" />
    <glyph glyph-name="perthousand" unicode="&#x2030;" horiz-adv-x="888" 
d="M114 -33h-53l422 789h53zM263 562q0 -29 -4 -59.5t-16.5 -55.5t-34.5 -41t-58 -16t-58.5 16t-34.5 41t-16.5 55.5t-4.5 59.5t4.5 59.5t16.5 55t34.5 40.5t58.5 16t58 -15t34.5 -39t16.5 -55t4 -62zM211 562q0 22 -1.5 44.5t-7.5 40.5t-18 29.5t-34 11.5t-34.5 -11.5
t-18.5 -29.5t-7.5 -40.5t-1.5 -44.5q0 -23 1.5 -45.5t7.5 -40.5t18.5 -29.5t34.5 -11.5t34 11.5t18 29.5t7.5 40.5t1.5 45.5zM562 162q0 -29 -4 -59.5t-16.5 -55.5t-34.5 -41t-58 -16t-58.5 16t-34.5 41t-16.5 55.5t-4.5 59.5t4.5 59.5t16.5 55t34.5 40.5t58.5 16t58 -15
t34.5 -39t16.5 -55t4 -62zM510 162q0 22 -1.5 44.5t-7.5 40.5t-18 29.5t-34 11.5t-34.5 -11.5t-18.5 -29.5t-7.5 -40.5t-1.5 -44.5q0 -23 1.5 -45.5t7.5 -40.5t18.5 -29.5t34.5 -11.5t34 11.5t18 29.5t7.5 40.5t1.5 45.5zM852 162q0 -29 -4 -59.5t-16.5 -55.5t-34.5 -41
t-58 -16t-58.5 16t-34.5 41t-16.5 55.5t-4.5 59.5t4.5 59.5t16.5 55t34.5 40.5t58.5 16t58 -15t34.5 -39t16.5 -55t4 -62zM800 162q0 22 -1.5 44.5t-7.5 40.5t-18 29.5t-34 11.5t-34.5 -11.5t-18.5 -29.5t-7.5 -40.5t-1.5 -44.5q0 -23 1.5 -45.5t7.5 -40.5t18.5 -29.5
t34.5 -11.5t34 11.5t18 29.5t7.5 40.5t1.5 45.5z" />
    <glyph glyph-name="Scaron" unicode="&#x160;" horiz-adv-x="476" 
d="M424 172q0 -89 -49 -137.5t-134 -48.5q-102 0 -146.5 51.5t-44.5 150.5v8h63v-8q0 -33 5.5 -60.5t20 -47.5t39 -31t62.5 -11q66 0 93 35.5t27 95.5q0 28 -5.5 49t-17 38.5t-30 32.5t-44.5 31l-80 49q-26 16 -49 34t-39.5 40.5t-26 51.5t-9.5 67q0 41 13.5 73.5t38 55
t58.5 34.5t74 12q85 0 131 -41t46 -129v-22h-62v16q0 28 -5 51t-18.5 39t-36 25t-57.5 9q-56 0 -87 -32t-31 -89q0 -28 6 -48.5t17.5 -37t29 -30t40.5 -27.5l85 -52q34 -21 57.5 -40.5t38 -42.5t21 -50.5t6.5 -63.5zM275 782h-67l-103 139h51l86 -99l86 99h50z" />
    <glyph glyph-name="guilsinglleft" unicode="&#x2039;" horiz-adv-x="226" 
d="M128 59l-82 195l86 193h48l-74 -193l74 -195h-52z" />
    <glyph glyph-name="OE" unicode="&#x152;" horiz-adv-x="750" 
d="M469 0q-38 0 -76.5 -3t-76.5 -3q-86 0 -135.5 26.5t-75 73.5t-32.5 111.5t-7 141.5q0 72 5.5 140t29.5 121t72.5 85t135.5 32q43 0 83 -3t83 -3h228v-53h-247v-267h236v-53h-236v-293h254v-53h-241zM396 668q-20 2 -41.5 3t-41.5 1q-50 0 -83.5 -16t-54 -42.5t-30 -60.5
t-13 -70t-3 -72t0.5 -65q0 -56 2 -110t18.5 -96t54.5 -67.5t111 -25.5q20 0 40 1.5t40 3.5v616z" />
    <glyph glyph-name="Zcaron" unicode="&#x17d;" horiz-adv-x="435" 
d="M30 0v56l314 614h-295v53h356v-62l-310 -608h310v-53h-375zM256 782h-67l-103 139h51l86 -99l86 99h50z" />
    <glyph glyph-name="quoteleft" unicode="&#x2018;" horiz-adv-x="227" 
d="M128 541h-68l57 182h50z" />
    <glyph glyph-name="quoteright" unicode="&#x2019;" horiz-adv-x="227" 
d="M110 541h-50l39 182h68z" />
    <glyph glyph-name="quotedblleft" unicode="&#x201c;" horiz-adv-x="368" 
d="M269 541h-68l57 182h50zM128 541h-68l57 182h50z" />
    <glyph glyph-name="quotedblright" unicode="&#x201d;" horiz-adv-x="368" 
d="M251 541h-50l39 182h68zM110 541h-50l39 182h68z" />
    <glyph glyph-name="bullet" unicode="&#x2022;" horiz-adv-x="500" 
d="M428 356q0 -37 -14 -69.5t-38 -56.5t-56.5 -38t-69.5 -14t-69.5 14t-56.5 38t-38 56.5t-14 69.5t14 69.5t38 56.5t56.5 38t69.5 14t69.5 -14t56.5 -38t38 -56.5t14 -69.5z" />
    <glyph glyph-name="endash" unicode="&#x2013;" horiz-adv-x="500" 
d="M0 261v46h500v-46h-500z" />
    <glyph glyph-name="emdash" unicode="&#x2014;" horiz-adv-x="1001" 
d="M130 261v46h741v-46h-741z" />
    <glyph glyph-name="tilde" unicode="&#x2dc;" horiz-adv-x="175" 
d="M237 707q-2 -17 -7 -34t-15 -31t-24.5 -23t-33.5 -9q-20 0 -37.5 7t-34 15t-32.5 15t-32 7q-21 0 -32 -15t-15 -34h-35q1 19 7.5 36.5t17 31t26 21.5t36.5 8q17 0 33.5 -7t32.5 -15t32.5 -15t33.5 -7q20 0 30 15.5t12 33.5h37v0z" />
    <glyph glyph-name="trademark" unicode="&#x2122;" horiz-adv-x="739" 
d="M648 367v315l-109 -315h-36l-109 315v-315h-37v356h62l103 -294l103 294h60v-356h-37zM176 686v-320h-41v320h-105v37h251v-37h-105z" />
    <glyph glyph-name="scaron" unicode="&#x161;" horiz-adv-x="370" 
d="M327 134q0 -144 -145 -144q-77 0 -109 40t-32 108v12h57v-12q0 -49 19.5 -75.5t64.5 -26.5q42 0 64.5 22.5t22.5 64.5q0 22 -4.5 38t-15 29t-27 24.5t-40.5 24.5l-40 22q-38 21 -62.5 50t-24.5 78q0 63 38 94.5t98 31.5q70 0 101.5 -35.5t31.5 -105.5v-5h-57v12
q0 42 -18.5 64.5t-61.5 22.5q-36 0 -55.5 -21.5t-19.5 -55.5q0 -33 20.5 -53.5t49.5 -37.5l38 -22q20 -11 39.5 -24t34.5 -30t24 -39t9 -51zM221 594h-67l-103 139h51l86 -99l86 99h50z" />
    <glyph glyph-name="guilsinglright" unicode="&#x203a;" horiz-adv-x="226" 
d="M94 59h-48l74 193l-74 195h52l82 -195z" />
    <glyph glyph-name="oe" unicode="&#x153;" horiz-adv-x="700" 
d="M383 243v-28q0 -29 2.5 -60.5t13 -58t32.5 -44t61 -17.5q28 0 47.5 9t31 25t16.5 38t5 47h55q0 -79 -39 -121.5t-120 -42.5q-50 0 -83 18.5t-53 63.5q-22 -47 -53.5 -64.5t-82.5 -17.5q-57 0 -89.5 20.5t-49 54.5t-20.5 76t-4 86v35q0 45 5 90t22.5 81.5t51.5 59t92 22.5
q49 0 82.5 -21t51.5 -67q20 45 55 66.5t84 21.5t79.5 -18.5t46.5 -48.5t21.5 -68.5t5.5 -78.5v-58h-267zM326 288q0 30 -2 62t-12 58.5t-31 43.5t-58 17q-39 0 -61 -17t-33.5 -45.5t-14 -66t-2.5 -78.5v-67q0 -31 3.5 -60t14.5 -51t32.5 -35t57.5 -13q39 0 60.5 18t31.5 46
t12 62t2 66v60zM591 321q0 25 -3.5 51.5t-14 48t-30.5 35t-52 13.5q-33 0 -54 -15t-33.5 -38.5t-17 -52t-4.5 -55.5v-19h209v32z" />
    <glyph glyph-name="zcaron" unicode="&#x17e;" horiz-adv-x="320" 
d="M28 0v52l199 403h-186v49h246v-52l-199 -403h202v-49h-262zM196 594h-67l-103 139h51l86 -99l86 99h50z" />
    <glyph glyph-name="Ydieresis" unicode="&#x178;" horiz-adv-x="466" 
d="M262 291v-291h-60v291l-194 432h67l160 -370l159 370h64zM277 806v90h62v-90h-62zM127 806v90h62v-90h-62z" />
    <glyph glyph-name="uni00A0" unicode="&#xa0;" horiz-adv-x="218" 
 />
    <glyph glyph-name="exclamdown" unicode="&#xa1;" horiz-adv-x="217" 
d="M74 458v79h69v-79h-69zM74 -186l10 552h50l6 -552h-66z" />
    <glyph glyph-name="cent" unicode="&#xa2;" 
d="M314 361q0 32 -6 56.5t-27 38.5l-94 -413q15 -7 38 -7q27 0 44 8.5t26.5 23.5t13 35t4.5 44h57q0 -71 -33 -114t-109 -43q-28 0 -52 6l-26 -107h-39l29 118q-26 13 -41 36.5t-22.5 55t-9.5 70t-2 82.5q0 46 3 93.5t19 85t49.5 61.5t93.5 24h13.5t11.5 -1l25 103h39
l-26 -110q46 -14 61 -51t17 -95h-57zM245 468q-5 1 -8.5 1h-8.5q-38 0 -58.5 -19.5t-30.5 -51t-12 -70.5t-2 -78q0 -75 6 -118.5t22 -65.5z" />
    <glyph glyph-name="sterling" unicode="&#xa3;" 
d="M354 558v13t-1 13q-2 22 -7 40t-14.5 31.5t-25.5 21t-39 7.5q-57 0 -76 -41t-19 -115v-127h139v-51h-139v-297h229v-53h-360v53h71v297h-78v51h78v100q0 54 6 97.5t23 74t47.5 46.5t79.5 16q78 0 110.5 -43.5t32.5 -122.5v-11h-57z" />
    <glyph glyph-name="currency" unicode="&#xa4;" 
d="M34 194l51 51q-16 22 -24.5 48t-8.5 56q0 29 8.5 55.5t24.5 48.5l-51 51l33 34l52 -52q21 16 47.5 25t56.5 9t56.5 -9t48.5 -25l52 52l33 -34l-52 -51q16 -22 25 -48.5t9 -55.5q0 -30 -9 -56t-25 -48l52 -51l-33 -34l-52 52q-45 -34 -105 -34t-105 34l-51 -52zM342 350
q0 25 -9 47t-25 38.5t-38 26t-47 9.5t-46.5 -9.5t-37.5 -26t-25 -38.5t-9 -47q0 -26 9 -48t25 -38.5t37.5 -26t46.5 -9.5t47 9.5t38 26t25 38.5t9 48z" />
    <glyph glyph-name="yen" unicode="&#xa5;" 
d="M264 311h119v-46h-139v-80h139v-46h-139v-139h-57v139h-139v46h139v80h-139v46h122l-163 412h65l146 -389l154 389h59z" />
    <glyph glyph-name="brokenbar" unicode="&#xa6;" horiz-adv-x="222" 
d="M84 412v250h54v-250h-54zM84 -89v250h54v-250h-54z" />
    <glyph glyph-name="section" unicode="&#xa7;" horiz-adv-x="421" 
d="M358 120q0 -34 -14 -59.5t-36.5 -42t-52 -24.5t-59.5 -8q-32 0 -63.5 4.5t-61.5 15.5v57q26 -11 61 -18.5t64 -7.5q19 0 36.5 5t31.5 15.5t22.5 25.5t8.5 36q0 19 -10 35.5t-26 30.5t-36.5 27t-42.5 25q-22 13 -43.5 26t-38 28.5t-27 33.5t-10.5 41q0 22 10 40t25.5 32.5
t34.5 27t37 23.5q-20 12 -37.5 24.5t-30 27.5t-20 33.5t-7.5 43.5q0 32 12.5 54.5t33.5 37t48 21t56 6.5q26 0 52 -4.5t52 -10.5v-56q-55 19 -109 19q-15 0 -30.5 -4t-27.5 -12.5t-19.5 -21.5t-7.5 -30q0 -18 8.5 -32t23 -26t32.5 -22.5t37 -20.5q22 -12 43.5 -24.5t39 -28
t28 -34t10.5 -42.5q0 -22 -9.5 -41.5t-23.5 -36t-31.5 -30.5t-33.5 -26q20 -12 38.5 -24.5t32.5 -28t22 -35t8 -45.5zM294 380q0 16 -8.5 29t-21.5 23.5t-28 18.5t-27 14q-10 -6 -25 -16t-29 -22.5t-24 -27t-10 -27.5q0 -27 22 -47t70 -50q10 8 24 19.5t27 25.5t21.5 29.5
t8.5 30.5z" />
    <glyph glyph-name="dieresis" unicode="&#xa8;" horiz-adv-x="175" 
d="M132 628v90h62v-90h-62zM-18 628v90h62v-90h-62z" />
    <glyph glyph-name="copyright" unicode="&#xa9;" horiz-adv-x="813" 
d="M537 271q0 -59 -32 -89t-92 -30q-43 0 -69 14.5t-40 41.5t-18.5 65t-4.5 85q0 54 6 94t21.5 66.5t41.5 40t67 13.5q62 0 89.5 -28.5t27.5 -82.5v-7h-54v7q0 30 -14 48t-50 18q-44 0 -61 -38t-17 -128q0 -38 2 -68.5t9.5 -52t22.5 -33t41 -11.5q39 0 54.5 21t15.5 55v7h54
v-8zM780 361q0 -81 -28.5 -150t-78.5 -119t-118.5 -78t-147.5 -28q-80 0 -148 28t-118 78t-78.5 119t-28.5 150t28.5 150t78.5 119.5t118 78.5t148 28q79 0 147.5 -28t118.5 -78.5t78.5 -119.5t28.5 -150zM735 361q0 73 -25 134.5t-68.5 106t-104 69.5t-130.5 25t-130 -25
t-104 -69.5t-69 -106t-25 -134.5q0 -72 25 -133.5t69 -106.5t104 -70.5t130 -25.5t130.5 25.5t104 70.5t68.5 106.5t25 133.5z" />
    <glyph glyph-name="ordfeminine" unicode="&#xaa;" horiz-adv-x="274" 
d="M187 415v27q-30 -31 -74 -31q-40 0 -62.5 26t-22.5 64q0 32 11 52t31.5 31t49.5 15t66 4v10q0 41 -11 55t-40 14q-50 0 -50 -49h-49q2 49 29 69.5t74 20.5q56 0 74 -26t18 -77v-99q0 -54 3 -106h-47zM186 564h-7q-54 0 -78.5 -14t-24.5 -46q0 -20 10.5 -36.5t33.5 -16.5
q38 0 52 26.5t14 68.5v18z" />
    <glyph glyph-name="guillemotleft" unicode="&#xab;" horiz-adv-x="369" 
d="M270 59l-83 195l83 193h53l-76 -193l76 -195h-53zM130 59l-84 195l84 193h51l-75 -193l75 -195h-51z" />
    <glyph glyph-name="logicalnot" unicode="&#xac;" horiz-adv-x="529" 
d="M427 162v163h-379v49h433v-212h-54z" />
    <glyph glyph-name="uni00AD" unicode="&#xad;" horiz-adv-x="264" 
d="M36 239v57h192v-57h-192z" />
    <glyph glyph-name="registered" unicode="&#xae;" horiz-adv-x="389" 
d="M377 557q0 -38 -14.5 -71.5t-39 -58.5t-58 -39.5t-71.5 -14.5t-71 14.5t-58 40t-39 58.5t-14 71q0 37 14 70.5t39 59t58 40t71 14.5t71.5 -14.5t58 -39.5t39 -58.5t14.5 -71.5zM350 557q0 32 -12.5 60.5t-33.5 50t-49.5 34t-60.5 12.5t-60.5 -12.5t-49.5 -34t-33 -50
t-12 -60.5t12 -60.5t33 -50t49.5 -34t60.5 -12.5q33 0 61.5 12.5t49.5 34t33 50t12 60.5zM247 467q-5 11 -6 20.5t-1 17.5q0 21 -11 28t-46 7h-28v-73h-31v183h72q34 0 57.5 -11t23.5 -42q0 -32 -34 -45q20 -10 25 -22t5 -30q0 -8 1.5 -16.5t5.5 -16.5h-33zM246 597
q0 14 -11 21t-38 7h-42v-60h39q28 0 40 7.5t12 24.5z" />
    <glyph glyph-name="macron" unicode="&#xaf;" horiz-adv-x="175" 
d="M-35 632v45h246v-45h-246z" />
    <glyph glyph-name="degree" unicode="&#xb0;" horiz-adv-x="369" 
d="M323 597q0 -29 -11 -54t-29.5 -43.5t-44 -29t-54.5 -10.5t-54.5 10.5t-44 29t-29 43.5t-10.5 54t10.5 54t29 43t44 28.5t54.5 10.5t54.5 -10.5t44 -28.5t29.5 -43t11 -54zM276 597q0 39 -26.5 66.5t-65.5 27.5q-19 0 -35.5 -7.5t-29 -20t-19.5 -30t-7 -36.5
q0 -20 7 -37.5t19.5 -30t29 -20t35.5 -7.5q39 0 65.5 27.5t26.5 67.5z" />
    <glyph glyph-name="plusminus" unicode="&#xb1;" horiz-adv-x="529" 
d="M292 276v-176h-55v176h-189v49h189v176h55v-176h189v-49h-189zM48 0v49h433v-49h-433z" />
    <glyph glyph-name="twosuperior" unicode="&#xb2;" horiz-adv-x="278" 
d="M29 469v41l137 212q26 41 26 76q0 26 -14.5 38.5t-39.5 12.5q-36 0 -48 -21.5t-12 -52.5h-49v8q0 53 28 81.5t82 28.5q48 0 75.5 -24.5t27.5 -71.5q0 -27 -11 -54t-28 -53l-116 -175h156v-46h-214z" />
    <glyph glyph-name="threesuperior" unicode="&#xb3;" horiz-adv-x="278" 
d="M246 589q0 -62 -24 -94t-84 -32q-61 0 -84 31.5t-25 87.5h50q0 -34 11 -54t49 -20q34 0 46 20t12 58q0 44 -15.5 60t-52.5 16h-21v45h18q34 0 52 15t18 61q0 66 -56 66q-35 0 -45.5 -20t-10.5 -54h-48v16q0 48 25.5 75t76.5 27q55 0 80 -28t25 -80q0 -38 -9.5 -60
t-35.5 -39q29 -14 38.5 -37t9.5 -60z" />
    <glyph glyph-name="acute" unicode="&#xb4;" horiz-adv-x="175" 
d="M70 594h-48l106 139h73z" />
    <glyph glyph-name="mu" unicode="&#xb5;" horiz-adv-x="463" 
d="M341 0l-1 71q-18 -38 -45 -59t-69 -21q-40 0 -63.5 17t-33.5 39v-239h-57v696h57v-310q0 -32 4 -59.5t15 -48t30 -32.5t49 -12t51 12.5t33.5 34t18 50t5.5 60.5v305h57v-395v-17.5t0.5 -30l1 -33t1.5 -28.5h-54z" />
    <glyph glyph-name="paragraph" unicode="&#xb6;" horiz-adv-x="546" 
d="M407 0v679h-126v-679h-54v344q-100 5 -153.5 48t-53.5 136q0 56 20 93.5t55 60t81.5 32t99.5 9.5h185v-723h-54z" />
    <glyph glyph-name="periodcentered" unicode="&#xb7;" horiz-adv-x="218" 
d="M74 292v79h71v-79h-71z" />
    <glyph glyph-name="cedilla" unicode="&#xb8;" horiz-adv-x="175" 
d="M190 -124q0 -22 -9 -37.5t-24 -26t-33.5 -15.5t-37.5 -5q-46 0 -89 20l14 30q16 -7 31.5 -11t32.5 -4q24 0 42 11t18 34q0 21 -14 31t-36 10q-19 0 -40 -8l-14 13l57 83h37l-44 -60q16 6 34 6q31 0 53 -19.5t22 -51.5z" />
    <glyph glyph-name="onesuperior" unicode="&#xb9;" horiz-adv-x="278" 
d="M126 469v349q-17 -15 -34 -27.5t-35 -24.5v55q20 12 40.5 30t34.5 36h42v-418h-48z" />
    <glyph glyph-name="ordmasculine" unicode="&#xba;" horiz-adv-x="274" 
d="M242 566q0 -31 -2 -59.5t-12.5 -50t-31.5 -34.5t-59 -13t-59 13t-31.5 34.5t-12.5 50t-2 59.5t2.5 59t13 50t31.5 35t58 13q38 0 59 -13t31.5 -35t12.5 -50t2 -59zM195 566q0 30 -1.5 52t-7.5 36t-17.5 21t-31.5 7t-31.5 -7t-17.5 -21t-7.5 -36t-1.5 -52t1.5 -52t7.5 -36
t17.5 -21t31.5 -7t31.5 7t17.5 21t7.5 36t1.5 52z" />
    <glyph glyph-name="guillemotright" unicode="&#xbb;" horiz-adv-x="369" 
d="M239 59h-51l75 193l-75 195h51l84 -195zM99 59h-53l76 193l-76 195h53l83 -195z" />
    <glyph glyph-name="onequarter" unicode="&#xbc;" horiz-adv-x="715" 
d="M647 101v-101h-46v101h-143v49l126 268h63v-272h47v-45h-47zM168 -33h-53l415 777h53zM126 299v349q-17 -15 -34 -28t-35 -25v56q20 12 40.5 30t34.5 36h42v-418h-48zM601 347l-95 -201h95v201z" />
    <glyph glyph-name="onehalf" unicode="&#xbd;" horiz-adv-x="715" 
d="M466 0v41l140 219q11 17 17 34.5t6 37.5q0 26 -16 37t-39 11q-36 0 -47.5 -21.5t-11.5 -52.5h-49q0 57 26.5 87.5t83.5 30.5q45 0 74 -23t29 -70q0 -29 -11 -55t-27 -50l-117 -180h156v-46h-214zM148 -33h-53l415 777h53zM126 299v349q-17 -15 -34 -28t-35 -25v56
q20 12 40.5 30t34.5 36h42v-418h-48z" />
    <glyph glyph-name="threequarters" unicode="&#xbe;" horiz-adv-x="715" 
d="M647 101v-101h-46v101h-143v49l126 268h63v-272h47v-45h-47zM199 -33h-53l415 777h53zM242 418q0 -56 -23.5 -91t-84.5 -35q-59 0 -83 31.5t-26 87.5h50q0 -34 11.5 -54t49.5 -20q18 0 29.5 6.5t17.5 17t8 24.5t2 29q0 51 -20 66t-69 11v45q21 0 37.5 2t28 10t17 23
t5.5 41q0 28 -12.5 47.5t-43.5 19.5q-37 0 -47 -22t-9 -53h-48q-1 4 -0.5 8t0.5 8q0 48 26 75.5t74 27.5q107 0 107 -109q0 -32 -8.5 -56.5t-36.5 -42.5q31 -14 39.5 -39.5t8.5 -57.5zM601 347l-95 -201h95v201z" />
    <glyph glyph-name="questiondown" unicode="&#xbf;" horiz-adv-x="369" 
d="M327 -48q0 -34 -6.5 -62t-21.5 -48t-40 -31t-62 -11q-42 0 -68 11.5t-41 32.5t-20.5 51t-5.5 67q0 45 8 76t20 55t25.5 45.5t25.5 47.5t20 60.5t8 85.5v35h54v-43q0 -55 -7.5 -91t-18.5 -60.5t-24 -43.5t-24 -40.5t-18.5 -50t-7.5 -72.5q0 -20 1.5 -40t8.5 -36.5
t21.5 -27t40.5 -10.5q24 0 38 8.5t22 22t10.5 31t2.5 36.5v15h59v-13zM161 458v79h69v-79h-69z" />
    <glyph glyph-name="Agrave" unicode="&#xc0;" horiz-adv-x="538" 
d="M457 0l-55 191h-268l-56 -191h-60l217 723h70l215 -723h-63zM268 657l-117 -414h234zM286 782l-131 139h74l105 -139h-48z" />
    <glyph glyph-name="Aacute" unicode="&#xc1;" horiz-adv-x="538" 
d="M457 0l-55 191h-268l-56 -191h-60l217 723h70l215 -723h-63zM268 657l-117 -414h234zM250 782h-48l106 139h73z" />
    <glyph glyph-name="Acircumflex" unicode="&#xc2;" horiz-adv-x="538" 
d="M457 0l-55 191h-268l-56 -191h-60l217 723h70l215 -723h-63zM268 657l-117 -414h234zM354 782l-86 99l-86 -99h-51l103 139h67l103 -139h-50z" />
    <glyph glyph-name="Atilde" unicode="&#xc3;" horiz-adv-x="538" 
d="M457 0l-55 191h-268l-56 -191h-60l217 723h70l215 -723h-63zM268 657l-117 -414h234zM417 895q-2 -17 -7 -34t-15 -31t-24.5 -23t-33.5 -9q-20 0 -37.5 7t-34 15t-32.5 15t-32 7q-21 0 -32 -15t-15 -34h-35q1 19 7.5 36.5t17 31t26 21.5t36.5 8q17 0 33.5 -7t32.5 -15
t32.5 -15t33.5 -7q20 0 30 15.5t12 33.5h37v0z" />
    <glyph glyph-name="Adieresis" unicode="&#xc4;" horiz-adv-x="538" 
d="M457 0l-55 191h-268l-56 -191h-60l217 723h70l215 -723h-63zM268 657l-117 -414h234zM312 806v90h62v-90h-62zM162 806v90h62v-90h-62z" />
    <glyph glyph-name="Aring" unicode="&#xc5;" horiz-adv-x="538" 
d="M457 0l-55 191h-268l-56 -191h-60l217 723h70l215 -723h-63zM268 657l-117 -414h234zM356 839q0 -37 -25.5 -62.5t-62.5 -25.5t-62.5 25.5t-25.5 62.5t25.5 62.5t62.5 25.5t62.5 -25.5t25.5 -62.5zM324 839q0 26 -16 42.5t-40 16.5t-40 -16.5t-16 -42.5t16 -42.5
t40 -16.5t40 16.5t16 42.5z" />
    <glyph glyph-name="AE" unicode="&#xc6;" horiz-adv-x="735" 
d="M410 0l-15 192h-246l-83 -192h-62l315 723h365v-53h-269l24 -271h235v-53h-231l24 -293h228v-53h-285zM354 676l-181 -431h218z" />
    <glyph glyph-name="Ccedilla" unicode="&#xc7;" horiz-adv-x="502" 
d="M363 -124q0 -22 -9 -37.5t-24 -26t-33.5 -15.5t-37.5 -5q-46 0 -89 20l14 30q16 -7 31.5 -11t32.5 -4q24 0 42 11t18 34q0 21 -14 31t-36 10q-19 0 -40 -8l-14 13l47 69q-68 3 -105 30.5t-55 76t-21.5 115t-3.5 146.5q0 71 3 139.5t22.5 122.5t61.5 87t121 33
q51 0 85.5 -14t55.5 -39.5t30 -61t9 -78.5v-17h-62v14q0 29 -5 55t-18 45.5t-36.5 30.5t-59.5 11q-52 0 -81 -24.5t-42.5 -68t-16.5 -103.5t-3 -132q0 -78 3 -137.5t16.5 -99t40.5 -60t76 -20.5q39 0 64 11.5t40 32t21 49t6 61.5v13h63v-13q0 -91 -41.5 -144.5t-131.5 -60.5
l-33 -46q16 6 34 6q31 0 53 -19.5t22 -51.5z" />
    <glyph glyph-name="Egrave" unicode="&#xc8;" horiz-adv-x="442" 
d="M85 0v723h310v-53h-250v-274h239v-51h-239v-292h257v-53h-317zM267 782l-131 139h74l105 -139h-48z" />
    <glyph glyph-name="Eacute" unicode="&#xc9;" horiz-adv-x="442" 
d="M85 0v723h310v-53h-250v-274h239v-51h-239v-292h257v-53h-317zM231 782h-48l106 139h73z" />
    <glyph glyph-name="Ecircumflex" unicode="&#xca;" horiz-adv-x="442" 
d="M85 0v723h310v-53h-250v-274h239v-51h-239v-292h257v-53h-317zM335 782l-86 99l-86 -99h-51l103 139h67l103 -139h-50z" />
    <glyph glyph-name="Edieresis" unicode="&#xcb;" horiz-adv-x="442" 
d="M85 0v723h310v-53h-250v-274h239v-51h-239v-292h257v-53h-317zM293 806v90h62v-90h-62zM143 806v90h62v-90h-62z" />
    <glyph glyph-name="Igrave" unicode="&#xcc;" horiz-adv-x="230" 
d="M85 0v723h60v-723h-60zM134 782l-131 139h74l105 -139h-48z" />
    <glyph glyph-name="Iacute" unicode="&#xcd;" horiz-adv-x="230" 
d="M85 0v723h60v-723h-60zM98 782h-48l106 139h73z" />
    <glyph glyph-name="Icircumflex" unicode="&#xce;" horiz-adv-x="230" 
d="M85 0v723h60v-723h-60zM202 782l-86 99l-86 -99h-51l103 139h67l103 -139h-50z" />
    <glyph glyph-name="Idieresis" unicode="&#xcf;" horiz-adv-x="230" 
d="M85 0v723h60v-723h-60zM160 806v90h62v-90h-62zM10 806v90h62v-90h-62z" />
    <glyph glyph-name="Eth" unicode="&#xd0;" horiz-adv-x="547" 
d="M481 369q0 -123 -13.5 -197t-52.5 -114q-26 -27 -67 -42.5t-101 -15.5h-162v378h-71v46h71v299h162q57 0 95.5 -12t64.5 -34q23 -20 37.5 -44.5t22.5 -60t11 -85t3 -118.5zM417 371q0 91 -8 156t-36 100q-22 28 -56.5 36.5t-67.5 8.5h-104v-248h170v-46h-170v-326h119
q22 0 48.5 7t43.5 21q18 15 30 39t19 59t9.5 83t2.5 110z" />
    <glyph glyph-name="Ntilde" unicode="&#xd1;" horiz-adv-x="603" 
d="M423 0l-281 669v-669h-57v723h95l281 -669v669h57v-723h-95zM446 895q-2 -17 -7 -34t-15 -31t-24.5 -23t-33.5 -9q-20 0 -37.5 7t-34 15t-32.5 15t-32 7q-21 0 -32 -15t-15 -34h-35q1 19 7.5 36.5t17 31t26 21.5t36.5 8q17 0 33.5 -7t32.5 -15t32.5 -15t33.5 -7
q20 0 30 15.5t12 33.5h37v0z" />
    <glyph glyph-name="Ograve" unicode="&#xd2;" horiz-adv-x="547" 
d="M481 362q0 -55 -1 -94t-4 -68t-8.5 -51.5t-13.5 -43.5q-10 -26 -24.5 -48t-35.5 -37.5t-50.5 -24.5t-69.5 -9q-41 0 -70.5 8t-50.5 23t-35.5 35.5t-24.5 44.5q-8 19 -13 38t-8 47.5t-4.5 70.5t-1.5 108q0 64 1.5 110.5t6.5 81.5t15.5 61.5t27.5 50.5q23 33 63.5 52.5
t93.5 19.5q32 0 56 -4.5t42 -13.5t31.5 -21.5t25.5 -27.5q17 -23 27.5 -51t16 -64.5t7 -84t1.5 -108.5zM417 361q0 50 -1 105t-12 104q-5 24 -14 45t-24 36.5t-37.5 24.5t-54.5 9t-55.5 -10t-39.5 -28t-25.5 -42t-13.5 -51q-8 -45 -9 -96t-1 -96q0 -48 0.5 -99.5t9.5 -99.5
q6 -29 15 -52t24.5 -39.5t38.5 -25t56 -8.5q31 0 53 9t37 25t24.5 37.5t15.5 45.5q6 25 9 52.5t4 54.5t0.5 52.5t-0.5 46.5zM292 782l-131 139h74l105 -139h-48z" />
    <glyph glyph-name="Oacute" unicode="&#xd3;" horiz-adv-x="547" 
d="M481 362q0 -55 -1 -94t-4 -68t-8.5 -51.5t-13.5 -43.5q-10 -26 -24.5 -48t-35.5 -37.5t-50.5 -24.5t-69.5 -9q-41 0 -70.5 8t-50.5 23t-35.5 35.5t-24.5 44.5q-8 19 -13 38t-8 47.5t-4.5 70.5t-1.5 108q0 64 1.5 110.5t6.5 81.5t15.5 61.5t27.5 50.5q23 33 63.5 52.5
t93.5 19.5q32 0 56 -4.5t42 -13.5t31.5 -21.5t25.5 -27.5q17 -23 27.5 -51t16 -64.5t7 -84t1.5 -108.5zM417 361q0 50 -1 105t-12 104q-5 24 -14 45t-24 36.5t-37.5 24.5t-54.5 9t-55.5 -10t-39.5 -28t-25.5 -42t-13.5 -51q-8 -45 -9 -96t-1 -96q0 -48 0.5 -99.5t9.5 -99.5
q6 -29 15 -52t24.5 -39.5t38.5 -25t56 -8.5q31 0 53 9t37 25t24.5 37.5t15.5 45.5q6 25 9 52.5t4 54.5t0.5 52.5t-0.5 46.5zM256 782h-48l106 139h73z" />
    <glyph glyph-name="Ocircumflex" unicode="&#xd4;" horiz-adv-x="547" 
d="M481 362q0 -55 -1 -94t-4 -68t-8.5 -51.5t-13.5 -43.5q-10 -26 -24.5 -48t-35.5 -37.5t-50.5 -24.5t-69.5 -9q-41 0 -70.5 8t-50.5 23t-35.5 35.5t-24.5 44.5q-8 19 -13 38t-8 47.5t-4.5 70.5t-1.5 108q0 64 1.5 110.5t6.5 81.5t15.5 61.5t27.5 50.5q23 33 63.5 52.5
t93.5 19.5q32 0 56 -4.5t42 -13.5t31.5 -21.5t25.5 -27.5q17 -23 27.5 -51t16 -64.5t7 -84t1.5 -108.5zM417 361q0 50 -1 105t-12 104q-5 24 -14 45t-24 36.5t-37.5 24.5t-54.5 9t-55.5 -10t-39.5 -28t-25.5 -42t-13.5 -51q-8 -45 -9 -96t-1 -96q0 -48 0.5 -99.5t9.5 -99.5
q6 -29 15 -52t24.5 -39.5t38.5 -25t56 -8.5q31 0 53 9t37 25t24.5 37.5t15.5 45.5q6 25 9 52.5t4 54.5t0.5 52.5t-0.5 46.5zM360 782l-86 99l-86 -99h-51l103 139h67l103 -139h-50z" />
    <glyph glyph-name="Otilde" unicode="&#xd5;" horiz-adv-x="547" 
d="M481 362q0 -55 -1 -94t-4 -68t-8.5 -51.5t-13.5 -43.5q-10 -26 -24.5 -48t-35.5 -37.5t-50.5 -24.5t-69.5 -9q-41 0 -70.5 8t-50.5 23t-35.5 35.5t-24.5 44.5q-8 19 -13 38t-8 47.5t-4.5 70.5t-1.5 108q0 64 1.5 110.5t6.5 81.5t15.5 61.5t27.5 50.5q23 33 63.5 52.5
t93.5 19.5q32 0 56 -4.5t42 -13.5t31.5 -21.5t25.5 -27.5q17 -23 27.5 -51t16 -64.5t7 -84t1.5 -108.5zM417 361q0 50 -1 105t-12 104q-5 24 -14 45t-24 36.5t-37.5 24.5t-54.5 9t-55.5 -10t-39.5 -28t-25.5 -42t-13.5 -51q-8 -45 -9 -96t-1 -96q0 -48 0.5 -99.5t9.5 -99.5
q6 -29 15 -52t24.5 -39.5t38.5 -25t56 -8.5q31 0 53 9t37 25t24.5 37.5t15.5 45.5q6 25 9 52.5t4 54.5t0.5 52.5t-0.5 46.5zM423 895q-2 -17 -7 -34t-15 -31t-24.5 -23t-33.5 -9q-20 0 -37.5 7t-34 15t-32.5 15t-32 7q-21 0 -32 -15t-15 -34h-35q1 19 7.5 36.5t17 31
t26 21.5t36.5 8q17 0 33.5 -7t32.5 -15t32.5 -15t33.5 -7q20 0 30 15.5t12 33.5h37v0z" />
    <glyph glyph-name="Odieresis" unicode="&#xd6;" horiz-adv-x="547" 
d="M481 362q0 -55 -1 -94t-4 -68t-8.5 -51.5t-13.5 -43.5q-10 -26 -24.5 -48t-35.5 -37.5t-50.5 -24.5t-69.5 -9q-41 0 -70.5 8t-50.5 23t-35.5 35.5t-24.5 44.5q-8 19 -13 38t-8 47.5t-4.5 70.5t-1.5 108q0 64 1.5 110.5t6.5 81.5t15.5 61.5t27.5 50.5q23 33 63.5 52.5
t93.5 19.5q32 0 56 -4.5t42 -13.5t31.5 -21.5t25.5 -27.5q17 -23 27.5 -51t16 -64.5t7 -84t1.5 -108.5zM417 361q0 50 -1 105t-12 104q-5 24 -14 45t-24 36.5t-37.5 24.5t-54.5 9t-55.5 -10t-39.5 -28t-25.5 -42t-13.5 -51q-8 -45 -9 -96t-1 -96q0 -48 0.5 -99.5t9.5 -99.5
q6 -29 15 -52t24.5 -39.5t38.5 -25t56 -8.5q31 0 53 9t37 25t24.5 37.5t15.5 45.5q6 25 9 52.5t4 54.5t0.5 52.5t-0.5 46.5zM318 806v90h62v-90h-62zM168 806v90h62v-90h-62z" />
    <glyph glyph-name="multiply" unicode="&#xd7;" horiz-adv-x="529" 
d="M300 241l159 -159l-35 -36l-159 159l-159 -158l-36 35l159 159l-159 159l36 36l159 -159l159 159l35 -36z" />
    <glyph glyph-name="Oslash" unicode="&#xd8;" horiz-adv-x="547" 
d="M447 644q12 -27 19 -61t10.5 -70t4 -71.5t0.5 -64.5v-83.5t-4.5 -88t-16.5 -83t-35 -70t-59.5 -48.5t-91.5 -18q-45 0 -86 14.5t-70 51.5l-47 -84l-37 18l61 109q-21 63 -25 127t-4 130v84t5 87.5t17 83t35 69t59.5 47.5t91.5 18q44 0 81.5 -14.5t67.5 -46.5l45 80
l32 -20zM388 618q-14 30 -40.5 48.5t-73.5 18.5q-32 0 -55.5 -10t-39.5 -28t-25.5 -42t-13.5 -51q-8 -45 -9 -96t-1 -96v-95t8 -95zM417 361q0 49 -1 103.5t-11 103.5l-252 -453q14 -36 42 -56.5t79 -20.5q31 0 53 9t37 25t24.5 37.5t15.5 45.5q6 25 9 52.5t4 54.5t0.5 52.5
t-0.5 46.5z" />
    <glyph glyph-name="Ugrave" unicode="&#xd9;" horiz-adv-x="561" 
d="M480 240q0 -59 -9 -106t-31.5 -80t-61 -50.5t-96.5 -17.5q-64 0 -103.5 19.5t-61 54t-29 82t-7.5 103.5v478h60v-479q0 -41 4.5 -78t19 -65t42.5 -45t75 -17q46 0 73.5 17t42 44.5t18.5 64t4 75.5v483h60v-483v0zM298 782l-131 139h74l105 -139h-48z" />
    <glyph glyph-name="Uacute" unicode="&#xda;" horiz-adv-x="561" 
d="M480 240q0 -59 -9 -106t-31.5 -80t-61 -50.5t-96.5 -17.5q-64 0 -103.5 19.5t-61 54t-29 82t-7.5 103.5v478h60v-479q0 -41 4.5 -78t19 -65t42.5 -45t75 -17q46 0 73.5 17t42 44.5t18.5 64t4 75.5v483h60v-483v0zM262 782h-48l106 139h73z" />
    <glyph glyph-name="Ucircumflex" unicode="&#xdb;" horiz-adv-x="561" 
d="M480 240q0 -59 -9 -106t-31.5 -80t-61 -50.5t-96.5 -17.5q-64 0 -103.5 19.5t-61 54t-29 82t-7.5 103.5v478h60v-479q0 -41 4.5 -78t19 -65t42.5 -45t75 -17q46 0 73.5 17t42 44.5t18.5 64t4 75.5v483h60v-483v0zM366 782l-86 99l-86 -99h-51l103 139h67l103 -139h-50z
" />
    <glyph glyph-name="Udieresis" unicode="&#xdc;" horiz-adv-x="561" 
d="M480 240q0 -59 -9 -106t-31.5 -80t-61 -50.5t-96.5 -17.5q-64 0 -103.5 19.5t-61 54t-29 82t-7.5 103.5v478h60v-479q0 -41 4.5 -78t19 -65t42.5 -45t75 -17q46 0 73.5 17t42 44.5t18.5 64t4 75.5v483h60v-483v0zM324 806v90h62v-90h-62zM174 806v90h62v-90h-62z" />
    <glyph glyph-name="Yacute" unicode="&#xdd;" horiz-adv-x="466" 
d="M262 291v-291h-60v291l-194 432h67l160 -370l159 370h64zM215 782h-48l106 139h73z" />
    <glyph glyph-name="Thorn" unicode="&#xde;" horiz-adv-x="461" 
d="M425 378q0 -67 -14.5 -107t-42 -61t-66 -27.5t-86.5 -6.5h-71v-176h-60v723h60v-161h76q45 0 82.5 -5t64.5 -24t42 -55.5t15 -99.5zM361 372q0 39 -7 65.5t-23 42.5t-42.5 22.5t-64.5 6.5h-79v-280h70q41 0 69 7t45 23.5t24.5 44t7.5 68.5z" />
    <glyph glyph-name="germandbls" unicode="&#xdf;" horiz-adv-x="470" 
d="M443 134q0 -69 -36 -106.5t-105 -37.5q-67 0 -96.5 37t-31.5 100h56q1 -39 18 -65t60 -26q39 0 57.5 26.5t18.5 62.5q0 28 -12 49t-30 39.5t-39.5 35t-39.5 35.5t-30 41t-12 52q0 34 16.5 61t36.5 53t36.5 53.5t16.5 60.5q0 39 -27 59t-65 20q-31 0 -51.5 -12
t-32.5 -31.5t-17 -44.5t-5 -52v-544h-56v552q0 82 41 129t122 47q69 0 108 -30t39 -92q0 -41 -16.5 -71.5t-36.5 -56t-36.5 -49t-16.5 -50.5q0 -20 12.5 -37.5t30.5 -34t40 -34t40 -38t30.5 -45t12.5 -56.5z" />
    <glyph glyph-name="agrave" unicode="&#xe0;" horiz-adv-x="437" 
d="M313 0v70q-14 -20 -28.5 -35t-31 -24.5t-36 -14t-44.5 -4.5q-67 0 -100 42t-33 105q0 59 24.5 92.5t63 50t86 21t94.5 4.5v19q0 27 -1.5 52.5t-10 45.5t-27 32t-52.5 12q-18 0 -35.5 -4.5t-31 -14.5t-22 -25.5t-8.5 -36.5v-4h-58v3q0 34 12.5 58t34 40t50 23.5t60.5 7.5
q44 0 72 -11t44.5 -32t23 -52t6.5 -72v-190q0 -79 3 -158h-55zM308 261h-19q-32 0 -65.5 -3t-60.5 -15t-44.5 -35t-17.5 -63q0 -21 4.5 -40t14.5 -33.5t26.5 -23.5t39.5 -9q36 0 59.5 14.5t37.5 37.5t19.5 51.5t5.5 57.5v61zM238 594l-131 139h74l105 -139h-48z" />
    <glyph glyph-name="aacute" unicode="&#xe1;" horiz-adv-x="437" 
d="M313 0v70q-14 -20 -28.5 -35t-31 -24.5t-36 -14t-44.5 -4.5q-67 0 -100 42t-33 105q0 59 24.5 92.5t63 50t86 21t94.5 4.5v19q0 27 -1.5 52.5t-10 45.5t-27 32t-52.5 12q-18 0 -35.5 -4.5t-31 -14.5t-22 -25.5t-8.5 -36.5v-4h-58v3q0 34 12.5 58t34 40t50 23.5t60.5 7.5
q44 0 72 -11t44.5 -32t23 -52t6.5 -72v-190q0 -79 3 -158h-55zM308 261h-19q-32 0 -65.5 -3t-60.5 -15t-44.5 -35t-17.5 -63q0 -21 4.5 -40t14.5 -33.5t26.5 -23.5t39.5 -9q36 0 59.5 14.5t37.5 37.5t19.5 51.5t5.5 57.5v61zM203 594h-48l106 139h73z" />
    <glyph glyph-name="acircumflex" unicode="&#xe2;" horiz-adv-x="437" 
d="M313 0v70q-14 -20 -28.5 -35t-31 -24.5t-36 -14t-44.5 -4.5q-67 0 -100 42t-33 105q0 59 24.5 92.5t63 50t86 21t94.5 4.5v19q0 27 -1.5 52.5t-10 45.5t-27 32t-52.5 12q-18 0 -35.5 -4.5t-31 -14.5t-22 -25.5t-8.5 -36.5v-4h-58v3q0 34 12.5 58t34 40t50 23.5t60.5 7.5
q44 0 72 -11t44.5 -32t23 -52t6.5 -72v-190q0 -79 3 -158h-55zM308 261h-19q-32 0 -65.5 -3t-60.5 -15t-44.5 -35t-17.5 -63q0 -21 4.5 -40t14.5 -33.5t26.5 -23.5t39.5 -9q36 0 59.5 14.5t37.5 37.5t19.5 51.5t5.5 57.5v61zM307 594l-86 99l-86 -99h-51l103 139h67
l103 -139h-50z" />
    <glyph glyph-name="atilde" unicode="&#xe3;" horiz-adv-x="437" 
d="M313 0v70q-14 -20 -28.5 -35t-31 -24.5t-36 -14t-44.5 -4.5q-67 0 -100 42t-33 105q0 59 24.5 92.5t63 50t86 21t94.5 4.5v19q0 27 -1.5 52.5t-10 45.5t-27 32t-52.5 12q-18 0 -35.5 -4.5t-31 -14.5t-22 -25.5t-8.5 -36.5v-4h-58v3q0 34 12.5 58t34 40t50 23.5t60.5 7.5
q44 0 72 -11t44.5 -32t23 -52t6.5 -72v-190q0 -79 3 -158h-55zM308 261h-19q-32 0 -65.5 -3t-60.5 -15t-44.5 -35t-17.5 -63q0 -21 4.5 -40t14.5 -33.5t26.5 -23.5t39.5 -9q36 0 59.5 14.5t37.5 37.5t19.5 51.5t5.5 57.5v61zM370 707q-2 -17 -7 -34t-15 -31t-24.5 -23
t-33.5 -9q-20 0 -37.5 7t-34 15t-32.5 15t-32 7q-21 0 -32 -15t-15 -34h-35q1 19 7.5 36.5t17 31t26 21.5t36.5 8q17 0 33.5 -7t32.5 -15t32.5 -15t33.5 -7q20 0 30 15.5t12 33.5h37v0z" />
    <glyph glyph-name="adieresis" unicode="&#xe4;" horiz-adv-x="437" 
d="M313 0v70q-14 -20 -28.5 -35t-31 -24.5t-36 -14t-44.5 -4.5q-67 0 -100 42t-33 105q0 59 24.5 92.5t63 50t86 21t94.5 4.5v19q0 27 -1.5 52.5t-10 45.5t-27 32t-52.5 12q-18 0 -35.5 -4.5t-31 -14.5t-22 -25.5t-8.5 -36.5v-4h-58v3q0 34 12.5 58t34 40t50 23.5t60.5 7.5
q44 0 72 -11t44.5 -32t23 -52t6.5 -72v-190q0 -79 3 -158h-55zM308 261h-19q-32 0 -65.5 -3t-60.5 -15t-44.5 -35t-17.5 -63q0 -21 4.5 -40t14.5 -33.5t26.5 -23.5t39.5 -9q36 0 59.5 14.5t37.5 37.5t19.5 51.5t5.5 57.5v61zM265 628v90h62v-90h-62zM115 628v90h62v-90h-62z
" />
    <glyph glyph-name="aring" unicode="&#xe5;" horiz-adv-x="437" 
d="M313 0v70q-14 -20 -28.5 -35t-31 -24.5t-36 -14t-44.5 -4.5q-67 0 -100 42t-33 105q0 59 24.5 92.5t63 50t86 21t94.5 4.5v19q0 27 -1.5 52.5t-10 45.5t-27 32t-52.5 12q-18 0 -35.5 -4.5t-31 -14.5t-22 -25.5t-8.5 -36.5v-4h-58v3q0 34 12.5 58t34 40t50 23.5t60.5 7.5
q44 0 72 -11t44.5 -32t23 -52t6.5 -72v-190q0 -79 3 -158h-55zM308 261h-19q-32 0 -65.5 -3t-60.5 -15t-44.5 -35t-17.5 -63q0 -21 4.5 -40t14.5 -33.5t26.5 -23.5t39.5 -9q36 0 59.5 14.5t37.5 37.5t19.5 51.5t5.5 57.5v61zM309 671q0 -37 -25.5 -62.5t-62.5 -25.5
t-62.5 25.5t-25.5 62.5t25.5 62.5t62.5 25.5t62.5 -25.5t25.5 -62.5zM277 671q0 26 -16 42.5t-40 16.5t-40 -16.5t-16 -42.5t16 -42.5t40 -16.5t40 16.5t16 42.5z" />
    <glyph glyph-name="ae" unicode="&#xe6;" horiz-adv-x="683" 
d="M363 251v-36q0 -29 3 -60.5t14.5 -57.5t33.5 -42.5t60 -16.5q55 0 78 29t23 77v10h56v-6q0 -75 -41.5 -116.5t-116.5 -41.5q-54 0 -87 24t-54 73q-17 -45 -52.5 -71t-84.5 -26q-70 0 -112.5 39t-42.5 109q0 55 22 87t56.5 48t78 20t87.5 4h22v19q0 25 -2 52t-11 49
t-28 36t-53 14q-46 0 -71 -20.5t-29 -66.5h-59q0 33 12.5 58.5t33.5 42.5t49 25.5t59 8.5q45 0 81 -16.5t54 -60.5q22 40 56 58.5t79 18.5q59 0 91 -23t46.5 -59.5t16.5 -81.5t2 -89v-11h-270zM306 251h-16q-32 0 -66 -2t-62 -13t-46 -34t-18 -64q0 -45 24 -71.5t71 -26.5
q37 0 59.5 16.5t34.5 42t15.5 56.5t3.5 60v36zM577 318q0 26 -3.5 53t-14.5 49t-32 36t-55 14q-32 0 -53 -14t-33.5 -36t-17.5 -49.5t-5 -54.5v-19h214v21z" />
    <glyph glyph-name="ccedilla" unicode="&#xe7;" horiz-adv-x="393" 
d="M302 361q0 23 -3.5 43t-13 34.5t-26.5 22.5t-43 8q-38 0 -58.5 -19.5t-30.5 -51t-12 -70.5t-2 -78q0 -65 5.5 -106.5t17.5 -65.5t31 -33t46 -9t44 8.5t26.5 23.5t13 35t4.5 44h57q0 -69 -30 -111t-101 -46l-36 -49q16 6 34 6q31 0 53 -19.5t22 -51.5q0 -22 -9 -37.5
t-24 -26t-33.5 -15.5t-37.5 -5q-46 0 -89 20l14 30q16 -7 31.5 -11t32.5 -4q24 0 42 11t18 34q0 21 -14 31t-36 10q-19 0 -40 -8l-14 13l50 74q-48 4 -75.5 25t-41.5 55t-17.5 79.5t-3.5 99.5q0 46 3 93.5t19 85t49.5 61.5t93.5 24q42 0 69 -10.5t42.5 -30t22 -48t7.5 -65.5
h-57z" />
    <glyph glyph-name="egrave" unicode="&#xe8;" horiz-adv-x="435" 
d="M112 243v-29q0 -42 4 -75t15.5 -56t32.5 -35t55 -12q32 0 52.5 9.5t32 25.5t16 37.5t5.5 45.5h57q-2 -35 -10 -64.5t-27 -52t-49.5 -35t-76.5 -12.5q-54 0 -86.5 18.5t-50 50.5t-23.5 74.5t-6 90.5q0 50 3 102t19 94t51 68.5t99 26.5q48 0 79 -15.5t49 -43.5t25 -65.5
t7 -81.5v-66h-273zM326 289v28.5t-1 33.5q-2 23 -7.5 44t-17 37.5t-29.5 26.5t-45 10q-56 0 -80.5 -33t-29.5 -81q-3 -33 -3 -66h213zM236 594l-131 139h74l105 -139h-48z" />
    <glyph glyph-name="eacute" unicode="&#xe9;" horiz-adv-x="435" 
d="M112 243v-29q0 -42 4 -75t15.5 -56t32.5 -35t55 -12q32 0 52.5 9.5t32 25.5t16 37.5t5.5 45.5h57q-2 -35 -10 -64.5t-27 -52t-49.5 -35t-76.5 -12.5q-54 0 -86.5 18.5t-50 50.5t-23.5 74.5t-6 90.5q0 50 3 102t19 94t51 68.5t99 26.5q48 0 79 -15.5t49 -43.5t25 -65.5
t7 -81.5v-66h-273zM326 289v28.5t-1 33.5q-2 23 -7.5 44t-17 37.5t-29.5 26.5t-45 10q-56 0 -80.5 -33t-29.5 -81q-3 -33 -3 -66h213zM201 594h-48l106 139h73z" />
    <glyph glyph-name="ecircumflex" unicode="&#xea;" horiz-adv-x="435" 
d="M112 243v-29q0 -42 4 -75t15.5 -56t32.5 -35t55 -12q32 0 52.5 9.5t32 25.5t16 37.5t5.5 45.5h57q-2 -35 -10 -64.5t-27 -52t-49.5 -35t-76.5 -12.5q-54 0 -86.5 18.5t-50 50.5t-23.5 74.5t-6 90.5q0 50 3 102t19 94t51 68.5t99 26.5q48 0 79 -15.5t49 -43.5t25 -65.5
t7 -81.5v-66h-273zM326 289v28.5t-1 33.5q-2 23 -7.5 44t-17 37.5t-29.5 26.5t-45 10q-56 0 -80.5 -33t-29.5 -81q-3 -33 -3 -66h213zM305 594l-86 99l-86 -99h-51l103 139h67l103 -139h-50z" />
    <glyph glyph-name="edieresis" unicode="&#xeb;" horiz-adv-x="435" 
d="M112 243v-29q0 -42 4 -75t15.5 -56t32.5 -35t55 -12q32 0 52.5 9.5t32 25.5t16 37.5t5.5 45.5h57q-2 -35 -10 -64.5t-27 -52t-49.5 -35t-76.5 -12.5q-54 0 -86.5 18.5t-50 50.5t-23.5 74.5t-6 90.5q0 50 3 102t19 94t51 68.5t99 26.5q48 0 79 -15.5t49 -43.5t25 -65.5
t7 -81.5v-66h-273zM326 289v28.5t-1 33.5q-2 23 -7.5 44t-17 37.5t-29.5 26.5t-45 10q-56 0 -80.5 -33t-29.5 -81q-3 -33 -3 -66h213zM263 628v90h62v-90h-62zM113 628v90h62v-90h-62z" />
    <glyph glyph-name="igrave" unicode="&#xec;" horiz-adv-x="203" 
d="M73 0v504h57v-504h-57zM119 594l-131 139h74l105 -139h-48z" />
    <glyph glyph-name="iacute" unicode="&#xed;" horiz-adv-x="203" 
d="M73 0v504h57v-504h-57zM84 594h-48l106 139h73z" />
    <glyph glyph-name="icircumflex" unicode="&#xee;" horiz-adv-x="203" 
d="M73 0v504h57v-504h-57zM188 594l-86 99l-86 -99h-51l103 139h67l103 -139h-50z" />
    <glyph glyph-name="idieresis" unicode="&#xef;" horiz-adv-x="203" 
d="M73 0v504h57v-504h-57zM146 628v90h62v-90h-62zM-4 628v90h62v-90h-62z" />
    <glyph glyph-name="eth" unicode="&#xf0;" horiz-adv-x="439" 
d="M386 278q0 -60 -3.5 -112.5t-20 -91.5t-50.5 -61.5t-95 -22.5q-60 0 -93 21.5t-48.5 57.5t-19 83.5t-3.5 99.5q0 46 3 92.5t19 84t49.5 61.5t94.5 24q32 0 58 -10.5t44 -37.5q-6 54 -27 95.5t-60 78.5l-90 -53l-29 30l86 49q-21 11 -41.5 21.5t-43.5 18.5l41 37
q25 -9 48.5 -20.5t44.5 -27.5l86 49l28 -28l-81 -48q40 -35 61 -82t30.5 -99t10.5 -106t1 -103zM327 245q0 32 -0.5 70.5t-9.5 71.5t-31 55.5t-64 22.5q-44 0 -67 -24t-32.5 -59t-10 -75t-0.5 -71q0 -39 2 -75.5t11.5 -64t31 -44t60.5 -16.5q40 0 62 16t32.5 44t13 66
t2.5 83z" />
    <glyph glyph-name="ntilde" unicode="&#xf1;" horiz-adv-x="464" 
d="M336 0v314q0 25 -1 52t-9.5 49t-26.5 36t-52 14q-35 0 -57.5 -15t-36 -39.5t-18.5 -54.5t-5 -60v-296h-57v379q0 31 -1 62.5t-3 62.5h55l1 -69q23 37 55.5 58.5t77.5 21.5q38 0 64 -12t41.5 -33.5t22.5 -50.5t7 -63v-356h-57zM382 707q-2 -17 -7 -34t-15 -31t-24.5 -23
t-33.5 -9q-20 0 -37.5 7t-34 15t-32.5 15t-32 7q-21 0 -32 -15t-15 -34h-35q1 19 7.5 36.5t17 31t26 21.5t36.5 8q17 0 33.5 -7t32.5 -15t32.5 -15t33.5 -7q20 0 30 15.5t12 33.5h37v0z" />
    <glyph glyph-name="ograve" unicode="&#xf2;" horiz-adv-x="439" 
d="M386 249q0 -62 -6.5 -110.5t-25.5 -81.5t-52 -50t-85 -17q-55 0 -87.5 18t-49.5 52t-22 81t-5 106q0 55 5 104t23 85.5t52 57.5t91 21t89.5 -20t48.5 -55t20 -84t4 -107zM327 266q0 31 -1 66.5t-10 66t-30.5 50.5t-62.5 20q-43 0 -66 -21t-33 -51.5t-11 -66.5t-1 -66v-58
q0 -29 2 -59t12.5 -55t32 -40.5t60.5 -15.5q37 0 58.5 15t32.5 39t14 54t3 60v62zM236 594l-131 139h74l105 -139h-48z" />
    <glyph glyph-name="oacute" unicode="&#xf3;" horiz-adv-x="439" 
d="M386 249q0 -62 -6.5 -110.5t-25.5 -81.5t-52 -50t-85 -17q-55 0 -87.5 18t-49.5 52t-22 81t-5 106q0 55 5 104t23 85.5t52 57.5t91 21t89.5 -20t48.5 -55t20 -84t4 -107zM327 266q0 31 -1 66.5t-10 66t-30.5 50.5t-62.5 20q-43 0 -66 -21t-33 -51.5t-11 -66.5t-1 -66v-58
q0 -29 2 -59t12.5 -55t32 -40.5t60.5 -15.5q37 0 58.5 15t32.5 39t14 54t3 60v62zM201 594h-48l106 139h73z" />
    <glyph glyph-name="ocircumflex" unicode="&#xf4;" horiz-adv-x="439" 
d="M386 249q0 -62 -6.5 -110.5t-25.5 -81.5t-52 -50t-85 -17q-55 0 -87.5 18t-49.5 52t-22 81t-5 106q0 55 5 104t23 85.5t52 57.5t91 21t89.5 -20t48.5 -55t20 -84t4 -107zM327 266q0 31 -1 66.5t-10 66t-30.5 50.5t-62.5 20q-43 0 -66 -21t-33 -51.5t-11 -66.5t-1 -66v-58
q0 -29 2 -59t12.5 -55t32 -40.5t60.5 -15.5q37 0 58.5 15t32.5 39t14 54t3 60v62zM305 594l-86 99l-86 -99h-51l103 139h67l103 -139h-50z" />
    <glyph glyph-name="otilde" unicode="&#xf5;" horiz-adv-x="439" 
d="M386 249q0 -62 -6.5 -110.5t-25.5 -81.5t-52 -50t-85 -17q-55 0 -87.5 18t-49.5 52t-22 81t-5 106q0 55 5 104t23 85.5t52 57.5t91 21t89.5 -20t48.5 -55t20 -84t4 -107zM327 266q0 31 -1 66.5t-10 66t-30.5 50.5t-62.5 20q-43 0 -66 -21t-33 -51.5t-11 -66.5t-1 -66v-58
q0 -29 2 -59t12.5 -55t32 -40.5t60.5 -15.5q37 0 58.5 15t32.5 39t14 54t3 60v62zM368 707q-2 -17 -7 -34t-15 -31t-24.5 -23t-33.5 -9q-20 0 -37.5 7t-34 15t-32.5 15t-32 7q-21 0 -32 -15t-15 -34h-35q1 19 7.5 36.5t17 31t26 21.5t36.5 8q17 0 33.5 -7t32.5 -15t32.5 -15
t33.5 -7q20 0 30 15.5t12 33.5h37v0z" />
    <glyph glyph-name="odieresis" unicode="&#xf6;" horiz-adv-x="439" 
d="M386 249q0 -62 -6.5 -110.5t-25.5 -81.5t-52 -50t-85 -17q-55 0 -87.5 18t-49.5 52t-22 81t-5 106q0 55 5 104t23 85.5t52 57.5t91 21t89.5 -20t48.5 -55t20 -84t4 -107zM327 266q0 31 -1 66.5t-10 66t-30.5 50.5t-62.5 20q-43 0 -66 -21t-33 -51.5t-11 -66.5t-1 -66v-58
q0 -29 2 -59t12.5 -55t32 -40.5t60.5 -15.5q37 0 58.5 15t32.5 39t14 54t3 60v62zM263 628v90h62v-90h-62zM113 628v90h62v-90h-62z" />
    <glyph glyph-name="divide" unicode="&#xf7;" horiz-adv-x="529" 
d="M238 396v77h54v-77h-54zM48 226v49h433v-49h-433zM238 28v77h54v-77h-54z" />
    <glyph glyph-name="oslash" unicode="&#xf8;" horiz-adv-x="439" 
d="M358 453q23 -39 25 -86.5t2 -91.5q0 -49 -1.5 -100.5t-16.5 -93.5t-49.5 -68.5t-101.5 -26.5q-31 0 -57 8t-51 27l-45 -75l-36 17l53 90q-11 16 -17 40t-8.5 49.5t-2.5 50.5v44q0 49 2 98.5t18 89.5t50.5 65t100.5 25q29 0 56.5 -7.5t50.5 -25.5l48 81l32 -20zM301 432
q-12 17 -30.5 27t-47.5 10q-43 0 -66 -21t-33 -51.5t-11 -66.5t-1 -66v-58q0 -22 0.5 -44.5t5.5 -42.5zM327 266q0 28 -0.5 59.5t-7.5 60.5l-181 -314q11 -17 30.5 -26.5t50.5 -9.5q37 0 58.5 15t32.5 39t14 54t3 60v62z" />
    <glyph glyph-name="ugrave" unicode="&#xf9;" horiz-adv-x="464" 
d="M340 0l-1 69q-23 -37 -54 -57t-76 -20q-39 0 -65 12.5t-42.5 34.5t-23.5 51.5t-7 63.5v350h57v-314q0 -25 1.5 -51.5t10 -48t27 -35t52.5 -13.5q38 0 60.5 14.5t34.5 38.5t16 53.5t4 59.5v296h57v-379q0 -31 1 -62.5t3 -62.5h-55zM247 594l-131 139h74l105 -139h-48z" />
    <glyph glyph-name="uacute" unicode="&#xfa;" horiz-adv-x="464" 
d="M340 0l-1 69q-23 -37 -54 -57t-76 -20q-39 0 -65 12.5t-42.5 34.5t-23.5 51.5t-7 63.5v350h57v-314q0 -25 1.5 -51.5t10 -48t27 -35t52.5 -13.5q38 0 60.5 14.5t34.5 38.5t16 53.5t4 59.5v296h57v-379q0 -31 1 -62.5t3 -62.5h-55zM212 594h-48l106 139h73z" />
    <glyph glyph-name="ucircumflex" unicode="&#xfb;" horiz-adv-x="464" 
d="M340 0l-1 69q-23 -37 -54 -57t-76 -20q-39 0 -65 12.5t-42.5 34.5t-23.5 51.5t-7 63.5v350h57v-314q0 -25 1.5 -51.5t10 -48t27 -35t52.5 -13.5q38 0 60.5 14.5t34.5 38.5t16 53.5t4 59.5v296h57v-379q0 -31 1 -62.5t3 -62.5h-55zM316 594l-86 99l-86 -99h-51l103 139h67
l103 -139h-50z" />
    <glyph glyph-name="udieresis" unicode="&#xfc;" horiz-adv-x="464" 
d="M340 0l-1 69q-23 -37 -54 -57t-76 -20q-39 0 -65 12.5t-42.5 34.5t-23.5 51.5t-7 63.5v350h57v-314q0 -25 1.5 -51.5t10 -48t27 -35t52.5 -13.5q38 0 60.5 14.5t34.5 38.5t16 53.5t4 59.5v296h57v-379q0 -31 1 -62.5t3 -62.5h-55zM274 628v90h62v-90h-62zM124 628v90h62
v-90h-62z" />
    <glyph glyph-name="yacute" unicode="&#xfd;" horiz-adv-x="390" 
d="M171 -192h-56l56 190l-151 506h61l118 -428l115 428h56zM181 594h-48l106 139h73z" />
    <glyph glyph-name="thorn" unicode="&#xfe;" horiz-adv-x="457" 
d="M404 264q0 -44 -3 -91.5t-18 -87.5t-47 -66t-90 -26q-38 0 -65.5 13t-50.5 45v-243h-57v915h57v-275q21 36 49 51.5t70 15.5q54 0 84.5 -24t46.5 -60.5t20 -81t4 -85.5zM346 263q0 29 -1.5 64t-11.5 66t-31.5 51.5t-60.5 20.5q-43 0 -66.5 -22.5t-34 -55.5t-12 -70.5
t-1.5 -68.5q0 -33 1 -69t11.5 -66.5t34 -50.5t68.5 -20q42 0 63.5 23.5t30.5 58t9.5 72.5t0.5 67z" />
    <glyph glyph-name="ydieresis" unicode="&#xff;" horiz-adv-x="390" 
d="M171 -192h-56l56 190l-151 506h61l118 -428l115 428h56zM243 628v90h62v-90h-62zM93 628v90h62v-90h-62z" />
    <glyph glyph-name=".null" horiz-adv-x="567" 
 />
    <glyph glyph-name="grave.cap" horiz-adv-x="175" 
d="M105 782l-131 139h74l105 -139h-48z" />
    <glyph glyph-name="acute.cap" horiz-adv-x="175" 
d="M70 782h-48l106 139h73z" />
    <glyph glyph-name="circumflex.cap" horiz-adv-x="175" 
d="M174 782l-86 99l-86 -99h-51l103 139h67l103 -139h-50z" />
    <glyph glyph-name="caron.cap" horiz-adv-x="175" 
d="M121 782h-67l-103 139h51l86 -99l86 99h50z" />
    <glyph glyph-name="caron.alt" horiz-adv-x="203" 
d="M124 561h-48l28 162h63z" />
    <glyph glyph-name="tilde.cap" horiz-adv-x="175" 
d="M237 895q-2 -17 -7 -34t-15 -31t-24.5 -23t-33.5 -9q-20 0 -37.5 7t-34 15t-32.5 15t-32 7q-21 0 -32 -15t-15 -34h-35q1 19 7.5 36.5t17 31t26 21.5t36.5 8q17 0 33.5 -7t32.5 -15t32.5 -15t33.5 -7q20 0 30 15.5t12 33.5h37v0z" />
    <glyph glyph-name="dieresis.cap" horiz-adv-x="175" 
d="M132 806v90h62v-90h-62zM-18 806v90h62v-90h-62z" />
    <glyph glyph-name="macron.cap" horiz-adv-x="175" 
d="M-35 810v45h246v-45h-246z" />
    <glyph glyph-name="breve.cap" horiz-adv-x="175" 
d="M225 906q-7 -62 -43.5 -94.5t-98.5 -32.5q-60 0 -93 35t-39 92h37q8 -42 34 -61.5t68 -19.5t65.5 20.5t34.5 60.5h35v0z" />
    <glyph glyph-name="ring.cap" horiz-adv-x="175" 
d="M176 839q0 -37 -25.5 -62.5t-62.5 -25.5t-62.5 25.5t-25.5 62.5t25.5 62.5t62.5 25.5t62.5 -25.5t25.5 -62.5zM144 839q0 26 -16 42.5t-40 16.5t-40 -16.5t-16 -42.5t16 -42.5t40 -16.5t40 16.5t16 42.5z" />
    <glyph glyph-name="hungarumlaut.cap" horiz-adv-x="175" 
d="M143 782h-48l105 139h74zM8 782h-48l106 139h73z" />
    <glyph glyph-name="dotaccent.cap" horiz-adv-x="175" 
d="M57 806v90h62v-90h-62z" />
    <glyph glyph-name="commaaccent" horiz-adv-x="203" 
d="M82 -200h-45l33 141h61z" />
    <glyph glyph-name="commaaccent.alt" horiz-adv-x="456" 
d="M250 733h45l-33 -139h-61z" />
    <glyph glyph-name="exclam.sc" horiz-adv-x="190" 
d="M120 127h-49l-7 417h63zM61 0v77h69v-77h-69z" />
    <glyph glyph-name="dollar.sc" horiz-adv-x="380" 
d="M208 538q37 -2 62 -12.5t40 -28t21.5 -41.5t6.5 -52v-11h-55v11q0 38 -15 62.5t-60 28.5l-1 -194q34 -17 59.5 -32.5t42 -34t24.5 -41.5t8 -54q0 -60 -33 -94t-101 -39v-71h-33v70q-135 6 -135 140v16h55v-20q0 -38 18 -62t62 -28v207q-35 16 -59.5 31.5t-40.5 33t-23 39
t-7 50.5q0 55 35 88t95 38v67h34v-67zM284 132q0 41 -17 64.5t-60 45.5v-191q41 3 59 23t18 58zM101 417q0 -36 17.5 -58.5t55.5 -41.5v178q-36 -5 -54.5 -25.5t-18.5 -52.5z" />
    <glyph glyph-name="percent.sc" horiz-adv-x="580" 
d="M136 -24h-52l362 592h51zM243 413q0 -27 -4 -52.5t-15.5 -45t-31.5 -31t-53 -11.5t-53 11.5t-31.5 31t-15.5 45t-4 52.5t4 52t15.5 44.5t31.5 31.5t53 12t53 -12t31.5 -31.5t15.5 -44.5t4 -52zM193 413q0 45 -10.5 72.5t-43.5 27.5t-43.5 -27.5t-10.5 -72.5t10.5 -72.5
t43.5 -27.5t43.5 27.5t10.5 72.5zM545 132q0 -27 -4 -52.5t-15.5 -45t-31.5 -31t-53 -11.5t-53 11.5t-31.5 31t-15.5 45t-4 52.5t4 52t15.5 44.5t31.5 31.5t53 12t53 -12t31.5 -31.5t15.5 -44.5t4 -52zM495 132q0 45 -10.5 72.5t-43.5 27.5t-43.5 -27.5t-10.5 -72.5
t10.5 -72.5t43.5 -27.5t43.5 27.5t10.5 72.5z" />
    <glyph glyph-name="ampersand.sc" horiz-adv-x="465" 
d="M362 263v-263h-123q-48 0 -81.5 7.5t-54.5 25t-30.5 46t-9.5 71.5q0 50 17.5 85.5t72.5 53.5q-42 18 -55 48.5t-13 72.5q0 34 7.5 61t25 46t46 29t69.5 10q28 0 63 -8v-44q-16 4 -30.5 6t-28.5 2q-52 0 -73.5 -28t-21.5 -71q0 -53 25.5 -79t85.5 -26h53v127h56v-127h79
v-45h-79zM306 263h-67q-63 0 -91 -27t-28 -82q0 -35 7 -56.5t23.5 -33t43.5 -15.5t66 -4h46v218z" />
    <glyph glyph-name="zero.sc" horiz-adv-x="380" 
d="M280 334q0 44 -3 77t-12.5 55.5t-27.5 34t-47 11.5t-47 -11.5t-27.5 -34t-12.5 -55.5t-3 -77v-124q0 -44 3 -77t12.5 -55.5t27.5 -33.5t47 -11t47 11t27.5 33.5t12.5 55.5t3 77v124zM43 314q0 57 4.5 101.5t19.5 76t44 48t79 16.5q49 0 78.5 -16.5t44.5 -48t19.5 -76
t4.5 -101.5v-83q0 -57 -4.5 -102t-19.5 -76.5t-44.5 -48t-78.5 -16.5q-50 0 -79 16.5t-44 48t-19.5 76.5t-4.5 102v83z" />
    <glyph glyph-name="one.sc" horiz-adv-x="380" 
d="M176 0v475q-43 -37 -99 -72v59q12 7 26.5 17t29 21t27 22.5t21.5 21.5h51v-544h-56z" />
    <glyph glyph-name="two.sc" horiz-adv-x="380" 
d="M338 428q0 -38 -18 -78.5t-51 -85.5l-161 -219h228v-45h-291v47l184 254q26 37 38.5 67t12.5 62q0 42 -23 62t-61 20q-51 0 -71 -28.5t-20 -70.5h-57v6q0 66 39 101.5t113 35.5q72 0 105 -34t33 -94z" />
    <glyph glyph-name="three.sc" horiz-adv-x="380" 
d="M333 152q0 -38 -7.5 -68t-25 -51.5t-46.5 -33t-71 -11.5q-77 0 -111 34.5t-34 101.5v9h58q0 -49 18.5 -75t69.5 -26q53 0 73 28.5t20 82.5q0 64 -28 89.5t-94 25.5h-6v45h6q63 0 90 25t27 88q0 19 -3.5 36.5t-13 31t-25.5 21t-41 7.5q-26 0 -42.5 -7.5t-26.5 -21
t-14 -31.5t-4 -39h-56v5q0 31 7.5 56.5t25 43.5t45 28t66.5 10q75 0 107 -34.5t32 -102.5q0 -23 -3.5 -45t-12 -40t-23.5 -31.5t-37 -20.5q25 -6 40.5 -18.5t24.5 -30t12 -38.5t3 -43z" />
    <glyph glyph-name="four.sc" horiz-adv-x="380" 
d="M287 130v-130h-55v130h-201v52l180 362h76v-369h67v-45h-67zM232 482l-150 -307h150v307z" />
    <glyph glyph-name="five.sc" horiz-adv-x="380" 
d="M338 178q0 -36 -5 -70.5t-20.5 -61t-45.5 -42.5t-79 -16q-78 0 -109 39t-31 102h57q0 -44 16 -70t67 -26q30 0 48.5 10t28.5 29t13 46t3 60q0 25 -3 48t-12.5 41t-27 29t-45.5 11q-29 0 -55.5 -14.5t-32.5 -40.5h-54l11 292h259v-44h-205l-9 -185q37 36 94 36
q45 0 72.5 -15t41.5 -40t18.5 -56t4.5 -62z" />
    <glyph glyph-name="six.sc" horiz-adv-x="380" 
d="M342 179q0 -36 -4.5 -70.5t-19.5 -61t-44 -43t-78 -16.5q-55 0 -85 23t-44 58t-16.5 78t-2.5 82v105q0 38 4 77.5t19.5 71.5t45.5 52.5t82 20.5q76 0 106 -34t30 -99h-57q0 38 -16.5 63.5t-61.5 25.5q-34 0 -53.5 -16.5t-29 -42.5t-12 -60t-2.5 -68v-31q20 26 45 37.5
t62 11.5q40 0 65.5 -13.5t40.5 -36t20.5 -52t5.5 -62.5zM285 176q0 21 -3 42.5t-12 39.5t-26 29t-45 11q-30 0 -48.5 -12t-28.5 -31t-13.5 -43t-3.5 -49q0 -24 3 -47t13 -41.5t28.5 -30t49.5 -11.5t48.5 14t25.5 35.5t10 46.5t2 47z" />
    <glyph glyph-name="seven.sc" horiz-adv-x="380" 
d="M161 0h-60l182 498h-238v46h291v-45z" />
    <glyph glyph-name="eight.sc" horiz-adv-x="380" 
d="M340 148q0 -35 -7.5 -64t-25 -50.5t-46.5 -33.5t-72 -12q-42 0 -70 11.5t-45.5 32t-25 49.5t-7.5 64q0 21 2 43t10 40.5t22.5 33t40.5 22.5q-41 16 -55 47.5t-14 73.5q0 67 33.5 109t111.5 42q75 0 109 -35t34 -104q0 -20 -2 -40t-9.5 -38t-21.5 -32.5t-38 -22.5
q27 -7 42 -21t22.5 -33t9.5 -40t2 -42zM277 405q0 21 -3 40.5t-11.5 34.5t-25 23.5t-43.5 8.5q-26 0 -43.5 -8t-28 -22.5t-14.5 -33.5t-4 -41q0 -21 4 -39.5t14 -33t27 -23t42 -8.5t41.5 8.5t26.5 22.5t14 32.5t4 38.5zM282 148q0 22 -3 42t-12 35.5t-27 24.5t-48 9
t-48.5 -9.5t-28.5 -25.5t-13.5 -36.5t-3.5 -42.5q0 -21 4 -41t14 -35.5t27.5 -25.5t45.5 -10q30 0 48.5 9.5t28 25.5t13 37t3.5 43z" />
    <glyph glyph-name="nine.sc" horiz-adv-x="380" 
d="M333 276q0 -68 -4.5 -121.5t-20 -90.5t-45 -56.5t-80.5 -19.5q-72 0 -104 33t-32 99h58q0 -20 3.5 -36.5t12.5 -28t24 -17.5t38 -6q29 0 47.5 12.5t29 37.5t14.5 62t4 86v23q-20 -21 -44.5 -31.5t-58.5 -10.5q-45 0 -71.5 15t-40.5 40t-18.5 55.5t-4.5 62.5q0 34 6.5 65
t23.5 55t46 38t74 14q52 0 81 -19t42.5 -49.5t16.5 -70t3 -80.5v-61zM276 394q0 19 -3 40t-12 38t-26 28.5t-46 11.5q-30 0 -48 -11.5t-27 -30t-12 -41.5t-3 -45q0 -24 3 -47t11.5 -41t25 -29t43.5 -11q33 0 52 12.5t28 32t11.5 44t2.5 49.5z" />
    <glyph glyph-name="question.sc" horiz-adv-x="322" 
d="M268 432q0 -22 -2.5 -39.5t-10 -35.5t-20 -39t-32.5 -49q-12 -17 -19 -41t-7 -56v-34h-52v24q0 56 12 88.5t32 59.5q21 29 31 53.5t10 65.5q0 39 -11.5 60t-46.5 21q-33 0 -46 -18.5t-13 -50.5v-15h-56v13q0 26 5.5 47.5t18.5 37t35 24t54 8.5q36 0 59 -9t36 -25t18 -39
t5 -51zM117 0v77h69v-77h-69z" />
    <glyph glyph-name="a.sc" horiz-adv-x="463" 
d="M340 142h-219l-46 -142h-58l184 544h63l182 -544h-60zM136 188h189l-94 294z" />
    <glyph glyph-name="b.sc" horiz-adv-x="442" 
d="M393 150q0 -75 -40 -112.5t-132 -37.5h-146v544h149q84 0 120 -32.5t36 -105.5q0 -45 -17.5 -75t-60.5 -47q54 -16 72.5 -49.5t18.5 -84.5zM322 407q0 53 -27 72t-85 19h-78v-193h81q60 0 84.5 27t24.5 75zM334 149q0 52 -24.5 81t-88.5 29h-89v-213h81q64 0 92.5 23
t28.5 80z" />
    <glyph glyph-name="c.sc" horiz-adv-x="435" 
d="M396 144q0 -73 -40 -114.5t-125 -41.5q-58 0 -92 20t-53 56q-17 33 -24 81.5t-7 126.5q0 65 6 116.5t26 89.5q20 37 55 57.5t93 20.5q42 0 71.5 -11t48.5 -30.5t27.5 -46.5t8.5 -59v-17h-59v15q0 21 -5 39.5t-16.5 32.5t-30.5 22.5t-46 8.5q-34 0 -56 -13.5t-36 -38.5
q-17 -31 -22 -77.5t-5 -108.5q0 -63 5.5 -110.5t21.5 -77.5q13 -25 34.5 -37.5t55.5 -12.5q30 0 50 8.5t32 23t17.5 34.5t5.5 44v14h59v-14v0z" />
    <glyph glyph-name="d.sc" horiz-adv-x="473" 
d="M418 278q0 -93 -12.5 -148t-46.5 -85q-23 -21 -57.5 -33t-86.5 -12h-140v544h140q48 0 80.5 -8.5t55.5 -25.5q20 -15 33 -34t20.5 -46.5t10.5 -64.5t3 -87zM358 279q0 66 -8 114t-31 74q-18 20 -46 26t-56 6h-85v-453h97q19 0 40.5 5t35.5 15q31 22 42 72t11 141z" />
    <glyph glyph-name="e.sc" horiz-adv-x="389" 
d="M75 0v544h270v-46h-213v-196h203v-46h-203v-209h219v-47h-276z" />
    <glyph glyph-name="f.sc" horiz-adv-x="355" 
d="M132 498v-194h183v-46h-183v-258h-57v544h252v-46h-195z" />
    <glyph glyph-name="g.sc" horiz-adv-x="465" 
d="M346 400v14q0 43 -23 69.5t-79 26.5q-38 0 -62.5 -13.5t-38.5 -38.5q-18 -32 -23 -81.5t-5 -113.5q0 -56 3.5 -101.5t22.5 -76.5q14 -23 39.5 -36.5t67.5 -13.5q25 0 48.5 3.5t46.5 12.5v191h-118v46h174v-275q-36 -12 -74.5 -18.5t-75.5 -6.5q-67 0 -105 19.5t-58 54.5
q-10 17 -16 36.5t-9.5 44t-4.5 54.5t-1 68q0 68 6.5 122t26.5 92q20 37 56.5 57t98.5 20q44 0 75 -10t50.5 -29t28 -45.5t8.5 -60.5v-11h-59z" />
    <glyph glyph-name="h.sc" horiz-adv-x="489" 
d="M357 0v256h-225v-256h-57v544h57v-241h225v241h57v-544h-57z" />
    <glyph glyph-name="i.sc" horiz-adv-x="207" 
d="M75 0v544h57v-544h-57z" />
    <glyph glyph-name="j.sc" horiz-adv-x="382" 
d="M313 164q0 -35 -4.5 -67t-19.5 -56t-43.5 -38.5t-76.5 -14.5q-44 0 -72 12.5t-43.5 33.5t-21 49.5t-5.5 60.5v14h57v-13q0 -20 2 -39.5t10 -35t25 -25.5t47 -10q31 0 49 11t26.5 28.5t10.5 39t2 41.5v389h57v-380v0z" />
    <glyph glyph-name="k.sc" horiz-adv-x="421" 
d="M132 0h-57v544h57v-544zM337 544h69l-211 -254l217 -290h-70l-208 291z" />
    <glyph glyph-name="l.sc" horiz-adv-x="347" 
d="M75 0v544h57v-497h194v-47h-251z" />
    <glyph glyph-name="m.sc" horiz-adv-x="651" 
d="M521 0v493l-164 -493h-61l-168 493v-493h-53v544h87l166 -491l160 491h88v-544h-55z" />
    <glyph glyph-name="n.sc" horiz-adv-x="515" 
d="M355 0l-225 488v-488h-55v544h86l225 -488v488h54v-544h-85z" />
    <glyph glyph-name="o.sc" horiz-adv-x="470" 
d="M415 272q0 -41 -1.5 -72t-5 -55.5t-9.5 -43.5t-15 -35q-23 -42 -60 -60t-89 -18t-89 16.5t-60 58.5q-9 16 -15 35.5t-9.5 44.5t-5 56.5t-1.5 72.5t1.5 72t5 55.5t9.5 43.5t15 36q23 42 60 59.5t89 17.5t88.5 -16.5t59.5 -58.5q9 -17 15.5 -36t10 -44t5 -56.5t1.5 -72.5z
M355 272q0 70 -5 114t-22 73q-13 22 -35 36.5t-58 14.5t-58 -14.5t-35 -36.5q-17 -29 -22 -73t-5 -114t5 -114t22 -73q13 -22 35 -36.5t58 -14.5t58 14.5t35 36.5q17 29 22 73t5 114z" />
    <glyph glyph-name="p.sc" horiz-adv-x="403" 
d="M375 399q0 -50 -14 -80.5t-40 -47t-62.5 -22t-80.5 -5.5h-46v-244h-57v544h125q88 0 131.5 -32t43.5 -113zM315 398q0 54 -27.5 77t-91.5 23h-64v-208h57q69 0 97.5 24.5t28.5 83.5z" />
    <glyph glyph-name="q.sc" horiz-adv-x="472" 
d="M235 -5q-52 0 -89 18t-60 58q-10 16 -16 34.5t-9.5 41.5t-4.5 53.5t-1 71.5t1.5 72t5 55.5t9.5 43.5t15 36q23 42 60 59.5t89 17.5t88.5 -16.5t59.5 -58.5q9 -17 15.5 -36t10 -44t5 -56.5t1.5 -72.5q0 -83 -12 -141.5t-48 -87.5q25 2 50 3t51 1v-47h-96q-14 0 -27.5 -0.5
t-25.5 -1.5q-23 -2 -39 -2.5t-33 -0.5zM355 276q0 69 -5 111.5t-22 71.5q-13 22 -35 36.5t-58 14.5t-58 -14.5t-35 -36.5q-17 -29 -22 -71.5t-5 -111.5t5 -111.5t22 -71.5q13 -22 35 -36.5t58 -14.5t58 14.5t35 36.5q17 29 22 71.5t5 111.5z" />
    <glyph glyph-name="r.sc" horiz-adv-x="445" 
d="M328 0q-5 17 -7 46.5t-2 64.5q0 34 -1 59.5t-6 43.5q-6 23 -27 34t-70 11h-83v-259h-57v544h152q81 0 119.5 -31.5t38.5 -103.5q0 -46 -16 -78t-64 -49q36 -7 49.5 -25t16.5 -38q3 -18 4 -47.5t1 -59.5q0 -10 0.5 -24.5t2 -30t3.5 -31t4 -26.5h-58zM326 409q0 49 -24 69
t-77 20h-93v-194h87q58 0 82.5 23t24.5 82z" />
    <glyph glyph-name="s.sc" horiz-adv-x="421" 
d="M373 133q0 -68 -41.5 -106.5t-122.5 -38.5q-91 0 -127.5 40.5t-36.5 113.5v11h59v-11q0 -24 5 -44t17 -34t32 -22t51 -8q55 0 79.5 24.5t24.5 74.5q0 33 -14.5 57t-60.5 48l-70 36q-54 28 -82.5 60.5t-28.5 85.5q0 66 43 101t115 35q154 0 154 -130v-20h-57v15
q0 41 -20.5 65t-74.5 24q-52 0 -76 -23t-24 -63q0 -36 20 -58.5t60 -42.5l70 -36q30 -16 50.5 -32t33 -34.5t17.5 -40t5 -47.5z" />
    <glyph glyph-name="t.sc" horiz-adv-x="357" 
d="M207 498v-498h-57v498h-142v46h341v-46h-142z" />
    <glyph glyph-name="u.sc" horiz-adv-x="481" 
d="M413 180q0 -45 -8 -80.5t-27.5 -60t-52.5 -38t-83 -13.5q-55 0 -89 14.5t-53 41t-25.5 62.5t-6.5 78v360h57v-361q0 -29 3.5 -56t16 -47.5t35.5 -32.5t62 -12q38 0 60.5 12t34.5 32.5t15.5 46.5t3.5 54v364h57v-364v0z" />
    <glyph glyph-name="v.sc" horiz-adv-x="421" 
d="M244 0h-67l-163 544h60l138 -486l138 486h57z" />
    <glyph glyph-name="w.sc" horiz-adv-x="704" 
d="M534 0h-69l-113 482l-118 -482h-69l-138 544h61l113 -480l119 480h69l114 -480l118 480h56z" />
    <glyph glyph-name="x.sc" horiz-adv-x="425" 
d="M344 0l-134 242l-133 -242h-63l161 280l-148 264h66l118 -221l124 221h63l-152 -262l165 -282h-67z" />
    <glyph glyph-name="y.sc" horiz-adv-x="412" 
d="M234 219v-219h-57v219l-163 325h64l130 -272l129 272h61z" />
    <glyph glyph-name="z.sc" horiz-adv-x="380" 
d="M28 0v47l264 451h-248v46h308v-50l-261 -447h261v-47h-324z" />
    <glyph glyph-name="agrave.sc" horiz-adv-x="463" 
d="M340 142h-219l-46 -142h-58l184 544h63l182 -544h-60zM136 188h189l-94 294zM233 634l-131 139h74l105 -139h-48z" />
    <glyph glyph-name="aacute.sc" horiz-adv-x="463" 
d="M340 142h-219l-46 -142h-58l184 544h63l182 -544h-60zM136 188h189l-94 294zM234 634h-48l106 139h73z" />
    <glyph glyph-name="acircumflex.sc" horiz-adv-x="463" 
d="M340 142h-219l-46 -142h-58l184 544h63l182 -544h-60zM136 188h189l-94 294zM318 634l-86 99l-86 -99h-51l103 139h67l103 -139h-50z" />
    <glyph glyph-name="atilde.sc" horiz-adv-x="463" 
d="M340 142h-219l-46 -142h-58l184 544h63l182 -544h-60zM136 188h189l-94 294zM380 747q-2 -17 -7 -34t-15 -31t-24.5 -23t-33.5 -9q-20 0 -37.5 7t-34 15t-32.5 15t-32 7q-21 0 -32 -15t-15 -34h-35q1 19 7.5 36.5t17 31t26 21.5t36.5 8q17 0 33.5 -7t32.5 -15t32.5 -15
t33.5 -7q20 0 30 15.5t12 33.5h37v0z" />
    <glyph glyph-name="adieresis.sc" horiz-adv-x="463" 
d="M340 142h-219l-46 -142h-58l184 544h63l182 -544h-60zM136 188h189l-94 294zM275 668v90h62v-90h-62zM125 668v90h62v-90h-62z" />
    <glyph glyph-name="amacron.sc" horiz-adv-x="463" 
d="M340 142h-219l-46 -142h-58l184 544h63l182 -544h-60zM136 188h189l-94 294zM108 672v45h246v-45h-246z" />
    <glyph glyph-name="abreve.sc" horiz-adv-x="463" 
d="M340 142h-219l-46 -142h-58l184 544h63l182 -544h-60zM136 188h189l-94 294zM368 758q-7 -62 -43.5 -94.5t-98.5 -32.5q-60 0 -93 35t-39 92h37q8 -42 34 -61.5t68 -19.5t65.5 20.5t34.5 60.5h35v0z" />
    <glyph glyph-name="aring.sc" horiz-adv-x="463" 
d="M340 142h-219l-46 -142h-58l184 544h63l182 -544h-60zM136 188h189l-94 294zM319 711q0 -37 -25.5 -62.5t-62.5 -25.5t-62.5 25.5t-25.5 62.5t25.5 62.5t62.5 25.5t62.5 -25.5t25.5 -62.5zM289 711q0 24 -17 41t-41 17t-41 -17t-17 -41t17 -41t41 -17t41 17t17 41z" />
    <glyph glyph-name="aogonek.sc" horiz-adv-x="463" 
d="M340 142h-219l-46 -142h-58l184 544h63l182 -544q-37 -17 -63 -42t-26 -58q0 -24 14.5 -39.5t37.5 -15.5q11 0 21.5 3t20.5 7l7 -22q-17 -10 -35.5 -16t-38.5 -6q-32 0 -54 21t-22 53q0 21 9 38t23 31t30.5 25.5t32.5 20.5h-17zM136 188h189l-94 294z" />
    <glyph glyph-name="ae.sc" horiz-adv-x="636" 
d="M376 302h206v-46h-201l20 -209h197v-47h-247l-14 143h-205l-69 -143h-60l271 544h318v-46h-234zM155 189h178l-29 306z" />
    <glyph glyph-name="cacute.sc" horiz-adv-x="435" 
d="M396 144q0 -73 -40 -114.5t-125 -41.5q-58 0 -92 20t-53 56q-17 33 -24 81.5t-7 126.5q0 65 6 116.5t26 89.5q20 37 55 57.5t93 20.5q42 0 71.5 -11t48.5 -30.5t27.5 -46.5t8.5 -59v-17h-59v15q0 21 -5 39.5t-16.5 32.5t-30.5 22.5t-46 8.5q-34 0 -56 -13.5t-36 -38.5
q-17 -31 -22 -77.5t-5 -108.5q0 -63 5.5 -110.5t21.5 -77.5q13 -25 34.5 -37.5t55.5 -12.5q30 0 50 8.5t32 23t17.5 34.5t5.5 44v14h59v-14v0zM224 634h-48l106 139h73z" />
    <glyph glyph-name="ccircumflex.sc" horiz-adv-x="435" 
d="M396 144q0 -73 -40 -114.5t-125 -41.5q-58 0 -92 20t-53 56q-17 33 -24 81.5t-7 126.5q0 65 6 116.5t26 89.5q20 37 55 57.5t93 20.5q42 0 71.5 -11t48.5 -30.5t27.5 -46.5t8.5 -59v-17h-59v15q0 21 -5 39.5t-16.5 32.5t-30.5 22.5t-46 8.5q-34 0 -56 -13.5t-36 -38.5
q-17 -31 -22 -77.5t-5 -108.5q0 -63 5.5 -110.5t21.5 -77.5q13 -25 34.5 -37.5t55.5 -12.5q30 0 50 8.5t32 23t17.5 34.5t5.5 44v14h59v-14v0zM322 634l-86 99l-86 -99h-51l103 139h67l103 -139h-50z" />
    <glyph glyph-name="ccaron.sc" horiz-adv-x="435" 
d="M396 144q0 -73 -40 -114.5t-125 -41.5q-58 0 -92 20t-53 56q-17 33 -24 81.5t-7 126.5q0 65 6 116.5t26 89.5q20 37 55 57.5t93 20.5q42 0 71.5 -11t48.5 -30.5t27.5 -46.5t8.5 -59v-17h-59v15q0 21 -5 39.5t-16.5 32.5t-30.5 22.5t-46 8.5q-34 0 -56 -13.5t-36 -38.5
q-17 -31 -22 -77.5t-5 -108.5q0 -63 5.5 -110.5t21.5 -77.5q13 -25 34.5 -37.5t55.5 -12.5q30 0 50 8.5t32 23t17.5 34.5t5.5 44v14h59v-14v0zM269 634h-67l-103 139h51l86 -99l86 99h50z" />
    <glyph glyph-name="cdotaccent.sc" horiz-adv-x="435" 
d="M396 144q0 -73 -40 -114.5t-125 -41.5q-58 0 -92 20t-53 56q-17 33 -24 81.5t-7 126.5q0 65 6 116.5t26 89.5q20 37 55 57.5t93 20.5q42 0 71.5 -11t48.5 -30.5t27.5 -46.5t8.5 -59v-17h-59v15q0 21 -5 39.5t-16.5 32.5t-30.5 22.5t-46 8.5q-34 0 -56 -13.5t-36 -38.5
q-17 -31 -22 -77.5t-5 -108.5q0 -63 5.5 -110.5t21.5 -77.5q13 -25 34.5 -37.5t55.5 -12.5q30 0 50 8.5t32 23t17.5 34.5t5.5 44v14h59v-14v0zM200 668v90h62v-90h-62z" />
    <glyph glyph-name="ccedilla.sc" horiz-adv-x="435" 
d="M321 -124q0 -22 -9 -37.5t-24 -26t-33.5 -15.5t-37.5 -5q-46 0 -89 20l14 30q16 -7 31.5 -11t32.5 -4q24 0 42 11t18 34q0 21 -14 31t-36 10q-19 0 -40 -8l-14 13l48 71q-48 4 -77.5 23t-46.5 52t-24 81.5t-7 126.5q0 65 6 116.5t26 89.5q20 37 55 57.5t93 20.5
q42 0 71.5 -11t48.5 -30.5t27.5 -46.5t8.5 -59v-17h-59v15q0 21 -5 39.5t-16.5 32.5t-30.5 22.5t-46 8.5q-34 0 -56 -13.5t-36 -38.5q-17 -31 -22 -77.5t-5 -108.5q0 -63 5.5 -110.5t21.5 -77.5q13 -25 34.5 -37.5t55.5 -12.5q30 0 50 8.5t32 23t17.5 34.5t5.5 44v14h59v-14
q0 -70 -36 -110.5t-113 -44.5l-35 -48q16 6 34 6q31 0 53 -19.5t22 -51.5z" />
    <glyph glyph-name="dcaron.sc" horiz-adv-x="473" 
d="M418 278q0 -93 -12.5 -148t-46.5 -85q-23 -21 -57.5 -33t-86.5 -12h-140v544h140q48 0 80.5 -8.5t55.5 -25.5q20 -15 33 -34t20.5 -46.5t10.5 -64.5t3 -87zM358 279q0 66 -8 114t-31 74q-18 20 -46 26t-56 6h-85v-453h97q19 0 40.5 5t35.5 15q31 22 42 72t11 141z
M274 634h-67l-103 139h51l86 -99l86 99h50z" />
    <glyph glyph-name="dcroat.sc" horiz-adv-x="473" 
d="M15 310h60v234h140q48 0 80.5 -8.5t55.5 -25.5q20 -15 33 -34t20.5 -46.5t10.5 -64.5t3 -87q0 -93 -12.5 -148t-46.5 -85q-23 -21 -57.5 -33t-86.5 -12h-140v269h-60v41zM358 279q0 66 -8 114t-31 74q-18 20 -46 26t-56 6h-85v-189h130v-41h-130v-223h97q19 0 40.5 5
t35.5 15q31 22 42 72t11 141z" />
    <glyph glyph-name="eth.sc" horiz-adv-x="473" 
d="M15 310h60v234h140q48 0 80.5 -8.5t55.5 -25.5q20 -15 33 -34t20.5 -46.5t10.5 -64.5t3 -87q0 -93 -12.5 -148t-46.5 -85q-23 -21 -57.5 -33t-86.5 -12h-140v269h-60v41zM358 279q0 66 -8 114t-31 74q-18 20 -46 26t-56 6h-85v-189h130v-41h-130v-223h97q19 0 40.5 5
t35.5 15q31 22 42 72t11 141z" />
    <glyph glyph-name="egrave.sc" horiz-adv-x="389" 
d="M75 0v544h270v-46h-213v-196h203v-46h-203v-209h219v-47h-276zM230 634l-131 139h74l105 -139h-48z" />
    <glyph glyph-name="eacute.sc" horiz-adv-x="389" 
d="M75 0v544h270v-46h-213v-196h203v-46h-203v-209h219v-47h-276zM199 634h-48l106 139h73z" />
    <glyph glyph-name="ecircumflex.sc" horiz-adv-x="389" 
d="M75 0v544h270v-46h-213v-196h203v-46h-203v-209h219v-47h-276zM298 634l-86 99l-86 -99h-51l103 139h67l103 -139h-50z" />
    <glyph glyph-name="ecaron.sc" horiz-adv-x="389" 
d="M75 0v544h270v-46h-213v-196h203v-46h-203v-209h219v-47h-276zM248 634h-67l-103 139h51l86 -99l86 99h50z" />
    <glyph glyph-name="edieresis.sc" horiz-adv-x="389" 
d="M75 0v544h270v-46h-213v-196h203v-46h-203v-209h219v-47h-276zM254 668v90h62v-90h-62zM104 668v90h62v-90h-62z" />
    <glyph glyph-name="emacron.sc" horiz-adv-x="389" 
d="M75 0v544h270v-46h-213v-196h203v-46h-203v-209h219v-47h-276zM85 672v45h246v-45h-246z" />
    <glyph glyph-name="ebreve.sc" horiz-adv-x="389" 
d="M75 0v544h270v-46h-213v-196h203v-46h-203v-209h219v-47h-276zM348 758q-7 -62 -43.5 -94.5t-98.5 -32.5q-60 0 -93 35t-39 92h37q8 -42 34 -61.5t68 -19.5t65.5 20.5t34.5 60.5h35v0z" />
    <glyph glyph-name="edotaccent.sc" horiz-adv-x="389" 
d="M75 0v544h270v-46h-213v-196h203v-46h-203v-209h219v-47h-276zM182 668v90h62v-90h-62z" />
    <glyph glyph-name="eogonek.sc" horiz-adv-x="389" 
d="M365 -167q-17 -10 -35.5 -16t-38.5 -6q-32 0 -54 21t-22 53q0 21 9 38t23 31t30.5 25.5t32.5 20.5h-235v544h270v-46h-213v-196h203v-46h-203v-209h219v-46q-35 -18 -61 -42.5t-26 -58.5q0 -24 14.5 -39.5t37.5 -15.5q11 0 21.5 3t20.5 7l7 -22v0z" />
    <glyph glyph-name="gcircumflex.sc" horiz-adv-x="465" 
d="M346 400v14q0 43 -23 69.5t-79 26.5q-38 0 -62.5 -13.5t-38.5 -38.5q-18 -32 -23 -81.5t-5 -113.5q0 -56 3.5 -101.5t22.5 -76.5q14 -23 39.5 -36.5t67.5 -13.5q25 0 48.5 3.5t46.5 12.5v191h-118v46h174v-275q-36 -12 -74.5 -18.5t-75.5 -6.5q-67 0 -105 19.5t-58 54.5
q-10 17 -16 36.5t-9.5 44t-4.5 54.5t-1 68q0 68 6.5 122t26.5 92q20 37 56.5 57t98.5 20q44 0 75 -10t50.5 -29t28 -45.5t8.5 -60.5v-11h-59zM335 634l-86 99l-86 -99h-51l103 139h67l103 -139h-50z" />
    <glyph glyph-name="gbreve.sc" horiz-adv-x="465" 
d="M346 400v14q0 43 -23 69.5t-79 26.5q-38 0 -62.5 -13.5t-38.5 -38.5q-18 -32 -23 -81.5t-5 -113.5q0 -56 3.5 -101.5t22.5 -76.5q14 -23 39.5 -36.5t67.5 -13.5q25 0 48.5 3.5t46.5 12.5v191h-118v46h174v-275q-36 -12 -74.5 -18.5t-75.5 -6.5q-67 0 -105 19.5t-58 54.5
q-10 17 -16 36.5t-9.5 44t-4.5 54.5t-1 68q0 68 6.5 122t26.5 92q20 37 56.5 57t98.5 20q44 0 75 -10t50.5 -29t28 -45.5t8.5 -60.5v-11h-59zM382 758q-7 -62 -43.5 -94.5t-98.5 -32.5q-60 0 -93 35t-39 92h37q8 -42 34 -61.5t68 -19.5t65.5 20.5t34.5 60.5h35v0z" />
    <glyph glyph-name="gdotaccent.sc" horiz-adv-x="465" 
d="M346 400v14q0 43 -23 69.5t-79 26.5q-38 0 -62.5 -13.5t-38.5 -38.5q-18 -32 -23 -81.5t-5 -113.5q0 -56 3.5 -101.5t22.5 -76.5q14 -23 39.5 -36.5t67.5 -13.5q25 0 48.5 3.5t46.5 12.5v191h-118v46h174v-275q-36 -12 -74.5 -18.5t-75.5 -6.5q-67 0 -105 19.5t-58 54.5
q-10 17 -16 36.5t-9.5 44t-4.5 54.5t-1 68q0 68 6.5 122t26.5 92q20 37 56.5 57t98.5 20q44 0 75 -10t50.5 -29t28 -45.5t8.5 -60.5v-11h-59zM213 668v90h62v-90h-62z" />
    <glyph glyph-name="gcommaaccent.sc" horiz-adv-x="465" 
d="M346 400v14q0 43 -23 69.5t-79 26.5q-38 0 -62.5 -13.5t-38.5 -38.5q-18 -32 -23 -81.5t-5 -113.5q0 -56 3.5 -101.5t22.5 -76.5q14 -23 39.5 -36.5t67.5 -13.5q25 0 48.5 3.5t46.5 12.5v191h-118v46h174v-275q-36 -12 -74.5 -18.5t-75.5 -6.5q-67 0 -105 19.5t-58 54.5
q-10 17 -16 36.5t-9.5 44t-4.5 54.5t-1 68q0 68 6.5 122t26.5 92q20 37 56.5 57t98.5 20q44 0 75 -10t50.5 -29t28 -45.5t8.5 -60.5v-11h-59zM227 -200h-45l33 141h61z" />
    <glyph glyph-name="hcircumflex.sc" horiz-adv-x="489" 
d="M357 0v256h-225v-256h-57v544h57v-241h225v241h57v-544h-57zM331 634l-86 99l-86 -99h-51l103 139h67l103 -139h-50z" />
    <glyph glyph-name="hbar.sc" horiz-adv-x="489" 
d="M357 0v256h-225v-256h-57v544h57v-140h225v140h57v-544h-57zM357 303v55h-225v-55h225z" />
    <glyph glyph-name="igrave.sc" horiz-adv-x="207" 
d="M75 0v544h57v-544h-57zM114 634l-131 139h74l105 -139h-48z" />
    <glyph glyph-name="iacute.sc" horiz-adv-x="207" 
d="M75 0v544h57v-544h-57zM94 634h-48l106 139h73z" />
    <glyph glyph-name="ibreve.sc" horiz-adv-x="207" 
d="M75 0v544h57v-544h-57zM240 758q-7 -62 -43.5 -94.5t-98.5 -32.5q-60 0 -93 35t-39 92h37q8 -42 34 -61.5t68 -19.5t65.5 20.5t34.5 60.5h35v0z" />
    <glyph glyph-name="icircumflex.sc" horiz-adv-x="207" 
d="M75 0v544h57v-544h-57zM190 634l-86 99l-86 -99h-51l103 139h67l103 -139h-50z" />
    <glyph glyph-name="itilde.sc" horiz-adv-x="207" 
d="M75 0v544h57v-544h-57zM252 747q-2 -17 -7 -34t-15 -31t-24.5 -23t-33.5 -9q-20 0 -37.5 7t-34 15t-32.5 15t-32 7q-21 0 -32 -15t-15 -34h-35q1 19 7.5 36.5t17 31t26 21.5t36.5 8q17 0 33.5 -7t32.5 -15t32.5 -15t33.5 -7q20 0 30 15.5t12 33.5h37v0z" />
    <glyph glyph-name="idieresis.sc" horiz-adv-x="207" 
d="M75 0v544h57v-544h-57zM147 668v90h62v-90h-62zM-3 668v90h62v-90h-62z" />
    <glyph glyph-name="imacron.sc" horiz-adv-x="207" 
d="M75 0v544h57v-544h-57zM-20 672v45h246v-45h-246z" />
    <glyph glyph-name="idotaccent.sc" horiz-adv-x="207" 
d="M75 0v544h57v-544h-57zM72 668v90h62v-90h-62z" />
    <glyph glyph-name="iogonek.sc" horiz-adv-x="207" 
d="M145 -167q-17 -10 -35.5 -16t-38.5 -6q-32 0 -54 21t-22 53q0 21 9 38t23 31t30.5 25.5t32.5 20.5h-15v544h57v-544q-36 -17 -62 -42t-26 -58q0 -24 14.5 -39.5t37.5 -15.5q11 0 21.5 3t20.5 7l7 -22v0z" />
    <glyph glyph-name="jcircumflex.sc" horiz-adv-x="382" 
d="M313 164q0 -35 -4.5 -67t-19.5 -56t-43.5 -38.5t-76.5 -14.5q-44 0 -72 12.5t-43.5 33.5t-21 49.5t-5.5 60.5v14h57v-13q0 -20 2 -39.5t10 -35t25 -25.5t47 -10q31 0 49 11t26.5 28.5t10.5 39t2 41.5v389h57v-380v0zM373 634l-86 99l-86 -99h-51l103 139h67l103 -139h-50
z" />
    <glyph glyph-name="kcommaaccent.sc" horiz-adv-x="421" 
d="M132 0h-57v544h57v-544zM337 544h69l-211 -254l217 -290h-70l-208 291zM208 -200h-45l33 141h61z" />
    <glyph glyph-name="lacute.sc" horiz-adv-x="347" 
d="M75 0v544h57v-497h194v-47h-251zM132 634h-48l106 139h73z" />
    <glyph glyph-name="lcaron.sc" horiz-adv-x="347" 
d="M75 0v544h57v-497h194v-47h-251zM244 383h-48l28 162h63z" />
    <glyph glyph-name="lcommaaccent.sc" horiz-adv-x="347" 
d="M75 0v544h57v-497h194v-47h-251zM189 -200h-45l33 141h61z" />
    <glyph glyph-name="lslash.sc" horiz-adv-x="347" 
d="M75 0v234l-60 -32v44l60 32v266h57v-236l112 60v-43l-112 -60v-218h194v-47h-251z" />
    <glyph glyph-name="ldot.sc" horiz-adv-x="347" 
d="M75 0v544h57v-497h194v-47h-251zM243 238v90h62v-90h-62z" />
    <glyph glyph-name="nacute.sc" horiz-adv-x="515" 
d="M355 0l-225 488v-488h-55v544h86l225 -488v488h54v-544h-85zM256 634h-48l106 139h73z" />
    <glyph glyph-name="ncaron.sc" horiz-adv-x="515" 
d="M355 0l-225 488v-488h-55v544h86l225 -488v488h54v-544h-85zM291 634h-67l-103 139h51l86 -99l86 99h50z" />
    <glyph glyph-name="ntilde.sc" horiz-adv-x="515" 
d="M355 0l-225 488v-488h-55v544h86l225 -488v488h54v-544h-85zM406 747q-2 -17 -7 -34t-15 -31t-24.5 -23t-33.5 -9q-20 0 -37.5 7t-34 15t-32.5 15t-32 7q-21 0 -32 -15t-15 -34h-35q1 19 7.5 36.5t17 31t26 21.5t36.5 8q17 0 33.5 -7t32.5 -15t32.5 -15t33.5 -7
q20 0 30 15.5t12 33.5h37v0z" />
    <glyph glyph-name="ncommaaccent.sc" horiz-adv-x="515" 
d="M355 0l-225 488v-488h-55v544h86l225 -488v488h54v-544h-85zM255 -200h-45l33 141h61z" />
    <glyph glyph-name="ograve.sc" horiz-adv-x="470" 
d="M415 272q0 -41 -1.5 -72t-5 -55.5t-9.5 -43.5t-15 -35q-23 -42 -60 -60t-89 -18t-89 16.5t-60 58.5q-9 16 -15 35.5t-9.5 44.5t-5 56.5t-1.5 72.5t1.5 72t5 55.5t9.5 43.5t15 36q23 42 60 59.5t89 17.5t88.5 -16.5t59.5 -58.5q9 -17 15.5 -36t10 -44t5 -56.5t1.5 -72.5z
M355 272q0 70 -5 114t-22 73q-13 22 -35 36.5t-58 14.5t-58 -14.5t-35 -36.5q-17 -29 -22 -73t-5 -114t5 -114t22 -73q13 -22 35 -36.5t58 -14.5t58 14.5t35 36.5q17 29 22 73t5 114zM250 634l-131 139h74l105 -139h-48z" />
    <glyph glyph-name="oacute.sc" horiz-adv-x="470" 
d="M415 272q0 -41 -1.5 -72t-5 -55.5t-9.5 -43.5t-15 -35q-23 -42 -60 -60t-89 -18t-89 16.5t-60 58.5q-9 16 -15 35.5t-9.5 44.5t-5 56.5t-1.5 72.5t1.5 72t5 55.5t9.5 43.5t15 36q23 42 60 59.5t89 17.5t88.5 -16.5t59.5 -58.5q9 -17 15.5 -36t10 -44t5 -56.5t1.5 -72.5z
M355 272q0 70 -5 114t-22 73q-13 22 -35 36.5t-58 14.5t-58 -14.5t-35 -36.5q-17 -29 -22 -73t-5 -114t5 -114t22 -73q13 -22 35 -36.5t58 -14.5t58 14.5t35 36.5q17 29 22 73t5 114zM218 634h-48l106 139h73z" />
    <glyph glyph-name="ocircumflex.sc" horiz-adv-x="470" 
d="M415 272q0 -41 -1.5 -72t-5 -55.5t-9.5 -43.5t-15 -35q-23 -42 -60 -60t-89 -18t-89 16.5t-60 58.5q-9 16 -15 35.5t-9.5 44.5t-5 56.5t-1.5 72.5t1.5 72t5 55.5t9.5 43.5t15 36q23 42 60 59.5t89 17.5t88.5 -16.5t59.5 -58.5q9 -17 15.5 -36t10 -44t5 -56.5t1.5 -72.5z
M355 272q0 70 -5 114t-22 73q-13 22 -35 36.5t-58 14.5t-58 -14.5t-35 -36.5q-17 -29 -22 -73t-5 -114t5 -114t22 -73q13 -22 35 -36.5t58 -14.5t58 14.5t35 36.5q17 29 22 73t5 114zM322 634l-86 99l-86 -99h-51l103 139h67l103 -139h-50z" />
    <glyph glyph-name="otilde.sc" horiz-adv-x="470" 
d="M415 272q0 -41 -1.5 -72t-5 -55.5t-9.5 -43.5t-15 -35q-23 -42 -60 -60t-89 -18t-89 16.5t-60 58.5q-9 16 -15 35.5t-9.5 44.5t-5 56.5t-1.5 72.5t1.5 72t5 55.5t9.5 43.5t15 36q23 42 60 59.5t89 17.5t88.5 -16.5t59.5 -58.5q9 -17 15.5 -36t10 -44t5 -56.5t1.5 -72.5z
M355 272q0 70 -5 114t-22 73q-13 22 -35 36.5t-58 14.5t-58 -14.5t-35 -36.5q-17 -29 -22 -73t-5 -114t5 -114t22 -73q13 -22 35 -36.5t58 -14.5t58 14.5t35 36.5q17 29 22 73t5 114zM383 747q-2 -17 -7 -34t-15 -31t-24.5 -23t-33.5 -9q-20 0 -37.5 7t-34 15t-32.5 15
t-32 7q-21 0 -32 -15t-15 -34h-35q1 19 7.5 36.5t17 31t26 21.5t36.5 8q17 0 33.5 -7t32.5 -15t32.5 -15t33.5 -7q20 0 30 15.5t12 33.5h37v0z" />
    <glyph glyph-name="odieresis.sc" horiz-adv-x="470" 
d="M415 272q0 -41 -1.5 -72t-5 -55.5t-9.5 -43.5t-15 -35q-23 -42 -60 -60t-89 -18t-89 16.5t-60 58.5q-9 16 -15 35.5t-9.5 44.5t-5 56.5t-1.5 72.5t1.5 72t5 55.5t9.5 43.5t15 36q23 42 60 59.5t89 17.5t88.5 -16.5t59.5 -58.5q9 -17 15.5 -36t10 -44t5 -56.5t1.5 -72.5z
M355 272q0 70 -5 114t-22 73q-13 22 -35 36.5t-58 14.5t-58 -14.5t-35 -36.5q-17 -29 -22 -73t-5 -114t5 -114t22 -73q13 -22 35 -36.5t58 -14.5t58 14.5t35 36.5q17 29 22 73t5 114zM279 668v90h62v-90h-62zM129 668v90h62v-90h-62z" />
    <glyph glyph-name="omacron.sc" horiz-adv-x="470" 
d="M415 272q0 -41 -1.5 -72t-5 -55.5t-9.5 -43.5t-15 -35q-23 -42 -60 -60t-89 -18t-89 16.5t-60 58.5q-9 16 -15 35.5t-9.5 44.5t-5 56.5t-1.5 72.5t1.5 72t5 55.5t9.5 43.5t15 36q23 42 60 59.5t89 17.5t88.5 -16.5t59.5 -58.5q9 -17 15.5 -36t10 -44t5 -56.5t1.5 -72.5z
M355 272q0 70 -5 114t-22 73q-13 22 -35 36.5t-58 14.5t-58 -14.5t-35 -36.5q-17 -29 -22 -73t-5 -114t5 -114t22 -73q13 -22 35 -36.5t58 -14.5t58 14.5t35 36.5q17 29 22 73t5 114zM112 672v45h246v-45h-246z" />
    <glyph glyph-name="obreve.sc" horiz-adv-x="470" 
d="M415 272q0 -41 -1.5 -72t-5 -55.5t-9.5 -43.5t-15 -35q-23 -42 -60 -60t-89 -18t-89 16.5t-60 58.5q-9 16 -15 35.5t-9.5 44.5t-5 56.5t-1.5 72.5t1.5 72t5 55.5t9.5 43.5t15 36q23 42 60 59.5t89 17.5t88.5 -16.5t59.5 -58.5q9 -17 15.5 -36t10 -44t5 -56.5t1.5 -72.5z
M355 272q0 70 -5 114t-22 73q-13 22 -35 36.5t-58 14.5t-58 -14.5t-35 -36.5q-17 -29 -22 -73t-5 -114t5 -114t22 -73q13 -22 35 -36.5t58 -14.5t58 14.5t35 36.5q17 29 22 73t5 114zM372 758q-7 -62 -43.5 -94.5t-98.5 -32.5q-60 0 -93 35t-39 92h37q8 -42 34 -61.5
t68 -19.5t65.5 20.5t34.5 60.5h35v0z" />
    <glyph glyph-name="ohungarumlaut.sc" horiz-adv-x="470" 
d="M415 272q0 -41 -1.5 -72t-5 -55.5t-9.5 -43.5t-15 -35q-23 -42 -60 -60t-89 -18t-89 16.5t-60 58.5q-9 16 -15 35.5t-9.5 44.5t-5 56.5t-1.5 72.5t1.5 72t5 55.5t9.5 43.5t15 36q23 42 60 59.5t89 17.5t88.5 -16.5t59.5 -58.5q9 -17 15.5 -36t10 -44t5 -56.5t1.5 -72.5z
M355 272q0 70 -5 114t-22 73q-13 22 -35 36.5t-58 14.5t-58 -14.5t-35 -36.5q-17 -29 -22 -73t-5 -114t5 -114t22 -73q13 -22 35 -36.5t58 -14.5t58 14.5t35 36.5q17 29 22 73t5 114zM308 634h-48l105 139h74zM173 634h-48l106 139h73z" />
    <glyph glyph-name="oslash.sc" horiz-adv-x="470" 
d="M26 -9l54 83q-15 32 -20 77.5t-5 120.5q0 41 1.5 72t5 55.5t9.5 43.5t15 36q23 42 60 59.5t89 17.5q41 0 72 -10.5t54 -34.5l39 60l32 -22l-47 -73q9 -16 14.5 -35t9 -43.5t5 -55.5t1.5 -70q0 -41 -1.5 -72t-5 -55.5t-9.5 -43.5t-15 -35q-23 -42 -60 -60t-89 -18
q-44 0 -77 11.5t-56 39.5l-43 -67zM355 272q0 47 -2 81.5t-8 60.5l-208 -321q17 -29 39 -44t59 -15q36 0 58 14.5t35 36.5q17 29 22 73t5 114zM115 272q0 -42 1.5 -74t6.5 -57l205 318q-13 22 -35 36.5t-58 14.5t-58 -14.5t-35 -36.5q-17 -29 -22 -73t-5 -114z" />
    <glyph glyph-name="oe.sc" horiz-adv-x="646" 
d="M400 0q-16 0 -34 -0.5t-30 -1.5q-19 -2 -34 -2.5t-32 -0.5q-70 0 -112 17t-65 50.5t-30.5 83.5t-7.5 116q0 71 9.5 124.5t33.5 89t65.5 53.5t105.5 18q14 0 27.5 -0.5t29.5 -1.5q22 -1 41.5 -1h37.5h197v-46h-210v-196h200v-46h-200v-209h216v-47h-208zM335 497
q-33 3 -67 3q-50 0 -80.5 -18.5t-46.5 -51t-21 -76t-5 -93.5q0 -47 3.5 -87.5t18.5 -69.5t46 -45.5t87 -16.5q13 0 28 1t37 3v451z" />
    <glyph glyph-name="racute.sc" horiz-adv-x="445" 
d="M328 0q-5 17 -7 46.5t-2 64.5q0 34 -1 59.5t-6 43.5q-6 23 -27 34t-70 11h-83v-259h-57v544h152q81 0 119.5 -31.5t38.5 -103.5q0 -46 -16 -78t-64 -49q36 -7 49.5 -25t16.5 -38q3 -18 4 -47.5t1 -59.5q0 -10 0.5 -24.5t2 -30t3.5 -31t4 -26.5h-58zM326 409q0 49 -24 69
t-77 20h-93v-194h87q58 0 82.5 23t24.5 82zM203 634h-48l106 139h73z" />
    <glyph glyph-name="rcaron.sc" horiz-adv-x="445" 
d="M328 0q-5 17 -7 46.5t-2 64.5q0 34 -1 59.5t-6 43.5q-6 23 -27 34t-70 11h-83v-259h-57v544h152q81 0 119.5 -31.5t38.5 -103.5q0 -46 -16 -78t-64 -49q36 -7 49.5 -25t16.5 -38q3 -18 4 -47.5t1 -59.5q0 -10 0.5 -24.5t2 -30t3.5 -31t4 -26.5h-58zM326 409q0 49 -24 69
t-77 20h-93v-194h87q58 0 82.5 23t24.5 82zM255 634h-67l-103 139h51l86 -99l86 99h50z" />
    <glyph glyph-name="rcommaaccent.sc" horiz-adv-x="445" 
d="M328 0q-5 17 -7 46.5t-2 64.5q0 34 -1 59.5t-6 43.5q-6 23 -27 34t-70 11h-83v-259h-57v544h152q81 0 119.5 -31.5t38.5 -103.5q0 -46 -16 -78t-64 -49q36 -7 49.5 -25t16.5 -38q3 -18 4 -47.5t1 -59.5q0 -10 0.5 -24.5t2 -30t3.5 -31t4 -26.5h-58zM326 409q0 49 -24 69
t-77 20h-93v-194h87q58 0 82.5 23t24.5 82zM216 -200h-45l33 141h61z" />
    <glyph glyph-name="sacute.sc" horiz-adv-x="421" 
d="M373 133q0 -68 -41.5 -106.5t-122.5 -38.5q-91 0 -127.5 40.5t-36.5 113.5v11h59v-11q0 -24 5 -44t17 -34t32 -22t51 -8q55 0 79.5 24.5t24.5 74.5q0 33 -14.5 57t-60.5 48l-70 36q-54 28 -82.5 60.5t-28.5 85.5q0 66 43 101t115 35q154 0 154 -130v-20h-57v15
q0 41 -20.5 65t-74.5 24q-52 0 -76 -23t-24 -63q0 -36 20 -58.5t60 -42.5l70 -36q30 -16 50.5 -32t33 -34.5t17.5 -40t5 -47.5zM203 634h-48l106 139h73z" />
    <glyph glyph-name="scircumflex.sc" horiz-adv-x="421" 
d="M373 133q0 -68 -41.5 -106.5t-122.5 -38.5q-91 0 -127.5 40.5t-36.5 113.5v11h59v-11q0 -24 5 -44t17 -34t32 -22t51 -8q55 0 79.5 24.5t24.5 74.5q0 33 -14.5 57t-60.5 48l-70 36q-54 28 -82.5 60.5t-28.5 85.5q0 66 43 101t115 35q154 0 154 -130v-20h-57v15
q0 41 -20.5 65t-74.5 24q-52 0 -76 -23t-24 -63q0 -36 20 -58.5t60 -42.5l70 -36q30 -16 50.5 -32t33 -34.5t17.5 -40t5 -47.5zM305 634l-86 99l-86 -99h-51l103 139h67l103 -139h-50z" />
    <glyph glyph-name="scaron.sc" horiz-adv-x="421" 
d="M373 133q0 -68 -41.5 -106.5t-122.5 -38.5q-91 0 -127.5 40.5t-36.5 113.5v11h59v-11q0 -24 5 -44t17 -34t32 -22t51 -8q55 0 79.5 24.5t24.5 74.5q0 33 -14.5 57t-60.5 48l-70 36q-54 28 -82.5 60.5t-28.5 85.5q0 66 43 101t115 35q154 0 154 -130v-20h-57v15
q0 41 -20.5 65t-74.5 24q-52 0 -76 -23t-24 -63q0 -36 20 -58.5t60 -42.5l70 -36q30 -16 50.5 -32t33 -34.5t17.5 -40t5 -47.5zM252 634h-67l-103 139h51l86 -99l86 99h50z" />
    <glyph glyph-name="scedilla.sc" horiz-adv-x="421" 
d="M301 -124q0 -22 -9 -37.5t-24 -26t-33.5 -15.5t-37.5 -5q-46 0 -89 20l14 30q16 -7 31.5 -11t32.5 -4q24 0 42 11t18 34q0 21 -14 31t-36 10q-19 0 -40 -8l-14 13l48 71q-80 4 -112.5 44t-32.5 109v11h59v-11q0 -24 5 -44t17 -34t32 -22t51 -8q55 0 79.5 24.5t24.5 74.5
q0 33 -14.5 57t-60.5 48l-70 36q-54 28 -82.5 60.5t-28.5 85.5q0 66 43 101t115 35q154 0 154 -130v-20h-57v15q0 41 -20.5 65t-74.5 24q-52 0 -76 -23t-24 -63q0 -36 20 -58.5t60 -42.5l70 -36q30 -16 50.5 -32t33 -34.5t17.5 -40t5 -47.5q0 -64 -37 -101.5t-109 -42.5
l-35 -48q16 6 34 6q31 0 53 -19.5t22 -51.5z" />
    <glyph glyph-name="scommaaccent.sc" horiz-adv-x="421" 
d="M373 133q0 -68 -41.5 -106.5t-122.5 -38.5q-91 0 -127.5 40.5t-36.5 113.5v11h59v-11q0 -24 5 -44t17 -34t32 -22t51 -8q55 0 79.5 24.5t24.5 74.5q0 33 -14.5 57t-60.5 48l-70 36q-54 28 -82.5 60.5t-28.5 85.5q0 66 43 101t115 35q154 0 154 -130v-20h-57v15
q0 41 -20.5 65t-74.5 24q-52 0 -76 -23t-24 -63q0 -36 20 -58.5t60 -42.5l70 -36q30 -16 50.5 -32t33 -34.5t17.5 -40t5 -47.5zM199 -200h-45l33 141h61z" />
    <glyph glyph-name="tcaron.sc" horiz-adv-x="357" 
d="M207 498v-498h-57v498h-142v46h341v-46h-142zM212 634h-67l-103 139h51l86 -99l86 99h50z" />
    <glyph glyph-name="tcommaaccent.sc" horiz-adv-x="357" 
d="M207 498v-498h-57v498h-142v46h341v-46h-142zM158 -200h-45l33 141h61z" />
    <glyph glyph-name="tbar.sc" horiz-adv-x="357" 
d="M28 304h122v194h-142v46h341v-46h-142v-194h122v-46h-122v-258h-57v258h-122v46z" />
    <glyph glyph-name="thorn.sc" horiz-adv-x="403" 
d="M132 0h-57v544h57v-109h68q88 0 131.5 -32t43.5 -113q0 -50 -14 -80.5t-40 -47t-62.5 -22t-80.5 -5.5h-46v-135zM315 289q0 54 -27.5 77t-91.5 23h-64v-208h57q69 0 97.5 24.5t28.5 83.5z" />
    <glyph glyph-name="ugrave.sc" horiz-adv-x="481" 
d="M413 180q0 -45 -8 -80.5t-27.5 -60t-52.5 -38t-83 -13.5q-55 0 -89 14.5t-53 41t-25.5 62.5t-6.5 78v360h57v-361q0 -29 3.5 -56t16 -47.5t35.5 -32.5t62 -12q38 0 60.5 12t34.5 32.5t15.5 46.5t3.5 54v364h57v-364v0zM262 634l-131 139h74l105 -139h-48z" />
    <glyph glyph-name="uacute.sc" horiz-adv-x="481" 
d="M413 180q0 -45 -8 -80.5t-27.5 -60t-52.5 -38t-83 -13.5q-55 0 -89 14.5t-53 41t-25.5 62.5t-6.5 78v360h57v-361q0 -29 3.5 -56t16 -47.5t35.5 -32.5t62 -12q38 0 60.5 12t34.5 32.5t15.5 46.5t3.5 54v364h57v-364v0zM222 634h-48l106 139h73z" />
    <glyph glyph-name="ucircumflex.sc" horiz-adv-x="481" 
d="M413 180q0 -45 -8 -80.5t-27.5 -60t-52.5 -38t-83 -13.5q-55 0 -89 14.5t-53 41t-25.5 62.5t-6.5 78v360h57v-361q0 -29 3.5 -56t16 -47.5t35.5 -32.5t62 -12q38 0 60.5 12t34.5 32.5t15.5 46.5t3.5 54v364h57v-364v0zM327 634l-86 99l-86 -99h-51l103 139h67l103 -139
h-50z" />
    <glyph glyph-name="utilde.sc" horiz-adv-x="481" 
d="M413 180q0 -45 -8 -80.5t-27.5 -60t-52.5 -38t-83 -13.5q-55 0 -89 14.5t-53 41t-25.5 62.5t-6.5 78v360h57v-361q0 -29 3.5 -56t16 -47.5t35.5 -32.5t62 -12q38 0 60.5 12t34.5 32.5t15.5 46.5t3.5 54v364h57v-364v0zM389 747q-2 -17 -7 -34t-15 -31t-24.5 -23t-33.5 -9
q-20 0 -37.5 7t-34 15t-32.5 15t-32 7q-21 0 -32 -15t-15 -34h-35q1 19 7.5 36.5t17 31t26 21.5t36.5 8q17 0 33.5 -7t32.5 -15t32.5 -15t33.5 -7q20 0 30 15.5t12 33.5h37v0z" />
    <glyph glyph-name="udieresis.sc" horiz-adv-x="481" 
d="M413 180q0 -45 -8 -80.5t-27.5 -60t-52.5 -38t-83 -13.5q-55 0 -89 14.5t-53 41t-25.5 62.5t-6.5 78v360h57v-361q0 -29 3.5 -56t16 -47.5t35.5 -32.5t62 -12q38 0 60.5 12t34.5 32.5t15.5 46.5t3.5 54v364h57v-364v0zM284 668v90h62v-90h-62zM134 668v90h62v-90h-62z
" />
    <glyph glyph-name="umacron.sc" horiz-adv-x="481" 
d="M413 180q0 -45 -8 -80.5t-27.5 -60t-52.5 -38t-83 -13.5q-55 0 -89 14.5t-53 41t-25.5 62.5t-6.5 78v360h57v-361q0 -29 3.5 -56t16 -47.5t35.5 -32.5t62 -12q38 0 60.5 12t34.5 32.5t15.5 46.5t3.5 54v364h57v-364v0zM117 672v45h246v-45h-246z" />
    <glyph glyph-name="ubreve.sc" horiz-adv-x="481" 
d="M413 180q0 -45 -8 -80.5t-27.5 -60t-52.5 -38t-83 -13.5q-55 0 -89 14.5t-53 41t-25.5 62.5t-6.5 78v360h57v-361q0 -29 3.5 -56t16 -47.5t35.5 -32.5t62 -12q38 0 60.5 12t34.5 32.5t15.5 46.5t3.5 54v364h57v-364v0zM377 758q-7 -62 -43.5 -94.5t-98.5 -32.5
q-60 0 -93 35t-39 92h37q8 -42 34 -61.5t68 -19.5t65.5 20.5t34.5 60.5h35v0z" />
    <glyph glyph-name="uring.sc" horiz-adv-x="481" 
d="M413 180q0 -45 -8 -80.5t-27.5 -60t-52.5 -38t-83 -13.5q-55 0 -89 14.5t-53 41t-25.5 62.5t-6.5 78v360h57v-361q0 -29 3.5 -56t16 -47.5t35.5 -32.5t62 -12q38 0 60.5 12t34.5 32.5t15.5 46.5t3.5 54v364h57v-364v0zM328 711q0 -37 -25.5 -62.5t-62.5 -25.5t-62.5 25.5
t-25.5 62.5t25.5 62.5t62.5 25.5t62.5 -25.5t25.5 -62.5zM298 711q0 24 -17 41t-41 17t-41 -17t-17 -41t17 -41t41 -17t41 17t17 41z" />
    <glyph glyph-name="uhungarumlaut.sc" horiz-adv-x="481" 
d="M413 180q0 -45 -8 -80.5t-27.5 -60t-52.5 -38t-83 -13.5q-55 0 -89 14.5t-53 41t-25.5 62.5t-6.5 78v360h57v-361q0 -29 3.5 -56t16 -47.5t35.5 -32.5t62 -12q38 0 60.5 12t34.5 32.5t15.5 46.5t3.5 54v364h57v-364v0zM319 634h-48l105 139h74zM184 634h-48l106 139h73z
" />
    <glyph glyph-name="uogonek.sc" horiz-adv-x="481" 
d="M309 -167q-17 -10 -35.5 -16t-38.5 -6q-32 0 -54 21t-22 53q0 35 23.5 60t51.5 43q-52 1 -84.5 16t-50.5 41.5t-24.5 61.5t-6.5 77v360h57v-361q0 -29 3.5 -56t16 -47.5t35.5 -32.5t62 -12q38 0 60.5 12t34.5 32.5t15.5 46.5t3.5 54v364h57v-364q0 -41 -6.5 -74
t-22.5 -57.5t-43 -39.5t-67 -19q-28 -17 -47 -39t-19 -51q0 -24 14.5 -39.5t37.5 -15.5q11 0 21.5 3t20.5 7l7 -22v0z" />
    <glyph glyph-name="wacute.sc" horiz-adv-x="704" 
d="M534 0h-69l-113 482l-118 -482h-69l-138 544h61l113 -480l119 480h69l114 -480l118 480h56zM362 634h-48l106 139h73z" />
    <glyph glyph-name="wcircumflex.sc" horiz-adv-x="704" 
d="M534 0h-69l-113 482l-118 -482h-69l-138 544h61l113 -480l119 480h69l114 -480l118 480h56zM439 634l-86 99l-86 -99h-51l103 139h67l103 -139h-50z" />
    <glyph glyph-name="wdieresis.sc" horiz-adv-x="704" 
d="M534 0h-69l-113 482l-118 -482h-69l-138 544h61l113 -480l119 480h69l114 -480l118 480h56zM396 668v90h62v-90h-62zM246 668v90h62v-90h-62z" />
    <glyph glyph-name="wgrave.sc" horiz-adv-x="704" 
d="M534 0h-69l-113 482l-118 -482h-69l-138 544h61l113 -480l119 480h69l114 -480l118 480h56zM343 634l-131 139h74l105 -139h-48z" />
    <glyph glyph-name="yacute.sc" horiz-adv-x="412" 
d="M234 219v-219h-57v219l-163 325h64l130 -272l129 272h61zM204 634h-48l106 139h73z" />
    <glyph glyph-name="ycircumflex.sc" horiz-adv-x="412" 
d="M234 219v-219h-57v219l-163 325h64l130 -272l129 272h61zM295 634l-86 99l-86 -99h-51l103 139h67l103 -139h-50z" />
    <glyph glyph-name="ydieresis.sc" horiz-adv-x="412" 
d="M234 219v-219h-57v219l-163 325h64l130 -272l129 272h61zM252 668v90h62v-90h-62zM102 668v90h62v-90h-62z" />
    <glyph glyph-name="ygrave.sc" horiz-adv-x="412" 
d="M234 219v-219h-57v219l-163 325h64l130 -272l129 272h61zM207 634l-131 139h74l105 -139h-48z" />
    <glyph glyph-name="zacute.sc" horiz-adv-x="380" 
d="M28 0v47l264 451h-248v46h308v-50l-261 -447h261v-47h-324zM188 634h-48l106 139h73z" />
    <glyph glyph-name="zcaron.sc" horiz-adv-x="380" 
d="M28 0v47l264 451h-248v46h308v-50l-261 -447h261v-47h-324zM239 634h-67l-103 139h51l86 -99l86 99h50z" />
    <glyph glyph-name="zdotaccent.sc" horiz-adv-x="380" 
d="M28 0v47l264 451h-248v46h308v-50l-261 -447h261v-47h-324zM173 668v90h62v-90h-62z" />
    <glyph glyph-name="ij.sc" horiz-adv-x="589" 
d="M75 0v544h57v-544h-57zM520 164q0 -35 -4.5 -67t-19.5 -56t-43.5 -38.5t-76.5 -14.5q-44 0 -72 12.5t-43.5 33.5t-21 49.5t-5.5 60.5v14h57v-13q0 -20 2 -39.5t10 -35t25 -25.5t47 -10q31 0 49 11t26.5 28.5t10.5 39t2 41.5v389h57v-380v0z" />
    <glyph glyph-name="germandbls.sc" horiz-adv-x="842" 
d="M794 133q0 -68 -41.5 -106.5t-122.5 -38.5q-91 0 -127.5 40.5t-36.5 113.5v11h59v-11q0 -24 5 -44t17 -34t32 -22t51 -8q55 0 79.5 24.5t24.5 74.5q0 33 -14.5 57t-60.5 48l-70 36q-54 28 -82.5 60.5t-28.5 85.5q0 66 43 101t115 35q154 0 154 -130v-20h-57v15
q0 41 -20.5 65t-74.5 24q-52 0 -76 -23t-24 -63q0 -36 20 -58.5t60 -42.5l70 -36q30 -16 50.5 -32t33 -34.5t17.5 -40t5 -47.5zM373 133q0 -68 -41.5 -106.5t-122.5 -38.5q-91 0 -127.5 40.5t-36.5 113.5v11h59v-11q0 -24 5 -44t17 -34t32 -22t51 -8q55 0 79.5 24.5
t24.5 74.5q0 33 -14.5 57t-60.5 48l-70 36q-54 28 -82.5 60.5t-28.5 85.5q0 66 43 101t115 35q154 0 154 -130v-20h-57v15q0 41 -20.5 65t-74.5 24q-52 0 -76 -23t-24 -63q0 -36 20 -58.5t60 -42.5l70 -36q30 -16 50.5 -32t33 -34.5t17.5 -40t5 -47.5z" />
    <glyph glyph-name="eng.sc" horiz-adv-x="515" 
d="M440 -86q0 -66 -25 -92.5t-77 -26.5q-6 0 -16 0.5t-19 1.5v50q7 -1 15 -1.5t11 -0.5q57 0 57 59v96l-256 478v-478h-55v544h77l234 -436v436h54v-630z" />
    <glyph glyph-name="grave.sc" horiz-adv-x="175" 
d="M105 634l-131 139h74l105 -139h-48z" />
    <glyph glyph-name="acute.sc" horiz-adv-x="175" 
d="M70 634h-48l106 139h73z" />
    <glyph glyph-name="circumflex.sc" horiz-adv-x="175" 
d="M174 634l-86 99l-86 -99h-51l103 139h67l103 -139h-50z" />
    <glyph glyph-name="caron.sc" horiz-adv-x="175" 
d="M121 634h-67l-103 139h51l86 -99l86 99h50z" />
    <glyph glyph-name="tilde.sc" horiz-adv-x="175" 
d="M237 747q-2 -17 -7 -34t-15 -31t-24.5 -23t-33.5 -9q-20 0 -37.5 7t-34 15t-32.5 15t-32 7q-21 0 -32 -15t-15 -34h-35q1 19 7.5 36.5t17 31t26 21.5t36.5 8q17 0 33.5 -7t32.5 -15t32.5 -15t33.5 -7q20 0 30 15.5t12 33.5h37v0z" />
    <glyph glyph-name="dieresis.sc" horiz-adv-x="175" 
d="M132 668v90h62v-90h-62zM-18 668v90h62v-90h-62z" />
    <glyph glyph-name="macron.sc" horiz-adv-x="175" 
d="M-35 672v45h246v-45h-246z" />
    <glyph glyph-name="breve.sc" horiz-adv-x="175" 
d="M225 758q-7 -62 -43.5 -94.5t-98.5 -32.5q-60 0 -93 35t-39 92h37q8 -42 34 -61.5t68 -19.5t65.5 20.5t34.5 60.5h35v0z" />
    <glyph glyph-name="ring.sc" horiz-adv-x="175" 
d="M176 711q0 -37 -25.5 -62.5t-62.5 -25.5t-62.5 25.5t-25.5 62.5t25.5 62.5t62.5 25.5t62.5 -25.5t25.5 -62.5zM146 711q0 24 -17 41t-41 17t-41 -17t-17 -41t17 -41t41 -17t41 17t17 41z" />
    <glyph glyph-name="hungarumlaut.sc" horiz-adv-x="175" 
d="M143 634h-48l105 139h74zM8 634h-48l106 139h73z" />
    <glyph glyph-name="dotaccent.sc" horiz-adv-x="175" 
d="M57 668v90h62v-90h-62z" />
    <glyph glyph-name="exclamdown.sc" horiz-adv-x="190" 
d="M69.9961 416.975h48.9971l6.99902 -416.975h-62.9961zM128.992 543.967v-76.9951h-68.9961v76.9951h68.9961z" />
    <glyph glyph-name="questiondown.sc" horiz-adv-x="322" 
d="M53.9971 111.993q0 21.999 2.49902 39.498q2.5 17.498 10 35.4971q7.49902 17.999 19.999 38.998q12.499 20.999 32.498 48.9971q11.999 16.999 18.998 40.9971q7 23.999 7 55.9971v33.998h51.9971v-23.999q0 -55.9961 -12 -88.4941q-11.999 -32.498 -31.998 -59.4971
q-20.998 -28.998 -30.998 -53.4961q-9.99902 -24.499 -9.99902 -65.4961q0 -38.998 11.499 -59.9961q11.5 -20.999 46.4971 -20.999q32.998 0 45.9971 18.499q13 18.499 13 50.4971v14.999h55.9961v-13q0 -25.998 -5.49902 -47.4971q-5.5 -21.498 -18.499 -36.9971
q-13 -15.499 -34.998 -23.999q-21.999 -8.49902 -53.9971 -8.49902q-35.9971 0 -58.9961 8.99902q-22.999 9 -35.998 24.999t-17.999 38.9971q-4.99902 22.999 -4.99902 50.9971zM204.987 543.967v-76.9951h-68.9951v76.9951h68.9951z" />
    <glyph glyph-name="Euro.sc" horiz-adv-x="380" 
d="M132 308v-54h162l-9 -41h-153q1 -41 6 -74t18 -56t36.5 -36t60.5 -13q34 0 57 11.5t40 28.5v-59q-18 -12 -40 -19.5t-58 -7.5q-52 0 -85.5 16t-53.5 45t-28 71t-9 93h-68l9 41h59v54h-67l9 41h59q3 46 13 84.5t31 65.5t53 42t78 15q25 0 43.5 -4t31 -9t21 -11.5
t13.5 -10.5l-12 -56q-13 18 -38 32t-60 14q-31 0 -52.5 -12t-35.5 -33.5t-21 -51.5t-9 -65h182l-10 -41h-173z" />
    <glyph glyph-name="cent.sc" horiz-adv-x="380" 
d="M200 470q6 0 11.5 -0.5t10.5 -0.5l21 77h35l-22 -83q33 -9 50 -35.5t17 -79.5h-54q0 29 -6.5 45.5t-18.5 24.5l-80 -300q12 -4 32 -4q22 0 36 6.5t21.5 17.5t10.5 26t4 33h54q0 -57 -28.5 -90.5t-94.5 -33.5q-25 0 -46 3l-20 -78h-36l23 88q-35 17 -49 60t-14 124
q0 35 3 71t16.5 64.5t42.5 46.5t81 18zM114 270q0 -45 3.5 -77.5t17.5 -52.5l76 287q-4 1 -12 1q-31 0 -48 -14t-25.5 -36.5t-10 -51t-1.5 -56.5z" />
    <glyph glyph-name="sterling.sc" horiz-adv-x="380" 
d="M298 417v5q0 43 -15.5 66t-53.5 23q-23 0 -38 -7.5t-23.5 -22t-11.5 -35.5t-3 -47v-94h116v-45h-116v-213h191v-47h-308v47h60v213h-66v45h66v84q0 82 28 124.5t106 42.5q68 0 95 -33t27 -94v-12h-54z" />
    <glyph glyph-name="florin.sc" horiz-adv-x="380" 
d="M211 367h75l-6 -43h-75l-44 -323q-9 -67 -38.5 -94t-76.5 -27h-7.5t-10.5 1l7 47q5 -1 10 -1q23 0 40 18t23 66l42 313h-66l7 43h65l7 53q4 33 11.5 58.5t20 43t32 26t49.5 8.5q14 0 37 -5l-8 -48q-17 5 -28 5q-26 0 -38.5 -17t-17.5 -56z" />
    <glyph glyph-name="yen.sc" horiz-adv-x="380" 
d="M233 239h94v-41h-111v-54h111v-41h-111v-103h-55v103h-109v41h109v54h-109v41h94l-138 305h62l119 -287l126 287h57z" />
    <glyph glyph-name="perthousand.sc" horiz-adv-x="764" 
d="M229 421q0 -25 -4 -48.5t-14.5 -42t-29.5 -29.5t-49 -11t-49 11t-29.5 29.5t-14.5 42t-4 48.5t4 48.5t14.5 42t29.5 29.5t49 11t49 -11t29.5 -29.5t14.5 -42t4 -48.5zM181 421q0 19 -1.5 36t-6.5 29.5t-14.5 19.5t-26.5 7t-26.5 -7t-14.5 -19.5t-6.5 -29.5t-1.5 -36
t1.5 -36t6.5 -29.5t14.5 -19.5t26.5 -7t26.5 7t14.5 19.5t6.5 29.5t1.5 36zM103 -24h-52l362 592h51zM482 125q0 -25 -4 -48.5t-14.5 -42t-29.5 -29.5t-49 -11t-49 11t-29.5 29.5t-14.5 42t-4 48.5t4 48.5t14.5 42t29.5 29.5t49 11t49 -11t29.5 -29.5t14.5 -42t4 -48.5z
M434 125q0 19 -1.5 36t-6.5 29.5t-14.5 19.5t-26.5 7t-26.5 -7t-14.5 -19.5t-6.5 -29.5t-1.5 -36t1.5 -36t6.5 -29.5t14.5 -19.5t26.5 -7t26.5 7t14.5 19.5t6.5 29.5t1.5 36zM729 125q0 -25 -4 -48.5t-14.5 -42t-29.5 -29.5t-49 -11t-49 11t-29.5 29.5t-14.5 42t-4 48.5
t4 48.5t14.5 42t29.5 29.5t49 11t49 -11t29.5 -29.5t14.5 -42t4 -48.5zM681 125q0 19 -1.5 36t-6.5 29.5t-14.5 19.5t-26.5 7t-26.5 -7t-14.5 -19.5t-6.5 -29.5t-1.5 -36t1.5 -36t6.5 -29.5t14.5 -19.5t26.5 -7t26.5 7t14.5 19.5t6.5 29.5t1.5 36z" />
    <glyph glyph-name="parenleft.sc" horiz-adv-x="212" 
d="M38 278q0 84 20.5 164.5t49.5 159.5h45q-26 -81 -40.5 -163t-14.5 -164t15 -167.5t40 -167.5h-43q-29 83 -50.5 167t-21.5 171z" />
    <glyph glyph-name="parenright.sc" horiz-adv-x="212" 
d="M173 278q0 -87 -21.5 -171t-50.5 -167h-43q25 82 40 167.5t15 167.5t-14.5 164t-40.5 163h45q29 -79 49.5 -159.5t20.5 -164.5z" />
    <glyph glyph-name="bracketleft.sc" horiz-adv-x="213" 
d="M55 -60v662h118v-40h-67v-582h67v-40h-118z" />
    <glyph glyph-name="bracketright.sc" horiz-adv-x="213" 
d="M40 -60v40h67v582h-67v40h118v-662h-118z" />
    <glyph glyph-name="braceleft.sc" horiz-adv-x="262" 
d="M247 -60q-47 2 -75 13t-43 30.5t-19.5 46.5t-4.5 62v53q0 30 -5 49.5t-16 32t-29 19t-45 9.5v33q26 4 44 10.5t29.5 17.5t16.5 29t5 47v57q0 32 3.5 59t18 46.5t42.5 32t78 15.5v-33q-33 -3 -51.5 -12t-27.5 -24.5t-11 -37.5t-2 -51v-39q0 -22 -2.5 -43t-11.5 -39
t-25.5 -31.5t-44.5 -19.5q28 -7 44.5 -20.5t25.5 -31t11.5 -38t2.5 -42.5v-48q0 -25 1.5 -46t10.5 -36.5t27.5 -24.5t52.5 -11v-34z" />
    <glyph glyph-name="braceright.sc" horiz-adv-x="262" 
d="M15 -26q34 2 52.5 11t27.5 24.5t10.5 36.5t1.5 46v48q0 22 2.5 42.5t11.5 38t25.5 31t44.5 20.5q-28 6 -44.5 19.5t-25.5 31.5t-11.5 39t-2.5 43v39q0 29 -2 51t-11 37.5t-27.5 24.5t-51.5 12v33q49 -3 77.5 -15.5t43 -32t18 -46.5t3.5 -59v-57q0 -29 5 -47t16.5 -29
t29.5 -17.5t44 -10.5v-33q-27 -3 -45 -9.5t-29 -19t-16 -32t-5 -49.5v-53q0 -35 -4.5 -62t-19.5 -46.5t-43 -30.5t-75 -13v34z" />
    <glyph glyph-name="zero.onum" 
d="M391 242q0 -72 -11.5 -120.5t-33.5 -78t-54.5 -42.5t-73.5 -13t-73.5 13t-54.5 42.5t-33.5 78t-11.5 120.5v66q0 72 11.5 120.5t34 78t55 42.5t73.5 13t73 -13t54 -42.5t33.5 -78t11.5 -120.5v-66zM331 308q0 57 -7 96t-21 63t-35 34.5t-49 10.5t-49.5 -10.5t-35.5 -34.5
t-21.5 -63t-7.5 -96v-66q0 -57 7 -96t21.5 -63t35.5 -34.5t49 -10.5t49 10.5t35.5 34.5t21.5 63t7 96v66z" />
    <glyph glyph-name="one.onum" 
d="M228 0v483q-26 -21 -64 -41.5t-70 -34.5v59q13 6 31 15.5t36.5 20.5t37 23.5t33.5 24.5h55v-550h-59z" />
    <glyph glyph-name="two.onum" 
d="M55 0v55l182 197q90 97 90 168q0 44 -23.5 68t-71.5 24q-57 0 -82.5 -29t-30.5 -82h-58q13 161 171 161q78 0 116 -39t38 -103q0 -44 -28.5 -96.5t-94.5 -122.5l-144 -152h266v-49h-330z" />
    <glyph glyph-name="three.onum" 
d="M378 57q0 -45 -8 -83.5t-27.5 -67t-52 -45t-80.5 -16.5q-46 0 -77.5 12.5t-51 36.5t-28 57.5t-8.5 75.5h59q0 -60 22.5 -96.5t82.5 -36.5q32 0 53.5 12t34 32.5t18 48t5.5 59.5q0 44 -7.5 72.5t-24 45t-42 22.5t-62.5 6h-12v50h12q69 0 100 34t31 111q0 26 -4.5 49
t-15.5 40t-30.5 27t-49.5 10t-50 -10.5t-32 -28t-16.5 -41t-4.5 -50.5h-57v3q0 39 8.5 71t28 55.5t50.5 36.5t75 13q84 0 120 -43t36 -128q0 -26 -4.5 -53.5t-16 -52t-31.5 -42.5t-50 -25q33 -5 54 -18.5t33 -34.5t16 -48.5t4 -59.5z" />
    <glyph glyph-name="four.onum" 
d="M328 0v-143h-57v143h-237v63l210 487h84v-501h78v-49h-78zM271 489l-186 -440h186v440z" />
    <glyph glyph-name="five.onum" 
d="M382 82q0 -44 -5.5 -86.5t-23.5 -76t-51 -54t-88 -20.5q-45 0 -75 12.5t-48 35t-26 54.5t-8 72h58q0 -28 4 -51t15 -39.5t30.5 -25.5t50.5 -9q34 0 55.5 13.5t33.5 38t16 59.5t4 77q0 33 -3.5 63.5t-14 54t-31 37.5t-54.5 14q-39 0 -65 -17t-38 -58h-55l12 374h290v-49
h-235l-11 -256q23 28 49.5 41t62.5 13q52 0 82 -18.5t45.5 -49t19.5 -69.5t4 -80z" />
    <glyph glyph-name="six.onum" 
d="M392 235q0 -45 -5.5 -89t-22.5 -79.5t-50 -57t-88 -21.5q-63 0 -97.5 27t-50 71.5t-18 100.5t-2.5 113v134q0 49 4 100t21.5 93t52 69t94.5 27q44 0 73.5 -11t47.5 -32t25.5 -52t7.5 -70h-58q0 25 -4.5 46t-15.5 36.5t-29.5 24.5t-45.5 9q-41 0 -64.5 -22t-35 -58
t-14.5 -81t-3 -91v-50q23 38 53 56t75 18q46 0 75 -17.5t45.5 -46.5t23 -67t6.5 -80zM334 231q0 27 -3.5 56t-14 53.5t-31.5 40t-55 15.5q-37 0 -59.5 -16t-34.5 -42t-16 -58.5t-4 -65.5q0 -30 3.5 -61t15 -57t34 -42.5t60.5 -16.5t59.5 20t31.5 49.5t12 63t2 61.5z" />
    <glyph glyph-name="seven.onum" 
d="M179 -143h-62l214 642h-279v51h333v-54z" />
    <glyph glyph-name="eight.onum" 
d="M388 193q0 -45 -8.5 -82.5t-28.5 -64.5t-52.5 -42.5t-81.5 -15.5q-47 0 -79.5 14.5t-52 41t-28 63.5t-8.5 82q0 28 3 57.5t13 54t29.5 43t52.5 26.5q-54 20 -72.5 61t-18.5 97q0 43 9 78.5t28.5 61.5t51 40.5t75.5 14.5q85 0 123.5 -45.5t38.5 -132.5q0 -26 -3 -53.5
t-13 -52t-29 -43t-51 -26.5q36 -6 56 -24t30.5 -43t13 -54t2.5 -56zM323 528q0 28 -3.5 54.5t-14 47t-30.5 32.5t-53 12q-32 0 -53 -11.5t-33 -31t-17 -45.5t-5 -55q0 -27 5 -52.5t17 -44.5t32 -30.5t51 -11.5q30 0 50 11.5t32 30t17 43t5 51.5zM329 192q0 30 -3.5 57
t-14.5 47.5t-33 33t-58 12.5q-37 0 -59 -13t-34 -34.5t-16 -49t-4 -56.5q0 -28 4.5 -55t16.5 -48.5t33.5 -35t55.5 -13.5q36 0 58 13t34 35t16 49.5t4 57.5z" />
    <glyph glyph-name="nine.onum" 
d="M382 207q0 -89 -5 -156.5t-22.5 -113.5t-51.5 -69t-92 -23q-82 0 -119 41t-37 124h61q0 -60 19 -88t76 -28q36 0 58 16t35 49.5t17.5 85t4.5 121.5v24q-23 -32 -53 -47.5t-72 -15.5q-50 0 -79.5 18.5t-46 48.5t-21.5 69t-5 80q0 45 7.5 85t26.5 70t52 47t84 17t82.5 -16
t49.5 -46.5t24.5 -74t6.5 -98.5v-120zM324 357q0 27 -3.5 54.5t-14.5 50t-32 37t-56 14.5q-36 0 -58 -15t-33 -39t-14.5 -54.5t-3.5 -61.5q0 -33 3.5 -63t14 -53t30 -36.5t52.5 -13.5q40 0 63.5 15.5t34.5 40.5t14 57.5t3 66.5z" />
    <glyph glyph-name="zero.scprop" horiz-adv-x="380" 
d="M280 334q0 44 -3 77t-12.5 55.5t-27.5 34t-47 11.5t-47 -11.5t-27.5 -34t-12.5 -55.5t-3 -77v-124q0 -44 3 -77t12.5 -55.5t27.5 -33.5t47 -11t47 11t27.5 33.5t12.5 55.5t3 77v124zM43 314q0 57 4.5 101.5t19.5 76t44 48t79 16.5q49 0 78.5 -16.5t44.5 -48t19.5 -76
t4.5 -101.5v-83q0 -57 -4.5 -102t-19.5 -76.5t-44.5 -48t-78.5 -16.5q-50 0 -79 16.5t-44 48t-19.5 76.5t-4.5 102v83z" />
    <glyph glyph-name="one.scprop" horiz-adv-x="320" 
d="M167 0v475q-43 -37 -99 -72v59q12 7 26.5 17t29 21t27 22.5t21.5 21.5h51v-544h-56z" />
    <glyph glyph-name="two.scprop" horiz-adv-x="380" 
d="M338 428q0 -38 -18 -78.5t-51 -85.5l-161 -219h228v-45h-291v47l184 254q26 37 38.5 67t12.5 62q0 42 -23 62t-61 20q-51 0 -71 -28.5t-20 -70.5h-57v6q0 66 39 101.5t113 35.5q72 0 105 -34t33 -94z" />
    <glyph glyph-name="three.scprop" horiz-adv-x="380" 
d="M333 152q0 -38 -7.5 -68t-25 -51.5t-46.5 -33t-71 -11.5q-77 0 -111 34.5t-34 101.5v9h58q0 -49 18.5 -75t69.5 -26q53 0 73 28.5t20 82.5q0 64 -28 89.5t-94 25.5h-6v45h6q63 0 90 25t27 88q0 19 -3.5 36.5t-13 31t-25.5 21t-41 7.5q-26 0 -42.5 -7.5t-26.5 -21
t-14 -31.5t-4 -39h-56v5q0 31 7.5 56.5t25 43.5t45 28t66.5 10q75 0 107 -34.5t32 -102.5q0 -23 -3.5 -45t-12 -40t-23.5 -31.5t-37 -20.5q25 -6 40.5 -18.5t24.5 -30t12 -38.5t3 -43z" />
    <glyph glyph-name="four.scprop" horiz-adv-x="380" 
d="M287 130v-130h-55v130h-201v52l180 362h76v-369h67v-45h-67zM232 482l-150 -307h150v307z" />
    <glyph glyph-name="five.scprop" horiz-adv-x="380" 
d="M338 178q0 -36 -5 -70.5t-20.5 -61t-45.5 -42.5t-79 -16q-78 0 -109 39t-31 102h57q0 -44 16 -70t67 -26q30 0 48.5 10t28.5 29t13 46t3 60q0 25 -3 48t-12.5 41t-27 29t-45.5 11q-29 0 -55.5 -14.5t-32.5 -40.5h-54l11 292h259v-44h-205l-9 -185q37 36 94 36
q45 0 72.5 -15t41.5 -40t18.5 -56t4.5 -62z" />
    <glyph glyph-name="six.scprop" horiz-adv-x="380" 
d="M342 179q0 -36 -4.5 -70.5t-19.5 -61t-44 -43t-78 -16.5q-55 0 -85 23t-44 58t-16.5 78t-2.5 82v105q0 38 4 77.5t19.5 71.5t45.5 52.5t82 20.5q76 0 106 -34t30 -99h-57q0 38 -16.5 63.5t-61.5 25.5q-34 0 -53.5 -16.5t-29 -42.5t-12 -60t-2.5 -68v-31q20 26 45 37.5
t62 11.5q40 0 65.5 -13.5t40.5 -36t20.5 -52t5.5 -62.5zM285 176q0 21 -3 42.5t-12 39.5t-26 29t-45 11q-30 0 -48.5 -12t-28.5 -31t-13.5 -43t-3.5 -49q0 -24 3 -47t13 -41.5t28.5 -30t49.5 -11.5t48.5 14t25.5 35.5t10 46.5t2 47z" />
    <glyph glyph-name="seven.scprop" horiz-adv-x="340" 
d="M142 0h-60l182 498h-238v46h291v-45z" />
    <glyph glyph-name="eight.scprop" horiz-adv-x="380" 
d="M340 148q0 -35 -7.5 -64t-25 -50.5t-46.5 -33.5t-72 -12q-42 0 -70 11.5t-45.5 32t-25 49.5t-7.5 64q0 21 2 43t10 40.5t22.5 33t40.5 22.5q-41 16 -55 47.5t-14 73.5q0 67 33.5 109t111.5 42q75 0 109 -35t34 -104q0 -20 -2 -40t-9.5 -38t-21.5 -32.5t-38 -22.5
q27 -7 42 -21t22.5 -33t9.5 -40t2 -42zM277 405q0 21 -3 40.5t-11.5 34.5t-25 23.5t-43.5 8.5q-26 0 -43.5 -8t-28 -22.5t-14.5 -33.5t-4 -41q0 -21 4 -39.5t14 -33t27 -23t42 -8.5t41.5 8.5t26.5 22.5t14 32.5t4 38.5zM282 148q0 22 -3 42t-12 35.5t-27 24.5t-48 9
t-48.5 -9.5t-28.5 -25.5t-13.5 -36.5t-3.5 -42.5q0 -21 4 -41t14 -35.5t27.5 -25.5t45.5 -10q30 0 48.5 9.5t28 25.5t13 37t3.5 43z" />
    <glyph glyph-name="nine.scprop" horiz-adv-x="380" 
d="M333 276q0 -68 -4.5 -121.5t-20 -90.5t-45 -56.5t-80.5 -19.5q-72 0 -104 33t-32 99h58q0 -20 3.5 -36.5t12.5 -28t24 -17.5t38 -6q29 0 47.5 12.5t29 37.5t14.5 62t4 86v23q-20 -21 -44.5 -31.5t-58.5 -10.5q-45 0 -71.5 15t-40.5 40t-18.5 55.5t-4.5 62.5q0 34 6.5 65
t23.5 55t46 38t74 14q52 0 81 -19t42.5 -49.5t16.5 -70t3 -80.5v-61zM276 394q0 19 -3 40t-12 38t-26 28.5t-46 11.5q-30 0 -48 -11.5t-27 -30t-12 -41.5t-3 -45q0 -24 3 -47t11.5 -41t25 -29t43.5 -11q33 0 52 12.5t28 32t11.5 44t2.5 49.5z" />
    <glyph glyph-name="zero.prop" 
d="M327 441q0 60 -4 106t-15.5 76.5t-33 46t-56.5 15.5t-56.5 -15.5t-33 -46t-15.5 -76.5t-4 -106v-159q0 -60 4 -106t15.5 -76.5t33 -46t56.5 -15.5t56.5 15.5t33 46t15.5 76.5t4 106v159zM49 413q0 75 5 135t22.5 101.5t51 63.5t90.5 22t90.5 -22t51 -63.5t22.5 -101.5
t5 -135v-103q0 -75 -5 -135t-22.5 -101.5t-51 -63.5t-90.5 -22t-90.5 22t-51 63.5t-22.5 101.5t-5 135v103z" />
    <glyph glyph-name="one.prop" horiz-adv-x="346" 
d="M179 0v644q-26 -28 -55 -51.5t-61 -46.5v68q14 9 31 22.5t33.5 28t31 29.5t24.5 29h55v-723h-59z" />
    <glyph glyph-name="two.prop" 
d="M391 575q0 -50 -20 -97t-46 -89l-209 -339h273v-50h-336v56l232 380q20 34 32.5 71t12.5 77q0 48 -28 74.5t-75 26.5q-31 0 -52 -10t-34 -28t-18.5 -42t-5.5 -52h-60q0 88 44 135t131 47q82 0 120.5 -42t38.5 -118z" />
    <glyph glyph-name="three.prop" 
d="M382 203q0 -46 -8 -85.5t-28 -68t-53 -45t-83 -16.5q-93 0 -131 48t-38 135h61q0 -31 5 -55.5t17.5 -42t33 -26.5t51.5 -9q33 0 55 12t34.5 32.5t18 48.5t5.5 61q0 45 -8 75t-26 47.5t-46.5 24.5t-69.5 7v50q39 0 66.5 7.5t45 25.5t25.5 48t8 75q0 27 -4.5 51.5t-16 42.5
t-31 28.5t-50.5 10.5t-51.5 -10t-32.5 -28t-16.5 -42t-4.5 -52h-59q0 41 9 74.5t28.5 57.5t51 37t77.5 13q86 0 123 -45t37 -134q0 -33 -5 -63.5t-17.5 -55t-33 -41.5t-50.5 -24q34 -5 55.5 -20t34 -37.5t17 -51.5t4.5 -60z" />
    <glyph glyph-name="four.prop" 
d="M329 175v-175h-58v175h-237v64l210 484h85v-498h78v-50h-78zM271 662l-186 -437h186v437z" />
    <glyph glyph-name="five.prop" 
d="M389 236q0 -48 -5.5 -93t-24 -79.5t-53 -55t-91.5 -20.5q-45 0 -75.5 13t-49.5 36.5t-27.5 56.5t-8.5 74h60q0 -29 4.5 -53t15.5 -41t31 -26.5t51 -9.5q37 0 59 13.5t34 39t16 62.5t4 83q0 34 -4 66t-16 56.5t-33 39.5t-55 15q-18 0 -35 -5t-31.5 -14.5t-25 -23
t-14.5 -31.5h-57l12 384h299v-50h-242l-11 -265q44 54 115 54q52 0 83.5 -19.5t48 -51.5t21.5 -72.5t5 -82.5z" />
    <glyph glyph-name="six.prop" 
d="M394 238q0 -47 -5 -92t-22.5 -80t-50.5 -56.5t-90 -21.5q-63 0 -98 30t-51 76.5t-19 103t-3 108.5v137q0 50 4.5 102t22.5 94t53 69t95 27q88 0 122 -43t34 -125h-60q0 26 -4.5 47.5t-15.5 37.5t-29.5 24.5t-45.5 8.5q-41 0 -64.5 -22t-35.5 -58t-15 -81.5t-3 -92.5v-53
q23 38 53.5 56t75.5 18q46 0 75.5 -17.5t46.5 -46.5t23.5 -68t6.5 -82zM334 234q0 29 -3.5 59t-14.5 54t-31.5 39t-54.5 15q-37 0 -59.5 -16t-35 -42t-16.5 -59t-4 -67q0 -33 4 -65t16 -57.5t34.5 -41t59.5 -15.5q38 0 59.5 19.5t31.5 48.5t12 63.5t2 64.5z" />
    <glyph glyph-name="seven.prop" horiz-adv-x="396" 
d="M162 0h-63l214 671h-281v52h335v-55z" />
    <glyph glyph-name="eight.prop" 
d="M391 196q0 -46 -8.5 -84t-29 -65.5t-54 -43t-82.5 -15.5q-48 0 -80.5 14.5t-53 41.5t-29 64.5t-8.5 83.5q0 30 3 59.5t13 54.5t30 43.5t54 26.5q-28 10 -46 25.5t-28.5 35.5t-14.5 45.5t-4 54.5q0 44 9 80.5t29.5 62.5t52 40.5t76.5 14.5q87 0 126 -45.5t39 -135.5
q0 -28 -3 -56t-13.5 -52.5t-29.5 -43t-52 -26.5q36 -6 57 -24t31.5 -43t13 -54.5t2.5 -58.5zM324 537q0 30 -3.5 57t-14.5 47t-31 32t-53 12q-32 0 -53 -11t-33.5 -30.5t-17.5 -46t-5 -57.5q0 -29 5 -54.5t17 -45t32.5 -31t51.5 -11.5q30 0 50 11t32.5 30t17.5 44.5t5 53.5z
M330 195q0 31 -3.5 58.5t-15 48.5t-33.5 33.5t-58 12.5q-37 0 -59.5 -13t-34.5 -34.5t-16 -50t-4 -58.5q0 -29 4.5 -56.5t17 -49.5t34 -35t55.5 -13q36 0 58.5 13t34.5 34.5t16 50t4 59.5z" />
    <glyph glyph-name="nine.prop" 
d="M384 367q0 -91 -5 -161.5t-23 -119t-52.5 -73.5t-92.5 -25q-84 0 -120.5 41t-36.5 126h61q0 -54 19.5 -85.5t76.5 -31.5q35 0 57.5 17.5t35 53.5t17.5 91t5 131v16q-23 -32 -53 -47.5t-72 -15.5q-51 0 -82 20t-47 52t-21 72.5t-5 81.5q0 45 7.5 86t27 72t53 49t85.5 18
q60 0 93.5 -24.5t49 -65t19 -92t3.5 -106.5v-80zM324 524q0 27 -3.5 55.5t-14.5 52t-32 38.5t-56 15q-36 0 -58 -16t-33.5 -41t-15 -56t-3.5 -62q0 -33 3.5 -64.5t14.5 -56.5t30.5 -40t52.5 -15q40 0 63.5 17t34.5 44t14 61t3 68z" />
    <glyph glyph-name="Euro.prop" 
d="M302 -12q-65 0 -105.5 23.5t-63 64t-31 95t-9.5 116.5h-83l9 46h73v80h-81l9 46h73q4 55 14.5 105t34 88t62 60.5t98.5 22.5q29 0 50.5 -5t36.5 -11.5t24.5 -14.5t15.5 -14l-12 -63q-14 23 -43.5 40t-72.5 17q-44 0 -72 -20.5t-44.5 -52.5t-23.5 -72t-9 -80h222l-9 -46
h-214v-80h196l-9 -46h-186q1 -50 6 -95t21 -79t45.5 -54t79.5 -20q41 0 68 14t45 35v-66q-20 -16 -46.5 -25t-68.5 -9z" />
    <glyph glyph-name="cent.prop" horiz-adv-x="416" 
d="M305 361q0 32 -6 56.5t-27 38.5l-94 -413q15 -7 38 -7q27 0 44 8.5t26.5 23.5t13 35t4.5 44h57q0 -71 -33 -114t-109 -43q-28 0 -52 6l-26 -107h-39l29 118q-26 13 -41 36.5t-22.5 55t-9.5 70t-2 82.5q0 46 3 93.5t19 85t49.5 61.5t93.5 24h13.5t11.5 -1l25 103h39
l-26 -110q46 -14 61 -51t17 -95h-57zM236 468q-5 1 -8.5 1h-8.5q-38 0 -58.5 -19.5t-30.5 -51t-12 -70.5t-2 -78q0 -75 6 -118.5t22 -65.5z" />
    <glyph glyph-name="dollar.prop" 
d="M200 7q-83 4 -119.5 49.5t-36.5 132.5v17h57v-22q0 -56 22.5 -88t76.5 -37v288q-39 22 -67.5 42t-46.5 42.5t-27 50t-9 65.5q0 75 40 119t110 49v86h38v-86q81 -4 116 -46.5t35 -129.5v-10h-58v10q0 57 -20 90t-73 38v-275q37 -21 66 -41t48.5 -43.5t29.5 -54t10 -72.5
q0 -85 -39 -126.5t-115 -46.5v-99h-38v98zM332 172q0 29 -5.5 51t-17 39.5t-29 32.5t-42.5 30v-267q50 5 72 33.5t22 80.5zM109 555q0 -26 5.5 -46.5t17 -37t28.5 -30.5t40 -27v252q-44 -6 -67.5 -36t-23.5 -75z" />
    <glyph glyph-name="sterling.prop" 
d="M354 558v13t-1 13q-2 22 -7 40t-14.5 31.5t-25.5 21t-39 7.5q-57 0 -76 -41t-19 -115v-127h139v-51h-139v-297h229v-53h-360v53h71v297h-78v51h78v100q0 54 6 97.5t23 74t47.5 46.5t79.5 16q78 0 110.5 -43.5t32.5 -122.5v-11h-57z" />
    <glyph glyph-name="florin.prop" horiz-adv-x="366" 
d="M321 674q-14 6 -30 6q-32 0 -47 -24t-22 -79l-12 -97h88l-6 -48h-88l-52 -436q-11 -89 -44 -123.5t-87 -34.5h-9t-9 1l7 53q3 -1 9 -1q29 0 49.5 25t28.5 93l49 423h-78l7 48h77l9 76q5 44 13.5 77.5t22.5 56t36.5 34t56.5 11.5q19 0 39 -6z" />
    <glyph glyph-name="yen.prop" 
d="M264 311h119v-46h-139v-80h139v-46h-139v-139h-57v139h-139v46h139v80h-139v46h122l-163 412h65l146 -389l154 389h59z" />
    <glyph glyph-name="zero.onumprop" horiz-adv-x="444" 
d="M395 242q0 -72 -11.5 -120.5t-33.5 -78t-54.5 -42.5t-73.5 -13t-73.5 13t-54.5 42.5t-33.5 78t-11.5 120.5v66q0 72 11.5 120.5t34 78t55 42.5t73.5 13t73 -13t54 -42.5t33.5 -78t11.5 -120.5v-66zM335 308q0 57 -7 96t-21 63t-35 34.5t-49 10.5t-49.5 -10.5t-35.5 -34.5
t-21.5 -63t-7.5 -96v-66q0 -57 7 -96t21.5 -63t35.5 -34.5t49 -10.5t49 10.5t35.5 34.5t21.5 63t7 96v66z" />
    <glyph glyph-name="one.onumprop" horiz-adv-x="346" 
d="M179 0v483q-26 -21 -64 -41.5t-70 -34.5v59q13 6 31 15.5t36.5 20.5t37 23.5t33.5 24.5h55v-550h-59z" />
    <glyph glyph-name="two.onumprop" 
d="M55 0v55l182 197q90 97 90 168q0 44 -23.5 68t-71.5 24q-57 0 -82.5 -29t-30.5 -82h-58q13 161 171 161q78 0 116 -39t38 -103q0 -44 -28.5 -96.5t-94.5 -122.5l-144 -152h266v-49h-330z" />
    <glyph glyph-name="three.onumprop" 
d="M378 57q0 -45 -8 -83.5t-27.5 -67t-52 -45t-80.5 -16.5q-46 0 -77.5 12.5t-51 36.5t-28 57.5t-8.5 75.5h59q0 -60 22.5 -96.5t82.5 -36.5q32 0 53.5 12t34 32.5t18 48t5.5 59.5q0 44 -7.5 72.5t-24 45t-42 22.5t-62.5 6h-12v50h12q69 0 100 34t31 111q0 26 -4.5 49
t-15.5 40t-30.5 27t-49.5 10t-50 -10.5t-32 -28t-16.5 -41t-4.5 -50.5h-57v3q0 39 8.5 71t28 55.5t50.5 36.5t75 13q84 0 120 -43t36 -128q0 -26 -4.5 -53.5t-16 -52t-31.5 -42.5t-50 -25q33 -5 54 -18.5t33 -34.5t16 -48.5t4 -59.5z" />
    <glyph glyph-name="four.onumprop" 
d="M328 0v-143h-57v143h-237v63l210 487h84v-501h78v-49h-78zM271 489l-186 -440h186v440z" />
    <glyph glyph-name="five.onumprop" 
d="M382 82q0 -44 -5.5 -86.5t-23.5 -76t-51 -54t-88 -20.5q-45 0 -75 12.5t-48 35t-26 54.5t-8 72h58q0 -28 4 -51t15 -39.5t30.5 -25.5t50.5 -9q34 0 55.5 13.5t33.5 38t16 59.5t4 77q0 33 -3.5 63.5t-14 54t-31 37.5t-54.5 14q-39 0 -65 -17t-38 -58h-55l12 374h290v-49
h-235l-11 -256q23 28 49.5 41t62.5 13q52 0 82 -18.5t45.5 -49t19.5 -69.5t4 -80z" />
    <glyph glyph-name="six.onumprop" 
d="M392 235q0 -45 -5.5 -89t-22.5 -79.5t-50 -57t-88 -21.5q-63 0 -97.5 27t-50 71.5t-18 100.5t-2.5 113v134q0 49 4 100t21.5 93t52 69t94.5 27q44 0 73.5 -11t47.5 -32t25.5 -52t7.5 -70h-58q0 25 -4.5 46t-15.5 36.5t-29.5 24.5t-45.5 9q-41 0 -64.5 -22t-35 -58
t-14.5 -81t-3 -91v-50q23 38 53 56t75 18q46 0 75 -17.5t45.5 -46.5t23 -67t6.5 -80zM334 231q0 27 -3.5 56t-14 53.5t-31.5 40t-55 15.5q-37 0 -59.5 -16t-34.5 -42t-16 -58.5t-4 -65.5q0 -30 3.5 -61t15 -57t34 -42.5t60.5 -16.5t59.5 20t31.5 49.5t12 63t2 61.5z" />
    <glyph glyph-name="seven.onumprop" horiz-adv-x="396" 
d="M160 -143h-62l214 642h-279v51h333v-54z" />
    <glyph glyph-name="eight.onumprop" 
d="M388 193q0 -45 -8.5 -82.5t-28.5 -64.5t-52.5 -42.5t-81.5 -15.5q-47 0 -79.5 14.5t-52 41t-28 63.5t-8.5 82q0 28 3 57.5t13 54t29.5 43t52.5 26.5q-54 20 -72.5 61t-18.5 97q0 43 9 78.5t28.5 61.5t51 40.5t75.5 14.5q85 0 123.5 -45.5t38.5 -132.5q0 -26 -3 -53.5
t-13 -52t-29 -43t-51 -26.5q36 -6 56 -24t30.5 -43t13 -54t2.5 -56zM323 528q0 28 -3.5 54.5t-14 47t-30.5 32.5t-53 12q-32 0 -53 -11.5t-33 -31t-17 -45.5t-5 -55q0 -27 5 -52.5t17 -44.5t32 -30.5t51 -11.5q30 0 50 11.5t32 30t17 43t5 51.5zM329 192q0 30 -3.5 57
t-14.5 47.5t-33 33t-58 12.5q-37 0 -59 -13t-34 -34.5t-16 -49t-4 -56.5q0 -28 4.5 -55t16.5 -48.5t33.5 -35t55.5 -13.5q36 0 58 13t34 35t16 49.5t4 57.5z" />
    <glyph glyph-name="nine.onumprop" 
d="M382 207q0 -89 -5 -156.5t-22.5 -113.5t-51.5 -69t-92 -23q-82 0 -119 41t-37 124h61q0 -60 19 -88t76 -28q36 0 58 16t35 49.5t17.5 85t4.5 121.5v24q-23 -32 -53 -47.5t-72 -15.5q-50 0 -79.5 18.5t-46 48.5t-21.5 69t-5 80q0 45 7.5 85t26.5 70t52 47t84 17t82.5 -16
t49.5 -46.5t24.5 -74t6.5 -98.5v-120zM324 357q0 27 -3.5 54.5t-14.5 50t-32 37t-56 14.5q-36 0 -58 -15t-33 -39t-14.5 -54.5t-3.5 -61.5q0 -33 3.5 -63t14 -53t30 -36.5t52.5 -13.5q40 0 63.5 15.5t34.5 40.5t14 57.5t3 66.5z" />
    <glyph glyph-name="zero.numerator" horiz-adv-x="278" 
d="M248 450q0 -71 -24 -111t-85 -40t-85 39.5t-24 111.5v128q0 71 24 111t85 40t85 -39.5t24 -111.5v-128zM201 565q0 69 -15 94t-47 25t-47 -25t-15 -94v-102q0 -69 15 -94t47 -25t47 25t15 94v102z" />
    <glyph glyph-name="one.numerator" horiz-adv-x="278" 
d="M126 305v349q-17 -15 -34 -27.5t-35 -24.5v55q20 12 40.5 30t34.5 36h42v-418h-48z" />
    <glyph glyph-name="two.numerator" horiz-adv-x="278" 
d="M29 305v41l137 212q26 41 26 76q0 26 -14.5 38.5t-39.5 12.5q-36 0 -48 -21.5t-12 -52.5h-49v8q0 53 28 81.5t82 28.5q48 0 75.5 -24.5t27.5 -71.5q0 -27 -11 -54t-28 -53l-116 -175h156v-46h-214z" />
    <glyph glyph-name="three.numerator" horiz-adv-x="278" 
d="M246 425q0 -62 -24 -94t-84 -32q-61 0 -84 31.5t-25 87.5h50q0 -34 11 -54t49 -20q34 0 46 20t12 58q0 44 -15.5 60t-52.5 16h-21v45h18q34 0 52 15t18 61q0 66 -56 66q-35 0 -45.5 -20t-10.5 -54h-48v16q0 48 25.5 75t76.5 27q55 0 80 -28t25 -80q0 -38 -9.5 -60
t-35.5 -39q29 -14 38.5 -37t9.5 -60z" />
    <glyph glyph-name="four.numerator" horiz-adv-x="278" 
d="M212 406v-101h-46v101h-143v49l124 268h65v-272h47v-45h-47zM166 662l-95 -211h95v211z" />
    <glyph glyph-name="five.numerator" horiz-adv-x="278" 
d="M250 446q0 -70 -23.5 -108.5t-88.5 -38.5q-55 0 -78 31.5t-23 83.5h47q0 -70 55 -70q36 0 49 23t13 79q0 47 -15 69.5t-48 22.5q-26 0 -39.5 -12t-16.5 -29h-44l8 226h191v-45h-148l-6 -121q11 11 28 18.5t37 7.5q58 0 80 -37t22 -100z" />
    <glyph glyph-name="six.numerator" horiz-adv-x="278" 
d="M247 446q0 -31 -4 -57.5t-16 -46.5t-33 -31.5t-54 -11.5q-35 0 -56.5 13t-33 36.5t-15 55t-3.5 68.5v86q0 88 24.5 129.5t85.5 41.5q56 0 77.5 -28t22.5 -77h-47q-1 25 -11.5 42.5t-40.5 17.5q-38 0 -51.5 -31.5t-13.5 -101.5v-17q28 39 74 39q28 0 46 -10.5t29 -28
t15.5 -40.5t4.5 -48zM199 434q0 41 -11.5 67.5t-45.5 26.5q-36 0 -49.5 -26t-13.5 -68q0 -38 12.5 -64t50.5 -26q35 0 46 26t11 64z" />
    <glyph glyph-name="seven.numerator" horiz-adv-x="278" 
d="M124 305h-50l129 372h-166v46h213v-42z" />
    <glyph glyph-name="eight.numerator" horiz-adv-x="278" 
d="M248 423q0 -54 -24 -89t-86 -35q-31 0 -52 9t-33.5 25t-18 38.5t-5.5 49.5q0 35 12.5 61.5t40.5 40.5q-49 26 -49 88q0 52 24.5 85t81.5 33q55 0 80 -28t25 -80q0 -38 -11 -60t-37 -38q29 -14 40.5 -40t11.5 -60zM197 611q0 37 -12 55.5t-44 18.5q-61 0 -61 -72
q0 -30 15 -50.5t44 -20.5q33 0 45.5 20t12.5 49zM201 422q0 37 -13 57t-49 20t-49.5 -20t-13.5 -58q0 -35 14.5 -56t47.5 -21q36 0 49.5 21.5t13.5 56.5z" />
    <glyph glyph-name="nine.numerator" horiz-adv-x="278" 
d="M246 518q0 -57 -4 -98.5t-16 -68t-33.5 -39.5t-56.5 -13q-54 0 -77 25.5t-23 82.5h48q0 -31 11.5 -47t42.5 -16q35 0 48.5 32t13.5 106v17q-11 -16 -28 -25.5t-42 -9.5q-29 0 -48 10t-30 27.5t-15.5 41.5t-4.5 53q0 27 4.5 51.5t17 42.5t33.5 28.5t54 10.5t53.5 -11
t32 -31t15.5 -48.5t4 -62.5v-58zM199 596q0 39 -12 63.5t-47 24.5q-36 0 -48 -24.5t-12 -63.5q0 -41 12 -64t48 -23q35 0 47 23t12 64z" />
    <glyph glyph-name="zero.denominator" horiz-adv-x="278" 
d="M248 145q0 -71 -24 -111t-85 -40t-85 39.5t-24 111.5v128q0 71 24 111t85 40t85 -39.5t24 -111.5v-128zM201 260q0 69 -15 94t-47 25t-47 -25t-15 -94v-102q0 -69 15 -94t47 -25t47 25t15 94v102z" />
    <glyph glyph-name="one.denominator" horiz-adv-x="278" 
d="M126 0v349q-17 -15 -34 -27.5t-35 -24.5v55q20 12 40.5 30t34.5 36h42v-418h-48z" />
    <glyph glyph-name="two.denominator" horiz-adv-x="278" 
d="M29 0v41l137 212q26 41 26 76q0 26 -14.5 38.5t-39.5 12.5q-36 0 -48 -21.5t-12 -52.5h-49v8q0 53 28 81.5t82 28.5q48 0 75.5 -24.5t27.5 -71.5q0 -27 -11 -54t-28 -53l-116 -175h156v-46h-214z" />
    <glyph glyph-name="three.denominator" horiz-adv-x="278" 
d="M246 120q0 -62 -24 -94t-84 -32q-61 0 -84 31.5t-25 87.5h50q0 -34 11 -54t49 -20q34 0 46 20t12 58q0 44 -15.5 60t-52.5 16h-21v45h18q34 0 52 15t18 61q0 66 -56 66q-35 0 -45.5 -20t-10.5 -54h-48v16q0 48 25.5 75t76.5 27q55 0 80 -28t25 -80q0 -38 -9.5 -60
t-35.5 -39q29 -14 38.5 -37t9.5 -60z" />
    <glyph glyph-name="four.denominator" horiz-adv-x="278" 
d="M212 101v-101h-46v101h-143v49l124 268h65v-272h47v-45h-47zM166 357l-95 -211h95v211z" />
    <glyph glyph-name="five.denominator" horiz-adv-x="278" 
d="M250 141q0 -70 -23.5 -108.5t-88.5 -38.5q-55 0 -78 31.5t-23 83.5h47q0 -70 55 -70q36 0 49 23t13 79q0 47 -15 69.5t-48 22.5q-26 0 -39.5 -12t-16.5 -29h-44l8 226h191v-45h-148l-6 -121q11 11 28 18.5t37 7.5q58 0 80 -37t22 -100z" />
    <glyph glyph-name="six.denominator" horiz-adv-x="278" 
d="M247 141q0 -31 -4 -57.5t-16 -46.5t-33 -31.5t-54 -11.5q-35 0 -56.5 13t-33 36.5t-15 55t-3.5 68.5v86q0 88 24.5 129.5t85.5 41.5q56 0 77.5 -28t22.5 -77h-47q-1 25 -11.5 42.5t-40.5 17.5q-38 0 -51.5 -31.5t-13.5 -101.5v-17q28 39 74 39q28 0 46 -10.5t29 -28
t15.5 -40.5t4.5 -48zM199 129q0 41 -11.5 67.5t-45.5 26.5q-36 0 -49.5 -26t-13.5 -68q0 -38 12.5 -64t50.5 -26q35 0 46 26t11 64z" />
    <glyph glyph-name="seven.denominator" horiz-adv-x="278" 
d="M124 0h-50l129 372h-166v46h213v-42z" />
    <glyph glyph-name="eight.denominator" horiz-adv-x="278" 
d="M248 118q0 -54 -24 -89t-86 -35q-31 0 -52 9t-33.5 25t-18 38.5t-5.5 49.5q0 35 12.5 61.5t40.5 40.5q-49 26 -49 88q0 52 24.5 85t81.5 33q55 0 80 -28t25 -80q0 -38 -11 -60t-37 -38q29 -14 40.5 -40t11.5 -60zM197 306q0 37 -12 55.5t-44 18.5q-61 0 -61 -72
q0 -30 15 -50.5t44 -20.5q33 0 45.5 20t12.5 49zM201 117q0 37 -13 57t-49 20t-49.5 -20t-13.5 -58q0 -35 14.5 -56t47.5 -21q36 0 49.5 21.5t13.5 56.5z" />
    <glyph glyph-name="nine.denominator" horiz-adv-x="278" 
d="M246 213q0 -57 -4 -98.5t-16 -68t-33.5 -39.5t-56.5 -13q-54 0 -77 25.5t-23 82.5h48q0 -31 11.5 -47t42.5 -16q35 0 48.5 32t13.5 106v17q-11 -16 -28 -25.5t-42 -9.5q-29 0 -48 10t-30 27.5t-15.5 41.5t-4.5 53q0 27 4.5 51.5t17 42.5t33.5 28.5t54 10.5t53.5 -11
t32 -31t15.5 -48.5t4 -62.5v-58zM199 291q0 39 -12 63.5t-47 24.5q-36 0 -48 -24.5t-12 -63.5q0 -41 12 -64t48 -23q35 0 47 23t12 64z" />
    <glyph glyph-name="onehalf.alt01" 
d="M201 457v216q-10 -8 -21.5 -16t-26.5 -17v41q13 8 29 19.5t25 22.5h33v-266h-39zM78 348v31h280v-31h-280zM140 0v29l97 122q18 24 18 50q0 17 -9 27t-26 10q-22 0 -31 -13.5t-9 -33.5h-38q0 79 79 79q37 0 55 -18.5t18 -49.5q0 -22 -7 -39t-20 -33l-80 -98h106v-32h-153
z" />
    <glyph glyph-name="onethird.alt01" 
d="M201 457v216q-10 -8 -21.5 -16t-26.5 -17v41q13 8 29 19.5t25 22.5h33v-266h-39zM78 348v31h280v-31h-280zM294 77q0 -36 -18 -58.5t-60 -22.5q-77 0 -77 76h39q0 -44 38 -44q21 0 30 12t9 33q0 26 -11 36.5t-40 10.5h-11v32h12q26 0 37 10t11 36q0 40 -35 40
q-19 0 -27.5 -11t-8.5 -31h-39q0 35 17.5 54.5t58.5 19.5q38 0 55.5 -17.5t17.5 -48.5q0 -27 -8.5 -43t-31.5 -25q20 -5 31 -19t11 -40z" />
    <glyph glyph-name="onequarter.alt01" 
d="M201 457v216q-10 -8 -21.5 -16t-26.5 -17v41q13 8 29 19.5t25 22.5h33v-266h-39zM78 348v31h280v-31h-280zM258 62v-62h-37v62h-99v31l88 173h48v-172h33v-32h-33zM221 216l-60 -122h60v122z" />
    <glyph glyph-name="oneeighth.alt01" 
d="M201 457v216q-10 -8 -21.5 -16t-26.5 -17v41q13 8 29 19.5t25 22.5h33v-266h-39zM78 348v31h280v-31h-280zM296 75q0 -35 -17 -57t-62 -22q-44 0 -61 21.5t-17 56.5q0 24 7.5 39.5t27.5 25.5q-15 9 -23.5 21t-8.5 34q0 33 17 54.5t59 21.5q40 0 57.5 -18t17.5 -52
q0 -24 -7 -37t-24 -24q19 -10 26.5 -25.5t7.5 -38.5zM254 196q0 42 -36 42q-37 0 -37 -42q0 -43 37 -43q20 0 28 11.5t8 31.5zM257 74q0 20 -8.5 33.5t-31.5 13.5t-31 -13.5t-8 -33.5q0 -19 8 -32.5t31 -13.5t31.5 13.5t8.5 32.5z" />
    <glyph glyph-name="twothirds.alt01" 
d="M140 457v29l97 122q18 24 18 50q0 17 -9 27t-26 10q-22 0 -31 -13.5t-9 -33.5h-38q0 79 79 79q37 0 55 -18.5t18 -49.5q0 -22 -7 -39t-20 -33l-80 -98h106v-32h-153zM78 348v31h280v-31h-280zM294 77q0 -36 -18 -58.5t-60 -22.5q-77 0 -77 76h39q0 -44 38 -44q21 0 30 12
t9 33q0 26 -11 36.5t-40 10.5h-11v32h12q26 0 37 10t11 36q0 40 -35 40q-19 0 -27.5 -11t-8.5 -31h-39q0 35 17.5 54.5t58.5 19.5q38 0 55.5 -17.5t17.5 -48.5q0 -27 -8.5 -43t-31.5 -25q20 -5 31 -19t11 -40z" />
    <glyph glyph-name="threequarters.alt01" 
d="M296 534q0 -36 -18 -58.5t-60 -22.5q-77 0 -77 76h39q0 -44 38 -44q21 0 30 12t9 33q0 26 -11 36.5t-40 10.5h-11v32h12q26 0 37 10t11 36q0 40 -35 40q-19 0 -27.5 -11t-8.5 -31h-39q0 35 17.5 54.5t58.5 19.5q38 0 55.5 -17.5t17.5 -48.5q0 -27 -8.5 -43t-31.5 -25
q20 -5 31 -19t11 -40zM78 348v31h280v-31h-280zM258 62v-62h-37v62h-99v31l88 173h48v-172h33v-32h-33zM221 216l-60 -122h60v122z" />
    <glyph glyph-name="threeeighths.alt01" 
d="M296 534q0 -36 -18 -58.5t-60 -22.5q-77 0 -77 76h39q0 -44 38 -44q21 0 30 12t9 33q0 26 -11 36.5t-40 10.5h-11v32h12q26 0 37 10t11 36q0 40 -35 40q-19 0 -27.5 -11t-8.5 -31h-39q0 35 17.5 54.5t58.5 19.5q38 0 55.5 -17.5t17.5 -48.5q0 -27 -8.5 -43t-31.5 -25
q20 -5 31 -19t11 -40zM78 348v31h280v-31h-280zM296 75q0 -35 -17 -57t-62 -22q-44 0 -61 21.5t-17 56.5q0 24 7.5 39.5t27.5 25.5q-15 9 -23.5 21t-8.5 34q0 33 17 54.5t59 21.5q40 0 57.5 -18t17.5 -52q0 -24 -7 -37t-24 -24q19 -10 26.5 -25.5t7.5 -38.5zM254 196
q0 42 -36 42q-37 0 -37 -42q0 -43 37 -43q20 0 28 11.5t8 31.5zM257 74q0 20 -8.5 33.5t-31.5 13.5t-31 -13.5t-8 -33.5q0 -19 8 -32.5t31 -13.5t31.5 13.5t8.5 32.5z" />
    <glyph glyph-name="fiveeighths.alt01" 
d="M295 546q0 -48 -18 -70.5t-61 -22.5q-38 0 -56 21t-18 56h39q0 -20 7.5 -32.5t27.5 -12.5q23 0 31.5 14t8.5 47q0 21 -7 38t-30 17q-16 0 -25.5 -7.5t-13.5 -18.5h-36l5 148h138v-32h-101l-4 -76q7 8 17.5 13t27.5 5q40 0 54 -25.5t14 -61.5zM78 348v31h280v-31h-280z
M296 75q0 -35 -17 -57t-62 -22q-44 0 -61 21.5t-17 56.5q0 24 7.5 39.5t27.5 25.5q-15 9 -23.5 21t-8.5 34q0 33 17 54.5t59 21.5q40 0 57.5 -18t17.5 -52q0 -24 -7 -37t-24 -24q19 -10 26.5 -25.5t7.5 -38.5zM254 196q0 42 -36 42q-37 0 -37 -42q0 -43 37 -43q20 0 28 11.5
t8 31.5zM257 74q0 20 -8.5 33.5t-31.5 13.5t-31 -13.5t-8 -33.5q0 -19 8 -32.5t31 -13.5t31.5 13.5t8.5 32.5z" />
    <glyph glyph-name="seveneighths.alt01" 
d="M170 457l88 233h-113v33h153v-28l-87 -238h-41zM78 348v31h280v-31h-280zM296 75q0 -35 -17 -57t-62 -22q-44 0 -61 21.5t-17 56.5q0 24 7.5 39.5t27.5 25.5q-15 9 -23.5 21t-8.5 34q0 33 17 54.5t59 21.5q40 0 57.5 -18t17.5 -52q0 -24 -7 -37t-24 -24
q19 -10 26.5 -25.5t7.5 -38.5zM254 196q0 42 -36 42q-37 0 -37 -42q0 -43 37 -43q20 0 28 11.5t8 31.5zM257 74q0 20 -8.5 33.5t-31.5 13.5t-31 -13.5t-8 -33.5q0 -19 8 -32.5t31 -13.5t31.5 13.5t8.5 32.5z" />
    <glyph glyph-name="Amacron" unicode="&#x100;" horiz-adv-x="538" 
d="M457 0l-55 191h-268l-56 -191h-60l217 723h70l215 -723h-63zM268 657l-117 -414h234zM145 810v45h246v-45h-246z" />
    <glyph glyph-name="amacron" unicode="&#x101;" horiz-adv-x="437" 
d="M313 0v70q-14 -20 -28.5 -35t-31 -24.5t-36 -14t-44.5 -4.5q-67 0 -100 42t-33 105q0 59 24.5 92.5t63 50t86 21t94.5 4.5v19q0 27 -1.5 52.5t-10 45.5t-27 32t-52.5 12q-18 0 -35.5 -4.5t-31 -14.5t-22 -25.5t-8.5 -36.5v-4h-58v3q0 34 12.5 58t34 40t50 23.5t60.5 7.5
q44 0 72 -11t44.5 -32t23 -52t6.5 -72v-190q0 -79 3 -158h-55zM308 261h-19q-32 0 -65.5 -3t-60.5 -15t-44.5 -35t-17.5 -63q0 -21 4.5 -40t14.5 -33.5t26.5 -23.5t39.5 -9q36 0 59.5 14.5t37.5 37.5t19.5 51.5t5.5 57.5v61zM98 632v45h246v-45h-246z" />
    <glyph glyph-name="Abreve" unicode="&#x102;" horiz-adv-x="538" 
d="M457 0l-55 191h-268l-56 -191h-60l217 723h70l215 -723h-63zM268 657l-117 -414h234zM405 906q-7 -62 -43.5 -94.5t-98.5 -32.5q-60 0 -93 35t-39 92h37q8 -42 34 -61.5t68 -19.5t65.5 20.5t34.5 60.5h35v0z" />
    <glyph glyph-name="abreve" unicode="&#x103;" horiz-adv-x="437" 
d="M313 0v70q-14 -20 -28.5 -35t-31 -24.5t-36 -14t-44.5 -4.5q-67 0 -100 42t-33 105q0 59 24.5 92.5t63 50t86 21t94.5 4.5v19q0 27 -1.5 52.5t-10 45.5t-27 32t-52.5 12q-18 0 -35.5 -4.5t-31 -14.5t-22 -25.5t-8.5 -36.5v-4h-58v3q0 34 12.5 58t34 40t50 23.5t60.5 7.5
q44 0 72 -11t44.5 -32t23 -52t6.5 -72v-190q0 -79 3 -158h-55zM308 261h-19q-32 0 -65.5 -3t-60.5 -15t-44.5 -35t-17.5 -63q0 -21 4.5 -40t14.5 -33.5t26.5 -23.5t39.5 -9q36 0 59.5 14.5t37.5 37.5t19.5 51.5t5.5 57.5v61zM358 718q-7 -62 -43.5 -94.5t-98.5 -32.5
q-60 0 -93 35t-39 92h37q8 -42 34 -61.5t68 -19.5t65.5 20.5t34.5 60.5h35v0z" />
    <glyph glyph-name="Aogonek" unicode="&#x104;" horiz-adv-x="538" 
d="M532 -167q-17 -10 -35.5 -16t-38.5 -6q-32 0 -54 21t-22 53q0 21 9 38t23 31t30.5 25.5t32.5 20.5h-20l-55 191h-268l-56 -191h-60l217 723h70l215 -723q-38 -17 -63.5 -42t-25.5 -58q0 -24 14.5 -39.5t37.5 -15.5q11 0 21.5 3t20.5 7zM268 657l-117 -414h234z" />
    <glyph glyph-name="aogonek" unicode="&#x105;" horiz-adv-x="437" 
d="M380 -167q-17 -10 -35.5 -16t-38.5 -6q-32 0 -54 21t-22 53q0 21 9 38t23 31t30.5 25.5t32.5 20.5h-12v70q-14 -20 -28.5 -35t-31 -24.5t-36 -14t-44.5 -4.5q-67 0 -100 42t-33 105q0 59 24.5 92.5t63 50t86 21t94.5 4.5v19q0 27 -1.5 52.5t-10 45.5t-27 32t-52.5 12
q-18 0 -35.5 -4.5t-31 -14.5t-22 -25.5t-8.5 -36.5v-4h-58v3q0 34 12.5 58t34 40t50 23.5t60.5 7.5q44 0 72 -11t44.5 -32t23 -52t6.5 -72v-190q0 -79 3 -158q-38 -17 -63.5 -42t-25.5 -58q0 -24 14.5 -39.5t37.5 -15.5q11 0 21.5 3t20.5 7zM308 261h-19q-32 0 -65.5 -3
t-60.5 -15t-44.5 -35t-17.5 -63q0 -21 4.5 -40t14.5 -33.5t26.5 -23.5t39.5 -9q36 0 59.5 14.5t37.5 37.5t19.5 51.5t5.5 57.5v61z" />
    <glyph glyph-name="Cacute" unicode="&#x106;" horiz-adv-x="502" 
d="M460 192q0 -97 -47 -151.5t-148 -54.5q-73 0 -113 27t-59 75.5t-23 116.5t-4 150q0 71 3 139.5t22.5 122.5t61.5 87t121 33q51 0 85.5 -14t55.5 -39.5t30 -61t9 -78.5v-17h-62v14q0 29 -5 55t-18 45.5t-36.5 30.5t-59.5 11q-52 0 -81 -24.5t-42.5 -68t-16.5 -103.5
t-3 -132q0 -78 3 -137.5t16.5 -99t40.5 -60t76 -20.5q39 0 64 11.5t40 32t21 49t6 61.5v13h63v-13v0zM253 782h-48l106 139h73z" />
    <glyph glyph-name="cacute" unicode="&#x107;" horiz-adv-x="393" 
d="M302 361q0 23 -3.5 43t-13 34.5t-26.5 22.5t-43 8q-38 0 -58.5 -19.5t-30.5 -51t-12 -70.5t-2 -78q0 -65 5.5 -106.5t17.5 -65.5t31 -33t46 -9t44 8.5t26.5 23.5t13 35t4.5 44h57q0 -71 -33 -114t-109 -43q-57 0 -89.5 19.5t-49 54t-20.5 82.5t-4 105q0 46 3 93.5t19 85
t49.5 61.5t93.5 24q42 0 69 -10.5t42.5 -30t22 -48t7.5 -65.5h-57zM193 594h-48l106 139h73z" />
    <glyph glyph-name="Ccircumflex" unicode="&#x108;" horiz-adv-x="502" 
d="M460 192q0 -97 -47 -151.5t-148 -54.5q-73 0 -113 27t-59 75.5t-23 116.5t-4 150q0 71 3 139.5t22.5 122.5t61.5 87t121 33q51 0 85.5 -14t55.5 -39.5t30 -61t9 -78.5v-17h-62v14q0 29 -5 55t-18 45.5t-36.5 30.5t-59.5 11q-52 0 -81 -24.5t-42.5 -68t-16.5 -103.5
t-3 -132q0 -78 3 -137.5t16.5 -99t40.5 -60t76 -20.5q39 0 64 11.5t40 32t21 49t6 61.5v13h63v-13v0zM357 782l-86 99l-86 -99h-51l103 139h67l103 -139h-50z" />
    <glyph glyph-name="ccircumflex" unicode="&#x109;" horiz-adv-x="393" 
d="M302 361q0 23 -3.5 43t-13 34.5t-26.5 22.5t-43 8q-38 0 -58.5 -19.5t-30.5 -51t-12 -70.5t-2 -78q0 -65 5.5 -106.5t17.5 -65.5t31 -33t46 -9t44 8.5t26.5 23.5t13 35t4.5 44h57q0 -71 -33 -114t-109 -43q-57 0 -89.5 19.5t-49 54t-20.5 82.5t-4 105q0 46 3 93.5t19 85
t49.5 61.5t93.5 24q42 0 69 -10.5t42.5 -30t22 -48t7.5 -65.5h-57zM297 594l-86 99l-86 -99h-51l103 139h67l103 -139h-50z" />
    <glyph glyph-name="Cdotaccent" unicode="&#x10a;" horiz-adv-x="502" 
d="M460 192q0 -97 -47 -151.5t-148 -54.5q-73 0 -113 27t-59 75.5t-23 116.5t-4 150q0 71 3 139.5t22.5 122.5t61.5 87t121 33q51 0 85.5 -14t55.5 -39.5t30 -61t9 -78.5v-17h-62v14q0 29 -5 55t-18 45.5t-36.5 30.5t-59.5 11q-52 0 -81 -24.5t-42.5 -68t-16.5 -103.5
t-3 -132q0 -78 3 -137.5t16.5 -99t40.5 -60t76 -20.5q39 0 64 11.5t40 32t21 49t6 61.5v13h63v-13v0zM240 806v90h62v-90h-62z" />
    <glyph glyph-name="cdotaccent" unicode="&#x10b;" horiz-adv-x="393" 
d="M302 361q0 23 -3.5 43t-13 34.5t-26.5 22.5t-43 8q-38 0 -58.5 -19.5t-30.5 -51t-12 -70.5t-2 -78q0 -65 5.5 -106.5t17.5 -65.5t31 -33t46 -9t44 8.5t26.5 23.5t13 35t4.5 44h57q0 -71 -33 -114t-109 -43q-57 0 -89.5 19.5t-49 54t-20.5 82.5t-4 105q0 46 3 93.5t19 85
t49.5 61.5t93.5 24q42 0 69 -10.5t42.5 -30t22 -48t7.5 -65.5h-57zM180 628v90h62v-90h-62z" />
    <glyph glyph-name="Ccaron" unicode="&#x10c;" horiz-adv-x="502" 
d="M460 192q0 -97 -47 -151.5t-148 -54.5q-73 0 -113 27t-59 75.5t-23 116.5t-4 150q0 71 3 139.5t22.5 122.5t61.5 87t121 33q51 0 85.5 -14t55.5 -39.5t30 -61t9 -78.5v-17h-62v14q0 29 -5 55t-18 45.5t-36.5 30.5t-59.5 11q-52 0 -81 -24.5t-42.5 -68t-16.5 -103.5
t-3 -132q0 -78 3 -137.5t16.5 -99t40.5 -60t76 -20.5q39 0 64 11.5t40 32t21 49t6 61.5v13h63v-13v0zM304 782h-67l-103 139h51l86 -99l86 99h50z" />
    <glyph glyph-name="ccaron" unicode="&#x10d;" horiz-adv-x="393" 
d="M302 361q0 23 -3.5 43t-13 34.5t-26.5 22.5t-43 8q-38 0 -58.5 -19.5t-30.5 -51t-12 -70.5t-2 -78q0 -65 5.5 -106.5t17.5 -65.5t31 -33t46 -9t44 8.5t26.5 23.5t13 35t4.5 44h57q0 -71 -33 -114t-109 -43q-57 0 -89.5 19.5t-49 54t-20.5 82.5t-4 105q0 46 3 93.5t19 85
t49.5 61.5t93.5 24q42 0 69 -10.5t42.5 -30t22 -48t7.5 -65.5h-57zM244 594h-67l-103 139h51l86 -99l86 99h50z" />
    <glyph glyph-name="Dcaron" unicode="&#x10e;" horiz-adv-x="547" 
d="M481 369q0 -123 -13.5 -197t-52.5 -114q-26 -27 -67 -42.5t-101 -15.5h-162v723h162q57 0 95.5 -12t64.5 -34q23 -20 37.5 -44.5t22.5 -60t11 -85t3 -118.5zM417 371q0 91 -8 156t-36 100q-22 28 -56.5 36.5t-67.5 8.5h-104v-620h119q22 0 48.5 7t43.5 21q18 15 30 39
t19 59t9.5 83t2.5 110zM304 782h-67l-103 139h51l86 -99l86 99h50z" />
    <glyph glyph-name="dcaron" unicode="&#x10f;" horiz-adv-x="457" 
d="M333 0l-1 60q-23 -35 -49 -51.5t-69 -16.5q-57 0 -89.5 26t-48 65.5t-19.5 87.5t-4 93q0 42 5.5 86t23 81t49 60.5t83.5 23.5q47 0 71.5 -15.5t41.5 -43.5v267h57v-626q0 -24 1 -48.5t3 -48.5h-55zM330 248q0 46 -3 86t-14 69.5t-33 46.5t-60 17q-39 0 -61 -20.5
t-32.5 -51.5t-13 -66.5t-2.5 -65.5q0 -49 3.5 -89.5t15 -70t32 -46t53.5 -16.5q42 0 65 18.5t34.5 48t13.5 66.5t2 74zM475 561h-48l28 162h63z" />
    <glyph glyph-name="Dcroat" unicode="&#x110;" horiz-adv-x="547" 
d="M481 369q0 -123 -13.5 -197t-52.5 -114q-26 -27 -67 -42.5t-101 -15.5h-162v378h-71v46h71v299h162q57 0 95.5 -12t64.5 -34q23 -20 37.5 -44.5t22.5 -60t11 -85t3 -118.5zM417 371q0 91 -8 156t-36 100q-22 28 -56.5 36.5t-67.5 8.5h-104v-248h170v-46h-170v-326h119
q22 0 48.5 7t43.5 21q18 15 30 39t19 59t9.5 83t2.5 110z" />
    <glyph glyph-name="dcroat" unicode="&#x111;" horiz-adv-x="457" 
d="M333 0l-1 60q-23 -35 -49 -51.5t-69 -16.5q-57 0 -89.5 26t-48 65.5t-19.5 87.5t-4 93q0 42 5.5 86t23 81t49 60.5t83.5 23.5q47 0 71.5 -15.5t41.5 -43.5v125h-181v47h181v95h57v-95h63v-47h-63v-484q0 -24 1 -48.5t3 -48.5h-55zM330 248q0 46 -3 86t-14 69.5t-33 46.5
t-60 17q-39 0 -61 -20.5t-32.5 -51.5t-13 -66.5t-2.5 -65.5q0 -49 3.5 -89.5t15 -70t32 -46t53.5 -16.5q42 0 65 18.5t34.5 48t13.5 66.5t2 74z" />
    <glyph glyph-name="Emacron" unicode="&#x112;" horiz-adv-x="442" 
d="M85 0v723h310v-53h-250v-274h239v-51h-239v-292h257v-53h-317zM126 810v45h246v-45h-246z" />
    <glyph glyph-name="emacron" unicode="&#x113;" horiz-adv-x="435" 
d="M112 243v-29q0 -42 4 -75t15.5 -56t32.5 -35t55 -12q32 0 52.5 9.5t32 25.5t16 37.5t5.5 45.5h57q-2 -35 -10 -64.5t-27 -52t-49.5 -35t-76.5 -12.5q-54 0 -86.5 18.5t-50 50.5t-23.5 74.5t-6 90.5q0 50 3 102t19 94t51 68.5t99 26.5q48 0 79 -15.5t49 -43.5t25 -65.5
t7 -81.5v-66h-273zM326 289v28.5t-1 33.5q-2 23 -7.5 44t-17 37.5t-29.5 26.5t-45 10q-56 0 -80.5 -33t-29.5 -81q-3 -33 -3 -66h213zM96 632v45h246v-45h-246z" />
    <glyph glyph-name="Ebreve" unicode="&#x114;" horiz-adv-x="442" 
d="M85 0v723h310v-53h-250v-274h239v-51h-239v-292h257v-53h-317zM386 906q-7 -62 -43.5 -94.5t-98.5 -32.5q-60 0 -93 35t-39 92h37q8 -42 34 -61.5t68 -19.5t65.5 20.5t34.5 60.5h35v0z" />
    <glyph glyph-name="ebreve" unicode="&#x115;" horiz-adv-x="435" 
d="M112 243v-29q0 -42 4 -75t15.5 -56t32.5 -35t55 -12q32 0 52.5 9.5t32 25.5t16 37.5t5.5 45.5h57q-2 -35 -10 -64.5t-27 -52t-49.5 -35t-76.5 -12.5q-54 0 -86.5 18.5t-50 50.5t-23.5 74.5t-6 90.5q0 50 3 102t19 94t51 68.5t99 26.5q48 0 79 -15.5t49 -43.5t25 -65.5
t7 -81.5v-66h-273zM326 289v28.5t-1 33.5q-2 23 -7.5 44t-17 37.5t-29.5 26.5t-45 10q-56 0 -80.5 -33t-29.5 -81q-3 -33 -3 -66h213zM356 718q-7 -62 -43.5 -94.5t-98.5 -32.5q-60 0 -93 35t-39 92h37q8 -42 34 -61.5t68 -19.5t65.5 20.5t34.5 60.5h35v0z" />
    <glyph glyph-name="Edotaccent" unicode="&#x116;" horiz-adv-x="442" 
d="M85 0v723h310v-53h-250v-274h239v-51h-239v-292h257v-53h-317zM218 806v90h62v-90h-62z" />
    <glyph glyph-name="edotaccent" unicode="&#x117;" horiz-adv-x="435" 
d="M112 243v-29q0 -42 4 -75t15.5 -56t32.5 -35t55 -12q32 0 52.5 9.5t32 25.5t16 37.5t5.5 45.5h57q-2 -35 -10 -64.5t-27 -52t-49.5 -35t-76.5 -12.5q-54 0 -86.5 18.5t-50 50.5t-23.5 74.5t-6 90.5q0 50 3 102t19 94t51 68.5t99 26.5q48 0 79 -15.5t49 -43.5t25 -65.5
t7 -81.5v-66h-273zM326 289v28.5t-1 33.5q-2 23 -7.5 44t-17 37.5t-29.5 26.5t-45 10q-56 0 -80.5 -33t-29.5 -81q-3 -33 -3 -66h213zM188 628v90h62v-90h-62z" />
    <glyph glyph-name="Eogonek" unicode="&#x118;" horiz-adv-x="442" 
d="M415 -167q-17 -10 -35.5 -16t-38.5 -6q-32 0 -54 21t-22 53q0 21 9 38t23 31t30.5 25.5t32.5 20.5h-275v723h310v-53h-250v-274h239v-51h-239v-292h257v-53q-36 -17 -62 -42t-26 -58q0 -24 14.5 -39.5t37.5 -15.5q11 0 21.5 3t20.5 7l7 -22v0z" />
    <glyph glyph-name="eogonek" unicode="&#x119;" horiz-adv-x="435" 
d="M300 -167q-17 -10 -35.5 -16t-38.5 -6q-32 0 -54 21t-22 53q0 18 7 33.5t18 28t25 23.5t28 20h-9q-54 0 -86.5 18.5t-50 50.5t-23.5 74.5t-6 90.5q0 50 3 102t19 94t51 68.5t99 26.5q48 0 78.5 -15.5t48 -42t24.5 -61t9 -72.5q1 -20 0.5 -40.5t-0.5 -40.5h-273v-29
q0 -31 2 -62.5t12.5 -57t32 -42t60.5 -16.5q32 0 52.5 9.5t32 25.5t16 37.5t5.5 45.5h57q-2 -28 -7.5 -53.5t-17.5 -46t-31 -35.5t-47 -22q-32 -17 -56 -41t-24 -56q0 -24 14.5 -39.5t37.5 -15.5q11 0 21.5 3t20.5 7zM326 289q0 16 0.5 31.5t-1.5 30.5q-2 23 -7.5 44
t-17 37.5t-29.5 26.5t-45 10q-56 0 -80.5 -33t-29.5 -81q-3 -33 -3 -66h213z" />
    <glyph glyph-name="Ecaron" unicode="&#x11a;" horiz-adv-x="442" 
d="M85 0v723h310v-53h-250v-274h239v-51h-239v-292h257v-53h-317zM282 782h-67l-103 139h51l86 -99l86 99h50z" />
    <glyph glyph-name="ecaron" unicode="&#x11b;" horiz-adv-x="435" 
d="M112 243v-29q0 -42 4 -75t15.5 -56t32.5 -35t55 -12q32 0 52.5 9.5t32 25.5t16 37.5t5.5 45.5h57q-2 -35 -10 -64.5t-27 -52t-49.5 -35t-76.5 -12.5q-54 0 -86.5 18.5t-50 50.5t-23.5 74.5t-6 90.5q0 50 3 102t19 94t51 68.5t99 26.5q48 0 79 -15.5t49 -43.5t25 -65.5
t7 -81.5v-66h-273zM326 289v28.5t-1 33.5q-2 23 -7.5 44t-17 37.5t-29.5 26.5t-45 10q-56 0 -80.5 -33t-29.5 -81q-3 -33 -3 -66h213zM252 594h-67l-103 139h51l86 -99l86 99h50z" />
    <glyph glyph-name="Gcircumflex" unicode="&#x11c;" horiz-adv-x="533" 
d="M409 539v13q0 60 -28.5 96.5t-96.5 36.5q-59 0 -90.5 -30t-45.5 -78t-16 -108t-2 -120q0 -51 1 -105.5t14.5 -100t46.5 -75t97 -29.5q30 0 59.5 5t56.5 18v264h-140v52h199v-360q-41 -15 -86 -23.5t-88 -8.5q-80 0 -124.5 28t-67 77.5t-27.5 116t-5 143.5q0 82 6.5 152.5
t28.5 122.5t65 81.5t117 29.5q51 0 87 -13t58.5 -37t32.5 -59t10 -79v-10h-62zM371 782l-86 99l-86 -99h-51l103 139h67l103 -139h-50z" />
    <glyph glyph-name="gcircumflex" unicode="&#x11d;" horiz-adv-x="456" 
d="M387 504q-1 -23 -2 -43t-1 -43v-440q0 -87 -38 -132.5t-131 -45.5q-146 0 -149 144h59q0 -48 20 -73.5t71 -25.5q38 0 60 12.5t33 34t14 50t3 60.5v64q-23 -33 -50.5 -47t-67.5 -14q-54 0 -85 22t-46.5 57.5t-19.5 79t-4 86.5q0 47 5.5 94.5t22.5 85.5t48 61.5t82 23.5
q49 0 74.5 -17t45.5 -54l1 60h55zM329 279q0 31 -2.5 64t-13.5 60.5t-33 45.5t-61 18q-41 0 -63 -23t-32 -56.5t-11.5 -71t-1.5 -66.5q0 -32 1.5 -67.5t11 -64.5t30 -48t58.5 -19q46 0 70 23.5t34.5 58t11.5 74t1 72.5zM314 594l-86 99l-86 -99h-51l103 139h67l103 -139h-50
z" />
    <glyph glyph-name="Gbreve" unicode="&#x11e;" horiz-adv-x="533" 
d="M409 539v13q0 60 -28.5 96.5t-96.5 36.5q-59 0 -90.5 -30t-45.5 -78t-16 -108t-2 -120q0 -51 1 -105.5t14.5 -100t46.5 -75t97 -29.5q30 0 59.5 5t56.5 18v264h-140v52h199v-360q-41 -15 -86 -23.5t-88 -8.5q-80 0 -124.5 28t-67 77.5t-27.5 116t-5 143.5q0 82 6.5 152.5
t28.5 122.5t65 81.5t117 29.5q51 0 87 -13t58.5 -37t32.5 -59t10 -79v-10h-62zM422 906q-7 -62 -43.5 -94.5t-98.5 -32.5q-60 0 -93 35t-39 92h37q8 -42 34 -61.5t68 -19.5t65.5 20.5t34.5 60.5h35v0z" />
    <glyph glyph-name="gbreve" unicode="&#x11f;" horiz-adv-x="456" 
d="M387 504q-1 -23 -2 -43t-1 -43v-440q0 -87 -38 -132.5t-131 -45.5q-146 0 -149 144h59q0 -48 20 -73.5t71 -25.5q38 0 60 12.5t33 34t14 50t3 60.5v64q-23 -33 -50.5 -47t-67.5 -14q-54 0 -85 22t-46.5 57.5t-19.5 79t-4 86.5q0 47 5.5 94.5t22.5 85.5t48 61.5t82 23.5
q49 0 74.5 -17t45.5 -54l1 60h55zM329 279q0 31 -2.5 64t-13.5 60.5t-33 45.5t-61 18q-41 0 -63 -23t-32 -56.5t-11.5 -71t-1.5 -66.5q0 -32 1.5 -67.5t11 -64.5t30 -48t58.5 -19q46 0 70 23.5t34.5 58t11.5 74t1 72.5zM365 718q-7 -62 -43.5 -94.5t-98.5 -32.5
q-60 0 -93 35t-39 92h37q8 -42 34 -61.5t68 -19.5t65.5 20.5t34.5 60.5h35v0z" />
    <glyph glyph-name="Gdotaccent" unicode="&#x120;" horiz-adv-x="533" 
d="M409 539v13q0 60 -28.5 96.5t-96.5 36.5q-59 0 -90.5 -30t-45.5 -78t-16 -108t-2 -120q0 -51 1 -105.5t14.5 -100t46.5 -75t97 -29.5q30 0 59.5 5t56.5 18v264h-140v52h199v-360q-41 -15 -86 -23.5t-88 -8.5q-80 0 -124.5 28t-67 77.5t-27.5 116t-5 143.5q0 82 6.5 152.5
t28.5 122.5t65 81.5t117 29.5q51 0 87 -13t58.5 -37t32.5 -59t10 -79v-10h-62zM254 806v90h62v-90h-62z" />
    <glyph glyph-name="gdotaccent" unicode="&#x121;" horiz-adv-x="456" 
d="M387 504q-1 -23 -2 -43t-1 -43v-440q0 -87 -38 -132.5t-131 -45.5q-146 0 -149 144h59q0 -48 20 -73.5t71 -25.5q38 0 60 12.5t33 34t14 50t3 60.5v64q-23 -33 -50.5 -47t-67.5 -14q-54 0 -85 22t-46.5 57.5t-19.5 79t-4 86.5q0 47 5.5 94.5t22.5 85.5t48 61.5t82 23.5
q49 0 74.5 -17t45.5 -54l1 60h55zM329 279q0 31 -2.5 64t-13.5 60.5t-33 45.5t-61 18q-41 0 -63 -23t-32 -56.5t-11.5 -71t-1.5 -66.5q0 -32 1.5 -67.5t11 -64.5t30 -48t58.5 -19q46 0 70 23.5t34.5 58t11.5 74t1 72.5zM197 628v90h62v-90h-62z" />
    <glyph glyph-name="Gcommaaccent" unicode="&#x122;" horiz-adv-x="533" 
d="M409 539v13q0 60 -28.5 96.5t-96.5 36.5q-59 0 -90.5 -30t-45.5 -78t-16 -108t-2 -120q0 -51 1 -105.5t14.5 -100t46.5 -75t97 -29.5q30 0 59.5 5t56.5 18v264h-140v52h199v-360q-41 -15 -86 -23.5t-88 -8.5q-80 0 -124.5 28t-67 77.5t-27.5 116t-5 143.5q0 82 6.5 152.5
t28.5 122.5t65 81.5t117 29.5q51 0 87 -13t58.5 -37t32.5 -59t10 -79v-10h-62zM269 -200h-45l33 141h61z" />
    <glyph glyph-name="gcommaaccent" unicode="&#x123;" horiz-adv-x="456" 
d="M387 504q-1 -23 -2 -43t-1 -43v-440q0 -87 -38 -132.5t-131 -45.5q-146 0 -149 144h59q0 -48 20 -73.5t71 -25.5q38 0 60 12.5t33 34t14 50t3 60.5v64q-23 -33 -50.5 -47t-67.5 -14q-54 0 -85 22t-46.5 57.5t-19.5 79t-4 86.5q0 47 5.5 94.5t22.5 85.5t48 61.5t82 23.5
q49 0 74.5 -17t45.5 -54l1 60h55zM329 279q0 31 -2.5 64t-13.5 60.5t-33 45.5t-61 18q-41 0 -63 -23t-32 -56.5t-11.5 -71t-1.5 -66.5q0 -32 1.5 -67.5t11 -64.5t30 -48t58.5 -19q46 0 70 23.5t34.5 58t11.5 74t1 72.5zM246 733h45l-33 -139h-61z" />
    <glyph glyph-name="Hcircumflex" unicode="&#x124;" horiz-adv-x="561" 
d="M416 0v345h-271v-345h-60v723h60v-325h271v325h60v-723h-60zM366 782l-86 99l-86 -99h-51l103 139h67l103 -139h-50z" />
    <glyph glyph-name="hcircumflex" unicode="&#x125;" horiz-adv-x="464" 
d="M336 0v315q0 25 -1 51.5t-9.5 48.5t-26.5 36t-52 14q-33 0 -55 -13.5t-36 -36.5t-20 -53t-6 -63v-299h-57v723h57v-281q23 34 53.5 53.5t74.5 19.5q39 0 64.5 -12t41.5 -33.5t22.5 -51t6.5 -63.5v-355h-57zM188 782l-86 99l-86 -99h-51l103 139h67l103 -139h-50z" />
    <glyph glyph-name="Hbar" unicode="&#x126;" horiz-adv-x="561" 
d="M145 511h271v212h60v-723h-60v345h-271v-345h-60v723h60v-212zM145 459v-61h271v61h-271z" />
    <glyph glyph-name="hbar" unicode="&#x127;" horiz-adv-x="464" 
d="M336 0v315q0 25 -1 51.5t-9.5 48.5t-26.5 36t-52 14q-33 0 -55 -13.5t-36 -36.5t-20 -53t-6 -63v-299h-57v581h-63v47h63v95h57v-95h181v-47h-181v-139q23 34 53.5 53.5t74.5 19.5q39 0 64.5 -12t41.5 -33.5t22.5 -51t6.5 -63.5v-355h-57z" />
    <glyph glyph-name="Itilde" unicode="&#x128;" horiz-adv-x="230" 
d="M85 0v723h60v-723h-60zM265 895q-2 -17 -7 -34t-15 -31t-24.5 -23t-33.5 -9q-20 0 -37.5 7t-34 15t-32.5 15t-32 7q-21 0 -32 -15t-15 -34h-35q1 19 7.5 36.5t17 31t26 21.5t36.5 8q17 0 33.5 -7t32.5 -15t32.5 -15t33.5 -7q20 0 30 15.5t12 33.5h37v0z" />
    <glyph glyph-name="itilde" unicode="&#x129;" horiz-adv-x="203" 
d="M73 0v504h57v-504h-57zM251 707q-2 -17 -7 -34t-15 -31t-24.5 -23t-33.5 -9q-20 0 -37.5 7t-34 15t-32.5 15t-32 7q-21 0 -32 -15t-15 -34h-35q1 19 7.5 36.5t17 31t26 21.5t36.5 8q17 0 33.5 -7t32.5 -15t32.5 -15t33.5 -7q20 0 30 15.5t12 33.5h37v0z" />
    <glyph glyph-name="Imacron" unicode="&#x12a;" horiz-adv-x="230" 
d="M85 0v723h60v-723h-60zM-7 810v45h246v-45h-246z" />
    <glyph glyph-name="imacron" unicode="&#x12b;" horiz-adv-x="203" 
d="M73 0v504h57v-504h-57zM-21 632v45h246v-45h-246z" />
    <glyph glyph-name="Ibreve" unicode="&#x12c;" horiz-adv-x="230" 
d="M85 0v723h60v-723h-60zM252 906q-7 -62 -43.5 -94.5t-98.5 -32.5q-60 0 -93 35t-39 92h37q8 -42 34 -61.5t68 -19.5t65.5 20.5t34.5 60.5h35v0z" />
    <glyph glyph-name="ibreve" unicode="&#x12d;" horiz-adv-x="203" 
d="M73 0v504h57v-504h-57zM238 718q-7 -62 -43.5 -94.5t-98.5 -32.5q-60 0 -93 35t-39 92h37q8 -42 34 -61.5t68 -19.5t65.5 20.5t34.5 60.5h35v0z" />
    <glyph glyph-name="Iogonek" unicode="&#x12e;" horiz-adv-x="230" 
d="M157 -167q-17 -10 -35.5 -16t-38.5 -6q-32 0 -54 21t-22 53q0 21 9 38t23 31t30.5 25.5t32.5 20.5h-17v723h60v-723q-38 -17 -63.5 -42t-25.5 -58q0 -24 14.5 -39.5t37.5 -15.5q11 0 21.5 3t20.5 7l7 -22v0z" />
    <glyph glyph-name="iogonek" unicode="&#x12f;" horiz-adv-x="203" 
d="M142 -167q-17 -10 -35.5 -16t-38.5 -6q-32 0 -54 21t-22 53q0 21 9 38t23 31t30.5 25.5t32.5 20.5h-14v504h57v-504q-37 -17 -63 -42t-26 -58q0 -24 14.5 -39.5t37.5 -15.5q11 0 21.5 3t20.5 7zM67 636v76h69v-76h-69z" />
    <glyph glyph-name="Idotaccent" unicode="&#x130;" horiz-adv-x="230" 
d="M85 0v723h60v-723h-60zM85 806v90h62v-90h-62z" />
    <glyph glyph-name="dotlessi" unicode="&#x131;" horiz-adv-x="203" 
d="M73 0v504h57v-504h-57z" />
    <glyph glyph-name="Jcircumflex" unicode="&#x134;" horiz-adv-x="440" 
d="M360 215q0 -46 -5.5 -87.5t-22.5 -73t-49.5 -50t-87.5 -18.5q-51 0 -83.5 16t-50.5 43.5t-24.5 64t-6.5 78.5v14h61v-12q0 -27 2.5 -54t12.5 -48.5t30.5 -35t57.5 -13.5q42 0 63.5 18t31 45t10.5 59.5t1 61.5v500h60v-508v0zM416 782l-86 99l-86 -99h-51l103 139h67
l103 -139h-50z" />
    <glyph glyph-name="jcircumflex" unicode="&#x135;" horiz-adv-x="203" 
d="M130 -75q0 -32 -3.5 -56t-15 -40.5t-32.5 -25t-55 -8.5q-15 0 -30 3v51q5 -2 9.5 -2h9.5q22 0 34.5 5.5t18 16t6.5 26t1 35.5v574h57v-579v0zM188 594l-86 99l-86 -99h-51l103 139h67l103 -139h-50z" />
    <glyph glyph-name="Kcommaaccent" unicode="&#x136;" horiz-adv-x="478" 
d="M397 0l-248 385l242 338h72l-247 -338l254 -385h-73zM85 0v723h60v-723h-60zM236 -200h-45l33 141h61z" />
    <glyph glyph-name="kcommaaccent" unicode="&#x137;" horiz-adv-x="394" 
d="M317 0l-184 281l168 223h70l-174 -222l190 -282h-70zM73 0v723h57v-723h-57zM211 -200h-45l33 141h61z" />
    <glyph glyph-name="kgreenlandic" unicode="&#x138;" horiz-adv-x="394" 
d="M317 0l-184 281l168 223h70l-174 -222l190 -282h-70zM73 0v504h57v-504h-57z" />
    <glyph glyph-name="Lacute" unicode="&#x139;" horiz-adv-x="395" 
d="M85 0v723h60v-670h228v-53h-288zM127 782h-48l106 139h73z" />
    <glyph glyph-name="lacute" unicode="&#x13a;" horiz-adv-x="203" 
d="M73 0v723h57v-723h-57zM84 772h-48l106 139h73z" />
    <glyph glyph-name="Lcommaaccent" unicode="&#x13b;" horiz-adv-x="395" 
d="M85 0v723h60v-670h228v-53h-288zM213 -200h-45l33 141h61z" />
    <glyph glyph-name="lcommaaccent" unicode="&#x13c;" horiz-adv-x="203" 
d="M73 0v723h57v-723h-57zM84 -200h-45l33 141h61z" />
    <glyph glyph-name="Lcaron" unicode="&#x13d;" horiz-adv-x="395" 
d="M85 0v723h60v-670h228v-53h-288zM268 561h-48l28 162h63z" />
    <glyph glyph-name="lcaron" unicode="&#x13e;" horiz-adv-x="203" 
d="M73 0v723h57v-723h-57zM221 561h-48l28 162h63z" />
    <glyph glyph-name="Ldot" unicode="&#x13f;" horiz-adv-x="395" 
d="M85 0v723h60v-670h228v-53h-288zM233 341v90h62v-90h-62z" />
    <glyph glyph-name="ldot" unicode="&#x140;" horiz-adv-x="203" 
d="M73 0v723h57v-723h-57zM183 327v90h62v-90h-62z" />
    <glyph glyph-name="Lslash" unicode="&#x141;" horiz-adv-x="391" 
d="M85 0v319l-71 -45v49l71 44v356h60v-321l132 81v-48l-132 -82v-300h228v-53h-288z" />
    <glyph glyph-name="lslash" unicode="&#x142;" horiz-adv-x="211" 
d="M134 411v-411h-57v365l-69 -51v52l69 51v306h57v-259l69 48v-52z" />
    <glyph glyph-name="Nacute" unicode="&#x143;" horiz-adv-x="603" 
d="M423 0l-281 669v-669h-57v723h95l281 -669v669h57v-723h-95zM279 782h-48l106 139h73z" />
    <glyph glyph-name="nacute" unicode="&#x144;" horiz-adv-x="464" 
d="M336 0v314q0 25 -1 52t-9.5 49t-26.5 36t-52 14q-35 0 -57.5 -15t-36 -39.5t-18.5 -54.5t-5 -60v-296h-57v379q0 31 -1 62.5t-3 62.5h55l1 -69q23 37 55.5 58.5t77.5 21.5q38 0 64 -12t41.5 -33.5t22.5 -50.5t7 -63v-356h-57zM215 594h-48l106 139h73z" />
    <glyph glyph-name="Ncommaaccent" unicode="&#x145;" horiz-adv-x="603" 
d="M423 0l-281 669v-669h-57v723h95l281 -669v669h57v-723h-95zM279 -200h-45l33 141h61z" />
    <glyph glyph-name="ncommaaccent" unicode="&#x146;" horiz-adv-x="464" 
d="M336 0v314q0 25 -1 52t-9.5 49t-26.5 36t-52 14q-35 0 -57.5 -15t-36 -39.5t-18.5 -54.5t-5 -60v-296h-57v379q0 31 -1 62.5t-3 62.5h55l1 -69q23 37 55.5 58.5t77.5 21.5q38 0 64 -12t41.5 -33.5t22.5 -50.5t7 -63v-356h-57zM215 -200h-45l33 141h61z" />
    <glyph glyph-name="Ncaron" unicode="&#x147;" horiz-adv-x="603" 
d="M423 0l-281 669v-669h-57v723h95l281 -669v669h57v-723h-95zM330 782h-67l-103 139h51l86 -99l86 99h50z" />
    <glyph glyph-name="ncaron" unicode="&#x148;" horiz-adv-x="464" 
d="M336 0v314q0 25 -1 52t-9.5 49t-26.5 36t-52 14q-35 0 -57.5 -15t-36 -39.5t-18.5 -54.5t-5 -60v-296h-57v379q0 31 -1 62.5t-3 62.5h55l1 -69q23 37 55.5 58.5t77.5 21.5q38 0 64 -12t41.5 -33.5t22.5 -50.5t7 -63v-356h-57zM266 594h-67l-103 139h51l86 -99l86 99h50z
" />
    <glyph glyph-name="Eng" unicode="&#x14a;" horiz-adv-x="603" 
d="M518 -81q0 -65 -25 -94.5t-84 -29.5q-8 0 -18.5 0.5t-19.5 1.5v56q7 -1 15 -1.5t12 -0.5q36 0 49.5 14t13.5 54v81l-319 654v-654h-57v723h83l293 -599v599h57v-804v0z" />
    <glyph glyph-name="eng" unicode="&#x14b;" horiz-adv-x="464" 
d="M393 -75q0 -32 -4 -56t-15.5 -40.5t-32 -25t-53.5 -8.5q-17 0 -32 3v51q7 -2 14 -2h12q32 0 43 16.5t11 54.5v417q0 61 -18.5 95.5t-70.5 34.5q-35 0 -57.5 -15t-36 -39.5t-18.5 -54.5t-5 -60v-296h-57v379q0 31 -1 62.5t-3 62.5h55l1 -69q23 37 55.5 58.5t77.5 21.5
q38 0 64 -12t41.5 -33.5t22.5 -50.5t7 -63v-431v0z" />
    <glyph glyph-name="Omacron" unicode="&#x14c;" horiz-adv-x="547" 
d="M481 362q0 -55 -1 -94t-4 -68t-8.5 -51.5t-13.5 -43.5q-10 -26 -24.5 -48t-35.5 -37.5t-50.5 -24.5t-69.5 -9q-41 0 -70.5 8t-50.5 23t-35.5 35.5t-24.5 44.5q-8 19 -13 38t-8 47.5t-4.5 70.5t-1.5 108q0 64 1.5 110.5t6.5 81.5t15.5 61.5t27.5 50.5q23 33 63.5 52.5
t93.5 19.5q32 0 56 -4.5t42 -13.5t31.5 -21.5t25.5 -27.5q17 -23 27.5 -51t16 -64.5t7 -84t1.5 -108.5zM417 361q0 50 -1 105t-12 104q-5 24 -14 45t-24 36.5t-37.5 24.5t-54.5 9t-55.5 -10t-39.5 -28t-25.5 -42t-13.5 -51q-8 -45 -9 -96t-1 -96q0 -48 0.5 -99.5t9.5 -99.5
q6 -29 15 -52t24.5 -39.5t38.5 -25t56 -8.5q31 0 53 9t37 25t24.5 37.5t15.5 45.5q6 25 9 52.5t4 54.5t0.5 52.5t-0.5 46.5zM151 810v45h246v-45h-246z" />
    <glyph glyph-name="omacron" unicode="&#x14d;" horiz-adv-x="439" 
d="M386 249q0 -62 -6.5 -110.5t-25.5 -81.5t-52 -50t-85 -17q-55 0 -87.5 18t-49.5 52t-22 81t-5 106q0 55 5 104t23 85.5t52 57.5t91 21t89.5 -20t48.5 -55t20 -84t4 -107zM327 266q0 31 -1 66.5t-10 66t-30.5 50.5t-62.5 20q-43 0 -66 -21t-33 -51.5t-11 -66.5t-1 -66v-58
q0 -29 2 -59t12.5 -55t32 -40.5t60.5 -15.5q37 0 58.5 15t32.5 39t14 54t3 60v62zM96 632v45h246v-45h-246z" />
    <glyph glyph-name="Obreve" unicode="&#x14e;" horiz-adv-x="547" 
d="M481 362q0 -55 -1 -94t-4 -68t-8.5 -51.5t-13.5 -43.5q-10 -26 -24.5 -48t-35.5 -37.5t-50.5 -24.5t-69.5 -9q-41 0 -70.5 8t-50.5 23t-35.5 35.5t-24.5 44.5q-8 19 -13 38t-8 47.5t-4.5 70.5t-1.5 108q0 64 1.5 110.5t6.5 81.5t15.5 61.5t27.5 50.5q23 33 63.5 52.5
t93.5 19.5q32 0 56 -4.5t42 -13.5t31.5 -21.5t25.5 -27.5q17 -23 27.5 -51t16 -64.5t7 -84t1.5 -108.5zM417 361q0 50 -1 105t-12 104q-5 24 -14 45t-24 36.5t-37.5 24.5t-54.5 9t-55.5 -10t-39.5 -28t-25.5 -42t-13.5 -51q-8 -45 -9 -96t-1 -96q0 -48 0.5 -99.5t9.5 -99.5
q6 -29 15 -52t24.5 -39.5t38.5 -25t56 -8.5q31 0 53 9t37 25t24.5 37.5t15.5 45.5q6 25 9 52.5t4 54.5t0.5 52.5t-0.5 46.5zM411 906q-7 -62 -43.5 -94.5t-98.5 -32.5q-60 0 -93 35t-39 92h37q8 -42 34 -61.5t68 -19.5t65.5 20.5t34.5 60.5h35v0z" />
    <glyph glyph-name="obreve" unicode="&#x14f;" horiz-adv-x="439" 
d="M386 249q0 -62 -6.5 -110.5t-25.5 -81.5t-52 -50t-85 -17q-55 0 -87.5 18t-49.5 52t-22 81t-5 106q0 55 5 104t23 85.5t52 57.5t91 21t89.5 -20t48.5 -55t20 -84t4 -107zM327 266q0 31 -1 66.5t-10 66t-30.5 50.5t-62.5 20q-43 0 -66 -21t-33 -51.5t-11 -66.5t-1 -66v-58
q0 -29 2 -59t12.5 -55t32 -40.5t60.5 -15.5q37 0 58.5 15t32.5 39t14 54t3 60v62zM356 718q-7 -62 -43.5 -94.5t-98.5 -32.5q-60 0 -93 35t-39 92h37q8 -42 34 -61.5t68 -19.5t65.5 20.5t34.5 60.5h35v0z" />
    <glyph glyph-name="Ohungarumlaut" unicode="&#x150;" horiz-adv-x="547" 
d="M481 362q0 -55 -1 -94t-4 -68t-8.5 -51.5t-13.5 -43.5q-10 -26 -24.5 -48t-35.5 -37.5t-50.5 -24.5t-69.5 -9q-41 0 -70.5 8t-50.5 23t-35.5 35.5t-24.5 44.5q-8 19 -13 38t-8 47.5t-4.5 70.5t-1.5 108q0 64 1.5 110.5t6.5 81.5t15.5 61.5t27.5 50.5q23 33 63.5 52.5
t93.5 19.5q32 0 56 -4.5t42 -13.5t31.5 -21.5t25.5 -27.5q17 -23 27.5 -51t16 -64.5t7 -84t1.5 -108.5zM417 361q0 50 -1 105t-12 104q-5 24 -14 45t-24 36.5t-37.5 24.5t-54.5 9t-55.5 -10t-39.5 -28t-25.5 -42t-13.5 -51q-8 -45 -9 -96t-1 -96q0 -48 0.5 -99.5t9.5 -99.5
q6 -29 15 -52t24.5 -39.5t38.5 -25t56 -8.5q31 0 53 9t37 25t24.5 37.5t15.5 45.5q6 25 9 52.5t4 54.5t0.5 52.5t-0.5 46.5zM339 782h-48l105 139h74zM204 782h-48l106 139h73z" />
    <glyph glyph-name="ohungarumlaut" unicode="&#x151;" horiz-adv-x="439" 
d="M386 249q0 -62 -6.5 -110.5t-25.5 -81.5t-52 -50t-85 -17q-55 0 -87.5 18t-49.5 52t-22 81t-5 106q0 55 5 104t23 85.5t52 57.5t91 21t89.5 -20t48.5 -55t20 -84t4 -107zM327 266q0 31 -1 66.5t-10 66t-30.5 50.5t-62.5 20q-43 0 -66 -21t-33 -51.5t-11 -66.5t-1 -66v-58
q0 -29 2 -59t12.5 -55t32 -40.5t60.5 -15.5q37 0 58.5 15t32.5 39t14 54t3 60v62zM284 594h-48l105 139h74zM149 594h-48l106 139h73z" />
    <glyph glyph-name="Racute" unicode="&#x154;" horiz-adv-x="508" 
d="M380 0q-5 21 -7.5 59.5t-2.5 84.5t-1.5 83.5t-6.5 61.5q-8 33 -32.5 48t-83.5 15h-101v-352h-60v723h175q93 0 137 -40.5t44 -133.5q0 -33 -4.5 -60t-17 -49t-34 -37.5t-54.5 -25.5q27 -3 44 -11t27.5 -19.5t15.5 -25t7 -26.5q4 -25 5 -66.5t1 -83.5q0 -13 0.5 -32
t2 -39.5t3.5 -40t4 -33.5h-61zM379 549q0 68 -29.5 94.5t-91.5 26.5h-113v-266h80q43 0 72.5 6t47.5 22t26 44.5t8 72.5zM241 782h-48l106 139h73z" />
    <glyph glyph-name="racute" unicode="&#x155;" horiz-adv-x="279" 
d="M263 457q-5 1 -15 1q-59 0 -88.5 -37.5t-29.5 -92.5v-328h-57v412q0 23 -1 46t-3 46h55l1 -67q20 36 53 57t73 21h5.5t6.5 -1v-57v0zM141 594h-48l106 139h73z" />
    <glyph glyph-name="Rcommaaccent" unicode="&#x156;" horiz-adv-x="508" 
d="M380 0q-5 21 -7.5 59.5t-2.5 84.5t-1.5 83.5t-6.5 61.5q-8 33 -32.5 48t-83.5 15h-101v-352h-60v723h175q93 0 137 -40.5t44 -133.5q0 -33 -4.5 -60t-17 -49t-34 -37.5t-54.5 -25.5q27 -3 44 -11t27.5 -19.5t15.5 -25t7 -26.5q4 -25 5 -66.5t1 -83.5q0 -13 0.5 -32
t2 -39.5t3.5 -40t4 -33.5h-61zM379 549q0 68 -29.5 94.5t-91.5 26.5h-113v-266h80q43 0 72.5 6t47.5 22t26 44.5t8 72.5zM239 -200h-45l33 141h61z" />
    <glyph glyph-name="rcommaaccent" unicode="&#x157;" horiz-adv-x="279" 
d="M263 457q-5 1 -15 1q-59 0 -88.5 -37.5t-29.5 -92.5v-328h-57v412q0 23 -1 46t-3 46h55l1 -67q20 36 53 57t73 21h5.5t6.5 -1v-57v0zM86 -200h-45l33 141h61z" />
    <glyph glyph-name="Rcaron" unicode="&#x158;" horiz-adv-x="508" 
d="M380 0q-5 21 -7.5 59.5t-2.5 84.5t-1.5 83.5t-6.5 61.5q-8 33 -32.5 48t-83.5 15h-101v-352h-60v723h175q93 0 137 -40.5t44 -133.5q0 -33 -4.5 -60t-17 -49t-34 -37.5t-54.5 -25.5q27 -3 44 -11t27.5 -19.5t15.5 -25t7 -26.5q4 -25 5 -66.5t1 -83.5q0 -13 0.5 -32
t2 -39.5t3.5 -40t4 -33.5h-61zM379 549q0 68 -29.5 94.5t-91.5 26.5h-113v-266h80q43 0 72.5 6t47.5 22t26 44.5t8 72.5zM292 782h-67l-103 139h51l86 -99l86 99h50z" />
    <glyph glyph-name="rcaron" unicode="&#x159;" horiz-adv-x="279" 
d="M263 457q-5 1 -15 1q-59 0 -88.5 -37.5t-29.5 -92.5v-328h-57v412q0 23 -1 46t-3 46h55l1 -67q20 36 53 57t73 21h5.5t6.5 -1v-57v0zM192 594h-67l-103 139h51l86 -99l86 99h50z" />
    <glyph glyph-name="Sacute" unicode="&#x15a;" horiz-adv-x="476" 
d="M424 172q0 -89 -49 -137.5t-134 -48.5q-102 0 -146.5 51.5t-44.5 150.5v8h63v-8q0 -33 5.5 -60.5t20 -47.5t39 -31t62.5 -11q66 0 93 35.5t27 95.5q0 28 -5.5 49t-17 38.5t-30 32.5t-44.5 31l-80 49q-26 16 -49 34t-39.5 40.5t-26 51.5t-9.5 67q0 41 13.5 73.5t38 55
t58.5 34.5t74 12q85 0 131 -41t46 -129v-22h-62v16q0 28 -5 51t-18.5 39t-36 25t-57.5 9q-56 0 -87 -32t-31 -89q0 -28 6 -48.5t17.5 -37t29 -30t40.5 -27.5l85 -52q34 -21 57.5 -40.5t38 -42.5t21 -50.5t6.5 -63.5zM224 782h-48l106 139h73z" />
    <glyph glyph-name="sacute" unicode="&#x15b;" horiz-adv-x="370" 
d="M327 134q0 -144 -145 -144q-77 0 -109 40t-32 108v12h57v-12q0 -49 19.5 -75.5t64.5 -26.5q42 0 64.5 22.5t22.5 64.5q0 22 -4.5 38t-15 29t-27 24.5t-40.5 24.5l-40 22q-38 21 -62.5 50t-24.5 78q0 63 38 94.5t98 31.5q70 0 101.5 -35.5t31.5 -105.5v-5h-57v12
q0 42 -18.5 64.5t-61.5 22.5q-36 0 -55.5 -21.5t-19.5 -55.5q0 -33 20.5 -53.5t49.5 -37.5l38 -22q20 -11 39.5 -24t34.5 -30t24 -39t9 -51zM170 594h-48l106 139h73z" />
    <glyph glyph-name="Scircumflex" unicode="&#x15c;" horiz-adv-x="476" 
d="M424 172q0 -89 -49 -137.5t-134 -48.5q-102 0 -146.5 51.5t-44.5 150.5v8h63v-8q0 -33 5.5 -60.5t20 -47.5t39 -31t62.5 -11q66 0 93 35.5t27 95.5q0 28 -5.5 49t-17 38.5t-30 32.5t-44.5 31l-80 49q-26 16 -49 34t-39.5 40.5t-26 51.5t-9.5 67q0 41 13.5 73.5t38 55
t58.5 34.5t74 12q85 0 131 -41t46 -129v-22h-62v16q0 28 -5 51t-18.5 39t-36 25t-57.5 9q-56 0 -87 -32t-31 -89q0 -28 6 -48.5t17.5 -37t29 -30t40.5 -27.5l85 -52q34 -21 57.5 -40.5t38 -42.5t21 -50.5t6.5 -63.5zM328 782l-86 99l-86 -99h-51l103 139h67l103 -139h-50z
" />
    <glyph glyph-name="scircumflex" unicode="&#x15d;" horiz-adv-x="370" 
d="M327 134q0 -144 -145 -144q-77 0 -109 40t-32 108v12h57v-12q0 -49 19.5 -75.5t64.5 -26.5q42 0 64.5 22.5t22.5 64.5q0 22 -4.5 38t-15 29t-27 24.5t-40.5 24.5l-40 22q-38 21 -62.5 50t-24.5 78q0 63 38 94.5t98 31.5q70 0 101.5 -35.5t31.5 -105.5v-5h-57v12
q0 42 -18.5 64.5t-61.5 22.5q-36 0 -55.5 -21.5t-19.5 -55.5q0 -33 20.5 -53.5t49.5 -37.5l38 -22q20 -11 39.5 -24t34.5 -30t24 -39t9 -51zM274 594l-86 99l-86 -99h-51l103 139h67l103 -139h-50z" />
    <glyph glyph-name="Scedilla" unicode="&#x15e;" horiz-adv-x="476" 
d="M344 -124q0 -22 -9 -37.5t-24 -26t-33.5 -15.5t-37.5 -5q-46 0 -89 20l14 30q16 -7 31.5 -11t32.5 -4q24 0 42 11t18 34q0 21 -14 31t-36 10q-19 0 -40 -8l-14 13l46 68q-96 3 -138.5 54.5t-42.5 147.5v8h63v-8q0 -33 5.5 -60.5t20 -47.5t39 -31t62.5 -11q66 0 93 35.5
t27 95.5q0 28 -5.5 49t-17 38.5t-30 32.5t-44.5 31l-80 49q-26 16 -49 34t-39.5 40.5t-26 51.5t-9.5 67q0 41 13.5 73.5t38 55t58.5 34.5t74 12q85 0 131 -41t46 -129v-22h-62v16q0 28 -5 51t-18.5 39t-36 25t-57.5 9q-56 0 -87 -32t-31 -89q0 -28 6 -48.5t17.5 -37t29 -30
t40.5 -27.5l85 -52q34 -21 57.5 -40.5t38 -42.5t21 -50.5t6.5 -63.5q0 -81 -41.5 -128.5t-113.5 -55.5l-34 -47q16 6 34 6q31 0 53 -19.5t22 -51.5z" />
    <glyph glyph-name="scedilla" unicode="&#x15f;" horiz-adv-x="370" 
d="M285 -124q0 -22 -9 -37.5t-24 -26t-33.5 -15.5t-37.5 -5q-46 0 -89 20l14 30q16 -7 31.5 -11t32.5 -4q24 0 42 11t18 34q0 21 -14 31t-36 10q-19 0 -40 -8l-14 13l49 72q-37 1 -62.5 12t-41.5 30t-23 46t-7 60v12h57v-12q0 -49 19.5 -75.5t64.5 -26.5q42 0 64.5 22.5
t22.5 64.5q0 22 -4.5 38t-15 29t-27 24.5t-40.5 24.5l-40 22q-38 21 -62.5 50t-24.5 78q0 63 38 94.5t98 31.5q70 0 101.5 -35.5t31.5 -105.5v-5h-57v12q0 42 -18.5 64.5t-61.5 22.5q-36 0 -55.5 -21.5t-19.5 -55.5q0 -33 20.5 -53.5t49.5 -37.5l38 -22q20 -11 39.5 -24
t34.5 -30t24 -39t9 -51q0 -127 -114 -142l-37 -51q16 6 34 6q31 0 53 -19.5t22 -51.5z" />
    <glyph glyph-name="uni0162" unicode="&#x162;" horiz-adv-x="411" 
d="M235 670v-670h-60v670h-167v53h395v-53h-168zM189 -200h-45l33 141h61z" />
    <glyph glyph-name="uni0163" unicode="&#x163;" horiz-adv-x="273" 
d="M251 0q-13 -2 -25.5 -3t-25.5 -1q-33 0 -53.5 7.5t-31 22.5t-14 37t-3.5 51v343h-78v47h78v97l57 26v-123h96v-47h-96v-339q0 -24 3.5 -38t10.5 -21.5t18.5 -9.5t26.5 -2q8 0 18.5 1t18.5 3v-51v0zM133 -200h-45l33 141h61z" />
    <glyph glyph-name="Tcaron" unicode="&#x164;" horiz-adv-x="411" 
d="M235 670v-670h-60v670h-167v53h395v-53h-168zM240 782h-67l-103 139h51l86 -99l86 99h50z" />
    <glyph glyph-name="tcaron" unicode="&#x165;" horiz-adv-x="273" 
d="M251 0q-13 -2 -25.5 -3t-25.5 -1q-33 0 -53.5 7.5t-31 22.5t-14 37t-3.5 51v343h-78v47h78v97l57 26v-123h96v-47h-96v-339q0 -24 3.5 -38t10.5 -21.5t18.5 -9.5t26.5 -2q8 0 18.5 1t18.5 3v-51v0zM257 561h-48l28 162h63z" />
    <glyph glyph-name="Tbar" unicode="&#x166;" horiz-adv-x="411" 
d="M31 347v52h144v271h-167v53h395v-53h-168v-271h144v-52h-144v-347h-60v347h-144z" />
    <glyph glyph-name="tbar" unicode="&#x167;" horiz-adv-x="273" 
d="M251 0q-13 -2 -25.5 -3t-25.5 -1q-33 0 -53.5 7.5t-31 22.5t-14 37t-3.5 51v209h-78v47h78v87h-78v47h78v97l57 26v-123h96v-47h-96v-87h96v-47h-96v-205q0 -24 3.5 -38t10.5 -21.5t18.5 -9.5t26.5 -2q8 0 17.5 1t19.5 3v-51v0z" />
    <glyph glyph-name="Utilde" unicode="&#x168;" horiz-adv-x="561" 
d="M480 240q0 -59 -9 -106t-31.5 -80t-61 -50.5t-96.5 -17.5q-64 0 -103.5 19.5t-61 54t-29 82t-7.5 103.5v478h60v-479q0 -41 4.5 -78t19 -65t42.5 -45t75 -17q46 0 73.5 17t42 44.5t18.5 64t4 75.5v483h60v-483v0zM429 895q-2 -17 -7 -34t-15 -31t-24.5 -23t-33.5 -9
q-20 0 -37.5 7t-34 15t-32.5 15t-32 7q-21 0 -32 -15t-15 -34h-35q1 19 7.5 36.5t17 31t26 21.5t36.5 8q17 0 33.5 -7t32.5 -15t32.5 -15t33.5 -7q20 0 30 15.5t12 33.5h37v0z" />
    <glyph glyph-name="utilde" unicode="&#x169;" horiz-adv-x="464" 
d="M340 0l-1 69q-23 -37 -54 -57t-76 -20q-39 0 -65 12.5t-42.5 34.5t-23.5 51.5t-7 63.5v350h57v-314q0 -25 1.5 -51.5t10 -48t27 -35t52.5 -13.5q38 0 60.5 14.5t34.5 38.5t16 53.5t4 59.5v296h57v-379q0 -31 1 -62.5t3 -62.5h-55zM379 707q-2 -17 -7 -34t-15 -31
t-24.5 -23t-33.5 -9q-20 0 -37.5 7t-34 15t-32.5 15t-32 7q-21 0 -32 -15t-15 -34h-35q1 19 7.5 36.5t17 31t26 21.5t36.5 8q17 0 33.5 -7t32.5 -15t32.5 -15t33.5 -7q20 0 30 15.5t12 33.5h37v0z" />
    <glyph glyph-name="Umacron" unicode="&#x16a;" horiz-adv-x="561" 
d="M480 240q0 -59 -9 -106t-31.5 -80t-61 -50.5t-96.5 -17.5q-64 0 -103.5 19.5t-61 54t-29 82t-7.5 103.5v478h60v-479q0 -41 4.5 -78t19 -65t42.5 -45t75 -17q46 0 73.5 17t42 44.5t18.5 64t4 75.5v483h60v-483v0zM157 810v45h246v-45h-246z" />
    <glyph glyph-name="umacron" unicode="&#x16b;" horiz-adv-x="464" 
d="M340 0l-1 69q-23 -37 -54 -57t-76 -20q-39 0 -65 12.5t-42.5 34.5t-23.5 51.5t-7 63.5v350h57v-314q0 -25 1.5 -51.5t10 -48t27 -35t52.5 -13.5q38 0 60.5 14.5t34.5 38.5t16 53.5t4 59.5v296h57v-379q0 -31 1 -62.5t3 -62.5h-55zM107 632v45h246v-45h-246z" />
    <glyph glyph-name="Ubreve" unicode="&#x16c;" horiz-adv-x="561" 
d="M480 240q0 -59 -9 -106t-31.5 -80t-61 -50.5t-96.5 -17.5q-64 0 -103.5 19.5t-61 54t-29 82t-7.5 103.5v478h60v-479q0 -41 4.5 -78t19 -65t42.5 -45t75 -17q46 0 73.5 17t42 44.5t18.5 64t4 75.5v483h60v-483v0zM417 906q-7 -62 -43.5 -94.5t-98.5 -32.5q-60 0 -93 35
t-39 92h37q8 -42 34 -61.5t68 -19.5t65.5 20.5t34.5 60.5h35v0z" />
    <glyph glyph-name="ubreve" unicode="&#x16d;" horiz-adv-x="464" 
d="M340 0l-1 69q-23 -37 -54 -57t-76 -20q-39 0 -65 12.5t-42.5 34.5t-23.5 51.5t-7 63.5v350h57v-314q0 -25 1.5 -51.5t10 -48t27 -35t52.5 -13.5q38 0 60.5 14.5t34.5 38.5t16 53.5t4 59.5v296h57v-379q0 -31 1 -62.5t3 -62.5h-55zM367 718q-7 -62 -43.5 -94.5
t-98.5 -32.5q-60 0 -93 35t-39 92h37q8 -42 34 -61.5t68 -19.5t65.5 20.5t34.5 60.5h35v0z" />
    <glyph glyph-name="Uring" unicode="&#x16e;" horiz-adv-x="561" 
d="M480 240q0 -59 -9 -106t-31.5 -80t-61 -50.5t-96.5 -17.5q-64 0 -103.5 19.5t-61 54t-29 82t-7.5 103.5v478h60v-479q0 -41 4.5 -78t19 -65t42.5 -45t75 -17q46 0 73.5 17t42 44.5t18.5 64t4 75.5v483h60v-483v0zM368 839q0 -37 -25.5 -62.5t-62.5 -25.5t-62.5 25.5
t-25.5 62.5t25.5 62.5t62.5 25.5t62.5 -25.5t25.5 -62.5zM336 839q0 26 -16 42.5t-40 16.5t-40 -16.5t-16 -42.5t16 -42.5t40 -16.5t40 16.5t16 42.5z" />
    <glyph glyph-name="uring" unicode="&#x16f;" horiz-adv-x="464" 
d="M340 0l-1 69q-23 -37 -54 -57t-76 -20q-39 0 -65 12.5t-42.5 34.5t-23.5 51.5t-7 63.5v350h57v-314q0 -25 1.5 -51.5t10 -48t27 -35t52.5 -13.5q38 0 60.5 14.5t34.5 38.5t16 53.5t4 59.5v296h57v-379q0 -31 1 -62.5t3 -62.5h-55zM318 671q0 -37 -25.5 -62.5t-62.5 -25.5
t-62.5 25.5t-25.5 62.5t25.5 62.5t62.5 25.5t62.5 -25.5t25.5 -62.5zM286 671q0 26 -16 42.5t-40 16.5t-40 -16.5t-16 -42.5t16 -42.5t40 -16.5t40 16.5t16 42.5z" />
    <glyph glyph-name="Uhungarumlaut" unicode="&#x170;" horiz-adv-x="561" 
d="M480 240q0 -59 -9 -106t-31.5 -80t-61 -50.5t-96.5 -17.5q-64 0 -103.5 19.5t-61 54t-29 82t-7.5 103.5v478h60v-479q0 -41 4.5 -78t19 -65t42.5 -45t75 -17q46 0 73.5 17t42 44.5t18.5 64t4 75.5v483h60v-483v0zM345 782h-48l105 139h74zM210 782h-48l106 139h73z" />
    <glyph glyph-name="uhungarumlaut" unicode="&#x171;" horiz-adv-x="464" 
d="M340 0l-1 69q-23 -37 -54 -57t-76 -20q-39 0 -65 12.5t-42.5 34.5t-23.5 51.5t-7 63.5v350h57v-314q0 -25 1.5 -51.5t10 -48t27 -35t52.5 -13.5q38 0 60.5 14.5t34.5 38.5t16 53.5t4 59.5v296h57v-379q0 -31 1 -62.5t3 -62.5h-55zM295 594h-48l105 139h74zM160 594h-48
l106 139h73z" />
    <glyph glyph-name="Uogonek" unicode="&#x172;" horiz-adv-x="561" 
d="M359 -167q-17 -10 -35.5 -16t-38.5 -6q-32 0 -54 21t-22 53q0 35 22.5 59.5t49.5 41.5q-63 0 -102.5 19.5t-61 54t-29 82t-7.5 103.5v478h60v-479q0 -41 4.5 -78t19 -65t42.5 -45t75 -17q46 0 73.5 17t42 44.5t18.5 64t4 75.5v483h60v-483q0 -54 -7.5 -97.5t-25.5 -75.5
t-48 -52t-76 -26q-27 -17 -46 -38.5t-19 -50.5q0 -24 14.5 -39.5t37.5 -15.5q11 0 21.5 3t20.5 7l7 -22v0z" />
    <glyph glyph-name="uogonek" unicode="&#x173;" horiz-adv-x="464" 
d="M408 -167q-17 -10 -35.5 -16t-38.5 -6q-32 0 -54 21t-22 53q0 21 9 38t23 31t30.5 25.5t32.5 20.5h-13l-1 69q-23 -37 -54 -57t-76 -20q-39 0 -65 12.5t-42.5 34.5t-23.5 51.5t-7 63.5v350h57v-314q0 -25 1.5 -51.5t10 -48t27 -35t52.5 -13.5q38 0 60.5 14.5t34.5 38.5
t16 53.5t4 59.5v296h57v-379q0 -31 1 -62.5t3 -62.5q-39 -20 -63.5 -43.5t-24.5 -56.5q0 -24 14.5 -39.5t37.5 -15.5q11 0 21.5 3t20.5 7l7 -22v0z" />
    <glyph glyph-name="Wcircumflex" unicode="&#x174;" horiz-adv-x="814" 
d="M621 0h-76l-138 659l-143 -659h-76l-166 723h64l141 -657l145 657h76l138 -657l147 657h59zM496 782l-86 99l-86 -99h-51l103 139h67l103 -139h-50z" />
    <glyph glyph-name="wcircumflex" unicode="&#x175;" horiz-adv-x="658" 
d="M505 0h-72l-107 429l-100 -429h-72l-132 504h60l110 -448l102 448h70l109 -448l106 448h57zM414 594l-86 99l-86 -99h-51l103 139h67l103 -139h-50z" />
    <glyph glyph-name="Ycircumflex" unicode="&#x176;" horiz-adv-x="466" 
d="M262 291v-291h-60v291l-194 432h67l160 -370l159 370h64zM319 782l-86 99l-86 -99h-51l103 139h67l103 -139h-50z" />
    <glyph glyph-name="ycircumflex" unicode="&#x177;" horiz-adv-x="390" 
d="M171 -192h-56l56 190l-151 506h61l118 -428l115 428h56zM285 594l-86 99l-86 -99h-51l103 139h67l103 -139h-50z" />
    <glyph glyph-name="Zacute" unicode="&#x179;" horiz-adv-x="435" 
d="M30 0v56l314 614h-295v53h356v-62l-310 -608h310v-53h-375zM205 782h-48l106 139h73z" />
    <glyph glyph-name="zacute" unicode="&#x17a;" horiz-adv-x="320" 
d="M28 0v52l199 403h-186v49h246v-52l-199 -403h202v-49h-262zM145 594h-48l106 139h73z" />
    <glyph glyph-name="Zdotaccent" unicode="&#x17b;" horiz-adv-x="435" 
d="M30 0v56l314 614h-295v53h356v-62l-310 -608h310v-53h-375zM192 806v90h62v-90h-62z" />
    <glyph glyph-name="zdotaccent" unicode="&#x17c;" horiz-adv-x="320" 
d="M28 0v52l199 403h-186v49h246v-52l-199 -403h202v-49h-262zM132 628v90h62v-90h-62z" />
    <glyph glyph-name="Scommaaccent" unicode="&#x218;" horiz-adv-x="476" 
d="M424 172q0 -89 -49 -137.5t-134 -48.5q-102 0 -146.5 51.5t-44.5 150.5v8h63v-8q0 -33 5.5 -60.5t20 -47.5t39 -31t62.5 -11q66 0 93 35.5t27 95.5q0 28 -5.5 49t-17 38.5t-30 32.5t-44.5 31l-80 49q-26 16 -49 34t-39.5 40.5t-26 51.5t-9.5 67q0 41 13.5 73.5t38 55
t58.5 34.5t74 12q85 0 131 -41t46 -129v-22h-62v16q0 28 -5 51t-18.5 39t-36 25t-57.5 9q-56 0 -87 -32t-31 -89q0 -28 6 -48.5t17.5 -37t29 -30t40.5 -27.5l85 -52q34 -21 57.5 -40.5t38 -42.5t21 -50.5t6.5 -63.5zM224 -200h-45l33 141h61z" />
    <glyph glyph-name="scommaaccent" unicode="&#x219;" horiz-adv-x="370" 
d="M327 134q0 -144 -145 -144q-77 0 -109 40t-32 108v12h57v-12q0 -49 19.5 -75.5t64.5 -26.5q42 0 64.5 22.5t22.5 64.5q0 22 -4.5 38t-15 29t-27 24.5t-40.5 24.5l-40 22q-38 21 -62.5 50t-24.5 78q0 63 38 94.5t98 31.5q70 0 101.5 -35.5t31.5 -105.5v-5h-57v12
q0 42 -18.5 64.5t-61.5 22.5q-36 0 -55.5 -21.5t-19.5 -55.5q0 -33 20.5 -53.5t49.5 -37.5l38 -22q20 -11 39.5 -24t34.5 -30t24 -39t9 -51zM170 -200h-45l33 141h61z" />
    <glyph glyph-name="uni021A" unicode="&#x21a;" horiz-adv-x="411" 
d="M235 670v-670h-60v670h-167v53h395v-53h-168zM189 -200h-45l33 141h61z" />
    <glyph glyph-name="uni021B" unicode="&#x21b;" horiz-adv-x="273" 
d="M251 0q-13 -2 -25.5 -3t-25.5 -1q-33 0 -53.5 7.5t-31 22.5t-14 37t-3.5 51v343h-78v47h78v97l57 26v-123h96v-47h-96v-339q0 -24 3.5 -38t10.5 -21.5t18.5 -9.5t26.5 -2q8 0 18.5 1t18.5 3v-51v0zM133 -200h-45l33 141h61z" />
    <glyph glyph-name="dotlessj" unicode="&#x237;" horiz-adv-x="203" 
d="M130 -75q0 -32 -3.5 -56t-15 -40.5t-32.5 -25t-55 -8.5q-15 0 -30 3v51q5 -2 9.5 -2h9.5q22 0 34.5 5.5t18 16t6.5 26t1 35.5v574h57v-579v0z" />
    <glyph glyph-name="caron" unicode="&#x2c7;" horiz-adv-x="175" 
d="M121 594h-67l-103 139h51l86 -99l86 99h50z" />
    <glyph glyph-name="uni02C9" unicode="&#x2c9;" horiz-adv-x="175" 
d="M-35 810v45h246v-45h-246z" />
    <glyph glyph-name="breve" unicode="&#x2d8;" horiz-adv-x="175" 
d="M225 718q-7 -62 -43.5 -94.5t-98.5 -32.5q-60 0 -93 35t-39 92h37q8 -42 34 -61.5t68 -19.5t65.5 20.5t34.5 60.5h35v0z" />
    <glyph glyph-name="dotaccent" unicode="&#x2d9;" horiz-adv-x="175" 
d="M57 628v90h62v-90h-62z" />
    <glyph glyph-name="ring" unicode="&#x2da;" horiz-adv-x="175" 
d="M176 671q0 -37 -25.5 -62.5t-62.5 -25.5t-62.5 25.5t-25.5 62.5t25.5 62.5t62.5 25.5t62.5 -25.5t25.5 -62.5zM144 671q0 26 -16 42.5t-40 16.5t-40 -16.5t-16 -42.5t16 -42.5t40 -16.5t40 16.5t16 42.5z" />
    <glyph glyph-name="ogonek" unicode="&#x2db;" horiz-adv-x="175" 
d="M159 -167q-17 -10 -35.5 -16t-38.5 -6q-32 0 -54 21t-22 53q0 21 9 38t23.5 31.5t31.5 26t33 20.5h40q-35 -17 -61.5 -42t-26.5 -59q0 -24 14.5 -39.5t37.5 -15.5q11 0 21.5 3t20.5 7l7 -22v0z" />
    <glyph glyph-name="hungarumlaut" unicode="&#x2dd;" horiz-adv-x="175" 
d="M143 594h-48l105 139h74zM8 594h-48l106 139h73z" />
    <glyph glyph-name="uni0394" unicode="&#x394;" horiz-adv-x="539" 
d="M22 0l212 723h63l220 -723h-495zM266 643l-168 -591h341z" />
    <glyph glyph-name="uni03A9" unicode="&#x3a9;" horiz-adv-x="547" 
d="M323 0v52q26 24 44 59t29 77t16 89.5t5 97.5q0 28 -0.5 60.5t-3 64.5t-7.5 60t-13 48q-17 42 -45.5 59.5t-74.5 17.5q-48 0 -76 -22t-43 -57q-8 -20 -13 -47.5t-7.5 -59t-3 -64t-0.5 -60.5q0 -50 5 -97.5t16 -89.5t29 -77t44 -59v-52h-168v52h113q-26 25 -45.5 54
t-32 68.5t-19 92t-6.5 123.5q0 79 5 135t22 98q47 114 180 114q71 0 115 -26.5t67 -87.5q15 -41 20.5 -98.5t5.5 -134.5q0 -71 -6.5 -123.5t-19 -92t-32 -68.5t-45.5 -54h113v-52h-168z" />
    <glyph glyph-name="uni03BC" unicode="&#x3bc;" horiz-adv-x="463" 
d="M341 0l-1 71q-18 -38 -45 -59t-69 -21q-40 0 -63.5 17t-33.5 39v-239h-57v696h57v-310q0 -32 4 -59.5t15 -48t30 -32.5t49 -12t51 12.5t33.5 34t18 50t5.5 60.5v305h57v-395v-17.5t0.5 -30l1 -33t1.5 -28.5h-54z" />
    <glyph glyph-name="pi" unicode="&#x3c0;" horiz-adv-x="556" 
d="M505 9q-12 -7 -27 -11t-30 -4q-38 0 -58 22.5t-20 70.5v372h-189v-459h-57v459h-72v45h452v-45h-77v-367q0 -51 38 -51q20 0 40 13v-45v0z" />
    <glyph glyph-name="Wgrave" unicode="&#x1e80;" horiz-adv-x="814" 
d="M621 0h-76l-138 659l-143 -659h-76l-166 723h64l141 -657l145 657h76l138 -657l147 657h59zM402 782l-131 139h74l105 -139h-48z" />
    <glyph glyph-name="wgrave" unicode="&#x1e81;" horiz-adv-x="658" 
d="M505 0h-72l-107 429l-100 -429h-72l-132 504h60l110 -448l102 448h70l109 -448l106 448h57zM341 594l-131 139h74l105 -139h-48z" />
    <glyph glyph-name="Wacute" unicode="&#x1e82;" horiz-adv-x="814" 
d="M621 0h-76l-138 659l-143 -659h-76l-166 723h64l141 -657l145 657h76l138 -657l147 657h59zM412 782h-48l106 139h73z" />
    <glyph glyph-name="wacute" unicode="&#x1e83;" horiz-adv-x="658" 
d="M505 0h-72l-107 429l-100 -429h-72l-132 504h60l110 -448l102 448h70l109 -448l106 448h57zM304 594h-48l106 139h73z" />
    <glyph glyph-name="Wdieresis" unicode="&#x1e84;" horiz-adv-x="814" 
d="M621 0h-76l-138 659l-143 -659h-76l-166 723h64l141 -657l145 657h76l138 -657l147 657h59zM451 806v90h62v-90h-62zM301 806v90h62v-90h-62z" />
    <glyph glyph-name="wdieresis" unicode="&#x1e85;" horiz-adv-x="658" 
d="M505 0h-72l-107 429l-100 -429h-72l-132 504h60l110 -448l102 448h70l109 -448l106 448h57zM370 628v90h62v-90h-62zM220 628v90h62v-90h-62z" />
    <glyph glyph-name="Ygrave" unicode="&#x1ef2;" horiz-adv-x="466" 
d="M262 291v-291h-60v291l-194 432h67l160 -370l159 370h64zM252 782l-131 139h74l105 -139h-48z" />
    <glyph glyph-name="ygrave" unicode="&#x1ef3;" horiz-adv-x="390" 
d="M171 -192h-56l56 190l-151 506h61l118 -428l115 428h56zM213 594l-131 139h74l105 -139h-48z" />
    <glyph glyph-name="fraction" unicode="&#x2044;" horiz-adv-x="158" 
d="M-102 -33h-53l415 777h53z" />
    <glyph glyph-name="zero.superior" unicode="&#x2070;" horiz-adv-x="278" 
d="M248 614q0 -71 -24 -111t-85 -40t-85 39.5t-24 111.5v128q0 71 24 111t85 40t85 -39.5t24 -111.5v-128zM201 729q0 69 -15 94t-47 25t-47 -25t-15 -94v-102q0 -69 15 -94t47 -25t47 25t15 94v102z" />
    <glyph glyph-name="four.superior" unicode="&#x2074;" horiz-adv-x="278" 
d="M212 570v-101h-46v101h-143v49l124 268h65v-272h47v-45h-47zM166 826l-95 -211h95v211z" />
    <glyph glyph-name="five.superior" unicode="&#x2075;" horiz-adv-x="278" 
d="M250 610q0 -70 -23.5 -108.5t-88.5 -38.5q-55 0 -78 31.5t-23 83.5h47q0 -70 55 -70q36 0 49 23t13 79q0 47 -15 69.5t-48 22.5q-26 0 -39.5 -12t-16.5 -29h-44l8 226h191v-45h-148l-6 -121q11 11 28 18.5t37 7.5q58 0 80 -37t22 -100z" />
    <glyph glyph-name="six.superior" unicode="&#x2076;" horiz-adv-x="278" 
d="M247 610q0 -31 -4 -57.5t-16 -46.5t-33 -31.5t-54 -11.5q-35 0 -56.5 13t-33 36.5t-15 55t-3.5 68.5v86q0 88 24.5 129.5t85.5 41.5q56 0 77.5 -28t22.5 -77h-47q-1 25 -11.5 42.5t-40.5 17.5q-38 0 -51.5 -31.5t-13.5 -101.5v-17q28 39 74 39q28 0 46 -10.5t29 -28
t15.5 -40.5t4.5 -48zM199 598q0 41 -11.5 67.5t-45.5 26.5q-36 0 -49.5 -26t-13.5 -68q0 -38 12.5 -64t50.5 -26q35 0 46 26t11 64z" />
    <glyph glyph-name="seven.superior" unicode="&#x2077;" horiz-adv-x="278" 
d="M124 469h-50l129 372h-166v46h213v-42z" />
    <glyph glyph-name="eight.superior" unicode="&#x2078;" horiz-adv-x="278" 
d="M248 587q0 -54 -24 -89t-86 -35q-31 0 -52 9t-33.5 25t-18 38.5t-5.5 49.5q0 35 12.5 61.5t40.5 40.5q-49 26 -49 88q0 52 24.5 85t81.5 33q55 0 80 -28t25 -80q0 -38 -11 -60t-37 -38q29 -14 40.5 -40t11.5 -60zM197 775q0 37 -12 55.5t-44 18.5q-61 0 -61 -72
q0 -30 15 -50.5t44 -20.5q33 0 45.5 20t12.5 49zM201 586q0 37 -13 57t-49 20t-49.5 -20t-13.5 -58q0 -35 14.5 -56t47.5 -21q36 0 49.5 21.5t13.5 56.5z" />
    <glyph glyph-name="nine.superior" unicode="&#x2079;" horiz-adv-x="278" 
d="M246 682q0 -57 -4 -98.5t-16 -68t-33.5 -39.5t-56.5 -13q-54 0 -77 25.5t-23 82.5h48q0 -31 11.5 -47t42.5 -16q35 0 48.5 32t13.5 106v17q-11 -16 -28 -25.5t-42 -9.5q-29 0 -48 10t-30 27.5t-15.5 41.5t-4.5 53q0 27 4.5 51.5t17 42.5t33.5 28.5t54 10.5t53.5 -11
t32 -31t15.5 -48.5t4 -62.5v-58zM199 760q0 39 -12 63.5t-47 24.5q-36 0 -48 -24.5t-12 -63.5q0 -41 12 -64t48 -23q35 0 47 23t12 64z" />
    <glyph glyph-name="zero.inferior" unicode="&#x2080;" horiz-adv-x="278" 
d="M248 -19q0 -71 -24 -111t-85 -40t-85 39.5t-24 111.5v128q0 71 24 111t85 40t85 -39.5t24 -111.5v-128zM201 96q0 69 -15 94t-47 25t-47 -25t-15 -94v-102q0 -69 15 -94t47 -25t47 25t15 94v102z" />
    <glyph glyph-name="one.inferior" unicode="&#x2081;" horiz-adv-x="278" 
d="M126 -164v349q-17 -15 -34 -27.5t-35 -24.5v55q20 12 40.5 30t34.5 36h42v-418h-48z" />
    <glyph glyph-name="two.inferior" unicode="&#x2082;" horiz-adv-x="278" 
d="M29 -164v41l137 212q26 41 26 76q0 26 -14.5 38.5t-39.5 12.5q-36 0 -48 -21.5t-12 -52.5h-49v8q0 53 28 81.5t82 28.5q48 0 75.5 -24.5t27.5 -71.5q0 -27 -11 -54t-28 -53l-116 -175h156v-46h-214z" />
    <glyph glyph-name="three.inferior" unicode="&#x2083;" horiz-adv-x="278" 
d="M246 -44q0 -62 -24 -94t-84 -32q-61 0 -84 31.5t-25 87.5h50q0 -34 11 -54t49 -20q34 0 46 20t12 58q0 44 -15.5 60t-52.5 16h-21v45h18q34 0 52 15t18 61q0 66 -56 66q-35 0 -45.5 -20t-10.5 -54h-48v16q0 48 25.5 75t76.5 27q55 0 80 -28t25 -80q0 -38 -9.5 -60
t-35.5 -39q29 -14 38.5 -37t9.5 -60z" />
    <glyph glyph-name="four.inferior" unicode="&#x2084;" horiz-adv-x="278" 
d="M212 -63v-101h-46v101h-143v49l124 268h65v-272h47v-45h-47zM166 193l-95 -211h95v211z" />
    <glyph glyph-name="five.inferior" unicode="&#x2085;" horiz-adv-x="278" 
d="M250 -23q0 -70 -23.5 -108.5t-88.5 -38.5q-55 0 -78 31.5t-23 83.5h47q0 -70 55 -70q36 0 49 23t13 79q0 47 -15 69.5t-48 22.5q-26 0 -39.5 -12t-16.5 -29h-44l8 226h191v-45h-148l-6 -121q11 11 28 18.5t37 7.5q58 0 80 -37t22 -100z" />
    <glyph glyph-name="six.inferior" unicode="&#x2086;" horiz-adv-x="278" 
d="M247 -23q0 -31 -4 -57.5t-16 -46.5t-33 -31.5t-54 -11.5q-35 0 -56.5 13t-33 36.5t-15 55t-3.5 68.5v86q0 88 24.5 129.5t85.5 41.5q56 0 77.5 -28t22.5 -77h-47q-1 25 -11.5 42.5t-40.5 17.5q-38 0 -51.5 -31.5t-13.5 -101.5v-17q28 39 74 39q28 0 46 -10.5t29 -28
t15.5 -40.5t4.5 -48zM199 -35q0 41 -11.5 67.5t-45.5 26.5q-36 0 -49.5 -26t-13.5 -68q0 -38 12.5 -64t50.5 -26q35 0 46 26t11 64z" />
    <glyph glyph-name="seven.inferior" unicode="&#x2087;" horiz-adv-x="278" 
d="M124 -164h-50l129 372h-166v46h213v-42z" />
    <glyph glyph-name="eight.inferior" unicode="&#x2088;" horiz-adv-x="278" 
d="M248 -46q0 -54 -24 -89t-86 -35q-31 0 -52 9t-33.5 25t-18 38.5t-5.5 49.5q0 35 12.5 61.5t40.5 40.5q-49 26 -49 88q0 52 24.5 85t81.5 33q55 0 80 -28t25 -80q0 -38 -11 -60t-37 -38q29 -14 40.5 -40t11.5 -60zM197 142q0 37 -12 55.5t-44 18.5q-61 0 -61 -72
q0 -30 15 -50.5t44 -20.5q33 0 45.5 20t12.5 49zM201 -47q0 37 -13 57t-49 20t-49.5 -20t-13.5 -58q0 -35 14.5 -56t47.5 -21q36 0 49.5 21.5t13.5 56.5z" />
    <glyph glyph-name="nine.inferior" unicode="&#x2089;" horiz-adv-x="278" 
d="M246 49q0 -57 -4 -98.5t-16 -68t-33.5 -39.5t-56.5 -13q-54 0 -77 25.5t-23 82.5h48q0 -31 11.5 -47t42.5 -16q35 0 48.5 32t13.5 106v17q-11 -16 -28 -25.5t-42 -9.5q-29 0 -48 10t-30 27.5t-15.5 41.5t-4.5 53q0 27 4.5 51.5t17 42.5t33.5 28.5t54 10.5t53.5 -11
t32 -31t15.5 -48.5t4 -62.5v-58zM199 127q0 39 -12 63.5t-47 24.5q-36 0 -48 -24.5t-12 -63.5q0 -41 12 -64t48 -23q35 0 47 23t12 64z" />
    <glyph glyph-name="afii61289" unicode="&#x2113;" horiz-adv-x="416" 
d="M359 603q0 -70 -43 -154.5t-134 -190.5v-127q0 -48 17.5 -69.5t47.5 -21.5q26 0 45.5 13t39.5 39l34 -30q-26 -35 -56 -53.5t-71 -18.5q-112 0 -112 144v61l-42 -48l-31 32l73 84v306q0 82 32.5 123.5t88.5 41.5q51 0 81 -34.5t30 -96.5zM182 328q65 81 95.5 151.5
t30.5 124.5q0 45 -16.5 65.5t-42.5 20.5q-29 0 -48 -25t-19 -83v-254z" />
    <glyph glyph-name="Omega" unicode="&#x2126;" horiz-adv-x="547" 
d="M323 0v52q26 24 44 59t29 77t16 89.5t5 97.5q0 28 -0.5 60.5t-3 64.5t-7.5 60t-13 48q-17 42 -45.5 59.5t-74.5 17.5q-48 0 -76 -22t-43 -57q-8 -20 -13 -47.5t-7.5 -59t-3 -64t-0.5 -60.5q0 -50 5 -97.5t16 -89.5t29 -77t44 -59v-52h-168v52h113q-26 25 -45.5 54
t-32 68.5t-19 92t-6.5 123.5q0 79 5 135t22 98q47 114 180 114q71 0 115 -26.5t67 -87.5q15 -41 20.5 -98.5t5.5 -134.5q0 -71 -6.5 -123.5t-19 -92t-32 -68.5t-45.5 -54h113v-52h-168z" />
    <glyph glyph-name="estimated" unicode="&#x212e;" horiz-adv-x="600" 
d="M157 259v-181q59 -59 145 -59q63 0 109 28.5t84 91.5l35 -21q-23 -36 -46.5 -61.5t-51 -42t-59.5 -24t-71 -7.5q-59 0 -106.5 21.5t-81.5 59t-52 87.5t-18 108t18 108.5t52 87.5t81.5 58.5t106.5 21.5q58 0 105.5 -20.5t81.5 -57t53 -87t19 -111.5h-404zM448 295v145
q-63 60 -147 60t-144 -60v-145h291z" />
    <glyph glyph-name="onethird" unicode="&#x2153;" horiz-adv-x="715" 
d="M148 -33h-53l415 777h53zM677 119q0 -56 -23.5 -91t-84.5 -35q-59 0 -83 31.5t-26 87.5h50q0 -34 11.5 -54t49.5 -20q18 0 29.5 6.5t17.5 17t8 24.5t2 29q0 51 -20 66t-69 11v45q21 0 37.5 2t28 10t17 23t5.5 41q0 28 -12.5 47.5t-43.5 19.5q-35 0 -45.5 -20t-10.5 -49
v-6h-48v16q0 48 26 75.5t74 27.5q107 0 107 -109q0 -32 -8.5 -56.5t-36.5 -42.5q31 -14 39.5 -39.5t8.5 -57.5zM126 299v349q-17 -15 -34 -28t-35 -25v56q20 12 40.5 30t34.5 36h42v-418h-48z" />
    <glyph glyph-name="twothirds" unicode="&#x2154;" horiz-adv-x="715" 
d="M198 -33h-53l415 777h53zM688 119q0 -56 -23.5 -91t-84.5 -35q-59 0 -83 31.5t-26 87.5h50q0 -34 11.5 -54t49.5 -20q18 0 29.5 6.5t17.5 17t8 24.5t2 29q0 51 -20 66t-69 11v45q21 0 37.5 2t28 10t17 23t5.5 41q0 28 -12.5 47.5t-43.5 19.5q-35 0 -45.5 -20t-10.5 -49
v-6h-48v16q0 48 26 75.5t74 27.5q107 0 107 -109q0 -32 -8.5 -56.5t-36.5 -42.5q31 -14 39.5 -39.5t8.5 -57.5zM30 299v41l140 219q11 17 17 34.5t6 37.5q0 26 -16 37t-39 11q-36 0 -47.5 -21.5t-11.5 -52.5h-49q0 57 26.5 87.5t83.5 30.5q45 0 74 -23t29 -70q0 -29 -11 -55
t-27 -50l-117 -180h156v-46h-214z" />
    <glyph glyph-name="oneeighth" unicode="&#x215b;" horiz-adv-x="715" 
d="M148 -33h-53l415 777h53zM126 299v349q-17 -15 -34 -28t-35 -25v56q20 12 40.5 30t34.5 36h42v-418h-48zM678 118q0 -54 -24 -89t-86 -35q-31 0 -52 9t-33.5 25t-18 38.5t-5.5 49.5q0 35 12.5 61.5t40.5 40.5q-49 26 -49 88q0 52 24.5 85t81.5 33q55 0 80 -28t25 -80
q0 -38 -11 -60t-37 -38q29 -14 40.5 -40t11.5 -60zM627 306q0 37 -12 55.5t-44 18.5q-61 0 -61 -72q0 -30 15 -50.5t44 -20.5q33 0 45.5 20t12.5 49zM631 117q0 37 -13 57t-49 20t-49.5 -20t-13.5 -58q0 -35 14.5 -56t47.5 -21q36 0 49.5 21.5t13.5 56.5z" />
    </font>
</defs>
</svg>
