<?xml version="1.0" standalone="no"?>
<!DOCTYPE svg PUBLIC "-//W3C//DTD SVG 1.1//EN" "http://www.w3.org/Graphics/SVG/1.1/DTD/svg11.dtd" >
<svg xmlns="http://www.w3.org/2000/svg" xmlns:xlink="http://www.w3.org/1999/xlink" version="1.1">
<metadata>
Created by FontForge 20201107 at Tue Feb  9 14:02:11 2010
 By Jimmy Wärting
Copyright (c) 2010 Linotype GmbH, www.linotype.com. All rights reserved. This font software may not be reproduced, modified, disclosed or transferred without the express written approval of Linotype GmbH. Univers is a trademark of Linotype Corp. registered in the U.S. Patent and Trademark Office and may be registered in certain other jurisdictions in the name of Linotype Corp. or its licensee Linotype GmbH. This typeface is original artwork of Adrian Frutiger and Linotype Design Studio. The design may be protected in certain jurisdictions.
</metadata>
<defs>
<font id="UniversNextPro-XBlackCondIt" horiz-adv-x="360" >
  <font-face 
    font-family="Univers Next Pro XBlack Cond"
    font-weight="900"
    font-style="italic"
    font-stretch="condensed"
    units-per-em="1000"
    panose-1="2 11 11 6 3 2 2 9 2 3"
    ascent="750"
    descent="-250"
    x-height="504"
    cap-height="723"
    bbox="-212 -247 1038 978"
    underline-thickness="50"
    underline-position="-100"
    slope="-16"
    unicode-range="U+000D-FB04"
  />
<missing-glyph horiz-adv-x="512" 
d="M222 117v67h56v-67h-56zM223 234v17q0 27 3 46.5t10 35t18 29t28 29.5q16 16 26 28t15 22t7 19t2 20q0 36 -22.5 57.5t-53.5 21.5t-53.5 -22t-28.5 -73l-50 8q7 72 44 104.5t91 32.5q27 0 49.5 -9t39 -25t26 -39.5t9.5 -51.5q0 -17 -2.5 -32.5t-9.5 -30.5t-19.5 -30
t-31.5 -33q-16 -14 -25.5 -25t-15 -22t-7 -23.5t-1.5 -29.5v-24h-48zM462 50v617h-412v-617h412zM512 718v-718h-512v718h512z" />
    <glyph glyph-name="IJ" unicode="IJ" horiz-adv-x="916" 
d="M165 0h-206l207 723h206zM821 236q-20 -70 -43.5 -118.5t-58.5 -78.5t-85 -43.5t-123 -13.5q-41 0 -79 6.5t-68 23t-48 43.5t-18 69q0 31 8 69t22 81h201q-11 -32 -19 -67.5t-8 -55.5q0 -17 6.5 -27t24.5 -10q28 0 45.5 26.5t33.5 83.5l142 499h206z" />
    <glyph glyph-name="ij" unicode="ij" horiz-adv-x="592" 
d="M311 592h-192l37 131h192zM141 0h-192l145 504h192zM607 592h-192l37 131h192zM426 -36q-15 -53 -32 -84.5t-41 -48.5t-57.5 -22t-81.5 -5q-18 0 -37 1t-37 4l27 92q26 -1 40 7t22 37l161 559h191z" />
    <glyph glyph-name="napostrophe" unicode="&#x22;n" horiz-adv-x="670" 
d="M632 428q0 -17 -2 -31t-7 -30l-105 -367h-192l95 330q5 18 8 31t3 24q0 18 -9.5 26.5t-26.5 8.5q-20 0 -33.5 -9t-22.5 -23t-15.5 -30.5t-10.5 -32.5l-93 -325h-192l145 504h189l-15 -53q37 32 75 48.5t87 16.5q22 0 44 -4t39 -13.5t28 -26.5t11 -44zM108 447h-122
l96 276h161z" />
    <glyph glyph-name="f_f" unicode="ff" horiz-adv-x="672" 
d="M404 634q-5 1 -7.5 1h-6.5q-20 0 -32.5 -4.5t-20.5 -14.5t-13.5 -26t-11.5 -39l-12 -47h68l-29 -100h-68l-116 -404h-192l116 404h-64l29 100h64l15 53q11 39 23.5 71t34 55.5t54.5 36t85 12.5q53 0 109 -9zM740 634q-5 1 -7.5 1h-6.5q-20 0 -32.5 -4.5t-20.5 -14.5
t-13.5 -26t-11.5 -39l-12 -47h68l-29 -100h-68l-116 -404h-192l116 404h-64l29 100h64l15 53q11 39 23.5 71t34 55.5t54.5 36t85 12.5q53 0 109 -9z" />
    <glyph glyph-name="fi" unicode="fi" horiz-adv-x="621" 
d="M404 634q-5 1 -7.5 1h-6.5q-20 0 -32.5 -4.5t-20.5 -14.5t-13.5 -26t-11.5 -39l-12 -47h68l-29 -100h-68l-116 -404h-192l116 404h-64l29 100h64l15 53q11 39 23.5 71t34 55.5t54.5 36t85 12.5q53 0 109 -9zM636 592h-192l37 131h192zM466 0h-192l145 504h192z" />
    <glyph glyph-name="fl" unicode="fl" horiz-adv-x="621" 
d="M404 634q-5 1 -7.5 1h-6.5q-20 0 -32.5 -4.5t-20.5 -14.5t-13.5 -26t-11.5 -39l-12 -47h68l-29 -100h-68l-116 -404h-192l116 404h-64l29 100h64l15 53q11 39 23.5 71t34 55.5t54.5 36t85 12.5q53 0 109 -9zM466 0h-192l207 723h192z" />
    <glyph glyph-name="f_f_i" unicode="ffi" horiz-adv-x="958" 
d="M404 634q-5 1 -7.5 1h-6.5q-20 0 -32.5 -4.5t-20.5 -14.5t-13.5 -26t-11.5 -39l-12 -47h68l-29 -100h-68l-116 -404h-192l116 404h-64l29 100h64l15 53q11 39 23.5 71t34 55.5t54.5 36t85 12.5q53 0 109 -9zM740 634q-5 1 -7.5 1h-6.5q-20 0 -32.5 -4.5t-20.5 -14.5
t-13.5 -26t-11.5 -39l-12 -47h68l-29 -100h-68l-116 -404h-192l116 404h-64l29 100h64l15 53q11 39 23.5 71t34 55.5t54.5 36t85 12.5q53 0 109 -9zM973 592h-192l37 131h192zM803 0h-192l145 504h192z" />
    <glyph glyph-name="f_f_l" unicode="ffl" horiz-adv-x="957" 
d="M404 634q-5 1 -7.5 1h-6.5q-20 0 -32.5 -4.5t-20.5 -14.5t-13.5 -26t-11.5 -39l-12 -47h68l-29 -100h-68l-116 -404h-192l116 404h-64l29 100h64l15 53q11 39 23.5 71t34 55.5t54.5 36t85 12.5q53 0 109 -9zM740 634q-5 1 -7.5 1h-6.5q-20 0 -32.5 -4.5t-20.5 -14.5
t-13.5 -26t-11.5 -39l-12 -47h68l-29 -100h-68l-116 -404h-192l116 404h-64l29 100h64l15 53q11 39 23.5 71t34 55.5t54.5 36t85 12.5q53 0 109 -9zM802 0h-192l207 723h192z" />
    <glyph glyph-name=".notdef" horiz-adv-x="512" 
d="M222 117v67h56v-67h-56zM223 234v17q0 27 3 46.5t10 35t18 29t28 29.5q16 16 26 28t15 22t7 19t2 20q0 36 -22.5 57.5t-53.5 21.5t-53.5 -22t-28.5 -73l-50 8q7 72 44 104.5t91 32.5q27 0 49.5 -9t39 -25t26 -39.5t9.5 -51.5q0 -17 -2.5 -32.5t-9.5 -30.5t-19.5 -30
t-31.5 -33q-16 -14 -25.5 -25t-15 -22t-7 -23.5t-1.5 -29.5v-24h-48zM462 50v617h-412v-617h412zM512 718v-718h-512v718h512z" />
    <glyph glyph-name="nonmarkingreturn" unicode="&#xd;" horiz-adv-x="0" 
 />
    <glyph glyph-name="space" unicode=" " horiz-adv-x="288" 
 />
    <glyph glyph-name="exclam" unicode="!" horiz-adv-x="312" 
d="M174 208h-122l115 515h186zM125 0h-145l40 141h145z" />
    <glyph glyph-name="quotedbl" unicode="&#x22;" horiz-adv-x="455" 
d="M441 416h-102l-32 307h166zM231 416h-102l-31 307h165z" />
    <glyph glyph-name="numbersign" unicode="#" horiz-adv-x="576" 
d="M499 551h46l-18 -134h-66l-29 -110h46l-19 -133h-67l-48 -174h-132l48 174h-54l-48 -174h-132l50 174h-47l19 133h67l29 110h-46l19 134h66l49 172h132l-49 -172h54l49 172h132zM276 417l-30 -110h54l30 110h-54z" />
    <glyph glyph-name="dollar" unicode="$" horiz-adv-x="580" 
d="M585 576q0 -22 -4.5 -41t-10.5 -39h-177q5 14 8.5 29.5t3.5 30.5q0 43 -42 43q-34 0 -58.5 -23t-24.5 -58q0 -25 21 -43.5t53 -36.5l18 -10q27 -15 52 -31t44 -35.5t30.5 -44t11.5 -56.5q0 -16 -2.5 -31t-7.5 -30q-14 -47 -39.5 -78.5t-59 -51t-73 -29.5t-81.5 -13
l-28 -98h-87l28 97q-31 1 -62 6.5t-55.5 19t-39.5 37.5t-15 62q0 22 4 40.5t10 38.5h179q-4 -13 -6.5 -26t-2.5 -27q0 -50 53 -50q18 0 34 7.5t28.5 20.5t19.5 29t7 34q0 30 -21.5 49.5t-71.5 46.5l-32 17q-48 26 -77 57.5t-29 79.5q0 24 8 51q13 47 38 79t58 52.5
t73.5 30.5t84.5 13l29 99h87l-28 -98q28 -2 55.5 -8t49 -19.5t34.5 -36t13 -56.5z" />
    <glyph glyph-name="percent" unicode="%" horiz-adv-x="796" 
d="M412 643q0 -26 -5 -52.5t-13 -52.5q-12 -42 -28 -74t-39 -53.5t-55.5 -33t-78.5 -11.5q-26 0 -49.5 5t-41.5 16.5t-28.5 31t-10.5 48.5q0 20 4 39.5t9 38.5q12 42 27 76.5t38 59t56 38t81 13.5q24 0 48 -3.5t43 -13t31 -27t12 -45.5zM189 -30h-87l510 778h86zM733 266
q0 -26 -5.5 -53t-13.5 -52q-12 -42 -27.5 -73.5t-38.5 -53.5t-55 -33t-78 -11q-26 0 -50 5t-42 17t-28.5 31.5t-10.5 48.5q0 20 3.5 39t8.5 38q12 42 27.5 76.5t39 59t57 37.5t81.5 13q24 0 47.5 -3.5t42.5 -13t30.5 -27t11.5 -45.5zM292 626q0 12 -4.5 23.5t-19.5 11.5
q-20 0 -36 -23t-27 -53.5t-17 -61t-6 -46.5q0 -12 4.5 -25.5t19.5 -13.5q19 0 35 23.5t27 55t17.5 63t6.5 46.5zM613 248q0 12 -5 24t-20 12q-20 0 -35.5 -22.5t-26.5 -53t-16.5 -61t-5.5 -46.5q0 -12 3.5 -26t19.5 -14q19 0 35 23.5t27.5 54.5t17.5 62.5t6 46.5z" />
    <glyph glyph-name="ampersand" unicode="&#x26;" horiz-adv-x="673" 
d="M653 325h-104l-92 -325h-285q-40 0 -76.5 7t-64.5 23.5t-44.5 44.5t-16.5 70q0 54 17.5 93t48.5 66t73.5 44t91.5 27q-24 3 -46.5 11.5t-39 24t-26.5 38t-10 54.5q0 28 7.5 52.5t18.5 44.5q19 35 49 60t67.5 40.5t80 23t87.5 7.5q20 0 42.5 -2.5t33.5 -5.5l-33 -108h-40
q-24 0 -48 -6.5t-43 -20t-31 -35t-12 -51.5q0 -18 8.5 -30t23.5 -19t35 -10t42 -3h53l35 124h164l-35 -124h104zM324 325q-30 0 -56.5 -9t-47 -26.5t-32.5 -44t-12 -62.5q0 -17 7 -29t18 -19.5t25 -10.5t29 -3h74l56 204h-61z" />
    <glyph glyph-name="quotesingle" unicode="'" horiz-adv-x="245" 
d="M229 416h-95l-35 307h165z" />
    <glyph glyph-name="parenleft" unicode="(" horiz-adv-x="322" 
d="M15 -157q-6 45 -9.5 99.5t-3.5 113.5q0 66 6 130t21 118q14 49 40 104t58 110t68 107.5t71 97.5h102q-30 -47 -58.5 -102t-53.5 -113t-45.5 -114.5t-34.5 -105.5q-12 -41 -22 -97t-17.5 -117t-12.5 -121t-8 -110h-101z" />
    <glyph glyph-name="parenright" unicode=")" horiz-adv-x="322" 
d="M-90 -157q25 50 54.5 110t56.5 121t49.5 117t34.5 97q12 44 23 94t19 102t12.5 103t4.5 96v20.5t-1 19.5h102q9 -48 15 -104.5t6 -116.5q0 -51 -5.5 -101.5t-18.5 -96.5q-15 -50 -43.5 -111t-64 -123t-73.5 -121t-71 -106h-100z" />
    <glyph glyph-name="asterisk" unicode="*" horiz-adv-x="459" 
d="M336 494l94 -117l-113 -61l-46 140l-58 -140l-109 66l95 119l-140 -27v123l144 -20l-86 106l107 58l48 -122l44 122l111 -62l-88 -102l145 22v-127z" />
    <glyph glyph-name="plus" unicode="+" horiz-adv-x="585" 
d="M346 206v-196h-154v196h-186v146h186v196h154v-196h185v-146h-185z" />
    <glyph glyph-name="comma" unicode="," horiz-adv-x="288" 
d="M30 -96h-126l120 261h169z" />
    <glyph glyph-name="hyphen" unicode="-" horiz-adv-x="369" 
d="M286 206h-279l38 131h279z" />
    <glyph glyph-name="period" unicode="." horiz-adv-x="288" 
d="M115 0h-146l47 165h146z" />
    <glyph glyph-name="slash" unicode="/" horiz-adv-x="254" 
d="M-13 -18h-134l412 759h137z" />
    <glyph glyph-name="zero" unicode="0" horiz-adv-x="576" 
d="M593 600q0 -21 -4.5 -48.5t-11.5 -59.5t-16.5 -67t-19.5 -71q-28 -98 -52.5 -168t-60 -114.5t-90 -65.5t-141.5 -21q-38 0 -75.5 5.5t-67.5 21t-49 43.5t-19 73q0 41 13 100.5t32 125.5q29 102 54.5 174.5t62 119t92 68.5t144.5 22q36 0 73 -5t67.5 -19.5t49.5 -41.5
t19 -72zM405 588q0 19 -9 31.5t-30 12.5q-22 0 -37.5 -10.5t-28 -33t-24 -56.5t-24.5 -81l-55 -191q-14 -47 -20 -78t-6 -51q0 -22 10.5 -31t29.5 -9q20 0 34.5 8.5t26.5 27.5t23 49t23 72l57 197q16 56 23 87.5t7 55.5z" />
    <glyph glyph-name="one" unicode="1" horiz-adv-x="471" 
d="M263 0h-198l153 520q-33 -22 -69 -38t-71 -33l43 161q46 26 87.5 53.5t83.5 59.5h178z" />
    <glyph glyph-name="two" unicode="2" horiz-adv-x="576" 
d="M605 599q0 -17 -2 -34t-5 -28q-12 -45 -33.5 -83.5t-53 -75t-73 -72t-91.5 -72.5l-165 -123h293l-32 -111h-525l39 136l133 98q84 62 145 109t100 87.5t57.5 78t18.5 81.5q0 21 -11.5 31.5t-31.5 10.5t-35 -8.5t-26 -22.5t-17.5 -32.5t-10.5 -37.5h-192q12 61 41 101.5
t69.5 63.5t90 32.5t102.5 9.5q45 0 84.5 -8t68.5 -24.5t45.5 -43t16.5 -63.5z" />
    <glyph glyph-name="three" unicode="3" horiz-adv-x="576" 
d="M586 612q0 -20 -2 -36t-6 -30q-11 -39 -24 -67t-31 -48t-42.5 -34t-59.5 -24q43 -13 63.5 -33.5t20.5 -58.5q0 -26 -7 -55t-15 -53q-20 -57 -49 -93.5t-67 -57.5t-85 -29t-104 -8q-40 0 -79.5 5t-70.5 18.5t-50 37t-19 60.5q0 21 2.5 41.5t8.5 41.5h192q-4 -14 -7.5 -29
t-3.5 -29q0 -40 42 -40q23 0 40 8t29 21.5t19.5 32t13.5 38.5t10.5 40t4.5 37q0 16 -7.5 26.5t-19 16t-26 7.5t-28.5 2h-16t-15 -1l31 106q5 -2 12 -2.5t12 -0.5q33 0 54 7t35 21.5t23.5 37.5t18.5 55q4 13 6.5 27.5t2.5 24.5q0 38 -39 38q-38 0 -53 -24t-24 -59h-192
q18 58 47 95t67 57.5t85.5 28t102.5 7.5q32 0 67 -5t64.5 -19t48.5 -38.5t19 -63.5z" />
    <glyph glyph-name="four" unicode="4" horiz-adv-x="576" 
d="M461 264h77l-32 -110h-77l-44 -154h-198l44 154h-259l40 140l302 429h278zM143 260h126l109 358z" />
    <glyph glyph-name="five" unicode="5" horiz-adv-x="576" 
d="M585 613h-279l-52 -182q28 27 63 38.5t73 11.5q29 0 54.5 -6.5t45 -20.5t30.5 -37.5t11 -56.5q0 -30 -7.5 -64.5t-15.5 -63.5q-21 -74 -48 -121.5t-65 -75.5t-90 -39t-125 -11q-44 0 -81.5 7t-65 21.5t-43 37.5t-15.5 56t6 57h192q-2 -8 -3 -17.5t-1 -17.5q0 -38 41 -38
q22 0 37.5 10t26.5 28.5t20 45t18 58.5q7 23 15.5 54.5t8.5 55.5t-8.5 35.5t-30.5 11.5q-15 0 -27.5 -7t-22 -18.5t-16.5 -25.5t-11 -27h-189l118 411h468z" />
    <glyph glyph-name="six" unicode="6" horiz-adv-x="576" 
d="M609 620q0 -11 -1 -23.5t-3 -23.5h-190q2 7 4 15.5t2 16.5q0 20 -11.5 28.5t-30.5 8.5q-29 0 -47 -16.5t-32 -47.5q-12 -26 -28.5 -71.5t-30.5 -92.5q31 26 62 37.5t78 11.5q31 0 58 -6.5t47 -20.5t31 -37.5t11 -56.5q0 -34 -9 -72t-19 -67q-20 -60 -45.5 -101.5
t-61.5 -67.5t-83.5 -37.5t-109.5 -11.5q-38 0 -75.5 6t-67.5 21.5t-48.5 43.5t-18.5 73q0 47 11.5 98.5t24.5 96.5q32 111 62.5 189.5t71 128.5t98 73t143.5 23q37 0 74 -5t67 -18t48.5 -36t18.5 -59zM336 325q0 41 -43 41q-22 0 -38 -11.5t-27.5 -30t-19.5 -41.5t-14 -45
q-7 -23 -14.5 -53t-7.5 -53t10.5 -32t32.5 -9q21 0 36.5 10.5t27 29t20.5 45t19 59.5q7 23 12.5 46.5t5.5 43.5z" />
    <glyph glyph-name="seven" unicode="7" horiz-adv-x="488" 
d="M511 588l-325 -588h-203l357 609h-259l32 114h438z" />
    <glyph glyph-name="eight" unicode="8" horiz-adv-x="576" 
d="M602 609q0 -17 -1.5 -32.5t-6.5 -32.5q-10 -36 -23 -62.5t-31 -45.5t-41 -32t-54 -23q40 -17 55.5 -41t15.5 -61q0 -13 -3 -31t-8 -38q-15 -63 -39.5 -106t-61.5 -69.5t-88 -38t-119 -11.5q-40 0 -79.5 5.5t-70.5 20.5t-50.5 40.5t-19.5 65.5q0 44 12 85q23 82 61.5 123
t100.5 57q-32 11 -52 35.5t-20 60.5q0 18 4 37t9 36q15 53 42.5 89t64 57.5t81.5 31t96 9.5q36 0 76 -4.5t73.5 -18.5t55 -39.5t21.5 -66.5zM410 597q0 18 -11.5 27.5t-31.5 9.5q-35 0 -52.5 -26.5t-31.5 -73.5q-5 -15 -9 -32t-4 -32q0 -38 41 -38q19 0 33 8t23.5 21.5
t17 32t13.5 40.5q12 40 12 63zM323 280q0 46 -43 46q-35 0 -55.5 -26.5t-38.5 -81.5q-8 -22 -12.5 -45t-4.5 -38q0 -21 10.5 -33.5t33.5 -12.5q22 0 37 8.5t25.5 23t17.5 34.5t14 44q8 26 12 46.5t4 34.5z" />
    <glyph glyph-name="nine" unicode="9" horiz-adv-x="580" 
d="M593 594q0 -22 -3 -44.5t-9 -50.5t-16 -64t-24 -85q-30 -103 -58 -173t-66 -112.5t-93 -61t-140 -18.5q-44 0 -82.5 6.5t-67.5 21t-45.5 39t-16.5 60.5q0 14 2 25.5t6 24.5h192q-2 -8 -4 -16.5t-2 -16.5q0 -22 9.5 -33.5t33.5 -11.5q23 0 39 11.5t27.5 29.5t19 38.5
t12.5 38.5l36 120q-22 -17 -52 -31t-78 -14q-35 0 -63.5 7t-49 23t-32 42t-11.5 63q0 21 3.5 40.5t9.5 40.5q19 65 45.5 111.5t64 76t87 43.5t114.5 14q37 0 75 -5.5t68.5 -21t49.5 -44t19 -73.5zM410 587q0 21 -10.5 33t-33.5 12q-19 0 -34 -11t-26.5 -28.5t-20.5 -40
t-16 -46.5q-6 -20 -12 -44t-6 -45t9.5 -32.5t32.5 -11.5q22 0 36.5 8.5t25.5 25t19.5 41t17.5 55.5q9 30 13.5 49t4.5 35z" />
    <glyph glyph-name="colon" unicode=":" horiz-adv-x="288" 
d="M212 340h-146l48 166h146zM115 0h-146l47 165h146z" />
    <glyph glyph-name="semicolon" unicode=";" horiz-adv-x="288" 
d="M224 340h-146l48 166h146zM30 -96h-126l120 261h169z" />
    <glyph glyph-name="less" unicode="&#x3c;" horiz-adv-x="585" 
d="M6 206v146l525 199v-167l-315 -104l315 -104v-170z" />
    <glyph glyph-name="equal" unicode="=" horiz-adv-x="585" 
d="M6 327v146h525v-146h-525zM6 85v146h525v-146h-525z" />
    <glyph glyph-name="greater" unicode="&#x3e;" horiz-adv-x="585" 
d="M6 6v170l315 104l-315 104v167l525 -199v-146z" />
    <glyph glyph-name="question" unicode="?" horiz-adv-x="504" 
d="M550 615q0 -42 -15 -76t-39 -61.5t-54.5 -51.5t-61.5 -47q-35 -26 -52 -45t-26 -50l-21 -76h-136l25 90q11 42 42.5 81t78.5 87q38 40 55 65t17 45t-14.5 30.5t-32.5 10.5q-24 0 -40 -9.5t-26.5 -25t-17.5 -35t-12 -38.5h-157q16 62 39 106t57 72t80.5 41t111.5 13
q30 0 65 -4.5t64.5 -18t49.5 -38t20 -65.5zM226 0h-145l40 141h145z" />
    <glyph glyph-name="at" unicode="@" horiz-adv-x="946" 
d="M898 402q0 -57 -16 -114t-49.5 -102.5t-84 -74t-119.5 -28.5q-52 0 -89 19.5t-44 56.5q-26 -35 -56.5 -53.5t-76.5 -18.5q-69 0 -102 36.5t-33 99.5q0 21 5 46.5t13 50.5q32 94 81.5 141.5t125.5 47.5q36 0 64.5 -16t38.5 -37l16 44h158l-81 -234q-5 -14 -8.5 -27.5
t-3.5 -22.5q0 -12 7.5 -19.5t18.5 -7.5q24 0 45 19t37 49t25.5 67t9.5 74q0 52 -16 96.5t-48 77t-80 50.5t-111 18q-80 0 -150 -36t-122.5 -95t-82.5 -134.5t-30 -154.5q0 -115 62.5 -180.5t193.5 -65.5q64 0 121.5 15t114.5 45l41 -89q-63 -35 -136 -55t-154 -20
q-86 0 -154 24.5t-115 69.5t-72 108t-25 140q0 101 38.5 196t107.5 168.5t164 117.5t208 44q88 0 155.5 -26t113.5 -71.5t70 -107t24 -131.5zM502 303q11 32 18 54.5t7 35.5q0 15 -7 24t-23 9q-14 0 -25.5 -6.5t-22 -20.5t-21 -37t-22.5 -57q-4 -10 -8.5 -22.5t-8.5 -25
t-7 -24t-3 -19.5q0 -14 9.5 -22t21.5 -8q25 0 46 25t46 94z" />
    <glyph glyph-name="A" unicode="A" horiz-adv-x="673" 
d="M571 0h-211l9 142h-180l-73 -142h-215l391 723h290zM242 270h138l15 313z" />
    <glyph glyph-name="B" unicode="B" horiz-adv-x="641" 
d="M654 596q0 -100 -49 -152.5t-140 -63.5q48 -7 76.5 -33.5t28.5 -79.5q0 -27 -7 -56.5t-19 -58.5t-28.5 -54t-35.5 -43q-21 -19 -43.5 -30t-49.5 -16.5t-61 -7t-77 -1.5h-290l207 723h309q34 0 66 -6t57 -20.5t40.5 -39t15.5 -61.5zM453 549q0 17 -8 26.5t-20 14.5
t-26.5 6.5t-27.5 1.5h-45l-48 -169h45q30 0 53.5 7t40.5 24q15 15 25.5 41t10.5 48zM369 262q0 17 -7.5 26.5t-19.5 14t-26 5.5t-27 1h-45l-53 -182h45q31 0 52 5t36 19q9 8 17 22t14 29.5t10 31.5t4 28z" />
    <glyph glyph-name="C" unicode="C" horiz-adv-x="625" 
d="M654 593q0 -27 -6 -56t-16 -58h-203q8 23 13 45t5 39q0 26 -15 36t-39 10q-27 0 -46 -13t-35 -41.5t-31 -73t-33 -107.5q-6 -21 -14 -47.5t-15.5 -55t-12.5 -55.5t-5 -48q0 -27 12 -40.5t40 -13.5q30 0 49 13t32 34.5t21 49t16 55.5h206q-22 -78 -47 -132t-63 -87.5
t-95 -49t-142 -15.5q-43 0 -85 6t-75.5 23.5t-54 49.5t-20.5 84q0 23 2.5 43.5t7 43.5t12 50l17.5 63q26 92 50.5 165.5t63.5 124.5t101 78.5t164 27.5q41 0 84 -4.5t78 -20t57 -45t22 -78.5z" />
    <glyph glyph-name="D" unicode="D" horiz-adv-x="667" 
d="M668 557q0 -34 -7 -77.5t-18.5 -90t-27.5 -93.5t-34.5 -88.5t-37.5 -75t-38 -53.5q-22 -23 -49 -38t-62.5 -24t-80 -13t-101.5 -4h-253l207 723h253q40 0 83.5 -4t80.5 -20.5t61 -49.5t24 -92zM455 523q0 40 -20 53.5t-57 13.5h-46l-131 -458h45q29 0 52 7t40 25
q13 13 26.5 39.5t26.5 59.5t24.5 70.5t20.5 73t14 66t5 50.5z" />
    <glyph glyph-name="E" unicode="E" horiz-adv-x="537" 
d="M579 593h-244l-47 -165h212l-36 -123h-212l-50 -175h244l-37 -130h-450l207 723h450z" />
    <glyph glyph-name="F" unicode="F" horiz-adv-x="518" 
d="M564 593h-229l-47 -165h222l-36 -123h-222l-87 -305h-206l207 723h435z" />
    <glyph glyph-name="G" unicode="G" horiz-adv-x="640" 
d="M653 593q0 -27 -5.5 -52t-13.5 -54h-203q6 21 10.5 40.5t4.5 36.5q0 25 -12.5 35t-36.5 10q-26 0 -45.5 -12t-33.5 -31.5t-24 -45t-18 -52.5l-32 -107q-12 -41 -20 -70t-13 -50t-7 -36t-2 -28q0 -31 15.5 -48.5t43.5 -17.5q42 0 81 13l38 133h-52l36 128h244l-101 -357
q-59 -22 -129 -34t-133 -12q-43 0 -87.5 4.5t-80.5 21t-59 48t-23 85.5q0 30 7 73.5t18.5 93.5t28 102t35.5 99t40 85t43 59q22 22 47 38.5t56 27.5t70 16.5t90 5.5q42 0 82 -6t71.5 -22t50.5 -45t19 -75z" />
    <glyph glyph-name="H" unicode="H" horiz-adv-x="670" 
d="M504 0h-206l90 314h-133l-90 -314h-206l207 723h206l-79 -277h133l79 277h206z" />
    <glyph glyph-name="I" unicode="I" horiz-adv-x="331" 
d="M165 0h-206l207 723h206z" />
    <glyph glyph-name="J" unicode="J" horiz-adv-x="585" 
d="M490 236q-20 -70 -43.5 -118.5t-58.5 -78.5t-85 -43.5t-123 -13.5q-41 0 -79 6.5t-68 23t-48 43.5t-18 69q0 31 8 69t22 81h201q-11 -32 -19 -67.5t-8 -55.5q0 -17 6.5 -27t24.5 -10q28 0 45.5 26.5t33.5 83.5l142 499h206z" />
    <glyph glyph-name="K" unicode="K" horiz-adv-x="647" 
d="M473 379l68 -379h-211l-50 397l224 326h236zM165 0h-206l207 723h206z" />
    <glyph glyph-name="L" unicode="L" horiz-adv-x="503" 
d="M387 0h-428l207 723h206l-169 -590h222z" />
    <glyph glyph-name="M" unicode="M" horiz-adv-x="927" 
d="M761 0h-185l173 596l-282 -596h-228l62 596l-171 -596h-171l207 723h310l-82 -589l252 589h322z" />
    <glyph glyph-name="N" unicode="N" horiz-adv-x="704" 
d="M538 0h-289l42 588l-169 -588h-163l207 723h289l-41 -589l168 589h163z" />
    <glyph glyph-name="O" unicode="O" horiz-adv-x="656" 
d="M661 569q0 -26 -6.5 -64.5t-17.5 -82.5t-25 -90.5t-28.5 -87.5t-28.5 -74t-24 -51q-20 -34 -46.5 -59.5t-62 -43t-82 -26t-107.5 -8.5q-44 0 -86.5 6t-76 23.5t-54.5 50t-21 85.5q0 24 6 58.5t15 74t21 81t23.5 78.5t22.5 67.5t19 47.5q21 46 47.5 81.5t63.5 58.5
t87.5 35t120.5 12q45 0 88 -7t77 -26.5t54.5 -53t20.5 -85.5zM457 554q0 55 -58 55q-31 0 -51.5 -13t-34.5 -33.5t-23 -46t-16 -50.5l-34 -113q-15 -51 -28 -100t-13 -84q0 -55 58 -55q26 0 45.5 10t33.5 28t24 41.5t18 50.5l33 110q18 60 32 112t14 88z" />
    <glyph glyph-name="P" unicode="P" horiz-adv-x="642" 
d="M669 569q0 -33 -7 -68t-19.5 -67t-30.5 -60t-39 -49q-40 -38 -98.5 -48.5t-131.5 -10.5h-102l-76 -266h-206l207 723h298q39 0 75.5 -6.5t65.5 -23.5t46.5 -47t17.5 -77zM461 537q0 31 -17.5 43t-46.5 12h-68l-56 -196h68q23 0 42 6t34 21q21 21 32.5 53t11.5 61z" />
    <glyph glyph-name="Q" unicode="Q" horiz-adv-x="663" 
d="M661 571q0 -20 -4 -47.5t-11 -59t-16.5 -66.5t-19.5 -69q-9 -30 -22.5 -62.5t-28.5 -62t-30.5 -53t-30.5 -35.5q26 5 54 9t54 6l-38 -131h-125q-32 0 -59 -2t-51.5 -4l-49 -4t-50.5 -2q-44 0 -86.5 6t-76 23.5t-54.5 50t-21 85.5q0 24 6 58t15 73t21 79.5t23.5 77
t22.5 66.5t19 47q21 46 47.5 81.5t63.5 58.5t87.5 35t120.5 12q44 0 87 -7.5t77 -26.5t55 -52t21 -84zM457 554q0 55 -58 55q-31 0 -51.5 -13t-34.5 -33.5t-23 -46t-16 -50.5l-34 -113q-19 -63 -30 -105.5t-11 -72.5q0 -55 60 -55q25 0 44 9.5t33 26t24 39.5t18 50l33 109
q18 60 32 112t14 88z" />
    <glyph glyph-name="R" unicode="R" horiz-adv-x="670" 
d="M675 582q0 -51 -17.5 -97.5t-55.5 -82.5q-12 -11 -23 -19t-24.5 -14t-31.5 -11.5t-43 -11.5q45 -8 70 -29.5t25 -65.5q0 -24 -6.5 -53t-14.5 -61.5t-15.5 -67t-9.5 -69.5h-215q4 28 12 58.5t16.5 60.5t15 59t6.5 54q0 18 -6.5 28t-17 15t-25 6t-30.5 1h-39l-81 -282h-206
l207 723h304q33 0 69 -4.5t66 -19t50 -42.5t20 -75zM461 539q0 18 -6 28.5t-16.5 16t-24 7.5t-28.5 2h-57l-54 -190h60q60 0 93 35.5t33 100.5z" />
    <glyph glyph-name="S" unicode="S" horiz-adv-x="594" 
d="M617 603q0 -26 -4 -46.5t-12 -45.5h-196q5 13 9 28.5t4 29.5q0 20 -15.5 30t-34.5 10q-29 0 -51.5 -18t-22.5 -50q0 -15 6.5 -28.5t17 -26t23.5 -24t26 -20.5l53 -38q22 -16 42.5 -34.5t36 -39t24.5 -42.5t9 -45q0 -47 -18.5 -96t-59.5 -87q-24 -23 -50.5 -38t-56.5 -24
t-65.5 -12.5t-78.5 -3.5q-38 0 -78.5 5t-73.5 20t-54.5 43t-21.5 75q0 29 5 56.5t13 56.5h198q-6 -18 -11 -40t-5 -36q0 -26 16 -37t39 -11q41 0 64 22.5t23 56.5q0 29 -17.5 55t-67.5 63l-54 40q-20 15 -38 31t-31.5 34.5t-22 39.5t-8.5 44q0 45 20 86.5t55 75.5
q48 46 109 62.5t141 16.5q35 0 73 -6.5t69.5 -22.5t51.5 -42.5t20 -66.5z" />
    <glyph glyph-name="T" unicode="T" horiz-adv-x="516" 
d="M579 591h-147l-169 -591h-206l169 591h-157l38 132h510z" />
    <glyph glyph-name="U" unicode="U" horiz-adv-x="696" 
d="M602 245q-21 -74 -49 -124.5t-67.5 -81t-93.5 -44t-128 -13.5q-42 0 -86.5 5.5t-81.5 22t-61 47.5t-24 82q0 26 4 52t12 52l137 480h206l-138 -484q-5 -17 -9 -33.5t-4 -34.5q0 -31 16 -44t45 -13t49 10.5t33.5 27.5t22 40t15.5 47l138 484h201z" />
    <glyph glyph-name="V" unicode="V" horiz-adv-x="639" 
d="M338 0h-263l29 723h209l-58 -546l280 546h207z" />
    <glyph glyph-name="W" unicode="W" horiz-adv-x="949" 
d="M704 0h-245l80 562l-261 -562h-245l85 723h200l-99 -539l246 539h238l-70 -539l217 539h188z" />
    <glyph glyph-name="X" unicode="X" horiz-adv-x="604" 
d="M420 361l95 -361h-196l-45 234l-167 -234h-224l317 381l-94 342h201l42 -215l141 215h219z" />
    <glyph glyph-name="Y" unicode="Y" horiz-adv-x="585" 
d="M342 219l-63 -219h-206l68 235l-61 488h205l6 -313l190 313h221z" />
    <glyph glyph-name="Z" unicode="Z" horiz-adv-x="543" 
d="M580 573l-415 -443h295l-37 -130h-508l44 152l417 441h-279l37 130h489z" />
    <glyph glyph-name="bracketleft" unicode="[" horiz-adv-x="321" 
d="M390 615h-118l-190 -664h118l-31 -108h-262l252 880h262z" />
    <glyph glyph-name="backslash" unicode="\" horiz-adv-x="254" 
d="M185 -18h-134l19 759h137z" />
    <glyph glyph-name="bracketright" unicode="]" horiz-adv-x="321" 
d="M118 -157h-262l31 108h118l190 664h-118l31 108h262z" />
    <glyph glyph-name="asciicircum" unicode="^" horiz-adv-x="585" 
d="M379 282l-98 241l-90 -241h-165l187 441h142l187 -441h-163z" />
    <glyph glyph-name="underscore" unicode="_" horiz-adv-x="500" 
d="M-103 -125v50h500v-50h-500z" />
    <glyph glyph-name="grave" unicode="`" horiz-adv-x="255" 
d="M172 578l-109 145h168l41 -145h-100z" />
    <glyph glyph-name="a" unicode="a" horiz-adv-x="570" 
d="M529 397q0 -22 -7 -52.5t-16.5 -62.5t-20 -62.5t-16.5 -53.5q-13 -46 -22.5 -89.5t-14.5 -76.5h-185l13 70q-19 -21 -36.5 -36.5t-37 -25.5t-42 -15t-50.5 -5t-52.5 6t-43 19t-29 34.5t-10.5 51.5q0 46 17.5 85.5t46.5 68.5q25 25 62.5 39.5t79 22t83.5 9.5t77 2
q5 17 11 37t6 37t-12 23.5t-28 6.5t-27 -6t-19 -16t-13.5 -23t-8.5 -26h-192q13 46 38.5 76.5t60.5 48.5t80 25t97 7q31 0 67.5 -3t68.5 -15t53.5 -35.5t21.5 -65.5zM303 247q-37 0 -64.5 -5.5t-46.5 -23.5q-16 -15 -27.5 -39.5t-11.5 -54.5q0 -20 12 -27.5t30 -7.5
q28 0 46 17t30 42t19 52t13 47z" />
    <glyph glyph-name="b" unicode="b" horiz-adv-x="597" 
d="M558 399q0 -36 -8 -72t-16 -65q-18 -65 -37.5 -115.5t-48 -86t-70.5 -54t-106 -18.5q-38 0 -71 14t-47 50l-15 -52h-190l208 723h192l-79 -275q32 36 69.5 52t86.5 16q29 0 53.5 -6t42 -20t27 -36t9.5 -55zM365 379q0 39 -40 39q-16 0 -30.5 -8t-28 -27.5t-26.5 -51
t-26 -77.5q-4 -14 -9 -31t-9.5 -34.5t-7.5 -34.5t-3 -31q0 -20 10.5 -31.5t27.5 -11.5q20 0 35 7.5t27.5 27t25 54t27.5 88.5q3 12 8 28t9 32.5t7 32.5t3 29z" />
    <glyph glyph-name="c" unicode="c" horiz-adv-x="530" 
d="M324 323q3 13 5.5 26t2.5 27q0 40 -37 40q-23 0 -39 -13.5t-28.5 -38t-23 -59t-22.5 -76.5q-6 -22 -13 -48.5t-7 -49.5q0 -20 8 -31.5t29 -11.5q36 0 53.5 27.5t31.5 70.5h184q-18 -58 -42.5 -96.5t-59.5 -61t-81 -31.5t-106 -9q-38 0 -74 6t-64 22t-45.5 44t-17.5 72
q0 30 5.5 63.5t16.5 68.5q20 66 45.5 114t60.5 78.5t83 45t113 14.5q46 0 85 -6.5t67.5 -23t44.5 -44t16 -69.5q0 -11 -1.5 -24.5t-5.5 -25.5h-184z" />
    <glyph glyph-name="d" unicode="d" horiz-adv-x="595" 
d="M440 0h-190l15 52q-32 -32 -63 -48t-77 -16q-31 0 -58 7t-46.5 22t-31 38.5t-11.5 56.5q0 38 8 75.5t19 74.5q15 52 31 98.5t42 81t66 54.5t103 20q19 0 39.5 -3t38 -10.5t31 -20.5t20.5 -33l78 274h192zM348 381q0 17 -11 29t-35 12q-14 0 -27 -6.5t-25.5 -24t-25.5 -49
t-27 -81.5q-4 -14 -9.5 -31.5t-10 -35.5t-8 -36t-3.5 -32q0 -42 45 -42q41 0 64 46.5t46 127.5q3 12 8 28t9 33t7 33t3 29z" />
    <glyph glyph-name="e" unicode="e" horiz-adv-x="560" 
d="M523 372q0 -32 -7.5 -67t-20.5 -77h-313q-9 -31 -16 -60t-7 -49q0 -41 41 -41q19 0 33 8.5t23.5 21.5t16 29t11.5 32h190q-14 -51 -39.5 -85.5t-61 -56t-80.5 -30.5t-99 -9q-38 0 -76.5 6t-69.5 22.5t-50.5 44.5t-19.5 73q0 31 6.5 64.5t12.5 53.5q21 74 49 124.5
t66 81.5t87.5 44.5t115.5 13.5q39 0 76.5 -6.5t67 -23t47 -44t17.5 -70.5zM337 387q0 39 -37 39q-20 0 -34.5 -10t-24.5 -25.5t-17 -33.5t-11 -34h112q5 16 8.5 31.5t3.5 32.5z" />
    <glyph glyph-name="f" unicode="f" horiz-adv-x="336" 
d="M404 634q-5 1 -7.5 1h-6.5q-20 0 -32.5 -4.5t-20.5 -14.5t-13.5 -26t-11.5 -39l-12 -47h68l-29 -100h-68l-116 -404h-192l116 404h-64l29 100h64l15 53q11 39 23.5 71t34 55.5t54.5 36t85 12.5q53 0 109 -9z" />
    <glyph glyph-name="g" unicode="g" horiz-adv-x="587" 
d="M429 -11q-17 -60 -46 -96.5t-66 -57t-80 -27t-89 -6.5q-42 0 -83.5 4t-74 15.5t-53 31t-20.5 51.5q0 14 1 26t5 25h195q-5 -15 -5 -27q0 -20 11.5 -30t30.5 -10q32 0 50.5 23.5t32.5 73.5l24 86q-17 -21 -33.5 -34t-34 -20.5t-38 -10.5t-46.5 -3q-27 0 -51 5t-43 17
t-30 32t-11 50q0 33 6 64t15 63q19 68 38.5 120.5t47 88.5t69 54.5t104.5 18.5q17 0 35.5 -2.5t35 -10.5t29.5 -22t19 -37l18 60h186zM341 379q0 41 -44 41q-21 0 -36.5 -13.5t-27.5 -36.5t-21.5 -54t-19.5 -66q-3 -11 -7 -25t-7.5 -28t-6 -28t-2.5 -26q0 -42 40 -42
q16 0 29.5 6.5t26 23t24 46t25.5 76.5q11 40 19 73t8 53z" />
    <glyph glyph-name="h" unicode="h" horiz-adv-x="590" 
d="M552 428q0 -17 -2 -31t-7 -30l-105 -367h-192l95 330q4 14 7.5 27.5t3.5 27.5q0 18 -9.5 26.5t-26.5 8.5q-20 0 -33.5 -9t-22.5 -23t-15.5 -30.5t-10.5 -32.5l-93 -325h-192l207 723h192l-77 -270q75 63 159 63q22 0 44 -4t39 -14t28 -27t11 -43z" />
    <glyph glyph-name="i" unicode="i" horiz-adv-x="296" 
d="M311 592h-192l37 131h192zM141 0h-192l145 504h192z" />
    <glyph glyph-name="j" unicode="j" horiz-adv-x="296" 
d="M311 592h-192l37 131h192zM130 -36q-15 -53 -32 -84.5t-41 -48.5t-57.5 -22t-81.5 -5q-18 0 -37 1t-37 4l27 92q26 -1 40 7t22 37l161 559h191z" />
    <glyph glyph-name="k" unicode="k" horiz-adv-x="559" 
d="M395 269l63 -269h-191l-43 284l168 220h210zM141 0h-192l207 723h192z" />
    <glyph glyph-name="l" unicode="l" horiz-adv-x="296" 
d="M141 0h-192l207 723h192z" />
    <glyph glyph-name="m" unicode="m" horiz-adv-x="887" 
d="M849 426q0 -17 -2.5 -31t-7.5 -31l-104 -364h-192l97 337q4 12 6.5 23t2.5 24q0 16 -9.5 26t-26.5 10q-19 0 -32.5 -9t-23 -23t-16 -31t-10.5 -32l-93 -325h-192l97 338q5 14 7 24t2 21q0 17 -10 27t-27 10q-19 0 -32.5 -9t-22.5 -23t-15.5 -31t-10.5 -32l-93 -325h-192
l144 504h190l-16 -55q70 67 159 67q51 0 83 -15t43 -54q76 69 166 69q27 0 51 -5t42 -15.5t28 -27.5t10 -42z" />
    <glyph glyph-name="n" unicode="n" horiz-adv-x="590" 
d="M552 428q0 -17 -2 -31t-7 -30l-105 -367h-192l95 330q5 18 8 31t3 24q0 18 -9.5 26.5t-26.5 8.5q-20 0 -33.5 -9t-22.5 -23t-15.5 -30.5t-10.5 -32.5l-93 -325h-192l145 504h189l-15 -53q37 32 75 48.5t87 16.5q22 0 44 -4t39 -13.5t28 -26.5t11 -44z" />
    <glyph glyph-name="o" unicode="o" horiz-adv-x="554" 
d="M515 375q0 -38 -5.5 -67t-14.5 -61q-20 -69 -43.5 -118.5t-59 -80.5t-85.5 -45.5t-122 -14.5q-39 0 -76 6t-66 21.5t-47 44t-18 73.5q0 57 17 114q20 72 45 123t61 83.5t86.5 47.5t122.5 15q38 0 74.5 -5.5t65.5 -21.5t47 -43.5t18 -70.5zM331 376q0 40 -38 40
q-21 0 -36 -12.5t-27 -35.5t-22.5 -55.5t-22.5 -72.5q-7 -24 -15 -54t-8 -55q0 -20 7 -31.5t30 -11.5q20 0 34.5 9.5t25.5 29t21 47.5t21 66q4 14 9.5 32t10 37t7.5 36.5t3 30.5z" />
    <glyph glyph-name="p" unicode="p" horiz-adv-x="597" 
d="M558 400q0 -36 -8 -72.5t-18 -71.5q-17 -57 -34.5 -106t-45 -85t-70.5 -56.5t-109 -20.5q-36 0 -69.5 13t-48.5 48l-71 -243h-191l201 698h188l-18 -60q32 37 72.5 54.5t87.5 17.5q29 0 53.5 -6t42.5 -19.5t28 -35.5t10 -55zM365 378q0 16 -8.5 28t-28.5 12
q-41 0 -66 -42.5t-47 -121.5q-8 -27 -18.5 -64t-10.5 -66q0 -20 8.5 -32t28.5 -12q24 0 41 12.5t29.5 36t23 56t22.5 72.5q7 25 16.5 60t9.5 61z" />
    <glyph glyph-name="q" unicode="q" horiz-adv-x="594" 
d="M383 -194h-192l70 242q-30 -31 -60.5 -45.5t-74.5 -14.5q-31 0 -58 6.5t-47 21t-31.5 38t-11.5 58.5q0 38 8 75.5t19 74.5q15 52 31.5 98.5t42.5 81t66 54.5t103 20q21 0 41 -3t37.5 -11.5t31 -22.5t19.5 -35l18 60h190zM348 378q0 44 -46 44q-20 0 -35.5 -12.5
t-27.5 -34t-22 -51t-20 -63.5q-4 -14 -9.5 -31.5t-10 -36t-8 -36.5t-3.5 -32q0 -41 44 -41q42 0 64.5 45t46.5 129q4 13 8.5 28.5t8.5 31.5t7 31.5t3 28.5z" />
    <glyph glyph-name="r" unicode="r" horiz-adv-x="382" 
d="M371 369q-8 1 -17 1h-17q-31 0 -51.5 -9t-34 -25t-22.5 -38t-16 -48l-72 -250h-192q36 127 72.5 251.5t71.5 252.5h184l-19 -64q32 43 67 60t88 17z" />
    <glyph glyph-name="s" unicode="s" horiz-adv-x="525" 
d="M502 414q0 -27 -7 -49h-179q2 8 4 16.5t2 16.5q0 20 -13.5 27.5t-31.5 7.5q-22 0 -40.5 -12t-18.5 -38q0 -20 16.5 -34.5t56.5 -33.5l64 -30q49 -23 70 -47.5t21 -66.5q0 -57 -24.5 -92.5t-63.5 -55.5t-89 -27.5t-101 -7.5q-29 0 -64.5 4t-67.5 16t-53.5 34t-21.5 58
q0 15 1 29t6 28h179q-3 -10 -5.5 -19.5t-2.5 -19.5q0 -21 14 -30t34 -9q31 0 49 15.5t18 42.5q0 20 -17 35t-49 30l-65 31q-20 9 -37.5 19.5t-30.5 23t-20.5 28.5t-7.5 36q0 54 25 88t64 53.5t86 27t91 7.5q43 0 81 -6t66.5 -18.5t45 -32t16.5 -45.5z" />
    <glyph glyph-name="t" unicode="t" horiz-adv-x="347" 
d="M343 404h-73l-77 -269q-2 -8 -3.5 -13.5t-1.5 -12.5q0 -17 12.5 -20t25.5 -3q11 0 22 3l-26 -89q-26 -7 -53.5 -9t-54.5 -2q-23 0 -44.5 3t-39 12t-28 25t-10.5 42q0 16 2 33t6 31l78 269h-57l29 100h57l24 86l212 64l-44 -150h73z" />
    <glyph glyph-name="u" unicode="u" horiz-adv-x="590" 
d="M434 0h-189l15 53q-37 -32 -75 -48.5t-87 -16.5q-26 0 -48.5 4.5t-38.5 15t-25 27t-9 41.5q0 15 2 28t7 33l104 367h192l-95 -330q-4 -14 -7.5 -27.5t-3.5 -27.5q0 -18 9.5 -26.5t26.5 -8.5q19 0 33 9t23 23t15 30.5t11 32.5l93 325h192z" />
    <glyph glyph-name="v" unicode="v" horiz-adv-x="520" 
d="M270 0h-243l11 504h187l-48 -384l193 384h187z" />
    <glyph glyph-name="w" unicode="w" horiz-adv-x="801" 
d="M566 0h-198l23 332l-172 -332h-204l30 504h183l-45 -336l165 336h186l-26 -336l146 336h180z" />
    <glyph glyph-name="x" unicode="x" horiz-adv-x="545" 
d="M357 248l65 -248h-183l-30 170l-111 -170h-203l231 268l-52 236h184l22 -154l99 154h191z" />
    <glyph glyph-name="y" unicode="y" horiz-adv-x="544" 
d="M172 -198h-183l95 179l-41 523h186l-11 -349l168 349h180z" />
    <glyph glyph-name="z" unicode="z" horiz-adv-x="456" 
d="M450 405l-285 -304h198l-29 -101h-418l30 104l286 300h-185l29 100h403z" />
    <glyph glyph-name="braceleft" unicode="{" horiz-adv-x="386" 
d="M461 667q-31 -3 -52.5 -14.5t-36.5 -29.5t-25.5 -40.5t-17.5 -46.5l-9 -29q-10 -32 -23 -63.5t-36 -57t-60 -42.5t-95 -20q24 -2 46.5 -7.5t40 -17t28 -30t10.5 -46.5q0 -16 -2.5 -32t-7.5 -31l-8 -27q-9 -29 -13.5 -49t-4.5 -41q0 -33 19.5 -46.5t50.5 -15.5l-28 -96
q-30 1 -67 0.5t-70 7.5t-55 28.5t-22 64.5q0 26 6 51t14 50l13 43q6 20 9.5 40.5t3.5 37.5t-7 28.5t-18.5 19t-25.5 12t-28 7.5l28 99q20 3 42 8t39 17q10 7 18.5 15.5t16 21t14.5 30.5t15 44l28 92q7 25 24.5 52t51 50.5t87.5 39.5t135 20z" />
    <glyph glyph-name="bar" unicode="|" horiz-adv-x="300" 
d="M71 -214v1001h164v-1001h-164z" />
    <glyph glyph-name="braceright" unicode="}" horiz-adv-x="386" 
d="M349 275q-37 -6 -62 -18.5t-41.5 -30.5t-27 -41t-17.5 -50l-18 -64q-17 -60 -39.5 -96.5t-57 -56.5t-85 -26.5t-123.5 -6.5l28 96q32 2 53 12t36 27.5t25.5 43t20.5 58.5l11 37q10 33 25.5 62t39.5 50.5t59 35.5t85 17q-24 1 -46.5 6t-39.5 15.5t-27.5 29t-10.5 46.5
q0 21 4 40t10 41l9 33q5 16 7.5 34t2.5 32q0 33 -18 48t-50 18l28 97q28 -2 64.5 -6.5t69.5 -17.5t55.5 -36t22.5 -61q0 -17 -4.5 -39t-12.5 -45l-11 -36q-7 -23 -11.5 -44.5t-4.5 -42.5q0 -18 7 -29t18 -17.5t25 -10t29 -5.5z" />
    <glyph glyph-name="asciitilde" unicode="~" horiz-adv-x="585" 
d="M4 185q2 39 13 74t33 61.5t54 42t76 15.5q14 0 26 -2t25 -6t28.5 -10t35.5 -14q18 -8 30.5 -12.5t22 -7t17 -3.5t15.5 -1q21 0 34 13.5t16 36.5h104q-2 -39 -13 -74t-33 -61.5t-54 -42t-76 -15.5q-14 0 -26 2t-25 6t-28.5 10t-35.5 14q-18 7 -30.5 12t-22 7.5t-17 3.5
t-15.5 1q-21 0 -34 -13.5t-16 -36.5h-104z" />
    <glyph glyph-name="Euro" unicode="&#x20ac;" horiz-adv-x="576" 
d="M275 256q-12 -43 -16 -64.5t-4 -31.5q0 -29 17.5 -42t50.5 -13q43 0 74.5 17t58.5 47v-147q-36 -22 -81 -29.5t-88 -7.5q-39 0 -78 4.5t-71 20t-52 45t-20 79.5q0 15 4 43t17 79h-79l50 92h54q4 13 8.5 27.5t9.5 29.5h-82l50 92h62q22 63 49.5 107.5t67 73t94 41.5
t129.5 13q37 0 78 -12t67 -39l-68 -126q-3 16 -13.5 27t-24 17.5t-30 9.5t-31.5 3q-28 0 -48 -7t-35 -21.5t-26.5 -36t-21.5 -50.5h195l-50 -92h-174l-17 -57h156l-50 -92h-132z" />
    <glyph glyph-name="quotesinglbase" unicode="&#x201a;" horiz-adv-x="273" 
d="M24 -99h-125l92 256h176z" />
    <glyph glyph-name="florin" unicode="&#x192;" horiz-adv-x="576" 
d="M554 585q-12 3 -27 3q-44 0 -63 -40l-52 -111h75l-47 -110h-78l-125 -269q-26 -55 -52 -97t-60.5 -70t-80 -42.5t-110.5 -14.5q-13 0 -25.5 1t-25.5 5l60 131q17 -7 37 -7q15 0 26.5 9t17.5 22l154 332h-58l48 110h60l57 121q43 90 107 128t164 38q14 0 29.5 -0.5
t28.5 -2.5z" />
    <glyph glyph-name="quotedblbase" unicode="&#x201e;" horiz-adv-x="465" 
d="M217 -99h-126l92 256h176zM25 -99h-126l92 256h176z" />
    <glyph glyph-name="ellipsis" unicode="&#x2026;" horiz-adv-x="1000" 
d="M820 0h-182l52 182h182zM487 0h-181l52 182h181zM154 0h-181l52 182h181z" />
    <glyph glyph-name="dagger" unicode="&#x2020;" horiz-adv-x="460" 
d="M473 453h-138l-130 -453h-156l130 453h-138l36 127h138l41 143h156l-41 -143h138z" />
    <glyph glyph-name="daggerdbl" unicode="&#x2021;" horiz-adv-x="460" 
d="M473 453h-138l-53 -183h138l-36 -127h-138l-41 -143h-156l41 143h-138l36 127h138l53 183h-138l36 127h138l41 143h156l-41 -143h138z" />
    <glyph glyph-name="circumflex" unicode="&#x2c6;" horiz-adv-x="255" 
d="M269 578l-49 77l-91 -77h-114l144 145h147l61 -145h-98z" />
    <glyph glyph-name="perthousand" unicode="&#x2030;" horiz-adv-x="1025" 
d="M954 229q0 -20 -4.5 -40t-9.5 -40q-11 -39 -26 -69t-37.5 -51t-53.5 -31.5t-74 -10.5q-21 0 -41 3t-35.5 11t-25 23.5t-9.5 41.5q0 20 4 39.5t9 38.5q11 39 26 70.5t37 53.5t53.5 33.5t75.5 11.5q22 0 42.5 -3.5t35.5 -12.5t24 -25.5t9 -42.5zM384 640q0 -20 -4.5 -39.5
t-9.5 -38.5q-11 -39 -26 -69.5t-37.5 -52t-53.5 -32.5t-74 -11q-21 0 -41.5 3t-36 11t-25 23.5t-9.5 41.5q0 20 4.5 39.5t9.5 38.5q11 39 26 70.5t36.5 53.5t53 33.5t75.5 11.5q22 0 42.5 -3.5t36 -12.5t24.5 -25t9 -42zM139 -30h-87l510 778h86zM627 230q0 -20 -4 -39.5
t-9 -38.5q-11 -39 -26.5 -69.5t-38 -52t-53.5 -32.5t-74 -11q-21 0 -41 3t-35.5 11t-25 23.5t-9.5 41.5q0 20 4 39.5t9 38.5q11 39 26 70.5t37 53.5t53.5 33.5t75.5 11.5q22 0 42 -3.5t35.5 -12.5t24.5 -25t9 -42zM844 222q0 10 -4 18t-16 8q-16 0 -30 -22.5t-24.5 -51.5
t-16.5 -57.5t-6 -41.5q0 -11 4.5 -17t16.5 -6q17 0 31 21.5t24 50t15.5 56.5t5.5 42zM273 632q0 10 -3.5 18t-15.5 8q-16 0 -30.5 -22.5t-25 -51.5t-16.5 -57.5t-6 -41.5q0 -11 4.5 -17t16.5 -6q17 0 31 21.5t24 50t15.5 56.5t5.5 42zM517 222q0 10 -4 18t-16 8
q-16 0 -30 -22.5t-24.5 -51.5t-16.5 -57.5t-6 -41.5q0 -11 4.5 -17t16.5 -6q17 0 31 21.5t24 50t15.5 56.5t5.5 42z" />
    <glyph glyph-name="Scaron" unicode="&#x160;" horiz-adv-x="594" 
d="M617 603q0 -26 -4 -46.5t-12 -45.5h-196q5 13 9 28.5t4 29.5q0 20 -15.5 30t-34.5 10q-29 0 -51.5 -18t-22.5 -50q0 -15 6.5 -28.5t17 -26t23.5 -24t26 -20.5l53 -38q22 -16 42.5 -34.5t36 -39t24.5 -42.5t9 -45q0 -47 -18.5 -96t-59.5 -87q-24 -23 -50.5 -38t-56.5 -24
t-65.5 -12.5t-78.5 -3.5q-38 0 -78.5 5t-73.5 20t-54.5 43t-21.5 75q0 29 5 56.5t13 56.5h198q-6 -18 -11 -40t-5 -36q0 -26 16 -37t39 -11q41 0 64 22.5t23 56.5q0 29 -17.5 55t-67.5 63l-54 40q-20 15 -38 31t-31.5 34.5t-22 39.5t-8.5 44q0 45 20 86.5t55 75.5
q48 46 109 62.5t141 16.5q35 0 73 -6.5t69.5 -22.5t51.5 -42.5t20 -66.5zM481 777h-147l-61 145h98l49 -77l91 77h114z" />
    <glyph glyph-name="guilsinglleft" unicode="&#x2039;" horiz-adv-x="316" 
d="M149 241l40 -184h-151l-39 197l148 193h162z" />
    <glyph glyph-name="OE" unicode="&#x152;" horiz-adv-x="816" 
d="M858 593h-210l-47 -165h187l-36 -123h-187l-50 -175h219l-37 -130h-321l-119 -3q-44 0 -90.5 6t-84.5 24.5t-62.5 51.5t-24.5 87q0 31 3 56.5t7.5 46.5t10 40t10.5 39q22 83 45 143.5t49 102.5t57.5 67.5t72.5 40t92.5 19t118.5 4.5q31 0 64 -1t71 -1h299zM408 593
q-33 0 -55 -7.5t-37.5 -22t-26.5 -36t-21 -50.5q-11 -32 -21 -63.5t-19 -63.5q-5 -17 -11 -37t-11 -41t-8.5 -41.5t-3.5 -37.5q0 -38 20.5 -50.5t54.5 -12.5h48l133 463h-42z" />
    <glyph glyph-name="Zcaron" unicode="&#x17d;" horiz-adv-x="543" 
d="M580 573l-415 -443h295l-37 -130h-508l44 152l417 441h-279l37 130h489zM456 777h-147l-61 145h98l49 -77l91 77h114z" />
    <glyph glyph-name="quoteleft" unicode="&#x2018;" horiz-adv-x="273" 
d="M253 467h-176l143 256h125z" />
    <glyph glyph-name="quoteright" unicode="&#x2019;" horiz-adv-x="273" 
d="M202 467h-125l92 256h176z" />
    <glyph glyph-name="quotedblleft" unicode="&#x201c;" horiz-adv-x="465" 
d="M445 467h-176l142 256h126zM253 467h-176l142 256h126z" />
    <glyph glyph-name="quotedblright" unicode="&#x201d;" horiz-adv-x="465" 
d="M395 467h-126l92 256h176zM203 467h-126l92 256h176z" />
    <glyph glyph-name="bullet" unicode="&#x2022;" horiz-adv-x="498" 
d="M431 366q0 -38 -14 -71t-39 -58t-58 -39.5t-70 -14.5q-38 0 -71.5 14.5t-58 39t-39 58t-14.5 71.5q0 37 14.5 70t39.5 58t58 39t71 14q37 0 70 -14.5t57.5 -39t39 -57.5t14.5 -70z" />
    <glyph glyph-name="endash" unicode="&#x2013;" horiz-adv-x="500" 
d="M455 202h-500l33 116h500z" />
    <glyph glyph-name="emdash" unicode="&#x2014;" horiz-adv-x="1001" 
d="M826 202h-741l33 116h741z" />
    <glyph glyph-name="tilde" unicode="&#x2dc;" horiz-adv-x="255" 
d="M425 717q-11 -24 -25.5 -46.5t-33 -40.5t-41.5 -29t-51 -11q-19 0 -38.5 5t-39 10.5t-39 10.5t-38.5 5q-17 0 -30.5 -12t-20.5 -27h-71q11 24 25.5 47t33.5 41t42 29t52 11q19 0 38 -5.5t37 -11.5t35 -11.5t32 -5.5q23 0 38 11t26 30h69z" />
    <glyph glyph-name="trademark" unicode="&#x2122;" horiz-adv-x="981" 
d="M790 367v260l-78 -260h-80l-78 260v-260h-103v356h167l54 -186l56 186h164v-356h-102zM311 640v-272h-111v272h-101v83h311v-83h-99z" />
    <glyph glyph-name="scaron" unicode="&#x161;" horiz-adv-x="525" 
d="M502 414q0 -27 -7 -49h-179q2 8 4 16.5t2 16.5q0 20 -13.5 27.5t-31.5 7.5q-22 0 -40.5 -12t-18.5 -38q0 -20 16.5 -34.5t56.5 -33.5l64 -30q49 -23 70 -47.5t21 -66.5q0 -57 -24.5 -92.5t-63.5 -55.5t-89 -27.5t-101 -7.5q-29 0 -64.5 4t-67.5 16t-53.5 34t-21.5 58
q0 15 1 29t6 28h179q-3 -10 -5.5 -19.5t-2.5 -19.5q0 -21 14 -30t34 -9q31 0 49 15.5t18 42.5q0 20 -17 35t-49 30l-65 31q-20 9 -37.5 19.5t-30.5 23t-20.5 28.5t-7.5 36q0 54 25 88t64 53.5t86 27t91 7.5q43 0 81 -6t66.5 -18.5t45 -32t16.5 -45.5zM392 578h-147l-61 145
h98l49 -77l91 77h114z" />
    <glyph glyph-name="guilsinglright" unicode="&#x203a;" horiz-adv-x="322" 
d="M112 263l-40 184h151l39 -197l-148 -193h-162z" />
    <glyph glyph-name="oe" unicode="&#x153;" horiz-adv-x="847" 
d="M810 371q0 -38 -8.5 -72.5t-19.5 -70.5h-313q-7 -23 -15 -54t-8 -55q0 -41 41 -41q21 0 35 8.5t23 21.5t15 29.5t11 31.5h190q-14 -49 -38.5 -83.5t-57 -56t-72.5 -31.5t-85 -10q-71 0 -110.5 17.5t-53.5 65.5q-36 -47 -78 -65t-96 -18q-44 0 -79.5 7.5t-60.5 25.5
t-38.5 47.5t-13.5 72.5q0 26 3.5 49t11.5 49q20 70 43.5 122.5t59 86.5t87 51t128.5 17q21 0 45 -3.5t45.5 -12t39 -23.5t26.5 -38q28 38 67.5 57.5t101.5 19.5q38 0 70 -8t55 -25t36 -45t13 -67zM624 387q0 39 -37 39q-20 0 -34.5 -10t-24.5 -25.5t-17 -33.5t-11 -34h112
q5 16 8.5 31.5t3.5 32.5zM339 370q0 46 -43 46q-21 0 -36 -11t-27 -31.5t-22 -50t-20 -66.5q-8 -27 -18.5 -61.5t-10.5 -62.5q0 -21 9.5 -33.5t32.5 -12.5q20 0 35 10t27.5 30.5t23.5 52.5t24 76q8 25 16.5 56.5t8.5 57.5z" />
    <glyph glyph-name="zcaron" unicode="&#x17e;" horiz-adv-x="456" 
d="M450 405l-285 -304h198l-29 -101h-418l30 104l286 300h-185l29 100h403zM363 578h-147l-61 145h98l49 -77l91 77h114z" />
    <glyph glyph-name="Ydieresis" unicode="&#x178;" horiz-adv-x="585" 
d="M342 219l-63 -219h-206l68 235l-61 488h205l6 -313l190 313h221zM566 789h-144l32 113h144zM373 789h-143l32 113h143z" />
    <glyph glyph-name="uni00A0" unicode="&#xa0;" horiz-adv-x="288" 
 />
    <glyph glyph-name="exclamdown" unicode="&#xa1;" horiz-adv-x="312" 
d="M241 402h-145l41 141h145zM94 -180h-186l180 515h122z" />
    <glyph glyph-name="cent" unicode="&#xa2;" horiz-adv-x="576" 
d="M534 373q0 -11 -1.5 -24.5t-5.5 -25.5h-184q3 13 5.5 26t2.5 27q0 40 -37 40q-23 0 -39 -13.5t-28.5 -38t-23 -59t-22.5 -76.5q-6 -22 -13 -48.5t-7 -49.5q0 -20 8 -31.5t29 -11.5q36 0 53.5 27.5t31.5 70.5h184q-18 -58 -42.5 -96.5t-59.5 -61t-81 -31.5t-106 -9h-15
t-14 2l-47 -86h-91l56 102q-18 4 -34 15t-28.5 27t-20 37t-7.5 47q0 30 5.5 63.5t16.5 68.5q20 66 45.5 114t60.5 78.5t83 45t113 14.5h16t15 -1l49 89h91l-56 -102q45 -14 71.5 -44.5t26.5 -84.5z" />
    <glyph glyph-name="sterling" unicode="&#xa3;" horiz-adv-x="576" 
d="M618 622q0 -38 -10 -72h-176q2 6 3.5 14.5t1.5 15.5q0 12 -4 22t-23 10q-23 0 -36.5 -20.5t-25.5 -62.5l-27 -92h134l-36 -124h-133l-52 -184h243l-37 -129h-483l37 129h58l52 184h-58l36 124h58l21 72q16 54 34 95.5t47 70t74.5 43t115.5 14.5q36 0 70 -4.5t59.5 -16.5
t41 -33.5t15.5 -55.5z" />
    <glyph glyph-name="currency" unicode="&#xa4;" horiz-adv-x="576" 
d="M469 442q23 -41 23 -93q0 -51 -23 -94l65 -64l-88 -88l-67 66q-42 -20 -91 -20t-92 20l-66 -66l-88 88l64 64q-22 44 -22 94q0 51 22 93l-64 65l88 88l66 -67q21 10 44 15.5t48 5.5t48 -5.5t43 -15.5l67 67l88 -88zM363 349q0 35 -21 57.5t-54 22.5t-54 -22.5t-21 -57.5
t21 -57.5t54 -22.5t54 22.5t21 57.5z" />
    <glyph glyph-name="yen" unicode="&#xa5;" horiz-adv-x="576" 
d="M395 358h134l-26 -92l-152 2l-14 -59h150l-27 -92h-150l-33 -117h-191l33 117h-148l27 92h148l16 57h-149l26 92h134l-38 365h199l-32 -291l135 291h206z" />
    <glyph glyph-name="brokenbar" unicode="&#xa6;" horiz-adv-x="300" 
d="M71 411v251h164v-251h-164zM71 -89v250h164v-250h-164z" />
    <glyph glyph-name="section" unicode="&#xa7;" horiz-adv-x="580" 
d="M555 595q-34 16 -64.5 23.5t-67.5 7.5q-16 0 -31.5 -2.5t-27.5 -8.5t-19.5 -15.5t-7.5 -23.5q0 -17 20 -29.5t49 -23.5q24 -9 46 -19t39 -23.5t27 -32t10 -43.5q0 -29 -11 -52t-29 -41t-41 -31.5t-48 -22.5q23 -13 36.5 -34t13.5 -48q0 -48 -22 -84t-58.5 -61
t-83.5 -37.5t-96 -12.5q-48 0 -101.5 5t-104.5 17l38 135q38 -15 70 -22.5t73 -7.5q38 0 62.5 10t24.5 36q0 11 -8.5 17t-23.5 11q-32 9 -59 20t-47.5 26.5t-32 36.5t-11.5 51q0 25 10 48t27 43t39 35t47 24q-22 14 -32.5 39t-10.5 50q0 43 20.5 77.5t55 58.5t80 37t95.5 13
q48 0 95.5 -7t93.5 -18zM371 383q0 26 -20 39t-41 21q-17 -5 -33.5 -12.5t-29.5 -18.5t-20.5 -26.5t-7.5 -35.5q0 -26 21 -39.5t43 -21.5q16 5 31.5 13.5t28 20t20.5 26.5t8 34z" />
    <glyph glyph-name="dieresis" unicode="&#xa8;" horiz-adv-x="255" 
d="M365 600h-144l32 113h144zM172 600h-143l32 113h143z" />
    <glyph glyph-name="copyright" unicode="&#xa9;" horiz-adv-x="816" 
d="M582 299q0 -84 -42 -115.5t-127 -31.5q-47 0 -80.5 8t-55 30.5t-31.5 61t-10 100.5q0 54 6.5 95.5t25 69t52.5 41.5t89 14q90 0 130 -29.5t40 -100.5v-17h-129v13q0 24 -5.5 39.5t-32.5 15.5q-14 0 -22.5 -5.5t-13 -19.5t-6 -38.5t-1.5 -61.5q0 -41 1 -67t5 -42t12.5 -22
t24.5 -6q28 0 34 18.5t6 50.5v11h130v-12zM786 361q0 -81 -29 -150t-79.5 -119t-119.5 -78.5t-149 -28.5q-81 0 -150.5 28.5t-120 78.5t-79.5 119t-29 150t29 150t79.5 119.5t120 79t150.5 28.5q80 0 149 -28.5t119.5 -79t79.5 -119.5t29 -150zM697 361q0 64 -21.5 118.5
t-60 94t-91.5 61.5t-116 22t-116 -22t-91.5 -61.5t-60 -94t-21.5 -118.5q0 -65 21.5 -119t60 -93t91.5 -61t116 -22t116 22t91.5 61t60 93t21.5 119z" />
    <glyph glyph-name="ordfeminine" unicode="&#xaa;" horiz-adv-x="352" 
d="M381 654q0 -24 -8 -56t-22 -74q-21 -60 -21 -104h-99l4 27q-20 -15 -42 -25t-47 -10q-31 0 -56 18.5t-25 51.5q0 23 10 46.5t26 39.5q25 26 66 33t109 7q3 10 6.5 20.5t3.5 20.5q0 12 -7.5 18t-18.5 6q-17 0 -30.5 -13t-18.5 -29h-97q18 54 56 74.5t91 20.5q19 0 40 -2
t39 -9.5t29.5 -22t11.5 -38.5zM257 562q-38 0 -61 -15t-23 -47q0 -13 8 -19t19 -6q26 0 39.5 22.5t23.5 64.5h-6z" />
    <glyph glyph-name="guillemotleft" unicode="&#xab;" horiz-adv-x="523" 
d="M149 241l40 -184h-151l-39 197l148 193h162zM358 241l40 -184h-151l-39 197l148 193h162z" />
    <glyph glyph-name="logicalnot" unicode="&#xac;" horiz-adv-x="585" 
d="M377 139v188h-371v146h525v-334h-154z" />
    <glyph glyph-name="uni00AD" unicode="&#xad;" horiz-adv-x="369" 
d="M286 206h-279l38 131h279z" />
    <glyph glyph-name="registered" unicode="&#xae;" horiz-adv-x="394" 
d="M436 548q0 -40 -15.5 -75t-41.5 -61t-61 -41t-75 -15q-39 0 -74 15t-61 41.5t-41 61.5t-15 74t15 74.5t41 61.5t61 41.5t74 15.5q40 0 75 -15t61 -41.5t41.5 -61.5t15.5 -75zM393 548q0 31 -12 58t-32.5 47t-47.5 32t-58 12t-58 -12t-47 -32t-31.5 -47t-11.5 -58
t11.5 -58t31.5 -47t47 -31.5t58 -11.5t58 11.5t47.5 31.5t32.5 47t12 58zM268 443q-2 9 -2.5 18t-0.5 23t-4.5 22t-24.5 8h-10v-71h-63v211h89q47 0 63.5 -14.5t16.5 -44.5q0 -41 -41 -53q25 -10 30 -23t6 -29q0 -11 0.5 -22.5t5.5 -24.5h-65zM263 587q0 14 -7.5 19.5
t-19.5 5.5h-10v-47h10q12 0 19.5 3t7.5 19z" />
    <glyph glyph-name="macron" unicode="&#xaf;" horiz-adv-x="255" 
d="M359 615h-316l23 78h316z" />
    <glyph glyph-name="degree" unicode="&#xb0;" horiz-adv-x="398" 
d="M433 564q0 -37 -13.5 -68.5t-37.5 -54t-56.5 -35t-69.5 -12.5t-69.5 12.5t-56.5 35t-37.5 54t-13.5 68.5t13.5 68.5t37.5 54t56.5 35t69.5 12.5t69.5 -12.5t56.5 -35t37.5 -54t13.5 -68.5zM317 564q0 29 -17.5 47.5t-43.5 18.5t-43.5 -18.5t-17.5 -47.5t17.5 -47.5
t43.5 -18.5t43.5 18.5t17.5 47.5z" />
    <glyph glyph-name="plusminus" unicode="&#xb1;" horiz-adv-x="585" 
d="M346 350v-146h-154v146h-186v146h186v146h154v-146h185v-146h-185zM6 0v146h525v-146h-525z" />
    <glyph glyph-name="twosuperior" unicode="&#xb2;" 
d="M434 814q0 -26 -8.5 -48t-22 -42t-31 -37t-36.5 -32l-128 -105h157l-23 -81h-293l26 91l183 153q24 20 40 40.5t16 43.5q0 19 -19 19q-21 0 -31.5 -14t-15.5 -32h-113q18 65 64.5 95t111.5 30q19 0 41 -3.5t40 -12.5t30 -24.5t12 -40.5z" />
    <glyph glyph-name="threesuperior" unicode="&#xb3;" 
d="M433 818q0 -20 -4.5 -39.5t-14.5 -36.5t-26 -30t-39 -20q38 -18 38 -61q0 -10 -2.5 -23t-4.5 -20q-11 -33 -26 -57t-38.5 -39t-55.5 -22t-76 -7q-54 0 -85 18t-31 67q0 15 2.5 27.5t6.5 26.5h110q-3 -10 -5.5 -20.5t-2.5 -21.5q0 -27 28 -27q15 0 25.5 9.5t17.5 23
t10.5 29t3.5 27.5q0 15 -6 22.5t-16 10.5t-21.5 3.5t-22.5 0.5h-9l17 61q97 -9 113 59q3 10 3 23q0 23 -25 23q-23 0 -34 -13.5t-17 -35.5h-111q23 64 68.5 91.5t111.5 27.5q19 0 40 -3t38 -11.5t28.5 -23.5t11.5 -39z" />
    <glyph glyph-name="acute" unicode="&#xb4;" horiz-adv-x="255" 
d="M216 578h-109l114 145h182z" />
    <glyph glyph-name="mu" unicode="&#xb5;" horiz-adv-x="592" 
d="M436 0h-189l15 53q-16 -28 -32.5 -42t-39.5 -14q-39 0 -42 36l-64 -227h-191l199 698h192l-95 -330q-4 -14 -7.5 -27.5t-3.5 -27.5q0 -18 9.5 -26.5t26.5 -8.5q19 0 33 9t23 23t15 30.5t11 32.5l93 325h192z" />
    <glyph glyph-name="paragraph" unicode="&#xb6;" horiz-adv-x="643" 
d="M478 0h-149l170 597h-64l-170 -597h-149l87 312q-32 4 -59 14.5t-47 28.5t-31.5 44.5t-11.5 63.5q0 75 33 125t85.5 80t118 42.5t130.5 12.5h263z" />
    <glyph glyph-name="periodcentered" unicode="&#xb7;" horiz-adv-x="288" 
d="M169 183h-146l47 165h146z" />
    <glyph glyph-name="cedilla" unicode="&#xb8;" horiz-adv-x="255" 
d="M103 -127q0 -27 -15 -47.5t-38.5 -35t-51 -21.5t-52.5 -7q-29 0 -57.5 7t-53.5 22l35 47q17 -8 34.5 -12.5t35.5 -4.5q28 0 46 11.5t18 33.5q0 13 -11.5 19t-28.5 6t-36 -7l-21 23l75 94h64l-44 -63q10 3 22 3q15 0 29 -3.5t25 -12t18 -21.5t7 -31z" />
    <glyph glyph-name="onesuperior" unicode="&#xb9;" 
d="M276 469h-122l88 306q-23 -14 -45 -23.5t-48 -18.5l27 93q29 13 55.5 29t52.5 34h113z" />
    <glyph glyph-name="ordmasculine" unicode="&#xba;" horiz-adv-x="352" 
d="M393 635q0 -17 -3 -32t-11 -41q-11 -39 -25 -69.5t-35 -51.5t-51.5 -32.5t-73.5 -11.5q-21 0 -42.5 3.5t-38 13t-27 25.5t-10.5 42q0 14 3 30.5t11 42.5q11 39 25 70.5t34.5 53.5t51 33.5t74.5 11.5q22 0 43.5 -4t38 -14t26.5 -27t10 -43zM282 632q0 10 -3.5 18t-15.5 8
q-16 0 -30.5 -22.5t-25 -51.5t-16.5 -57.5t-6 -41.5q0 -11 4.5 -17t16.5 -6q17 0 31 21.5t24 50t15.5 56.5t5.5 42z" />
    <glyph glyph-name="guillemotright" unicode="&#xbb;" horiz-adv-x="523" 
d="M313 263l-40 184h151l39 -197l-148 -193h-162zM104 263l-40 184h151l39 -197l-148 -193h-162z" />
    <glyph glyph-name="onequarter" unicode="&#xbc;" horiz-adv-x="795" 
d="M203 303h-122l88 306q-23 -14 -45 -23.5t-48 -18.5l27 93q29 13 55.5 29t52.5 34h113zM166 -30h-87l510 778h86zM677 165h33l-20 -71h-33l-27 -94h-117l26 92h-153l24 82l191 246h149zM492 165h82l52 180z" />
    <glyph glyph-name="onehalf" unicode="&#xbd;" horiz-adv-x="795" 
d="M216 303h-122l88 306q-23 -14 -45 -23.5t-48 -18.5l27 93q29 13 55.5 29t52.5 34h113zM162 -30h-87l510 778h86zM753 345q0 -26 -8.5 -48t-22 -42t-31 -37t-36.5 -32l-128 -105h157l-23 -81h-293l26 91l183 153q24 20 40 40.5t16 43.5q0 19 -19 19q-21 0 -31.5 -14
t-15.5 -32h-113q18 65 64.5 95t111.5 30q19 0 41 -3.5t40 -12.5t30 -24.5t12 -40.5z" />
    <glyph glyph-name="threequarters" unicode="&#xbe;" horiz-adv-x="795" 
d="M203 -30h-87l510 778h86zM677 165h33l-20 -71h-33l-27 -94h-117l26 92h-153l24 82l191 246h149zM492 165h82l52 180zM392 652q0 -20 -4.5 -39.5t-14.5 -36.5t-26 -30t-39 -20q38 -18 38 -61q0 -10 -2.5 -23t-4.5 -20q-11 -33 -26 -57t-38.5 -39t-55.5 -22t-76 -7
q-54 0 -85 18t-31 67q0 15 2.5 27.5t6.5 26.5h110q-3 -10 -5.5 -20.5t-2.5 -21.5q0 -27 28 -27q15 0 25.5 9.5t17.5 23t10.5 29t3.5 27.5q0 15 -6 22.5t-16 10.5t-21.5 3.5t-22.5 0.5h-9l17 61q97 -9 113 59q3 10 3 23q0 23 -25 23q-23 0 -34 -13.5t-17 -35.5h-111
q23 64 68.5 91.5t111.5 27.5q19 0 40 -3t38 -11.5t28.5 -23.5t11.5 -39z" />
    <glyph glyph-name="questiondown" unicode="&#xbf;" horiz-adv-x="504" 
d="M332 402h-145l40 141h145zM390 34q-17 -62 -39.5 -106t-56.5 -72t-81 -41t-111 -13q-30 0 -65 4.5t-64.5 18t-49.5 38t-20 65.5q0 42 15 76t39 61.5t54.5 51.5t61.5 47q29 21 48.5 40.5t29.5 54.5l21 76h136l-25 -90q-12 -43 -43.5 -82t-65 -73.5t-59 -65t-25.5 -57.5
q0 -20 14.5 -30.5t32.5 -10.5q24 0 40 10t26.5 25.5t17.5 34.5t12 38h157z" />
    <glyph glyph-name="Agrave" unicode="&#xc0;" horiz-adv-x="673" 
d="M571 0h-211l9 142h-180l-73 -142h-215l391 723h290zM242 270h138l15 313zM421 777l-109 145h168l41 -145h-100z" />
    <glyph glyph-name="Aacute" unicode="&#xc1;" horiz-adv-x="673" 
d="M571 0h-211l9 142h-180l-73 -142h-215l391 723h290zM242 270h138l15 313zM465 777h-109l114 145h182z" />
    <glyph glyph-name="Acircumflex" unicode="&#xc2;" horiz-adv-x="673" 
d="M571 0h-211l9 142h-180l-73 -142h-215l391 723h290zM242 270h138l15 313zM507 777l-49 77l-91 -77h-114l144 145h147l61 -145h-98z" />
    <glyph glyph-name="Atilde" unicode="&#xc3;" horiz-adv-x="673" 
d="M571 0h-211l9 142h-180l-73 -142h-215l391 723h290zM242 270h138l15 313zM674 916q-11 -24 -25.5 -46.5t-33 -40.5t-41.5 -29t-51 -11q-19 0 -38.5 5t-39 10.5t-39 10.5t-38.5 5q-17 0 -30.5 -12t-20.5 -27h-71q11 24 25.5 47t33.5 41t42 29t52 11q19 0 38 -5.5t37 -11.5
t35 -11.5t32 -5.5q23 0 38 11t26 30h69z" />
    <glyph glyph-name="Adieresis" unicode="&#xc4;" horiz-adv-x="673" 
d="M571 0h-211l9 142h-180l-73 -142h-215l391 723h290zM242 270h138l15 313zM614 789h-144l32 113h144zM421 789h-143l32 113h143z" />
    <glyph glyph-name="Aring" unicode="&#xc5;" horiz-adv-x="673" 
d="M571 0h-211l9 142h-180l-73 -142h-215l391 723h290zM242 270h138l15 313zM577 867q0 -24 -9 -44t-24 -35t-35.5 -23.5t-44.5 -8.5t-44.5 8.5t-35.5 23.5t-24 35t-9 44t9 44t24 35t35.5 23.5t44.5 8.5t44.5 -8.5t35.5 -23.5t24 -35t9 -44zM519 867q0 25 -15.5 41.5
t-39.5 16.5t-39.5 -16.5t-15.5 -41.5t15.5 -41.5t39.5 -16.5t39.5 16.5t15.5 41.5z" />
    <glyph glyph-name="AE" unicode="&#xc6;" horiz-adv-x="775" 
d="M817 592h-251l-14 -164h204l-36 -123h-178l-14 -175h167l-37 -130h-330l13 142h-177l-72 -142h-203l399 723h566zM223 270h127l41 338z" />
    <glyph glyph-name="Ccedilla" unicode="&#xc7;" horiz-adv-x="625" 
d="M654 593q0 -27 -6 -56t-16 -58h-203q8 23 13 45t5 39q0 26 -15 36t-39 10q-27 0 -46 -13t-35 -41.5t-31 -73t-33 -107.5q-6 -21 -14 -47.5t-15.5 -55t-12.5 -55.5t-5 -48q0 -27 12 -40.5t40 -13.5q30 0 49 13t32 34.5t21 49t16 55.5h206q-21 -74 -44.5 -127t-59 -86.5
t-87 -50.5t-127.5 -19l-31 -45q10 3 22 3q15 0 29 -3.5t25 -12t18 -21.5t7 -31q0 -27 -15 -47.5t-38.5 -35t-51 -21.5t-52.5 -7q-29 0 -57.5 7t-53.5 22l35 47q17 -8 34.5 -12.5t35.5 -4.5q28 0 46 11.5t18 33.5q0 13 -11.5 19t-28.5 6t-36 -7l-21 23l60 76q-38 2 -74 10
t-63.5 26t-44 48.5t-16.5 77.5q0 23 2.5 43.5t7 43.5t12 50l17.5 63q26 92 50.5 165.5t63.5 124.5t101 78.5t164 27.5q41 0 84 -4.5t78 -20t57 -45t22 -78.5z" />
    <glyph glyph-name="Egrave" unicode="&#xc8;" horiz-adv-x="537" 
d="M579 593h-244l-47 -165h212l-36 -123h-212l-50 -175h244l-37 -130h-450l207 723h450zM388 777l-109 145h168l41 -145h-100z" />
    <glyph glyph-name="Eacute" unicode="&#xc9;" horiz-adv-x="537" 
d="M579 593h-244l-47 -165h212l-36 -123h-212l-50 -175h244l-37 -130h-450l207 723h450zM432 777h-109l114 145h182z" />
    <glyph glyph-name="Ecircumflex" unicode="&#xca;" horiz-adv-x="537" 
d="M579 593h-244l-47 -165h212l-36 -123h-212l-50 -175h244l-37 -130h-450l207 723h450zM474 777l-49 77l-91 -77h-114l144 145h147l61 -145h-98z" />
    <glyph glyph-name="Edieresis" unicode="&#xcb;" horiz-adv-x="537" 
d="M579 593h-244l-47 -165h212l-36 -123h-212l-50 -175h244l-37 -130h-450l207 723h450zM581 789h-144l32 113h144zM388 789h-143l32 113h143z" />
    <glyph glyph-name="Igrave" unicode="&#xcc;" horiz-adv-x="331" 
d="M165 0h-206l207 723h206zM260 777l-109 145h168l41 -145h-100z" />
    <glyph glyph-name="Iacute" unicode="&#xcd;" horiz-adv-x="331" 
d="M165 0h-206l207 723h206zM304 777h-109l114 145h182z" />
    <glyph glyph-name="Icircumflex" unicode="&#xce;" horiz-adv-x="331" 
d="M165 0h-206l207 723h206zM346 777l-49 77l-91 -77h-114l144 145h147l61 -145h-98z" />
    <glyph glyph-name="Idieresis" unicode="&#xcf;" horiz-adv-x="331" 
d="M165 0h-206l207 723h206zM453 789h-144l32 113h144zM260 789h-143l32 113h143z" />
    <glyph glyph-name="Eth" unicode="&#xd0;" horiz-adv-x="667" 
d="M668 558q0 -29 -7 -70.5t-19.5 -88.5t-29 -96t-35.5 -93t-38.5 -79t-38.5 -55q-22 -23 -49.5 -37.5t-63 -23t-80.5 -12t-102 -3.5h-251l98 342h-46l31 106h45l79 275h253q40 0 84.5 -3.5t82 -20t62.5 -49.5t25 -92zM450 523q0 40 -20 53.5t-57 13.5h-46l-41 -142h72
l-30 -106h-72l-60 -210h45q29 0 52 7t40 25q13 13 26.5 39.5t26.5 59.5t24.5 70.5t20.5 73t14 66t5 50.5z" />
    <glyph glyph-name="Ntilde" unicode="&#xd1;" horiz-adv-x="704" 
d="M538 0h-289l42 588l-169 -588h-163l207 723h289l-41 -589l168 589h163zM694 916q-11 -24 -25.5 -46.5t-33 -40.5t-41.5 -29t-51 -11q-19 0 -38.5 5t-39 10.5t-39 10.5t-38.5 5q-17 0 -30.5 -12t-20.5 -27h-71q11 24 25.5 47t33.5 41t42 29t52 11q19 0 38 -5.5t37 -11.5
t35 -11.5t32 -5.5q23 0 38 11t26 30h69z" />
    <glyph glyph-name="Ograve" unicode="&#xd2;" horiz-adv-x="656" 
d="M661 569q0 -26 -6.5 -64.5t-17.5 -82.5t-25 -90.5t-28.5 -87.5t-28.5 -74t-24 -51q-20 -34 -46.5 -59.5t-62 -43t-82 -26t-107.5 -8.5q-44 0 -86.5 6t-76 23.5t-54.5 50t-21 85.5q0 24 6 58.5t15 74t21 81t23.5 78.5t22.5 67.5t19 47.5q21 46 47.5 81.5t63.5 58.5
t87.5 35t120.5 12q45 0 88 -7t77 -26.5t54.5 -53t20.5 -85.5zM457 554q0 55 -58 55q-31 0 -51.5 -13t-34.5 -33.5t-23 -46t-16 -50.5l-34 -113q-15 -51 -28 -100t-13 -84q0 -55 58 -55q26 0 45.5 10t33.5 28t24 41.5t18 50.5l33 110q18 60 32 112t14 88zM416 777l-109 145
h168l41 -145h-100z" />
    <glyph glyph-name="Oacute" unicode="&#xd3;" horiz-adv-x="656" 
d="M661 569q0 -26 -6.5 -64.5t-17.5 -82.5t-25 -90.5t-28.5 -87.5t-28.5 -74t-24 -51q-20 -34 -46.5 -59.5t-62 -43t-82 -26t-107.5 -8.5q-44 0 -86.5 6t-76 23.5t-54.5 50t-21 85.5q0 24 6 58.5t15 74t21 81t23.5 78.5t22.5 67.5t19 47.5q21 46 47.5 81.5t63.5 58.5
t87.5 35t120.5 12q45 0 88 -7t77 -26.5t54.5 -53t20.5 -85.5zM457 554q0 55 -58 55q-31 0 -51.5 -13t-34.5 -33.5t-23 -46t-16 -50.5l-34 -113q-15 -51 -28 -100t-13 -84q0 -55 58 -55q26 0 45.5 10t33.5 28t24 41.5t18 50.5l33 110q18 60 32 112t14 88zM460 777h-109
l114 145h182z" />
    <glyph glyph-name="Ocircumflex" unicode="&#xd4;" horiz-adv-x="656" 
d="M661 569q0 -26 -6.5 -64.5t-17.5 -82.5t-25 -90.5t-28.5 -87.5t-28.5 -74t-24 -51q-20 -34 -46.5 -59.5t-62 -43t-82 -26t-107.5 -8.5q-44 0 -86.5 6t-76 23.5t-54.5 50t-21 85.5q0 24 6 58.5t15 74t21 81t23.5 78.5t22.5 67.5t19 47.5q21 46 47.5 81.5t63.5 58.5
t87.5 35t120.5 12q45 0 88 -7t77 -26.5t54.5 -53t20.5 -85.5zM457 554q0 55 -58 55q-31 0 -51.5 -13t-34.5 -33.5t-23 -46t-16 -50.5l-34 -113q-15 -51 -28 -100t-13 -84q0 -55 58 -55q26 0 45.5 10t33.5 28t24 41.5t18 50.5l33 110q18 60 32 112t14 88zM502 777l-49 77
l-91 -77h-114l144 145h147l61 -145h-98z" />
    <glyph glyph-name="Otilde" unicode="&#xd5;" horiz-adv-x="656" 
d="M661 569q0 -26 -6.5 -64.5t-17.5 -82.5t-25 -90.5t-28.5 -87.5t-28.5 -74t-24 -51q-20 -34 -46.5 -59.5t-62 -43t-82 -26t-107.5 -8.5q-44 0 -86.5 6t-76 23.5t-54.5 50t-21 85.5q0 24 6 58.5t15 74t21 81t23.5 78.5t22.5 67.5t19 47.5q21 46 47.5 81.5t63.5 58.5
t87.5 35t120.5 12q45 0 88 -7t77 -26.5t54.5 -53t20.5 -85.5zM457 554q0 55 -58 55q-31 0 -51.5 -13t-34.5 -33.5t-23 -46t-16 -50.5l-34 -113q-15 -51 -28 -100t-13 -84q0 -55 58 -55q26 0 45.5 10t33.5 28t24 41.5t18 50.5l33 110q18 60 32 112t14 88zM669 916
q-11 -24 -25.5 -46.5t-33 -40.5t-41.5 -29t-51 -11q-19 0 -38.5 5t-39 10.5t-39 10.5t-38.5 5q-17 0 -30.5 -12t-20.5 -27h-71q11 24 25.5 47t33.5 41t42 29t52 11q19 0 38 -5.5t37 -11.5t35 -11.5t32 -5.5q23 0 38 11t26 30h69z" />
    <glyph glyph-name="Odieresis" unicode="&#xd6;" horiz-adv-x="656" 
d="M661 569q0 -26 -6.5 -64.5t-17.5 -82.5t-25 -90.5t-28.5 -87.5t-28.5 -74t-24 -51q-20 -34 -46.5 -59.5t-62 -43t-82 -26t-107.5 -8.5q-44 0 -86.5 6t-76 23.5t-54.5 50t-21 85.5q0 24 6 58.5t15 74t21 81t23.5 78.5t22.5 67.5t19 47.5q21 46 47.5 81.5t63.5 58.5
t87.5 35t120.5 12q45 0 88 -7t77 -26.5t54.5 -53t20.5 -85.5zM457 554q0 55 -58 55q-31 0 -51.5 -13t-34.5 -33.5t-23 -46t-16 -50.5l-34 -113q-15 -51 -28 -100t-13 -84q0 -55 58 -55q26 0 45.5 10t33.5 28t24 41.5t18 50.5l33 110q18 60 32 112t14 88zM609 789h-144
l32 113h144zM416 789h-143l32 113h143z" />
    <glyph glyph-name="multiply" unicode="&#xd7;" horiz-adv-x="585" 
d="M522 431l-152 -152l152 -152l-103 -102l-152 152l-152 -152l-103 102l153 152l-153 152l103 103l152 -152l152 152z" />
    <glyph glyph-name="Oslash" unicode="&#xd8;" horiz-adv-x="656" 
d="M655 618q6 -23 6 -49t-6.5 -64.5t-17.5 -82.5t-25 -90.5t-28.5 -87.5t-28.5 -74t-24 -51q-20 -34 -46.5 -59.5t-62 -43t-82 -26t-107.5 -8.5q-50 0 -98.5 8t-83.5 33l-81 -80l-49 48l87 86q-6 14 -9.5 31.5t-3.5 38.5q0 24 6 58.5t15 74t21 81t23.5 78.5t22.5 67.5
t19 47.5q21 46 47.5 81.5t63.5 58.5t87.5 35t120.5 12q59 0 113 -12.5t88 -48.5l72 70l49 -46zM457 554q0 55 -58 55q-31 0 -51.5 -13t-34 -33.5t-22.5 -46t-17 -50.5q-9 -29 -17.5 -56.5t-16.5 -56.5q-4 -14 -9.5 -31.5t-10.5 -36.5l233 228q2 11 3 21.5t1 19.5zM199 168
q0 -54 58 -54q29 0 48.5 11.5t33 30t22.5 41.5t17 47q9 27 17 54.5t16 55.5l10 33z" />
    <glyph glyph-name="Ugrave" unicode="&#xd9;" horiz-adv-x="696" 
d="M602 245q-21 -74 -49 -124.5t-67.5 -81t-93.5 -44t-128 -13.5q-42 0 -86.5 5.5t-81.5 22t-61 47.5t-24 82q0 26 4 52t12 52l137 480h206l-138 -484q-5 -17 -9 -33.5t-4 -34.5q0 -31 16 -44t45 -13t49 10.5t33.5 27.5t22 40t15.5 47l138 484h201zM441 777l-109 145h168
l41 -145h-100z" />
    <glyph glyph-name="Uacute" unicode="&#xda;" horiz-adv-x="696" 
d="M602 245q-21 -74 -49 -124.5t-67.5 -81t-93.5 -44t-128 -13.5q-42 0 -86.5 5.5t-81.5 22t-61 47.5t-24 82q0 26 4 52t12 52l137 480h206l-138 -484q-5 -17 -9 -33.5t-4 -34.5q0 -31 16 -44t45 -13t49 10.5t33.5 27.5t22 40t15.5 47l138 484h201zM485 777h-109l114 145
h182z" />
    <glyph glyph-name="Ucircumflex" unicode="&#xdb;" horiz-adv-x="696" 
d="M602 245q-21 -74 -49 -124.5t-67.5 -81t-93.5 -44t-128 -13.5q-42 0 -86.5 5.5t-81.5 22t-61 47.5t-24 82q0 26 4 52t12 52l137 480h206l-138 -484q-5 -17 -9 -33.5t-4 -34.5q0 -31 16 -44t45 -13t49 10.5t33.5 27.5t22 40t15.5 47l138 484h201zM527 777l-49 77l-91 -77
h-114l144 145h147l61 -145h-98z" />
    <glyph glyph-name="Udieresis" unicode="&#xdc;" horiz-adv-x="696" 
d="M602 245q-21 -74 -49 -124.5t-67.5 -81t-93.5 -44t-128 -13.5q-42 0 -86.5 5.5t-81.5 22t-61 47.5t-24 82q0 26 4 52t12 52l137 480h206l-138 -484q-5 -17 -9 -33.5t-4 -34.5q0 -31 16 -44t45 -13t49 10.5t33.5 27.5t22 40t15.5 47l138 484h201zM624 789h-144l32 113h144
zM431 789h-143l32 113h143z" />
    <glyph glyph-name="Yacute" unicode="&#xdd;" horiz-adv-x="585" 
d="M342 219l-63 -219h-206l68 235l-61 488h205l6 -313l190 313h221zM417 777h-109l114 145h182z" />
    <glyph glyph-name="Thorn" unicode="&#xde;" horiz-adv-x="642" 
d="M645 481q0 -25 -4.5 -49t-11.5 -48q-22 -78 -53.5 -121.5t-73.5 -64.5t-94.5 -25t-116.5 -4h-78l-48 -169h-206l207 723h206l-27 -97h76q45 0 86 -5.5t71.5 -21.5t48.5 -44t18 -74zM433 440q0 31 -17.5 43t-46.5 12h-68l-56 -196h68q27 0 49 12.5t37.5 33t24.5 45.5t9 50
z" />
    <glyph glyph-name="germandbls" unicode="&#xdf;" horiz-adv-x="676" 
d="M635 611q0 -49 -24.5 -83t-54.5 -60t-54.5 -47.5t-24.5 -45.5t20.5 -44t45 -43.5t45 -53.5t20.5 -74q0 -41 -19.5 -76.5t-53.5 -58.5q-32 -22 -72.5 -31t-87.5 -9q-28 0 -58.5 3.5t-55.5 14.5t-41.5 31.5t-16.5 55.5q0 18 3.5 36t8.5 35h145q-3 -11 -5 -22.5t-2 -22.5
q0 -17 11.5 -24.5t28.5 -7.5q29 0 41.5 18t12.5 43q0 24 -21 47t-45.5 48.5t-45.5 55t-21 65.5q0 28 10 49t25.5 38t33 31t33 29.5t25.5 33t10 40.5q0 20 -13.5 34.5t-42.5 14.5q-32 0 -51.5 -10.5t-32.5 -32t-23 -54.5t-23 -78l-131 -456h-185l131 456q20 71 45.5 123
t64 86.5t93.5 51.5t135 17q37 0 75.5 -5t70 -18.5t51.5 -37.5t20 -62z" />
    <glyph glyph-name="agrave" unicode="&#xe0;" horiz-adv-x="570" 
d="M529 397q0 -22 -7 -52.5t-16.5 -62.5t-20 -62.5t-16.5 -53.5q-13 -46 -22.5 -89.5t-14.5 -76.5h-185l13 70q-19 -21 -36.5 -36.5t-37 -25.5t-42 -15t-50.5 -5t-52.5 6t-43 19t-29 34.5t-10.5 51.5q0 46 17.5 85.5t46.5 68.5q25 25 62.5 39.5t79 22t83.5 9.5t77 2
q5 17 11 37t6 37t-12 23.5t-28 6.5t-27 -6t-19 -16t-13.5 -23t-8.5 -26h-192q13 46 38.5 76.5t60.5 48.5t80 25t97 7q31 0 67.5 -3t68.5 -15t53.5 -35.5t21.5 -65.5zM303 247q-37 0 -64.5 -5.5t-46.5 -23.5q-16 -15 -27.5 -39.5t-11.5 -54.5q0 -20 12 -27.5t30 -7.5
q28 0 46 17t30 42t19 52t13 47zM319 578l-109 145h168l41 -145h-100z" />
    <glyph glyph-name="aacute" unicode="&#xe1;" horiz-adv-x="570" 
d="M529 397q0 -22 -7 -52.5t-16.5 -62.5t-20 -62.5t-16.5 -53.5q-13 -46 -22.5 -89.5t-14.5 -76.5h-185l13 70q-19 -21 -36.5 -36.5t-37 -25.5t-42 -15t-50.5 -5t-52.5 6t-43 19t-29 34.5t-10.5 51.5q0 46 17.5 85.5t46.5 68.5q25 25 62.5 39.5t79 22t83.5 9.5t77 2
q5 17 11 37t6 37t-12 23.5t-28 6.5t-27 -6t-19 -16t-13.5 -23t-8.5 -26h-192q13 46 38.5 76.5t60.5 48.5t80 25t97 7q31 0 67.5 -3t68.5 -15t53.5 -35.5t21.5 -65.5zM303 247q-37 0 -64.5 -5.5t-46.5 -23.5q-16 -15 -27.5 -39.5t-11.5 -54.5q0 -20 12 -27.5t30 -7.5
q28 0 46 17t30 42t19 52t13 47zM362 578h-109l114 145h182z" />
    <glyph glyph-name="acircumflex" unicode="&#xe2;" horiz-adv-x="570" 
d="M529 397q0 -22 -7 -52.5t-16.5 -62.5t-20 -62.5t-16.5 -53.5q-13 -46 -22.5 -89.5t-14.5 -76.5h-185l13 70q-19 -21 -36.5 -36.5t-37 -25.5t-42 -15t-50.5 -5t-52.5 6t-43 19t-29 34.5t-10.5 51.5q0 46 17.5 85.5t46.5 68.5q25 25 62.5 39.5t79 22t83.5 9.5t77 2
q5 17 11 37t6 37t-12 23.5t-28 6.5t-27 -6t-19 -16t-13.5 -23t-8.5 -26h-192q13 46 38.5 76.5t60.5 48.5t80 25t97 7q31 0 67.5 -3t68.5 -15t53.5 -35.5t21.5 -65.5zM303 247q-37 0 -64.5 -5.5t-46.5 -23.5q-16 -15 -27.5 -39.5t-11.5 -54.5q0 -20 12 -27.5t30 -7.5
q28 0 46 17t30 42t19 52t13 47zM403 578l-49 77l-91 -77h-114l144 145h147l61 -145h-98z" />
    <glyph glyph-name="atilde" unicode="&#xe3;" horiz-adv-x="570" 
d="M529 397q0 -22 -7 -52.5t-16.5 -62.5t-20 -62.5t-16.5 -53.5q-13 -46 -22.5 -89.5t-14.5 -76.5h-185l13 70q-19 -21 -36.5 -36.5t-37 -25.5t-42 -15t-50.5 -5t-52.5 6t-43 19t-29 34.5t-10.5 51.5q0 46 17.5 85.5t46.5 68.5q25 25 62.5 39.5t79 22t83.5 9.5t77 2
q5 17 11 37t6 37t-12 23.5t-28 6.5t-27 -6t-19 -16t-13.5 -23t-8.5 -26h-192q13 46 38.5 76.5t60.5 48.5t80 25t97 7q31 0 67.5 -3t68.5 -15t53.5 -35.5t21.5 -65.5zM303 247q-37 0 -64.5 -5.5t-46.5 -23.5q-16 -15 -27.5 -39.5t-11.5 -54.5q0 -20 12 -27.5t30 -7.5
q28 0 46 17t30 42t19 52t13 47zM571 717q-11 -24 -25.5 -46.5t-33 -40.5t-41.5 -29t-51 -11q-19 0 -38.5 5t-39 10.5t-39 10.5t-38.5 5q-17 0 -30.5 -12t-20.5 -27h-71q11 24 25.5 47t33.5 41t42 29t52 11q19 0 38 -5.5t37 -11.5t35 -11.5t32 -5.5q23 0 38 11t26 30h69z" />
    <glyph glyph-name="adieresis" unicode="&#xe4;" horiz-adv-x="570" 
d="M529 397q0 -22 -7 -52.5t-16.5 -62.5t-20 -62.5t-16.5 -53.5q-13 -46 -22.5 -89.5t-14.5 -76.5h-185l13 70q-19 -21 -36.5 -36.5t-37 -25.5t-42 -15t-50.5 -5t-52.5 6t-43 19t-29 34.5t-10.5 51.5q0 46 17.5 85.5t46.5 68.5q25 25 62.5 39.5t79 22t83.5 9.5t77 2
q5 17 11 37t6 37t-12 23.5t-28 6.5t-27 -6t-19 -16t-13.5 -23t-8.5 -26h-192q13 46 38.5 76.5t60.5 48.5t80 25t97 7q31 0 67.5 -3t68.5 -15t53.5 -35.5t21.5 -65.5zM303 247q-37 0 -64.5 -5.5t-46.5 -23.5q-16 -15 -27.5 -39.5t-11.5 -54.5q0 -20 12 -27.5t30 -7.5
q28 0 46 17t30 42t19 52t13 47zM511 600h-144l32 113h144zM318 600h-143l32 113h143z" />
    <glyph glyph-name="aring" unicode="&#xe5;" horiz-adv-x="570" 
d="M529 397q0 -22 -7 -52.5t-16.5 -62.5t-20 -62.5t-16.5 -53.5q-13 -46 -22.5 -89.5t-14.5 -76.5h-185l13 70q-19 -21 -36.5 -36.5t-37 -25.5t-42 -15t-50.5 -5t-52.5 6t-43 19t-29 34.5t-10.5 51.5q0 46 17.5 85.5t46.5 68.5q25 25 62.5 39.5t79 22t83.5 9.5t77 2
q5 17 11 37t6 37t-12 23.5t-28 6.5t-27 -6t-19 -16t-13.5 -23t-8.5 -26h-192q13 46 38.5 76.5t60.5 48.5t80 25t97 7q31 0 67.5 -3t68.5 -15t53.5 -35.5t21.5 -65.5zM303 247q-37 0 -64.5 -5.5t-46.5 -23.5q-16 -15 -27.5 -39.5t-11.5 -54.5q0 -20 12 -27.5t30 -7.5
q28 0 46 17t30 42t19 52t13 47zM471 674q0 -24 -9 -44t-24 -35t-35.5 -23.5t-44.5 -8.5t-44.5 8.5t-35.5 23.5t-24 35t-9 44t9 44t24 35t35.5 23.5t44.5 8.5t44.5 -8.5t35.5 -23.5t24 -35t9 -44zM413 674q0 25 -15.5 41.5t-39.5 16.5t-39.5 -16.5t-15.5 -41.5t15.5 -41.5
t39.5 -16.5t39.5 16.5t15.5 41.5z" />
    <glyph glyph-name="ae" unicode="&#xe6;" horiz-adv-x="830" 
d="M793 373q0 -29 -8 -65.5t-19 -73.5h-313q-8 -25 -14 -53.5t-6 -54.5q0 -45 41 -45q36 0 55.5 22t27.5 66h190q-14 -51 -37.5 -85.5t-55.5 -55.5t-72.5 -30.5t-89.5 -9.5q-41 0 -69.5 4t-48 13.5t-32.5 24.5t-22 37q-23 -20 -45.5 -35t-46.5 -25t-51.5 -14.5t-61.5 -4.5
q-32 0 -60.5 4.5t-49.5 16.5t-33 33.5t-12 55.5q0 42 13.5 79.5t39.5 64.5q25 27 63 43t80.5 24.5t86 11t79.5 2.5q5 17 10.5 36t5.5 36q0 19 -10.5 27t-28.5 8q-35 0 -50 -21t-23 -50h-190q14 49 40.5 79.5t61 48t75 23.5t83.5 6q62 0 99.5 -15t60.5 -53q32 36 72.5 52
t88.5 16q36 0 68 -7.5t56 -24.5t38 -44t14 -67zM608 386q0 40 -38 40q-20 0 -34 -8.5t-23.5 -23t-16 -33t-12.5 -38.5h112q5 16 8.5 31t3.5 32zM300 242q-29 0 -52 -2.5t-40.5 -11.5t-30 -25.5t-20.5 -44.5q-2 -8 -4 -15.5t-2 -16.5q0 -20 12 -29.5t30 -9.5q27 0 44.5 14
t28.5 36t18.5 49.5t15.5 55.5z" />
    <glyph glyph-name="ccedilla" unicode="&#xe7;" horiz-adv-x="530" 
d="M324 323q3 13 5.5 26t2.5 27q0 40 -37 40q-23 0 -39 -13.5t-28.5 -38t-23 -59t-22.5 -76.5q-6 -22 -13 -48.5t-7 -49.5q0 -20 8 -31.5t29 -11.5q36 0 53.5 27.5t31.5 70.5h184q-16 -53 -38.5 -89.5t-52.5 -59.5t-69.5 -34t-89.5 -14l-36 -51q10 3 22 3q15 0 29 -3.5
t25 -12t18 -21.5t7 -31q0 -27 -15 -47.5t-38.5 -35t-51 -21.5t-52.5 -7q-29 0 -57.5 7t-53.5 22l35 47q17 -8 34.5 -12.5t35.5 -4.5q28 0 46 11.5t18 33.5q0 13 -11.5 19t-28.5 6t-36 -7l-21 23l65 82q-34 2 -65.5 9.5t-55.5 23.5t-38.5 42.5t-14.5 67.5q0 30 5.5 63.5
t16.5 68.5q20 66 45.5 114t60.5 78.5t83 45t113 14.5q46 0 85 -6.5t67.5 -23t44.5 -44t16 -69.5q0 -11 -1.5 -24.5t-5.5 -25.5h-184z" />
    <glyph glyph-name="egrave" unicode="&#xe8;" horiz-adv-x="560" 
d="M523 372q0 -32 -7.5 -67t-20.5 -77h-313q-9 -31 -16 -60t-7 -49q0 -41 41 -41q19 0 33 8.5t23.5 21.5t16 29t11.5 32h190q-14 -51 -39.5 -85.5t-61 -56t-80.5 -30.5t-99 -9q-38 0 -76.5 6t-69.5 22.5t-50.5 44.5t-19.5 73q0 31 6.5 64.5t12.5 53.5q21 74 49 124.5
t66 81.5t87.5 44.5t115.5 13.5q39 0 76.5 -6.5t67 -23t47 -44t17.5 -70.5zM337 387q0 39 -37 39q-20 0 -34.5 -10t-24.5 -25.5t-17 -33.5t-11 -34h112q5 16 8.5 31.5t3.5 32.5zM308 578l-109 145h168l41 -145h-100z" />
    <glyph glyph-name="eacute" unicode="&#xe9;" horiz-adv-x="560" 
d="M523 372q0 -32 -7.5 -67t-20.5 -77h-313q-9 -31 -16 -60t-7 -49q0 -41 41 -41q19 0 33 8.5t23.5 21.5t16 29t11.5 32h190q-14 -51 -39.5 -85.5t-61 -56t-80.5 -30.5t-99 -9q-38 0 -76.5 6t-69.5 22.5t-50.5 44.5t-19.5 73q0 31 6.5 64.5t12.5 53.5q21 74 49 124.5
t66 81.5t87.5 44.5t115.5 13.5q39 0 76.5 -6.5t67 -23t47 -44t17.5 -70.5zM337 387q0 39 -37 39q-20 0 -34.5 -10t-24.5 -25.5t-17 -33.5t-11 -34h112q5 16 8.5 31.5t3.5 32.5zM351 578h-109l114 145h182z" />
    <glyph glyph-name="ecircumflex" unicode="&#xea;" horiz-adv-x="560" 
d="M523 372q0 -32 -7.5 -67t-20.5 -77h-313q-9 -31 -16 -60t-7 -49q0 -41 41 -41q19 0 33 8.5t23.5 21.5t16 29t11.5 32h190q-14 -51 -39.5 -85.5t-61 -56t-80.5 -30.5t-99 -9q-38 0 -76.5 6t-69.5 22.5t-50.5 44.5t-19.5 73q0 31 6.5 64.5t12.5 53.5q21 74 49 124.5
t66 81.5t87.5 44.5t115.5 13.5q39 0 76.5 -6.5t67 -23t47 -44t17.5 -70.5zM337 387q0 39 -37 39q-20 0 -34.5 -10t-24.5 -25.5t-17 -33.5t-11 -34h112q5 16 8.5 31.5t3.5 32.5zM392 578l-49 77l-91 -77h-114l144 145h147l61 -145h-98z" />
    <glyph glyph-name="edieresis" unicode="&#xeb;" horiz-adv-x="560" 
d="M523 372q0 -32 -7.5 -67t-20.5 -77h-313q-9 -31 -16 -60t-7 -49q0 -41 41 -41q19 0 33 8.5t23.5 21.5t16 29t11.5 32h190q-14 -51 -39.5 -85.5t-61 -56t-80.5 -30.5t-99 -9q-38 0 -76.5 6t-69.5 22.5t-50.5 44.5t-19.5 73q0 31 6.5 64.5t12.5 53.5q21 74 49 124.5
t66 81.5t87.5 44.5t115.5 13.5q39 0 76.5 -6.5t67 -23t47 -44t17.5 -70.5zM337 387q0 39 -37 39q-20 0 -34.5 -10t-24.5 -25.5t-17 -33.5t-11 -34h112q5 16 8.5 31.5t3.5 32.5zM500 600h-144l32 113h144zM307 600h-143l32 113h143z" />
    <glyph glyph-name="igrave" unicode="&#xec;" horiz-adv-x="296" 
d="M141 0h-192l145 504h192zM190 578l-109 145h168l41 -145h-100z" />
    <glyph glyph-name="iacute" unicode="&#xed;" horiz-adv-x="296" 
d="M141 0h-192l145 504h192zM233 578h-109l114 145h182z" />
    <glyph glyph-name="icircumflex" unicode="&#xee;" horiz-adv-x="296" 
d="M141 0h-192l145 504h192zM274 578l-49 77l-91 -77h-114l144 145h147l61 -145h-98z" />
    <glyph glyph-name="idieresis" unicode="&#xef;" horiz-adv-x="296" 
d="M141 0h-192l145 504h192zM382 600h-144l32 113h144zM189 600h-143l32 113h143z" />
    <glyph glyph-name="eth" unicode="&#xf0;" horiz-adv-x="554" 
d="M447 674q38 -48 59.5 -108.5t21.5 -121.5q0 -45 -4.5 -85t-17.5 -83q-21 -71 -44 -125t-59 -90.5t-89 -55t-132 -18.5q-38 0 -74.5 6.5t-65.5 23.5t-46.5 45.5t-17.5 72.5q0 25 4.5 52t11.5 51q16 59 35.5 105.5t49 79t73.5 49.5t111 17q18 0 37 -2.5t36.5 -9t32 -17.5
t23.5 -28q-3 22 -8 46.5t-12.5 48.5t-18.5 45.5t-27 36.5l-111 -62l-42 51l100 57q-15 11 -31 19.5t-33 15.5l92 88q26 -11 50.5 -24.5t46.5 -30.5l110 62l47 -51zM330 360q0 21 -10 28.5t-30 7.5q-27 0 -44.5 -17t-28.5 -41t-17.5 -51t-12.5 -47q-7 -24 -15 -54t-8 -55
q0 -20 8.5 -31.5t29.5 -11.5q25 0 42 17t28 41t18.5 50t12.5 44q3 12 8 27.5t9 32t7 32.5t3 28z" />
    <glyph glyph-name="ntilde" unicode="&#xf1;" horiz-adv-x="590" 
d="M552 428q0 -17 -2 -31t-7 -30l-105 -367h-192l95 330q5 18 8 31t3 24q0 18 -9.5 26.5t-26.5 8.5q-20 0 -33.5 -9t-22.5 -23t-15.5 -30.5t-10.5 -32.5l-93 -325h-192l145 504h189l-15 -53q37 32 75 48.5t87 16.5q22 0 44 -4t39 -13.5t28 -26.5t11 -44zM573 717
q-11 -24 -25.5 -46.5t-33 -40.5t-41.5 -29t-51 -11q-19 0 -38.5 5t-39 10.5t-39 10.5t-38.5 5q-17 0 -30.5 -12t-20.5 -27h-71q11 24 25.5 47t33.5 41t42 29t52 11q19 0 38 -5.5t37 -11.5t35 -11.5t32 -5.5q23 0 38 11t26 30h69z" />
    <glyph glyph-name="ograve" unicode="&#xf2;" horiz-adv-x="554" 
d="M515 375q0 -38 -5.5 -67t-14.5 -61q-20 -69 -43.5 -118.5t-59 -80.5t-85.5 -45.5t-122 -14.5q-39 0 -76 6t-66 21.5t-47 44t-18 73.5q0 57 17 114q20 72 45 123t61 83.5t86.5 47.5t122.5 15q38 0 74.5 -5.5t65.5 -21.5t47 -43.5t18 -70.5zM331 376q0 40 -38 40
q-21 0 -36 -12.5t-27 -35.5t-22.5 -55.5t-22.5 -72.5q-7 -24 -15 -54t-8 -55q0 -20 7 -31.5t30 -11.5q20 0 34.5 9.5t25.5 29t21 47.5t21 66q4 14 9.5 32t10 37t7.5 36.5t3 30.5zM309 578l-109 145h168l41 -145h-100z" />
    <glyph glyph-name="oacute" unicode="&#xf3;" horiz-adv-x="554" 
d="M515 375q0 -38 -5.5 -67t-14.5 -61q-20 -69 -43.5 -118.5t-59 -80.5t-85.5 -45.5t-122 -14.5q-39 0 -76 6t-66 21.5t-47 44t-18 73.5q0 57 17 114q20 72 45 123t61 83.5t86.5 47.5t122.5 15q38 0 74.5 -5.5t65.5 -21.5t47 -43.5t18 -70.5zM331 376q0 40 -38 40
q-21 0 -36 -12.5t-27 -35.5t-22.5 -55.5t-22.5 -72.5q-7 -24 -15 -54t-8 -55q0 -20 7 -31.5t30 -11.5q20 0 34.5 9.5t25.5 29t21 47.5t21 66q4 14 9.5 32t10 37t7.5 36.5t3 30.5zM352 578h-109l114 145h182z" />
    <glyph glyph-name="ocircumflex" unicode="&#xf4;" horiz-adv-x="554" 
d="M515 375q0 -38 -5.5 -67t-14.5 -61q-20 -69 -43.5 -118.5t-59 -80.5t-85.5 -45.5t-122 -14.5q-39 0 -76 6t-66 21.5t-47 44t-18 73.5q0 57 17 114q20 72 45 123t61 83.5t86.5 47.5t122.5 15q38 0 74.5 -5.5t65.5 -21.5t47 -43.5t18 -70.5zM331 376q0 40 -38 40
q-21 0 -36 -12.5t-27 -35.5t-22.5 -55.5t-22.5 -72.5q-7 -24 -15 -54t-8 -55q0 -20 7 -31.5t30 -11.5q20 0 34.5 9.5t25.5 29t21 47.5t21 66q4 14 9.5 32t10 37t7.5 36.5t3 30.5zM393 578l-49 77l-91 -77h-114l144 145h147l61 -145h-98z" />
    <glyph glyph-name="otilde" unicode="&#xf5;" horiz-adv-x="554" 
d="M515 375q0 -38 -5.5 -67t-14.5 -61q-20 -69 -43.5 -118.5t-59 -80.5t-85.5 -45.5t-122 -14.5q-39 0 -76 6t-66 21.5t-47 44t-18 73.5q0 57 17 114q20 72 45 123t61 83.5t86.5 47.5t122.5 15q38 0 74.5 -5.5t65.5 -21.5t47 -43.5t18 -70.5zM331 376q0 40 -38 40
q-21 0 -36 -12.5t-27 -35.5t-22.5 -55.5t-22.5 -72.5q-7 -24 -15 -54t-8 -55q0 -20 7 -31.5t30 -11.5q20 0 34.5 9.5t25.5 29t21 47.5t21 66q4 14 9.5 32t10 37t7.5 36.5t3 30.5zM561 717q-11 -24 -25.5 -46.5t-33 -40.5t-41.5 -29t-51 -11q-19 0 -38.5 5t-39 10.5t-39 10.5
t-38.5 5q-17 0 -30.5 -12t-20.5 -27h-71q11 24 25.5 47t33.5 41t42 29t52 11q19 0 38 -5.5t37 -11.5t35 -11.5t32 -5.5q23 0 38 11t26 30h69z" />
    <glyph glyph-name="odieresis" unicode="&#xf6;" horiz-adv-x="554" 
d="M515 375q0 -38 -5.5 -67t-14.5 -61q-20 -69 -43.5 -118.5t-59 -80.5t-85.5 -45.5t-122 -14.5q-39 0 -76 6t-66 21.5t-47 44t-18 73.5q0 57 17 114q20 72 45 123t61 83.5t86.5 47.5t122.5 15q38 0 74.5 -5.5t65.5 -21.5t47 -43.5t18 -70.5zM331 376q0 40 -38 40
q-21 0 -36 -12.5t-27 -35.5t-22.5 -55.5t-22.5 -72.5q-7 -24 -15 -54t-8 -55q0 -20 7 -31.5t30 -11.5q20 0 34.5 9.5t25.5 29t21 47.5t21 66q4 14 9.5 32t10 37t7.5 36.5t3 30.5zM501 600h-144l32 113h144zM308 600h-143l32 113h143z" />
    <glyph glyph-name="divide" unicode="&#xf7;" horiz-adv-x="585" 
d="M354 558v-166h-171v166h171zM6 206v146h525v-146h-525zM354 166v-166h-171v166h171z" />
    <glyph glyph-name="oslash" unicode="&#xf8;" horiz-adv-x="554" 
d="M515 375q0 -38 -5.5 -67t-14.5 -61q-20 -69 -43.5 -118.5t-59 -80.5t-85.5 -45.5t-122 -14.5q-36 0 -70.5 5t-63.5 19l-89 -86l-43 50l81 78q-22 31 -22 79q0 57 17 114q20 72 45 123t61 83.5t86.5 47.5t122.5 15q38 0 74.5 -5.5t65.5 -21.5l83 81l45 -48l-80 -77
q17 -29 17 -70zM349 392q-2 40 -46 40q-25 0 -43.5 -13.5t-33.5 -39t-27.5 -61t-26.5 -79.5l-8 -26zM145 103q3 -14 12.5 -22.5t31.5 -8.5q24 0 41.5 10.5t31.5 31.5t25.5 52.5t24.5 72.5q5 15 12 38z" />
    <glyph glyph-name="ugrave" unicode="&#xf9;" horiz-adv-x="590" 
d="M434 0h-189l15 53q-37 -32 -75 -48.5t-87 -16.5q-26 0 -48.5 4.5t-38.5 15t-25 27t-9 41.5q0 15 2 28t7 33l104 367h192l-95 -330q-4 -14 -7.5 -27.5t-3.5 -27.5q0 -18 9.5 -26.5t26.5 -8.5q19 0 33 9t23 23t15 30.5t11 32.5l93 325h192zM336 578l-109 145h168l41 -145
h-100z" />
    <glyph glyph-name="uacute" unicode="&#xfa;" horiz-adv-x="590" 
d="M434 0h-189l15 53q-37 -32 -75 -48.5t-87 -16.5q-26 0 -48.5 4.5t-38.5 15t-25 27t-9 41.5q0 15 2 28t7 33l104 367h192l-95 -330q-4 -14 -7.5 -27.5t-3.5 -27.5q0 -18 9.5 -26.5t26.5 -8.5q19 0 33 9t23 23t15 30.5t11 32.5l93 325h192zM379 578h-109l114 145h182z" />
    <glyph glyph-name="ucircumflex" unicode="&#xfb;" horiz-adv-x="590" 
d="M434 0h-189l15 53q-37 -32 -75 -48.5t-87 -16.5q-26 0 -48.5 4.5t-38.5 15t-25 27t-9 41.5q0 15 2 28t7 33l104 367h192l-95 -330q-4 -14 -7.5 -27.5t-3.5 -27.5q0 -18 9.5 -26.5t26.5 -8.5q19 0 33 9t23 23t15 30.5t11 32.5l93 325h192zM420 578l-49 77l-91 -77h-114
l144 145h147l61 -145h-98z" />
    <glyph glyph-name="udieresis" unicode="&#xfc;" horiz-adv-x="590" 
d="M434 0h-189l15 53q-37 -32 -75 -48.5t-87 -16.5q-26 0 -48.5 4.5t-38.5 15t-25 27t-9 41.5q0 15 2 28t7 33l104 367h192l-95 -330q-4 -14 -7.5 -27.5t-3.5 -27.5q0 -18 9.5 -26.5t26.5 -8.5q19 0 33 9t23 23t15 30.5t11 32.5l93 325h192zM528 600h-144l32 113h144z
M335 600h-143l32 113h143z" />
    <glyph glyph-name="yacute" unicode="&#xfd;" horiz-adv-x="544" 
d="M172 -198h-183l95 179l-41 523h186l-11 -349l168 349h180zM355 578h-109l114 145h182z" />
    <glyph glyph-name="thorn" unicode="&#xfe;" horiz-adv-x="597" 
d="M558 400q0 -36 -8 -72.5t-18 -71.5q-15 -51 -32 -99.5t-45 -86t-71.5 -60t-110.5 -22.5q-36 0 -69.5 13t-48.5 48l-71 -243h-192l262 917h192l-80 -278q32 37 70.5 54t87.5 17q29 0 53.5 -6t42.5 -19.5t28 -35.5t10 -55zM368 383q0 39 -40 39q-41 0 -63.5 -42.5
t-44.5 -121.5q-8 -27 -17.5 -64t-9.5 -66q0 -20 7 -32t29 -12q24 0 40.5 12.5t28.5 36t22 56t22 72.5q7 25 16.5 60.5t9.5 61.5z" />
    <glyph glyph-name="ydieresis" unicode="&#xff;" horiz-adv-x="544" 
d="M172 -198h-183l95 179l-41 523h186l-11 -349l168 349h180zM494 600h-144l32 113h144zM301 600h-143l32 113h143z" />
    <glyph glyph-name=".null" horiz-adv-x="567" 
 />
    <glyph glyph-name="grave.cap" horiz-adv-x="255" 
d="M172 777l-109 145h168l41 -145h-100z" />
    <glyph glyph-name="acute.cap" horiz-adv-x="255" 
d="M216 777h-109l114 145h182z" />
    <glyph glyph-name="circumflex.cap" horiz-adv-x="255" 
d="M269 777l-49 77l-91 -77h-114l144 145h147l61 -145h-98z" />
    <glyph glyph-name="caron.cap" horiz-adv-x="255" 
d="M264 777h-147l-61 145h98l49 -77l91 77h114z" />
    <glyph glyph-name="caron.alt" horiz-adv-x="296" 
d="M218 447h-122l96 276h161z" />
    <glyph glyph-name="tilde.cap" horiz-adv-x="255" 
d="M425 916q-11 -24 -25.5 -46.5t-33 -40.5t-41.5 -29t-51 -11q-19 0 -38.5 5t-39 10.5t-39 10.5t-38.5 5q-17 0 -30.5 -12t-20.5 -27h-71q11 24 25.5 47t33.5 41t42 29t52 11q19 0 38 -5.5t37 -11.5t35 -11.5t32 -5.5q23 0 38 11t26 30h69z" />
    <glyph glyph-name="dieresis.cap" horiz-adv-x="255" 
d="M365 789h-144l32 113h144zM172 789h-143l32 113h143z" />
    <glyph glyph-name="macron.cap" horiz-adv-x="255" 
d="M359 804h-316l23 78h316z" />
    <glyph glyph-name="breve.cap" horiz-adv-x="255" 
d="M412 931q-29 -74 -82 -112.5t-132 -38.5q-28 0 -54 5t-46.5 17.5t-32.5 33.5t-12 52q0 20 5 43h71q-1 -5 -1 -9.5v-6.5q0 -24 22 -39.5t66 -15.5q41 0 74.5 16t50.5 55h71z" />
    <glyph glyph-name="ring.cap" horiz-adv-x="255" 
d="M326 867q0 -24 -9 -44t-24 -35t-35.5 -23.5t-44.5 -8.5t-44.5 8.5t-35.5 23.5t-24 35t-9 44t9 44t24 35t35.5 23.5t44.5 8.5t44.5 -8.5t35.5 -23.5t24 -35t9 -44zM268 867q0 25 -15.5 41.5t-39.5 16.5t-39.5 -16.5t-15.5 -41.5t15.5 -41.5t39.5 -16.5t39.5 16.5
t15.5 41.5z" />
    <glyph glyph-name="hungarumlaut.cap" horiz-adv-x="255" 
d="M327 777h-104l122 145h175zM110 777h-103l121 145h175z" />
    <glyph glyph-name="dotaccent.cap" horiz-adv-x="255" 
d="M268 789h-144l32 113h144z" />
    <glyph glyph-name="commaaccent" horiz-adv-x="296" 
d="M-11 -247h-121l88 193h151z" />
    <glyph glyph-name="commaaccent.alt" horiz-adv-x="587" 
d="M363 723h119l-67 -145h-140z" />
    <glyph glyph-name="zero.prop" horiz-adv-x="576" 
d="M593 600q0 -21 -4.5 -48.5t-11.5 -59.5t-16.5 -67t-19.5 -71q-28 -98 -52.5 -168t-60 -114.5t-90 -65.5t-141.5 -21q-38 0 -75.5 5.5t-67.5 21t-49 43.5t-19 73q0 41 13 100.5t32 125.5q29 102 54.5 174.5t62 119t92 68.5t144.5 22q36 0 73 -5t67.5 -19.5t49.5 -41.5
t19 -72zM405 588q0 19 -9 31.5t-30 12.5q-22 0 -37.5 -10.5t-28 -33t-24 -56.5t-24.5 -81l-55 -191q-14 -47 -20 -78t-6 -51q0 -22 10.5 -31t29.5 -9q20 0 34.5 8.5t26.5 27.5t23 49t23 72l57 197q16 56 23 87.5t7 55.5z" />
    <glyph glyph-name="one.prop" horiz-adv-x="471" 
d="M263 0h-198l153 520q-33 -22 -69 -38t-71 -33l43 161q46 26 87.5 53.5t83.5 59.5h178z" />
    <glyph glyph-name="two.prop" horiz-adv-x="576" 
d="M605 599q0 -17 -2 -34t-5 -28q-12 -45 -33.5 -83.5t-53 -75t-73 -72t-91.5 -72.5l-165 -123h293l-32 -111h-525l39 136l133 98q84 62 145 109t100 87.5t57.5 78t18.5 81.5q0 21 -11.5 31.5t-31.5 10.5t-35 -8.5t-26 -22.5t-17.5 -32.5t-10.5 -37.5h-192q12 61 41 101.5
t69.5 63.5t90 32.5t102.5 9.5q45 0 84.5 -8t68.5 -24.5t45.5 -43t16.5 -63.5z" />
    <glyph glyph-name="three.prop" horiz-adv-x="576" 
d="M586 612q0 -20 -2 -36t-6 -30q-11 -39 -24 -67t-31 -48t-42.5 -34t-59.5 -24q43 -13 63.5 -33.5t20.5 -58.5q0 -26 -7 -55t-15 -53q-20 -57 -49 -93.5t-67 -57.5t-85 -29t-104 -8q-40 0 -79.5 5t-70.5 18.5t-50 37t-19 60.5q0 21 2.5 41.5t8.5 41.5h192q-4 -14 -7.5 -29
t-3.5 -29q0 -40 42 -40q23 0 40 8t29 21.5t19.5 32t13.5 38.5t10.5 40t4.5 37q0 16 -7.5 26.5t-19 16t-26 7.5t-28.5 2h-16t-15 -1l31 106q5 -2 12 -2.5t12 -0.5q33 0 54 7t35 21.5t23.5 37.5t18.5 55q4 13 6.5 27.5t2.5 24.5q0 38 -39 38q-38 0 -53 -24t-24 -59h-192
q18 58 47 95t67 57.5t85.5 28t102.5 7.5q32 0 67 -5t64.5 -19t48.5 -38.5t19 -63.5z" />
    <glyph glyph-name="four.prop" horiz-adv-x="576" 
d="M461 264h77l-32 -110h-77l-44 -154h-198l44 154h-259l40 140l302 429h278zM143 260h126l109 358z" />
    <glyph glyph-name="five.prop" horiz-adv-x="576" 
d="M585 613h-279l-52 -182q28 27 63 38.5t73 11.5q29 0 54.5 -6.5t45 -20.5t30.5 -37.5t11 -56.5q0 -30 -7.5 -64.5t-15.5 -63.5q-21 -74 -48 -121.5t-65 -75.5t-90 -39t-125 -11q-44 0 -81.5 7t-65 21.5t-43 37.5t-15.5 56t6 57h192q-2 -8 -3 -17.5t-1 -17.5q0 -38 41 -38
q22 0 37.5 10t26.5 28.5t20 45t18 58.5q7 23 15.5 54.5t8.5 55.5t-8.5 35.5t-30.5 11.5q-15 0 -27.5 -7t-22 -18.5t-16.5 -25.5t-11 -27h-189l118 411h468z" />
    <glyph glyph-name="six.prop" horiz-adv-x="576" 
d="M609 620q0 -11 -1 -23.5t-3 -23.5h-190q2 7 4 15.5t2 16.5q0 20 -11.5 28.5t-30.5 8.5q-29 0 -47 -16.5t-32 -47.5q-12 -26 -28.5 -71.5t-30.5 -92.5q31 26 62 37.5t78 11.5q31 0 58 -6.5t47 -20.5t31 -37.5t11 -56.5q0 -34 -9 -72t-19 -67q-20 -60 -45.5 -101.5
t-61.5 -67.5t-83.5 -37.5t-109.5 -11.5q-38 0 -75.5 6t-67.5 21.5t-48.5 43.5t-18.5 73q0 47 11.5 98.5t24.5 96.5q32 111 62.5 189.5t71 128.5t98 73t143.5 23q37 0 74 -5t67 -18t48.5 -36t18.5 -59zM336 325q0 41 -43 41q-22 0 -38 -11.5t-27.5 -30t-19.5 -41.5t-14 -45
q-7 -23 -14.5 -53t-7.5 -53t10.5 -32t32.5 -9q21 0 36.5 10.5t27 29t20.5 45t19 59.5q7 23 12.5 46.5t5.5 43.5z" />
    <glyph glyph-name="seven.prop" horiz-adv-x="488" 
d="M511 588l-325 -588h-203l357 609h-259l32 114h438z" />
    <glyph glyph-name="eight.prop" horiz-adv-x="576" 
d="M602 609q0 -17 -1.5 -32.5t-6.5 -32.5q-10 -36 -23 -62.5t-31 -45.5t-41 -32t-54 -23q40 -17 55.5 -41t15.5 -61q0 -13 -3 -31t-8 -38q-15 -63 -39.5 -106t-61.5 -69.5t-88 -38t-119 -11.5q-40 0 -79.5 5.5t-70.5 20.5t-50.5 40.5t-19.5 65.5q0 44 12 85q23 82 61.5 123
t100.5 57q-32 11 -52 35.5t-20 60.5q0 18 4 37t9 36q15 53 42.5 89t64 57.5t81.5 31t96 9.5q36 0 76 -4.5t73.5 -18.5t55 -39.5t21.5 -66.5zM410 597q0 18 -11.5 27.5t-31.5 9.5q-35 0 -52.5 -26.5t-31.5 -73.5q-5 -15 -9 -32t-4 -32q0 -38 41 -38q19 0 33 8t23.5 21.5
t17 32t13.5 40.5q12 40 12 63zM323 280q0 46 -43 46q-35 0 -55.5 -26.5t-38.5 -81.5q-8 -22 -12.5 -45t-4.5 -38q0 -21 10.5 -33.5t33.5 -12.5q22 0 37 8.5t25.5 23t17.5 34.5t14 44q8 26 12 46.5t4 34.5z" />
    <glyph glyph-name="nine.prop" horiz-adv-x="576" 
d="M593 594q0 -22 -3 -44.5t-9 -50.5t-16 -64t-24 -85q-30 -103 -58 -173t-66 -112.5t-93 -61t-140 -18.5q-44 0 -82.5 6.5t-67.5 21t-45.5 39t-16.5 60.5q0 14 2 25.5t6 24.5h192q-2 -8 -4 -16.5t-2 -16.5q0 -22 9.5 -33.5t33.5 -11.5q23 0 39 11.5t27.5 29.5t19 38.5
t12.5 38.5l36 120q-22 -17 -52 -31t-78 -14q-35 0 -63.5 7t-49 23t-32 42t-11.5 63q0 21 3.5 40.5t9.5 40.5q19 65 45.5 111.5t64 76t87 43.5t114.5 14q37 0 75 -5.5t68.5 -21t49.5 -44t19 -73.5zM410 587q0 21 -10.5 33t-33.5 12q-19 0 -34 -11t-26.5 -28.5t-20.5 -40
t-16 -46.5q-6 -20 -12 -44t-6 -45t9.5 -32.5t32.5 -11.5q22 0 36.5 8.5t25.5 25t19.5 41t17.5 55.5q9 30 13.5 49t4.5 35z" />
    <glyph glyph-name="Euro.prop" horiz-adv-x="576" 
d="M275 256q-12 -43 -16 -64.5t-4 -31.5q0 -29 17.5 -42t50.5 -13q43 0 74.5 17t58.5 47v-147q-36 -22 -81 -29.5t-88 -7.5q-39 0 -78 4.5t-71 20t-52 45t-20 79.5q0 15 4 43t17 79h-79l50 92h54q4 13 8.5 27.5t9.5 29.5h-82l50 92h62q22 63 49.5 107.5t67 73t94 41.5
t129.5 13q37 0 78 -12t67 -39l-68 -126q-3 16 -13.5 27t-24 17.5t-30 9.5t-31.5 3q-28 0 -48 -7t-35 -21.5t-26.5 -36t-21.5 -50.5h195l-50 -92h-174l-17 -57h156l-50 -92h-132z" />
    <glyph glyph-name="cent.prop" horiz-adv-x="556" 
d="M521 373q0 -11 -1.5 -24.5t-5.5 -25.5h-184q3 13 5.5 26t2.5 27q0 40 -37 40q-23 0 -39 -13.5t-28.5 -38t-23 -59t-22.5 -76.5q-6 -22 -13 -48.5t-7 -49.5q0 -20 8 -31.5t29 -11.5q36 0 53.5 27.5t31.5 70.5h184q-18 -58 -42.5 -96.5t-59.5 -61t-81 -31.5t-106 -9h-15
t-14 2l-47 -86h-91l56 102q-18 4 -34 15t-28.5 27t-20 37t-7.5 47q0 30 5.5 63.5t16.5 68.5q20 66 45.5 114t60.5 78.5t83 45t113 14.5h16t15 -1l49 89h91l-56 -102q45 -14 71.5 -44.5t26.5 -84.5z" />
    <glyph glyph-name="dollar.prop" horiz-adv-x="576" 
d="M585 576q0 -22 -4.5 -41t-10.5 -39h-177q5 14 8.5 29.5t3.5 30.5q0 43 -42 43q-34 0 -58.5 -23t-24.5 -58q0 -25 21 -43.5t53 -36.5l18 -10q27 -15 52 -31t44 -35.5t30.5 -44t11.5 -56.5q0 -16 -2.5 -31t-7.5 -30q-14 -47 -39.5 -78.5t-59 -51t-73 -29.5t-81.5 -13
l-28 -98h-87l28 97q-31 1 -62 6.5t-55.5 19t-39.5 37.5t-15 62q0 22 4 40.5t10 38.5h179q-4 -13 -6.5 -26t-2.5 -27q0 -50 53 -50q18 0 34 7.5t28.5 20.5t19.5 29t7 34q0 30 -21.5 49.5t-71.5 46.5l-32 17q-48 26 -77 57.5t-29 79.5q0 24 8 51q13 47 38 79t58 52.5
t73.5 30.5t84.5 13l29 99h87l-28 -98q28 -2 55.5 -8t49 -19.5t34.5 -36t13 -56.5z" />
    <glyph glyph-name="sterling.prop" horiz-adv-x="576" 
d="M618 622q0 -38 -10 -72h-176q2 6 3.5 14.5t1.5 15.5q0 12 -4 22t-23 10q-23 0 -36.5 -20.5t-25.5 -62.5l-27 -92h134l-36 -124h-133l-52 -184h243l-37 -129h-483l37 129h58l52 184h-58l36 124h58l21 72q16 54 34 95.5t47 70t74.5 43t115.5 14.5q36 0 70 -4.5t59.5 -16.5
t41 -33.5t15.5 -55.5z" />
    <glyph glyph-name="florin.prop" horiz-adv-x="488" 
d="M504 585q-12 3 -27 3q-44 0 -63 -40l-52 -111h75l-47 -110h-78l-125 -269q-26 -55 -52 -97t-60.5 -70t-80 -42.5t-110.5 -14.5q-13 0 -25.5 1t-25.5 5l60 131q17 -7 37 -7q15 0 26.5 9t17.5 22l154 332h-58l48 110h60l57 121q43 90 107 128t164 38q14 0 29.5 -0.5
t28.5 -2.5z" />
    <glyph glyph-name="yen.prop" horiz-adv-x="576" 
d="M395 358h134l-26 -92l-152 2l-14 -59h150l-27 -92h-150l-33 -117h-191l33 117h-148l27 92h148l16 57h-149l26 92h134l-38 365h199l-32 -291l135 291h206z" />
    <glyph glyph-name="zero.numerator" 
d="M158 298q-62 0 -86 26t-24 70q0 26 5 50.5t16 65.5q17 65 35 107.5t42 67.5t57 35t80 10q62 0 86.5 -26t24.5 -70q0 -26 -5 -50.5t-16 -65.5q-17 -65 -35 -107.5t-42 -67.5t-57.5 -35t-80.5 -10zM260 510q9 29 15 50t10 35.5t5.5 24t1.5 15.5q0 25 -29 25
q-12 0 -20.5 -4.5t-17.5 -19t-19 -42.5t-24 -76q-9 -29 -15 -50t-10 -35.5t-5.5 -24t-1.5 -15.5q0 -25 29 -25q12 0 20.5 4.5t17.5 19t19 42.5t24 76z" />
    <glyph glyph-name="one.numerator" 
d="M224 304h-122l88 306q-23 -14 -45 -23.5t-48 -18.5l27 93q29 13 55.5 29t52.5 34h113z" />
    <glyph glyph-name="two.numerator" 
d="M394 649q0 -26 -8.5 -48t-22 -42t-31 -37t-36.5 -32l-128 -105h157l-23 -81h-293l26 91l183 153q24 20 40 40.5t16 43.5q0 19 -19 19q-21 0 -31.5 -14t-15.5 -32h-113q18 65 64.5 95t111.5 30q19 0 41 -3.5t40 -12.5t30 -24.5t12 -40.5z" />
    <glyph glyph-name="three.numerator" 
d="M400 653q0 -20 -4.5 -39.5t-14.5 -36.5t-26 -30t-39 -20q38 -18 38 -61q0 -10 -2.5 -23t-4.5 -20q-11 -33 -26 -57t-38.5 -39t-55.5 -22t-76 -7q-54 0 -85 18t-31 67q0 15 2.5 27.5t6.5 26.5h110q-3 -10 -5.5 -20.5t-2.5 -21.5q0 -27 28 -27q15 0 25.5 9.5t17.5 23
t10.5 29t3.5 27.5q0 15 -6 22.5t-16 10.5t-21.5 3.5t-22.5 0.5h-9l17 61q97 -9 113 59q3 10 3 23q0 23 -25 23q-23 0 -34 -13.5t-17 -35.5h-111q23 64 68.5 91.5t111.5 27.5q19 0 40 -3t38 -11.5t28.5 -23.5t11.5 -39z" />
    <glyph glyph-name="four.numerator" 
d="M323 469h33l-20 -71h-33l-27 -94h-117l26 92h-153l24 82l191 246h149zM138 469h82l52 180z" />
    <glyph glyph-name="five.numerator" 
d="M354 454q-13 -45 -29.5 -75t-40.5 -48t-56.5 -25.5t-76.5 -7.5q-23 0 -43.5 3.5t-35.5 11.5t-24 22t-9 34q0 16 6 39h109q-1 -5 -1.5 -9t-0.5 -8q0 -11 6 -17t22 -6q19 0 33 16t28 63q12 39 12 58q0 23 -27 23q-21 0 -32.5 -15.5t-15.5 -29.5h-108l69 241h278l-21 -72
h-170l-27 -96q17 16 41.5 24.5t45.5 8.5q35 0 57 -17t22 -52q0 -14 -2.5 -30t-8.5 -36z" />
    <glyph glyph-name="six.numerator" 
d="M347 435q-13 -41 -30 -67.5t-39.5 -42t-52 -21.5t-68.5 -6q-63 0 -90 24t-27 69q0 18 5.5 43.5t14.5 57.5q20 71 41 117t47 73t59.5 37.5t79.5 10.5q25 0 46.5 -3.5t37 -12.5t24.5 -23.5t9 -36.5q0 -7 -0.5 -12.5t-2.5 -13.5h-110q3 9 3 16q0 12 -8 17t-21 5
q-25 0 -41 -25.5t-31 -70.5l-9 -27q20 17 43.5 25.5t47.5 8.5q45 0 64.5 -20.5t19.5 -53.5q0 -29 -12 -68zM238 444q4 13 6.5 24t2.5 19q0 12 -6.5 18.5t-23.5 6.5q-26 0 -39.5 -19t-21.5 -47q-5 -18 -8 -30t-3 -22q0 -13 7 -19.5t24 -6.5q24 0 36.5 17.5t25.5 58.5z" />
    <glyph glyph-name="seven.numerator" 
d="M182 304h-123l215 346h-143l21 74h248l-25 -88z" />
    <glyph glyph-name="eight.numerator" 
d="M347 423q-19 -67 -63.5 -96t-123.5 -29q-63 0 -93.5 18t-30.5 59q0 19 8 48q11 37 31 62t54 40q-18 7 -25.5 19.5t-7.5 31.5q0 17 6 40q17 60 63 87t119 27q24 0 46 -4.5t38.5 -14.5t26 -25.5t9.5 -37.5q0 -20 -6 -39q-8 -29 -28 -52t-49 -32q17 -9 25.5 -21.5t8.5 -32.5
q0 -18 -8 -48zM289 611q5 17 5 26q0 25 -29 25q-20 0 -33.5 -11.5t-21.5 -39.5q-4 -13 -4 -26q0 -27 29 -27q20 0 33 12t21 41zM238 423q3 11 5 20t2 17q0 30 -31 30q-42 0 -61 -67q-4 -13 -4 -26q0 -30 30 -30q21 0 36 13t23 43z" />
    <glyph glyph-name="nine.numerator" 
d="M372 511q-20 -60 -36.5 -101t-39.5 -66t-57 -35.5t-89 -10.5q-24 0 -44.5 4t-36 13t-24.5 23.5t-9 35.5q0 13 5 33h110q-3 -9 -3 -17q0 -13 6.5 -19.5t23.5 -6.5q23 0 35.5 18t23.5 50l20 61q-23 -18 -43 -25t-44 -7q-43 0 -64.5 20.5t-21.5 55.5q0 13 2 25.5t5 23.5
q12 41 28 69t38.5 44.5t53 23.5t71.5 7q66 0 92 -25t26 -67q0 -17 -7 -51t-21 -76zM287 595q2 9 4.5 19t2.5 18q0 12 -6.5 20t-24.5 8q-25 0 -37.5 -17.5t-21.5 -48.5q-3 -11 -6 -22.5t-3 -19.5q0 -27 31 -27q23 0 36.5 16t24.5 54z" />
    <glyph glyph-name="zero.denominator" 
d="M76 -7q-62 0 -86 26t-24 70q0 26 5 50.5t16 65.5q17 65 35 107.5t42 67.5t57 35t80 10q62 0 86.5 -26t24.5 -70q0 -26 -5 -50.5t-16 -65.5q-17 -65 -35 -107.5t-42 -67.5t-57.5 -35t-80.5 -10zM178 205q9 29 15 50t10 35.5t5.5 24t1.5 15.5q0 25 -29 25q-12 0 -20.5 -4.5
t-17.5 -19t-19 -42.5t-24 -76q-9 -29 -15 -50t-10 -35.5t-5.5 -24t-1.5 -15.5q0 -25 29 -25q12 0 20.5 4.5t17.5 19t19 42.5t24 76z" />
    <glyph glyph-name="one.denominator" 
d="M154 0h-122l88 306q-23 -14 -45 -23.5t-48 -18.5l27 93q29 13 55.5 29t52.5 34h113z" />
    <glyph glyph-name="two.denominator" 
d="M319 344q0 -26 -8.5 -48t-22 -42t-31 -37t-36.5 -32l-128 -105h157l-23 -81h-293l26 91l183 153q24 20 40 40.5t16 43.5q0 19 -19 19q-21 0 -31.5 -14t-15.5 -32h-113q18 65 64.5 95t111.5 30q19 0 41 -3.5t40 -12.5t30 -24.5t12 -40.5z" />
    <glyph glyph-name="three.denominator" 
d="M321 348q0 -20 -4.5 -39.5t-14.5 -36.5t-26 -30t-39 -20q38 -18 38 -61q0 -10 -2.5 -23t-4.5 -20q-11 -33 -26 -57t-38.5 -39t-55.5 -22t-76 -7q-54 0 -85 18t-31 67q0 15 2.5 27.5t6.5 26.5h110q-3 -10 -5.5 -20.5t-2.5 -21.5q0 -27 28 -27q15 0 25.5 9.5t17.5 23
t10.5 29t3.5 27.5q0 15 -6 22.5t-16 10.5t-21.5 3.5t-22.5 0.5h-9l17 61q97 -9 113 59q3 10 3 23q0 23 -25 23q-23 0 -34 -13.5t-17 -35.5h-111q23 64 68.5 91.5t111.5 27.5q19 0 40 -3t38 -11.5t28.5 -23.5t11.5 -39z" />
    <glyph glyph-name="four.denominator" 
d="M243 164h33l-20 -71h-33l-27 -94h-117l26 92h-153l24 82l191 246h149zM58 164h82l52 180z" />
    <glyph glyph-name="five.denominator" 
d="M271 149q-13 -45 -29.5 -75t-40.5 -48t-56.5 -25.5t-76.5 -7.5q-23 0 -43.5 3.5t-35.5 11.5t-24 22t-9 34q0 16 6 39h109q-1 -5 -1.5 -9t-0.5 -8q0 -11 6 -17t22 -6q19 0 33 16t28 63q12 39 12 58q0 23 -27 23q-21 0 -32.5 -15.5t-15.5 -29.5h-108l69 241h278l-21 -72
h-170l-27 -96q17 16 41.5 24.5t45.5 8.5q35 0 57 -17t22 -52q0 -14 -2.5 -30t-8.5 -36z" />
    <glyph glyph-name="six.denominator" 
d="M267 130q-13 -41 -30 -67.5t-39.5 -42t-52 -21.5t-68.5 -6q-63 0 -90 24t-27 69q0 18 5.5 43.5t14.5 57.5q20 71 41 117t47 73t59.5 37.5t79.5 10.5q25 0 46.5 -3.5t37 -12.5t24.5 -23.5t9 -36.5q0 -7 -0.5 -12.5t-2.5 -13.5h-110q3 9 3 16q0 12 -8 17t-21 5
q-25 0 -41 -25.5t-31 -70.5l-9 -27q20 17 43.5 25.5t47.5 8.5q45 0 64.5 -20.5t19.5 -53.5q0 -29 -12 -68zM158 139q4 13 6.5 24t2.5 19q0 12 -6.5 18.5t-23.5 6.5q-26 0 -39.5 -19t-21.5 -47q-5 -18 -8 -30t-3 -22q0 -13 7 -19.5t24 -6.5q24 0 36.5 17.5t25.5 58.5z" />
    <glyph glyph-name="seven.denominator" 
d="M102 -1h-123l215 346h-143l21 74h248l-25 -88z" />
    <glyph glyph-name="eight.denominator" 
d="M265 118q-19 -67 -63.5 -96t-123.5 -29q-63 0 -93.5 18t-30.5 59q0 19 8 48q11 37 31 62t54 40q-18 7 -25.5 19.5t-7.5 31.5q0 17 6 40q17 60 63 87t119 27q24 0 46 -4.5t38.5 -14.5t26 -25.5t9.5 -37.5q0 -20 -6 -39q-8 -29 -28 -52t-49 -32q17 -9 25.5 -21.5t8.5 -32.5
q0 -18 -8 -48zM207 306q5 17 5 26q0 25 -29 25q-20 0 -33.5 -11.5t-21.5 -39.5q-4 -13 -4 -26q0 -27 29 -27q20 0 33 12t21 41zM156 118q3 11 5 20t2 17q0 30 -31 30q-42 0 -61 -67q-4 -13 -4 -26q0 -30 30 -30q21 0 36 13t23 43z" />
    <glyph glyph-name="nine.denominator" 
d="M290 206q-20 -60 -36.5 -101t-39.5 -66t-57 -35.5t-89 -10.5q-24 0 -44.5 4t-36 13t-24.5 23.5t-9 35.5q0 13 5 33h110q-3 -9 -3 -17q0 -13 6.5 -19.5t23.5 -6.5q23 0 35.5 18t23.5 50l20 61q-23 -18 -43 -25t-44 -7q-43 0 -64.5 20.5t-21.5 55.5q0 13 2 25.5t5 23.5
q12 41 28 69t38.5 44.5t53 23.5t71.5 7q66 0 92 -25t26 -67q0 -17 -7 -51t-21 -76zM205 290q2 9 4.5 19t2.5 18q0 12 -6.5 20t-24.5 8q-25 0 -37.5 -17.5t-21.5 -48.5q-3 -11 -6 -22.5t-3 -19.5q0 -27 31 -27q23 0 36.5 16t24.5 54z" />
    <glyph glyph-name="Amacron" unicode="&#x100;" horiz-adv-x="673" 
d="M571 0h-211l9 142h-180l-73 -142h-215l391 723h290zM242 270h138l15 313zM608 804h-316l23 78h316z" />
    <glyph glyph-name="amacron" unicode="&#x101;" horiz-adv-x="570" 
d="M529 397q0 -22 -7 -52.5t-16.5 -62.5t-20 -62.5t-16.5 -53.5q-13 -46 -22.5 -89.5t-14.5 -76.5h-185l13 70q-19 -21 -36.5 -36.5t-37 -25.5t-42 -15t-50.5 -5t-52.5 6t-43 19t-29 34.5t-10.5 51.5q0 46 17.5 85.5t46.5 68.5q25 25 62.5 39.5t79 22t83.5 9.5t77 2
q5 17 11 37t6 37t-12 23.5t-28 6.5t-27 -6t-19 -16t-13.5 -23t-8.5 -26h-192q13 46 38.5 76.5t60.5 48.5t80 25t97 7q31 0 67.5 -3t68.5 -15t53.5 -35.5t21.5 -65.5zM303 247q-37 0 -64.5 -5.5t-46.5 -23.5q-16 -15 -27.5 -39.5t-11.5 -54.5q0 -20 12 -27.5t30 -7.5
q28 0 46 17t30 42t19 52t13 47zM505 615h-316l23 78h316z" />
    <glyph glyph-name="Abreve" unicode="&#x102;" horiz-adv-x="673" 
d="M571 0h-211l9 142h-180l-73 -142h-215l391 723h290zM242 270h138l15 313zM661 931q-29 -74 -82 -112.5t-132 -38.5q-28 0 -54 5t-46.5 17.5t-32.5 33.5t-12 52q0 20 5 43h71q-1 -5 -1 -9.5v-6.5q0 -24 22 -39.5t66 -15.5q41 0 74.5 16t50.5 55h71z" />
    <glyph glyph-name="abreve" unicode="&#x103;" horiz-adv-x="570" 
d="M529 397q0 -22 -7 -52.5t-16.5 -62.5t-20 -62.5t-16.5 -53.5q-13 -46 -22.5 -89.5t-14.5 -76.5h-185l13 70q-19 -21 -36.5 -36.5t-37 -25.5t-42 -15t-50.5 -5t-52.5 6t-43 19t-29 34.5t-10.5 51.5q0 46 17.5 85.5t46.5 68.5q25 25 62.5 39.5t79 22t83.5 9.5t77 2
q5 17 11 37t6 37t-12 23.5t-28 6.5t-27 -6t-19 -16t-13.5 -23t-8.5 -26h-192q13 46 38.5 76.5t60.5 48.5t80 25t97 7q31 0 67.5 -3t68.5 -15t53.5 -35.5t21.5 -65.5zM303 247q-37 0 -64.5 -5.5t-46.5 -23.5q-16 -15 -27.5 -39.5t-11.5 -54.5q0 -20 12 -27.5t30 -7.5
q28 0 46 17t30 42t19 52t13 47zM559 732q-29 -74 -82 -112.5t-132 -38.5q-28 0 -54 5t-46.5 17.5t-32.5 33.5t-12 52q0 20 5 43h71q-1 -5 -1 -9.5v-6.5q0 -24 22 -39.5t66 -15.5q41 0 74.5 16t50.5 55h71z" />
    <glyph glyph-name="Aogonek" unicode="&#x104;" horiz-adv-x="673" 
d="M571 0q-58 -37 -84 -65.5t-26 -54.5q0 -14 10.5 -19.5t30.5 -5.5q13 0 26 4t24 10l-21 -60q-23 -16 -50.5 -24t-53.5 -8q-75 0 -75 55q0 21 11.5 42.5t31 43t46.5 42t59 40.5h-145l9 142h-180l-73 -142h-210l391 723h290zM237 270h138l15 313z" />
    <glyph glyph-name="aogonek" unicode="&#x105;" horiz-adv-x="570" 
d="M432 0q-58 -37 -84 -65.5t-26 -54.5q0 -14 10.5 -19.5t30.5 -5.5q13 0 26 4t24 10l-21 -60q-23 -16 -50.5 -24t-53.5 -8q-75 0 -75 55q0 21 11.5 42.5t31 43t46.5 42t59 40.5h-114l13 70q-19 -21 -36.5 -36.5t-37 -25.5t-42 -15t-50.5 -5t-52.5 6t-43 19t-29 34.5
t-10.5 51.5q0 46 17.5 85.5t46.5 68.5q25 25 62.5 39.5t79 22t83.5 9.5t77 2q5 17 11 37t6 37t-12 23.5t-28 6.5t-27 -6t-19 -16t-13.5 -23t-8.5 -26h-192q13 46 38.5 76.5t60.5 48.5t80 25t97 7q31 0 67.5 -3t68.5 -15t53.5 -35.5t21.5 -65.5q0 -22 -7.5 -52.5t-17 -62.5
t-19.5 -62.5t-16 -53.5q-11 -44 -21.5 -84t-15.5 -82zM303 247q-37 0 -64.5 -5.5t-46.5 -23.5q-16 -15 -27.5 -39.5t-11.5 -54.5q0 -20 12 -27.5t30 -7.5q28 0 46 17t30 42t19 52t13 47z" />
    <glyph glyph-name="Cacute" unicode="&#x106;" horiz-adv-x="625" 
d="M654 593q0 -27 -6 -56t-16 -58h-203q8 23 13 45t5 39q0 26 -15 36t-39 10q-27 0 -46 -13t-35 -41.5t-31 -73t-33 -107.5q-6 -21 -14 -47.5t-15.5 -55t-12.5 -55.5t-5 -48q0 -27 12 -40.5t40 -13.5q30 0 49 13t32 34.5t21 49t16 55.5h206q-22 -78 -47 -132t-63 -87.5
t-95 -49t-142 -15.5q-43 0 -85 6t-75.5 23.5t-54 49.5t-20.5 84q0 23 2.5 43.5t7 43.5t12 50l17.5 63q26 92 50.5 165.5t63.5 124.5t101 78.5t164 27.5q41 0 84 -4.5t78 -20t57 -45t22 -78.5zM452 777h-109l114 145h182z" />
    <glyph glyph-name="cacute" unicode="&#x107;" horiz-adv-x="530" 
d="M324 323q3 13 5.5 26t2.5 27q0 40 -37 40q-23 0 -39 -13.5t-28.5 -38t-23 -59t-22.5 -76.5q-6 -22 -13 -48.5t-7 -49.5q0 -20 8 -31.5t29 -11.5q36 0 53.5 27.5t31.5 70.5h184q-18 -58 -42.5 -96.5t-59.5 -61t-81 -31.5t-106 -9q-38 0 -74 6t-64 22t-45.5 44t-17.5 72
q0 30 5.5 63.5t16.5 68.5q20 66 45.5 114t60.5 78.5t83 45t113 14.5q46 0 85 -6.5t67.5 -23t44.5 -44t16 -69.5q0 -11 -1.5 -24.5t-5.5 -25.5h-184zM350 578h-109l114 145h182z" />
    <glyph glyph-name="Ccircumflex" unicode="&#x108;" horiz-adv-x="625" 
d="M654 593q0 -27 -6 -56t-16 -58h-203q8 23 13 45t5 39q0 26 -15 36t-39 10q-27 0 -46 -13t-35 -41.5t-31 -73t-33 -107.5q-6 -21 -14 -47.5t-15.5 -55t-12.5 -55.5t-5 -48q0 -27 12 -40.5t40 -13.5q30 0 49 13t32 34.5t21 49t16 55.5h206q-22 -78 -47 -132t-63 -87.5
t-95 -49t-142 -15.5q-43 0 -85 6t-75.5 23.5t-54 49.5t-20.5 84q0 23 2.5 43.5t7 43.5t12 50l17.5 63q26 92 50.5 165.5t63.5 124.5t101 78.5t164 27.5q41 0 84 -4.5t78 -20t57 -45t22 -78.5zM494 777l-49 77l-91 -77h-114l144 145h147l61 -145h-98z" />
    <glyph glyph-name="ccircumflex" unicode="&#x109;" horiz-adv-x="530" 
d="M324 323q3 13 5.5 26t2.5 27q0 40 -37 40q-23 0 -39 -13.5t-28.5 -38t-23 -59t-22.5 -76.5q-6 -22 -13 -48.5t-7 -49.5q0 -20 8 -31.5t29 -11.5q36 0 53.5 27.5t31.5 70.5h184q-18 -58 -42.5 -96.5t-59.5 -61t-81 -31.5t-106 -9q-38 0 -74 6t-64 22t-45.5 44t-17.5 72
q0 30 5.5 63.5t16.5 68.5q20 66 45.5 114t60.5 78.5t83 45t113 14.5q46 0 85 -6.5t67.5 -23t44.5 -44t16 -69.5q0 -11 -1.5 -24.5t-5.5 -25.5h-184zM391 578l-49 77l-91 -77h-114l144 145h147l61 -145h-98z" />
    <glyph glyph-name="Cdotaccent" unicode="&#x10a;" horiz-adv-x="625" 
d="M654 593q0 -27 -6 -56t-16 -58h-203q8 23 13 45t5 39q0 26 -15 36t-39 10q-27 0 -46 -13t-35 -41.5t-31 -73t-33 -107.5q-6 -21 -14 -47.5t-15.5 -55t-12.5 -55.5t-5 -48q0 -27 12 -40.5t40 -13.5q30 0 49 13t32 34.5t21 49t16 55.5h206q-22 -78 -47 -132t-63 -87.5
t-95 -49t-142 -15.5q-43 0 -85 6t-75.5 23.5t-54 49.5t-20.5 84q0 23 2.5 43.5t7 43.5t12 50l17.5 63q26 92 50.5 165.5t63.5 124.5t101 78.5t164 27.5q41 0 84 -4.5t78 -20t57 -45t22 -78.5zM503 789h-144l32 113h144z" />
    <glyph glyph-name="cdotaccent" unicode="&#x10b;" horiz-adv-x="530" 
d="M324 323q3 13 5.5 26t2.5 27q0 40 -37 40q-23 0 -39 -13.5t-28.5 -38t-23 -59t-22.5 -76.5q-6 -22 -13 -48.5t-7 -49.5q0 -20 8 -31.5t29 -11.5q36 0 53.5 27.5t31.5 70.5h184q-18 -58 -42.5 -96.5t-59.5 -61t-81 -31.5t-106 -9q-38 0 -74 6t-64 22t-45.5 44t-17.5 72
q0 30 5.5 63.5t16.5 68.5q20 66 45.5 114t60.5 78.5t83 45t113 14.5q46 0 85 -6.5t67.5 -23t44.5 -44t16 -69.5q0 -11 -1.5 -24.5t-5.5 -25.5h-184zM402 600h-144l32 113h144z" />
    <glyph glyph-name="Ccaron" unicode="&#x10c;" horiz-adv-x="625" 
d="M654 593q0 -27 -6 -56t-16 -58h-203q8 23 13 45t5 39q0 26 -15 36t-39 10q-27 0 -46 -13t-35 -41.5t-31 -73t-33 -107.5q-6 -21 -14 -47.5t-15.5 -55t-12.5 -55.5t-5 -48q0 -27 12 -40.5t40 -13.5q30 0 49 13t32 34.5t21 49t16 55.5h206q-22 -78 -47 -132t-63 -87.5
t-95 -49t-142 -15.5q-43 0 -85 6t-75.5 23.5t-54 49.5t-20.5 84q0 23 2.5 43.5t7 43.5t12 50l17.5 63q26 92 50.5 165.5t63.5 124.5t101 78.5t164 27.5q41 0 84 -4.5t78 -20t57 -45t22 -78.5zM500 777h-147l-61 145h98l49 -77l91 77h114z" />
    <glyph glyph-name="ccaron" unicode="&#x10d;" horiz-adv-x="530" 
d="M324 323q3 13 5.5 26t2.5 27q0 40 -37 40q-23 0 -39 -13.5t-28.5 -38t-23 -59t-22.5 -76.5q-6 -22 -13 -48.5t-7 -49.5q0 -20 8 -31.5t29 -11.5q36 0 53.5 27.5t31.5 70.5h184q-18 -58 -42.5 -96.5t-59.5 -61t-81 -31.5t-106 -9q-38 0 -74 6t-64 22t-45.5 44t-17.5 72
q0 30 5.5 63.5t16.5 68.5q20 66 45.5 114t60.5 78.5t83 45t113 14.5q46 0 85 -6.5t67.5 -23t44.5 -44t16 -69.5q0 -11 -1.5 -24.5t-5.5 -25.5h-184zM404 578h-147l-61 145h98l49 -77l91 77h114z" />
    <glyph glyph-name="Dcaron" unicode="&#x10e;" horiz-adv-x="667" 
d="M668 557q0 -34 -7 -77.5t-18.5 -90t-27.5 -93.5t-34.5 -88.5t-37.5 -75t-38 -53.5q-22 -23 -49 -38t-62.5 -24t-80 -13t-101.5 -4h-253l207 723h253q40 0 83.5 -4t80.5 -20.5t61 -49.5t24 -92zM455 523q0 40 -20 53.5t-57 13.5h-46l-131 -458h45q29 0 52 7t40 25
q13 13 26.5 39.5t26.5 59.5t24.5 70.5t20.5 73t14 66t5 50.5zM500 777h-147l-61 145h98l49 -77l91 77h114z" />
    <glyph glyph-name="dcaron" unicode="&#x10f;" horiz-adv-x="615" 
d="M440 0h-190l15 52q-32 -32 -63 -48t-77 -16q-31 0 -58 7t-46.5 22t-31 38.5t-11.5 56.5q0 38 8 75.5t19 74.5q15 52 31 98.5t42 81t66 54.5t103 20q19 0 39.5 -3t38 -10.5t31 -20.5t20.5 -33l78 274h192zM348 381q0 17 -11 29t-35 12q-14 0 -27 -6.5t-25.5 -24t-25.5 -49
t-27 -81.5q-4 -14 -9.5 -31.5t-10 -35.5t-8 -36t-3.5 -32q0 -42 45 -42q41 0 64 46.5t46 127.5q3 12 8 28t9 33t7 33t3 29zM730 447h-122l96 276h161z" />
    <glyph glyph-name="Dcroat" unicode="&#x110;" horiz-adv-x="667" 
d="M668 558q0 -29 -7 -70.5t-19.5 -88.5t-29 -96t-35.5 -93t-38.5 -79t-38.5 -55q-22 -23 -49.5 -37.5t-63 -23t-80.5 -12t-102 -3.5h-251l98 342h-46l31 106h45l79 275h253q40 0 84.5 -3.5t82 -20t62.5 -49.5t25 -92zM450 523q0 40 -20 53.5t-57 13.5h-46l-41 -142h72
l-30 -106h-72l-60 -210h45q29 0 52 7t40 25q13 13 26.5 39.5t26.5 59.5t24.5 70.5t20.5 73t14 66t5 50.5z" />
    <glyph glyph-name="dcroat" unicode="&#x111;" horiz-adv-x="595" 
d="M629 663h58l-29 -100h-58l-160 -563h-190l15 52q-32 -32 -63 -48t-77 -16q-31 0 -58 7t-46.5 22t-31 38.5t-11.5 56.5q0 38 8 75.5t19 74.5q15 52 31 98.5t42 81t66 54.5t103 20q19 0 39.5 -3t38 -10.5t31 -20.5t20.5 -33l32 114h-189l29 100h189l17 60h192zM348 381
q0 17 -11 29t-35 12q-14 0 -27 -6.5t-25.5 -24t-25.5 -49t-27 -81.5q-4 -14 -9.5 -31.5t-10 -35.5t-8 -36t-3.5 -32q0 -42 45 -42q41 0 64 46.5t46 127.5q3 12 8 28t9 33t7 33t3 29z" />
    <glyph glyph-name="Emacron" unicode="&#x112;" horiz-adv-x="537" 
d="M579 593h-244l-47 -165h212l-36 -123h-212l-50 -175h244l-37 -130h-450l207 723h450zM565 804h-316l23 78h316z" />
    <glyph glyph-name="emacron" unicode="&#x113;" horiz-adv-x="560" 
d="M523 372q0 -32 -7.5 -67t-20.5 -77h-313q-9 -31 -16 -60t-7 -49q0 -41 41 -41q19 0 33 8.5t23.5 21.5t16 29t11.5 32h190q-14 -51 -39.5 -85.5t-61 -56t-80.5 -30.5t-99 -9q-38 0 -76.5 6t-69.5 22.5t-50.5 44.5t-19.5 73q0 31 6.5 64.5t12.5 53.5q21 74 49 124.5
t66 81.5t87.5 44.5t115.5 13.5q39 0 76.5 -6.5t67 -23t47 -44t17.5 -70.5zM337 387q0 39 -37 39q-20 0 -34.5 -10t-24.5 -25.5t-17 -33.5t-11 -34h112q5 16 8.5 31.5t3.5 32.5zM494 615h-316l23 78h316z" />
    <glyph glyph-name="Ebreve" unicode="&#x114;" horiz-adv-x="537" 
d="M579 593h-244l-47 -165h212l-36 -123h-212l-50 -175h244l-37 -130h-450l207 723h450zM628 931q-29 -74 -82 -112.5t-132 -38.5q-28 0 -54 5t-46.5 17.5t-32.5 33.5t-12 52q0 20 5 43h71q-1 -5 -1 -9.5v-6.5q0 -24 22 -39.5t66 -15.5q41 0 74.5 16t50.5 55h71z" />
    <glyph glyph-name="ebreve" unicode="&#x115;" horiz-adv-x="560" 
d="M523 372q0 -32 -7.5 -67t-20.5 -77h-313q-9 -31 -16 -60t-7 -49q0 -41 41 -41q19 0 33 8.5t23.5 21.5t16 29t11.5 32h190q-14 -51 -39.5 -85.5t-61 -56t-80.5 -30.5t-99 -9q-38 0 -76.5 6t-69.5 22.5t-50.5 44.5t-19.5 73q0 31 6.5 64.5t12.5 53.5q21 74 49 124.5
t66 81.5t87.5 44.5t115.5 13.5q39 0 76.5 -6.5t67 -23t47 -44t17.5 -70.5zM337 387q0 39 -37 39q-20 0 -34.5 -10t-24.5 -25.5t-17 -33.5t-11 -34h112q5 16 8.5 31.5t3.5 32.5zM548 732q-29 -74 -82 -112.5t-132 -38.5q-28 0 -54 5t-46.5 17.5t-32.5 33.5t-12 52q0 20 5 43
h71q-1 -5 -1 -9.5v-6.5q0 -24 22 -39.5t66 -15.5q41 0 74.5 16t50.5 55h71z" />
    <glyph glyph-name="Edotaccent" unicode="&#x116;" horiz-adv-x="537" 
d="M579 593h-244l-47 -165h212l-36 -123h-212l-50 -175h244l-37 -130h-450l207 723h450zM473 789h-144l32 113h144z" />
    <glyph glyph-name="edotaccent" unicode="&#x117;" horiz-adv-x="560" 
d="M523 372q0 -32 -7.5 -67t-20.5 -77h-313q-9 -31 -16 -60t-7 -49q0 -41 41 -41q19 0 33 8.5t23.5 21.5t16 29t11.5 32h190q-14 -51 -39.5 -85.5t-61 -56t-80.5 -30.5t-99 -9q-38 0 -76.5 6t-69.5 22.5t-50.5 44.5t-19.5 73q0 31 6.5 64.5t12.5 53.5q21 74 49 124.5
t66 81.5t87.5 44.5t115.5 13.5q39 0 76.5 -6.5t67 -23t47 -44t17.5 -70.5zM337 387q0 39 -37 39q-20 0 -34.5 -10t-24.5 -25.5t-17 -33.5t-11 -34h112q5 16 8.5 31.5t3.5 32.5zM403 600h-144l32 113h144z" />
    <glyph glyph-name="Eogonek" unicode="&#x118;" horiz-adv-x="537" 
d="M409 0q-58 -37 -84 -65.5t-26 -54.5q0 -14 10.5 -19.5t30.5 -5.5q13 0 26 4t24 10l-21 -60q-23 -16 -50.5 -24t-53.5 -8q-75 0 -75 55q0 21 11.5 42.5t31 43t46.5 42t59 40.5h-379l207 723h450l-37 -130h-244l-47 -165h212l-36 -123h-212l-50 -175h244z" />
    <glyph glyph-name="eogonek" unicode="&#x119;" horiz-adv-x="560" 
d="M523 372q0 -32 -7.5 -67t-20.5 -77h-313q-9 -31 -16 -60t-7 -49q0 -41 41 -41q19 0 33 8.5t23.5 21.5t16 29t11.5 32h190q-12 -44 -32.5 -76t-49 -53t-64.5 -33t-78 -16q-49 -34 -71.5 -60.5t-22.5 -50.5q0 -14 10.5 -19.5t30.5 -5.5q13 0 26 4t24 10l-21 -60
q-23 -16 -50.5 -24t-53.5 -8q-75 0 -75 55q0 39 36 79t93 77q-36 1 -71.5 8t-63.5 23.5t-45.5 44.5t-17.5 70q0 31 6.5 64.5t12.5 53.5q21 74 49 124.5t66 81.5t87.5 44.5t115.5 13.5q39 0 76.5 -6.5t67 -23t47 -44t17.5 -70.5zM337 387q0 39 -37 39q-20 0 -34.5 -10
t-24.5 -25.5t-17 -33.5t-11 -34h112q5 16 8.5 31.5t3.5 32.5z" />
    <glyph glyph-name="Ecaron" unicode="&#x11a;" horiz-adv-x="537" 
d="M579 593h-244l-47 -165h212l-36 -123h-212l-50 -175h244l-37 -130h-450l207 723h450zM480 777h-147l-61 145h98l49 -77l91 77h114z" />
    <glyph glyph-name="ecaron" unicode="&#x11b;" horiz-adv-x="560" 
d="M523 372q0 -32 -7.5 -67t-20.5 -77h-313q-9 -31 -16 -60t-7 -49q0 -41 41 -41q19 0 33 8.5t23.5 21.5t16 29t11.5 32h190q-14 -51 -39.5 -85.5t-61 -56t-80.5 -30.5t-99 -9q-38 0 -76.5 6t-69.5 22.5t-50.5 44.5t-19.5 73q0 31 6.5 64.5t12.5 53.5q21 74 49 124.5
t66 81.5t87.5 44.5t115.5 13.5q39 0 76.5 -6.5t67 -23t47 -44t17.5 -70.5zM337 387q0 39 -37 39q-20 0 -34.5 -10t-24.5 -25.5t-17 -33.5t-11 -34h112q5 16 8.5 31.5t3.5 32.5zM405 578h-147l-61 145h98l49 -77l91 77h114z" />
    <glyph glyph-name="Gcircumflex" unicode="&#x11c;" horiz-adv-x="640" 
d="M653 593q0 -27 -5.5 -52t-13.5 -54h-203q6 21 10.5 40.5t4.5 36.5q0 25 -12.5 35t-36.5 10q-26 0 -45.5 -12t-33.5 -31.5t-24 -45t-18 -52.5l-32 -107q-12 -41 -20 -70t-13 -50t-7 -36t-2 -28q0 -31 15.5 -48.5t43.5 -17.5q42 0 81 13l38 133h-52l36 128h244l-101 -357
q-59 -22 -129 -34t-133 -12q-43 0 -87.5 4.5t-80.5 21t-59 48t-23 85.5q0 30 7 73.5t18.5 93.5t28 102t35.5 99t40 85t43 59q22 22 47 38.5t56 27.5t70 16.5t90 5.5q42 0 82 -6t71.5 -22t50.5 -45t19 -75zM499 777l-49 77l-91 -77h-114l144 145h147l61 -145h-98z" />
    <glyph glyph-name="gcircumflex" unicode="&#x11d;" horiz-adv-x="587" 
d="M429 -11q-17 -60 -46 -96.5t-66 -57t-80 -27t-89 -6.5q-42 0 -83.5 4t-74 15.5t-53 31t-20.5 51.5q0 14 1 26t5 25h195q-5 -15 -5 -27q0 -20 11.5 -30t30.5 -10q32 0 50.5 23.5t32.5 73.5l24 86q-17 -21 -33.5 -34t-34 -20.5t-38 -10.5t-46.5 -3q-27 0 -51 5t-43 17
t-30 32t-11 50q0 33 6 64t15 63q19 68 38.5 120.5t47 88.5t69 54.5t104.5 18.5q17 0 35.5 -2.5t35 -10.5t29.5 -22t19 -37l18 60h186zM341 379q0 41 -44 41q-21 0 -36.5 -13.5t-27.5 -36.5t-21.5 -54t-19.5 -66q-3 -11 -7 -25t-7.5 -28t-6 -28t-2.5 -26q0 -42 40 -42
q16 0 29.5 6.5t26 23t24 46t25.5 76.5q11 40 19 73t8 53zM404 578l-49 77l-91 -77h-114l144 145h147l61 -145h-98z" />
    <glyph glyph-name="Gbreve" unicode="&#x11e;" horiz-adv-x="640" 
d="M653 593q0 -27 -5.5 -52t-13.5 -54h-203q6 21 10.5 40.5t4.5 36.5q0 25 -12.5 35t-36.5 10q-26 0 -45.5 -12t-33.5 -31.5t-24 -45t-18 -52.5l-32 -107q-12 -41 -20 -70t-13 -50t-7 -36t-2 -28q0 -31 15.5 -48.5t43.5 -17.5q42 0 81 13l38 133h-52l36 128h244l-101 -357
q-59 -22 -129 -34t-133 -12q-43 0 -87.5 4.5t-80.5 21t-59 48t-23 85.5q0 30 7 73.5t18.5 93.5t28 102t35.5 99t40 85t43 59q22 22 47 38.5t56 27.5t70 16.5t90 5.5q42 0 82 -6t71.5 -22t50.5 -45t19 -75zM653 931q-29 -74 -82 -112.5t-132 -38.5q-28 0 -54 5t-46.5 17.5
t-32.5 33.5t-12 52q0 20 5 43h71q-1 -5 -1 -9.5v-6.5q0 -24 22 -39.5t66 -15.5q41 0 74.5 16t50.5 55h71z" />
    <glyph glyph-name="gbreve" unicode="&#x11f;" horiz-adv-x="587" 
d="M429 -11q-17 -60 -46 -96.5t-66 -57t-80 -27t-89 -6.5q-42 0 -83.5 4t-74 15.5t-53 31t-20.5 51.5q0 14 1 26t5 25h195q-5 -15 -5 -27q0 -20 11.5 -30t30.5 -10q32 0 50.5 23.5t32.5 73.5l24 86q-17 -21 -33.5 -34t-34 -20.5t-38 -10.5t-46.5 -3q-27 0 -51 5t-43 17
t-30 32t-11 50q0 33 6 64t15 63q19 68 38.5 120.5t47 88.5t69 54.5t104.5 18.5q17 0 35.5 -2.5t35 -10.5t29.5 -22t19 -37l18 60h186zM341 379q0 41 -44 41q-21 0 -36.5 -13.5t-27.5 -36.5t-21.5 -54t-19.5 -66q-3 -11 -7 -25t-7.5 -28t-6 -28t-2.5 -26q0 -42 40 -42
q16 0 29.5 6.5t26 23t24 46t25.5 76.5q11 40 19 73t8 53zM560 732q-29 -74 -82 -112.5t-132 -38.5q-28 0 -54 5t-46.5 17.5t-32.5 33.5t-12 52q0 20 5 43h71q-1 -5 -1 -9.5v-6.5q0 -24 22 -39.5t66 -15.5q41 0 74.5 16t50.5 55h71z" />
    <glyph glyph-name="Gdotaccent" unicode="&#x120;" horiz-adv-x="640" 
d="M653 593q0 -27 -5.5 -52t-13.5 -54h-203q6 21 10.5 40.5t4.5 36.5q0 25 -12.5 35t-36.5 10q-26 0 -45.5 -12t-33.5 -31.5t-24 -45t-18 -52.5l-32 -107q-12 -41 -20 -70t-13 -50t-7 -36t-2 -28q0 -31 15.5 -48.5t43.5 -17.5q42 0 81 13l38 133h-52l36 128h244l-101 -357
q-59 -22 -129 -34t-133 -12q-43 0 -87.5 4.5t-80.5 21t-59 48t-23 85.5q0 30 7 73.5t18.5 93.5t28 102t35.5 99t40 85t43 59q22 22 47 38.5t56 27.5t70 16.5t90 5.5q42 0 82 -6t71.5 -22t50.5 -45t19 -75zM508 789h-144l32 113h144z" />
    <glyph glyph-name="gdotaccent" unicode="&#x121;" horiz-adv-x="587" 
d="M429 -11q-17 -60 -46 -96.5t-66 -57t-80 -27t-89 -6.5q-42 0 -83.5 4t-74 15.5t-53 31t-20.5 51.5q0 14 1 26t5 25h195q-5 -15 -5 -27q0 -20 11.5 -30t30.5 -10q32 0 50.5 23.5t32.5 73.5l24 86q-17 -21 -33.5 -34t-34 -20.5t-38 -10.5t-46.5 -3q-27 0 -51 5t-43 17
t-30 32t-11 50q0 33 6 64t15 63q19 68 38.5 120.5t47 88.5t69 54.5t104.5 18.5q17 0 35.5 -2.5t35 -10.5t29.5 -22t19 -37l18 60h186zM341 379q0 41 -44 41q-21 0 -36.5 -13.5t-27.5 -36.5t-21.5 -54t-19.5 -66q-3 -11 -7 -25t-7.5 -28t-6 -28t-2.5 -26q0 -42 40 -42
q16 0 29.5 6.5t26 23t24 46t25.5 76.5q11 40 19 73t8 53zM415 600h-144l32 113h144z" />
    <glyph glyph-name="Gcommaaccent" unicode="&#x122;" horiz-adv-x="640" 
d="M653 593q0 -27 -5.5 -52t-13.5 -54h-203q6 21 10.5 40.5t4.5 36.5q0 25 -12.5 35t-36.5 10q-26 0 -45.5 -12t-33.5 -31.5t-24 -45t-18 -52.5l-32 -107q-12 -41 -20 -70t-13 -50t-7 -36t-2 -28q0 -31 15.5 -48.5t43.5 -17.5q42 0 81 13l38 133h-52l36 128h244l-101 -357
q-59 -22 -129 -34t-133 -12q-43 0 -87.5 4.5t-80.5 21t-59 48t-23 85.5q0 30 7 73.5t18.5 93.5t28 102t35.5 99t40 85t43 59q22 22 47 38.5t56 27.5t70 16.5t90 5.5q42 0 82 -6t71.5 -22t50.5 -45t19 -75zM189 -247h-121l88 193h151z" />
    <glyph glyph-name="gcommaaccent" unicode="&#x123;" horiz-adv-x="587" 
d="M429 -11q-17 -60 -46 -96.5t-66 -57t-80 -27t-89 -6.5q-42 0 -83.5 4t-74 15.5t-53 31t-20.5 51.5q0 14 1 26t5 25h195q-5 -15 -5 -27q0 -20 11.5 -30t30.5 -10q32 0 50.5 23.5t32.5 73.5l24 86q-17 -21 -33.5 -34t-34 -20.5t-38 -10.5t-46.5 -3q-27 0 -51 5t-43 17
t-30 32t-11 50q0 33 6 64t15 63q19 68 38.5 120.5t47 88.5t69 54.5t104.5 18.5q17 0 35.5 -2.5t35 -10.5t29.5 -22t19 -37l18 60h186zM341 379q0 41 -44 41q-21 0 -36.5 -13.5t-27.5 -36.5t-21.5 -54t-19.5 -66q-3 -11 -7 -25t-7.5 -28t-6 -28t-2.5 -26q0 -42 40 -42
q16 0 29.5 6.5t26 23t24 46t25.5 76.5q11 40 19 73t8 53zM339 723h119l-67 -145h-140z" />
    <glyph glyph-name="Hcircumflex" unicode="&#x124;" horiz-adv-x="670" 
d="M504 0h-206l90 314h-133l-90 -314h-206l207 723h206l-79 -277h133l79 277h206zM516 777l-49 77l-91 -77h-114l144 145h147l61 -145h-98z" />
    <glyph glyph-name="hcircumflex" unicode="&#x125;" horiz-adv-x="590" 
d="M552 428q0 -17 -2 -31t-7 -30l-105 -367h-192l95 330q4 14 7.5 27.5t3.5 27.5q0 18 -9.5 26.5t-26.5 8.5q-20 0 -33.5 -9t-22.5 -23t-15.5 -30.5t-10.5 -32.5l-93 -325h-192l207 723h192l-77 -270q75 63 159 63q22 0 44 -4t39 -14t28 -27t11 -43zM331 777l-49 77l-91 -77
h-114l144 145h147l61 -145h-98z" />
    <glyph glyph-name="Hbar" unicode="&#x126;" horiz-adv-x="670" 
d="M345 628h133l27 95h206l-207 -723h-206l90 314h-133l-90 -314h-206l207 723h206zM310 505l-17 -59h133l17 59h-133z" />
    <glyph glyph-name="hbar" unicode="&#x127;" horiz-adv-x="590" 
d="M552 428q0 -17 -2 -31t-7 -30l-105 -367h-192l95 330q4 14 7.5 27.5t3.5 27.5q0 18 -9.5 26.5t-26.5 8.5q-20 0 -33.5 -9t-22.5 -23t-15.5 -30.5t-10.5 -32.5l-93 -325h-192l161 563h-56l29 100h55l18 60h192l-17 -60h191l-29 -100h-191l-31 -110q75 63 159 63
q22 0 44 -4t39 -14t28 -27t11 -43z" />
    <glyph glyph-name="Itilde" unicode="&#x128;" horiz-adv-x="331" 
d="M165 0h-206l207 723h206zM513 916q-11 -24 -25.5 -46.5t-33 -40.5t-41.5 -29t-51 -11q-19 0 -38.5 5t-39 10.5t-39 10.5t-38.5 5q-17 0 -30.5 -12t-20.5 -27h-71q11 24 25.5 47t33.5 41t42 29t52 11q19 0 38 -5.5t37 -11.5t35 -11.5t32 -5.5q23 0 38 11t26 30h69z" />
    <glyph glyph-name="itilde" unicode="&#x129;" horiz-adv-x="296" 
d="M141 0h-192l145 504h192zM442 717q-11 -24 -25.5 -46.5t-33 -40.5t-41.5 -29t-51 -11q-19 0 -38.5 5t-39 10.5t-39 10.5t-38.5 5q-17 0 -30.5 -12t-20.5 -27h-71q11 24 25.5 47t33.5 41t42 29t52 11q19 0 38 -5.5t37 -11.5t35 -11.5t32 -5.5q23 0 38 11t26 30h69z" />
    <glyph glyph-name="Imacron" unicode="&#x12a;" horiz-adv-x="331" 
d="M165 0h-206l207 723h206zM447 804h-316l23 78h316z" />
    <glyph glyph-name="imacron" unicode="&#x12b;" horiz-adv-x="296" 
d="M141 0h-192l145 504h192zM376 615h-316l23 78h316z" />
    <glyph glyph-name="Ibreve" unicode="&#x12c;" horiz-adv-x="331" 
d="M165 0h-206l207 723h206zM489 931q-29 -74 -82 -112.5t-132 -38.5q-28 0 -54 5t-46.5 17.5t-32.5 33.5t-12 52q0 20 5 43h71q-1 -5 -1 -9.5v-6.5q0 -24 22 -39.5t66 -15.5q41 0 74.5 16t50.5 55h71z" />
    <glyph glyph-name="ibreve" unicode="&#x12d;" horiz-adv-x="296" 
d="M141 0h-192l145 504h192zM417 732q-29 -74 -82 -112.5t-132 -38.5q-28 0 -54 5t-46.5 17.5t-32.5 33.5t-12 52q0 20 5 43h71q-1 -5 -1 -9.5v-6.5q0 -24 22 -39.5t66 -15.5q41 0 74.5 16t50.5 55h71z" />
    <glyph glyph-name="Iogonek" unicode="&#x12e;" horiz-adv-x="331" 
d="M165 0q-58 -37 -84 -65.5t-26 -54.5q0 -14 10.5 -19.5t30.5 -5.5q13 0 26 4t24 10l-21 -60q-23 -16 -50.5 -24t-53.5 -8q-75 0 -75 55q0 21 11.5 42.5t31 43t46.5 42t59 40.5h-135l207 723h206z" />
    <glyph glyph-name="iogonek" unicode="&#x12f;" horiz-adv-x="296" 
d="M141 0q-58 -37 -84 -65.5t-26 -54.5q0 -14 10.5 -19.5t30.5 -5.5q13 0 26 4t24 10l-21 -60q-23 -16 -50.5 -24t-53.5 -8q-75 0 -75 55q0 21 11.5 42.5t31 43t46.5 42t59 40.5h-121l145 504h192zM311 592h-192l37 131h192z" />
    <glyph glyph-name="Idotaccent" unicode="&#x130;" horiz-adv-x="331" 
d="M165 0h-206l207 723h206zM355 789h-144l32 113h144z" />
    <glyph glyph-name="dotlessi" unicode="&#x131;" horiz-adv-x="296" 
d="M141 0h-192l145 504h192z" />
    <glyph glyph-name="Jcircumflex" unicode="&#x134;" horiz-adv-x="585" 
d="M490 236q-20 -70 -43.5 -118.5t-58.5 -78.5t-85 -43.5t-123 -13.5q-41 0 -79 6.5t-68 23t-48 43.5t-18 69q0 31 8 69t22 81h201q-11 -32 -19 -67.5t-8 -55.5q0 -17 6.5 -27t24.5 -10q28 0 45.5 26.5t33.5 83.5l142 499h206zM600 777l-49 77l-91 -77h-114l144 145h147
l61 -145h-98z" />
    <glyph glyph-name="jcircumflex" unicode="&#x135;" horiz-adv-x="296" 
d="M130 -36q-15 -53 -32 -84.5t-41 -48.5t-57.5 -22t-81.5 -5q-18 0 -37 0.5t-37 4.5l27 92q26 -1 40 7t22 37l161 559h191zM273 578l-49 77l-91 -77h-114l144 145h147l61 -145h-98z" />
    <glyph glyph-name="Kcommaaccent" unicode="&#x136;" horiz-adv-x="647" 
d="M473 379l68 -379h-211l-50 397l224 326h236zM165 0h-206l207 723h206zM212 -247h-121l88 193h151z" />
    <glyph glyph-name="kcommaaccent" unicode="&#x137;" horiz-adv-x="559" 
d="M395 269l63 -269h-191l-43 284l168 220h210zM141 0h-192l207 723h192zM166 -247h-121l88 193h151z" />
    <glyph glyph-name="kgreenlandic" unicode="&#x138;" horiz-adv-x="559" 
d="M395 269l63 -269h-191l-43 284l168 220h210zM141 0h-192l144 504h192z" />
    <glyph glyph-name="Lacute" unicode="&#x139;" horiz-adv-x="503" 
d="M387 0h-428l207 723h206l-169 -590h222zM304 777h-109l114 145h182z" />
    <glyph glyph-name="lacute" unicode="&#x13a;" horiz-adv-x="296" 
d="M141 0h-192l207 723h192zM289 767h-109l114 145h182z" />
    <glyph glyph-name="Lcommaaccent" unicode="&#x13b;" horiz-adv-x="503" 
d="M387 0h-428l207 723h206l-169 -590h222zM143 -247h-121l88 193h151z" />
    <glyph glyph-name="lcommaaccent" unicode="&#x13c;" horiz-adv-x="296" 
d="M141 0h-192l207 723h192zM1 -247h-121l88 193h151z" />
    <glyph glyph-name="Lcaron" unicode="&#x13d;" horiz-adv-x="503" 
d="M387 0h-428l207 723h206l-169 -590h222zM472 447h-122l96 276h161z" />
    <glyph glyph-name="lcaron" unicode="&#x13e;" horiz-adv-x="296" 
d="M141 0h-192l207 723h192zM435 447h-122l96 276h161z" />
    <glyph glyph-name="Ldot" unicode="&#x13f;" horiz-adv-x="503" 
d="M387 0h-428l207 723h206l-169 -590h222zM489 356h-144l32 113h144z" />
    <glyph glyph-name="ldot" unicode="&#x140;" horiz-adv-x="441" 
d="M141 0h-192l207 723h192zM429 325h-144l32 113h144z" />
    <glyph glyph-name="Lslash" unicode="&#x141;" horiz-adv-x="504" 
d="M387 0h-428l82 285l-73 -36l37 126l72 36l89 312h206l-56 -195l109 54l-37 -127l-108 -54l-77 -268h222z" />
    <glyph glyph-name="lslash" unicode="&#x142;" horiz-adv-x="297" 
d="M333 406l-87 -40l-105 -366h-192l76 264l-88 -40l28 96l87 40l104 363h192l-75 -261l88 40z" />
    <glyph glyph-name="Nacute" unicode="&#x143;" horiz-adv-x="704" 
d="M538 0h-289l42 588l-169 -588h-163l207 723h289l-41 -589l168 589h163zM485 777h-109l114 145h182z" />
    <glyph glyph-name="nacute" unicode="&#x144;" horiz-adv-x="590" 
d="M552 428q0 -17 -2 -31t-7 -30l-105 -367h-192l95 330q5 18 8 31t3 24q0 18 -9.5 26.5t-26.5 8.5q-20 0 -33.5 -9t-22.5 -23t-15.5 -30.5t-10.5 -32.5l-93 -325h-192l145 504h189l-15 -53q37 32 75 48.5t87 16.5q22 0 44 -4t39 -13.5t28 -26.5t11 -44zM379 578h-109
l114 145h182z" />
    <glyph glyph-name="Ncommaaccent" unicode="&#x145;" horiz-adv-x="704" 
d="M538 0h-289l42 588l-169 -588h-163l207 723h289l-41 -589l168 589h163zM214 -247h-121l88 193h151z" />
    <glyph glyph-name="ncommaaccent" unicode="&#x146;" horiz-adv-x="590" 
d="M552 428q0 -17 -2 -31t-7 -30l-105 -367h-192l95 330q5 18 8 31t3 24q0 18 -9.5 26.5t-26.5 8.5q-20 0 -33.5 -9t-22.5 -23t-15.5 -30.5t-10.5 -32.5l-93 -325h-192l145 504h189l-15 -53q37 32 75 48.5t87 16.5q22 0 44 -4t39 -13.5t28 -26.5t11 -44zM154 -247h-121
l88 193h151z" />
    <glyph glyph-name="Ncaron" unicode="&#x147;" horiz-adv-x="704" 
d="M538 0h-289l42 588l-169 -588h-163l207 723h289l-41 -589l168 589h163zM533 777h-147l-61 145h98l49 -77l91 77h114z" />
    <glyph glyph-name="ncaron" unicode="&#x148;" horiz-adv-x="590" 
d="M552 428q0 -17 -2 -31t-7 -30l-105 -367h-192l95 330q5 18 8 31t3 24q0 18 -9.5 26.5t-26.5 8.5q-20 0 -33.5 -9t-22.5 -23t-15.5 -30.5t-10.5 -32.5l-93 -325h-192l145 504h189l-15 -53q37 32 75 48.5t87 16.5q22 0 44 -4t39 -13.5t28 -26.5t11 -44zM423 578h-147
l-61 145h98l49 -77l91 77h114z" />
    <glyph glyph-name="Eng" unicode="&#x14a;" horiz-adv-x="667" 
d="M497 -15q-16 -55 -34.5 -90t-44 -55.5t-59.5 -28t-80 -7.5q-18 0 -36.5 1.5t-39.5 3.5l30 108q5 -1 12 -1.5t13 -0.5q26 0 44 11.5t26 39.5l10 34l-66 521l-150 -521h-163l207 723h232l39 -376l108 376h163z" />
    <glyph glyph-name="eng" unicode="&#x14b;" horiz-adv-x="590" 
d="M552 428q0 -17 -2 -31t-7 -30l-116 -403q-15 -53 -32 -84.5t-41 -48.5t-57.5 -22t-81.5 -5q-18 0 -36 1.5t-38 3.5l27 92q26 -1 40 7t22 37l111 385q6 21 8.5 32t2.5 23q0 18 -9.5 26.5t-26.5 8.5q-20 0 -33.5 -9t-22.5 -23t-15.5 -30.5t-10.5 -32.5l-93 -325h-192
l145 504h189l-15 -53q37 32 75 48.5t87 16.5q22 0 44 -4t39 -13.5t28 -26.5t11 -44z" />
    <glyph glyph-name="Omacron" unicode="&#x14c;" horiz-adv-x="656" 
d="M661 569q0 -26 -6.5 -64.5t-17.5 -82.5t-25 -90.5t-28.5 -87.5t-28.5 -74t-24 -51q-20 -34 -46.5 -59.5t-62 -43t-82 -26t-107.5 -8.5q-44 0 -86.5 6t-76 23.5t-54.5 50t-21 85.5q0 24 6 58.5t15 74t21 81t23.5 78.5t22.5 67.5t19 47.5q21 46 47.5 81.5t63.5 58.5
t87.5 35t120.5 12q45 0 88 -7t77 -26.5t54.5 -53t20.5 -85.5zM457 554q0 55 -58 55q-31 0 -51.5 -13t-34.5 -33.5t-23 -46t-16 -50.5l-34 -113q-15 -51 -28 -100t-13 -84q0 -55 58 -55q26 0 45.5 10t33.5 28t24 41.5t18 50.5l33 110q18 60 32 112t14 88zM603 804h-316l23 78
h316z" />
    <glyph glyph-name="omacron" unicode="&#x14d;" horiz-adv-x="554" 
d="M515 375q0 -38 -5.5 -67t-14.5 -61q-20 -69 -43.5 -118.5t-59 -80.5t-85.5 -45.5t-122 -14.5q-39 0 -76 6t-66 21.5t-47 44t-18 73.5q0 57 17 114q20 72 45 123t61 83.5t86.5 47.5t122.5 15q38 0 74.5 -5.5t65.5 -21.5t47 -43.5t18 -70.5zM331 376q0 40 -38 40
q-21 0 -36 -12.5t-27 -35.5t-22.5 -55.5t-22.5 -72.5q-7 -24 -15 -54t-8 -55q0 -20 7 -31.5t30 -11.5q20 0 34.5 9.5t25.5 29t21 47.5t21 66q4 14 9.5 32t10 37t7.5 36.5t3 30.5zM495 615h-316l23 78h316z" />
    <glyph glyph-name="Obreve" unicode="&#x14e;" horiz-adv-x="656" 
d="M661 569q0 -26 -6.5 -64.5t-17.5 -82.5t-25 -90.5t-28.5 -87.5t-28.5 -74t-24 -51q-20 -34 -46.5 -59.5t-62 -43t-82 -26t-107.5 -8.5q-44 0 -86.5 6t-76 23.5t-54.5 50t-21 85.5q0 24 6 58.5t15 74t21 81t23.5 78.5t22.5 67.5t19 47.5q21 46 47.5 81.5t63.5 58.5
t87.5 35t120.5 12q45 0 88 -7t77 -26.5t54.5 -53t20.5 -85.5zM457 554q0 55 -58 55q-31 0 -51.5 -13t-34.5 -33.5t-23 -46t-16 -50.5l-34 -113q-15 -51 -28 -100t-13 -84q0 -55 58 -55q26 0 45.5 10t33.5 28t24 41.5t18 50.5l33 110q18 60 32 112t14 88zM656 931
q-29 -74 -82 -112.5t-132 -38.5q-28 0 -54 5t-46.5 17.5t-32.5 33.5t-12 52q0 20 5 43h71q-1 -5 -1 -9.5v-6.5q0 -24 22 -39.5t66 -15.5q41 0 74.5 16t50.5 55h71z" />
    <glyph glyph-name="obreve" unicode="&#x14f;" horiz-adv-x="554" 
d="M515 375q0 -38 -5.5 -67t-14.5 -61q-20 -69 -43.5 -118.5t-59 -80.5t-85.5 -45.5t-122 -14.5q-39 0 -76 6t-66 21.5t-47 44t-18 73.5q0 57 17 114q20 72 45 123t61 83.5t86.5 47.5t122.5 15q38 0 74.5 -5.5t65.5 -21.5t47 -43.5t18 -70.5zM331 376q0 40 -38 40
q-21 0 -36 -12.5t-27 -35.5t-22.5 -55.5t-22.5 -72.5q-7 -24 -15 -54t-8 -55q0 -20 7 -31.5t30 -11.5q20 0 34.5 9.5t25.5 29t21 47.5t21 66q4 14 9.5 32t10 37t7.5 36.5t3 30.5zM549 732q-29 -74 -82 -112.5t-132 -38.5q-28 0 -54 5t-46.5 17.5t-32.5 33.5t-12 52
q0 20 5 43h71q-1 -5 -1 -9.5v-6.5q0 -24 22 -39.5t66 -15.5q41 0 74.5 16t50.5 55h71z" />
    <glyph glyph-name="Ohungarumlaut" unicode="&#x150;" horiz-adv-x="656" 
d="M661 569q0 -26 -6.5 -64.5t-17.5 -82.5t-25 -90.5t-28.5 -87.5t-28.5 -74t-24 -51q-20 -34 -46.5 -59.5t-62 -43t-82 -26t-107.5 -8.5q-44 0 -86.5 6t-76 23.5t-54.5 50t-21 85.5q0 24 6 58.5t15 74t21 81t23.5 78.5t22.5 67.5t19 47.5q21 46 47.5 81.5t63.5 58.5
t87.5 35t120.5 12q45 0 88 -7t77 -26.5t54.5 -53t20.5 -85.5zM457 554q0 55 -58 55q-31 0 -51.5 -13t-34.5 -33.5t-23 -46t-16 -50.5l-34 -113q-15 -51 -28 -100t-13 -84q0 -55 58 -55q26 0 45.5 10t33.5 28t24 41.5t18 50.5l33 110q18 60 32 112t14 88zM592 777h-104
l122 145h175zM375 777h-103l121 145h175z" />
    <glyph glyph-name="ohungarumlaut" unicode="&#x151;" horiz-adv-x="554" 
d="M515 375q0 -38 -5.5 -67t-14.5 -61q-20 -69 -43.5 -118.5t-59 -80.5t-85.5 -45.5t-122 -14.5q-39 0 -76 6t-66 21.5t-47 44t-18 73.5q0 57 17 114q20 72 45 123t61 83.5t86.5 47.5t122.5 15q38 0 74.5 -5.5t65.5 -21.5t47 -43.5t18 -70.5zM331 376q0 40 -38 40
q-21 0 -36 -12.5t-27 -35.5t-22.5 -55.5t-22.5 -72.5q-7 -24 -15 -54t-8 -55q0 -20 7 -31.5t30 -11.5q20 0 34.5 9.5t25.5 29t21 47.5t21 66q4 14 9.5 32t10 37t7.5 36.5t3 30.5zM475 578h-104l122 145h175zM258 578h-103l121 145h175z" />
    <glyph glyph-name="Racute" unicode="&#x154;" horiz-adv-x="670" 
d="M675 582q0 -51 -17.5 -97.5t-55.5 -82.5q-12 -11 -23 -19t-24.5 -14t-31.5 -11.5t-43 -11.5q45 -8 70 -29.5t25 -65.5q0 -24 -6.5 -53t-14.5 -61.5t-15.5 -67t-9.5 -69.5h-215q4 28 12 58.5t16.5 60.5t15 59t6.5 54q0 18 -6.5 28t-17 15t-25 6t-30.5 1h-39l-81 -282h-206
l207 723h304q33 0 69 -4.5t66 -19t50 -42.5t20 -75zM461 539q0 18 -6 28.5t-16.5 16t-24 7.5t-28.5 2h-57l-54 -190h60q60 0 93 35.5t33 100.5zM472 777h-109l114 145h182z" />
    <glyph glyph-name="racute" unicode="&#x155;" horiz-adv-x="382" 
d="M371 369q-8 1 -17 1h-17q-31 0 -51.5 -9t-34 -25t-22.5 -38t-16 -48l-72 -250h-192q36 127 72.5 251.5t71.5 252.5h184l-19 -64q32 43 67 60t88 17zM311 578h-109l114 145h182z" />
    <glyph glyph-name="Rcommaaccent" unicode="&#x156;" horiz-adv-x="670" 
d="M675 582q0 -51 -17.5 -97.5t-55.5 -82.5q-12 -11 -23 -19t-24.5 -14t-31.5 -11.5t-43 -11.5q45 -8 70 -29.5t25 -65.5q0 -24 -6.5 -53t-14.5 -61.5t-15.5 -67t-9.5 -69.5h-215q4 28 12 58.5t16.5 60.5t15 59t6.5 54q0 18 -6.5 28t-17 15t-25 6t-30.5 1h-39l-81 -282h-206
l207 723h304q33 0 69 -4.5t66 -19t50 -42.5t20 -75zM461 539q0 18 -6 28.5t-16.5 16t-24 7.5t-28.5 2h-57l-54 -190h60q60 0 93 35.5t33 100.5zM207 -247h-121l88 193h151z" />
    <glyph glyph-name="rcommaaccent" unicode="&#x157;" horiz-adv-x="382" 
d="M371 369q-8 1 -17 1h-17q-31 0 -51.5 -9t-34 -25t-22.5 -38t-16 -48l-72 -250h-192q36 127 72.5 251.5t71.5 252.5h184l-19 -64q32 43 67 60t88 17zM3 -247h-121l88 193h151z" />
    <glyph glyph-name="Rcaron" unicode="&#x158;" horiz-adv-x="670" 
d="M675 582q0 -51 -17.5 -97.5t-55.5 -82.5q-12 -11 -23 -19t-24.5 -14t-31.5 -11.5t-43 -11.5q45 -8 70 -29.5t25 -65.5q0 -24 -6.5 -53t-14.5 -61.5t-15.5 -67t-9.5 -69.5h-215q4 28 12 58.5t16.5 60.5t15 59t6.5 54q0 18 -6.5 28t-17 15t-25 6t-30.5 1h-39l-81 -282h-206
l207 723h304q33 0 69 -4.5t66 -19t50 -42.5t20 -75zM461 539q0 18 -6 28.5t-16.5 16t-24 7.5t-28.5 2h-57l-54 -190h60q60 0 93 35.5t33 100.5zM520 777h-147l-61 145h98l49 -77l91 77h114z" />
    <glyph glyph-name="rcaron" unicode="&#x159;" horiz-adv-x="382" 
d="M371 369q-8 1 -17 1h-17q-31 0 -51.5 -9t-34 -25t-22.5 -38t-16 -48l-72 -250h-192q36 127 72.5 251.5t71.5 252.5h184l-19 -64q32 43 67 60t88 17zM355 578h-147l-61 145h98l49 -77l91 77h114z" />
    <glyph glyph-name="Sacute" unicode="&#x15a;" horiz-adv-x="594" 
d="M617 603q0 -26 -4 -46.5t-12 -45.5h-196q5 13 9 28.5t4 29.5q0 20 -15.5 30t-34.5 10q-29 0 -51.5 -18t-22.5 -50q0 -15 6.5 -28.5t17 -26t23.5 -24t26 -20.5l53 -38q22 -16 42.5 -34.5t36 -39t24.5 -42.5t9 -45q0 -47 -18.5 -96t-59.5 -87q-24 -23 -50.5 -38t-56.5 -24
t-65.5 -12.5t-78.5 -3.5q-38 0 -78.5 5t-73.5 20t-54.5 43t-21.5 75q0 29 5 56.5t13 56.5h198q-6 -18 -11 -40t-5 -36q0 -26 16 -37t39 -11q41 0 64 22.5t23 56.5q0 29 -17.5 55t-67.5 63l-54 40q-20 15 -38 31t-31.5 34.5t-22 39.5t-8.5 44q0 45 20 86.5t55 75.5
q48 46 109 62.5t141 16.5q35 0 73 -6.5t69.5 -22.5t51.5 -42.5t20 -66.5zM433 777h-109l114 145h182z" />
    <glyph glyph-name="sacute" unicode="&#x15b;" horiz-adv-x="525" 
d="M502 414q0 -27 -7 -49h-179q2 8 4 16.5t2 16.5q0 20 -13.5 27.5t-31.5 7.5q-22 0 -40.5 -12t-18.5 -38q0 -20 16.5 -34.5t56.5 -33.5l64 -30q49 -23 70 -47.5t21 -66.5q0 -57 -24.5 -92.5t-63.5 -55.5t-89 -27.5t-101 -7.5q-29 0 -64.5 4t-67.5 16t-53.5 34t-21.5 58
q0 15 1 29t6 28h179q-3 -10 -5.5 -19.5t-2.5 -19.5q0 -21 14 -30t34 -9q31 0 49 15.5t18 42.5q0 20 -17 35t-49 30l-65 31q-20 9 -37.5 19.5t-30.5 23t-20.5 28.5t-7.5 36q0 54 25 88t64 53.5t86 27t91 7.5q43 0 81 -6t66.5 -18.5t45 -32t16.5 -45.5zM338 578h-109l114 145
h182z" />
    <glyph glyph-name="Scircumflex" unicode="&#x15c;" horiz-adv-x="594" 
d="M617 603q0 -26 -4 -46.5t-12 -45.5h-196q5 13 9 28.5t4 29.5q0 20 -15.5 30t-34.5 10q-29 0 -51.5 -18t-22.5 -50q0 -15 6.5 -28.5t17 -26t23.5 -24t26 -20.5l53 -38q22 -16 42.5 -34.5t36 -39t24.5 -42.5t9 -45q0 -47 -18.5 -96t-59.5 -87q-24 -23 -50.5 -38t-56.5 -24
t-65.5 -12.5t-78.5 -3.5q-38 0 -78.5 5t-73.5 20t-54.5 43t-21.5 75q0 29 5 56.5t13 56.5h198q-6 -18 -11 -40t-5 -36q0 -26 16 -37t39 -11q41 0 64 22.5t23 56.5q0 29 -17.5 55t-67.5 63l-54 40q-20 15 -38 31t-31.5 34.5t-22 39.5t-8.5 44q0 45 20 86.5t55 75.5
q48 46 109 62.5t141 16.5q35 0 73 -6.5t69.5 -22.5t51.5 -42.5t20 -66.5zM475 777l-49 77l-91 -77h-114l144 145h147l61 -145h-98z" />
    <glyph glyph-name="scircumflex" unicode="&#x15d;" horiz-adv-x="525" 
d="M502 414q0 -27 -7 -49h-179q2 8 4 16.5t2 16.5q0 20 -13.5 27.5t-31.5 7.5q-22 0 -40.5 -12t-18.5 -38q0 -20 16.5 -34.5t56.5 -33.5l64 -30q49 -23 70 -47.5t21 -66.5q0 -57 -24.5 -92.5t-63.5 -55.5t-89 -27.5t-101 -7.5q-29 0 -64.5 4t-67.5 16t-53.5 34t-21.5 58
q0 15 1 29t6 28h179q-3 -10 -5.5 -19.5t-2.5 -19.5q0 -21 14 -30t34 -9q31 0 49 15.5t18 42.5q0 20 -17 35t-49 30l-65 31q-20 9 -37.5 19.5t-30.5 23t-20.5 28.5t-7.5 36q0 54 25 88t64 53.5t86 27t91 7.5q43 0 81 -6t66.5 -18.5t45 -32t16.5 -45.5zM379 578l-49 77
l-91 -77h-114l144 145h147l61 -145h-98z" />
    <glyph glyph-name="Scedilla" unicode="&#x15e;" horiz-adv-x="594" 
d="M617 603q0 -26 -4 -46.5t-12 -45.5h-196q5 13 9 28.5t4 29.5q0 20 -15.5 30t-34.5 10q-29 0 -51.5 -18t-22.5 -50q0 -15 6.5 -28.5t17 -26t23.5 -24t26 -20.5l53 -38q22 -16 42.5 -34.5t36 -39t24.5 -42.5t9 -45q0 -47 -18.5 -96t-59.5 -87q-44 -41 -95.5 -58t-123.5 -19
l-31 -45q10 3 22 3q15 0 29 -3.5t25 -12t18 -21.5t7 -31q0 -27 -15 -47.5t-38.5 -35t-51 -21.5t-52.5 -7q-29 0 -57.5 7t-53.5 22l35 47q17 -8 34.5 -12.5t35.5 -4.5q28 0 46 11.5t18 33.5q0 13 -11.5 19t-28.5 6t-36 -7l-21 23l60 76q-35 1 -69.5 8t-62.5 22.5t-45 42.5
t-17 69q0 29 5 56.5t13 56.5h198q-6 -18 -11 -40t-5 -36q0 -26 16 -37t39 -11q41 0 64 22.5t23 56.5q0 29 -17.5 55t-67.5 63l-54 40q-20 15 -38 31t-31.5 34.5t-22 39.5t-8.5 44q0 45 20 86.5t55 75.5q48 46 109 62.5t141 16.5q35 0 73 -6.5t69.5 -22.5t51.5 -42.5
t20 -66.5z" />
    <glyph glyph-name="scedilla" unicode="&#x15f;" horiz-adv-x="525" 
d="M502 414q0 -27 -7 -49h-179q2 8 4 16.5t2 16.5q0 20 -13.5 27.5t-31.5 7.5q-22 0 -40.5 -12t-18.5 -38q0 -20 16.5 -34.5t56.5 -33.5l64 -30q49 -23 70 -47.5t21 -66.5q0 -53 -21 -87t-55.5 -54.5t-79.5 -29.5t-92 -11l-35 -51q10 3 22 3q15 0 29 -3.5t25 -12t18 -21.5
t7 -31q0 -27 -15 -47.5t-38.5 -35t-51 -21.5t-52.5 -7q-29 0 -57.5 7t-53.5 22l35 47q17 -8 34.5 -12.5t35.5 -4.5q28 0 46 11.5t18 33.5q0 13 -11.5 19t-28.5 6t-36 -7l-21 23l65 83q-28 2 -58.5 7.5t-55.5 18t-41.5 33t-16.5 51.5q0 15 1 29t6 28h179q-3 -10 -5.5 -19.5
t-2.5 -19.5q0 -21 14 -30t34 -9q31 0 49 15.5t18 42.5q0 20 -17 35t-49 30l-65 31q-20 9 -37.5 19.5t-30.5 23t-20.5 28.5t-7.5 36q0 54 25 88t64 53.5t86 27t91 7.5q43 0 81 -6t66.5 -18.5t45 -32t16.5 -45.5z" />
    <glyph glyph-name="uni0162" unicode="&#x162;" horiz-adv-x="516" 
d="M579 591h-147l-169 -591h-206l169 591h-157l38 132h510zM114 -247h-121l88 193h151z" />
    <glyph glyph-name="uni0163" unicode="&#x163;" horiz-adv-x="347" 
d="M343 404h-73l-77 -269q-2 -8 -3.5 -13.5t-1.5 -12.5q0 -17 12.5 -20t25.5 -3q11 0 22 3l-26 -89q-26 -7 -53.5 -9t-54.5 -2q-23 0 -44.5 3t-39 12t-28 25t-10.5 42q0 16 2 33t6 31l78 269h-57l29 100h57l24 86l212 64l-44 -150h73zM34 -247h-121l88 193h151z" />
    <glyph glyph-name="Tcaron" unicode="&#x164;" horiz-adv-x="516" 
d="M579 591h-147l-169 -591h-206l169 591h-157l38 132h510zM449 777h-147l-61 145h98l49 -77l91 77h114z" />
    <glyph glyph-name="tcaron" unicode="&#x165;" horiz-adv-x="347" 
d="M343 404h-73l-77 -269q-2 -8 -3.5 -13.5t-1.5 -12.5q0 -17 12.5 -20t25.5 -3q11 0 22 3l-26 -89q-26 -7 -53.5 -9t-54.5 -2q-23 0 -44.5 3t-39 12t-28 25t-10.5 42q0 16 2 33t6 31l78 269h-57l29 100h57l24 86l212 64l-44 -150h73zM505 447h-122l96 276h161z" />
    <glyph glyph-name="Tbar" unicode="&#x166;" horiz-adv-x="516" 
d="M350 305l-87 -305h-206l87 305h-128l36 123h127l47 163h-157l38 132h510l-38 -132h-147l-47 -163h127l-36 -123h-126z" />
    <glyph glyph-name="tbar" unicode="&#x167;" horiz-adv-x="347" 
d="M343 404h-73l-17 -57h74l-29 -100h-73l-32 -112q-2 -7 -3.5 -13t-1.5 -13q0 -17 12.5 -20t25.5 -3q11 0 22 3l-26 -89q-26 -7 -53.5 -9t-54.5 -2q-23 0 -44.5 3t-39 12t-28 25t-10.5 42q0 16 2 33t6 31l32 112h-56l29 100h56l17 57h-57l29 100h57l24 86l212 64l-44 -150
h73z" />
    <glyph glyph-name="Utilde" unicode="&#x168;" horiz-adv-x="696" 
d="M602 245q-21 -74 -49 -124.5t-67.5 -81t-93.5 -44t-128 -13.5q-42 0 -86.5 5.5t-81.5 22t-61 47.5t-24 82q0 26 4 52t12 52l137 480h206l-138 -484q-5 -17 -9 -33.5t-4 -34.5q0 -31 16 -44t45 -13t49 10.5t33.5 27.5t22 40t15.5 47l138 484h201zM694 916
q-11 -24 -25.5 -46.5t-33 -40.5t-41.5 -29t-51 -11q-19 0 -38.5 5t-39 10.5t-39 10.5t-38.5 5q-17 0 -30.5 -12t-20.5 -27h-71q11 24 25.5 47t33.5 41t42 29t52 11q19 0 38 -5.5t37 -11.5t35 -11.5t32 -5.5q23 0 38 11t26 30h69z" />
    <glyph glyph-name="utilde" unicode="&#x169;" horiz-adv-x="590" 
d="M434 0h-189l15 53q-37 -32 -75 -48.5t-87 -16.5q-26 0 -48.5 4.5t-38.5 15t-25 27t-9 41.5q0 15 2 28t7 33l104 367h192l-95 -330q-4 -14 -7.5 -27.5t-3.5 -27.5q0 -18 9.5 -26.5t26.5 -8.5q19 0 33 9t23 23t15 30.5t11 32.5l93 325h192zM588 717q-11 -24 -25.5 -46.5
t-33 -40.5t-41.5 -29t-51 -11q-19 0 -38.5 5t-39 10.5t-39 10.5t-38.5 5q-17 0 -30.5 -12t-20.5 -27h-71q11 24 25.5 47t33.5 41t42 29t52 11q19 0 38 -5.5t37 -11.5t35 -11.5t32 -5.5q23 0 38 11t26 30h69z" />
    <glyph glyph-name="Umacron" unicode="&#x16a;" horiz-adv-x="696" 
d="M602 245q-21 -74 -49 -124.5t-67.5 -81t-93.5 -44t-128 -13.5q-42 0 -86.5 5.5t-81.5 22t-61 47.5t-24 82q0 26 4 52t12 52l137 480h206l-138 -484q-5 -17 -9 -33.5t-4 -34.5q0 -31 16 -44t45 -13t49 10.5t33.5 27.5t22 40t15.5 47l138 484h201zM618 804h-316l23 78h316z
" />
    <glyph glyph-name="umacron" unicode="&#x16b;" horiz-adv-x="590" 
d="M434 0h-189l15 53q-37 -32 -75 -48.5t-87 -16.5q-26 0 -48.5 4.5t-38.5 15t-25 27t-9 41.5q0 15 2 28t7 33l104 367h192l-95 -330q-4 -14 -7.5 -27.5t-3.5 -27.5q0 -18 9.5 -26.5t26.5 -8.5q19 0 33 9t23 23t15 30.5t11 32.5l93 325h192zM522 615h-316l23 78h316z" />
    <glyph glyph-name="Ubreve" unicode="&#x16c;" horiz-adv-x="696" 
d="M602 245q-21 -74 -49 -124.5t-67.5 -81t-93.5 -44t-128 -13.5q-42 0 -86.5 5.5t-81.5 22t-61 47.5t-24 82q0 26 4 52t12 52l137 480h206l-138 -484q-5 -17 -9 -33.5t-4 -34.5q0 -31 16 -44t45 -13t49 10.5t33.5 27.5t22 40t15.5 47l138 484h201zM670 931
q-29 -74 -82 -112.5t-132 -38.5q-28 0 -54 5t-46.5 17.5t-32.5 33.5t-12 52q0 20 5 43h71q-1 -5 -1 -9.5v-6.5q0 -24 22 -39.5t66 -15.5q41 0 74.5 16t50.5 55h71z" />
    <glyph glyph-name="ubreve" unicode="&#x16d;" horiz-adv-x="590" 
d="M434 0h-189l15 53q-37 -32 -75 -48.5t-87 -16.5q-26 0 -48.5 4.5t-38.5 15t-25 27t-9 41.5q0 15 2 28t7 33l104 367h192l-95 -330q-4 -14 -7.5 -27.5t-3.5 -27.5q0 -18 9.5 -26.5t26.5 -8.5q19 0 33 9t23 23t15 30.5t11 32.5l93 325h192zM566 732q-29 -74 -82 -112.5
t-132 -38.5q-28 0 -54 5t-46.5 17.5t-32.5 33.5t-12 52q0 20 5 43h71q-1 -5 -1 -9.5v-6.5q0 -24 22 -39.5t66 -15.5q41 0 74.5 16t50.5 55h71z" />
    <glyph glyph-name="Uring" unicode="&#x16e;" horiz-adv-x="696" 
d="M602 245q-21 -74 -49 -124.5t-67.5 -81t-93.5 -44t-128 -13.5q-42 0 -86.5 5.5t-81.5 22t-61 47.5t-24 82q0 26 4 52t12 52l137 480h206l-138 -484q-5 -17 -9 -33.5t-4 -34.5q0 -31 16 -44t45 -13t49 10.5t33.5 27.5t22 40t15.5 47l138 484h201zM577 867q0 -24 -9 -44
t-24 -35t-35.5 -23.5t-44.5 -8.5t-44.5 8.5t-35.5 23.5t-24 35t-9 44t9 44t24 35t35.5 23.5t44.5 8.5t44.5 -8.5t35.5 -23.5t24 -35t9 -44zM519 867q0 25 -15.5 41.5t-39.5 16.5t-39.5 -16.5t-15.5 -41.5t15.5 -41.5t39.5 -16.5t39.5 16.5t15.5 41.5z" />
    <glyph glyph-name="uring" unicode="&#x16f;" horiz-adv-x="590" 
d="M434 0h-189l15 53q-37 -32 -75 -48.5t-87 -16.5q-26 0 -48.5 4.5t-38.5 15t-25 27t-9 41.5q0 15 2 28t7 33l104 367h192l-95 -330q-4 -14 -7.5 -27.5t-3.5 -27.5q0 -18 9.5 -26.5t26.5 -8.5q19 0 33 9t23 23t15 30.5t11 32.5l93 325h192zM458 674q0 -24 -9 -44t-24 -35
t-35.5 -23.5t-44.5 -8.5t-44.5 8.5t-35.5 23.5t-24 35t-9 44t9 44t24 35t35.5 23.5t44.5 8.5t44.5 -8.5t35.5 -23.5t24 -35t9 -44zM400 674q0 25 -15.5 41.5t-39.5 16.5t-39.5 -16.5t-15.5 -41.5t15.5 -41.5t39.5 -16.5t39.5 16.5t15.5 41.5z" />
    <glyph glyph-name="Uhungarumlaut" unicode="&#x170;" horiz-adv-x="696" 
d="M602 245q-21 -74 -49 -124.5t-67.5 -81t-93.5 -44t-128 -13.5q-42 0 -86.5 5.5t-81.5 22t-61 47.5t-24 82q0 26 4 52t12 52l137 480h206l-138 -484q-5 -17 -9 -33.5t-4 -34.5q0 -31 16 -44t45 -13t49 10.5t33.5 27.5t22 40t15.5 47l138 484h201zM617 777h-104l122 145
h175zM400 777h-103l121 145h175z" />
    <glyph glyph-name="uhungarumlaut" unicode="&#x171;" horiz-adv-x="590" 
d="M434 0h-189l15 53q-37 -32 -75 -48.5t-87 -16.5q-26 0 -48.5 4.5t-38.5 15t-25 27t-9 41.5q0 15 2 28t7 33l104 367h192l-95 -330q-4 -14 -7.5 -27.5t-3.5 -27.5q0 -18 9.5 -26.5t26.5 -8.5q19 0 33 9t23 23t15 30.5t11 32.5l93 325h192zM502 578h-104l122 145h175z
M285 578h-103l121 145h175z" />
    <glyph glyph-name="Uogonek" unicode="&#x172;" horiz-adv-x="696" 
d="M602 245q-20 -68 -45 -116t-59.5 -79.5t-81 -47t-109.5 -19.5q-43 -31 -63 -55.5t-20 -47.5q0 -14 10.5 -19.5t30.5 -5.5q13 0 26 4t24 10l-21 -60q-23 -16 -50.5 -24t-53.5 -8q-75 0 -75 55q0 38 33.5 76.5t87.5 74.5q-40 1 -80 8t-72.5 24.5t-52.5 47t-20 76.5
q0 26 4 52t12 52l137 480h206l-138 -484q-5 -17 -9 -33.5t-4 -34.5q0 -31 16 -44t45 -13t49 10.5t33.5 27.5t22 40t15.5 47l138 484h201z" />
    <glyph glyph-name="uogonek" unicode="&#x173;" horiz-adv-x="590" 
d="M434 0q-58 -37 -84 -65.5t-26 -54.5q0 -14 10.5 -19.5t30.5 -5.5q13 0 26 4t24 10l-21 -60q-23 -16 -50.5 -24t-53.5 -8q-75 0 -75 55q0 21 11.5 42.5t31 43t46.5 42t59 40.5h-118l15 53q-37 -32 -75 -48.5t-87 -16.5q-26 0 -48.5 4.5t-38.5 15t-25 27t-9 41.5q0 15 2 28
t7 33l104 367h192l-95 -330q-4 -14 -7.5 -27.5t-3.5 -27.5q0 -18 9.5 -26.5t26.5 -8.5q19 0 33 9t23 23t15 30.5t11 32.5l93 325h192z" />
    <glyph glyph-name="Wcircumflex" unicode="&#x174;" horiz-adv-x="949" 
d="M704 0h-245l80 562l-261 -562h-245l85 723h200l-99 -539l246 539h238l-70 -539l217 539h188zM663 777l-49 77l-91 -77h-114l144 145h147l61 -145h-98z" />
    <glyph glyph-name="wcircumflex" unicode="&#x175;" horiz-adv-x="801" 
d="M566 0h-198l23 332l-172 -332h-204l30 504h183l-45 -336l165 336h186l-26 -336l146 336h180zM524 578l-49 77l-91 -77h-114l144 145h147l61 -145h-98z" />
    <glyph glyph-name="Ycircumflex" unicode="&#x176;" horiz-adv-x="585" 
d="M342 219l-63 -219h-206l68 235l-61 488h205l6 -313l190 313h221zM459 777l-49 77l-91 -77h-114l144 145h147l61 -145h-98z" />
    <glyph glyph-name="ycircumflex" unicode="&#x177;" horiz-adv-x="544" 
d="M172 -198h-183l95 179l-41 523h186l-11 -349l168 349h180zM386 578l-49 77l-91 -77h-114l144 145h147l61 -145h-98z" />
    <glyph glyph-name="Zacute" unicode="&#x179;" horiz-adv-x="543" 
d="M580 573l-415 -443h295l-37 -130h-508l44 152l417 441h-279l37 130h489zM408 777h-109l114 145h182z" />
    <glyph glyph-name="zacute" unicode="&#x17a;" horiz-adv-x="456" 
d="M450 405l-285 -304h198l-29 -101h-418l30 104l286 300h-185l29 100h403zM309 578h-109l114 145h182z" />
    <glyph glyph-name="Zdotaccent" unicode="&#x17b;" horiz-adv-x="543" 
d="M580 573l-415 -443h295l-37 -130h-508l44 152l417 441h-279l37 130h489zM459 789h-144l32 113h144z" />
    <glyph glyph-name="zdotaccent" unicode="&#x17c;" horiz-adv-x="456" 
d="M450 405l-285 -304h198l-29 -101h-418l30 104l286 300h-185l29 100h403zM361 600h-144l32 113h144z" />
    <glyph glyph-name="Scommaaccent" unicode="&#x218;" horiz-adv-x="594" 
d="M617 603q0 -26 -4 -46.5t-12 -45.5h-196q5 13 9 28.5t4 29.5q0 20 -15.5 30t-34.5 10q-29 0 -51.5 -18t-22.5 -50q0 -15 6.5 -28.5t17 -26t23.5 -24t26 -20.5l53 -38q22 -16 42.5 -34.5t36 -39t24.5 -42.5t9 -45q0 -47 -18.5 -96t-59.5 -87q-24 -23 -50.5 -38t-56.5 -24
t-65.5 -12.5t-78.5 -3.5q-38 0 -78.5 5t-73.5 20t-54.5 43t-21.5 75q0 29 5 56.5t13 56.5h198q-6 -18 -11 -40t-5 -36q0 -26 16 -37t39 -11q41 0 64 22.5t23 56.5q0 29 -17.5 55t-67.5 63l-54 40q-20 15 -38 31t-31.5 34.5t-22 39.5t-8.5 44q0 45 20 86.5t55 75.5
q48 46 109 62.5t141 16.5q35 0 73 -6.5t69.5 -22.5t51.5 -42.5t20 -66.5zM163 -247h-121l88 193h151z" />
    <glyph glyph-name="scommaaccent" unicode="&#x219;" horiz-adv-x="525" 
d="M502 414q0 -27 -7 -49h-179q2 8 4 16.5t2 16.5q0 20 -13.5 27.5t-31.5 7.5q-22 0 -40.5 -12t-18.5 -38q0 -20 16.5 -34.5t56.5 -33.5l64 -30q49 -23 70 -47.5t21 -66.5q0 -57 -24.5 -92.5t-63.5 -55.5t-89 -27.5t-101 -7.5q-29 0 -64.5 4t-67.5 16t-53.5 34t-21.5 58
q0 15 1 29t6 28h179q-3 -10 -5.5 -19.5t-2.5 -19.5q0 -21 14 -30t34 -9q31 0 49 15.5t18 42.5q0 20 -17 35t-49 30l-65 31q-20 9 -37.5 19.5t-30.5 23t-20.5 28.5t-7.5 36q0 54 25 88t64 53.5t86 27t91 7.5q43 0 81 -6t66.5 -18.5t45 -32t16.5 -45.5zM122 -247h-121l88 193
h151z" />
    <glyph glyph-name="uni021A" unicode="&#x21a;" horiz-adv-x="516" 
d="M579 591h-147l-169 -591h-206l169 591h-157l38 132h510zM114 -247h-121l88 193h151z" />
    <glyph glyph-name="uni021B" unicode="&#x21b;" horiz-adv-x="347" 
d="M343 404h-73l-77 -269q-2 -8 -3.5 -13.5t-1.5 -12.5q0 -17 12.5 -20t25.5 -3q11 0 22 3l-26 -89q-26 -7 -53.5 -9t-54.5 -2q-23 0 -44.5 3t-39 12t-28 25t-10.5 42q0 16 2 33t6 31l78 269h-57l29 100h57l24 86l212 64l-44 -150h73zM34 -247h-121l88 193h151z" />
    <glyph glyph-name="dotlessj" unicode="&#x237;" horiz-adv-x="296" 
d="M130 -36q-15 -53 -32 -84.5t-41 -48.5t-57.5 -22t-81.5 -5q-18 0 -37 0.5t-37 4.5l27 92q26 -1 40 7t22 37l161 559h191z" />
    <glyph glyph-name="caron" unicode="&#x2c7;" horiz-adv-x="255" 
d="M264 578h-147l-61 145h98l49 -77l91 77h114z" />
    <glyph glyph-name="uni02C9" unicode="&#x2c9;" horiz-adv-x="255" 
d="M359 804h-316l23 78h316z" />
    <glyph glyph-name="breve" unicode="&#x2d8;" horiz-adv-x="255" 
d="M412 732q-29 -74 -82 -112.5t-132 -38.5q-28 0 -54 5t-46.5 17.5t-32.5 33.5t-12 52q0 20 5 43h71q-1 -5 -1 -9.5v-6.5q0 -24 22 -39.5t66 -15.5q41 0 74.5 16t50.5 55h71z" />
    <glyph glyph-name="dotaccent" unicode="&#x2d9;" horiz-adv-x="255" 
d="M268 600h-144l32 113h144z" />
    <glyph glyph-name="ring" unicode="&#x2da;" horiz-adv-x="255" 
d="M326 674q0 -24 -9 -44t-24 -35t-35.5 -23.5t-44.5 -8.5t-44.5 8.5t-35.5 23.5t-24 35t-9 44t9 44t24 35t35.5 23.5t44.5 8.5t44.5 -8.5t35.5 -23.5t24 -35t9 -44zM268 674q0 25 -15.5 41.5t-39.5 16.5t-39.5 -16.5t-15.5 -41.5t15.5 -41.5t39.5 -16.5t39.5 16.5
t15.5 41.5z" />
    <glyph glyph-name="ogonek" unicode="&#x2db;" horiz-adv-x="255" 
d="M43 1q-57 -38 -83.5 -66.5t-26.5 -54.5q0 -14 10.5 -19.5t30.5 -5.5q13 0 26 4t24 10l-21 -60q-23 -16 -50.5 -24t-53.5 -8q-75 0 -75 55q0 21 11.5 42.5t31.5 43.5t47.5 42.5t59.5 40.5h69z" />
    <glyph glyph-name="hungarumlaut" unicode="&#x2dd;" horiz-adv-x="255" 
d="M327 578h-104l122 145h175zM110 578h-103l121 145h175z" />
    <glyph glyph-name="uni0394" unicode="&#x394;" horiz-adv-x="689" 
d="M-96 0l434 723h205l36 -723h-675zM398 524l-209 -374h207z" />
    <glyph glyph-name="uni03A9" unicode="&#x3a9;" horiz-adv-x="668" 
d="M268 0l41 141q17 13 32 32.5t29 47t27.5 65t27.5 87.5q19 66 29 109.5t10 71.5q0 55 -56 55q-28 0 -48 -11.5t-37 -38.5t-33 -72.5t-35 -113.5q-17 -58 -24.5 -99t-7.5 -70q0 -41 16 -63l-41 -141h-260l41 141h144q-35 20 -56 62t-21 100q0 25 6 58t15 67.5t20.5 67.5
t23.5 59q22 49 50 84.5t65.5 58t87.5 33t116 10.5q240 0 240 -172q0 -29 -8 -71.5t-22 -93.5q-26 -94 -80.5 -164t-129.5 -99h140l-41 -141h-261z" />
    <glyph glyph-name="uni03BC" unicode="&#x3bc;" horiz-adv-x="592" 
d="M436 0h-189l15 53q-16 -28 -32.5 -42t-39.5 -14q-39 0 -42 36l-64 -227h-191l199 698h192l-95 -330q-4 -14 -7.5 -27.5t-3.5 -27.5q0 -18 9.5 -26.5t26.5 -8.5q19 0 33 9t23 23t15 30.5t11 32.5l93 325h192z" />
    <glyph glyph-name="pi" unicode="&#x3c0;" horiz-adv-x="670" 
d="M526 11q-29 -12 -56 -18t-56 -6q-59 0 -86 30t-27 80q0 32 11 71l54 192h-92l-103 -360h-177l103 360h-63l42 144h591l-42 -144h-82l-54 -191q-3 -11 -3 -21q0 -24 30 -24q14 0 46 11z" />
    <glyph glyph-name="Wgrave" unicode="&#x1e80;" horiz-adv-x="949" 
d="M704 0h-245l80 562l-261 -562h-245l85 723h200l-99 -539l246 539h238l-70 -539l217 539h188zM576 777l-109 145h168l41 -145h-100z" />
    <glyph glyph-name="wgrave" unicode="&#x1e81;" horiz-adv-x="801" 
d="M566 0h-198l23 332l-172 -332h-204l30 504h183l-45 -336l165 336h186l-26 -336l146 336h180zM450 578l-109 145h168l41 -145h-100z" />
    <glyph glyph-name="Wacute" unicode="&#x1e82;" horiz-adv-x="949" 
d="M704 0h-245l80 562l-261 -562h-245l85 723h200l-99 -539l246 539h238l-70 -539l217 539h188zM620 777h-109l114 145h182z" />
    <glyph glyph-name="wacute" unicode="&#x1e83;" horiz-adv-x="801" 
d="M566 0h-198l23 332l-172 -332h-204l30 504h183l-45 -336l165 336h186l-26 -336l146 336h180zM496 578h-109l114 145h182z" />
    <glyph glyph-name="Wdieresis" unicode="&#x1e84;" horiz-adv-x="949" 
d="M704 0h-245l80 562l-261 -562h-245l85 723h200l-99 -539l246 539h238l-70 -539l217 539h188zM759 789h-144l32 113h144zM566 789h-143l32 113h143z" />
    <glyph glyph-name="wdieresis" unicode="&#x1e85;" horiz-adv-x="801" 
d="M566 0h-198l23 332l-172 -332h-204l30 504h183l-45 -336l165 336h186l-26 -336l146 336h180zM620 600h-144l32 113h144zM427 600h-143l32 113h143z" />
    <glyph glyph-name="Ygrave" unicode="&#x1ef2;" horiz-adv-x="585" 
d="M342 219l-63 -219h-206l68 235l-61 488h205l6 -313l190 313h221zM381 777l-109 145h168l41 -145h-100z" />
    <glyph glyph-name="ygrave" unicode="&#x1ef3;" horiz-adv-x="544" 
d="M172 -198h-183l95 179l-41 523h186l-11 -349l168 349h180zM311 578l-109 145h168l41 -145h-100z" />
    <glyph glyph-name="fraction" unicode="&#x2044;" horiz-adv-x="173" 
d="M-125 -30h-87l510 778h86z" />
    <glyph glyph-name="zero.superior" unicode="&#x2070;" 
d="M199 462q-62 0 -86 26t-24 70q0 26 5 50.5t16 65.5q17 65 35 107.5t42 67.5t57 35t80 10q62 0 86.5 -26t24.5 -70q0 -26 -5 -50.5t-16 -65.5q-17 -65 -35 -107.5t-42 -67.5t-57.5 -35t-80.5 -10zM301 674q9 29 15 50t10 35.5t5.5 24t1.5 15.5q0 25 -29 25
q-12 0 -20.5 -4.5t-17.5 -19t-19 -42.5t-24 -76q-9 -29 -15 -50t-10 -35.5t-5.5 -24t-1.5 -15.5q0 -25 29 -25q12 0 20.5 4.5t17.5 19t19 42.5t24 76z" />
    <glyph glyph-name="four.superior" unicode="&#x2074;" 
d="M370 633h33l-20 -71h-33l-27 -94h-117l26 92h-153l24 82l191 246h149zM185 633h82l52 180z" />
    <glyph glyph-name="five.superior" unicode="&#x2075;" 
d="M401 618q-13 -45 -29.5 -75t-40.5 -48t-56.5 -25.5t-76.5 -7.5q-23 0 -43.5 3.5t-35.5 11.5t-24 22t-9 34q0 16 6 39h109q-1 -5 -1.5 -9t-0.5 -8q0 -11 6 -17t22 -6q19 0 33 16t28 63q12 39 12 58q0 23 -27 23q-21 0 -32.5 -15.5t-15.5 -29.5h-108l69 241h278l-21 -72
h-170l-27 -96q17 16 41.5 24.5t45.5 8.5q35 0 57 -17t22 -52q0 -14 -2.5 -30t-8.5 -36z" />
    <glyph glyph-name="six.superior" unicode="&#x2076;" 
d="M396 599q-13 -41 -30 -67.5t-39.5 -42t-52 -21.5t-68.5 -6q-63 0 -90 24t-27 69q0 18 5.5 43.5t14.5 57.5q20 71 41 117t47 73t59.5 37.5t79.5 10.5q25 0 46.5 -3.5t37 -12.5t24.5 -23.5t9 -36.5q0 -7 -0.5 -12.5t-2.5 -13.5h-110q3 9 3 16q0 12 -8 17t-21 5
q-25 0 -41 -25.5t-31 -70.5l-9 -27q20 17 43.5 25.5t47.5 8.5q45 0 64.5 -20.5t19.5 -53.5q0 -29 -12 -68zM287 608q4 13 6.5 24t2.5 19q0 12 -6.5 18.5t-23.5 6.5q-26 0 -39.5 -19t-21.5 -47q-5 -18 -8 -30t-3 -22q0 -13 7 -19.5t24 -6.5q24 0 36.5 17.5t25.5 58.5z" />
    <glyph glyph-name="seven.superior" unicode="&#x2077;" 
d="M222 468h-123l215 346h-143l21 74h248l-25 -88z" />
    <glyph glyph-name="eight.superior" unicode="&#x2078;" 
d="M400 587q-19 -67 -63.5 -96t-123.5 -29q-63 0 -93.5 18t-30.5 59q0 19 8 48q11 37 31 62t54 40q-18 7 -25.5 19.5t-7.5 31.5q0 17 6 40q17 60 63 87t119 27q24 0 46 -4.5t38.5 -14.5t26 -25.5t9.5 -37.5q0 -20 -6 -39q-8 -29 -28 -52t-49 -32q17 -9 25.5 -21.5t8.5 -32.5
q0 -18 -8 -48zM342 775q5 17 5 26q0 25 -29 25q-20 0 -33.5 -11.5t-21.5 -39.5q-4 -13 -4 -26q0 -27 29 -27q20 0 33 12t21 41zM291 587q3 11 5 20t2 17q0 30 -31 30q-42 0 -61 -67q-4 -13 -4 -26q0 -30 30 -30q21 0 36 13t23 43z" />
    <glyph glyph-name="nine.superior" unicode="&#x2079;" 
d="M412 675q-20 -60 -36.5 -101t-39.5 -66t-57 -35.5t-89 -10.5q-24 0 -44.5 4t-36 13t-24.5 23.5t-9 35.5q0 13 5 33h110q-3 -9 -3 -17q0 -13 6.5 -19.5t23.5 -6.5q23 0 35.5 18t23.5 50l20 61q-23 -18 -43 -25t-44 -7q-43 0 -64.5 20.5t-21.5 55.5q0 13 2 25.5t5 23.5
q12 41 28 69t38.5 44.5t53 23.5t71.5 7q66 0 92 -25t26 -67q0 -17 -7 -51t-21 -76zM327 759q2 9 4.5 19t2.5 18q0 12 -6.5 20t-24.5 8q-25 0 -37.5 -17.5t-21.5 -48.5q-3 -11 -6 -22.5t-3 -19.5q0 -27 31 -27q23 0 36.5 16t24.5 54z" />
    <glyph glyph-name="zero.inferior" unicode="&#x2080;" 
d="M26 -171q-62 0 -86 26t-24 70q0 26 5 50.5t16 65.5q17 65 35 107.5t42 67.5t57 35t80 10q62 0 86.5 -26t24.5 -70q0 -26 -5 -50.5t-16 -65.5q-17 -65 -35 -107.5t-42 -67.5t-57.5 -35t-80.5 -10zM128 41q9 29 15 50t10 35.5t5.5 24t1.5 15.5q0 25 -29 25
q-12 0 -20.5 -4.5t-17.5 -19t-19 -42.5t-24 -76q-9 -29 -15 -50t-10 -35.5t-5.5 -24t-1.5 -15.5q0 -25 29 -25q12 0 20.5 4.5t17.5 19t19 42.5t24 76z" />
    <glyph glyph-name="one.inferior" unicode="&#x2081;" 
d="M114 -165h-122l88 306q-23 -14 -45 -23.5t-48 -18.5l27 93q29 13 55.5 29t52.5 34h113z" />
    <glyph glyph-name="two.inferior" unicode="&#x2082;" 
d="M279 180q0 -26 -8.5 -48t-22 -42t-31 -37t-36.5 -32l-128 -105h157l-23 -81h-293l26 91l183 153q24 20 40 40.5t16 43.5q0 19 -19 19q-21 0 -31.5 -14t-15.5 -32h-113q18 65 64.5 95t111.5 30q19 0 41 -3.5t40 -12.5t30 -24.5t12 -40.5z" />
    <glyph glyph-name="three.inferior" unicode="&#x2083;" 
d="M275 184q0 -20 -4.5 -39.5t-14.5 -36.5t-26 -30t-39 -20q38 -18 38 -61q0 -10 -2.5 -23t-4.5 -20q-11 -33 -26 -57t-38.5 -39t-55.5 -22t-76 -7q-54 0 -85 18t-31 67q0 15 2.5 27.5t6.5 26.5h110q-3 -10 -5.5 -20.5t-2.5 -21.5q0 -27 28 -27q15 0 25.5 9.5t17.5 23
t10.5 29t3.5 27.5q0 15 -6 22.5t-16 10.5t-21.5 3.5t-22.5 0.5h-9l17 61q97 -9 113 59q3 10 3 23q0 23 -25 23q-23 0 -34 -13.5t-17 -35.5h-111q23 64 68.5 91.5t111.5 27.5q19 0 40 -3t38 -11.5t28.5 -23.5t11.5 -39z" />
    <glyph glyph-name="four.inferior" unicode="&#x2084;" 
d="M203 0h33l-20 -71h-33l-27 -94h-117l26 92h-153l24 82l191 246h149zM18 0h82l52 180z" />
    <glyph glyph-name="five.inferior" unicode="&#x2085;" 
d="M231 -15q-13 -45 -29.5 -75t-40.5 -48t-56.5 -25.5t-76.5 -7.5q-23 0 -43.5 3.5t-35.5 11.5t-24 22t-9 34q0 16 6 39h109q-1 -5 -1.5 -9t-0.5 -8q0 -11 6 -17t22 -6q19 0 33 16t28 63q12 39 12 58q0 23 -27 23q-21 0 -32.5 -15.5t-15.5 -29.5h-108l69 241h278l-21 -72
h-170l-27 -96q17 16 41.5 24.5t45.5 8.5q35 0 57 -17t22 -52q0 -14 -2.5 -30t-8.5 -36z" />
    <glyph glyph-name="six.inferior" unicode="&#x2086;" 
d="M223 -34q-13 -41 -30 -67.5t-39.5 -42t-52 -21.5t-68.5 -6q-63 0 -90 24t-27 69q0 18 5.5 43.5t14.5 57.5q20 71 41 117t47 73t59.5 37.5t79.5 10.5q25 0 46.5 -3.5t37 -12.5t24.5 -23.5t9 -36.5q0 -7 -0.5 -12.5t-2.5 -13.5h-110q3 9 3 16q0 12 -8 17t-21 5
q-25 0 -41 -25.5t-31 -70.5l-9 -27q20 17 43.5 25.5t47.5 8.5q45 0 64.5 -20.5t19.5 -53.5q0 -29 -12 -68zM114 -25q4 13 6.5 24t2.5 19q0 12 -6.5 18.5t-23.5 6.5q-26 0 -39.5 -19t-21.5 -47q-5 -18 -8 -30t-3 -22q0 -13 7 -19.5t24 -6.5q24 0 36.5 17.5t25.5 58.5z" />
    <glyph glyph-name="seven.inferior" unicode="&#x2087;" 
d="M62 -165h-123l215 346h-143l21 74h248l-25 -88z" />
    <glyph glyph-name="eight.inferior" unicode="&#x2088;" 
d="M227 -46q-19 -67 -63.5 -96t-123.5 -29q-63 0 -93.5 18t-30.5 59q0 19 8 48q11 37 31 62t54 40q-18 7 -25.5 19.5t-7.5 31.5q0 17 6 40q17 60 63 87t119 27q24 0 46 -4.5t38.5 -14.5t26 -25.5t9.5 -37.5q0 -20 -6 -39q-8 -29 -28 -52t-49 -32q17 -9 25.5 -21.5t8.5 -32.5
q0 -18 -8 -48zM169 142q5 17 5 26q0 25 -29 25q-20 0 -33.5 -11.5t-21.5 -39.5q-4 -13 -4 -26q0 -27 29 -27q20 0 33 12t21 41zM118 -46q3 11 5 20t2 17q0 30 -31 30q-42 0 -61 -67q-4 -13 -4 -26q0 -30 30 -30q21 0 36 13t23 43z" />
    <glyph glyph-name="nine.inferior" unicode="&#x2089;" 
d="M244 42q-20 -60 -36.5 -101t-39.5 -66t-57 -35.5t-89 -10.5q-24 0 -44.5 4t-36 13t-24.5 23.5t-9 35.5q0 13 5 33h110q-3 -9 -3 -17q0 -13 6.5 -19.5t23.5 -6.5q23 0 35.5 18t23.5 50l20 61q-23 -18 -43 -25t-44 -7q-43 0 -64.5 20.5t-21.5 55.5q0 13 2 25.5t5 23.5
q12 41 28 69t38.5 44.5t53 23.5t71.5 7q66 0 92 -25t26 -67q0 -17 -7 -51t-21 -76zM159 126q2 9 4.5 19t2.5 18q0 12 -6.5 20t-24.5 8q-25 0 -37.5 -17.5t-21.5 -48.5q-3 -11 -6 -22.5t-3 -19.5q0 -27 31 -27q23 0 36.5 16t24.5 54z" />
    <glyph glyph-name="afii61289" unicode="&#x2113;" horiz-adv-x="560" 
d="M566 610q0 -59 -29.5 -109t-75 -93t-100.5 -78.5t-106 -64.5l-20 -70q-2 -6 -3 -13t-1 -13q0 -41 43 -41q27 0 53 13.5t63 49.5l65 -81q-51 -54 -113 -87t-125 -33q-74 0 -113 41.5t-39 106.5v9.5t1 9.5l-38 -21l-48 98l124 71l55 189q35 121 101 182.5t160 61.5
q36 0 63 -10t45.5 -27.5t28 -40.5t9.5 -50zM300 422q63 44 95.5 86.5t32.5 90.5q0 28 -25 28q-19 0 -36.5 -18.5t-31.5 -64.5z" />
    <glyph glyph-name="Omega" unicode="&#x2126;" horiz-adv-x="668" 
d="M268 0l41 141q17 13 32 32.5t29 47t27.5 65t27.5 87.5q19 66 29 109.5t10 71.5q0 55 -56 55q-28 0 -48 -11.5t-37 -38.5t-33 -72.5t-35 -113.5q-17 -58 -24.5 -99t-7.5 -70q0 -41 16 -63l-41 -141h-260l41 141h144q-35 20 -56 62t-21 100q0 25 6 58t15 67.5t20.5 67.5
t23.5 59q22 49 50 84.5t65.5 58t87.5 33t116 10.5q240 0 240 -172q0 -29 -8 -71.5t-22 -93.5q-26 -94 -80.5 -164t-129.5 -99h140l-41 -141h-261z" />
    <glyph glyph-name="estimated" unicode="&#x212e;" horiz-adv-x="600" 
d="M142 259v-181q59 -59 145 -59q63 0 109 28.5t84 91.5l35 -21q-23 -36 -46.5 -61.5t-51 -42t-59.5 -24t-71 -7.5q-59 0 -106.5 21.5t-81.5 59t-52 87.5t-18 108t18 108.5t52 87.5t81.5 58.5t106.5 21.5q58 0 105.5 -20.5t81.5 -57t53 -87t19 -111.5h-404zM433 295v145
q-63 60 -147 60t-144 -60v-145h291z" />
    <glyph glyph-name="onethird" unicode="&#x2153;" horiz-adv-x="795" 
d="M216 303h-122l88 306q-23 -14 -45 -23.5t-48 -18.5l27 93q29 13 55.5 29t52.5 34h113zM162 -30h-87l510 778h86zM753 349q0 -20 -4.5 -39.5t-14.5 -36.5t-26 -30t-39 -20q38 -18 38 -61q0 -10 -2.5 -23t-4.5 -20q-11 -33 -26 -57t-38.5 -39t-55.5 -22t-76 -7
q-54 0 -85 18t-31 67q0 15 2.5 27.5t6.5 26.5h110q-3 -10 -5.5 -20.5t-2.5 -21.5q0 -27 28 -27q15 0 25.5 9.5t17.5 23t10.5 29t3.5 27.5q0 15 -6 22.5t-16 10.5t-21.5 3.5t-22.5 0.5h-9l17 61q97 -9 113 59q3 10 3 23q0 23 -25 23q-23 0 -34 -13.5t-17 -35.5h-111
q23 64 68.5 91.5t111.5 27.5q19 0 40 -3t38 -11.5t28.5 -23.5t11.5 -39z" />
    <glyph glyph-name="twothirds" unicode="&#x2154;" horiz-adv-x="795" 
d="M206 -30h-87l510 778h86zM797 349q0 -20 -4.5 -39.5t-14.5 -36.5t-26 -30t-39 -20q38 -18 38 -61q0 -10 -2.5 -23t-4.5 -20q-11 -33 -26 -57t-38.5 -39t-55.5 -22t-76 -7q-54 0 -85 18t-31 67q0 15 2.5 27.5t6.5 26.5h110q-3 -10 -5.5 -20.5t-2.5 -21.5q0 -27 28 -27
q15 0 25.5 9.5t17.5 23t10.5 29t3.5 27.5q0 15 -6 22.5t-16 10.5t-21.5 3.5t-22.5 0.5h-9l17 61q97 -9 113 59q3 10 3 23q0 23 -25 23q-23 0 -34 -13.5t-17 -35.5h-111q23 64 68.5 91.5t111.5 27.5q19 0 40 -3t38 -11.5t28.5 -23.5t11.5 -39zM366 648q0 -26 -8.5 -48
t-22 -42t-31 -37t-36.5 -32l-128 -105h157l-23 -81h-293l26 91l183 153q24 20 40 40.5t16 43.5q0 19 -19 19q-21 0 -31.5 -14t-15.5 -32h-113q18 65 64.5 95t111.5 30q19 0 41 -3.5t40 -12.5t30 -24.5t12 -40.5z" />
    <glyph glyph-name="oneeighth" unicode="&#x215b;" horiz-adv-x="795" 
d="M216 303h-122l88 306q-23 -14 -45 -23.5t-48 -18.5l27 93q29 13 55.5 29t52.5 34h113zM162 -30h-87l510 778h86zM703 119q-19 -67 -63.5 -96t-123.5 -29q-63 0 -93.5 18t-30.5 59q0 19 8 48q11 37 31 62t54 40q-18 7 -25.5 19.5t-7.5 31.5q0 17 6 40q17 60 63 87t119 27
q24 0 46 -4.5t38.5 -14.5t26 -25.5t9.5 -37.5q0 -20 -6 -39q-8 -29 -28 -52t-49 -32q17 -9 25.5 -21.5t8.5 -32.5q0 -18 -8 -48zM645 307q5 17 5 26q0 25 -29 25q-20 0 -33.5 -11.5t-21.5 -39.5q-4 -13 -4 -26q0 -27 29 -27q20 0 33 12t21 41zM594 119q3 11 5 20t2 17
q0 30 -31 30q-42 0 -61 -67q-4 -13 -4 -26q0 -30 30 -30q21 0 36 13t23 43z" />
    <glyph glyph-name="threeeighths" unicode="&#x215c;" horiz-adv-x="795" 
d="M183 -30h-87l510 778h86zM711 119q-19 -67 -63.5 -96t-123.5 -29q-63 0 -93.5 18t-30.5 59q0 19 8 48q11 37 31 62t54 40q-18 7 -25.5 19.5t-7.5 31.5q0 17 6 40q17 60 63 87t119 27q24 0 46 -4.5t38.5 -14.5t26 -25.5t9.5 -37.5q0 -20 -6 -39q-8 -29 -28 -52t-49 -32
q17 -9 25.5 -21.5t8.5 -32.5q0 -18 -8 -48zM653 307q5 17 5 26q0 25 -29 25q-20 0 -33.5 -11.5t-21.5 -39.5q-4 -13 -4 -26q0 -27 29 -27q20 0 33 12t21 41zM602 119q3 11 5 20t2 17q0 30 -31 30q-42 0 -61 -67q-4 -13 -4 -26q0 -30 30 -30q21 0 36 13t23 43zM383 652
q0 -20 -4.5 -39.5t-14.5 -36.5t-26 -30t-39 -20q38 -18 38 -61q0 -10 -2.5 -23t-4.5 -20q-11 -33 -26 -57t-38.5 -39t-55.5 -22t-76 -7q-54 0 -85 18t-31 67q0 15 2.5 27.5t6.5 26.5h110q-3 -10 -5.5 -20.5t-2.5 -21.5q0 -27 28 -27q15 0 25.5 9.5t17.5 23t10.5 29t3.5 27.5
q0 15 -6 22.5t-16 10.5t-21.5 3.5t-22.5 0.5h-9l17 61q97 -9 113 59q3 10 3 23q0 23 -25 23q-23 0 -34 -13.5t-17 -35.5h-111q23 64 68.5 91.5t111.5 27.5q19 0 40 -3t38 -11.5t28.5 -23.5t11.5 -39z" />
    <glyph glyph-name="fiveeighths" unicode="&#x215d;" horiz-adv-x="795" 
d="M183 -30h-87l510 778h86zM711 119q-19 -67 -63.5 -96t-123.5 -29q-63 0 -93.5 18t-30.5 59q0 19 8 48q11 37 31 62t54 40q-18 7 -25.5 19.5t-7.5 31.5q0 17 6 40q17 60 63 87t119 27q24 0 46 -4.5t38.5 -14.5t26 -25.5t9.5 -37.5q0 -20 -6 -39q-8 -29 -28 -52t-49 -32
q17 -9 25.5 -21.5t8.5 -32.5q0 -18 -8 -48zM653 307q5 17 5 26q0 25 -29 25q-20 0 -33.5 -11.5t-21.5 -39.5q-4 -13 -4 -26q0 -27 29 -27q20 0 33 12t21 41zM602 119q3 11 5 20t2 17q0 30 -31 30q-42 0 -61 -67q-4 -13 -4 -26q0 -30 30 -30q21 0 36 13t23 43zM336 453
q-13 -45 -29.5 -75t-40.5 -48t-56.5 -25.5t-76.5 -7.5q-23 0 -43.5 3.5t-35.5 11.5t-24 22t-9 34q0 16 6 39h109q-1 -5 -1.5 -9t-0.5 -8q0 -11 6 -17t22 -6q19 0 33 16t28 63q12 39 12 58q0 23 -27 23q-21 0 -32.5 -15.5t-15.5 -29.5h-108l69 241h278l-21 -72h-170l-27 -96
q17 16 41.5 24.5t45.5 8.5q35 0 57 -17t22 -52q0 -14 -2.5 -30t-8.5 -36z" />
    <glyph glyph-name="seveneighths" unicode="&#x215e;" horiz-adv-x="795" 
d="M162 -30h-87l510 778h86zM703 119q-19 -67 -63.5 -96t-123.5 -29q-63 0 -93.5 18t-30.5 59q0 19 8 48q11 37 31 62t54 40q-18 7 -25.5 19.5t-7.5 31.5q0 17 6 40q17 60 63 87t119 27q24 0 46 -4.5t38.5 -14.5t26 -25.5t9.5 -37.5q0 -20 -6 -39q-8 -29 -28 -52t-49 -32
q17 -9 25.5 -21.5t8.5 -32.5q0 -18 -8 -48zM645 307q5 17 5 26q0 25 -29 25q-20 0 -33.5 -11.5t-21.5 -39.5q-4 -13 -4 -26q0 -27 29 -27q20 0 33 12t21 41zM594 119q3 11 5 20t2 17q0 30 -31 30q-42 0 -61 -67q-4 -13 -4 -26q0 -30 30 -30q21 0 36 13t23 43zM195 303h-123
l215 346h-143l21 74h248l-25 -88z" />
    <glyph glyph-name="partialdiff" unicode="&#x2202;" horiz-adv-x="558" 
d="M444 151q-48 -85 -115.5 -125.5t-149.5 -40.5q-50 0 -85 15.5t-57 40.5t-32 56t-10 62q0 57 21 108.5t57.5 90.5t87 62t109.5 23q55 0 92 -29q6 39 6 75q0 59 -21 84.5t-65 25.5q-27 0 -55 -8.5t-57 -24.5l-45 112q38 21 90 40.5t118 19.5q52 0 89 -17t61 -47.5
t35.5 -73.5t11.5 -95q0 -96 -21 -186.5t-65 -167.5zM276 318q-23 0 -43 -14t-36 -35t-25 -47t-9 -50q0 -25 12.5 -37.5t33.5 -12.5q29 0 62.5 40t61.5 129q-10 12 -24.5 19.5t-32.5 7.5z" />
    <glyph glyph-name="Delta" unicode="&#x2206;" horiz-adv-x="689" 
d="M-96 0l434 723h205l36 -723h-675zM398 524l-209 -374h207z" />
    <glyph glyph-name="product" unicode="&#x220f;" horiz-adv-x="678" 
d="M427 -211v857h-176v-857h-188v987h552v-987h-188z" />
    <glyph glyph-name="summation" unicode="&#x2211;" horiz-adv-x="590" 
d="M37 -211v114l208 393l-203 367v113h510v-130h-295l186 -347l-201 -380h322v-130h-527z" />
    <glyph glyph-name="minus" unicode="&#x2212;" horiz-adv-x="585" 
d="M6 206v146h525v-146h-525z" />
    <glyph glyph-name="uni2215" unicode="&#x2215;" horiz-adv-x="173" 
d="M-125 -30h-87l510 778h86z" />
    <glyph glyph-name="uni2219" unicode="&#x2219;" horiz-adv-x="288" 
d="M169 183h-146l47 165h146z" />
    <glyph glyph-name="radical" unicode="&#x221a;" horiz-adv-x="686" 
d="M446 -201h-183l-118 347l-86 -27l-38 120l225 72l98 -303l183 778h165z" />
    <glyph glyph-name="infinity" unicode="&#x221e;" horiz-adv-x="873" 
d="M233 462q24 0 45 -5t43 -17t45 -32t52 -50q26 27 49 47t46 32.5t47.5 18.5t53.5 6q43 0 78 -14.5t60 -40t39 -61t14 -76.5q0 -40 -14 -75t-40.5 -61.5t-63.5 -42t-82 -15.5q-26 0 -48 5.5t-44 17.5t-45 31.5t-50 48.5q-27 -28 -51 -47.5t-47 -32t-46 -18t-49 -5.5
q-43 0 -78 14.5t-60.5 40t-39.5 61.5t-14 78q0 39 14 74t40.5 61t63.5 41.5t82 15.5zM601 342q-23 0 -46 -18.5t-56 -54.5q33 -36 56 -54.5t43 -18.5q26 0 45.5 19.5t19.5 53.5q0 35 -18 54t-44 19zM237 196q22 0 44.5 18t56.5 55q-35 38 -56.5 55.5t-41.5 17.5
q-26 0 -45.5 -20t-19.5 -53q0 -35 18.5 -54t43.5 -19z" />
    <glyph glyph-name="integral" unicode="&#x222b;" horiz-adv-x="441" 
d="M305 77q0 -138 -45.5 -206.5t-145.5 -68.5q-26 0 -50 2.5t-41 5.5l15 140q8 -2 15.5 -3.5t17.5 -1.5q28 0 46 23t18 87v454q0 138 45.5 206.5t145.5 68.5q26 0 50 -2.5t41 -5.5l-16 -141q-8 2 -15 3.5t-18 1.5q-14 0 -25.5 -5t-19.5 -17.5t-13 -34t-5 -53.5v-453z" />
    <glyph glyph-name="approxequal" unicode="&#x2248;" horiz-adv-x="585" 
d="M4 312q2 39 13 74t33 61.5t54 42t76 15.5q14 0 26 -2t25 -6t28.5 -10t35.5 -14q18 -8 30.5 -12.5t22 -7t17 -3.5t15.5 -1q21 0 34 13.5t16 36.5h104q-2 -39 -13 -74t-33 -61.5t-54 -42t-76 -15.5q-14 0 -26 2t-25 6t-28.5 10t-35.5 14q-18 7 -30.5 12t-22 7.5t-17 3.5
t-15.5 1q-21 0 -34 -13.5t-16 -36.5h-104zM4 60q2 39 13 74t33 61.5t54 42t76 15.5q14 0 26 -2t25 -6t28.5 -10t35.5 -14q18 -8 30.5 -12.5t22 -7t17 -3.5t15.5 -1q21 0 34 13.5t16 36.5h104q-2 -39 -13 -74t-33 -61.5t-54 -42t-76 -15.5q-14 0 -26 2t-25 6t-28.5 10
t-35.5 14q-18 7 -30.5 12t-22 7.5t-17 3.5t-15.5 1q-21 0 -34 -13.5t-16 -36.5h-104z" />
    <glyph glyph-name="notequal" unicode="&#x2260;" horiz-adv-x="585" 
d="M257 85l-76 -156l-129 62l46 94h-92v146h163l47 96h-210v146h281l74 152l129 -60l-45 -92h86v-146h-157l-46 -96h203v-146h-274z" />
    <glyph glyph-name="lessequal" unicode="&#x2264;" horiz-adv-x="586" 
d="M7 1v146h525v-146h-525zM6 326v146l525 153v-152l-315 -73l315 -73v-155z" />
    <glyph glyph-name="greaterequal" unicode="&#x2265;" horiz-adv-x="586" 
d="M6 1v146h525v-146h-525zM7 172v155l315 73l-315 73v152l525 -153v-146z" />
    <glyph glyph-name="lozenge" unicode="&#x25ca;" horiz-adv-x="589" 
d="M377 -30h-169l-176 391l179 392h168l178 -392zM294 604l-94 -243l94 -244l94 244z" />
    <glyph glyph-name="f_i" unicode="&#xf001;" horiz-adv-x="621" 
d="M404 634q-5 1 -7.5 1h-6.5q-20 0 -32.5 -4.5t-20.5 -14.5t-13.5 -26t-11.5 -39l-12 -47h68l-29 -100h-68l-116 -404h-192l116 404h-64l29 100h64l15 53q11 39 23.5 71t34 55.5t54.5 36t85 12.5q53 0 109 -9zM636 592h-192l37 131h192zM466 0h-192l145 504h192z" />
    <glyph glyph-name="f_l" unicode="&#xf002;" horiz-adv-x="621" 
d="M404 634q-5 1 -7.5 1h-6.5q-20 0 -32.5 -4.5t-20.5 -14.5t-13.5 -26t-11.5 -39l-12 -47h68l-29 -100h-68l-116 -404h-192l116 404h-64l29 100h64l15 53q11 39 23.5 71t34 55.5t54.5 36t85 12.5q53 0 109 -9zM466 0h-192l207 723h192z" />
    <glyph glyph-name="uniF8FF" unicode="&#xf8ff;" horiz-adv-x="512" 
d="M222 117v67h56v-67h-56zM223 234v17q0 27 3 46.5t10 35t18 29t28 29.5q16 16 26 28t15 22t7 19t2 20q0 36 -22.5 57.5t-53.5 21.5t-53.5 -22t-28.5 -73l-50 8q7 72 44 104.5t91 32.5q27 0 49.5 -9t39 -25t26 -39.5t9.5 -51.5q0 -17 -2.5 -32.5t-9.5 -30.5t-19.5 -30
t-31.5 -33q-16 -14 -25.5 -25t-15 -22t-7 -23.5t-1.5 -29.5v-24h-48zM462 50v617h-412v-617h412zM512 718v-718h-512v718h512z" />
    </font>
</defs>
</svg>
